<svg width="128" height="128" viewBox="0 0 128 128" fill="none" xmlns="http://www.w3.org/2000/svg">
<g clip-path="url(#clip0_819_4748)">
<rect width="128" height="128" fill="black"/>
<path d="M64 31C45.2263 31 30 46.1493 30 64.8343C30 79.7834 39.741 92.4656 53.2532 96.9401C54.9503 97.2531 55.5 96.2042 55.5 95.3133V89.0145C46.0423 91.0614 44.0732 85.022 44.0732 85.022C42.5262 81.1113 40.2963 80.0709 40.2963 80.0709C37.2108 77.9704 40.5315 78.0155 40.5315 78.0155C43.9457 78.2523 45.742 81.5033 45.742 81.5033C48.7737 86.6743 53.6952 85.1799 55.636 84.3143C55.9392 82.1292 56.8203 80.6348 57.795 79.7918C50.2442 78.9319 42.3052 76.0306 42.3052 63.0692C42.3052 59.3728 43.634 56.356 45.8072 53.9876C45.4558 53.1332 44.2913 49.6906 46.1387 45.0328C46.1387 45.0328 48.9947 44.1249 55.4915 48.5008C58.203 47.7508 61.11 47.3758 64 47.3617C66.89 47.3758 69.7998 47.7508 72.517 48.5008C79.0082 44.1249 81.8585 45.0328 81.8585 45.0328C83.7087 49.6934 82.5442 53.1361 82.1928 53.9876C84.3745 56.356 85.692 59.3757 85.692 63.0692C85.692 76.0644 77.7388 78.9262 70.1682 79.7636C71.3865 80.8125 72.5 82.8707 72.5 86.0286V95.3133C72.5 96.2127 73.044 97.27 74.7695 96.9373C88.2703 92.4571 98 79.7777 98 64.8343C98 46.1493 82.7765 31 64 31Z" fill="white"/>
</g>
<defs>
<clipPath id="clip0_819_4748">
<rect width="128" height="128" fill="white"/>
</clipPath>
</defs>
</svg>
