<svg width="128" height="128" viewBox="0 0 128 128" fill="none" xmlns="http://www.w3.org/2000/svg">
<g clip-path="url(#clip0_817_4711)">
<rect width="128" height="128" fill="#FF9549"/>
<g clip-path="url(#clip1_817_4711)">
<path d="M80.6083 40.04C83.3223 38.9162 86.2312 38.3381 89.1687 38.3388C92.1063 38.3381 95.0152 38.9162 97.7292 40.04C100.443 41.1638 102.909 42.8114 104.986 44.8885C107.064 46.9657 108.711 49.4317 109.835 52.1458C110.959 54.8599 111.537 57.7687 111.536 60.7063L111.536 66.8013V111.536L66.8012 111.536L60.7062 111.536C54.774 111.536 49.0848 109.18 44.89 104.985C40.6953 100.79 38.3388 95.101 38.3388 89.1688C38.3388 83.2365 40.6953 77.5473 44.89 73.3526C49.0848 69.1578 54.774 66.8013 60.7062 66.8013H66.8012L66.8012 60.7063C66.8006 57.7687 67.3786 54.8599 68.5025 52.1458C69.6263 49.4317 71.2738 46.9657 73.351 44.8885C75.4282 42.8114 77.8942 41.1638 80.6083 40.04Z" fill="#0532CF"/>
</g>
</g>
<defs>
<clipPath id="clip0_817_4711">
<rect width="128" height="128" fill="white"/>
</clipPath>
<clipPath id="clip1_817_4711">
<rect width="97.5807" height="97.5807" fill="white" transform="translate(16 85) rotate(-45)"/>
</clipPath>
</defs>
</svg>
