<svg fill="none" height="1006" viewBox="0 0 1233 1006" width="1233" xmlns="http://www.w3.org/2000/svg"><path d="m658.57 737.006h273.2 77.8c1.4 0 1.5-2.3 0-2.3-91.1 0-182.1 0-273.2 0-25.9 0-51.8 0-77.8 0-1.5 0-1.5 2.3 0 2.3z" fill="#dddde2"/><path d="m937.57 711.006h219c1.4 0 1.5-2.3 0-2.3-73 0-146 0-219 0-1.5 0-1.5 2.3 0 2.3z" fill="#dddde2"/><path d="m90.5704 900.006h152.9996c1.4 0 1.5-2.3 0-2.3-51 0-102 0-152.9996 0-1.4 0-1.4 2.3 0 2.3z" fill="#dddde2"/><path d="m1031.47 891.006h185c1.4 0 1.5-2.3 0-2.3-61.7 0-123.3 0-185 0-1.4 0-1.4 2.3 0 2.3z" fill="#dddde2"/><path d="m698.57 899.206c4.8 4.4 9.7 8.9 14.5 13.3.5-.5 1.1-1.1 1.6-1.6-5.3-4.5-10.2-9.5-14.8-14.8-.5.5-1.1 1.1-1.6 1.6 5.2 5.3 10.4 10.6 15.6 15.9.5.6 1.4.4 1.8-.2h1.1c-.6-.2-1.1-.4-1.7-.7-.6.5-1.2.9-1.9 1.4-1.2-.8-2.4 1.2-1.1 1.9 2.7 1.7 6-.9 5.2-3.9-.2-.7-1-1-1.7-.7-1.9 1-2.9 5.4.3 5.1 2.8-.2 2.8-4.2.1-4.7-2.9-.5-4.2 3.5-1.9 5.1 3.6 2.4 4.5-3.1 4.1-5.3-.1-.4-.4-.7-.8-.8-1.7-.4-2.8.1-3.8 1.5.6-.1 1.2-.2 1.8-.2-5.2-5.3-10.4-10.6-15.6-15.9-1-1-2.5.5-1.6 1.6 4.5 5.3 9.5 10.2 14.8 14.8 1.1.9 2.7-.6 1.6-1.6-4.8-4.4-9.7-8.9-14.5-13.3-1-1.1-2.6.5-1.5 1.5z" fill="#dddde2"/><path d="m694.37 908.406c10.9-2.7 21.7-5.7 32.5-8.8 1.1-.3 1-1.8 0-2.2-.6-.2-1.1-.4-1.7-.6.1.7.2 1.4.3 2.1.1-.8.2-1.6.3-2.3-.2.6-.4 1.1-.7 1.7.8.7 1.6 1.4 2.4 2.1.5-.4.9-.7 1.4-1.1-.7-.7-1.3-1.5-2-2.2-.5.4-.9.7-1.4 1.1l1.5 1.2c-1.4.5-.8 2.7.6 2.2 3.9-1.4 1.2-4.7-1.5-5.5-.7-.2-1.4.4-1.4 1.1 0 2.5 1.1 3.9 3.6 4.4.7.1 1.4-.3 1.4-1.1-.1-3.1-2.2-4.8-5.3-4.2-.7.1-1 1.1-.7 1.7 1 1.8 5.1 5.1 6 1.2.9-3.6-3.8-2.9-5.5-1.9-.9.5-.6 1.7.3 2.1.6.2 1.1.4 1.7.6 0-.7 0-1.4 0-2.2-10.8 3.1-21.6 6-32.5 8.8-1.3 0-.7 2.1.7 1.8z" fill="#dddde2"/><path d="m693.37 945.406c6.9-.5 13.8-1.2 20.7-2.2.8-.1 1.1-1.4.5-1.9-.2-.4-.4-.7-.7-1.1-.3.5-.5.9-.8 1.4 0-.2-.1-.4-.1-.6-.1.5-.3 1-.4 1.5 0-.8.1-1.6.1-2.4-.5-1.3-2.7-.8-2.2.6.8 2.1 4.5 6.5 6.5 2.5 1.8-3.7-3.5-4.1-5.5-2.7-.5.3-.8 1-.4 1.5 1.2 1.8 2.5 2.6 4.8 2.6.5 0 .9-.4 1.1-.8.9-2.9-1.5-5.3-4.4-4.5-.6.2-.9.8-.8 1.4.3 1.2.3 1.3 1.2 2.1.2-.6.3-1.3.5-1.9-6.7.9-13.4 1.7-20.1 2.1-1.4.2-1.4 2.5 0 2.4z" fill="#dddde2"/><path d="m725.77 955.106c7.4-5.1 14.6-10.5 21.6-16.1 1.1-.9-.5-2.5-1.6-1.6-6.9 5.5-13.9 10.7-21.1 15.7-1.2.9-.1 2.8 1.1 2z" fill="#dddde2"/><path d="m724.47 954.806c.2-.5 1-.8 1-.1.1.6-.5.6-.8.3-.2-.1-.2-.3-.1-.4.1-.2.5-.4.7-.4.4.1.4.8 0 1 .3 0 .6-.1.9-.1-.8-.2-1.4-.8-1.7-1.5-.2.6-.4 1.1-.7 1.7.4-.1.7-.1 1.1 0 .6.3 1.2.2 1.5-.4.3-.5.2-1.3-.4-1.5-.9-.4-1.8-.5-2.8-.3-.7.2-1 1-.7 1.7.5 1 1.3 1.8 2.3 2.3.6.3 1.2.5 1.8 0 .5-.3.8-.8 1-1.3.8-2-1-4.3-3.2-3.7-1 .3-1.9 1.1-2.1 2.1-.2 1.1.3 2.1 1.2 2.7s2 .7 2.9.2c1-.5 1.4-1.7 1.3-2.8-.2-1.3-1.1-2.2-2.4-2.3-1.1-.1-2.3.5-2.8 1.6-.2.6-.2 1.2.4 1.5.5.4 1.4.2 1.6-.3z" fill="#dddde2"/><path d="m1065.17 639.506c-5.2-16.2-9-32.9-11.1-49.8-1-8.2-1.7-16.4-2-24.7-.1-1.9-.6-5.4 1.5-6.6 1.1-.7 3.5-.6 4.8-.8 5-.8 10-1.4 15.1-1.9 16.4-1.7 32.9-1.9 49.3-.8 4.2.3 8.4.7 12.5 1.2 2.4.3 5 .4 7.4.9 2.9.7 3.1 1.2 3.3 4.2.4 8.2.5 16.4.1 24.7-.8 19.2-3.9 38.2-9 56.7-.4 1.4 1.8 2 2.2.6 7.7-28.2 10.7-57.5 8.7-86.7 0-.4-.3-1-.8-1.1-16.1-2.5-32.3-3.7-48.5-3.4-8.4.1-16.8.6-25.1 1.5-3.3.3-6.6.7-9.9 1.2-3.4.5-8 .5-11.1 1.9-4.4 2-2.7 8.5-2.5 12.4.4 7.7 1.1 15.4 2.1 23.1 2.2 16.4 5.9 32.5 10.9 48.2.4 1.2 2.6.6 2.1-.8z" fill="#dddde2"/><path d="m1056.07 612.906c14.1 12.1 30.5 20.7 47 29 1.3.7 2.4-1.3 1.1-1.9-16.3-8.2-32.7-16.6-46.6-28.6-1-1-2.6.5-1.5 1.5z" fill="#dddde2"/><path d="m1051.27 576.906c24.7 26.3 53.8 47.9 86 64 1.3.6 2.4-1.3 1.1-1.9-32.1-16-61.1-37.5-85.6-63.6-.9-1.1-2.5.5-1.5 1.5z" fill="#dddde2"/><path d="m1063.27 555.906c20.6 27.8 47.1 50.6 77.7 66.7 1.3.7 2.4-1.3 1.1-1.9-30.2-15.9-56.6-38.4-76.9-65.9-.8-1.1-2.8 0-1.9 1.1z" fill="#dddde2"/><path d="m1095.67 555.206c15.8 15 31.1 31 49.3 43.2 1.2.8 2.3-1.1 1.1-1.9-18-12-33.2-28-48.8-42.9-1.1-1-2.6.6-1.6 1.6z" fill="#dddde2"/><path d="m1072.77 553.906c-2.8-4.3-5.2-8.9-7-13.7-.6-1.6-5.2-14.4-2.1-14.8.7-.1 1.3-.7 1.1-1.4-1.5-5.2-2.5-10.6-2.9-16-.2-2.1-.6-4.7-.2-6.9.5-2.8 2-3 2.5-4.9 1-4-.5-8.7-1-12.8-.6-5.2-1.1-10.4-1.3-15.6-.3-9.1.6-18.4 3.9-27 1.5-4 4.2-10.8 7.9-13.3 6.5-4.4 11.6 3.5 14.4 8.2 4.4 7.3 6.5 15.8 8.2 24.2 1.9 9.5 3.5 19 4.8 28.6 2.9 21.3 4.4 42.7 4.6 64.2 0 1.4 2.3 1.5 2.3 0-.2-19.6-1.4-39.2-3.8-58.7-2.1-16.6-3.9-34.5-9.7-50.3-2.8-7.6-12.8-27.4-22.8-17.2-10.7 10.8-12.5 29-11.9 43.3.2 5.5.9 11 1.6 16.5.3 2.6 1.2 5.6.6 8.2-.4 1.6-1.3 2.3-1.9 3.7-1.4 3.4-.6 8.1-.2 11.6.5 5 1.5 9.9 2.8 14.8.4-.5.7-.9 1.1-1.4-10.3 1.2 4.7 28.1 7.2 31.9.6 1.1 2.6 0 1.8-1.2z" fill="#dddde2"/><path d="m1105.57 510.506c.8-2.6 1.6-5.2 2.4-7.7.4-1.1.7-2.3 1.1-3.4.1-.2 3-7.7 4.3-3.6.4 1.2 2.1 1 2.2-.3.4-7.3 2-14.2 4.6-21-.6.2-1.1.4-1.7.7.7.5 1.4 1 2.2 1.5.5.3 1.3.1 1.5-.4 9.4-19.5 20.4-38 33.1-55.5-.7-.2-1.4-.4-2.1-.6 3.1 26.2-2.8 52-11.6 76.6-.2.7.4 1.5 1.1 1.4l6.6-.6c-.4-.5-.7-.9-1.1-1.4-3.2 19.9-9.9 39-20 56.5-.7 1.3 1.2 2.4 1.9 1.1 10.2-17.6 17.1-36.9 20.3-57 .1-.7-.3-1.5-1.1-1.4-2.2.2-4.4.4-6.6.6.4.5.7.9 1.1 1.4 8.8-24.7 14.8-50.8 11.7-77.2-.1-1.1-1.4-1.5-2.1-.6-12.7 17.5-23.7 36.1-33.1 55.5.5-.1 1-.3 1.5-.4-.7-.5-1.4-1-2.2-1.5-.7-.5-1.4.1-1.7.7-2.7 7-4.2 14.1-4.7 21.6.7-.1 1.5-.2 2.2-.3-.8-2.5-3.4-3.3-5.7-1.9-1.6 1-2.1 2.9-2.7 4.6-1.4 3.9-2.5 8-3.7 12-.3 1.4 1.8 2 2.3.6z" fill="#dddde2"/><path d="m1151.97 424.906c-.2 12-5.3 24.4-8.6 35.9-3.3 11.7-6.8 23.2-11.5 34.3-8 18.8-17.9 36.9-20.6 57.4-.2 1.4 2.1 1.4 2.3 0 2.9-21.9 14.3-41.2 22.5-61.4 4.3-10.6 7.3-21.7 10.5-32.7 3.1-10.8 7.7-22.2 7.9-33.6-.2-1.3-2.4-1.3-2.5.1z" fill="#dddde2"/><path d="m1073.47 426.306c4.5 8.4 5.7 18 7.1 27.3 1.8 11.6 2.7 23.3 3.4 35 1.2 21.7 3.8 43.1 6.7 64.6.2 1.2 2.4 1 2.2-.3-.1-.8-.2-1.2-.5-2-.6-1.3-2.5-.2-1.9 1.1.1.3.1.6.2.8.7-.1 1.5-.2 2.2-.3-3.1-23.2-5.6-46.3-7-69.7-.6-10.5-1.7-20.9-3.4-31.3-1.4-9-2.8-18.2-7.1-26.4-.6-1.2-2.6-.1-1.9 1.2z" fill="#dddde2"/><path d="m1060.27 476.906c6.5 11 16.4 20.5 24.7 30.2.9 1.1 2.5-.5 1.6-1.6-8.1-9.5-17.9-18.9-24.3-29.7-.8-1.3-2.8-.1-2 1.1z" fill="#dddde2"/><path d="m1094.47 450.306c-.7 5.5-3.1 10.5-4.8 15.7-1.5 4.6-3 9.2-5.9 13.2-.3.5-.1 1.3.4 1.5 0 0 .1 0 .1.1.5.2 1.3.2 1.5-.4.1-.2.1-.3.2-.5.6-1.3-1.4-2.5-1.9-1.1-.1.2-.1.3-.2.5.5-.1 1-.3 1.5-.4 0 0-.1 0-.1-.1.1.5.3 1 .4 1.5 3-4.1 4.5-8.9 6.1-13.7 1.8-5.4 4.2-10.6 4.9-16.3.3-1.5-2-1.5-2.2 0z" fill="#dddde2"/><path d="m1121.27 474.406c.4 10.4 2.2 20.5 5.3 30.4.4 1.4 2.6.8 2.2-.6-3-9.7-4.8-19.7-5.2-29.8-.2-1.4-2.4-1.4-2.3 0z" fill="#dddde2"/><path d="m1114.47 544.306c10.1-2.4 19.1-7.2 26.7-14.1 1.1-1-.5-2.6-1.6-1.6-7.4 6.7-16 11.2-25.7 13.5-1.4.4-.8 2.5.6 2.2z" fill="#dddde2"/><path d="m294.67 641.606h258.3 258.3 145.6c1.9 0 1.9-3 0-3-86.1 0-172.2 0-258.3 0s-172.2 0-258.3 0c-48.5 0-97.1 0-145.6 0-2 0-2 3 0 3z" fill="#303032"/><path d="m1004.97 644.106h225.4c1.9 0 1.9-3 0-3-75.1 0-150.2 0-225.4 0-2 0-2 3 0 3z" fill="#303032"/><path d="m942.87 665.706h121.5c1.9 0 1.9-3 0-3-40.5 0-81 0-121.5 0-1.9 0-1.9 3 0 3z" fill="#303032"/><path d="m56.5704 796.106h254.9996 71.7c1.9 0 1.9-3 0-3-85 0-170 0-255 0-23.9 0-47.7996 0-71.6996 0-1.9 0-1.9 3 0 3z" fill="#303032"/><path d="m1027.77 751.806h203.8c1.9 0 1.9-3 0-3-67.9 0-135.9 0-203.8 0-2 0-2 3 0 3z" fill="#303032"/><g fill="#dddde2"><path d="m399.57 966.506c.3-1.6 5.8-2.3 7-2.7 3.2-1 6.3-2.2 9.2-3.9 6.3-3.7 11.3-9.1 14.7-15.5 2.2-4.2 3.7-8.7 4.5-13.3.6-3.1.9-6.2.2-9.3-.8-4.3-3.7-7.4-5.1-11.4-2.9-8.1 1.2-16.8 7-22.4 6.6-6.4 15.8-8.8 24.6-10.4 16.2-2.9 32.2-4.7 47.2-12.1 6.8-3.4 13-7.7 18.4-13 6-6 11.3-13.9 19.9-16.2 3.5-1 10.8-1.4 13 2.5v3.5c1.1 2.5.4 4-1.9 4.3-.6.2-1.2.3-1.8.5-1.5.5-3.1.8-4.5 1.5-5.8 2.8-8.9 8.7-12.5 13.6-20.2 27.8-65.6 7-84 37.1-4 6.6-4.6 13.6-2.1 20.9 1.9 5.5 3.1 10.5 1.7 16.4-1.3 5.5-4.3 10.4-7.7 14.8-5.2 6.8-12 12.7-19.5 16.8-4.8 2.6-10.2 3.6-15.6 3.1-2.9-.2-12.1-1.3-12.8-5.3-.2-1.4-2.4-.8-2.2.6.8 4.8 9.5 6.2 13.2 6.7 8.5 1.1 15.9-1.2 22.8-5.9 12.6-8.5 26.5-23.1 24.5-39.6-.5-4.2-2.6-8-3.5-12.1-1.2-5.6.4-11.2 3.5-15.9 5.8-9 15.7-13.4 25.9-15.5 16.9-3.6 36.2-2 50.5-13.2 6.6-5.1 9.5-13.3 15.8-18.5 3.9-3.2 14-3 14.3-9.7.3-6.1-7.1-9.4-12.1-9.5-7.7-.2-14 4.5-19.2 9.8-6.9 7-13 13.7-21.7 18.6-8.6 4.8-18.1 7.9-27.7 10-16.7 3.7-37.8 2.7-50 16.8-4.8 5.6-7.9 13.2-6.2 20.6 1.1 4.8 4.8 8.4 5.7 13.3.9 4.5-.3 9.4-1.6 13.8-2.9 9.6-9.4 18.1-18.4 22.7-4.1 2.1-8.4 2.8-12.6 4.4-1.4.5-2.9 1.1-3.1 2.7-.2 1.2 2 1.8 2.2.4z"/><path d="m400.17 965.006c-.1-.1-.2-.3-.2-.4-.3-.6-1.3-.8-1.8-.2-4.2 5.1 5 12.8 10.1 9.8 2.5-1.5 2.5-4.9 1.1-7.2s-4.8-5.4-7.6-3.6c-1.2.8-.1 2.7 1.1 1.9 2.5-1.6 8.2 6.1 3.4 7.2-2.6.6-9-3.6-6.6-6.5-.6-.1-1.2-.2-1.8-.2.1.1.2.3.2.4.9 1.1 2.8 0 2.1-1.2z"/><path d="m401.07 968.506c-.3-.8-.4-1.5-.1-2.4-.7.1-1.4.2-2.1.3.5 1.2.5 2.4.1 3.6.7.1 1.5.2 2.2.3 0-.5.2-3.6.9-3.6-.3-.1-.5-.2-.8-.3.4.5.4 2 .4 2.5 0 1-.1 2-.4 3h2.2c-.3-.9-.5-1.7-.4-2.6 0-.4.1-.9.2-1.3 0-.2.1-.4.2-.6.3-.3.2-.5-.3-.6-.1.2.2.9.3 1.2.1.5.1 1 .1 1.5 0 1.1-.1 2.2-.3 3.2l2.1-.3c-.5-.9-.7-1.8-.8-2.8 0-.3.4-2.5.3-2.6.3.1.4 2.1.4 2.3.1 1.1 0 2.1-.5 3.1h1.9c-.4-.6-.7-1.1-.8-1.8 0-.2.2-2.4.3-2.3.2.1.3 1.6.3 1.8.1.7.1 1.5-.4 2.1h1.6c-.4-.5-1.1-2.3-.3-2.8-.3.2-.2.6-.3.9-.2.6-.4.9-.8 1.4-1.1 1 .5 2.6 1.6 1.6s1.7-2.5 1.5-4c-.2-1.1-.8-2.3-2.1-2.3-1.4.1-2.1 1.5-2.3 2.8-.2 1.5.3 2.8 1.2 4 .4.4 1.2.4 1.6 0 1.4-1.8 1.9-7.6-1.3-7.9-1.6-.2-2.4 1.5-2.6 2.8-.3 1.7.1 3.4 1 4.8.5.7 1.5.8 1.9 0 .9-1.7 1-3.4.7-5.3-.2-1.4-.4-3.4-2.2-3.5-1.7-.1-2.5 1.8-2.7 3.2-.3 1.9.1 3.8 1 5.5.4.8 1.9.7 2.1-.3.4-2 .5-3.9.2-5.9-.2-1.2-.6-2.8-2-2.8-3.3 0-2.9 6.1-2.2 8 .3 1 1.9 1.1 2.2 0 .4-1.5.6-3.1.4-4.7-.1-1.1-.2-2.7-1.3-3.2-2.8-1.3-3.6 4.1-3.6 5.7 0 1.3 1.8 1.5 2.2.3.6-1.9.4-3.6-.4-5.4-.4-.9-1.8-.6-2.1.3-.3 1.2-.3 2.4.1 3.6.2 1.4 2.4.9 1.9-.5z"/><path d="m408.77 972.006c-.5-.4-1.2-.5-1.6-.1l-.1.1c-.6.7-.3 1.6.5 1.9 1.9.7 4.7.1 6.7-.1 2.5-.3 4.9-.8 7.3-1.5 1.4-.4.8-2.6-.6-2.2-2.2.6-4.4 1.1-6.7 1.4-1.7.2-4.5.7-6.1.2.2.6.3 1.3.5 1.9l.1-.1c-.5 0-1.1 0-1.6 0 0 0 0 0 .1.1 1 .9 2.6-.6 1.5-1.6z"/><path d="m392.17 963.606c-1.8-.4-3.4-1.1-4.8-2.4-1.1-1-2.7.6-1.6 1.6 1.7 1.5 3.6 2.5 5.8 3 1.5.3 2.1-1.9.6-2.2z"/><path d="m391.87 970.206c-3.9 2.6-7.4 5.7-10.4 9.3-.9 1.1.7 2.7 1.6 1.6 2.9-3.5 6.2-6.5 9.9-9 1.2-.8.1-2.8-1.1-1.9z"/><path d="m393.97 979.106c-1.9 3.3-2.9 7-3 10.9 0 1.4 2.2 1.4 2.3 0 .1-3.5 1-6.7 2.7-9.7.7-1.3-1.2-2.4-2-1.2z"/><path d="m402.47 987.806c.7 2.5 1.9 4.8 3.5 6.8.9 1.1 2.5-.5 1.6-1.6-1.4-1.7-2.3-3.7-2.9-5.8-.4-1.4-2.6-.8-2.2.6z"/><path d="m567.07 834.106c.7-2.7 3-4.7 5.7-4.9 1.4-.1 1.4-2.3 0-2.3-3.8.2-7 2.9-7.9 6.5-.3 1.5 1.8 2.1 2.2.7z"/><path d="m568.37 839.106c1.9-1.4 4.1-1.9 6.4-1.3 1.4.3 2-1.8.6-2.2-2.8-.7-5.8-.2-8.1 1.5-1.2.9 0 2.8 1.1 2z"/><path d="m572.47 847.406c1.2.1 2.2.7 3 1.6.4.5 1.2.4 1.6 0 .5-.5.4-1.1 0-1.6-1.1-1.4-2.8-2.2-4.6-2.3-1.4-.1-1.4 2.2 0 2.3z"/><path d="m497.37 913.406c3.6-3.6 9.9-6 15-4.6 3.7 1.1 5.6 5.4 5.1 9-.6 4.9-8 6.7-12 5.7-1.4-.3-2 1.8-.6 2.2 4 1 10.3 0 13.2-3.3 2.7-3.1 2-7.9.2-11.3-4.4-8.4-17.3-4.7-22.6.7-.9 1 .7 2.6 1.7 1.6z"/><path d="m497.37 912.106c5-8 17.7-13 24.9-4.6.9 1.1 2.5-.5 1.6-1.6-8.1-9.5-22.7-4.1-28.4 5.1-.8 1.2 1.1 2.3 1.9 1.1z"/><path d="m523.57 907.706c15.4-5.5 30.5-11.6 45.4-18.2 1.3-.6.2-2.5-1.1-1.9-14.7 6.5-29.7 12.5-44.9 18-1.4.5-.8 2.6.6 2.1z"/><path d="m504.57 925.806c8.8 9.7 25.5 1.7 25.1-10.7 0-1.4-2.3-1.5-2.3 0 .3 10.5-13.8 17.4-21.3 9.1-.9-1.1-2.5.5-1.5 1.6z"/><path d="m529.17 916.106c14.7-5.9 29-12.6 43-20.1 1.3-.7.1-2.6-1.1-1.9-13.8 7.4-28 14-42.5 19.9-1.3.5-.7 2.7.6 2.1z"/><path d="m568.17 889.106c1.3 2.1 2.2 4.4 2.6 6.9.2 1.4 2.4.8 2.2-.6-.5-2.6-1.4-5.1-2.9-7.4-.7-1.3-2.6-.2-1.9 1.1z"/><path d="m655.17 922.006c-1.1.7-2.7-1-.8-1.8.4-.2 1.1-.1 1.6-.1 1.5 0 3.1.1 4.5.7.6.2 2 .7.6 1.9-.3.3-1.2.1-1.5.1-1.6 0-3.2-.3-4.7-.7-1.4-.4-2 1.8-.6 2.2 2.6.7 7.6 1.9 9.5-.8 2.2-3.2-2.6-5-4.9-5.4-2.7-.4-7.3-.8-7.7 2.9-.3 2.9 2.9 4.5 5.2 3 1.1-.9 0-2.8-1.2-2z"/><path d="m647.47 920.806c1.2-3.1 4.7-4.9 7.9-4.2 1.4.3 2-1.8.6-2.2-4.5-1-9 1.4-10.7 5.8-.5 1.4 1.7 2 2.2.6z"/><path d="m645.97 920.306c-3.2 1.3-6.2 2.2-4.9 6.3 1.2 4.1 5.6 2.2 8.6 3.2 2.7.9 4.8 3.1 7.7 3.5 3.8.4 7-1.3 6.9-5.4 0-1.4-2.3-1.5-2.3 0-1.1 2.4-2.6 3.4-4.5 3.1-.9.1-1.6-.3-2.1-1.2-.3-.2-.4-.6-.7-.8-1.3-.8-3-.8-4.4-1.5-1.1-.6-1.9-1.3-3.2-1.3-.5 0-1.3.4-1.6.4-3-.6-.2-3.6 1.1-4.1s.8-2.7-.6-2.2z"/><path d="m657.17 915.106c.6-1 1.4-1.3 2.4-1 1.2.2 1.9.8 2.3 1.7.4.4.5 1 .9 1.4 1.4 1.5 4 1.8 5.3 3.3.8.2 1 .7.7 1.6.4 1 .1 1.4-.8 1.2-.3.2-.9.2-1.2.5-.4.3-.5.6-.7 1-1.1 1.5-1.4 2-3.1 2.5-1.4.5-.8 2.6.6 2.2 1.5-.5 2.8-1.1 3.9-2.3.7-.8.8-1.3 1.9-1.7.6-.2 1.2 0 1.8-.3 2.9-1.6.8-4.9-1.1-6.2-1.1-.8-2.5-1.3-3.6-2.1-1.2-.8-1.8-1.6-2.7-2.7-1-1.2-1.6-1.8-3.3-2.1-2.5-.5-6.3.4-5.3 3.8.3 1.2 2.5.6 2-.8z"/><path d="m597.67 993.206c1.8 4.1 6.8 3 10 1.4 7.1-3.3 13.1-8.6 21-10.2 3.3-.7 7.6-1.3 9.3 2.5.5 1.2.4 2.6 1 3.8.9 1.9 2.6 3.2 4.5 4 4.6 1.9 9.8.9 14.1-1.2 13.7-6.8 22.4-25.3 39.4-24.9 8.6.2 12.3 8.2 19.7 10.9 6 2.2 12.5 1.3 17.9-2 1.2-.8.1-2.7-1.1-1.9-8 4.9-16.3 2.9-23.1-3-4.2-3.7-8.3-6.4-14.1-6.3-13 .2-21.7 10.9-30.6 18.8-5.3 4.6-12.6 10.1-20.1 7.9-6.1-1.8-3.6-9.1-9.4-10.9-4.9-1.5-11.2.7-15.6 2.8-3.2 1.5-18.5 12.7-20.9 7.1-.6-1.3-2.6-.1-2 1.2z"/><path d="m597.67 992.406c-1.7 2.7.2 5.4 2.9 6.6 4.5 1.904 9.9-1.2 13.6-3.5 5.2-3.3 14-9.8 20-4.2 3.7 3.4 2.9 9.004 8.5 10.704 4.2 1.3 8.9-.2 12.7-2.104 6-2.9 11.7-7 16.8-11.2 5.7-4.7 11.5-13.7 19.5-13.6 7.6.1 13.6 5.7 20 9.1 4.9 2.6 10.6 4.3 15.9 1.9 4.2-1.9 7.3-5.7 6.8-10.4-.1-1.4-2.4-1.4-2.3 0 .5 4.8-3.3 8.1-7.7 9.1-4.1.9-8.1-.7-11.6-2.6-5.7-3-10.6-7.4-17-8.9-5.3-1.3-10-.1-14.2 3.4-5.8 4.9-10.7 10.4-16.9 14.8-5.3 3.7-12 8.804-18.8 8.704-7.6-.1-6.6-9.204-12.3-12.104-3.8-1.9-8.6-1-12.4.6-2.7 1.1-5 2.9-7.5 4.4-1.3.8-2.6 1.6-3.9 2.3-1.2.7-2.5 1.2-3.8 1.5-2.9 1.2-5 0-6.4-3.4.8-1.2-1.1-2.3-1.9-1.1z"/><path d="m597.97 991.106c-.8-2.4-3.7-3.6-6-2.4-1.3.7-.1 2.6 1.1 1.9 1-.5 2.4 0 2.7 1 .5 1.5 2.7.9 2.2-.5z"/><path d="m594.67 994.706c-2.5-.6-5.2 1-5.6 3.6-.1.6.1 1.2.8 1.4.5.2 1.3-.2 1.4-.8.2-1.3 1.4-2.4 2.8-2 1.4.3 2-1.9.6-2.2z"/><path d="m592.77 1000.71c-.5 1.3-.9 2.5-1.4 3.8-.5 1.4 1.7 1.9 2.2.6s.9-2.5 1.4-3.8c.5-1.404-1.7-2.004-2.2-.6z"/><path d="m738.87 977.806c.7-1.3 2.1-1.9 3.4-1.6 1.4.4 2-1.8.6-2.2-2.3-.6-4.9.5-6 2.6-.6 1.3 1.3 2.5 2 1.2z"/><path d="m739.97 980.706c1.1-.3 2.1 0 3 .7.5.4 1.3.1 1.5-.4.3-.6.1-1.2-.4-1.5-1.4-1-3.1-1.3-4.7-.9-1.4.2-.8 2.4.6 2.1z"/><path d="m737.77 983.806c0 1.9.3 3.7.9 5.5.5 1.4 2.6.8 2.2-.6-.5-1.6-.8-3.2-.9-4.9 0-1.4-2.2-1.4-2.2 0z"/><path d="m521.27 984.706c-2-2.5-2-4.2.1-5.3 1-1 2.3-1.6 3.7-1.9 2.9.6 3.6-.2 2-2.5-1.1-1.7-1.1-3.4.3-5 2.4-4.7 6-6.3 11-6.7 2.8-.2 2.2-.2 2.9-2.9.5-1.8 1.2-3.6 2.2-5.2 2.6-4.2 10.2-10.6 14.8-4.7.9 1.1 2.8 0 1.9-1.1-7.5-9.9-19.6 2.9-21.2 11.1-.6 2.8-.7 8.5 3.6 8.4 3.9-.1 3.2-4.4.9-6.2-8.5-6.8-22 4.7-19.4 14.2.8 3 5 6.5 8.1 4 2.6-2.2.1-5-2.4-5.7-4.5-1.2-11.1 1.5-12.7 6.1-1.2 3.6 1.9 7.4 5.5 5.3 1.1-.7 0-2.6-1.3-1.9z"/><path d="m621.37 832.506c-.4.1-.6.1-1-.2.1.6.2 1.2.2 1.8 1.3-1 3-1 4.3-.1-.1-.6-.2-1.2-.2-1.8-1.1 1.2-2.8 1.7-4.3 1 .1.6.2 1.2.2 1.8.8-1.1 2.2-1.4 3.4-.8 0-.6 0-1.3 0-1.9-.4.2-.6.3-1.1.2-1.4-.3-2 1.8-.6 2.2 1 .2 1.9.1 2.8-.4.7-.4.8-1.5 0-1.9-2-1.1-4.7-.7-6.2 1.1-.4.5-.5 1.4.2 1.8 2.4 1.1 5.2.6 7-1.4.5-.6.4-1.3-.2-1.8-2.2-1.5-5-1.2-7 .4-.6.5-.3 1.4.2 1.8.8.6 1.8.7 2.7.4 1.6-.4 1-2.6-.4-2.2z"/><path d="m646.57 858.606c-.3 0-.3-.1 0-.4.1-.4.4-.6.8-.6.4-.2 1-.2 1.5-.2s3.1-.3 3.4.2c.7 1-2.4 1.4-2.8 1.4-1.4.1-2.7 0-4-.3-1.4-.4-2 1.8-.6 2.2 2.7.7 6.6.9 8.9-1 2.1-1.7 1-4.1-1.4-4.6-2.2-.4-5.9-.6-7.6 1.3-1.4 1.5-.5 4.6 1.8 4.4 1.4-.3 1.4-2.5 0-2.4z"/><path d="m644.37 858.306c-.4 1.8-.4 3.5-.2 5.2.1.4.4.7.8.8 2.7.9 6 1.5 8.2-.7 1.7-1.6 2-4.1.5-5.9-.9-1.1-2.5.5-1.6 1.6s-.2 2.8-1.3 3.3c-1.7.7-3.6.1-5.3-.4l.8.8c-.2-1.4-.1-2.7.2-4.1.4-1.5-1.8-2.1-2.1-.6z"/><path d="m313.77 887.306c2.4-.3 4 .6 4.7 2.6 2.1 2.4.8 3.7-4.1 3.9-1.7-1.1-1.2-4-.8-5.5.8-3.1 2.5-3.1 5.1-4.2 1.8-.7 3.5-1.4 5.3-2.2 2.9-1.2 5.9-2.4 8.8-3.6 3-1.2 6.5-3.4 9.7-4 2.2-.4 5-.1 5.1 3-.9 2-1.8 4-2.7 6-.6.2-1.2.3-1.8.4-2.3.9-4.8 1.4-7.1 2.4-6 2.6-11.5 6.3-17.9 8.1-1.4.4-.8 2.6.6 2.2 7.5-2.2 13.8-6.9 21.2-9.5 4.2-1.4 10-1.4 10.5-7 .2-3.2-1.8-8.8-5.6-8.7-3.2.1-7.7 2.9-10.7 4.1-4.1 1.7-8.3 3.4-12.4 5-4.1 1.7-11.3 2.8-11.2 8.4.1 3.3 2.4 8.8 6.1 9.4 8.4 1.4 5.9-15.4-3.3-13.2-1.5.6-.9 2.7.5 2.4z"/><path d="m349.17 877.306c3.2-1.4 6.4-2.7 9.6-4l4.2-1.8c.5-.2 6.1-2.5 3.2-1.3-5.8 2.4-11.5 4.8-17.3 7.2-1.3.5-.7 2.7.6 2.2 5-2.1 10-4.1 14.9-6.2 1.7-.7 6-1.7 5.2-4.5-.9-3-4.8-.5-6.5.2-5 2.1-10.1 4.2-15.1 6.3-1.2.5-.1 2.4 1.2 1.9z"/><path d="m778.17 924.806c-3.5 3.2-5.7 8-4.5 12.8 1.2 4.7 5.5 5.6 9.8 6.5 15.3 3 31 1.9 46.4 3.6 5.9.7 13.9 3.8 19.7 1.5 3.3-1.3 6.3-5.1 5.2-8.8-1.4-4.8-9-6.2-13-7.5-7.4-2.5-14.9-4.5-22.5-6-8.3-1.7-16.8-2.8-25.2-3.4-4.5-.3-13.8-2.6-16.8 2.2-.8 1.2 1.2 2.4 1.9 1.1 1.5-2.5 6.8-1.4 9.2-1.3 3.4.1 6.8.3 10.2.7 7 .6 14 1.7 20.9 3.1 6.1 1.3 12.1 2.8 18 4.7 3 .9 5.9 1.9 8.8 3s8.1 2.4 5.4 7.7c-1.3 2.5-5 3.1-7.4 3-6.1-.1-12.3-2-18.3-2.5-6.5-.5-13-.7-19.4-.9-6.7-.3-13.4-.6-19.9-1.7-3.4-.6-7.7-.8-9.8-3.8-2.8-4.1-.5-9.2 2.8-12.2 1.2-1.1-.4-2.7-1.5-1.8z"/><path d="m847.37 947.206c-3.8-.9-1.8-5.4.1-7.2 1.4-1.3 3.8-2.1 4.4.4.3 1.3-.1 3.3-.7 4.4-.8 1.6-3 2.7-4.3.8-.9-1.3-.4-3.4.4-4.7.1-.4.3-.7.7-.9.4-.4.5-.3.3.5 0 .6-.3 1.5-.4 2.1-.4 1.4-1.1 2.6-1.9 3.8l2.1.3c-.3-1.1-.3-2.3.1-3.4.3-.9 1.5-3 2.7-2.8-.3-.2-.6-.4-1-.6.5.6 1.2 4.7-.3 4.6-1-.1 1.8-3.4 2.2-3.7-.5-.1-1-.3-1.5-.4.5.6.7 1.3.4 2.2-2 .1-2.5.1-1.4-.1 1.4-.3.8-2.5-.6-2.2s-2.3 1-2.1 2.6c.2 1.3 1.2 2.4 2.5 2.6 3.6.7 4.7-3.9 3.1-6.3-.3-.5-1-.8-1.5-.4-1.9 1.3-5.1 5.4-3.2 7.8 2.2 2.7 4.9-1.8 5.2-3.6.4-2.5-.8-6.2-3.8-4.2-2.8 1.8-3.8 5.4-3 8.5.3 1 1.5 1 2.1.3 1.5-2.1 3.8-6.5 2.4-9.1-1.2-2.2-3.6-.7-4.6.8-1.6 2.4-2.4 5.9-.3 8.3 1.8 2 4.7 1.7 6.5 0 3.5-3.4 2.9-13.3-3.8-10.6-4.8 1.9-8.2 10.9-1.5 12.6 1.5.1 2.1-2 .7-2.4z"/><path d="m848.77 945.006c19.8 4.3 39.5 9 59.2 14.2 1.4.4 2-1.8.6-2.2-19.6-5.2-39.3-9.9-59.2-14.2-1.4-.3-2 1.9-.6 2.2z"/><path d="m851.27 942.906c9.4 2.4 18.9 4.7 28.3 7.1 8.8 2.2 20.4 3.2 27.5 9.1 1.1.9 2.7-.7 1.6-1.6-6.8-5.6-16.4-6.7-24.7-8.8-10.7-2.7-21.4-5.4-32.1-8.1-1.4-.2-2 2-.6 2.3z"/><path d="m842.17 933.806c-7.3 1.2-9.9 9.9-4.7 15.1 1 1 2.6-.6 1.6-1.6-4.1-4-1.9-10.4 3.7-11.3 1.5-.2.8-2.4-.6-2.2z"/><path d="m958.47 928.706c-2-2.5-2.1-3.9-.1-4.4.6-.3 1.2-.5 1.9-.5 1.1-.2 2.3-.1 3.5-.1 1.2.1 6.2 0 7.1 1.4-.1 1.3-.3 2.7-.4 4-.5 0-1 .1-1.4.1-.9.2-2.2 0-3.2 0-2.7-.1-5.3-.5-7.9-1-1.4-.3-2 1.9-.6 2.2 3.4.7 6.9 1.2 10.4 1.2 2.1 0 4.7 0 6-1.8 3.6-4.7-3.7-7.6-7.1-8-4.2-.6-11.8-1.1-13.1 4.6-.8 3.8 3.5 6.5 6.4 3.9 1.2-1-.4-2.6-1.5-1.6z"/><path d="m948.37 926.606c1.1-4 4.2-6.7 8.3-7.5 1-.2 1-1.6.3-2.1-.2-2.6.6-3.7 2.3-3.2.5.1.9.1 1.4 0 .8-.1 1-.2 1.7-.7-.5-.1-1-.3-1.5-.4 1 2 1.9 4 2.9 6.1.6 1.3 2.6.2 1.9-1.1-1-2-1.9-4-2.9-6.1-.3-.5-1.1-.7-1.5-.4-1.4.9-3.3-.1-4.9.6-.9.4-1.6 1-2.1 1.9-1.1 2-.3 4.1 1.6 5.3.1-.7.2-1.4.3-2.1-4.9.9-8.5 4.3-9.9 9.1-.5 1.4 1.7 2 2.1.6z"/><path d="m947.07 926.606c-2.1.3-4 .9-5.9 1.7-.6.3-.6 1-.4 1.5.6 1.1 1 2.2 1.1 3.4.1.4.4.7.8.8 1.5.5 1.9.2 3.4-.1s3.5-.9 5-.4c.9.3 1.9 1.7 2.6 2.3 1.9 1.6 3.3 2.6 5.8 2.2-.5-.4-.9-.7-1.4-1.1.2 1.9-.3 3.6-1.5 5.1-.5.7.2 1.7 1 1.7 2.9.1 5.2 2.1 7.6-.4 1.9-1.9 1.5-4.7 1-7-.4.5-.7.9-1.1 1.4 3.4-.1 6.5-.5 9.8-1.3-.5-.3-.9-.5-1.4-.8 1.2 3.4 4.8 6.9 8.3 3.5 2.8-2.8.7-6.7-2.6-7.6-1.4-.4-2 1.8-.6 2.2-1 .5-2 .9-2.9 1.4-.2-.6-.8-.9-1.4-.8-3.1.7-6.1 1.1-9.2 1.2-.8 0-1.2.7-1.1 1.4.5 3-.4 4.7-4.2 4.9-.1 0-2.4-.3-2.2-.3.3.6.6 1.1 1 1.7 1.4-2 1.9-3.8 1.8-6.2 0-.8-.7-1.2-1.4-1.1-3.4.5-5.5-4.6-8.8-5.1-1.1-.2-1.9.1-2.9.4-3.5 1-3 .6-4.4-2.4-.1.5-.3 1-.4 1.5 1.9-.8 3.4-1.2 5.4-1.5 1.3-.2.7-2.4-.8-2.2z"/><path d="m964.67 918.906c3.6-1.5 7-1.6 10.6 0 .8.3 1.7-.1 1.7-1l4.2-.3c.2.9.3 1.7.5 2.6-.2.3-1.1.5-1.4.7-.6.5-.9.9-1.2 1.7-.9 2.7.2 7.1.5 9.9.1 1.4 2.4 1.4 2.3 0-.2-2.2-.7-4.6-.5-6.8.1-1.5-.1-2.2 1.2-3.4.3-.3.9-.4 1.3-.7 1.6-1.4.9-3-.2-4.6-2.3-3.3-8.7-4.6-8.8.9.6-.3 1.1-.6 1.7-1-4.1-1.8-8.2-2-12.3-.2-1.5.6-.9 2.8.4 2.2z"/><path d="m877.17 990.506c-1.8-2.9 2.6-4.1 4.6-3.7.7.2 1.4.4 2.1.7 1.4.5 2.1.6 2.4 2.1.2 1.5-.7 1.6-2 2.1-1 .4-2.1.7-3.2.7-2.3 0-4.3-1.3-4.8-3.6-.3-1.4-2.5-.8-2.2.6.8 3.7 4.5 5.6 8.1 5.1 2.6-.3 8.8-2.4 6.8-6.1-1.6-3-7.2-4.5-10.3-3.8s-5.4 4.2-3.6 7.1c.9 1.2 2.9.1 2.1-1.2z"/><path d="m875.17 990.406c-1.6 1.3-1.8 3.3-1 5.1 1 2.4 3.5 3.3 5.9 3.4 2.2.1 5.5 0 7.2-1.8 1.8-2 1.1-4.8.3-7-.5-1.4-2.7-.8-2.2.6.4 1.2 1.1 2.9.7 4.1-.6 1.8-3 1.8-4.6 1.8-1.5.1-3.4.1-4.5-1-1-1-1.4-2.7-.2-3.7 1.1-.8-.5-2.4-1.6-1.5z"/><path d="m841.87 191.006v14c0 1.4 2.3 1.5 2.3 0 0-4.7 0-9.3 0-14-.1-1.5-2.3-1.5-2.3 0z"/><path d="m842.97 206.106h208.5c1.4 0 1.5-2.3 0-2.3-69.5 0-139 0-208.5 0-1.4 0-1.4 2.3 0 2.3z"/><path d="m1052.17 205.306c0-5.3 0-10.5 0-15.8 0-1.4-2.3-1.5-2.3 0v15.8c.1 1.5 2.3 1.5 2.3 0z"/><path d="m1051.77 187.706c-68.8 0-137.6 0-206.5 0-1.4 0-1.5 2.3 0 2.3h206.5c1.5-.1 1.5-2.3 0-2.3z"/><path d="m869.07 188.106c0-5.4 0-10.8 0-16.1 0-1.4-2.299-1.5-2.299 0v16.1c0 1.4 2.299 1.4 2.299 0z"/><path d="m867.57 173.406h171.7c1.4 0 1.5-2.3 0-2.3-57.2 0-114.5 0-171.7 0-1.5.1-1.5 2.3 0 2.3z"/><path d="m1038.47 173.006v15.8c0 1.4 2.3 1.5 2.3 0 0-5.3 0-10.5 0-15.8 0-1.4-2.3-1.4-2.3 0z"/><path d="m941.47 170.906c0-5.6 0-11.2 0-16.8 0-1.4-2.3-1.5-2.3 0v16.8c0 1.4 2.3 1.4 2.3 0z"/><path d="m940.27 154.506h116.9c1.4 0 1.5-2.3 0-2.3-39 0-77.9 0-116.9 0-1.4 0-1.4 2.3 0 2.3z"/><path d="m1056.77 153.706v18.3c0 1.4 2.3 1.5 2.3 0 0-6.1 0-12.2 0-18.3-.1-1.5-2.3-1.5-2.3 0z"/><path d="m1057.57 170.806c-5.7 0-11.5 0-17.2 0-1.4 0-1.5 2.3 0 2.3h17.2c1.4 0 1.4-2.3 0-2.3z"/><path d="m963.97 154.006c3.5 4.5 2.7 13 2.2 18.3-.1 1.4 2.1 1.4 2.3 0 .6-6 1.1-14.8-2.8-19.9-1-1.1-2.6.5-1.7 1.6z"/><path d="m982.671 154.106c3.1 5.7 4.299 11.8 3.699 18.2-.1 1.4 2.101 1.4 2.301 0 .6-6.8-.8-13.3-4-19.3-.8-1.3-2.7-.2-2 1.1z"/><path d="m901.17 173.506c2 4.6 2.2 9.5.9 14.3-.4 1.4 1.8 2 2.2.6 1.5-5.4 1.1-10.8-1.1-16-.7-1.3-2.6-.2-2 1.1z"/><path d="m922.47 173.306c2.6 4.8 3 10.1 1.3 15.3-.5 1.4 1.7 2 2.2.6 1.9-5.7 1.3-11.7-1.5-17-.7-1.4-2.7-.2-2 1.1z"/><path d="m481.271 100.206v13.5c0 1.4 2.299 1.5 2.299 0 0-4.5 0-9 0-13.5 0-1.3999-2.299-1.3999-2.299 0z"/><path d="m482.37 115.906h314.5 88.9c1.4 0 1.5-2.3 0-2.3-104.8 0-209.7 0-314.5 0-29.6 0-59.2 0-88.9 0-1.4.1-1.4 2.3 0 2.3z"/><path d="m887.37 114.306c0-3.8 0-7.7 0-11.5 0-1.4-2.3-1.5-2.3 0v11.5c.1 1.4 2.3 1.4 2.3 0z"/><path d="m482.37 101.906h314.5 88.9c1.4 0 1.5-2.2999 0-2.2999-104.8 0-209.7 0-314.5 0-29.6 0-59.2 0-88.9 0-1.4 0-1.4 2.2999 0 2.2999z"/><path d="m885.77 103.406c1.4 0 1.5-2.3 0-2.3-1.4 0-1.4 2.3 0 2.3z"/><path d="m502.47 98.2061c-.4-7.2-.7-14.4-1.1-21.5-.1-1.4-2.3-1.4-2.3 0 .4 7.2.7 14.4 1.1 21.5.1 1.5 2.3 1.5 2.3 0z"/><path d="m500.47 78.306h184.1c1.4 0 1.5-2.3 0-2.3-61.4 0-122.8 0-184.1 0-1.4 0-1.4 2.3 0 2.3z"/><path d="m681.97 77.2061v22.6c0 1.3999 2.301 1.4999 2.301 0 0-7.5 0-15.1 0-22.6-.1-1.5-2.301-1.5-2.301 0z"/><path d="m554.271 77.206c0-3.2 0-6.4 0-9.5 0-1.4-2.301-1.5-2.301 0v9.5c.1 1.4 2.301 1.4 2.301 0z"/><path d="m553.67 68.306h142.5c1.4 0 1.5-2.3 0-2.3-47.5 0-95 0-142.5 0-1.5 0-1.5 2.3 0 2.3z"/><path d="m694.97 68.106v8c0 1.4 2.301 1.5 2.301 0 0-2.7 0-5.4 0-8 0-1.4-2.301-1.4-2.301 0z"/><path d="m682.071 78.306h14c1.4 0 1.5-2.3 0-2.3-4.7 0-9.4 0-14 0-1.4 0-1.4 2.3 0 2.3z"/><path d="m517.87 52.6061v15.1c0 1.4 2.3 1.5 2.3 0 0-5 0-10 0-15.1 0-1.5-2.3-1.5-2.3 0z"/><path d="m519.57 51.2061h128.4c1.4 0 1.5-2.3 0-2.3-42.8 0-85.6 0-128.4 0-1.5 0-1.5 2.3 0 2.3z"/><path d="m645.87 49.6061v16.1c0 1.4 2.3 1.5 2.3 0 0-5.4 0-10.7 0-16.1-.1-1.5-2.3-1.5-2.3 0z"/><path d="m519.27 67.406 1.5 1.5c1 1 2.6-.6 1.6-1.6-.5-.5-1-1-1.5-1.5-1.1-1-2.7.6-1.6 1.6z"/><path d="m519.97 68.9061h34.2c1.4 0 1.5-2.3 0-2.3-11.4 0-22.8 0-34.2 0-1.4.1-1.4 2.3 0 2.3z"/><path d="m538.571 50.606c2.3 5.1 3 10.5 2.2 16-.2 1.4 1.899 2 2.199.6 1-6.1.201-12-2.399-17.7-.7-1.4-2.6-.3-2 1.1z"/><path d="m552.37 51.9061c2 4.4 2.5 9.2 1.5 14-.3 1.4 1.9 2 2.2.6 1.1-5.4.5-10.7-1.8-15.7-.6-1.4-2.5-.2-1.9 1.1z"/><path d="m589.07 68.8061c.7 2.5.8 5 .3 7.5-.3 1.4 1.9 2 2.2.6.6-2.9.5-5.8-.3-8.7-.4-1.4-2.5-.8-2.2.6z"/><path d="m598.97 68.4061c.8 2 1.1 4.1.8 6.2-.2 1.4 1.9 2 2.2.6.5-2.8.1-5.4-1-7.9-.7-1.4-2.6-.3-2 1.1z"/><path d="m645.87 78.8061c1.7 7.2 2.1 14.3 1.1 21.5999-.2 1.4 2 2 2.2.6 1.1-7.6999.7-15.2999-1.1-22.7999-.3-1.4-2.5-.8-2.2.6z"/><path d="m672.27 79.206c1.6 7.2 1.4 14.2-.6 21.2-.4 1.4 1.8 2 2.2.6 2.1-7.4 2.2-14.9.6-22.4-.3-1.4-2.5-.8-2.2.6z"/><path d="m761.67 70.2061c.7 10.1 2.7 19.9 6.1 29.5.5 1.3999 2.6.7999 2.2-.6001-3.3-9.4-5.3-18.9999-6-28.8999-.2-1.5-2.5-1.5-2.3 0z"/><path d="m763.27 70.306c14.8-1.6 29.6-1.8 44.4-.4 1.4.1 1.4-2.1 0-2.3-14.8-1.3-29.6-1.2-44.4.4-1.4.2-1.5 2.4 0 2.3z"/><path d="m806.97 69.3061c2.2 10.6-.2 21-3.6 31.0999-.5 1.4 1.7 2 2.2.6 3.5-10.4999 5.9-21.2999 3.6-32.2999-.4-1.4-2.5-.8-2.2.6z"/><path d="m775.47 66.706c-1.8-2.2-3.4-4.6-4.7-7.2-.4-.8-5.2-12-.4-11.2.8.1 1.7-.5 1.4-1.4-1.6-5.2-1.8-10.7 0-15.9.3-2.9 1.6-3.4 4-1.5 1.9-.1 3.2.7 3.8 2.2 1.5 1.9 2.4 4.7 3.1 6.9 2.8 8.6 3.6 18.1 4.1 27.1.1 1.4 2.3 1.4 2.3 0-.5-7.7-1.3-15.6-3-23.1-1.2-5.4-3.2-12.2-7.6-16-3.3-2.9-6.4-1.7-8.2 1.9-2.9 5.8-2.5 12.9-.7 18.9.5-.5.9-.9 1.4-1.4-11.8-2 .5 19.2 2.9 22.2.9 1.3 2.5-.3 1.6-1.5z"/><path d="m787.67 46.0061c-1-3.1-1.2-6-.4-9.2.7-2.7 2.5-4.6 3.3-7.1 1.1-3.4.9-17.1 5.8-17.7.5-.1 1-.3 1.1-.8.4-1.60005.9-3.20004 1.7-4.70004 1.3-2.2 1.5-3.00001 4.1-2.30001 3 .7 2.3 1.9 2.4 4.6v3.80005c0 6-.4 12-1 17.9-1.3 12.2-3.8 24.1-7.4 35.8-.4 1.4 1.7 2 2.2.6 4-13.1 6.7-26.5 7.8-40.2.6-6.7 1.5-14.4.5-21.10004-.4-2.4-1.4-5.400003-4.2-5.60000278-3.6-.20000022-6.2 4.59999278-7.4 7.39999278-.7 1.6-.9 1.9-2 2.90005-1.2 1.2-2.1 1.8-2.8 3.5-2.5 6-2.2 12.6-5 18.6-2.2 4.7-2.7 9.1999-1.1 14.1999.6 1.4 2.8.8001 2.4-.5999z"/><path d="m772.87 29.1061c3.6 12.2 5.9 24.7 7 37.4.1 1.4 2.4 1.4 2.3 0-1.1-12.9-3.4-25.6-7-38-.5-1.4-2.7-.8-2.3.6z"/><path d="m770.17 48.8061c3.9 1.3 6.9 4.1 8.7 7.8.6 1.3 2.6.2 1.9-1.1-2.1-4.2-5.7-7.3-10.1-8.8-1.3-.5-1.9 1.7-.5 2.1z"/><path d="m780.17 33.406c-1.4 2.5-2.4 5.2-3.1 8-.4 1.4 1.8 2 2.2.6.7-2.6 1.6-5.1 2.9-7.4.6-1.4-1.4-2.5-2-1.2z"/><path d="m802.47 4.10604c-3.9 21.19996-8.7 42.29996-14.3 63.09996-.4 1.4 1.8 2 2.2.6 5.6-20.9 10.3-41.9 14.3-63.09997.3-1.4-1.9-1.99999-2.2-.59999z"/><path d="m790.67 18.8061c2.6 7.5 3.7 15.2 3.2 23.2-.1 1.4 2.2 1.4 2.3 0 .5-8.2-.6-16.1-3.3-23.8-.5-1.3-2.7-.8-2.2.6z"/><path d="m791.37 60.0061c3.5-4.3 7.7-7.9 12.4-10.7 1.2-.7.1-2.7-1.1-1.9-4.9 2.9-9.2 6.6-12.9 11-.9 1.1.7 2.7 1.6 1.6z"/><path d="m190.67 96.306v100.9c0 1.4 2.3 1.5 2.3 0 0-33.6 0-67.3 0-100.9-.1-1.4-2.3-1.4-2.3 0z"/><path d="m191.77 97.4061h146.6c1.4 0 1.5-2.3 0-2.3-48.9 0-97.7 0-146.6 0-1.4.1-1.4 2.3 0 2.3z"/><path d="m338.47 97.0061v94.4999c0 1.4 2.3 1.5 2.3 0 0-31.5 0-63 0-94.4999-.1-1.4-2.3-1.4-2.3 0z"/><path d="m191.87 198.506h146.7c1.4 0 1.5-2.3 0-2.3-48.9 0-97.8 0-146.7 0-1.4.1-1.4 2.3 0 2.3z"/><path d="m338.87 192.806v4.1c0 1.4 2.3 1.5 2.3 0 0-1.4 0-2.8 0-4.1 0-1.4-2.3-1.4-2.3 0z"/><path d="m197.17 106.206v83c0 1.4 2.3 1.5 2.3 0 0-27.7 0-55.3 0-83 0-1.5-2.3-1.5-2.3 0z"/><path d="m198.77 190.306h132c1.4 0 1.5-2.3 0-2.3-44 0-88 0-132 0-1.4 0-1.4 2.3 0 2.3z"/><path d="m332.87 189.206c0-27.7 0-55.3 0-83 0-1.4-2.3-1.5-2.3 0v83c.1 1.4 2.3 1.4 2.3 0z"/><path d="m198.77 105.906h132c1.4 0 1.5-2.3 0-2.3-44 0-88 0-132 0-1.4.1-1.4 2.3 0 2.3z"/><path d="m238.67 166.406c-5.4-.3-11.8-2.5-14.6-7.6-3.4-6.1 2.9-8.8 7.1-11.3 2.4-1.5 4.9-3 6.7-5.2 1.7-2.1 1.8-4.1 2.5-6.6 3.3-12.3 19.3-6.1 28.1-5.1 9.2 1 17.8-1.1 26.9-1.4 10.2-.4 19.6 8.6 16.1 19.1-1.6 4.7-5.6 8.6-10.4 9.9-4.1 1.1-8.4 0-12.6.5-7.8.8-14.1 6.3-21.7 7.9-9.4 1.9-19.3.5-28.7-.8-1.4-.2-2 2-.6 2.2 8.7 1.2 17.6 2.4 26.4 1.3 4.1-.5 8-1.5 11.8-3.2 4.8-2.2 9.1-5.1 14.5-5.3 7.4-.3 13.8.6 19.4-5.2 4.3-4.5 6-10.9 4-16.9s-7.3-10.6-13.6-11.6c-3.7-.6-7.5 0-11.2.5-6.1.9-12.2 1.4-18.4.9-8.1-.7-17.5-4.6-25.5-1.4-2.5 1-4.9 2.7-6 5.3-.5 1.1-.5 2.2-.7 3.4-.7 3.9-2.4 6.2-5.7 8.4-4.7 3.2-12.9 5.7-11.4 12.9 1.6 7.6 11 11.2 17.7 11.6 1.4 0 1.4-2.2-.1-2.3z"/><path d="m251.27 151.906c-3.7-2.2 2.4-6.6 3.8-7.3 1.8-1 4.1-1.6 6.1-1.7s4 .2 5.9.6c.9.2 1.7.5 2.6.8 2.8.1 3.8 1.4 2.9 3.8-.1 3.3-2 4.1-4.9 5.1-1.4.5-3 .8-4.5 1-4.4.8-9.2 1.7-12.9-1.5-1.1-.9-2.7.6-1.6 1.6 5.2 4.5 13.5 3 19.6 1 3.8-1.3 12-6.5 6.8-10.9s-14.5-5.1-20.5-2.2c-3.8 1.9-10.1 8.1-4.4 11.5 1.2.9 2.3-1 1.1-1.8z"/><path d="m373.47 157.206v66.7c0 1.4 2.3 1.5 2.3 0 0-22.2 0-44.5 0-66.7 0-1.5-2.3-1.5-2.3 0z"/><path d="m374.57 157.606h101.5c1.4 0 1.5-2.3 0-2.3-33.8 0-67.6 0-101.5 0-1.4.1-1.4 2.3 0 2.3z"/><path d="m375.27 227.106h98.7c1.4 0 1.5-2.3 0-2.3-32.9 0-65.8 0-98.7 0-1.4.1-1.4 2.3 0 2.3z"/><path d="m475.67 157.906v66.7c0 1.4 2.3 1.5 2.3 0 0-22.2 0-44.5 0-66.7-.1-1.5-2.3-1.5-2.3 0z"/><path d="m379.47 162.506v57.9c0 1.4 2.3 1.5 2.3 0 0-19.3 0-38.6 0-57.9-.1-1.5-2.3-1.5-2.3 0z"/><path d="m381.27 222.206h88.8c1.4 0 1.5-2.3 0-2.3-29.6 0-59.2 0-88.8 0-1.4.1-1.4 2.3 0 2.3z"/><path d="m471.271 220.006c0-18.5 0-37 0-55.5 0-1.4-2.301-1.5-2.301 0v55.5c0 1.5 2.301 1.5 2.301 0z"/><path d="m380.97 163.606h88.5c1.4 0 1.5-2.3 0-2.3-29.5 0-59 0-88.5 0-1.5 0-1.5 2.3 0 2.3z"/><path d="m468.77 163.406c.2.8.3 1.7.5 2.5.1.6.8.9 1.4.8.6-.2.9-.8.8-1.4-.2-.8-.3-1.7-.5-2.5-.1-.6-.8-.9-1.4-.8-.7.2-.9.8-.8 1.4z"/><path d="m382.07 201.406c5.3-2.7 9.5-6.5 12.6-11.5-.6.1-1.2.2-1.8.2 4.9 4.2 9.7 8.9 15 12.8 4.3 3.2 8 1.2 12.7 2.6 1.4.4 2.9 1.6 4.3 2.2.4.2 1.3-.6 1.6-.5 2.3.9 2.1 4.1 2.5 5.8.3 1.2.7 2.2 1.6 3 .8.6 4.9 2 5.2 1.8-1.2.7-.1 2.7 1.1 1.9 3.2-1.9.2-4-1.6-4.9-2.3-1.2-2.4 3.2-4.2-3.1-.3-.9.2-2 0-2.9-.3-1.6-1-3.5-2.6-4.1-1.7-.6-3.5 0-5.2-.6-2.3-.8-4-1.2-6.5-1.2-8.7 0-15.9-9.1-22.2-14.5-.6-.5-1.4-.4-1.8.2-3 4.7-6.9 8.2-11.8 10.7-1.4.9-.2 2.8 1.1 2.1z"/><path d="m418.27 204.106c.6-2.2 1.2-4.4 1.8-6.6.3-1.2.4-3.6 1.2-4.4 2.1-2.5 8.8-1.8 11.8-2.2.6-.1 1.1-.5 1.1-1.1.2-2.1-.2-6.5 1.2-8.1.7-.9 1.9-1.1 3.1-1.3 2-.3 2.1-.7 2.7 1.9.3 1.3 2.1.9 2.2-.3.3-3.1.7-6.3 1-9.4-.4.4-.8.8-1.1 1.1 3.6 0 6-.9 7 3 .8 3.2.5 6.8 1.6 10 .3.9 1.1 1.5 1.5 2.2 1.2 2.3.1 6.1-.3 8.7-.1.4.4 1 .8 1.1 5 .7 9.9 1 15 .8 1.4-.1 1.5-2.3 0-2.3-3.3.1-7.8.7-11-.3-4.7-1.5-.3-5-1.7-8.3-.7-1.5-1.8-2.3-2.3-4-1.1-3.9-1.3-8.3-1.9-12.3-.1-.5-.6-.8-1.1-.8-2.5 0-5 0-7.5 0-.7 0-1.1.5-1.1 1.1-.3 3.1-.7 6.3-1 9.4.7-.1 1.5-.2 2.2-.3-.3-1.4-.8-2.4-1.7-3.7-.3-.4-.8-.7-1.3-.5-2.3.6-4.5 1.3-6.8 1.9-.5.1-.8.6-.8 1.1-.3 3.1-.5 6.2-.8 9.3.4-.4.8-.8 1.1-1.1-4.2.5-8.4.9-12.5 1.4-.5.1-1 .3-1.1.8-1 4.3-2.2 8.5-3.3 12.7-.6 1.3 1.6 1.9 2 .5z"/><path d="m404.57 181.206c-4.2-3.2 1.5-8.7 5.3-5.5 1.8 1.5 3 5.1 0 6-2.4.7-5.9-.1-5.9-3.1 0-1.4-2.3-1.5-2.3 0 0 4.5 4.8 6.4 8.7 5.3 4.2-1.2 4.2-6 1.8-9-2.3-2.8-6.6-3.4-9.4-.8s-2.3 6.9.6 9.1c1.3.8 2.4-1.1 1.2-2z"/></g><path d="m584.47 216.706c3.148 0 5.7-2.552 5.7-5.7s-2.552-5.7-5.7-5.7-5.7 2.552-5.7 5.7 2.552 5.7 5.7 5.7z" fill="#5c1ee8"/><path d="m945.07 298.906c4.198 0 7.6-3.403 7.6-7.6s-3.402-7.6-7.6-7.6c-4.197 0-7.6 3.403-7.6 7.6s3.403 7.6 7.6 7.6z" fill="#5c1ee8"/><path d="m934.97 574.706c6.352 0 11.5-5.149 11.5-11.5s-5.148-11.5-11.5-11.5c-6.351 0-11.5 5.149-11.5 11.5s5.149 11.5 11.5 11.5z" fill="#5c1ee8"/><path d="m230.17 442.006c2.707 0 4.9-2.194 4.9-4.9s-2.193-4.9-4.9-4.9c-2.706 0-4.9 2.194-4.9 4.9s2.194 4.9 4.9 4.9z" fill="#5c1ee8"/><path d="m265.37 275.006c5.634 0 10.2-4.567 10.2-10.2s-4.566-10.2-10.2-10.2c-5.633 0-10.2 4.567-10.2 10.2s4.567 10.2 10.2 10.2z" fill="#5c1ee8"/><path d="m932.07 277.406c4.75 0 8.6-3.85 8.6-8.6s-3.85-8.6-8.6-8.6c-4.749 0-8.6 3.85-8.6 8.6s3.851 8.6 8.6 8.6z" fill="#f46470"/><path d="m970.47 280.806c1.602 0 2.9-1.298 2.9-2.9s-1.298-2.9-2.9-2.9c-1.601 0-2.9 1.298-2.9 2.9s1.299 2.9 2.9 2.9z" fill="#f46470"/><path d="m686.17 149.606c6.241 0 11.3-5.059 11.3-11.3s-5.059-11.3-11.3-11.3c-6.24 0-11.3 5.059-11.3 11.3s5.06 11.3 11.3 11.3z" fill="#f46470"/><path d="m716.77 158.106c2.541 0 4.6-2.059 4.6-4.6 0-2.54-2.059-4.6-4.6-4.6-2.54 0-4.6 2.06-4.6 4.6 0 2.541 2.06 4.6 4.6 4.6z" fill="#f46470"/><path d="m950.67 606.906c4.308 0 7.8-3.492 7.8-7.8s-3.492-7.8-7.8-7.8c-4.307 0-7.8 3.492-7.8 7.8s3.493 7.8 7.8 7.8z" fill="#f46470"/><path d="m703.17 565.906c3.922 0 7.1-3.179 7.1-7.1s-3.178-7.1-7.1-7.1c-3.921 0-7.1 3.179-7.1 7.1s3.179 7.1 7.1 7.1z" fill="#f46470"/><path d="m228.07 418.606c4.474 0 8.1-3.626 8.1-8.1 0-4.473-3.626-8.1-8.1-8.1-4.473 0-8.1 3.627-8.1 8.1 0 4.474 3.627 8.1 8.1 8.1z" fill="#f46470"/><path d="m868.67 384.106c.1 2.8 1.6 4.8 4.3 5.7 4.4 1.5 8.3-1.6 12.4-2.4 6.8-1.3 12.2 2.3 15.9 7.6 1.9 2.7 3.9 5.4 7.4 5.7 4.7.4 8.8-3.3 12.7-5.3 3.3-1.6 7.4-3.3 11.1-2.3 3.1.8 5 3.4 7 5.7 5.7 6.9 14.3 9.8 23 7.6 1.9-.5 1.1-3.4-.8-2.9-5.1 1.3-10.4.7-15-2.1-3.7-2.3-5.6-6.1-8.9-8.8-6.2-5-14.1-2-20.2 1.5-3.1 1.8-5.2 3.5-8.9 2.8-3.6-.6-4.1-2.4-6-5-1.9-2.7-4.4-4.8-7.5-6.1-2.8-1.2-5.9-1.7-8.9-1.4-3.1.3-14.4 6.2-14.7-.1 0-2.1-3-2.1-2.9-.2z" fill="#f46470"/><path d="m912.87 417.206c7.7-4.9 17.9-5.2 25.6 0 2.5 1.7 4.7 4.8 7.9 5.3 3.9.6 6.4-2.8 9.4-4.6 3.2-1.8 6.1-2.7 9.4-.8 1.9 1.1 3.2 2.8 4.9 4.1 2.5 1.9 5.3 3 8.4 3.5 6.1 1 12.2-.9 16.7-5.1 1.4-1.3-.7-3.4-2.1-2.1-3.4 3.1-7.6 4.7-12.2 4.5-5.2-.2-8.3-2.8-12-6-5-4.4-10.6-3.4-15.9.2-2.9 2-4.2 4.2-9.3 1.4-1.3-.7-2.4-2.1-3.7-3-2.9-1.9-6.2-3.2-9.6-3.8-6.6-1.2-13.3.2-19 3.8-1.6 1-.1 3.6 1.5 2.6z" fill="#f46470"/><path d="m205.57 540.306c-1-3.7 1-7 4.9-7.6 1.7-.3 3.6.4 5.3.7 2.4.4 5 .9 7.3-.1 3.8-1.7 4.2-5.9 5-9.5.3-1.2.5-2.9 1.4-3.8.7-.7 4.6-.9 6.1-1.4 2-.7 3.7-2 5.1-3.5 4.1-4.4 8.5-17.8 16.6-14 1.7.8 3.3-1.8 1.5-2.6-6.4-2.9-12 1.9-15.4 7.2-2.4 3.7-4.6 9-9.2 10.3-3 .8-5.7.1-7.6 3-1.5 2.3-1.4 5.3-2.1 7.8-1.9 6.7-8.5 3.1-13.3 3.1-6.1 0-10.1 5.6-8.5 11.4.5 1.6 3.4.8 2.9-1z" fill="#f46470"/><path d="m239.87 538.506c0-5.4 3.5-10.5 8.8-11.9 3-.8 6.4.4 8.8-1.9 2.6-2.5 3.5-6.6 6-9.3 3.5-3.8 8.1-5.9 13.1-6.8 1.9-.3 1.1-3.2-.8-2.9-4.6.8-8.8 2.6-12.3 5.6-4.4 3.7-6.3 10.8-12 11.9-4.1.8-7.4 1.4-10.5 4.6-2.8 2.9-4.2 6.6-4.2 10.7.1 1.9 3.1 1.9 3.1 0z" fill="#f46470"/><path d="m535.67 299.806c-1.1-3.6.1-7.2 3.6-8.9 3-1.4 6.5-.6 8.3 2.2 3.7 5.8-2.8 12.4-8.6 8.8-1.6-1-3.2 1.6-1.5 2.6 3.7 2.3 8.6 1.7 11.8-1.4 3.3-3.3 3.2-8.5.5-12.1s-7.2-4.7-11.3-3c-5.1 2.1-7.3 7.5-5.7 12.6.6 1.8 3.5 1 2.9-.8z" fill="#5c1ee8"/><path d="m516.67 436.306c-2.8-5.9 6.8-5.5 9.4-4.3 2.5 1.1 4.7 2.7 7.1 4 1 .5 2.3-.1 2.3-1.3 0-9.7 10.4-15 18.1-8.9 1.5 1.2 3.6-.9 2.1-2.1-9.6-7.7-23.2-1.5-23.2 11 .8-.4 1.5-.9 2.3-1.3-4.9-2.5-10.6-7.5-16.5-4.8-3.8 1.7-5.9 5.4-4.1 9.3.8 1.7 3.3.2 2.5-1.6z" fill="#5c1ee8"/><path d="m651.67 782.206c7.1-4.8 16.4-3.6 17.3-14.2.3-4 .2-7.7 4.7-9.3 2.2-.8 4.5-1.5 6.6-2.5 5-2.4 9.2-5.9 12.8-10.1 1.2-1.5-.9-3.6-2.1-2.1-4.2 4.9-9.3 8.7-15.3 10.9-3.4 1.2-7 1.9-8.6 5.5-2.1 4.8.6 10.4-4.4 13.9-3.7 2.6-8.7 2.7-12.4 5.3-1.7 1.1-.2 3.7 1.4 2.6z" fill="#5c1ee8"/><path d="m660.47 759.806c-.6-3.4.5-7 3.1-9.4 2.4-2.2 5.5-2.4 8.5-3.1 3.5-.8 6.3-2.1 7.8-5.6 1.2-2.6 1.7-5.2 3.3-7.6 1.7-2.4 3.9-4.5 6.3-6.2 4.3-3.1 9.2-5.2 14-7.3 1.8-.8.2-3.3-1.5-2.6-5.4 2.3-10.8 4.7-15.4 8.4-4.8 3.7-6.6 7.7-9 13-2.2 4.9-5.1 4.6-9.5 5.6-2.5.6-4.7 1.4-6.6 3.2-3.5 3.2-4.7 7.8-3.9 12.3.4 2 3.3 1.2 2.9-.7z" fill="#5c1ee8"/><path d="m808.57 148.506c-7.2-5.8-3.3-18.7 6.7-17 4.3.7 8.2 4.1 8.2 8.8-.1 5.2-4.5 9.6-9.6 9.9-1.9.1-1.9 3.1 0 3 6.3-.3 11.6-5.2 12.5-11.4.8-6-3.4-11.2-9.1-12.8-13-3.7-21 13.6-10.8 21.8 1.5 1 3.6-1.1 2.1-2.3z" fill="#5c1ee8"/><path d="m844.87 79.6061c1.1-4.3 3.2-5.7 6.4-4.2 1.4.5 2.8 1.1 4.1 1.7 1.5.5 2.8 1.1 4.4 1.3 2.2.3 4.4 0 6.2-1.3 5.3-4.1 1.2-13.9 9.7-14.4 6-.4 11 2.2 15.9-2.8 2.6-2.7 4.3-5.7 7.9-7.5 4.4-2.1 9.2-2 13.6-.2 1.8.7 2.6-2.2.8-2.9-7.2-2.9-15.8-1.4-21.2 4.4-1.7 1.8-2.9 4.4-5.2 5.7-2.4 1.3-5.4.8-8 .5-3.2-.3-6.7-.7-9.4 1.3-2.8 2.1-3.1 5.3-3.8 8.5-.9 4-3.5 6.6-7.9 5.3-2.2-.6-4.3-1.8-6.5-2.5-3.2-1-6.8-1-9.2 1.7-1.8 2.1-2.2 4.7-.6 6.9 1.3 1.6 3.9.1 2.8-1.5z" fill="#5c1ee8"/><path d="m889.97 79.5061c.7-5.2 4.8-9.6 10.3-9.8 3.9-.1 7.4 2.4 11.4 1.6 5.3-1.1 7.2-6.3 9.8-10.3 7.5-11.6 24.1-4.5 33.3-13.9 1.4-1.4-.8-3.5-2.1-2.1-5.2 5.3-13.1 4.8-20 6-5.9 1-10.5 3.4-13.8 8.5-2.2 3.5-3.9 8.7-8.8 9-3.9.2-7.4-2.2-11.5-1.6-6 .9-10.6 5.9-11.4 11.8-.4 1.9 2.5 2.7 2.8.8z" fill="#5c1ee8"/><path d="m1081.97 366.006c-5.3-.6-6.8-7.3-5.2-11.6 1.9-5.1 7.9-8.6 13.3-7.7 5.5.9 9.9 6 9.5 11.7-.4 6.1-6.9 10-12.5 8.6-1.9-.5-2.7 2.4-.8 2.9 6.9 1.7 14.5-2.6 16.1-9.8 1.6-7.6-4.4-15.3-11.9-16.4-7.3-1.1-15.4 4-17 11.4-1.4 6.2 1.8 13.2 8.5 14 1.9.1 1.9-2.9 0-3.1z" fill="#5c1ee8"/><path d="m1109.97 390.006c-1.6-5.7 5.6-12.4 10.9-8.5 3.9 2.9 3.8 9.8-.4 12.4-1.6 1-.1 3.6 1.5 2.6 6.2-3.9 6.3-14.4-.3-18.1-7.7-4.3-16.8 4.4-14.6 12.3.5 2 3.4 1.2 2.9-.7z" fill="#5c1ee8"/><path d="m409.87 260.606c-1.4.3-3.3 1.2-7 3.1-15.7 7.7-25.7 16.8-32.5 23.1-40.6 37.5-43.8 40.7-49.8 48.4-6.9 9.1-11.8 17-14.9 22.3 2.3 7.5 4.9 15.2 7.9 23.1 13.1 34.3 30.4 62.7 47.4 85.5 24.5-14 55.1-34.5 85.6-64.1 30.9-30 33.9-42.4 34.9-47.6 8.3-46-46.6-99.7-71.6-93.8z" fill="#fff"/><path d="m422.87 442.106c1.2 5.7 7.4 6 13 13.5 6 8 6.4 17.7 5.6 24.9 5.2 1.4 9.6 1.5 12.6 1.3 4-.2 9.3-.5 14.4-3.9 4.2-2.8 6.4-6.5 7.4-8.7.1-3.8-.1-8.3-.9-13.1-1.6-9.7-2.3-16.9-7.9-23.1-1-1.2-2-2-3.9-3.6-5.3-4.5-10.5-9-15.3-10-11-2.1-27.1 12.8-25 22.7z" fill="#fff"/><path d="m403.77 261.406c5.3 13.1 10.5 26.4 15.6 40 11.3 29.8 21.5 59 30.8 87.5-9.2 6.2-18.8 13.2-28.4 20.9-23.7 18.9-42.8 38.1-58.2 55.9 22.1-5.2 44.2-10.4 66.2-15.5-.1-2.1 0-6 1.9-10.2 2.4-5.4 6.4-8.3 9-10.2 3.6-2.6 6.3-4.7 10.4-4.9 4.8-.3 8.5 2.1 9.9 3.1 19.2-16.4 38.5-32.9 57.7-49.3.6-1.8 1.3-3.6 1.9-5.3-.7-6-1.8-14.1-3.8-23.5-1.2-5.7-5.6-26.2-16.1-51.9-5.7-14-13.8-31.1-25.6-49.7-11.6-.2-26.6.6-43.5 4.4-10.6 2.3-20 5.5-27.8 8.7z" fill="#303032"/><path d="m401.67 260.906c17.4 42.3 33.1 85.3 46.9 128.9.6 1.8 3.5 1.1 2.9-.8-13.8-43.6-29.5-86.6-46.9-128.9-.8-1.7-3.7-1-2.9.8z" fill="#303032"/><path d="m307.07 358.006c23.4-39.4 60.7-67.7 96.7-95 1.5-1.2 0-3.8-1.5-2.6-36.4 27.6-74 56.2-97.7 96.1-1.1 1.6 1.5 3.1 2.5 1.5z" fill="#303032"/><path d="m303.97 356.506c12.5 39.7 31.6 77 56.4 110.4 1.1 1.5 3.7 0 2.6-1.5-24.6-33.2-43.7-70.2-56.1-109.7-.5-1.8-3.4-1-2.9.8z" fill="#303032"/><path d="m363.67 467.806c24.3-30.2 53.7-56.1 86.5-76.6 1.6-1 .1-3.6-1.5-2.6-33.1 20.7-62.7 46.7-87.2 77.1-1.1 1.5 1 3.6 2.2 2.1z" fill="#303032"/><path d="m402.87 262.206c22.8-8 46.6-12.2 70.7-12.4 1.9 0 1.9-3 0-3-24.4.3-48.5 4.5-71.5 12.5-1.8.7-1 3.6.8 2.9z" fill="#303032"/><path d="m473.77 247.906c23.9 38.7 39.6 81.9 45.8 127 .3 1.9 3.2 1.1 2.9-.8-6.2-45.3-22.1-88.8-46.1-127.7-1.1-1.6-3.7-.1-2.6 1.5z" fill="#303032"/><path d="m451.27 390.106c13.8-3.8 27.9-6.6 42.2-8.2 6.7-.8 13.4-1 20.2-1.6 3.6-.4 6.9-1.1 8.9-4.3 1-1.6-1.6-3.2-2.6-1.5-2.8 4.5-13.4 3.2-18 3.6-5.5.5-10.9 1.1-16.4 1.9-11.8 1.7-23.5 4.2-35.1 7.3-1.9.4-1.1 3.3.8 2.8z" fill="#303032"/><path d="m365.87 467.106c11.1-1.8 22-4.2 32.7-7.5 11-3.3 21.8-7.4 33.2-8.6 1.9-.2 1.9-3.2 0-3-11.2 1.2-21.6 4.9-32.3 8.2-11.3 3.5-22.8 6.2-34.5 8-1.8.3-1 3.2.9 2.9z" fill="#303032"/><path d="m433.27 448.606c-4.3-8 3.9-15.4 10.2-19.1 6.6-3.8 14-3.6 19.4 2 9.1 9.3 11.2 25.7 11 38.1 0 1.9 3 1.9 3 0 .2-14.7-3.1-39.9-19.8-45.1-12.8-4-33.9 11.7-26.4 25.7.9 1.6 3.5.1 2.6-1.6z" fill="#303032"/><path d="m429.87 450.806c6.7 7.7 10 17.2 9.3 27.4-.1 1.9 2.9 1.9 3 0 .7-11-3-21.2-10.2-29.5-1.3-1.5-3.4.6-2.1 2.1z" fill="#303032"/><path d="m438.87 480.306c11.1 7.5 35.8 2.3 38.4-12.6.3-1.9-2.6-2.7-2.9-.8-2.3 12.9-24.4 17.2-34 10.8-1.6-1.1-3.1 1.5-1.5 2.6z" fill="#303032"/><path d="m518.17 376.406c-19.8 16.2-39 33-58.3 49.8-1.5 1.3.7 3.4 2.1 2.1 19.2-16.8 38.5-33.6 58.3-49.8 1.5-1.2-.7-3.3-2.1-2.1z" fill="#303032"/><path d="m434.17 451.406c4.7-11.5 16.8-18.1 29-17.7 1.9.1 1.9-2.9 0-3-13.6-.6-26.7 7.1-31.9 19.9-.7 1.8 2.2 2.6 2.9.8z" fill="#303032"/><path d="m439.47 460.906c7-9.9 19.1-14.6 31.1-13.3 1.9.2 1.9-2.8 0-3-13.1-1.4-26 4-33.6 14.8-1.2 1.5 1.4 3 2.5 1.5z" fill="#303032"/><path d="m443.67 471.106c3.3-4.2 8.2-6.1 13.1-8 5.7-2.2 11.3-4 17.4-3.1 1.9.3 1.9-2.7 0-3-7-.9-13.5 1.3-19.9 3.9-4.8 1.9-9.4 4-12.7 8.1-1.2 1.4.9 3.6 2.1 2.1z" fill="#303032"/><path d="m341.37 373.006c-4.7-.7-8.1-5.9-7.1-10.6-.2-1.1.3-1.6 1.4-1.7.9-.8 1.7-.6 2.4.5.8.8 1.3 1.9 1.8 3 .8 1.8 1.9 4.7 1.5 6.8-.7 3.4-2.8.9-3.8-1-1-1.8-2.2-4.7-1.9-6.8.1-1.1-.3-1 .6-.7.8.3 1.4 1.7 1.8 2.5 1.1 2.1 1.4 4.4 1.2 6.8.9-.4 1.7-.7 2.6-1.1-2.3-2-3.5-4.4-3.5-7.6-.8.4-1.5.9-2.3 1.3 2.3 1 3.4 3.2 2.4 5.6.7-.3 1.5-.6 2.2-.9-2.3-1.7-3.3-4.6-2.1-7.3-.9 0-1.7 0-2.6 0 2.3 3.4 3.2 7 2.6 11.1.9-.4 1.7-.7 2.6-1.1-1.1-1-2.1-2.1-2.8-3.5-.5-.9-2-4.3-1.4-5.2.4-.6.8-.3 1.4.4s.8 1.8 1.1 2.6c.6 1.8.7 3.6.5 5.4.6-.5 1.3-1 1.9-1.4-1-.1-1.8-.4-2.6-1-1.6-1.1-3.1 1.5-1.5 2.6 1.1.7 2 1.1 3.3 1.3 1 .2 1.8-.4 1.9-1.4.2-3.5-.5-7-2.3-10.1-1-1.7-3.1-4-5.3-2.6-2.1 1.3-1.6 5-1.2 7 .7 3.2 2.4 5.9 4.8 8.1 1 1 2.4.2 2.6-1.1.6-4.5-.5-8.8-3.1-12.6-.6-.8-2.1-1.1-2.6 0-1.9 4.3-.6 8.7 3.2 11.4.9.6 1.9-.1 2.2-.9 1.5-3.6-.3-7.5-3.8-9-1-.4-2.2.1-2.3 1.3-.1 3.9 1.5 7.2 4.4 9.7 1 .9 2.5.3 2.6-1.1.3-4.1-1-8.9-4.2-11.7-2.5-2.2-5.2-1.2-5.4 2.2-.2 4.1 1.6 9 4.4 12 1.9 2.1 5.7 4.1 7.1.3s-.1-9.2-1.9-12.7c-1.5-2.9-5.1-6.5-8.5-4.3-3.3 2-2.5 7.8-1.6 10.9 1.3 3.9 4.4 6.9 8.6 7.5 1.8.3 2.6-2.6.7-2.9z" fill="#303032"/><path d="m390.87 338.106c-4.7-.7-8.1-5.9-7.1-10.6-.2-1.1.3-1.6 1.4-1.7.9-.8 1.7-.6 2.4.5.8.8 1.3 1.9 1.8 3 .8 1.8 1.9 4.7 1.5 6.8-.7 3.4-2.8.9-3.8-1-1-1.8-2.2-4.7-1.9-6.8.1-1.1-.3-1 .6-.7.8.3 1.4 1.7 1.8 2.5 1.1 2.1 1.4 4.4 1.2 6.8.9-.4 1.7-.7 2.6-1.1-2.3-2-3.5-4.4-3.5-7.6-.8.4-1.5.9-2.3 1.3 2.3 1 3.4 3.2 2.4 5.6.7-.3 1.5-.6 2.2-.9-2.3-1.7-3.3-4.6-2.1-7.3-.9 0-1.7 0-2.6 0 2.3 3.4 3.2 7 2.6 11.1.9-.4 1.7-.7 2.6-1.1-1.1-1-2.1-2.1-2.8-3.5-.5-.9-2-4.3-1.4-5.2.4-.6.8-.3 1.4.4s.8 1.8 1.1 2.6c.6 1.8.7 3.6.5 5.4.6-.5 1.3-1 1.9-1.4-1-.1-1.8-.4-2.6-1-1.6-1.1-3.1 1.5-1.5 2.6 1.1.7 2 1.1 3.3 1.3 1 .2 1.8-.4 1.9-1.4.2-3.5-.5-7-2.3-10.1-1-1.7-3.1-4-5.3-2.6-2.1 1.3-1.6 5-1.2 7 .7 3.2 2.4 5.9 4.8 8.1 1 1 2.4.2 2.6-1.1.6-4.5-.5-8.8-3.1-12.6-.6-.8-2.1-1.1-2.6 0-1.9 4.3-.6 8.7 3.2 11.4.9.6 1.9-.1 2.2-.9 1.5-3.6-.3-7.5-3.8-9-1-.4-2.2.1-2.3 1.3-.1 3.9 1.5 7.2 4.4 9.7 1 .9 2.5.3 2.6-1.1.3-4.1-1-8.9-4.2-11.7-2.5-2.2-5.2-1.2-5.4 2.2-.2 4.1 1.6 9 4.4 12 1.9 2.1 5.7 4.1 7.1.3s-.1-9.2-1.9-12.7c-1.5-2.9-5.1-6.5-8.5-4.3-3.3 2-2.5 7.8-1.6 10.9 1.3 3.9 4.4 6.9 8.6 7.5 1.7.3 2.6-2.6.7-2.9z" fill="#303032"/><path d="m363.37 382.006c6.8-7.6 13.8-15 21-22.2 1.4-1.4-.8-3.5-2.1-2.1-7.2 7.3-14.2 14.7-21 22.2-1.3 1.4.8 3.6 2.1 2.1z" fill="#303032"/><path d="m362.87 382.306c6.6 2.5 13.3 4.8 20.1 6.6.9.3 1.9-.5 1.9-1.4-.3-9.3-.1-18.6.6-28 .1-1.9-2.9-1.9-3 0-.7 9.3-.9 18.6-.6 28 .6-.5 1.3-1 1.9-1.4-6.8-1.9-13.5-4.1-20.1-6.6-1.8-.8-2.5 2.1-.8 2.8z" fill="#303032"/><path d="m366.37 380.106c6.1-3.4 10.2-10 14.5-15.4 1.2-1.5-.8-3.6-2.1-2.1-2.8 3.2-5.5 6.5-8.3 9.7-2 2.3-4.6 4.1-6.4 6.6-1 1.4 1.2 3 2.4 1.8 5.7-5.8 11.3-11.7 16.6-17.8-.7-.7-1.4-1.4-2.1-2.1-4.3 5.3-8.6 10.7-12.4 16.5-.9 1.4 1.3 3.1 2.4 1.8 3.5-4.3 7.1-8.5 10.6-12.8-.8-.6-1.6-1.2-2.4-1.8-3.5 4.7-6.8 9.5-10.1 14.3-.9 1.4 1.3 3.2 2.4 1.8 3.3-4.3 6.7-8.5 10-12.8-.8-.6-1.6-1.2-2.4-1.8-2.7 4.2-5.4 8.4-8.2 12.6-.9 1.4 1.2 3.1 2.4 1.8.8-.8 1-1.2 1.4-2.3.5-1.1-.9-2.1-1.8-1.8-2.2.5-4.4 1-6.6 1.4-1.2.3-1.5 2.2-.4 2.7 2.4 1.1 4.6 1.7 7.3 1.9 1.7.1 2-2.5.4-2.9-2.2-.6-4.4-1-6.7-1.2-1.7-.1-2 2.5-.4 2.9 2.6.7 5.2 1.4 7.9 2 1.6.4 2.7-1.9 1.2-2.7-.5-.2-.9-.5-1.4-.7-.5.9-1 1.7-1.5 2.6 1.1.5 2.2 1.1 3.3 1.6 1.3.6 2.8-.7 2.1-2.1-1.3-2.3-2-4.5-2.3-7.1-.8.5-1.7 1-2.5 1.5 2.1 2 2.1 5.4 3.7 7.8.9 1.4 3.2.5 2.7-1.2-.9-3-1.7-6-2.6-9-.7.6-1.5 1.1-2.2 1.7 1.9 1.1 3 6.1 3.9 8 .7 1.7 3.3 1.1 2.9-.8-1.2-5.1-2.2-10-.4-15.2-1 0-1.9 0-2.9 0 .9 4.6.9 9.1.9 13.7 0 1.9 2.9 1.9 3 0 .3-6.1-.5-14 1.6-19.7-1-.1-2-.3-2.9-.4 0 8.2-2.2 15.9-.7 24 .5-.6 1-1.3 1.4-1.9-4.2 0-7.6-3.1-11.7-4-1.6-.3-2.8 2-1.2 2.7 3.8 1.8 7.6 3.3 11.6 4.4.3-1 .5-1.9.8-2.9-4.9-1.2-9.6-3-14.1-5.2v2.6c2.5-1.7 3.9-3.9 5.5-6.3 2.6-4.1 5.6-7.9 8.9-11.4 1.3-1.4-.8-3.5-2.1-2.1-2.3 2.5-4.5 5.2-6.6 7.9-2.3 3.1-4 7.1-7.2 9.4-.9.6-1.1 2.1 0 2.6 4.8 2.3 9.7 4.2 14.8 5.5 1.9.5 2.7-2.4.8-2.9-3.8-1-7.4-2.3-10.9-4-.4.9-.8 1.8-1.2 2.7 4.4 1 7.8 4.1 12.5 4.1 1 0 1.6-1 1.4-1.9-1.4-7.7.7-15.4.8-23.2 0-1.8-2.4-1.9-2.9-.4-2.2 6.1-1.3 14.1-1.7 20.5h3c0-4.9-.1-9.7-1-14.5-.3-1.6-2.5-1.3-2.9 0-1.9 5.6-.9 11.1.4 16.7 1-.3 1.9-.5 2.9-.8-1.3-3-2.2-8.1-5.2-9.8-1.1-.6-2.6.4-2.2 1.7.9 3 1.7 6 2.6 9 .9-.4 1.8-.8 2.7-1.2-1.8-2.7-1.7-6.1-4.2-8.4-1.2-1.1-2.7 0-2.5 1.5.4 2.9 1.2 5.3 2.7 7.8.7-.7 1.4-1.4 2.1-2.1-1.1-.5-2.2-1.1-3.3-1.6-1.7-.8-3.2 1.7-1.5 2.6.5.2.9.5 1.4.7.4-.9.8-1.8 1.2-2.7-2.6-.7-5.2-1.4-7.9-2-.1 1-.3 2-.4 2.9 2.1.2 3.9.5 5.9 1.1.1-1 .3-2 .4-2.9-2-.1-3.9-.6-5.7-1.5-.1.9-.2 1.8-.4 2.7 2.2-.5 4.4-1 6.6-1.4-.6-.6-1.2-1.2-1.8-1.8-.2.3-.4.6-.6 1 .8.6 1.6 1.2 2.4 1.8 2.7-4.2 5.4-8.4 8.2-12.6.9-1.4-1.3-3.2-2.4-1.8-3.3 4.3-6.7 8.5-10 12.8.8.6 1.6 1.2 2.4 1.8 3.3-4.8 6.7-9.6 10.1-14.3 1-1.4-1.3-3.1-2.4-1.8-3.5 4.3-7.1 8.5-10.6 12.8.8.6 1.6 1.2 2.4 1.8 3.6-5.6 7.7-10.7 11.9-15.9 1.2-1.5-.8-3.6-2.1-2.1-5.4 6.1-10.9 12-16.6 17.8.8.6 1.6 1.2 2.4 1.8 1.9-2.6 4.8-4.7 7-7.2 2.4-2.8 4.9-5.7 7.3-8.5-.7-.7-1.4-1.4-2.1-2.1-4.1 5.1-8.1 11.6-13.9 14.9-2.3 1-.8 3.6.9 2.6z" fill="#303032"/><path d="m389.77 279.106c1.7-1.7 7.4-8.2 10.3-6.3 1 .7 1.9 3.4 2.4 4.5 1.1 2.2 2 4.4 2.9 6.7.5 1.3 2.7.8 2.2-.6-1.1-2.9-2.3-5.7-3.7-8.4-.8-1.6-1.7-4.2-3.5-5-3.8-1.6-9.8 5.1-12.1 7.4-1.1 1.1.5 2.7 1.5 1.7z" fill="#303032"/><path d="m434.87 384.706c-.7-.6-.3-1.7.4-2 1-.5 2.2 0 2.7.8s.6 2.1 0 2.9c-.9 1.1-2.5-.3-3.3-.9-1.1-.9-2.3 1.1-1.1 1.9 1.8 1.4 4.7 2.5 6.3.2 1.3-1.9 1-4.7-.7-6.2-1.6-1.4-4.3-1.6-5.9-.1s-1.2 4 .4 5.3c1.2 1 2.3-1 1.2-1.9z" fill="#303032"/><path d="m355.97 448.606c1.3 1.7 2.6 3.4 4.1 5 .7.7 1.4 1.4 2.4 1.2 1.3-.3 2.4-1.9 3.3-2.7 1.7-1.6 3.5-3.3 5.2-4.9 1.4-1.3-.7-3.4-2.1-2.1-1 .9-2 1.9-3 2.8-.9.8-2.9 2.1-3.4 3.1-.3.7 0 .9-.4.5-.5-.4-.9-1.1-1.2-1.5-.9-1.2-1.9-2.3-2.8-3.5-1.2-1.5-3.3.6-2.1 2.1z" fill="#303032"/><path d="m375.97 442.806c1.6-1.2 3.2-2.5 4.7-3.7.6-.5.5-1.6 0-2.1-.6-.6-1.5-.5-2.1 0-1.6 1.2-3.2 2.5-4.7 3.7-.6.5-.5 1.6 0 2.1.6.6 1.4.5 2.1 0z" fill="#303032"/><path d="m363.87 468.406c6.2-1.3 12.4-2.7 18.5-4 1.9-.4 1.1-3.3-.8-2.9-6.2 1.3-12.4 2.7-18.5 4-1.9.5-1.1 3.4.8 2.9z" fill="#303032"/><path d="m334.47 384.006c-.5 1.5-1 3-1.5 4.5-.3.9 1.1 1.3 1.4.4.5-1.5 1-3 1.5-4.5.3-1-1.1-1.4-1.4-.4z" fill="#303032"/><path d="m338.17 384.006c-.2 1.1-.5 2.3-.7 3.4-.2.9 1.3 1.3 1.4.4.2-1.1.5-2.3.7-3.4.2-1-1.2-1.4-1.4-.4z" fill="#303032"/><path d="m341.77 382.606c.2 1.2.2 2.4.2 3.7-.1 1 1.4 1 1.5 0 .1-1.4 0-2.7-.2-4.1-.2-.9-1.6-.5-1.5.4z" fill="#303032"/><path d="m400.27 336.206c1.8-.3 3.5-.7 5.3-1.3.9-.3.5-1.7-.4-1.4-1.7.5-3.5 1-5.3 1.3-.9.1-.5 1.5.4 1.4z" fill="#303032"/><path d="m401.67 338.706c1.5.1 2.9 0 4.3-.1.9-.1 1-1.6 0-1.5-1.4.2-2.9.2-4.3.1-1-.1-1 1.4 0 1.5z" fill="#303032"/><path d="m401.07 343.306c1.5.3 3 .6 4.6.9.9.2 1.3-1.3.4-1.4-1.5-.3-3-.6-4.6-.9-1-.3-1.4 1.2-.4 1.4z" fill="#303032"/><path d="m362.17 293.906c-6.5 9.9-15.8 26.7-20.5 49.3-4.3 20.7-11.5 55.1 8.3 72.2 20.1 17.5 54.5 5.2 58.1 3.9-14.6 16.1-29.3 32.2-43.9 48.3-10.2-12.2-21.6-27.7-32.2-46.8-13.3-24.1-21.4-46.5-26.4-64.4 5.6-8.6 12.4-17.8 20.5-27.3 12.4-14.6 24.9-26.2 36.1-35.2z" fill="#535356" opacity=".12"/><path d="m303.67 355.906c15.8-17.7 31.6-35.5 47.3-53.2-.5 4.3-5.3 55.1 31.7 84.4 15.6 12.3 32.3 15.9 42 17.1-21.1 20.2-42.3 40.3-63.4 60.5-11.4-14.8-24-33.5-35.6-56.1-9.9-19.1-16.9-37-22-52.7z" fill="#535356" opacity=".07"/><path d="m438.87 431.806c3 2.9 6.9 7.2 10.1 13.2 5.2 9.7 6.1 18.9 6.3 24-4.5 1-9 2.1-13.6 3.1-1.4-5.1-3.4-10.9-6.3-17-1.3-2.9-2.8-5.5-4.2-8-.2-1.3-.5-5.3 1.7-9.4 2-3.5 4.7-5.2 6-5.9z" fill="#535356" opacity=".12"/><path d="m133.77 533.806c-2.4 3.4-5.6 8.3-8.7 14.4-7.9 15.4-10.2 28.7-11.8 38-3.8 22.5-1.6 39.7-.9 45 .6 4 1.2 7.3 1.7 9.6 3.7 1.8 9.7 4.7 17 8.3 32.9 15.9 43.5 20.2 65.5 31 18.9 9.3 14.4 7.8 37.1 19.2 24.6 12.3 38.1 19.1 55.9 26.2 24.2 9.7 43.5 14.8 55.5 17.9 26 6.8 35.3 7.1 75.1 15.3 21.3 4.4 38.6 8.3 49.4 10.9 2.5-9.3 5-18.6 7.4-28-4.1-.7-10.1-1.8-17.5-3.1-35.1-5.9-39.8-5.5-55.9-8.7-14.1-2.8-26.6-6.7-51.5-14.4-12.5-3.9-24.3-7.5-39.3-13.1-7.1-2.6-18.8-7.1-59-25.3-23.7-10.8-35.6-16.2-52.9-24.5-17.8-8.6-39.7-19.5-64.7-32.8.1-4.1.2-10.5.4-18.3.7-23.2 1.4-29.2.9-39.3-.1-6.6-1-16.4-3.7-28.3z" fill="#fff"/><path d="m131.87 531.506c-19.8 32.9-26.9 72.2-20 110 .3 1.9 3.2 1.1 2.9-.8-6.8-37 .3-75.5 19.7-107.7 1-1.6-1.6-3.2-2.6-1.5z" fill="#303032"/><path d="m131.77 534.606c6.2 11.6 3.8 27.4 3.8 40.1 0 14 0 27.9.1 41.9 0 1.9 3 1.9 3 0 0-15.3 0-30.5-.1-45.8 0-12.3 1.8-26.4-4.2-37.7-.9-1.7-3.5-.2-2.6 1.5z" fill="#303032"/><path d="m116.07 642.606c-.3-12 8.2-21.7 20.3-22.5 1.9-.1 1.9-3.1 0-3-13.6 1-23.6 11.8-23.3 25.5 0 1.9 3 1.9 3 0z" fill="#303032"/><path d="m114.87 644.606c45.6 17.6 88.1 41.8 131.9 63.1 21.1 10.2 42.5 19.8 64.6 27.6 24.2 8.5 49 13.6 74.1 18.6 30.1 6 60.2 11.9 90.3 17.9 1.9.4 2.7-2.5.8-2.9-26.5-5.3-53.1-10.5-79.6-15.8-25.7-5.1-51.5-9.8-76.5-17.9-46-15-88.7-38.4-131.7-60.2-23.9-12.1-48-23.7-73-33.3-1.9-.7-2.6 2.2-.9 2.9z" fill="#303032"/><path d="m135.17 621.106c85.8 44.4 173.4 87.9 268.2 109.4 26.3 6 52.9 10.1 79.8 12.1 1.9.1 1.9-2.9 0-3-96.1-7.2-187.1-42.6-273.1-84.2-24.6-11.9-49-24.4-73.3-37-1.8-.8-3.3 1.8-1.6 2.7z" fill="#303032"/><path d="m151.37 657.806c1.3-8.8 6.5-16.1 14.4-20.1 1.7-.9.2-3.5-1.5-2.6-8.6 4.3-14.5 12.4-15.8 21.9-.3 1.9 2.6 2.7 2.9.8z" fill="#303032"/><path d="m188.97 675.306c2.6-7.5 5.8-15.9 14.1-18.4 1.8-.5 1.1-3.4-.8-2.9-9.5 2.8-13.2 11.9-16.2 20.5-.7 1.8 2.2 2.6 2.9.8z" fill="#303032"/><path d="m248.37 704.506c1-8.6 6-16 13.5-20.4 1.7-1 .2-3.6-1.5-2.6-8.5 4.9-13.8 13.2-15 22.9-.2 2 2.8 2 3 .1z" fill="#303032"/><path d="m296.27 727.406c2.9-9.6 7.8-18.6 17.3-23 1.7-.8.2-3.4-1.5-2.6-10.1 4.8-15.5 14.5-18.6 24.8-.6 1.9 2.3 2.6 2.8.8z" fill="#303032"/><path d="m346.97 743.906c1-4.5 2.7-8.8 5.2-12.7 1.3-2 7.1-10.6 10.1-10 1.9.4 2.7-2.5.8-2.9-4.4-.8-8.8 5.1-11.2 8.2-3.9 4.9-6.4 10.6-7.8 16.6-.4 1.9 2.5 2.7 2.9.8z" fill="#303032"/><path d="m394.57 753.906c2.1-8.1 6.4-15.1 12.7-20.6 1.5-1.3-.7-3.4-2.1-2.1-6.6 5.8-11.2 13.3-13.5 21.9-.5 1.8 2.4 2.6 2.9.8z" fill="#303032"/><path d="m436.77 761.406c2-8.9 6.6-16.6 13.6-22.5 1.5-1.2-.7-3.4-2.1-2.1-7.4 6.2-12.3 14.4-14.4 23.8-.4 1.8 2.5 2.6 2.9.8z" fill="#303032"/><path d="m131.47 536.606c-1.7 12.4-3 25.9-3.8 40.3-.8 15.8-.9 30.5-.4 44.1 26.7 19.9 58.2 40.4 94.9 59.1 97.4 49.7 189.3 66 254.2 71.1v17.9c-3.7-.3-9.2-.8-15.8-1.7-25.9-3.3-43.4-8.2-58.2-12.1-42.1-10.8-38.1-6-69.9-15-11.5-3.3-32.8-9.8-58.2-20.8-17.4-7.5-15.8-8.1-61.2-30.8-18.7-9.4-20-9.8-52.4-25.8-20.1-10-36.4-18.1-46.8-23.3-.9-4.1-2-10.4-2.7-18.2-1.2-15.5-.6-40 10.7-66.2 1.8-4.6 4.9-11.1 9.6-18.6z" fill="#535356" opacity=".16"/><path d="m121.87 568.606c1.4 21.9 2.8 43.8 4.2 65.7 27.6 16.4 55.2 32.7 82.8 49.1-17-7-34.5-14.6-52.4-22.9-13.6-6.3-26.8-12.7-39.5-19.1-2.5-9.1-5.2-23.6-3.3-41.2 1.3-13.3 4.9-24.1 8.2-31.6z" fill="#535356" opacity=".14"/><path d="m24.4703 574.706c-2.4 3.4-5.6 8.3-8.7 14.4-7.89995 15.4-10.19995 28.7-11.79995 38-3.800004 22.5-1.60001 39.7-.90001 45 .6 4 1.20001 7.3 1.70001 9.6 3.7 1.8 9.69995 4.7 16.99995 8.3 32.9001 15.9 43.5 20.2 65.5 31 18.8997 9.3 14.3997 7.8 37.0997 19.2 24.6 12.3 38.1 19.1 55.9 26.2 24.2 9.7 43.5 14.8 55.5 17.9 26 6.8 35.3 7.1 75.1 15.3 21.3 4.4 38.6 8.3 49.4 10.9 2.5-9.3 5-18.6 7.4-28-4.1-.7-10.1-1.8-17.5-3.1-35.1-5.9-39.8-5.5-55.9-8.7-14.1-2.8-26.6-6.7-51.5-14.4-12.5-3.9-24.3-7.5-39.3-13.1-7.1-2.6-18.8-7.1-59-25.3-23.7-10.8-35.6-16.2-52.8997-24.5-17.8-8.6-39.7-19.5-64.7-32.8.1-4.1.2-10.5.4-18.3.7-23.2 1.4001-29.2.9001-39.3-.1-6.6-1.0001-16.4-3.7001-28.3z" fill="#fff"/><path d="m22.5703 572.406c-19.79997 32.9-26.89997 72.2-19.99997 110 .3 1.9 3.2 1.1 2.9-.8-6.8-37 .30001-75.5 19.69997-107.7 1-1.6-1.6-3.1-2.6-1.5z" fill="#303032"/><path d="m22.4704 575.506c6.2 11.6 3.8 27.4 3.8 40.1 0 14 0 27.9.1 41.9 0 1.9 3 1.9 3 0 0-15.3 0-30.5-.1-45.8 0-12.3 1.8-26.4-4.2-37.7-.9-1.7-3.5-.2-2.6 1.5z" fill="#303032"/><path d="m6.77037 683.506c-.3-12 8.20003-21.7 20.30003-22.5 1.9-.1 1.9-3.1 0-3-13.6 1-23.60003 11.8-23.30003 25.5 0 1.9 3 1.9 3 0z" fill="#303032"/><path d="m5.57033 685.506c45.59997 17.6 88.09997 41.8 131.89967 63.1 21.1 10.2 42.5 19.8 64.6 27.6 24.2 8.5 49 13.6 74.1 18.6 30.1 6 60.2 11.9 90.3 17.9 1.9.4 2.7-2.5.8-2.9-26.5-5.3-53.1-10.5-79.6-15.8-25.7-5.1-51.5-9.8-76.5-17.9-46-15-88.7-38.4-131.6997-60.2-23.9-12.1-48-23.7-72.99997-33.3-1.9-.7-2.6 2.2-.9 2.9z" fill="#303032"/><path d="m25.8703 662.006c85.7997 44.4 173.3997 87.9 268.1997 109.4 26.3 6 52.9 10.1 79.8 12.1 1.9.1 1.9-2.9 0-3-96.1-7.2-187.1-42.6-273.1-84.2-24.5997-11.9-48.9997-24.4-73.2997-37-1.8-.8-3.3 1.8-1.6 2.7z" fill="#303032"/><path d="m42.0703 698.706c1.3-8.8 6.5001-16.1 14.4001-20.1 1.7-.9.2-3.5-1.5-2.6-8.6 4.3-14.5 12.4-15.8 21.9-.3 1.9 2.5999 2.7 2.8999.8z" fill="#303032"/><path d="m79.6703 716.206c2.6-7.5 5.8-15.9 14.1-18.4 1.8-.5 1.1-3.4-.8-2.9-9.5 2.8-13.2 11.9-16.2 20.5-.7 1.8 2.2 2.6 2.9.8z" fill="#303032"/><path d="m139.07 745.406c1-8.6 6-16 13.5-20.4 1.7-1 .2-3.6-1.5-2.6-8.5 4.9-13.8 13.2-15 22.9-.2 2 2.8 2 3 .1z" fill="#303032"/><path d="m186.97 768.306c2.9-9.6 7.8-18.6 17.3-23 1.7-.8.2-3.4-1.5-2.6-10.1 4.8-15.5 14.5-18.6 24.8-.6 1.9 2.3 2.7 2.8.8z" fill="#303032"/><path d="m237.67 784.906c1-4.5 2.7-8.8 5.2-12.7 1.3-2 7.1-10.6 10.1-10 1.9.4 2.7-2.5.8-2.9-4.4-.8-8.8 5.1-11.2 8.2-3.9 4.9-6.4 10.6-7.8 16.6-.4 1.8 2.5 2.6 2.9.8z" fill="#303032"/><path d="m285.27 794.806c2.1-8.1 6.4-15.1 12.7-20.6 1.5-1.3-.7-3.4-2.1-2.1-6.6 5.8-11.2 13.3-13.5 21.9-.5 1.9 2.4 2.6 2.9.8z" fill="#303032"/><path d="m327.47 802.306c2-8.9 6.6-16.6 13.6-22.5 1.5-1.2-.7-3.4-2.1-2.1-7.4 6.2-12.3 14.4-14.4 23.8-.4 1.8 2.5 2.7 2.9.8z" fill="#303032"/><path d="m21.3703 576.606c-2.5 12-4.6 25.6-5.8 40.8-1.3 16.3-1.2 31.2-.4 44.1 26.7 19.9 58.2 40.4 94.8997 59.1 97.4 49.7 189.3 66 254.2 71.1v17.9c-3.7-.3-9.2-.8-15.8-1.7-25.9-3.3-43.4-8.2-58.2-12.1-42.1-10.8-38.1-6-69.9-15-11.5-3.3-32.8-9.8-58.2-20.8-17.4-7.5-15.8-8.1-61.2-30.8-6.0997-3.1-21.5997-10.7-52.3997-25.8-10.3-5-34.1-16.7-44.09997-21.6-.9-4.1-2.2-10.7-2.9-18.7-.6-6.8-2.399999-34.1 10.39997-66.6 1.8-4.8 4.8-11.8 9.4-19.9z" fill="#535356" opacity=".16"/><path d="m9.67032 609.106c1.39998 21.9 2.79998 43.8 4.19998 65.7 27.6 16.4 55.2 32.7 82.8 49.1-17-7-34.5-14.6-52.4-22.9-13.6-6.3-26.8-12.7-39.49998-19.1-2.5-9.1-5.200002-23.6-3.3-41.2 1.4-13.3 5-24.1 8.2-31.6z" fill="#535356" opacity=".14"/><path d="m374.37 487.706c18.1-4.8 36.7-9.3 55.7-13.6 56.2-12.7 110-21.7 160.6-27.9 2.1 4.3 5 10.5 7.7 18.4 4 11.5 5.7 20.6 6.5 24.9 11.3 61.7 13.6 84.8 13.6 84.8 7.5 75.4 12.6 153 13.6 168.3-2.4 3.8-6 9-11.3 14.2-4.5 4.5-8.7 7.6-12.4 10.1-13.5 9-27.9 14.7-35.6 17.8-13.4 5.3-18.1 6.9-46.2 17.2-19.8 7.3-24.8 9.2-34.4 11.9-13.8 3.9-24.7 5.8-29 6.5-23.4 3.9-44.7 4.2-49.2 3.6-29.2-4.2-45.3-145.5-39.6-336.2z" fill="#fff"/><path d="m323.27 525.706c1.7 5.4 4.1 13.2 6.6 22.8 4.6 17.2 9.1 37.8 14.4 75.7 2.2 15.8 1.5 12.8 7.2 60.7 6.3 52.9 7.9 63.1 7.8 82.3-.1 21.9-2.4 39.6-4.2 50.5 20 2.4 40.1 4.8 60.1 7.2-1.9-33.3-3.9-60.2-5.4-78.1-6.7-82.2-10.7-90.4-13.8-142.4-.7-12.3-2.1-24-4.8-47.5-2.1-17.8-3.7-29.3-8.4-43.3-3.6-10.7-7.8-19-10.8-24.6-16.3 12.2-32.5 24.5-48.7 36.7z" fill="#303032"/><path d="m371.97 488.706c8.4 19.4 11.9 40.3 14.7 61.2 3.1 22.3 5.8 44.7 8.4 67.1 5.1 44 9.5 88 13 132.2 2 25 3.8 50.1 5.3 75.1.1 1.9 3.1 1.9 3 0-5.5-90.4-14.2-180.5-26.2-270.3-3.1-22.8-6.5-45.6-15.7-66.8-.6-1.8-3.2-.3-2.5 1.5z" fill="#303032"/><path d="m373.17 489.906c72.3-17.9 145.4-32.2 219.1-42.7 1.9-.3 1.1-3.2-.8-2.9-73.7 10.5-146.8 24.8-219.1 42.7-1.8.5-1.1 3.3.8 2.9z" fill="#303032"/><path d="m590.07 447.806c8.4 16.7 11.5 35.3 14.8 53.5 3.4 19 6.5 38 9.2 57.1 5.6 39 9.8 78.2 12.5 117.5 1.5 22.2 2.6 44.4 3.2 66.6.1 1.9 3.1 1.9 3 0-2.3-79.2-10.3-158.2-24.1-236.2-3.6-20.4-6.8-41.3-16.1-60.1-.8-1.6-3.4-.1-2.5 1.6z" fill="#303032"/><path d="m414.87 826.206c33.6 0 66.5-7.7 98.2-18.2 16.3-5.4 32.3-11.5 48.2-17.8 12.7-5 25.5-10.2 37.4-17 13.2-7.5 25.1-16.9 34.2-29.2 1.1-1.6-1.5-3.1-2.6-1.5-16.7 22.8-43.5 34.5-69.1 44.6-29.5 11.6-59.4 22.8-90.4 29.7-18.4 4.1-37.1 6.4-55.9 6.4-1.9 0-1.9 3 0 3z" fill="#303032"/><path d="m370.57 487.006c-8.7 6.6-17.4 13.2-26.1 19.8-7.4 5.6-16.3 10.8-22.6 17.7-1.3 1.4.8 3.6 2.1 2.1 3.3-3.7 7.7-6.5 11.7-9.4 4-3 7.9-6 11.9-9 8.2-6.2 16.3-12.4 24.5-18.6 1.5-1.1.1-3.8-1.5-2.6z" fill="#303032"/><path d="m322.57 526.706c10 36.1 16.4 73.1 21.3 110.2 4.9 36.8 9.5 73.9 12.1 111 1.5 22 1.7 44.1-1.3 65.9-.3 1.9 2.6 2.7 2.9.8 5.2-37.8 1-75.8-3.1-113.5-4.1-37.5-8.3-75.1-14.9-112.2-3.8-21.2-8.3-42.2-14.1-62.9-.6-2-3.5-1.2-2.9.7z" fill="#303032"/><path d="m354.37 817.506c10.3 2.9 20.9 3.6 31.5 4.9 5.8.7 11.4 1.8 17.1 3.3 4.4 1.2 8.5 2 12.9 1 1.9-.4 1.1-3.3-.8-2.9-5.4 1.2-10.4-.8-15.5-2.1-4.5-1.1-9.1-1.8-13.7-2.3-10.3-1.3-20.7-1.9-30.7-4.8-1.9-.5-2.7 2.4-.8 2.9z" fill="#303032"/><path d="m411.87 541.706c14.3 69.7 22.9 140.5 26 211.6.1 1.9 3.1 1.9 3 0-3-71.4-11.8-142.4-26.1-212.4-.4-1.9-3.3-1.1-2.9.8z" fill="#303032"/><path d="m415.27 542.106c50.7-19.4 104.6-29.7 158.9-30.2 1.9 0 1.9-3 0-3-54.6.5-108.8 10.8-159.7 30.3-1.8.7-1 3.6.8 2.9z" fill="#303032"/><path d="m574.27 511.406c13.9 59.8 24.3 120.3 31.1 181.3.2 1.9 3.2 1.9 3 0-6.8-61.2-17.2-122-31.2-182.1-.4-1.9-3.3-1.1-2.9.8z" fill="#303032"/><path d="m438.57 755.606c32-5.3 64.1-11.9 95.2-21.1 26.9-8 53.2-19 74.6-37.6 1.5-1.3-.7-3.4-2.1-2.1-21.8 19-49 29.9-76.5 37.8-30.2 8.7-61.1 15.1-92 20.2-1.9.3-1.1 3.2.8 2.8z" fill="#303032"/><path d="m438.27 710.406c9.8-7.8 23.4-5.9 32.4 2.1s12.5 19.9 13 31.6c.1 1.9 3.1 1.9 3 0-.6-13.7-5.1-27.5-16.6-35.9-10.2-7.5-24-7.9-34 0-1.5 1.3.7 3.4 2.2 2.2z" fill="#303032"/><path d="m436.57 691.606c14-9.5 32.2-6.4 44.5 4.4 13.1 11.4 18.6 28.4 20.3 45.2.2 1.9 3.2 1.9 3 0-1.9-18.4-8.1-37.1-23.1-48.9-13.2-10.4-31.9-13-46.2-3.3-1.6 1-.1 3.6 1.5 2.6z" fill="#303032"/><path d="m435.97 672.406c19.1-7.3 41.3-7.5 56.6 7.7 14.6 14.5 25.4 35 25.4 55.9 0 1.9 3 1.9 3 0 0-22-11.5-44.3-27.5-59.2-16-15-38.9-14.7-58.4-7.3-1.7.7-.9 3.6.9 2.9z" fill="#303032"/><path d="m460.87 704.406c-5.8 4.8-11 10.2-15.4 16.2-2.3 3.2-4.5 6.5-6.4 10-.9 1.7-1.6 2.7-.7 4.5.8 1.7 3.4.2 2.6-1.5-.4-.9 3.7-6.5 4.2-7.3 1.8-2.7 3.7-5.4 5.8-7.9 3.6-4.4 7.7-8.3 12.1-11.9 1.4-1.2-.7-3.4-2.2-2.1z" fill="#303032"/><path d="m477.47 720.506c-5 3.7-9 8.3-12.4 13.4-3.3 4.8-6.9 9.9-6.9 15.9 0 1.9 3 1.9 3 0 0-5.3 3.6-10.1 6.5-14.4 3.2-4.7 6.8-9 11.4-12.4 1.5-1.1 0-3.7-1.6-2.5z" fill="#303032"/><path d="m501.27 688.206c8.8 1.7 17.6 3.7 26.5 5.2 8 1.3 14.2-.8 22-1.8 15.3-2 30.8 4.6 40.4 16.6 1.2 1.5 3.3-.6 2.1-2.1-8.8-10.9-22.1-17.5-36.1-17.8-8.1-.2-15.7 3.4-23.7 2.8-10.1-.8-20.4-3.7-30.4-5.7-1.9-.4-2.7 2.5-.8 2.8z" fill="#303032"/><path d="m517.87 713.006c8-6.9 18.7-8.4 28.9-8.8 5.4-.2 10.9-.2 15.8 2.5 4.4 2.5 7.9 6.4 11.2 10.2 1.3 1.4 3.4-.7 2.1-2.1-3.8-4.3-7.9-8.8-13.1-11.4-5-2.4-10.5-2.5-15.9-2.2-11.1.5-22.3 2.2-31 9.7-1.6 1.3.6 3.4 2 2.1z" fill="#303032"/><path d="m475.97 578.206c7.6 4.4 11.4 13.2 14.9 20.9 3.9 8.7 7.1 18 8 27.6 1.6 15.8-3.7 32.9-17.7 41.7-1.6 1-.1 3.6 1.5 2.6 14.9-9.3 20.8-27.4 19.2-44.3-1-10.1-4.3-19.9-8.4-29.1-3.7-8.3-7.8-17.3-15.9-22-1.8-1-3.3 1.6-1.6 2.6z" fill="#303032"/><path d="m477.17 576.206c1.6-7.3 8-15.3 15.9-10.1 4.8 3.2 8.2 9 11.1 13.9 5.8 9.8 9.8 20.7 11.4 32 1.7 11.7.9 23.8-2.2 35.2-3.1 11.2-8.4 24.4-17.6 31.9-1.5 1.2.6 3.3 2.1 2.1 10.8-8.8 16.8-25 19.6-38.3 2.9-13.7 2.6-28-1.1-41.6-3.4-12.5-9.6-26.5-19.2-35.6s-20.5-1.7-23 9.7c-.3 1.9 2.6 2.7 3 .8z" fill="#303032"/><path d="m482.17 582.706c-1.1 4.4-8.3.9-10.1-.2-2.8-1.8-3.9-4.6-4.4-7.8-.8-5 .2-10.5 3.6-14.4 6.6-7.7 19.8-6.4 21.9 4.5.4 1.9 3.3 1.1 2.9-.8-3.1-16.5-25-13.9-30.3-.2-2.4 6.2-2.2 15.8 3.4 20.4 4.1 3.3 14.1 6.8 15.9-.6.4-1.9-2.5-2.7-2.9-.9z" fill="#303032"/><path d="m525.67 564.106c-8.7-2.7-13.5-19.7-2.4-22.9 3.6-1 6.9-.9 9.3 2.5 1.1 1.6 1.7 3.9 2.1 5.8.9 4.4-.5 19.8-8.7 13.8-1.6-1.1-3.1 1.5-1.5 2.6 6.8 5 12.6-2.7 13.4-9 .9-6.7-1-18.6-9.6-19.2-17.9-1.4-18.5 24.7-3.4 29.3 1.9.6 2.7-2.3.8-2.9z" fill="#303032"/><path d="m526.57 554.306c-.7-.5-1.5-1.3-1.5-2.2 0-.8.7-1.5 1.5-.9.6.5 1.1 1.6.9 2.4-.1.4-.2.5-.5.6-.2 0-.3-.2-.2 0-.1-1.9-3.1-1.9-3 0 .1 2.5 3 3.7 5.1 2.5 2.5-1.5 1.9-5.2.4-7.1-1.7-2.2-5-2.2-6.4.3-1.5 2.6.1 5.4 2.3 7 1.5 1.1 3-1.5 1.4-2.6z" fill="#303032"/><path d="m525.37 553.006c.6.1 1.2.3 1.8.4.8.2 1.7-.2 1.8-1 .2-.8-.2-1.6-1-1.8-.6-.1-1.2-.3-1.8-.4-.8-.2-1.7.2-1.8 1-.2.7.2 1.6 1 1.8z" fill="#303032"/><path d="m423.37 537.406c-1.5 5.8-.4 20.4 9.1 17.5 1.8-.6 1.1-3.5-.8-2.9-6.7 2-6.3-10.3-5.4-13.8.5-1.9-2.4-2.7-2.9-.8z" fill="#303032"/><path d="m429.17 553.706c-.3 2.2 1.3 4.2 3.3 4.9 2.3.8 4.6-.2 6.3-1.9s3.1-4.3 2.8-6.7c-.3-2.3-2.2-4.2-4.6-4-1.9.2-1.9 3.2 0 3 3.3-.3.8 4.5-.3 5.6-1.3 1.3-4.9 2-4.5-.9.3-1.9-2.7-1.8-3 0z" fill="#303032"/><path d="m432.87 533.806c-2 5.9-2.8 15.5 5.4 16.8 1.9.3 2.7-2.6.8-2.9-6.4-1-4.8-8.8-3.3-13.1.6-1.9-2.3-2.7-2.9-.8z" fill="#303032"/><path d="m441.57 530.606c-1.8 6.4.2 17.8 9.1 16.7 1.9-.2 1.9-3.2 0-3-6.8.8-7.5-8.3-6.2-13 .5-1.8-2.4-2.5-2.9-.7z" fill="#303032"/><path d="m449.37 528.806c-.6 5.7.1 13.2 7.2 13.9 1.9.2 1.9-2.8 0-3-5.1-.6-4.6-7.3-4.2-10.9.2-1.9-2.8-1.9-3 0z" fill="#303032"/><path d="m455.47 541.306c3.1 0 2 4.8.7 6.2-1.8 2-5.7 1.5-5.5-1.7.1-1.9-2.9-1.9-3 0-.3 5.8 7.1 7.6 10.6 3.8 3.1-3.3 3.1-11.4-2.9-11.3-1.8 0-1.8 3 .1 3z" fill="#303032"/><path d="m461.77 526.606c-.8 3.2-.5 6.5 1.2 9.4 1.5 2.5 4.2 4.9 7.3 3.8 1.8-.7 1-3.6-.8-2.9-2.3.8-4-2.1-4.6-3.9s-.7-3.7-.2-5.6-2.4-2.7-2.9-.8z" fill="#303032"/><path d="m469.07 525.906c-1.4 4.5 1.2 9.3 5.6 10.9 1.8.7 2.6-2.2.8-2.9-2.9-1.1-4.4-4.4-3.5-7.2.5-1.9-2.4-2.7-2.9-.8z" fill="#303032"/><path d="m475.17 535.506c3.5.2 3.9 4.6 1.2 6.4-2.3 1.5-6.7.3-6.7-2.8 0-1.9-3-1.9-3 0 0 5.8 7.9 8.4 12.1 4.8 4.4-3.8 2.3-10.9-3.6-11.3-2-.2-1.9 2.8 0 2.9z" fill="#303032"/><path d="m438.57 610.006c.6 4.7 1.2 9.4 1.8 14.1.2 1.9 3.2 1.9 3 0-.6-4.7-1.2-9.4-1.8-14.1-.3-1.9-3.3-2-3 0z" fill="#303032"/><path d="m440.07 610.906c4.7.5 9.2-.6 13.7-1.6 2.5-.6 5-1.2 7.5-1.9 1.8-.5 6.6-2.8 8.3-1.7 1.6 1.1 3.1-1.5 1.5-2.6-3.3-2.1-8.2.8-11.5 1.6-6.2 1.6-13 3.8-19.5 3.1-1.9-.1-1.9 2.9 0 3.1z" fill="#303032"/><path d="m468.77 605.306c.7 3.7 1.5 7.4 2.2 11.1.4 1.9 3.3 1.1 2.9-.8-.7-3.7-1.5-7.4-2.2-11.1-.4-1.9-3.2-1.1-2.9.8z" fill="#303032"/><path d="m442.67 625.706c9.9-2 19.6-4.5 29.2-7.5 1.8-.6 1.1-3.5-.8-2.9-9.6 3-19.3 5.5-29.2 7.5-1.8.4-1 3.3.8 2.9z" fill="#303032"/><path d="m444.67 634.906c.1 3.8.5 7.5 1.1 11.2.3 1.9 3.2 1.1 2.9-.8-.6-3.5-.9-6.9-1-10.4 0-2-3-2-3 0z" fill="#303032"/><path d="m446.67 635.806c3.3-2.4 9.8-1.6 13.7-2.5 4.8-1 9.5-2.4 14.2-3.6 1.9-.5 1.1-3.4-.8-2.9-5.3 1.4-10.6 3-16 3.9-4.1.7-9.2-.1-12.7 2.4-1.5 1.2 0 3.8 1.6 2.7z" fill="#303032"/><path d="m448.47 648.206c10.1-2.2 20.2-4.5 30.3-6.7 1.9-.4 1.1-3.3-.8-2.9-10.1 2.3-20.2 4.5-30.3 6.7-1.9.5-1.1 3.4.8 2.9z" fill="#303032"/><path d="m474.07 628.406c1.1 3.7 2.3 7.5 3.4 11.2.6 1.8 3.5 1.1 2.9-.8-1.1-3.7-2.3-7.5-3.4-11.2-.6-1.9-3.5-1.1-2.9.8z" fill="#303032"/><path d="m555.07 674.006c13-4.8 26.2-8.8 39.6-12.1 1.9-.5 1.1-3.4-.8-2.9-13.4 3.3-26.7 7.3-39.6 12.1-1.8.7-1 3.6.8 2.9z" fill="#303032"/><path d="m579.17 674.006c4.1-1.4 8.3-2.6 12.6-3.5 1.9-.4 1.1-3.3-.8-2.9-4.3.9-8.5 2-12.6 3.5-1.8.6-1 3.5.8 2.9z" fill="#303032"/><path d="m477.47 575.306c.6 1.6 1.9 1.7 4.5 4 2 1.8 3 3.4 4.9 6.1 2.7 3.8 4 7.2 6.1 12.6 3.5 9.3 5.3 13.9 5.9 16.1 1.6 5.7 7.6 31.1-6.5 47.4-3.3 3.8-7 6.3-10 7.9 4.5 3.1 8.9 6.3 13.4 9.4 1.8-1.4 4.4-3.5 6.8-6.6 2.2-2.7 3.6-5.2 4.8-7.7 3.1-6.2 6.6-13.3 8.7-23 3.4-16 .7-29-.9-36.6 0 0-3.2-14.8-13.9-31.6-2.4-3.7-5.5-8.1-10.6-9-4.9-.8-8.9 2.2-9.2 2.4-2.2 2.1-5 5.8-4 8.6z" fill="#f46470"/><path d="m461.97 707.306c-3.3 2.8-6 5.4-8.1 7.6-1.9 2-4.3 4.5-7 8.2-2.2 3-4.1 6-5.4 8.2-.7 1.2-1.3 2.1-1.7 2.8.3 6 .7 12.1 1 18.1 5.8-.9 11.5-1.9 17.3-2.8-.1-1.2 0-2.8.6-4.5.3-1 .7-1.8 2.7-5.2.9-1.4 1.8-3.1 2.5-4 2-3.1 6.7-8.6 13.5-14.9-.7-1.5-1.7-3.1-3-4.7-4.2-5.2-9.3-7.7-12.4-8.8z" fill="#f46470"/><path d="m434.67 672.206c7.7-2.9 14.4-4.1 19-4.6 4.8-.6 8.8-1 14.3-.2 8.2 1.2 14.1 4.6 16.7 6.1 1.5.9 4.9 3 8.9 6.6 8.7 7.9 13.1 16.5 16.7 24 2.2 4.5 4.4 9 6 15.6s2 12.3 2 16.4c-4.9 1.3-9.7 2.7-14.6 4-.6-6-1.7-11.2-2.8-15.3-1.3-4.9-2.8-10.2-6.3-16.4-1.4-2.4-4.1-7.3-9-12-2.6-2.6-13-12.7-29-13-9.1-.2-16.3 2.9-20.4 5.1-.4-5.4-1-10.8-1.5-16.3z" fill="#5c1ee8"/><path d="m444.17 532.006c-.1.6-.2 1.4-.3 2.4-.1 1.8-.2 3.4.3 5.2.3 1.1 1.1 3.5 3.1 4.3 1.8.7 3 .6 3 .6.5 0 1-.2 1.3.1.4.3.4 1.1.2 1.5-.3.8-1 1.1-1.1 1.2.2.3.6.7 1.2 1.1 1 .5 2.3.5 3.3 0 1-.6 1.4-1.5 1.8-2.5.5-1.4.5-2.7.5-3.4-.4 0-1 0-1.7-.1 0 0-.5-.1-1.2-.3 0 0-1.4-.5-2.5-1.4-2.1-1.7-2.5-4.8-2.7-6.7-.2-1.4-.2-2.5-.1-3.4-1.7.4-3.4.9-5.1 1.4z" fill="#5c1ee8"/><path d="m440.27 473.606c-5 20.7-9.9 41.4-14.9 62.1 15-5.1 31.9-9.8 50.5-13.5 9.2-1.8 18-3.2 26.5-4.3-9.8 14-20.3 33.7-24.5 58.7-14.1 83.5 55.7 147.9 63 154.5 13.8-5.5 27.6-10.9 41.4-16.4 1.3 21.3 2.6 42.7 3.9 64-21.4 9.2-39.9 16.2-53.9 21.2-31.1 11.1-51.9 18.3-80.4 22.1-8.4 1.1-20.8 2.4-36.1 2.4-4.1-79.4-12.3-163.9-26-252.7-4.4-28.6-9.3-56.5-14.4-83.7 21.6-4.8 43.2-9.6 64.9-14.4z" fill="#535356" opacity=".12"/><path d="m557.67 451.206c-6.9 9.2-16 23.1-23.4 41.2-22.9 55.9-11.8 107.3-7.1 127.7 17.9 77.6 71.5 123 90 137.3-8.2 5.7-20.2 13.5-35.6 21.4-4.1 2.1-16.2 8.2-48.3 20.3-23.9 9.1-35.9 13.6-45.8 16.3-16.4 4.5-40.6 9.1-71.7 8.1-3-72.3-10.1-150.7-23.4-234-5.6-35-11.9-68.8-18.8-101.2 30.9-8.7 64.6-16.9 100.7-23.9 29.1-5.6 57-9.9 83.4-13.2z" fill="#535356" opacity=".12"/><path d="m346.97 524.806c-3.6.7-5.4 4.5-8.7 11.1-4.1 8.3-9.5 16.2-13 25.6-1.1 3-7 17.1-18.8 45.4-5.7 13.6-12.3 27.1-25.6 54.1-11.1 22.6-15.6 30.7-21.3 39.6-10.6 16.7-17.9 24.6-20.3 27.1-5.8 6.1-14.3 14.9-28 22.2-6.5 3.5-15.4 8.2-28 9.2-5.7.5-10.6 0-14-.5 1-2.6 2.3-6.2 3.9-10.6 3-8.5 3.3-10.2 3.4-12.1.1-2 .5-10.7-4.8-13.5-2.4-1.3-5.7-1.1-8.2.5-3.4 2.3-.2 8.1-3.4 10.6-1.6 1.2-3.8 1.2-5.2.8-2.7-.8-3.8-3.4-5.5-6.7-2.9-5.4-6.3-11.5-11.9-14.1-.9-.4-5.5-2.5-8.2-.3-1.5 1.2-1.8 3.3-1.8 4.4-3-2.1-6.5-2.1-8.2-.5-1.8 1.7-1.3 4.8-1.2 5.9.3 1.8 1 3.2 1.5 4-3 0-5.7 1.8-6.5 4.5-1.1 3.4 1.4 6.3 1.5 6.4-.3.1-5 1.6-5.7 5.4-.5 2.8 1.5 5.2 3 6.9 3.2 3.6 6.7 4.7 10.7 6.4 4.3 1.8 8 4.1 15.4 8.6 10.7 6.5 9.8 7.6 14.6 9.1 5.4 1.6 8.1.7 14.3 3.4 3.8 1.7 5.8 3.4 7.4 4.4 4.6 2.9 12.7 4.3 30.2-2 23.9-8.7 40.6-22.8 41.6-23.7 26.1-22.5 39.1-48.6 49.7-70.3 7.5-15.4 4.9-13.3 15.9-37.1 10.8-23.3 16.3-31.9 27.5-54.9 5-10.3 12.4-26 20.6-45.8.8-1.6 2.8-6.4 1.2-11.9-2.1-7.1-8.9-12.7-14.1-11.6z" fill="#fff"/><path d="m351.47 522.906c-7.8-.5-12.7 8.2-16.2 13.9-5 8.2-8.7 17.1-12.4 25.9-8.9 21.4-18.2 42.5-27.9 63.5-9.2 19.9-18.5 39.7-28.8 59-9.4 17.7-20.3 35.1-35.3 48.6-16.6 15.1-38.3 25.1-61.1 23.2-1.9-.2-1.9 2.8 0 3 38.5 3.1 69.4-24.9 88.6-55.4 11.2-17.8 20.2-37 29.2-55.9 9.7-20.2 19-40.5 27.9-61.1 4.8-11.1 9.3-22.4 14.2-33.5 2.3-5.2 4.8-10.4 7.7-15.3 3-4.9 7.4-13.6 14-13.2 2 .5 2-2.5.1-2.7z" fill="#303032"/><path d="m169.77 758.806c-7.6 5-7.3 15.5-.8 21.4 8.6 7.8 21.2 5.4 31.2 2.3 24-7.4 45.4-22.5 62.4-40.9 18.3-19.9 30.1-43.7 40.3-68.5 5.5-13.2 10.6-26.5 16.8-39.4 5.9-12.5 12.7-24.6 19.2-36.8 7.1-13.3 14-26.9 19.3-41.1 3.6-9.8 9.4-26.3-4.1-31.4-1.8-.7-2.6 2.2-.8 2.9 13.6 5.1 2.4 27.2-1.3 35.9-4.5 10.7-9.8 21.1-15.3 31.4-10.7 20.1-21.2 40-29.9 61-8.8 21.4-17.1 43.2-29.8 62.7-12.4 18.9-28.9 35.5-48.1 47.5-10.7 6.7-22.3 12.1-34.5 15.1-7 1.8-15 2.7-21.4-1.5-6.2-4-8.7-13.5-1.7-18.1 1.6-1 .1-3.6-1.5-2.5z" fill="#303032"/><path d="m181.77 759.206c-4.2 9.2-1.4 19.9 6.9 25.7 1.6 1.1 3.1-1.5 1.5-2.6-6.9-4.8-9.3-14-5.8-21.6.8-1.7-1.8-3.2-2.6-1.5z" fill="#303032"/><path d="m201.87 754.406c-.9 8.7 4.2 23.2 15.4 20.8 1.9-.4 1.1-3.3-.8-2.9-9.2 1.9-12.3-11.5-11.6-17.9.2-1.9-2.8-1.9-3 0z" fill="#303032"/><path d="m223.87 741.306c-.6 6.1 1.4 12.1 5.6 16.5 2.4 2.6 8.2 7.3 11.2 2.9 1.1-1.6-1.5-3.1-2.6-1.5-1 1.5-5.2-2.3-5.7-2.8-1.3-1.3-2.5-2.8-3.4-4.4-1.8-3.3-2.4-7-2.1-10.8.2-1.8-2.8-1.8-3 .1z" fill="#303032"/><path d="m246.27 718.606c-1.5 10.7 5.7 19.9 16.5 20.7 1.9.1 1.9-2.9 0-3-8.7-.6-14.9-8.2-13.6-16.9.3-1.9-2.6-2.7-2.9-.8z" fill="#303032"/><path d="m264.57 690.406c3.2 9.7 13 14.7 22.8 11.6 1.8-.6 1-3.5-.8-2.9-8.2 2.6-16.4-1.3-19.1-9.5-.6-1.9-3.5-1.1-2.9.8z" fill="#303032"/><path d="m284.67 651.006c2.2 8.6 11 14 19.6 12.1 1.9-.4 1.1-3.3-.8-2.9-7 1.5-14.2-3-15.9-10-.5-1.9-3.4-1.1-2.9.8z" fill="#303032"/><path d="m313.07 591.106c3.6 7.9 11.7 12.9 20.4 12.6 1.9-.1 1.9-3.1 0-3-7.7.3-14.6-4.1-17.8-11.1-.8-1.8-3.4-.3-2.6 1.5z" fill="#303032"/><path d="m300.87 618.206c2.7 8 10.4 13.3 18.8 12.7 1.9-.1 1.9-3.1 0-3-7.1.5-13.6-3.8-15.9-10.5-.6-1.8-3.5-1-2.9.8z" fill="#303032"/><path d="m325.07 559.306c2.7 5.3 7.6 8.4 13.2 10.1 3.4 1.1 11 4 13.5.3 1.1-1.6-1.5-3.1-2.6-1.5-.9 1.4-10.1-1.6-11.6-2.2-4.2-1.6-7.8-4.2-9.9-8.2-.9-1.7-3.4-.2-2.6 1.5z" fill="#303032"/><path d="m338.07 535.906c3.9 6.9 10.9 11.1 18.8 11.4 1.9.1 1.9-2.9 0-3-6.9-.3-12.9-4-16.2-10-1-1.6-3.6-.1-2.6 1.6z" fill="#303032"/><path d="m171.97 758.906c-1.6-2.6 2.9-8.4 3.9-11s1.6-5.3 1.9-8c.5-5.2-.4-11.1-3.7-15.3-2.7-3.5-7.2-5.5-11.4-3.5-1.4.7-2.6 1.7-3.3 3.1-1.5 3 .5 8.4-2.9 10.2-1.7.9-.2 3.5 1.5 2.6 3.2-1.7 3.1-4.4 3.5-7.7.6-4.9 4.4-7.6 8.6-4.4 2.7 2 3.9 5.8 4.4 9 .9 5.9-.7 11.8-3.5 17.1-1.7 3.2-3.8 5.9-1.7 9.4 1.1 1.6 3.7.1 2.7-1.5z" fill="#303032"/><path d="m165.77 776.106c-7.2-1.5-14.1-4-20.6-7.5-6.3-3.4-11.5-8.9-18-11.7-6.5-2.9-15-2.8-17.4-11.1-2.2-7.6 6.3-5.6 10.2-4.5 4.4 1.3 8.2 3.5 11.7 6.4 1.5 1.2 3.6-.9 2.1-2.1-5.7-4.8-15.3-10.2-23.1-8.2s-3.8 10.9-.3 15c2.7 3.2 6.1 4.5 10 5.5 6.2 1.6 10.3 4.6 15.3 8.2 8.8 6.3 18.7 10.6 29.3 12.8 1.9.5 2.7-2.4.8-2.8z" fill="#303032"/><path d="m115.37 736.406c-2.7-2-2.6-4.2.1-6.4 1.6-.8 3.3-1 5-.6 2 .4 3.9 1.5 5.6 2.6 3.5 2.2 6.8 4.5 10.2 6.8 1.6 1.1 3.1-1.5 1.5-2.6-6-4-14.5-12.3-22.5-9.4-5.3 2-6.8 9.4-1.4 12.1 1.7 1 3.3-1.6 1.5-2.5z" fill="#303032"/><path d="m120.47 725.606c-1.1-1.2-2-2.6-2.5-4.1 1.3-3.2 3.4-4.2 6.1-2.9 2.5.9 4.7 2.7 6.6 4.4 3.3 2.9 6.6 5.8 9.8 8.8 1.4 1.3 3.6-.8 2.1-2.1-5.7-5-13.9-15.5-22.5-14.5-7.6.9-5.2 8.5-1.8 12.6 1.4 1.4 3.5-.8 2.2-2.2z" fill="#303032"/><path d="m129.07 717.606c-2.7-4.4 4.3-3.7 6.3-2.8 1.8.9 3.4 2.3 4.9 3.7 2.9 2.7 5.3 5.9 7.4 9.3 2.5 4 4.6 8.9 10.1 8.5 1.9-.1 1.9-3.1 0-3-5.1.4-9.1-9.7-12.1-13.3-2.8-3.3-6.3-6.9-10.4-8.5-5-1.9-12.4 1.8-8.8 7.7 1 1.6 3.6.1 2.6-1.6z" fill="#303032"/><path d="m355.57 529.506c-2.7-.3-6.2 4-16.2 27.4-5.8 13.6-8.7 20.4-11.2 27.9-6.8 20.8-18 41.9-40.6 84.2-20.3 38-30.4 57-40 66.9-8.9 9.2-40.1 41.1-69.5 34-12.6-3-25.2-13.3-29.4-16.7-11.1-9-25.1-24.4-31.9-22.8-3 .7-4.1 2.5-4.1 2.5-1.1 2-.3 4.4 0 5.1-.5.3-4.4 2.2-5.1 6.1-.8 4.6 3.4 8 4.1 8.6 3.1 2.6 5.6 1.9 10.6 3.5 1.2.4 2.8 1 10.6 6.1 12.6 8.2 13.4 9.8 18.8 12.2 2.8 1.2 7.2 2.8 13.2 3.5 3.1 1.9 7.7 4.3 13.7 5.6 8.2 1.8 20 1.6 40.6-9.6 27.9-15.3 44.6-36 49.7-42.6 9-11.7 16.4-26.9 30.9-56.8 12-24.8 19.3-41.1 29.4-63.4 7.3-16.1 18.4-40 32.4-69.5-1.8-9.5-4.1-12-6-12.2z" fill="#535356" opacity=".15"/><path d="m354.07 557.006c-1.5-.8-13.5 18.2-14.8 20.3-17.9 28.6-26.9 52.2-31.8 64.4-17 42.1-26.1 64.8-45.1 87.6-13 15.7-33.9 40.8-68.4 46.2-23.8 3.7-43.8-3.6-54.4-8.5 7.4 3.9 14.8 7.9 22.2 11.8 1.4-.6 3.5-1.1 5.9-.7 3.6.6 5 2.9 8.5 4.8 2 1.1 5.1 2.2 9.6 2.2 11-2.6 29.4-8.3 48.4-21.1 24.5-16.5 37.7-36.7 85.1-132 34.9-70.1 35.5-74.6 34.8-75z" fill="#535356" opacity=".13"/><path d="m884.57 785.706c12.3-8.1 24.7-16.2 37-24.3 3.6-5.9 7.2-11.9 10.8-17.8 9.1 6.2 22.7 14 40.3 18.7 26.6 7.2 47.9 3.6 49.2 9.4 1.1 5.3-16.1 13.1-18.3 14-9.8 4.4-30.5 11.4-61.3 5.1-16.4 9.4-32.8 18.7-49.2 28.1-4.1-10.1-8.1-20.3-12.2-30.4 1.2-.9 2.5-1.9 3.7-2.8z" fill="#303032"/><path d="m753.27 604.506c-3.2 8.7-7.9 22-13.1 38.4-14.4 46.1-29.9 97-30 159.9 0 15.3.9 37.6 5.4 64.6 10.9 2.7 22.7 4.6 35.4 5.4 77.9 4.8 138.6-37.6 165.2-59.2-5.1-17.2-10.2-34.3-15.4-51.5-28.4 3.1-56.9 6.1-85.3 9.2 36.6-90.6 35.4-162.6 5.4-179.8-5-3-24.3-12-67.6 13z" fill="#f46470"/><path d="m819.77 590.806c-.3 12-1 24.4-2.4 37.3-8 75-34.3 136.5-60.7 182.1 23.4.1 53.5-2 87.5-10.5 24-6 44.4-13.8 61.2-21.5-1.4-5.1-2.9-10.2-4.3-15.3-28.4 2.9-56.7 5.7-85.1 8.6 3-7.4 7-17.8 11-30.6 9.7-30.8 13.6-55.5 15.3-73.1.9-9.1 2.3-27.1-1.9-45.9-1.7-7.5-4.3-15.3-10.5-22.5-3.7-4.2-7.4-6.9-10.1-8.6z" fill="#535356" opacity=".13"/><path d="m839.87 622.806c-2.1 27.9-8.1 65.1-23.9 106.1-9.7 25-20.9 46.1-31.5 63.1 38.1-6.1 76.2-12.1 114.2-18.2-.5-3.3-.999-6.7-1.399-10-27.2 2.4-54.501 4.8-81.701 7.2 9-24.7 15.1-45.4 19.1-60.2 3.4-12.7 5.3-19.7 6.7-29.2 3.6-24.6 1.1-45.3-1.5-58.8z" fill="#535356" opacity=".12"/><path d="m940.37 803.106c12.3-8.1 24.7-16.2 37-24.3 3.6-5.9 7.2-11.9 10.8-17.8 9.1 6.2 22.7 14 40.3 18.7 26.6 7.2 47.9 3.6 49.2 9.4 1.1 5.3-16.1 13.1-18.3 14-9.8 4.4-30.5 11.4-61.3 5.1-16.4 9.4-32.8 18.7-49.2 28.1-4.1-10.1-8.1-20.3-12.2-30.4 1.3-1 2.5-1.9 3.7-2.8z" fill="#303032"/><path d="m791.77 592.206c-8.7 13.5-10.8 30.7-10.8 30.7-1.1 9.2-.2 17 .8 22.3 3.8 5.4 7.7 10.8 11.5 16.1-.3 13.9-.9 32.9-2.3 55.3-2.5 40.7-6.1 67.4-4.6 106.8 1.6 43.1 7.2 50.3 10.8 53.8 17.2 17.1 48.8 10.9 76.9 5.4 19.2-3.8 49.6-12.2 83.8-33.8 1.1-8.7 3-33-12.3-54.6-4.2-5.9-8.8-10.4-13.1-13.8-20.5 9.5-41 19-61.5 28.4 2-31.9 3.4-65.3 3.8-99.9.7-49.5-.5-96.4-3.1-140.6-35.5-5.8-67.4 4.6-79.9 23.9z" fill="#f46470"/><path d="m849.27 568.206c-.3 11.4-.6 22.8-1 34.3-2.7 81.6-7.8 161.2-15 238.6 10.1 2.4 24.4 4.4 41 1.9 41.6-6.1 66.5-35.2 73.4-43.9-1.2-2.6-3.2-6.1-6.3-9.7-3.4-4-7-6.6-9.7-8.2-20.3 9.3-40.6 18.7-60.8 28 2.5-36.1 3.5-67.2 3.9-91.8.5-35.6-.3-63.2-1-84.5-.8-26-1.9-48.2-2.9-65.2-3.7-1-9.1-1.9-15.5-1-2.2.4-4.3.9-6.1 1.5z" fill="#535356" opacity=".16"/><path d="m872.97 613.606c-3.9 11.6-7.5 23.9-10.6 36.7-16.5 66.9-16.6 128.1-11.1 177.7 9.7-1.4 25.5-5 42.5-15 17.3-10.2 28.3-22.6 34.3-30.4-19 8.9-38 17.7-57 26.6 1.8-30.9 3-63.3 3.4-97.1.3-34.2-.3-67.1-1.5-98.5z" fill="#535356" opacity=".12"/><path d="m720.67 416.706c-3.3 0-5.8 2.7-9.1 6.3-7.5 8.2-10 17-11.5 21.7-2.1 6.6-6.8 15.9-16.2 34.4-4 7.9-9.6 18.7-18.6 31.2-7.2 10-19.2 26.4-36.7 36.3-7.9 4.5-15.9 7.1-18.6 7.9-5.5 1.7-8.9 2.8-13.8 2.8-7.3 0-13.3-2.4-14.2-2.8-5.6-2.2-6.8-4.3-11.5-4.7-1.3-.1-7-.6-8.7 2.4-1.5 2.6.8 6.4 2.4 9.1 1.8 3.1 4.1 5.2 5.5 6.3 4 9.9 7.9 19.8 11.9 29.6 2.6-.2 5.7-.8 9.1-2 8.8-3.1 14.3-9 17-12.2 6.9-1.6 16.2-4.3 26.9-8.7 10.1-4.2 36.9-15.7 60.1-41.9 8.8-10 1.5-4.4 31.2-51.4 7.2-11.4 11.5-17.9 12.2-28.1 1.2-17.1-8.7-36.2-17.4-36.2z" fill="#fff"/><path d="m715.47 418.206c-6.2 3.9-9.9 10-12.8 16.6-3.9 8.8-7.2 17.9-11.1 26.8-8 18.1-17.3 35.9-29.6 51.5-10.9 13.9-24.2 26.3-39.8 34.8-9.6 5.2-19.8 8.9-30.8 7-8.7-1.5-17.4-6.1-26.3-6.2-6.3 0-8.2 6.7-5.2 11.5 4 6.4 13.2 7.5 19.8 8.9 1.9.4 2.7-2.5.8-2.9-3.5-.8-7.1-1.4-10.5-2.6-1.8-.6-3.5-1.4-5.1-2.6-.6-.4-1.2-.8-1.6-1.4-2.3-2.5-1.8-3.2.4-5.6 2.5-2.7 2.1-2.5 5.2-1.9 1.1.2 2.3.5 3.4.7 2 .5 3.9 1 5.9 1.6 4.1 1.2 8.3 2.5 12.5 3.3 15.3 2.7 29.7-4.4 42.1-12.8 26.6-18 44.6-45.6 58.1-74.3 4.1-8.7 7.8-17.6 11.4-26.6 3.4-8.6 6.7-18 14.8-23.2 1.5-1.1 0-3.6-1.6-2.6z" fill="#303032"/><path d="m737.57 454.806c-10.1 18.4-20.2 36.8-30.3 55.1-8.5 15.4-17.9 29.1-31.9 40.1-13.3 10.5-28.6 18.3-44.4 24.1-7.5 2.8-15.6 4.3-22.9 7.5-3.8 1.7-6.4 4.4-9.5 7.1-4.5 3.9-9.6 6.3-15.6 7.1-1.9.2-1.9 3.2 0 3 6.1-.8 11.7-2.9 16.4-6.9 3.3-2.7 6-5.9 10-7.7 3.3-1.4 7-2.3 10.4-3.3 12.6-3.9 24.9-8.8 36.5-15.1 11.4-6.2 22.2-13.8 31.4-23 10.4-10.5 17.4-23 24.4-35.8 9.3-16.9 18.6-33.9 27.9-50.8 1.1-1.6-1.4-3.1-2.4-1.4z" fill="#303032"/><path d="m544.27 552.306c-.3.4-1.9 3.2-.9 6.4.9 2.9 3.7 5.1 7 5.5-.4 1.3-1 3.4-1.2 6.1-.3 4.7 1.1 6.3 2.1 13.4.7 4.9.4 6.1 1.5 10 .9 3.2 1.9 5 3.3 6.4 1.6 1.6 3.4 2.4 4.6 2.7-.1 2.4.8 3.7 1.2 4.3 2.2 2.7 7.6 3.1 12.8.1.4 3.3.6 8.4-.9 14.3-.6 2.4-1.9 7.3-5.8 12.5-1.3 1.8-4.4 5.8-9.6 8.7-6.5 3.7-9.9 1.9-18.3 4.7-1.4.5-8.8 2.9-13.4 7.2-10.8 10-6.6 30.1-5.8 33.3 3 1.6 9.7 4.5 17.9 3.4 2.5-.4 4.7-1 6.5-1.8-1.3-1.4-5-5.4-5.4-11.4-.5-7.1 3.9-12.1 5.8-14.3 5-5.8 11.7-8.1 17.9-10.3 7.1-2.5 8.8-1.7 12.1-4.3 2.3-1.8 4.7-4.8 7.2-13.9 1.9-7.2 4.6-17.7 2.5-31.6-1.4-9.1-4.3-15.8-7.2-22.4-3-6.8-6.1-12.2-8.5-16.1-.9 0-2.7-.1-4.5-1.1-3-1.6-4.2-4.3-4.5-5.1-.3-1.1-.8-3.4-.2-6 .4-1.9 1.2-3.4 1.8-4.3-.7-.5-3.7-2.8-8.1-2.5-4.8.4-7.6 3.7-8.1 4.3" fill="#fff"/><path d="m522.67 687.206c-2.5-4-1.3-9.8-.8-14.2.5-4.5 1.5-9.1 3.6-13.2 4.6-8.9 12.4-10.7 21.5-12.1 13.5-2 23.3-10 27.5-23.2 4.8-15.2-.4-31.7-7.4-45.4-3-5.9-7-12-13-15.2-3.3-1.7-10.1-2.4-9.1-7.9.9-5.4 12.8-13.4 16.1-5.6.7 1.8 3.6 1 2.9-.8-4.5-10.8-19.7-3.1-21.9 5.6-1.3 5.1 2.4 7.9 6.6 9.6 8 3.3 12.4 8.8 16.2 16.4 7.6 15.2 12.8 34.2 3.4 49.8-4.3 7.1-10.8 11.7-18.9 13.2-6.8 1.3-14 1.4-19.7 5.7-5.3 4-8.3 10.3-9.7 16.7-1.5 6.5-3.5 16.1.2 22 .9 1.8 3.5.3 2.5-1.4z" fill="#303032"/><path d="m568.87 566.306c7.3 12.2 12.6 25.8 14.6 39.9 1 7.1 1.1 14.5-.1 21.6-1.1 6.7-3.1 14.7-8.4 19.4-5 4.5-12.6 4.5-18.6 6.9-4.5 1.8-8.7 4.6-11.9 8.3-6.5 7.7-7.7 19.1-1.4 27.3 1.2 1.5 3.8 0 2.6-1.5-9.9-12.9.9-28.2 14.3-32.3 5.3-1.6 11.1-2.2 15.7-5.5 4.1-3 6.5-7.5 8.1-12.1 8.7-24.4.5-52.3-12.2-73.6-1.1-1.6-3.7-.1-2.7 1.6z" fill="#303032"/><path d="m549.37 564.306c-3.1 4.4-1.3 10.4 2.1 14.1 3.8 4 9.6 4.7 14 1.3 1.5-1.2-.6-3.3-2.1-2.1-6.7 5.2-16-5.3-11.4-11.7 1.1-1.7-1.5-3.2-2.6-1.6z" fill="#303032"/><path d="m549.17 574.806c-1 3.4-.4 6.5.9 9.7 1 2.5 2.2 5.6 4.5 7.1 4.7 3.2 11.4 1 14.8-3.1 1.2-1.5-.9-3.6-2.1-2.1-2.5 3-8.1 5.5-11.6 2.3-3-2.8-4.7-9.3-3.6-13.1.5-1.9-2.4-2.7-2.9-.8z" fill="#303032"/><path d="m551.07 587.906c0 5.2.4 11.5 5.5 14.3 5.4 3.1 11.3-.4 15.7-3.7 1.5-1.1 0-3.7-1.5-2.6-3.4 2.5-8.3 6.1-12.7 3.7-4-2.2-4-7.8-4-11.7 0-2-3-2-3 0z" fill="#303032"/><path d="m558.77 602.706c.4 7.9 10.6 8.2 15.9 5.1 1.7-1 .2-3.6-1.5-2.6-3.1 1.8-11.1 3-11.4-2.5-.1-1.9-3.1-1.9-3 0z" fill="#303032"/><path d="m726.07 436.906c-2.7 9.5-7.1 22.4-14 37-7.2 15-19.1 39.5-43.8 62.4-15.2 14.2-36.8 34.3-68.8 37-10.6.9-19.5-.4-25.5-1.7 2.5 5.4 4.7 11.9 2.1 14.4-4.6 4.5-20.3-7-24.2-2.5-2.6 2.9 1.8 10.7 3.4 13.6 2.4 4.3 5.3 9.4 10.2 10.2 3.3.5 6.5-1.5 12.7-5.5 3.5-2.2 6.2-4.4 8.1-5.9 2.5-.5 5.6-1.4 8.9-3 5.7-2.7 9.6-6.4 11.9-8.9 6.5-1.7 15.5-4.4 25.9-8.5 12.6-5 28.2-11.1 42.9-22.9 4.3-3.4 12.6-10.7 26.3-30.6 10.4-15 23.9-37.4 35.7-67.5-3.9-6-7.8-11.8-11.8-17.6z" fill="#535356" opacity=".1"/><path d="m728.57 470.406c-5 6.9-12.9 17.7-22.5 31-16.5 22.7-21.9 30.4-23.4 32.3-11.3 15.2-37.4 34.9-104.1 52.7 1.8 3.5 3.7 7.1 5.5 10.6 3-.5 6.9-1.4 11-3.4 7.3-3.5 12-8.4 14.4-11.5 9.3-1.8 22.1-5.1 36.1-11.9 17.9-8.7 29.4-18.9 34.8-23.8 29.4-26.3 42.8-59.6 48.2-76z" fill="#535356" opacity=".11"/><path d="m570.17 564.306c6.4 12.4 12.9 30.4 11.5 51.4-.7 10.4-1.3 18.4-7.2 24.6-9.2 9.7-19.9 3.4-33.6 14.4-3.1 2.5-12 9.7-12.3 20.8-.2 7.7 3.9 13.6 5.9 16.1 3.5-.1 7.1-.3 10.6-.4-1-1.3-6.5-8.5-4.7-17.4 1.1-5.6 4.5-9.2 5.9-10.6 4-4.1 6.9-4.1 17.4-8.9 8.2-3.8 12.3-5.7 14.9-8.5 4.6-5.1 5.7-11.2 6.8-17.8 1.2-7.3 1-13.6.4-18.7-2.1-19.4-11.2-37.1-15.6-45z" fill="#535356" opacity=".15"/><path d="m731.77 381.906c-4.3 3.2-11.6 9.6-15.8 20.1-2.9 7.3-3 13.4-3.2 20.9-.2 11.7 1.8 20.3 5.1 34.4 2.8 11.6 4.1 17.4 6.7 22.9 2.5 5.4 3.5 5.8 15 25.3 3.9 6.6 5.6 9.6 6.7 14.2 1.2 4.8.6 6.4 1.6 15.4.8 7.5 1.5 8.8 2.4 15.4 1.2 9 1.2 16 1.2 20.9 0 15.7-2.4 29.7-4.7 39.9 3.5 1 8.6 2.4 15 3.6 32.2 5.9 58.6.1 74.3-3.6 10.3-2.4 24.3-6.4 40.3-13.4.7-4.3 1.3-10.8.8-18.6-.4-5.3-1.7-11.1-4.3-22.5-3-13-4.2-16.1-5.9-25.7-.9-4.8-1.4-8.3-2-12.2-2.4-16.6-3.6-24.9-5.5-39.1-3.3-24.2-4.9-36.4-7.5-45.8-5-18.5-9.2-33.7-22.5-47.4-4.1-4.2-17.4-17.6-39.1-21.3-31.2-5.3-54.8 13.4-58.6 16.6z" fill="#fff"/><path d="m710.57 417.106c2.7 20.9 5.3 42.2 13.1 61.9 7.7 19.5 21.5 35.7 28.9 55.3.7 1.8 3.6 1 2.9-.8-7.1-18.8-20.2-34.5-28-53-8.4-20.1-11.2-42-13.9-63.4-.2-1.9-3.2-1.9-3 0z" fill="#303032"/><path d="m742.17 512.306c4.6 17.2 7.2 34.8 7.5 52.7.1 8.5-.2 17-1.1 25.4-.5 4.9-1.1 9.7-2 14.5-.2 1.2-.8 2.9-.7 4.1 0 1 1.4 1.8.8 2.9-.4.8-.1 2 .9 2.2 43.4 9.1 89 3.9 129.2-14.9 1.7-.8.2-3.4-1.5-2.6-39.5 18.4-84.3 23.5-126.9 14.6.3.7.6 1.5.9 2.2 1.1-2.1.2-2.8-.1-4.8-.6-3.8 1.2-8.8 1.7-12.7 1.2-9.3 1.8-18.8 1.7-28.2-.1-19-2.7-37.9-7.6-56.3-.4-1.8-3.3-1-2.8.9z" fill="#303032"/><path d="m817.17 378.306c14.8 10.1 23 26.6 28.5 43.2 5.9 18.2 9.5 37.1 12.4 55.9 3 19.3 5.4 38.6 8.7 57.8 1.7 9.9 3.9 19.7 6.2 29.4 2.5 10.6 4.8 21.3 2.5 32.1-.4 1.9 2.5 2.7 2.9.8 3.3-15.5-2-30.6-5.2-45.5-3.6-16.3-6-32.8-8.3-49.3-4.5-31.4-8.1-64.3-20.6-93.8-5.6-13.2-13.5-25.2-25.5-33.3-1.7-1-3.2 1.6-1.6 2.7z" fill="#303032"/><path d="m714.17 422.106c-2-12.4 5.9-25.1 13.8-33.9 7.3-8.2 16.5-14.6 26.8-18.5 21.8-8.3 46.9-3.9 65.3 10.1 1.5 1.2 3-1.4 1.5-2.6-20-15.3-47.5-19.2-70.7-9.1-11.1 4.8-20.9 12.4-28.3 22-7.1 9.2-13.2 20.9-11.2 32.8.2 1.9 3.1 1.1 2.8-.8z" fill="#303032"/><path d="m775.97 362.506c3 7.5 7.4 18.4 12.5 31.6 18.7 48.4 31.4 77.4 34.9 98.7 3.5 21 7.4 65.5-15.3 123.2 10.1-1.3 21.5-3.3 33.8-6.5 13.3-3.5 25-7.8 34.9-12 .5-5.7.7-12.5 0-20.2-.9-10.3-3.2-19-5.5-25.6-3.7-19.7-6.6-37.2-8.7-51.8-5.4-36.4-5.7-48.6-12.5-69.8-1.5-4.6-8.7-25-23.4-45.3-1.6-2.2-2.5-3.4-3.8-4.9-13.5-15.1-33.8-17.4-46.9-17.4z" fill="#535356" opacity=".14"/><path d="m838.07 404.506c-1.3 8.8-3 23.2-2.7 40.9.7 47.7 14.9 66.7 13.1 100.9-.8 15.2-5 37.9-22.4 65.4 7-.8 15.1-2.3 24-4.9 10.4-3 19.1-6.8 26.2-10.4-.1-5.8-.5-14.5-1.6-25.1-2.4-22.5-6.3-33.2-10.4-52.3-7.6-35.4-3-38.5-9.8-67.1-5-21-11.8-37.4-16.4-47.4z" fill="#535356" opacity=".16"/><path d="m826.17 404.406c-6.6-1-12.2 3.7-15.4 6.3-8.2 6.8-11.1 15.7-11.9 17.8 0 0-3.2 9.4-29.2 75.9-10.4 26.4-21.6 42.7-36.3 64-3.5 5.1-19.2 27.4-38.7 36.3-6.7 3.1-11.3 5.2-18.2 5.9-7.9.8-11.6-.9-18.6 1.6-1.5.5-11.3 4-11.1 9.1.2 3.1 4.2 6.1 9.5 7.5-5.3-1.2-20.5-4.3-31.6-.4-2.1.7-7.7 2.7-8.3 6.3-.3 2.2 1.4 3.9.4 5.5-1.2 2-4.3 1-5.5 2.8-.7 1-.7 2.9 1.6 6.7-.2.1-2.3 1.4-2.4 4-.1 1.8.8 3.4 2.4 4.3-2.6.1-4.8 1.1-5.5 2.8-1.1 2.6 2 5.8 4 7.1 3.8 2.6 8.3 1.9 12.2 1.2 12.9-2.3 22.5-5.6 31.6-8.7 9.5-3.3 12.1-4.3 15.4-6.7 4.8-3.6 6.1-6.4 10.3-10.7 6.3-6.5 12.5-9.2 18.6-12.2 3.8-1.9 35.3-17.8 56.5-36.7 8.7-7.8 13.6-14.2 22.1-25.3 17.3-22.6 26.2-41.7 37.9-66.8 18.9-40.5 8.1-29.7 21.3-58.1 1.7-3.7 5.8-12.3 3.6-22.1-1.6-6.5-6.4-16.1-14.7-17.4z" fill="#fff"/><path d="m826.27 403.706c-22.5 1.4-30.1 25.7-36.2 43.5-7.6 21.9-15.5 43.7-25.3 64.8-10 21.5-21.8 42.2-36.8 60.7-14.3 17.6-31.6 34.2-55.1 36.9-7.2.8-25.3.1-27.6 9.5-2.5 10 10.9 11.8 17.5 11.7 1.9 0 1.9-3 0-3-2.7.1-5.5.2-8.1-.5-2.4-.6-7.4-3.2-6.6-6.7 1.4-6.2 13-6.8 17.9-7.3 9.2-1 17.8-2 26.3-5.9 17-7.8 30-22.3 41.2-36.9 24.6-31.9 40.5-69.5 54-107.2 3.8-10.7 7-21.7 11.5-32.2 4.9-11.6 13.5-23.6 27.2-24.4 2.1-.1 2.1-3.1.1-3z" fill="#303032"/><path d="m839.47 422.906c-2 26.3-12.7 50.8-23.6 74.5-9.1 19.9-18.5 39.6-30.3 58.1-11.9 18.7-26.4 36.1-44.5 49.1-17.8 12.8-38.8 20.3-56.4 33.5-4.6 3.5-8.7 7.4-12.7 11.6-5.5 5.7-11.6 7.7-19.1 9.8-7 2-14 4-21 6-3.6 1-7.2 2.3-10.9 2.9-2 .3-4.2.5-6.1-.1-1.6-.4-3-1.2-4.1-2.3-2.4-4.3-1.2-6.6 3.5-6.9 1.9.5 2.7-2.4.8-2.9-3.5-.8-6.9.8-8.3 4.3-1.5 3.8 1 7.6 4.3 9.5 4.4 2.5 9.6 1.6 14.3.4 8-2 15.8-4.5 23.8-6.8 6-1.7 12.7-3 18.2-6.2 5.4-3.2 9.1-8.5 13.7-12.6 9.9-8.7 21.6-14.9 33.2-21 11.5-6.1 22.8-12.2 33.1-20.2 9.9-7.7 18.7-16.7 26.5-26.5 15.6-19.4 27.4-41.5 38-63.9 13.6-28.6 28.1-58.3 30.6-90.3.1-2-2.9-1.9-3 0z" fill="#303032"/><path d="m654.87 627.506c-10.5 0-21.1-.7-31.5-.1-4.7.3-11.1 3.4-8.6 9.2 2.6 5.9 11.3 6.3 16.7 6.9 8.9 1 17.7 1.5 25.9-2.3 1.7-.8.2-3.4-1.5-2.6-6.1 2.9-12.7 3-19.3 2.4-2.7-.2-5.4-.5-8.2-.9-2.4-.3-7.3-.7-9.1-2.6-1.4-.5-1.6-1.7-.6-3.3-.6-2.8.7-4 3.7-3.7 1-.1 2-.1 3-.1h9.8c6.5 0 13 .1 19.5.1 2.1 0 2.1-3 .2-3z" fill="#303032"/><path d="m620.57 638.506c-6.1-4.3-17 5.8-8.7 10.9 10.9 6.7 27.2 3.1 38.8.8 1.9-.4 1.1-3.3-.8-2.9-6.8 1.3-13.7 2.6-20.7 2.6-3.3 0-6.7-.3-9.9-1.1-1-.3-5.5-1.2-5.9-2 .2-1.7.4-3.3.6-5 1.4-1.1 3.1-1.3 5.1-.7 1.5 1.1 3-1.5 1.5-2.6z" fill="#303032"/><path d="m615.77 649.606c-2.3-1.3-5.2-.8-6.4 1.7-1.4 3 .9 6.1 3.5 7.4 4.4 2.3 10.8 2.3 15.6 2.1 6.2-.2 12.3-1.5 18.1-3.7 1.8-.7 1-3.6-.8-2.9-5.3 2-10.8 3.3-16.4 3.6-2.3.1-4.6.1-6.9-.1-1.8-.2-3.6-.4-5.4-.8-.4-.1-.9-.2-1.3-.3-1.8-.3-2.3-1.8-1.5-4.4 1.7.9 3.2-1.7 1.5-2.6z" fill="#303032"/><path d="m827.67 407.306c-7.3 2.2-7.6 20.4-7.9 26.8-1.7 34.8-19.1 64.8-38.7 98.8-11.6 20.1-32.8 55.8-75 81.9-17.5 10.9-33.5 16.9-44.7 20.4-2.4 3-9.3 10.8-21.4 14.4-13 3.9-23.9.3-27.3-1-1.2 4.6-2.5 8-3.5 10.4-.7 1.7-1.4 3.1-1 5 .6 2.8 3.2 4.5 4 5 3.8 2.2 8.4 1 10.4.5 7.5-2 22.4-6.5 41.7-12.9 2-1.1 5.1-2.9 8.4-5.5 7.1-5.4 8.1-8.6 14.4-13.9 4.6-3.9 8.5-6 14.9-9.4 7.9-4.2 14-6.5 16.4-7.4 24.4-9.5 44-30.4 46.2-32.8 5-5.4 9.1-11.7 17.4-24.3 18.5-28.2 29.3-51.1 33.3-59.6 1.6-3.5 8.4-18.3 15.4-38.2 12.2-34.8 4.3-25.9 9.9-41.2.4-1.2 1.8-4.7.5-8.4-1.9-5.7-9-9.9-13.4-8.6z" fill="#535356" opacity=".15"/><path d="m835.47 441.006c-.8-.3-4.2 7.5-14.4 28.5-11.7 23.9-31.3 64.3-43.3 84.1-12.6 20.8-35.8 50.5-81.1 78.6 17.7-7.4 45.6-21.7 70.5-49.3 16-17.7 24.5-33.9 35.3-54.4 23-44.1 34.9-86.8 33-87.5z" fill="#535356" opacity=".13"/><path d="m647.97 305.906c-1.9 8.3-.4 14.8 2.5 27.6 5.6 24.5 12.5 54.6 35.9 64.1 18.9 7.8 39.3-1.7 47.3-6 .3 1 3.1 10.6 11.4 13 7.8 2.3 14.8-3.5 17.8-6 2.1-1.7 8.9-7.9 13.3-27.6 4.4-19.5 2.7-35.5 1.9-41.3-1.9-14.4-3.6-26.8-11.7-38.7-13.1-19-39-31.3-65.1-27.6-23.2 3.2-48.1 19.5-53.3 42.5z" fill="#fff"/><path d="m735.87 386.206c5.6-5.5 9.6-12.2 12-19.6.6-1.8-2.3-2.6-2.9-.8-2.2 7-6 13.1-11.3 18.3-1.3 1.3.8 3.4 2.2 2.1z" fill="#303032"/><path d="m736.77 386.906c7.8-6.2 12.3-16.7 14.2-26.3.4-1.9-2.5-2.7-2.9-.8-1.7 9.2-5.9 19-13.4 25-1.5 1.2.6 3.3 2.1 2.1z" fill="#303032"/><path d="m690.27 276.306c3.3 4.8 9.6 12.6 20 18.4 18.6 10.4 37.1 7.3 42.5 6.1 1.5-.8 5.5-2.7 9.8-1.4 7 2.2 10.9 12.2 7.6 19.3-2.9 6.1-9.8 7.6-10.8 7.8-1 3.6-2.3 8.6-3.4 14.7-3 16.3-4.5 24.5-1.1 32.3 3.7 8.5 12.1 14.9 20.7 17.1 17 4.4 33.5-7.4 41.1-20 1.9-3.1 8.3-15 4.9-28.6-3.6-14.5-14.8-15.4-28.6-31.5-19.9-23.1-9.8-36-28.6-52.3-17-14.5-38-15.3-41.4-15.4-10.8-.3-19.5 2.1-24.9 4.1-4.9-.3-12.4-.1-20.9 2.9-20.3 7.1-29.8 24.9-33.9 32.7-2.8 5.2-12.4 23.9-8.5 48.1 1.7 10.7 5.6 19 8.5 24.3-2.5 5.4-6.3 15.6-5.7 28.6.3 7.3 2.5 28.5 20.4 43.4 3 2.5 19.5 16.3 41 12.6 13.4-2.3 21.4-10.1 31.9-20.4 6.8-6.7 12.1-12.1 11.6-19.5-.5-7.6-6.7-12.9-9.2-14.8-4.2 2.9-8.3 5.8-12.5 8.7-3.6-.1-8.9-.6-14.9-2.7-15-5.1-23.3-16-33.1-28.6-6.3-8-14.6-20.4-21.3-37.2 12.9-16.3 25.8-32.5 38.8-48.7z" fill="#5c1ee8"/><path d="m649.47 324.106c11.5 29.2 30.1 58.8 61.6 69.1 3.4 1.1 6.9 2.4 10.3 1.1 2.5-.9 4.8-3 6.9-4.6 5.6-4.3 10.6-9.5 14.7-15.3 8.7-12 13.5-26.4 14-41.2.1-1.9-2.9-1.9-3 0-.4 13.3-4.5 26.1-11.8 37.3-3.6 5.5-8 10.5-13.1 14.8-3.5 3-7.7 6.8-12.6 6.4-3-.3-6.3-1.8-9.1-3-27.9-11.4-44.4-38.5-55-65.4-.7-1.7-3.6-1-2.9.8z" fill="#303032"/><path d="m732.67 386.006c5.1 4.7 6.8 10.6 9.4 16.7 1.6 3.6 3.8 4.3 7.6 3.9 9.5-1.1 17.3-7.7 21-16.3.7-1.8-2.2-2.6-2.9-.8-1.8 4.4-4.9 8.1-8.9 10.7-3.4 2.2-9.1 5-12.6 2.4-2.9-2.1-3.5-6.8-5.1-10-1.6-3.3-3.7-6.2-6.4-8.6-1.5-1.4-3.6.7-2.1 2z" fill="#303032"/><path d="m753.67 306.406c-.1-5.4 5.6-7.3 9.8-4.8 2.8 1.7 4.3 4.8 5.1 7.9 1.2 5.4.4 17.3-8.2 14.8-1.9-.6-2.6 2.3-.8 2.9 12.4 3.7 14.2-14 10.8-21.8-2-4.6-6.6-8.7-12-8-4.6.6-7.8 4.4-7.7 9 0 1.9 3 1.9 3 0z" fill="#303032"/><path d="m684.07 314.406c2.8 6.3 3.6 13.8 5 20.5 1.4 6.6 2.8 13.2 4.3 19.8.2.9 1.4 1.4 2.2.9 3.3-2.1 6.4-4.5 9.3-7.1 1.4-1.3-.7-3.4-2.1-2.1-2.7 2.5-5.6 4.7-8.7 6.7.7.3 1.5.6 2.2.9-1.6-7.2-3.1-14.5-4.7-21.7-1.4-6.4-2.2-13.3-4.9-19.4-.8-1.8-3.4-.2-2.6 1.5z" fill="#303032"/><path d="m661.77 321.506c1.6-5.3 7.1-8 12.3-5.6 1.7.8 3.3-1.8 1.5-2.6-6.9-3.1-14.5.1-16.7 7.4-.5 1.8 2.4 2.6 2.9.8z" fill="#303032"/><path d="m698.47 307.506c4.9-5.7 13.1-6.8 19.2-2.4 1.6 1.1 3.1-1.5 1.5-2.6-7.2-5.1-17.2-3.8-22.9 2.9-1.1 1.5 1 3.6 2.2 2.1z" fill="#303032"/><path d="m676.37 336.206c-.8-.7-1.5-1.5-2-2.5-.2-.4-.3-.9-.4-1.3-.1-.5.2-1.2-.4-.9s.3.9.6 1.3.5.8.7 1.2c.2.5 1.3 2.4 1 2.7.3-.2.6-.5.9-.7.2-.1-.5-.8-.5-.9-.2-.3-.4-.7-.6-1-.4-.8-.7-1.6-1-2.5-.5-1.9-3.4-1.1-2.9.8.6 2.2 2.5 7.2 5.5 6.6 3.5-.7.6-6.2-.5-7.8-.7-1-1.6-2.4-2.9-2.7s-2.4.6-2.8 1.8c-1 2.8 1.1 6.2 3.2 8 1.4 1.3 3.6-.8 2.1-2.1z" fill="#303032"/><path d="m715.77 327.306c-.8-.7-1.5-1.5-2-2.5-.2-.4-.3-.9-.4-1.3-.1-.5.2-1.2-.4-.9s.3.9.6 1.3.5.8.7 1.2c.2.5 1.3 2.4 1 2.7.3-.2.6-.5.9-.7.2-.1-.5-.8-.5-.9-.2-.3-.4-.7-.6-1-.4-.8-.7-1.6-1-2.5-.5-1.9-3.4-1.1-2.9.8.6 2.2 2.5 7.2 5.5 6.6 3.5-.7.6-6.2-.5-7.8-.7-1-1.6-2.4-2.9-2.7s-2.4.6-2.8 1.8c-1 2.8 1.1 6.2 3.2 8 1.5 1.2 3.6-.9 2.1-2.1z" fill="#303032"/><path d="m702.37 366.106c4.8 1.1 9.6-2.2 13.2-5.1 4.4-3.6 7.8-8.1 10.2-13.3.8-1.7-1.8-3.3-2.6-1.5-1.7 3.8-3.9 7.2-6.8 10.2-2.9 2.9-8.6 7.9-13.1 6.9-2-.6-2.8 2.3-.9 2.8z" fill="#303032"/><path d="m719.97 345.006c1.7 3 5 4.5 8.4 3.9 1.9-.3 1.1-3.2-.8-2.9-2 .3-4-.8-5-2.6-1-1.6-3.5-.1-2.6 1.6z" fill="#303032"/><path d="m724.07 335.706c1.9 0 1.9-3 0-3s-1.9 3 0 3z" fill="#303032"/><path d="m732.47 323.906c0-.1 0-.2 0-.3 0-.8-.7-1.5-1.5-1.5s-1.5.7-1.5 1.5v.3c0 .8.7 1.5 1.5 1.5s1.5-.6 1.5-1.5z" fill="#303032"/><path d="m731.27 334.006c1.9 0 1.9-3 0-3s-1.9 3 0 3z" fill="#303032"/><path d="m671.97 346.806h.6c.8 0 1.5-.7 1.5-1.5s-.7-1.5-1.5-1.5c-.2 0-.4 0-.6 0-.8 0-1.5.7-1.5 1.5s.6 1.5 1.5 1.5z" fill="#303032"/><path d="m679.67 344.806c1.9 0 1.9-3 0-3s-1.9 3 0 3z" fill="#303032"/><path d="m676.97 352.306c1.9 0 1.9-3 0-3-2 0-2 3 0 3z" fill="#303032"/><path d="m716.67 359.606c5.6 3 11.1 6.3 16.4 9.8.8.5 1.6-.8.8-1.3-5.3-3.5-10.8-6.7-16.4-9.8-.9-.4-1.7.9-.8 1.3z" fill="#303032"/><path d="m734.17 370.406c0-.6.6-3 1.6-2.3.9.6-.3 2.2-.8 2.7-.1.1-.4.4-.5.4-.2 0-.1-.6-.1-.7 0-.3.2-1.6.5-1.7 0 0-.2.6-.2.7-.1.1-.1.2-.2.3.1.1.3.3.4.4.1 0 .4-.6.5-.7s.1-.2.2-.2c.3-.2.3-.3-.1-.3-.1-.1-.2-.3-.3-.4.2.6-.7 1.2-1.1 1.3-.9.3-.5 1.8.4 1.4 1.1-.4 2.5-1.6 2.2-2.9-.1-.5-.5-.9-1-.8-.6 0-1 .5-1.4 1s-.9 1-.9 1.7c0 .6.5 1.1 1.1 1.1 1.2 0 2.1-1.7 2-2.8-.1-1.2-1.6-2.1-2.5-1.1-.9.9-1.3 2.9-1.1 4.1.3 1.4 1.7 1.4 2.7.7s2-2.2 1.9-3.5c0-1.4-1.3-2.6-2.7-2.1-1.5.5-2.2 2.4-2.2 3.9.1.8 1.6.8 1.6-.2z" fill="#303032"/><path d="m717.57 359.506c7.1-1.1 14.2-2.3 21.2-3.5.9-.2.5-1.6-.4-1.4-7.1 1.2-14.1 2.4-21.2 3.5-1 .1-.6 1.5.4 1.4z" fill="#303032"/><path d="m739.87 356.206c-.2-.6-.4-1.1-.3-1.8 0-.3.1-.7.3-1 .1-.2 0-.5.1.1.1 1.3 0 2.4-.7 3.5.4-.1.8-.1 1.2-.2-1.1-.9-1-2.5.1-3.3-.4-.1-.8-.1-1.2-.2.5 1 .3 2.1-.5 2.8.4.1.8.1 1.2.2-.6-1.2-.3-2.5.6-3.5-.4-.1-.8-.1-1.2-.2.4.9.3 1.9-.4 2.6-.6.7.4 1.8 1.1 1.1 1.1-1.3 1.3-2.9.6-4.5-.2-.4-.9-.5-1.2-.2-1.4 1.4-1.7 3.5-.9 5.3.2.5.9.5 1.2.2 1.3-1.2 1.6-3.1.7-4.7-.3-.5-.8-.4-1.2-.2-1.7 1.3-1.7 4.1-.1 5.4.4.3.9.3 1.2-.2.7-1 1-2.3 1-3.5 0-.9-.2-2.2-1.1-2.6-1-.5-1.7.4-2 1.2-.5 1.2-.4 2.5 0 3.7.4 1.3 1.9.9 1.5 0z" fill="#303032"/><path d="m718.47 297.606c5.1 5.9 11.7 15.1 15.4 27.7 9.7 33-7.9 61.5-11.2 66.7 7.1-6.7 14.2-13.5 21.4-20.2 5.1 9.9 10.2 19.7 15.4 29.6 1.7-.9 4.9-2.8 7.5-6.4 2-2.7 2.9-5.4 3.4-7.1 1.9 1.1 4.8 2.6 8.6 3.4 9.5 1.8 17.2-2.5 21.4-4.9 13.4-7.5 18.3-20.1 19.1-22.1 1.9-4.9 5-12.6 2.3-21.7-2.3-7.6-7.3-12.3-9.7-14.2-.5 3.9-1.9 9.8-5.6 15.7-5.3 8.4-17.8 20.9-30.4 17.6-11.5-3-20.7-18.7-16.9-36.7 1 .3 4.8 1.3 7.5-.8 2.6-1.9 2.6-5.4 2.6-9.4 0-4.5.1-11.7-4.1-14.6-3.7-2.6-8.8-.4-13.5.8-7.4 1.8-18.1 2.4-33.2-3.4z" fill="#535356" opacity=".15"/><path d="m639.37 367.706c.1 4.1 1 13.5 7.9 21.7 7 8.4 21.5 17.2 30 11.2 6.3-4.5 8.1-16.3 3-28.1 2.9 3.9 8 9.7 16.1 14.6 9.5 5.8 18.6 7.4 23.6 7.9 4.4-3.1 8.7-6.2 13.1-9.4 1.6 1.4 3.8 3.8 5.6 7.1 1.5 2.7 3.5 6.3 3 10.5-.5 4.1-3.2 6.9-5.6 9.4-13.5 13.5-20.3 20.3-23.2 21.7-3.3 1.7-10.6 5.3-20.6 5.6-19.8.6-33.4-12.2-36.4-15-12.8-12-15.9-26.5-16.9-31.5-2.2-10.9-.8-20.2.4-25.7z" fill="#535356" opacity=".14"/><path d="m684.47 314.806v41.3c3.1-.4 6.2-.9 9.3-1.3-3.1-13.3-6.2-26.6-9.3-40z" fill="#535356" opacity=".12"/><path d="m753.17 315.506c-1-.1-1.8 10.1-4.4 23.1-3.4 17.2-8.2 30.7-11.7 39.5 7-9.3 14.6-22.6 16.8-39.5 1.5-11.3.4-23-.7-23.1z" fill="#535356" opacity=".11"/></svg>