<svg width="375" height="72" viewBox="0 0 375 72" fill="none" xmlns="http://www.w3.org/2000/svg">
<g clip-path="url(#clip0_1644_3339)">
<path d="M133.5 71.2105C128.6 71.2105 124 70.4105 119.7 68.7105C115.4 67.0105 111.7 64.6105 108.5 61.5105C105.3 58.4105 102.8 54.7105 101 50.4105C99.1 46.0105 98.2 41.2105 98.2 35.9105C98.2 30.6105 99.1 25.7105 101 21.4105C102.9 17.0105 105.4 13.3105 108.6 10.2105C111.8 7.11046 115.5 4.71046 119.8 3.01046C124.1 1.31046 128.6 0.410461 133.3 0.410461C138.4 0.410461 142.8 1.11046 146.5 2.61046C150.2 4.11046 153.3 5.91046 155.9 8.21046C158.5 10.5105 160.5 13.0105 161.9 15.6105C163.3 18.3105 164.3 20.8105 164.9 23.3105L150.6 27.8105C150.3 26.6105 149.8 25.3105 149.1 23.9105C148.4 22.4105 147.3 21.0105 146 19.7105C144.7 18.4105 142.9 17.3105 140.9 16.4105C138.8 15.5105 136.3 15.1105 133.3 15.1105C131 15.1105 128.7 15.5105 126.4 16.3105C124.1 17.1105 122 18.4105 120.2 20.1105C118.3 21.8105 116.8 24.0105 115.7 26.6105C114.5 29.2105 114 32.3105 114 35.9105C114 39.1105 114.5 41.9105 115.6 44.4105C116.7 46.9105 118.1 49.0105 120 50.7105C121.8 52.4105 123.9 53.7105 126.2 54.6105C128.5 55.5105 131 55.9105 133.5 55.9105C136.4 55.9105 139 55.5105 141.1 54.6105C143.2 53.7105 145 52.6105 146.4 51.3105C147.8 50.0105 148.9 48.6105 149.7 47.1105C150.5 45.6105 151.1 44.3105 151.4 43.1105L165.9 47.2105C165.3 49.6105 164.3 52.1105 162.9 54.9105C161.5 57.7105 159.4 60.2105 156.9 62.6105C154.3 65.0105 151.1 67.0105 147.3 68.6105C143.3 70.4105 138.8 71.2105 133.5 71.2105Z" fill="#161616"/>
<path d="M133.5 71.2105C128.6 71.2105 124 70.4105 119.7 68.7105C115.4 67.0105 111.7 64.6105 108.5 61.5105C105.3 58.4105 102.8 54.7105 101 50.4105C99.1 46.0105 98.2 41.2105 98.2 35.9105C98.2 30.6105 99.1 25.7105 101 21.4105C102.9 17.0105 105.4 13.3105 108.6 10.2105C111.8 7.11046 115.5 4.71046 119.8 3.01046C124.1 1.31046 128.6 0.410461 133.3 0.410461C138.4 0.410461 142.8 1.11046 146.5 2.61046C150.2 4.11046 153.3 5.91046 155.9 8.21046C158.5 10.5105 160.5 13.0105 161.9 15.6105C163.3 18.3105 164.3 20.8105 164.9 23.3105L150.6 27.8105C150.3 26.6105 149.8 25.3105 149.1 23.9105C148.4 22.4105 147.3 21.0105 146 19.7105C144.7 18.4105 142.9 17.3105 140.9 16.4105C138.8 15.5105 136.3 15.1105 133.3 15.1105C131 15.1105 128.7 15.5105 126.4 16.3105C124.1 17.1105 122 18.4105 120.2 20.1105C118.3 21.8105 116.8 24.0105 115.7 26.6105C114.5 29.2105 114 32.3105 114 35.9105C114 39.1105 114.5 41.9105 115.6 44.4105C116.7 46.9105 118.1 49.0105 120 50.7105C121.8 52.4105 123.9 53.7105 126.2 54.6105C128.5 55.5105 131 55.9105 133.5 55.9105C136.4 55.9105 139 55.5105 141.1 54.6105C143.2 53.7105 145 52.6105 146.4 51.3105C147.8 50.0105 148.9 48.6105 149.7 47.1105C150.5 45.6105 151.1 44.3105 151.4 43.1105L165.9 47.2105C165.3 49.6105 164.3 52.1105 162.9 54.9105C161.5 57.7105 159.4 60.2105 156.9 62.6105C154.3 65.0105 151.1 67.0105 147.3 68.6105C143.3 70.4105 138.8 71.2105 133.5 71.2105Z" fill="#161616"/>
<path d="M133.5 71.2105C128.6 71.2105 124 70.4105 119.7 68.7105C115.4 67.0105 111.7 64.6105 108.5 61.5105C105.3 58.4105 102.8 54.7105 101 50.4105C99.1 46.0105 98.2 41.2105 98.2 35.9105C98.2 30.6105 99.1 25.7105 101 21.4105C102.9 17.0105 105.4 13.3105 108.6 10.2105C111.8 7.11046 115.5 4.71046 119.8 3.01046C124.1 1.31046 128.6 0.410461 133.3 0.410461C138.4 0.410461 142.8 1.11046 146.5 2.61046C150.2 4.11046 153.3 5.91046 155.9 8.21046C158.5 10.5105 160.5 13.0105 161.9 15.6105C163.3 18.3105 164.3 20.8105 164.9 23.3105L150.6 27.8105C150.3 26.6105 149.8 25.3105 149.1 23.9105C148.4 22.4105 147.3 21.0105 146 19.7105C144.7 18.4105 142.9 17.3105 140.9 16.4105C138.8 15.5105 136.3 15.1105 133.3 15.1105C131 15.1105 128.7 15.5105 126.4 16.3105C124.1 17.1105 122 18.4105 120.2 20.1105C118.3 21.8105 116.8 24.0105 115.7 26.6105C114.5 29.2105 114 32.3105 114 35.9105C114 39.1105 114.5 41.9105 115.6 44.4105C116.7 46.9105 118.1 49.0105 120 50.7105C121.8 52.4105 123.9 53.7105 126.2 54.6105C128.5 55.5105 131 55.9105 133.5 55.9105C136.4 55.9105 139 55.5105 141.1 54.6105C143.2 53.7105 145 52.6105 146.4 51.3105C147.8 50.0105 148.9 48.6105 149.7 47.1105C150.5 45.6105 151.1 44.3105 151.4 43.1105L165.9 47.2105C165.3 49.6105 164.3 52.1105 162.9 54.9105C161.5 57.7105 159.4 60.2105 156.9 62.6105C154.3 65.0105 151.1 67.0105 147.3 68.6105C143.3 70.4105 138.8 71.2105 133.5 71.2105Z" fill="#161616"/>
<path d="M224 55.9105H197.7L192.8 69.7105H176.9L202.5 1.61047H220.1L245.4 69.7105H228.9L224 55.9105ZM202.7 42.1105H219.2L211 18.6105L202.7 42.1105Z" fill="#161616"/>
<path d="M295.8 22.2105C295.7 21.4105 295.4 20.6105 295 19.6105C294.6 18.6105 293.9 17.7105 293.1 16.8105C292.2 15.9105 291.1 15.2105 289.7 14.6105C288.3 14.0105 286.6 13.7105 284.5 13.7105C281.7 13.7105 279.4 14.5105 277.7 16.0105C276 17.5105 275.2 19.2105 275.2 21.0105C275.2 22.7105 275.7 24.1105 276.8 25.2105C277.9 26.3105 279.6 27.1105 281.9 27.6105L291 29.2105C294.3 29.8105 297.1 30.7105 299.5 32.0105C301.9 33.3105 304 34.9105 305.6 36.7105C307.3 38.5105 308.5 40.5105 309.3 42.7105C310.1 44.9105 310.5 47.2105 310.5 49.7105C310.5 52.4105 310 55.0105 308.9 57.6105C307.8 60.2105 306.2 62.4105 304.1 64.5105C302 66.5105 299.3 68.1105 296.2 69.4105C293.1 70.6105 289.5 71.3105 285.4 71.3105C280.7 71.3105 276.6 70.6105 273.2 69.2105C269.8 67.8105 267 66.1105 264.8 64.0105C262.6 61.9105 260.9 59.6105 259.7 57.0105C258.5 54.4105 257.8 51.9105 257.6 49.5105L271.5 46.1105C271.6 47.6105 272 49.1105 272.6 50.6105C273.2 52.0105 274.1 53.3105 275.2 54.3105C276.4 55.4105 277.8 56.2105 279.5 56.8105C281.2 57.4105 283.2 57.8105 285.5 57.8105C288.5 57.8105 290.9 57.1105 292.6 55.8105C294.3 54.5105 295.1 52.8105 295.1 50.7105C295.1 49.0105 294.4 47.5105 293.1 46.3105C291.8 45.1105 290 44.3105 287.8 43.9105L278.5 42.2105C272.7 41.1105 268.1 38.8105 264.9 35.2105C261.6 31.6105 260 27.3105 260 22.2105C260 19.0105 260.7 16.1105 262 13.4105C263.3 10.7105 265.1 8.41046 267.3 6.51046C269.5 4.61046 272.1 3.11046 275.1 2.01046C278 0.910461 281.1 0.410461 284.4 0.410461C288.6 0.410461 292.2 1.01046 295.2 2.11046C298.2 3.31046 300.7 4.71046 302.6 6.51046C304.6 8.31046 306 10.2105 307.1 12.4105C308.1 14.5105 308.8 16.6105 309.2 18.6105L295.8 22.2105Z" fill="#161616"/>
<path d="M331.7 69.7104V1.71045H374.8V16.0104H346.9V29.0104H372.2V42.3104H346.9V55.4104H374.9V69.8104H331.7V69.7104Z" fill="#161616"/>
<path d="M0.0999756 1.71045V69.7104H68.1V1.71045H0.0999756ZM62.1 35.7104H6.09998V7.71045H62.1V35.7104Z" fill="#161616"/>
</g>
<defs>
<clipPath id="clip0_1644_3339">
<rect width="375" height="71" fill="white" transform="translate(0 0.210449)"/>
</clipPath>
</defs>
</svg>
