<svg width="1600" height="1200" viewBox="0 0 1600 1200" fill="none" xmlns="http://www.w3.org/2000/svg">
<path d="M1033 297.6C1042 297.6 1049.3 290.302 1049.3 281.3C1049.3 272.298 1042 265 1033 265C1024 265 1016.7 272.298 1016.7 281.3C1016.7 290.302 1024 297.6 1033 297.6Z" fill="#F6747F"/>
<path d="M1050.3 252.4C1054.5 252.4 1057.9 248.997 1057.9 244.8C1057.9 240.603 1054.5 237.2 1050.3 237.2C1046.1 237.2 1042.7 240.603 1042.7 244.8C1042.7 248.997 1046.1 252.4 1050.3 252.4Z" fill="#F6747F"/>
<path d="M552 153.5C556.308 153.5 559.8 150.008 559.8 145.7C559.8 141.392 556.308 137.9 552 137.9C547.692 137.9 544.2 141.392 544.2 145.7C544.2 150.008 547.692 153.5 552 153.5Z" fill="#F6747F"/>
<path d="M1062.4 1066.4C1069.69 1066.4 1075.6 1060.49 1075.6 1053.2C1075.6 1045.91 1069.69 1040 1062.4 1040C1055.11 1040 1049.2 1045.91 1049.2 1053.2C1049.2 1060.49 1055.11 1066.4 1062.4 1066.4Z" fill="#F6747F"/>
<path d="M461.7 1111.6C465.069 1111.6 467.8 1108.87 467.8 1105.5C467.8 1102.13 465.069 1099.4 461.7 1099.4C458.331 1099.4 455.6 1102.13 455.6 1105.5C455.6 1108.87 458.331 1111.6 461.7 1111.6Z" fill="#F6747F"/>
<path d="M537.9 661C541.379 661 544.2 658.179 544.2 654.7C544.2 651.221 541.379 648.4 537.9 648.4C534.421 648.4 531.6 651.221 531.6 654.7C531.6 658.179 534.421 661 537.9 661Z" fill="#F6747F"/>
<path d="M550.3 693.1C553.669 693.1 556.4 690.369 556.4 687C556.4 683.631 553.669 680.9 550.3 680.9C546.931 680.9 544.2 683.631 544.2 687C544.2 690.369 546.931 693.1 550.3 693.1Z" fill="#5C1EE8"/>
<path d="M543 863.1C549.296 863.1 554.4 857.996 554.4 851.7C554.4 845.404 549.296 840.3 543 840.3C536.704 840.3 531.6 845.404 531.6 851.7C531.6 857.996 536.704 863.1 543 863.1Z" fill="#5C1EE8"/>
<path d="M1023.9 215.2C1027.88 215.2 1031.1 211.976 1031.1 208C1031.1 204.024 1027.88 200.8 1023.9 200.8C1019.92 200.8 1016.7 204.024 1016.7 208C1016.7 211.976 1019.92 215.2 1023.9 215.2Z" fill="#5C1EE8"/>
<path d="M750 227.8C753.479 227.8 756.3 224.979 756.3 221.5C756.3 218.021 753.479 215.2 750 215.2C746.521 215.2 743.7 218.021 743.7 221.5C743.7 224.979 746.521 227.8 750 227.8Z" fill="#5C1EE8"/>
<path d="M188.3 720.6C190.951 720.6 193.1 718.451 193.1 715.8C193.1 713.149 190.951 711 188.3 711C185.649 711 183.5 713.149 183.5 715.8C183.5 718.451 185.649 720.6 188.3 720.6Z" fill="#5C1EE8"/>
<path d="M1045.7 1099.4C1052.33 1099.4 1057.7 1094.03 1057.7 1087.4C1057.7 1080.77 1052.33 1075.4 1045.7 1075.4C1039.07 1075.4 1033.7 1080.77 1033.7 1087.4C1033.7 1094.03 1039.07 1099.4 1045.7 1099.4Z" fill="#5C1EE8"/>
<path d="M1174.2 72C1177.68 72 1180.5 69.1794 1180.5 65.7C1180.5 62.2206 1177.68 59.4 1174.2 59.4C1170.72 59.4 1167.9 62.2206 1167.9 65.7C1167.9 69.1794 1170.72 72 1174.2 72Z" fill="#5C1EE8"/>
<path d="M562.1 348.9C561.1 342.7 560.2 330.3 570.1 331.3C573.7 331.7 575.7 334.9 579.7 333.5C587.2 330.9 585.5 321.2 588.6 315.6C593.7 306.6 603.6 319.7 611.2 315.4C613.7 314 614.3 311.4 614.2 308.7C614 298.6 622.9 299.3 630.2 301.3C632.1 301.8 632.9 298.9 631 298.4C623.6 296.4 611.3 295.7 611 306.4C610.9 309 612.3 311.6 608.5 313.2C607.3 313.7 605.3 313.1 604.2 312.8C601.6 312 599.3 310.2 596.6 309.5C593.1 308.5 589.7 309.2 587.3 312C584.3 315.6 584.4 320.5 583 324.7C581.5 329.2 578.6 331.8 573.7 329.6C571.7 328.7 569.9 327.9 567.6 328.2C557.3 329.6 557.8 342.1 559.1 349.7C559.5 351.6 562.4 350.8 562.1 348.9Z" fill="#5C1EE8"/>
<path d="M573.9 354.7C574.7 348.5 579.7 345.8 585.5 345.8C588.6 345.8 591.7 346.3 594.7 345.2C601.5 342.6 600.2 335.2 601.8 329.4C604.8 318.4 618.7 325.2 626.4 323.4C631.6 322.1 636 316.9 633.8 311.4C633.1 309.6 630.2 310.4 630.9 312.2C634.3 320.5 622.7 321 617.8 320.4C614.2 320 610.7 319.4 607.1 320.3C601.4 321.8 599.2 326 598.4 331.4C597.7 336.4 597.8 341.9 591.3 342.7C587.8 343.1 584.3 342.1 580.8 342.9C575.2 344.2 571.6 348.9 570.9 354.5C570.6 356.6 573.6 356.6 573.9 354.7Z" fill="#5C1EE8"/>
<path d="M780.5 109.1C777 113.5 773.3 118.9 775 124.8C776.4 129.6 780.2 131.4 784.8 131.1C787.5 130.9 790.3 130.2 792.5 132.6C794.2 134.4 793.1 138.2 792.6 140.2C791.8 143.3 790.3 146.3 790.6 149.6C791.1 154.1 794.7 157.6 799.3 156.6C801.2 156.2 800.4 153.3 798.5 153.7C789.8 155.7 795.8 141.2 796.2 137.7C796.5 134.8 796 131.6 793.8 129.5C791.6 127.4 788.9 127.6 786.1 127.9C781.7 128.4 777.6 127 777.4 121.7C777.3 117.7 780.1 114.1 782.5 111.1C783.9 109.8 781.7 107.6 780.5 109.1Z" fill="#5C1EE8"/>
<path d="M804.1 107.6C799.4 109.6 796.4 114.5 797.6 119.6C798.2 121.9 799.6 124.1 801.6 125.5C804 127.3 806.8 126.9 809.2 128.4C813.7 131.1 810.1 136.4 810.3 140.6C810.4 142.7 810.9 144.6 812.7 145.9C815.4 148 819.4 147.3 820.5 143.9C821.1 142.1 818.2 141.3 817.6 143.1C813.8 142.6 812.5 140.9 813.6 138C813.8 137 814 136 814.2 135C814.4 134 814.5 133 814.5 132C814.5 129.9 813.9 127.7 812.3 126.2C809.9 124 806.2 124.9 803.6 123.1C798.3 119.4 800.2 112.4 805.6 110.1C807.4 109.4 805.8 106.9 804.1 107.6Z" fill="#5C1EE8"/>
<path d="M150.2 698.7C147.9 695.1 147.9 690.7 150.2 687C152.5 683.4 155.7 683.3 159.4 681.9C164.5 679.8 164.6 674.5 164.3 669.7C164.2 668 164.1 666.2 164.6 664.5C165.9 660.5 169.3 661.6 172.4 662.1C174.2 662.4 175.9 662.1 177.4 661.1C179.3 659.8 180.5 657.5 181.1 655.3C181.6 653.5 181.7 651.6 182.1 649.8C182.3 648.5 182.7 647.3 183.3 646.2C184.9 643.7 186.8 643.5 189.1 645.7C189.6 647.6 192.5 646.8 192 644.9C190.2 638.4 182.2 641.3 180.2 645.9C179.3 648 179.2 650.3 178.7 652.5C178.4 653.8 178.2 655.2 177.5 656.4C176 659.1 173.2 658.6 170.6 658.3C167.5 658 165.1 657.7 163.1 660.6C160.8 663.9 161.4 667.8 161.4 671.6C161.5 676.2 160.5 678 156 679.5C154.2 680.1 152.7 680.4 151.1 681.6C145.3 685.7 143.8 694.2 147.6 700.1C148.6 701.8 151.2 700.3 150.2 698.7Z" fill="#F6747F"/>
<path d="M162.7 705.6C158.5 705 160.1 700.4 162 698.6C163.4 697.3 165.3 696.5 167.1 695.6C169.3 694.5 171.5 693.2 173.1 691.3C177.4 685.9 171.2 678.7 177.2 674.4C183.2 670.2 199.3 668.3 194.6 657.1C193.9 655.3 191.3 656.9 192 658.6C195.4 666.7 178.9 669.1 174.7 672.5C173.2 673.7 171.9 675.3 171.3 677.2C170.1 681.4 173.6 685.7 170.5 689.7C166.9 694.1 159.2 694.1 157.4 700.3C156.3 703.8 158.2 708 162 708.6C163.8 708.8 164.6 705.9 162.7 705.6Z" fill="#F6747F"/>
<path d="M1258.9 473.2C1257.6 470.9 1257.8 468.4 1259.2 466.2C1261.4 463 1264 463.7 1267.4 464C1269.7 464.2 1271.8 464.7 1274 463.4C1277.9 461 1277.3 456 1278 452.2C1279.6 443.3 1287.3 451.4 1292.5 448.6C1294.4 447.6 1295.1 445.7 1295.5 443.7C1296.2 439.8 1296.4 428.2 1303.9 432.9C1305.5 433.9 1307.1 431.3 1305.4 430.3C1298.7 426.2 1293.3 433 1292.7 439.3C1292.3 442.9 1292.7 446.4 1287.9 445.9C1286.2 445.7 1284.5 444.8 1282.8 444.6C1280.1 444.3 1277.7 445.1 1276.2 447.5C1274.5 450.3 1275.1 453.8 1274.4 456.8C1272.9 463.6 1267.1 459.8 1262.4 460.6C1256.1 461.7 1253.2 469.3 1256.2 474.6C1257.2 476.4 1259.8 474.9 1258.9 473.2Z" fill="#F6747F"/>
<path d="M1273.8 479.5C1272.1 474.9 1277.4 469.8 1282 472.2C1282.6 472.5 1283.4 472.5 1283.8 472C1286.1 469.5 1286.7 466.6 1287.7 463.4C1289.5 457.6 1293.8 456.8 1299 455.2C1304.1 453.6 1309.8 449.4 1307.7 443.4C1307 441.6 1304.1 442.4 1304.8 444.2C1307.7 452.1 1293.5 452.7 1289.3 455.6C1284.2 459.2 1285.7 465.7 1281.8 469.9C1282.4 469.8 1283 469.7 1283.6 469.7C1276.9 466.2 1268.4 473.1 1271 480.4C1271.6 482.1 1274.5 481.4 1273.8 479.5Z" fill="#F6747F"/>
<path d="M869.9 505.7C870.1 505.7 872.3 511.1 873.2 511.8C874.6 512.9 876.3 513 878 512.7C881 512.2 882.9 510 885.5 508.6C891.1 505.4 891.1 510.9 893.3 514C895.8 517.7 898.5 515.9 901.4 514.1C903.3 512.9 905.1 512.1 906.8 513.8C907.7 514.7 908.3 516.2 909 517.3C910.1 518.9 911.3 520.2 913.1 521C914.8 521.8 916.4 519.2 914.6 518.4C910.5 516.6 910 509.8 905.1 509.1C902.8 508.8 901.8 510.1 900 511.1C897.8 512.4 896.5 513.3 895.1 510.8C894.5 509.8 894.4 508.4 893.7 507.4C890.5 502.1 885.5 505 881.5 507.6C880.8 508.1 880.1 508.6 879.3 509C877.6 508.5 875.8 508 874.1 507.5C873.4 506.8 873.4 505.1 872.8 504.2C871.8 502.8 870.8 502.4 869.2 502.7C867.2 503.1 868 506 869.9 505.7Z" fill="#F6747F"/>
<path d="M893.4 496.1C896.4 491.4 903.3 501.2 906.1 502.4C907.8 503.1 909.4 503.1 911.2 502.6C912 502.4 912.7 502 913.4 501.7C916.1 500.6 918.4 501.3 920.6 503.2C923.8 505.9 924.7 509.5 929.3 510.5C932 511.1 934.5 510.3 935.7 507.7C936.5 506 933.9 504.4 933.1 506.2C930.3 512.2 922.6 500.4 920.6 499.1C916.9 496.7 914.6 498.7 910.9 499.5C905 500.7 903.1 494.1 898.2 492.5C895.3 491.5 892.5 492 890.9 494.7C889.7 496.3 892.3 497.8 893.4 496.1Z" fill="#F6747F"/>
<path d="M1267.1 670.9C1320.2 670.9 1373.3 670.9 1426.5 670.9C1428.4 670.9 1428.4 667.9 1426.5 667.9C1373.4 667.9 1320.3 667.9 1267.1 667.9C1265.2 667.9 1265.2 670.9 1267.1 670.9Z" fill="#DDDDE2"/>
<path d="M1310.6 670.2C1310.6 685.7 1310.6 701.1 1310.6 716.6C1310.6 718.5 1313.6 718.5 1313.6 716.6C1313.6 701.1 1313.6 685.7 1313.6 670.2C1313.6 668.3 1310.6 668.3 1310.6 670.2Z" fill="#DDDDE2"/>
<path d="M1384.8 668.7C1384.8 647.1 1384.8 625.5 1384.8 603.9C1384.8 602 1381.8 602 1381.8 603.9C1381.8 625.5 1381.8 647.1 1381.8 668.7C1381.8 670.7 1384.8 670.7 1384.8 668.7Z" fill="#DDDDE2"/>
<path d="M1349.5 605.1C1369.6 605.1 1389.7 605.1 1409.8 605.1C1411.7 605.1 1411.7 602.1 1409.8 602.1C1389.7 602.1 1369.6 602.1 1349.5 602.1C1347.6 602.1 1347.6 605.1 1349.5 605.1Z" fill="#DDDDE2"/>
<path d="M1310 245C1310 263.7 1310 282.4 1310 301C1310 302.9 1313 302.9 1313 301C1313 282.3 1313 263.6 1313 245C1313 243.1 1310 243.1 1310 245Z" fill="#DDDDE2"/>
<path d="M1263.3 305.3C1299.4 305.3 1335.4 305.3 1371.5 305.3C1373.4 305.3 1373.4 302.3 1371.5 302.3C1335.4 302.3 1299.4 302.3 1263.3 302.3C1261.3 302.3 1261.3 305.3 1263.3 305.3Z" fill="#DDDDE2"/>
<path d="M1370.5 304.9C1370.5 317.3 1370.5 329.7 1370.5 342.1C1370.5 344 1373.5 344 1373.5 342.1C1373.5 329.7 1373.5 317.3 1373.5 304.9C1373.5 303 1370.5 303 1370.5 304.9Z" fill="#DDDDE2"/>
<path d="M366.2 186.7C401.5 186.7 436.9 186.7 472.2 186.7C474.1 186.7 474.1 183.7 472.2 183.7C436.9 183.7 401.5 183.7 366.2 183.7C364.3 183.7 364.2 186.7 366.2 186.7Z" fill="#DDDDE2"/>
<path d="M467.8 186.4C467.8 196 467.8 205.6 467.8 215.2C467.8 217.1 470.8 217.1 470.8 215.2C470.8 205.6 470.8 196 470.8 186.4C470.8 184.4 467.8 184.4 467.8 186.4Z" fill="#DDDDE2"/>
<path d="M435.7 184C435.7 168.6 435.7 153.3 435.7 137.9C435.7 136 432.7 136 432.7 137.9C432.7 153.3 432.7 168.6 432.7 184C432.7 186 435.7 186 435.7 184Z" fill="#DDDDE2"/>
<path d="M156.5 494.9C180.9 494.9 205.3 494.9 229.7 494.9C231.6 494.9 231.6 491.9 229.7 491.9C205.3 491.9 180.9 491.9 156.5 491.9C154.6 491.9 154.6 494.9 156.5 494.9Z" fill="#DDDDE2"/>
<path d="M201.2 464.8C201.2 473.8 201.2 482.8 201.2 491.8C201.2 493.7 204.2 493.7 204.2 491.8C204.2 482.8 204.2 473.8 204.2 464.8C204.2 462.9 201.2 462.9 201.2 464.8Z" fill="#DDDDE2"/>
<path d="M183.6 466.3C196.6 466.3 209.6 466.3 222.6 466.3C224.5 466.3 224.5 463.3 222.6 463.3C209.6 463.3 196.6 463.3 183.6 463.3C181.6 463.3 181.6 466.3 183.6 466.3Z" fill="#DDDDE2"/>
<path d="M624 1096.8C656.6 1096.8 689.2 1096.8 721.8 1096.8C723.7 1096.8 723.7 1093.8 721.8 1093.8C689.2 1093.8 656.6 1093.8 624 1093.8C622 1093.8 622 1096.8 624 1096.8Z" fill="#DDDDE2"/>
<path d="M684.2 1093.8C684.2 1086.8 684.2 1079.8 684.2 1072.7C684.2 1070.8 681.2 1070.8 681.2 1072.7C681.2 1079.7 681.2 1086.7 681.2 1093.8C681.2 1095.8 684.2 1095.8 684.2 1093.8Z" fill="#DDDDE2"/>
<path d="M675.1 1072.8C688.6 1072.8 702.2 1072.8 715.7 1072.8C717.6 1072.8 717.6 1069.8 715.7 1069.8C702.2 1069.8 688.6 1069.8 675.1 1069.8C673.2 1069.8 673.2 1072.8 675.1 1072.8Z" fill="#DDDDE2"/>
<path d="M158.8 1044.2C191.4 1044.2 224 1044.2 256.6 1044.2C258.5 1044.2 258.5 1041.2 256.6 1041.2C224 1041.2 191.4 1041.2 158.8 1041.2C156.9 1041.2 156.9 1044.2 158.8 1044.2Z" fill="#DDDDE2"/>
<path d="M204 1005C204 1016.5 204 1028.1 204 1039.6C204 1041.5 207 1041.5 207 1039.6C207 1028.1 207 1016.5 207 1005C207 1003.1 204 1003.1 204 1005Z" fill="#DDDDE2"/>
<path d="M204 1000.5C191 1000.5 177.9 1000.5 164.9 1000.5C163 1000.5 163 1003.5 164.9 1003.5C177.9 1003.5 191 1003.5 204 1003.5C205.9 1003.5 205.9 1000.5 204 1000.5Z" fill="#DDDDE2"/>
<path d="M1245.9 956.2C1242.6 952.9 1243.4 946.5 1248.5 945.4C1251.2 944.8 1253.8 946.5 1256.4 946.8C1258.4 947.1 1260.5 946.9 1261.8 945.1C1263.8 942.5 1262.2 939.5 1262.1 936.6C1261.9 927.5 1272.7 928.1 1278.1 931.3C1279.3 932 1280.6 930.8 1280.3 929.6C1277.7 917.1 1292 908.5 1301.8 916.8C1303.3 918 1305.4 915.9 1303.9 914.7C1291.8 904.5 1274.1 914.9 1277.4 930.5C1278.1 929.9 1278.9 929.4 1279.6 928.8C1275 926 1269.1 924.6 1264.2 927.7C1262.4 928.8 1260.8 930.5 1260 932.5C1259.4 933.9 1259.1 935.2 1259.2 936.7C1259.3 939.4 1260.2 939.2 1258.2 941.8C1256 944.7 1255.8 943.4 1252.7 942.7C1251.6 942.4 1250.6 942.2 1249.4 942.3C1246.9 942.4 1244.6 943.6 1243 945.4C1239.5 949.3 1240.4 954.8 1243.9 958.3C1245.2 959.7 1247.3 957.6 1245.9 956.2Z" fill="#DDDDE2"/>
<path d="M1265.4 959.2C1264.3 950.1 1279.2 950 1283.4 943.7C1284.5 942.1 1284.9 940.3 1285.6 938.6C1286.9 935.5 1289.2 933.5 1292.6 932.6C1298.1 931.2 1303.8 933.7 1308.8 935.8C1310.6 936.5 1311.4 933.6 1309.6 932.9C1300.4 929.1 1288 926.2 1282.9 937.4C1281.1 941.4 1280.5 943.6 1276.3 945.7C1273.8 946.9 1271.2 947.6 1268.8 949C1265 951.2 1262 954.6 1262.5 959.2C1262.7 961.1 1265.7 961.1 1265.4 959.2Z" fill="#DDDDE2"/>
<path d="M835.3 668.4C837.3 673.4 839.3 678.5 841.3 683.5C841.5 682.9 841.8 682.4 842 681.8C840.9 682.5 839.8 683.2 838.7 684C837 680 837.7 679 840.9 680.8C842.8 682 843.7 684.6 844.1 686.7C845 691.5 844 696.5 842.4 701.1C842 702.3 843.2 703.1 844.2 702.9C850.2 701.7 852.6 708.9 851.4 713.4C850.5 716.7 848.7 719.6 846.9 722.5C845.9 724.1 848.5 725.6 849.5 724C852.7 719 856.4 712.8 854.2 706.6C852.5 702 848.3 699.1 843.4 700C844 700.6 844.6 701.2 845.2 701.8C847.2 696 848.5 688.7 846 682.8C844.3 678.9 840.4 675.9 836 677.2C832.6 678.2 830.9 681.6 832.5 684.9C835.2 690.4 839.9 686.7 843.4 684.4C843.9 684.1 844.3 683.3 844.1 682.7C842.1 677.7 840.1 672.6 838.1 667.6C837.5 665.9 834.6 666.6 835.3 668.4Z" fill="#DDDDE2"/>
<path d="M243.9 195.3C242 190.5 248.4 189.2 251.4 190.9C253.7 192.2 255.2 194.5 256.6 196.6C257.9 198.5 259.3 200.6 260 202.8C260.8 204.7 260.7 206.5 259.7 208.3C256.2 209.9 254.4 209.5 254.3 207.2C253.4 203.9 256.9 201.7 259.9 201.8C263 201.9 265.9 203.7 268 205.9C271.6 209.7 272.9 214.7 272.4 219.8C273.3 219.5 274.3 219.3 275.2 219C273.2 216.1 275.1 213 277.8 211.5C280.1 210.3 282.7 210.6 284.9 211.8C288.5 213.7 291 217.2 293.3 220.4C294.4 222 297 220.5 295.9 218.9C292.1 213.6 286.4 206.2 278.9 207.9C273.4 209.1 269 215.5 272.6 220.5C273.5 221.8 275.2 221.2 275.4 219.7C276.3 210.2 269.3 197.2 258.1 198.8C254.1 199.4 251.2 202.2 251.2 206.3C251.2 209.5 253.2 212.8 256.6 213C260.6 213.3 263.3 209.4 263.5 205.8C263.8 200.8 259.9 195.4 256.9 191.7C254.1 188.4 250 185.6 245.6 187.3C242 188.6 239.6 192.2 241.1 195.9C241.7 197.9 244.6 197.1 243.9 195.3Z" fill="#DDDDE2"/>
<path d="M770.7 342C766.5 339.5 769.5 332.1 774.2 335.2C778.7 338.2 772.7 343.3 769.8 339.8C768.6 338.3 766.5 340.4 767.7 341.9C770 344.7 774.4 344.5 777 342.2C780 339.5 779.2 335.1 776.1 332.9C773 330.7 768.5 331.1 766.6 334.7C764.7 338.1 766 342.7 769.3 344.6C770.8 345.5 772.3 343 770.7 342Z" fill="#DDDDE2"/>
<path d="M1089.3 123.3C1087.1 120.2 1090.9 115.5 1094.4 116.9C1094.1 116.7 1093.8 116.4 1093.5 116.2C1095.4 119.5 1092.6 124 1088.9 123.8C1089.4 124.2 1089.9 124.5 1090.3 124.9C1089.7 123.2 1089 121.4 1088.4 119.7C1087.7 117.9 1084.8 118.7 1085.5 120.5C1086.1 122.2 1086.8 124 1087.4 125.7C1087.6 126.4 1088.1 126.8 1088.8 126.8C1092 127 1094.8 125 1096.2 122.2C1097.3 120 1097.9 115.4 1095.2 114C1089.3 111.1 1083.2 119.9 1086.7 124.8C1087.8 126.4 1090.4 124.9 1089.3 123.3Z" fill="#DDDDE2"/>
<path d="M1170.7 272C1170.2 269.7 1171.9 267.2 1174.2 266.7C1176.3 266.3 1178.2 268 1178.7 269.9C1180 274.4 1174.1 276.5 1171.3 273.4C1170 272 1167.9 274.1 1169.2 275.5C1174.4 281.3 1184.4 275.6 1181.2 268.2C1179.8 264.9 1176.3 262.8 1172.8 263.9C1169.1 265.1 1166.9 269 1167.7 272.8C1168.3 274.7 1171.2 273.9 1170.7 272Z" fill="#DDDDE2"/>
<path d="M846.1 1099.7C842.3 1097.9 842.6 1092.7 846.1 1090.7C849.5 1088.8 852.7 1090.5 855.8 1091.9C858.4 1093.1 861.4 1094.2 863.7 1091.9C865.8 1089.9 865.4 1086.8 865.5 1084.2C865.9 1074.1 875.7 1076.1 882.4 1078.6C884.2 1079.3 885 1076.4 883.2 1075.7C877.3 1073.4 869.1 1071.2 864.4 1077C863 1078.7 862.6 1080.7 862.5 1082.8C862.4 1084.2 863 1087.3 862.2 1088.6C860 1091.9 857 1088.9 854.7 1087.9C850.3 1086 844 1086.5 841.3 1091.1C839 1095 840.4 1100.3 844.5 1102.2C846.3 1103.1 847.8 1100.5 846.1 1099.7Z" fill="#DDDDE2"/>
<path d="M894.5 864C891.5 900.7 893.1 937.5 899.3 973.8C899.6 975.7 902.5 974.9 902.2 973C896.1 937 894.5 900.4 897.5 864C897.7 862.1 894.7 862.1 894.5 864Z" fill="#DDDDE2"/>
<path d="M896.5 866.3C912.1 871.7 928.2 875.3 944.6 877.1C960 878.7 977.7 880.4 992.5 874.6C994.3 873.9 993.5 871 991.7 871.7C977.3 877.4 959.8 875.7 944.6 874.1C928.5 872.4 912.6 868.7 897.3 863.4C895.4 862.7 894.7 865.6 896.5 866.3Z" fill="#DDDDE2"/>
<path d="M920.3 870.4C915.1 862.3 910.8 853.7 907.8 844.5C906.4 840.1 905.2 835.7 904.3 831.2C903.8 828.5 903.3 825.8 903 823.1C903 822.8 901.9 815.7 904 816.7C905 817.2 906.7 816.3 906.2 815C900.7 801.1 897.7 786.5 897.4 771.5C896.9 772 896.4 772.5 895.9 773C896.7 773.3 897.4 773.6 898.2 773.9C899.2 775.1 901.1 773.8 900.7 772.4C898.7 766 897.4 759.4 897 752.6C896.9 751 897.2 733 898.3 733.3C899.5 733.6 900.3 732.5 900.1 731.5C898.2 720.2 897.3 708.7 897.8 697.3C898 691.6 898.5 686 899.4 680.4C900.2 675.3 900.6 669.1 904.6 665.4C903.8 665.3 903 665.2 902.2 665.1C910.6 680.9 915.3 698.2 919.6 715.4C923.8 732.3 927.5 749.4 930.7 766.6C937.2 802.1 941.3 838 943.1 874.1C943.2 876 946.2 876 946.1 874.1C944.3 837.8 940.2 801.6 933.6 765.8C930.3 748 926.5 730.3 922.1 712.7C917.8 695.8 913.1 679 904.8 663.5C904.3 662.6 903.1 662.6 902.4 663.2C899 666.3 898 670.4 897.2 674.7C896.1 680.8 895.3 687.1 894.9 693.3C894.1 706.3 894.9 719.3 897.1 732.2C897.7 731.6 898.3 731 898.9 730.4C893.1 728.8 893.8 741.3 893.7 744.1C893.3 753.9 894.8 763.7 897.7 773.1C898.5 772.6 899.4 772.1 900.2 771.6C898.9 770.1 897.8 769.6 895.8 769.8C895 769.9 894.3 770.4 894.3 771.3C894.6 786.5 897.6 801.4 903.2 815.6C903.9 815 904.7 814.5 905.4 813.9C895.4 809.1 901.2 831.7 902 835.1C905 848.1 910.4 860.5 917.6 871.7C918.8 873.5 921.4 872 920.3 870.4Z" fill="#DDDDE2"/>
<path d="M936.2 770.5C935.3 764.1 935.1 757.6 935.9 751.2C936.1 749.6 939.9 730.8 941.8 731.6C942.8 732.1 944 731.5 944.1 730.3C944.7 717.5 948.7 706.1 953.4 694.3C958.1 682.6 962.7 671.3 970.5 661.2C969.8 661.2 969.1 661.2 968.4 661.2C974.1 667.7 973.4 677.6 973.7 685.7C974.1 694.8 974.4 703.9 974.5 713C974.7 730.9 974.4 748.8 973.6 766.7C971.9 803.3 967.8 839.8 961.6 875.9C961.3 877.8 964.2 878.6 964.5 876.7C971 839.1 975.1 801 976.8 762.8C977.6 743.6 977.8 724.4 977.4 705.2C977.2 695.6 977 686 976.3 676.4C975.9 670.1 974.9 663.9 970.5 659C970 658.4 968.9 658.4 968.4 659C960.7 669 955.9 680 951.3 691.7C946.2 704.3 941.9 716.5 941.2 730.3C942 729.9 942.7 729.4 943.5 729C937.4 726.3 935.4 739.3 934.6 742.8C932.4 752.2 932.2 761.7 933.6 771.2C933.5 773.2 936.4 772.4 936.2 770.5Z" fill="#DDDDE2"/>
<path d="M900.7 976.3C932 986.4 965.9 985.9 996.9 974.9C998.7 974.3 997.9 971.4 996.1 972C965.6 982.8 932.3 983.3 901.5 973.4C899.6 972.8 898.8 975.7 900.7 976.3Z" fill="#DDDDE2"/>
<path d="M992.1 873.6C993.3 889.8 994.6 906 995.7 922.2C996.8 938.7 997.2 955.4 994.5 971.8C994.2 973.7 997.1 974.5 997.4 972.6C1000.1 956.5 999.9 940.3 998.8 924.1C997.7 907.3 996.4 890.4 995.1 873.6C995 871.7 992 871.7 992.1 873.6Z" fill="#DDDDE2"/>
<path d="M458.4 1002C478.8 991.1 499.3 980.2 519.7 969.3C529.3 970.9 542.5 973 558.3 975.2C589.9 979.6 640.8 986.7 705.2 988.6C769.6 990.5 817.9 986.4 836.3 984.6C880.6 980.4 907.4 974.7 929.3 968.8C949.2 963.4 965.6 957.5 977.3 953C986.9 956.2 997.6 960.5 1009 966.4C1015.5 969.8 1021.5 973.3 1026.8 976.8C1008 982.2 982.7 989.1 952.6 996.1C889.2 1010.9 840.6 1017.9 830.4 1019.4C772.1 1027.7 689 1039.4 584.5 1027.3C552 1023.4 508.7 1016.3 458.4 1002Z" fill="white"/>
<path d="M457.3 1002.1C457.8 1006.3 458.4 1010.4 458.9 1014.6C466.4 1016.7 477.4 1019.7 491 1022.7C517 1028.5 543.4 1032.5 577.9 1035.2C705.3 1045.2 807.1 1036.3 807.1 1036.3C858 1031.8 907.4 1027.2 971.2 1008.6C995.2 1001.6 1014.8 994.5 1028.8 989C1027.7 984.3 1026.6 979.6 1025.5 974.9C1021.6 976.5 1015.8 978.8 1008.7 981.4C960.5 999 920.8 1004.8 885.4 1009.1C807.6 1018.7 768.7 1023.4 711.6 1024.3C646.6 1025.4 559.4 1021.5 457.3 1002.1Z" fill="#39393C"/>
<path d="M456.6 1004C456.6 1007.2 456.6 1010.4 456.6 1013.6C456.6 1015.5 459.6 1015.5 459.6 1013.6C459.6 1010.4 459.6 1007.2 459.6 1004C459.6 1002 456.6 1002 456.6 1004Z" fill="#39393C"/>
<path d="M457.7 1016.4C532.4 1036.6 610.4 1039.2 687.3 1040.3C761.2 1041.3 835.6 1038.1 908.4 1024.6C949.4 1017 989.8 1005.9 1028.8 990.8C1030.6 990.1 1029.8 987.2 1028 987.9C959.2 1014.6 886.1 1028.2 812.6 1033.9C738.5 1039.6 663.7 1038.3 589.6 1033.8C545.3 1031 501.4 1025.2 458.5 1013.6C456.6 1013 455.8 1015.9 457.7 1016.4Z" fill="#39393C"/>
<path d="M1028.8 988.7C1029.4 984.5 1029.6 980.2 1029.2 976C1029 974.1 1026 974.1 1026.2 976C1026.5 980 1026.5 984 1025.9 987.9C1025.6 989.7 1028.5 990.6 1028.8 988.7Z" fill="#39393C"/>
<path d="M459 1003.7C480 993.7 500.6 983 520.8 971.4C522.5 970.4 521 967.9 519.3 968.8C499.1 980.3 478.5 991.1 457.5 1001.1C455.7 1001.9 457.2 1004.5 459 1003.7Z" fill="#39393C"/>
<path d="M520 970C639.3 992.7 763.3 996.9 883.6 979.7C915.6 975.1 947.4 968 977 954.8C978.8 954 977.2 951.4 975.5 952.2C948.9 964 920.5 970.9 891.8 975.4C862.6 980 833.1 982.8 803.6 984.7C743.7 988.5 683.5 987.5 623.8 981.8C589.2 978.5 554.9 973.5 520.8 967.1C518.9 966.8 518.1 969.7 520 970Z" fill="#39393C"/>
<path d="M976.4 954.3C994.2 960.1 1010.9 968.2 1026.5 978.5C1028.1 979.6 1029.6 977 1028 975.9C1012.2 965.5 995.2 957.3 977.2 951.4C975.3 950.8 974.5 953.7 976.4 954.3Z" fill="#39393C"/>
<path d="M459.2 1002.1C494.5 1014 531.3 1019.6 568.3 1022.6C605.8 1025.6 643.6 1026.5 681.2 1026.5C755.9 1026.5 830.8 1021.4 904.4 1008C946.2 1000.4 987.6 990.1 1027.9 976.6C1029.7 976 1028.9 973.1 1027.1 973.7C956.2 997.3 882.5 1011.1 808.1 1017.9C734.1 1024.7 659.3 1025.1 585.1 1020.7C542.7 1018.1 500.2 1012.8 459.8 999.2C458.2 998.6 457.4 1001.5 459.2 1002.1Z" fill="#39393C"/>
<path d="M516.8 431C639 402.7 764.8 396.5 889.8 395.3C925.2 394.9 960.6 395 996 395C997.9 395 997.9 392 996 392C870.6 391.8 744.6 391.7 620.1 409C585.1 413.9 550.4 420.1 516 428.1C514.1 428.6 514.9 431.5 516.8 431Z" fill="#39393C"/>
<path d="M1002.2 392.3C1003.5 438.8 1004.3 492.7 1004 552.6C1003.8 587.4 1003.5 570.8 1000.4 715.6C998.6 799 998.1 830.4 992.2 878.6C988.4 910 983.8 935.8 980.4 953.3C1006.2 960.5 1030.8 967.3 1052.4 973.3C1085.8 982.6 1094.7 985.1 1108 987C1128.6 989.8 1153.7 990.2 1182.7 984.3C1193.4 896.7 1199.3 822 1202.7 764.8C1214.9 563.8 1203.5 471.2 1199.1 438.7C1193.1 394.9 1185.7 358.9 1180 334C1158.6 338.1 1141.2 342.5 1129 345.8C1087.1 357.3 1053.9 370.8 1026.1 382.2C1015.8 386.5 1007.5 390 1002.2 392.3Z" fill="white"/>
<path d="M312.8 335.8C312 344.4 311.1 355 310.3 364.2C293.7 553.5 285.4 648.2 282.7 709.1C279.9 774.5 279.7 869.3 293.6 987.2C294.7 989.6 296.7 992.9 300.3 995.6C305 999.1 309.3 999 317.8 1001.4C324.5 1003.3 328 1005.2 331.2 1006.4C340.4 1010 361 1014.1 387.2 1013.1C424.8 1011.6 453.7 1000.1 474.9 991.4C494.8 983.3 510.7 974.6 521.7 968C515.5 912.3 510.9 853.5 508.3 791.8C503 660.6 508.3 540.1 519.2 432.7C514.6 430.9 507.9 428.4 500 425.2C486.4 419.7 453.8 406.4 396.4 378.4C373.7 367.4 345.3 353.1 312.8 335.8Z" fill="white"/>
<path d="M1179.4 333.6C1180.6 340.2 1182.2 349.3 1184 360.2C1186.5 375.7 1192.1 412.4 1196.2 460.6C1200.4 510.8 1201.4 554 1201.5 588.4C1201.8 658.2 1199.2 709.4 1192.4 828.8C1190.3 866 1187.2 920.5 1183.3 987C1187.4 986.7 1191.4 986.5 1195.5 986.2C1197.5 969.6 1200.2 944.9 1202.3 914.7C1203.9 892.9 1204.6 877 1205.3 859.9C1208.8 781.5 1209.4 782.4 1210.6 750.4C1213 687.3 1212.5 638.8 1212.1 595.2C1211.8 565.1 1210.9 536.6 1209.1 479.6C1207.8 440.8 1206.5 406.4 1197.7 361.7C1195.4 350.3 1193.2 340.8 1191.6 334.3C1187.5 334.1 1183.5 333.9 1179.4 333.6Z" fill="#39393C"/>
<path d="M297.5 337.6C296.8 341.1 295.7 346.5 294.6 353.1C291.4 372.2 290.6 386.6 290.3 391.3C288.1 425.3 283.7 441.9 277.3 517.4C276.1 531.2 275.2 543.3 273.4 567.6C269.7 617.2 267.9 642 266.6 670C265.2 701.3 265 723.4 264.7 767.6C264.4 805.8 264.2 833.4 265.2 869.5C266 898.3 267.6 937.4 271.5 984C279.6 986.4 287.6 988.8 295.7 991.2C295.6 986.7 295.3 978.6 294.7 968.5C292.3 923.6 288.4 905.4 287.5 868C287.2 856.5 287.4 848.9 287.5 838C288.6 759.8 287.3 724.1 288 673.3C289.2 590.4 294.8 525.6 299.6 470.4C304.1 418.2 309.2 373.5 313.6 338.5C308.1 338.2 302.8 337.9 297.5 337.6Z" fill="#39393C"/>
<path d="M999.8 394C1003.5 467.4 1003 541 1002 614.4C1000.9 686.2 1000.4 758.2 994.9 829.9C991.8 870.7 986.9 911.4 979.3 951.7C978.9 953.6 981.8 954.4 982.2 952.5C995.5 882 1000.4 810.3 1002.6 738.7C1004.9 665.6 1005.9 592.3 1005.8 519.1C1005.7 477.4 1005 435.7 1002.9 394C1002.7 392.1 999.7 392.1 999.8 394Z" fill="#39393C"/>
<path d="M1003.5 394C1059 366.5 1117.9 346.7 1178.7 335C1180.6 334.6 1179.8 331.7 1177.9 332.1C1116.9 343.9 1057.7 363.9 1002 391.4C1000.3 392.3 1001.8 394.9 1003.5 394Z" fill="#39393C"/>
<path d="M1177.7 334.1C1194.2 417.2 1199.2 502.1 1199.1 586.7C1198.9 671.3 1193.9 755.7 1189.8 840.2C1187.4 888.9 1185 937.5 1182.6 986.2C1182.5 988.1 1185.5 988.1 1185.6 986.2C1189.9 900 1194.4 813.8 1198.3 727.5C1202.1 642.9 1204.5 558.1 1198.8 473.6C1195.6 426.5 1189.9 379.6 1180.7 333.4C1180.2 331.4 1177.3 332.2 1177.7 334.1Z" fill="#39393C"/>
<path d="M979.8 952.3C984.3 957.5 992.3 958.5 998.6 960.4C1007.2 963 1015.9 965.6 1024.5 968.2C1041.9 973.4 1059.2 978.9 1076.8 983.3C1111.2 991.7 1146.5 993.4 1181.4 987.4C1183.3 987.1 1182.5 984.2 1180.6 984.5C1146.2 990.4 1111.4 988.7 1077.6 980.4C1061.5 976.5 1045.7 971.5 1029.9 966.7C1021.9 964.3 1013.9 961.9 1005.9 959.5C1001.9 958.3 997.9 957.1 993.9 955.9C989.7 954.6 985 953.7 982 950.2C980.6 948.8 978.5 950.9 979.8 952.3Z" fill="#39393C"/>
<path d="M1179.7 334.2C1183.4 335.1 1187.1 336 1190.9 336.9C1192.8 337.4 1193.6 334.5 1191.7 334C1188 333.1 1184.3 332.2 1180.5 331.3C1178.6 330.9 1177.8 333.8 1179.7 334.2Z" fill="#39393C"/>
<path d="M1190.7 335.9C1200.7 376.3 1203.4 418.5 1206.3 460C1209.3 502.4 1210.9 544.9 1211.6 587.5C1212.8 672 1209.9 756.5 1205.1 840.9C1202.4 888.7 1199 936.5 1195.5 984.3C1195.4 986.2 1198.4 986.2 1198.5 984.3C1204.8 899.3 1210.5 814.3 1213.2 729.1C1215.9 644.1 1215.7 558.9 1210.3 473.9C1207.4 427.7 1204.8 380.3 1193.7 335.2C1193.1 333.2 1190.2 334 1190.7 335.9Z" fill="#39393C"/>
<path d="M1184.2 987.9C1188.6 987.5 1192.9 987.1 1197.3 986.7C1199.2 986.5 1199.2 983.5 1197.3 983.7C1192.9 984.1 1188.6 984.5 1184.2 984.9C1182.3 985.1 1182.3 988.1 1184.2 987.9Z" fill="#39393C"/>
<path d="M516.7 431.9C510 501.2 506 570.7 504.7 640.3C503.4 710.2 504.8 780.2 509 850C511.3 889.2 514.6 928.3 518.6 967.3C518.8 969.2 521.8 969.2 521.6 967.3C514.4 898.1 509.9 828.6 508.1 759C506.3 689.1 507.2 619.1 510.9 549.3C513 510.1 515.9 471 519.6 431.9C519.9 430 516.9 430 516.7 431.9Z" fill="#39393C"/>
<path d="M314.7 338.2C379.6 374.3 447 405.9 516.2 432.8C518 433.5 518.8 430.6 517 429.9C448 403.1 380.9 371.6 316.2 335.6C314.5 334.6 313 337.2 314.7 338.2Z" fill="#39393C"/>
<path d="M311.6 337.5C300.5 422.1 292.8 507.2 288.6 592.5C284.4 677.8 283.8 763.2 286.6 848.5C288.2 896.4 290.9 944.3 294.7 992.1C294.9 994 297.9 994 297.7 992.1C290.9 907 287.7 821.6 287.9 736.3C288.1 650.9 291.9 565.6 299.1 480.5C303.2 432.7 308.4 385.1 314.6 337.5C314.8 335.6 311.8 335.6 311.6 337.5Z" fill="#39393C"/>
<path d="M294.6 994C350.3 1024.3 417 1017.8 473.6 993.8C490.6 986.6 507 977.9 522.8 968.4C524.4 967.4 522.9 964.8 521.3 965.8C468.6 997.7 406.8 1020 344.5 1008.4C327.6 1005.3 311.2 999.6 296.1 991.4C294.5 990.5 292.9 993.1 294.6 994Z" fill="#39393C"/>
<path d="M272.5 985.7C279.5 989 286.7 991.8 294 994.3C295.8 994.9 296.6 992 294.8 991.4C287.7 989 280.8 986.3 274 983.1C272.2 982.3 270.7 984.9 272.5 985.7Z" fill="#39393C"/>
<path d="M295.5 338.2C284.7 422 275.7 506 269.8 590.3C264 674.2 261.2 758.3 263 842.4C264 890 266.4 937.6 270.5 985C270.7 986.9 273.7 986.9 273.5 985C266.3 900.9 264.2 816.5 266.2 732.1C268.1 648 273.9 564 282.2 480.2C286.9 432.8 292.4 385.4 298.5 338.1C298.8 336.3 295.8 336.3 295.5 338.2Z" fill="#39393C"/>
<path d="M297.2 340.3C303 339.1 308.8 338.7 314.8 339C316.7 339.1 316.7 336.1 314.8 336C308.6 335.7 302.5 336.2 296.4 337.4C294.5 337.8 295.3 340.7 297.2 340.3Z" fill="#39393C"/>
<path d="M1038.1 400.8C1042.3 516.8 1042.1 632.9 1037.3 748.9C1036 781.4 1034.3 813.8 1032.2 846.3C1032.1 848.2 1035.1 848.2 1035.2 846.3C1042.5 730.5 1045.3 614.4 1043.6 498.3C1043.1 465.8 1042.3 433.3 1041.1 400.8C1041 398.9 1038 398.9 1038.1 400.8Z" fill="#39393C"/>
<path d="M1086.6 359.2C1090.6 439.9 1092.6 520.8 1092.5 601.6C1092.5 682.4 1090.5 763.3 1086.5 844C1084.3 889.7 1081.4 935.3 1077.9 980.9C1077.8 982.8 1080.8 982.8 1080.9 980.9C1087.1 900.3 1091.3 819.6 1093.6 738.8C1095.8 658 1096.1 577.1 1094.4 496.3C1093.4 450.6 1091.8 404.9 1089.6 359.2C1089.5 357.3 1086.5 357.3 1086.6 359.2Z" fill="#39393C"/>
<path d="M1144.8 341.4C1150.4 425.3 1153.8 509.4 1154.7 593.6C1155.6 678.1 1154.2 762.5 1150.4 846.9C1148.3 894.2 1145.4 941.5 1141.7 988.7C1141.6 990.6 1144.6 990.6 1144.7 988.7C1151.1 904.8 1155.3 820.7 1157 736.6C1158.7 652.2 1158.1 567.7 1155.1 483.2C1153.4 435.9 1151 388.6 1147.8 341.3C1147.7 339.4 1144.7 339.4 1144.8 341.4Z" fill="#39393C"/>
<path d="M1027.8 883.8C1025.5 910 1021.3 936 1015.2 961.6C1014.8 963.5 1017.6 964.3 1018.1 962.4C1024.3 936.5 1028.5 910.3 1030.8 883.8C1031 881.9 1028 881.9 1027.8 883.8Z" fill="#39393C"/>
<path d="M347.5 357.7C335.5 441.6 330.4 526.4 329.6 611.1C328.9 696.3 332.4 781.4 337.6 866.4C340.5 914.5 343.9 962.5 347.3 1010.6C347.4 1012.5 350.4 1012.5 350.3 1010.6C344.3 925.9 338.3 841.2 335 756.4C331.7 671.8 331.2 587 336.1 502.4C338.9 454.3 343.5 406.2 350.3 358.5C350.7 356.7 347.8 355.8 347.5 357.7Z" fill="#39393C"/>
<path d="M405 385.7C397.4 466.8 392.3 548.2 390.6 629.7C389 711.1 390.9 792.5 397.6 873.7C401.3 918.8 406.5 963.7 413.3 1008.4C413.6 1010.3 416.5 1009.5 416.2 1007.6C404 927 397 845.6 394.4 764.1C391.8 683.7 393.3 603.1 397.7 522.8C400.2 477.1 403.7 431.4 408 385.8C408.2 383.8 405.2 383.8 405 385.7Z" fill="#39393C"/>
<path d="M462.6 409.6C452.8 485.3 447.1 561.5 445.6 637.8C444.1 714.1 446.7 790.5 453.4 866.5C457.2 908.9 462.2 951.1 468.5 993.2C468.8 995.1 471.7 994.3 471.4 992.4C460.1 917 452.9 841.1 449.8 765C446.7 689.1 447.8 613 452.9 537.1C455.8 494.5 460 451.9 465.5 409.5C465.9 407.7 462.9 407.7 462.6 409.6Z" fill="#39393C"/>
<path opacity="0.12" d="M1122.4 348.2C1133.5 393.5 1142.5 446.6 1145.5 506.1C1153 657.5 1117.4 781.2 1086.4 860.6C1064.5 895.7 1042.7 930.8 1020.8 965.9C1042.1 975.1 1073.7 985.8 1113.1 989C1140.3 991.2 1163.9 989.2 1182.3 986.2C1182.5 981.8 1185.8 914.9 1186 910.5C1196.9 686.4 1197.6 671.1 1198 655.7C1199.8 593 1199.5 503 1188.8 390.7C1185.1 371.6 1181.4 352.5 1177.7 333.5C1159.4 338.3 1140.9 343.2 1122.4 348.2Z" fill="#535356"/>
<path opacity="0.13" d="M424.5 397.1C421.9 408 418 424.3 413.4 444.2C393 533 378 598.3 370 658.4C355.8 764.3 342.1 866.9 400.5 951.1C417.5 975.6 436.1 992.1 448.5 1001.9C436.5 1006.6 421.6 1010.9 404.2 1013C355.8 1018.7 317 1003 298 993.6C290.8 927.3 285.8 856.3 284.2 781.2C280.6 615 294.1 465.6 314.7 337.1C351.2 357.1 387.8 377.1 424.5 397.1Z" fill="#535356"/>
<path d="M319.6 289.5C318.3 290.5 319.3 294.4 321.1 301.1C321.8 303.7 322.5 305.7 322.9 307C322.1 312.4 321.4 317.8 320.6 323.2C319 323.4 314.9 324.3 311.1 327.6C307.6 330.7 306.2 334.3 305.7 335.9C308.9 336.2 312.8 336.9 317 338.2C323.1 340.1 327.9 342.7 331.4 344.9C331.4 346.1 331.6 348.4 333.2 350.1C334.6 351.5 336.3 351.7 337.3 351.9C340.9 352.5 345.2 353.3 350.7 354.5C353.1 355.9 357.1 358.2 362 360.9C378.6 369.9 384.6 371.4 401.2 380.2C411.9 385.9 411 386.1 418.5 389.7C430 395.3 439.9 398.6 446.6 400.5C449.4 397.4 453.9 391.4 456.4 382.7C458.4 375.8 458.3 369.8 457.9 365.9C459.6 366.8 462.3 367.8 465.4 367.4C473.4 366.5 478.5 357.4 480.1 350.9C481.5 345.2 480.2 341.6 479.1 334.9C476.6 319.9 474.4 306.5 480.6 298C485.8 290.9 496.5 287.6 505.1 278.1C505.9 277.2 507.4 275.5 506.9 274.7C506 273.2 499 275.8 495.6 277.3C493.4 278.3 476.9 285.9 471.9 303.1C471.1 305.8 471 313.6 470.9 329.1C470.8 340.4 471 346.8 466.5 350.5C464.2 352.4 460.8 353.5 457.7 352.8C453.1 351.8 450.9 347.3 448.9 344.3C443.7 336.4 436.3 333.1 427.2 328.6C420.1 325.1 414 323.8 401.7 321.1C390.1 318.6 386.6 318.9 381.6 315.2C376 311 372.9 305.1 371.3 301.8C369.7 298.7 367.2 293.8 366.1 286.8C365.5 282.7 365.6 279.8 364.6 279.6C362.8 279.2 361.9 287.5 355.8 290.4C352.1 292.2 349.7 290.5 343.2 290.7C339 290.8 334.2 291.7 328.8 294.1C327 292.8 321.4 288.2 319.6 289.5Z" fill="#303032"/>
<path d="M322.6 322.4C320.5 305.9 335.5 290.9 352.1 292.6C367.8 294.2 378.2 313.3 377.7 327.6C377.6 329.5 380.6 329.5 380.7 327.6C381.2 311.8 369.4 291 352.1 289.6C333.9 288.1 317.3 304.2 319.6 322.4C319.9 324.2 322.9 324.3 322.6 322.4Z" fill="#303032"/>
<path d="M322.3 332.8C328.4 344.7 341.5 353.1 355.2 351.3C367.7 349.6 378.3 339.5 380.2 327C380.5 325.1 377.6 324.3 377.3 326.2C375.6 337.6 366.2 346.8 354.8 348.3C342.3 350 330.5 342.2 324.9 331.3C324 329.6 321.4 331.1 322.3 332.8Z" fill="#303032"/>
<path d="M333.1 347.3C332.8 343.5 343.6 341.9 346.3 341.3C351.2 340.2 356.2 339.6 361.2 339.6C370.5 339.6 379.4 342 387.3 346.9C388.9 347.9 390.5 345.3 388.8 344.3C378.6 338 366.7 335.8 354.9 336.9C348.7 337.5 342.6 338.8 336.7 340.8C333.5 341.9 329.7 343.3 330 347.3C330.2 349.2 333.3 349.2 333.1 347.3Z" fill="#303032"/>
<path d="M376.1 312.7C382.4 320.3 392.6 322.1 401.7 324.1C413.8 326.9 426.3 329.4 436.9 336.1C458.8 349.9 462.9 380 445.6 399.3C444.3 400.7 446.4 402.9 447.7 401.4C463.1 384.3 463.5 358.1 447.6 341.1C439.2 332.1 427.2 327.4 415.5 324.3C403.6 321.2 386.5 320.7 378.1 310.5C377 309.1 374.9 311.2 376.1 312.7Z" fill="#303032"/>
<path d="M446.1 365C441.1 358.4 432.3 356.1 424.6 359.3C415.1 363.2 414.6 374.9 415.7 383.8C415.9 385.7 418.9 385.7 418.7 383.8C417.8 376.8 417.7 366 424.9 362.5C431.1 359.4 439.2 361 443.4 366.6C444.6 368.1 447.2 366.6 446.1 365Z" fill="#303032"/>
<path d="M418.3 382.4C412.8 378.2 407.1 374.6 400 376.5C399.2 376.7 398.8 377.6 399 378.3C400.8 385.3 411.8 388.2 417.6 390.7C426.5 394.6 435.6 397.9 444.8 400.8C446.6 401.4 447.4 398.5 445.6 397.9C438.2 395.6 431 393.1 423.8 390.1C419.9 388.5 416.1 386.8 412.3 385C408.9 383.4 402.8 381.5 401.8 377.5C401.5 378.1 401.1 378.7 400.8 379.3C407 377.6 412.1 381.3 416.7 384.9C418.3 386.2 419.8 383.6 418.3 382.4Z" fill="#303032"/>
<path d="M330.4 347C334.3 353.4 342.2 354.5 349.1 355.5C359.3 357 369.5 357 379.7 355.9C381.6 355.7 381.6 352.7 379.7 352.9C371.5 353.8 363.3 354 355.1 353.2C348.2 352.5 337.1 352.1 332.9 345.5C332 343.8 329.4 345.3 330.4 347Z" fill="#303032"/>
<path d="M307.1 336.8C308.4 329.8 314.5 326.2 321.3 325.9C320.8 325.5 320.3 325.2 319.9 324.8C320.4 327.2 321.1 329.5 322.1 331.7C322.8 333.5 325.7 332.7 325 330.9C324.1 328.6 323.4 326.4 322.8 324C322.7 323.4 322 322.9 321.4 322.9C313.4 323.3 305.8 327.7 304.3 336C303.9 337.9 306.8 338.7 307.1 336.8Z" fill="#303032"/>
<path d="M324.5 305.8C323 301.5 321.9 297 321.5 292.4C321.5 292 321.4 291.6 321.4 291.2C321.3 290.3 321.4 290.4 321.8 291.5C322.7 292.1 323.6 292.8 324.5 293.5C326 294.8 327.4 296.2 328.6 297.7C329.9 299.2 332 297 330.7 295.6C329 293.6 321.9 285.4 318.9 288.6C317.4 290.2 318.5 293.9 318.8 295.7C319.3 299.4 320.3 303.1 321.5 306.6C322.3 308.4 325.2 307.7 324.5 305.8Z" fill="#303032"/>
<path d="M358.3 291.8C359.2 290.2 360.1 288.6 361.1 287C361.5 286.3 361.9 285.7 362.2 285C362.8 284 362.8 283.1 364 283.4C365.4 283.7 364.9 287 364.9 288.2C364.9 290.1 365 292 365 293.9C365 295.8 368 295.8 368 293.9C368 290.8 368.1 287.7 367.9 284.6C367.8 282.6 367.1 280.4 364.9 279.7C362.9 279.1 361.5 280.4 360.5 281.9C358.8 284.6 357.3 287.5 355.7 290.2C354.7 292 357.3 293.5 358.3 291.8Z" fill="#303032"/>
<path d="M454.1 357.2C454.7 364.8 463.2 367.3 469.1 363.6C477.8 358.2 479.7 346 478.6 336.8C477.1 324.2 474.1 312.5 478.4 300C482.5 288.1 492.7 278.4 505.6 277.6C507.5 277.5 507.5 274.5 505.6 274.6C488 275.7 476 290.7 473.5 307.3C472 317.2 474.2 326.4 475.5 336.1C476.3 342.5 475.9 348.6 473 354.5C471.7 357 469.9 359.5 467.5 361.1C463.8 363.4 457.4 362.7 457 357.3C457 355.3 454 355.2 454.1 357.2Z" fill="#303032"/>
<path d="M455.7 362.6C458.8 370.9 469.6 367.2 474.3 362.4C482 354.6 480.3 341.6 479.7 331.7C479.6 329.8 476.6 329.8 476.7 331.7C477.1 338 477.7 344.8 476.6 351.1C476.1 354.1 475 356.9 473 359.3C470.8 362 461.2 368.8 458.6 361.8C457.9 360 455 360.8 455.7 362.6Z" fill="#303032"/>
<path d="M505.7 274.5C494.3 278.9 482.8 285.1 478.2 297.1C472.9 310.9 476.7 325.9 476.4 340.2C476.4 342.1 479.4 342.1 479.4 340.2C479.7 327.7 476.7 314.9 479.7 302.5C483 288.9 494.3 282.1 506.5 277.4C508.3 276.7 507.5 273.8 505.7 274.5Z" fill="#303032"/>
<path d="M503.4 276.2C492.9 281 483.3 289.4 478.4 300.1C475.8 305.7 476.2 311.9 476.2 318C476.2 325.8 476.5 333.7 477.1 341.5C477.2 343.4 480.2 343.4 480.1 341.5C479.7 335.2 479.4 329 479.3 322.7C479.2 316.1 478.3 308.3 480.8 302.1C485.1 291.6 494.8 283.5 504.9 278.8C506.7 278 505.2 275.4 503.4 276.2Z" fill="#303032"/>
<path d="M328.5 312.4C331.3 317.3 338.4 315.6 339.1 310.2C339.2 309.2 337.7 309.3 337.6 310.2C337.1 314.3 331.9 315.1 329.8 311.7C329.3 310.8 328 311.6 328.5 312.4Z" fill="white"/>
<path d="M349.7 308.5C352.8 313.8 360.7 311.7 360.8 305.6C360.8 304.6 359.3 304.6 359.3 305.6C359.2 310.3 353.4 311.8 351 307.8C350.5 306.9 349.2 307.6 349.7 308.5Z" fill="white"/>
<path d="M343.7 315.1C344.4 318 343.8 320.9 342 323.3C341.4 324.1 342.7 324.8 343.3 324.1C345.3 321.4 345.9 318 345.2 314.7C344.9 313.8 343.4 314.2 343.7 315.1Z" fill="white"/>
<path d="M344.3 315C344 318.8 346.1 322.4 349.6 324C350.5 324.4 351.2 323.1 350.4 322.7C347.4 321.3 345.5 318.3 345.8 315C345.8 314 344.3 314 344.3 315Z" fill="white"/>
<path d="M319.9 323.9C328.7 323.2 334.3 330.4 340.2 335.7C340.9 336.3 342 335.3 341.3 334.6C335.1 329 329.1 321.7 319.9 322.3C319 322.4 319 323.9 319.9 323.9Z" fill="white"/>
<path d="M336.3 341.5C347.6 334.3 361 331.9 374.1 334.8C375 335 375.4 333.6 374.5 333.4C361 330.5 347.2 332.9 335.6 340.3C334.7 340.7 335.5 342 336.3 341.5Z" fill="white"/>
<path d="M364.7 355.2C374 355.8 382.8 352.9 389.9 346.8C390.6 346.2 389.6 345.1 388.8 345.7C382 351.5 373.6 354.3 364.7 353.7C363.8 353.7 363.8 355.2 364.7 355.2Z" fill="white"/>
<path d="M362 284.2C359.8 287.9 359.3 292.2 360.6 296.3C360.9 297.2 362.3 296.8 362 295.9C360.8 292.2 361.2 288.3 363.2 285C363.8 284.1 362.5 283.3 362 284.2Z" fill="white"/>
<path d="M322.4 293.5C324.8 295 326.3 297.3 326.9 300C327.1 300.9 328.5 300.5 328.3 299.6C327.6 296.5 325.8 293.9 323.1 292.2C322.3 291.7 321.6 293 322.4 293.5Z" fill="white"/>
<path d="M375.3 309.5C377.2 311.8 379.4 313.8 381.9 315.3C382.7 315.8 383.5 314.5 382.7 314C380.3 312.5 378.1 310.6 376.4 308.4C375.7 307.7 374.7 308.8 375.3 309.5Z" fill="white"/>
<path d="M437 358.6C434.9 353.3 424.8 356.9 421.5 359C415.6 362.9 413 370.2 415.2 376.9C415.5 377.8 416.9 377.4 416.6 376.5C414.9 371.2 416.3 365.5 420.5 361.6C422.3 359.9 424.7 358.7 427.1 358.1C428.8 357.6 434.6 356.5 435.5 358.9C435.9 359.9 437.3 359.5 437 358.6Z" fill="white"/>
<path d="M416.4 377C408.6 373.7 400.3 373.4 392.2 375.9C391.3 376.2 391.7 377.6 392.6 377.3C400.5 374.8 408.4 375.2 416 378.4C416.9 378.8 417.3 377.3 416.4 377Z" fill="white"/>
<path d="M691.1 792.9C687 802.7 687 810 686.4 828.8C685.7 852 683.7 875.1 683.5 898.2C683.3 917.7 683 947.2 682.2 985.6C714.2 987.4 749.6 987.8 788 985.9C824.6 984.1 858.4 980.4 888.9 975.8C874.5 927.1 865 891.6 858.2 864.1C854.6 849.4 849.3 827.4 834.7 801.7C826.7 787.6 818.4 777 812.3 769.9C810.7 768.5 775.4 738.8 734.6 752.8C732.6 753.6 702.9 764.4 691.1 792.9Z" fill="#F6747F"/>
<path d="M750 851.2C756.7 863.1 763.4 875 770 886.9C770.9 888.6 773.5 887.1 772.6 885.4C765.9 873.5 759.2 861.6 752.6 849.7C751.7 848 749.1 849.5 750 851.2Z" fill="#F46470"/>
<path d="M749.2 850.6C764.6 869.8 773.5 891.7 778.3 915.7C782.8 938.4 785.7 961.4 787.4 984.5C787.5 986.4 790.5 986.4 790.4 984.5C788.6 960.8 785.6 937.1 781 913.8C776.2 889.7 766.8 867.7 751.4 848.5C750.2 846.9 748 849.1 749.2 850.6Z" fill="#F46470"/>
<path opacity="0.19" d="M773.3 750.5C776.8 757.5 781.8 767.8 787.4 780.2C803.7 816.4 820.6 854.6 829.6 901.6C833.3 920.6 836.8 948.1 835.3 982.4C843.7 982 852.6 981.3 861.9 980.3C871.2 979.3 880.1 978.1 888.5 976.7C885.9 967.9 881.7 953.9 877 936.6C863.9 888.2 862.1 873.1 850.9 841.2C842.6 817.5 834.9 801.4 823.8 786C813.8 772.1 804.4 763.4 792.5 757.3C785.1 753.5 778.2 751.6 773.3 750.5Z" fill="#535356"/>
<path opacity="0.11" d="M749.4 851.7C753.3 866.3 756.7 883.7 758.3 903.3C761.1 937.2 757.5 966.1 753.1 987.7C764.6 987 776 986.3 787.5 985.6C786.3 962.9 783.7 943.8 781.2 929.3C774.9 892.4 768.3 878.7 763 869.9C758 861.8 753 855.7 749.4 851.7Z" fill="#535356"/>
<path d="M621.3 622.5C618 624.7 616 628.9 612.1 637.2C608.9 644 607.4 649.3 605 657.2C598.4 679.6 599.1 675.8 596.8 684.3C593.8 695.6 588.4 715.4 585.4 741.5C582.5 766.8 583.1 786.3 583.2 791C584.3 820.7 589.5 842.8 593 857C599.2 882.5 607.5 903.7 624 946C627.6 955.1 630.6 962.6 632.7 967.8C631.2 968 628.8 968.3 625.9 968.7C610.8 970.5 608.7 970.1 602.6 971.4C594.8 973.1 587.8 974.8 585.1 980.7C583.9 983.4 583.4 987.2 584.9 988.5C586.8 990.1 590.5 986.5 596.9 984.4C602.3 982.7 607.1 982.8 610.4 983.3C607.8 988.4 606.3 993 605.4 996.3C603.2 1003.9 601.5 1010.1 604.3 1014.5C605.7 1016.7 608.4 1018.7 610.6 1018.1C611.8 1017.8 612.9 1016.7 615.9 1008.8C618.8 1000.9 619 998.4 621.4 995.3C623.5 992.7 625.9 991.3 627.5 990.5C626.7 993 625.8 996.7 625.4 1001.2C625.2 1003.9 624.9 1006.4 625.4 1009.6C625.8 1012.5 626.7 1018.7 631.3 1022.1C632.1 1022.7 635.4 1025.2 637.4 1023.9C639.1 1022.9 638.6 1020.1 639.3 1011.1C639.9 1003.5 640.5 1001.4 641 1000.2C642.3 996.7 644.3 994.2 645.8 992.7C645.3 999.9 645.4 1005.9 645.6 1010.3C646 1017.4 646.7 1020.6 649 1022.6C650.3 1023.7 652.5 1024.8 654.3 1024C656.1 1023.2 656.7 1020.7 657.2 1017.6C659.4 1005.9 658.1 1002.5 660.6 996.6C661.6 994.3 662.7 991.5 665.4 989.5C671.1 985.3 679.2 987.8 680.3 988.1C685.1 989.6 686.9 992.2 689.3 991.1C691.3 990.2 692.4 987.3 692.5 984.9C692.6 979 686.1 974.5 680.5 970.8C677.7 968.9 673.5 966.4 667.9 964.4C663 954.7 656.8 940.6 651.7 922.7C648.3 910.7 646.7 901.5 645.2 892.8C639.9 862.3 641.8 850.6 635.9 820.3C634.5 813 633.1 807.2 632.3 803.9C632.7 798.9 633.4 791.1 634.4 781.6C637.7 750.6 639.9 731.2 646.6 708.4C651.9 690.5 657.3 675.8 657.3 675.8C664.1 657.5 666.3 655 665.5 649.1C662.7 630.5 633.6 614.3 621.3 622.5Z" fill="white"/>
<path d="M613.6 632C595.8 673.1 584.6 717 582.2 761.8C579.7 807.5 587.6 852.2 602.4 895.4C610.8 920.1 621 944.1 631.4 968.1C632.2 969.9 634.7 968.3 634 966.6C616 925 598.4 882.8 590 838.2C581.7 794.2 583.4 748.7 593 705C598.4 680.5 606.2 656.6 616.2 633.6C616.9 631.8 614.4 630.2 613.6 632Z" fill="#39393C"/>
<path d="M650.9 689.1C638.3 727.2 631.7 767.1 631 807.2C631 809.1 634 809.1 634 807.2C634.7 767.3 641.3 727.8 653.8 689.9C654.4 688.1 651.5 687.3 650.9 689.1Z" fill="#39393C"/>
<path d="M620.5 789C629.4 801.4 633 816.2 635.1 831C637.3 846.1 638.3 861.4 640.5 876.5C644.9 907.2 652.1 937.8 666.6 965.3C667.5 967 670.1 965.5 669.2 963.8C654.1 935.2 647 903.3 642.8 871.5C639.1 843.6 640.2 811.3 623.1 787.5C622 786 619.4 787.5 620.5 789Z" fill="#39393C"/>
<path d="M631 966.7C621.7 967.2 612.4 968.1 603.3 969.8C596.8 971.1 589.9 973.2 585.4 978.4C582.8 981.5 579.5 988.9 585.2 991C587.7 991.9 589.9 990.2 592 989C597.2 986 602.6 982.9 608.8 984.6C610.7 985.1 611.5 982.2 609.6 981.7C604.5 980.3 599.9 981.5 595.3 983.8C593.9 984.5 592.6 985.2 591.3 986C590.5 986.4 589.8 986.9 589 987.4C588.1 985.8 587.1 984.2 586.2 982.6C586.4 980.1 591.4 977.2 593.2 976.2C598.1 973.6 603.8 972.7 609.2 971.9C616.5 970.8 623.8 970.1 631.1 969.7C633 969.6 633 966.6 631 966.7Z" fill="#39393C"/>
<path d="M622.8 975.6C614.9 976.9 608.4 982.3 605.4 989.6C602.2 997.2 599.5 1008.5 603.2 1016.3C606 1022.2 612.9 1024.3 615.5 1017.1C617.1 1012.6 616.8 1007.7 618.4 1003.2C620.4 997.6 623.8 992.8 628.8 989.5C630.4 988.4 628.9 985.8 627.3 986.9C622.6 990 619.1 994.2 616.8 999.3C615.6 1001.9 614.7 1004.6 614.1 1007.4C613.6 1009.7 613.3 1021.3 607.8 1017.9C604.7 1016 604.4 1009.9 604.5 1006.8C604.7 1002.2 605.9 996.9 607.4 992.5C609.9 985.1 615.8 979.8 623.5 978.5C625.5 978.2 624.7 975.3 622.8 975.6Z" fill="#39393C"/>
<path d="M632.2 983C626 987 623.8 995.7 623.2 1002.7C622.6 1010.2 624.7 1018.3 630.3 1023.6C633.6 1026.7 638.7 1028.3 639.6 1022.5C641.1 1012.8 637.2 999.1 647.8 993.3C649.5 992.4 648 989.8 646.3 990.7C642.5 992.8 640.1 996.2 638.6 1000.3C636.5 1006.3 637.7 1012.4 636.8 1018.6C636.4 1021.4 635.6 1024.4 632.5 1021.5C631.4 1020.5 630.4 1019.2 629.6 1017.9C627.7 1014.9 626.6 1011.5 626.3 1008C625.6 1001 627.4 989.8 633.8 985.6C635.3 984.5 633.8 981.9 632.2 983Z" fill="#39393C"/>
<path d="M646.4 991C644.5 998.2 642.7 1005.7 643.9 1013.2C644.4 1016.8 646.5 1025.6 651.1 1026.5C656.3 1027.5 658.4 1018.3 658.9 1014.9C660 1007.5 658.6 998.6 664.4 992.9C665.8 991.5 663.7 989.4 662.3 990.8C655.3 997.7 657.7 1007.7 655.6 1016.5C654.9 1019.7 652.9 1024.5 649.6 1020.8C647.8 1018.9 647.3 1015.2 646.9 1012.7C645.9 1005.7 647.6 998.7 649.4 991.9C649.8 990 646.9 989.2 646.4 991Z" fill="#39393C"/>
<path d="M668 967C673.9 969.4 680 972 684.6 976.6C686.7 978.7 689.3 981.9 689.9 984.9C691.4 993.2 685.2 987.9 682.9 986.9C676.6 984.1 664.1 986.1 660.5 992.5C659.6 994.2 662.2 995.7 663.1 994C665 990.5 670.2 989.6 673.8 989.1C676 988.8 678.5 988.6 680.6 989.2C683 989.9 684.5 992 686.8 992.7C690.1 993.7 692.6 991.4 693.1 988.2C694 983 689.5 977.2 686 973.8C681.1 969.1 674.8 966.5 668.6 964C667 963.4 666.3 966.3 668 967Z" fill="#39393C"/>
<path opacity="0.13" d="M647.8 656.8C636.3 657.5 629.4 686.9 625.6 703.2C621.3 721.5 617.4 746.7 618.2 783.4C618.9 816.2 623.1 841.2 624.5 849.9C630.8 887.3 640.7 918.7 650.4 943.3C653.6 952.3 656.7 961.3 659.9 970.2C658.1 977.6 656.3 985.2 654.6 993.1C652.4 1003.5 650.4 1013.7 648.8 1023.5C650.7 1023.7 653.3 1023.6 655.1 1021.8C657.4 1019.5 657.1 1015.8 657.2 1012.6C657.3 1009.6 657.6 995.1 664.1 989.7C668.1 986.4 674.5 986.4 678.9 988C683.4 989.7 685.4 993 688.4 992C690.7 991.3 692.3 988.5 692.6 986.3C693.6 979 679.6 971.5 677.3 970.3C672.8 967.9 670.7 967.6 667.8 964.6C664.2 960.8 663 956.3 662.5 954.3C654.2 922.7 650.1 924.7 644.5 888.4C640.3 861 643 862.6 638.7 840.8C635.7 825.4 633.2 819.1 632.4 805.8C631.5 791.2 633.2 779.8 635 769.7C642.5 728.4 656.9 678.4 660.4 666.5C657.2 661.5 652.8 656.5 647.8 656.8Z" fill="#535356"/>
<path d="M851.9 245.7C848.8 245.6 846.4 251.2 845.8 252.7C844.9 254.9 843.5 259.2 844.5 265.3C844.5 265.3 845.1 269.5 847.1 294.9C847.6 300.6 847.7 308.9 846.2 319.3C842.2 330.3 838.4 338.9 835.8 344.5C827 363.3 821.1 370.8 808.8 394.6C804.2 403.5 803.8 404.9 798.4 415.9C784.9 443.2 775 460.3 764.9 478.6C756 494.6 743.5 518.1 728.8 548.3C728.1 550.9 724.6 564.8 732.7 577C741.3 589.9 759.3 595.7 776.7 590.1C779.4 586.3 783.2 580.4 786.7 572.7C790.1 565.2 791.7 559.4 792.8 555.7C793.9 552 798.3 539.5 807.2 514.3C810 506.5 813.4 497.2 820.3 479C830.8 451.1 836 437.2 839.5 428.5C847.4 408.7 853.4 395 865.2 368.4C871.4 354.4 879 337.5 887.8 318.3C892.9 315.4 899.9 310.9 907.4 304.4C918.2 295.1 923.6 287.2 934 272.2C940.7 262.4 945.8 253.8 944.4 245.2C944.2 244 943.7 240.5 941.8 240C939.4 239.3 936.4 244.1 933.1 248.3C929.7 252.6 924.6 258.2 917 264C919.6 256.8 922.2 251.2 924 247.5C928.1 239.1 931.5 233.7 933.6 224.4C935.9 214.5 933.8 212.7 933.2 212.2C930.5 210.2 925.9 214 923.2 211.8C920.8 209.7 922.9 205.1 921 204C919.1 202.9 914.9 206.2 911.9 209.7C906.7 215.7 905.5 221.5 903.6 227.1C901.8 232.6 898.5 240.1 892.3 248.4C890.8 248.6 888.8 248.7 887.9 247.5C886.9 246.1 888.3 243.8 889.6 240.1C889.9 239.2 889.7 239.7 891.8 230.5C892.6 227 894.1 220.5 895.3 215.3C897 207.8 897.8 204.7 896.2 201.4C895.9 200.7 894.6 198 892.7 197.9C890.5 197.8 888.8 201.3 887.5 204C882.2 214.9 879.5 220.4 878.8 222.3C875.3 231.8 870.6 246.3 869.9 251.3C869.8 251.9 869.6 254 868.6 256.7C868.1 258 867.8 258.5 867.5 259.3C865 264.9 867.1 268.6 864.5 270.6C864.2 270.8 862.7 271.9 861.5 271.5C860.2 271.1 859.6 269.4 858.9 263.7C857.9 255.9 858.5 253.6 856.7 250.2C855.5 248.7 854 245.8 851.9 245.7Z" fill="white"/>
<path d="M847.1 292C847.8 284.7 846.7 277.6 846.3 270.3C846.1 266.8 846.1 263.2 846.6 259.7C846.9 257.7 847.3 255.7 847.9 253.8C848.9 250.9 849 248.5 852.2 248.4C855.2 248.3 855 250.1 855.5 252.6C856 254.8 856.1 257.1 856.2 259.3C856.4 262.4 856.5 265.6 857.2 268.6C857.9 271.7 859.8 274.3 863.3 273.2C865.1 272.6 864.4 269.7 862.5 270.3C859 271.3 859.3 259.5 859.1 257.5C858.8 254.3 858.5 251 857.3 248C855.6 243.8 851.7 241.7 848.4 245.6C844.1 250.6 843.2 259.6 843.2 265.8C843.2 274.6 844.9 283.2 844.1 292C844 293.9 847 293.9 847.1 292Z" fill="#39393C"/>
<path d="M864.5 272C869.5 262.3 871 251.3 873.9 240.9C877 229.7 880.9 218.7 886.7 208.7C888 206.5 889.3 203.4 891.2 201.7C894.9 198.3 894.9 204.8 894.6 207.6C894 213.8 892.4 220.1 891 226.2C889.7 231.8 887.9 237.2 886.6 242.8C885.9 245.9 885.9 248.6 888.1 251C889.4 252.4 891.5 250.3 890.2 248.9C887.7 246.2 890.3 240.8 891.1 237.9C892 234.6 892.9 231.3 893.6 228C895 221.9 896.4 215.7 897.3 209.4C897.8 206.1 898.5 200.3 895.6 197.8C893.1 195.7 890.6 197.7 888.9 199.7C881.6 208.8 877.1 220.8 873.5 231.8C869.4 244.5 868.1 258.7 861.9 270.6C861 272.2 863.6 273.7 864.5 272Z" fill="#39393C"/>
<path d="M888.8 251.3C891.8 251.6 892.9 249.4 894.3 247C896.5 243.2 898.5 239.2 900.4 235.3C904.1 227.7 906.7 219.4 911.2 212.3C912.2 210.7 913.4 208.7 915 207.5C916.3 206 918 205.5 920.2 206.2C920.5 207.6 920.7 209 920.7 210.4C920.8 215.3 919.2 220.2 917.5 224.8C914.1 233.9 910.3 242.9 906.6 252C905.9 253.8 908.8 254.6 909.5 252.8C911.6 247.6 933.2 202 919.1 201.7C916.3 201.6 913.1 205.1 911.5 207C908.7 210.3 906.7 214.1 904.9 218C902.8 222.7 900.9 227.4 898.7 232C897.4 234.8 895.9 237.7 894.5 240.4C893.6 242.2 891.4 248.4 888.9 248.2C886.9 248.1 886.9 251.1 888.8 251.3Z" fill="#39393C"/>
<path d="M924.2 214.5C925.3 208.7 931.6 212.7 932.4 216.4C933.1 219.5 931.9 222.6 930.9 225.5C929.4 229.9 927.7 234.2 925.9 238.4C922.4 246.6 918.3 254.4 913.7 262.1C912.7 263.8 915.3 265.3 916.3 263.6C920.6 256.5 924.4 249.1 927.8 241.6C930.7 235.1 934.2 227.9 935.3 220.8C936 216.3 934.7 210.5 929.7 208.9C926 207.7 922 210 921.3 213.8C921 215.6 923.9 216.4 924.2 214.5Z" fill="#39393C"/>
<path d="M918.4 264.8C922.2 260.5 925.9 256.2 929.7 251.9C931.7 249.6 933.5 247.1 935.7 245.1C936.4 244.5 937.1 244 937.7 243.4C939.4 244 941.1 244.6 942.9 245.2C943.4 246.1 942.2 248.7 941.9 249.5C938.8 259 934.3 268 929 276.4C918.3 293.3 903.6 307.5 886.4 317.8C884.7 318.8 886.3 321.4 887.9 320.4C909.3 307.6 926.9 288.8 938 266.5C940.7 261.1 943.3 255.4 945 249.6C946 246.2 946.6 241.6 942.7 239.8C938.9 238 934.9 241.5 932.5 244C926.8 249.9 921.6 256.5 916.2 262.7C915 264.1 917.1 266.2 918.4 264.8Z" fill="#39393C"/>
<path d="M844.5 288.9C845.2 298.1 845.9 307.5 844.4 316.7C842.9 325.8 839.1 334.2 834.9 342.4C826.4 359 817.5 375.4 808.8 391.9C791.4 424.9 774 457.8 756.6 490.8C746.6 509.7 736.6 528.7 726.6 547.6C725.7 549.3 728.3 550.8 729.2 549.1C765.1 481 801.7 413.2 837 344.7C841.2 336.6 845.1 328.3 846.8 319.4C848.8 309.3 848.1 299.1 847.3 288.9C847.4 287 844.4 287 844.5 288.9Z" fill="#39393C"/>
<path d="M886.2 317.1C854.2 384.7 826.3 453.9 801.7 524.5C794.5 545 787.3 565.5 778.6 585.4C777.8 587.2 780.4 588.7 781.2 586.9C796.1 553 807 517.5 819.8 482.9C832.9 447.3 847.1 412 862.2 377.2C870.8 357.5 879.6 338 888.8 318.6C889.6 316.9 887 315.4 886.2 317.1Z" fill="#39393C"/>
<path opacity="0.1" d="M931.4 213.3C927.3 212.7 921.8 229.5 918.6 237.9C908.9 263.7 900.7 266.7 879.9 301.7C872.2 314.6 861.6 334 850.9 359.3C818.9 426.7 787 494.2 755 561.6C762.8 571.1 770.5 580.7 778.3 590.2C782.2 579.1 787.9 562.8 795 543.1C807.9 507.6 824.6 461.9 848.2 406.3C857.6 384.3 870.6 354.6 887.3 319.7C891.9 316.8 898.3 312.3 905.3 306.1C914.7 297.9 927.1 286.8 935.6 268.7C938.3 263.1 941.7 254.5 943.5 243.2C942.2 242.6 940.3 241.9 938.2 242.3C934.6 243 932.7 246.5 931.2 248.9C925.4 257.8 916.9 263.7 915.8 263C915.2 262.5 916.9 259.6 921.5 250.2C930.9 230.9 927 236 930.7 229.5C932.8 225.8 934.9 222.6 934.2 218.5C934.2 216.7 933.1 213.6 931.4 213.3Z" fill="#535356"/>
<path opacity="0.13" d="M925.3 281.5C920.3 284.7 913.2 289.4 905.1 295.6C895.8 302.6 885.8 310.2 877.4 319.8C866 332.8 861 345.7 858 353.2C830.5 423.4 797.8 499.6 788.5 520.8C783.4 532.4 775.4 549.9 764.8 570.9C769.6 577.2 774.5 583.5 779.3 589.8C793.1 547.7 809 503.6 827.2 457.9C846.8 408.8 867.1 362.9 887.5 320.2C893 316.5 899.2 311.8 905.5 305.7C914.4 297.2 920.8 288.6 925.3 281.5Z" fill="#535356"/>
<path d="M659.4 571C655.7 573.5 647.4 579.3 638.9 588.7C630.1 598.4 625 607.5 620.8 615.2C617.5 621.1 615.1 626.3 613.4 630.1C616 635.1 620.2 642.8 626 652C636.3 668.3 644.3 677.1 658.1 694.8C663.9 702.2 672.3 713.3 682.3 727.3C683.9 734.8 685.3 742.7 686.5 751C688.9 768 689.8 783.8 689.8 798C693.5 802 699.9 807.8 709.3 811.9C724.9 818.8 739.1 816.8 746.5 815.6C762.9 813.1 774.1 805.8 781.8 800.7C795.8 791.5 805.3 780.5 811.6 771.4C810.3 755.8 808.6 739.7 806.5 723C804.7 708.8 802.7 695 800.5 681.6C800.3 671.1 799.3 656.8 795.9 640.2C793.1 626.3 789.7 610.1 779.6 590.9C767 567 751.3 552.5 745.2 547.2C739.8 542.5 734.9 539 731.3 536.5C716.7 545.8 704.1 551.6 695.5 555.1C679.5 561.7 672 562.7 659.4 571Z" fill="white"/>
<path d="M615 630.5C618.1 618.7 626.7 607.7 634.1 598.1C641.9 588.1 650.7 579 661.2 571.7C662.8 570.6 661.3 568 659.7 569.1C648.9 576.6 639.8 585.9 631.8 596.2C624.1 606.1 615.4 617.3 612.2 629.6C611.7 631.6 614.6 632.3 615 630.5Z" fill="#39393C"/>
<path d="M612.8 631.5C633.4 667.5 657.8 701.3 685.5 732.2C686.8 733.6 688.9 731.5 687.6 730.1C660.1 699.4 635.9 665.8 615.4 630C614.4 628.3 611.8 629.8 612.8 631.5Z" fill="#39393C"/>
<path d="M697.4 556.5C708.6 548.6 720.9 542.7 734 538.9C735.9 538.4 735.1 535.5 733.2 536C719.8 539.9 707.3 545.9 695.9 553.9C694.3 555 695.8 557.6 697.4 556.5Z" fill="#39393C"/>
<path d="M731.5 539.7C779.3 573 799.8 631.4 797.5 687.9C797.4 689.8 800.4 689.8 800.5 687.9C802.9 630.2 781.7 571 733 537.1C731.5 536 730 538.6 731.5 539.7Z" fill="#39393C"/>
<path d="M679 726.3C684.2 737 684.8 750.3 685.9 761.9C687.1 773.7 687.5 785.6 687.5 797.5C687.5 799.4 690.5 799.4 690.5 797.5C690.6 784.3 690 771.1 688.5 758C687.3 746.9 686.5 734.9 681.6 724.7C680.7 723 678.2 724.5 679 726.3Z" fill="#39393C"/>
<path d="M689.4 798.1C704.4 816.5 730 821.7 752.3 816C764.7 812.8 776.2 806.7 786.5 799.1C796.8 791.5 806.6 782.7 812.4 771.1C813.3 769.4 810.7 767.9 809.8 769.6C804.2 780.7 794.8 789.2 784.9 796.5C775.3 803.6 764.6 809.4 753 812.7C731.2 818.8 706.1 814.1 691.4 796C690.3 794.5 688.2 796.6 689.4 798.1Z" fill="#39393C"/>
<path d="M798.6 683.4C803.5 712.7 808.3 742 810 771.6C810.1 773.5 813.1 773.5 813 771.6C811.2 741.7 806.4 712.1 801.5 682.6C801.2 680.7 798.3 681.5 798.6 683.4Z" fill="#39393C"/>
<path opacity="0.13" d="M701.2 552.5C712.3 565.6 727.5 586 740.2 613.6C758.8 654 762.5 688.9 765.3 718.6C767.5 741.2 768.7 772.7 764.3 810.3C772.8 806.6 784.8 800.2 796.4 789.1C802.8 782.9 807.6 776.7 811.2 771.3C807.9 743.4 804.6 715.4 801.3 687.5C801.9 664.5 798.3 645.9 794.9 633.3C784.4 594.3 764.2 569.2 757.4 561.3C748.1 550.4 739 542.4 732.3 537.1C721.9 542.3 711.6 547.4 701.2 552.5Z" fill="#535356"/>
<path opacity="0.14" d="M775.7 587.5C773.9 588 778.1 604.3 782.1 628.4C782.1 628.4 788.2 665 789.5 700.4C790.4 723.8 789.2 758 778.7 800.5C783.5 798.1 789.4 794.6 795.5 789.7C802.9 783.7 808.2 777.4 811.8 772.4C810.5 732.1 807.1 711.2 803.9 699.4C803.3 697.1 801.7 691.7 800.4 684.1C798 669.9 799.2 663.8 797.9 652C796.9 642.6 795 636.4 791.5 624.9C786.2 607.6 777.7 586.9 775.7 587.5Z" fill="#535356"/>
<path d="M658 406.5C651.4 410.2 643 415.8 634.9 424.3C618.1 442.2 612.7 462.2 610.8 472.1C609.3 471.9 605.2 471.6 601.9 474.2C597 478 596.9 485.5 598.8 489.9C599.5 491.5 600.5 492.8 602.6 495.4C605.1 498.5 606.7 500.4 609.3 501.5C610.4 502 612.9 502.7 616.5 501.9C617.6 505.2 619.4 509.8 622.1 515.1C625.6 521.9 630.9 532 641.5 540.8C644.6 543.4 649.4 546.8 655.9 549.9C658.3 553 662.7 559.5 663.2 568.3C664.2 583.8 652.9 596.7 642.2 602.4C623.6 612.3 603.4 602.4 596 598.7C592 596.7 571.9 586.3 563.5 563.5C553.3 536 566.6 508.5 574.5 492.1C582.5 475.6 586.2 476.7 592.3 460.6C600.4 439.3 596.1 431.8 605.4 415.5C609 409.1 616.3 396.3 631.6 390.3C644.7 385.2 656.8 387.8 662 389.3C666.3 386.7 673.9 383 683.5 383C706.3 383 720.9 404.6 724.4 409.8C734.8 425.1 729.3 429.8 738.6 451.3C750.3 478.4 761.7 476.8 772.2 502.2C777.3 514.6 785.8 535.1 776.4 554.7C766.7 574.9 744.6 580.8 741.8 581.5C736.7 582.8 723 586.2 709.3 578.9C708 578.2 690.8 568.8 689.4 552.7C688.9 546.8 690.6 541.3 691 540.1C693.1 533.6 696.7 529.4 697.8 528C702.1 522.7 707.3 512.9 710.9 493.4C712.6 493.3 715.4 492.9 718.2 491.3C724.1 487.9 726.9 481 726.6 475C726.5 473.6 726.1 465.6 720.3 462.9C717.9 461.8 715.4 462.1 714 462.4C695.4 443.6 676.7 425.1 658 406.5Z" fill="#5C1EE8"/>
<path d="M658 406.4C646.9 412.9 639.2 420.1 634.3 425.4C618 443.1 612.8 461.6 611.7 465.9C611 468.6 610.5 470.8 610.3 472.4C609.2 472 606.7 471.3 604.2 472.4C600.4 474.1 599.6 478.7 599.2 481C598.2 486.3 600.2 490.5 601 492.1C602.1 494.4 603.9 498.1 608.2 500C611.7 501.6 615 501 616.4 500.7C617.8 504.3 619.8 509.3 622.9 515C627.6 524 632 532.3 640.5 539.7C643.8 542.6 649.2 546.6 657 549.7C658.6 552.2 660.8 556.1 662 561.2C663 565.2 663.2 568.6 663.1 571.2C665.7 572.5 670.6 574.5 676.7 574.4C688.4 574.2 696.1 566.9 697.9 565.1C696 559.4 694.3 552.4 693.6 544.3C693.3 540.6 693.2 537.1 693.2 533.9C696.3 530.6 700.1 525.9 703.2 519.6C708.7 508.7 709.6 498.6 709.7 492.7C711.1 492.9 713.9 493.2 716.9 492C721.1 490.3 723 486.6 724.1 484.5C724.4 484 728.6 475.4 724.8 466.9C723.9 465 722.4 461.5 719.4 461.2C717.2 461 715.4 462.7 714.7 463.4C710.6 458.5 702.9 449.4 692.1 436.9C682.8 426 676.9 419.2 667 412.2C663.4 409.6 660.2 407.7 658 406.4Z" fill="white"/>
<path d="M644.2 512.5C643.2 514.8 647.9 518.9 650.1 520.6C654.7 524 659.6 524.5 661.4 524.6C663.5 524.8 670.4 525.3 676.7 520.8C678.2 519.7 682.4 516.8 684 511.4C685.1 507.5 684.8 502.1 682.7 501.2C681.1 500.6 679.6 502.6 676.2 505C670.2 509.1 664 510.1 658.7 510.9C649.7 512.3 645.2 510.5 644.2 512.5Z" fill="#303032"/>
<path d="M612.5 489.4C616.1 504.4 621.9 519.1 631.5 531.3C640 542.2 652.6 552.7 667.3 551.3C680.9 550 692 539.4 699.2 528.6C707.7 516 711.8 500.9 711.4 485.7C711.3 483.8 708.3 483.8 708.4 485.7C708.8 499.6 705.2 513.2 697.9 525C691 536.1 679.6 547.8 665.7 548.4C651 549 638.9 537 631.1 525.8C623.3 514.6 618.5 501.7 615.3 488.5C614.9 486.7 612 487.5 612.5 489.4Z" fill="#39393C"/>
<path d="M655 549.9C659.2 556.3 661.3 563.3 661.3 571C661.3 572.9 664.3 572.9 664.3 571C664.3 562.9 662 555.2 657.6 548.4C656.6 546.7 654 548.2 655 549.9Z" fill="#39393C"/>
<path d="M662.7 572.2C674.9 579.2 690.7 575.8 699 564.6C700.2 563.1 697.6 561.6 696.4 563.1C689 573 674.8 575.8 664.2 569.6C662.5 568.7 661 571.3 662.7 572.2Z" fill="#39393C"/>
<path d="M691.5 536.5C691.6 545.6 693 554.6 695.9 563.3C696.5 565.1 699.4 564.3 698.8 562.5C696.1 554 694.6 545.4 694.5 536.5C694.5 534.5 691.5 534.5 691.5 536.5Z" fill="#39393C"/>
<path d="M615.5 498.9C614.2 500.3 611 499.8 609.5 499C608.3 498.4 607.2 497.5 606.3 496.6C604.3 494.7 602.7 492.4 601.7 489.9C599.7 485.2 598.8 471.7 607.7 474.1C609.6 474.6 610.4 471.7 608.5 471.2C597.5 468.3 595.8 482.9 598.6 490.2C600.8 496.1 610.9 508.3 617.7 501C618.9 499.6 616.8 497.5 615.5 498.9Z" fill="#39393C"/>
<path d="M716 463.9C717.2 459.9 722.4 467.6 723 469C724.2 472.2 724.6 475.7 724.1 479.1C723.3 485.9 717.9 492.4 710.4 490.5C708.5 490 707.7 492.9 709.6 493.4C721.7 496.5 728.2 483.9 727.1 473.6C726.6 469.1 724.8 463.3 720.5 460.9C717.7 459.4 714.1 459.8 713.1 463C712.5 465 715.4 465.7 716 463.9Z" fill="#39393C"/>
<path d="M626.2 442.7C629.5 436.4 635.3 432.3 642.3 431.3C644.2 431 643.4 428.1 641.5 428.4C633.8 429.5 627.2 434.3 623.6 441.2C622.7 442.9 625.3 444.4 626.2 442.7Z" fill="#39393C"/>
<path d="M672.4 427.3C680.8 425.3 689.2 429.5 693 437.1C693.9 438.8 696.4 437.3 695.6 435.6C691.2 426.7 681.2 422.1 671.6 424.4C669.7 424.9 670.5 427.8 672.4 427.3Z" fill="#39393C"/>
<path d="M650.6 439.6C652.5 450.2 653 461.1 651.9 471.9C651.5 475.2 649.9 479.9 651.4 483.2C653 486.8 657.3 489.9 660 492.7C661.3 494.1 663.5 492 662.1 490.6C660.3 488.7 658.5 486.9 656.7 485C653.9 482.1 653.6 481.2 654.2 477C654.7 473.2 655.2 469.3 655.4 465.4C655.8 456.5 655.1 447.6 653.5 438.9C653.2 436.9 650.3 437.7 650.6 439.6Z" fill="#39393C"/>
<path d="M638 465.3C636.5 462.9 635.8 460.3 636 457.5C636 456.9 636.4 454.3 636.9 454.2C637.2 454.2 637.7 457.7 637.8 458.1C638 459.4 638.1 460.8 638.1 462.1C638.1 462.5 638 465.8 638 463.8C637.9 460.9 638.1 458 638.2 455.1C637.2 455.2 636.2 455.4 635.3 455.5C635.8 458.6 636.1 461.7 636.1 464.9C637.1 464.9 638.1 464.9 639.1 464.9C639.1 464.5 639.1 464.1 639.1 463.7C639.1 461.8 636.1 461.8 636.1 463.7C636.1 464.1 636.1 464.5 636.1 464.9C636.1 466.8 639.1 466.8 639.1 464.9C639.1 461.5 638.8 458.1 638.2 454.7C637.9 453 635.3 453.5 635.3 455.1C635.2 458.3 634.8 461.8 635.2 465C635.4 466.5 636.1 467.9 637.8 468.2C642.8 469.2 641.3 459.4 640.9 457C640.6 455.1 640.3 452.2 638.5 451.1C637 450.2 635.4 451.1 634.5 452.5C632 456.7 633.4 462.9 635.7 466.7C636.4 468.4 639 466.9 638 465.3Z" fill="#39393C"/>
<path d="M684.2 460C682.7 457.6 682 455 682.2 452.2C682.2 451.6 682.6 449 683.1 448.9C683.4 448.9 683.9 452.4 684 452.8C684.2 454.1 684.3 455.5 684.3 456.8C684.3 457.2 684.2 460.5 684.2 458.5C684.1 455.6 684.3 452.7 684.4 449.8C683.4 449.9 682.4 450.1 681.5 450.2C682 453.3 682.3 456.4 682.3 459.6C683.3 459.6 684.3 459.6 685.3 459.6C685.3 459.2 685.3 458.8 685.3 458.4C685.3 456.5 682.3 456.5 682.3 458.4C682.3 458.8 682.3 459.2 682.3 459.6C682.3 461.5 685.3 461.5 685.3 459.6C685.3 456.2 685 452.8 684.4 449.4C684.1 447.7 681.5 448.2 681.5 449.8C681.4 453 681 456.5 681.4 459.7C681.6 461.2 682.3 462.6 684 462.9C689 463.9 687.5 454.1 687.1 451.7C686.8 449.8 686.5 446.9 684.7 445.8C683.2 444.9 681.6 445.8 680.7 447.2C678.2 451.4 679.6 457.6 681.9 461.4C682.6 463.2 685.2 461.7 684.2 460Z" fill="#39393C"/>
<path d="M623.2 474.5C625.1 474.5 625.1 471.5 623.2 471.5C621.3 471.5 621.3 474.5 623.2 474.5Z" fill="#39393C"/>
<path d="M635 476.7C635.1 476.7 635.2 476.7 635.4 476.7C636.2 476.7 636.9 476 636.9 475.2C636.9 474.4 636.2 473.7 635.4 473.7C635.3 473.7 635.2 473.7 635 473.7C634.2 473.7 633.5 474.4 633.5 475.2C633.5 476 634.1 476.7 635 476.7Z" fill="#39393C"/>
<path d="M628 485.9C629.9 485.9 629.9 482.9 628 482.9C626.1 482.9 626 485.9 628 485.9Z" fill="#39393C"/>
<path d="M684.8 473C684.9 473 685 473 685.2 473C686 473 686.7 472.3 686.7 471.5C686.7 470.7 686 470 685.2 470C685.1 470 685 470 684.8 470C684 470 683.3 470.7 683.3 471.5C683.3 472.3 683.9 473 684.8 473Z" fill="#39393C"/>
<path d="M695.8 465.6C697.7 465.6 697.7 462.6 695.8 462.6C693.9 462.6 693.9 465.6 695.8 465.6Z" fill="#39393C"/>
<path d="M694.3 473.7C694.4 473.7 694.5 473.7 694.7 473.7C695.5 473.7 696.2 473 696.2 472.2C696.2 471.4 695.5 470.7 694.7 470.7C694.6 470.7 694.5 470.7 694.3 470.7C693.5 470.7 692.8 471.4 692.8 472.2C692.9 473 693.5 473.7 694.3 473.7Z" fill="#39393C"/>
<path d="M646.7 514.8C645.1 512.5 642.5 509.2 643.6 506.2C644.9 502.8 649 503.3 651.7 503.7C655 504.2 657.7 504.8 660.9 503.8C663.5 503 665.8 501.3 668.2 500C673.9 496.8 680.6 496.5 682.4 504C687.5 524.5 651.3 530.3 645.7 512.3C645.1 510.5 642.2 511.2 642.8 513.1C649.7 535.2 692.5 527 685 502.5C683.7 498.4 680.6 494.9 676.2 494.4C669 493.7 664.3 500.9 657.4 501.4C652.3 501.8 646.1 497.9 642 502.7C638.3 507 641.3 512.5 644 516.3C645.2 517.9 647.8 516.4 646.7 514.8Z" fill="#39393C"/>
<path d="M640.9 509.1C643.1 515.2 654.1 513.3 658.9 512.6C668.1 511.2 676.5 507.2 683.6 501.3C685.1 500.1 683 497.9 681.5 499.2C676.3 503.6 670.3 506.8 663.7 508.6C660.8 509.4 645.5 512.8 643.9 508.4C643.1 506.5 640.2 507.3 640.9 509.1Z" fill="#39393C"/>
<path d="M658.7 553C670.4 556 686 548.6 692.6 538.9C693.7 537.3 691.1 535.8 690 537.4C684.2 545.9 669.7 552.7 659.5 550.1C657.6 549.6 656.8 552.5 658.7 553Z" fill="#39393C"/>
<path d="M659.8 553.9C670.2 560.4 687.3 551.2 692.3 541.3C693.2 539.6 690.6 538.1 689.7 539.8C685.5 548.2 670.2 556.9 661.3 551.4C659.6 550.3 658.1 552.9 659.8 553.9Z" fill="#39393C"/>
<path opacity="0.2" d="M701.3 447.9C702 451.5 702.9 457.2 703.5 464.1C704.9 482.5 707.3 513.3 688.7 533.8C684.7 538.2 676.2 546 660.5 550.4C665.5 550.2 671.6 549.6 678.2 547.9C681.5 547.1 684.5 546.1 687.2 545C687.6 553.9 687.9 562.8 688.3 571.7C691.7 569.5 695 567.4 698.4 565.2C693.8 555 693.8 547.1 694.4 542.1C695.3 535.1 697.9 529.4 700.5 523.7C702.8 518.7 705.2 514.7 707.1 511.9C707.3 514 707.8 516.2 709.2 518.3C715.3 527.4 734.4 528.3 746.4 520.5C757.5 513.3 762.9 498.7 760.1 483.7C762 485.3 764 487.2 765.9 489.5C767.4 491.3 771.3 496.5 776.7 514.8C778.4 520.5 779.2 523.4 779.7 526.3C780.3 530.3 781.4 537.9 779.3 546.5C775.7 561.3 765 569.8 761.8 572.2C759.5 573.9 752.5 579 742 581.4C737 582.5 722 586.1 707.9 577.9C702.6 574.8 699.7 572.5 698.1 569.7C696.4 566.6 696.2 563.7 696 561.5C695.1 547.8 694.7 540.9 695.6 536.2C698.3 522.6 704.4 521.2 707.8 505.7C709 500.1 709.3 495.4 709.4 492.4C710.7 492.6 712.7 492.8 715.1 492.2C720.1 490.9 722.6 486.8 723.5 485.3C727.1 479.6 728.7 469.4 723.1 464.7C722.3 464 719.5 461.9 714.1 462.3C710 457.5 705.7 452.7 701.3 447.9Z" fill="#535356"/>
<path opacity="0.13" d="M653.9 480.3C659 481.8 664.2 483.4 669.3 484.9C668 486.1 666.7 487.2 665.3 488.4C664 489.5 662.8 490.4 661.5 491.4C659.9 490.2 657.6 488.1 655.8 484.9C654.8 483.2 654.2 481.6 653.9 480.3Z" fill="#535356"/>
<path opacity="0.16" d="M573.7 492.8C562.8 531.3 570.9 562.4 587.2 569.2C600 574.5 623.1 567 627.4 553.9C628 552.2 628.6 549.2 626.3 540C624.3 531.9 620.2 519.7 611 505.8C609.4 504.8 607.3 503.2 605.3 500.8C601.8 496.5 600.8 491.9 600.5 489.7C603.4 492.7 607.6 496.5 610.3 495.3C612.9 494.1 614.5 490.5 613.6 486.9C614.5 491.5 615.9 497.8 618.5 505.1C621.9 514.8 625.3 524.2 633.2 533.1C636.8 537.2 643.9 543.9 655.9 548.7C657.9 551.2 661.6 556.6 662.8 564.5C663 565.7 663.7 571.2 661.9 578.1C661.5 579.7 659.1 588.4 651.2 595.9C642 604.7 631 606.3 627.4 606.8C600.3 610.4 579.3 586.7 575.6 582.6C571.9 578.4 565.8 571.4 562.3 560.6C556.7 543.4 561 527.9 564.1 516.6C567 506 570.9 498 573.7 492.8Z" fill="#535356"/>
</svg>
