<svg xmlns="http://www.w3.org/2000/svg" width="129" height="36" fill="none" viewBox="0 0 129 36"><g clip-path="url(#a)"><mask id="b" width="23" height="36" x="0" y="0" maskUnits="userSpaceOnUse" style="mask-type:luminance"><path fill="#fff" d="M22.43.5H0v35h22.43z"/></mask><g mask="url(#b)"><path fill="#22110c" d="M10.74.52c-4.54.46-4.7 7.32-.19 8.08q.28.06.28.08l-.04.77a61 61 0 0 0-.1 2.8l-.16.1c-.16.07-.37.25-.45.37-.05.07-.05.07-.34.08-.45.01-.73.13-.99.4q-.12.13-.14.12l-1.37-2.06-.23-.32.13-.15c2.42-2.73-.96-6.84-3.83-4.67s-.3 6.7 2.99 5.3c.01 0 .26.3.58.74l1.17 1.55c.03.05.04.04-.14.1-.51.14-1 .57-1.09.97l-.04.1c-.87.02-1.53.67-1.54 1.5 0 .3 0 .3-.12.37-1.07.64-2.52 2.81-2.62 3.92-.02.16 0 .16-.22.2-.48.08-.76.25-1.05.65-.37.51-.4.95-.12 1.57.1.21.1.17-.06.4-1.68 2.4-1.33 5.23.93 7.5a9.2 9.2 0 0 0 5.86 2.57c.9.07 1 .1 1.22.41 1.5 2.02 2.8 2.02 4.3 0 .23-.3.33-.34 1.21-.4 3.47-.27 6.38-2.2 7.47-4.99q1.04-2.64-.67-5.09c-.16-.23-.15-.19-.06-.4.29-.62.25-1.06-.12-1.57a1.5 1.5 0 0 0-1.05-.66c-.21-.03-.2-.03-.22-.2a7 7 0 0 0-.78-1.9 7 7 0 0 0-1.84-2.01c-.12-.08-.12-.08-.12-.36a1.54 1.54 0 0 0-1.54-1.52l-.04-.1c-.1-.4-.58-.82-1.09-.97-.18-.05-.17-.04-.14-.1l.32-.42c.17-.2.55-.71.85-1.12.32-.43.57-.74.58-.74 3.3 1.4 5.86-3.13 3-5.3-2.88-2.17-6.26 1.94-3.84 4.67l.12.15-.22.32-1.37 2.06q-.02 0-.15-.12c-.25-.27-.53-.39-.98-.4-.3-.01-.3-.01-.34-.08a1.4 1.4 0 0 0-.63-.45c-.1-.04-.1-.04-.1-1.25v-1.8l-.01-.57.26-.05c5.08-.86 4.01-8.59-1.12-8.08m-.12 1a3.12 3.12 0 0 0-2.49 3.92c.91 2.75 5.25 2.75 6.16 0l.09-.35c.4-2.03-1.56-3.97-3.76-3.56M4.77 6.57a2.2 2.2 0 0 0-1.73 2.7q.09.33.3.62c1.03 1.37 2.87 1.23 3.63-.27q.1-.2.15-.4c.39-1.41-.85-2.93-2.35-2.65m12.2 0a2.14 2.14 0 0 0-1.67 2.65q.15.59.62 1.05c.92.88 2.34.71 3.16-.38q.21-.3.3-.6c.4-1.38-.86-3-2.42-2.71m-5.98 6.36c-.62.1-.83.7-.5 1.45.1.22.1.22.26.22.14 0 .17 0 .3.08.16.08.16.08.31 0a.5.5 0 0 1 .31-.08c.15 0 .15 0 .25-.22.41-.92-.03-1.62-.93-1.45m-1.6.58c-.52.14-.67.78-.34 1.44.13.28.1.26.27.22q.14-.03.23 0c.24.04.21.05.32-.1.05-.06.13-.16.18-.2.1-.08.1-.08.03-.18a1.7 1.7 0 0 1-.25-.92c-.02-.3-.1-.35-.45-.26m3.2.26c-.01.4-.08.65-.25.92-.07.1-.07.1.03.18.05.04.13.14.18.2.1.15.08.14.31.1h.24c.17.04.14.06.27-.22.39-.78.14-1.43-.55-1.46l-.21-.01zm-4.62.53c-.77.2-1.04 1.14-.52 1.79.12.15.12.15.24.08q.3-.18.66-.12c.1.02.1.02.12-.08.04-.15.15-.36.28-.5.12-.12.12-.12.03-.23a2 2 0 0 1-.33-.96c0-.03-.36-.01-.48.02m6-.02c0 .27-.16.73-.34.96-.08.11-.08.11.04.24.13.13.24.34.28.5.02.09.02.09.12.07q.38-.06.66.12c.12.07.11.07.24-.08.43-.54.3-1.41-.25-1.69-.24-.11-.75-.2-.75-.12m-3.53.95c-.54.26-.59.87-.13 1.58.15.22.15.22.2.13.3-.47 1.1-.47 1.4 0 .08.13.4-.36.48-.73.15-.67-.5-1.34-.86-.9-.08.09-.17.26-.2.37q-.12.33-.23 0a1 1 0 0 0-.3-.45c-.07-.06-.22-.06-.36 0m-3.84.14c-.98.13-1.16 1.55-.27 2.16.19.13.73.36.73.3L7 17.68c-.1-.36 0-.82.24-1.11.06-.08.06-.08-.1-.25q-.34-.35-.39-.82c-.01-.15 0-.14-.17-.12m9.07 0-.03.17c-.05.31-.16.54-.4.78-.14.16-.14.16-.08.24.23.29.33.75.24 1.11l-.04.17c0 .05.54-.18.73-.31.79-.54.77-1.71-.03-2.09-.13-.06-.38-.1-.4-.07m-6.35.26c-.63.09-.76 1.12-.23 1.81l.1.13q0 .02.09-.03c.25-.18.56-.22 1.02-.13.02 0 .1-.2.1-.22-.51-.29-.8-.81-.77-1.38 0-.17 0-.17-.07-.18l-.1-.01zm3.63-.01-.1.01c-.06.01-.06.01-.06.18A1.5 1.5 0 0 1 12 17.2l.09.22c.46-.09.77-.05 1.02.13q.07.04.1.03l.09-.13c.39-.5.43-1.37.09-1.68-.1-.09-.37-.17-.47-.14m-4.9.83c-.77.21-.82 1.27-.1 1.96.52.49.01.37-.55-.13-.16-.14-.16-.14-.28-.12-.47.05-1.21-.38-1.6-.93-.1-.13-.1-.13-.15-.06a9 9 0 0 0-1.82 3.35c-.13.38-.13.35.02.38 2.55.49 4.23 3.22 4.28 6.96.01.82-.01.77.27.66.17-.06.2-.11.35-.49.64-1.73 1.19-2.41 2.1-2.65.18-.04.18-.04.2-.13.03-.2.23-.7.3-.78.18-.2.48.2.59.78.01.09 0 .09.2.13.9.24 1.45.92 2.09 2.65.14.38.18.43.35.5.28.1.26.15.27-.67.05-3.74 1.73-6.47 4.28-6.96.15-.03.15 0 .02-.38-.53-1.53-1-2.4-1.82-3.35-.06-.07-.06-.07-.15.06-.39.55-1.13.98-1.6.93-.12-.02-.12-.02-.28.12-.56.5-1.07.62-.55.13q.78-.75.4-1.52c-.21-.4-.85-.65-.89-.34q-.1.77-.56 1.1c-.08.06-.08.06-.01.19.17.3.09.71-.21 1.01-.25.26-.46.28-.23.02.3-.33.29-.74-.04-.84-.2-.05-.8-.03-.8.04 0 .15-.2.6-.32.73q-.23.23-.08-.16c.3-.78.05-1.52-.52-1.52s-.83.74-.52 1.52q.15.39-.08.16a2 2 0 0 1-.31-.73c0-.07-.62-.1-.81-.04-.33.1-.35.5-.05.84.24.26.03.24-.22-.02-.3-.3-.38-.7-.21-1.01.07-.13.07-.13-.01-.2q-.46-.32-.56-1.09 0-.1-.06-.11a1 1 0 0 0-.33.01M2.58 21.4c-1.18.2-1 1.5.35 2.58.42.35.43.35 1.11.7 2.52 1.31 3.18 2.11 3.18 3.86q.01.19.2.09c.02-.01.02-.85 0-1.3-.11-2.1-.95-4.06-2.14-5.03a4 4 0 0 0-2.7-.9m16.66 0c-2.17.23-3.82 2.32-4.19 5.3-.06.48-.1 1.9-.05 1.93q.19.1.2-.09c0-1.75.66-2.55 3.18-3.86.68-.35.69-.35 1.11-.7 1.62-1.3 1.47-2.77-.25-2.58M1.73 24.06c-.92 1-1.19 3.08-.6 4.55.83 2.08 3.55 4 5.94 4.22 1.08.1 1.33.08 1.23-.08-.17-.27-.76-1.35-1.1-2.03l-.3-.55q-.54-.83-.08-1.3c.17-.19.06-1.1-.2-1.64-.14-.27-.13-.26-.25-.07-1.45 2.2-4.4.52-4.35-2.49.01-.45.01-.45-.11-.55-.15-.12-.13-.12-.18-.06m18.78.06c-.12.1-.12.1-.11.55.06 3-2.9 4.7-4.35 2.49-.12-.2-.11-.2-.25.07-.26.55-.37 1.45-.2 1.64q.46.47-.08 1.3c-.08.13-.22.38-.3.55-.34.68-.93 1.76-1.1 2.03-.1.16-.13.16.48.13a6.5 6.5 0 0 0 2.83-.64c3.74-1.64 5.25-5.14 3.44-7.93-.22-.34-.2-.33-.36-.2m-17.99.48c-.19.64.2 1.85.78 2.48.19.19.2.2.12.01-.29-.73-.18-1.63.23-1.92.08-.05-.06-.14-.6-.38l-.36-.17c-.16-.08-.15-.08-.17-.02m17.24 0-.38.19c-.59.26-.7.33-.61.38.41.29.52 1.2.23 1.92-.08.18-.07.18.12-.01.59-.62.97-1.84.77-2.48-.01-.06-.01-.06-.13 0m-8.79 1.24c-.76.13-1.47.96-2.02 2.35-.27.7-.42.8-1.33.94-.6.1-.65.24-.23.85q.46.68 1.05 1.75c.7 1.25.95 1.67 1.3 2.11 1.2 1.54 2.24 1.29 3.53-.86.25-.42.28-.47.71-1.25q.6-1.06 1.05-1.75c.42-.6.38-.75-.23-.85-.91-.14-1.06-.24-1.33-.94-.67-1.67-1.56-2.52-2.5-2.35m-2.01 3.3c-.19.1-.26.29-.17.47.07.14.26.21.37.14.04-.02.06-.01.16.05q.53.32.37-.12c-.17-.44-.48-.67-.73-.53m4.16.01c-.21.11-.48.58-.42.72.05.1.15.09.4-.07.1-.06.12-.07.16-.05.11.07.3 0 .37-.14.15-.3-.2-.62-.5-.46"/><path fill="#2430f0" d="m12.95 15.6-.1.02c-.06.01-.06.01-.06.18a1.5 1.5 0 0 1-.76 1.38l.09.22c.46-.09.77-.05 1.02.13q.07.04.1.03l.09-.13c.39-.5.43-1.37.09-1.68-.1-.09-.37-.17-.47-.14m2.72-.25-.03.17c-.05.31-.16.54-.4.78-.14.16-.14.16-.08.24.23.29.33.75.24 1.11l-.04.17c0 .05.54-.18.73-.31.79-.54.77-1.71-.03-2.09-.13-.06-.38-.1-.4-.07m-1.69-1.09c0 .27-.16.73-.34.96-.08.11-.08.11.04.24.13.13.24.34.28.5.02.09.02.09.12.07q.38-.06.66.12c.12.07.11.07.24-.08.43-.54.3-1.41-.25-1.69-.24-.11-.75-.2-.75-.12m-1.37-.51c-.02.4-.1.65-.26.92-.07.1-.07.1.03.18.05.04.13.14.18.2.1.15.08.14.31.1h.24c.17.04.14.06.27-.22.39-.78.14-1.43-.55-1.46l-.21-.01zm-1.6-.84c-.63.1-.84.7-.5 1.45.1.22.1.22.25.22s.17 0 .3.08c.16.08.16.08.31 0a.5.5 0 0 1 .31-.08c.15 0 .15 0 .25-.22.41-.92-.03-1.62-.93-1.45m-.55 2.3c-.54.26-.59.87-.13 1.58.15.22.15.22.2.13.3-.47 1.1-.47 1.4 0 .08.13.4-.36.48-.73.15-.67-.5-1.34-.86-.9-.08.09-.17.26-.2.37q-.12.33-.23 0a1 1 0 0 0-.3-.45c-.07-.06-.22-.06-.36 0m-1.12.4c-.63.09-.76 1.12-.23 1.81l.1.13q0 .02.09-.03c.25-.18.56-.22 1.02-.13.02 0 .1-.2.1-.22-.51-.29-.8-.81-.77-1.38 0-.17 0-.17-.07-.18l-.1-.01zm-1.35-1.33c-.77.2-1.04 1.14-.52 1.79.12.15.12.15.24.08q.3-.18.66-.12c.1.02.1.02.12-.08.04-.15.15-.36.28-.5.12-.12.12-.12.03-.23a2 2 0 0 1-.33-.96c0-.03-.36-.01-.48.02m1.41-.79c-.51.14-.66.78-.33 1.44.13.28.1.26.27.22q.14-.03.23 0c.24.04.21.05.32-.1.05-.06.13-.16.18-.2.1-.08.1-.08.03-.18a1.7 1.7 0 0 1-.25-.92c-.02-.3-.1-.35-.45-.26M6.6 15.36c-.98.13-1.16 1.55-.27 2.16.19.13.73.36.73.3l-.04-.16c-.1-.36 0-.82.24-1.11.06-.08.06-.08-.1-.25q-.34-.35-.39-.82c-.01-.15 0-.14-.17-.12"/><path fill="#2be1b7" d="M19.24 21.39c-2.17.23-3.82 2.32-4.19 5.3-.06.48-.1 1.9-.05 1.93q.19.1.2-.09c0-1.75.66-2.55 3.18-3.86.68-.35.69-.35 1.11-.7 1.62-1.3 1.47-2.77-.25-2.58"/><path fill="#2be1b7" d="M20.5 24.12c-.11.1-.11.1-.1.55.06 3-2.9 4.7-4.35 2.49-.12-.2-.11-.2-.25.07-.26.55-.37 1.45-.2 1.64q.45.47-.08 1.3l-.3.55a37 37 0 0 1-1.1 2.03c-.1.16-.13.16.48.13a6.5 6.5 0 0 0 2.83-.64c3.74-1.64 5.25-5.14 3.44-7.93-.22-.34-.2-.33-.36-.2m-18.78-.05c-.92 1-1.19 3.08-.6 4.55.83 2.08 3.55 4 5.94 4.22 1.08.1 1.33.08 1.23-.08-.17-.27-.76-1.35-1.1-2.03l-.3-.55q-.54-.83-.08-1.3c.17-.19.06-1.1-.2-1.64-.14-.27-.13-.26-.25-.07-1.45 2.2-4.4.52-4.35-2.49.01-.45.01-.45-.11-.55-.15-.12-.13-.12-.18-.06"/><path fill="#2be1b7" d="M2.58 21.4c-1.18.18-1 1.48.35 2.57.42.35.43.35 1.11.7 2.52 1.31 3.18 2.11 3.18 3.86q.01.19.2.09c.02-.01.02-.85 0-1.3-.11-2.1-.95-4.06-2.14-5.03a4 4 0 0 0-2.7-.9"/><path fill="#2430f0" d="M8.05 16.44c-.77.21-.82 1.27-.1 1.96.52.49.01.37-.55-.13-.16-.14-.16-.14-.28-.12-.47.05-1.21-.38-1.6-.93-.1-.13-.1-.13-.15-.06a9 9 0 0 0-1.82 3.35c-.13.38-.13.35.02.38 2.55.49 4.23 3.22 4.28 6.96.01.82-.01.77.27.66.17-.06.2-.11.35-.49.64-1.73 1.19-2.41 2.1-2.65.18-.04.18-.04.2-.13.03-.2.23-.7.3-.78.18-.2.48.2.59.78.01.09 0 .09.2.13.9.24 1.45.92 2.09 2.65.14.38.18.43.35.5.28.1.26.15.27-.67.05-3.74 1.73-6.47 4.28-6.96.15-.03.15 0 .02-.38-.53-1.53-1-2.4-1.82-3.35-.06-.07-.06-.07-.15.06-.39.55-1.13.98-1.6.93-.12-.02-.12-.02-.28.12-.56.5-1.07.62-.55.13q.78-.75.39-1.52c-.2-.4-.84-.65-.88-.34q-.1.77-.56 1.1c-.08.06-.08.06-.01.19.17.3.08.71-.21 1.01-.25.26-.46.28-.23.02.3-.33.29-.74-.04-.84-.2-.05-.8-.03-.8.04 0 .15-.2.6-.32.73q-.23.23-.08-.16c.3-.78.05-1.52-.52-1.52s-.83.74-.52 1.52q.15.39-.08.16a2 2 0 0 1-.31-.73c0-.07-.62-.1-.81-.04-.33.1-.35.5-.05.84.24.26.03.24-.22-.02-.3-.3-.38-.7-.21-1.01.07-.13.07-.13-.01-.2q-.46-.32-.56-1.09 0-.1-.06-.11a1 1 0 0 0-.33.01"/><path fill="#f2c79c" d="M10.97 25.84c-.76.13-1.47.96-2.02 2.35-.27.7-.42.8-1.33.94-.6.1-.65.24-.23.85q.46.68 1.05 1.75a14 14 0 0 0 1.3 2.11c1.2 1.54 2.24 1.29 3.53-.86.25-.42.28-.47.71-1.25q.6-1.06 1.05-1.75c.42-.6.38-.75-.23-.85-.91-.14-1.06-.24-1.33-.94-.67-1.67-1.56-2.52-2.5-2.35M8.8 29.6c-.09-.18-.02-.37.17-.46.25-.14.56.09.73.53q.15.44-.37.12c-.1-.06-.12-.07-.16-.05-.11.07-.3 0-.37-.14m3.91.26c-.06-.14.2-.6.42-.72.31-.16.66.15.5.46-.06.14-.25.21-.36.14-.04-.02-.06-.01-.16.05-.25.16-.35.17-.4.07"/><path fill="#2430f0" d="M7.12 9.22c-.26-1-1.08-1.8-2.2-1.59-.89.17-1.68.86-1.88 1.64q.09.32.3.61c1.03 1.37 2.87 1.23 3.63-.27q.1-.2.15-.4m1.01-3.77-.09-.35c.23-1.2 1.38-2.25 2.73-2.5a3.1 3.1 0 0 1 3.6 2.5l-.08.35c-.91 2.75-5.25 2.75-6.16 0m8.83 1.13A2.14 2.14 0 0 0 15.3 9.2c.19-.76.93-1.41 1.81-1.58 1.16-.2 2 .63 2.27 1.64.4-1.37-.86-2.99-2.42-2.7"/><path fill="#2430f0" d="M8.04 5.1c.23-1.21 1.38-2.26 2.73-2.5a3.1 3.1 0 0 1 3.6 2.5c.4-2.04-1.55-3.98-3.75-3.57a3.1 3.1 0 0 0-2.58 3.56M4.92 7.63c1.12-.2 1.94.58 2.2 1.59.39-1.42-.85-2.94-2.35-2.66a2.2 2.2 0 0 0-1.73 2.7c.2-.77 1-1.46 1.88-1.63m11 2.63c.92.88 2.34.71 3.16-.38q.21-.3.3-.6c-.27-1.02-1.11-1.86-2.27-1.65-.88.17-1.62.82-1.81 1.58q.15.59.62 1.05"/><path fill="#f2c79c" d="M8.52 4a3.6 3.6 0 0 1 2.25-1.4c1.38-.26 2.57.4 3.2 1.43q.18-.18.32-.36a3.26 3.26 0 0 0-6.1-.16q.13.24.33.5"/><path fill="#2be1b7" d="M8.52 4a5 5 0 0 0 1.15 1.14c.06 0 .38-.3.7-.63.36-.35.73-.7.8-.7s.37.33.67.66c.3.34.6.67.66.67.1 0 .9-.53 1.47-1.1a3.05 3.05 0 0 0-3.2-1.45 3.6 3.6 0 0 0-2.25 1.42M3.05 9.2c.23-.75 1-1.4 1.86-1.57.66-.12 1.22.1 1.62.52.08-.28.13-.61.13-.89a2 2 0 0 0-1.9-.7A2.2 2.2 0 0 0 3.01 9.2z"/><path fill="#2be1b7" d="M3.05 9.2c.48.32 1.15.45 1.32.35.14-.08.2-.48.21-.9.02-.3.03-.59.09-.64s.38.13.72.33c.38.21.8.4.91.34q.12-.09.23-.53c-.4-.42-.96-.64-1.62-.52-.86.17-1.63.82-1.86 1.58m12.4-1.43c.03.22.65 1.4.82 1.44.1.02.4-.2.69-.4.24-.18.47-.34.52-.33s.15.16.26.34c.15.25.34.54.48.58.17.05.89-.32 1.24-.58.05-1.25-1.1-2.52-2.5-2.26-.72.13-1.25.6-1.52 1.18z"/><path fill="#f1f1f1" d="m19.76 24.6-.38.19c-.59.26-.7.33-.61.38.41.29.52 1.2.23 1.92-.08.18-.07.18.12-.01.59-.62.97-1.84.77-2.48-.01-.06-.01-.06-.13 0m-17.24 0c-.19.64.2 1.85.78 2.48.19.19.2.2.12.01-.29-.73-.18-1.63.23-1.92.08-.05-.06-.14-.6-.38l-.36-.17c-.16-.08-.15-.08-.17-.02m15.94 1.83q0-.1-.12-.12-.12.01-.13.12 0 .11.13.12.11 0 .12-.12"/><path fill="#22110c" d="M14.2 5.67C13.1 6.9 10.9 7.59 8.4 6c1.23 2.1 4.81 1.99 5.8-.34m-7.55 4.42c-1.16.5-2.74 0-3.51-.54q.08.17.2.33c.9 1.2 2.44 1.24 3.31.21m12.6-.5c-.66.64-2.02 1.09-3.6.38l.27.3c.92.87 2.34.7 3.16-.39l.18-.28" opacity=".2"/><path fill="#2430f0" d="M8.04 5.1c.23-1.21 1.38-2.26 2.73-2.5a3.1 3.1 0 0 1 3.6 2.5c.4-2.04-1.55-3.98-3.75-3.57a3.1 3.1 0 0 0-2.58 3.56"/><path fill="#2be1b7" d="M8.52 4a3.6 3.6 0 0 1 2.25-1.4c1.38-.26 2.57.4 3.2 1.43q.18-.18.32-.36a3.26 3.26 0 0 0-6.1-.16q.13.24.33.5"/><path fill="#fff" d="M12 13.35c-.14-.34-.5-.53-1-.43q-.45.08-.6.45c.2-.17.55-.22.81-.23.26 0 .6.06.8.2m-2.2.22c-.25.03-.7.15-.9.43a.7.7 0 0 1 .48-.5q.36-.12.41.07m-1.35.76v-.06c0-.03-.36-.01-.48.02-.39.1-.65.39-.75.74.27-.37.75-.68 1.23-.7m-2.7 2.03c.12-.4.55-.8.9-.8l.13-.02-.01-.08q0-.09-.03-.1t-.11 0H6.6c-.52.07-.82.51-.84 1m5.24-.92c-.2-.15-.5-.22-.92.14q.11-.23.37-.36.23-.09.37 0 .1.08.18.22m1.3.09c-.18-.34-.53-.52-.76-.24l-.1.16c.19-.15.47-.22.86.08m-2.66.2c0-.1 0-.1-.07-.1l-.1-.03-.14.02c-.31.04-.5.31-.55.66.13-.4.58-.58.86-.55m4.36.76c.1-.24.68 0 .87.39q.09.16.11.32c-.15-.42-.62-.61-.98-.7m-1.87 1.58v-.01c0-.07.62-.1.81-.04q.14.05.2.15c-.18-.16-.59-.13-1-.1m-1.4-.68a.6.6 0 0 1 .49-.28q.32 0 .5.27a1 1 0 0 0-.5-.18 1 1 0 0 0-.5.19m-1.44.8a.4.4 0 0 1 .2-.17c.2-.05.82-.03.82.04v.01c-.43-.03-.84-.06-1.02.11m-.85-1.7c-.37.1-.85.3-.99.74.03-.37.23-.69.6-.79.1-.02.27-.03.34-.01q.04 0 .05.06M13.52 14q-.13-.47-.7-.52l-.21-.01v.1c.23.02.7.14.91.43m1.67 1.01a1 1 0 0 0-.47-.62c-.24-.11-.75-.2-.75-.12v.06c.47.01.95.32 1.22.68m1.48 1.35c-.11-.4-.55-.8-.9-.8l-.13-.02.03-.18c0-.03.26.01.4.07.38.18.58.54.6.93m-3.03-.11a.8.8 0 0 0-.22-.5c-.1-.09-.37-.17-.47-.14l-.1.01c-.05.01-.06.01-.06.1.27-.02.71.15.85.53" opacity=".2" style="mix-blend-mode:hard-light"/><path fill="#fff" fill-opacity=".4" d="M20.3 21.57c-.8-.06-1.7.2-2.36.61-.93.58-2.34 2.12-2.64 3.61-.09.41-.15.55-.2.52.46-2.78 2.06-4.7 4.14-4.92q.7-.07 1.05.18m-18.2.01c.8-.08 1.76.18 2.45.61.92.58 2.34 2.12 2.64 3.61q.06.35.12.46c-.29-1.68-1.03-3.17-2.02-3.97a4 4 0 0 0-2.7-.9q-.3.05-.5.2m7.17 5.93a2.6 2.6 0 0 1 1.93-.84c.46 0 1.38.15 2.04.94-.63-1.3-1.43-1.93-2.25-1.78-.62.1-1.22.7-1.72 1.68" style="mix-blend-mode:hard-light"/><path fill="#22110c" d="M19.95 24.99q-.45.2-1 .39l-.18-.2c-.08-.06.02-.13.61-.4l.38-.17q.1-.06.12-.05l.01.04q.05.16.06.39m-17.48-.04q.45.21 1 .42l.18-.2c.08-.05-.06-.14-.6-.38l-.4-.18-.1-.05q-.02 0-.02.03-.05.16-.06.36m4.3 4.99a5 5 0 0 0 .32 1.95c.07.3-.76.75-3.83-.66a7.7 7.7 0 0 0 3.81 1.6c1.08.1 1.33.08 1.23-.08-.17-.27-.76-1.35-1.1-2.03a8 8 0 0 0-.43-.78m12.41 1.29c-3.08 1.41-3.92.95-3.84.66l.04-.14c.1-.36.34-1.13.28-1.82l-.14.24c-.08.13-.22.38-.3.55-.34.68-.93 1.76-1.1 2.03q-.05.09-.05.12c.01.03.14.03.53 0a6.5 6.5 0 0 0 2.83-.63 9 9 0 0 0 1.75-1.01m-10.91.19a13 13 0 0 0 1.3 1.9c1.35 1.55 2.5 1.3 3.92-.85l.49-.74c-.43.78-.46.83-.71 1.25-1.29 2.15-2.32 2.4-3.53.86a15 15 0 0 1-1.47-2.42" opacity=".2"/><path fill="#000" fill-opacity=".2" d="M11.2 23.91c-.25 0-.57 1.78-.7 1.78l-.3.27 1-.27 1.14.34a2 2 0 0 0-.46-.34c-.09 0-.43-1.78-.68-1.78m-1.65-4.78c-.14 0-.6-.33-.6-.82.06-.12.2-.31.2-.1 0 .27.29.62.37.7s.17.22.03.22m-2.66-.82c-.57 0-1.3-.75-1.68-1.26l.23-.2.52.75 1.17.35.23-.38.26.44c.1.18.36.32.57.62s-.59-.07-.69-.12l-.32-.22s-.06.02-.3.02m1.79-.91c-.23-.29-.15-.63-.2-.92l.65 1.18-.05.1c-.06-.04-.22-.13-.4-.36m2.03 1.55c-.2-.05-.4-.54-.4-.9l.2-.1.13.52c.04.16.28.53.07.48m2.16.18c.13 0 .6-.33.6-.82-.07-.12-.2-.31-.2-.1 0 .27-.3.62-.37.7s-.17.22-.03.22m2.66-.82c.56 0 1.3-.75 1.67-1.26l-.23-.2-.51.75-1.17.35-.23-.38-.27.44c-.1.18-.36.32-.56.62s.58-.07.68-.12c.08-.04.25-.16.33-.22 0 0 .06.02.29.02m-1.78-.91c.23-.29.15-.63.19-.92l-.65 1.18.05.1c.07-.04.23-.13.4-.36m-2.03 1.56c.2-.05.4-.55.4-.92l-.2-.09-.13.52c-.04.16-.28.54-.08.5"/><path fill="#22110c" d="M8.85 29.67c-.07 0 .15-.1.08-.3.16-.07.42 0 .61.17.24.21.24.73.23.95s-.85-.82-.92-.82m4.71.01c.07 0-.15-.11-.08-.3-.17-.07-.43 0-.62.17-.24.2-.24.73-.23.95s.86-.82.93-.82M4.55 24.6c1.2.72 2.38 1.43 2.38 2.31V27c-.4-.83-1.25-1.47-2.9-2.33a5 5 0 0 1-1.1-.7c-1.06-.85-1.4-1.82-.94-2.3-.3 1.2 1.15 2.08 2.56 2.93" opacity=".2"/><path fill="#22110c" d="M2 21.63v.04c-.15.6.13 1.11.63 1.59.5.47 1.22.9 1.92 1.33.6.36 1.2.72 1.65 1.1s.74.78.74 1.22V27h-.02c-.4-.83-1.24-1.46-2.89-2.32l-.65-.35a5 5 0 0 1-1.5-1.65c-.16-.4-.13-.78.1-1.02zm-.1 1.05a4.7 4.7 0 0 0 2.14 1.99c1.62.84 2.48 1.47 2.88 2.28v-.04c0-.43-.3-.83-.74-1.2-.44-.38-1.03-.74-1.64-1.1-.7-.43-1.42-.86-1.92-1.34-.5-.46-.78-.98-.65-1.57q-.3.37-.07.98m15.99 1.92c-1.21.72-2.38 1.43-2.38 2.31v.04c.4-.8 1.25-1.44 2.86-2.28.69-.35.7-.35 1.12-.7 1.05-.85 1.35-1.76.97-2.25.25 1.18-1.18 2.04-2.57 2.88" opacity=".2"/><path fill="#22110c" d="M20.52 22.71q-.24.61-1.02 1.27a5 5 0 0 1-1.12.7c-1.62.84-2.46 1.47-2.87 2.27h-.01v-.04c0-.44.3-.84.74-1.22s1.04-.74 1.64-1.1c.7-.42 1.4-.84 1.9-1.31s.8-.97.67-1.56h.02c.2.24.21.6.05 1m-.04-.95q.24.37.02.95-.24.6-1.02 1.25a5 5 0 0 1-1.11.7c-1.6.83-2.44 1.46-2.85 2.25 0-.44.29-.83.73-1.2.44-.38 1.04-.74 1.64-1.1.7-.42 1.4-.85 1.9-1.32.5-.45.79-.95.69-1.53" opacity=".2"/><path fill="#000" fill-opacity=".2" d="M1.55 24.27c-.01 1 .02 5.27 5.01 5.27h.06a.7.7 0 0 1 .2-.67c.17-.19.06-1.1-.2-1.64q-.1-.2-.14-.2t-.12.13c-1.45 2.2-4.4.52-4.34-2.49 0-.45 0-.45-.12-.55q-.12-.11-.14-.1l-.04.04z" style="mix-blend-mode:multiply"/><path fill="#22110c" d="M20.9 24.36c0 1.1-.13 5.2-5.02 5.2h-.1q.09-.4-.18-.69c-.18-.19-.07-1.1.2-1.64q.1-.2.13-.2.04 0 .12.13c1.45 2.2 4.4.52 4.34-2.49 0-.32 0-.42.04-.48l.08-.07q.09-.1.13-.09.05-.01.23.29zM10.34 13.57q-.05.35.15.8c.1.22.1.22.25.22s.17 0 .31.08c.16.08.16.08.3 0a.5.5 0 0 1 .32-.08c.15 0 .15 0 .25-.22q.19-.45.14-.8c-.06.37-.22.85-.56.9l-.28.02h-.03l-.29-.03c-.34-.04-.5-.52-.56-.89m2 1.11c.16-.27.23-.52.25-.92v-.21c.07.36.06.86-.24 1.3-.08-.07-.08-.08-.02-.17m1.2-.34q-.01.3-.17.6l-.03.07q-.08.16-.11.17h-.1l-.03-.02h-.3q.04-.04.22-.1.17-.04.22-.1.22-.28.3-.62m.43-.07c0 .27-.16.73-.34.96-.07.1-.08.11.02.21.2-.3.41-.87.33-1.19zm1.25.94c-.03.16-.12.52-.26.67-.17.18-.24.2-.38.14q-.13-.04-.3 0 .25.02.44.14h.02q.06.05.1.05.03 0 .11-.12l.01-.01c.2-.25.29-.58.26-.87m1.44 1.08c-.04.28-.14.77-.52 1.1-.36.31-.64.33-.7-.1q0-.07-.02-.08.03.24-.03.45l-.04.17c0 .05.54-.18.73-.31.44-.3.63-.79.58-1.23m-1.03-.75c-.04.31-.16.53-.39.77-.14.16-.14.16-.08.24l.02.02c.2-.2.42-.59.45-1.03m-1.98.94c-.04.21-.1.44-.2.55a.7.7 0 0 1-.6.25 1 1 0 0 0-.39.08q.41-.02.68.17.07.05.09.03l.1-.13c.2-.26.3-.62.32-.95m-1.6.78c.28-.15.74-.56.73-1.2-.05.46-.33.88-.76 1.12zm.35-1.16c-.08.26-.28.67-.59.56a1.7 1.7 0 0 0-1.22 0c-.28.1-.46-.22-.56-.48q.06.3.28.62c.1.14.12.19.15.19q.02 0 .05-.06c.3-.47 1.1-.47 1.4 0 .07.13.4-.36.48-.73zm-3.64.38c0 .31.1.66.33.95l.1.13q.01.02.08-.03.27-.19.67-.17a1 1 0 0 0-.39-.08.7.7 0 0 1-.6-.25 1.4 1.4 0 0 1-.2-.55m.86-.5c-.04.7.45 1.13.75 1.28l.02-.08a1.5 1.5 0 0 1-.77-1.2m-.86-.53c.1-.1.1-.11.02-.22a2 2 0 0 1-.33-.96l-.03-.01c-.07.32.14.9.34 1.19m-1.57-.24q-.05.46.26.87v.01q.1.11.13.12l.1-.05a1 1 0 0 1 .43-.13q-.14-.05-.29 0c-.14.05-.2.03-.37-.15-.14-.15-.24-.5-.26-.67m1.69-.79a2 2 0 0 0 .2.59q.07.16.1.17h.1l.03-.02q.14-.03.24 0h.05c-.01-.03-.11-.06-.21-.1q-.17-.04-.23-.1a2 2 0 0 1-.28-.54m.92-.83.02.17c.02.4.09.66.26.92.06.1.06.1-.02.17-.3-.42-.32-.9-.26-1.26M7 17.2q-.03 0-.04.07c-.06.44-.33.42-.7.11-.35-.3-.46-.75-.5-1.03-.03.42.15.88.57 1.16.19.13.73.36.73.3l-.04-.16q-.06-.22-.03-.45m.23-.63.02-.03c.06-.08.06-.08-.1-.25q-.33-.35-.38-.82v-.02c0 .48.25.9.46 1.12" opacity=".2"/><path fill="#f1f1f1" d="M18.54 26.03c0-.24.2-.44.45-.44s.45.2.45.44-.2.44-.45.44a.44.44 0 0 1-.45-.44m-15.58 0a.44.44 0 0 1 .9 0c0 .24-.2.44-.46.44a.44.44 0 0 1-.44-.44m1.19.4q-.01-.1-.13-.12-.12.01-.13.12.01.11.13.12t.13-.12"/></g><path fill="#22110c" d="m128.35 26.39.5 2.42q-.52.35-1.48.65-.94.27-1.88.27a4.2 4.2 0 0 1-3.03-1.17q-1.2-1.17-1.2-3.5v-4.24h-2V18h2v-2.48l2.94-.65V18h4.18v2.82h-4.18v4.07q0 2.07 1.8 2.06.8 0 2.35-.56m-15.29 3.34a6.4 6.4 0 0 1-3.8-1.06 4.4 4.4 0 0 1-1.82-2.97h2.97q.38 1.55 2.73 1.55 1.9 0 1.9-.94l-.04-.23a.4.4 0 0 0-.1-.19l-.14-.15a1 1 0 0 0-.25-.14 4 4 0 0 0-.63-.21 9 9 0 0 0-.88-.21q-.31-.06-.54-.13-2.52-.6-3.52-1.31-.99-.73-.98-2.17 0-1.8 1.33-2.8 1.35-1.02 3.6-1.02t3.5 1a4.2 4.2 0 0 1 1.56 2.67h-2.97q-.36-1.17-2.19-1.17-1.89 0-1.89.96 0 .38.4.55.38.16 1.76.48 1.36.3 2.17.58.8.26 1.51.67.72.42 1.03 1 .3.59.3 1.42 0 1.85-1.4 2.84-1.42.98-3.61.98M100.1 17.75q2.77 0 4.37 1.94a6.5 6.5 0 0 1 1.39 4.82h-8.65q.14 1.34.95 2.05t1.98.7a3 3 0 0 0 1.54-.37q.68-.4.96-1.06h3.03a5.2 5.2 0 0 1-2.08 2.92 6 6 0 0 1-3.43.98 5.74 5.74 0 0 1-5.94-5.97q0-2.58 1.66-4.3a5.6 5.6 0 0 1 4.22-1.71m-.02 2.46q-1.04 0-1.74.59a3 3 0 0 0-.98 1.52h5.39a2.8 2.8 0 0 0-.95-1.52 2.6 2.6 0 0 0-1.72-.59m-8.91-4.44q-1.98 0-1.98 2.19V18h3.75v2.82h-3.75v8.66h-2.93v-8.66h-2.01V18h2v-.19q0-2.3 1.34-3.46a4.7 4.7 0 0 1 3.26-1.2q1.53 0 2.66.53l-.53 2.42-.4-.1a5 5 0 0 0-1.4-.23M81.16 12.7q.8 0 1.31.5.51.48.51 1.25 0 .78-.5 1.28-.53.5-1.32.5-.78 0-1.31-.5a1.7 1.7 0 0 1-.51-1.28q0-.75.51-1.25.53-.5 1.31-.5M79.7 29.48V18h2.92v11.48zm-6.33-11.73q1.9 0 3 1.21 1.08 1.2 1.08 3.32v7.2h-2.93v-6.55q0-1.17-.49-1.76-.5-.58-1.62-.58-2.55 0-2.54 2.86v6.03h-2.93V18h2.93v1.57a4 4 0 0 1 3.5-1.82M61.68 18h2.93l-.02 11.48h-2.93v-1.55a4.1 4.1 0 0 1-3.53 1.8 4.7 4.7 0 0 1-3.68-1.67 6.4 6.4 0 0 1-1.46-4.32 6.3 6.3 0 0 1 1.46-4.3 4.7 4.7 0 0 1 3.66-1.69q2.26 0 3.57 1.86zm-2.9 8.9q1.26 0 2.08-.89a3.2 3.2 0 0 0 .82-2.27q0-1.4-.82-2.28a2.7 2.7 0 0 0-2.07-.87q-1.25 0-2.05.87-.8.89-.8 2.28 0 1.4.8 2.27.82.88 2.05.88m-11.66-9.14q1.8 0 2.85 1.19a4.8 4.8 0 0 1 1.04 3.28v7.26H48.1v-6.62q0-1.12-.47-1.69-.45-.58-1.47-.58-1.16 0-1.74.75-.6.73-.6 2.1v6.04h-2.93v-6.62q0-1.12-.47-1.69-.45-.58-1.47-.58-1.15 0-1.76.75-.6.73-.6 2.1l.02 6.04h-2.95V18h2.95v1.52a3.9 3.9 0 0 1 3.34-1.77q2.46 0 3.42 2.17a4.2 4.2 0 0 1 3.77-2.17"/></g><defs><clipPath id="a"><path fill="#fff" d="M0 .5h129v35H0z"/></clipPath></defs></svg>