<svg width="818" height="228" viewBox="0 0 818 228" fill="none" xmlns="http://www.w3.org/2000/svg">
<path fill-rule="evenodd" clip-rule="evenodd" d="M75.0559 7.65142C46.4851 10.466 45.4789 52.7612 73.8703 57.4944C75.1566 57.7088 75.5643 57.8214 75.5938 57.9706C75.6152 58.0781 75.5116 60.2109 75.3642 62.7101C75.2165 65.2093 75.0305 70.1236 74.951 73.6303C74.8714 77.1373 74.7782 80.027 74.7438 80.0521C74.7097 80.077 74.2456 80.3115 73.7127 80.5733C72.7147 81.0638 71.4019 82.1408 70.8741 82.9024C70.5782 83.3297 70.5782 83.3297 68.7608 83.389C65.8911 83.4829 64.142 84.1843 62.5538 85.8778C62.1135 86.3474 61.7105 86.6804 61.6569 86.6183C61.6034 86.5563 59.9475 84.1177 57.977 81.1991C56.0066 78.2806 53.7692 74.994 53.0052 73.8959L51.616 71.8989L52.4311 70.9958C67.6336 54.1524 46.376 28.7843 28.2997 42.198C10.3071 55.5498 26.4334 83.5569 47.1211 74.8855C47.2061 74.8498 48.743 76.7715 50.7561 79.4307C52.6742 81.9645 55.0701 85.0885 56.0802 86.3728C57.0904 87.6573 58.0021 88.8367 58.1063 88.9941C58.3205 89.3169 58.3895 89.27 57.2323 89.5878C54.0237 90.469 50.9987 93.132 50.3991 95.6032C50.3204 95.9278 50.1913 96.1949 50.1124 96.1971C44.6904 96.341 40.541 100.368 40.4824 105.543C40.4626 107.303 40.4626 107.303 39.7241 107.742C33.0037 111.73 23.8861 125.11 23.2351 131.94C23.1391 132.95 23.177 132.916 21.847 133.143C18.8462 133.655 17.0932 134.739 15.2447 137.223C12.904 140.37 12.688 143.075 14.473 146.895C15.0775 148.189 15.1107 147.96 14.114 149.364C3.57546 164.21 5.77078 181.63 19.9494 195.663C29.2226 204.844 42.2397 210.439 56.8335 211.519C62.4058 211.931 63.0437 212.142 64.479 214.031C73.9161 226.46 82.0619 226.46 91.4991 214.031C92.9343 212.142 93.5723 211.931 99.1446 211.519C120.958 209.906 139.208 197.948 146.049 180.788C150.41 169.851 149.026 159.467 141.861 149.354C140.867 147.951 140.901 148.187 141.505 146.895C143.29 143.075 143.074 140.37 140.734 137.223C138.885 134.739 137.132 133.655 134.131 133.143C132.801 132.916 132.839 132.95 132.743 131.94C132.53 129.701 130.132 123.953 127.845 120.197C125.034 115.58 119.573 109.711 116.254 107.742C115.515 107.303 115.515 107.303 115.495 105.543C115.437 100.368 111.288 96.341 105.866 96.1971C105.787 96.1949 105.658 95.9278 105.579 95.6032C104.979 93.132 101.954 90.469 98.7457 89.5878C97.5885 89.27 97.6575 89.3169 97.8717 88.9941C97.9757 88.8367 98.8876 87.6573 99.8978 86.3728C100.908 85.0885 103.304 81.9645 105.222 79.4307C107.235 76.7715 108.772 74.8498 108.857 74.8855C129.545 83.5569 145.671 55.5498 127.678 42.198C109.602 28.7843 88.3444 54.1524 103.547 70.9958L104.362 71.8989L102.973 73.8959C102.209 74.994 99.9714 78.2806 98.0011 81.1991C96.0305 84.1177 94.3747 86.5563 94.3211 86.6183C94.2676 86.6804 93.8645 86.3474 93.424 85.8778C91.836 84.1843 90.0869 83.4829 87.2173 83.389C85.3999 83.3297 85.3999 83.3297 85.1081 82.9083C84.3434 81.8052 82.5815 80.5521 81.1564 80.0977C80.5169 79.8939 80.5169 79.8939 80.5323 72.4017C80.5407 68.2808 80.5195 63.3044 80.4852 61.3429L80.4228 57.7762L82.1077 57.4948C114.04 52.1616 107.293 4.47588 75.0559 7.65142ZM74.2709 13.8246C63.3161 15.8036 56.1166 25.9325 58.0816 35.8456C58.2233 36.5605 58.4126 37.2743 58.6517 37.9839C64.3761 54.9718 91.602 54.9718 97.3261 37.9839C97.568 37.2666 97.7591 36.5486 97.9021 35.8326C100.41 23.2772 88.1252 11.3221 74.2709 13.8246ZM37.4876 44.9224C29.3974 46.4183 24.6091 54.6269 26.6042 61.5875C26.9878 62.9256 27.622 64.2176 28.5317 65.407C34.9681 73.8214 46.5576 72.9725 51.3326 63.737C51.7506 62.9287 52.0699 62.1052 52.2982 61.2768C54.7109 52.5149 46.9159 43.1793 37.4876 44.9224ZM114.141 44.9295C106.071 46.3712 101.888 54.2467 103.69 61.2647C104.292 63.6098 105.563 65.8596 107.581 67.7411C113.384 73.1539 122.324 72.1034 127.446 65.407C128.357 64.2163 128.988 62.9423 129.372 61.6333C131.86 53.1447 123.927 43.1813 114.141 44.9295ZM76.6311 84.1067C72.6816 84.8035 71.4061 88.4584 73.5073 93.0588C74.133 94.4286 74.133 94.4286 75.0934 94.4386C75.9557 94.4476 76.152 94.4983 77.0212 94.9373C77.989 95.4263 77.989 95.4263 78.9569 94.9373C79.826 94.4983 80.0224 94.4476 80.8847 94.4386C81.8448 94.4286 81.8448 94.4286 82.47 93.0588C85.0477 87.4099 82.247 83.1162 76.6311 84.1067ZM66.5002 87.7228C63.2643 88.5855 62.3308 92.5116 64.3834 96.6251C65.2331 98.3281 65.0647 98.1943 66.0934 97.9823C66.7598 97.8448 67.1278 97.8303 67.5847 97.9235C69.0845 98.2289 68.9007 98.2785 69.5365 97.3975C69.8525 96.9596 70.3781 96.3787 70.7045 96.1063C71.2979 95.6109 71.2979 95.6109 70.9063 95.0073C69.8382 93.3607 69.3886 91.7793 69.2875 89.3132C69.2114 87.4563 68.666 87.1452 66.5002 87.7228ZM86.691 89.2982C86.5894 91.7804 86.1423 93.3572 85.0717 95.0073C84.6801 95.6109 84.6801 95.6109 85.2736 96.1063C85.6 96.3787 86.1255 96.9596 86.4415 97.3975C87.0773 98.2785 86.8935 98.2289 88.3934 97.9235C88.8502 97.8303 89.2182 97.8448 89.8846 97.9823C90.9133 98.1943 90.7449 98.3281 91.5947 96.6251C93.9936 91.8172 92.425 87.7552 88.1016 87.5791L86.7637 87.5247L86.691 89.2982ZM57.6446 92.5615C52.8086 93.8127 51.09 99.6012 54.3585 103.628C55.1375 104.588 55.085 104.572 55.8643 104.106C57.075 103.383 58.4397 103.15 60.0313 103.396C60.608 103.485 60.608 103.485 60.7541 102.911C60.9996 101.947 61.7217 100.689 62.5056 99.8605C63.2509 99.0729 63.2509 99.073 62.7431 98.4046C61.6351 96.947 60.6498 94.1609 60.6408 92.4601C60.6399 92.299 58.3606 92.3761 57.6446 92.5615ZM95.3372 92.4601C95.328 94.1609 94.3429 96.947 93.2349 98.4046C92.7272 99.073 92.7272 99.0729 93.4725 99.8605C94.2561 100.689 94.9785 101.947 95.224 102.911C95.3701 103.485 95.3701 103.485 95.9468 103.396C97.5383 103.15 98.903 103.383 100.114 104.106C100.893 104.572 100.841 104.588 101.62 103.628C104.344 100.272 103.531 94.9238 100.042 93.2349C98.5432 92.5097 95.3399 91.9821 95.3372 92.4601ZM73.1499 98.3497C69.7527 99.9132 69.4444 103.726 72.3625 108.085C73.2599 109.425 73.2599 109.425 73.6096 108.879C75.4691 105.98 80.509 105.98 82.3684 108.879C82.8742 109.668 84.9104 106.662 85.4276 104.363C86.351 100.259 82.3023 96.0858 80.0136 98.7818C79.5268 99.3555 78.9287 100.409 78.6924 101.108C78.235 102.464 77.7431 102.464 77.2856 101.108C76.9198 100.025 76.1487 98.8563 75.4446 98.3191C74.9442 97.9372 74.0195 97.9495 73.1499 98.3497ZM49.0328 99.1825C42.8611 99.9842 41.7337 108.755 47.3199 112.506C48.5092 113.305 51.9033 114.713 51.9033 114.408C51.9033 114.389 51.7912 113.939 51.6539 113.408C51.0684 111.145 51.6797 108.297 53.1337 106.513C53.5235 106.035 53.5235 106.035 52.5446 105.012C51.0941 103.497 50.309 101.869 50.0926 99.926C49.9905 99.0097 50.0485 99.0502 49.0328 99.1825ZM106.005 99.2054C105.98 99.2794 105.901 99.7422 105.828 100.234C105.539 102.182 104.843 103.557 103.381 105.07C102.452 106.032 102.452 106.032 102.843 106.512C104.298 108.297 104.91 111.144 104.324 113.408C104.187 113.939 104.075 114.389 104.075 114.408C104.075 114.713 107.469 113.305 108.658 112.506C113.607 109.183 113.521 101.949 108.505 99.6362C107.678 99.255 106.078 98.9793 106.005 99.2054ZM66.0822 100.774C62.1565 101.332 61.3561 107.704 64.674 111.984C64.9609 112.354 65.2338 112.711 65.28 112.778C65.3301 112.85 65.5588 112.767 65.8418 112.574C67.4408 111.483 69.3756 111.246 72.2982 111.783C72.3951 111.801 72.9247 110.497 72.8401 110.449C69.6619 108.633 67.8482 105.41 68.0311 101.902C68.084 100.885 68.084 100.885 67.6384 100.812C67.3934 100.771 67.1084 100.722 67.0055 100.703C66.9026 100.684 66.4872 100.716 66.0822 100.774ZM88.9099 100.706C88.8414 100.724 88.5847 100.772 88.3396 100.812C87.894 100.885 87.894 100.885 87.9469 101.902C88.1298 105.41 86.3162 108.633 83.1377 110.449C83.0531 110.497 83.5829 111.801 83.6799 111.783C86.6024 111.246 88.5373 111.483 90.1363 112.574C90.4192 112.767 90.648 112.85 90.698 112.778C90.7443 112.711 91.0169 112.354 91.304 111.984C93.7426 108.838 94.0395 103.506 91.8805 101.627C91.2126 101.046 89.5567 100.532 88.9099 100.706ZM58.1193 105.868C53.3082 107.149 52.9712 113.723 57.501 117.931C60.7748 120.973 57.5774 120.26 54.0114 117.153C53.0446 116.311 53.0446 116.311 52.3077 116.387C49.2983 116.698 44.6626 114.067 42.1907 110.644C41.6204 109.855 41.6204 109.855 41.2577 110.274C36.1184 116.214 33.1935 121.533 29.8626 130.994C29.0382 133.336 29.03 133.153 29.9677 133.33C45.9721 136.333 56.5324 153.193 56.8615 176.266C56.9331 181.306 56.8059 181.004 58.5786 180.347C59.661 179.946 59.8803 179.642 60.7647 177.313C64.8113 166.654 68.2182 162.427 73.9258 160.983C75.107 160.686 75.0724 160.708 75.1733 160.177C75.4014 158.974 76.6846 155.827 77.147 155.336C78.2621 154.152 80.131 156.625 80.8047 160.177C80.9056 160.708 80.871 160.686 82.0522 160.983C87.7598 162.427 91.1665 166.654 95.2134 177.313C96.0977 179.642 96.317 179.946 97.3995 180.347C99.1721 181.004 99.0447 181.306 99.1166 176.266C99.4456 153.192 110.005 136.333 126.01 133.33C126.948 133.153 126.94 133.336 126.115 130.994C122.785 121.533 119.86 116.214 114.72 110.274C114.358 109.855 114.358 109.855 113.787 110.644C111.315 114.067 106.68 116.698 103.67 116.387C102.933 116.311 102.933 116.311 101.967 117.153C98.4006 120.26 95.2033 120.973 98.4771 117.931C101.745 114.895 102.57 111.759 100.94 108.571C99.6481 106.044 95.6629 104.53 95.4097 106.47C95.0049 109.572 93.7645 111.959 91.8962 113.23C91.3521 113.6 91.3521 113.6 91.8159 114.43C92.8832 116.339 92.3559 118.82 90.4856 120.69C88.9031 122.271 87.6318 122.375 89.0838 120.804C90.9887 118.743 90.8562 116.231 88.811 115.631C87.5875 115.271 83.7303 115.424 83.7303 115.831C83.7303 116.759 82.4905 119.609 81.7545 120.374C80.8415 121.323 80.6502 120.911 81.2789 119.351C83.2052 114.571 81.5998 110.015 77.989 110.015C74.3783 110.015 72.7729 114.571 74.6989 119.351C75.3278 120.911 75.1365 121.323 74.2235 120.374C73.4875 119.609 72.2477 116.759 72.2477 115.831C72.2477 115.424 68.3906 115.271 67.1671 115.631C65.1216 116.231 64.9892 118.743 66.894 120.804C68.3463 122.375 67.075 122.271 65.4925 120.69C63.622 118.82 63.0948 116.339 64.1621 114.43C64.626 113.6 64.626 113.6 64.0817 113.23C62.2154 111.96 60.9729 109.571 60.5692 106.477C60.5028 105.969 60.4323 105.826 60.2199 105.77C59.7814 105.653 58.7443 105.702 58.1193 105.868ZM23.7144 136.419C16.3497 137.575 17.4572 145.596 25.91 152.317C28.5932 154.451 28.6419 154.48 32.9321 156.666C48.7474 164.723 52.9018 169.675 52.9018 180.469C52.9018 181.211 53.4347 181.438 54.1813 181.013C54.3157 180.936 54.2944 175.772 54.1482 173.013C53.4616 160.056 48.2113 147.944 40.6849 141.956C35.7066 137.995 28.5502 135.66 23.7144 136.419ZM128.475 136.378C114.818 137.816 104.433 150.737 102.144 169.141C101.78 172.07 101.523 180.856 101.797 181.013C102.543 181.438 103.076 181.211 103.076 180.469C103.076 169.673 107.228 164.725 123.046 156.666C127.336 154.48 127.385 154.451 130.068 152.317C140.198 144.264 139.296 135.239 128.475 136.378ZM18.3645 152.868C12.6195 159.06 10.9264 171.85 14.6442 180.973C19.8624 193.781 36.9362 205.688 51.9657 207.001C58.7767 207.596 60.3228 207.495 59.6714 206.492C58.603 204.85 54.9411 198.186 52.8016 193.993C52.2473 192.906 51.3875 191.381 50.8905 190.599C48.6584 187.093 48.4946 184.545 50.3735 182.56C51.486 181.383 50.7872 175.821 49.1049 172.458C48.273 170.794 48.3303 170.812 47.5387 171.995C38.4328 185.623 19.8549 175.195 20.2315 156.667C20.289 153.84 20.289 153.84 19.5007 153.214C18.5809 152.486 18.6885 152.518 18.3645 152.868ZM136.45 153.223C135.689 153.84 135.689 153.84 135.746 156.667C136.123 175.195 117.545 185.623 108.439 171.995C107.648 170.812 107.705 170.794 106.873 172.458C105.191 175.821 104.492 181.383 105.605 182.56C107.483 184.545 107.32 187.093 105.088 190.599C104.591 191.381 103.731 192.906 103.176 193.993C101.037 198.186 97.375 204.85 96.3066 206.492C95.651 207.501 95.4677 207.453 99.3032 207.274C107.302 206.906 110.629 206.177 117.117 203.365C140.576 193.204 150.116 171.616 138.734 154.447C137.327 152.325 137.466 152.4 136.45 153.223ZM23.3907 156.2C22.1811 160.17 24.5759 167.652 28.284 171.491C29.4355 172.681 29.5047 172.687 29.0445 171.572C27.1956 167.079 27.8735 161.508 30.4844 159.74C30.9673 159.412 30.0856 158.863 26.6914 157.38C25.9021 157.035 24.8784 156.566 24.4168 156.338C23.4202 155.844 23.4961 155.855 23.3907 156.2ZM131.72 156.256C131.377 156.433 130.31 156.928 129.349 157.356C125.64 159.004 124.996 159.403 125.492 159.738C128.105 161.508 128.783 167.077 126.934 171.572C126.473 172.687 126.543 172.681 127.694 171.491C131.402 167.652 133.797 160.17 132.587 156.2C132.484 155.86 132.489 155.86 131.72 156.256ZM76.5117 163.828C71.7358 164.672 67.2658 169.789 63.7994 178.382C62.0615 182.69 61.1576 183.314 55.3982 184.18C51.608 184.75 51.3581 185.663 53.9629 189.42C55.8462 192.139 58.1464 195.892 60.576 200.212C64.918 207.933 66.5201 210.494 68.7282 213.244C76.3435 222.733 82.8524 221.178 90.927 207.938C92.5169 205.331 92.7155 204.989 95.402 200.212C97.8316 195.892 100.132 192.139 102.015 189.42C104.62 185.663 104.37 184.75 100.58 184.18C94.8203 183.314 93.9165 182.69 92.1787 178.382C87.9996 168.024 82.366 162.79 76.5117 163.828ZM63.8232 184.254C62.6567 184.854 62.2361 186.009 62.7791 187.117C63.2097 187.996 64.3955 188.435 65.1251 187.985C65.3259 187.862 65.4775 187.906 66.0908 188.278C68.2835 189.603 69.1193 189.347 68.4377 187.556C67.3976 184.823 65.4376 183.421 63.8232 184.254ZM90.0093 184.31C88.671 184.982 86.9596 187.855 87.3797 188.728C87.6833 189.356 88.2794 189.25 89.8873 188.278C90.5006 187.906 90.6522 187.862 90.8529 187.985C91.5826 188.435 92.7684 187.996 93.199 187.117C94.129 185.22 91.9744 183.32 90.0093 184.31Z" fill="#22110C"/>
<path d="M88.9099 100.706C88.8413 100.724 88.5846 100.772 88.3396 100.812C87.894 100.885 87.894 100.885 87.9469 101.902C88.1298 105.41 86.3161 108.633 83.1377 110.449C83.0531 110.497 83.5827 111.801 83.6796 111.783C86.6024 111.246 88.5372 111.483 90.1363 112.574C90.4192 112.767 90.6479 112.85 90.698 112.778C90.7443 112.711 91.0169 112.354 91.304 111.984C93.7426 108.838 94.0392 103.506 91.8805 101.627C91.2125 101.046 89.5567 100.532 88.9099 100.706Z" fill="#2430F0"/>
<path d="M106.005 99.2055C105.98 99.2795 105.901 99.7423 105.828 100.234C105.539 102.182 104.843 103.558 103.381 105.07C102.452 106.032 102.452 106.032 102.843 106.512C104.298 108.297 104.91 111.145 104.324 113.409C104.187 113.939 104.075 114.389 104.075 114.408C104.075 114.713 107.469 113.305 108.658 112.506C113.607 109.183 113.521 101.949 108.505 99.6363C107.678 99.255 106.078 98.9794 106.005 99.2055Z" fill="#2430F0"/>
<path d="M95.3372 92.46C95.3282 94.1609 94.3429 96.947 93.2349 98.4045C92.7271 99.0729 92.7271 99.0729 93.4724 99.8605C94.2561 100.689 94.9784 101.947 95.2239 102.911C95.37 103.485 95.37 103.485 95.9467 103.396C97.5383 103.15 98.903 103.383 100.114 104.106C100.893 104.572 100.841 104.588 101.62 103.628C104.344 100.272 103.531 94.9238 100.042 93.2349C98.5431 92.5096 95.3398 91.9821 95.3372 92.46Z" fill="#2430F0"/>
<path d="M86.691 89.2982C86.5894 91.7805 86.1422 93.3572 85.0717 95.0073C84.6801 95.6109 84.6801 95.6109 85.2735 96.1063C85.5999 96.3787 86.1255 96.9596 86.4415 97.3975C87.0773 98.2785 86.8935 98.2289 88.3933 97.9235C88.8502 97.8303 89.2182 97.8448 89.8846 97.9821C90.9133 98.1943 90.7449 98.3281 91.5944 96.6251C93.9936 91.8173 92.425 87.7552 88.1013 87.5789L86.7637 87.5247L86.691 89.2982Z" fill="#2430F0"/>
<path d="M76.6311 84.1068C72.6814 84.8036 71.4061 88.4585 73.5073 93.0589C74.133 94.4287 74.133 94.4287 75.0931 94.4386C75.9556 94.4475 76.1518 94.4983 77.0211 94.9373C77.989 95.4263 77.989 95.4263 78.9569 94.9373C79.826 94.4983 80.0223 94.4475 80.8847 94.4386C81.8448 94.4287 81.8448 94.4287 82.47 93.0589C85.0477 87.4099 82.247 83.1162 76.6311 84.1068Z" fill="#2430F0"/>
<path d="M73.1499 98.3497C69.7527 99.9134 69.4444 103.726 72.3627 108.085C73.2598 109.425 73.2598 109.425 73.6096 108.879C75.4691 105.98 80.5089 105.98 82.3684 108.879C82.8742 109.668 84.9104 106.662 85.4276 104.363C86.3509 100.259 82.3023 96.0858 80.0135 98.7818C79.5267 99.3555 78.9287 100.409 78.6924 101.108C78.2352 102.464 77.7431 102.464 77.2856 101.108C76.92 100.025 76.1487 98.8563 75.4448 98.3191C74.9441 97.9372 74.0195 97.9495 73.1499 98.3497Z" fill="#2430F0"/>
<path d="M66.0822 100.774C62.1565 101.332 61.3561 107.704 64.674 111.984C64.9609 112.354 65.2338 112.711 65.28 112.778C65.3301 112.85 65.5588 112.767 65.8418 112.574C67.4405 111.483 69.3756 111.246 72.2982 111.783C72.3951 111.801 72.9247 110.497 72.8401 110.449C69.6619 108.633 67.8482 105.41 68.0309 101.902C68.0838 100.885 68.0838 100.885 67.6384 100.812C67.3934 100.771 67.1084 100.722 67.0055 100.703C66.9026 100.684 66.487 100.716 66.0822 100.774Z" fill="#2430F0"/>
<path d="M57.6446 92.5615C52.8086 93.8128 51.0899 99.6012 54.3585 103.629C55.1375 104.588 55.085 104.572 55.8643 104.106C57.075 103.383 58.4397 103.15 60.0313 103.396C60.608 103.485 60.608 103.485 60.7541 102.911C60.9996 101.947 61.7219 100.689 62.5056 99.8606C63.2509 99.073 63.2509 99.073 62.7431 98.4046C61.6353 96.9471 60.6501 94.161 60.6408 92.4601C60.6399 92.2991 58.3606 92.3762 57.6446 92.5615Z" fill="#2430F0"/>
<path d="M66.5002 87.7227C63.2643 88.5855 62.3308 92.5116 64.3833 96.625C65.2331 98.328 65.0645 98.1943 66.0932 97.9823C66.7598 97.8448 67.1276 97.8302 67.5847 97.9235C69.0845 98.2289 68.9007 98.2785 69.5365 97.3974C69.8523 96.9596 70.3779 96.3787 70.7042 96.1063C71.2977 95.6109 71.2977 95.6109 70.9063 95.0073C69.8382 93.3607 69.3886 91.7793 69.2875 89.3131C69.2114 87.4563 68.666 87.1451 66.5002 87.7227Z" fill="#2430F0"/>
<path d="M49.0328 99.1825C42.8611 99.9844 41.7336 108.755 47.3198 112.506C48.5092 113.305 51.9033 114.713 51.9033 114.408C51.9033 114.389 51.7911 113.939 51.6538 113.408C51.0683 111.145 51.6796 108.297 53.1336 106.513C53.5235 106.035 53.5235 106.035 52.5446 105.012C51.0943 103.497 50.3089 101.869 50.0925 99.926C49.9905 99.0097 50.0484 99.0502 49.0328 99.1825Z" fill="#2430F0"/>
<path d="M128.475 136.378C114.818 137.816 104.433 150.738 102.144 169.142C101.78 172.07 101.523 180.857 101.797 181.013C102.543 181.438 103.076 181.211 103.076 180.469C103.076 169.673 107.228 164.725 123.046 156.666C127.336 154.481 127.385 154.451 130.068 152.317C140.198 144.264 139.296 135.239 128.475 136.378Z" fill="#2BE1B7"/>
<path d="M136.45 153.223C135.689 153.84 135.689 153.84 135.746 156.667C136.123 175.195 117.545 185.623 108.439 171.995C107.648 170.812 107.705 170.794 106.873 172.458C105.191 175.821 104.492 181.383 105.604 182.56C107.483 184.545 107.32 187.093 105.087 190.599C104.591 191.381 103.731 192.906 103.176 193.993C101.037 198.186 97.375 204.85 96.3066 206.492C95.651 207.501 95.4677 207.453 99.3032 207.274C107.302 206.906 110.629 206.177 117.117 203.365C140.576 193.204 150.116 171.616 138.734 154.447C137.327 152.325 137.466 152.4 136.45 153.223Z" fill="#2BE1B7"/>
<path d="M18.3645 152.868C12.6194 159.06 10.9263 171.85 14.6442 180.973C19.8623 193.781 36.9362 205.688 51.9659 207.001C58.7766 207.596 60.3228 207.495 59.6713 206.492C58.603 204.85 54.9411 198.186 52.8015 193.993C52.2473 192.906 51.3874 191.381 50.8905 190.599C48.6583 187.093 48.4946 184.545 50.3735 182.56C51.4859 181.383 50.7871 175.821 49.1048 172.458C48.2729 170.794 48.3302 170.812 47.5386 171.995C38.4329 185.623 19.8548 175.195 20.2314 156.667C20.289 153.84 20.289 153.84 19.5009 153.214C18.5809 152.486 18.6886 152.518 18.3645 152.868Z" fill="#2BE1B7"/>
<path d="M23.7144 136.419C16.3496 137.575 17.4572 145.597 25.91 152.317C28.5932 154.451 28.6419 154.481 32.9321 156.666C48.7474 164.723 52.9018 169.675 52.9018 180.469C52.9018 181.211 53.4347 181.438 54.1813 181.013C54.3157 180.936 54.2943 175.773 54.1482 173.014C53.4618 160.056 48.2114 147.944 40.6849 141.956C35.7065 137.995 28.5502 135.66 23.7144 136.419Z" fill="#2BE1B7"/>
<path d="M58.1195 105.868C53.3084 107.149 52.9712 113.723 57.501 117.931C60.775 120.973 57.5774 120.26 54.0114 117.153C53.0446 116.311 53.0446 116.311 52.3079 116.387C49.2983 116.698 44.6626 114.067 42.1909 110.644C41.6204 109.855 41.6204 109.855 41.2577 110.274C36.1186 116.214 33.1934 121.533 29.8625 130.994C29.0381 133.336 29.03 133.153 29.9679 133.33C45.9721 136.333 56.5326 153.193 56.8614 176.266C56.9333 181.306 56.8059 181.004 58.5786 180.347C59.661 179.946 59.8803 179.642 60.7646 177.313C64.8115 166.653 68.2182 162.427 73.926 160.983C75.107 160.686 75.0724 160.708 75.1733 160.177C75.4014 158.974 76.6849 155.827 77.147 155.336C78.2621 154.152 80.131 156.625 80.8047 160.177C80.9056 160.708 80.871 160.686 82.0522 160.983C87.76 162.427 91.1667 166.653 95.2134 177.313C96.0977 179.642 96.3172 179.946 97.3995 180.347C99.1721 181.004 99.045 181.306 99.1166 176.266C99.4456 153.192 110.005 136.333 126.01 133.33C126.948 133.153 126.94 133.336 126.115 130.994C122.785 121.533 119.86 116.214 114.721 110.274C114.358 109.855 114.358 109.855 113.787 110.644C111.315 114.067 106.68 116.698 103.67 116.387C102.934 116.311 102.934 116.311 101.967 117.153C98.4008 120.26 95.2032 120.973 98.4771 117.931C101.745 114.895 102.57 111.759 100.94 108.571C99.6483 106.044 95.6629 104.53 95.41 106.47C95.0049 109.572 93.7645 111.959 91.8964 113.23C91.3521 113.6 91.3521 113.6 91.8162 114.43C92.8834 116.339 92.3561 118.821 90.4858 120.69C88.9033 122.271 87.632 122.375 89.084 120.804C90.9889 118.743 90.8564 116.231 88.8112 115.631C87.5875 115.272 83.7303 115.424 83.7303 115.831C83.7303 116.759 82.4907 119.609 81.7545 120.374C80.8417 121.323 80.6502 120.911 81.2791 119.351C83.2054 114.571 81.5998 110.015 77.989 110.015C74.3785 110.015 72.7728 114.571 74.6991 119.351C75.3278 120.911 75.1365 121.323 74.2235 120.374C73.4875 119.609 72.2477 116.759 72.2477 115.831C72.2477 115.424 68.3906 115.272 67.1671 115.631C65.1218 116.231 64.9894 118.743 66.8942 120.804C68.3463 122.375 67.0749 122.271 65.4925 120.69C63.6222 118.821 63.0948 116.339 64.1621 114.43C64.626 113.6 64.626 113.6 64.0819 113.23C62.2156 111.96 60.9729 109.571 60.5692 106.477C60.5031 105.969 60.4325 105.826 60.2201 105.77C59.7813 105.653 58.7443 105.702 58.1195 105.868Z" fill="#2430F0"/>
<path fill-rule="evenodd" clip-rule="evenodd" d="M76.5116 163.828C71.7358 164.672 67.2658 169.789 63.7993 178.381C62.0613 182.69 61.1575 183.313 55.3982 184.179C51.608 184.75 51.3581 185.663 53.9629 189.42C55.8462 192.139 58.1464 195.892 60.576 200.211C64.9177 207.933 66.52 210.494 68.7281 213.244C76.3435 222.733 82.8523 221.177 90.9269 207.938C92.5169 205.331 92.7155 204.989 95.402 200.211C97.8316 195.892 100.132 192.139 102.015 189.42C104.62 185.663 104.37 184.75 100.58 184.179C94.8202 183.313 93.9165 182.69 92.1786 178.381C87.9995 168.024 82.366 162.79 76.5116 163.828ZM62.779 187.117C62.236 186.009 62.6567 184.854 63.8231 184.254C65.4376 183.421 67.3976 184.823 68.4377 187.555C69.1193 189.347 68.2834 189.603 66.0908 188.278C65.4775 187.906 65.3259 187.862 65.1251 187.985C64.3954 188.435 63.2096 187.996 62.779 187.117ZM87.3796 188.728C86.9596 187.855 88.671 184.982 90.0091 184.309C91.9744 183.32 94.1289 185.22 93.199 187.117C92.7684 187.996 91.5825 188.435 90.8529 187.985C90.6521 187.862 90.5005 187.906 89.887 188.278C88.2792 189.25 87.6833 189.356 87.3796 188.728Z" fill="#F2C79C"/>
<path fill-rule="evenodd" clip-rule="evenodd" d="M52.298 61.277C50.6375 55.0899 45.4641 50.2164 38.4354 51.5159C32.858 52.5473 27.9023 56.7843 26.6041 61.5877C26.9878 62.9258 27.622 64.2178 28.5317 65.4072C34.9681 73.8216 46.5576 72.9727 51.3325 63.7372C51.7506 62.9289 52.0699 62.1054 52.298 61.277Z" fill="#2430F0"/>
<path fill-rule="evenodd" clip-rule="evenodd" d="M58.6519 37.9839C58.4126 37.2743 58.2233 36.5603 58.0816 35.8454C59.5354 28.4075 66.7212 21.953 75.2187 20.4179C86.5916 18.3636 95.9593 26.0673 97.9021 35.8326C97.7591 36.5486 97.568 37.2666 97.3263 37.9839C91.6019 54.9716 64.376 54.9716 58.6519 37.9839Z" fill="#2430F0"/>
<path d="M114.141 44.9296C106.071 46.3713 101.888 54.2469 103.69 61.2648C104.882 56.5614 109.541 52.5141 115.089 51.5229C122.362 50.2238 127.663 55.4084 129.372 61.6335C131.86 53.1448 123.927 43.1814 114.141 44.9296Z" fill="#2430F0"/>
<path d="M58.0814 35.8457C59.5354 28.4075 66.7212 21.9531 75.2187 20.418C86.5916 18.3639 95.9591 26.0676 97.9021 35.8327C100.41 23.2773 88.1251 11.3222 74.2709 13.8247C63.316 15.8036 56.1165 25.9327 58.0814 35.8457Z" fill="#2430F0"/>
<path d="M38.4354 51.5157C45.4641 50.2162 50.6375 55.0897 52.2983 61.2768C54.7109 52.5149 46.9159 43.1793 37.4876 44.9225C29.3971 46.4183 24.6092 54.6269 26.6042 61.5875C27.9024 56.7841 32.8581 52.547 38.4354 51.5157Z" fill="#2430F0"/>
<path d="M107.581 67.7412C113.384 73.154 122.324 72.1034 127.446 65.4071C128.357 64.2164 128.988 62.9424 129.372 61.6337C127.663 55.4084 122.362 50.2238 115.089 51.5228C109.541 52.5141 104.882 56.5614 103.69 61.2648C104.293 63.6099 105.563 65.8597 107.581 67.7412Z" fill="#2430F0"/>
<path fill-rule="evenodd" clip-rule="evenodd" d="M61.0985 29.1439C64.2731 24.7844 69.4479 21.4625 75.2297 20.4179C83.8819 18.8551 91.3738 22.9403 95.3185 29.2843C96.0704 28.5362 96.7581 27.7757 97.3262 27.0308C94.3918 18.3434 84.7881 11.9271 74.2819 13.8247C67.0233 15.1359 61.4136 20.0248 59.0259 26.0583C59.5424 27.0427 60.2721 28.0992 61.0985 29.1439Z" fill="#F2C79C"/>
<path d="M61.0983 29.1439C63.917 32.708 67.8632 36.1398 68.3388 36.1398C68.6986 36.1398 70.6883 34.2287 72.755 32.2445C74.9867 30.1008 77.3083 27.8715 77.762 27.8715C78.1988 27.8715 80.0711 29.9386 81.9431 32.0056C83.8154 34.0727 85.6874 36.1398 86.1244 36.1398C86.6815 36.1398 91.7328 32.8512 95.3185 29.2843C91.3739 22.9403 83.8819 18.855 75.2297 20.4179C69.4477 21.4625 64.2731 24.7843 61.0983 29.1439Z" fill="#2BE1B7"/>
<path d="M26.6705 61.2393C28.1084 56.5807 32.9587 52.5219 38.401 51.5157C42.5625 50.7464 46.0734 52.1407 48.5901 54.6904C49.0577 52.9812 49.3962 50.9399 49.3565 49.2263C46.5318 45.9749 42.1995 44.0449 37.4532 44.9225C29.5538 46.3829 24.8026 54.243 26.4398 61.0924C26.5156 61.1419 26.5927 61.1909 26.6705 61.2393Z" fill="#2BE1B7"/>
<path d="M26.6705 61.2395C29.7312 63.1508 33.9037 63.9853 35.0031 63.3513C35.8542 62.8606 36.2482 60.3849 36.3408 57.8352C36.4113 55.8975 36.4743 54.1628 36.8516 53.843C37.2685 53.4895 39.2909 54.6394 41.434 55.8581C43.7827 57.1933 46.4357 58.358 47.1211 57.9708C47.6109 57.694 48.0936 56.506 48.5901 54.6906C46.0734 52.1409 42.5623 50.7466 38.4008 51.5159C32.9587 52.5221 28.1084 56.5809 26.6705 61.2395Z" fill="#2BE1B7"/>
<path fill-rule="evenodd" clip-rule="evenodd" d="M104.619 52.4297C104.806 53.7872 108.738 61.0682 109.799 61.3151C110.373 61.4488 112.338 60.0625 114.139 58.7927C115.663 57.7175 117.069 56.7258 117.412 56.8107C117.725 56.888 118.322 57.8176 119.02 58.9046C119.991 60.4177 121.159 62.236 122.03 62.4874C123.159 62.8129 127.655 60.475 129.855 58.9071C130.195 51.1688 122.926 43.3661 114.175 44.9296C109.605 45.7459 106.282 48.625 104.586 52.2431C104.599 52.3001 104.61 52.3621 104.619 52.4297Z" fill="#2BE1B7"/>
<path d="M131.72 156.256C131.377 156.433 130.31 156.928 129.349 157.356C125.64 159.004 124.996 159.403 125.492 159.738C128.104 161.508 128.783 167.077 126.933 171.572C126.473 172.687 126.543 172.681 127.694 171.491C131.402 167.652 133.797 160.17 132.587 156.199C132.483 155.86 132.489 155.86 131.72 156.256Z" fill="#F1F1F1"/>
<path d="M23.3907 156.2C22.1811 160.17 24.5759 167.652 28.284 171.491C29.4355 172.681 29.5047 172.687 29.0445 171.572C27.1956 167.079 27.8735 161.508 30.4844 159.74C30.9673 159.412 30.0856 158.863 26.6914 157.38C25.9021 157.035 24.8784 156.566 24.4168 156.338C23.4202 155.844 23.4961 155.855 23.3907 156.2Z" fill="#F1F1F1"/>
<path d="M123.593 167.507C123.593 167.099 123.23 166.766 122.782 166.766C122.334 166.766 121.971 167.099 121.971 167.507C121.971 167.916 122.334 168.247 122.782 168.247C123.23 168.247 123.593 167.916 123.593 167.507Z" fill="#F1F1F1"/>
<path opacity="0.2" fill-rule="evenodd" clip-rule="evenodd" d="M96.7901 39.3845C89.846 47.0316 76.0442 51.2398 60.2737 41.5014C68.0719 54.4684 90.5946 53.7628 96.7901 39.3845ZM49.3424 66.6955C42.0332 69.7185 32.1092 66.6236 27.2613 63.3278C27.6018 64.0464 28.024 64.7425 28.5319 65.407C34.1968 72.8125 43.8532 73.0428 49.3424 66.6955ZM128.576 63.6246C124.374 67.532 115.865 70.3098 105.926 65.9043C106.408 66.5463 106.959 67.1611 107.581 67.7411C113.384 73.1539 122.324 72.1033 127.447 65.407C127.887 64.8305 128.263 64.2346 128.576 63.6246Z" fill="#22110C"/>
<path d="M58.0816 35.8457C59.5356 28.4075 66.7212 21.9531 75.2189 20.4182C86.5916 18.3639 95.9593 26.0674 97.9023 35.8327C100.41 23.2773 88.1252 11.3222 74.2711 13.8247C63.3161 15.8036 56.1168 25.9327 58.0816 35.8457Z" fill="#2430F0"/>
<path fill-rule="evenodd" clip-rule="evenodd" d="M61.0985 29.1439C64.2731 24.7844 69.4479 21.4625 75.2297 20.4181C83.8819 18.8551 91.3738 22.9403 95.3185 29.2843C96.0704 28.5362 96.7581 27.7759 97.3262 27.0308C94.3918 18.3434 84.7881 11.9271 74.2819 13.8247C67.0233 15.1359 61.4136 20.0248 59.0259 26.0581C59.5424 27.0427 60.2721 28.0992 61.0985 29.1439Z" fill="#2BE1B7"/>
<g opacity="0.2">
<g style="mix-blend-mode:hard-light">
<path fill-rule="evenodd" clip-rule="evenodd" d="M82.9934 86.7832C82.0809 84.6756 79.806 83.5468 76.6311 84.1068C74.7562 84.4378 73.484 85.4352 72.8894 86.8839C74.1405 85.8625 76.3543 85.5286 78.006 85.494C79.6021 85.5275 81.7232 85.8404 82.9934 86.7832ZM69.0938 88.1171C67.5474 88.3518 64.7232 89.0955 63.4959 90.8071C63.9051 89.278 64.9325 88.1409 66.5002 87.7228C68.0695 87.3044 68.7881 87.3524 69.0938 88.1171ZM60.6593 92.8661C60.6479 92.7253 60.6415 92.5895 60.6406 92.4601C60.6397 92.299 58.3606 92.3764 57.6446 92.5615C55.1939 93.1957 53.5435 94.9953 52.9375 97.1402C54.5766 94.8487 57.6286 92.9379 60.6593 92.8661ZM43.7128 105.351C44.4372 102.915 47.1363 100.373 49.3305 100.373C49.6408 100.373 49.9112 100.356 50.1461 100.326C50.1254 100.194 50.1078 100.061 50.0926 99.9261C50.0877 99.8809 50.0831 99.8379 50.0784 99.7974C50.0397 99.4375 50.0194 99.2522 49.9156 99.1689C49.805 99.0803 49.5996 99.1076 49.1756 99.1636C49.1304 99.1698 49.0828 99.1761 49.0328 99.1825C45.7211 99.6127 43.8616 102.338 43.7128 105.351ZM76.6199 99.7097C75.347 98.7323 73.4635 98.346 70.8188 100.534C71.2653 99.6063 72.0439 98.8588 73.1497 98.3498C74.0193 97.9496 74.9442 97.9372 75.4446 98.3191C75.8435 98.6235 76.264 99.1305 76.6199 99.7097ZM84.8053 100.227C83.6633 98.1444 81.4781 97.0568 80.0135 98.7819C79.8 99.0336 79.5649 99.3778 79.3485 99.7436C80.5594 98.7907 82.3336 98.3634 84.8053 100.227ZM68.0516 101.462C68.0708 100.884 68.0073 100.873 67.6384 100.812C67.3934 100.771 67.1084 100.722 67.0055 100.703C66.9026 100.684 66.487 100.716 66.0822 100.774C64.1539 101.048 62.9798 102.725 62.6772 104.867C63.4406 102.416 66.3182 101.271 68.0516 101.462ZM95.4814 106.188C96.081 104.695 99.7171 106.18 100.94 108.571C101.28 109.236 101.513 109.898 101.64 110.558C100.703 107.954 97.7518 106.76 95.4814 106.188ZM83.7272 115.917C83.7292 115.887 83.7303 115.858 83.7303 115.832C83.7303 115.424 87.5875 115.272 88.811 115.631C89.3908 115.801 89.8167 116.125 90.0862 116.548C88.9156 115.527 86.3688 115.716 83.7272 115.917ZM74.8622 111.696C75.5718 110.651 76.6406 110.015 77.989 110.015C79.3119 110.015 80.3657 110.627 81.0753 111.637C80.1916 110.955 78.9809 110.605 78.006 110.514C77.0033 110.607 75.7516 110.975 74.8622 111.696ZM65.8486 116.619C66.115 116.161 66.5553 115.81 67.1668 115.631C68.3906 115.272 72.2477 115.424 72.2477 115.832C72.2477 115.858 72.2486 115.886 72.2506 115.915C69.5618 115.71 66.9769 115.523 65.8486 116.619ZM60.5229 106.19C58.2013 106.776 55.1725 108.011 54.3109 110.739C54.4499 108.437 55.7354 106.503 58.1193 105.868C58.7443 105.702 59.7814 105.653 60.2199 105.77C60.3854 105.813 60.4647 105.91 60.5229 106.19ZM92.515 90.806C91.9874 88.9186 90.4514 87.6748 88.1014 87.5792L86.7635 87.5247L86.7404 88.0915C88.2378 88.2943 91.2388 89.0274 92.515 90.806ZM103.002 97.041C102.567 95.3909 101.557 93.9681 100.042 93.235C98.5432 92.5097 95.3399 91.9822 95.3372 92.4601C95.3366 92.5895 95.3304 92.7248 95.3187 92.8654C98.3169 92.9229 101.341 94.7855 103.002 97.041ZM112.309 105.384C111.599 102.938 108.886 100.373 106.681 100.373C106.348 100.373 106.062 100.354 105.815 100.319C105.819 100.291 105.824 100.263 105.828 100.234C105.901 99.7423 105.98 99.2795 106.005 99.2055C106.078 98.9794 107.678 99.255 108.505 99.6363C110.911 100.745 112.182 102.986 112.309 105.384ZM93.262 104.655C93.0976 103.381 92.6417 102.29 91.8805 101.627C91.2126 101.046 89.5567 100.532 88.9099 100.706C88.8414 100.724 88.5847 100.772 88.3396 100.812C87.97 100.873 87.907 100.884 87.9264 101.466C89.6056 101.263 92.3975 102.334 93.262 104.655Z" fill="white"/>
</g>
</g>
<g style="mix-blend-mode:hard-light">
<path fill-rule="evenodd" clip-rule="evenodd" d="M135.083 137.481C130.165 137.116 124.43 138.728 120.286 141.283C114.482 144.862 105.558 154.365 103.686 163.557C103.168 166.1 102.78 166.933 102.492 166.751C105.351 149.624 115.417 137.753 128.475 136.378C131.42 136.068 133.631 136.511 135.083 137.481Z" fill="white" fill-opacity="0.4"/>
</g>
<g style="mix-blend-mode:hard-light">
<path fill-rule="evenodd" clip-rule="evenodd" d="M20.6398 137.598C25.6852 137.047 31.7236 138.684 36.038 141.345C41.8417 144.924 50.7656 154.426 52.6378 163.619C52.9316 165.063 53.1835 165.953 53.399 166.422C51.5856 156.066 46.915 146.913 40.6849 141.956C35.7066 137.995 28.5502 135.66 23.7144 136.419C22.4365 136.62 21.4136 137.027 20.6398 137.598Z" fill="white" fill-opacity="0.4"/>
</g>
<g style="mix-blend-mode:hard-light">
<path fill-rule="evenodd" clip-rule="evenodd" d="M65.6826 174.245C69.7637 169.807 74.9926 169.049 77.7878 169.049C80.6912 169.049 86.4466 169.977 90.6017 174.854C86.6346 166.852 81.6586 162.916 76.5118 163.828C72.561 164.527 68.8196 168.15 65.6826 174.245Z" fill="white" fill-opacity="0.4"/>
</g>
<path opacity="0.2" fill-rule="evenodd" clip-rule="evenodd" d="M132.904 158.59C131.038 159.386 128.948 160.194 126.691 161.003C126.354 160.481 125.953 160.051 125.492 159.738C124.996 159.403 125.641 159.004 129.349 157.356C130.31 156.928 131.377 156.433 131.721 156.256L131.734 156.249C132.21 156.003 132.384 155.913 132.474 155.966C132.525 155.996 132.549 156.072 132.586 156.195L132.587 156.2C132.801 156.901 132.902 157.711 132.904 158.59ZM23.0771 158.387C24.963 159.231 27.0665 160.086 29.3286 160.941C29.6567 160.448 30.043 160.038 30.4848 159.74C30.9677 159.412 30.0857 158.863 26.6918 157.38C25.9025 157.035 24.8788 156.566 24.4172 156.338C24.3528 156.306 24.2933 156.276 24.2376 156.249C23.7351 156 23.5683 155.916 23.4905 155.967C23.4515 155.992 23.435 156.05 23.4096 156.138C23.4041 156.156 23.3982 156.177 23.3911 156.2C23.1943 156.846 23.0927 157.587 23.0771 158.387Z" fill="#22110C"/>
<path opacity="0.2" fill-rule="evenodd" clip-rule="evenodd" d="M50.0643 189.162C49.6661 193.398 51.1342 198.131 51.8119 200.317C51.9273 200.69 52.0197 200.987 52.0761 201.197C52.5598 202.99 47.3042 205.827 28.0262 197.14C35.1439 202.497 43.8525 206.292 51.9657 207.001C58.7764 207.596 60.3226 207.495 59.6712 206.492C58.6028 204.85 54.9409 198.186 52.8013 193.993C52.2471 192.906 51.3872 191.381 50.8903 190.599C50.5734 190.103 50.2979 189.623 50.0643 189.162Z" fill="#22110C"/>
<path opacity="0.2" fill-rule="evenodd" clip-rule="evenodd" d="M128.07 197.1C108.723 205.833 103.451 202.992 103.936 201.196C103.992 200.987 104.085 200.69 104.2 200.317C104.881 198.122 106.359 193.353 105.942 189.107C105.703 189.583 105.418 190.081 105.088 190.599C104.591 191.381 103.731 192.906 103.177 193.993C101.037 198.186 97.3752 204.85 96.3071 206.492C96.0693 206.858 95.8937 207.085 95.949 207.217C96.0464 207.448 96.8582 207.389 99.3034 207.274C107.302 206.906 110.63 206.177 117.118 203.365C121.203 201.595 124.866 199.48 128.07 197.1Z" fill="#22110C"/>
<path opacity="0.2" fill-rule="evenodd" clip-rule="evenodd" d="M59.4845 198.294C63.7022 205.038 65.4114 207.466 67.7171 210.06C76.152 219.558 83.3614 218 92.3049 204.749C93.9802 202.27 94.2607 201.838 96.845 197.686C96.3705 198.501 95.8888 199.345 95.402 200.211C92.7152 204.989 92.5169 205.331 90.9269 207.938C82.8523 221.178 76.3433 222.733 68.7279 213.244C66.52 210.494 64.9177 207.933 60.5758 200.211C60.2086 199.559 59.8446 198.92 59.4845 198.294Z" fill="#22110C"/>
<path d="M77.9123 151.958C76.3521 151.958 74.3551 162.94 73.4815 162.94L71.6716 164.606L77.9123 162.94L85.0889 165.038C84.3191 164.34 82.6675 162.94 82.2183 162.94C81.6566 162.94 79.4723 151.958 77.9123 151.958Z" fill="black" fill-opacity="0.2"/>
<path d="M67.5527 122.463C66.6792 122.463 63.746 120.427 63.746 117.404C64.1621 116.643 64.9942 115.454 64.9942 116.787C64.9942 118.453 66.8663 120.612 67.3656 121.106C67.8648 121.6 68.4265 122.463 67.5527 122.463Z" fill="black" fill-opacity="0.2"/>
<path d="M50.8281 117.404C47.2709 117.404 42.6531 112.776 40.2814 109.629L41.7169 108.395L44.9619 113.023L52.3258 115.182L53.7613 112.838C54.1147 113.373 54.9469 114.664 55.4462 115.553C56.0703 116.663 57.6927 117.527 59.0032 119.378C60.3138 121.229 55.3213 118.946 54.6972 118.638C54.198 118.391 53.1162 117.63 52.6378 117.28C52.6378 117.322 52.276 117.404 50.8281 117.404Z" fill="black" fill-opacity="0.2"/>
<path d="M61.9987 111.789C60.5634 109.999 61.0628 107.901 60.8131 106.112L64.8695 113.393L64.5574 113.948L64.5493 113.944C64.1482 113.735 63.1391 113.21 61.9987 111.789Z" fill="black" fill-opacity="0.2"/>
<path d="M74.7921 121.352C73.4815 121.044 72.2957 118.02 72.2957 115.737L73.5439 115.182L74.3551 118.391C74.6048 119.378 76.1024 121.661 74.7921 121.352Z" fill="black" fill-opacity="0.2"/>
<path d="M88.3341 122.463C89.2076 122.463 92.1407 120.427 92.1407 117.404C91.7247 116.643 90.8926 115.454 90.8926 116.787C90.8926 118.453 89.0205 120.612 88.5212 121.106C88.022 121.6 87.4603 122.463 88.3341 122.463Z" fill="black" fill-opacity="0.2"/>
<path d="M105.059 117.404C108.616 117.404 113.234 112.776 115.605 109.629L114.17 108.395L110.925 113.023L103.561 115.182L102.126 112.838C101.772 113.373 100.94 114.664 100.441 115.553C99.8167 116.663 98.1941 117.527 96.8835 119.378C95.5732 121.229 100.566 118.946 101.19 118.638C101.689 118.391 102.771 117.63 103.249 117.28C103.249 117.322 103.611 117.404 105.059 117.404Z" fill="black" fill-opacity="0.2"/>
<path d="M93.8881 111.789C95.3233 109.999 94.8242 107.901 95.0739 106.112L91.0175 113.393L91.3296 113.948L91.3377 113.944C91.7386 113.735 92.7477 113.21 93.8881 111.789Z" fill="black" fill-opacity="0.2"/>
<path d="M81.0326 121.414C82.3431 121.106 83.5911 118.02 83.5911 115.737L82.3431 115.182L81.5317 118.391C81.282 119.378 79.722 121.723 81.0326 121.414Z" fill="black" fill-opacity="0.2"/>
<path opacity="0.2" d="M63.1466 187.498C62.7098 187.498 64.0827 186.82 63.6457 185.647C64.6859 185.215 66.3168 185.66 67.515 186.696C69.0129 187.992 69.0129 191.201 68.9505 192.558C68.8879 193.916 63.5836 187.498 63.1466 187.498Z" fill="#22110C"/>
<path opacity="0.2" d="M92.7461 187.54C93.1829 187.54 91.8102 186.861 92.2469 185.689C91.2068 185.257 89.5758 185.702 88.3777 186.738C86.88 188.034 86.88 191.242 86.9424 192.6C87.0048 193.957 92.3093 187.54 92.7461 187.54Z" fill="#22110C"/>
<path opacity="0.2" fill-rule="evenodd" clip-rule="evenodd" d="M36.097 156.186C43.6932 160.679 51.0778 165.047 51.0778 170.468C51.0778 170.642 51.0747 170.816 51.0692 170.986C48.5998 165.871 43.2441 161.933 32.9059 156.666C28.6157 154.48 28.567 154.451 25.884 152.317C19.3026 147.084 17.1741 141.064 20.0303 138.108C18.1087 145.546 27.2463 150.951 36.097 156.186Z" fill="#22110C"/>
<path opacity="0.2" fill-rule="evenodd" clip-rule="evenodd" d="M20.1497 137.895L20.0907 138.123C19.1382 141.809 20.9226 144.999 24.0668 147.929C27.2115 150.858 31.7018 153.514 36.129 156.133L36.1321 156.135C39.9278 158.381 43.6765 160.598 46.4761 162.934C49.2748 165.267 51.1402 167.729 51.1402 170.468C51.1402 170.644 51.1373 170.816 51.1316 170.986L51.0128 171.01C48.5533 165.92 43.2159 161.988 32.8775 156.72C30.7333 155.628 29.6457 155.073 28.7592 154.524C27.8717 153.975 27.1857 153.432 25.8448 152.365C22.5483 149.744 20.3628 146.923 19.3599 144.381C18.3573 141.84 18.5338 139.567 19.9851 138.065L20.1497 137.895ZM19.4761 144.336C20.4688 146.853 22.6382 149.658 25.923 152.269C27.2653 153.337 27.9453 153.875 28.8255 154.42C29.7065 154.966 30.7883 155.518 32.9345 156.612C43.1187 161.799 48.4854 165.708 51.0131 170.73C51.0146 170.642 51.0153 170.556 51.0153 170.468C51.0153 167.788 49.1884 165.356 46.3956 163.026C43.6046 160.699 39.8643 158.487 36.0649 156.239L36.0605 156.237C31.6385 153.62 27.1366 150.959 23.9811 148.018C20.8909 145.139 19.0781 141.981 19.9122 138.329C18.6574 139.783 18.523 141.92 19.4761 144.336Z" fill="#22110C"/>
<path opacity="0.2" fill-rule="evenodd" clip-rule="evenodd" d="M119.977 156.186C112.381 160.679 104.996 165.047 104.996 170.468C104.996 170.545 104.997 170.623 104.998 170.697C107.527 165.724 112.874 161.834 123.02 156.666C127.31 154.481 127.359 154.451 130.042 152.317C136.621 147.086 138.547 141.446 136.124 138.446C137.687 145.711 128.693 151.031 119.977 156.186Z" fill="#22110C"/>
<path opacity="0.2" fill-rule="evenodd" clip-rule="evenodd" d="M136.516 144.568C135.51 147.019 133.376 149.745 130.081 152.365C128.74 153.431 128.054 153.974 127.167 154.525C126.28 155.073 125.193 155.628 123.049 156.722C112.902 161.889 107.573 165.772 105.054 170.726L104.936 170.699C104.934 170.622 104.934 170.545 104.934 170.468C104.934 167.729 106.799 165.267 109.598 162.934C112.398 160.598 116.146 158.381 119.942 156.135L119.945 156.133C124.305 153.555 128.726 150.939 131.863 148.062C135 145.185 136.837 142.059 136.063 138.46L136.173 138.408C137.404 139.931 137.522 142.117 136.516 144.568ZM136.238 138.699C137.278 140.164 137.35 142.21 136.401 144.521C135.405 146.948 133.287 149.658 130.003 152.269C128.661 153.337 127.98 153.875 127.101 154.42C126.219 154.965 125.137 155.518 122.991 156.612C112.998 161.702 107.644 165.558 105.059 170.446C105.069 167.773 106.894 165.349 109.678 163.026C112.469 160.699 116.21 158.487 120.009 156.239L120.013 156.237C124.368 153.661 128.8 151.04 131.947 148.152C135.02 145.335 136.882 142.251 136.238 138.699Z" fill="#22110C"/>
<g style="mix-blend-mode:multiply">
<path fill-rule="evenodd" clip-rule="evenodd" d="M17.2439 154.192C17.1686 160.307 17.4037 186.696 48.769 186.696C48.8973 186.696 49.0249 186.696 49.1516 186.696C48.8492 185.072 49.2496 183.719 50.3477 182.56C51.4599 181.383 50.7614 175.821 49.0788 172.458C48.6335 171.566 48.4431 171.158 48.2406 171.151C48.0651 171.147 47.8805 171.444 47.5127 171.995C38.407 185.623 19.8291 175.195 20.2055 156.667C20.263 153.84 20.263 153.84 19.4749 153.215C18.9007 152.76 18.7268 152.602 18.5985 152.632C18.5212 152.65 18.4604 152.737 18.3387 152.868C17.9555 153.281 17.5906 153.723 17.2439 154.192Z" fill="black" fill-opacity="0.2"/>
</g>
<path opacity="0.2" fill-rule="evenodd" clip-rule="evenodd" d="M138.885 154.716C138.933 161.501 138.078 186.82 107.356 186.82C107.152 186.82 106.95 186.82 106.751 186.817C107.097 185.14 106.704 183.75 105.578 182.56C104.466 181.383 105.165 175.821 106.847 172.458C107.293 171.566 107.483 171.158 107.685 171.151C107.861 171.147 108.046 171.444 108.414 171.995C117.519 185.623 136.097 175.195 135.721 156.667C135.68 154.657 135.667 154.076 135.938 153.687C136.048 153.528 136.204 153.402 136.425 153.223C136.837 152.888 137.059 152.679 137.271 152.687C137.582 152.701 137.872 153.186 138.708 154.447C138.768 154.537 138.826 154.627 138.885 154.716Z" fill="#22110C"/>
<path opacity="0.2" fill-rule="evenodd" clip-rule="evenodd" d="M72.532 88.1454C72.3438 89.5493 72.6452 91.2292 73.4811 93.0587C74.1067 94.4288 74.1067 94.4288 75.0669 94.4387C75.9294 94.4475 76.1255 94.4982 76.9949 94.9374C77.9626 95.4262 77.9626 95.4262 78.9304 94.9374C79.7998 94.4982 79.9959 94.4475 80.8584 94.4387C81.8186 94.4288 81.8186 94.4288 82.4438 93.0587C83.279 91.2281 83.5496 89.5399 83.3425 88.1275C82.9279 90.4123 81.9731 93.3986 79.8315 93.6478C78.9044 93.8406 78.2594 93.8527 78.0366 93.834L78.0218 93.8327H77.8493H77.8345C77.6117 93.8514 76.9667 93.8406 76.0396 93.6478C73.9038 93.3992 72.9482 90.4277 72.532 88.1454ZM85.0453 95.0075C86.1158 93.3573 86.563 91.7806 86.6645 89.2983L86.7181 87.9946C87.1284 90.2301 87.0189 93.3604 85.1418 96.0181C84.6552 95.6086 84.6786 95.5729 85.0453 95.0075ZM92.6716 92.9051C92.585 94.046 92.2256 95.3076 91.5682 96.6252C91.4977 96.7665 91.4342 96.8952 91.3765 97.012C91.0237 97.7271 90.8853 98.0074 90.6726 98.0823C90.5356 98.1308 90.3674 98.0935 90.0906 98.0325C90.0208 98.0169 89.9437 97.9999 89.8584 97.9823C89.1918 97.845 88.8239 97.8304 88.3669 97.9236C88.247 97.9479 88.1381 97.9708 88.0385 97.9915C88.0172 97.9959 87.9965 98.0001 87.976 98.0045C88.0575 97.7599 88.6939 97.5605 89.3425 97.3571C89.9527 97.166 90.5735 96.9714 90.7526 96.7328C91.6418 95.5478 92.3208 94.353 92.6716 92.9051ZM95.311 92.4602C95.3017 94.1608 94.3165 96.947 93.2087 98.4047C92.7353 99.0275 92.7033 99.0698 93.3047 99.7108C94.5798 97.8884 95.9078 94.2999 95.4055 92.3447C95.3445 92.3734 95.3112 92.4115 95.311 92.4602ZM103.187 98.235C103.024 99.2789 102.44 101.476 101.549 102.41C100.488 103.52 100.051 103.644 99.1774 103.274C98.6578 103.053 97.8992 103.161 97.3474 103.306C98.3495 103.343 99.255 103.609 100.087 104.106L100.114 104.122L100.161 104.15C100.464 104.332 100.632 104.432 100.785 104.414C100.975 104.391 101.143 104.184 101.519 103.72L101.557 103.674L101.593 103.629C102.857 102.071 103.36 100.085 103.187 98.235ZM112.243 104.914C112.022 106.637 111.394 109.701 108.975 111.727C106.699 113.634 104.981 113.763 104.607 111.048C104.571 110.786 104.52 110.647 104.459 110.606C104.572 111.564 104.525 112.53 104.298 113.409C104.161 113.939 104.048 114.389 104.048 114.408C104.048 114.713 107.442 113.305 108.632 112.506C111.363 110.672 112.561 107.646 112.243 104.914ZM105.791 100.303C105.496 102.215 104.799 103.575 103.355 105.07C102.426 106.032 102.426 106.032 102.817 106.512C102.858 106.563 102.9 106.615 102.94 106.668C104.184 105.419 105.57 103.032 105.791 100.303ZM93.3005 106.09C93.0696 107.395 92.6892 108.824 92.1255 109.505C91.0023 110.863 89.5045 111.233 88.3189 111.048C87.7228 110.955 86.7342 111.214 85.8703 111.517C87.6232 111.443 88.9542 111.786 90.11 112.574C90.393 112.767 90.6217 112.85 90.6715 112.778C90.7178 112.712 90.9906 112.354 91.2778 111.984C92.5471 110.346 93.236 108.116 93.3005 106.09ZM83.2261 110.913C85.0228 109.976 87.9028 107.47 87.8675 103.482C87.5191 106.359 85.8055 108.91 83.1115 110.449C83.0791 110.468 83.1371 110.671 83.2261 110.913ZM85.503 103.75C84.9483 105.367 83.7147 107.911 81.7661 107.222C80.0188 106.605 78.958 106.482 78.0842 106.482C78.0282 106.482 77.9791 106.487 77.9357 106.497C77.8923 106.487 77.8429 106.482 77.7869 106.482C76.9132 106.482 75.8523 106.605 74.105 107.222C72.3466 107.843 71.1705 105.832 70.55 104.246C70.8391 105.439 71.4332 106.736 72.3363 108.085C72.902 108.93 73.1111 109.242 73.2759 109.22C73.3727 109.208 73.454 109.081 73.5834 108.88C75.4426 105.981 80.4827 105.981 82.342 108.88C82.8477 109.668 84.8839 106.662 85.4011 104.363C85.4472 104.159 85.4807 103.954 85.503 103.75ZM62.5732 106.104C62.5948 108.045 63.2623 110.197 64.6476 111.984C64.9347 112.354 65.2075 112.712 65.2538 112.778C65.3036 112.85 65.5323 112.767 65.8153 112.574C66.9577 111.795 68.2713 111.451 69.9942 111.515C69.1317 111.213 68.1468 110.955 67.5525 111.048C66.3667 111.233 64.869 110.863 63.7456 109.505C63.1841 108.827 62.8044 107.406 62.5732 106.104ZM68.0177 103.071C67.77 107.333 70.8371 109.988 72.6904 110.937C72.7845 110.684 72.8473 110.468 72.8138 110.449C69.9922 108.837 68.246 106.116 68.0177 103.071ZM62.5895 99.7435C63.2231 99.0711 63.198 99.038 62.7167 98.4047C61.6089 96.947 60.6236 94.1608 60.6143 92.4602C60.6141 92.4342 60.5546 92.4144 60.4519 92.4003C59.9856 94.379 61.3195 97.9488 62.5895 99.7435ZM52.6916 98.2795C52.5012 100.072 53.0065 101.995 54.332 103.629C54.3576 103.66 54.3823 103.69 54.4061 103.72C54.7822 104.184 54.9499 104.391 55.1406 104.414C55.2937 104.432 55.4614 104.332 55.7644 104.15C55.788 104.136 55.8127 104.121 55.838 104.106C56.6574 103.617 57.5477 103.352 58.531 103.308C57.9787 103.161 57.2158 103.052 56.6939 103.274C55.8202 103.644 55.3834 103.52 54.3225 102.41C53.4433 101.489 52.8641 99.34 52.6916 98.2795ZM63.3355 93.401C63.4686 94.4248 63.8046 95.5181 64.3571 96.6252C64.4276 96.7665 64.4911 96.895 64.5488 97.012C64.9016 97.7269 65.04 98.0074 65.2527 98.0823C65.3898 98.1308 65.5579 98.0935 65.8347 98.0325C65.9045 98.0169 65.9817 97.9999 66.067 97.9823C66.7336 97.845 67.1014 97.8304 67.5584 97.9236C67.6781 97.9479 67.7872 97.9708 67.8868 97.9915C67.8881 97.9917 67.8894 97.992 67.8907 97.9924C67.7925 97.7531 67.1664 97.5569 66.5286 97.3571C65.9186 97.166 65.2979 96.9714 65.1187 96.7328C64.3331 95.6858 63.7114 94.6311 63.3355 93.401ZM69.1109 88.2395C69.1982 88.5154 69.2432 88.8702 69.2612 89.3133C69.3622 91.7795 69.8119 93.3609 70.8801 95.0075C71.2551 95.5857 71.2708 95.61 70.7496 96.0465C68.921 93.4783 68.7517 90.463 69.1109 88.2395ZM51.4672 110.596C51.383 110.575 51.3112 110.709 51.2645 111.048C50.8901 113.763 49.172 113.634 46.8961 111.727C44.6635 109.856 43.9563 107.102 43.6872 105.335C43.5533 107.941 44.6998 110.765 47.2936 112.506C48.4829 113.305 51.8771 114.713 51.8771 114.408C51.8771 114.389 51.7647 113.939 51.6274 113.409C51.3993 112.527 51.3531 111.557 51.4672 110.596ZM52.9618 106.699C53.0094 106.636 53.0578 106.574 53.1072 106.513C53.4973 106.035 53.4973 106.035 52.5184 105.013C51.0679 103.497 50.2825 101.868 50.0663 99.9261C50.0615 99.8838 50.0573 99.8437 50.0531 99.8054C50.1342 102.763 51.6353 105.384 52.9618 106.699Z" fill="#22110C"/>
<path d="M124.092 165.038C124.092 163.54 125.35 162.323 126.901 162.323C128.452 162.323 129.709 163.54 129.709 165.038C129.709 166.539 128.452 167.753 126.901 167.753C125.35 167.753 124.092 166.539 124.092 165.038Z" fill="#F1F1F1"/>
<path d="M26.1156 165.038C26.1156 163.54 27.3728 162.323 28.9238 162.323C30.4747 162.323 31.732 163.54 31.732 165.038C31.732 166.539 30.4747 167.753 28.9238 167.753C27.3728 167.753 26.1156 166.539 26.1156 165.038Z" fill="#F1F1F1"/>
<path d="M33.6042 167.507C33.6042 167.099 33.2411 166.766 32.7928 166.766C32.3448 166.766 31.9816 167.099 31.9816 167.507C31.9816 167.916 32.3448 168.247 32.7928 168.247C33.2411 168.247 33.6042 167.916 33.6042 167.507Z" fill="#F1F1F1"/>
<path d="M814.429 167.253L817.521 182.192C815.374 183.653 812.282 184.981 808.247 186.185C804.298 187.3 800.349 187.857 796.398 187.857C788.758 187.857 782.405 185.455 777.338 180.647C772.36 175.838 769.87 168.626 769.87 159.011V132.868H757.249V115.482H769.87V100.156L788.286 96.1641V115.482H814.557V132.868H788.286V157.98C788.286 166.479 792.064 170.73 799.618 170.73C802.967 170.73 807.904 169.571 814.429 167.253Z" fill="white"/>
<path d="M718.25 187.857C708.722 187.857 700.779 185.669 694.426 181.29C688.073 176.826 684.252 170.73 682.965 163.004H701.637C703.184 169.357 708.894 172.533 718.766 172.533C726.75 172.533 730.743 170.602 730.743 166.737C730.743 166.224 730.657 165.75 730.485 165.322C730.399 164.892 730.186 164.505 729.842 164.163C729.584 163.819 729.284 163.517 728.941 163.26C728.597 162.918 728.081 162.616 727.394 162.358C726.794 162.103 726.234 161.887 725.721 161.715C725.205 161.543 724.432 161.329 723.403 161.071C722.457 160.813 721.6 160.6 720.827 160.428C720.139 160.256 719.152 160.04 717.865 159.784C716.576 159.526 715.461 159.269 714.515 159.011C703.955 156.521 696.573 153.816 692.366 150.897C688.245 147.892 686.184 143.428 686.184 137.504C686.184 130.12 688.974 124.368 694.554 120.247C700.222 116.04 707.776 113.936 717.221 113.936C726.664 113.936 734.005 115.997 739.243 120.118C744.479 124.153 747.743 129.648 749.03 136.602H730.358C728.811 131.794 724.218 129.39 716.576 129.39C708.677 129.39 704.729 131.365 704.729 135.314C704.729 136.86 705.544 137.976 707.175 138.663C708.808 139.35 712.499 140.337 718.25 141.625C724.004 142.913 728.553 144.115 731.902 145.231C735.25 146.261 738.428 147.635 741.431 149.352C744.437 151.069 746.583 153.129 747.87 155.533C749.16 157.938 749.803 160.858 749.803 164.291C749.803 171.931 746.841 177.771 740.918 181.806C734.992 185.841 727.438 187.857 718.25 187.857Z" fill="white"/>
<path d="M636.819 113.936C648.411 113.936 657.554 117.928 664.251 125.913C671.034 133.898 673.952 143.814 673.008 155.662H618.661C619.262 161.157 621.237 165.364 624.584 168.284C627.934 171.202 632.097 172.663 637.077 172.663C640.682 172.663 643.902 171.889 646.736 170.344C649.57 168.712 651.586 166.523 652.789 163.775H671.849C669.359 171.761 664.98 177.771 658.713 181.806C652.446 185.841 645.277 187.857 637.205 187.857C626.217 187.857 617.244 184.382 610.291 177.427C603.336 170.472 599.859 161.673 599.859 151.026C599.859 140.38 603.336 131.537 610.291 124.496C617.244 117.456 626.087 113.936 636.819 113.936ZM636.691 129.133C632.313 129.133 628.663 130.335 625.743 132.739C622.826 135.057 620.765 138.19 619.562 142.14H653.433C652.402 138.19 650.427 135.057 647.509 132.739C644.589 130.335 640.984 129.133 636.691 129.133Z" fill="white"/>
<path d="M580.686 101.702C572.359 101.702 568.196 106.21 568.196 115.224V115.482H591.762V132.868H568.196V186.313H549.779V132.868H537.159V115.482H549.779V114.323C549.779 104.879 552.569 97.7526 558.149 92.9448C563.731 88.051 570.556 85.604 578.626 85.604C585.065 85.604 590.647 86.6772 595.368 88.8236L592.02 103.763L589.574 103.119C586.31 102.174 583.348 101.702 580.686 101.702Z" fill="white"/>
<path d="M517.738 82.7705C521.087 82.7705 523.833 83.8007 525.979 85.8614C528.126 87.8359 529.199 90.4116 529.199 93.5883C529.199 96.7651 528.126 99.3836 525.979 101.444C523.833 103.505 521.087 104.535 517.738 104.535C514.476 104.535 511.728 103.505 509.496 101.444C507.349 99.3836 506.276 96.7651 506.276 93.5883C506.276 90.4976 507.349 87.9219 509.496 85.8614C511.728 83.8007 514.476 82.7705 517.738 82.7705ZM508.464 186.313V115.482H526.881V186.313H508.464Z" fill="white"/>
<path d="M468.787 113.936C476.771 113.936 483.038 116.426 487.589 121.406C492.139 126.385 494.414 133.211 494.414 141.882V186.312H475.997V145.875C475.997 141.067 474.968 137.461 472.908 135.057C470.847 132.653 467.456 131.451 462.733 131.451C452.087 131.451 446.763 137.332 446.763 149.094V186.312H428.347V115.481H446.763V125.14C452.087 117.671 459.428 113.936 468.787 113.936Z" fill="white"/>
<path d="M395.256 115.481H413.672L413.544 186.312H395.128V176.784C389.718 184.166 382.335 187.857 372.976 187.857C363.617 187.857 355.891 184.424 349.796 177.555C343.7 170.602 340.652 161.715 340.652 150.897C340.652 140.079 343.7 131.236 349.796 124.368C355.977 117.413 363.661 113.936 372.849 113.936C382.291 113.936 389.762 117.757 395.256 125.398V115.481ZM377.097 170.344C382.335 170.344 386.67 168.542 390.106 164.934C393.539 161.329 395.256 156.65 395.256 150.897C395.256 145.145 393.539 140.466 390.106 136.86C386.67 133.254 382.335 131.451 377.097 131.451C371.861 131.451 367.568 133.254 364.219 136.86C360.871 140.466 359.197 145.145 359.197 150.897C359.197 156.65 360.871 161.329 364.219 164.934C367.654 168.542 371.947 170.344 377.097 170.344Z" fill="white"/>
<path d="M303.813 113.936C311.37 113.936 317.337 116.383 321.716 121.277C326.095 126.171 328.283 132.91 328.283 141.496V186.312H309.867V145.488C309.867 140.852 308.879 137.375 306.905 135.057C305.016 132.653 301.924 131.451 297.632 131.451C292.825 131.451 289.176 132.996 286.686 136.087C284.196 139.092 282.951 143.428 282.951 149.094V186.312H264.534V145.488C264.534 140.852 263.547 137.375 261.572 135.057C259.684 132.653 256.592 131.451 252.299 131.451C247.493 131.451 243.8 132.996 241.226 136.087C238.736 139.092 237.49 143.428 237.49 149.094L237.618 186.312H219.074V115.481H237.618V124.883C242.77 117.585 249.767 113.936 258.611 113.936C268.913 113.936 276.082 118.401 280.119 127.33C285.613 118.401 293.511 113.936 303.813 113.936Z" fill="white"/>
</svg>
