<svg width="1562" height="334" viewBox="0 0 1562 334" fill="none" xmlns="http://www.w3.org/2000/svg">
<path fill-rule="evenodd" clip-rule="evenodd" d="M112.345 19.3348C72.9096 23.2197 71.5208 81.5989 110.709 88.1319C112.484 88.4279 113.047 88.5833 113.088 88.7892C113.117 88.9377 112.974 91.8814 112.771 95.3311C112.567 98.7807 112.31 105.564 112.2 110.404C112.091 115.245 111.962 119.233 111.915 119.268C111.867 119.302 111.227 119.626 110.491 119.987C109.114 120.664 107.302 122.151 106.573 123.202C106.165 123.792 106.165 123.792 103.656 123.874C99.6954 124.003 97.2811 124.971 95.089 127.309C94.4812 127.957 93.9249 128.417 93.851 128.331C93.7771 128.246 91.4915 124.88 88.7716 120.851C86.052 116.823 82.9637 112.286 81.9092 110.771L79.9917 108.014L81.1168 106.768C102.1 83.5191 72.7591 48.504 47.8087 67.0187C22.974 85.4479 45.2327 124.105 73.7875 112.137C73.9049 112.087 76.0262 114.74 78.8048 118.41C81.4523 121.908 84.7593 126.219 86.1536 127.992C87.5479 129.765 88.8063 131.393 88.9502 131.61C89.2458 132.056 89.341 131.991 87.7438 132.43C83.3151 133.646 79.1397 137.322 78.312 140.733C78.2035 141.181 78.0252 141.549 77.9163 141.552C70.4325 141.751 64.7052 147.309 64.6243 154.452C64.5969 156.882 64.5969 156.882 63.5776 157.487C54.3016 162.992 41.7168 181.461 40.8182 190.888C40.6856 192.281 40.7379 192.235 38.9023 192.548C34.7603 193.255 32.3407 194.751 29.7893 198.18C26.5583 202.524 26.2603 206.257 28.7241 211.529C29.5584 213.316 29.6043 212.999 28.2286 214.938C13.6824 235.429 16.7126 259.473 36.283 278.843C49.0826 291.515 67.0498 299.238 87.1933 300.728C94.8846 301.297 95.7651 301.589 97.7462 304.196C110.772 321.351 122.016 321.351 135.041 304.196C137.022 301.589 137.903 301.297 145.594 300.728C175.703 298.502 200.893 281.997 210.336 258.311C216.355 243.215 214.445 228.883 204.555 214.924C203.183 212.987 203.23 213.313 204.064 211.529C206.527 206.257 206.229 202.524 202.999 198.18C200.447 194.751 198.027 193.255 193.885 192.548C192.049 192.235 192.102 192.281 191.97 190.888C191.675 187.797 188.366 179.864 185.209 174.678C181.329 168.306 173.791 160.206 169.21 157.487C168.191 156.882 168.191 156.882 168.163 154.452C168.082 147.309 162.355 141.751 154.871 141.552C154.762 141.549 154.584 141.181 154.476 140.733C153.648 137.322 149.473 133.646 145.044 132.43C143.447 131.991 143.542 132.056 143.837 131.61C143.981 131.393 145.24 129.765 146.634 127.992C148.028 126.219 151.335 121.908 153.983 118.41C156.761 114.74 158.883 112.087 159 112.137C187.555 124.105 209.814 85.4479 184.979 67.0187C160.028 48.504 130.687 83.5191 151.67 106.768L152.796 108.014L150.878 110.771C149.824 112.286 146.736 116.823 144.016 120.851C141.296 124.88 139.011 128.246 138.937 128.331C138.863 128.417 138.306 127.957 137.698 127.309C135.506 124.971 133.092 124.003 129.131 123.874C126.623 123.792 126.623 123.792 126.22 123.21C125.165 121.688 122.733 119.958 120.766 119.331C119.883 119.05 119.883 119.05 119.904 108.708C119.916 103.02 119.887 96.1514 119.839 93.444L119.753 88.5209L122.079 88.1325C166.154 80.7712 156.841 14.9517 112.345 19.3348ZM111.262 27.8556C96.1411 30.5871 86.2038 44.5677 88.9161 58.2506C89.1117 59.2374 89.373 60.2226 89.703 61.202C97.6042 84.65 135.183 84.65 143.084 61.202C143.418 60.2119 143.682 59.2209 143.879 58.2327C147.342 40.9028 130.385 24.4014 111.262 27.8556ZM60.4906 70.7792C49.3238 72.8439 42.7148 84.174 45.4684 93.7816C45.998 95.6285 46.8734 97.4119 48.129 99.0535C57.013 110.668 73.0097 109.496 79.6005 96.7485C80.1775 95.6328 80.6183 94.4961 80.9334 93.3527C84.2635 81.2588 73.5043 68.3732 60.4906 70.7792ZM166.294 70.7889C155.154 72.7788 149.381 83.6493 151.869 93.336C152.7 96.573 154.454 99.6783 157.238 102.275C165.248 109.746 177.588 108.296 184.659 99.0535C185.915 97.4101 186.787 95.6517 187.316 93.8449C190.751 82.1282 179.801 68.3759 166.294 70.7889ZM114.519 124.864C109.068 125.826 107.308 130.871 110.208 137.221C111.071 139.112 111.071 139.111 112.397 139.125C113.587 139.138 113.858 139.208 115.058 139.814C116.394 140.488 116.394 140.488 117.73 139.814C118.929 139.208 119.2 139.138 120.391 139.125C121.716 139.111 121.716 139.112 122.579 137.221C126.137 129.424 122.271 123.497 114.519 124.864ZM100.536 129.856C96.0696 131.046 94.7811 136.465 97.6142 142.143C98.7871 144.494 98.5547 144.309 99.9746 144.017C100.894 143.827 101.402 143.807 102.033 143.935C104.103 144.357 103.849 144.425 104.727 143.209C105.163 142.605 105.889 141.803 106.339 141.427C107.158 140.743 107.158 140.743 106.618 139.91C105.143 137.637 104.523 135.455 104.383 132.051C104.278 129.488 103.525 129.058 100.536 129.856ZM128.405 132.03C128.265 135.456 127.648 137.633 126.17 139.91C125.629 140.743 125.629 140.743 126.449 141.427C126.899 141.803 127.624 142.605 128.061 143.209C128.938 144.425 128.685 144.357 130.755 143.935C131.385 143.807 131.893 143.827 132.813 144.017C134.233 144.309 134.001 144.494 135.173 142.143C138.485 135.507 136.32 129.9 130.352 129.657L128.505 129.582L128.405 132.03ZM88.3129 136.534C81.6379 138.261 79.2656 146.251 83.7771 151.81C84.8524 153.135 84.78 153.112 85.8555 152.469C87.5266 151.471 89.4104 151.15 91.6071 151.489C92.4031 151.611 92.4031 151.611 92.6048 150.819C92.9436 149.489 93.9404 147.752 95.0224 146.609C96.0511 145.522 96.0511 145.522 95.3503 144.599C93.8209 142.588 92.4609 138.742 92.4485 136.394C92.4472 136.172 89.3012 136.278 88.3129 136.534ZM140.339 136.394C140.326 138.742 138.967 142.588 137.437 144.599C136.737 145.522 136.737 145.522 137.765 146.609C138.847 147.752 139.844 149.489 140.183 150.819C140.385 151.611 140.384 151.611 141.181 151.489C143.377 151.15 145.261 151.471 146.932 152.469C148.008 153.112 147.935 153.135 149.011 151.81C152.77 147.177 151.65 139.795 146.833 137.464C144.764 136.463 140.343 135.735 140.339 136.394ZM109.714 144.524C105.025 146.682 104.6 151.945 108.628 157.96C109.866 159.81 109.866 159.81 110.349 159.058C112.916 155.056 119.872 155.056 122.439 159.058C123.137 160.146 125.947 155.997 126.661 152.824C127.936 147.16 122.347 141.399 119.188 145.12C118.516 145.912 117.691 147.366 117.365 148.331C116.733 150.202 116.054 150.202 115.423 148.331C114.918 146.836 113.854 145.223 112.882 144.481C112.191 143.954 110.915 143.971 109.714 144.524ZM76.4262 145.673C67.9075 146.78 66.3514 158.886 74.0618 164.064C75.7035 165.166 80.3883 167.109 80.3883 166.688C80.3883 166.662 80.2335 166.042 80.044 165.309C79.2358 162.185 80.0796 158.253 82.0865 155.791C82.6246 155.131 82.6246 155.131 81.2735 153.72C79.2714 151.629 78.1876 149.381 77.8889 146.699C77.7481 145.435 77.8281 145.491 76.4262 145.673ZM155.063 145.705C155.03 145.807 154.92 146.446 154.819 147.124C154.42 149.813 153.459 151.712 151.442 153.8C150.159 155.127 150.159 155.127 150.699 155.789C152.708 158.253 153.552 162.184 152.744 165.309C152.554 166.042 152.399 166.662 152.399 166.688C152.399 167.109 157.084 165.166 158.726 164.064C165.557 159.477 165.438 149.491 158.515 146.299C157.373 145.773 155.165 145.393 155.063 145.705ZM99.9591 147.869C94.5406 148.64 93.4358 157.435 98.0154 163.342C98.4114 163.853 98.788 164.347 98.8519 164.439C98.9209 164.538 99.2367 164.424 99.6272 164.157C101.834 162.652 104.505 162.325 108.539 163.066C108.673 163.091 109.404 161.291 109.287 161.224C104.9 158.718 102.397 154.269 102.649 149.427C102.722 148.024 102.722 148.024 102.107 147.922C101.769 147.866 101.376 147.798 101.234 147.772C101.092 147.746 100.518 147.79 99.9591 147.869ZM131.468 147.776C131.373 147.801 131.019 147.867 130.68 147.923C130.065 148.024 130.065 148.024 130.138 149.427C130.391 154.269 127.888 158.718 123.5 161.224C123.384 161.291 124.115 163.091 124.249 163.066C128.283 162.325 130.953 162.652 133.16 164.157C133.551 164.424 133.867 164.538 133.936 164.439C134 164.347 134.376 163.853 134.772 163.342C138.138 159 138.548 151.641 135.568 149.048C134.646 148.245 132.36 147.536 131.468 147.776ZM88.9681 154.901C82.3274 156.669 81.8623 165.743 88.1146 171.551C92.6334 175.75 88.2202 174.766 83.298 170.477C81.9636 169.315 81.9636 169.315 80.9465 169.42C76.7927 169.849 70.3941 166.217 66.9822 161.494C66.195 160.404 66.195 160.404 65.6944 160.983C58.6008 169.182 54.5635 176.523 49.9659 189.581C48.828 192.814 48.8168 192.562 50.111 192.806C72.2015 196.952 86.7778 220.223 87.2319 252.07C87.3308 259.026 87.1553 258.61 89.602 257.703C91.0961 257.15 91.3988 256.73 92.6194 253.515C98.2049 238.802 102.907 232.968 110.785 230.976C112.416 230.565 112.368 230.595 112.507 229.862C112.822 228.201 114.593 223.858 115.232 223.18C116.771 221.547 119.35 224.96 120.28 229.862C120.42 230.595 120.372 230.565 122.002 230.976C129.88 232.968 134.582 238.802 140.168 253.515C141.389 256.73 141.692 257.15 143.186 257.703C145.632 258.61 145.457 259.026 145.556 252.07C146.01 220.221 160.585 196.952 182.676 192.806C183.971 192.562 183.96 192.814 182.822 189.581C178.224 176.523 174.187 169.182 167.093 160.983C166.593 160.404 166.593 160.404 165.805 161.494C162.393 166.217 155.995 169.849 151.841 169.42C150.824 169.315 150.824 169.315 149.49 170.477C144.567 174.766 140.154 175.75 144.673 171.551C149.184 167.36 150.323 163.033 148.072 158.632C146.289 155.144 140.789 153.054 140.439 155.731C139.88 160.014 138.168 163.308 135.59 165.062C134.839 165.573 134.839 165.573 135.479 166.718C136.952 169.354 136.224 172.779 133.643 175.359C131.458 177.542 129.703 177.685 131.708 175.517C134.337 172.672 134.154 169.205 131.331 168.376C129.642 167.88 124.318 168.091 124.318 168.653C124.318 169.933 122.607 173.867 121.591 174.923C120.331 176.233 120.067 175.665 120.935 173.511C123.594 166.914 121.378 160.625 116.394 160.625C111.41 160.625 109.194 166.914 111.853 173.511C112.721 175.665 112.457 176.233 111.196 174.923C110.18 173.867 108.469 169.933 108.469 168.653C108.469 168.091 103.145 167.88 101.457 168.376C98.6332 169.205 98.4504 172.672 101.08 175.517C103.084 177.685 101.329 177.542 99.1451 175.359C96.5633 172.779 95.8357 169.354 97.3088 166.718C97.9491 165.573 97.9491 165.573 97.1978 165.062C94.6218 163.31 92.9068 160.013 92.3496 155.742C92.258 155.04 92.1607 154.843 91.8675 154.765C91.2622 154.605 89.8307 154.672 88.9681 154.901ZM41.4798 197.069C31.3144 198.665 32.8432 209.737 44.5103 219.014C48.2139 221.959 48.2811 222 54.2027 225.016C76.0323 236.137 81.7665 242.972 81.7665 257.87C81.7665 258.895 82.502 259.209 83.5326 258.622C83.7181 258.515 83.6886 251.389 83.4869 247.58C82.5391 229.695 75.2922 212.977 64.9038 204.712C58.0323 199.245 48.1546 196.022 41.4798 197.069ZM186.079 197.013C167.227 198.998 152.894 216.833 149.734 242.236C149.232 246.278 148.877 258.406 149.255 258.622C150.286 259.209 151.021 258.895 151.021 257.87C151.021 242.969 156.751 236.14 178.585 225.016C184.507 222 184.574 221.959 188.277 219.014C202.26 207.898 201.014 195.441 186.079 197.013ZM34.0954 219.773C26.1657 228.32 23.8287 245.974 28.9604 258.567C36.1629 276.245 59.7296 292.68 80.4744 294.493C89.8755 295.314 92.0095 295.174 91.1104 293.79C89.6358 291.524 84.5813 282.326 81.6281 276.537C80.8631 275.038 79.6763 272.933 78.9904 271.853C75.9094 267.014 75.6834 263.498 78.2768 260.757C79.8122 259.133 78.8477 251.455 76.5256 246.814C75.3774 244.517 75.4565 244.542 74.3639 246.175C61.7952 264.985 36.1526 250.592 36.6724 225.018C36.7518 221.116 36.7518 221.116 35.6637 220.252C34.3941 219.247 34.5426 219.291 34.0954 219.773ZM197.086 220.264C196.036 221.116 196.036 221.116 196.115 225.018C196.635 250.592 170.992 264.985 158.424 246.175C157.331 244.542 157.41 244.517 156.262 246.814C153.94 251.455 152.975 259.133 154.511 260.757C157.104 263.498 156.878 267.014 153.797 271.853C153.111 272.933 151.924 275.038 151.159 276.537C148.206 282.326 143.152 291.524 141.677 293.79C140.772 295.183 140.519 295.116 145.813 294.87C156.854 294.362 161.447 293.355 170.402 289.474C202.782 275.449 215.949 245.652 200.239 221.954C198.297 219.024 198.489 219.128 197.086 220.264ZM41.033 224.373C39.3634 229.853 42.6688 240.18 47.7871 245.478C49.3764 247.121 49.472 247.13 48.8368 245.591C46.2848 239.389 47.2205 231.699 50.8243 229.26C51.4907 228.807 50.2737 228.049 45.5889 226.002C44.4993 225.526 43.0865 224.878 42.4492 224.563C41.0737 223.882 41.1784 223.897 41.033 224.373ZM190.558 224.451C190.084 224.694 188.611 225.378 187.285 225.969C182.166 228.244 181.276 228.795 181.961 229.257C185.567 231.699 186.504 239.386 183.951 245.591C183.316 247.13 183.411 247.121 185 245.478C190.119 240.18 193.424 229.853 191.754 224.373C191.611 223.904 191.618 223.904 190.558 224.451ZM114.355 234.902C107.763 236.067 101.593 243.13 96.8082 254.99C94.4095 260.936 93.1617 261.797 85.2122 262.993C79.9807 263.78 79.6358 265.04 83.2311 270.226C85.8306 273.979 89.0055 279.159 92.359 285.121C98.3521 295.779 100.563 299.314 103.611 303.11C114.123 316.208 123.107 314.06 134.252 295.786C136.446 292.187 136.72 291.716 140.429 285.121C143.782 279.159 146.957 273.979 149.556 270.226C153.152 265.04 152.807 263.78 147.575 262.993C139.626 261.797 138.378 260.936 135.979 254.99C130.211 240.694 122.435 233.47 114.355 234.902ZM96.841 263.096C95.231 263.923 94.6504 265.517 95.3998 267.047C95.9942 268.261 97.6309 268.866 98.6381 268.246C98.9152 268.075 99.1244 268.136 99.9709 268.65C102.997 270.478 104.151 270.126 103.21 267.653C101.775 263.881 99.0694 261.946 96.841 263.096ZM132.985 263.172C131.138 264.1 128.776 268.066 129.356 269.271C129.775 270.138 130.597 269.992 132.817 268.65C133.663 268.136 133.872 268.075 134.15 268.246C135.157 268.866 136.793 268.261 137.388 267.047C138.671 264.428 135.698 261.806 132.985 263.172Z" fill="#22110C"/>
<mask id="mask0_6798_1309" style="mask-type:luminance" maskUnits="userSpaceOnUse" x="10" y="10" width="210" height="314">
<path d="M219.879 10H10V323.297H219.879V10Z" fill="white"/>
<path fill-rule="evenodd" clip-rule="evenodd" d="M112.345 19.3339C72.9096 23.2187 71.5208 81.5979 110.709 88.1309C112.484 88.4269 113.047 88.5823 113.088 88.7882C113.117 88.9367 112.974 91.8805 112.771 95.3301C112.567 98.7797 112.31 105.563 112.2 110.403C112.091 115.244 111.962 119.232 111.915 119.267C111.867 119.301 111.227 119.625 110.491 119.986C109.114 120.663 107.302 122.15 106.573 123.201C106.165 123.791 106.165 123.791 103.656 123.873C99.6954 124.002 97.2811 124.97 95.089 127.308C94.4812 127.956 93.9249 128.416 93.851 128.33C93.7771 128.245 91.4915 124.879 88.7716 120.85C86.052 116.822 82.9637 112.285 81.9092 110.77L79.9917 108.013L81.1168 106.767C102.1 83.5182 72.7591 48.5031 47.8087 67.0177C22.974 85.4469 45.2327 124.104 73.7875 112.136C73.9049 112.086 76.0262 114.739 78.8048 118.409C81.4523 121.907 84.7593 126.218 86.1536 127.991C87.5479 129.764 88.8063 131.392 88.9502 131.609C89.2458 132.055 89.341 131.99 87.7438 132.429C83.3151 133.645 79.1397 137.321 78.312 140.732C78.2035 141.18 78.0252 141.548 77.9163 141.551C70.4325 141.75 64.7052 147.308 64.6243 154.451C64.5969 156.881 64.5969 156.881 63.5776 157.486C54.3016 162.991 41.7168 181.46 40.8182 190.887C40.6856 192.28 40.7379 192.234 38.9023 192.548C34.7603 193.254 32.3407 194.75 29.7893 198.179C26.5583 202.523 26.2603 206.256 28.7241 211.528C29.5584 213.315 29.6043 212.998 28.2286 214.937C13.6824 235.428 16.7126 259.472 36.283 278.842C49.0826 291.514 67.0498 299.237 87.1933 300.727C94.8846 301.296 95.7651 301.588 97.7462 304.195C110.772 321.35 122.016 321.35 135.041 304.195C137.022 301.588 137.903 301.296 145.594 300.727C175.703 298.501 200.893 281.996 210.336 258.31C216.355 243.214 214.445 228.882 204.555 214.923C203.183 212.986 203.23 213.312 204.064 211.528C206.527 206.256 206.229 202.523 202.999 198.179C200.447 194.75 198.027 193.254 193.885 192.548C192.049 192.234 192.102 192.28 191.97 190.887C191.675 187.796 188.366 179.863 185.209 174.677C181.329 168.305 173.791 160.205 169.21 157.486C168.191 156.881 168.191 156.881 168.163 154.451C168.082 147.308 162.355 141.75 154.871 141.551C154.762 141.548 154.584 141.18 154.476 140.732C153.648 137.321 149.473 133.645 145.044 132.429C143.447 131.99 143.542 132.055 143.837 131.609C143.981 131.392 145.24 129.764 146.634 127.991C148.028 126.218 151.335 121.907 153.983 118.409C156.761 114.739 158.883 112.086 159 112.136C187.555 124.104 209.814 85.4469 184.979 67.0177C160.028 48.5031 130.687 83.5182 151.67 106.767L152.796 108.013L150.878 110.77C149.824 112.285 146.736 116.822 144.016 120.85C141.296 124.879 139.011 128.245 138.937 128.33C138.863 128.416 138.306 127.956 137.698 127.308C135.506 124.97 133.092 124.002 129.131 123.873C126.623 123.791 126.623 123.791 126.22 123.209C125.165 121.687 122.733 119.957 120.766 119.33C119.883 119.049 119.883 119.049 119.904 108.707C119.916 103.019 119.887 96.1504 119.839 93.443L119.753 88.52L122.079 88.1315C166.154 80.7703 156.841 14.9507 112.345 19.3339ZM111.262 27.8546C96.1411 30.5861 86.2038 44.5668 88.9161 58.2497C89.1117 59.2364 89.373 60.2216 89.703 61.201C97.6042 84.6491 135.183 84.6491 143.084 61.201C143.418 60.211 143.682 59.22 143.879 58.2317C147.342 40.9018 130.385 24.4004 111.262 27.8546ZM60.4906 70.7782C49.3238 72.8429 42.7148 84.173 45.4684 93.7806C45.998 95.6276 46.8734 97.4109 48.129 99.0525C57.013 110.667 73.0097 109.495 79.6005 96.7475C80.1775 95.6318 80.6183 94.4951 80.9334 93.3517C84.2635 81.2579 73.5043 68.3722 60.4906 70.7782ZM166.294 70.7879C155.154 72.7778 149.381 83.6483 151.869 93.335C152.7 96.572 154.454 99.6773 157.238 102.274C165.248 109.745 177.588 108.295 184.659 99.0525C185.915 97.4091 186.787 95.6507 187.316 93.8439C190.751 82.1272 179.801 68.3749 166.294 70.7879ZM114.519 124.863C109.068 125.825 107.308 130.87 110.208 137.22C111.071 139.111 111.071 139.111 112.397 139.124C113.587 139.137 113.858 139.207 115.058 139.813C116.394 140.487 116.394 140.487 117.73 139.813C118.929 139.207 119.2 139.137 120.391 139.124C121.716 139.111 121.716 139.111 122.579 137.22C126.137 129.423 122.271 123.496 114.519 124.863ZM100.536 129.855C96.0696 131.045 94.7811 136.465 97.6142 142.142C98.7871 144.493 98.5547 144.308 99.9746 144.016C100.894 143.826 101.402 143.806 102.033 143.934C104.103 144.356 103.849 144.424 104.727 143.208C105.163 142.604 105.889 141.802 106.339 141.426C107.158 140.742 107.158 140.742 106.618 139.909C105.143 137.636 104.523 135.454 104.383 132.05C104.278 129.487 103.525 129.057 100.536 129.855ZM128.405 132.029C128.265 135.455 127.648 137.632 126.17 139.909C125.629 140.742 125.629 140.742 126.449 141.426C126.899 141.802 127.624 142.604 128.061 143.208C128.938 144.424 128.685 144.356 130.755 143.934C131.385 143.806 131.893 143.826 132.813 144.016C134.233 144.308 134.001 144.493 135.173 142.142C138.485 135.506 136.32 129.899 130.352 129.656L128.505 129.581L128.405 132.029ZM88.3129 136.533C81.6379 138.26 79.2656 146.25 83.7771 151.809C84.8524 153.134 84.78 153.111 85.8555 152.468C87.5266 151.47 89.4104 151.149 91.6071 151.488C92.4031 151.61 92.4031 151.61 92.6048 150.818C92.9436 149.488 93.9404 147.751 95.0224 146.608C96.0511 145.521 96.0511 145.521 95.3503 144.598C93.8209 142.587 92.4609 138.741 92.4485 136.393C92.4472 136.171 89.3012 136.277 88.3129 136.533ZM140.339 136.393C140.326 138.741 138.967 142.587 137.437 144.598C136.737 145.521 136.737 145.521 137.765 146.608C138.847 147.751 139.844 149.488 140.183 150.818C140.385 151.61 140.384 151.61 141.181 151.488C143.377 151.149 145.261 151.47 146.932 152.468C148.008 153.111 147.935 153.134 149.011 151.809C152.77 147.176 151.65 139.794 146.833 137.463C144.764 136.462 140.343 135.734 140.339 136.393ZM109.714 144.523C105.025 146.681 104.6 151.944 108.628 157.959C109.866 159.809 109.866 159.809 110.349 159.057C112.916 155.055 119.872 155.055 122.439 159.057C123.137 160.145 125.947 155.996 126.661 152.823C127.936 147.159 122.347 141.398 119.188 145.119C118.516 145.911 117.691 147.365 117.365 148.33C116.733 150.201 116.054 150.201 115.423 148.33C114.918 146.835 113.854 145.222 112.882 144.48C112.191 143.953 110.915 143.97 109.714 144.523ZM76.4262 145.672C67.9075 146.779 66.3514 158.885 74.0618 164.063C75.7035 165.165 80.3883 167.108 80.3883 166.687C80.3883 166.661 80.2335 166.041 80.044 165.308C79.2358 162.184 80.0796 158.252 82.0865 155.79C82.6246 155.13 82.6246 155.13 81.2735 153.719C79.2714 151.628 78.1876 149.38 77.8889 146.698C77.7481 145.434 77.8281 145.49 76.4262 145.672ZM155.063 145.704C155.03 145.806 154.92 146.445 154.819 147.123C154.42 149.813 153.459 151.711 151.442 153.799C150.159 155.126 150.159 155.126 150.699 155.788C152.708 158.252 153.552 162.183 152.744 165.308C152.554 166.041 152.399 166.661 152.399 166.687C152.399 167.108 157.084 165.165 158.726 164.063C165.557 159.476 165.438 149.49 158.515 146.298C157.373 145.772 155.165 145.392 155.063 145.704ZM99.9591 147.868C94.5406 148.639 93.4358 157.434 98.0154 163.341C98.4114 163.853 98.788 164.346 98.8519 164.438C98.9209 164.537 99.2367 164.423 99.6272 164.156C101.834 162.651 104.505 162.324 108.539 163.065C108.673 163.09 109.404 161.29 109.287 161.223C104.9 158.717 102.397 154.268 102.649 149.426C102.722 148.023 102.722 148.023 102.107 147.921C101.769 147.865 101.376 147.797 101.234 147.771C101.092 147.745 100.518 147.789 99.9591 147.868ZM131.468 147.775C131.373 147.8 131.019 147.866 130.68 147.922C130.065 148.023 130.065 148.023 130.138 149.426C130.391 154.268 127.888 158.717 123.5 161.223C123.384 161.29 124.115 163.09 124.249 163.065C128.283 162.324 130.953 162.651 133.16 164.156C133.551 164.423 133.867 164.537 133.936 164.438C134 164.346 134.376 163.853 134.772 163.341C138.138 158.999 138.548 151.64 135.568 149.047C134.646 148.244 132.36 147.535 131.468 147.775ZM88.9681 154.9C82.3274 156.668 81.8623 165.742 88.1146 171.55C92.6334 175.749 88.2202 174.765 83.298 170.476C81.9636 169.314 81.9636 169.314 80.9465 169.419C76.7927 169.848 70.3941 166.216 66.9822 161.493C66.195 160.403 66.195 160.403 65.6944 160.982C58.6008 169.181 54.5635 176.522 49.9659 189.58C48.828 192.813 48.8168 192.561 50.111 192.805C72.2015 196.951 86.7778 220.222 87.2319 252.069C87.3308 259.025 87.1553 258.609 89.602 257.702C91.0961 257.149 91.3988 256.729 92.6194 253.514C98.2049 238.801 102.907 232.967 110.785 230.975C112.416 230.564 112.368 230.594 112.507 229.861C112.822 228.2 114.593 223.857 115.232 223.179C116.771 221.546 119.35 224.959 120.28 229.861C120.42 230.594 120.372 230.564 122.002 230.975C129.88 232.967 134.582 238.801 140.168 253.514C141.389 256.729 141.692 257.149 143.186 257.702C145.632 258.609 145.457 259.025 145.556 252.069C146.01 220.221 160.585 196.951 182.676 192.805C183.971 192.561 183.96 192.813 182.822 189.58C178.224 176.522 174.187 169.181 167.093 160.982C166.593 160.403 166.593 160.403 165.805 161.493C162.393 166.216 155.995 169.848 151.841 169.419C150.824 169.314 150.824 169.314 149.49 170.476C144.567 174.765 140.154 175.749 144.673 171.55C149.184 167.359 150.323 163.032 148.072 158.631C146.289 155.143 140.789 153.053 140.439 155.73C139.88 160.013 138.168 163.307 135.59 165.061C134.839 165.572 134.839 165.572 135.479 166.717C136.952 169.353 136.224 172.778 133.643 175.358C131.458 177.541 129.703 177.684 131.708 175.516C134.337 172.671 134.154 169.204 131.331 168.375C129.642 167.879 124.318 168.09 124.318 168.652C124.318 169.932 122.607 173.866 121.591 174.922C120.331 176.232 120.067 175.664 120.935 173.51C123.594 166.913 121.378 160.624 116.394 160.624C111.41 160.624 109.194 166.913 111.853 173.51C112.721 175.664 112.457 176.232 111.196 174.922C110.18 173.866 108.469 169.932 108.469 168.652C108.469 168.09 103.145 167.879 101.457 168.375C98.6332 169.204 98.4504 172.671 101.08 175.516C103.084 177.684 101.329 177.541 99.1451 175.358C96.5633 172.778 95.8357 169.353 97.3088 166.717C97.9491 165.572 97.9491 165.572 97.1978 165.061C94.6218 163.309 92.9068 160.012 92.3496 155.741C92.258 155.039 92.1607 154.842 91.8675 154.764C91.2622 154.604 89.8307 154.671 88.9681 154.9ZM41.4798 197.068C31.3144 198.664 32.8432 209.736 44.5103 219.013C48.2139 221.958 48.2811 221.999 54.2027 225.015C76.0323 236.136 81.7665 242.971 81.7665 257.869C81.7665 258.894 82.502 259.208 83.5326 258.621C83.7181 258.514 83.6886 251.388 83.4869 247.579C82.5391 229.694 75.2922 212.976 64.9038 204.711C58.0323 199.244 48.1546 196.021 41.4798 197.068ZM186.079 197.012C167.227 198.997 152.894 216.832 149.734 242.235C149.232 246.277 148.877 258.405 149.255 258.621C150.286 259.208 151.021 258.894 151.021 257.869C151.021 242.968 156.751 236.139 178.585 225.015C184.507 221.999 184.574 221.958 188.277 219.013C202.26 207.897 201.014 195.44 186.079 197.012ZM34.0954 219.772C26.1657 228.319 23.8287 245.973 28.9604 258.566C36.1629 276.244 59.7296 292.679 80.4744 294.492C89.8755 295.313 92.0095 295.173 91.1104 293.789C89.6358 291.523 84.5813 282.325 81.6281 276.536C80.8631 275.037 79.6763 272.932 78.9904 271.852C75.9094 267.013 75.6834 263.497 78.2768 260.756C79.8122 259.132 78.8477 251.454 76.5256 246.813C75.3774 244.516 75.4565 244.541 74.3639 246.174C61.7952 264.984 36.1526 250.591 36.6724 225.017C36.7518 221.115 36.7518 221.115 35.6637 220.251C34.3941 219.246 34.5426 219.29 34.0954 219.772ZM197.086 220.263C196.036 221.115 196.036 221.115 196.115 225.017C196.635 250.591 170.992 264.984 158.424 246.174C157.331 244.541 157.41 244.516 156.262 246.813C153.94 251.454 152.975 259.132 154.511 260.756C157.104 263.497 156.878 267.013 153.797 271.852C153.111 272.932 151.924 275.037 151.159 276.536C148.206 282.325 143.152 291.523 141.677 293.789C140.772 295.182 140.519 295.115 145.813 294.869C156.854 294.361 161.447 293.354 170.402 289.473C202.782 275.448 215.949 245.651 200.239 221.953C198.297 219.023 198.489 219.127 197.086 220.263ZM41.033 224.372C39.3634 229.852 42.6688 240.179 47.7871 245.477C49.3764 247.12 49.472 247.129 48.8368 245.59C46.2848 239.388 47.2205 231.698 50.8243 229.259C51.4907 228.806 50.2737 228.048 45.5889 226.001C44.4993 225.525 43.0865 224.877 42.4492 224.562C41.0737 223.881 41.1784 223.896 41.033 224.372ZM190.558 224.45C190.084 224.693 188.611 225.377 187.285 225.968C182.166 228.243 181.276 228.794 181.961 229.256C185.567 231.698 186.504 239.385 183.951 245.59C183.316 247.129 183.411 247.12 185 245.477C190.119 240.179 193.424 229.852 191.754 224.372C191.611 223.903 191.618 223.903 190.558 224.45ZM114.355 234.901C107.763 236.066 101.593 243.129 96.8082 254.989C94.4095 260.935 93.1617 261.796 85.2122 262.992C79.9807 263.78 79.6358 265.039 83.2311 270.225C85.8306 273.978 89.0055 279.158 92.359 285.12C98.3521 295.778 100.563 299.313 103.611 303.109C114.123 316.207 123.107 314.059 134.252 295.785C136.446 292.186 136.72 291.715 140.429 285.12C143.782 279.158 146.957 273.978 149.556 270.225C153.152 265.039 152.807 263.78 147.575 262.992C139.626 261.796 138.378 260.935 135.979 254.989C130.211 240.693 122.435 233.469 114.355 234.901ZM96.841 263.095C95.231 263.922 94.6504 265.516 95.3998 267.046C95.9942 268.26 97.6309 268.865 98.6381 268.245C98.9152 268.074 99.1244 268.135 99.9709 268.649C102.997 270.477 104.151 270.125 103.21 267.652C101.775 263.88 99.0694 261.945 96.841 263.095ZM132.985 263.171C131.138 264.099 128.776 268.065 129.356 269.27C129.775 270.137 130.597 269.991 132.817 268.649C133.663 268.135 133.872 268.074 134.15 268.245C135.157 268.865 136.793 268.26 137.388 267.046C138.671 264.427 135.698 261.805 132.985 263.171Z" fill="black"/>
</mask>
<g mask="url(#mask0_6798_1309)">
<path fill-rule="evenodd" clip-rule="evenodd" d="M112.345 19.3339C72.9096 23.2187 71.5208 81.5979 110.709 88.1309C112.484 88.4269 113.047 88.5823 113.088 88.7882C113.117 88.9367 112.974 91.8805 112.771 95.3301C112.567 98.7797 112.31 105.563 112.2 110.403C112.091 115.244 111.962 119.232 111.915 119.267C111.867 119.301 111.227 119.625 110.491 119.986C109.114 120.663 107.302 122.15 106.573 123.201C106.165 123.791 106.165 123.791 103.656 123.873C99.6954 124.002 97.2811 124.97 95.089 127.308C94.4812 127.956 93.9249 128.416 93.851 128.33C93.7771 128.245 91.4915 124.879 88.7716 120.85C86.052 116.822 82.9637 112.285 81.9092 110.77L79.9917 108.013L81.1168 106.767C102.1 83.5182 72.7591 48.5031 47.8087 67.0177C22.974 85.4469 45.2327 124.104 73.7875 112.136C73.9049 112.086 76.0262 114.739 78.8048 118.409C81.4523 121.907 84.7593 126.218 86.1536 127.991C87.5479 129.764 88.8063 131.392 88.9502 131.609C89.2458 132.055 89.341 131.99 87.7438 132.429C83.3151 133.645 79.1397 137.321 78.312 140.732C78.2035 141.18 78.0252 141.548 77.9163 141.551C70.4325 141.75 64.7052 147.308 64.6243 154.451C64.5969 156.881 64.5969 156.881 63.5776 157.486C54.3016 162.991 41.7168 181.46 40.8182 190.887C40.6856 192.28 40.7379 192.234 38.9023 192.548C34.7603 193.254 32.3407 194.75 29.7893 198.179C26.5583 202.523 26.2603 206.256 28.7241 211.528C29.5584 213.315 29.6043 212.998 28.2286 214.937C13.6824 235.428 16.7126 259.472 36.283 278.842C49.0826 291.514 67.0498 299.237 87.1933 300.727C94.8846 301.296 95.7651 301.588 97.7462 304.195C110.772 321.35 122.016 321.35 135.041 304.195C137.022 301.588 137.903 301.296 145.594 300.727C175.703 298.501 200.893 281.996 210.336 258.31C216.355 243.214 214.445 228.882 204.555 214.923C203.183 212.986 203.23 213.312 204.064 211.528C206.527 206.256 206.229 202.523 202.999 198.179C200.447 194.75 198.027 193.254 193.885 192.548C192.049 192.234 192.102 192.28 191.97 190.887C191.675 187.796 188.366 179.863 185.209 174.677C181.329 168.305 173.791 160.205 169.21 157.486C168.191 156.881 168.191 156.881 168.163 154.451C168.082 147.308 162.355 141.75 154.871 141.551C154.762 141.548 154.584 141.18 154.476 140.732C153.648 137.321 149.473 133.645 145.044 132.429C143.447 131.99 143.542 132.055 143.837 131.609C143.981 131.392 145.24 129.764 146.634 127.991C148.028 126.218 151.335 121.907 153.983 118.409C156.761 114.739 158.883 112.086 159 112.136C187.555 124.104 209.814 85.4469 184.979 67.0177C160.028 48.5031 130.687 83.5182 151.67 106.767L152.796 108.013L150.878 110.77C149.824 112.285 146.736 116.822 144.016 120.85C141.296 124.879 139.011 128.245 138.937 128.33C138.863 128.416 138.306 127.956 137.698 127.308C135.506 124.97 133.092 124.002 129.131 123.873C126.623 123.791 126.623 123.791 126.22 123.209C125.165 121.687 122.733 119.957 120.766 119.33C119.883 119.049 119.883 119.049 119.904 108.707C119.916 103.019 119.887 96.1504 119.839 93.443L119.753 88.52L122.079 88.1315C166.154 80.7703 156.841 14.9507 112.345 19.3339ZM111.262 27.8546C96.1411 30.5861 86.2038 44.5668 88.9161 58.2497C89.1117 59.2364 89.373 60.2216 89.703 61.201C97.6042 84.6491 135.183 84.6491 143.084 61.201C143.418 60.211 143.682 59.22 143.879 58.2317C147.342 40.9018 130.385 24.4004 111.262 27.8546ZM60.4906 70.7782C49.3238 72.8429 42.7148 84.173 45.4684 93.7806C45.998 95.6276 46.8734 97.4109 48.129 99.0525C57.013 110.667 73.0097 109.495 79.6005 96.7475C80.1775 95.6318 80.6183 94.4951 80.9334 93.3517C84.2635 81.2579 73.5043 68.3722 60.4906 70.7782ZM166.294 70.7879C155.154 72.7778 149.381 83.6483 151.869 93.335C152.7 96.572 154.454 99.6773 157.238 102.274C165.248 109.745 177.588 108.295 184.659 99.0525C185.915 97.4091 186.787 95.6507 187.316 93.8439C190.751 82.1272 179.801 68.3749 166.294 70.7879ZM114.519 124.863C109.068 125.825 107.308 130.87 110.208 137.22C111.071 139.111 111.071 139.111 112.397 139.124C113.587 139.137 113.858 139.207 115.058 139.813C116.394 140.487 116.394 140.487 117.73 139.813C118.929 139.207 119.2 139.137 120.391 139.124C121.716 139.111 121.716 139.111 122.579 137.22C126.137 129.423 122.271 123.496 114.519 124.863ZM100.536 129.855C96.0696 131.045 94.7811 136.465 97.6142 142.142C98.7871 144.493 98.5547 144.308 99.9746 144.016C100.894 143.826 101.402 143.806 102.033 143.934C104.103 144.356 103.849 144.424 104.727 143.208C105.163 142.604 105.889 141.802 106.339 141.426C107.158 140.742 107.158 140.742 106.618 139.909C105.143 137.636 104.523 135.454 104.383 132.05C104.278 129.487 103.525 129.057 100.536 129.855ZM128.405 132.029C128.265 135.455 127.648 137.632 126.17 139.909C125.629 140.742 125.629 140.742 126.449 141.426C126.899 141.802 127.624 142.604 128.061 143.208C128.938 144.424 128.685 144.356 130.755 143.934C131.385 143.806 131.893 143.826 132.813 144.016C134.233 144.308 134.001 144.493 135.173 142.142C138.485 135.506 136.32 129.899 130.352 129.656L128.505 129.581L128.405 132.029ZM88.3129 136.533C81.6379 138.26 79.2656 146.25 83.7771 151.809C84.8524 153.134 84.78 153.111 85.8555 152.468C87.5266 151.47 89.4104 151.149 91.6071 151.488C92.4031 151.61 92.4031 151.61 92.6048 150.818C92.9436 149.488 93.9404 147.751 95.0224 146.608C96.0511 145.521 96.0511 145.521 95.3503 144.598C93.8209 142.587 92.4609 138.741 92.4485 136.393C92.4472 136.171 89.3012 136.277 88.3129 136.533ZM140.339 136.393C140.326 138.741 138.967 142.587 137.437 144.598C136.737 145.521 136.737 145.521 137.765 146.608C138.847 147.751 139.844 149.488 140.183 150.818C140.385 151.61 140.384 151.61 141.181 151.488C143.377 151.149 145.261 151.47 146.932 152.468C148.008 153.111 147.935 153.134 149.011 151.809C152.77 147.176 151.65 139.794 146.833 137.463C144.764 136.462 140.343 135.734 140.339 136.393ZM109.714 144.523C105.025 146.681 104.6 151.944 108.628 157.959C109.866 159.809 109.866 159.809 110.349 159.057C112.916 155.055 119.872 155.055 122.439 159.057C123.137 160.145 125.947 155.996 126.661 152.823C127.936 147.159 122.347 141.398 119.188 145.119C118.516 145.911 117.691 147.365 117.365 148.33C116.733 150.201 116.054 150.201 115.423 148.33C114.918 146.835 113.854 145.222 112.882 144.48C112.191 143.953 110.915 143.97 109.714 144.523ZM76.4262 145.672C67.9075 146.779 66.3514 158.885 74.0618 164.063C75.7035 165.165 80.3883 167.108 80.3883 166.687C80.3883 166.661 80.2335 166.041 80.044 165.308C79.2358 162.184 80.0796 158.252 82.0865 155.79C82.6246 155.13 82.6246 155.13 81.2735 153.719C79.2714 151.628 78.1876 149.38 77.8889 146.698C77.7481 145.434 77.8281 145.49 76.4262 145.672ZM155.063 145.704C155.03 145.806 154.92 146.445 154.819 147.123C154.42 149.813 153.459 151.711 151.442 153.799C150.159 155.126 150.159 155.126 150.699 155.788C152.708 158.252 153.552 162.183 152.744 165.308C152.554 166.041 152.399 166.661 152.399 166.687C152.399 167.108 157.084 165.165 158.726 164.063C165.557 159.476 165.438 149.49 158.515 146.298C157.373 145.772 155.165 145.392 155.063 145.704ZM99.9591 147.868C94.5406 148.639 93.4358 157.434 98.0154 163.341C98.4114 163.853 98.788 164.346 98.8519 164.438C98.9209 164.537 99.2367 164.423 99.6272 164.156C101.834 162.651 104.505 162.324 108.539 163.065C108.673 163.09 109.404 161.29 109.287 161.223C104.9 158.717 102.397 154.268 102.649 149.426C102.722 148.023 102.722 148.023 102.107 147.921C101.769 147.865 101.376 147.797 101.234 147.771C101.092 147.745 100.518 147.789 99.9591 147.868ZM131.468 147.775C131.373 147.8 131.019 147.866 130.68 147.922C130.065 148.023 130.065 148.023 130.138 149.426C130.391 154.268 127.888 158.717 123.5 161.223C123.384 161.29 124.115 163.09 124.249 163.065C128.283 162.324 130.953 162.651 133.16 164.156C133.551 164.423 133.867 164.537 133.936 164.438C134 164.346 134.376 163.853 134.772 163.341C138.138 158.999 138.548 151.64 135.568 149.047C134.646 148.244 132.36 147.535 131.468 147.775ZM88.9681 154.9C82.3274 156.668 81.8623 165.742 88.1146 171.55C92.6334 175.749 88.2202 174.765 83.298 170.476C81.9636 169.314 81.9636 169.314 80.9465 169.419C76.7927 169.848 70.3941 166.216 66.9822 161.493C66.195 160.403 66.195 160.403 65.6944 160.982C58.6008 169.181 54.5635 176.522 49.9659 189.58C48.828 192.813 48.8168 192.561 50.111 192.805C72.2015 196.951 86.7778 220.222 87.2319 252.069C87.3308 259.025 87.1553 258.609 89.602 257.702C91.0961 257.149 91.3988 256.729 92.6194 253.514C98.2049 238.801 102.907 232.967 110.785 230.975C112.416 230.564 112.368 230.594 112.507 229.861C112.822 228.2 114.593 223.857 115.232 223.179C116.771 221.546 119.35 224.959 120.28 229.861C120.42 230.594 120.372 230.564 122.002 230.975C129.88 232.967 134.582 238.801 140.168 253.514C141.389 256.729 141.692 257.149 143.186 257.702C145.632 258.609 145.457 259.025 145.556 252.069C146.01 220.221 160.585 196.951 182.676 192.805C183.971 192.561 183.96 192.813 182.822 189.58C178.224 176.522 174.187 169.181 167.093 160.982C166.593 160.403 166.593 160.403 165.805 161.493C162.393 166.216 155.995 169.848 151.841 169.419C150.824 169.314 150.824 169.314 149.49 170.476C144.567 174.765 140.154 175.749 144.673 171.55C149.184 167.359 150.323 163.032 148.072 158.631C146.289 155.143 140.789 153.053 140.439 155.73C139.88 160.013 138.168 163.307 135.59 165.061C134.839 165.572 134.839 165.572 135.479 166.717C136.952 169.353 136.224 172.778 133.643 175.358C131.458 177.541 129.703 177.684 131.708 175.516C134.337 172.671 134.154 169.204 131.331 168.375C129.642 167.879 124.318 168.09 124.318 168.652C124.318 169.932 122.607 173.866 121.591 174.922C120.331 176.232 120.067 175.664 120.935 173.51C123.594 166.913 121.378 160.624 116.394 160.624C111.41 160.624 109.194 166.913 111.853 173.51C112.721 175.664 112.457 176.232 111.196 174.922C110.18 173.866 108.469 169.932 108.469 168.652C108.469 168.09 103.145 167.879 101.457 168.375C98.6332 169.204 98.4504 172.671 101.08 175.516C103.084 177.684 101.329 177.541 99.1451 175.358C96.5633 172.778 95.8357 169.353 97.3088 166.717C97.9491 165.572 97.9491 165.572 97.1978 165.061C94.6218 163.309 92.9068 160.012 92.3496 155.741C92.258 155.039 92.1607 154.842 91.8675 154.764C91.2622 154.604 89.8307 154.671 88.9681 154.9ZM41.4798 197.068C31.3144 198.664 32.8432 209.736 44.5103 219.013C48.2139 221.958 48.2811 221.999 54.2027 225.015C76.0323 236.136 81.7665 242.971 81.7665 257.869C81.7665 258.894 82.502 259.208 83.5326 258.621C83.7181 258.514 83.6886 251.388 83.4869 247.579C82.5391 229.694 75.2922 212.976 64.9038 204.711C58.0323 199.244 48.1546 196.021 41.4798 197.068ZM186.079 197.012C167.227 198.997 152.894 216.832 149.734 242.235C149.232 246.277 148.877 258.405 149.255 258.621C150.286 259.208 151.021 258.894 151.021 257.869C151.021 242.968 156.751 236.139 178.585 225.015C184.507 221.999 184.574 221.958 188.277 219.013C202.26 207.897 201.014 195.44 186.079 197.012ZM34.0954 219.772C26.1657 228.319 23.8287 245.973 28.9604 258.566C36.1629 276.244 59.7296 292.679 80.4744 294.492C89.8755 295.313 92.0095 295.173 91.1104 293.789C89.6358 291.523 84.5813 282.325 81.6281 276.536C80.8631 275.037 79.6763 272.932 78.9904 271.852C75.9094 267.013 75.6834 263.497 78.2768 260.756C79.8122 259.132 78.8477 251.454 76.5256 246.813C75.3774 244.516 75.4565 244.541 74.3639 246.174C61.7952 264.984 36.1526 250.591 36.6724 225.017C36.7518 221.115 36.7518 221.115 35.6637 220.251C34.3941 219.246 34.5426 219.29 34.0954 219.772ZM197.086 220.263C196.036 221.115 196.036 221.115 196.115 225.017C196.635 250.591 170.992 264.984 158.424 246.174C157.331 244.541 157.41 244.516 156.262 246.813C153.94 251.454 152.975 259.132 154.511 260.756C157.104 263.497 156.878 267.013 153.797 271.852C153.111 272.932 151.924 275.037 151.159 276.536C148.206 282.325 143.152 291.523 141.677 293.789C140.772 295.182 140.519 295.115 145.813 294.869C156.854 294.361 161.447 293.354 170.402 289.473C202.782 275.448 215.949 245.651 200.239 221.953C198.297 219.023 198.489 219.127 197.086 220.263ZM41.033 224.372C39.3634 229.852 42.6688 240.179 47.7871 245.477C49.3764 247.12 49.472 247.129 48.8368 245.59C46.2848 239.388 47.2205 231.698 50.8243 229.259C51.4907 228.806 50.2737 228.048 45.5889 226.001C44.4993 225.525 43.0865 224.877 42.4492 224.562C41.0737 223.881 41.1784 223.896 41.033 224.372ZM190.558 224.45C190.084 224.693 188.611 225.377 187.285 225.968C182.166 228.243 181.276 228.794 181.961 229.256C185.567 231.698 186.504 239.385 183.951 245.59C183.316 247.129 183.411 247.12 185 245.477C190.119 240.179 193.424 229.852 191.754 224.372C191.611 223.903 191.618 223.903 190.558 224.45ZM114.355 234.901C107.763 236.066 101.593 243.129 96.8082 254.989C94.4095 260.935 93.1617 261.796 85.2122 262.992C79.9807 263.78 79.6358 265.039 83.2311 270.225C85.8306 273.978 89.0055 279.158 92.359 285.12C98.3521 295.778 100.563 299.313 103.611 303.109C114.123 316.207 123.107 314.059 134.252 295.785C136.446 292.186 136.72 291.715 140.429 285.12C143.782 279.158 146.957 273.978 149.556 270.225C153.152 265.039 152.807 263.78 147.575 262.992C139.626 261.796 138.378 260.935 135.979 254.989C130.211 240.693 122.435 233.469 114.355 234.901ZM96.841 263.095C95.231 263.922 94.6504 265.516 95.3998 267.046C95.9942 268.26 97.6309 268.865 98.6381 268.245C98.9152 268.074 99.1244 268.135 99.9709 268.649C102.997 270.477 104.151 270.125 103.21 267.652C101.775 263.88 99.0694 261.945 96.841 263.095ZM132.985 263.171C131.138 264.099 128.776 268.065 129.356 269.27C129.775 270.137 130.597 269.991 132.817 268.649C133.663 268.135 133.872 268.074 134.15 268.245C135.157 268.865 136.793 268.26 137.388 267.046C138.671 264.427 135.698 261.805 132.985 263.171Z" stroke="white" stroke-width="8"/>
</g>
<path d="M131.467 147.775C131.372 147.8 131.018 147.866 130.68 147.922C130.065 148.023 130.065 148.023 130.138 149.426C130.39 154.268 127.887 158.717 123.5 161.223C123.383 161.29 124.114 163.09 124.248 163.065C128.282 162.324 130.953 162.651 133.16 164.156C133.55 164.423 133.866 164.537 133.935 164.438C133.999 164.346 134.375 163.853 134.772 163.342C138.138 159 138.547 151.64 135.567 149.047C134.645 148.244 132.36 147.535 131.467 147.775Z" fill="#2430F0"/>
<path d="M155.064 145.705C155.03 145.807 154.92 146.445 154.82 147.124C154.42 149.813 153.46 151.712 151.442 153.8C150.16 155.127 150.16 155.127 150.7 155.789C152.708 158.253 153.553 162.184 152.744 165.309C152.555 166.041 152.4 166.662 152.4 166.688C152.4 167.109 157.084 165.165 158.726 164.063C165.557 159.477 165.439 149.491 158.515 146.299C157.374 145.773 155.165 145.392 155.064 145.705Z" fill="#2430F0"/>
<path d="M140.34 136.394C140.327 138.742 138.967 142.587 137.438 144.599C136.737 145.522 136.737 145.522 137.766 146.609C138.847 147.752 139.844 149.488 140.183 150.819C140.385 151.611 140.385 151.611 141.181 151.488C143.378 151.149 145.261 151.471 146.932 152.469C148.008 153.112 147.936 153.134 149.011 151.809C152.771 147.177 151.65 139.795 146.833 137.463C144.765 136.462 140.343 135.734 140.34 136.394Z" fill="#2430F0"/>
<path d="M128.405 132.03C128.265 135.456 127.648 137.632 126.17 139.91C125.629 140.743 125.629 140.743 126.449 141.427C126.899 141.803 127.624 142.604 128.061 143.209C128.938 144.425 128.684 144.356 130.755 143.935C131.385 143.806 131.893 143.826 132.813 144.016C134.233 144.309 134.001 144.493 135.173 142.143C138.485 135.507 136.32 129.9 130.352 129.656L128.505 129.582L128.405 132.03Z" fill="#2430F0"/>
<path d="M114.519 124.863C109.068 125.825 107.307 130.87 110.208 137.22C111.071 139.111 111.071 139.111 112.396 139.124C113.587 139.136 113.858 139.207 115.058 139.813C116.394 140.488 116.394 140.488 117.729 139.813C118.929 139.207 119.2 139.136 120.39 139.124C121.716 139.111 121.716 139.111 122.579 137.22C126.136 129.423 122.271 123.496 114.519 124.863Z" fill="#2430F0"/>
<path d="M109.715 144.523C105.026 146.681 104.6 151.944 108.628 157.96C109.867 159.809 109.867 159.809 110.349 159.057C112.916 155.055 119.872 155.055 122.439 159.057C123.137 160.145 125.947 155.996 126.661 152.823C127.936 147.159 122.348 141.398 119.188 145.119C118.517 145.911 117.691 147.365 117.365 148.33C116.734 150.201 116.055 150.201 115.423 148.33C114.919 146.835 113.854 145.222 112.882 144.48C112.191 143.953 110.915 143.97 109.715 144.523Z" fill="#2430F0"/>
<path d="M99.9581 147.869C94.5395 148.64 93.4348 157.434 98.0144 163.342C98.4104 163.853 98.787 164.346 98.8509 164.439C98.9199 164.538 99.2357 164.423 99.6262 164.157C101.833 162.651 104.504 162.324 108.538 163.066C108.672 163.09 109.403 161.29 109.286 161.223C104.899 158.717 102.396 154.268 102.648 149.427C102.721 148.023 102.721 148.023 102.106 147.921C101.768 147.865 101.375 147.798 101.233 147.772C101.09 147.746 100.517 147.789 99.9581 147.869Z" fill="#2430F0"/>
<path d="M88.3128 136.534C81.6377 138.261 79.2655 146.251 83.7769 151.809C84.8522 153.134 84.7798 153.111 85.8554 152.469C87.5265 151.47 89.4102 151.149 91.6069 151.488C92.403 151.611 92.403 151.611 92.6046 150.819C92.9435 149.488 93.9405 147.752 95.0222 146.609C96.0509 145.521 96.0509 145.521 95.3501 144.599C93.821 142.587 92.4611 138.741 92.4483 136.394C92.4471 136.171 89.301 136.278 88.3128 136.534Z" fill="#2430F0"/>
<path d="M100.536 129.855C96.07 131.046 94.7815 136.465 97.6146 142.143C98.7875 144.493 98.5548 144.309 99.9747 144.016C100.895 143.826 101.402 143.806 102.033 143.935C104.103 144.357 103.85 144.425 104.727 143.209C105.163 142.605 105.889 141.803 106.339 141.427C107.158 140.743 107.158 140.743 106.618 139.91C105.144 137.637 104.523 135.454 104.384 132.05C104.279 129.487 103.526 129.058 100.536 129.855Z" fill="#2430F0"/>
<path d="M76.4267 145.672C67.908 146.779 66.3519 158.885 74.0623 164.063C75.704 165.165 80.3888 167.108 80.3888 166.687C80.3888 166.661 80.234 166.041 80.0445 165.308C79.2363 162.184 80.0801 158.252 82.087 155.79C82.6251 155.13 82.6251 155.13 81.274 153.719C79.2722 151.628 78.1881 149.38 77.8894 146.698C77.7486 145.434 77.8286 145.49 76.4267 145.672Z" fill="#2430F0"/>
<path d="M186.079 197.013C167.227 198.997 152.893 216.833 149.734 242.236C149.232 246.278 148.877 258.406 149.255 258.622C150.286 259.209 151.021 258.895 151.021 257.87C151.021 242.969 156.751 236.14 178.585 225.016C184.507 221.999 184.574 221.959 188.277 219.013C202.26 207.897 201.014 195.441 186.079 197.013Z" fill="#2BE1B7"/>
<path d="M197.087 220.264C196.036 221.115 196.036 221.115 196.115 225.018C196.636 250.591 170.993 264.985 158.425 246.175C157.332 244.541 157.411 244.517 156.263 246.813C153.941 251.455 152.976 259.132 154.512 260.757C157.105 263.497 156.879 267.014 153.798 271.853C153.112 272.933 151.925 275.038 151.16 276.537C148.207 282.326 143.153 291.524 141.678 293.79C140.773 295.183 140.52 295.116 145.814 294.87C156.855 294.362 161.447 293.355 170.403 289.474C202.783 275.448 215.95 245.652 200.24 221.953C198.298 219.024 198.49 219.128 197.087 220.264Z" fill="#2BE1B7"/>
<path d="M34.0953 219.773C26.1656 228.319 23.8286 245.974 28.9603 258.566C36.1628 276.245 59.7295 292.679 80.4746 294.492C89.8754 295.313 92.0095 295.173 91.1103 293.79C89.6357 291.523 84.5813 282.325 81.628 276.537C80.8631 275.037 79.6762 272.932 78.9903 271.853C75.9093 267.013 75.6833 263.497 78.2767 260.756C79.8121 259.132 78.8476 251.455 76.5256 246.813C75.3773 244.517 75.4564 244.541 74.3638 246.174C61.7954 264.984 36.1525 250.591 36.6723 225.017C36.7517 221.115 36.7517 221.115 35.664 220.252C34.394 219.247 34.5428 219.291 34.0953 219.773Z" fill="#2BE1B7"/>
<path d="M41.4788 197.069C31.3134 198.665 32.8421 209.737 44.5093 219.013C48.2129 221.959 48.2801 221.999 54.2017 225.016C76.0312 236.137 81.7655 242.972 81.7655 257.87C81.7655 258.895 82.501 259.209 83.5315 258.622C83.7171 258.515 83.6876 251.388 83.4859 247.58C82.5384 229.695 75.2915 212.977 64.9028 204.712C58.0312 199.244 48.1535 196.022 41.4788 197.069Z" fill="#2BE1B7"/>
<path d="M88.9686 154.901C82.328 156.669 81.8626 165.742 88.1148 171.551C92.6339 175.75 88.2204 174.765 83.2983 170.477C81.9639 169.314 81.9639 169.314 80.947 169.42C76.7929 169.849 70.3944 166.217 66.9828 161.493C66.1953 160.403 66.1953 160.403 65.6946 160.982C58.6013 169.181 54.5637 176.523 49.9662 189.581C48.8282 192.814 48.817 192.562 50.1115 192.806C72.2018 196.951 86.7783 220.223 87.2321 252.07C87.3313 259.026 87.1555 258.609 89.6022 257.703C91.0963 257.149 91.399 256.73 92.6196 253.514C98.2054 238.802 102.908 232.968 110.786 230.975C112.416 230.565 112.368 230.595 112.508 229.862C112.822 228.201 114.594 223.858 115.232 223.18C116.771 221.547 119.351 224.96 120.28 229.862C120.42 230.595 120.372 230.565 122.002 230.975C129.881 232.968 134.583 238.802 140.168 253.514C141.389 256.73 141.692 257.149 143.186 257.703C145.633 258.609 145.457 259.026 145.556 252.07C146.01 220.221 160.585 196.951 182.677 192.806C183.971 192.562 183.96 192.814 182.822 189.581C178.224 176.523 174.187 169.181 167.094 160.982C166.593 160.403 166.593 160.403 165.806 161.493C162.394 166.217 155.995 169.849 151.841 169.42C150.825 169.314 150.825 169.314 149.49 170.477C144.568 174.765 140.154 175.75 144.673 171.551C149.184 167.36 150.323 163.032 148.073 158.632C146.29 155.144 140.789 153.054 140.44 155.731C139.881 160.013 138.169 163.308 135.59 165.062C134.839 165.573 134.839 165.573 135.479 166.718C136.952 169.354 136.225 172.779 133.643 175.359C131.459 177.542 129.704 177.685 131.708 175.516C134.337 172.672 134.155 169.205 131.332 168.376C129.643 167.88 124.319 168.09 124.319 168.653C124.319 169.933 122.608 173.867 121.591 174.923C120.332 176.233 120.067 175.665 120.935 173.511C123.594 166.914 121.378 160.625 116.394 160.625C111.41 160.625 109.194 166.914 111.853 173.511C112.721 175.665 112.457 176.233 111.197 174.923C110.181 173.867 108.469 169.933 108.469 168.653C108.469 168.09 103.146 167.88 101.457 168.376C98.6337 169.205 98.4509 172.672 101.08 175.516C103.084 177.685 101.33 177.542 99.1453 175.359C96.5638 172.779 95.8359 169.354 97.309 166.718C97.9493 165.573 97.9493 165.573 97.1983 165.062C94.6223 163.31 92.9071 160.012 92.3498 155.742C92.2586 155.04 92.1612 154.843 91.868 154.765C91.2624 154.604 89.831 154.672 88.9686 154.901Z" fill="#2430F0"/>
<path fill-rule="evenodd" clip-rule="evenodd" d="M114.354 234.902C107.762 236.067 101.592 243.13 96.8078 254.989C94.4088 260.936 93.1614 261.797 85.2118 262.992C79.9804 263.78 79.6354 265.039 83.2308 270.225C85.8302 273.979 89.0052 279.159 92.3587 285.121C98.3515 295.779 100.563 299.313 103.611 303.109C114.122 316.207 123.106 314.06 134.251 295.785C136.446 292.187 136.72 291.715 140.428 285.121C143.782 279.159 146.957 273.979 149.556 270.225C153.151 265.039 152.807 263.78 147.575 262.992C139.625 261.797 138.378 260.936 135.979 254.989C130.211 240.693 122.435 233.469 114.354 234.902ZM95.3995 267.047C94.65 265.517 95.2307 263.923 96.8406 263.096C99.069 261.946 101.774 263.88 103.21 267.652C104.151 270.125 102.997 270.478 99.9706 268.65C99.1241 268.136 98.9148 268.075 98.6377 268.245C97.6306 268.866 95.9938 268.26 95.3995 267.047ZM129.355 269.27C128.775 268.066 131.138 264.099 132.985 263.172C135.697 261.806 138.671 264.428 137.387 267.047C136.793 268.26 135.156 268.866 134.149 268.245C133.872 268.075 133.663 268.136 132.816 268.65C130.597 269.991 129.774 270.137 129.355 269.27Z" fill="#F2C79C"/>
<path fill-rule="evenodd" clip-rule="evenodd" d="M80.9334 93.3525C78.6415 84.8125 71.5007 78.0857 61.7991 79.8794C54.1008 81.303 47.2606 87.1513 45.4688 93.7813C45.9983 95.6283 46.8737 97.4116 48.1293 99.0533C57.0133 110.667 73.01 109.496 79.6008 96.7482C80.1778 95.6325 80.6186 94.4958 80.9334 93.3525Z" fill="#2430F0"/>
<path fill-rule="evenodd" clip-rule="evenodd" d="M89.7032 61.2014C89.3729 60.222 89.1116 59.2365 88.916 58.2498C90.9226 47.9833 100.841 39.0744 112.57 36.9556C128.268 34.1201 141.198 44.7533 143.879 58.2321C143.682 59.2204 143.418 60.2114 143.085 61.2014C135.183 84.6492 97.6041 84.6492 89.7032 61.2014Z" fill="#2430F0"/>
<path d="M166.294 70.7885C155.155 72.7784 149.381 83.6489 151.869 93.3356C153.515 86.8436 159.945 81.2572 167.603 79.889C177.641 78.0959 184.958 85.2522 187.317 93.8444C190.751 82.1277 179.802 68.3755 166.294 70.7885Z" fill="#2430F0"/>
<path d="M88.9155 58.2503C90.9224 47.9835 100.841 39.0746 112.57 36.9558C128.267 34.1206 141.197 44.7538 143.879 58.2323C147.341 40.9024 130.384 24.401 111.261 27.8552C96.1408 30.5867 86.2035 44.5677 88.9155 58.2503Z" fill="#2430F0"/>
<path d="M61.7997 79.8796C71.5013 78.0859 78.6421 84.8127 80.9343 93.3526C84.2644 81.2587 73.5052 68.3731 60.4915 70.7791C49.3244 72.8438 42.7157 84.1739 45.4694 93.7815C47.2612 87.1515 54.1014 81.3032 61.7997 79.8796Z" fill="#2430F0"/>
<path d="M157.239 102.275C165.249 109.746 177.589 108.296 184.659 99.0529C185.916 97.4095 186.788 95.6511 187.317 93.8446C184.958 85.252 177.641 78.0958 167.603 79.8889C159.945 81.257 153.515 86.8434 151.869 93.3354C152.701 96.5724 154.455 99.6777 157.239 102.275Z" fill="#2430F0"/>
<path fill-rule="evenodd" clip-rule="evenodd" d="M93.0805 49C97.4624 42.9826 104.605 38.3975 112.586 36.9557C124.528 34.7985 134.869 40.4373 140.314 49.1938C141.351 48.1611 142.301 47.1114 143.085 46.0833C139.035 34.0922 125.779 25.2359 111.277 27.8552C101.258 29.665 93.5154 36.4131 90.2197 44.741C90.9327 46.0997 91.9398 47.5579 93.0805 49Z" fill="#F2C79C"/>
<path d="M93.0791 48.9999C96.9698 53.9192 102.417 58.6561 103.073 58.6561C103.57 58.6561 106.316 56.0183 109.169 53.2796C112.249 50.3206 115.453 47.2436 116.08 47.2436C116.683 47.2436 119.267 50.0967 121.851 52.9498C124.435 55.803 127.019 58.6561 127.622 58.6561C128.391 58.6561 135.363 54.1169 140.313 49.1936C134.868 40.4371 124.527 34.7984 112.584 36.9555C104.604 38.3973 97.4613 42.9824 93.0791 48.9999Z" fill="#2BE1B7"/>
<path d="M45.5605 93.3009C47.5453 86.8707 54.2401 81.2685 61.7519 79.8796C67.4959 78.8178 72.342 80.7423 75.8156 84.2615C76.4611 81.9024 76.9283 79.0848 76.8735 76.7196C72.9747 72.2318 66.995 69.5679 60.4437 70.7791C49.5403 72.7949 42.9824 83.6441 45.2421 93.0981C45.3467 93.1665 45.4532 93.234 45.5605 93.3009Z" fill="#2BE1B7"/>
<path d="M45.5596 93.3007C49.7842 95.9388 55.5434 97.0907 57.0609 96.2156C58.2356 95.5382 58.7795 92.1211 58.9073 88.6019C59.0046 85.9273 59.0916 83.5328 59.6123 83.0915C60.1878 82.6036 62.9792 84.1908 65.9373 85.8728C69.1792 87.7158 72.8411 89.3234 73.7871 88.7889C74.4632 88.4069 75.1294 86.7671 75.8147 84.2613C72.341 80.7421 67.4947 78.8176 61.7507 79.8794C54.2391 81.2683 47.5443 86.8705 45.5596 93.3007Z" fill="#2BE1B7"/>
<path fill-rule="evenodd" clip-rule="evenodd" d="M153.15 81.1407C153.408 83.0144 158.835 93.0643 160.299 93.405C161.092 93.5896 163.805 91.676 166.29 89.9234C168.393 88.4393 170.334 87.0706 170.808 87.1877C171.24 87.2944 172.064 88.5774 173.027 90.0779C174.368 92.1664 175.979 94.6761 177.182 95.0232C178.74 95.4724 184.946 92.2455 187.983 90.0813C188.452 79.4003 178.418 68.6304 166.339 70.7885C160.032 71.9152 155.445 75.8892 153.104 80.8831C153.121 80.9619 153.137 81.0474 153.15 81.1407Z" fill="#2BE1B7"/>
<path d="M190.559 224.45C190.085 224.694 188.612 225.377 187.286 225.968C182.166 228.243 181.277 228.794 181.961 229.256C185.568 231.699 186.504 239.385 183.952 245.59C183.316 247.129 183.412 247.12 185.001 245.478C190.12 240.179 193.425 229.852 191.755 224.372C191.612 223.903 191.619 223.903 190.559 224.45Z" fill="#F1F1F1"/>
<path d="M41.0332 224.372C39.3636 229.853 42.669 240.179 47.7873 245.478C49.3766 247.12 49.4722 247.13 48.837 245.591C46.285 239.388 47.2207 231.699 50.8245 229.259C51.4909 228.806 50.2739 228.049 45.5891 226.002C44.4995 225.525 43.0867 224.878 42.4494 224.563C41.0739 223.881 41.1786 223.897 41.0332 224.372Z" fill="#F1F1F1"/>
<path d="M179.34 239.979C179.34 239.416 178.839 238.957 178.22 238.957C177.602 238.957 177.101 239.416 177.101 239.979C177.101 240.545 177.602 241.001 178.22 241.001C178.839 241.001 179.34 240.545 179.34 239.979Z" fill="#F1F1F1"/>
<path opacity="0.2" fill-rule="evenodd" clip-rule="evenodd" d="M142.344 63.1353C132.759 73.6903 113.709 79.4988 91.9412 66.0571C102.705 83.9552 133.793 82.9813 142.344 63.1353ZM76.8531 100.832C66.7643 105.005 53.0665 100.733 46.375 96.1836C46.8449 97.1755 47.4277 98.1364 48.1289 99.0534C55.9479 109.275 69.2764 109.593 76.8531 100.832ZM186.218 96.5933C180.417 101.987 168.672 105.821 154.954 99.74C155.619 100.626 156.38 101.475 157.238 102.275C165.248 109.746 177.588 108.296 184.658 99.0534C185.267 98.2577 185.785 97.4352 186.218 96.5933Z" fill="#22110C"/>
<path d="M88.9165 58.2503C90.9234 47.9835 100.842 39.0746 112.571 36.9561C128.268 34.1206 141.198 44.7535 143.88 58.2323C147.342 40.9024 130.385 24.401 111.262 27.8552C96.1415 30.5867 86.2045 44.5677 88.9165 58.2503Z" fill="#2430F0"/>
<path fill-rule="evenodd" clip-rule="evenodd" d="M93.0805 49C97.4624 42.9826 104.605 38.3975 112.586 36.956C124.528 34.7985 134.869 40.4373 140.314 49.1938C141.351 48.1611 142.301 47.1117 143.085 46.0833C139.035 34.0922 125.779 25.2359 111.277 27.8552C101.258 29.665 93.5154 36.4131 90.2197 44.7407C90.9327 46.0997 91.9398 47.5579 93.0805 49Z" fill="#2BE1B7"/>
<g opacity="0.2">
<g style="mix-blend-mode:hard-light">
<path fill-rule="evenodd" clip-rule="evenodd" d="M123.301 128.558C122.042 125.649 118.902 124.091 114.519 124.863C111.931 125.32 110.175 126.697 109.355 128.697C111.082 127.287 114.137 126.826 116.417 126.778C118.62 126.824 121.548 127.256 123.301 128.558ZM104.116 130.399C101.981 130.723 98.0831 131.749 96.3892 134.112C96.954 132.001 98.3721 130.432 100.536 129.855C102.702 129.277 103.694 129.343 104.116 130.399ZM92.4739 136.954C92.458 136.759 92.4492 136.572 92.448 136.393C92.4468 136.171 89.301 136.278 88.3128 136.533C84.9301 137.409 82.6521 139.893 81.8157 142.853C84.0781 139.69 88.2906 137.053 92.4739 136.954ZM69.083 154.186C70.0828 150.824 73.8083 147.316 76.837 147.316C77.2652 147.316 77.6385 147.292 77.9627 147.251C77.9341 147.069 77.9098 146.885 77.8888 146.698C77.8821 146.636 77.8757 146.577 77.8693 146.521C77.8158 146.024 77.7878 145.768 77.6445 145.653C77.4918 145.531 77.2084 145.569 76.6231 145.646C76.5608 145.655 76.4951 145.663 76.426 145.672C71.8549 146.266 69.2883 150.028 69.083 154.186ZM114.504 146.4C112.747 145.051 110.147 144.518 106.497 147.537C107.113 146.257 108.188 145.225 109.714 144.523C110.914 143.97 112.191 143.953 112.882 144.48C113.432 144.9 114.013 145.6 114.504 146.4ZM125.802 147.113C124.226 144.239 121.21 142.738 119.188 145.119C118.893 145.467 118.569 145.942 118.27 146.447C119.942 145.131 122.39 144.542 125.802 147.113ZM102.677 148.819C102.704 148.02 102.616 148.005 102.107 147.921C101.769 147.865 101.375 147.797 101.233 147.771C101.091 147.745 100.518 147.789 99.9589 147.868C97.2974 148.247 95.6768 150.562 95.2592 153.519C96.3128 150.135 100.285 148.555 102.677 148.819ZM140.538 155.342C141.366 153.281 146.384 155.33 148.072 158.631C148.542 159.548 148.863 160.463 149.038 161.373C147.745 157.779 143.672 156.131 140.538 155.342ZM124.314 168.771C124.317 168.729 124.318 168.689 124.318 168.652C124.318 168.09 129.642 167.879 131.331 168.375C132.131 168.61 132.719 169.057 133.091 169.642C131.475 168.231 127.96 168.493 124.314 168.771ZM112.078 162.944C113.057 161.501 114.532 160.624 116.394 160.624C118.22 160.624 119.674 161.468 120.654 162.863C119.434 161.922 117.763 161.438 116.417 161.313C115.033 161.442 113.305 161.949 112.078 162.944ZM99.6365 169.739C100.004 169.107 100.612 168.623 101.456 168.375C103.145 167.879 108.469 168.09 108.469 168.652C108.469 168.689 108.47 168.727 108.473 168.767C104.762 168.485 101.194 168.226 99.6365 169.739ZM92.2856 155.345C89.0811 156.153 84.9006 157.859 83.7113 161.624C83.9032 158.446 85.6774 155.776 88.968 154.9C89.8306 154.671 91.262 154.604 91.8673 154.764C92.0958 154.825 92.2053 154.958 92.2856 155.345ZM136.443 134.11C135.715 131.505 133.595 129.788 130.352 129.656L128.505 129.581L128.473 130.363C130.54 130.643 134.682 131.655 136.443 134.11ZM150.919 142.716C150.318 140.439 148.924 138.475 146.832 137.463C144.764 136.462 140.343 135.734 140.339 136.393C140.338 136.572 140.33 136.759 140.313 136.953C144.452 137.032 148.626 139.603 150.919 142.716ZM163.765 154.232C162.785 150.856 159.04 147.316 155.997 147.316C155.538 147.316 155.142 147.289 154.801 147.241C154.807 147.202 154.813 147.163 154.819 147.123C154.92 146.445 155.03 145.806 155.063 145.704C155.165 145.392 157.373 145.772 158.515 146.298C161.835 147.829 163.59 150.922 163.765 154.232ZM137.475 153.225C137.248 151.468 136.618 149.961 135.568 149.047C134.646 148.244 132.36 147.535 131.468 147.775C131.373 147.8 131.019 147.866 130.68 147.922C130.17 148.006 130.083 148.02 130.11 148.824C132.428 148.543 136.281 150.023 137.475 153.225Z" fill="white"/>
</g>
</g>
<g style="mix-blend-mode:hard-light">
<path fill-rule="evenodd" clip-rule="evenodd" d="M195.201 198.535C188.413 198.031 180.496 200.256 174.776 203.784C166.766 208.723 154.448 221.839 151.864 234.528C151.149 238.038 150.613 239.188 150.216 238.935C154.162 215.297 168.056 198.91 186.08 197.013C190.145 196.585 193.196 197.197 195.201 198.535Z" fill="white" fill-opacity="0.4"/>
</g>
<g style="mix-blend-mode:hard-light">
<path fill-rule="evenodd" clip-rule="evenodd" d="M37.2354 198.697C44.1994 197.936 52.534 200.196 58.4891 203.869C66.4998 208.809 78.8172 221.925 81.4015 234.613C81.8069 236.606 82.1546 237.834 82.4521 238.482C79.949 224.188 73.5024 211.555 64.9032 204.712C58.0316 199.244 48.1539 196.022 41.4792 197.069C39.7153 197.347 38.3033 197.909 37.2354 198.697Z" fill="white" fill-opacity="0.4"/>
</g>
<g style="mix-blend-mode:hard-light">
<path fill-rule="evenodd" clip-rule="evenodd" d="M99.4082 249.28C105.041 243.154 112.259 242.108 116.117 242.108C120.124 242.108 128.068 243.389 133.803 250.12C128.328 239.076 121.459 233.643 114.356 234.902C108.902 235.866 103.738 240.867 99.4082 249.28Z" fill="white" fill-opacity="0.4"/>
</g>
<path opacity="0.2" fill-rule="evenodd" clip-rule="evenodd" d="M192.192 227.672C189.616 228.77 186.732 229.886 183.617 231.002C183.151 230.281 182.598 229.688 181.962 229.256C181.277 228.794 182.167 228.243 187.286 225.968C188.612 225.377 190.085 224.694 190.559 224.45L190.577 224.44C191.234 224.101 191.474 223.977 191.598 224.05C191.669 224.091 191.702 224.196 191.753 224.365L191.755 224.372C192.049 225.339 192.189 226.458 192.192 227.672ZM40.6006 227.392C43.2037 228.557 46.107 229.737 49.2293 230.917C49.6823 230.236 50.2155 229.67 50.8253 229.259C51.4918 228.806 50.2745 228.049 45.5899 226.002C44.5004 225.525 43.0875 224.878 42.4503 224.563C42.3614 224.518 42.2793 224.477 42.2024 224.44C41.5088 224.096 41.2786 223.98 41.1712 224.052C41.1174 224.086 41.0946 224.166 41.0596 224.287C41.052 224.312 41.0438 224.341 41.034 224.372C40.7624 225.264 40.6222 226.288 40.6006 227.392Z" fill="#22110C"/>
<path opacity="0.2" fill-rule="evenodd" clip-rule="evenodd" d="M77.8504 269.87C77.3008 275.716 79.3271 282.249 80.2625 285.267C80.4219 285.781 80.5493 286.192 80.6272 286.48C81.2948 288.956 74.0406 292.871 47.4316 280.881C57.2561 288.275 69.2764 293.513 80.4748 294.492C89.8755 295.314 92.0096 295.174 91.1105 293.79C89.6359 291.524 84.5814 282.325 81.6282 276.537C80.8632 275.038 79.6763 272.933 78.9904 271.853C78.553 271.168 78.1728 270.505 77.8504 269.87Z" fill="#22110C"/>
<path opacity="0.2" fill-rule="evenodd" clip-rule="evenodd" d="M185.52 280.826C158.816 292.88 151.539 288.959 152.208 286.48C152.286 286.191 152.414 285.781 152.573 285.267C153.512 282.237 155.553 275.655 154.977 269.793C154.647 270.45 154.253 271.138 153.798 271.853C153.112 272.932 151.925 275.037 151.16 276.537C148.207 282.325 143.153 291.524 141.678 293.79C141.35 294.295 141.108 294.608 141.184 294.79C141.319 295.11 142.439 295.028 145.814 294.869C156.855 294.361 161.448 293.355 170.403 289.473C176.041 287.031 181.098 284.111 185.52 280.826Z" fill="#22110C"/>
<path opacity="0.2" fill-rule="evenodd" clip-rule="evenodd" d="M90.8525 282.475C96.6741 291.782 99.0333 295.134 102.216 298.715C113.858 311.824 123.809 309.674 136.154 291.384C138.466 287.962 138.853 287.366 142.42 281.635C141.766 282.761 141.101 283.926 140.429 285.121C136.72 291.716 136.446 292.187 134.252 295.785C123.107 314.06 114.122 316.207 103.611 303.11C100.564 299.314 98.3519 295.779 92.3588 285.121C91.8521 284.221 91.3496 283.339 90.8525 282.475Z" fill="#22110C"/>
<path d="M116.289 218.518C114.135 218.518 111.379 233.676 110.173 233.676L107.675 235.976L116.289 233.676L126.194 236.572C125.132 235.608 122.852 233.676 122.232 233.676C121.457 233.676 118.442 218.518 116.289 218.518Z" fill="black" fill-opacity="0.2"/>
<path d="M101.99 177.807C100.784 177.807 96.7354 174.997 96.7354 170.823C97.3096 169.773 98.4582 168.132 98.4582 169.972C98.4582 172.271 101.042 175.252 101.731 175.933C102.42 176.615 103.196 177.807 101.99 177.807Z" fill="black" fill-opacity="0.2"/>
<path d="M78.9041 170.823C73.9941 170.823 67.6202 164.436 64.3467 160.092L66.3281 158.389L70.807 164.776L80.9712 167.757L82.9526 164.521C83.4405 165.259 84.589 167.042 85.2783 168.268C86.1397 169.801 88.379 170.994 90.1879 173.549C91.9969 176.104 85.1058 172.952 84.2444 172.527C83.5555 172.186 82.0623 171.136 81.4019 170.653C81.4019 170.71 80.9025 170.823 78.9041 170.823Z" fill="black" fill-opacity="0.2"/>
<path d="M94.322 163.073C92.3409 160.603 93.0302 157.707 92.6855 155.237L98.2844 165.287L97.8537 166.054L97.8425 166.048C97.2889 165.76 95.8961 165.035 94.322 163.073Z" fill="black" fill-opacity="0.2"/>
<path d="M111.982 176.274C110.173 175.848 108.536 171.675 108.536 168.523L110.259 167.757L111.379 172.186C111.723 173.549 113.79 176.699 111.982 176.274Z" fill="black" fill-opacity="0.2"/>
<path d="M130.673 177.807C131.879 177.807 135.927 174.997 135.927 170.823C135.353 169.773 134.204 168.132 134.204 169.972C134.204 172.271 131.62 175.252 130.931 175.933C130.242 176.615 129.467 177.807 130.673 177.807Z" fill="black" fill-opacity="0.2"/>
<path d="M153.758 170.823C158.668 170.823 165.042 164.436 168.315 160.092L166.334 158.389L161.855 164.776L151.691 167.757L149.71 164.521C149.222 165.259 148.073 167.042 147.384 168.268C146.523 169.801 144.283 170.994 142.474 173.549C140.665 176.104 147.556 172.952 148.418 172.527C149.107 172.186 150.6 171.136 151.26 170.653C151.26 170.71 151.76 170.823 153.758 170.823Z" fill="black" fill-opacity="0.2"/>
<path d="M138.339 163.073C140.32 160.603 139.631 157.707 139.976 155.237L134.377 165.287L134.808 166.054L134.819 166.048C135.372 165.76 136.765 165.035 138.339 163.073Z" fill="black" fill-opacity="0.2"/>
<path d="M120.596 176.359C122.405 175.933 124.127 171.675 124.127 168.523L122.405 167.757L121.285 172.186C120.94 173.548 118.787 176.785 120.596 176.359Z" fill="black" fill-opacity="0.2"/>
<path opacity="0.2" d="M95.9071 267.574C95.3043 267.574 97.1993 266.637 96.5961 265.018C98.0318 264.422 100.283 265.037 101.937 266.466C104.004 268.255 104.004 272.684 103.918 274.557C103.832 276.431 96.5103 267.574 95.9071 267.574Z" fill="#22110C"/>
<path opacity="0.2" d="M136.762 267.631C137.365 267.631 135.47 266.694 136.073 265.076C134.637 264.48 132.386 265.094 130.732 266.524C128.665 268.312 128.665 272.741 128.751 274.615C128.837 276.489 136.159 267.631 136.762 267.631Z" fill="#22110C"/>
<path opacity="0.2" fill-rule="evenodd" clip-rule="evenodd" d="M58.5711 224.353C69.0559 230.555 79.2487 236.584 79.2487 244.066C79.2487 244.307 79.2445 244.547 79.2369 244.781C75.8283 237.721 68.436 232.286 54.1664 225.016C48.2447 221.999 48.1775 221.958 44.4742 219.013C35.3901 211.791 32.4521 203.48 36.3945 199.4C33.7421 209.667 46.3546 217.127 58.5711 224.353Z" fill="#22110C"/>
<path opacity="0.2" fill-rule="evenodd" clip-rule="evenodd" d="M36.5605 199.106L36.479 199.422C35.1644 204.509 37.6273 208.913 41.9672 212.957C46.3077 217 52.5055 220.666 58.6164 224.281L58.6206 224.284C63.8597 227.383 69.034 230.443 72.8982 233.667C76.7612 236.889 79.336 240.286 79.336 244.067C79.336 244.31 79.332 244.548 79.3241 244.782L79.1602 244.815C75.7653 237.789 68.3982 232.363 54.1283 225.091C51.1687 223.584 49.6676 222.817 48.4439 222.059C47.219 221.301 46.2721 220.552 44.4213 219.08C39.8711 215.462 36.8547 211.568 35.4704 208.059C34.0864 204.552 34.33 201.415 36.3333 199.342L36.5605 199.106ZM35.6307 207.998C37.001 211.471 39.9952 215.343 44.5292 218.947C46.3819 220.421 47.3206 221.164 48.5355 221.916C49.7516 222.669 51.2447 223.432 54.2071 224.941C68.2641 232.101 75.6716 237.497 79.1605 244.429C79.1626 244.307 79.1635 244.189 79.1635 244.067C79.1635 240.368 76.6419 237.01 72.7871 233.795C68.9348 230.583 63.7721 227.529 58.5278 224.427L58.5218 224.424C52.4182 220.812 46.2043 217.138 41.8489 213.079C37.5835 209.105 35.0813 204.746 36.2326 199.706C34.5007 201.713 34.3151 204.663 35.6307 207.998Z" fill="#22110C"/>
<path opacity="0.2" fill-rule="evenodd" clip-rule="evenodd" d="M174.35 224.354C163.865 230.556 153.672 236.584 153.672 244.067C153.672 244.173 153.673 244.28 153.674 244.383C157.166 237.518 164.545 232.15 178.55 225.016C184.471 222 184.538 221.959 188.242 219.014C197.323 211.793 199.981 204.009 196.637 199.868C198.794 209.896 186.38 217.239 174.35 224.354Z" fill="#22110C"/>
<path opacity="0.2" fill-rule="evenodd" clip-rule="evenodd" d="M197.177 208.318C195.789 211.701 192.843 215.464 188.295 219.08C186.444 220.552 185.497 221.301 184.272 222.061C183.049 222.817 181.548 223.584 178.588 225.093C164.583 232.225 157.228 237.585 153.75 244.423L153.587 244.386C153.586 244.28 153.585 244.173 153.585 244.067C153.585 240.286 156.16 236.888 160.022 233.667C163.887 230.443 169.061 227.383 174.3 224.284L174.305 224.28C180.322 220.722 186.424 217.111 190.754 213.14C195.084 209.17 197.62 204.855 196.552 199.886L196.704 199.815C198.402 201.917 198.566 204.935 197.177 208.318ZM196.793 200.217C198.228 202.239 198.328 205.063 197.019 208.253C195.644 211.602 192.721 215.343 188.187 218.947C186.334 220.42 185.396 221.163 184.181 221.916C182.965 222.669 181.471 223.432 178.509 224.941C164.716 231.967 157.326 237.29 153.757 244.036C153.772 240.347 156.29 237.001 160.134 233.795C163.986 230.583 169.149 227.529 174.393 224.427L174.399 224.423C180.41 220.869 186.527 217.25 190.871 213.265C195.112 209.376 197.682 205.119 196.793 200.217Z" fill="#22110C"/>
<g style="mix-blend-mode:multiply">
<path fill-rule="evenodd" clip-rule="evenodd" d="M32.5487 221.601C32.4447 230.041 32.7692 266.466 76.0621 266.466C76.2391 266.466 76.4152 266.466 76.5901 266.466C76.1728 264.224 76.7255 262.357 78.2412 260.757C79.7763 259.132 78.8121 251.455 76.4897 246.813C75.875 245.581 75.6122 245.019 75.3327 245.01C75.0906 245.004 74.8357 245.414 74.328 246.175C61.7596 264.985 36.117 250.591 36.6365 225.018C36.7159 221.115 36.7159 221.115 35.6282 220.252C34.8355 219.625 34.5955 219.407 34.4185 219.448C34.3117 219.473 34.2277 219.592 34.0598 219.773C33.5309 220.344 33.0272 220.954 32.5487 221.601Z" fill="black" fill-opacity="0.2"/>
</g>
<path opacity="0.2" fill-rule="evenodd" clip-rule="evenodd" d="M200.447 222.325C200.513 231.69 199.333 266.636 156.928 266.636C156.646 266.636 156.368 266.636 156.093 266.633C156.57 264.319 156.028 262.399 154.475 260.757C152.94 259.132 153.904 251.455 156.226 246.813C156.841 245.582 157.104 245.019 157.383 245.01C157.625 245.004 157.88 245.414 158.388 246.175C170.956 264.985 196.599 250.591 196.08 225.018C196.023 222.243 196.006 221.441 196.38 220.904C196.531 220.684 196.747 220.511 197.052 220.264C197.62 219.802 197.927 219.512 198.22 219.524C198.649 219.543 199.048 220.213 200.203 221.953C200.285 222.078 200.366 222.202 200.447 222.325Z" fill="#22110C"/>
<path opacity="0.2" fill-rule="evenodd" clip-rule="evenodd" d="M108.861 130.439C108.602 132.376 109.018 134.695 110.171 137.22C111.035 139.111 111.035 139.111 112.36 139.125C113.551 139.137 113.822 139.207 115.021 139.813C116.357 140.488 116.357 140.488 117.693 139.813C118.893 139.207 119.164 139.137 120.354 139.125C121.68 139.111 121.68 139.111 122.542 137.22C123.695 134.694 124.069 132.363 123.783 130.414C123.211 133.568 121.893 137.689 118.937 138.033C117.657 138.3 116.767 138.316 116.459 138.29L116.439 138.289H116.201H116.18C115.873 138.314 114.983 138.3 113.703 138.033C110.755 137.69 109.436 133.589 108.861 130.439ZM126.133 139.91C127.611 137.632 128.228 135.456 128.368 132.03L128.442 130.23C129.009 133.316 128.857 137.637 126.266 141.305C125.595 140.74 125.627 140.691 126.133 139.91ZM136.66 137.008C136.54 138.583 136.044 140.324 135.137 142.143C135.039 142.338 134.952 142.516 134.872 142.677C134.385 143.664 134.194 144.051 133.901 144.154C133.711 144.221 133.479 144.17 133.097 144.086C133.001 144.064 132.894 144.041 132.777 144.016C131.857 143.827 131.349 143.807 130.718 143.935C130.553 143.969 130.402 144 130.265 144.029C130.235 144.035 130.207 144.041 130.178 144.047C130.291 143.709 131.169 143.434 132.065 143.153C132.907 142.89 133.764 142.621 134.011 142.292C135.238 140.656 136.175 139.007 136.66 137.008ZM140.303 136.394C140.29 138.742 138.93 142.587 137.401 144.599C136.748 145.459 136.704 145.517 137.534 146.402C139.294 143.887 141.126 138.933 140.433 136.235C140.349 136.274 140.303 136.327 140.303 136.394ZM151.174 144.365C150.948 145.806 150.143 148.839 148.913 150.127C147.448 151.66 146.846 151.831 145.639 151.32C144.922 151.016 143.875 151.164 143.114 151.364C144.497 151.416 145.747 151.782 146.895 152.469L146.932 152.491L146.997 152.53C147.415 152.78 147.647 152.919 147.858 152.894C148.121 152.862 148.353 152.576 148.872 151.935L148.924 151.872L148.974 151.81C150.718 149.66 151.412 146.919 151.174 144.365ZM163.673 153.585C163.369 155.963 162.502 160.191 159.163 162.987C156.021 165.619 153.65 165.798 153.133 162.051C153.083 161.689 153.013 161.497 152.93 161.441C153.086 162.763 153.021 164.096 152.707 165.309C152.518 166.041 152.363 166.662 152.363 166.688C152.363 167.109 157.047 165.166 158.689 164.063C162.46 161.532 164.113 157.355 163.673 153.585ZM154.768 147.219C154.36 149.858 153.399 151.736 151.405 153.8C150.123 155.127 150.123 155.127 150.663 155.789C150.72 155.86 150.777 155.932 150.833 156.005C152.55 154.28 154.463 150.986 154.768 147.219ZM137.528 155.207C137.209 157.009 136.684 158.981 135.906 159.921C134.356 161.795 132.288 162.306 130.652 162.051C129.829 161.922 128.464 162.28 127.272 162.698C129.691 162.596 131.529 163.069 133.124 164.157C133.515 164.423 133.83 164.538 133.899 164.439C133.963 164.347 134.339 163.853 134.736 163.342C136.488 161.082 137.439 158.004 137.528 155.207ZM123.622 161.864C126.102 160.571 130.077 157.112 130.029 151.607C129.548 155.579 127.183 159.099 123.464 161.224C123.419 161.249 123.499 161.53 123.622 161.864ZM126.765 151.977C125.999 154.209 124.297 157.72 121.607 156.77C119.195 155.918 117.731 155.748 116.525 155.748C116.448 155.748 116.38 155.755 116.32 155.769C116.26 155.755 116.192 155.748 116.115 155.748C114.909 155.748 113.444 155.918 111.033 156.77C108.606 157.627 106.982 154.851 106.126 152.661C106.525 154.309 107.345 156.099 108.591 157.96C109.372 159.127 109.661 159.557 109.888 159.528C110.022 159.511 110.134 159.336 110.313 159.057C112.879 155.056 119.836 155.056 122.402 159.057C123.1 160.146 125.911 155.997 126.624 152.823C126.688 152.541 126.734 152.259 126.765 151.977ZM95.1156 155.226C95.1454 157.905 96.0667 160.876 97.9787 163.342C98.3751 163.853 98.7516 164.347 98.8155 164.439C98.8842 164.538 99.2 164.423 99.5905 164.157C101.167 163.081 102.981 162.607 105.359 162.694C104.168 162.278 102.809 161.923 101.988 162.051C100.352 162.306 98.2844 161.795 96.7338 159.921C95.9587 158.984 95.4346 157.023 95.1156 155.226ZM102.63 151.04C102.289 156.922 106.522 160.587 109.08 161.897C109.21 161.548 109.297 161.25 109.25 161.224C105.356 158.998 102.946 155.243 102.63 151.04ZM95.1381 146.447C96.0126 145.519 95.9779 145.473 95.3136 144.599C93.7845 142.587 92.4245 138.742 92.4118 136.394C92.4115 136.358 92.3293 136.331 92.1876 136.311C91.544 139.043 93.3851 143.97 95.1381 146.447ZM81.4762 144.426C81.2134 146.901 81.9108 149.555 83.7404 151.81C83.7757 151.853 83.8098 151.895 83.8426 151.935C84.3618 152.576 84.5933 152.862 84.8564 152.894C85.0678 152.919 85.2993 152.78 85.7175 152.53C85.7501 152.51 85.7841 152.49 85.8191 152.469C86.95 151.793 88.1789 151.428 89.5361 151.367C88.7739 151.165 87.7208 151.014 87.0005 151.32C85.7945 151.831 85.1916 151.66 83.7273 150.127C82.5137 148.857 81.7143 145.89 81.4762 144.426ZM96.1677 137.693C96.3514 139.106 96.8153 140.615 97.5778 142.143C97.6752 142.338 97.7628 142.515 97.8425 142.677C98.3294 143.664 98.5205 144.051 98.814 144.154C99.0032 144.221 99.2353 144.17 99.6173 144.086C99.7137 144.064 99.8202 144.041 99.9379 144.016C100.858 143.827 101.366 143.807 101.997 143.935C102.162 143.969 102.312 144 102.45 144.029C102.452 144.029 102.453 144.03 102.455 144.03C102.32 143.7 101.455 143.429 100.575 143.153C99.7332 142.89 98.8763 142.621 98.6291 142.292C97.5447 140.846 96.6866 139.391 96.1677 137.693ZM104.139 130.568C104.26 130.949 104.322 131.439 104.347 132.051C104.486 135.455 105.107 137.637 106.581 139.91C107.099 140.708 107.121 140.742 106.401 141.344C103.877 137.799 103.644 133.638 104.139 130.568ZM79.7862 161.426C79.67 161.398 79.5708 161.582 79.5063 162.051C78.9896 165.798 76.6182 165.619 73.4767 162.987C70.3952 160.406 69.4191 156.604 69.0477 154.165C68.8627 157.761 70.4453 161.659 74.0255 164.063C75.6671 165.166 80.3519 167.109 80.3519 166.688C80.3519 166.662 80.1968 166.041 80.0073 165.309C79.6925 164.092 79.6286 162.753 79.7862 161.426ZM81.8491 156.048C81.9148 155.961 81.9817 155.875 82.0498 155.791C82.5882 155.131 82.5882 155.131 81.2371 153.72C79.235 151.629 78.1509 149.38 77.8526 146.699C77.8459 146.641 77.8401 146.586 77.8343 146.533C77.9462 150.614 80.0183 154.232 81.8491 156.048Z" fill="#22110C"/>
<path d="M180.03 236.572C180.03 234.504 181.766 232.825 183.906 232.825C186.047 232.825 187.783 234.504 187.783 236.572C187.783 238.644 186.047 240.32 183.906 240.32C181.766 240.32 180.03 238.644 180.03 236.572Z" fill="#F1F1F1"/>
<path d="M44.7939 236.572C44.7939 234.504 46.5292 232.825 48.67 232.825C50.8108 232.825 52.5461 234.504 52.5461 236.572C52.5461 238.644 50.8108 240.32 48.67 240.32C46.5292 240.32 44.7939 238.644 44.7939 236.572Z" fill="#F1F1F1"/>
<path d="M55.1312 239.979C55.1312 239.416 54.63 238.957 54.0113 238.957C53.3929 238.957 52.8916 239.416 52.8916 239.979C52.8916 240.545 53.3929 241.001 54.0113 241.001C54.63 241.001 55.1312 240.545 55.1312 239.979Z" fill="#F1F1F1"/>
<path d="M1132.73 239.628L1137 260.248C1134.04 262.265 1129.77 264.099 1124.2 265.76C1118.75 267.299 1113.3 268.069 1107.84 268.069C1097.3 268.069 1088.53 264.753 1081.54 258.116C1074.67 251.479 1071.23 241.523 1071.23 228.252V192.167H1053.81V168.17H1071.23V147.017L1096.65 141.506V168.17H1132.91V192.167H1096.65V226.829C1096.65 238.561 1101.86 244.428 1112.29 244.428C1116.91 244.428 1123.73 242.828 1132.73 239.628Z" fill="white"/>
<path d="M999.979 268.068C986.827 268.068 975.864 265.048 967.095 259.004C958.326 252.842 953.051 244.428 951.275 233.764H977.047C979.183 242.533 987.064 246.916 1000.69 246.916C1011.71 246.916 1017.22 244.252 1017.22 238.917C1017.22 238.208 1017.1 237.554 1016.87 236.964C1016.75 236.371 1016.45 235.835 1015.98 235.364C1015.62 234.889 1015.21 234.473 1014.73 234.117C1014.26 233.645 1013.55 233.229 1012.6 232.873C1011.77 232.52 1011 232.222 1010.29 231.985C1009.58 231.747 1008.51 231.452 1007.09 231.096C1005.79 230.74 1004.6 230.445 1003.53 230.208C1002.59 229.971 1001.22 229.673 999.447 229.32C997.667 228.964 996.128 228.608 994.823 228.252C980.247 224.815 970.058 221.082 964.251 217.053C958.563 212.906 955.719 206.743 955.719 198.566C955.719 188.375 959.57 180.435 967.271 174.747C975.095 168.94 985.522 166.037 998.558 166.037C1011.59 166.037 1021.72 168.881 1028.95 174.569C1036.18 180.139 1040.69 187.723 1042.46 197.322H1016.69C1014.55 190.686 1008.22 187.368 997.667 187.368C986.766 187.368 981.315 190.093 981.315 195.545C981.315 197.678 982.44 199.218 984.691 200.166C986.945 201.114 992.04 202.477 999.979 204.255C1007.92 206.032 1014.2 207.692 1018.82 209.232C1023.44 210.654 1027.83 212.55 1031.97 214.92C1036.12 217.29 1039.09 220.134 1040.86 223.453C1042.64 226.771 1043.53 230.801 1043.53 235.54C1043.53 246.086 1039.44 254.147 1031.27 259.716C1023.09 265.285 1012.66 268.068 999.979 268.068Z" fill="white"/>
<path d="M887.581 166.037C903.581 166.037 916.201 171.547 925.445 182.568C934.807 193.589 938.834 207.277 937.532 223.63H862.517C863.348 231.215 866.073 237.022 870.694 241.052C875.317 245.079 881.063 247.096 887.937 247.096C892.913 247.096 897.357 246.028 901.269 243.896C905.181 241.642 907.964 238.622 909.625 234.829H935.932C932.495 245.852 926.451 254.147 917.801 259.716C909.15 265.285 899.255 268.068 888.113 268.068C872.947 268.068 860.562 263.272 850.965 253.672C841.365 244.072 836.565 231.927 836.565 217.231C836.565 202.536 841.365 190.33 850.965 180.613C860.562 170.895 872.768 166.037 887.581 166.037ZM887.405 187.012C881.361 187.012 876.324 188.671 872.294 191.99C868.266 195.189 865.422 199.514 863.762 204.966H910.513C909.089 199.514 906.364 195.189 902.337 191.99C898.306 188.671 893.33 187.012 887.405 187.012Z" fill="white"/>
<path d="M810.103 149.15C798.608 149.15 792.863 155.372 792.863 167.815V168.171H825.391V192.168H792.863V265.937H767.443V192.168H750.023V168.171H767.443V166.571C767.443 153.535 771.294 143.699 778.995 137.063C786.7 130.308 796.12 126.931 807.259 126.931C816.147 126.931 823.852 128.412 830.367 131.375L825.747 151.994L822.37 151.106C817.866 149.802 813.777 149.15 810.103 149.15Z" fill="white"/>
<path d="M723.216 123.02C727.839 123.02 731.629 124.442 734.592 127.286C737.555 130.011 739.036 133.566 739.036 137.951C739.036 142.336 737.555 145.95 734.592 148.794C731.629 151.638 727.839 153.06 723.216 153.06C718.714 153.06 714.921 151.638 711.84 148.794C708.877 145.95 707.396 142.336 707.396 137.951C707.396 133.685 708.877 130.13 711.84 127.286C714.921 124.442 718.714 123.02 723.216 123.02ZM710.416 265.936V168.17H735.836V265.936H710.416Z" fill="white"/>
<path d="M655.651 166.037C666.671 166.037 675.321 169.473 681.603 176.347C687.884 183.22 691.023 192.641 691.023 204.61V265.936H665.603V210.121C665.603 203.484 664.183 198.507 661.339 195.189C658.495 191.871 653.813 190.212 647.295 190.212C632.6 190.212 625.252 198.329 625.252 214.565V265.936H599.832V168.17H625.252V181.502C632.6 171.192 642.732 166.037 655.651 166.037Z" fill="white"/>
<path d="M554.157 168.17H579.577L579.4 265.936H553.98V252.784C546.513 262.974 536.323 268.068 523.405 268.068C510.487 268.068 499.823 263.329 491.409 253.848C482.996 244.252 478.789 231.985 478.789 217.053C478.789 202.121 482.996 189.916 491.409 180.435C499.941 170.836 510.548 166.037 523.229 166.037C536.262 166.037 546.574 171.31 554.157 181.857V168.17ZM529.093 243.896C536.323 243.896 542.306 241.408 547.048 236.428C551.787 231.452 554.157 224.993 554.157 217.053C554.157 209.114 551.787 202.655 547.048 197.678C542.306 192.7 536.323 190.212 529.093 190.212C521.866 190.212 515.941 192.7 511.317 197.678C506.697 202.655 504.385 209.114 504.385 217.053C504.385 224.993 506.697 231.452 511.317 236.428C516.059 241.408 521.985 243.896 529.093 243.896Z" fill="white"/>
<path d="M427.941 166.037C438.371 166.037 446.608 169.414 452.652 176.169C458.696 182.924 461.716 192.226 461.716 204.077V265.936H436.297V209.587C436.297 203.188 434.934 198.389 432.208 195.189C429.602 191.871 425.334 190.212 419.409 190.212C412.775 190.212 407.738 192.345 404.301 196.611C400.863 200.759 399.145 206.743 399.145 214.565V265.936H373.725V209.587C373.725 203.188 372.363 198.389 369.637 195.189C367.03 191.871 362.763 190.212 356.838 190.212C350.204 190.212 345.106 192.345 341.553 196.611C338.116 200.759 336.397 206.743 336.397 214.565L336.574 265.936H310.978V168.17H336.574V181.146C343.685 171.073 353.343 166.037 365.549 166.037C379.769 166.037 389.664 172.199 395.236 184.524C402.819 172.199 413.721 166.037 427.941 166.037Z" fill="white"/>
<rect x="1188" y="118.649" width="373" height="175" fill="black"/>
<rect x="1188" y="118.649" width="373" height="175" stroke="#353C45" stroke-width="2"/>
<path d="M1236.56 249.649V163.189H1272.46C1277.78 163.189 1282.54 163.669 1286.74 164.63C1290.93 165.503 1294.51 166.857 1297.48 168.691C1300.53 170.525 1302.85 172.927 1304.42 175.896C1306.08 178.778 1306.91 182.228 1306.91 186.245C1306.91 189.651 1306.17 192.62 1304.68 195.153C1303.29 197.686 1301.06 199.738 1298 201.31C1295.03 202.882 1291.1 203.974 1286.21 204.585V206.55C1294.51 207.161 1300.58 209.257 1304.42 212.838C1308.35 216.331 1310.32 221.047 1310.32 226.986C1310.32 231.964 1309.01 236.156 1306.39 239.562C1303.85 242.881 1300.01 245.413 1294.86 247.16C1289.71 248.819 1283.33 249.649 1275.73 249.649H1236.56ZM1254.51 234.453H1275.47C1281.06 234.453 1285.21 233.623 1287.92 231.964C1290.62 230.217 1291.98 227.554 1291.98 223.973C1291.98 219.868 1290.27 216.812 1286.87 214.803C1283.46 212.707 1278.31 211.659 1271.41 211.659H1254.51V234.453ZM1254.51 199.869H1268.66C1275.47 199.869 1280.45 198.952 1283.59 197.118C1286.82 195.197 1288.44 192.402 1288.44 188.734C1288.44 185.066 1287 182.402 1284.12 180.743C1281.23 178.996 1276.82 178.123 1270.89 178.123H1254.51V199.869ZM1357.03 251.483C1351.36 251.483 1346.29 250.697 1341.84 249.125C1337.47 247.553 1333.76 245.282 1330.7 242.313C1327.65 239.344 1325.29 235.676 1323.63 231.309C1322.06 226.942 1321.27 222.008 1321.27 216.506C1321.27 211.091 1322.01 206.113 1323.5 201.572C1325.07 196.943 1327.34 192.97 1330.31 189.651C1333.28 186.245 1336.9 183.625 1341.18 181.791C1345.46 179.957 1350.31 179.04 1355.72 179.04C1360.96 179.04 1365.64 179.913 1369.74 181.66C1373.84 183.319 1377.25 185.852 1379.96 189.258C1382.75 192.664 1384.76 196.856 1385.98 201.834C1387.29 206.725 1387.77 212.358 1387.42 218.733L1333.45 219.257V208.908L1376.55 208.515L1369.87 213.755C1370.48 209.126 1370.18 205.327 1368.95 202.358C1367.73 199.389 1365.94 197.205 1363.58 195.808C1361.31 194.411 1358.78 193.712 1355.98 193.712C1352.67 193.712 1349.74 194.585 1347.21 196.332C1344.68 198.079 1342.71 200.655 1341.31 204.061C1339.92 207.38 1339.22 211.397 1339.22 216.113C1339.22 223.536 1340.83 228.995 1344.06 232.488C1347.38 235.981 1351.71 237.728 1357.03 237.728C1359.48 237.728 1361.53 237.422 1363.19 236.811C1364.94 236.112 1366.33 235.239 1367.38 234.191C1368.52 233.143 1369.39 231.964 1370 230.654C1370.7 229.344 1371.27 228.034 1371.7 226.724L1388.08 230.261C1387.29 233.492 1386.11 236.418 1384.54 239.038C1383.06 241.571 1381.05 243.798 1378.52 245.719C1375.98 247.553 1372.93 248.95 1369.35 249.911C1365.85 250.959 1361.75 251.483 1357.03 251.483ZM1426.73 251.221C1419.05 251.221 1413.37 249.212 1409.7 245.195C1406.12 241.09 1404.33 234.584 1404.33 225.676V195.677H1394.38L1394.64 180.874H1401.58C1404.29 180.874 1406.3 180.481 1407.61 179.695C1408.92 178.909 1409.7 177.468 1409.96 175.372L1411.67 165.547H1422.41V180.874H1439.83V196.201H1422.41V224.89C1422.41 228.034 1423.15 230.305 1424.64 231.702C1426.12 233.099 1428.39 233.798 1431.45 233.798C1433.11 233.798 1434.68 233.623 1436.16 233.274C1437.74 232.925 1439.09 232.357 1440.23 231.571V249.125C1437.52 249.998 1435.03 250.566 1432.76 250.828C1430.49 251.09 1428.48 251.221 1426.73 251.221ZM1469.37 251.483C1465.52 251.483 1462.12 250.741 1459.15 249.256C1456.18 247.684 1453.87 245.457 1452.21 242.575C1450.55 239.693 1449.72 236.112 1449.72 231.833C1449.72 228.078 1450.42 224.934 1451.81 222.401C1453.3 219.868 1455.44 217.816 1458.23 216.244C1461.03 214.672 1464.48 213.362 1468.58 212.314C1472.69 211.266 1477.36 210.349 1482.6 209.563C1485.39 209.126 1487.66 208.733 1489.41 208.384C1491.24 207.947 1492.6 207.292 1493.47 206.419C1494.34 205.458 1494.78 204.105 1494.78 202.358C1494.78 199.913 1493.91 197.817 1492.16 196.07C1490.41 194.323 1487.66 193.45 1483.91 193.45C1481.38 193.45 1479.02 193.887 1476.83 194.76C1474.74 195.633 1472.9 196.943 1471.33 198.69C1469.85 200.437 1468.76 202.664 1468.06 205.371L1451.42 200.262C1452.47 196.681 1453.95 193.581 1455.87 190.961C1457.88 188.341 1460.28 186.158 1463.08 184.411C1465.87 182.577 1469.06 181.223 1472.64 180.35C1476.22 179.477 1480.11 179.04 1484.3 179.04C1491.03 179.04 1496.48 180.132 1500.68 182.315C1504.96 184.411 1508.14 187.73 1510.24 192.271C1512.34 196.725 1513.38 202.489 1513.38 209.563V221.353C1513.38 224.41 1513.43 227.51 1513.51 230.654C1513.69 233.798 1513.86 236.986 1514.04 240.217C1514.3 243.361 1514.56 246.505 1514.82 249.649H1498.19C1497.84 247.466 1497.49 244.977 1497.14 242.182C1496.88 239.3 1496.66 236.418 1496.48 233.536H1494.13C1492.9 236.855 1491.16 239.868 1488.89 242.575C1486.62 245.282 1483.82 247.466 1480.5 249.125C1477.27 250.697 1473.56 251.483 1469.37 251.483ZM1477.36 237.859C1479.02 237.859 1480.68 237.553 1482.34 236.942C1484.08 236.331 1485.74 235.501 1487.31 234.453C1488.97 233.318 1490.46 231.92 1491.77 230.261C1493.17 228.602 1494.3 226.724 1495.17 224.628L1494.91 213.624L1497.93 214.279C1496.35 215.414 1494.52 216.331 1492.42 217.03C1490.33 217.641 1488.14 218.122 1485.87 218.471C1483.69 218.82 1481.51 219.213 1479.32 219.65C1477.14 220.087 1475.18 220.654 1473.43 221.353C1471.77 222.052 1470.42 223.012 1469.37 224.235C1468.41 225.37 1467.93 226.986 1467.93 229.082C1467.93 231.789 1468.8 233.929 1470.55 235.501C1472.29 237.073 1474.56 237.859 1477.36 237.859Z" fill="white"/>
</svg>
