<svg width="1562" height="320" viewBox="0 0 1562 320" fill="none" xmlns="http://www.w3.org/2000/svg">
<mask id="mask0_6769_299" style="mask-type:luminance" maskUnits="userSpaceOnUse" x="10" y="10" width="196" height="300">
<path d="M206 10H10V310H206V10Z" fill="white"/>
</mask>
<g mask="url(#mask0_6769_299)">
<path fill-rule="evenodd" clip-rule="evenodd" d="M103.857 10.2107C64.1521 14.1205 62.7537 72.8739 102.209 79.4488C103.997 79.7466 104.564 79.9031 104.605 80.1103C104.634 80.2597 104.49 83.2223 104.286 86.6941C104.08 90.1658 103.822 96.9923 103.711 101.864C103.601 106.735 103.471 110.749 103.423 110.784C103.376 110.819 102.731 111.145 101.99 111.508C100.603 112.19 98.7791 113.686 98.0457 114.744C97.6344 115.337 97.6344 115.337 95.1087 115.42C91.1207 115.55 88.69 116.524 86.4829 118.877C85.871 119.529 85.3109 119.992 85.2364 119.906C85.162 119.82 82.8609 116.432 80.1224 112.378C77.3842 108.323 74.2748 103.758 73.2131 102.233L71.2825 99.4585L72.4153 98.204C93.5423 74.8064 64.0005 39.5668 38.8798 58.2002C13.8753 76.7476 36.286 115.653 65.0359 103.607C65.1541 103.558 67.2899 106.227 70.0875 109.921C72.7531 113.441 76.0826 117.781 77.4865 119.565C78.8903 121.349 80.1573 122.987 80.3021 123.206C80.5998 123.654 80.6957 123.589 79.0876 124.031C74.6286 125.255 70.4247 128.954 69.5914 132.387C69.482 132.838 69.3026 133.209 69.1929 133.212C61.658 133.412 55.8916 139.006 55.8101 146.194C55.7825 148.64 55.7825 148.64 54.7563 149.249C45.4169 154.789 32.7462 173.376 31.8415 182.863C31.7078 184.266 31.7605 184.219 29.9124 184.535C25.7421 185.246 23.306 186.751 20.7372 190.202C17.4841 194.574 17.184 198.331 19.6645 203.637C20.5047 205.435 20.5509 205.117 19.1659 207.068C4.52015 227.689 7.57117 251.888 27.2753 271.384C40.1623 284.135 58.2521 291.909 78.5333 293.409C86.2771 293.982 87.1637 294.273 89.1583 296.899C102.273 314.162 113.593 314.162 126.708 296.899C128.703 294.273 129.589 293.982 137.333 293.409C167.647 291.167 193.01 274.557 202.517 250.72C208.577 235.526 206.654 221.101 196.696 207.054C195.315 205.105 195.362 205.432 196.202 203.637C198.682 198.331 198.382 194.574 195.13 190.202C192.561 186.751 190.124 185.246 185.954 184.535C184.105 184.219 184.159 184.266 184.025 182.863C183.729 179.753 180.397 171.769 177.218 166.55C173.312 160.137 165.722 151.985 161.11 149.249C160.084 148.64 160.084 148.64 160.056 146.194C159.975 139.006 154.209 133.412 146.674 133.212C146.564 133.209 146.384 132.838 146.275 132.387C145.442 128.954 141.238 125.255 136.779 124.031C135.171 123.589 135.267 123.654 135.564 123.206C135.709 122.987 136.976 121.349 138.38 119.565C139.784 117.781 143.113 113.441 145.779 109.921C148.577 106.227 150.712 103.558 150.831 103.607C179.58 115.653 201.992 76.7476 176.986 58.2002C151.866 39.5668 122.324 74.8064 143.451 98.204L144.584 99.4585L142.653 102.233C141.592 103.758 138.482 108.323 135.744 112.378C133.006 116.432 130.704 119.82 130.63 119.906C130.556 119.992 129.995 119.529 129.383 118.877C127.176 116.524 124.746 115.55 120.758 115.42C118.232 115.337 118.232 115.337 117.827 114.752C116.764 113.22 114.315 111.479 112.335 110.848C111.446 110.565 111.446 110.565 111.468 100.157C111.479 94.4325 111.45 87.5197 111.402 84.7949L111.315 79.8403L113.657 79.4494C158.033 72.0409 148.657 5.79933 103.857 10.2107ZM102.766 18.7861C87.5422 21.535 77.537 35.6054 80.2678 49.3759C80.4648 50.369 80.7278 51.3605 81.0601 52.3462C89.0153 75.9446 126.851 75.9446 134.806 52.3462C135.142 51.3498 135.408 50.3524 135.607 49.3579C139.092 31.9168 122.02 15.3098 102.766 18.7861ZM51.6482 61.9848C40.405 64.0628 33.751 75.4655 36.5235 85.1347C37.0565 86.9935 37.938 88.7883 39.2023 90.4404C48.1468 102.129 64.2528 100.95 70.8886 88.1206C71.4696 86.9978 71.9133 85.8538 72.2306 84.7031C75.5834 72.5316 64.7508 59.5634 51.6482 61.9848ZM158.174 61.9946C146.958 63.9972 141.146 74.9374 143.65 84.6862C144.487 87.944 146.253 91.0692 149.057 93.6829C157.121 101.202 169.546 99.7426 176.664 90.4404C177.93 88.7864 178.807 87.0167 179.34 85.1984C182.798 73.4065 171.774 59.5661 158.174 61.9946ZM106.046 116.417C100.558 117.385 98.785 122.462 101.705 128.852C102.574 130.755 102.574 130.755 103.909 130.769C105.107 130.782 105.38 130.852 106.588 131.462C107.933 132.141 107.933 132.141 109.278 131.462C110.486 130.852 110.759 130.782 111.957 130.769C113.292 130.755 113.292 130.755 114.161 128.852C117.743 121.005 113.851 115.041 106.046 116.417ZM91.9672 121.44C87.4702 122.638 86.173 128.092 89.0254 133.806C90.2063 136.172 89.9723 135.986 91.4019 135.692C92.328 135.501 92.8394 135.481 93.4743 135.61C95.5586 136.034 95.3032 136.103 96.1867 134.879C96.6259 134.271 97.3563 133.464 97.8098 133.086C98.6346 132.398 98.6346 132.398 98.0904 131.559C96.606 129.272 95.9812 127.075 95.8407 123.649C95.735 121.07 94.977 120.638 91.9672 121.44ZM120.026 123.628C119.885 127.077 119.264 129.267 117.776 131.559C117.232 132.398 117.232 132.398 118.057 133.086C118.51 133.464 119.241 134.271 119.68 134.879C120.563 136.103 120.308 136.034 122.392 135.61C123.027 135.481 123.539 135.501 124.465 135.692C125.894 135.986 125.66 136.172 126.841 133.806C130.175 127.128 127.995 121.485 121.987 121.24L120.128 121.165L120.026 123.628ZM79.6606 128.161C72.9399 129.9 70.5515 137.941 75.0938 143.535C76.1763 144.868 76.1035 144.845 77.1864 144.199C78.8689 143.194 80.7655 142.871 82.9772 143.212C83.7787 143.335 83.7787 143.335 83.9817 142.538C84.3229 141.199 85.3265 139.452 86.4158 138.301C87.4516 137.207 87.4516 137.207 86.746 136.278C85.2061 134.254 83.8369 130.383 83.8243 128.021C83.8231 127.797 80.6556 127.904 79.6606 128.161ZM132.042 128.021C132.029 130.383 130.66 134.254 129.121 136.278C128.415 137.207 128.415 137.207 129.451 138.301C130.54 139.452 131.544 141.199 131.885 142.538C132.088 143.335 132.088 143.335 132.889 143.212C135.101 142.871 136.998 143.194 138.68 144.199C139.763 144.845 139.69 144.868 140.773 143.535C144.558 138.873 143.43 131.443 138.58 129.097C136.497 128.089 132.046 127.357 132.042 128.021ZM101.208 136.202C96.4872 138.374 96.0587 143.671 100.114 149.725C101.361 151.587 101.361 151.587 101.847 150.829C104.431 146.802 111.435 146.802 114.019 150.829C114.722 151.924 117.552 147.749 118.271 144.555C119.554 138.855 113.927 133.057 110.747 136.802C110.07 137.599 109.239 139.062 108.911 140.034C108.275 141.917 107.591 141.917 106.956 140.034C106.447 138.529 105.376 136.906 104.397 136.159C103.702 135.629 102.417 135.646 101.208 136.202ZM67.6926 137.359C59.1158 138.473 57.549 150.657 65.3121 155.867C66.965 156.976 71.6818 158.933 71.6818 158.509C71.6818 158.483 71.5259 157.858 71.3351 157.121C70.5214 153.977 71.371 150.02 73.3916 147.542C73.9334 146.878 73.9334 146.878 72.573 145.457C70.5573 143.353 69.4661 141.09 69.1654 138.392C69.0236 137.119 69.1041 137.175 67.6926 137.359ZM146.867 137.391C146.833 137.494 146.723 138.136 146.621 138.819C146.219 141.526 145.252 143.436 143.221 145.538C141.929 146.873 141.929 146.873 142.473 147.54C144.496 150.02 145.345 153.976 144.531 157.121C144.341 157.858 144.185 158.483 144.185 158.509C144.185 158.933 148.902 156.976 150.554 155.867C157.432 151.251 157.313 141.202 150.342 137.989C149.192 137.46 146.969 137.077 146.867 137.391ZM91.3863 139.569C85.9307 140.345 84.8184 149.196 89.4293 155.142C89.8281 155.656 90.2072 156.152 90.2715 156.245C90.341 156.345 90.6589 156.229 91.0521 155.961C93.2743 154.446 95.9632 154.117 100.025 154.863C100.159 154.888 100.895 153.077 100.778 153.009C96.361 150.487 93.8405 146.01 94.0947 141.137C94.1682 139.725 94.1682 139.725 93.549 139.622C93.2084 139.565 92.8125 139.498 92.6694 139.471C92.5264 139.445 91.9491 139.489 91.3863 139.569ZM123.11 139.475C123.015 139.5 122.658 139.567 122.317 139.623C121.698 139.725 121.698 139.725 121.772 141.137C122.026 146.01 119.506 150.487 115.088 153.009C114.971 153.077 115.707 154.888 115.842 154.863C119.903 154.117 122.592 154.446 124.814 155.961C125.208 156.229 125.525 156.345 125.595 156.245C125.659 156.152 126.038 155.656 126.437 155.142C129.826 150.772 130.239 143.365 127.238 140.755C126.31 139.947 124.009 139.234 123.11 139.475ZM80.3202 146.646C73.6342 148.425 73.1659 157.557 79.4609 163.403C84.0105 167.629 79.5672 166.638 74.6114 162.322C73.2679 161.152 73.2679 161.152 72.2438 161.258C68.0616 161.69 61.6194 158.035 58.1842 153.281C57.3916 152.184 57.3916 152.184 56.8875 152.767C49.7454 161.018 45.6806 168.407 41.0516 181.549C39.906 184.802 39.8945 184.549 41.1977 184.794C63.4391 188.966 78.1149 212.387 78.5721 244.439C78.6717 251.438 78.495 251.018 80.9584 250.108C82.4627 249.551 82.7675 249.128 83.9964 245.892C89.6201 231.085 94.3547 225.213 102.287 223.209C103.928 222.794 103.88 222.825 104.02 222.086C104.337 220.417 106.121 216.045 106.763 215.363C108.313 213.719 110.91 217.154 111.846 222.086C111.986 222.825 111.938 222.794 113.58 223.209C121.512 225.213 126.246 231.085 131.87 245.892C133.099 249.128 133.404 249.551 134.908 250.108C137.372 251.018 137.195 251.438 137.294 244.439C137.752 212.385 152.426 188.966 174.668 184.794C175.972 184.549 175.961 184.802 174.815 181.549C170.186 168.407 166.121 161.018 158.979 152.767C158.475 152.184 158.475 152.184 157.682 153.281C154.247 158.035 147.805 161.69 143.623 161.258C142.599 161.152 142.599 161.152 141.255 162.322C136.299 166.638 131.856 167.629 136.406 163.403C140.948 159.185 142.094 154.83 139.828 150.401C138.033 146.891 132.495 144.788 132.143 147.482C131.58 151.791 129.856 155.107 127.26 156.872C126.504 157.387 126.504 157.387 127.149 158.539C128.632 161.191 127.899 164.638 125.3 167.235C123.101 169.432 121.334 169.576 123.352 167.394C125.999 164.531 125.815 161.042 122.973 160.208C121.272 159.708 115.912 159.92 115.912 160.486C115.912 161.774 114.189 165.734 113.166 166.797C111.897 168.115 111.632 167.543 112.505 165.376C115.182 158.736 112.951 152.407 107.933 152.407C102.915 152.407 100.684 158.736 103.361 165.376C104.235 167.543 103.969 168.115 102.7 166.797C101.677 165.734 99.9545 161.774 99.9545 160.486C99.9545 159.92 94.5942 159.708 92.8939 160.208C90.0513 161.042 89.8673 164.531 92.5145 167.394C94.5327 169.576 92.7659 169.432 90.5667 167.235C87.9673 164.638 87.2347 161.191 88.7179 158.539C89.3626 157.387 89.3626 157.387 88.6061 156.872C86.0125 155.109 84.2859 151.79 83.7248 147.492C83.6326 146.786 83.5346 146.588 83.2394 146.509C82.63 146.348 81.1887 146.415 80.3202 146.646ZM32.5076 189.085C22.2726 190.691 23.8119 201.834 35.5587 211.17C39.2876 214.134 39.3553 214.175 45.3174 217.211C67.296 228.403 73.0694 235.281 73.0694 250.276C73.0694 251.306 73.81 251.622 74.8475 251.032C75.0343 250.926 75.0046 243.753 74.8016 239.92C73.8473 221.92 66.5509 205.094 56.0915 196.777C49.1731 191.274 39.2278 188.03 32.5076 189.085ZM178.094 189.028C159.114 191.025 144.682 208.975 141.501 234.541C140.995 238.61 140.638 250.814 141.019 251.032C142.057 251.622 142.797 251.306 142.797 250.276C142.797 235.279 148.566 228.405 170.549 217.211C176.511 214.175 176.579 214.134 180.308 211.17C194.386 199.982 193.132 187.446 178.094 189.028ZM25.0727 211.934C17.0888 220.537 14.7359 238.303 19.9025 250.977C27.1544 268.768 50.8819 285.308 71.7685 287.133C81.2338 287.959 83.3824 287.819 82.4771 286.425C80.9924 284.143 75.9035 274.888 72.9301 269.063C72.1599 267.554 70.9649 265.434 70.2743 264.349C67.1723 259.478 66.9447 255.938 69.5558 253.18C71.1018 251.546 70.1307 243.82 67.7928 239.147C66.6367 236.836 66.7163 236.86 65.6162 238.506C52.9617 257.437 27.1439 242.949 27.6672 217.212C27.7472 213.285 27.7472 213.285 26.6519 212.416C25.3734 211.405 25.523 211.449 25.0727 211.934ZM189.177 212.428C188.119 213.285 188.119 213.285 188.199 217.212C188.723 242.949 162.905 257.435 150.25 238.506C149.15 236.86 149.23 236.836 148.074 239.147C145.736 243.82 144.765 251.546 146.311 253.18C148.922 255.938 148.694 259.478 145.592 264.349C144.902 265.434 143.707 267.554 142.936 269.063C139.963 274.888 134.874 284.143 133.389 286.425C132.478 287.828 132.223 287.761 137.554 287.514C148.67 287.001 153.294 285.986 162.31 282.081C194.911 267.966 208.168 237.978 192.351 214.129C190.396 211.18 190.589 211.285 189.177 212.428ZM32.0578 216.563C30.3767 222.078 33.7046 232.471 38.858 237.803C40.4581 239.457 40.5541 239.468 39.9148 237.916C37.3455 231.676 38.2875 223.938 41.9158 221.481C42.5868 221.027 41.3615 220.264 36.6447 218.203C35.5477 217.723 34.1252 217.072 33.4836 216.755C32.0987 216.069 32.204 216.085 32.0578 216.563ZM182.604 216.642C182.127 216.887 180.644 217.574 179.308 218.169C174.154 220.459 173.259 221.013 173.948 221.479C177.579 223.938 178.522 231.672 175.952 237.916C175.312 239.468 175.408 239.457 177.009 237.803C182.162 232.471 185.49 222.078 183.809 216.563C183.665 216.091 183.672 216.091 182.604 216.642ZM105.88 227.159C99.2431 228.333 93.0311 235.442 88.2138 247.377C85.7987 253.362 84.5425 254.228 76.5386 255.431C71.2714 256.223 70.9242 257.491 74.544 262.711C77.1612 266.486 80.3579 271.701 83.7343 277.701C89.7683 288.428 91.9948 291.985 95.0634 295.806C105.646 308.987 114.692 306.825 125.913 288.434C128.123 284.814 128.399 284.337 132.132 277.701C135.509 271.701 138.705 266.486 141.322 262.711C144.942 257.491 144.595 256.223 139.328 255.431C131.324 254.228 130.068 253.362 127.653 247.377C121.845 232.989 114.016 225.719 105.88 227.159ZM88.2469 255.534C86.6259 256.369 86.0413 257.971 86.7959 259.512C87.3943 260.733 89.0422 261.342 90.0562 260.716C90.3352 260.545 90.5459 260.608 91.3982 261.124C94.4454 262.965 95.607 262.609 94.6598 260.121C93.2143 256.326 90.4905 254.378 88.2469 255.534ZM124.638 255.611C122.778 256.545 120.4 260.538 120.983 261.748C121.405 262.622 122.234 262.475 124.468 261.124C125.321 260.608 125.531 260.545 125.81 260.716C126.824 261.342 128.472 260.733 129.071 259.512C130.363 256.874 127.369 254.238 124.638 255.611Z" fill="#22110C"/>
<path d="M123.11 139.475C123.015 139.5 122.658 139.567 122.318 139.623C121.698 139.725 121.698 139.725 121.772 141.137C122.026 146.01 119.506 150.487 115.089 153.009C114.971 153.077 115.707 154.888 115.842 154.863C119.903 154.117 122.592 154.446 124.814 155.961C125.208 156.229 125.526 156.345 125.595 156.245C125.659 156.152 126.038 155.656 126.437 155.141C129.826 150.772 130.239 143.365 127.238 140.755C126.31 139.947 124.009 139.234 123.11 139.475Z" fill="#2430F0"/>
<path d="M146.866 137.391C146.833 137.494 146.722 138.137 146.621 138.819C146.219 141.526 145.251 143.436 143.22 145.538C141.929 146.873 141.929 146.873 142.473 147.54C144.495 150.02 145.345 153.976 144.531 157.121C144.34 157.858 144.184 158.483 144.184 158.509C144.184 158.933 148.901 156.977 150.554 155.867C157.432 151.251 157.312 141.202 150.342 137.989C149.192 137.46 146.969 137.077 146.866 137.391Z" fill="#2430F0"/>
<path d="M132.042 128.021C132.03 130.383 130.661 134.254 129.121 136.278C128.415 137.207 128.415 137.207 129.451 138.301C130.54 139.452 131.544 141.199 131.885 142.538C132.088 143.335 132.088 143.335 132.89 143.212C135.101 142.871 136.998 143.194 138.68 144.199C139.763 144.845 139.69 144.868 140.773 143.535C144.559 138.873 143.43 131.443 138.58 129.097C136.498 128.089 132.046 127.357 132.042 128.021Z" fill="#2430F0"/>
<path d="M120.026 123.628C119.885 127.076 119.264 129.267 117.776 131.559C117.232 132.397 117.232 132.397 118.057 133.086C118.51 133.464 119.24 134.271 119.68 134.879C120.563 136.103 120.308 136.034 122.392 135.61C123.027 135.48 123.538 135.501 124.464 135.691C125.894 135.986 125.66 136.172 126.841 133.806C130.175 127.128 127.995 121.485 121.986 121.24L120.127 121.165L120.026 123.628Z" fill="#2430F0"/>
<path d="M106.046 116.417C100.558 117.385 98.7852 122.462 101.705 128.853C102.575 130.755 102.575 130.755 103.909 130.769C105.108 130.781 105.38 130.852 106.588 131.462C107.934 132.141 107.934 132.141 109.279 131.462C110.486 130.852 110.759 130.781 111.958 130.769C113.292 130.755 113.292 130.755 114.161 128.853C117.743 121.005 113.851 115.041 106.046 116.417Z" fill="#2430F0"/>
<path d="M101.209 136.202C96.4876 138.374 96.0592 143.67 100.115 149.725C101.362 151.586 101.362 151.586 101.848 150.829C104.432 146.802 111.436 146.802 114.02 150.829C114.723 151.924 117.552 147.749 118.271 144.555C119.554 138.855 113.928 133.057 110.747 136.802C110.071 137.599 109.24 139.062 108.911 140.034C108.275 141.916 107.592 141.916 106.956 140.034C106.448 138.529 105.376 136.906 104.398 136.159C103.702 135.629 102.417 135.646 101.209 136.202Z" fill="#2430F0"/>
<path d="M91.3864 139.569C85.9309 140.345 84.8186 149.196 89.4295 155.142C89.8282 155.656 90.2073 156.152 90.2717 156.245C90.3412 156.345 90.6591 156.23 91.0523 155.961C93.2744 154.446 95.9633 154.117 100.025 154.863C100.16 154.888 100.895 153.077 100.778 153.009C96.3611 150.487 93.8407 146.01 94.0946 141.137C94.1684 139.725 94.1684 139.725 93.5491 139.622C93.2086 139.565 92.8126 139.498 92.6696 139.471C92.5266 139.445 91.949 139.489 91.3864 139.569Z" fill="#2430F0"/>
<path d="M79.6604 128.161C72.9397 129.9 70.5513 137.94 75.0936 143.535C76.1761 144.868 76.1033 144.845 77.1862 144.199C78.8687 143.194 80.7653 142.871 82.977 143.211C83.7785 143.335 83.7785 143.335 83.9815 142.538C84.3227 141.199 85.3263 139.452 86.4156 138.301C87.451 137.207 87.451 137.207 86.7454 136.278C85.2059 134.254 83.8367 130.383 83.8238 128.021C83.8229 127.797 80.6554 127.904 79.6604 128.161Z" fill="#2430F0"/>
<path d="M91.9671 121.44C87.4701 122.638 86.1728 128.092 89.0252 133.806C90.2061 136.172 89.9722 135.986 91.4017 135.692C92.3278 135.501 92.8393 135.481 93.4741 135.61C95.5585 136.034 95.303 136.103 96.1866 134.879C96.6257 134.271 97.3562 133.464 97.8097 133.086C98.6344 132.398 98.6344 132.398 98.0902 131.559C96.6058 129.272 95.9811 127.075 95.8405 123.649C95.7349 121.07 94.9769 120.638 91.9671 121.44Z" fill="#2430F0"/>
<path d="M67.6928 137.359C59.1159 138.473 57.5491 150.657 65.3123 155.867C66.9651 156.976 71.682 158.932 71.682 158.508C71.682 158.482 71.5261 157.858 71.3353 157.12C70.5216 153.977 71.3711 150.02 73.3918 147.542C73.9335 146.878 73.9335 146.878 72.5731 145.457C70.5577 143.353 69.4662 141.09 69.1655 138.392C69.0237 137.119 69.1043 137.175 67.6928 137.359Z" fill="#2430F0"/>
<path d="M178.094 189.028C159.114 191.025 144.682 208.975 141.501 234.54C140.995 238.61 140.638 250.814 141.019 251.032C142.056 251.622 142.797 251.306 142.797 250.276C142.797 235.279 148.567 228.405 170.549 217.211C176.511 214.175 176.579 214.134 180.308 211.169C194.386 199.982 193.132 187.446 178.094 189.028Z" fill="#2BE1B7"/>
<path d="M189.177 212.428C188.119 213.285 188.119 213.285 188.199 217.213C188.723 242.949 162.905 257.435 150.25 238.506C149.15 236.86 149.23 236.836 148.074 239.147C145.736 243.82 144.765 251.546 146.311 253.18C148.922 255.938 148.694 259.478 145.592 264.349C144.902 265.434 143.707 267.554 142.937 269.063C139.963 274.888 134.874 284.143 133.39 286.425C132.478 287.827 132.224 287.761 137.554 287.514C148.67 287.001 153.294 285.986 162.31 282.081C194.911 267.966 208.168 237.978 192.351 214.129C190.396 211.18 190.589 211.285 189.177 212.428Z" fill="#2BE1B7"/>
<path d="M25.0729 211.934C17.0889 220.536 14.7361 238.303 19.9027 250.977C27.1545 268.768 50.882 285.307 71.7689 287.133C81.2338 287.959 83.3825 287.819 82.4772 286.425C80.9925 284.143 75.9036 274.888 72.9302 269.063C72.16 267.554 70.965 265.434 70.2744 264.348C67.1724 259.478 66.9448 255.938 69.5559 253.18C71.1019 251.546 70.1308 243.82 67.7928 239.147C66.6367 236.836 66.7164 236.86 65.6163 238.506C52.9621 257.436 27.1441 242.949 27.6674 217.212C27.7473 213.285 27.7473 213.285 26.652 212.416C25.3735 211.405 25.5232 211.449 25.0729 211.934Z" fill="#2BE1B7"/>
<path d="M32.5074 189.085C22.2724 190.691 23.8118 201.834 35.5586 211.17C39.2875 214.134 39.3551 214.175 45.3172 217.211C67.2958 228.403 73.0693 235.281 73.0693 250.276C73.0693 251.306 73.8098 251.622 74.8474 251.032C75.0342 250.926 75.0045 243.753 74.8014 239.92C73.8474 221.92 66.551 205.094 56.0914 196.777C49.1729 191.274 39.2276 188.03 32.5074 189.085Z" fill="#2BE1B7"/>
<path d="M80.3206 146.646C73.6346 148.425 73.1663 157.557 79.4613 163.403C84.0109 167.629 79.5673 166.638 74.6118 162.322C73.2683 161.152 73.2683 161.152 72.2442 161.258C68.062 161.69 61.6198 158.035 58.1846 153.281C57.392 152.184 57.392 152.184 56.8879 152.767C49.7458 161.018 45.681 168.407 41.052 181.549C39.9064 184.802 39.8949 184.549 41.1981 184.794C63.4395 188.966 78.1153 212.387 78.5725 244.439C78.6721 251.438 78.4954 251.018 80.9588 250.108C82.4628 249.551 82.7679 249.128 83.9969 245.892C89.6205 231.085 94.3548 225.213 102.287 223.209C103.929 222.794 103.88 222.825 104.021 222.086C104.338 220.417 106.121 216.045 106.763 215.363C108.313 213.719 110.91 217.154 111.847 222.086C111.987 222.825 111.939 222.794 113.58 223.209C121.512 225.213 126.246 231.085 131.87 245.892C133.099 249.128 133.404 249.551 134.908 250.108C137.372 251.018 137.195 251.438 137.295 244.439C137.752 212.385 152.426 188.966 174.669 184.794C175.972 184.549 175.961 184.802 174.815 181.549C170.186 168.407 166.121 161.018 158.979 152.767C158.475 152.184 158.475 152.184 157.682 153.281C154.248 158.035 147.805 161.69 143.623 161.258C142.599 161.152 142.599 161.152 141.255 162.322C136.3 166.638 131.856 167.629 136.406 163.403C140.948 159.185 142.095 154.83 139.829 150.401C138.033 146.891 132.495 144.788 132.143 147.482C131.581 151.791 129.857 155.107 127.26 156.872C126.504 157.387 126.504 157.387 127.149 158.539C128.632 161.191 127.899 164.639 125.3 167.235C123.101 169.432 121.334 169.576 123.352 167.394C125.999 164.531 125.815 161.042 122.973 160.208C121.273 159.709 115.912 159.92 115.912 160.486C115.912 161.774 114.189 165.734 113.167 166.797C111.898 168.115 111.632 167.543 112.506 165.376C115.183 158.736 112.951 152.407 107.934 152.407C102.916 152.407 100.685 158.736 103.361 165.376C104.235 167.543 103.969 168.115 102.701 166.797C101.678 165.734 99.9549 161.774 99.9549 160.486C99.9549 159.92 94.5946 159.709 92.8943 160.208C90.0517 161.042 89.8677 164.531 92.5149 167.394C94.5331 169.576 92.7663 169.432 90.5671 167.235C87.9677 164.639 87.2351 161.191 88.7183 158.539C89.363 157.387 89.363 157.387 88.6065 156.872C86.0129 155.109 84.2863 151.79 83.7252 147.492C83.633 146.786 83.535 146.588 83.2398 146.509C82.6304 146.348 81.1892 146.415 80.3206 146.646Z" fill="#2430F0"/>
<path fill-rule="evenodd" clip-rule="evenodd" d="M105.88 227.159C99.2429 228.333 93.031 235.442 88.2136 247.377C85.7983 253.362 84.5423 254.228 76.5385 255.431C71.2713 256.223 70.924 257.491 74.5439 262.711C77.1611 266.486 80.3577 271.701 83.7341 277.701C89.7679 288.428 91.9946 291.985 95.0632 295.806C105.646 308.987 114.692 306.825 125.913 288.434C128.123 284.814 128.399 284.337 132.132 277.701C135.508 271.701 138.705 266.486 141.322 262.711C144.942 257.491 144.595 256.223 139.328 255.431C131.324 254.228 130.068 253.362 127.653 247.377C121.845 232.989 114.016 225.719 105.88 227.159ZM86.7957 259.512C86.0411 257.971 86.6257 256.369 88.2467 255.534C90.4903 254.378 93.2141 256.326 94.6596 260.121C95.6068 262.609 94.4452 262.965 91.398 261.124C90.5457 260.608 90.335 260.545 90.056 260.716C89.0421 261.342 87.3941 260.733 86.7957 259.512ZM120.983 261.748C120.4 260.538 122.778 256.545 124.637 255.611C127.369 254.238 130.363 256.874 129.07 259.512C128.472 260.733 126.824 261.342 125.81 260.716C125.531 260.545 125.32 260.608 124.468 261.124C122.233 262.475 121.405 262.622 120.983 261.748Z" fill="#F2C79C"/>
<path fill-rule="evenodd" clip-rule="evenodd" d="M72.2305 84.7029C69.9226 76.1082 62.7334 69.3383 52.9653 71.1435C45.2147 72.5762 38.3275 78.462 36.5234 85.1345C37.0564 86.9933 37.9379 88.7881 39.2022 90.4403C48.1467 102.129 64.2527 100.95 70.8885 88.1205C71.4695 86.9976 71.9133 85.8536 72.2305 84.7029Z" fill="#2430F0"/>
<path fill-rule="evenodd" clip-rule="evenodd" d="M81.0599 52.3463C80.7276 51.3606 80.4645 50.3691 80.2676 49.376C82.2879 39.0435 92.2741 30.0775 104.083 27.9451C119.888 25.0915 132.906 35.7929 135.606 49.3579C135.408 50.3525 135.142 51.3499 134.806 52.3463C126.851 75.9447 89.015 75.9447 81.0599 52.3463Z" fill="#2430F0"/>
<path d="M158.174 61.9946C146.958 63.9973 141.146 74.9375 143.65 84.6862C145.307 78.1527 151.781 72.5304 159.491 71.1535C169.598 69.3489 176.965 76.551 179.34 85.1984C182.798 73.4066 171.774 59.5661 158.174 61.9946Z" fill="#2430F0"/>
<path d="M80.2682 49.376C82.2886 39.0435 92.2748 30.0775 104.084 27.9451C119.889 25.0915 132.907 35.7929 135.607 49.3579C139.093 31.9169 122.02 15.3098 102.767 18.7862C87.5426 21.5351 77.5374 35.6055 80.2682 49.376Z" fill="#2430F0"/>
<path d="M52.9653 71.1437C62.7331 69.3385 69.9227 76.1084 72.2306 84.7031C75.5834 72.5317 64.7507 59.5634 51.6481 61.9848C40.4049 64.0628 33.751 75.4655 36.5234 85.1347C38.3275 78.4622 45.2144 72.5764 52.9653 71.1437Z" fill="#2430F0"/>
<path d="M149.057 93.6827C157.121 101.202 169.546 99.7424 176.664 90.4403C177.93 88.7863 178.807 87.0166 179.34 85.1985C176.965 76.5509 169.598 69.3487 159.491 71.1533C151.781 72.5303 145.307 78.1525 143.65 84.6861C144.487 87.9438 146.254 91.069 149.057 93.6827Z" fill="#2430F0"/>
<path fill-rule="evenodd" clip-rule="evenodd" d="M84.4601 40.0666C88.8722 34.0105 96.0633 29.396 104.099 27.9451C116.123 25.774 126.534 31.4489 132.016 40.2615C133.061 39.2222 134.017 38.1658 134.806 37.1311C130.728 25.0632 117.382 16.1499 102.781 18.7862C92.6942 20.6075 84.8983 27.3989 81.5801 35.78C82.2979 37.1477 83.3116 38.6151 84.4601 40.0666Z" fill="#F2C79C"/>
<path d="M84.46 40.0666C88.3772 45.0174 93.8612 49.7847 94.5221 49.7847C95.0222 49.7847 97.7873 47.1303 100.659 44.3737C103.761 41.396 106.987 38.299 107.618 38.299C108.225 38.299 110.827 41.1704 113.428 44.0418C116.03 46.9133 118.632 49.7847 119.239 49.7847C120.013 49.7847 127.033 45.2164 132.016 40.2615C126.534 31.4489 116.123 25.7741 104.099 27.9451C96.0632 29.3961 88.8721 34.0106 84.46 40.0666Z" fill="#2BE1B7"/>
<path d="M36.6156 84.6511C38.6137 78.1796 45.3544 72.5415 52.9175 71.1437C58.7008 70.075 63.5799 72.0119 67.0773 75.5537C67.7272 73.1794 68.1976 70.3438 68.1424 67.9634C64.2169 63.4469 58.1964 60.7659 51.6004 61.9848C40.6225 64.0135 34.0199 74.9323 36.2949 84.4469C36.4003 84.5158 36.5073 84.5837 36.6156 84.6511Z" fill="#2BE1B7"/>
<path d="M36.6152 84.6508C40.8687 87.3058 46.6673 88.4651 48.1952 87.5844C49.3779 86.9027 49.9255 83.4637 50.0541 79.9219C50.1521 77.2301 50.2397 74.8203 50.764 74.3761C51.3434 73.8851 54.1539 75.4825 57.1321 77.1753C60.3962 79.0301 64.0831 80.648 65.0355 80.1101C65.7163 79.7256 66.387 78.0753 67.077 75.5535C63.5796 72.0117 58.7001 70.0748 52.9169 71.1435C45.3541 72.5412 38.6134 78.1794 36.6152 84.6508Z" fill="#2BE1B7"/>
<path fill-rule="evenodd" clip-rule="evenodd" d="M144.941 72.4132C145.201 74.299 150.665 84.4132 152.139 84.7561C152.938 84.9419 155.669 83.0161 158.171 81.2522C160.289 79.7586 162.243 78.3811 162.72 78.499C163.155 78.6064 163.984 79.8976 164.954 81.4077C166.304 83.5096 167.926 86.0354 169.137 86.3847C170.706 86.8368 176.954 83.5892 180.012 81.4111C180.484 70.6616 170.382 59.8227 158.221 61.9947C151.87 63.1285 147.252 67.128 144.895 72.154C144.913 72.2332 144.928 72.3193 144.941 72.4132Z" fill="#2BE1B7"/>
<path d="M182.604 216.642C182.127 216.887 180.644 217.574 179.309 218.169C174.154 220.46 173.259 221.013 173.948 221.48C177.579 223.938 178.522 231.673 175.952 237.916C175.312 239.468 175.409 239.457 177.009 237.803C182.162 232.472 185.49 222.078 183.809 216.563C183.665 216.092 183.672 216.092 182.604 216.642Z" fill="#F1F1F1"/>
<path d="M32.0577 216.563C30.3766 222.078 33.7045 232.471 38.8579 237.803C40.4579 239.457 40.554 239.467 39.9147 237.916C37.3454 231.676 38.2874 223.938 41.9158 221.481C42.5867 221.027 41.3614 220.264 36.6446 218.203C35.5476 217.723 34.1251 217.072 33.4835 216.755C32.0986 216.069 32.2039 216.085 32.0577 216.563Z" fill="#F1F1F1"/>
<path d="M171.31 232.271C171.31 231.702 170.805 231.242 170.182 231.242C169.559 231.242 169.055 231.702 169.055 232.271C169.055 232.838 169.559 233.299 170.182 233.299C170.805 233.299 171.31 232.838 171.31 232.271Z" fill="#F1F1F1"/>
<path opacity="0.2" fill-rule="evenodd" clip-rule="evenodd" d="M134.061 54.292C124.411 64.9147 105.231 70.7605 83.3141 57.2326C94.1514 75.2455 125.451 74.2653 134.061 54.292ZM68.1229 92.2304C57.9652 96.4297 44.1738 92.1306 37.4365 87.5522C37.9097 88.5505 38.4965 89.5175 39.2026 90.4405C47.0749 100.728 60.4945 101.048 68.1229 92.2304ZM178.235 87.9645C172.395 93.3924 160.569 97.2511 146.757 91.1314C147.427 92.0231 148.193 92.8772 149.057 93.6829C157.122 101.202 169.546 99.7426 176.665 90.4405C177.277 89.6396 177.799 88.8119 178.235 87.9645Z" fill="#22110C"/>
<path d="M80.2682 49.376C82.2886 39.0435 92.2748 30.0774 104.084 27.9452C119.889 25.0915 132.907 35.7928 135.607 49.3579C139.093 31.917 122.02 15.3098 102.767 18.7862C87.5426 21.5351 77.5374 35.6057 80.2682 49.376Z" fill="#2430F0"/>
<path fill-rule="evenodd" clip-rule="evenodd" d="M84.4601 40.0666C88.8722 34.0105 96.0633 29.396 104.099 27.9452C116.123 25.7741 126.534 31.4488 132.016 40.2615C133.061 39.2221 134.017 38.1659 134.806 37.1312C130.728 25.0632 117.382 16.1499 102.781 18.7862C92.6942 20.6075 84.8983 27.3988 81.5801 35.78C82.2979 37.1477 83.3116 38.6151 84.4601 40.0666Z" fill="#2BE1B7"/>
<g opacity="0.2">
<g style="mix-blend-mode:hard-light">
<path fill-rule="evenodd" clip-rule="evenodd" d="M114.888 120.135C113.62 117.207 110.459 115.639 106.047 116.417C103.441 116.877 101.673 118.262 100.847 120.275C102.585 118.856 105.662 118.392 107.957 118.344C110.175 118.391 113.123 118.825 114.888 120.135ZM95.5718 121.988C93.4229 122.314 89.498 123.347 87.7925 125.725C88.3612 123.6 89.7889 122.021 91.9676 121.44C94.1484 120.859 95.1471 120.926 95.5718 121.988ZM83.8504 128.585C83.8345 128.389 83.8256 128.201 83.8244 128.021C83.8232 127.797 80.6559 127.905 79.6609 128.162C76.2551 129.043 73.9616 131.542 73.1194 134.522C75.3973 131.339 79.6386 128.684 83.8504 128.585ZM60.2998 145.928C61.3064 142.544 65.0574 139.013 68.1067 139.013C68.5379 139.013 68.9137 138.99 69.2402 138.948C69.2114 138.765 69.1869 138.579 69.1657 138.392C69.159 138.329 69.1526 138.27 69.1461 138.213C69.0922 137.713 69.0641 137.456 68.9198 137.34C68.7661 137.217 68.4807 137.255 67.8914 137.333C67.8287 137.341 67.7625 137.35 67.693 137.359C63.0907 137.957 60.5065 141.742 60.2998 145.928ZM106.031 138.091C104.262 136.734 101.644 136.197 97.9692 139.236C98.5896 137.948 99.6716 136.909 101.208 136.202C102.417 135.646 103.702 135.629 104.398 136.16C104.952 136.582 105.536 137.287 106.031 138.091ZM117.406 138.81C115.819 135.917 112.782 134.406 110.747 136.803C110.45 137.152 110.124 137.63 109.823 138.138C111.506 136.815 113.971 136.221 117.406 138.81ZM94.1236 140.526C94.1502 139.722 94.062 139.707 93.5494 139.622C93.2088 139.566 92.8128 139.498 92.6698 139.472C92.5268 139.445 91.9492 139.489 91.3866 139.569C88.7069 139.951 87.0752 142.28 86.6548 145.256C87.7156 141.851 91.7146 140.261 94.1236 140.526ZM132.243 147.091C133.076 145.016 138.129 147.079 139.829 150.401C140.301 151.324 140.625 152.244 140.801 153.161C139.499 149.543 135.398 147.885 132.243 147.091ZM115.908 160.606C115.911 160.564 115.912 160.524 115.912 160.487C115.912 159.921 121.273 159.709 122.973 160.208C123.779 160.444 124.371 160.894 124.745 161.482C123.118 160.063 119.579 160.327 115.908 160.606ZM103.588 154.742C104.574 153.29 106.06 152.407 107.934 152.407C109.772 152.407 111.237 153.257 112.223 154.66C110.995 153.713 109.312 153.226 107.957 153.101C106.564 153.23 104.824 153.741 103.588 154.742ZM91.062 161.581C91.4323 160.944 92.0442 160.457 92.894 160.208C94.5946 159.709 99.9549 159.921 99.9549 160.487C99.9549 160.523 99.9561 160.562 99.9589 160.602C96.2223 160.318 92.63 160.057 91.062 161.581ZM83.6609 147.093C80.4345 147.907 76.2254 149.624 75.028 153.413C75.2212 150.215 77.0076 147.528 80.3206 146.647C81.1891 146.415 82.6303 146.348 83.2398 146.509C83.4698 146.57 83.58 146.704 83.6609 147.093ZM128.12 125.723C127.387 123.101 125.253 121.373 121.987 121.241L120.128 121.165L120.095 121.952C122.176 122.234 126.347 123.252 128.12 125.723ZM142.695 134.384C142.09 132.092 140.686 130.116 138.58 129.097C136.498 128.09 132.046 127.357 132.043 128.021C132.042 128.201 132.033 128.388 132.017 128.584C136.183 128.664 140.386 131.251 142.695 134.384ZM155.628 145.974C154.642 142.576 150.871 139.013 147.808 139.013C147.345 139.013 146.946 138.986 146.603 138.938C146.61 138.899 146.616 138.859 146.622 138.82C146.723 138.137 146.833 137.494 146.867 137.391C146.969 137.077 149.193 137.46 150.343 137.989C153.685 139.53 155.452 142.642 155.628 145.974ZM129.159 144.961C128.93 143.192 128.296 141.675 127.239 140.755C126.31 139.948 124.009 139.234 123.11 139.475C123.015 139.5 122.658 139.567 122.318 139.623C121.804 139.708 121.717 139.722 121.744 140.531C124.077 140.249 127.957 141.738 129.159 144.961Z" fill="white"/>
</g>
</g>
<g style="mix-blend-mode:hard-light">
<path fill-rule="evenodd" clip-rule="evenodd" d="M187.277 190.561C180.443 190.053 172.472 192.292 166.713 195.843C158.647 200.814 146.246 214.014 143.644 226.785C142.924 230.317 142.384 231.472 141.984 231.218C145.958 207.429 159.947 190.938 178.094 189.028C182.186 188.598 185.258 189.213 187.277 190.561Z" fill="white" fill-opacity="0.4"/>
</g>
<g style="mix-blend-mode:hard-light">
<path fill-rule="evenodd" clip-rule="evenodd" d="M28.2344 190.723C35.246 189.957 43.6375 192.232 49.6332 195.928C57.6986 200.899 70.1002 214.099 72.7021 226.871C73.1103 228.873 73.4604 230.111 73.7599 230.762C71.2398 216.378 64.7491 203.663 56.0911 196.777C49.1726 191.274 39.2274 188.03 32.5072 189.085C30.731 189.364 29.3096 189.93 28.2344 190.723Z" fill="white" fill-opacity="0.4"/>
</g>
<g style="mix-blend-mode:hard-light">
<path fill-rule="evenodd" clip-rule="evenodd" d="M90.8311 241.629C96.5028 235.465 103.77 234.414 107.654 234.414C111.689 234.414 119.687 235.701 125.461 242.475C119.948 231.359 113.033 225.892 105.881 227.159C100.39 228.131 95.1905 233.163 90.8311 241.629Z" fill="white" fill-opacity="0.4"/>
</g>
<path opacity="0.2" fill-rule="evenodd" clip-rule="evenodd" d="M184.25 219.884C181.656 220.989 178.752 222.112 175.615 223.237C175.147 222.512 174.59 221.913 173.949 221.48C173.259 221.013 174.155 220.46 179.309 218.169C180.645 217.574 182.128 216.887 182.605 216.642L182.623 216.632C183.285 216.291 183.526 216.165 183.651 216.239C183.722 216.28 183.755 216.386 183.807 216.556L183.809 216.563C184.106 217.537 184.246 218.661 184.25 219.884ZM31.6221 219.603C34.2429 220.775 37.1661 221.963 40.3097 223.149C40.7659 222.464 41.3028 221.896 41.9165 221.482C42.5878 221.027 41.3622 220.264 36.6456 218.204C35.5485 217.724 34.126 217.072 33.4844 216.755C33.3951 216.711 33.3122 216.669 33.2348 216.632C32.5367 216.285 32.3048 216.169 32.1965 216.241C32.1426 216.275 32.1194 216.355 32.0843 216.477C32.0765 216.503 32.0682 216.532 32.0587 216.563C31.7849 217.461 31.6439 218.49 31.6221 219.603Z" fill="#22110C"/>
<path opacity="0.2" fill-rule="evenodd" clip-rule="evenodd" d="M69.1265 262.354C68.5731 268.235 70.6134 274.813 71.5554 277.849C71.7156 278.365 71.8442 278.78 71.9226 279.071C72.5945 281.562 65.2907 285.501 38.5 273.433C48.3919 280.875 60.4943 286.148 71.7689 287.134C81.2338 287.96 83.3825 287.819 82.4772 286.425C80.9925 284.144 75.9035 274.888 72.9302 269.063C72.1602 267.555 70.9649 265.434 70.2747 264.349C69.834 263.658 69.4515 262.993 69.1265 262.354Z" fill="#22110C"/>
<path opacity="0.2" fill-rule="evenodd" clip-rule="evenodd" d="M177.531 273.38C150.644 285.512 143.318 281.565 143.991 279.071C144.07 278.78 144.198 278.366 144.358 277.849C145.304 274.799 147.359 268.175 146.78 262.274C146.446 262.938 146.051 263.629 145.592 264.349C144.902 265.434 143.707 267.554 142.937 269.063C139.963 274.888 134.874 284.143 133.39 286.425C133.059 286.934 132.815 287.248 132.892 287.432C133.028 287.755 134.156 287.672 137.554 287.514C148.67 287.001 153.294 285.986 162.311 282.081C167.988 279.623 173.078 276.685 177.531 273.38Z" fill="#22110C"/>
<path opacity="0.2" fill-rule="evenodd" clip-rule="evenodd" d="M82.2178 275.037C88.0791 284.406 90.4544 287.778 93.6587 291.383C105.381 304.574 115.4 302.411 127.829 284.005C130.157 280.559 130.546 279.959 134.138 274.194C133.479 275.327 132.809 276.5 132.133 277.701C128.399 284.337 128.123 284.814 125.914 288.434C114.692 306.825 105.647 308.987 95.0634 295.806C91.9951 291.985 89.7684 288.428 83.7343 277.701C83.2241 276.794 82.7182 275.906 82.2178 275.037Z" fill="#22110C"/>
<path d="M107.827 210.671C105.659 210.671 102.884 225.928 101.67 225.928L99.1543 228.242L107.827 225.928L117.8 228.842C116.731 227.87 114.435 225.928 113.811 225.928C113.03 225.928 109.995 210.671 107.827 210.671Z" fill="black" fill-opacity="0.2"/>
<path d="M93.4301 169.699C92.2158 169.699 88.1396 166.87 88.1396 162.67C88.7178 161.613 89.8743 159.962 89.8743 161.813C89.8743 164.128 92.4761 167.128 93.1698 167.813C93.8638 168.499 94.6441 169.699 93.4301 169.699Z" fill="black" fill-opacity="0.2"/>
<path d="M70.1881 162.671C65.2446 162.671 58.8271 156.242 55.5312 151.871L57.5262 150.156L62.0357 156.585L72.2693 159.585L74.2643 156.328C74.7555 157.071 75.9119 158.865 76.6058 160.099C77.4731 161.642 79.7278 162.842 81.549 165.413C83.3703 167.985 76.4322 164.813 75.5649 164.385C74.8712 164.042 73.3679 162.985 72.703 162.499C72.703 162.556 72.2001 162.671 70.1881 162.671Z" fill="black" fill-opacity="0.2"/>
<path d="M85.7111 154.87C83.7165 152.384 84.4102 149.47 84.0635 146.984L89.7006 157.099L89.267 157.87L89.2553 157.864C88.6983 157.574 87.2959 156.845 85.7111 154.87Z" fill="black" fill-opacity="0.2"/>
<path d="M103.49 168.156C101.669 167.727 100.021 163.527 100.021 160.356L101.756 159.584L102.883 164.042C103.23 165.413 105.312 168.584 103.49 168.156Z" fill="black" fill-opacity="0.2"/>
<path d="M122.31 169.699C123.524 169.699 127.6 166.87 127.6 162.67C127.022 161.613 125.866 159.962 125.866 161.813C125.866 164.128 123.264 167.128 122.57 167.813C121.876 168.499 121.096 169.699 122.31 169.699Z" fill="black" fill-opacity="0.2"/>
<path d="M145.552 162.671C150.496 162.671 156.913 156.242 160.209 151.871L158.214 150.156L153.704 156.585L143.471 159.585L141.476 156.328C140.985 157.071 139.828 158.865 139.135 160.099C138.267 161.642 136.012 162.842 134.191 165.413C132.37 167.985 139.308 164.813 140.175 164.385C140.869 164.042 142.372 162.985 143.037 162.499C143.037 162.556 143.54 162.671 145.552 162.671Z" fill="black" fill-opacity="0.2"/>
<path d="M130.028 154.87C132.023 152.384 131.329 149.47 131.676 146.984L126.039 157.099L126.473 157.87L126.484 157.864C127.041 157.574 128.443 156.845 130.028 154.87Z" fill="black" fill-opacity="0.2"/>
<path d="M112.163 168.242C113.984 167.813 115.719 163.527 115.719 160.356L113.984 159.584L112.857 164.042C112.51 165.413 110.342 168.67 112.163 168.242Z" fill="black" fill-opacity="0.2"/>
<path opacity="0.2" d="M87.3064 260.042C86.6994 260.042 88.6071 259.099 88.0001 257.471C89.4456 256.871 91.7121 257.488 93.3772 258.928C95.4588 260.728 95.4588 265.185 95.3718 267.071C95.2852 268.957 87.9134 260.042 87.3064 260.042Z" fill="#22110C"/>
<path opacity="0.2" d="M128.441 260.099C129.048 260.099 127.14 259.156 127.747 257.527C126.302 256.927 124.035 257.545 122.37 258.985C120.289 260.785 120.289 265.242 120.376 267.127C120.462 269.013 127.834 260.099 128.441 260.099Z" fill="#22110C"/>
<path opacity="0.2" fill-rule="evenodd" clip-rule="evenodd" d="M49.7156 216.544C60.272 222.786 70.5345 228.854 70.5345 236.385C70.5345 236.627 70.5305 236.867 70.5225 237.102C67.0907 230 59.6482 224.528 45.2808 217.211C39.3189 214.175 39.2512 214.134 35.5224 211.17C26.3764 203.901 23.4183 195.537 27.3877 191.432C24.7171 201.764 37.4158 209.272 49.7156 216.544Z" fill="#22110C"/>
<path opacity="0.2" fill-rule="evenodd" clip-rule="evenodd" d="M27.5534 191.135L27.4715 191.452C26.1478 196.572 28.6275 201.004 32.9969 205.074C37.367 209.143 43.6076 212.832 49.7598 216.47L49.7644 216.474C55.0393 219.592 60.2489 222.672 64.1392 225.916C68.0285 229.158 70.621 232.579 70.621 236.385C70.621 236.629 70.617 236.869 70.609 237.103L70.4439 237.138C67.0259 230.065 59.6088 224.603 45.2411 217.286C42.2616 215.769 40.7499 214.998 39.518 214.235C38.2846 213.472 37.3315 212.718 35.4679 211.237C30.8867 207.595 27.8494 203.677 26.4557 200.145C25.0624 196.615 25.3077 193.458 27.3247 191.371L27.5534 191.135ZM26.6173 200.083C27.9969 203.579 31.0116 207.475 35.5765 211.103C37.4418 212.586 38.3869 213.333 39.6101 214.091C40.8345 214.849 42.3378 215.617 45.3204 217.135C59.4735 224.342 66.9316 229.771 70.4442 236.747C70.4464 236.627 70.4476 236.507 70.4476 236.385C70.4476 232.66 67.9085 229.281 64.0274 226.046C60.1487 222.813 54.9508 219.739 49.6707 216.618L49.6649 216.614C43.5194 212.98 37.2632 209.282 32.8779 205.197C28.5833 201.198 26.0641 196.811 27.2234 191.738C25.4794 193.758 25.2927 196.727 26.6173 200.083Z" fill="#22110C"/>
<path opacity="0.2" fill-rule="evenodd" clip-rule="evenodd" d="M166.285 216.544C155.728 222.786 145.466 228.854 145.466 236.385C145.466 236.491 145.467 236.598 145.468 236.702C148.983 229.794 156.413 224.39 170.513 217.211C176.475 214.175 176.543 214.134 180.272 211.169C189.415 203.903 192.091 196.068 188.725 191.901C190.896 201.993 178.397 209.383 166.285 216.544Z" fill="#22110C"/>
<path opacity="0.2" fill-rule="evenodd" clip-rule="evenodd" d="M189.269 200.406C187.871 203.81 184.905 207.597 180.326 211.237C178.462 212.718 177.509 213.472 176.276 214.237C175.044 214.998 173.532 215.769 170.553 217.288C156.452 224.468 149.047 229.861 145.546 236.742L145.381 236.704C145.38 236.598 145.379 236.492 145.379 236.385C145.379 232.58 147.971 229.158 151.86 225.916C155.751 222.673 160.961 219.592 166.235 216.474L166.24 216.47C172.298 212.889 178.442 209.255 182.802 205.259C187.162 201.263 189.715 196.921 188.639 191.92L188.792 191.848C190.502 193.963 190.667 197.001 189.269 200.406ZM188.882 192.253C190.327 194.288 190.428 197.13 189.11 200.341C187.725 203.711 184.782 207.475 180.217 211.103C178.352 212.586 177.407 213.333 176.184 214.091C174.959 214.849 173.456 215.617 170.473 217.135C156.586 224.207 149.145 229.564 145.552 236.353C145.567 232.64 148.103 229.273 151.972 226.046C155.851 222.813 161.049 219.74 166.329 216.618L166.335 216.614C172.387 213.037 178.546 209.395 182.92 205.384C187.189 201.47 189.777 197.186 188.882 192.253Z" fill="#22110C"/>
<g style="mix-blend-mode:multiply">
<path fill-rule="evenodd" clip-rule="evenodd" d="M23.5155 213.774C23.411 222.268 23.7376 258.928 67.3263 258.928C67.5046 258.928 67.6819 258.928 67.8577 258.926C67.4378 256.671 67.9939 254.792 69.52 253.18C71.0659 251.546 70.0948 243.82 67.7569 239.147C67.138 237.909 66.8734 237.342 66.5919 237.333C66.3482 237.326 66.0915 237.741 65.5804 238.506C52.9261 257.437 27.1082 242.949 27.6315 217.213C27.7114 213.285 27.7114 213.285 26.6161 212.416C25.8181 211.785 25.5765 211.566 25.3981 211.607C25.2907 211.633 25.2062 211.753 25.037 211.934C24.5046 212.509 23.9973 213.122 23.5155 213.774Z" fill="black" fill-opacity="0.2"/>
</g>
<path opacity="0.2" fill-rule="evenodd" clip-rule="evenodd" d="M192.561 214.502C192.627 223.928 191.439 259.1 148.744 259.1C148.461 259.1 148.181 259.098 147.904 259.096C148.385 256.765 147.839 254.833 146.275 253.18C144.729 251.546 145.7 243.818 148.038 239.147C148.657 237.909 148.922 237.342 149.203 237.333C149.447 237.326 149.704 237.741 150.215 238.506C162.869 257.435 188.686 242.949 188.164 217.213C188.107 214.42 188.09 213.613 188.466 213.073C188.619 212.851 188.836 212.677 189.142 212.428C189.715 211.963 190.024 211.672 190.318 211.684C190.751 211.703 191.153 212.377 192.315 214.129C192.398 214.254 192.48 214.379 192.561 214.502Z" fill="#22110C"/>
<path opacity="0.2" fill-rule="evenodd" clip-rule="evenodd" d="M100.349 122.027C100.088 123.978 100.507 126.311 101.668 128.853C102.538 130.756 102.538 130.756 103.872 130.77C105.071 130.782 105.343 130.852 106.551 131.462C107.896 132.141 107.896 132.141 109.241 131.462C110.449 130.852 110.722 130.782 111.921 130.77C113.255 130.756 113.255 130.756 114.124 128.853C115.284 126.31 115.661 123.964 115.373 122.002C114.797 125.176 113.47 129.325 110.494 129.671C109.205 129.939 108.309 129.956 107.999 129.93L107.979 129.928H107.739H107.718C107.409 129.954 106.512 129.939 105.224 129.671C102.256 129.326 100.928 125.198 100.349 122.027ZM117.739 131.56C119.227 129.267 119.848 127.077 119.989 123.629L120.064 121.818C120.634 124.923 120.482 129.272 117.873 132.963C117.197 132.395 117.229 132.345 117.739 131.56ZM128.337 128.639C128.217 130.224 127.718 131.977 126.804 133.807C126.706 134.003 126.618 134.182 126.538 134.344C126.047 135.337 125.855 135.727 125.559 135.831C125.369 135.898 125.135 135.847 124.751 135.762C124.654 135.74 124.546 135.716 124.428 135.692C123.501 135.501 122.99 135.481 122.355 135.611C122.189 135.644 122.037 135.676 121.899 135.705C121.869 135.711 121.84 135.717 121.812 135.723C121.925 135.383 122.81 135.106 123.711 134.823C124.559 134.558 125.422 134.288 125.671 133.956C126.906 132.31 127.85 130.65 128.337 128.639ZM132.005 128.021C131.993 130.383 130.623 134.254 129.084 136.279C128.426 137.144 128.382 137.203 129.217 138.093C130.989 135.562 132.835 130.577 132.137 127.861C132.052 127.901 132.006 127.953 132.005 128.021ZM142.95 136.043C142.724 137.493 141.913 140.546 140.674 141.842C139.2 143.385 138.593 143.557 137.379 143.042C136.656 142.736 135.602 142.885 134.835 143.087C136.228 143.139 137.486 143.508 138.643 144.199L138.68 144.221L138.745 144.26C139.166 144.512 139.4 144.652 139.612 144.626C139.877 144.595 140.11 144.307 140.633 143.662L140.685 143.598L140.736 143.535C142.492 141.372 143.191 138.614 142.95 136.043ZM155.536 145.322C155.229 147.715 154.356 151.97 150.994 154.785C147.832 157.434 145.444 157.613 144.924 153.842C144.873 153.478 144.803 153.285 144.719 153.228C144.876 154.559 144.81 155.901 144.495 157.121C144.304 157.858 144.148 158.483 144.148 158.509C144.148 158.933 148.864 156.977 150.517 155.868C154.314 153.32 155.978 149.117 155.536 145.322ZM146.57 138.915C146.159 141.571 145.191 143.461 143.184 145.538C141.893 146.874 141.893 146.874 142.436 147.54C142.494 147.612 142.551 147.684 142.608 147.758C144.336 146.022 146.262 142.706 146.57 138.915ZM129.212 146.954C128.891 148.768 128.362 150.753 127.579 151.699C126.018 153.585 123.936 154.099 122.288 153.842C121.46 153.713 120.086 154.073 118.886 154.493C121.322 154.391 123.171 154.867 124.778 155.962C125.171 156.23 125.489 156.345 125.558 156.246C125.622 156.153 126.001 155.656 126.4 155.142C128.164 152.867 129.122 149.77 129.212 146.954ZM115.211 153.655C117.708 152.353 121.71 148.871 121.661 143.331C121.177 147.329 118.796 150.872 115.052 153.01C115.007 153.036 115.087 153.318 115.211 153.655ZM118.375 143.704C117.604 145.95 115.89 149.484 113.182 148.528C110.754 147.671 109.28 147.499 108.065 147.499C107.987 147.499 107.919 147.506 107.859 147.52C107.799 147.506 107.73 147.499 107.652 147.499C106.438 147.499 104.964 147.671 102.535 148.528C100.092 149.39 98.4573 146.597 97.5949 144.393C97.9967 146.051 98.8223 147.852 100.077 149.726C100.863 150.899 101.154 151.333 101.383 151.303C101.518 151.286 101.631 151.11 101.81 150.83C104.394 146.803 111.398 146.803 113.982 150.83C114.685 151.925 117.515 147.749 118.234 144.556C118.298 144.272 118.344 143.988 118.375 143.704ZM86.5095 146.974C86.5395 149.67 87.4672 152.659 89.3923 155.142C89.7913 155.656 90.1704 156.153 90.2348 156.246C90.304 156.345 90.6219 156.23 91.0151 155.962C92.6027 154.879 94.4282 154.402 96.8225 154.49C95.6238 154.071 94.2552 153.713 93.4293 153.842C91.7813 154.099 89.7 153.585 88.1388 151.699C87.3585 150.756 86.8308 148.782 86.5095 146.974ZM94.0757 142.761C93.7315 148.681 97.9939 152.369 100.569 153.687C100.7 153.336 100.788 153.037 100.741 153.01C96.8197 150.77 94.393 146.99 94.0757 142.761ZM86.5322 138.138C87.4127 137.205 87.3777 137.159 86.7089 136.279C85.1694 134.254 83.8001 130.383 83.7873 128.021C83.787 127.985 83.7043 127.957 83.5616 127.938C82.9135 130.687 84.7673 135.645 86.5322 138.138ZM72.777 136.105C72.5124 138.595 73.2146 141.266 75.0567 143.535C75.0922 143.579 75.1265 143.621 75.1596 143.662C75.6824 144.307 75.9154 144.595 76.1803 144.626C76.3932 144.652 76.6262 144.512 77.0473 144.26C77.0801 144.241 77.1144 144.22 77.1496 144.199C78.2883 143.519 79.5255 143.151 80.892 143.09C80.1245 142.886 79.0643 142.735 78.3391 143.042C77.1248 143.557 76.5178 143.385 75.0435 141.842C73.8216 140.564 73.0168 137.578 72.777 136.105ZM87.5688 129.328C87.7538 130.75 88.2209 132.269 88.9886 133.807C89.0866 134.003 89.1748 134.182 89.2551 134.344C89.7454 135.337 89.9377 135.727 90.2332 135.831C90.4237 135.898 90.6574 135.847 91.042 135.762C91.1391 135.74 91.2463 135.716 91.3648 135.692C92.2912 135.501 92.8024 135.481 93.4375 135.611C93.6038 135.644 93.7554 135.676 93.8938 135.705C93.8957 135.705 93.8975 135.705 93.8993 135.706C93.7628 135.374 92.8927 135.101 92.0064 134.823C91.1587 134.558 90.296 134.288 90.047 133.956C88.9552 132.502 88.0913 131.037 87.5688 129.328ZM95.595 122.158C95.7163 122.541 95.7788 123.034 95.8039 123.65C95.9442 127.076 96.5692 129.272 98.0536 131.56C98.5749 132.363 98.5966 132.397 97.8723 133.003C95.3311 129.435 95.0959 125.247 95.595 122.158ZM71.0754 153.213C70.9585 153.185 70.8586 153.371 70.7937 153.842C70.2734 157.613 67.8859 157.434 64.7229 154.785C61.6203 152.187 60.6375 148.361 60.2636 145.905C60.0774 149.525 61.6708 153.448 65.2754 155.868C66.9282 156.977 71.6451 158.933 71.6451 158.509C71.6451 158.483 71.4889 157.858 71.2981 157.121C70.9811 155.897 70.9168 154.549 71.0754 153.213ZM73.1524 147.801C73.2186 147.713 73.286 147.627 73.3546 147.543C73.8966 146.878 73.8966 146.878 72.5363 145.458C70.5205 143.353 69.429 141.09 69.1286 138.392C69.1219 138.333 69.1161 138.278 69.1102 138.225C69.2229 142.332 71.3091 145.973 73.1524 147.801Z" fill="#22110C"/>
<path d="M172.004 228.842C172.004 226.759 173.751 225.071 175.906 225.071C178.062 225.071 179.809 226.759 179.809 228.842C179.809 230.925 178.062 232.614 175.906 232.614C173.751 232.614 172.004 230.925 172.004 228.842Z" fill="#F1F1F1"/>
<path d="M35.8438 228.842C35.8438 226.759 37.5911 225.071 39.7464 225.071C41.9016 225.071 43.6491 226.759 43.6491 228.842C43.6491 230.925 41.9016 232.614 39.7464 232.614C37.5911 232.614 35.8438 230.925 35.8438 228.842Z" fill="#F1F1F1"/>
<path d="M46.251 232.271C46.251 231.702 45.7463 231.242 45.1234 231.242C44.5008 231.242 43.9961 231.702 43.9961 232.271C43.9961 232.838 44.5008 233.299 45.1234 233.299C45.7463 233.299 46.251 232.838 46.251 232.271Z" fill="#F1F1F1"/>
</g>
<path d="M1131.37 231.917L1135.66 252.67C1132.68 254.697 1128.39 256.546 1122.78 258.216C1117.29 259.766 1111.8 260.541 1106.31 260.541C1095.69 260.541 1086.86 257.202 1079.82 250.523C1072.9 243.844 1069.44 233.826 1069.44 220.468V184.152H1051.91V160.001H1069.44V138.712L1095.04 133.166V160.001H1131.55V184.152H1095.04V219.037C1095.04 230.844 1100.29 236.748 1110.78 236.748C1115.44 236.748 1122.3 235.138 1131.37 231.917Z" fill="#22110C"/>
<path d="M997.708 260.541C984.466 260.541 973.429 257.5 964.599 251.418C955.77 245.216 950.46 236.748 948.671 226.014H974.62C976.77 234.84 984.705 239.253 998.425 239.253C1009.52 239.253 1015.07 236.569 1015.07 231.202C1015.07 230.486 1014.95 229.831 1014.71 229.234C1014.59 228.638 1014.29 228.101 1013.82 227.624C1013.46 227.147 1013.04 226.73 1012.56 226.372C1012.09 225.895 1011.37 225.477 1010.41 225.12C1009.58 224.762 1008.8 224.464 1008.09 224.225C1007.37 223.987 1006.3 223.688 1004.87 223.331C1003.55 222.973 1002.36 222.675 1001.29 222.436C1000.33 222.198 998.961 221.899 997.172 221.542C995.381 221.184 993.831 220.826 992.517 220.468C977.842 217.01 967.582 213.253 961.736 209.198C956.009 205.023 953.146 198.822 953.146 190.592C953.146 180.336 957.023 172.345 964.777 166.62C972.654 160.776 983.152 157.854 996.278 157.854C1009.4 157.854 1019.6 160.717 1026.88 166.441C1034.16 172.047 1038.69 179.68 1040.48 189.34H1014.53C1012.38 182.661 1006 179.322 995.381 179.322C984.405 179.322 978.917 182.065 978.917 187.551C978.917 189.698 980.05 191.248 982.316 192.202C984.585 193.157 989.715 194.528 997.708 196.317C1005.7 198.106 1012.03 199.776 1016.68 201.326C1021.33 202.758 1025.75 204.666 1029.92 207.051C1034.1 209.436 1037.08 212.299 1038.87 215.638C1040.66 218.977 1041.56 223.032 1041.56 227.803C1041.56 238.418 1037.44 246.528 1029.21 252.133C1020.97 257.739 1010.48 260.541 997.708 260.541Z" fill="#22110C"/>
<path d="M884.543 157.854C900.652 157.854 913.358 163.4 922.665 174.491C932.091 185.583 936.146 199.358 934.835 215.817H859.308C860.144 223.45 862.888 229.294 867.54 233.349C872.195 237.404 877.98 239.431 884.901 239.431C889.912 239.431 894.386 238.358 898.324 236.211C902.263 233.945 905.065 230.904 906.737 227.088H933.224C929.764 238.179 923.679 246.528 914.969 252.133C906.259 257.739 896.297 260.541 885.079 260.541C869.809 260.541 857.339 255.711 847.677 246.051C838.011 236.39 833.179 224.166 833.179 209.377C833.179 194.588 838.011 182.303 847.677 172.524C857.339 162.744 869.629 157.854 884.543 157.854ZM884.365 178.964C878.28 178.964 873.209 180.634 869.151 183.973C865.096 187.193 862.233 191.546 860.561 197.033H907.631C906.198 191.546 903.454 187.193 899.399 183.973C895.341 180.634 890.331 178.964 884.365 178.964Z" fill="#22110C"/>
<path d="M806.535 140.859C794.962 140.859 789.177 147.12 789.177 159.643V160.001H821.927V184.152H789.177V258.395H763.583V184.152H746.044V160.001H763.583V158.391C763.583 145.272 767.46 135.373 775.215 128.694C782.972 121.896 792.457 118.497 803.671 118.497C812.62 118.497 820.377 119.987 826.937 122.969L822.285 143.721L818.886 142.827C814.35 141.515 810.234 140.859 806.535 140.859Z" fill="#22110C"/>
<path d="M719.055 114.561C723.71 114.561 727.525 115.992 730.508 118.854C733.491 121.597 734.983 125.175 734.983 129.588C734.983 134.001 733.491 137.638 730.508 140.501C727.525 143.363 723.71 144.794 719.055 144.794C714.522 144.794 710.703 143.363 707.601 140.501C704.618 137.638 703.126 134.001 703.126 129.588C703.126 125.294 704.618 121.716 707.601 118.854C710.703 115.992 714.522 114.561 719.055 114.561ZM706.168 258.394V160H731.761V258.394H706.168Z" fill="#22110C"/>
<path d="M651.027 157.854C662.123 157.854 670.832 161.313 677.156 168.23C683.48 175.147 686.641 184.629 686.641 196.675V258.395H661.048V202.221C661.048 195.542 659.617 190.533 656.754 187.193C653.891 183.854 649.177 182.184 642.614 182.184C627.819 182.184 620.42 190.354 620.42 206.693V258.395H594.827V160.001H620.42V173.418C627.819 163.042 638.021 157.854 651.027 157.854Z" fill="#22110C"/>
<path d="M548.841 160.001H574.434L574.256 258.395H548.663V245.156C541.145 255.413 530.885 260.541 517.879 260.541C504.872 260.541 494.135 255.771 485.664 246.229C477.193 236.569 472.958 224.225 472.958 209.198C472.958 194.17 477.193 181.886 485.664 172.345C494.255 162.684 504.934 157.854 517.701 157.854C530.824 157.854 541.206 163.162 548.841 173.776V160.001ZM523.606 236.211C530.885 236.211 536.909 233.707 541.684 228.697C546.455 223.688 548.841 217.188 548.841 209.198C548.841 201.207 546.455 194.707 541.684 189.698C536.909 184.689 530.885 182.184 523.606 182.184C516.329 182.184 510.363 184.689 505.708 189.698C501.056 194.707 498.729 201.207 498.729 209.198C498.729 217.188 501.056 223.688 505.708 228.697C510.483 233.707 516.449 236.211 523.606 236.211Z" fill="#22110C"/>
<path d="M421.762 157.854C432.264 157.854 440.557 161.253 446.642 168.051C452.727 174.849 455.768 184.212 455.768 196.138V258.395H430.175V201.684C430.175 195.244 428.803 190.413 426.059 187.193C423.434 183.854 419.138 182.184 413.172 182.184C406.493 182.184 401.421 184.331 397.961 188.625C394.5 192.799 392.77 198.822 392.77 206.693V258.395H367.176V201.684C367.176 195.244 365.804 190.413 363.06 187.193C360.436 183.854 356.139 182.184 350.173 182.184C343.494 182.184 338.361 184.331 334.784 188.625C331.324 192.799 329.593 198.822 329.593 206.693L329.771 258.395H304V160.001H329.771V173.06C336.931 162.923 346.655 157.854 358.944 157.854C373.262 157.854 383.224 164.056 388.834 176.46C396.469 164.056 407.445 157.854 421.762 157.854Z" fill="#22110C"/>
<rect x="1188" y="112" width="373" height="175" fill="white"/>
<rect x="1188" y="112" width="373" height="175" stroke="#64748B" stroke-width="2"/>
<path d="M1236.56 243V156.54H1272.46C1277.78 156.54 1282.54 157.02 1286.74 157.981C1290.93 158.854 1294.51 160.208 1297.48 162.042C1300.53 163.876 1302.85 166.278 1304.42 169.247C1306.08 172.129 1306.91 175.579 1306.91 179.596C1306.91 183.002 1306.17 185.971 1304.68 188.504C1303.29 191.037 1301.06 193.089 1298 194.661C1295.03 196.233 1291.1 197.325 1286.21 197.936V199.901C1294.51 200.512 1300.58 202.608 1304.42 206.189C1308.35 209.682 1310.32 214.398 1310.32 220.337C1310.32 225.315 1309.01 229.507 1306.39 232.913C1303.85 236.232 1300.01 238.764 1294.86 240.511C1289.71 242.17 1283.33 243 1275.73 243H1236.56ZM1254.51 227.804H1275.47C1281.06 227.804 1285.21 226.974 1287.92 225.315C1290.62 223.568 1291.98 220.905 1291.98 217.324C1291.98 213.219 1290.27 210.163 1286.87 208.154C1283.46 206.058 1278.31 205.01 1271.41 205.01H1254.51V227.804ZM1254.51 193.22H1268.66C1275.47 193.22 1280.45 192.303 1283.59 190.469C1286.82 188.548 1288.44 185.753 1288.44 182.085C1288.44 178.417 1287 175.753 1284.12 174.094C1281.23 172.347 1276.82 171.474 1270.89 171.474H1254.51V193.22ZM1357.03 244.834C1351.36 244.834 1346.29 244.048 1341.84 242.476C1337.47 240.904 1333.76 238.633 1330.7 235.664C1327.65 232.695 1325.29 229.027 1323.63 224.66C1322.06 220.293 1321.27 215.359 1321.27 209.857C1321.27 204.442 1322.01 199.464 1323.5 194.923C1325.07 190.294 1327.34 186.321 1330.31 183.002C1333.28 179.596 1336.9 176.976 1341.18 175.142C1345.46 173.308 1350.31 172.391 1355.72 172.391C1360.96 172.391 1365.64 173.264 1369.74 175.011C1373.84 176.67 1377.25 179.203 1379.96 182.609C1382.75 186.015 1384.76 190.207 1385.98 195.185C1387.29 200.076 1387.77 205.709 1387.42 212.084L1333.45 212.608V202.259L1376.55 201.866L1369.87 207.106C1370.48 202.477 1370.18 198.678 1368.95 195.709C1367.73 192.74 1365.94 190.556 1363.58 189.159C1361.31 187.762 1358.78 187.063 1355.98 187.063C1352.67 187.063 1349.74 187.936 1347.21 189.683C1344.68 191.43 1342.71 194.006 1341.31 197.412C1339.92 200.731 1339.22 204.748 1339.22 209.464C1339.22 216.887 1340.83 222.346 1344.06 225.839C1347.38 229.332 1351.71 231.079 1357.03 231.079C1359.48 231.079 1361.53 230.773 1363.19 230.162C1364.94 229.463 1366.33 228.59 1367.38 227.542C1368.52 226.494 1369.39 225.315 1370 224.005C1370.7 222.695 1371.27 221.385 1371.7 220.075L1388.08 223.612C1387.29 226.843 1386.11 229.769 1384.54 232.389C1383.06 234.922 1381.05 237.149 1378.52 239.07C1375.98 240.904 1372.93 242.301 1369.35 243.262C1365.85 244.31 1361.75 244.834 1357.03 244.834ZM1426.73 244.572C1419.05 244.572 1413.37 242.563 1409.7 238.546C1406.12 234.441 1404.33 227.935 1404.33 219.027V189.028H1394.38L1394.64 174.225H1401.58C1404.29 174.225 1406.3 173.832 1407.61 173.046C1408.92 172.26 1409.7 170.819 1409.96 168.723L1411.67 158.898H1422.41V174.225H1439.83V189.552H1422.41V218.241C1422.41 221.385 1423.15 223.656 1424.64 225.053C1426.12 226.45 1428.39 227.149 1431.45 227.149C1433.11 227.149 1434.68 226.974 1436.16 226.625C1437.74 226.276 1439.09 225.708 1440.23 224.922V242.476C1437.52 243.349 1435.03 243.917 1432.76 244.179C1430.49 244.441 1428.48 244.572 1426.73 244.572ZM1469.37 244.834C1465.52 244.834 1462.12 244.092 1459.15 242.607C1456.18 241.035 1453.87 238.808 1452.21 235.926C1450.55 233.044 1449.72 229.463 1449.72 225.184C1449.72 221.429 1450.42 218.285 1451.81 215.752C1453.3 213.219 1455.44 211.167 1458.23 209.595C1461.03 208.023 1464.48 206.713 1468.58 205.665C1472.69 204.617 1477.36 203.7 1482.6 202.914C1485.39 202.477 1487.66 202.084 1489.41 201.735C1491.24 201.298 1492.6 200.643 1493.47 199.77C1494.34 198.809 1494.78 197.456 1494.78 195.709C1494.78 193.264 1493.91 191.168 1492.16 189.421C1490.41 187.674 1487.66 186.801 1483.91 186.801C1481.38 186.801 1479.02 187.238 1476.83 188.111C1474.74 188.984 1472.9 190.294 1471.33 192.041C1469.85 193.788 1468.76 196.015 1468.06 198.722L1451.42 193.613C1452.47 190.032 1453.95 186.932 1455.87 184.312C1457.88 181.692 1460.28 179.509 1463.08 177.762C1465.87 175.928 1469.06 174.574 1472.64 173.701C1476.22 172.828 1480.11 172.391 1484.3 172.391C1491.03 172.391 1496.48 173.483 1500.68 175.666C1504.96 177.762 1508.14 181.081 1510.24 185.622C1512.34 190.076 1513.38 195.84 1513.38 202.914V214.704C1513.38 217.761 1513.43 220.861 1513.51 224.005C1513.69 227.149 1513.86 230.337 1514.04 233.568C1514.3 236.712 1514.56 239.856 1514.82 243H1498.19C1497.84 240.817 1497.49 238.328 1497.14 235.533C1496.88 232.651 1496.66 229.769 1496.48 226.887H1494.13C1492.9 230.206 1491.16 233.219 1488.89 235.926C1486.62 238.633 1483.82 240.817 1480.5 242.476C1477.27 244.048 1473.56 244.834 1469.37 244.834ZM1477.36 231.21C1479.02 231.21 1480.68 230.904 1482.34 230.293C1484.08 229.682 1485.74 228.852 1487.31 227.804C1488.97 226.669 1490.46 225.271 1491.77 223.612C1493.17 221.953 1494.3 220.075 1495.17 217.979L1494.91 206.975L1497.93 207.63C1496.35 208.765 1494.52 209.682 1492.42 210.381C1490.33 210.992 1488.14 211.473 1485.87 211.822C1483.69 212.171 1481.51 212.564 1479.32 213.001C1477.14 213.438 1475.18 214.005 1473.43 214.704C1471.77 215.403 1470.42 216.363 1469.37 217.586C1468.41 218.721 1467.93 220.337 1467.93 222.433C1467.93 225.14 1468.8 227.28 1470.55 228.852C1472.29 230.424 1474.56 231.21 1477.36 231.21Z" fill="black"/>
</svg>
