<svg width="828" height="222" viewBox="0 0 828 222" fill="none" xmlns="http://www.w3.org/2000/svg">
<g clip-path="url(#clip0_2840_13205)">
<mask id="mask0_2840_13205" style="mask-type:luminance" maskUnits="userSpaceOnUse" x="0" y="0" width="145" height="222">
<path d="M144.694 0.824097H0.842712V221.139H144.694V0.824097Z" fill="white"/>
</mask>
<g mask="url(#mask0_2840_13205)">
<path fill-rule="evenodd" clip-rule="evenodd" d="M69.7278 0.978827C40.5869 3.85009 39.5606 46.9975 68.5185 51.826C69.8305 52.0448 70.2463 52.1596 70.2765 52.3118C70.2983 52.4216 70.1926 54.5973 70.0423 57.1469C69.8917 59.6964 69.702 64.7097 69.6208 68.2871C69.5397 71.8648 69.4446 74.8127 69.4095 74.8383C69.3747 74.8637 68.9013 75.1029 68.3578 75.37C67.3399 75.8704 66.0009 76.9691 65.4626 77.746C65.1607 78.182 65.1607 78.1819 63.3071 78.2424C60.3801 78.3382 58.5962 79.0538 56.9763 80.7814C56.5272 81.2605 56.1161 81.6002 56.0615 81.5368C56.0068 81.4736 54.3179 78.9859 52.3081 76.0085C50.2984 73.0311 48.0163 69.6783 47.2371 68.558L45.8201 66.5208L46.6516 65.5995C62.1574 48.4168 40.4756 22.5374 22.0387 36.2215C3.68691 49.8423 20.135 78.4137 41.2355 69.5676C41.3223 69.5312 42.8898 71.4916 44.9431 74.2044C46.8995 76.7892 49.3431 79.9762 50.3735 81.2864C51.4038 82.5968 52.3337 83.8 52.44 83.9605C52.6585 84.2898 52.7288 84.242 51.5486 84.5661C48.2759 85.4651 45.1906 88.1818 44.579 90.7028C44.4987 91.0339 44.367 91.3064 44.2865 91.3086C38.7564 91.4555 34.5242 95.5634 34.4644 100.843C34.4442 102.639 34.4442 102.639 33.691 103.086C26.8365 107.155 17.537 120.805 16.873 127.772C16.7749 128.802 16.8135 128.768 15.4571 128.999C12.3964 129.522 10.6085 130.627 8.72312 133.161C6.33557 136.372 6.11532 139.131 7.93587 143.028C8.55253 144.348 8.5864 144.114 7.56988 145.547C-3.17915 160.691 -0.939897 178.462 13.5217 192.78C22.9799 202.144 36.2567 207.853 51.1417 208.955C56.8252 209.375 57.4759 209.589 58.9398 211.518C68.5653 224.195 76.8736 224.195 86.4991 211.518C87.963 209.589 88.6137 209.375 94.2972 208.955C116.546 207.308 135.16 195.11 142.138 177.605C146.586 166.447 145.174 155.853 137.866 145.537C136.852 144.105 136.887 144.346 137.503 143.028C139.323 139.131 139.103 136.372 136.716 133.161C134.831 130.627 133.042 129.522 129.982 128.999C128.625 128.768 128.664 128.802 128.566 127.772C128.349 125.487 125.903 119.624 123.57 115.792C120.703 111.082 115.133 105.095 111.748 103.086C110.995 102.639 110.995 102.639 110.974 100.843C110.915 95.5634 106.683 91.4555 101.152 91.3086C101.072 91.3064 100.94 91.0339 100.86 90.7028C100.248 88.1818 97.163 85.4651 93.8904 84.5661C92.7101 84.242 92.7804 84.2898 92.9989 83.9605C93.105 83.8 94.0351 82.5968 95.0654 81.2864C96.0958 79.9762 98.5394 76.7892 100.496 74.2044C102.549 71.4916 104.117 69.5312 104.203 69.5676C125.304 78.4137 141.752 49.8423 123.4 36.2215C104.963 22.5374 83.2815 48.4168 98.7871 65.5995L99.6188 66.5208L98.2018 68.558C97.4226 69.6783 95.1405 73.0311 93.1309 76.0085C91.121 78.9859 89.4321 81.4736 89.3775 81.5368C89.3228 81.6002 88.9117 81.2605 88.4624 80.7814C86.8428 79.0538 85.0588 78.3382 82.1318 78.2424C80.2782 78.1819 80.2782 78.182 79.9806 77.7521C79.2006 76.6267 77.4036 75.3484 75.9501 74.8849C75.2978 74.6769 75.2978 74.6769 75.3135 67.0338C75.322 62.8298 75.3005 57.7532 75.2654 55.7521L75.2018 52.1136L76.9204 51.8265C109.489 46.3858 102.608 -2.2608 69.7278 0.978827ZM68.9272 7.27644C57.7537 9.29519 50.4106 19.6283 52.4148 29.7411C52.5593 30.4703 52.7524 31.1985 52.9963 31.9224C58.8349 49.2526 86.604 49.2526 92.4424 31.9224C92.6892 31.1906 92.8841 30.4582 93.0299 29.7278C95.5882 16.9194 83.0579 4.72348 68.9272 7.27644ZM31.4098 39.0008C23.158 40.5268 18.2745 48.9008 20.3093 56.0017C20.7005 57.3667 21.3474 58.6848 22.2753 59.8981C28.84 68.482 40.6608 67.6161 45.5311 58.1945C45.9575 57.3699 46.2832 56.5297 46.516 55.6847C48.9768 46.7462 41.0263 37.2225 31.4098 39.0008ZM109.593 39.008C101.361 40.4787 97.0953 48.513 98.9335 55.6723C99.5478 58.0648 100.844 60.3598 102.902 62.2793C108.82 67.8011 117.939 66.7294 123.164 59.8981C124.092 58.6834 124.736 57.3838 125.128 56.0484C127.665 47.3887 119.574 37.2246 109.593 39.008ZM71.3344 78.9746C67.3061 79.6855 66.0052 83.414 68.1484 88.1071C68.7865 89.5045 68.7865 89.5045 69.766 89.5147C70.6455 89.5239 70.8458 89.5756 71.7323 90.0234C72.7195 90.5223 72.7195 90.5223 73.7066 90.0234C74.5931 89.5756 74.7934 89.5239 75.6729 89.5147C76.6522 89.5045 76.6522 89.5045 77.2899 88.1071C79.919 82.3443 77.0624 77.9641 71.3344 78.9746ZM61.0014 82.6636C57.7009 83.5437 56.7488 87.5489 58.8423 91.7452C59.709 93.4826 59.5373 93.3461 60.5865 93.1298C61.2662 92.9896 61.6415 92.9747 62.1075 93.0698C63.6373 93.3814 63.4498 93.432 64.0983 92.5332C64.4206 92.0865 64.9566 91.4939 65.2895 91.216C65.8948 90.7107 65.8948 90.7107 65.4954 90.0949C64.406 88.4151 63.9474 86.8019 63.8443 84.286C63.7667 82.3918 63.2104 82.0743 61.0014 82.6636ZM81.5951 84.2707C81.4915 86.803 81.0354 88.4115 79.9435 90.0949C79.5441 90.7107 79.5441 90.7107 80.1494 91.216C80.4823 91.4939 81.0183 92.0865 81.3407 92.5332C81.9891 93.432 81.8017 93.3814 83.3314 93.0698C83.7974 92.9747 84.1727 92.9896 84.8524 93.1298C85.9016 93.3461 85.7299 93.4826 86.5966 91.7452C89.0434 86.8405 87.4436 82.6966 83.0338 82.517L81.6693 82.4614L81.5951 84.2707ZM51.9691 87.5997C47.0366 88.8762 45.2836 94.7813 48.6174 98.8897C49.4119 99.869 49.3584 99.8521 50.1532 99.3771C51.3881 98.6393 52.7801 98.4019 54.4033 98.6523C54.9916 98.7429 54.9916 98.7429 55.1406 98.1577C55.391 97.1742 56.1275 95.891 56.927 95.0459C57.6872 94.2424 57.6872 94.2424 57.1693 93.5606C56.0392 92.0737 55.0343 89.2314 55.0251 87.4963C55.0242 87.332 52.6994 87.4107 51.9691 87.5997ZM90.4139 87.4963C90.4044 89.2314 89.3997 92.0737 88.2696 93.5606C87.7517 94.2424 87.7517 94.2424 88.5119 95.0459C89.3111 95.891 90.0479 97.1742 90.2983 98.1577C90.4473 98.7429 90.4474 98.7429 91.0356 98.6523C92.6589 98.4019 94.0508 98.6393 95.2857 99.3771C96.0805 99.8521 96.027 99.869 96.8215 98.8897C99.5999 95.4659 98.7716 90.0097 95.2122 88.2867C93.6838 87.5469 90.4166 87.0087 90.4139 87.4963ZM67.7838 93.5046C64.3188 95.0996 64.0043 98.9893 66.9807 103.436C67.8959 104.803 67.8959 104.803 68.2526 104.247C70.1492 101.289 75.2897 101.289 77.1863 104.247C77.7021 105.051 79.779 101.984 80.3065 99.639C81.2483 95.4528 77.1188 91.1951 74.7844 93.9455C74.2879 94.5306 73.6779 95.605 73.4369 96.3188C72.9703 97.7014 72.4686 97.7014 72.002 96.3188C71.6289 95.2134 70.8424 94.0214 70.1243 93.4734C69.6138 93.0838 68.6707 93.0964 67.7838 93.5046ZM43.1854 94.3542C36.8905 95.172 35.7406 104.12 41.4383 107.946C42.6514 108.761 46.1132 110.197 46.1132 109.886C46.1132 109.867 45.9988 109.408 45.8588 108.867C45.2616 106.558 45.8851 103.652 47.3681 101.832C47.7657 101.345 47.7657 101.345 46.7673 100.302C45.2879 98.756 44.487 97.0944 44.2663 95.1127C44.1622 94.1779 44.2214 94.2193 43.1854 94.3542ZM101.294 94.3775C101.269 94.4531 101.188 94.9252 101.114 95.4267C100.819 97.4143 100.109 98.8173 98.6181 100.361C97.6705 101.341 97.6705 101.341 98.0695 101.831C99.5538 103.652 100.178 106.557 99.5801 108.867C99.4401 109.408 99.3257 109.867 99.3257 109.886C99.3257 110.197 102.788 108.761 104.001 107.946C109.048 104.556 108.961 97.1762 103.845 94.817C103.001 94.4281 101.369 94.1469 101.294 94.3775ZM60.575 95.9773C56.571 96.5472 55.7547 103.047 59.1388 107.413C59.4314 107.791 59.7097 108.156 59.7569 108.224C59.8079 108.297 60.0412 108.212 60.3298 108.015C61.9607 106.903 63.9342 106.661 66.9151 107.209C67.0139 107.227 67.5541 105.897 67.4678 105.848C64.2262 103.995 62.3763 100.707 62.5629 97.1288C62.6168 96.0915 62.6168 96.0915 62.1623 96.0162C61.9124 95.9746 61.6218 95.9249 61.5168 95.9056C61.4118 95.8862 60.9881 95.9186 60.575 95.9773ZM83.8583 95.9081C83.7884 95.9267 83.5265 95.9757 83.2766 96.0169C82.8221 96.0915 82.8221 96.0915 82.876 97.1288C83.0626 100.707 81.2128 103.995 77.9709 105.848C77.8846 105.897 78.425 107.227 78.5239 107.209C81.5047 106.661 83.4782 106.903 85.1091 108.015C85.3977 108.212 85.631 108.297 85.6821 108.224C85.7292 108.156 86.0073 107.791 86.3002 107.413C88.7874 104.204 89.0902 98.7649 86.8882 96.8482C86.2069 96.2552 84.518 95.7311 83.8583 95.9081ZM52.4533 101.175C47.5461 102.481 47.2025 109.187 51.8226 113.481C55.1617 116.584 51.9006 115.856 48.2634 112.687C47.2773 111.827 47.2773 111.827 46.5257 111.905C43.4562 112.222 38.728 109.538 36.2068 106.047C35.6251 105.241 35.6251 105.241 35.2551 105.669C30.0133 111.729 27.03 117.155 23.6326 126.806C22.7918 129.196 22.7834 129.009 23.7398 129.189C40.0636 132.254 50.8347 149.453 51.1703 172.992C51.2433 178.132 51.1136 177.824 52.9217 177.155C54.0257 176.746 54.2494 176.435 55.1514 174.059C59.2788 163.185 62.7537 158.873 68.5752 157.401C69.7799 157.096 69.7447 157.119 69.8476 156.576C70.0802 155.35 71.3891 152.14 71.8606 151.639C72.9979 150.432 74.9042 152.954 75.5913 156.576C75.6943 157.119 75.659 157.096 76.8637 157.401C82.6852 158.873 86.1599 163.185 90.2875 174.059C91.1895 176.435 91.4132 176.746 92.5172 177.155C94.3253 177.824 94.1954 178.132 94.2686 172.992C94.6042 149.452 105.374 132.254 121.699 129.189C122.655 129.009 122.647 129.196 121.806 126.806C118.409 117.155 115.426 111.729 110.184 105.669C109.814 105.241 109.814 105.241 109.232 106.047C106.711 109.538 101.983 112.222 98.9132 111.905C98.1616 111.827 98.1616 111.827 97.1756 112.687C93.5384 115.856 90.2772 116.584 93.6164 113.481C96.9499 110.383 97.7914 107.184 96.1284 103.932C94.8108 101.354 90.7461 99.8097 90.4878 101.788C90.0749 104.953 88.8097 107.388 86.9041 108.685C86.3492 109.062 86.3492 109.062 86.8223 109.909C87.9109 111.856 87.373 114.388 85.4654 116.295C83.8513 117.908 82.5546 118.014 84.0356 116.411C85.9785 114.309 85.8434 111.746 83.7574 111.134C82.5094 110.767 78.5753 110.923 78.5753 111.339C78.5753 112.284 77.3108 115.192 76.5601 115.973C75.6289 116.941 75.4338 116.521 76.075 114.929C78.0397 110.053 76.4023 105.405 72.7195 105.405C69.0366 105.405 67.3992 110.053 69.3637 114.929C70.0052 116.521 69.8101 116.941 68.8789 115.973C68.1281 115.192 66.8636 112.284 66.8636 111.339C66.8636 110.923 62.9295 110.767 61.6816 111.134C59.5953 111.746 59.4602 114.309 61.4031 116.411C62.8843 118.014 61.5876 117.908 59.9735 116.295C58.0657 114.388 57.5281 111.856 58.6166 109.909C59.0898 109.062 59.0898 109.062 58.5346 108.685C56.631 107.389 55.3638 104.952 54.952 101.796C54.8843 101.277 54.8124 101.132 54.5957 101.074C54.1485 100.955 53.0907 101.005 52.4533 101.175ZM17.3618 132.341C9.85 133.52 10.9798 141.703 19.6012 148.559C22.3379 150.736 22.3876 150.766 26.7634 152.996C42.8943 161.216 47.1317 166.266 47.1317 177.279C47.1317 178.035 47.6751 178.267 48.4367 177.834C48.5738 177.756 48.552 172.488 48.4029 169.673C47.7026 156.454 42.3475 144.098 34.671 137.989C29.5932 133.948 22.294 131.566 17.3618 132.341ZM124.213 132.299C110.283 133.766 99.6909 146.948 97.3563 165.723C96.985 168.711 96.7229 177.674 97.0023 177.834C97.7638 178.267 98.3073 178.035 98.3073 177.279C98.3073 166.265 102.542 161.217 118.676 152.996C123.051 150.766 123.101 150.736 125.838 148.559C136.17 140.344 135.25 131.137 124.213 132.299ZM11.9051 149.121C6.04544 155.438 4.31859 168.486 8.11054 177.793C13.4329 190.859 30.8474 203.005 46.1768 204.346C53.1237 204.953 54.7007 204.849 54.0363 203.826C52.9466 202.15 49.2117 195.353 47.0294 191.075C46.4641 189.967 45.587 188.41 45.0802 187.613C42.8035 184.036 42.6365 181.437 44.5529 179.411C45.6875 178.211 44.9748 172.537 43.2589 169.105C42.4104 167.408 42.4688 167.426 41.6615 168.635C32.3738 182.537 13.4253 171.898 13.8093 152.997C13.868 150.113 13.868 150.113 13.0641 149.475C12.1258 148.732 12.2356 148.765 11.9051 149.121ZM132.347 149.484C131.571 150.113 131.571 150.113 131.629 152.997C132.014 171.898 113.065 182.536 103.777 168.635C102.97 167.426 103.029 167.408 102.18 169.105C100.464 172.537 99.7514 178.211 100.886 179.411C102.802 181.437 102.635 184.036 100.359 187.613C99.8519 188.41 98.9748 189.967 98.4095 191.075C96.2273 195.353 92.4923 202.15 91.4026 203.826C90.7339 204.856 90.5469 204.806 94.459 204.625C102.617 204.249 106.011 203.503 112.629 200.635C136.556 190.269 146.286 168.247 134.677 150.732C133.242 148.567 133.383 148.644 132.347 149.484ZM17.0317 152.52C15.7979 156.57 18.2403 164.203 22.0226 168.118C23.197 169.333 23.2675 169.341 22.7983 168.202C20.9125 163.619 21.6039 157.936 24.2669 156.132C24.7594 155.798 23.8601 155.238 20.3982 153.725C19.5931 153.372 18.5491 152.894 18.0782 152.661C17.0618 152.158 17.139 152.169 17.0317 152.52ZM127.523 152.578C127.173 152.758 126.085 153.263 125.104 153.7C121.321 155.382 120.664 155.788 121.17 156.131C123.835 157.936 124.527 163.616 122.641 168.202C122.171 169.341 122.242 169.333 123.416 168.118C127.198 164.203 129.641 156.57 128.407 152.52C128.301 152.174 128.307 152.174 127.523 152.578ZM71.2126 160.302C66.3414 161.164 61.7823 166.385 58.2467 175.15C56.4741 179.545 55.5521 180.18 49.6778 181.064C45.812 181.646 45.5572 182.577 48.2139 186.411C50.1348 189.183 52.4809 193.013 54.959 197.419C59.3876 205.296 61.0216 207.909 63.2738 210.715C71.0411 220.395 77.6799 218.807 85.9156 205.301C87.5373 202.642 87.7398 202.292 90.4799 197.419C92.958 193.013 95.3041 189.183 97.225 186.411C99.8818 182.577 99.6269 181.646 95.7611 181.064C89.8866 180.18 88.9648 179.545 87.1923 175.15C82.9298 164.583 77.1838 159.244 71.2126 160.302ZM58.2709 181.14C57.0812 181.753 56.6521 182.93 57.206 184.062C57.6452 184.958 58.8547 185.405 59.5989 184.945C59.8036 184.82 59.9583 184.866 60.5838 185.245C62.8202 186.597 63.6728 186.335 62.9776 184.508C61.9167 181.721 59.9176 180.291 58.2709 181.14ZM84.9797 181.196C83.6146 181.882 81.8691 184.814 82.2975 185.703C82.6072 186.345 83.2152 186.237 84.8551 185.245C85.4807 184.866 85.6353 184.82 85.8401 184.945C86.5843 185.405 87.7937 184.958 88.2329 184.062C89.1815 182.124 86.9839 180.188 84.9797 181.196Z" fill="#22110C"/>
<path d="M83.8585 95.9081C83.7884 95.9267 83.5265 95.9757 83.2766 96.0169C82.8221 96.0915 82.8221 96.0915 82.876 97.1288C83.0626 100.707 81.2128 103.995 77.9712 105.848C77.8848 105.897 78.425 107.227 78.5239 107.209C81.5047 106.661 83.4782 106.903 85.1091 108.015C85.3977 108.212 85.631 108.297 85.682 108.224C85.7292 108.156 86.0073 107.791 86.3002 107.413C88.7874 104.204 89.0902 98.7649 86.8881 96.8482C86.2071 96.2552 84.518 95.7311 83.8585 95.9081Z" fill="#2430F0"/>
<path d="M101.294 94.3775C101.269 94.4531 101.188 94.9252 101.114 95.4267C100.819 97.4143 100.109 98.8173 98.6181 100.361C97.6705 101.341 97.6705 101.341 98.0694 101.831C99.5536 103.652 100.178 106.557 99.5801 108.867C99.4401 109.408 99.3257 109.867 99.3257 109.886C99.3257 110.197 102.787 108.761 104 107.946C109.048 104.556 108.961 97.1762 103.845 94.817C103.001 94.4281 101.369 94.1469 101.294 94.3775Z" fill="#2430F0"/>
<path d="M90.4139 87.4963C90.4046 89.2314 89.3997 92.0737 88.2696 93.5606C87.7517 94.2425 87.7517 94.2425 88.5119 95.0459C89.3112 95.891 90.0479 97.1742 90.2983 98.1578C90.4474 98.7429 90.4474 98.7429 91.0356 98.6523C92.6589 98.4019 94.0508 98.6393 95.2857 99.3771C96.0805 99.8522 96.027 99.869 96.8216 98.8897C99.5999 95.4659 98.7716 90.0097 95.2122 88.2868C93.6838 87.5469 90.4166 87.0087 90.4139 87.4963Z" fill="#2430F0"/>
<path d="M81.5951 84.2707C81.4915 86.803 81.0354 88.4115 79.9435 90.0949C79.5441 90.7106 79.5441 90.7106 80.1494 91.216C80.4823 91.4939 81.0184 92.0865 81.3407 92.5332C81.9891 93.432 81.8017 93.3814 83.3314 93.0698C83.7974 92.9747 84.1728 92.9895 84.8525 93.1296C85.9017 93.3461 85.7299 93.4826 86.5964 91.7452C89.0435 86.8405 87.4436 82.6966 83.0336 82.5167L81.6693 82.4614L81.5951 84.2707Z" fill="#2430F0"/>
<path d="M71.3344 78.9747C67.3059 79.6855 66.0052 83.414 68.1483 88.1072C68.7865 89.5046 68.7865 89.5046 69.7658 89.5147C70.6455 89.5237 70.8456 89.5756 71.7323 90.0234C72.7194 90.5223 72.7194 90.5223 73.7066 90.0234C74.5931 89.5756 74.7934 89.5237 75.6729 89.5147C76.6522 89.5046 76.6522 89.5046 77.2899 88.1072C79.919 82.3444 77.0624 77.9641 71.3344 78.9747Z" fill="#2430F0"/>
<path d="M67.7838 93.5046C64.3188 95.0998 64.0043 98.9893 66.9807 103.436C67.8959 104.803 67.8959 104.803 68.2527 104.246C70.1492 101.289 75.2897 101.289 77.1863 104.246C77.7021 105.051 79.779 101.984 80.3065 99.639C81.2483 95.4528 77.1188 91.1951 74.7844 93.9454C74.2879 94.5306 73.6779 95.605 73.4369 96.3188C72.9703 97.7013 72.4686 97.7013 72.002 96.3188C71.6289 95.2134 70.8424 94.0214 70.1243 93.4733C69.6138 93.0837 68.6705 93.0963 67.7838 93.5046Z" fill="#2430F0"/>
<path d="M60.575 95.9773C56.571 96.5472 55.7547 103.047 59.1388 107.413C59.4314 107.791 59.7097 108.156 59.7569 108.224C59.8079 108.297 60.0412 108.212 60.3298 108.016C61.9607 106.903 63.9342 106.661 66.9151 107.209C67.014 107.227 67.5541 105.897 67.4678 105.848C64.2262 103.995 62.3763 100.707 62.5627 97.1288C62.6168 96.0915 62.6168 96.0915 62.1623 96.0162C61.9124 95.9746 61.6218 95.925 61.5168 95.9056C61.4118 95.8863 60.9879 95.9187 60.575 95.9773Z" fill="#2430F0"/>
<path d="M51.9691 87.5997C47.0366 88.8762 45.2836 94.7813 48.6174 98.8897C49.4119 99.869 49.3585 99.8522 50.1532 99.3771C51.3881 98.6393 52.7801 98.4019 54.4034 98.6521C54.9916 98.7429 54.9916 98.7429 55.1406 98.1578C55.391 97.1742 56.1276 95.891 56.9271 95.0459C57.687 94.2425 57.687 94.2425 57.1691 93.5606C56.0392 92.0737 55.0343 89.2314 55.0249 87.4963C55.0242 87.332 52.6994 87.4107 51.9691 87.5997Z" fill="#2430F0"/>
<path d="M61.0014 82.6636C57.7009 83.5437 56.7488 87.5489 58.8423 91.7452C59.709 93.4826 59.5373 93.3461 60.5865 93.1299C61.2662 92.9896 61.6416 92.9747 62.1075 93.0698C63.6373 93.3814 63.4498 93.432 64.0983 92.5332C64.4206 92.0865 64.9567 91.4939 65.2895 91.216C65.8948 90.7107 65.8948 90.7107 65.4954 90.0949C64.406 88.4151 63.9475 86.8019 63.8443 84.286C63.7667 82.3918 63.2104 82.0743 61.0014 82.6636Z" fill="#2430F0"/>
<path d="M43.1854 94.3542C36.8905 95.1723 35.7406 104.12 41.4383 107.946C42.6513 108.761 46.1132 110.197 46.1132 109.886C46.1132 109.867 45.9988 109.408 45.8588 108.867C45.2616 106.558 45.8851 103.652 47.3681 101.833C47.7657 101.345 47.7657 101.345 46.7673 100.302C45.2881 98.756 44.487 97.0944 44.2663 95.1127C44.1622 94.1779 44.2213 94.2193 43.1854 94.3542Z" fill="#2430F0"/>
<path d="M124.213 132.299C110.283 133.766 99.6909 146.948 97.3565 165.723C96.9849 168.711 96.7229 177.674 97.0022 177.834C97.7638 178.267 98.3073 178.035 98.3073 177.279C98.3073 166.265 102.542 161.217 118.675 152.996C123.051 150.766 123.101 150.736 125.838 148.559C136.17 140.344 135.25 131.137 124.213 132.299Z" fill="#2BE1B7"/>
<path d="M132.347 149.484C131.571 150.113 131.571 150.113 131.629 152.997C132.014 171.898 113.065 182.536 103.777 168.635C102.97 167.426 103.029 167.408 102.18 169.105C100.464 172.537 99.7514 178.211 100.886 179.411C102.802 181.437 102.635 184.036 100.359 187.613C99.8519 188.41 98.9748 189.967 98.4095 191.075C96.2273 195.353 92.4923 202.15 91.4026 203.826C90.734 204.855 90.5469 204.806 94.459 204.625C102.617 204.249 106.011 203.503 112.629 200.635C136.556 190.269 146.286 168.247 134.677 150.732C133.242 148.567 133.383 148.644 132.347 149.484Z" fill="#2BE1B7"/>
<path d="M11.9052 149.121C6.04547 155.438 4.31862 168.486 8.11057 177.793C13.433 190.859 30.8474 203.005 46.1771 204.346C53.1237 204.953 54.7007 204.849 54.0363 203.826C52.9466 202.15 49.2117 195.353 47.0294 191.075C46.4641 189.967 45.5871 188.41 45.0802 187.613C42.8035 184.036 42.6365 181.437 44.5529 179.411C45.6875 178.211 44.9748 172.537 43.2589 169.105C42.4104 167.409 42.4688 167.426 41.6615 168.635C32.3741 182.537 13.4253 171.898 13.8094 152.997C13.8681 150.113 13.8681 150.113 13.0642 149.475C12.1258 148.732 12.2357 148.765 11.9052 149.121Z" fill="#2BE1B7"/>
<path d="M17.3619 132.341C9.85003 133.52 10.9798 141.703 19.6012 148.559C22.338 150.736 22.3876 150.766 26.7634 152.996C42.8943 161.216 47.1317 166.266 47.1317 177.279C47.1317 178.035 47.6751 178.267 48.4367 177.834C48.5738 177.756 48.552 172.488 48.4029 169.673C47.7028 156.454 42.3477 144.098 34.671 137.989C29.5932 133.948 22.2941 131.566 17.3619 132.341Z" fill="#2BE1B7"/>
<path d="M52.4533 101.175C47.5461 102.481 47.2024 109.187 51.8226 113.481C55.1617 116.584 51.9003 115.856 48.2634 112.687C47.2773 111.827 47.2773 111.827 46.5257 111.905C43.4562 112.222 38.728 109.538 36.2068 106.047C35.6251 105.241 35.6251 105.241 35.2551 105.669C30.0133 111.729 27.03 117.155 23.6326 126.806C22.7918 129.196 22.7834 129.009 23.7398 129.19C40.0636 132.254 50.8347 149.453 51.1703 172.992C51.2433 178.132 51.1136 177.824 52.9217 177.155C54.0255 176.746 54.2494 176.435 55.1514 174.059C59.2788 163.185 62.7535 158.873 68.5752 157.401C69.7799 157.096 69.7446 157.119 69.8476 156.576C70.0802 155.35 71.389 152.14 71.8606 151.639C72.9979 150.432 74.9042 152.954 75.5913 156.576C75.6943 157.119 75.659 157.096 76.8637 157.401C82.6852 158.873 86.1599 163.185 90.2875 174.059C91.1895 176.435 91.4132 176.746 92.5172 177.155C94.3253 177.824 94.1954 178.132 94.2686 172.992C94.6042 149.452 105.374 132.254 121.699 129.19C122.655 129.009 122.647 129.196 121.806 126.806C118.409 117.155 115.426 111.729 110.184 105.669C109.814 105.241 109.814 105.241 109.232 106.047C106.711 109.538 101.983 112.222 98.9132 111.905C98.1616 111.827 98.1616 111.827 97.1755 112.687C93.5384 115.856 90.277 116.584 93.6163 113.481C96.9499 110.383 97.7914 107.184 96.1283 103.932C94.8108 101.354 90.7461 99.8097 90.4878 101.788C90.0749 104.953 88.8097 107.388 86.9041 108.685C86.3492 109.062 86.3492 109.062 86.8223 109.909C87.9109 111.856 87.373 114.388 85.4654 116.295C83.8513 117.908 82.5546 118.014 84.0356 116.411C85.9785 114.309 85.8434 111.746 83.7574 111.134C82.5094 110.767 78.5753 110.923 78.5753 111.339C78.5753 112.284 77.3108 115.192 76.5601 115.973C75.6288 116.941 75.4338 116.521 76.075 114.929C78.0397 110.053 76.4021 105.405 72.7195 105.405C69.0366 105.405 67.3992 110.053 69.3637 114.929C70.0052 116.521 69.8098 116.941 68.8788 115.973C68.1281 115.192 66.8636 112.284 66.8636 111.339C66.8636 110.923 62.9295 110.767 61.6815 111.134C59.5953 111.746 59.4602 114.309 61.4031 116.411C62.8843 118.014 61.5876 117.908 59.9735 116.295C58.0657 114.388 57.5281 111.856 58.6166 109.909C59.0897 109.062 59.0897 109.062 58.5346 108.685C56.631 107.389 55.3638 104.952 54.952 101.796C54.8843 101.277 54.8124 101.132 54.5957 101.074C54.1484 100.955 53.0907 101.005 52.4533 101.175Z" fill="#2430F0"/>
<path fill-rule="evenodd" clip-rule="evenodd" d="M71.2126 160.302C66.3415 161.164 61.7823 166.385 58.2467 175.15C56.4739 179.545 55.5522 180.18 49.6779 181.064C45.8121 181.646 45.5572 182.577 48.2139 186.411C50.1348 189.183 52.4809 193.013 54.959 197.419C59.3874 205.296 61.0217 207.909 63.2738 210.715C71.0411 220.395 77.6799 218.807 85.9156 205.301C87.5373 202.642 87.7398 202.292 90.48 197.419C92.958 193.013 95.3042 189.183 97.225 186.411C99.8816 182.577 99.6269 181.646 95.7611 181.064C89.8866 180.18 88.9648 179.545 87.1923 175.15C82.9298 164.583 77.1838 159.244 71.2126 160.302ZM57.206 184.062C56.6522 182.93 57.0813 181.753 58.271 181.14C59.9176 180.291 61.9167 181.721 62.9776 184.508C63.6728 186.335 62.8203 186.597 60.5838 185.245C59.9583 184.866 59.8036 184.82 59.5989 184.945C58.8547 185.405 57.6452 184.958 57.206 184.062ZM82.2975 185.703C81.8691 184.814 83.6147 181.882 84.9795 181.196C86.9839 180.188 89.1815 182.124 88.233 184.062C87.7938 184.958 86.5843 185.405 85.8401 184.945C85.6353 184.82 85.4807 184.866 84.8549 185.245C83.215 186.237 82.6073 186.345 82.2975 185.703Z" fill="#F2C79C"/>
<path fill-rule="evenodd" clip-rule="evenodd" d="M46.516 55.6847C44.8221 49.3729 39.5457 44.4013 32.3765 45.727C26.6881 46.7791 21.6333 51.1015 20.3093 56.0017C20.7005 57.3668 21.3474 58.6848 22.2753 59.8981C28.84 68.4821 40.6608 67.6161 45.5311 58.1945C45.9574 57.3699 46.2831 56.5298 46.516 55.6847Z" fill="#2430F0"/>
<path fill-rule="evenodd" clip-rule="evenodd" d="M52.9963 31.9224C52.7524 31.1985 52.5593 30.4703 52.4148 29.741C53.8976 22.153 61.2268 15.5685 69.8939 14.0025C81.4937 11.9069 91.0484 19.7658 93.0299 29.7278C92.884 30.4582 92.6892 31.1906 92.4424 31.9224C86.604 49.2526 58.8348 49.2526 52.9963 31.9224Z" fill="#2430F0"/>
<path d="M109.593 39.008C101.361 40.4787 97.0953 48.513 98.9335 55.6723C100.149 50.8742 104.901 46.7453 110.56 45.7341C117.978 44.4089 123.385 49.698 125.128 56.0484C127.665 47.3887 119.574 37.2246 109.593 39.008Z" fill="#2430F0"/>
<path d="M52.4148 29.7411C53.8976 22.1531 61.2269 15.5686 69.8939 14.0027C81.4937 11.907 91.0484 19.7659 93.03 29.7279C95.5883 16.9195 83.0579 4.72356 68.9272 7.27652C57.7538 9.29527 50.4106 19.6283 52.4148 29.7411Z" fill="#2430F0"/>
<path d="M32.3765 45.7269C39.5455 44.4012 44.8222 49.3729 46.516 55.6847C48.9768 46.7462 41.0263 37.2226 31.4098 39.0008C23.158 40.5268 18.2744 48.9008 20.3092 56.0017C21.6333 51.1015 26.6879 46.779 32.3765 45.7269Z" fill="#2430F0"/>
<path d="M102.902 62.2793C108.82 67.8011 117.939 66.7295 123.164 59.8981C124.092 58.6835 124.736 57.3839 125.128 56.0487C123.385 49.698 117.978 44.4089 110.56 45.7342C104.901 46.7454 100.149 50.8742 98.9335 55.6724C99.5478 58.0648 100.844 60.3599 102.902 62.2793Z" fill="#2430F0"/>
<path fill-rule="evenodd" clip-rule="evenodd" d="M55.4916 22.9045C58.7299 18.457 64.0077 15.0682 69.9051 14.0027C78.73 12.4083 86.3714 16.5758 90.3947 23.0476C91.1616 22.2843 91.8629 21.5086 92.4424 20.7487C89.4496 11.8863 79.654 5.34051 68.9384 7.27652C61.535 8.61407 55.8133 13.6015 53.3779 19.7565C53.9048 20.7609 54.6488 21.8385 55.4916 22.9045Z" fill="#F2C79C"/>
<path d="M55.4916 22.9044C58.3666 26.5402 62.3916 30.0411 62.8766 30.0411C63.2437 30.0411 65.2731 28.0918 67.381 26.0674C69.6572 23.8807 72.0251 21.6063 72.4879 21.6063C72.9334 21.6063 74.843 23.715 76.7524 25.8237C78.6621 27.9324 80.5715 30.0411 81.0172 30.0411C81.5854 30.0411 86.7375 26.6863 90.3947 23.0475C86.3714 16.5757 78.7299 12.4082 69.9051 14.0025C64.0076 15.0681 58.7299 18.4569 55.4916 22.9044Z" fill="#2BE1B7"/>
<path d="M20.3769 55.6465C21.8434 50.894 26.7906 46.7534 32.3415 45.7269C36.586 44.9421 40.167 46.3645 42.7339 48.9656C43.2108 47.2219 43.5561 45.1395 43.5156 43.3914C40.6345 40.0745 36.2158 38.1056 31.3748 39.0008C23.3177 40.4906 18.4718 48.5092 20.1415 55.4965C20.2189 55.5471 20.2975 55.597 20.3769 55.6465Z" fill="#2BE1B7"/>
<path d="M20.3768 55.6465C23.4986 57.5963 27.7544 58.4476 28.8758 57.8009C29.7438 57.3002 30.1457 54.7747 30.2401 52.1736C30.312 50.1969 30.3763 48.4271 30.7611 48.1009C31.1864 47.7403 33.2491 48.9134 35.4349 50.1566C37.8305 51.5187 40.5365 52.7069 41.2355 52.3119C41.7352 52.0295 42.2274 50.8176 42.7338 48.9656C40.167 46.3645 36.5857 44.9421 32.3412 45.7269C26.7906 46.7534 21.8434 50.894 20.3768 55.6465Z" fill="#2BE1B7"/>
<path fill-rule="evenodd" clip-rule="evenodd" d="M99.8809 46.6593C100.072 48.0441 104.082 55.4718 105.164 55.7236C105.75 55.8601 107.754 54.4458 109.591 53.1504C111.145 52.0536 112.579 51.0419 112.929 51.1285C113.249 51.2074 113.857 52.1557 114.569 53.2646C115.56 54.8082 116.751 56.6631 117.639 56.9196C118.791 57.2517 123.377 54.8667 125.621 53.2671C125.967 45.3729 118.553 37.413 109.627 39.008C104.966 39.8407 101.577 42.7779 99.8467 46.4688C99.86 46.5271 99.8712 46.5902 99.8809 46.6593Z" fill="#2BE1B7"/>
<path d="M127.523 152.578C127.173 152.758 126.085 153.263 125.104 153.7C121.321 155.382 120.664 155.788 121.17 156.131C123.835 157.936 124.527 163.616 122.641 168.202C122.171 169.341 122.242 169.333 123.416 168.118C127.198 164.203 129.641 156.57 128.407 152.52C128.301 152.174 128.307 152.174 127.523 152.578Z" fill="#F1F1F1"/>
<path d="M17.0317 152.52C15.7979 156.57 18.2403 164.203 22.0226 168.118C23.1969 169.333 23.2675 169.341 22.7982 168.202C20.9125 163.619 21.6039 157.936 24.2669 156.132C24.7593 155.798 23.86 155.238 20.3982 153.725C19.593 153.372 18.549 152.894 18.0781 152.661C17.0617 152.158 17.139 152.169 17.0317 152.52Z" fill="#F1F1F1"/>
<path d="M119.234 164.056C119.234 163.638 118.863 163.301 118.406 163.301C117.949 163.301 117.579 163.638 117.579 164.056C117.579 164.472 117.949 164.811 118.406 164.811C118.863 164.811 119.234 164.472 119.234 164.056Z" fill="#F1F1F1"/>
<path opacity="0.2" fill-rule="evenodd" clip-rule="evenodd" d="M91.8958 33.3513C84.8131 41.1525 70.7359 45.4455 54.6506 35.5109C62.6045 48.7392 85.5767 48.0193 91.8958 33.3513ZM43.5012 61.2126C36.0461 64.2965 25.9241 61.1393 20.9794 57.777C21.3267 58.5101 21.7573 59.2203 22.2756 59.8981C28.0534 67.4529 37.9025 67.6878 43.5012 61.2126ZM124.316 58.0798C120.03 62.066 111.351 64.8997 101.214 60.4055C101.706 61.0604 102.267 61.6876 102.902 62.2793C108.821 67.8011 117.939 66.7294 123.164 59.8981C123.613 59.31 123.996 58.7021 124.316 58.0798Z" fill="#22110C"/>
<path d="M52.4148 29.7411C53.8976 22.1531 61.2269 15.5686 69.8939 14.0027C81.4937 11.907 91.0484 19.7659 93.03 29.7279C95.5883 16.9196 83.0579 4.72356 68.9272 7.27651C57.7538 9.29527 50.4106 19.6285 52.4148 29.7411Z" fill="#2430F0"/>
<path fill-rule="evenodd" clip-rule="evenodd" d="M55.4916 22.9045C58.7299 18.457 64.0077 15.0682 69.9051 14.0027C78.73 12.4083 86.3714 16.5758 90.3947 23.0476C91.1616 22.2843 91.8629 21.5087 92.4424 20.7488C89.4496 11.8863 79.654 5.34053 68.9384 7.27651C61.535 8.61407 55.8133 13.6015 53.3779 19.7565C53.9048 20.7609 54.6488 21.8385 55.4916 22.9045Z" fill="#2BE1B7"/>
<g opacity="0.2">
<g style="mix-blend-mode:hard-light">
<path fill-rule="evenodd" clip-rule="evenodd" d="M77.8237 81.705C76.893 79.5549 74.5727 78.4034 71.3344 78.9747C69.4221 79.3123 68.1245 80.3298 67.5181 81.8077C68.7941 80.7657 71.0521 80.4251 72.7368 80.3898C74.3648 80.424 76.5282 80.7432 77.8237 81.705ZM63.6467 83.0658C62.0695 83.3052 59.1889 84.0639 57.9371 85.81C58.3545 84.2501 59.4024 83.09 61.0014 82.6636C62.602 82.2367 63.3349 82.2857 63.6467 83.0658ZM55.0439 87.9104C55.0322 87.7668 55.0257 87.6283 55.0248 87.4963C55.0239 87.332 52.6994 87.4109 51.9691 87.5997C49.4695 88.2468 47.7862 90.0826 47.1681 92.2706C48.8399 89.9331 51.9527 87.9837 55.0439 87.9104ZM37.7593 100.647C38.4981 98.1616 41.251 95.5691 43.4891 95.5691C43.8055 95.5691 44.0813 95.5518 44.3209 95.521C44.2998 95.3865 44.2818 95.2503 44.2663 95.1127C44.2614 95.0666 44.2566 95.0228 44.2519 94.9814C44.2124 94.6143 44.1917 94.4252 44.0858 94.3402C43.973 94.2499 43.7635 94.2778 43.3311 94.3349C43.285 94.3411 43.2364 94.3477 43.1854 94.3542C39.8076 94.793 37.911 97.5733 37.7593 100.647ZM71.323 94.8919C70.0247 93.8949 68.1036 93.5008 65.4062 95.7325C65.8616 94.7865 66.6557 94.0239 67.7836 93.5046C68.6705 93.0964 69.6138 93.0838 70.1243 93.4734C70.5311 93.7838 70.96 94.3011 71.323 94.8919ZM79.6718 95.4193C78.507 93.2951 76.2782 92.1857 74.7844 93.9455C74.5666 94.2022 74.3268 94.5534 74.1061 94.9266C75.3412 93.9545 77.1508 93.5186 79.6718 95.4193ZM62.5838 96.6796C62.6033 96.0895 62.5386 96.0787 62.1623 96.0162C61.9124 95.9749 61.6218 95.9249 61.5168 95.9056C61.4118 95.8863 60.9879 95.9186 60.575 95.9773C58.6083 96.2574 57.4107 97.968 57.1021 100.154C57.8807 97.6528 60.8158 96.4852 62.5838 96.6796ZM90.5609 101.501C91.1725 99.9776 94.8811 101.492 96.1284 103.932C96.4752 104.61 96.713 105.286 96.842 105.958C95.8863 103.302 92.8767 102.084 90.5609 101.501ZM78.5722 111.426C78.5742 111.395 78.5753 111.366 78.5753 111.339C78.5753 110.923 82.5095 110.767 83.7574 111.134C84.3487 111.307 84.7832 111.638 85.0581 112.07C83.8641 111.028 81.2665 111.221 78.5722 111.426ZM69.5302 107.12C70.254 106.053 71.3441 105.405 72.7195 105.405C74.0687 105.405 75.1436 106.029 75.8673 107.06C74.966 106.364 73.7311 106.007 72.7368 105.914C71.7141 106.009 70.4374 106.384 69.5302 107.12ZM60.3368 112.142C60.6085 111.675 61.0576 111.317 61.6813 111.134C62.9295 110.767 66.8636 110.923 66.8636 111.339C66.8636 111.365 66.8645 111.394 66.8665 111.423C64.1241 111.215 61.4876 111.023 60.3368 112.142ZM54.9048 101.503C52.5369 102.1 49.4477 103.361 48.5688 106.144C48.7106 103.795 50.0217 101.822 52.4533 101.175C53.0907 101.005 54.1485 100.955 54.5957 101.074C54.7645 101.119 54.8455 101.217 54.9048 101.503ZM87.5353 85.8089C86.9972 83.8834 85.4305 82.6146 83.0336 82.517L81.669 82.4615L81.6455 83.0397C83.1727 83.2465 86.2336 83.9945 87.5353 85.8089ZM98.232 92.1695C97.7878 90.4861 96.7575 89.0347 95.2122 88.2868C93.6838 87.5469 90.4166 87.0087 90.4139 87.4963C90.4132 87.6283 90.4069 87.7663 90.395 87.9098C93.4529 87.9684 96.5372 89.8685 98.232 92.1695ZM107.724 100.681C107 98.1852 104.233 95.5691 101.984 95.5691C101.645 95.5691 101.352 95.5491 101.101 95.514C101.105 95.4852 101.11 95.456 101.114 95.4268C101.188 94.9252 101.269 94.4531 101.294 94.3776C101.369 94.1469 103.001 94.4282 103.845 94.8171C106.298 95.9483 107.595 98.234 107.724 100.681ZM88.2972 99.9367C88.1295 98.6375 87.6645 97.524 86.8882 96.8482C86.2069 96.2552 84.518 95.7312 83.8583 95.9081C83.7884 95.9267 83.5265 95.9757 83.2766 96.0169C82.8996 96.0789 82.8354 96.0895 82.8551 96.6835C84.5679 96.4762 87.4155 97.5697 88.2972 99.9367Z" fill="white"/>
</g>
</g>
<g style="mix-blend-mode:hard-light">
<path fill-rule="evenodd" clip-rule="evenodd" d="M130.953 133.425C125.937 133.052 120.087 134.696 115.86 137.303C109.941 140.954 100.839 150.648 98.929 160.027C98.4008 162.621 98.0045 163.469 97.7112 163.283C100.628 145.813 110.895 133.701 124.213 132.299C127.217 131.983 129.471 132.435 130.953 133.425Z" fill="white" fill-opacity="0.4"/>
</g>
<g style="mix-blend-mode:hard-light">
<path fill-rule="evenodd" clip-rule="evenodd" d="M14.2259 133.544C19.372 132.981 25.5308 134.652 29.9313 137.366C35.8508 141.017 44.9527 150.711 46.8624 160.09C47.162 161.561 47.4189 162.47 47.6387 162.948C45.7891 152.384 41.0254 143.047 34.671 137.989C29.5932 133.948 22.294 131.566 17.3619 132.341C16.0583 132.546 15.0151 132.961 14.2259 133.544Z" fill="white" fill-opacity="0.4"/>
</g>
<g style="mix-blend-mode:hard-light">
<path fill-rule="evenodd" clip-rule="evenodd" d="M60.1675 170.928C64.3302 166.401 69.6635 165.63 72.5143 165.63C75.4756 165.63 81.3458 166.575 85.5841 171.549C81.5378 163.386 76.4623 159.371 71.2131 160.302C67.1832 161.016 63.3671 164.711 60.1675 170.928Z" fill="white" fill-opacity="0.4"/>
</g>
<path opacity="0.2" fill-rule="evenodd" clip-rule="evenodd" d="M128.731 154.959C126.827 155.771 124.695 156.595 122.394 157.421C122.05 156.889 121.641 156.449 121.17 156.131C120.664 155.788 121.322 155.382 125.105 153.7C126.085 153.263 127.173 152.758 127.523 152.578L127.537 152.571C128.022 152.32 128.2 152.228 128.291 152.282C128.343 152.312 128.368 152.39 128.406 152.515L128.407 152.52C128.625 153.235 128.728 154.061 128.731 154.959ZM16.7117 154.752C18.6352 155.613 20.7806 156.486 23.0879 157.357C23.4227 156.853 23.8167 156.437 24.2671 156.132C24.7598 155.799 23.8603 155.238 20.3986 153.725C19.5934 153.372 18.5494 152.894 18.0785 152.661C18.013 152.629 17.9521 152.598 17.8953 152.571C17.3829 152.316 17.2127 152.231 17.1333 152.283C17.0937 152.309 17.0766 152.368 17.0509 152.457C17.0452 152.476 17.0391 152.497 17.0321 152.52C16.8312 153.18 16.7277 153.935 16.7117 154.752Z" fill="#22110C"/>
<path opacity="0.2" fill-rule="evenodd" clip-rule="evenodd" d="M44.2376 186.148C43.8314 190.467 45.3288 195.298 46.0202 197.527C46.1378 197.906 46.2322 198.211 46.2897 198.425C46.7828 200.254 41.4223 203.147 21.7596 194.284C29.0196 199.749 37.902 203.622 46.1769 204.346C53.1235 204.953 54.7005 204.849 54.0361 203.826C52.9464 202.15 49.2115 195.353 47.0292 191.075C46.4641 189.967 45.5868 188.41 45.0802 187.613C44.7568 187.106 44.476 186.617 44.2376 186.148Z" fill="#22110C"/>
<path opacity="0.2" fill-rule="evenodd" clip-rule="evenodd" d="M123.8 194.245C104.067 203.155 98.6898 200.257 99.1838 198.425C99.2414 198.211 99.3356 197.907 99.4533 197.527C100.148 195.288 101.655 190.423 101.23 186.09C100.986 186.577 100.695 187.084 100.359 187.613C99.8521 188.41 98.975 189.967 98.4097 191.075C96.2275 195.353 92.4925 202.15 91.4028 203.826C91.1603 204.2 90.9814 204.43 91.0378 204.565C91.1372 204.803 91.9652 204.741 94.4592 204.625C102.618 204.249 106.011 203.503 112.629 200.636C116.796 198.83 120.532 196.673 123.8 194.245Z" fill="#22110C"/>
<path opacity="0.2" fill-rule="evenodd" clip-rule="evenodd" d="M53.8457 195.463C58.1475 202.343 59.8908 204.819 62.2426 207.467C70.8458 217.154 78.1991 215.565 87.3211 202.048C89.0298 199.518 89.3159 199.077 91.9517 194.843C91.4678 195.675 90.9765 196.537 90.48 197.419C87.7396 202.292 87.5373 202.642 85.9156 205.301C77.6799 218.807 71.0409 220.395 63.2736 210.715C61.0216 207.909 59.3874 205.296 54.9588 197.419C54.5843 196.753 54.213 196.101 53.8457 195.463Z" fill="#22110C"/>
<path d="M72.6412 148.193C71.0498 148.193 69.013 159.398 68.122 159.398L66.276 161.097L72.6412 159.398L79.961 161.538C79.1759 160.824 77.4912 159.398 77.0332 159.398C76.4602 159.398 74.2323 148.193 72.6412 148.193Z" fill="black" fill-opacity="0.2"/>
<path d="M62.0751 118.104C61.1839 118.104 58.1923 116.027 58.1923 112.942C58.6166 112.166 59.4653 110.953 59.4653 112.313C59.4653 114.012 61.375 116.216 61.8841 116.719C62.3934 117.223 62.9661 118.104 62.0751 118.104Z" fill="black" fill-opacity="0.2"/>
<path d="M45.0166 112.942C41.3884 112.942 36.6784 108.221 34.2594 105.011L35.7235 103.752L39.0332 108.473L46.5441 110.676L48.0082 108.284C48.3688 108.83 49.2175 110.148 49.7268 111.054C50.3633 112.187 52.0181 113.068 53.3548 114.957C54.6915 116.845 49.5994 114.516 48.9628 114.201C48.4537 113.95 47.3503 113.173 46.8624 112.817C46.8624 112.859 46.4933 112.942 45.0166 112.942Z" fill="black" fill-opacity="0.2"/>
<path d="M56.4101 107.214C54.9461 105.389 55.4552 103.249 55.2008 101.423L59.3381 108.851L59.0198 109.417L59.0113 109.413C58.6024 109.2 57.5732 108.665 56.4101 107.214Z" fill="black" fill-opacity="0.2"/>
<path d="M69.4585 116.971C68.1218 116.656 66.9126 113.572 66.9126 111.243L68.1857 110.676L69.0131 113.95C69.2677 114.957 70.7952 117.286 69.4585 116.971Z" fill="black" fill-opacity="0.2"/>
<path d="M83.271 118.104C84.162 118.104 87.1536 116.027 87.1536 112.942C86.7293 112.166 85.8805 110.953 85.8805 112.313C85.8805 114.012 83.9711 116.216 83.4618 116.719C82.9527 117.223 82.3798 118.104 83.271 118.104Z" fill="black" fill-opacity="0.2"/>
<path d="M100.329 112.942C103.957 112.942 108.668 108.221 111.086 105.011L109.623 103.752L106.313 108.473L98.8017 110.676L97.3378 108.284C96.9771 108.83 96.1284 110.148 95.6193 111.054C94.9827 112.187 93.3277 113.068 91.9911 114.957C90.6544 116.845 95.7465 114.516 96.383 114.201C96.8921 113.95 97.9955 113.173 98.4835 112.817C98.4835 112.859 98.8528 112.942 100.329 112.942Z" fill="black" fill-opacity="0.2"/>
<path d="M88.9358 107.214C90.3997 105.389 89.8906 103.249 90.1453 101.423L86.008 108.851L86.3262 109.417L86.3345 109.413C86.7434 109.2 87.7726 108.665 88.9358 107.214Z" fill="black" fill-opacity="0.2"/>
<path d="M75.8237 117.034C77.1604 116.719 78.4335 113.572 78.4335 111.243L77.1604 110.676L76.3328 113.95C76.0784 114.957 74.487 117.349 75.8237 117.034Z" fill="black" fill-opacity="0.2"/>
<path opacity="0.2" d="M57.5809 184.451C57.1354 184.451 58.5355 183.758 58.09 182.562C59.1509 182.122 60.8144 182.575 62.0365 183.632C63.5642 184.954 63.5642 188.228 63.5004 189.612C63.4368 190.997 58.0264 184.451 57.5809 184.451Z" fill="#22110C"/>
<path opacity="0.2" d="M87.771 184.492C88.2165 184.492 86.8165 183.8 87.2619 182.604C86.201 182.163 84.5375 182.617 83.3155 183.674C81.7877 184.996 81.7877 188.269 81.8516 189.654C81.9152 191.039 87.3256 184.492 87.771 184.492Z" fill="#22110C"/>
<path opacity="0.2" fill-rule="evenodd" clip-rule="evenodd" d="M29.9915 152.506C37.7393 157.09 45.2712 161.547 45.2712 167.077C45.2712 167.255 45.2683 167.431 45.2625 167.604C42.7437 162.388 37.2814 158.369 26.7367 152.996C22.361 150.766 22.3114 150.736 19.5746 148.559C12.8621 143.222 10.691 137.079 13.6043 134.064C11.6442 141.652 20.9643 147.166 29.9915 152.506Z" fill="#22110C"/>
<path opacity="0.2" fill-rule="evenodd" clip-rule="evenodd" d="M13.726 133.846L13.6659 134.079C12.6944 137.84 14.5144 141.094 17.7212 144.083C20.9286 147.071 25.5087 149.781 30.0241 152.452L30.0275 152.455C33.8989 154.745 37.7224 157.007 40.5776 159.389C43.4322 161.769 45.3349 164.282 45.3349 167.077C45.3349 167.256 45.3319 167.432 45.3261 167.605L45.2049 167.63C42.6963 162.436 37.2526 158.425 26.7077 153.051C24.5209 151.937 23.4114 151.371 22.5073 150.81C21.602 150.25 20.9025 149.696 19.5348 148.609C16.1725 145.934 13.9433 143.057 12.9204 140.463C11.8978 137.871 12.0778 135.552 13.5581 134.02L13.726 133.846ZM13.039 140.418C14.0515 142.985 16.2641 145.846 19.6145 148.51C20.9835 149.599 21.6771 150.148 22.5749 150.705C23.4735 151.261 24.5769 151.825 26.7659 152.94C37.1533 158.233 42.6271 162.22 45.2052 167.343C45.2067 167.255 45.2076 167.167 45.2076 167.077C45.2076 164.342 43.3441 161.86 40.4956 159.485C37.6489 157.11 33.8339 154.853 29.9587 152.56L29.9544 152.558C25.444 149.889 20.8524 147.173 17.6339 144.173C14.4819 141.236 12.6329 138.015 13.4838 134.289C12.2039 135.772 12.0668 137.953 13.039 140.418Z" fill="#22110C"/>
<path opacity="0.2" fill-rule="evenodd" clip-rule="evenodd" d="M115.545 152.506C107.798 157.09 100.266 161.547 100.266 167.077C100.266 167.155 100.266 167.233 100.267 167.31C102.847 162.237 108.3 158.269 118.649 152.996C123.025 150.766 123.074 150.736 125.811 148.559C132.522 143.223 134.486 137.47 132.015 134.409C133.609 141.82 124.435 147.248 115.545 152.506Z" fill="#22110C"/>
<path opacity="0.2" fill-rule="evenodd" clip-rule="evenodd" d="M132.415 140.655C131.389 143.155 129.212 145.936 125.851 148.609C124.483 149.696 123.784 150.25 122.878 150.812C121.974 151.371 120.865 151.937 118.678 153.053C108.329 158.325 102.894 162.286 100.324 167.339L100.204 167.311C100.203 167.233 100.202 167.155 100.202 167.077C100.202 164.282 102.105 161.769 104.959 159.389C107.815 157.007 111.638 154.745 115.509 152.455L115.513 152.452C119.959 149.822 124.468 147.153 127.668 144.219C130.868 141.284 132.742 138.095 131.953 134.423L132.064 134.37C133.32 135.923 133.441 138.154 132.415 140.655ZM132.131 134.667C133.191 136.162 133.265 138.249 132.298 140.607C131.282 143.082 129.121 145.846 125.771 148.51C124.402 149.599 123.709 150.148 122.811 150.705C121.912 151.261 120.809 151.825 118.62 152.94C108.427 158.134 102.966 162.068 100.329 167.053C100.34 164.326 102.201 161.854 105.041 159.485C107.888 157.11 111.703 154.853 115.578 152.56L115.582 152.558C120.024 149.931 124.544 147.256 127.755 144.31C130.888 141.436 132.788 138.29 132.131 134.667Z" fill="#22110C"/>
<g style="mix-blend-mode:multiply">
<path fill-rule="evenodd" clip-rule="evenodd" d="M10.762 150.472C10.6853 156.71 10.925 183.632 42.9163 183.632C43.0472 183.632 43.1773 183.632 43.3063 183.631C42.9982 181.974 43.4063 180.595 44.5263 179.411C45.661 178.211 44.9482 172.537 43.2324 169.105C42.7781 168.196 42.5839 167.78 42.3773 167.774C42.1984 167.768 42.0101 168.073 41.6349 168.635C32.3475 182.537 13.3988 171.898 13.7828 152.997C13.8415 150.113 13.8415 150.113 13.0376 149.475C12.4519 149.012 12.2746 148.85 12.1437 148.88C12.0649 148.899 12.0029 148.987 11.8787 149.121C11.4879 149.543 11.1156 149.993 10.762 150.472Z" fill="black" fill-opacity="0.2"/>
</g>
<path opacity="0.2" fill-rule="evenodd" clip-rule="evenodd" d="M134.831 151.007C134.879 157.929 134.007 183.758 102.672 183.758C102.464 183.758 102.258 183.757 102.055 183.756C102.408 182.044 102.008 180.625 100.86 179.411C99.7251 178.211 100.438 172.536 102.154 169.105C102.608 168.196 102.802 167.78 103.009 167.774C103.188 167.768 103.376 168.073 103.751 168.635C113.039 182.536 131.987 171.898 131.604 152.997C131.562 150.947 131.549 150.353 131.825 149.957C131.937 149.795 132.096 149.666 132.322 149.484C132.742 149.142 132.968 148.928 133.185 148.937C133.502 148.951 133.797 149.446 134.65 150.732C134.711 150.824 134.771 150.916 134.831 151.007Z" fill="#22110C"/>
<path opacity="0.2" fill-rule="evenodd" clip-rule="evenodd" d="M67.1535 83.0947C66.9615 84.527 67.269 86.2407 68.1216 88.1071C68.7597 89.5047 68.7597 89.5047 69.739 89.5148C70.6187 89.5238 70.8188 89.5755 71.7055 90.0236C72.6925 90.5222 72.6925 90.5222 73.6796 90.0236C74.5663 89.5755 74.7664 89.5238 75.6461 89.5148C76.6254 89.5047 76.6254 89.5047 77.2631 88.1071C78.115 86.2396 78.391 84.5173 78.1797 83.0765C77.7569 85.4073 76.783 88.4537 74.5987 88.708C73.6531 88.9047 72.9952 88.9171 72.768 88.898L72.7529 88.8966H72.5769H72.5619C72.3346 88.9157 71.6767 88.9047 70.7311 88.708C68.5527 88.4544 67.5781 85.4231 67.1535 83.0947ZM79.9165 90.0951C81.0084 88.4117 81.4645 86.8032 81.5681 84.2709L81.6227 82.9409C82.0412 85.2214 81.9295 88.4148 80.0149 91.1261C79.5187 90.7084 79.5425 90.6719 79.9165 90.0951ZM87.695 87.9504C87.6067 89.1142 87.2401 90.4013 86.5696 91.7454C86.4977 91.8895 86.433 92.0208 86.3741 92.14C86.0142 92.8695 85.8731 93.1554 85.6562 93.2319C85.5164 93.2813 85.3449 93.2433 85.0626 93.1811C84.9913 93.1651 84.9126 93.1478 84.8257 93.1298C84.1457 92.9897 83.7706 92.9749 83.3044 93.07C83.1822 93.0947 83.0711 93.1181 82.9695 93.1392C82.9477 93.1437 82.9266 93.148 82.9057 93.1525C82.9889 92.903 83.638 92.6995 84.2995 92.492C84.9219 92.2971 85.555 92.0986 85.7378 91.8551C86.6447 90.6463 87.3372 89.4274 87.695 87.9504ZM90.3871 87.4965C90.3776 89.2314 89.3727 92.0736 88.2428 93.5608C87.76 94.1961 87.7274 94.2392 88.3408 94.8932C89.6413 93.034 90.9958 89.3732 90.4835 87.3787C90.4213 87.4079 90.3873 87.4468 90.3871 87.4965ZM98.4201 93.3877C98.2535 94.4526 97.6588 96.6942 96.7494 97.6465C95.6673 98.7795 95.2218 98.9054 94.3306 98.5277C93.8006 98.3031 93.027 98.4124 92.4642 98.5608C93.4862 98.599 94.4098 98.8697 95.2587 99.3773L95.2857 99.3933L95.3338 99.4222C95.6428 99.6073 95.8139 99.71 95.9701 99.6911C96.1645 99.6677 96.3356 99.4564 96.7192 98.9827L96.7575 98.9358L96.7948 98.8899C98.0836 97.3014 98.5963 95.2754 98.4201 93.3877ZM107.657 100.202C107.432 101.959 106.791 105.084 104.324 107.151C102.002 109.097 100.25 109.228 99.8683 106.459C99.8314 106.192 99.7795 106.05 99.7181 106.008C99.833 106.985 99.7851 107.971 99.5533 108.867C99.4133 109.408 99.2987 109.867 99.2987 109.886C99.2987 110.198 102.761 108.761 103.974 107.946C106.76 106.075 107.981 102.989 107.657 100.202ZM101.076 95.4971C100.775 97.4475 100.064 98.8355 98.5911 100.361C97.6437 101.341 97.6437 101.341 98.0425 101.831C98.0852 101.883 98.1272 101.937 98.1685 101.991C99.4371 100.716 100.851 98.2811 101.076 95.4971ZM88.3365 101.401C88.101 102.733 87.713 104.19 87.1381 104.885C85.9924 106.27 84.4647 106.648 83.2554 106.459C82.6474 106.364 81.6391 106.629 80.758 106.937C82.5458 106.862 83.9034 107.211 85.0823 108.016C85.3709 108.212 85.6042 108.297 85.655 108.224C85.7022 108.156 85.9805 107.791 86.2734 107.414C87.568 105.743 88.2707 103.468 88.3365 101.401ZM78.061 106.321C79.8936 105.366 82.8311 102.809 82.7951 98.7399C82.4397 101.676 80.6919 104.277 77.9442 105.848C77.9111 105.867 77.9702 106.074 78.061 106.321ZM80.3833 99.0138C79.8176 100.663 78.5593 103.258 76.5719 102.556C74.7898 101.927 73.7077 101.801 72.8165 101.801C72.7594 101.801 72.7093 101.806 72.665 101.816C72.6208 101.806 72.5704 101.801 72.5133 101.801C71.6221 101.801 70.5401 101.927 68.7579 102.556C66.9645 103.19 65.7649 101.138 65.1319 99.5194C65.4268 100.737 66.0328 102.06 66.9539 103.436C67.5309 104.298 67.7442 104.616 67.9123 104.594C68.011 104.582 68.0939 104.452 68.2259 104.247C70.1222 101.289 75.2629 101.289 77.1593 104.247C77.6751 105.051 79.752 101.984 80.2795 99.6392C80.3265 99.4306 80.3606 99.2219 80.3833 99.0138ZM56.996 101.415C57.018 103.395 57.6989 105.59 59.1118 107.414C59.4046 107.791 59.6829 108.156 59.7301 108.224C59.7809 108.297 60.0142 108.212 60.3028 108.016C61.468 107.221 62.8078 106.87 64.5651 106.935C63.6853 106.627 62.6808 106.364 62.0746 106.459C60.8652 106.648 59.3376 106.27 58.1918 104.885C57.6191 104.193 57.2318 102.743 56.996 101.415ZM62.5491 98.3209C62.2965 102.669 65.4248 105.377 67.3151 106.345C67.4111 106.087 67.4751 105.867 67.441 105.848C64.563 104.203 62.782 101.427 62.5491 98.3209ZM57.0126 94.9265C57.6589 94.2406 57.6332 94.2069 57.1423 93.5608C56.0124 92.0736 55.0075 89.2314 54.998 87.4965C54.9978 87.47 54.9371 87.4497 54.8324 87.4353C54.3568 89.4539 55.7173 93.0956 57.0126 94.9265ZM46.9172 93.4331C46.723 95.2617 47.2384 97.2236 48.5904 98.8899C48.6164 98.9218 48.6416 98.9528 48.6659 98.9827C49.0496 99.4564 49.2206 99.6677 49.415 99.6911C49.5713 99.71 49.7423 99.6073 50.0514 99.4222C50.0754 99.4079 50.1006 99.3926 50.1264 99.3773C50.9621 98.8778 51.8702 98.6075 52.8731 98.5626C52.3098 98.4133 51.5317 98.302 50.9994 98.5277C50.1082 98.9054 49.6627 98.7795 48.5807 97.6465C47.6839 96.7074 47.0932 94.5149 46.9172 93.4331ZM57.7735 88.4562C57.9092 89.5007 58.252 90.616 58.8155 91.7454C58.8874 91.8895 58.9522 92.0206 59.0111 92.14C59.3709 92.8692 59.5121 93.1554 59.729 93.2319C59.8688 93.2813 60.0403 93.2433 60.3226 93.1811C60.3938 93.1651 60.4725 93.1478 60.5595 93.1298C61.2394 92.9897 61.6145 92.9749 62.0807 93.07C62.2028 93.0947 62.314 93.1181 62.4156 93.1392C62.417 93.1395 62.4183 93.1397 62.4197 93.1401C62.3194 92.896 61.6808 92.6959 61.0304 92.492C60.4082 92.2971 59.775 92.0986 59.5923 91.8551C58.791 90.787 58.1569 89.7111 57.7735 88.4562ZM63.6642 83.1907C63.7532 83.4721 63.7991 83.8341 63.8175 84.2862C63.9204 86.802 64.3792 88.4153 65.4686 90.0951C65.8512 90.685 65.8672 90.7097 65.3356 91.1551C63.4705 88.5351 63.2978 85.459 63.6642 83.1907ZM45.6684 105.997C45.5825 105.977 45.5092 106.113 45.4616 106.459C45.0797 109.228 43.3274 109.097 41.006 107.151C38.7289 105.243 38.0076 102.434 37.7332 100.63C37.5965 103.289 38.766 106.17 41.4115 107.946C42.6246 108.761 46.0864 110.198 46.0864 109.886C46.0864 109.867 45.9718 109.408 45.8318 108.867C45.5992 107.968 45.5519 106.978 45.6684 105.997ZM47.1928 102.022C47.2413 101.958 47.2908 101.894 47.3411 101.833C47.7389 101.345 47.7389 101.345 46.7405 100.302C45.2611 98.7561 44.46 97.0943 44.2395 95.1128C44.2346 95.0697 44.2303 95.0288 44.226 94.9897C44.3088 98.0064 45.8399 100.68 47.1928 102.022Z" fill="#22110C"/>
<path d="M119.743 161.538C119.743 160.008 121.025 158.768 122.607 158.768C124.189 158.768 125.472 160.008 125.472 161.538C125.472 163.068 124.189 164.308 122.607 164.308C121.025 164.308 119.743 163.068 119.743 161.538Z" fill="#F1F1F1"/>
<path d="M19.8107 161.538C19.8107 160.008 21.0932 158.768 22.675 158.768C24.2568 158.768 25.5393 160.008 25.5393 161.538C25.5393 163.068 24.2568 164.308 22.675 164.308C21.0932 164.308 19.8107 163.068 19.8107 161.538Z" fill="#F1F1F1"/>
<path d="M27.4489 164.056C27.4489 163.638 27.0785 163.301 26.6213 163.301C26.1644 163.301 25.7939 163.638 25.7939 164.056C25.7939 164.472 26.1644 164.811 26.6213 164.811C27.0785 164.811 27.4489 164.472 27.4489 164.056Z" fill="#F1F1F1"/>
</g>
<path d="M823.855 163.796L827.009 179.037C824.82 180.525 821.666 181.883 817.551 183.109C813.523 184.248 809.495 184.817 805.465 184.817C797.672 184.817 791.192 182.365 786.025 177.46C780.947 172.555 778.407 165.198 778.407 155.388V128.718H765.535V110.982H778.407V95.3478L797.191 91.2751V110.982H823.986V128.718H797.191V154.337C797.191 163.008 801.044 167.344 808.749 167.344C812.165 167.344 817.2 166.161 823.855 163.796Z" fill="#22110C"/>
<path d="M725.758 184.817C716.039 184.817 707.938 182.584 701.458 178.117C694.978 173.562 691.08 167.344 689.768 159.461H708.812C710.39 165.942 716.214 169.183 726.284 169.183C734.427 169.183 738.5 167.212 738.5 163.271C738.5 162.745 738.412 162.264 738.237 161.826C738.149 161.388 737.931 160.994 737.58 160.643C737.317 160.293 737.012 159.986 736.661 159.724C736.31 159.373 735.784 159.067 735.083 158.804C734.472 158.541 733.901 158.322 733.377 158.147C732.851 157.972 732.062 157.753 731.013 157.49C730.048 157.227 729.174 157.009 728.385 156.833C727.684 156.658 726.677 156.439 725.364 156.176C724.049 155.914 722.912 155.651 721.948 155.388C711.177 152.848 703.647 150.089 699.356 147.111C695.153 144.046 693.052 139.491 693.052 133.448C693.052 125.915 695.897 120.047 701.588 115.843C707.369 111.551 715.074 109.405 724.708 109.405C734.339 109.405 741.826 111.507 747.169 115.712C752.509 119.828 755.838 125.434 757.151 132.528H738.106C736.528 127.623 731.844 125.171 724.049 125.171C715.994 125.171 711.966 127.185 711.966 131.214C711.966 132.791 712.797 133.929 714.461 134.63C716.126 135.331 719.891 136.338 725.758 137.652C731.626 138.966 736.265 140.192 739.682 141.33C743.096 142.382 746.337 143.783 749.401 145.535C752.467 147.286 754.656 149.388 755.969 151.841C757.284 154.293 757.94 157.271 757.94 160.775C757.94 168.57 754.919 174.526 748.877 178.642C742.833 182.759 735.128 184.817 725.758 184.817Z" fill="#22110C"/>
<path d="M642.701 109.405C654.524 109.405 663.85 113.478 670.68 121.624C677.599 129.769 680.575 139.885 679.613 151.972H624.18C624.794 157.578 626.808 161.869 630.222 164.847C633.639 167.825 637.885 169.314 642.964 169.314C646.642 169.314 649.925 168.526 652.816 166.949C655.706 165.285 657.763 163.052 658.99 160.249H678.43C675.891 168.395 671.424 174.526 665.032 178.642C658.64 182.759 651.328 184.817 643.095 184.817C631.888 184.817 622.735 181.27 615.644 174.175C608.55 167.081 605.003 158.103 605.003 147.243C605.003 136.382 608.55 127.36 615.644 120.178C622.735 112.996 631.755 109.405 642.701 109.405ZM642.571 124.908C638.105 124.908 634.383 126.134 631.404 128.587C628.429 130.952 626.327 134.148 625.1 138.177H659.647C658.595 134.148 656.581 130.952 653.605 128.587C650.627 126.134 646.949 124.908 642.571 124.908Z" fill="#22110C"/>
<path d="M585.448 96.9244C576.954 96.9244 572.709 101.523 572.709 110.719V110.982H596.745V128.718H572.709V183.24H553.925V128.718H541.052V110.982H553.925V109.8C553.925 100.165 556.77 92.8953 562.461 87.9906C568.155 82.9983 575.116 80.502 583.347 80.502C589.915 80.502 595.608 81.5968 600.422 83.7864L597.008 99.0264L594.513 98.3695C591.184 97.4062 588.164 96.9244 585.448 96.9244Z" fill="#22110C"/>
<path d="M521.243 77.6116C524.66 77.6116 527.461 78.6626 529.65 80.7648C531.839 82.7791 532.934 85.4067 532.934 88.6473C532.934 91.8882 531.839 94.5594 529.65 96.6616C527.461 98.7636 524.66 99.8146 521.243 99.8146C517.917 99.8146 515.114 98.7636 512.837 96.6616C510.648 94.5594 509.553 91.8882 509.553 88.6473C509.553 85.4943 510.648 82.8667 512.837 80.7648C515.114 78.6626 517.917 77.6116 521.243 77.6116ZM511.785 183.24V110.982H530.569V183.24H511.785Z" fill="#22110C"/>
<path d="M471.316 109.405C479.459 109.405 485.852 111.945 490.493 117.025C495.134 122.105 497.454 129.068 497.454 137.915V183.241H478.67V141.987C478.67 137.083 477.62 133.404 475.519 130.952C473.417 128.499 469.958 127.273 465.141 127.273C454.283 127.273 448.852 133.273 448.852 145.272V183.241H430.069V110.982H448.852V120.835C454.283 113.215 461.77 109.405 471.316 109.405Z" fill="#22110C"/>
<path d="M396.317 110.982H415.101L414.971 183.241H396.187V173.518C390.669 181.051 383.139 184.817 373.593 184.817C364.047 184.817 356.167 181.313 349.95 174.307C343.733 167.212 340.624 158.147 340.624 147.111C340.624 136.075 343.733 127.054 349.95 120.047C356.255 112.953 364.092 109.405 373.463 109.405C383.094 109.405 390.714 113.303 396.317 121.098V110.982ZM377.797 166.949C383.139 166.949 387.56 165.11 391.065 161.431C394.566 157.753 396.317 152.979 396.317 147.111C396.317 141.243 394.566 136.47 391.065 132.791C387.56 129.112 383.139 127.273 377.797 127.273C372.456 127.273 368.078 129.112 364.661 132.791C361.247 136.47 359.539 141.243 359.539 147.111C359.539 152.979 361.247 157.753 364.661 161.431C368.165 165.11 372.544 166.949 377.797 166.949Z" fill="#22110C"/>
<path d="M303.05 109.405C310.757 109.405 316.844 111.902 321.31 116.894C325.776 121.886 328.008 128.762 328.008 137.521V183.241H309.224V141.593C309.224 136.864 308.217 133.316 306.203 130.952C304.277 128.499 301.124 127.273 296.745 127.273C291.843 127.273 288.121 128.849 285.581 132.003C283.041 135.068 281.771 139.491 281.771 145.272V183.241H262.987V141.593C262.987 136.864 261.98 133.316 259.966 130.952C258.04 128.499 254.887 127.273 250.508 127.273C245.606 127.273 241.839 128.849 239.214 132.003C236.674 135.068 235.404 139.491 235.404 145.272L235.534 183.241H216.62V110.982H235.534V120.573C240.789 113.128 247.926 109.405 256.946 109.405C267.453 109.405 274.765 113.96 278.883 123.069C284.486 113.96 292.542 109.405 303.05 109.405Z" fill="#22110C"/>
</g>
<defs>
<clipPath id="clip0_2840_13205">
<rect width="827.146" height="220.315" fill="white" transform="translate(0.842712 0.824097)"/>
</clipPath>
</defs>
</svg>
