<svg height="1em" style="flex:none;line-height:1" viewBox="0 0 33 32" width="1em" xmlns="http://www.w3.org/2000/svg"><title>Nova</title><g mask="url(#lobe-icons-nova-fill-0)"><mask height="32" id="lobe-icons-nova-fill-0" maskUnits="userSpaceOnUse" style="mask-type:luminance" width="32" x="0" y="0"><path d="M31.8 0H0v32h31.8z" fill="#fff"></path></mask><mask height="32" id="lobe-icons-nova-fill-1" maskUnits="userSpaceOnUse" style="mask-type:alpha" width="32" x="0" y="0"><path d="m17.865 23.28 1.533 1.543c.07.07.092.175.055.267l-2.398 6.118A1.24 1.24 0 0 1 15.9 32c-.51 0-.969-.315-1.155-.793l-3.451-8.804-5.582 5.617a.246.246 0 0 1-.35 0l-1.407-1.415a.25.25 0 0 1 0-.352l6.89-6.932a1.3 1.3 0 0 1 .834-.398 1.25 1.25 0 0 1 1.232.79l2.992 7.63 1.557-3.977a.248.248 0 0 1 .408-.085zm8.224-19.3-5.583 5.617-3.45-8.805a1.24 1.24 0 0 0-1.43-.762c-.414.092-.744.407-.899.805l-2.38 6.072a.25.25 0 0 0 .055.267l1.533 1.543c.127.127.34.082.407-.085L15.9 4.655l2.991 7.629a1.24 1.24 0 0 0 2.035.425l6.922-6.965a.25.25 0 0 0 0-.352L26.44 3.977a.246.246 0 0 0-.35 0zM8.578 17.566l-3.953-1.567 7.582-3.01c.49-.195.815-.685.785-1.24a1.3 1.3 0 0 0-.395-.84l-6.886-6.93a.246.246 0 0 0-.35 0L3.954 5.395a.25.25 0 0 0 0 .353l5.583 5.617-8.75 3.472a1.25 1.25 0 0 0 0 2.325l6.079 2.412a.24.24 0 0 0 .266-.055l1.533-1.542a.25.25 0 0 0-.085-.41zm22.434-2.73-6.08-2.412a.24.24 0 0 0-.265.055l-1.533 1.542a.25.25 0 0 0 .084.41L27.172 16l-7.583 3.01a1.255 1.255 0 0 0-.785 1.24c.018.317.172.614.395.84l6.89 6.931a.246.246 0 0 0 .35 0l1.406-1.415a.25.25 0 0 0 0-.352l-5.582-5.617 8.75-3.472a1.25 1.25 0 0 0 0-2.325z" fill="#fff"></path></mask><g mask="url(#lobe-icons-nova-fill-1)"><path d="M-2.915 34.125h37.448V-2.109H-2.915z" fill="url(#lobe-icons-nova-fill-2)"></path></g></g><defs><linearGradient gradientUnits="userSpaceOnUse" id="lobe-icons-nova-fill-2" x1="33.663" x2="-2.086" y1="33.633" y2="-1.901"><stop stop-color="#ff6200"></stop><stop offset=".399" stop-color="#e433ff"></stop><stop offset=".96" stop-color="#6842ff"></stop></linearGradient></defs></svg>