<svg xmlns="http://www.w3.org/2000/svg" fill="none" width="1em" height="1em" viewBox="0 0 48 24">
  <path
    fill="#6720ff"
    fill-rule="evenodd"
    clip-rule="evenodd"
    d="M29.0182 0.37854L23.5262 13.5391L18.0291 0.37854H14.5027L20.5278 14.7653C21.0276 15.9657 22.1996 16.741 23.5056 16.741C24.8116 16.741 25.9811 15.9657 26.4834 14.7704L32.5447 0.37854H29.0182ZM31.3649 20.4298L41.4111 10.2728L40.0407 7.03997L29.0671 18.1552C28.1501 19.0852 27.8873 20.4556 28.3948 21.656C28.8997 22.8461 30.0666 23.6163 31.3675 23.6163L31.3726 23.6214L47.0576 23.5828L45.6872 20.35L31.3675 20.4298H31.3649ZM5.6465 10.2651L7.01691 7.03224L17.9905 18.1475C18.9075 19.0749 19.1729 20.4504 18.6628 21.6482C18.1579 22.8409 16.9859 23.6085 15.6902 23.6085L0.00515192 23.5725L0 23.5776L1.37041 20.3448L15.6902 20.4247L5.6465 10.2651Z"
  />
</svg>
