<svg width="96" height="32" viewBox="0 0 96 32" fill="none" xmlns="http://www.w3.org/2000/svg">
<mask id="path-1-outside-1_6847_242" maskUnits="userSpaceOnUse" x="-0.5" y="-0.487305" width="96" height="32" fill="black">
<rect fill="white" x="-0.5" y="-0.487305" width="96" height="32"/>
<path d="M22.86 1.5127C23.82 2.01936 24.3 2.65936 24.3 3.4327C24.3 3.9127 24.0467 4.36603 23.54 4.7927C23.0333 5.1927 22.46 5.48603 21.82 5.6727L21.34 5.7127C17.9 5.89936 14.7533 6.1527 11.9 6.4727L9.66 15.4327C11.6333 15.1127 13.38 14.886 14.9 14.7527C16.42 14.6194 17.3267 14.5394 17.62 14.5127L19.18 14.3927C20.22 14.846 20.74 15.4594 20.74 16.2327C20.74 16.7127 20.5 17.1794 20.02 17.6327C19.54 18.086 18.9933 18.406 18.38 18.5927L17.78 18.6727C16.58 18.806 15.46 18.9127 14.42 18.9927C11.7 19.2327 9.76667 19.446 8.62 19.6327L6.7 27.3527C6.56667 27.9127 6.42 28.326 6.26 28.5927C6.12667 28.8327 5.87333 29.006 5.5 29.1127C5.15333 29.246 4.62 29.3127 3.9 29.3127C3.07333 29.3127 2.46 29.166 2.06 28.8727C1.68667 28.606 1.5 28.1394 1.5 27.4727C1.5 27.1794 1.54 26.8994 1.62 26.6327L7.1 4.9927C7.39333 3.81936 7.7 3.04603 8.02 2.67269C8.36667 2.2727 8.98 2.0727 9.86 2.0727C10.7933 2.0727 11.5533 2.1927 12.14 2.4327C16.06 1.92603 19.6333 1.61936 22.86 1.5127Z"/>
<path d="M45.9369 9.1127C45.9369 11.486 45.1769 13.3927 43.6569 14.8327C42.1635 16.2727 40.2435 17.3127 37.8969 17.9527L40.2569 21.2327C42.2835 24.006 43.5769 25.8194 44.1369 26.6727C44.6969 27.4994 44.9769 28.086 44.9769 28.4327C44.9769 28.726 44.7502 28.9527 44.2969 29.1127C44.1369 29.166 43.8702 29.2594 43.4969 29.3927C43.1502 29.5527 42.8302 29.6594 42.5369 29.7127C42.2435 29.766 41.9102 29.7927 41.5369 29.7927C40.9769 29.7927 40.5502 29.726 40.2569 29.5927L33.0569 18.6727H32.4569C31.7102 18.6727 31.1635 18.6594 30.8169 18.6327C30.0169 21.5927 29.3502 24.1794 28.8169 26.3927C28.6035 27.326 28.2702 28.046 27.8169 28.5527C27.3902 29.0594 26.6835 29.3127 25.6969 29.3127C24.8702 29.3127 24.2569 29.166 23.8569 28.8727C23.4835 28.606 23.2969 28.1394 23.2969 27.4727C23.2969 27.1794 23.3369 26.8994 23.4169 26.6327L28.2569 7.9527C26.8702 8.3527 25.8169 8.89936 25.0969 9.5927C24.8035 9.2727 24.5635 8.85936 24.3769 8.3527C24.2169 7.81936 24.1369 7.29936 24.1369 6.7927C24.1369 5.96603 24.9235 5.20603 26.4969 4.51269C28.0702 3.81936 29.9369 3.2727 32.0969 2.8727C34.2569 2.44603 36.0835 2.2327 37.5769 2.2327C39.2835 2.2327 40.7635 2.57936 42.0169 3.2727C43.2969 3.93936 44.2702 4.80603 44.9369 5.8727C45.6035 6.93936 45.9369 8.01936 45.9369 9.1127ZM33.5769 6.8727C32.8035 9.96603 32.1635 12.646 31.6569 14.9127C31.9769 14.9394 32.4302 14.9527 33.0169 14.9527C34.2969 14.9527 35.5769 14.766 36.8569 14.3927C38.1369 13.9927 39.2035 13.406 40.0569 12.6327C40.9369 11.8594 41.3769 10.8994 41.3769 9.7527C41.3769 8.7127 40.9502 7.88603 40.0969 7.2727C39.2435 6.6327 38.0969 6.3127 36.6569 6.3127C35.8569 6.3127 34.8302 6.49936 33.5769 6.8727Z"/>
<path d="M69.9938 1.75269C70.9538 2.25936 71.4338 2.89936 71.4338 3.6727C71.4338 4.1527 71.1671 4.60603 70.6338 5.0327C70.1271 5.43269 69.5537 5.7127 68.9137 5.8727L67.1537 5.99269C66.3537 6.04603 65.2737 6.12603 63.9137 6.2327C62.5537 6.3127 60.9538 6.4327 59.1138 6.5927L57.3138 13.7527C58.9938 13.486 60.3804 13.2727 61.4738 13.1127C62.5938 12.9527 63.8338 12.8194 65.1938 12.7127C66.2338 13.166 66.7538 13.7794 66.7538 14.5527C66.7538 15.0327 66.5138 15.4994 66.0338 15.9527C65.5538 16.406 65.0071 16.726 64.3937 16.9127L62.1138 17.1527C59.6871 17.4194 57.7404 17.686 56.2738 17.9527C55.9538 19.4194 55.5004 21.2727 54.9137 23.5127L54.5938 24.7527C58.1404 24.086 61.5671 23.6194 64.8737 23.3527C65.9137 23.806 66.4338 24.4194 66.4338 25.1927C66.4338 25.6727 66.1938 26.1394 65.7138 26.5927C65.2338 27.046 64.6871 27.366 64.0737 27.5527C59.0071 28.1394 55.4338 28.6327 53.3538 29.0327C53.1138 29.1927 52.5938 29.2727 51.7938 29.2727C51.0471 29.2727 50.3804 28.926 49.7938 28.2327C49.2338 27.5394 48.9538 26.8194 48.9538 26.0727C48.9538 25.7794 48.9937 25.4994 49.0737 25.2327L53.6338 7.1927H53.5138C53.4871 6.89936 53.3004 6.53936 52.9538 6.1127C52.9271 6.05936 52.8204 5.89936 52.6338 5.63269C52.4471 5.33936 52.3537 5.05936 52.3537 4.7927C52.4071 4.01936 52.9137 3.40603 53.8737 2.9527C55.8737 2.68603 58.6738 2.4327 62.2738 2.1927C65.8738 1.92603 68.4471 1.77936 69.9938 1.75269Z"/>
<path d="M92.1813 1.75269C93.1413 2.25936 93.6213 2.89936 93.6213 3.6727C93.6213 4.1527 93.3546 4.60603 92.8213 5.0327C92.3146 5.43269 91.7412 5.7127 91.1012 5.8727L89.4212 5.99269C88.6479 6.04603 87.5813 6.12603 86.2213 6.2327C84.8879 6.3127 83.2612 6.4327 81.3412 6.5927L79.9013 12.4327C81.5813 12.166 82.9679 11.9527 84.0612 11.7927C85.1812 11.6327 86.4212 11.4994 87.7812 11.3927C88.8213 11.846 89.3412 12.4594 89.3412 13.2327C89.3412 13.7127 89.1013 14.1794 88.6213 14.6327C88.1413 15.086 87.5946 15.406 86.9812 15.5927L84.7012 15.8327C82.2746 16.0994 80.3279 16.366 78.8613 16.6327C78.4346 18.4994 77.7412 21.206 76.7812 24.7527C80.3812 24.086 83.8079 23.6194 87.0612 23.3527C88.1012 23.806 88.6213 24.4194 88.6213 25.1927C88.6213 25.6727 88.3813 26.1394 87.9013 26.5927C87.4213 27.046 86.8746 27.366 86.2613 27.5527C81.1946 28.1394 77.6213 28.6327 75.5413 29.0327C75.3013 29.1927 74.7812 29.2727 73.9812 29.2727C73.2346 29.2727 72.5679 28.926 71.9812 28.2327C71.4212 27.5394 71.1413 26.8194 71.1413 26.0727C71.1413 25.7794 71.1813 25.4994 71.2613 25.2327L75.8213 7.1927H75.7012C75.6746 6.89936 75.4879 6.53936 75.1413 6.1127C75.1146 6.05936 75.0079 5.89936 74.8213 5.63269C74.6346 5.33936 74.5413 5.05936 74.5413 4.7927C74.5946 4.01936 75.1012 3.40603 76.0612 2.9527C78.0612 2.68603 80.8613 2.4327 84.4613 2.1927C88.0613 1.92603 90.6346 1.77936 92.1813 1.75269Z"/>
</mask>
<path d="M22.86 1.5127C23.82 2.01936 24.3 2.65936 24.3 3.4327C24.3 3.9127 24.0467 4.36603 23.54 4.7927C23.0333 5.1927 22.46 5.48603 21.82 5.6727L21.34 5.7127C17.9 5.89936 14.7533 6.1527 11.9 6.4727L9.66 15.4327C11.6333 15.1127 13.38 14.886 14.9 14.7527C16.42 14.6194 17.3267 14.5394 17.62 14.5127L19.18 14.3927C20.22 14.846 20.74 15.4594 20.74 16.2327C20.74 16.7127 20.5 17.1794 20.02 17.6327C19.54 18.086 18.9933 18.406 18.38 18.5927L17.78 18.6727C16.58 18.806 15.46 18.9127 14.42 18.9927C11.7 19.2327 9.76667 19.446 8.62 19.6327L6.7 27.3527C6.56667 27.9127 6.42 28.326 6.26 28.5927C6.12667 28.8327 5.87333 29.006 5.5 29.1127C5.15333 29.246 4.62 29.3127 3.9 29.3127C3.07333 29.3127 2.46 29.166 2.06 28.8727C1.68667 28.606 1.5 28.1394 1.5 27.4727C1.5 27.1794 1.54 26.8994 1.62 26.6327L7.1 4.9927C7.39333 3.81936 7.7 3.04603 8.02 2.67269C8.36667 2.2727 8.98 2.0727 9.86 2.0727C10.7933 2.0727 11.5533 2.1927 12.14 2.4327C16.06 1.92603 19.6333 1.61936 22.86 1.5127Z" fill="url(#paint0_linear_6847_242)"/>
<path d="M22.86 1.5127C23.82 2.01936 24.3 2.65936 24.3 3.4327C24.3 3.9127 24.0467 4.36603 23.54 4.7927C23.0333 5.1927 22.46 5.48603 21.82 5.6727L21.34 5.7127C17.9 5.89936 14.7533 6.1527 11.9 6.4727L9.66 15.4327C11.6333 15.1127 13.38 14.886 14.9 14.7527C16.42 14.6194 17.3267 14.5394 17.62 14.5127L19.18 14.3927C20.22 14.846 20.74 15.4594 20.74 16.2327C20.74 16.7127 20.5 17.1794 20.02 17.6327C19.54 18.086 18.9933 18.406 18.38 18.5927L17.78 18.6727C16.58 18.806 15.46 18.9127 14.42 18.9927C11.7 19.2327 9.76667 19.446 8.62 19.6327L6.7 27.3527C6.56667 27.9127 6.42 28.326 6.26 28.5927C6.12667 28.8327 5.87333 29.006 5.5 29.1127C5.15333 29.246 4.62 29.3127 3.9 29.3127C3.07333 29.3127 2.46 29.166 2.06 28.8727C1.68667 28.606 1.5 28.1394 1.5 27.4727C1.5 27.1794 1.54 26.8994 1.62 26.6327L7.1 4.9927C7.39333 3.81936 7.7 3.04603 8.02 2.67269C8.36667 2.2727 8.98 2.0727 9.86 2.0727C10.7933 2.0727 11.5533 2.1927 12.14 2.4327C16.06 1.92603 19.6333 1.61936 22.86 1.5127Z" fill="url(#paint1_linear_6847_242)"/>
<path d="M45.9369 9.1127C45.9369 11.486 45.1769 13.3927 43.6569 14.8327C42.1635 16.2727 40.2435 17.3127 37.8969 17.9527L40.2569 21.2327C42.2835 24.006 43.5769 25.8194 44.1369 26.6727C44.6969 27.4994 44.9769 28.086 44.9769 28.4327C44.9769 28.726 44.7502 28.9527 44.2969 29.1127C44.1369 29.166 43.8702 29.2594 43.4969 29.3927C43.1502 29.5527 42.8302 29.6594 42.5369 29.7127C42.2435 29.766 41.9102 29.7927 41.5369 29.7927C40.9769 29.7927 40.5502 29.726 40.2569 29.5927L33.0569 18.6727H32.4569C31.7102 18.6727 31.1635 18.6594 30.8169 18.6327C30.0169 21.5927 29.3502 24.1794 28.8169 26.3927C28.6035 27.326 28.2702 28.046 27.8169 28.5527C27.3902 29.0594 26.6835 29.3127 25.6969 29.3127C24.8702 29.3127 24.2569 29.166 23.8569 28.8727C23.4835 28.606 23.2969 28.1394 23.2969 27.4727C23.2969 27.1794 23.3369 26.8994 23.4169 26.6327L28.2569 7.9527C26.8702 8.3527 25.8169 8.89936 25.0969 9.5927C24.8035 9.2727 24.5635 8.85936 24.3769 8.3527C24.2169 7.81936 24.1369 7.29936 24.1369 6.7927C24.1369 5.96603 24.9235 5.20603 26.4969 4.51269C28.0702 3.81936 29.9369 3.2727 32.0969 2.8727C34.2569 2.44603 36.0835 2.2327 37.5769 2.2327C39.2835 2.2327 40.7635 2.57936 42.0169 3.2727C43.2969 3.93936 44.2702 4.80603 44.9369 5.8727C45.6035 6.93936 45.9369 8.01936 45.9369 9.1127ZM33.5769 6.8727C32.8035 9.96603 32.1635 12.646 31.6569 14.9127C31.9769 14.9394 32.4302 14.9527 33.0169 14.9527C34.2969 14.9527 35.5769 14.766 36.8569 14.3927C38.1369 13.9927 39.2035 13.406 40.0569 12.6327C40.9369 11.8594 41.3769 10.8994 41.3769 9.7527C41.3769 8.7127 40.9502 7.88603 40.0969 7.2727C39.2435 6.6327 38.0969 6.3127 36.6569 6.3127C35.8569 6.3127 34.8302 6.49936 33.5769 6.8727Z" fill="url(#paint2_linear_6847_242)"/>
<path d="M45.9369 9.1127C45.9369 11.486 45.1769 13.3927 43.6569 14.8327C42.1635 16.2727 40.2435 17.3127 37.8969 17.9527L40.2569 21.2327C42.2835 24.006 43.5769 25.8194 44.1369 26.6727C44.6969 27.4994 44.9769 28.086 44.9769 28.4327C44.9769 28.726 44.7502 28.9527 44.2969 29.1127C44.1369 29.166 43.8702 29.2594 43.4969 29.3927C43.1502 29.5527 42.8302 29.6594 42.5369 29.7127C42.2435 29.766 41.9102 29.7927 41.5369 29.7927C40.9769 29.7927 40.5502 29.726 40.2569 29.5927L33.0569 18.6727H32.4569C31.7102 18.6727 31.1635 18.6594 30.8169 18.6327C30.0169 21.5927 29.3502 24.1794 28.8169 26.3927C28.6035 27.326 28.2702 28.046 27.8169 28.5527C27.3902 29.0594 26.6835 29.3127 25.6969 29.3127C24.8702 29.3127 24.2569 29.166 23.8569 28.8727C23.4835 28.606 23.2969 28.1394 23.2969 27.4727C23.2969 27.1794 23.3369 26.8994 23.4169 26.6327L28.2569 7.9527C26.8702 8.3527 25.8169 8.89936 25.0969 9.5927C24.8035 9.2727 24.5635 8.85936 24.3769 8.3527C24.2169 7.81936 24.1369 7.29936 24.1369 6.7927C24.1369 5.96603 24.9235 5.20603 26.4969 4.51269C28.0702 3.81936 29.9369 3.2727 32.0969 2.8727C34.2569 2.44603 36.0835 2.2327 37.5769 2.2327C39.2835 2.2327 40.7635 2.57936 42.0169 3.2727C43.2969 3.93936 44.2702 4.80603 44.9369 5.8727C45.6035 6.93936 45.9369 8.01936 45.9369 9.1127ZM33.5769 6.8727C32.8035 9.96603 32.1635 12.646 31.6569 14.9127C31.9769 14.9394 32.4302 14.9527 33.0169 14.9527C34.2969 14.9527 35.5769 14.766 36.8569 14.3927C38.1369 13.9927 39.2035 13.406 40.0569 12.6327C40.9369 11.8594 41.3769 10.8994 41.3769 9.7527C41.3769 8.7127 40.9502 7.88603 40.0969 7.2727C39.2435 6.6327 38.0969 6.3127 36.6569 6.3127C35.8569 6.3127 34.8302 6.49936 33.5769 6.8727Z" fill="url(#paint3_linear_6847_242)"/>
<path d="M69.9938 1.75269C70.9538 2.25936 71.4338 2.89936 71.4338 3.6727C71.4338 4.1527 71.1671 4.60603 70.6338 5.0327C70.1271 5.43269 69.5537 5.7127 68.9137 5.8727L67.1537 5.99269C66.3537 6.04603 65.2737 6.12603 63.9137 6.2327C62.5537 6.3127 60.9538 6.4327 59.1138 6.5927L57.3138 13.7527C58.9938 13.486 60.3804 13.2727 61.4738 13.1127C62.5938 12.9527 63.8338 12.8194 65.1938 12.7127C66.2338 13.166 66.7538 13.7794 66.7538 14.5527C66.7538 15.0327 66.5138 15.4994 66.0338 15.9527C65.5538 16.406 65.0071 16.726 64.3937 16.9127L62.1138 17.1527C59.6871 17.4194 57.7404 17.686 56.2738 17.9527C55.9538 19.4194 55.5004 21.2727 54.9137 23.5127L54.5938 24.7527C58.1404 24.086 61.5671 23.6194 64.8737 23.3527C65.9137 23.806 66.4338 24.4194 66.4338 25.1927C66.4338 25.6727 66.1938 26.1394 65.7138 26.5927C65.2338 27.046 64.6871 27.366 64.0737 27.5527C59.0071 28.1394 55.4338 28.6327 53.3538 29.0327C53.1138 29.1927 52.5938 29.2727 51.7938 29.2727C51.0471 29.2727 50.3804 28.926 49.7938 28.2327C49.2338 27.5394 48.9538 26.8194 48.9538 26.0727C48.9538 25.7794 48.9937 25.4994 49.0737 25.2327L53.6338 7.1927H53.5138C53.4871 6.89936 53.3004 6.53936 52.9538 6.1127C52.9271 6.05936 52.8204 5.89936 52.6338 5.63269C52.4471 5.33936 52.3537 5.05936 52.3537 4.7927C52.4071 4.01936 52.9137 3.40603 53.8737 2.9527C55.8737 2.68603 58.6738 2.4327 62.2738 2.1927C65.8738 1.92603 68.4471 1.77936 69.9938 1.75269Z" fill="url(#paint4_linear_6847_242)"/>
<path d="M69.9938 1.75269C70.9538 2.25936 71.4338 2.89936 71.4338 3.6727C71.4338 4.1527 71.1671 4.60603 70.6338 5.0327C70.1271 5.43269 69.5537 5.7127 68.9137 5.8727L67.1537 5.99269C66.3537 6.04603 65.2737 6.12603 63.9137 6.2327C62.5537 6.3127 60.9538 6.4327 59.1138 6.5927L57.3138 13.7527C58.9938 13.486 60.3804 13.2727 61.4738 13.1127C62.5938 12.9527 63.8338 12.8194 65.1938 12.7127C66.2338 13.166 66.7538 13.7794 66.7538 14.5527C66.7538 15.0327 66.5138 15.4994 66.0338 15.9527C65.5538 16.406 65.0071 16.726 64.3937 16.9127L62.1138 17.1527C59.6871 17.4194 57.7404 17.686 56.2738 17.9527C55.9538 19.4194 55.5004 21.2727 54.9137 23.5127L54.5938 24.7527C58.1404 24.086 61.5671 23.6194 64.8737 23.3527C65.9137 23.806 66.4338 24.4194 66.4338 25.1927C66.4338 25.6727 66.1938 26.1394 65.7138 26.5927C65.2338 27.046 64.6871 27.366 64.0737 27.5527C59.0071 28.1394 55.4338 28.6327 53.3538 29.0327C53.1138 29.1927 52.5938 29.2727 51.7938 29.2727C51.0471 29.2727 50.3804 28.926 49.7938 28.2327C49.2338 27.5394 48.9538 26.8194 48.9538 26.0727C48.9538 25.7794 48.9937 25.4994 49.0737 25.2327L53.6338 7.1927H53.5138C53.4871 6.89936 53.3004 6.53936 52.9538 6.1127C52.9271 6.05936 52.8204 5.89936 52.6338 5.63269C52.4471 5.33936 52.3537 5.05936 52.3537 4.7927C52.4071 4.01936 52.9137 3.40603 53.8737 2.9527C55.8737 2.68603 58.6738 2.4327 62.2738 2.1927C65.8738 1.92603 68.4471 1.77936 69.9938 1.75269Z" fill="url(#paint5_linear_6847_242)"/>
<path d="M92.1813 1.75269C93.1413 2.25936 93.6213 2.89936 93.6213 3.6727C93.6213 4.1527 93.3546 4.60603 92.8213 5.0327C92.3146 5.43269 91.7412 5.7127 91.1012 5.8727L89.4212 5.99269C88.6479 6.04603 87.5813 6.12603 86.2213 6.2327C84.8879 6.3127 83.2612 6.4327 81.3412 6.5927L79.9013 12.4327C81.5813 12.166 82.9679 11.9527 84.0612 11.7927C85.1812 11.6327 86.4212 11.4994 87.7812 11.3927C88.8213 11.846 89.3412 12.4594 89.3412 13.2327C89.3412 13.7127 89.1013 14.1794 88.6213 14.6327C88.1413 15.086 87.5946 15.406 86.9812 15.5927L84.7012 15.8327C82.2746 16.0994 80.3279 16.366 78.8613 16.6327C78.4346 18.4994 77.7412 21.206 76.7812 24.7527C80.3812 24.086 83.8079 23.6194 87.0612 23.3527C88.1012 23.806 88.6213 24.4194 88.6213 25.1927C88.6213 25.6727 88.3813 26.1394 87.9013 26.5927C87.4213 27.046 86.8746 27.366 86.2613 27.5527C81.1946 28.1394 77.6213 28.6327 75.5413 29.0327C75.3013 29.1927 74.7812 29.2727 73.9812 29.2727C73.2346 29.2727 72.5679 28.926 71.9812 28.2327C71.4212 27.5394 71.1413 26.8194 71.1413 26.0727C71.1413 25.7794 71.1813 25.4994 71.2613 25.2327L75.8213 7.1927H75.7012C75.6746 6.89936 75.4879 6.53936 75.1413 6.1127C75.1146 6.05936 75.0079 5.89936 74.8213 5.63269C74.6346 5.33936 74.5413 5.05936 74.5413 4.7927C74.5946 4.01936 75.1012 3.40603 76.0612 2.9527C78.0612 2.68603 80.8613 2.4327 84.4613 2.1927C88.0613 1.92603 90.6346 1.77936 92.1813 1.75269Z" fill="url(#paint6_linear_6847_242)"/>
<path d="M92.1813 1.75269C93.1413 2.25936 93.6213 2.89936 93.6213 3.6727C93.6213 4.1527 93.3546 4.60603 92.8213 5.0327C92.3146 5.43269 91.7412 5.7127 91.1012 5.8727L89.4212 5.99269C88.6479 6.04603 87.5813 6.12603 86.2213 6.2327C84.8879 6.3127 83.2612 6.4327 81.3412 6.5927L79.9013 12.4327C81.5813 12.166 82.9679 11.9527 84.0612 11.7927C85.1812 11.6327 86.4212 11.4994 87.7812 11.3927C88.8213 11.846 89.3412 12.4594 89.3412 13.2327C89.3412 13.7127 89.1013 14.1794 88.6213 14.6327C88.1413 15.086 87.5946 15.406 86.9812 15.5927L84.7012 15.8327C82.2746 16.0994 80.3279 16.366 78.8613 16.6327C78.4346 18.4994 77.7412 21.206 76.7812 24.7527C80.3812 24.086 83.8079 23.6194 87.0612 23.3527C88.1012 23.806 88.6213 24.4194 88.6213 25.1927C88.6213 25.6727 88.3813 26.1394 87.9013 26.5927C87.4213 27.046 86.8746 27.366 86.2613 27.5527C81.1946 28.1394 77.6213 28.6327 75.5413 29.0327C75.3013 29.1927 74.7812 29.2727 73.9812 29.2727C73.2346 29.2727 72.5679 28.926 71.9812 28.2327C71.4212 27.5394 71.1413 26.8194 71.1413 26.0727C71.1413 25.7794 71.1813 25.4994 71.2613 25.2327L75.8213 7.1927H75.7012C75.6746 6.89936 75.4879 6.53936 75.1413 6.1127C75.1146 6.05936 75.0079 5.89936 74.8213 5.63269C74.6346 5.33936 74.5413 5.05936 74.5413 4.7927C74.5946 4.01936 75.1012 3.40603 76.0612 2.9527C78.0612 2.68603 80.8613 2.4327 84.4613 2.1927C88.0613 1.92603 90.6346 1.77936 92.1813 1.75269Z" fill="url(#paint7_linear_6847_242)"/>
<path d="M22.86 1.5127C23.82 2.01936 24.3 2.65936 24.3 3.4327C24.3 3.9127 24.0467 4.36603 23.54 4.7927C23.0333 5.1927 22.46 5.48603 21.82 5.6727L21.34 5.7127C17.9 5.89936 14.7533 6.1527 11.9 6.4727L9.66 15.4327C11.6333 15.1127 13.38 14.886 14.9 14.7527C16.42 14.6194 17.3267 14.5394 17.62 14.5127L19.18 14.3927C20.22 14.846 20.74 15.4594 20.74 16.2327C20.74 16.7127 20.5 17.1794 20.02 17.6327C19.54 18.086 18.9933 18.406 18.38 18.5927L17.78 18.6727C16.58 18.806 15.46 18.9127 14.42 18.9927C11.7 19.2327 9.76667 19.446 8.62 19.6327L6.7 27.3527C6.56667 27.9127 6.42 28.326 6.26 28.5927C6.12667 28.8327 5.87333 29.006 5.5 29.1127C5.15333 29.246 4.62 29.3127 3.9 29.3127C3.07333 29.3127 2.46 29.166 2.06 28.8727C1.68667 28.606 1.5 28.1394 1.5 27.4727C1.5 27.1794 1.54 26.8994 1.62 26.6327L7.1 4.9927C7.39333 3.81936 7.7 3.04603 8.02 2.67269C8.36667 2.2727 8.98 2.0727 9.86 2.0727C10.7933 2.0727 11.5533 2.1927 12.14 2.4327C16.06 1.92603 19.6333 1.61936 22.86 1.5127Z" stroke="url(#paint8_linear_6847_242)" stroke-width="3" mask="url(#path-1-outside-1_6847_242)"/>
<path d="M22.86 1.5127C23.82 2.01936 24.3 2.65936 24.3 3.4327C24.3 3.9127 24.0467 4.36603 23.54 4.7927C23.0333 5.1927 22.46 5.48603 21.82 5.6727L21.34 5.7127C17.9 5.89936 14.7533 6.1527 11.9 6.4727L9.66 15.4327C11.6333 15.1127 13.38 14.886 14.9 14.7527C16.42 14.6194 17.3267 14.5394 17.62 14.5127L19.18 14.3927C20.22 14.846 20.74 15.4594 20.74 16.2327C20.74 16.7127 20.5 17.1794 20.02 17.6327C19.54 18.086 18.9933 18.406 18.38 18.5927L17.78 18.6727C16.58 18.806 15.46 18.9127 14.42 18.9927C11.7 19.2327 9.76667 19.446 8.62 19.6327L6.7 27.3527C6.56667 27.9127 6.42 28.326 6.26 28.5927C6.12667 28.8327 5.87333 29.006 5.5 29.1127C5.15333 29.246 4.62 29.3127 3.9 29.3127C3.07333 29.3127 2.46 29.166 2.06 28.8727C1.68667 28.606 1.5 28.1394 1.5 27.4727C1.5 27.1794 1.54 26.8994 1.62 26.6327L7.1 4.9927C7.39333 3.81936 7.7 3.04603 8.02 2.67269C8.36667 2.2727 8.98 2.0727 9.86 2.0727C10.7933 2.0727 11.5533 2.1927 12.14 2.4327C16.06 1.92603 19.6333 1.61936 22.86 1.5127Z" stroke="url(#paint9_linear_6847_242)" stroke-width="3" mask="url(#path-1-outside-1_6847_242)"/>
<path d="M45.9369 9.1127C45.9369 11.486 45.1769 13.3927 43.6569 14.8327C42.1635 16.2727 40.2435 17.3127 37.8969 17.9527L40.2569 21.2327C42.2835 24.006 43.5769 25.8194 44.1369 26.6727C44.6969 27.4994 44.9769 28.086 44.9769 28.4327C44.9769 28.726 44.7502 28.9527 44.2969 29.1127C44.1369 29.166 43.8702 29.2594 43.4969 29.3927C43.1502 29.5527 42.8302 29.6594 42.5369 29.7127C42.2435 29.766 41.9102 29.7927 41.5369 29.7927C40.9769 29.7927 40.5502 29.726 40.2569 29.5927L33.0569 18.6727H32.4569C31.7102 18.6727 31.1635 18.6594 30.8169 18.6327C30.0169 21.5927 29.3502 24.1794 28.8169 26.3927C28.6035 27.326 28.2702 28.046 27.8169 28.5527C27.3902 29.0594 26.6835 29.3127 25.6969 29.3127C24.8702 29.3127 24.2569 29.166 23.8569 28.8727C23.4835 28.606 23.2969 28.1394 23.2969 27.4727C23.2969 27.1794 23.3369 26.8994 23.4169 26.6327L28.2569 7.9527C26.8702 8.3527 25.8169 8.89936 25.0969 9.5927C24.8035 9.2727 24.5635 8.85936 24.3769 8.3527C24.2169 7.81936 24.1369 7.29936 24.1369 6.7927C24.1369 5.96603 24.9235 5.20603 26.4969 4.51269C28.0702 3.81936 29.9369 3.2727 32.0969 2.8727C34.2569 2.44603 36.0835 2.2327 37.5769 2.2327C39.2835 2.2327 40.7635 2.57936 42.0169 3.2727C43.2969 3.93936 44.2702 4.80603 44.9369 5.8727C45.6035 6.93936 45.9369 8.01936 45.9369 9.1127ZM33.5769 6.8727C32.8035 9.96603 32.1635 12.646 31.6569 14.9127C31.9769 14.9394 32.4302 14.9527 33.0169 14.9527C34.2969 14.9527 35.5769 14.766 36.8569 14.3927C38.1369 13.9927 39.2035 13.406 40.0569 12.6327C40.9369 11.8594 41.3769 10.8994 41.3769 9.7527C41.3769 8.7127 40.9502 7.88603 40.0969 7.2727C39.2435 6.6327 38.0969 6.3127 36.6569 6.3127C35.8569 6.3127 34.8302 6.49936 33.5769 6.8727Z" stroke="url(#paint10_linear_6847_242)" stroke-width="3" mask="url(#path-1-outside-1_6847_242)"/>
<path d="M45.9369 9.1127C45.9369 11.486 45.1769 13.3927 43.6569 14.8327C42.1635 16.2727 40.2435 17.3127 37.8969 17.9527L40.2569 21.2327C42.2835 24.006 43.5769 25.8194 44.1369 26.6727C44.6969 27.4994 44.9769 28.086 44.9769 28.4327C44.9769 28.726 44.7502 28.9527 44.2969 29.1127C44.1369 29.166 43.8702 29.2594 43.4969 29.3927C43.1502 29.5527 42.8302 29.6594 42.5369 29.7127C42.2435 29.766 41.9102 29.7927 41.5369 29.7927C40.9769 29.7927 40.5502 29.726 40.2569 29.5927L33.0569 18.6727H32.4569C31.7102 18.6727 31.1635 18.6594 30.8169 18.6327C30.0169 21.5927 29.3502 24.1794 28.8169 26.3927C28.6035 27.326 28.2702 28.046 27.8169 28.5527C27.3902 29.0594 26.6835 29.3127 25.6969 29.3127C24.8702 29.3127 24.2569 29.166 23.8569 28.8727C23.4835 28.606 23.2969 28.1394 23.2969 27.4727C23.2969 27.1794 23.3369 26.8994 23.4169 26.6327L28.2569 7.9527C26.8702 8.3527 25.8169 8.89936 25.0969 9.5927C24.8035 9.2727 24.5635 8.85936 24.3769 8.3527C24.2169 7.81936 24.1369 7.29936 24.1369 6.7927C24.1369 5.96603 24.9235 5.20603 26.4969 4.51269C28.0702 3.81936 29.9369 3.2727 32.0969 2.8727C34.2569 2.44603 36.0835 2.2327 37.5769 2.2327C39.2835 2.2327 40.7635 2.57936 42.0169 3.2727C43.2969 3.93936 44.2702 4.80603 44.9369 5.8727C45.6035 6.93936 45.9369 8.01936 45.9369 9.1127ZM33.5769 6.8727C32.8035 9.96603 32.1635 12.646 31.6569 14.9127C31.9769 14.9394 32.4302 14.9527 33.0169 14.9527C34.2969 14.9527 35.5769 14.766 36.8569 14.3927C38.1369 13.9927 39.2035 13.406 40.0569 12.6327C40.9369 11.8594 41.3769 10.8994 41.3769 9.7527C41.3769 8.7127 40.9502 7.88603 40.0969 7.2727C39.2435 6.6327 38.0969 6.3127 36.6569 6.3127C35.8569 6.3127 34.8302 6.49936 33.5769 6.8727Z" stroke="url(#paint11_linear_6847_242)" stroke-width="3" mask="url(#path-1-outside-1_6847_242)"/>
<path d="M69.9938 1.75269C70.9538 2.25936 71.4338 2.89936 71.4338 3.6727C71.4338 4.1527 71.1671 4.60603 70.6338 5.0327C70.1271 5.43269 69.5537 5.7127 68.9137 5.8727L67.1537 5.99269C66.3537 6.04603 65.2737 6.12603 63.9137 6.2327C62.5537 6.3127 60.9538 6.4327 59.1138 6.5927L57.3138 13.7527C58.9938 13.486 60.3804 13.2727 61.4738 13.1127C62.5938 12.9527 63.8338 12.8194 65.1938 12.7127C66.2338 13.166 66.7538 13.7794 66.7538 14.5527C66.7538 15.0327 66.5138 15.4994 66.0338 15.9527C65.5538 16.406 65.0071 16.726 64.3937 16.9127L62.1138 17.1527C59.6871 17.4194 57.7404 17.686 56.2738 17.9527C55.9538 19.4194 55.5004 21.2727 54.9137 23.5127L54.5938 24.7527C58.1404 24.086 61.5671 23.6194 64.8737 23.3527C65.9137 23.806 66.4338 24.4194 66.4338 25.1927C66.4338 25.6727 66.1938 26.1394 65.7138 26.5927C65.2338 27.046 64.6871 27.366 64.0737 27.5527C59.0071 28.1394 55.4338 28.6327 53.3538 29.0327C53.1138 29.1927 52.5938 29.2727 51.7938 29.2727C51.0471 29.2727 50.3804 28.926 49.7938 28.2327C49.2338 27.5394 48.9538 26.8194 48.9538 26.0727C48.9538 25.7794 48.9937 25.4994 49.0737 25.2327L53.6338 7.1927H53.5138C53.4871 6.89936 53.3004 6.53936 52.9538 6.1127C52.9271 6.05936 52.8204 5.89936 52.6338 5.63269C52.4471 5.33936 52.3537 5.05936 52.3537 4.7927C52.4071 4.01936 52.9137 3.40603 53.8737 2.9527C55.8737 2.68603 58.6738 2.4327 62.2738 2.1927C65.8738 1.92603 68.4471 1.77936 69.9938 1.75269Z" stroke="url(#paint12_linear_6847_242)" stroke-width="3" mask="url(#path-1-outside-1_6847_242)"/>
<path d="M69.9938 1.75269C70.9538 2.25936 71.4338 2.89936 71.4338 3.6727C71.4338 4.1527 71.1671 4.60603 70.6338 5.0327C70.1271 5.43269 69.5537 5.7127 68.9137 5.8727L67.1537 5.99269C66.3537 6.04603 65.2737 6.12603 63.9137 6.2327C62.5537 6.3127 60.9538 6.4327 59.1138 6.5927L57.3138 13.7527C58.9938 13.486 60.3804 13.2727 61.4738 13.1127C62.5938 12.9527 63.8338 12.8194 65.1938 12.7127C66.2338 13.166 66.7538 13.7794 66.7538 14.5527C66.7538 15.0327 66.5138 15.4994 66.0338 15.9527C65.5538 16.406 65.0071 16.726 64.3937 16.9127L62.1138 17.1527C59.6871 17.4194 57.7404 17.686 56.2738 17.9527C55.9538 19.4194 55.5004 21.2727 54.9137 23.5127L54.5938 24.7527C58.1404 24.086 61.5671 23.6194 64.8737 23.3527C65.9137 23.806 66.4338 24.4194 66.4338 25.1927C66.4338 25.6727 66.1938 26.1394 65.7138 26.5927C65.2338 27.046 64.6871 27.366 64.0737 27.5527C59.0071 28.1394 55.4338 28.6327 53.3538 29.0327C53.1138 29.1927 52.5938 29.2727 51.7938 29.2727C51.0471 29.2727 50.3804 28.926 49.7938 28.2327C49.2338 27.5394 48.9538 26.8194 48.9538 26.0727C48.9538 25.7794 48.9937 25.4994 49.0737 25.2327L53.6338 7.1927H53.5138C53.4871 6.89936 53.3004 6.53936 52.9538 6.1127C52.9271 6.05936 52.8204 5.89936 52.6338 5.63269C52.4471 5.33936 52.3537 5.05936 52.3537 4.7927C52.4071 4.01936 52.9137 3.40603 53.8737 2.9527C55.8737 2.68603 58.6738 2.4327 62.2738 2.1927C65.8738 1.92603 68.4471 1.77936 69.9938 1.75269Z" stroke="url(#paint13_linear_6847_242)" stroke-width="3" mask="url(#path-1-outside-1_6847_242)"/>
<path d="M92.1813 1.75269C93.1413 2.25936 93.6213 2.89936 93.6213 3.6727C93.6213 4.1527 93.3546 4.60603 92.8213 5.0327C92.3146 5.43269 91.7412 5.7127 91.1012 5.8727L89.4212 5.99269C88.6479 6.04603 87.5813 6.12603 86.2213 6.2327C84.8879 6.3127 83.2612 6.4327 81.3412 6.5927L79.9013 12.4327C81.5813 12.166 82.9679 11.9527 84.0612 11.7927C85.1812 11.6327 86.4212 11.4994 87.7812 11.3927C88.8213 11.846 89.3412 12.4594 89.3412 13.2327C89.3412 13.7127 89.1013 14.1794 88.6213 14.6327C88.1413 15.086 87.5946 15.406 86.9812 15.5927L84.7012 15.8327C82.2746 16.0994 80.3279 16.366 78.8613 16.6327C78.4346 18.4994 77.7412 21.206 76.7812 24.7527C80.3812 24.086 83.8079 23.6194 87.0612 23.3527C88.1012 23.806 88.6213 24.4194 88.6213 25.1927C88.6213 25.6727 88.3813 26.1394 87.9013 26.5927C87.4213 27.046 86.8746 27.366 86.2613 27.5527C81.1946 28.1394 77.6213 28.6327 75.5413 29.0327C75.3013 29.1927 74.7812 29.2727 73.9812 29.2727C73.2346 29.2727 72.5679 28.926 71.9812 28.2327C71.4212 27.5394 71.1413 26.8194 71.1413 26.0727C71.1413 25.7794 71.1813 25.4994 71.2613 25.2327L75.8213 7.1927H75.7012C75.6746 6.89936 75.4879 6.53936 75.1413 6.1127C75.1146 6.05936 75.0079 5.89936 74.8213 5.63269C74.6346 5.33936 74.5413 5.05936 74.5413 4.7927C74.5946 4.01936 75.1012 3.40603 76.0612 2.9527C78.0612 2.68603 80.8613 2.4327 84.4613 2.1927C88.0613 1.92603 90.6346 1.77936 92.1813 1.75269Z" stroke="url(#paint14_linear_6847_242)" stroke-width="3" mask="url(#path-1-outside-1_6847_242)"/>
<path d="M92.1813 1.75269C93.1413 2.25936 93.6213 2.89936 93.6213 3.6727C93.6213 4.1527 93.3546 4.60603 92.8213 5.0327C92.3146 5.43269 91.7412 5.7127 91.1012 5.8727L89.4212 5.99269C88.6479 6.04603 87.5813 6.12603 86.2213 6.2327C84.8879 6.3127 83.2612 6.4327 81.3412 6.5927L79.9013 12.4327C81.5813 12.166 82.9679 11.9527 84.0612 11.7927C85.1812 11.6327 86.4212 11.4994 87.7812 11.3927C88.8213 11.846 89.3412 12.4594 89.3412 13.2327C89.3412 13.7127 89.1013 14.1794 88.6213 14.6327C88.1413 15.086 87.5946 15.406 86.9812 15.5927L84.7012 15.8327C82.2746 16.0994 80.3279 16.366 78.8613 16.6327C78.4346 18.4994 77.7412 21.206 76.7812 24.7527C80.3812 24.086 83.8079 23.6194 87.0612 23.3527C88.1012 23.806 88.6213 24.4194 88.6213 25.1927C88.6213 25.6727 88.3813 26.1394 87.9013 26.5927C87.4213 27.046 86.8746 27.366 86.2613 27.5527C81.1946 28.1394 77.6213 28.6327 75.5413 29.0327C75.3013 29.1927 74.7812 29.2727 73.9812 29.2727C73.2346 29.2727 72.5679 28.926 71.9812 28.2327C71.4212 27.5394 71.1413 26.8194 71.1413 26.0727C71.1413 25.7794 71.1813 25.4994 71.2613 25.2327L75.8213 7.1927H75.7012C75.6746 6.89936 75.4879 6.53936 75.1413 6.1127C75.1146 6.05936 75.0079 5.89936 74.8213 5.63269C74.6346 5.33936 74.5413 5.05936 74.5413 4.7927C74.5946 4.01936 75.1012 3.40603 76.0612 2.9527C78.0612 2.68603 80.8613 2.4327 84.4613 2.1927C88.0613 1.92603 90.6346 1.77936 92.1813 1.75269Z" stroke="url(#paint15_linear_6847_242)" stroke-width="3" mask="url(#path-1-outside-1_6847_242)"/>
<defs>
<linearGradient id="paint0_linear_6847_242" x1="24.6396" y1="19.793" x2="85.6396" y2="-3.70703" gradientUnits="userSpaceOnUse">
<stop stop-color="#2BE1B7"/>
<stop offset="1" stop-color="#2430F0"/>
</linearGradient>
<linearGradient id="paint1_linear_6847_242" x1="46.6396" y1="-0.207031" x2="52.1396" y2="35.293" gradientUnits="userSpaceOnUse">
<stop stop-color="#00CECB" stop-opacity="0.5"/>
<stop offset="1" stop-color="#F2C79C"/>
</linearGradient>
<linearGradient id="paint2_linear_6847_242" x1="24.6396" y1="19.793" x2="85.6396" y2="-3.70703" gradientUnits="userSpaceOnUse">
<stop stop-color="#2BE1B7"/>
<stop offset="1" stop-color="#2430F0"/>
</linearGradient>
<linearGradient id="paint3_linear_6847_242" x1="46.6396" y1="-0.207031" x2="52.1396" y2="35.293" gradientUnits="userSpaceOnUse">
<stop stop-color="#00CECB" stop-opacity="0.5"/>
<stop offset="1" stop-color="#F2C79C"/>
</linearGradient>
<linearGradient id="paint4_linear_6847_242" x1="24.6396" y1="19.793" x2="85.6396" y2="-3.70703" gradientUnits="userSpaceOnUse">
<stop stop-color="#2BE1B7"/>
<stop offset="1" stop-color="#2430F0"/>
</linearGradient>
<linearGradient id="paint5_linear_6847_242" x1="46.6396" y1="-0.207031" x2="52.1396" y2="35.293" gradientUnits="userSpaceOnUse">
<stop stop-color="#00CECB" stop-opacity="0.5"/>
<stop offset="1" stop-color="#F2C79C"/>
</linearGradient>
<linearGradient id="paint6_linear_6847_242" x1="24.6396" y1="19.793" x2="85.6396" y2="-3.70703" gradientUnits="userSpaceOnUse">
<stop stop-color="#2BE1B7"/>
<stop offset="1" stop-color="#2430F0"/>
</linearGradient>
<linearGradient id="paint7_linear_6847_242" x1="46.6396" y1="-0.207031" x2="52.1396" y2="35.293" gradientUnits="userSpaceOnUse">
<stop stop-color="#00CECB" stop-opacity="0.5"/>
<stop offset="1" stop-color="#F2C79C"/>
</linearGradient>
<linearGradient id="paint8_linear_6847_242" x1="24.6396" y1="19.793" x2="85.6396" y2="-3.70703" gradientUnits="userSpaceOnUse">
<stop stop-color="#2BE1B7"/>
<stop offset="1" stop-color="#2430F0"/>
</linearGradient>
<linearGradient id="paint9_linear_6847_242" x1="46.6396" y1="-0.207031" x2="52.1396" y2="35.293" gradientUnits="userSpaceOnUse">
<stop stop-color="#00CECB" stop-opacity="0.5"/>
<stop offset="1" stop-color="#F2C79C"/>
</linearGradient>
<linearGradient id="paint10_linear_6847_242" x1="24.6396" y1="19.793" x2="85.6396" y2="-3.70703" gradientUnits="userSpaceOnUse">
<stop stop-color="#2BE1B7"/>
<stop offset="1" stop-color="#2430F0"/>
</linearGradient>
<linearGradient id="paint11_linear_6847_242" x1="46.6396" y1="-0.207031" x2="52.1396" y2="35.293" gradientUnits="userSpaceOnUse">
<stop stop-color="#00CECB" stop-opacity="0.5"/>
<stop offset="1" stop-color="#F2C79C"/>
</linearGradient>
<linearGradient id="paint12_linear_6847_242" x1="24.6396" y1="19.793" x2="85.6396" y2="-3.70703" gradientUnits="userSpaceOnUse">
<stop stop-color="#2BE1B7"/>
<stop offset="1" stop-color="#2430F0"/>
</linearGradient>
<linearGradient id="paint13_linear_6847_242" x1="46.6396" y1="-0.207031" x2="52.1396" y2="35.293" gradientUnits="userSpaceOnUse">
<stop stop-color="#00CECB" stop-opacity="0.5"/>
<stop offset="1" stop-color="#F2C79C"/>
</linearGradient>
<linearGradient id="paint14_linear_6847_242" x1="24.6396" y1="19.793" x2="85.6396" y2="-3.70703" gradientUnits="userSpaceOnUse">
<stop stop-color="#2BE1B7"/>
<stop offset="1" stop-color="#2430F0"/>
</linearGradient>
<linearGradient id="paint15_linear_6847_242" x1="46.6396" y1="-0.207031" x2="52.1396" y2="35.293" gradientUnits="userSpaceOnUse">
<stop stop-color="#00CECB" stop-opacity="0.5"/>
<stop offset="1" stop-color="#F2C79C"/>
</linearGradient>
</defs>
</svg>
