<svg height="1em" style="flex:none;line-height:1" viewBox="0 0 24 24" width="1em" xmlns="http://www.w3.org/2000/svg"><title>Groq</title><circle cx="12" cy="12" r="12" fill="#F55036"/><path d="M10.08 6.24c-2.52.48-4.2 2.88-3.72 5.4.48 2.52 2.88 4.2 5.4 3.72.96-.18 1.8-.66 2.4-1.32v1.08c0 .48-.18.96-.48 1.32-.72.84-1.98 1.02-2.94.42l-.06-.06c-.36-.24-.84-.18-1.08.18-.24.36-.18.84.18 1.08 1.62 1.08 3.78.72 4.98-.84.54-.72.84-1.56.84-2.46V9.6c0-.06 0-.12-.06-.18-.12-.36-.48-.54-.84-.42-.12.06-.24.12-.3.24-.6-.6-1.38-.96-2.22-1.08-.72-.06-1.44 0-2.1.18v-.12.02zm-.36 1.44c1.86-.6 3.84.42 4.44 2.28s-.42 3.84-2.28 4.44c-1.86.6-3.84-.42-4.44-2.28-.6-1.86.42-3.84 2.28-4.44z" fill="#FFFFFF"/></svg>