<svg height="1em" style="flex:none;line-height:1" viewBox="0 0 24 24" width="1em" xmlns="http://www.w3.org/2000/svg"><title>Codex CLI</title><path d="M12 2.25 2.625 5.062v6.376C2.625 17.063 6.5 20.062 12 21.75c5.5-1.688 9.375-4.687 9.375-10.313V5.063L12 2.25Zm0 1.563 7.875 2.36v5.265c0 4.75-3.187 7.187-7.875 8.625-4.688-1.438-7.875-3.875-7.875-8.625V6.172L12 3.813Z" fill="#10A37F"/><path d="M9.469 9.094 7.219 11.5l2.25 2.406-.844.844L5.531 11.5l3.094-3.25.844.844Zm5.062 0-.843.844L15.937 11.5l-3.187 3.25.844.844 3.094-3.25-3.094-3.25-.063-.063h-.094l.094.063Zm-1.875-.469-2.062 5.969 1.125.375 2.062-5.969-1.125-.375Z" fill="#10A37F"/></svg>
