<svg height="1em" style="flex:none;line-height:1" viewBox="0 0 24 24" width="1em" xmlns="http://www.w3.org/2000/svg"><title>Alibaba</title><path d="M24 14.014c-2.8 1.512-5.62 2.896-8.759 3.524-.7.139-1.476.139-2.187.043-.678-.085-1.017-.682-.776-1.31.23-.585.536-1.181.93-1.671.852-1.065 1.814-2.034 2.678-3.088a15.75 15.75 0 001.422-2.054c.306-.511.164-1.129-.372-1.384-.897-.437-1.859-.745-2.81-1.075-.11-.043-.274.074-.492.149.273.244.47.425.743.67-2.821.48-5.49 1.16-8.08 2.098-.012.053-.033.095-.023.117.383.585.208 1.032-.35 1.394a2.365 2.365 0 00-.568.522c1.706.5 3.226.213 4.68-.735-.087-.127-.175-.244-.262-.372.546.096.874.394.918.862.011.107-.054.213-.087.32-.077-.086-.175-.17-.24-.267-.045-.064-.056-.138-.088-.245-1.728 1.15-3.587 1.438-5.632.842 0 .404-.022.745.011 1.075.022.287-.098.415-.36.564-.591.362-1.204.735-1.696 1.214-.59.585-.371 1.299.427 1.597.907.34 1.859.35 2.81.234 1.126-.139 2.23-.32 3.456-.49-1.433.67-2.844 1.14-4.33 1.33-1.04.14-2.078.214-3.106-.084-1.476-.415-2.133-1.501-1.75-2.96.361-1.363 1.236-2.449 2.176-3.45 3.139-3.332 7.108-5.024 11.7-5.365 1.072-.074 2.155.064 3.16.511 1.411.639 2.002 1.99 1.313 3.354-.448.905-1.072 1.735-1.695 2.555-.612.809-1.301 1.554-1.946 2.331-.186.234-.361.48-.503.745-.274.5-.088.83.492.778 1.213-.118 2.45-.213 3.62-.511 1.716-.437 3.389-1.054 5.084-1.597.175-.043.339-.107.492-.17z" fill="#FF6003" fill-rule="evenodd"></path></svg>