<svg width="16" height="16" viewBox="0 0 16 16" fill="none" xmlns="http://www.w3.org/2000/svg">
<rect width="16" height="16" rx="4" fill="white"/>
<g clip-path="url(#clip0_5874_256)">
<mask id="mask0_5874_256" style="mask-type:luminance" maskUnits="userSpaceOnUse" x="3" y="1" width="10" height="14">
<path d="M12.5 1H3.5V14.981H12.5V1Z" fill="white"/>
</mask>
<g mask="url(#mask0_5874_256)">
<path fill-rule="evenodd" clip-rule="evenodd" d="M7.80975 1.00982C5.98657 1.19203 5.92236 3.93013 7.7341 4.23654C7.8162 4.25041 7.8422 4.25771 7.8441 4.26738C7.84545 4.27433 7.83885 4.4124 7.82942 4.57419C7.82002 4.736 7.80815 5.05412 7.80307 5.28116C7.798 5.50818 7.79205 5.69525 7.78985 5.69687C7.78767 5.6985 7.75805 5.71366 7.72405 5.73063C7.66037 5.76238 7.5766 5.83211 7.5429 5.88141C7.52402 5.90905 7.52402 5.90905 7.40805 5.91291C7.22492 5.91897 7.11332 5.9644 7.01197 6.07404C6.98387 6.10442 6.95815 6.12598 6.95472 6.12197C6.95132 6.11796 6.84565 5.96008 6.7199 5.77113C6.59417 5.58219 6.4514 5.36942 6.40265 5.29833L6.314 5.16906L6.366 5.1106C7.33612 4.0202 5.97961 2.37791 4.82611 3.24629C3.67795 4.11066 4.70701 5.92376 6.02715 5.36242C6.03257 5.36009 6.13065 5.48449 6.25912 5.65665C6.38152 5.82069 6.5344 6.02293 6.59887 6.10607C6.66332 6.18923 6.7215 6.26557 6.72815 6.27577C6.74182 6.29667 6.74622 6.29362 6.6724 6.31419C6.46765 6.37126 6.2746 6.54365 6.23635 6.70363C6.23132 6.72463 6.22307 6.74193 6.21805 6.74208C5.87205 6.75139 5.60726 7.01209 5.60352 7.3471C5.60226 7.46108 5.60226 7.46108 5.55513 7.48943C5.12628 7.74765 4.54447 8.61384 4.50293 9.05599C4.49679 9.12134 4.49921 9.11919 4.41434 9.1339C4.22285 9.16705 4.11099 9.2372 3.99303 9.39802C3.84366 9.60173 3.82988 9.77686 3.94378 10.0241C3.98236 10.1079 3.98448 10.0931 3.92088 10.184C3.24837 11.145 3.38847 12.2727 4.29325 13.1813C4.885 13.7756 5.71566 14.1379 6.64692 14.2078C7.00252 14.2345 7.04322 14.2481 7.13482 14.3705C7.73702 15.1749 8.25682 15.1749 8.85905 14.3705C8.95065 14.2481 8.99135 14.2345 9.34692 14.2078C10.7389 14.1033 11.9035 13.3292 12.3401 12.2183C12.6183 11.5102 12.53 10.838 12.0728 10.1833C12.0094 10.0925 12.0115 10.1078 12.0501 10.0241C12.164 9.77686 12.1502 9.60173 12.0008 9.39802C11.8829 9.2372 11.771 9.16705 11.5795 9.1339C11.4946 9.11919 11.4971 9.12134 11.4909 9.05599C11.4773 8.91101 11.3243 8.53895 11.1784 8.29575C10.999 7.99686 10.6505 7.61695 10.4387 7.48943C10.3916 7.46108 10.3916 7.46108 10.3903 7.3471C10.3866 7.01209 10.1218 6.75139 9.77582 6.74208C9.7708 6.74193 9.76255 6.72463 9.75752 6.70363C9.71927 6.54365 9.52622 6.37126 9.32147 6.31419C9.24765 6.29362 9.25205 6.29667 9.2657 6.27577C9.27235 6.26557 9.33052 6.18923 9.395 6.10607C9.45945 6.02293 9.61235 5.82069 9.73475 5.65665C9.8632 5.48449 9.96127 5.36009 9.9667 5.36242C11.2868 5.92376 12.3159 4.11066 11.1677 3.24629C10.0142 2.37791 8.65775 4.0202 9.62785 5.1106L9.67987 5.16906L9.59122 5.29833C9.54247 5.36942 9.3997 5.58219 9.27397 5.77113C9.14822 5.96008 9.04255 6.11796 9.03912 6.12197C9.03572 6.12598 9.01 6.10442 8.98187 6.07404C8.88055 5.9644 8.76892 5.91897 8.58582 5.91291C8.46985 5.90905 8.46985 5.90905 8.45122 5.88179C8.40242 5.81037 8.29 5.72926 8.19905 5.69984C8.15825 5.68663 8.15825 5.68663 8.15922 5.20162C8.15977 4.93484 8.15842 4.61266 8.15622 4.4857L8.15225 4.2548L8.25975 4.23656C10.2974 3.8913 9.8669 0.804235 7.80975 1.00982ZM7.75967 1.40946C7.0606 1.53757 6.6012 2.1933 6.72657 2.83505C6.73562 2.88133 6.7477 2.92753 6.76297 2.97347C7.12825 4.07323 8.86562 4.07323 9.2309 2.97347C9.24632 2.92704 9.25852 2.88056 9.26765 2.83421C9.4277 2.02139 8.64375 1.24745 7.75967 1.40946ZM5.41241 3.42266C4.89615 3.5195 4.59061 4.05091 4.71791 4.50152C4.74239 4.58816 4.78287 4.67178 4.84092 4.74878C5.25164 5.29351 5.9912 5.23855 6.2959 4.64068C6.32257 4.58834 6.34295 4.53503 6.35752 4.48141C6.51147 3.91418 6.01407 3.30982 5.41241 3.42266ZM10.3039 3.42312C9.7889 3.51645 9.522 4.02631 9.637 4.48062C9.67542 4.63244 9.75652 4.7781 9.88525 4.89989C10.2556 5.25029 10.8261 5.1823 11.1529 4.74878C11.211 4.6717 11.2513 4.58922 11.2758 4.50449C11.4346 3.95496 10.9284 3.30994 10.3039 3.42312ZM7.91027 5.95937C7.65825 6.00447 7.57685 6.24107 7.71095 6.5389C7.75087 6.62759 7.75087 6.62759 7.81215 6.62823C7.86717 6.62881 7.8797 6.63208 7.93517 6.66051C7.99692 6.69217 7.99692 6.69217 8.0587 6.66051C8.11415 6.63208 8.1267 6.62881 8.18172 6.62823C8.24297 6.62759 8.24297 6.62759 8.28287 6.5389C8.44737 6.1732 8.26865 5.89523 7.91027 5.95937ZM7.2638 6.19347C7.0573 6.24932 6.99772 6.5035 7.12872 6.76978C7.18295 6.88003 7.1722 6.87138 7.23785 6.85766C7.28037 6.84875 7.30385 6.84779 7.333 6.85383C7.4287 6.87361 7.41697 6.87683 7.45755 6.81979C7.47772 6.79144 7.51125 6.75382 7.53207 6.7362C7.56995 6.70414 7.56995 6.70414 7.54497 6.66505C7.4768 6.55846 7.44812 6.45607 7.44165 6.29641C7.4368 6.17622 7.402 6.15608 7.2638 6.19347ZM8.55222 6.29545C8.54575 6.45615 8.51722 6.55823 8.4489 6.66505C8.42392 6.70414 8.42392 6.70414 8.46177 6.7362C8.4826 6.75382 8.51615 6.79144 8.53632 6.81979C8.57687 6.87683 8.56515 6.87361 8.66087 6.85383C8.69002 6.84779 8.7135 6.84875 8.75602 6.85766C8.82167 6.87138 8.81092 6.88003 8.86515 6.76978C9.01822 6.45853 8.91815 6.19557 8.64225 6.18416L8.55687 6.18063L8.55222 6.29545ZM6.6987 6.50672C6.3901 6.58772 6.28042 6.96245 6.489 7.22315C6.5387 7.28532 6.53537 7.28422 6.5851 7.25409C6.66235 7.20728 6.74942 7.19221 6.851 7.20809C6.8878 7.21384 6.8878 7.21384 6.89712 7.17671C6.91277 7.1143 6.95887 7.03286 7.0089 6.97924C7.05645 6.92824 7.05645 6.92824 7.02405 6.88497C6.95335 6.79062 6.89047 6.61025 6.8899 6.50015C6.88982 6.48973 6.74437 6.49472 6.6987 6.50672ZM9.10397 6.50015C9.10337 6.61025 9.04052 6.79062 8.96982 6.88497C8.93742 6.92824 8.93742 6.92824 8.98497 6.97924C9.03497 7.03286 9.08107 7.1143 9.09675 7.17671C9.10607 7.21384 9.10607 7.21384 9.14287 7.20809C9.24442 7.19221 9.33152 7.20728 9.40877 7.25409C9.4585 7.28422 9.45515 7.28532 9.50487 7.22315C9.6787 7.0059 9.62687 6.65965 9.40417 6.55032C9.30855 6.50334 9.10415 6.46921 9.10397 6.50015ZM7.68812 6.88142C7.47135 6.98264 7.45167 7.22949 7.6379 7.51165C7.69515 7.59839 7.69515 7.59839 7.71747 7.56311C7.83612 7.37543 8.15775 7.37543 8.2764 7.56311C8.30867 7.61414 8.4386 7.41956 8.47162 7.27071C8.53052 7.00506 8.27217 6.73488 8.12612 6.9094C8.09505 6.94655 8.0569 7.01473 8.04182 7.06002C8.01262 7.14775 7.98125 7.14775 7.95205 7.06002C7.9287 6.98987 7.8795 6.91421 7.83457 6.87944C7.80262 6.85471 7.74362 6.85553 7.68812 6.88142ZM6.14915 6.93534C5.75531 6.98723 5.68337 7.55507 6.03985 7.79789C6.11575 7.84958 6.33232 7.94075 6.33232 7.921C6.33232 7.91978 6.32517 7.89066 6.3164 7.8563C6.27905 7.70978 6.31805 7.52537 6.41085 7.40992C6.43572 7.37895 6.43572 7.37895 6.37325 7.31276C6.2807 7.21468 6.23057 7.10922 6.21677 6.98348C6.21027 6.92416 6.21397 6.92677 6.14915 6.93534ZM9.7847 6.93681C9.78315 6.94161 9.77807 6.97158 9.77342 7.00341C9.75495 7.12954 9.71055 7.21856 9.61727 7.31651C9.55797 7.37872 9.55797 7.37872 9.58295 7.40982C9.67582 7.52537 9.71482 7.70973 9.67745 7.8563C9.6687 7.89066 9.66155 7.91978 9.66155 7.921C9.66155 7.94075 9.87812 7.84958 9.95402 7.79789C10.2698 7.58276 10.2643 7.11442 9.94427 6.96471C9.8915 6.94003 9.7894 6.92218 9.7847 6.93681ZM7.23712 7.03834C6.98662 7.0745 6.93555 7.487 7.14727 7.76408C7.16557 7.78805 7.18297 7.81118 7.18592 7.81549C7.18912 7.82016 7.20372 7.81478 7.22177 7.80228C7.32382 7.73167 7.44727 7.71632 7.63377 7.75109C7.63997 7.75226 7.67377 7.66786 7.66837 7.66471C7.46555 7.54716 7.34982 7.3385 7.3615 7.11141C7.36487 7.04559 7.36487 7.04559 7.33642 7.04082C7.3208 7.03816 7.30262 7.03502 7.29605 7.0338C7.28947 7.03255 7.26297 7.03461 7.23712 7.03834ZM8.69382 7.03395C8.68945 7.03514 8.67307 7.03824 8.65742 7.04085C8.629 7.04559 8.629 7.04559 8.63237 7.11141C8.64405 7.3385 8.52832 7.54716 8.3255 7.66471C8.3201 7.66786 8.3539 7.75226 8.36007 7.75109C8.54657 7.71632 8.67005 7.73167 8.77207 7.80228C8.79015 7.81478 8.80475 7.82016 8.80792 7.81549C8.81087 7.81118 8.82827 7.78805 8.8466 7.76408C9.00222 7.56042 9.02115 7.21524 8.8834 7.0936C8.84077 7.05596 8.7351 7.02271 8.69382 7.03395ZM6.729 7.36817C6.42197 7.45106 6.40047 7.87664 6.68952 8.14908C6.89845 8.34602 6.6944 8.29983 6.46685 8.09871C6.40515 8.04418 6.40515 8.04418 6.35812 8.0491C6.1661 8.06924 5.87028 7.89891 5.71254 7.67737C5.67614 7.62624 5.67614 7.62624 5.653 7.6534C5.32504 8.03794 5.13839 8.38226 4.92584 8.99474C4.87323 9.14635 4.87271 9.13453 4.93255 9.14597C5.95383 9.3404 6.62772 10.4319 6.64872 11.9256C6.6533 12.2518 6.64517 12.2322 6.7583 12.1898C6.82737 12.1639 6.84135 12.1441 6.8978 11.9933C7.15602 11.3033 7.37342 11.0296 7.73765 10.9362C7.81302 10.9169 7.81082 10.9183 7.81725 10.8839C7.8318 10.8061 7.9137 10.6024 7.9432 10.5706C8.01435 10.494 8.13362 10.6541 8.1766 10.8839C8.18305 10.9183 8.18085 10.9169 8.25622 10.9362C8.62042 11.0296 8.83782 11.3033 9.09607 11.9933C9.1525 12.1441 9.1665 12.1639 9.23557 12.1898C9.3487 12.2322 9.34057 12.2518 9.34515 11.9256C9.36615 10.4318 10.0399 9.3404 11.0613 9.14597C11.1211 9.13453 11.1206 9.14635 11.068 8.99474C10.8555 8.38226 10.6688 8.03794 10.3409 7.6534C10.3177 7.62624 10.3177 7.62624 10.2813 7.67737C10.1236 7.89891 9.82777 8.06924 9.63572 8.0491C9.5887 8.04418 9.5887 8.04418 9.52702 8.09871C9.29945 8.29983 9.09542 8.34602 9.30435 8.14908C9.5129 7.95252 9.56555 7.74952 9.4615 7.54312C9.37907 7.37956 9.12475 7.28154 9.1086 7.40711C9.08277 7.60795 9.0036 7.76243 8.8844 7.84473C8.84967 7.8687 8.84967 7.8687 8.87927 7.92242C8.94737 8.04601 8.91372 8.20665 8.79437 8.32768C8.6934 8.43007 8.61227 8.43676 8.70492 8.33506C8.82647 8.20166 8.81802 8.03903 8.68752 8.00015C8.60945 7.9769 8.3633 7.98676 8.3633 8.01316C8.3633 8.07317 8.2842 8.25771 8.23722 8.30724C8.17895 8.36867 8.16675 8.34204 8.20687 8.24102C8.3298 7.93157 8.22735 7.63661 7.99692 7.63661C7.76652 7.63661 7.66407 7.93157 7.78697 8.24102C7.82712 8.34204 7.8149 8.36867 7.75665 8.30724C7.70967 8.25771 7.63057 8.07317 7.63057 8.01316C7.63057 7.98676 7.38442 7.9769 7.30635 8.00015C7.17582 8.03903 7.16737 8.20166 7.28892 8.33506C7.3816 8.43676 7.30047 8.43007 7.1995 8.32768C7.08012 8.20665 7.0465 8.04601 7.1146 7.92242C7.1442 7.8687 7.1442 7.8687 7.10947 7.84473C6.99037 7.76253 6.91107 7.6079 6.88532 7.40759C6.8811 7.37467 6.8766 7.36544 6.86302 7.36178C6.83505 7.35425 6.76887 7.3574 6.729 7.36817ZM4.53351 9.34593C4.06354 9.4208 4.13422 9.94009 4.67361 10.3752C4.84484 10.5133 4.84794 10.5152 5.12171 10.6567C6.13095 11.1783 6.39605 11.4988 6.39605 12.1976C6.39605 12.2457 6.43005 12.2604 6.4777 12.2329C6.48627 12.2279 6.4849 11.8937 6.47557 11.715C6.43177 10.8762 6.09672 10.092 5.61645 9.7044C5.29876 9.44796 4.84209 9.2968 4.53351 9.34593ZM11.2186 9.34329C10.3471 9.43637 9.6844 10.2729 9.53832 11.4643C9.5151 11.654 9.4987 12.2227 9.51617 12.2329C9.56382 12.2604 9.59782 12.2457 9.59782 12.1976C9.59782 11.4988 9.86275 11.1784 10.8721 10.6567C11.1459 10.5152 11.149 10.5133 11.3202 10.3752C11.9667 9.85381 11.9091 9.26956 11.2186 9.34329ZM4.19211 10.4108C3.8255 10.8117 3.71747 11.6397 3.95471 12.2303C4.2877 13.0594 5.37723 13.8302 6.3363 13.9153C6.77092 13.9538 6.8696 13.9473 6.82802 13.8823C6.75985 13.776 6.52617 13.3447 6.38965 13.0732C6.35427 13.0029 6.2994 12.9041 6.2677 12.8535C6.12525 12.6265 6.1148 12.4615 6.2347 12.333C6.3057 12.2568 6.2611 11.8968 6.15375 11.679C6.10065 11.5713 6.10432 11.5724 6.0538 11.6491C5.47273 12.5314 4.28722 11.8562 4.31125 10.6568C4.31492 10.4738 4.31492 10.4738 4.26462 10.4333C4.20592 10.3861 4.21279 10.3882 4.19211 10.4108ZM11.7275 10.4338C11.6789 10.4738 11.6789 10.4738 11.6826 10.6568C11.7066 11.8562 10.5211 12.5313 9.94005 11.6491C9.88955 11.5724 9.8932 11.5713 9.84012 11.679C9.73277 11.8968 9.68817 12.2568 9.75915 12.333C9.87905 12.4615 9.8686 12.6265 9.72617 12.8535C9.69445 12.9041 9.6396 13.0029 9.60422 13.0732C9.4677 13.3447 9.234 13.776 9.16582 13.8823C9.124 13.9477 9.1123 13.9445 9.35705 13.9331C9.86747 13.9091 10.0798 13.8619 10.4938 13.6799C11.9908 13.022 12.5995 11.6245 11.8732 10.5131C11.7835 10.3756 11.7923 10.3805 11.7275 10.4338ZM4.51286 10.6265C4.43566 10.8835 4.58847 11.3679 4.82511 11.6164C4.89858 11.6935 4.90299 11.6939 4.87364 11.6216C4.75566 11.3308 4.79891 10.9702 4.96552 10.8557C4.99633 10.8345 4.94007 10.799 4.72348 10.703C4.67311 10.6806 4.60779 10.6502 4.57833 10.6354C4.51474 10.6035 4.51957 10.6042 4.51286 10.6265ZM11.4257 10.6302C11.4038 10.6416 11.3357 10.6736 11.2744 10.7014C11.0377 10.8081 10.9966 10.8339 11.0282 10.8556C11.1949 10.9702 11.2382 11.3307 11.1202 11.6216C11.0909 11.6939 11.0953 11.6935 11.1687 11.6164C11.4054 11.3679 11.5582 10.8835 11.481 10.6265C11.4744 10.6045 11.4747 10.6045 11.4257 10.6302ZM7.90265 11.1203C7.5979 11.175 7.31265 11.5063 7.09145 12.0626C6.98055 12.3414 6.92287 12.3818 6.55535 12.4379C6.31347 12.4748 6.29752 12.5339 6.46375 12.7772C6.58392 12.9531 6.73072 13.1961 6.88575 13.4758C7.16282 13.9756 7.26507 14.1414 7.40597 14.3195C7.89192 14.9338 8.30727 14.833 8.82255 13.9759C8.924 13.8072 8.93667 13.785 9.1081 13.4758C9.26315 13.1961 9.40992 12.9531 9.5301 12.7772C9.69632 12.5339 9.68037 12.4748 9.43852 12.4379C9.07097 12.3818 9.01332 12.3414 8.90242 12.0626C8.63572 11.392 8.27625 11.0532 7.90265 11.1203ZM7.09297 12.4427C7.01852 12.4816 6.9917 12.5563 7.02635 12.6281C7.05382 12.685 7.1295 12.7134 7.17605 12.6842C7.18885 12.6762 7.19852 12.6791 7.23767 12.7032C7.3776 12.789 7.43092 12.7724 7.38742 12.6564C7.32105 12.4796 7.196 12.3888 7.09297 12.4427ZM8.76397 12.4463C8.67857 12.4898 8.56937 12.6759 8.59617 12.7323C8.61555 12.773 8.6536 12.7661 8.7562 12.7032C8.79532 12.6791 8.805 12.6762 8.81782 12.6842C8.86437 12.7134 8.94005 12.685 8.96752 12.6281C9.02687 12.5052 8.88937 12.3823 8.76397 12.4463Z" fill="black"/>
<path d="M8.69388 7.03396C8.68948 7.03512 8.67311 7.03824 8.65746 7.04085C8.62903 7.0456 8.62903 7.0456 8.63241 7.11141C8.64408 7.33848 8.52833 7.54716 8.32553 7.66472C8.32013 7.66784 8.35393 7.75227 8.36011 7.7511C8.54661 7.71633 8.67008 7.73167 8.77211 7.80228C8.79018 7.81478 8.80478 7.82016 8.80796 7.8155C8.81091 7.81118 8.82831 7.78803 8.84663 7.76406C9.00226 7.56043 9.02118 7.21524 8.88343 7.09361C8.84081 7.05597 8.73513 7.02272 8.69388 7.03396Z" fill="black"/>
<path d="M9.78468 6.93682C9.78313 6.94161 9.77805 6.97156 9.7734 7.00339C9.75493 7.12952 9.71053 7.21854 9.61725 7.31649C9.55795 7.37873 9.55795 7.37873 9.58293 7.4098C9.67578 7.52538 9.7148 7.70974 9.67743 7.85628C9.66868 7.89064 9.66153 7.91976 9.66153 7.92098C9.66153 7.94074 9.8781 7.84956 9.95398 7.79787C10.2698 7.58275 10.2643 7.11441 9.94425 6.96469C9.89148 6.94001 9.78938 6.92216 9.78468 6.93682Z" fill="black"/>
<path d="M9.10409 6.50014C9.10352 6.61024 9.04064 6.79062 8.96994 6.88496C8.93754 6.92823 8.93754 6.92823 8.98509 6.97921C9.03509 7.03285 9.08119 7.11429 9.09687 7.17671C9.10619 7.21384 9.10619 7.21384 9.14299 7.20808C9.24454 7.1922 9.33164 7.20724 9.40889 7.25409C9.45862 7.28422 9.45527 7.28528 9.50499 7.22315C9.67882 7.00587 9.62699 6.65962 9.40429 6.55028C9.30867 6.50334 9.10427 6.4692 9.10409 6.50014Z" fill="black"/>
<path d="M8.55234 6.29548C8.54586 6.45618 8.51734 6.55826 8.44901 6.66508C8.42404 6.70417 8.42404 6.70417 8.46189 6.73623C8.48274 6.75388 8.51626 6.79146 8.53644 6.81982C8.57701 6.87686 8.56526 6.87364 8.66099 6.85388C8.69014 6.84785 8.71361 6.84878 8.75614 6.85766C8.82179 6.87141 8.81104 6.88006 8.86526 6.76981C9.01836 6.45856 8.91826 6.1956 8.64234 6.18419L8.55699 6.18066L8.55234 6.29548Z" fill="black"/>
<path d="M7.9103 5.95931C7.65828 6.00443 7.57688 6.24103 7.71098 6.53886C7.7509 6.62753 7.7509 6.62753 7.81218 6.62819C7.8672 6.62875 7.87973 6.63204 7.9352 6.66047C7.99695 6.69213 7.99695 6.69213 8.05873 6.66047C8.11418 6.63204 8.1267 6.62875 8.18175 6.62819C8.243 6.62753 8.243 6.62753 8.2829 6.53886C8.4474 6.17316 8.26868 5.89519 7.9103 5.95931Z" fill="black"/>
<path d="M7.68812 6.88144C7.47134 6.98266 7.45167 7.22948 7.63789 7.51164C7.69514 7.59841 7.69514 7.59841 7.71747 7.5631C7.83612 7.37545 8.15772 7.37545 8.27639 7.5631C8.30867 7.61416 8.43859 7.41955 8.47159 7.27072C8.53052 7.00505 8.27217 6.73487 8.12612 6.90941C8.09504 6.94654 8.05689 7.01472 8.04182 7.06001C8.01262 7.14777 7.98124 7.14777 7.95204 7.06001C7.92869 6.98986 7.87949 6.91423 7.83457 6.87946C7.80262 6.85473 7.74359 6.85552 7.68812 6.88144Z" fill="black"/>
<path d="M7.23718 7.03835C6.98665 7.07452 6.93558 7.48701 7.1473 7.76407C7.16563 7.78803 7.18303 7.81119 7.18598 7.8155C7.18918 7.82017 7.20378 7.81479 7.22183 7.80229C7.32388 7.73168 7.44733 7.71634 7.63383 7.75111C7.64003 7.75227 7.6738 7.66784 7.6684 7.66472C7.4656 7.54717 7.34988 7.33851 7.36153 7.11142C7.3649 7.0456 7.3649 7.0456 7.33648 7.04081C7.32085 7.03817 7.30265 7.03503 7.2961 7.03381C7.28953 7.03257 7.263 7.03462 7.23718 7.03835Z" fill="black"/>
<path d="M6.6987 6.50674C6.3901 6.58775 6.28042 6.96248 6.489 7.22318C6.5387 7.28534 6.53537 7.28427 6.5851 7.25412C6.66235 7.2073 6.74942 7.19223 6.851 7.20811C6.8878 7.21387 6.8878 7.21387 6.89712 7.17674C6.91277 7.11432 6.95887 7.03288 7.0089 6.97927C7.05642 6.92826 7.05642 6.92826 7.02402 6.88499C6.95335 6.79065 6.89047 6.61027 6.88987 6.50017C6.88982 6.48975 6.7444 6.49474 6.6987 6.50674Z" fill="black"/>
<path d="M7.26383 6.1935C7.05733 6.24935 6.99776 6.5035 7.12873 6.76981C7.18296 6.88006 7.17223 6.87141 7.23786 6.85769C7.28038 6.84879 7.30388 6.84782 7.33303 6.85386C7.42873 6.87364 7.41701 6.87686 7.45758 6.81982C7.47776 6.79147 7.51128 6.75386 7.53211 6.73623C7.56998 6.70415 7.56998 6.70415 7.54498 6.66509C7.47683 6.55849 7.44813 6.4561 7.44168 6.29645C7.43683 6.17625 7.40203 6.15609 7.26383 6.1935Z" fill="black"/>
<path d="M6.14918 6.93537C5.75535 6.98729 5.6834 7.5551 6.03988 7.79794C6.11578 7.84963 6.33235 7.94078 6.33235 7.92103C6.33235 7.91981 6.3252 7.89069 6.31643 7.85633C6.27908 7.70983 6.31808 7.52542 6.41088 7.40995C6.43575 7.37898 6.43575 7.37898 6.37328 7.31279C6.28073 7.21471 6.2306 7.10928 6.2168 6.98351C6.2103 6.92418 6.214 6.92682 6.14918 6.93537Z" fill="black"/>
<path d="M11.2186 9.34325C10.347 9.43633 9.68433 10.2729 9.53828 11.4643C9.51503 11.654 9.49863 12.2227 9.51611 12.2328C9.56376 12.2603 9.59775 12.2456 9.59775 12.1976C9.59775 11.4987 9.8627 11.1784 10.8721 10.6567C11.1459 10.5152 11.149 10.5133 11.3202 10.3751C11.9666 9.85377 11.9091 9.26949 11.2186 9.34325Z" fill="white"/>
<path d="M11.7275 10.4339C11.6789 10.4738 11.6789 10.4738 11.6826 10.6568C11.7066 11.8562 10.5211 12.5313 9.94006 11.6492C9.88954 11.5725 9.89319 11.5714 9.84011 11.679C9.73276 11.8968 9.68816 12.2569 9.75916 12.333C9.87904 12.4616 9.86859 12.6266 9.72616 12.8535C9.69444 12.9041 9.63959 13.0029 9.60421 13.0732C9.46769 13.3447 9.23401 13.776 9.16584 13.8824C9.12399 13.9477 9.11229 13.9446 9.35704 13.9331C9.86746 13.9092 10.0798 13.8619 10.4938 13.6799C11.9908 13.0221 12.5996 11.6246 11.8733 10.5131C11.7835 10.3757 11.7923 10.3806 11.7275 10.4339Z" fill="white"/>
<path d="M4.19204 10.4108C3.82543 10.8117 3.71739 11.6397 3.95463 12.2303C4.28763 13.0594 5.37716 13.8302 6.33625 13.9153C6.77085 13.9538 6.86953 13.9472 6.82795 13.8823C6.75978 13.7759 6.5261 13.3446 6.38958 13.0731C6.3542 13.0028 6.29933 12.904 6.26763 12.8534C6.12518 12.6265 6.11473 12.4615 6.23463 12.3329C6.30563 12.2568 6.26103 11.8967 6.15368 11.6789C6.10058 11.5713 6.10425 11.5724 6.05373 11.6491C5.47267 12.5313 4.28715 11.8562 4.31118 10.6567C4.31485 10.4737 4.31485 10.4737 4.26455 10.4332C4.20585 10.3861 4.21272 10.3882 4.19204 10.4108Z" fill="white"/>
<path d="M4.53353 9.34589C4.06355 9.42076 4.13424 9.94005 4.67363 10.3751C4.84485 10.5133 4.84796 10.5152 5.12173 10.6567C6.13096 11.1783 6.39606 11.4988 6.39606 12.1976C6.39606 12.2456 6.43006 12.2603 6.47771 12.2329C6.48629 12.2279 6.48491 11.8936 6.47559 11.715C6.43179 10.8761 6.09676 10.092 5.61646 9.70436C5.29878 9.44792 4.84211 9.29676 4.53353 9.34589Z" fill="white"/>
<path d="M6.72895 7.36819C6.42195 7.4511 6.40045 7.87668 6.6895 8.14913C6.8984 8.34604 6.69438 8.29988 6.46683 8.09876C6.40513 8.0442 6.40513 8.0442 6.3581 8.04915C6.16608 8.06929 5.87025 7.89895 5.71251 7.67739C5.67611 7.62626 5.67611 7.62626 5.65297 7.65342C5.32502 8.03799 5.13836 8.38231 4.92581 8.99476C4.8732 9.1464 4.87268 9.13458 4.93252 9.14599C5.95381 9.34044 6.6277 10.4319 6.6487 11.9257C6.65325 12.2518 6.64515 12.2323 6.75828 12.1898C6.82733 12.1639 6.84133 12.1442 6.89778 11.9934C7.156 11.3033 7.37338 11.0297 7.73763 10.9363C7.813 10.9169 7.81078 10.9184 7.81723 10.8839C7.83178 10.8061 7.91368 10.6024 7.94318 10.5706C8.01433 10.494 8.1336 10.6541 8.17658 10.8839C8.18303 10.9184 8.1808 10.9169 8.25618 10.9363C8.6204 11.0297 8.8378 11.3033 9.09605 11.9934C9.15248 12.1442 9.16648 12.1639 9.23555 12.1898C9.34865 12.2323 9.34053 12.2518 9.34513 11.9257C9.3661 10.4319 10.0399 9.34044 11.0613 9.14599C11.1211 9.13458 11.1206 9.1464 11.068 8.99476C10.8555 8.38231 10.6688 8.03799 10.3409 7.65342C10.3177 7.62626 10.3177 7.62626 10.2813 7.67739C10.1236 7.89895 9.82775 8.06929 9.6357 8.04915C9.58868 8.0442 9.58868 8.0442 9.52698 8.09876C9.29943 8.29988 9.09538 8.34604 9.3043 8.14913C9.51288 7.95254 9.56553 7.74957 9.46148 7.54317C9.37903 7.37961 9.12473 7.28158 9.10858 7.40713C9.08275 7.60797 9.00358 7.76248 8.88435 7.84478C8.84965 7.86874 8.84965 7.86875 8.87925 7.92246C8.94735 8.04605 8.9137 8.2067 8.79435 8.3277C8.69335 8.43011 8.61223 8.43681 8.7049 8.33511C8.82645 8.2017 8.818 8.03908 8.68748 8.0002C8.6094 7.97694 8.36328 7.98681 8.36328 8.01321C8.36328 8.07322 8.28415 8.25773 8.2372 8.30726C8.17893 8.36871 8.16673 8.34206 8.20685 8.24106C8.32975 7.93162 8.2273 7.63665 7.9969 7.63665C7.7665 7.63665 7.66405 7.93162 7.78695 8.24106C7.82708 8.34206 7.81488 8.36871 7.75663 8.30726C7.70965 8.25773 7.63053 8.07322 7.63053 8.01321C7.63053 7.98681 7.3844 7.97694 7.30633 8.0002C7.1758 8.03908 7.16735 8.2017 7.2889 8.33511C7.38158 8.43681 7.30045 8.43011 7.19945 8.3277C7.0801 8.2067 7.04645 8.04605 7.11458 7.92246C7.14418 7.86875 7.14418 7.86874 7.10943 7.84478C6.99033 7.76258 6.91105 7.60794 6.8853 7.40763C6.88105 7.37471 6.87655 7.36546 6.863 7.3618C6.83503 7.35427 6.76885 7.35744 6.72895 7.36819Z" fill="black"/>
<path fill-rule="evenodd" clip-rule="evenodd" d="M7.90257 11.1203C7.59782 11.175 7.31257 11.5063 7.09137 12.0625C6.98047 12.3414 6.92279 12.3818 6.55527 12.4379C6.31339 12.4748 6.29744 12.5339 6.46367 12.7771C6.58384 12.9531 6.73064 13.1961 6.88567 13.4757C7.16274 13.9756 7.26499 14.1414 7.40589 14.3195C7.89184 14.9337 8.30719 14.833 8.82247 13.9759C8.92392 13.8072 8.93659 13.785 9.10802 13.4757C9.26307 13.1961 9.40984 12.9531 9.53002 12.7771C9.69624 12.5339 9.68029 12.4748 9.43844 12.4379C9.07089 12.3818 9.01324 12.3414 8.90234 12.0625C8.63564 11.392 8.27617 11.0532 7.90257 11.1203ZM7.02627 12.6281C6.99162 12.5563 7.01844 12.4815 7.09289 12.4427C7.19592 12.3888 7.32097 12.4796 7.38734 12.6564C7.43084 12.7724 7.37752 12.789 7.23759 12.7032C7.19844 12.6791 7.18877 12.6762 7.17597 12.6842C7.12942 12.7133 7.05374 12.685 7.02627 12.6281ZM8.59609 12.7323C8.56929 12.6758 8.67849 12.4898 8.76389 12.4462C8.88929 12.3823 9.02679 12.5051 8.96744 12.6281C8.93997 12.685 8.86429 12.7133 8.81774 12.6842C8.80492 12.6762 8.79524 12.6791 8.75609 12.7032C8.65349 12.7661 8.61547 12.773 8.59609 12.7323Z" fill="white"/>
<path fill-rule="evenodd" clip-rule="evenodd" d="M6.35762 4.48139C6.25165 4.08087 5.92154 3.76536 5.473 3.84949C5.11711 3.91624 4.80086 4.19056 4.71802 4.5015C4.74249 4.58814 4.78297 4.67179 4.84102 4.74879C5.25174 5.29352 5.9913 5.23856 6.296 4.64067C6.32267 4.58834 6.34307 4.53503 6.35762 4.48139Z" fill="black"/>
<path fill-rule="evenodd" clip-rule="evenodd" d="M6.76294 2.97349C6.74769 2.92755 6.73561 2.88135 6.72656 2.83507C6.81934 2.35354 7.27789 1.93569 7.82014 1.83632C8.54589 1.70333 9.14366 2.20205 9.26764 2.83423C9.25851 2.88058 9.24631 2.92705 9.23086 2.97349C8.86561 4.07325 7.12824 4.07325 6.76294 2.97349Z" fill="black"/>
<path d="M10.304 3.42308C9.78894 3.51641 9.52204 4.02627 9.63704 4.48059C9.71312 4.17611 10.0104 3.91409 10.3644 3.84993C10.8285 3.76583 11.1668 4.10147 11.2759 4.50445C11.4346 3.95493 10.9284 3.30991 10.304 3.42308Z" fill="white"/>
<path d="M6.72666 2.83505C6.81944 2.35353 7.27799 1.93568 7.82024 1.83631C8.54599 1.70332 9.14376 2.20204 9.26774 2.83421C9.42781 2.02141 8.64384 1.24746 7.75976 1.40947C7.06071 1.53758 6.60129 2.19331 6.72666 2.83505Z" fill="white"/>
<path d="M5.47278 3.84949C5.92131 3.76536 6.25143 4.08084 6.35741 4.48139C6.51136 3.91416 6.01396 3.3098 5.4123 3.42264C4.89603 3.51949 4.59049 4.05089 4.7178 4.5015C4.80064 4.19053 5.11687 3.91624 5.47278 3.84949Z" fill="white"/>
<path d="M9.88521 4.89988C10.2555 5.25029 10.826 5.18226 11.1529 4.74877C11.211 4.67167 11.2513 4.58922 11.2758 4.50448C11.1667 4.10147 10.8284 3.76583 10.3644 3.84993C10.0103 3.9141 9.71304 4.17612 9.63696 4.48059C9.67539 4.63241 9.75649 4.77806 9.88521 4.89988Z" fill="black"/>
<path fill-rule="evenodd" clip-rule="evenodd" d="M6.91909 2.40121C7.12169 2.11898 7.45189 1.90392 7.82087 1.83631C8.37299 1.73513 8.85107 1.99959 9.10279 2.41029C9.15077 2.36185 9.19464 2.31262 9.23092 2.2644C9.04367 1.702 8.43082 1.28661 7.76039 1.40947C7.29719 1.49435 6.93922 1.81085 6.78687 2.20144C6.81982 2.26518 6.86637 2.33356 6.91909 2.40121Z" fill="white"/>
<path d="M6.91919 2.40122C7.09906 2.63194 7.35089 2.85411 7.38124 2.85411C7.40419 2.85411 7.53116 2.73041 7.66304 2.60194C7.80546 2.46317 7.95361 2.31884 7.98256 2.31884C8.01044 2.31884 8.12991 2.45266 8.24936 2.58648C8.36884 2.7203 8.48829 2.85411 8.51619 2.85411C8.55174 2.85411 8.87409 2.64122 9.10289 2.4103C8.85116 1.99961 8.37309 1.73514 7.82096 1.83631C7.45199 1.90394 7.12179 2.11899 6.91919 2.40122Z" fill="white"/>
<path d="M4.72203 4.47896C4.81378 4.17737 5.1233 3.91462 5.47059 3.84949C5.73614 3.79968 5.96019 3.88994 6.12078 4.055C6.15063 3.94434 6.17223 3.81221 6.16968 3.70127C5.98944 3.49078 5.71298 3.36584 5.41011 3.42264C4.90602 3.51719 4.60284 4.02603 4.7073 4.46944C4.71215 4.47267 4.71706 4.47584 4.72203 4.47896Z" fill="white"/>
<path d="M4.72217 4.47898C4.91748 4.6027 5.18374 4.65672 5.2539 4.61569C5.30821 4.58391 5.33335 4.42364 5.33926 4.25859C5.34376 4.13314 5.34778 4.02084 5.37186 4.00014C5.39846 3.97727 5.52752 4.05171 5.66427 4.13058C5.81415 4.21704 5.98345 4.29242 6.02718 4.26736C6.05845 4.24946 6.08925 4.17253 6.12093 4.055C5.96033 3.88995 5.73627 3.79968 5.47072 3.84949C5.12344 3.91462 4.81392 4.17738 4.72217 4.47898Z" fill="white"/>
<path fill-rule="evenodd" clip-rule="evenodd" d="M9.69624 3.90862C9.70817 3.9965 9.95907 4.46785 10.0268 4.48383C10.0634 4.49251 10.1888 4.40275 10.3037 4.32055C10.401 4.25096 10.4907 4.18674 10.5126 4.19224C10.5326 4.19724 10.5707 4.25742 10.6152 4.3278C10.6772 4.42575 10.7517 4.54346 10.8073 4.55974C10.8793 4.58082 11.1662 4.42946 11.3066 4.32796C11.3283 3.827 10.8644 3.32187 10.306 3.42309C10.0144 3.47593 9.80234 3.66232 9.69409 3.89654C9.69494 3.90025 9.69564 3.90425 9.69624 3.90862Z" fill="white"/>
<path d="M11.4256 10.6302C11.4037 10.6416 11.3356 10.6737 11.2743 10.7014C11.0376 10.8081 10.9965 10.8339 11.0281 10.8557C11.1949 10.9702 11.2382 11.3307 11.1201 11.6217C11.0908 11.694 11.0952 11.6935 11.1687 11.6164C11.4053 11.3679 11.5581 10.8835 11.4809 10.6265C11.4743 10.6045 11.4746 10.6045 11.4256 10.6302Z" fill="white"/>
<path d="M4.51286 10.6265C4.43566 10.8835 4.58847 11.3679 4.82511 11.6163C4.89858 11.6934 4.903 11.6939 4.87364 11.6216C4.75566 11.3308 4.79891 10.9701 4.96552 10.8557C4.99633 10.8345 4.94007 10.7989 4.72348 10.7029C4.67311 10.6805 4.60779 10.6502 4.57833 10.6354C4.51474 10.6035 4.51957 10.6042 4.51286 10.6265Z" fill="white"/>
<path d="M10.907 11.3586C10.907 11.3321 10.8838 11.3107 10.8552 11.3107C10.8266 11.3107 10.8035 11.3321 10.8035 11.3586C10.8035 11.385 10.8266 11.4065 10.8552 11.4065C10.8838 11.4065 10.907 11.385 10.907 11.3586Z" fill="white"/>
<path d="M6.72666 2.83505C6.81944 2.35353 7.27799 1.93568 7.82024 1.83631C8.54599 1.70332 9.14376 2.20204 9.26774 2.83421C9.42781 2.02141 8.64384 1.24746 7.75976 1.40947C7.06071 1.53758 6.60129 2.19331 6.72666 2.83505Z" fill="white"/>
<path fill-rule="evenodd" clip-rule="evenodd" d="M6.91909 2.40121C7.12169 2.11897 7.45189 1.90392 7.82087 1.83631C8.37299 1.73513 8.85107 1.99959 9.10279 2.41029C9.15077 2.36185 9.19464 2.31263 9.23092 2.26441C9.04367 1.702 8.43082 1.28661 7.76039 1.40947C7.29719 1.49435 6.93922 1.81085 6.78687 2.20144C6.81982 2.26518 6.86637 2.33356 6.91909 2.40121Z" fill="white"/>
<g style="mix-blend-mode:hard-light">
<path fill-rule="evenodd" clip-rule="evenodd" d="M7.21167 11.7947C7.47212 11.5074 7.80579 11.4584 7.98414 11.4584C8.16942 11.4584 8.5367 11.5184 8.80185 11.834C8.5487 11.316 8.23114 11.0612 7.90272 11.1203C7.65059 11.1656 7.41184 11.4001 7.21167 11.7947Z" fill="white" fill-opacity="0.4"/>
</g>
<g style="mix-blend-mode:multiply">
<path fill-rule="evenodd" clip-rule="evenodd" d="M4.12072 10.4965C4.11592 10.8923 4.13091 12.6008 6.13244 12.6008C6.14062 12.6008 6.14877 12.6008 6.15684 12.6007C6.13757 12.4956 6.16309 12.408 6.23317 12.3329C6.30414 12.2568 6.25957 11.8967 6.15222 11.6789C6.12379 11.6213 6.11164 11.5948 6.09872 11.5944C6.08752 11.5941 6.07574 11.6134 6.05227 11.6491C5.4712 12.5313 4.28568 11.8561 4.30971 10.6567C4.31338 10.4737 4.31338 10.4737 4.26309 10.4332C4.22645 10.4038 4.21535 10.3936 4.20716 10.3955C4.20223 10.3967 4.19835 10.4023 4.19058 10.4108C4.16613 10.4375 4.14284 10.4661 4.12072 10.4965Z" fill="white" fill-opacity="0.2"/>
</g>
<path d="M10.939 11.1987C10.939 11.1016 11.0192 11.0229 11.1182 11.0229C11.2171 11.0229 11.2974 11.1016 11.2974 11.1987C11.2974 11.2958 11.2171 11.3745 11.1182 11.3745C11.0192 11.3745 10.939 11.2958 10.939 11.1987Z" fill="white"/>
<path d="M4.68677 11.1987C4.68677 11.1016 4.767 11.0229 4.86597 11.0229C4.96493 11.0229 5.04517 11.1016 5.04517 11.1987C5.04517 11.2958 4.96493 11.3745 4.86597 11.3745C4.767 11.3745 4.68677 11.2958 4.68677 11.1987Z" fill="white"/>
<path d="M5.16458 11.3586C5.16458 11.3321 5.1414 11.3107 5.1128 11.3107C5.08421 11.3107 5.06104 11.3321 5.06104 11.3586C5.06104 11.385 5.08421 11.4065 5.1128 11.4065C5.1414 11.4065 5.16458 11.385 5.16458 11.3586Z" fill="white"/>
</g>
</g>
<defs>
<clipPath id="clip0_5874_256">
<rect width="9" height="14" fill="white" transform="translate(3.5 1)"/>
</clipPath>
</defs>
</svg>
