<svg width="485" height="100" viewBox="0 0 485 100" fill="none" xmlns="http://www.w3.org/2000/svg">
<g clip-path="url(#clip0_6242_16504)">
<mask id="mask0_6242_16504" style="mask-type:luminance" maskUnits="userSpaceOnUse" x="0" y="0" width="377" height="100">
<path d="M377 0H0V100H377V0Z" fill="white"/>
</mask>
<g mask="url(#mask0_6242_16504)">
<mask id="mask1_6242_16504" style="mask-type:luminance" maskUnits="userSpaceOnUse" x="0" y="0" width="66" height="100">
<path d="M65.5652 0H0V100H65.5652V0Z" fill="white"/>
</mask>
<g mask="url(#mask1_6242_16504)">
<path fill-rule="evenodd" clip-rule="evenodd" d="M31.3967 0.0702309C18.1147 1.37349 17.647 20.958 30.8456 23.1496C31.4435 23.2489 31.6331 23.301 31.6468 23.3701C31.6567 23.4199 31.6086 24.4074 31.54 25.5647C31.4714 26.7219 31.3849 28.9974 31.348 30.6212C31.311 32.2451 31.2676 33.5832 31.2517 33.5948C31.2358 33.6063 31.02 33.7149 30.7723 33.8361C30.3083 34.0633 29.6981 34.5619 29.4527 34.9146C29.3151 35.1124 29.3151 35.1124 28.4703 35.1399C27.1362 35.1834 26.3231 35.5082 25.5848 36.2923C25.3801 36.5098 25.1927 36.664 25.1678 36.6352C25.1429 36.6065 24.3732 35.4773 23.4571 34.1259C22.5411 32.7745 21.501 31.2527 21.1458 30.7442L20.5 29.8195L20.8789 29.4013C27.9463 21.6021 18.064 9.8556 9.66078 16.0667C1.29634 22.2492 8.79311 35.2177 18.4104 31.2024C18.45 31.1859 19.1644 32.0757 20.1002 33.307C20.9919 34.4803 22.1057 35.9268 22.5753 36.5215C23.0449 37.1163 23.4688 37.6624 23.5172 37.7353C23.6168 37.8848 23.6489 37.8631 23.1109 38.0102C21.6193 38.4183 20.213 39.6513 19.9343 40.7956C19.8977 40.9459 19.8377 41.0696 19.801 41.0706C17.2804 41.1372 15.3515 43.0018 15.3242 45.3982C15.315 46.2133 15.315 46.2133 14.9717 46.4162C11.8475 48.2631 7.60899 54.4587 7.30634 57.6211C7.26161 58.0886 7.27925 58.0732 6.66102 58.1783C5.26599 58.4154 4.45107 58.9171 3.59177 60.0674C2.50356 61.5246 2.40317 62.7771 3.23295 64.5457C3.51401 65.1451 3.52945 65.0389 3.06614 65.6892C-1.8331 72.5629 -0.812485 80.6292 5.77886 87.128C10.0898 91.3783 16.1411 93.9697 22.9255 94.4697C25.5159 94.6606 25.8125 94.7578 26.4797 95.6332C30.8669 101.387 34.6537 101.387 39.0408 95.6332C39.708 94.7578 40.0046 94.6606 42.5951 94.4697C52.7356 93.7222 61.2199 88.1857 64.4001 80.24C66.4274 75.1754 65.7839 70.3668 62.4529 65.6846C61.991 65.0349 62.0067 65.144 62.2876 64.5457C63.1173 62.7771 63.0169 61.5246 61.9289 60.0674C61.0696 58.9171 60.2544 58.4154 58.8595 58.1783C58.2411 58.0732 58.259 58.0886 58.2143 57.6211C58.1152 56.5842 57.0006 53.923 55.9373 52.1834C54.6305 50.0455 52.0917 47.3283 50.5488 46.4162C50.2055 46.2133 50.2055 46.2133 50.1962 45.3982C50.1691 43.0018 48.2401 41.1372 45.7195 41.0706C45.6829 41.0696 45.6228 40.9459 45.5863 40.7956C45.3075 39.6513 43.9012 38.4183 42.4096 38.0102C41.8717 37.8631 41.9038 37.8848 42.0033 37.7353C42.0517 37.6624 42.4756 37.1163 42.9452 36.5215C43.4148 35.9268 44.5286 34.4803 45.4203 33.307C46.3561 32.0757 47.0706 31.1859 47.1101 31.2024C56.7274 35.2177 64.2243 22.2492 55.8597 16.0667C47.4564 9.8556 37.5743 21.6021 44.6415 29.4013L45.0206 29.8195L44.3747 30.7442C44.0196 31.2527 42.9794 32.7745 42.0635 34.1259C41.1474 35.4773 40.3776 36.6065 40.3527 36.6352C40.3278 36.664 40.1405 36.5098 39.9357 36.2923C39.1974 35.5082 38.3843 35.1834 37.0503 35.1399C36.2054 35.1124 36.2054 35.1125 36.0698 34.9173C35.7143 34.4065 34.8952 33.8263 34.2327 33.6159C33.9354 33.5215 33.9354 33.5215 33.9426 30.0523C33.9465 28.1442 33.9367 25.8399 33.9207 24.9316L33.8917 23.2801L34.675 23.1498C49.5195 20.6803 46.3831 -1.40022 31.3967 0.0702309ZM31.0318 2.92869C25.9391 3.845 22.5922 8.53514 23.5057 13.1253C23.5716 13.4563 23.6596 13.7868 23.7708 14.1154C26.4319 21.9815 39.0886 21.9815 41.7497 14.1154C41.8622 13.7833 41.951 13.4508 42.0175 13.1193C43.1835 7.3056 37.4724 1.76992 31.0318 2.92869ZM13.932 17.3283C10.171 18.0209 7.94511 21.8218 8.87254 25.0449C9.05085 25.6645 9.34572 26.2628 9.76863 26.8135C12.7607 30.7097 18.1485 30.3166 20.3682 26.0402C20.5626 25.6659 20.711 25.2846 20.8172 24.901C21.9387 20.8439 18.315 16.5211 13.932 17.3283ZM49.5667 17.3315C45.8148 17.9991 43.8704 21.6458 44.7082 24.8954C44.9882 25.9813 45.579 27.0231 46.5168 27.8943C49.2145 30.4006 53.3707 29.9142 55.7519 26.8135C56.1753 26.2621 56.4688 25.6722 56.6471 25.0661C57.8037 21.1355 54.116 16.522 49.5667 17.3315ZM32.129 35.4722C30.293 35.7949 29.7 37.4872 30.6768 39.6174C30.9677 40.2517 30.9677 40.2517 31.4141 40.2563C31.815 40.2605 31.9063 40.284 32.3103 40.4872C32.7603 40.7137 32.7603 40.7137 33.2102 40.4872C33.6143 40.284 33.7055 40.2605 34.1064 40.2563C34.5528 40.2517 34.5528 40.2517 34.8434 39.6174C36.0417 37.0017 34.7397 35.0136 32.129 35.4722ZM27.4194 37.1466C25.9151 37.5461 25.4811 39.3641 26.4353 41.2688C26.8303 42.0573 26.752 41.9954 27.2303 41.8972C27.5401 41.8336 27.7111 41.8268 27.9235 41.87C28.6208 42.0114 28.5353 42.0344 28.8309 41.6264C28.9778 41.4237 29.2221 41.1547 29.3738 41.0286C29.6497 40.7992 29.6497 40.7992 29.4677 40.5197C28.9711 39.7572 28.7621 39.025 28.7151 37.8831C28.6798 37.0233 28.4262 36.8792 27.4194 37.1466ZM36.8056 37.8761C36.7584 39.0255 36.5506 39.7556 36.0529 40.5197C35.8708 40.7992 35.8708 40.7992 36.1467 41.0286C36.2984 41.1547 36.5428 41.4237 36.6897 41.6264C36.9852 42.0344 36.8998 42.0114 37.597 41.87C37.8094 41.8268 37.9805 41.8336 38.2903 41.8972C38.7685 41.9954 38.6902 42.0573 39.0853 41.2688C40.2005 39.0426 39.4713 37.1616 37.4614 37.0801L36.8395 37.0549L36.8056 37.8761ZM23.3026 39.3871C21.0544 39.9665 20.2555 42.6468 21.7749 44.5116C22.1371 44.9561 22.1127 44.9485 22.4749 44.7329C23.0378 44.398 23.6722 44.2902 24.4121 44.4039C24.6802 44.445 24.6802 44.445 24.7481 44.1794C24.8622 43.733 25.1979 43.1505 25.5623 42.7669C25.9088 42.4022 25.9088 42.4022 25.6728 42.0928C25.1577 41.4179 24.6996 40.1278 24.6954 39.3402C24.695 39.2656 23.6354 39.3013 23.3026 39.3871ZM40.8251 39.3402C40.8208 40.1278 40.3629 41.4179 39.8478 42.0928C39.6117 42.4022 39.6117 42.4022 39.9582 42.7669C40.3225 43.1505 40.6583 43.733 40.7724 44.1794C40.8404 44.445 40.8404 44.445 41.1085 44.4039C41.8483 44.2902 42.4828 44.398 43.0456 44.7329C43.4079 44.9485 43.3835 44.9561 43.7456 44.5116C45.012 42.9575 44.6344 40.481 43.0121 39.699C42.3155 39.3632 40.8263 39.1189 40.8251 39.3402ZM30.5107 42.0673C28.9314 42.7913 28.788 44.5568 30.1446 46.575C30.5618 47.1955 30.5618 47.1955 30.7244 46.9431C31.5888 45.6007 33.9317 45.6007 34.7962 46.9431C35.0313 47.3082 35.9779 45.9163 36.2183 44.8517C36.6476 42.9516 34.7654 41.0191 33.7014 42.2674C33.4751 42.5331 33.1971 43.0207 33.0873 43.3447C32.8746 43.9722 32.6459 43.9722 32.4333 43.3447C32.2632 42.843 31.9048 42.3019 31.5774 42.0532C31.3448 41.8763 30.9149 41.882 30.5107 42.0673ZM19.2991 42.453C16.43 42.8242 15.9059 46.8856 18.5028 48.6225C19.0557 48.9921 20.6336 49.6442 20.6336 49.5029C20.6336 49.4942 20.5814 49.286 20.5176 49.0402C20.2454 47.9922 20.5296 46.6733 21.2055 45.8473C21.3868 45.6259 21.3868 45.6259 20.9317 45.1524C20.2574 44.4509 19.8924 43.6967 19.7918 42.7972C19.7444 42.373 19.7713 42.3917 19.2991 42.453ZM45.7842 42.4636C45.7729 42.4979 45.7359 42.7121 45.702 42.9398C45.5675 43.8419 45.244 44.4788 44.5645 45.1793C44.1326 45.6244 44.1326 45.6244 44.3144 45.8466C44.991 46.6733 45.2752 47.9918 45.0029 49.0402C44.9391 49.286 44.887 49.4942 44.887 49.5029C44.887 49.6442 46.4648 48.9921 47.0177 48.6225C49.3185 47.0837 49.2785 43.7339 46.9467 42.6631C46.5622 42.4865 45.8184 42.3589 45.7842 42.4636ZM27.225 43.1897C25.4001 43.4484 25.028 46.3987 26.5704 48.3805C26.7038 48.5519 26.8306 48.7174 26.8521 48.7484C26.8754 48.7816 26.9817 48.7432 27.1133 48.6538C27.8566 48.1488 28.7561 48.0391 30.1147 48.2878C30.1598 48.296 30.406 47.6922 30.3666 47.6698C28.8892 46.829 28.046 45.3365 28.1311 43.7123C28.1557 43.2415 28.1557 43.2415 27.9485 43.2073C27.8346 43.1885 27.7021 43.1659 27.6543 43.1571C27.6064 43.1484 27.4133 43.1631 27.225 43.1897ZM37.8372 43.1583C37.8053 43.1667 37.686 43.189 37.572 43.2077C37.3649 43.2415 37.3649 43.2415 37.3895 43.7123C37.4745 45.3365 36.6314 46.829 35.1538 47.6698C35.1145 47.6922 35.3608 48.296 35.4058 48.2878C36.7645 48.0391 37.6639 48.1488 38.4073 48.6538C38.5388 48.7432 38.6452 48.7816 38.6684 48.7484C38.6899 48.7174 38.8167 48.5519 38.9501 48.3805C40.0838 46.9239 40.2218 44.455 39.2181 43.585C38.9076 43.3158 38.1379 43.078 37.8372 43.1583ZM23.5233 45.5488C21.2867 46.1417 21.13 49.1857 23.2358 51.1344C24.7577 52.5429 23.2714 52.2127 21.6136 50.7741C21.1641 50.384 21.1641 50.384 20.8216 50.4193C19.4226 50.5633 17.2675 49.3449 16.1184 47.7603C15.8533 47.3946 15.8533 47.3946 15.6846 47.5889C13.2955 50.3394 11.9357 52.8022 10.3873 57.1829C10.004 58.2674 10.0002 58.1829 10.4361 58.2646C17.8763 59.6554 22.7856 67.4622 22.9385 78.1463C22.9718 80.4794 22.9127 80.3394 23.7368 80.036C24.24 79.8503 24.3419 79.7092 24.753 78.6308C26.6342 73.6949 28.218 71.7378 30.8714 71.0697C31.4205 70.9314 31.4044 70.9417 31.4513 70.6954C31.5574 70.1389 32.1539 68.6817 32.3688 68.4543C32.8872 67.9063 33.756 69.0514 34.0692 70.6954C34.1161 70.9417 34.1001 70.9314 34.6492 71.0697C37.3025 71.7378 38.8862 73.6949 40.7675 78.6308C41.1786 79.7092 41.2806 79.8503 41.7838 80.036C42.6079 80.3394 42.5486 80.4794 42.582 78.1463C42.735 67.4617 47.6438 59.6554 55.0843 58.2646C55.5203 58.1829 55.5165 58.2674 55.1333 57.1829C53.5848 52.8022 52.225 50.3394 49.8359 47.5889C49.6673 47.3946 49.6673 47.3946 49.4022 47.7603C48.253 49.3449 46.098 50.5633 44.699 50.4193C44.3564 50.384 44.3564 50.384 43.907 50.7741C42.2492 52.2127 40.7628 52.5429 42.2847 51.1344C43.8041 49.7284 44.1877 48.2765 43.4297 46.8002C42.8291 45.6303 40.9765 44.9292 40.8588 45.8272C40.6706 47.2638 40.094 48.3689 39.2254 48.9574C38.9725 49.1289 38.9725 49.1289 39.1881 49.5131C39.6843 50.3971 39.4391 51.5461 38.5697 52.4117C37.834 53.1441 37.243 53.192 37.918 52.4646C38.8035 51.5104 38.742 50.3472 37.7912 50.0692C37.2224 49.9028 35.4293 49.9734 35.4293 50.1621C35.4293 50.5914 34.8529 51.9112 34.5108 52.2655C34.0863 52.7049 33.9974 52.5144 34.2897 51.7918C35.1852 49.5786 34.4388 47.4689 32.7603 47.4689C31.0817 47.4689 30.3354 49.5786 31.2308 51.7918C31.5231 52.5144 31.4342 52.7049 31.0098 52.2655C30.6676 51.9112 30.0913 50.5914 30.0913 50.1621C30.0913 49.9734 28.2982 49.9028 27.7294 50.0692C26.7785 50.3472 26.7169 51.5104 27.6024 52.4646C28.2776 53.192 27.6866 53.1441 26.9509 52.4117C26.0813 51.5461 25.8363 50.3971 26.3324 49.5131C26.5481 49.1289 26.5481 49.1289 26.295 48.9574C25.4274 48.3696 24.8498 47.2635 24.6622 45.8308C24.6313 45.5953 24.5985 45.5292 24.4998 45.5031C24.2959 45.4492 23.8138 45.4717 23.5233 45.5488ZM7.52915 59.6949C4.10538 60.2303 4.62032 63.9446 8.54982 67.0565C9.79719 68.0446 9.81982 68.0583 11.8142 69.0703C19.1665 72.8011 21.0978 75.0937 21.0978 80.092C21.0978 80.4354 21.3455 80.5406 21.6926 80.344C21.7551 80.3086 21.7451 77.9178 21.6772 76.64C21.358 70.64 18.9172 65.0314 15.4184 62.2589C13.104 60.4246 9.77717 59.3435 7.52915 59.6949ZM56.2303 59.676C49.8811 60.3417 45.0534 66.3251 43.9893 74.8468C43.8201 76.2035 43.7007 80.2714 43.828 80.344C44.1751 80.5406 44.4228 80.4354 44.4228 80.092C44.4228 75.0932 46.3528 72.8017 53.7063 69.0703C55.7007 68.0583 55.7234 68.0446 56.9707 67.0565C61.6801 63.3274 61.2606 59.1486 56.2303 59.676ZM5.04208 67.3114C2.37132 70.1789 1.58425 76.1011 3.31256 80.3257C5.73841 86.256 13.6757 91.7692 20.6626 92.3778C23.8289 92.6532 24.5476 92.6063 24.2448 92.1417C23.7481 91.3811 22.0458 88.296 21.0511 86.3543C20.7935 85.8514 20.3938 85.1446 20.1627 84.7829C19.1251 83.1594 19.049 81.9794 19.9224 81.06C20.4395 80.5154 20.1147 77.94 19.3326 76.3822C18.9459 75.612 18.9725 75.62 18.6045 76.1686C14.3714 82.4789 5.73493 77.6497 5.90998 69.0708C5.93673 67.7617 5.93673 67.7617 5.57032 67.472C5.14264 67.1349 5.1927 67.1497 5.04208 67.3114ZM59.9377 67.476C59.5837 67.7617 59.5837 67.7617 59.6104 69.0708C59.7856 77.6497 51.1491 82.4783 46.916 76.1686C46.548 75.62 46.5747 75.612 46.1879 76.3822C45.4059 77.94 45.081 80.5154 45.5982 81.06C46.4716 81.9794 46.3955 83.1594 45.3578 84.7829C45.1268 85.1446 44.7271 85.8514 44.4694 86.3543C43.4748 88.296 41.7724 91.3811 41.2758 92.1417C40.971 92.6092 40.8858 92.5868 42.6688 92.5046C46.3873 92.3337 47.9341 91.9954 50.9502 90.6937C61.8559 85.9886 66.2905 75.9925 60.9994 68.0429C60.3455 67.06 60.4099 67.0949 59.9377 67.476ZM7.3787 68.8543C6.81635 70.6926 7.92956 74.1571 9.65346 75.9343C10.1887 76.4857 10.2209 76.4892 10.007 75.972C9.14751 73.892 9.46263 71.3126 10.6764 70.4937C10.9008 70.3422 10.4909 70.088 8.9131 69.4011C8.54611 69.2411 8.07027 69.024 7.85565 68.9183C7.39239 68.6897 7.42761 68.6949 7.3787 68.8543ZM57.7389 68.8806C57.5793 68.9622 57.0832 69.1914 56.6365 69.3897C54.9123 70.1532 54.6126 70.3378 54.8433 70.4932C56.058 71.3125 56.3734 73.8908 55.5136 75.972C55.2997 76.4892 55.3318 76.4857 55.8671 75.9343C57.591 74.1571 58.7041 70.6926 58.1418 68.8543C58.0936 68.6971 58.096 68.6971 57.7389 68.8806ZM32.0735 72.3863C29.8533 72.7778 27.7753 75.1474 26.1638 79.1257C25.3559 81.1206 24.9357 81.4092 22.2583 81.8103C20.4963 82.0743 20.3801 82.4971 21.591 84.2371C22.4665 85.4954 23.5359 87.2337 24.6653 89.2337C26.6838 92.8092 27.4286 93.9949 28.4551 95.2686C31.9953 99.6622 35.0211 98.9417 38.7749 92.8114C39.514 91.6046 39.6063 91.4457 40.8552 89.2337C41.9847 87.2337 43.054 85.4954 43.9295 84.2371C45.1404 82.4971 45.0242 82.0743 43.2623 81.8103C40.5848 81.4092 40.1646 81.1206 39.3567 79.1257C37.414 74.3297 34.7951 71.9063 32.0735 72.3863ZM26.1749 81.8446C25.6326 82.1229 25.4371 82.6571 25.6895 83.1708C25.8897 83.5778 26.4409 83.7806 26.7801 83.572C26.8734 83.5149 26.9439 83.536 27.229 83.708C28.2484 84.3217 28.6369 84.2029 28.3201 83.3737C27.8365 82.1086 26.9254 81.4594 26.1749 81.8446ZM38.3483 81.8703C37.7261 82.1817 36.9305 83.5126 37.1258 83.916C37.267 84.2074 37.5441 84.1583 38.2915 83.708C38.5766 83.536 38.6471 83.5149 38.7404 83.572C39.0796 83.7806 39.6309 83.5778 39.8311 83.1708C40.2634 82.2914 39.2618 81.4126 38.3483 81.8703Z" fill="#22110C"/>
<path d="M37.838 43.1584C37.806 43.1669 37.6866 43.1891 37.5727 43.2078C37.3656 43.2417 37.3656 43.2417 37.3902 43.7125C37.4752 45.3367 36.6321 46.8291 35.1546 47.6699C35.1153 47.6924 35.3614 48.2961 35.4065 48.2879C36.7651 48.0392 37.6646 48.1489 38.408 48.6539C38.5395 48.7433 38.6458 48.7818 38.6691 48.7485C38.6906 48.7176 38.8173 48.5521 38.9508 48.3806C40.0845 46.924 40.2225 44.4551 39.2188 43.5851C38.9084 43.3159 38.1385 43.0781 37.838 43.1584Z" fill="#2430F0"/>
<path d="M45.7839 42.4636C45.7726 42.4979 45.7357 42.7122 45.7017 42.9398C45.5672 43.842 45.2437 44.4788 44.5642 45.1793C44.1323 45.6244 44.1323 45.6244 44.3141 45.8467C44.9906 46.6734 45.275 47.992 45.0027 49.0402C44.9388 49.2861 44.8867 49.4942 44.8867 49.5029C44.8867 49.6442 46.4645 48.9922 47.0174 48.6225C49.3182 47.0837 49.2782 43.7339 46.9465 42.6631C46.5619 42.4866 45.8181 42.3589 45.7839 42.4636Z" fill="#2430F0"/>
<path d="M40.8242 39.3407C40.82 40.1282 40.3619 41.4184 39.8469 42.0932C39.6108 42.4027 39.6108 42.4027 39.9573 42.7674C40.3216 43.151 40.6574 43.7335 40.7715 44.1799C40.8394 44.4455 40.8395 44.4455 41.1076 44.4044C41.8474 44.2907 42.4819 44.3985 43.0447 44.7334C43.4069 44.949 43.3826 44.9566 43.7447 44.5121C45.011 42.958 44.6335 40.4815 43.0112 39.6995C42.3146 39.3637 40.8254 39.1194 40.8242 39.3407Z" fill="#2430F0"/>
<path d="M36.8052 37.876C36.7579 39.0253 36.5501 39.7554 36.0524 40.5195C35.8703 40.799 35.8703 40.799 36.1462 41.0284C36.298 41.1545 36.5423 41.4235 36.6892 41.6263C36.9847 42.0342 36.8993 42.0113 37.5966 41.8698C37.8089 41.8267 37.98 41.8334 38.2898 41.897C38.768 41.9952 38.6898 42.0572 39.0847 41.2686C40.2 39.0424 39.4708 37.1615 37.4608 37.0798L36.839 37.0547L36.8052 37.876Z" fill="#2430F0"/>
<path d="M32.1294 35.4723C30.2933 35.7949 29.7004 37.4873 30.6772 39.6175C30.9681 40.2518 30.9681 40.2518 31.4144 40.2564C31.8154 40.2605 31.9066 40.284 32.3107 40.4873C32.7607 40.7137 32.7607 40.7137 33.2106 40.4873C33.6147 40.284 33.7059 40.2605 34.1068 40.2564C34.5532 40.2518 34.5532 40.2518 34.8438 39.6175C36.0421 37.0018 34.7401 35.0136 32.1294 35.4723Z" fill="#2430F0"/>
<path d="M30.511 42.0673C28.9317 42.7914 28.7884 44.5568 30.145 46.5749C30.5622 47.1955 30.5622 47.1955 30.7247 46.943C31.5892 45.6007 33.9321 45.6007 34.7965 46.943C35.0317 47.3081 35.9783 45.9163 36.2187 44.8517C36.6479 42.9516 34.7658 41.019 33.7018 42.2674C33.4755 42.533 33.1975 43.0207 33.0877 43.3446C32.875 43.9722 32.6463 43.9722 32.4336 43.3446C32.2636 42.8429 31.9051 42.3019 31.5778 42.0531C31.3452 41.8763 30.9152 41.882 30.511 42.0673Z" fill="#2430F0"/>
<path d="M27.2247 43.1894C25.3997 43.4481 25.0277 46.3984 26.5701 48.3803C26.7035 48.5517 26.8303 48.7171 26.8518 48.748C26.8751 48.7813 26.9814 48.7429 27.1129 48.6535C27.8563 48.1485 28.7558 48.0388 30.1144 48.2875C30.1595 48.2958 30.4056 47.692 30.3663 47.6695C28.8888 46.8287 28.0457 45.3362 28.1306 43.712C28.1553 43.2412 28.1553 43.2412 27.9482 43.207C27.8343 43.1881 27.7018 43.1657 27.654 43.1569C27.6061 43.1481 27.4129 43.1628 27.2247 43.1894Z" fill="#2430F0"/>
<path d="M23.3024 39.3864C21.0543 39.9658 20.2553 42.6461 21.7748 44.5109C22.1369 44.9554 22.1125 44.9477 22.4748 44.7321C23.0376 44.3972 23.672 44.2894 24.4119 44.403C24.68 44.4442 24.68 44.4442 24.7479 44.1786C24.8621 43.7322 25.1978 43.1497 25.5622 42.7662C25.9085 42.4015 25.9085 42.4015 25.6725 42.092C25.1575 41.4171 24.6995 40.127 24.6952 39.3394C24.6949 39.2648 23.6353 39.3006 23.3024 39.3864Z" fill="#2430F0"/>
<path d="M27.4195 37.1469C25.9151 37.5464 25.4812 39.3643 26.4354 41.269C26.8304 42.0576 26.7521 41.9957 27.2303 41.8975C27.5401 41.8338 27.7112 41.8271 27.9236 41.8703C28.6208 42.0117 28.5354 42.0346 28.831 41.6267C28.9779 41.4239 29.2222 41.155 29.3739 41.0288C29.6498 40.7994 29.6498 40.7994 29.4678 40.52C28.9712 39.7575 28.7622 39.0253 28.7152 37.8833C28.6799 37.0235 28.4263 36.8794 27.4195 37.1469Z" fill="#2430F0"/>
<path d="M19.2999 42.4527C16.4308 42.824 15.9067 46.8853 18.5036 48.6222C19.0565 48.9919 20.6344 49.6439 20.6344 49.5026C20.6344 49.4939 20.5822 49.2857 20.5184 49.0399C20.2462 47.992 20.5304 46.673 21.2063 45.8471C21.3875 45.6257 21.3875 45.6257 20.9325 45.1522C20.2583 44.4507 19.8932 43.6965 19.7926 42.797C19.7451 42.3727 19.7721 42.3915 19.2999 42.4527Z" fill="#2430F0"/>
<path d="M56.231 59.6761C49.8819 60.3418 45.0541 66.3252 43.9901 74.8469C43.8208 76.2036 43.7013 80.2715 43.8287 80.3441C44.1758 80.5407 44.4235 80.4355 44.4235 80.0921C44.4235 75.0933 46.3536 72.8018 53.707 69.0704C55.7014 68.0584 55.7241 68.0447 56.9714 67.0566C61.6808 63.3276 61.2612 59.1487 56.231 59.6761Z" fill="#2BE1B7"/>
<path d="M59.9385 67.4767C59.5845 67.7624 59.5845 67.7624 59.6111 69.0715C59.7864 77.6503 51.1499 82.4789 46.9168 76.1692C46.5488 75.6207 46.5754 75.6126 46.1887 76.3829C45.4066 77.9407 45.0818 80.5161 45.5989 81.0607C46.4724 81.98 46.3963 83.16 45.3586 84.7835C45.1276 85.1452 44.7278 85.8521 44.4702 86.3549C43.4755 88.2967 41.7732 91.3818 41.2766 92.1424C40.9718 92.6097 40.8865 92.5875 42.6696 92.5053C46.3881 92.3343 47.9349 91.9961 50.951 90.6943C61.8566 85.9892 66.2913 75.9932 61.0002 68.0435C60.3463 67.0607 60.4107 67.0956 59.9385 67.4767Z" fill="#2BE1B7"/>
<path d="M5.04213 67.312C2.37136 70.1795 1.58429 76.1017 3.3126 80.3263C5.73846 86.2566 13.6757 91.7698 20.6627 92.3783C23.8289 92.6537 24.5476 92.6069 24.2448 92.1423C23.7482 91.3817 22.0458 88.2966 21.0512 86.3549C20.7935 85.852 20.3938 85.1452 20.1628 84.7834C19.1251 83.16 19.049 81.98 19.9224 81.0606C20.4396 80.516 20.1147 77.9406 19.3326 76.3828C18.9459 75.6126 18.9726 75.6206 18.6046 76.1692C14.3715 82.4795 5.73498 77.6503 5.91003 69.0714C5.93677 67.7623 5.93677 67.7623 5.57037 67.4726C5.14269 67.1355 5.19275 67.1503 5.04213 67.312Z" fill="#2BE1B7"/>
<path d="M7.52909 59.6949C4.10531 60.2303 4.62026 63.9446 8.54975 67.0565C9.79712 68.0446 9.81975 68.0582 11.8141 69.0703C19.1663 72.8011 21.0976 75.0936 21.0976 80.092C21.0976 80.4354 21.3454 80.5406 21.6924 80.344C21.7549 80.3085 21.745 77.9177 21.6771 76.64C21.358 70.64 18.9172 65.0314 15.4183 62.2589C13.1039 60.4246 9.7771 59.3434 7.52909 59.6949Z" fill="#2BE1B7"/>
<path d="M23.5225 45.5494C21.2859 46.1424 21.1293 49.1863 23.235 51.135C24.757 52.5435 23.2705 52.2133 21.6128 50.7747C21.1634 50.3846 21.1634 50.3846 20.8208 50.4199C19.4218 50.5639 17.2667 49.3455 16.1176 47.7609C15.8525 47.3952 15.8525 47.3952 15.6839 47.5895C13.2947 50.34 11.935 52.8029 10.3865 57.1835C10.0033 58.2681 9.9994 58.1835 10.4354 58.2652C17.8755 59.656 22.7848 67.4629 22.9377 78.147C22.971 80.48 22.9119 80.34 23.736 80.0367C24.2391 79.8509 24.3411 79.7098 24.7522 78.6314C26.6335 73.6955 28.2172 71.7384 30.8706 71.0703C31.4197 70.9321 31.4036 70.9424 31.4506 70.696C31.5566 70.1395 32.1531 68.6824 32.3681 68.4549C32.8864 67.907 33.7553 69.0521 34.0685 70.696C34.1154 70.9424 34.0993 70.9321 34.6484 71.0703C37.3017 71.7384 38.8854 73.6955 40.7668 78.6314C41.1779 79.7098 41.2798 79.8509 41.783 80.0367C42.6071 80.34 42.5479 80.48 42.5813 78.147C42.7342 67.4624 47.643 59.656 55.0835 58.2652C55.5195 58.1835 55.5158 58.2681 55.1325 57.1835C53.584 52.8029 52.2243 50.34 49.8351 47.5895C49.6665 47.3952 49.6665 47.3952 49.4013 47.7609C48.2523 49.3455 46.0972 50.5639 44.6982 50.4199C44.3556 50.3846 44.3556 50.3846 43.9062 50.7747C42.2484 52.2133 40.7619 52.5435 42.284 51.135C43.8033 49.729 44.1869 48.2772 43.4289 46.8008C42.8284 45.6309 40.9757 44.9298 40.858 45.8279C40.6698 47.2644 40.0932 48.3695 39.2246 48.9581C38.9717 49.1295 38.9717 49.1295 39.1874 49.5137C39.6835 50.3978 39.4383 51.5469 38.5689 52.4124C37.8332 53.1447 37.2422 53.1927 37.9172 52.4652C38.8028 51.511 38.7412 50.3479 37.7904 50.0698C37.2216 49.9035 35.4285 49.974 35.4285 50.1628C35.4285 50.5921 34.8522 51.9119 34.51 52.2661C34.0856 52.7055 33.9966 52.515 34.2889 51.7926C35.1844 49.5792 34.438 47.4695 32.7595 47.4695C31.0809 47.4695 30.3346 49.5792 31.23 51.7926C31.5224 52.515 31.4333 52.7055 31.009 52.2661C30.6668 51.9119 30.0905 50.5921 30.0905 50.1628C30.0905 49.974 28.2974 49.9035 27.7286 50.0698C26.7777 50.3479 26.7161 51.511 27.6017 52.4652C28.2768 53.1927 27.6858 53.1447 26.9501 52.4124C26.0806 51.5469 25.8355 50.3978 26.3317 49.5137C26.5473 49.1295 26.5473 49.1295 26.2943 48.9581C25.4266 48.3702 24.8491 47.2641 24.6614 45.8314C24.6305 45.5959 24.5978 45.5298 24.499 45.5037C24.2951 45.4498 23.813 45.4724 23.5225 45.5494Z" fill="#2430F0"/>
<path fill-rule="evenodd" clip-rule="evenodd" d="M32.0741 72.386C29.8539 72.7774 27.7759 75.1471 26.1644 79.1253C25.3564 81.1202 24.9363 81.4088 22.2589 81.8099C20.4969 82.0739 20.3808 82.4968 21.5917 84.2368C22.4672 85.495 23.5365 87.2333 24.666 89.2333C26.6843 92.8088 27.4292 93.9945 28.4557 95.2682C31.9959 99.6619 35.0218 98.9414 38.7755 92.8111C39.5146 91.6042 39.6069 91.4453 40.8559 89.2333C41.9853 87.2333 43.0546 85.495 43.9301 84.2368C45.1409 82.4968 45.0249 82.0739 43.2629 81.8099C40.5854 81.4088 40.1653 81.1202 39.3574 79.1253C37.4146 74.3293 34.7957 71.906 32.0741 72.386ZM25.6901 83.1705C25.4377 82.6568 25.6332 82.1225 26.1755 81.8442C26.926 81.459 27.8372 82.1082 28.3207 83.3733C28.6376 84.2025 28.249 84.3214 27.2297 83.7076C26.9446 83.5357 26.8741 83.5145 26.7807 83.5717C26.4415 83.7802 25.8903 83.5774 25.6901 83.1705ZM37.1264 83.9157C36.9312 83.5122 37.7268 82.1814 38.3488 81.8699C39.2624 81.4122 40.264 82.2911 39.8317 83.1705C39.6315 83.5774 39.0803 83.7802 38.7411 83.5717C38.6477 83.5145 38.5773 83.5357 38.292 83.7076C37.5446 84.1579 37.2676 84.2071 37.1264 83.9157Z" fill="#F2C79C"/>
<path fill-rule="evenodd" clip-rule="evenodd" d="M20.8177 24.9008C20.0456 22.0359 17.6407 19.7792 14.3731 20.381C11.7804 20.8585 9.47654 22.8204 8.87305 25.0446C9.05135 25.6642 9.34621 26.2625 9.76914 26.8132C12.7612 30.7094 18.149 30.3164 20.3688 26.0399C20.5631 25.6656 20.7115 25.2843 20.8177 24.9008Z" fill="#2430F0"/>
<path fill-rule="evenodd" clip-rule="evenodd" d="M23.771 14.1145C23.6598 13.7859 23.5718 13.4554 23.5059 13.1244C24.1818 9.68028 27.5223 6.6916 31.4726 5.9808C36.7596 5.0296 41.1145 8.59674 42.0177 13.1184C41.9512 13.4499 41.8624 13.7824 41.7499 14.1145C39.0888 21.9806 26.4321 21.9806 23.771 14.1145Z" fill="#2430F0"/>
<path d="M49.5668 17.3316C45.8149 17.9991 43.8705 21.6459 44.7083 24.8955C45.2625 22.7176 47.4282 20.8435 50.0074 20.3846C53.3883 19.783 55.8527 22.1837 56.6472 25.0662C57.8038 21.1356 54.1161 16.5221 49.5668 17.3316Z" fill="#2430F0"/>
<path d="M23.5057 13.1249C24.1815 9.68076 27.522 6.69208 31.4723 5.98128C36.7594 5.03007 41.1142 8.59722 42.0174 13.1189C43.1834 7.30522 37.4723 1.76953 31.0317 2.92831C25.939 3.84462 22.5921 8.53476 23.5057 13.1249Z" fill="#2430F0"/>
<path d="M14.3722 20.3814C17.6397 19.7797 20.0447 22.0363 20.8168 24.9012C21.9383 20.8441 18.3146 16.5213 13.9316 17.3285C10.1705 18.0211 7.94473 21.822 8.87215 25.0451C9.47565 22.8209 11.7794 20.859 14.3722 20.3814Z" fill="#2430F0"/>
<path d="M46.5176 27.8939C49.2153 30.4002 53.3715 29.9138 55.7527 26.8131C56.176 26.2617 56.4695 25.6718 56.6479 25.0658C55.8534 22.1833 53.389 19.7826 50.0081 20.3841C47.4289 20.8431 45.2632 22.7171 44.709 24.895C44.989 25.9809 45.5798 27.0227 46.5176 27.8939Z" fill="#2430F0"/>
<path fill-rule="evenodd" clip-rule="evenodd" d="M24.9087 10.0218C26.3846 8.00311 28.7902 6.46493 31.4781 5.98128C35.5004 5.25761 38.9832 7.14922 40.817 10.0867C41.1665 9.74031 41.4861 9.38819 41.7503 9.04328C40.3862 5.02066 35.9215 2.04956 31.0375 2.92831C27.6632 3.53542 25.0553 5.79922 23.9453 8.59293C24.1854 9.04882 24.5245 9.53796 24.9087 10.0218Z" fill="#F2C79C"/>
<path d="M24.9082 10.0213C26.2186 11.6715 28.0531 13.2606 28.2742 13.2606C28.4415 13.2606 29.3665 12.3758 30.3272 11.457C31.3647 10.4644 32.4439 9.4321 32.6549 9.4321C32.8579 9.4321 33.7283 10.3892 34.5986 11.3463C35.469 12.3035 36.3392 13.2606 36.5424 13.2606C36.8014 13.2606 39.1496 11.7379 40.8165 10.0862C38.9827 7.14874 35.4999 5.25712 31.4777 5.98079C28.7897 6.46445 26.3842 8.00262 24.9082 10.0213Z" fill="#2BE1B7"/>
<path d="M8.90337 24.8839C9.57179 22.7267 11.8266 20.8474 14.3566 20.3814C16.2912 20.0252 17.9234 20.6708 19.0933 21.8514C19.3107 21.06 19.4681 20.1148 19.4496 19.3213C18.1365 17.8158 16.1225 16.9222 13.916 17.3285C10.2437 18.0047 8.03506 21.6443 8.79608 24.8158C8.83136 24.8388 8.86717 24.8614 8.90337 24.8839Z" fill="#2BE1B7"/>
<path d="M8.90234 24.8835C10.3252 25.7685 12.2649 26.1549 12.776 25.8614C13.1716 25.6341 13.3548 24.4878 13.3978 23.3072C13.4306 22.4099 13.4599 21.6067 13.6353 21.4586C13.8291 21.2949 14.7693 21.8274 15.7656 22.3917C16.8574 23.0099 18.0908 23.5492 18.4094 23.3699C18.6371 23.2418 18.8615 22.6917 19.0923 21.851C17.9224 20.6704 16.2901 20.0248 14.3555 20.381C11.8256 20.847 9.57076 22.7264 8.90234 24.8835Z" fill="#2BE1B7"/>
<path fill-rule="evenodd" clip-rule="evenodd" d="M45.1405 20.8045C45.2275 21.433 47.0552 24.8045 47.5484 24.9188C47.8155 24.9807 48.7291 24.3388 49.5661 23.7508C50.2746 23.2529 50.9282 22.7938 51.0878 22.833C51.2334 22.8689 51.5108 23.2993 51.8351 23.8026C52.2867 24.5032 52.8295 25.3452 53.2345 25.4616C53.7594 25.6123 55.8495 24.5298 56.8723 23.8038C57.0303 20.2206 53.651 16.6076 49.5828 17.3316C47.4584 17.7096 45.9135 19.0427 45.125 20.718C45.131 20.7445 45.1361 20.7731 45.1405 20.8045Z" fill="#2BE1B7"/>
<path d="M57.7389 68.8813C57.5793 68.9629 57.0833 69.1921 56.6365 69.3904C54.9123 70.1538 54.6127 70.3384 54.8433 70.4938C56.058 71.3132 56.3734 73.8915 55.5136 75.9727C55.2997 76.4899 55.3319 76.4864 55.8671 75.935C57.591 74.1578 58.7042 70.6932 58.1418 68.855C58.0937 68.6978 58.096 68.6978 57.7389 68.8813Z" fill="#F1F1F1"/>
<path d="M7.37946 68.8546C6.8171 70.6929 7.93032 74.1575 9.65422 75.9346C10.1894 76.4861 10.2216 76.4895 10.0077 75.9724C9.14826 73.8924 9.46339 71.3129 10.6771 70.494C10.9016 70.3426 10.4917 70.0883 8.91386 69.4015C8.54687 69.2415 8.07103 69.0243 7.85639 68.9186C7.39314 68.69 7.42836 68.6952 7.37946 68.8546Z" fill="#F1F1F1"/>
<path d="M53.9613 74.091C53.9613 73.9013 53.7924 73.748 53.5841 73.748C53.3758 73.748 53.207 73.9013 53.207 74.091C53.207 74.2801 53.3758 74.4338 53.5841 74.4338C53.7924 74.4338 53.9613 74.2801 53.9613 74.091Z" fill="#F1F1F1"/>
<path opacity="0.2" fill-rule="evenodd" clip-rule="evenodd" d="M41.5003 14.7637C38.2722 18.3047 31.856 20.2532 24.5246 15.7439C28.1498 21.7482 38.6202 21.4215 41.5003 14.7637ZM19.4429 27.4099C16.045 28.8097 11.4315 27.3766 9.17773 25.8505C9.33602 26.1832 9.5323 26.5056 9.76851 26.8132C12.402 30.2423 16.8911 30.3489 19.4429 27.4099ZM56.2771 25.9879C54.3235 27.7972 50.3677 29.0834 45.7474 27.0435C45.9715 27.3408 46.2276 27.6255 46.5167 27.894C49.2145 30.4004 53.3706 29.9139 55.7519 26.8132C55.9568 26.5463 56.1313 26.2704 56.2771 25.9879Z" fill="#22110C"/>
<path d="M23.5057 13.1249C24.1815 9.68075 27.522 6.69206 31.4723 5.98132C36.7594 5.03007 41.1142 8.59721 42.0174 13.1189C43.1834 7.30527 37.4723 1.76953 31.0317 2.92831C25.939 3.84461 22.5921 8.53481 23.5057 13.1249Z" fill="#2430F0"/>
<path fill-rule="evenodd" clip-rule="evenodd" d="M24.9087 10.0217C26.3846 8.00309 28.7902 6.46492 31.4781 5.98132C35.5004 5.25761 38.9832 7.1492 40.817 10.0867C41.1665 9.74029 41.4861 9.38823 41.7503 9.04332C40.3862 5.02065 35.9215 2.04957 31.0375 2.92831C27.6632 3.53542 25.0553 5.7992 23.9453 8.59292C24.1854 9.04881 24.5245 9.53795 24.9087 10.0217Z" fill="#2BE1B7"/>
<g opacity="0.2">
<g style="mix-blend-mode:hard-light">
<path fill-rule="evenodd" clip-rule="evenodd" d="M35.0869 36.7116C34.6627 35.7357 33.6051 35.213 32.1292 35.4723C31.2576 35.6256 30.6662 36.0874 30.3898 36.7582C30.9714 36.2853 32.0005 36.1307 32.7684 36.1146C33.5104 36.1302 34.4964 36.275 35.0869 36.7116ZM28.6253 37.3292C27.9064 37.4379 26.5935 37.7823 26.0229 38.5748C26.2132 37.8668 26.6908 37.3403 27.4196 37.1467C28.1491 36.9529 28.4832 36.9752 28.6253 37.3292ZM24.7043 39.5282C24.6989 39.463 24.696 39.4001 24.6956 39.3403C24.6951 39.2657 23.6356 39.3015 23.3028 39.3872C22.1635 39.6809 21.3963 40.5141 21.1146 41.5073C21.8766 40.4463 23.2953 39.5615 24.7043 39.5282ZM16.8262 45.3092C17.1629 44.1812 18.4177 43.0044 19.4377 43.0044C19.582 43.0044 19.7077 42.9966 19.8169 42.9826C19.8073 42.9216 19.7991 42.8597 19.792 42.7973C19.7897 42.7764 19.7876 42.7565 19.7854 42.7377C19.7674 42.5711 19.758 42.4853 19.7097 42.4467C19.6583 42.4057 19.5628 42.4183 19.3657 42.4442C19.3447 42.4471 19.3226 42.4501 19.2993 42.453C17.7598 42.6522 16.8953 43.9141 16.8262 45.3092ZM32.124 42.6971C31.5323 42.2445 30.6567 42.0657 29.4272 43.0786C29.6348 42.6492 29.9967 42.3031 30.5108 42.0674C30.915 41.8821 31.345 41.8764 31.5776 42.0532C31.7631 42.1941 31.9585 42.4289 32.124 42.6971ZM35.9292 42.9365C35.3984 41.9723 34.3825 41.4687 33.7017 42.2675C33.6024 42.384 33.4931 42.5434 33.3925 42.7128C33.9554 42.2716 34.7802 42.0737 35.9292 42.9365ZM28.1408 43.5085C28.1497 43.2407 28.1202 43.2358 27.9487 43.2074C27.8348 43.1886 27.7023 43.166 27.6545 43.1572C27.6066 43.1484 27.4134 43.1631 27.2252 43.1897C26.3288 43.3169 25.783 44.0933 25.6424 45.0854C25.9972 43.9503 27.335 43.4203 28.1408 43.5085ZM40.8923 45.6969C41.1711 45.0055 42.8614 45.6929 43.4299 46.8003C43.588 47.108 43.6964 47.4147 43.7552 47.7202C43.3196 46.5143 41.9478 45.9617 40.8923 45.6969ZM35.4281 50.2019C35.429 50.1879 35.4295 50.1746 35.4295 50.1622C35.4295 49.9735 37.2226 49.9029 37.7914 50.0692C38.0609 50.148 38.2589 50.2979 38.3842 50.494C37.84 50.021 36.6561 50.1088 35.4281 50.2019ZM31.3069 48.2473C31.6368 47.7632 32.1336 47.4689 32.7605 47.4689C33.3755 47.4689 33.8654 47.7522 34.1952 48.22C33.7844 47.9042 33.2216 47.7421 32.7684 47.7002C32.3022 47.7432 31.7204 47.9135 31.3069 48.2473ZM27.1167 50.5269C27.2405 50.3146 27.4452 50.1524 27.7295 50.0692C28.2984 49.9029 30.0915 49.9735 30.0915 50.1622C30.0915 50.1743 30.0919 50.1872 30.0928 50.2007C28.8429 50.106 27.6412 50.0191 27.1167 50.5269ZM24.6408 45.6978C23.5616 45.969 22.1536 46.5412 21.753 47.8042C21.8176 46.7383 22.4152 45.8427 23.5235 45.5488C23.814 45.4718 24.2961 45.4492 24.5 45.5031C24.5769 45.5234 24.6138 45.568 24.6408 45.6978ZM39.5133 38.5743C39.268 37.7004 38.554 37.1244 37.4615 37.0802L36.8396 37.0549L36.8288 37.3174C37.5249 37.4113 38.92 37.7508 39.5133 38.5743ZM44.3887 41.4614C44.1862 40.6973 43.7166 40.0385 43.0123 39.699C42.3157 39.3632 40.8265 39.1189 40.8253 39.3403C40.825 39.4001 40.8221 39.4628 40.8167 39.5279C42.2105 39.5545 43.6162 40.417 44.3887 41.4614ZM48.7151 45.3245C48.3852 44.1919 47.1237 43.0044 46.099 43.0044C45.9442 43.0044 45.8108 42.9954 45.6962 42.9794C45.6982 42.9664 45.7003 42.9531 45.7022 42.9398C45.7361 42.7122 45.7731 42.4979 45.7844 42.4636C45.8186 42.3589 46.5624 42.4866 46.947 42.6631C48.065 43.1766 48.6562 44.214 48.7151 45.3245ZM39.8606 44.9869C39.7842 44.3972 39.5722 43.8918 39.2183 43.585C38.9078 43.3159 38.1381 43.078 37.8374 43.1583C37.8055 43.1668 37.6862 43.189 37.5723 43.2077C37.4005 43.2359 37.3712 43.2407 37.3802 43.5103C38.1608 43.4162 39.4587 43.9125 39.8606 44.9869Z" fill="white"/>
</g>
</g>
<g style="mix-blend-mode:hard-light">
<path fill-rule="evenodd" clip-rule="evenodd" d="M59.3016 60.1869C57.0153 60.0178 54.3491 60.764 52.4225 61.9475C49.7244 63.6046 45.5759 68.0046 44.7055 72.2618C44.4647 73.4389 44.2841 73.824 44.1504 73.7394C45.4797 65.8097 50.1593 60.3126 56.2296 59.6761C57.5986 59.5326 58.6262 59.7378 59.3016 60.1869Z" fill="white" fill-opacity="0.4"/>
</g>
<g style="mix-blend-mode:hard-light">
<path fill-rule="evenodd" clip-rule="evenodd" d="M6.09961 60.2411C8.44511 59.9857 11.2522 60.744 13.2579 61.976C15.9559 63.6331 20.1045 68.0331 20.9748 72.2903C21.1114 72.9577 21.2285 73.3703 21.3287 73.5874C20.4857 68.7925 18.3144 64.5543 15.4182 62.2589C13.1038 60.4246 9.77695 59.3434 7.52894 59.6949C6.93479 59.7879 6.4593 59.9765 6.09961 60.2411Z" fill="white" fill-opacity="0.4"/>
</g>
<g style="mix-blend-mode:hard-light">
<path fill-rule="evenodd" clip-rule="evenodd" d="M27.0391 77.2095C28.9364 75.1547 31.3672 74.8044 32.6665 74.8044C34.0163 74.8044 36.6918 75.2335 38.6236 77.4912C36.7793 73.7861 34.466 71.9638 32.0735 72.3861C30.2367 72.7101 28.4974 74.3872 27.0391 77.2095Z" fill="white" fill-opacity="0.4"/>
</g>
<path opacity="0.2" fill-rule="evenodd" clip-rule="evenodd" d="M58.2888 69.9618C57.4212 70.3304 56.4497 70.7047 55.4005 71.0796C55.2437 70.8378 55.0573 70.6384 54.8429 70.4938C54.6123 70.3384 54.9121 70.1538 56.6362 69.3904C57.083 69.1921 57.579 68.963 57.7387 68.8813L57.7447 68.8778C57.9661 68.7642 58.0468 68.7224 58.0886 68.747C58.1124 68.7607 58.1234 68.7961 58.1409 68.8527L58.1414 68.855C58.2406 69.1796 58.2877 69.5543 58.2888 69.9618ZM7.23242 69.8681C8.10914 70.2589 9.08698 70.655 10.1386 71.0504C10.2912 70.8218 10.4707 70.6327 10.676 70.4945C10.9006 70.343 10.4906 70.0887 8.91287 69.4018C8.54587 69.2418 8.07002 69.0247 7.8554 68.9189C7.82553 68.9042 7.79778 68.8904 7.77191 68.8778C7.53837 68.7624 7.46079 68.7235 7.42459 68.7475C7.40654 68.7589 7.39877 68.7858 7.38705 68.8264C7.38444 68.835 7.38165 68.8447 7.37846 68.855C7.2869 69.1544 7.23973 69.4973 7.23242 69.8681Z" fill="#22110C"/>
<path opacity="0.2" fill-rule="evenodd" clip-rule="evenodd" d="M19.7782 84.1172C19.5931 86.0777 20.2756 88.2703 20.5907 89.2823C20.6443 89.4543 20.6873 89.5926 20.7136 89.6897C20.9383 90.5201 18.4951 91.8331 9.5332 87.8103C12.8422 90.2909 16.8906 92.0486 20.6621 92.3772C23.8283 92.6526 24.5471 92.6058 24.2443 92.1412C23.7476 91.3806 22.0453 88.2955 21.0506 86.3537C20.7931 85.8509 20.3932 85.144 20.1623 84.7823C20.0149 84.552 19.8869 84.3303 19.7782 84.1172Z" fill="#22110C"/>
<path opacity="0.2" fill-rule="evenodd" clip-rule="evenodd" d="M56.0426 87.7936C47.0486 91.8375 44.5979 90.5221 44.823 89.6907C44.8493 89.5936 44.8922 89.4558 44.9459 89.2833C45.2623 88.2667 45.9495 86.0587 45.7558 84.0918C45.6443 84.313 45.512 84.5433 45.3586 84.7833C45.1276 85.145 44.7279 85.8518 44.4702 86.3547C43.4756 88.2964 41.7732 91.3815 41.2766 92.1421C41.166 92.3118 41.0845 92.4164 41.1102 92.4775C41.1555 92.5855 41.5329 92.5575 42.6696 92.505C46.3881 92.3341 47.9349 91.9958 50.9511 90.6941C52.8502 89.8747 54.553 88.8953 56.0426 87.7936Z" fill="#22110C"/>
<path opacity="0.2" fill-rule="evenodd" clip-rule="evenodd" d="M24.1582 88.3456C26.1189 91.4685 26.9135 92.5924 27.9854 93.7942C31.9066 98.1913 35.2581 97.4702 39.4157 91.3348C40.1945 90.1862 40.3249 89.9862 41.5263 88.0645C41.3058 88.4421 41.0818 88.833 40.8555 89.2336C39.6065 91.4456 39.5143 91.6045 38.7751 92.8113C35.0214 98.9416 31.9955 99.6621 28.4553 95.2685C27.4289 93.9948 26.684 92.8091 24.6655 89.2336C24.4948 88.9313 24.3256 88.6353 24.1582 88.3456Z" fill="#22110C"/>
<path d="M32.7253 66.8906C32 66.8906 31.0717 71.9763 30.6656 71.9763L29.8242 72.7477L32.7253 71.9763L36.0616 72.9477C35.7037 72.6237 34.9359 71.9763 34.7271 71.9763C34.466 71.9763 33.4506 66.8906 32.7253 66.8906Z" fill="black" fill-opacity="0.2"/>
<path d="M27.9085 53.2334C27.5023 53.2334 26.1387 52.2905 26.1387 50.8905C26.3322 50.5382 26.719 49.9877 26.719 50.6048C26.719 51.3762 27.5894 52.3762 27.8214 52.6048C28.0535 52.8334 28.3146 53.2334 27.9085 53.2334Z" fill="black" fill-opacity="0.2"/>
<path d="M20.1334 50.8902C18.4797 50.8902 16.333 48.7473 15.2305 47.2902L15.8978 46.7188L17.4063 48.8616L20.8296 49.8616L21.497 48.7759C21.6613 49.0235 22.0481 49.6217 22.2803 50.0331C22.5704 50.5474 23.3246 50.9473 23.9338 51.8044C24.5431 52.6616 22.2222 51.6044 21.9321 51.4616C21.7 51.3473 21.1971 50.995 20.9747 50.833C20.9747 50.8521 20.8065 50.8902 20.1334 50.8902Z" fill="black" fill-opacity="0.2"/>
<path d="M25.3265 48.2907C24.6593 47.4621 24.8913 46.4907 24.7754 45.6621L26.6611 49.0335L26.516 49.2907L26.5121 49.2887C26.3258 49.1921 25.8567 48.949 25.3265 48.2907Z" fill="black" fill-opacity="0.2"/>
<path d="M31.2737 52.7184C30.6644 52.5756 30.1133 51.1756 30.1133 50.1184L30.6935 49.8613L31.0706 51.347C31.1867 51.8042 31.8829 52.8613 31.2737 52.7184Z" fill="black" fill-opacity="0.2"/>
<path d="M37.5696 53.2334C37.9757 53.2334 39.3392 52.2905 39.3392 50.8905C39.1458 50.5382 38.759 49.9877 38.759 50.6048C38.759 51.3762 37.8887 52.3762 37.6566 52.6048C37.4245 52.8334 37.1634 53.2334 37.5696 53.2334Z" fill="black" fill-opacity="0.2"/>
<path d="M45.3453 50.8902C46.999 50.8902 49.1458 48.7473 50.2483 47.2902L49.581 46.7188L48.0724 48.8616L44.6491 49.8616L43.9819 48.7759C43.8174 49.0235 43.4306 49.6217 43.1986 50.0331C42.9084 50.5474 42.1541 50.9473 41.5449 51.8044C40.9356 52.6616 43.2565 51.6044 43.5467 51.4616C43.7787 51.3473 44.2816 50.995 44.504 50.833C44.504 50.8521 44.6723 50.8902 45.3453 50.8902Z" fill="black" fill-opacity="0.2"/>
<path d="M40.1508 48.2907C40.818 47.4621 40.586 46.4907 40.7021 45.6621L38.8164 49.0335L38.9614 49.2907L38.9652 49.2887C39.1516 49.1921 39.6207 48.949 40.1508 48.2907Z" fill="black" fill-opacity="0.2"/>
<path d="M34.1743 52.747C34.7836 52.6041 35.3638 51.1756 35.3638 50.1184L34.7836 49.8613L34.4064 51.347C34.2904 51.8041 33.5651 52.8898 34.1743 52.747Z" fill="black" fill-opacity="0.2"/>
<path opacity="0.2" d="M25.8608 83.3473C25.6577 83.3473 26.2959 83.033 26.0928 82.4901C26.5764 82.2901 27.3346 82.4959 27.8916 82.9759C28.5879 83.5759 28.5879 85.0616 28.5588 85.6901C28.5298 86.3187 26.0638 83.3473 25.8608 83.3473Z" fill="#22110C"/>
<path opacity="0.2" d="M39.6211 83.3668C39.8241 83.3668 39.186 83.0525 39.389 82.5096C38.9055 82.3096 38.1473 82.5154 37.5903 82.9954C36.894 83.5954 36.894 85.0811 36.9231 85.7096C36.952 86.3382 39.418 83.3668 39.6211 83.3668Z" fill="#22110C"/>
<path opacity="0.2" fill-rule="evenodd" clip-rule="evenodd" d="M13.2859 68.8474C16.8172 70.928 20.2501 72.9509 20.2501 75.4612C20.2501 75.5417 20.2488 75.6217 20.2461 75.7C19.0981 73.3326 16.6085 71.5086 11.8023 69.0697C9.808 68.0577 9.78537 68.044 8.53802 67.056C5.47854 64.6331 4.48898 61.8451 5.81682 60.4766C4.92347 63.9206 9.17139 66.4234 13.2859 68.8474Z" fill="#22110C"/>
<path opacity="0.2" fill-rule="evenodd" clip-rule="evenodd" d="M5.87201 60.3789L5.84463 60.4846C5.40183 62.1914 6.23134 63.6686 7.69298 65.0252C9.15485 66.3818 11.2424 67.6114 13.3004 68.8241L13.302 68.8252C15.0665 69.8646 16.8092 70.8914 18.1106 71.9727C19.4116 73.0532 20.2788 74.1938 20.2788 75.4624C20.2788 75.5435 20.2775 75.6235 20.2748 75.7018L20.2196 75.7132C19.0762 73.3555 16.5951 71.5349 11.7889 69.096C10.7922 68.5903 10.2865 68.3332 9.87439 68.0789C9.46179 67.8246 9.14296 67.5732 8.51956 67.0795C6.98708 65.8657 5.97105 64.5595 5.50483 63.3824C5.03875 62.2057 5.12082 61.1532 5.79551 60.4578L5.87201 60.3789ZM5.55888 63.3618C6.02037 64.527 7.02886 65.8257 8.55589 67.0349C9.17986 67.5292 9.49602 67.7784 9.90519 68.0309C10.3148 68.2835 10.8177 68.5395 11.8154 69.0457C16.5498 71.4481 19.0447 73.2578 20.2197 75.5829C20.2204 75.5429 20.2208 75.5029 20.2208 75.4624C20.2208 74.2206 19.3715 73.0943 18.0732 72.016C16.7757 70.9384 15.0369 69.9138 13.2706 68.8732L13.2687 68.8721C11.2129 67.6606 9.1201 66.4281 7.65317 65.0663C6.21654 63.7332 5.37382 62.2709 5.76162 60.58C5.17825 61.2532 5.11579 62.2429 5.55888 63.3618Z" fill="#22110C"/>
<path opacity="0.2" fill-rule="evenodd" clip-rule="evenodd" d="M52.2788 68.8471C48.7475 70.9277 45.3145 72.9505 45.3145 75.4608C45.3145 75.4962 45.3148 75.5316 45.3154 75.5665C46.4912 73.2637 48.9767 71.4626 53.6934 69.0694C55.6878 68.0574 55.7104 68.0437 56.9577 67.0556C60.0163 64.6334 60.9116 62.022 59.7853 60.6328C60.5117 63.9968 56.3305 66.4602 52.2788 68.8471Z" fill="#22110C"/>
<path opacity="0.2" fill-rule="evenodd" clip-rule="evenodd" d="M59.9691 63.4677C59.5014 64.6026 58.5092 65.8649 56.9775 67.078C56.3541 67.5717 56.0352 67.8231 55.6226 68.078C55.2105 68.3317 54.7049 68.5888 53.7081 69.0952C48.9912 71.4883 46.5141 73.286 45.3428 75.5798L45.2878 75.5671C45.2873 75.5317 45.2871 75.4963 45.2871 75.4609C45.2871 74.1923 46.1543 73.0517 47.4552 71.9712C48.7568 70.89 50.4994 69.8631 52.2639 68.8237L52.2655 68.8226C54.2921 67.6288 56.3473 66.4174 57.8056 65.0855C59.264 63.7534 60.1181 62.306 59.7584 60.6391L59.8095 60.6152C60.3816 61.3203 60.4367 62.3328 59.9691 63.4677ZM59.8397 60.75C60.323 61.4283 60.3566 62.3757 59.9157 63.446C59.4526 64.5694 58.468 65.8243 56.9411 67.0334C56.3171 67.5277 56.0009 67.7769 55.5919 68.0295C55.1822 68.282 54.6793 68.538 53.6816 69.0442C49.036 71.4014 46.5471 73.1871 45.3451 75.45C45.3501 74.2123 46.1982 73.09 47.4927 72.0146C48.7902 70.9369 50.529 69.9123 52.2953 68.8717L52.2971 68.8706C54.3217 67.678 56.3819 66.4642 57.8451 65.1271C59.2734 63.8226 60.139 62.3946 59.8397 60.75Z" fill="#22110C"/>
<g style="mix-blend-mode:multiply">
<path fill-rule="evenodd" clip-rule="evenodd" d="M4.52016 67.9251C4.4852 70.7566 4.59445 82.9765 19.1756 82.9765C19.2352 82.9765 19.2945 82.9766 19.3533 82.9759C19.2129 82.224 19.3989 81.5977 19.9094 81.0605C20.4266 80.5159 20.1017 77.9405 19.3196 76.3828C19.1126 75.9702 19.0241 75.7811 18.9299 75.7783C18.8484 75.7759 18.7625 75.9142 18.5916 76.1691C14.3585 82.4794 5.72195 77.6502 5.897 69.0713C5.92374 67.7623 5.92374 67.7623 5.55734 67.4726C5.2904 67.2623 5.20958 67.1891 5.1499 67.2028C5.11398 67.2113 5.08571 67.2513 5.02911 67.312C4.85102 67.5034 4.68131 67.708 4.52016 67.9251Z" fill="black" fill-opacity="0.2"/>
</g>
<path opacity="0.2" fill-rule="evenodd" clip-rule="evenodd" d="M61.0701 68.1681C61.0922 71.3098 60.6947 83.0338 46.4127 83.0338C46.3179 83.0338 46.2242 83.0332 46.1315 83.0327C46.2923 82.2555 46.1099 81.6116 45.5866 81.0606C45.0695 80.516 45.3943 77.94 46.1765 76.3829C46.3835 75.9703 46.472 75.7813 46.5661 75.7784C46.6477 75.776 46.7336 75.9143 46.9045 76.1692C51.1376 82.4789 59.774 77.6503 59.5993 69.0715C59.5801 68.1406 59.5743 67.8715 59.7002 67.6915C59.7513 67.6178 59.8239 67.5595 59.9265 67.4767C60.118 67.3218 60.2212 67.2246 60.3199 67.2286C60.4644 67.2349 60.5991 67.4595 60.9877 68.0435C61.0156 68.0852 61.0429 68.127 61.0701 68.1681Z" fill="#22110C"/>
<path opacity="0.2" fill-rule="evenodd" clip-rule="evenodd" d="M30.2228 37.3432C30.1353 37.9933 30.2755 38.7711 30.664 39.6183C30.9549 40.2527 30.9549 40.2527 31.4012 40.2573C31.8022 40.2613 31.8934 40.2848 32.2975 40.4882C32.7474 40.7145 32.7474 40.7145 33.1973 40.4882C33.6015 40.2848 33.6926 40.2613 34.0936 40.2573C34.54 40.2527 34.54 40.2527 34.8306 39.6183C35.2189 38.7706 35.3447 37.9889 35.2484 37.3349C35.0557 38.3929 34.6118 39.7756 33.6162 39.891C33.1852 39.9803 32.8854 39.9859 32.7818 39.9773L32.7749 39.9766H32.6947H32.6878C32.5843 39.9853 32.2844 39.9803 31.8534 39.891C30.8605 39.7759 30.4163 38.4 30.2228 37.3432ZM36.04 40.5206C36.5376 39.7565 36.7455 39.0264 36.7927 37.8771L36.8176 37.2734C37.0084 38.3085 36.9575 39.758 36.0848 40.9886C35.8586 40.799 35.8695 40.7825 36.04 40.5206ZM39.5853 39.5472C39.545 40.0754 39.378 40.6596 39.0724 41.2697C39.0396 41.3351 39.0101 41.3947 38.9832 41.4488C38.8192 41.7799 38.7549 41.9097 38.656 41.9444C38.5923 41.9669 38.5141 41.9496 38.3855 41.9213C38.353 41.9141 38.3171 41.9062 38.2775 41.8981C37.9676 41.8345 37.7966 41.8278 37.5841 41.8709C37.5284 41.8822 37.4778 41.8928 37.4315 41.9024C37.4216 41.9044 37.4119 41.9063 37.4024 41.9084C37.4403 41.7951 37.7362 41.7028 38.0377 41.6086C38.3213 41.5201 38.6099 41.43 38.6932 41.3195C39.1066 40.7708 39.4222 40.2176 39.5853 39.5472ZM40.8123 39.3411C40.808 40.1286 40.35 41.4187 39.835 42.0937C39.6149 42.3821 39.6001 42.4016 39.8796 42.6985C40.4724 41.8546 41.0897 40.193 40.8562 39.2877C40.8279 39.3009 40.8124 39.3186 40.8123 39.3411ZM44.4736 42.0151C44.3977 42.4985 44.1266 43.5159 43.7121 43.9482C43.219 44.4625 43.0159 44.5196 42.6097 44.3482C42.3681 44.2462 42.0155 44.2958 41.759 44.3632C42.2248 44.3805 42.6458 44.5034 43.0327 44.7338L43.045 44.741L43.0669 44.7542C43.2078 44.8382 43.2857 44.8848 43.3569 44.8762C43.4456 44.8656 43.5235 44.7697 43.6984 44.5547L43.7158 44.5334L43.7328 44.5126C44.3202 43.7915 44.5539 42.872 44.4736 42.0151ZM48.6835 45.108C48.581 45.9057 48.2889 47.3242 47.1644 48.2624C46.1064 49.1453 45.3077 49.2052 45.1337 47.9481C45.1169 47.8268 45.0932 47.7624 45.0652 47.7435C45.1176 48.1871 45.0958 48.6344 44.9901 49.0411C44.9263 49.2869 44.8741 49.4951 44.8741 49.5038C44.8741 49.6451 46.4519 48.9931 47.0048 48.6233C48.2747 47.774 48.8315 46.373 48.6835 45.108ZM45.6843 42.9726C45.5469 43.8579 45.2231 44.4879 44.5516 45.1801C44.1198 45.6253 44.1198 45.6253 44.3015 45.8476C44.321 45.8713 44.3401 45.8955 44.359 45.9201C44.9372 45.3414 45.5814 44.2362 45.6843 42.9726ZM39.8777 45.6522C39.7703 46.2568 39.5935 46.9184 39.3314 47.2338C38.8093 47.8625 38.113 48.0338 37.5618 47.9481C37.2847 47.9051 36.8251 48.0251 36.4235 48.1652C37.2384 48.1311 37.8571 48.2896 38.3945 48.6547C38.526 48.744 38.6324 48.7826 38.6555 48.7493C38.677 48.7184 38.8038 48.5529 38.9373 48.3814C39.5274 47.6231 39.8477 46.5906 39.8777 45.6522ZM35.1943 47.8856C36.0295 47.4519 37.3684 46.2912 37.352 44.4445C37.19 45.7771 36.3934 46.958 35.141 47.6707C35.1259 47.6793 35.1529 47.7734 35.1943 47.8856ZM36.2527 44.5688C35.9949 45.3176 35.4214 46.4953 34.5156 46.1766C33.7033 45.8909 33.2101 45.8338 32.8039 45.8338C32.7779 45.8338 32.755 45.8362 32.7349 45.8408C32.7147 45.8362 32.6917 45.8338 32.6657 45.8338C32.2595 45.8338 31.7663 45.8909 30.9541 46.1766C30.1366 46.4642 29.5899 45.533 29.3014 44.7983C29.4358 45.351 29.712 45.9513 30.1318 46.5759C30.3948 46.9672 30.492 47.1116 30.5687 47.1019C30.6136 47.096 30.6514 47.0373 30.7116 46.944C31.5759 45.6016 33.9189 45.6016 34.7833 46.944C35.0184 47.3091 35.965 45.9172 36.2054 44.8527C36.2268 44.758 36.2424 44.6633 36.2527 44.5688ZM25.5932 45.6587C25.6032 46.5575 25.9135 47.5539 26.5575 48.3814C26.691 48.5529 26.8178 48.7184 26.8393 48.7493C26.8625 48.7826 26.9688 48.744 27.1004 48.6547C27.6314 48.2939 28.2421 48.1348 29.043 48.1641C28.6421 48.0245 28.1842 47.9052 27.9079 47.9481C27.3567 48.0338 26.6605 47.8625 26.1382 47.2338C25.8772 46.9195 25.7006 46.2615 25.5932 45.6587ZM28.1242 44.2543C28.009 46.2277 29.4349 47.4572 30.2965 47.8965C30.3402 47.7795 30.3694 47.6796 30.3538 47.6707C29.0421 46.9242 28.2303 45.6642 28.1242 44.2543ZM25.6008 42.7136C25.8953 42.4023 25.8836 42.387 25.6599 42.0937C25.1449 41.4187 24.6868 40.1286 24.6825 39.3411C24.6824 39.3291 24.6548 39.3199 24.607 39.3134C24.3903 40.2296 25.0104 41.8826 25.6008 42.7136ZM20.9994 42.0357C20.9109 42.8657 21.1458 43.7562 21.762 44.5126C21.7739 44.5271 21.7854 44.5411 21.7964 44.5547C21.9713 44.7697 22.0493 44.8656 22.1379 44.8762C22.2091 44.8848 22.287 44.8382 22.4279 44.7542C22.4389 44.7477 22.4503 44.7407 22.4621 44.7338C22.843 44.5071 23.2569 44.3844 23.714 44.364C23.4573 44.2962 23.1026 44.2457 22.86 44.3482C22.4538 44.5196 22.2508 44.4625 21.7576 43.9482C21.3489 43.522 21.0796 42.5267 20.9994 42.0357ZM25.9475 39.7768C26.0094 40.2508 26.1656 40.7571 26.4225 41.2697C26.4553 41.3351 26.4848 41.3946 26.5116 41.4488C26.6756 41.7798 26.74 41.9097 26.8388 41.9444C26.9025 41.9669 26.9807 41.9496 27.1094 41.9213C27.1418 41.9141 27.1777 41.9062 27.2173 41.8981C27.5272 41.8345 27.6982 41.8278 27.9107 41.8709C27.9663 41.8822 28.017 41.8928 28.0633 41.9024L28.0652 41.9028C28.0195 41.792 27.7285 41.7011 27.432 41.6086C27.1484 41.5201 26.8598 41.43 26.7765 41.3195C26.4113 40.8347 26.1223 40.3463 25.9475 39.7768ZM28.6324 37.3867C28.673 37.5145 28.6939 37.6788 28.7023 37.884C28.7492 39.0259 28.9583 39.7582 29.4549 40.5206C29.6292 40.7884 29.6365 40.7996 29.3942 41.0018C28.5441 39.8126 28.4654 38.4163 28.6324 37.3867ZM20.4302 47.7386C20.3911 47.7292 20.3577 47.791 20.336 47.9481C20.1619 49.2052 19.3632 49.1453 18.3052 48.2624C17.2673 47.3963 16.9386 46.121 16.8135 45.3026C16.7512 46.5092 17.2842 47.8169 18.49 48.6233C19.0429 48.9931 20.6208 49.6451 20.6208 49.5038C20.6208 49.4951 20.5685 49.2869 20.5047 49.0411C20.3987 48.633 20.3772 48.1838 20.4302 47.7386ZM21.125 45.9343C21.1471 45.9051 21.1697 45.8763 21.1926 45.8483C21.374 45.6268 21.3739 45.6268 20.9189 45.1534C20.2446 44.4519 19.8795 43.6976 19.779 42.7982C19.7767 42.7786 19.7748 42.76 19.7728 42.7423C19.8105 44.1115 20.5084 45.3252 21.125 45.9343Z" fill="#22110C"/>
<path d="M54.1934 72.9467C54.1934 72.2524 54.778 71.6895 55.4989 71.6895C56.2199 71.6895 56.8044 72.2524 56.8044 72.9467C56.8044 73.6409 56.2199 74.2038 55.4989 74.2038C54.778 74.2038 54.1934 73.6409 54.1934 72.9467Z" fill="#F1F1F1"/>
<path d="M8.64453 72.9467C8.64453 72.2524 9.22906 71.6895 9.95004 71.6895C10.671 71.6895 11.2555 72.2524 11.2555 72.9467C11.2555 73.6409 10.671 74.2038 9.95004 74.2038C9.22906 74.2038 8.64453 73.6409 8.64453 72.9467Z" fill="#F1F1F1"/>
<path d="M12.1273 74.091C12.1273 73.9013 11.9585 73.748 11.7501 73.748C11.5418 73.748 11.373 73.9013 11.373 74.091C11.373 74.2801 11.5418 74.4338 11.7501 74.4338C11.9585 74.4338 12.1273 74.2801 12.1273 74.091Z" fill="#F1F1F1"/>
</g>
<path d="M375.115 73.9719L376.552 80.8893C375.554 81.5651 374.117 82.1814 372.241 82.7379C370.406 83.2547 368.57 83.5131 366.733 83.5131C363.181 83.5131 360.228 82.3999 357.872 80.1737C355.558 77.9474 354.401 74.608 354.401 70.1554V58.05H348.533V49.9996H354.401V42.9033L362.962 41.0547V49.9996H375.174V58.05H362.962V69.6784C362.962 73.6141 364.718 75.582 368.23 75.582C369.787 75.582 372.082 75.0452 375.115 73.9719Z" fill="white"/>
<path d="M330.406 83.5143C325.976 83.5143 322.284 82.5007 319.33 80.4731C316.377 78.4059 314.6 75.5832 314.002 72.0052H322.682C323.401 74.9472 326.056 76.4181 330.645 76.4181C334.357 76.4181 336.213 75.5236 336.213 73.7346C336.213 73.4961 336.173 73.2775 336.093 73.0787C336.053 72.8799 335.954 72.701 335.794 72.542C335.674 72.383 335.535 72.2438 335.375 72.1245C335.215 71.9655 334.976 71.8264 334.656 71.7071C334.377 71.5879 334.117 71.4885 333.878 71.4089C333.639 71.3294 333.279 71.23 332.801 71.1108C332.361 70.9916 331.963 70.8922 331.603 70.8126C331.284 70.7331 330.825 70.6337 330.226 70.5144C329.627 70.3952 329.109 70.276 328.669 70.1567C323.76 69.0038 320.328 67.7515 318.372 66.3998C316.457 65.0084 315.499 62.9412 315.499 60.198C315.499 56.7791 316.796 54.1155 319.39 52.2073C322.024 50.2593 325.536 49.2852 329.927 49.2852C334.317 49.2852 337.729 50.2394 340.165 52.1477C342.599 54.0162 344.116 56.5604 344.714 59.7807H336.034C335.315 57.5543 333.18 56.4412 329.627 56.4412C325.955 56.4412 324.12 57.3556 324.12 59.1843C324.12 59.8998 324.499 60.4167 325.257 60.7347C326.016 61.0528 327.732 61.5099 330.406 62.1063C333.08 62.7026 335.195 63.2592 336.752 63.776C338.308 64.2531 339.786 64.8891 341.182 65.6842C342.579 66.4793 343.577 67.4334 344.175 68.5466C344.775 69.6597 345.074 71.0114 345.074 72.6016C345.074 76.1398 343.697 78.8432 340.943 80.7117C338.188 82.5801 334.677 83.5143 330.406 83.5143Z" fill="white"/>
<path d="M292.549 49.2852C297.938 49.2852 302.188 51.1339 305.301 54.8311C308.455 58.5283 309.811 63.12 309.373 68.6063H284.107C284.387 71.1505 285.305 73.0985 286.861 74.4502C288.418 75.8019 290.353 76.4777 292.669 76.4777C294.345 76.4777 295.841 76.1199 297.159 75.4043C298.476 74.649 299.414 73.6352 299.973 72.3631H308.834C307.676 76.0603 305.64 78.8432 302.727 80.7117C299.813 82.5801 296.481 83.5143 292.728 83.5143C287.62 83.5143 283.449 81.9043 280.216 78.6841C276.983 75.464 275.367 71.3891 275.367 66.4594C275.367 61.5298 276.983 57.435 280.216 54.1751C283.449 50.9152 287.56 49.2852 292.549 49.2852ZM292.489 56.3219C290.454 56.3219 288.757 56.8785 287.4 57.9917C286.044 59.065 285.086 60.5161 284.526 62.3448H300.272C299.793 60.5161 298.875 59.065 297.519 57.9917C296.161 56.8785 294.485 56.3219 292.489 56.3219Z" fill="white"/>
<path d="M266.454 43.6201C262.582 43.6201 260.647 45.7073 260.647 49.8815V50.0008H271.603V58.0512H260.647V82.7987H252.086V58.0512H246.219V50.0008H252.086V49.4641C252.086 45.091 253.383 41.7913 255.977 39.5651C258.572 37.2991 261.744 36.166 265.496 36.166C268.49 36.166 271.084 36.663 273.279 37.6568L271.723 44.5742L270.586 44.276C269.068 43.8388 267.691 43.6201 266.454 43.6201Z" fill="white"/>
<path d="M237.189 34.8535C238.747 34.8535 240.023 35.3306 241.021 36.2847C242.019 37.199 242.518 38.3917 242.518 39.8626C242.518 41.3336 242.019 42.5461 241.021 43.5002C240.023 44.4543 238.747 44.9314 237.189 44.9314C235.673 44.9314 234.396 44.4543 233.358 43.5002C232.36 42.5461 231.861 41.3336 231.861 39.8626C231.861 38.4315 232.36 37.2388 233.358 36.2847C234.396 35.3306 235.673 34.8535 237.189 34.8535ZM232.878 82.7981V50.0001H241.44V82.7981H232.878Z" fill="white"/>
<path d="M214.435 49.2852C218.147 49.2852 221.06 50.4382 223.176 52.744C225.291 55.0497 226.348 58.2102 226.348 62.2255V82.7988H217.787V64.0741C217.787 61.8479 217.309 60.1782 216.351 59.065C215.393 57.9519 213.816 57.3953 211.621 57.3953C206.672 57.3953 204.197 60.1185 204.197 65.5649V82.7988H195.635V50.0009H204.197V54.4733C206.672 51.0146 210.084 49.2852 214.435 49.2852Z" fill="white"/>
<path d="M180.251 50.0009H188.812L188.753 82.7988H180.192V78.386C177.677 81.8049 174.245 83.5143 169.894 83.5143C165.543 83.5143 161.951 81.9241 159.118 78.7437C156.284 75.5236 154.867 71.4089 154.867 66.3998C154.867 61.3907 156.284 57.296 159.118 54.1156C161.991 50.8953 165.563 49.2852 169.834 49.2852C174.224 49.2852 177.697 51.0544 180.251 54.5926V50.0009ZM171.81 75.4043C174.245 75.4043 176.26 74.5695 177.857 72.8997C179.453 71.23 180.251 69.0634 180.251 66.3998C180.251 63.7363 179.453 61.5696 177.857 59.8998C176.26 58.2301 174.245 57.3953 171.81 57.3953C169.375 57.3953 167.38 58.2301 165.823 59.8998C164.266 61.5696 163.488 63.7363 163.488 66.3998C163.488 69.0634 164.266 71.23 165.823 72.8997C167.42 74.5695 169.415 75.4043 171.81 75.4043Z" fill="white"/>
<path d="M137.741 49.2852C141.254 49.2852 144.028 50.4183 146.064 52.6843C148.1 54.9503 149.117 58.0712 149.117 62.0467V82.7988H140.555V63.8952C140.555 61.7485 140.096 60.1384 139.179 59.065C138.301 57.9519 136.863 57.3953 134.868 57.3953C132.633 57.3953 130.937 58.1109 129.779 59.5421C128.622 60.9335 128.043 62.9412 128.043 65.5649V82.7988H119.481V63.8952C119.481 61.7485 119.022 60.1384 118.104 59.065C117.227 57.9519 115.789 57.3953 113.794 57.3953C111.559 57.3953 109.842 58.1109 108.646 59.5421C107.488 60.9335 106.909 62.9412 106.909 65.5649L106.969 82.7988H98.3477V50.0009H106.969V54.354C109.364 50.9748 112.616 49.2852 116.728 49.2852C121.517 49.2852 124.85 51.3526 126.726 55.4871C129.28 51.3526 132.952 49.2852 137.741 49.2852Z" fill="white"/>
</g>
<mask id="mask2_6242_16504" style="mask-type:luminance" maskUnits="userSpaceOnUse" x="410" y="25" width="75" height="75">
<path d="M485 25H410V100H485V25Z" fill="white"/>
</mask>
<g mask="url(#mask2_6242_16504)">
<path d="M472.577 25H422.356C415.532 25 410 30.5319 410 37.3559V87.5762C410 94.4002 415.532 99.9321 422.356 99.9321H472.577C479.401 99.9321 484.932 94.4002 484.932 87.5762V37.3559C484.932 30.5319 479.401 25 472.577 25Z" fill="white"/>
<path d="M465.354 82.8818V41H473.91V82.8818H465.354Z" fill="#22110C"/>
<path d="M447.907 41H456.582V65.9496C456.582 77.7363 449.163 83.5998 439.291 83.5998C429.419 83.5998 422 77.7363 422 65.9496V41H430.676V65.471C430.676 72.7704 434.265 75.4628 439.291 75.4628C444.317 75.4628 447.907 72.7704 447.907 65.471V41Z" fill="#22110C"/>
</g>
</g>
<defs>
<clipPath id="clip0_6242_16504">
<rect width="485" height="100" fill="white"/>
</clipPath>
</defs>
</svg>
