<svg width="485" height="100" viewBox="0 0 485 100" fill="none" xmlns="http://www.w3.org/2000/svg">
<g clip-path="url(#clip0_5853_372)">
<mask id="mask0_5853_372" style="mask-type:luminance" maskUnits="userSpaceOnUse" x="0" y="0" width="66" height="100">
<path d="M65.5652 0H0V100H65.5652V0Z" fill="white"/>
</mask>
<g mask="url(#mask0_5853_372)">
<path fill-rule="evenodd" clip-rule="evenodd" d="M31.3967 0.0702313C18.1147 1.37349 17.647 20.958 30.8456 23.1496C31.4435 23.2489 31.6331 23.301 31.6468 23.3701C31.6567 23.4199 31.6086 24.4074 31.54 25.5647C31.4714 26.7219 31.3849 28.9974 31.348 30.6212C31.311 32.2451 31.2676 33.5832 31.2517 33.5948C31.2358 33.6063 31.02 33.7149 30.7723 33.8361C30.3083 34.0633 29.6981 34.5619 29.4527 34.9146C29.3151 35.1124 29.3151 35.1124 28.4703 35.1399C27.1362 35.1834 26.3231 35.5082 25.5848 36.2923C25.3801 36.5098 25.1927 36.664 25.1678 36.6352C25.1429 36.6065 24.3732 35.4773 23.4571 34.1259C22.5411 32.7745 21.501 31.2527 21.1458 30.7442L20.5 29.8195L20.8789 29.4013C27.9463 21.6021 18.064 9.8556 9.66078 16.0667C1.29634 22.2492 8.79311 35.2177 18.4104 31.2024C18.45 31.1859 19.1644 32.0757 20.1002 33.307C20.9919 34.4803 22.1057 35.9268 22.5753 36.5215C23.0449 37.1163 23.4688 37.6624 23.5172 37.7353C23.6168 37.8848 23.6489 37.8631 23.1109 38.0102C21.6193 38.4183 20.213 39.6513 19.9343 40.7956C19.8977 40.9459 19.8377 41.0696 19.801 41.0706C17.2804 41.1372 15.3515 43.0018 15.3242 45.3982C15.315 46.2133 15.315 46.2133 14.9717 46.4162C11.8475 48.2631 7.60899 54.4587 7.30634 57.6211C7.26161 58.0886 7.27925 58.0732 6.66102 58.1783C5.26599 58.4154 4.45107 58.9171 3.59177 60.0674C2.50356 61.5246 2.40317 62.7771 3.23295 64.5457C3.51401 65.1451 3.52945 65.0389 3.06614 65.6892C-1.8331 72.5629 -0.812485 80.6292 5.77886 87.128C10.0898 91.3783 16.1411 93.9697 22.9255 94.4697C25.5159 94.6606 25.8125 94.7578 26.4797 95.6332C30.8669 101.387 34.6537 101.387 39.0408 95.6332C39.708 94.7578 40.0046 94.6606 42.5951 94.4697C52.7356 93.7222 61.2199 88.1857 64.4001 80.24C66.4274 75.1754 65.7839 70.3668 62.4529 65.6846C61.991 65.0349 62.0067 65.144 62.2876 64.5457C63.1173 62.7771 63.0169 61.5246 61.9289 60.0674C61.0696 58.9171 60.2544 58.4154 58.8595 58.1783C58.2411 58.0732 58.259 58.0886 58.2143 57.6211C58.1152 56.5842 57.0006 53.923 55.9373 52.1834C54.6305 50.0455 52.0917 47.3283 50.5488 46.4162C50.2055 46.2133 50.2055 46.2133 50.1962 45.3982C50.1691 43.0018 48.2401 41.1372 45.7195 41.0706C45.6829 41.0696 45.6228 40.9459 45.5863 40.7956C45.3075 39.6513 43.9012 38.4183 42.4096 38.0102C41.8717 37.8631 41.9038 37.8848 42.0033 37.7353C42.0517 37.6624 42.4756 37.1163 42.9452 36.5215C43.4148 35.9268 44.5286 34.4803 45.4203 33.307C46.3561 32.0757 47.0706 31.1859 47.1101 31.2024C56.7274 35.2177 64.2243 22.2492 55.8597 16.0667C47.4564 9.8556 37.5743 21.6021 44.6415 29.4013L45.0206 29.8195L44.3747 30.7442C44.0196 31.2527 42.9794 32.7745 42.0635 34.1259C41.1474 35.4773 40.3776 36.6065 40.3527 36.6352C40.3278 36.664 40.1405 36.5098 39.9357 36.2923C39.1974 35.5082 38.3843 35.1834 37.0503 35.1399C36.2054 35.1124 36.2054 35.1124 36.0698 34.9173C35.7143 34.4065 34.8952 33.8263 34.2327 33.6159C33.9354 33.5215 33.9354 33.5215 33.9426 30.0523C33.9465 28.1442 33.9367 25.8399 33.9207 24.9316L33.8917 23.2801L34.675 23.1498C49.5195 20.6803 46.3831 -1.40022 31.3967 0.0702313ZM31.0318 2.92869C25.9391 3.845 22.5922 8.53514 23.5057 13.1253C23.5716 13.4563 23.6596 13.7868 23.7708 14.1154C26.4319 21.9815 39.0886 21.9815 41.7497 14.1154C41.8622 13.7833 41.951 13.4508 42.0175 13.1193C43.1835 7.3056 37.4724 1.76992 31.0318 2.92869ZM13.932 17.3283C10.171 18.0209 7.94511 21.8218 8.87254 25.0449C9.05085 25.6645 9.34572 26.2628 9.76863 26.8135C12.7607 30.7097 18.1485 30.3166 20.3682 26.0402C20.5626 25.6659 20.711 25.2846 20.8172 24.901C21.9387 20.8439 18.315 16.5211 13.932 17.3283ZM49.5667 17.3315C45.8148 17.9991 43.8704 21.6458 44.7082 24.8954C44.9882 25.9813 45.579 27.0231 46.5168 27.8943C49.2145 30.4006 53.3707 29.9142 55.7519 26.8135C56.1753 26.2621 56.4688 25.6722 56.6471 25.0661C57.8037 21.1355 54.116 16.522 49.5667 17.3315ZM32.129 35.4722C30.293 35.7949 29.7 37.4872 30.6768 39.6174C30.9677 40.2517 30.9677 40.2517 31.4141 40.2563C31.815 40.2605 31.9063 40.284 32.3103 40.4872C32.7603 40.7137 32.7603 40.7137 33.2102 40.4872C33.6143 40.284 33.7055 40.2605 34.1064 40.2563C34.5528 40.2517 34.5528 40.2517 34.8434 39.6174C36.0417 37.0017 34.7397 35.0136 32.129 35.4722ZM27.4194 37.1466C25.9151 37.5461 25.4811 39.3641 26.4353 41.2688C26.8303 42.0573 26.752 41.9954 27.2303 41.8972C27.5401 41.8336 27.7111 41.8268 27.9235 41.87C28.6208 42.0114 28.5353 42.0344 28.8309 41.6264C28.9778 41.4237 29.2221 41.1547 29.3738 41.0286C29.6497 40.7992 29.6497 40.7992 29.4677 40.5197C28.9711 39.7572 28.7621 39.025 28.7151 37.8831C28.6798 37.0233 28.4262 36.8792 27.4194 37.1466ZM36.8056 37.8761C36.7584 39.0255 36.5506 39.7556 36.0529 40.5197C35.8708 40.7992 35.8708 40.7992 36.1467 41.0286C36.2984 41.1547 36.5428 41.4237 36.6897 41.6264C36.9852 42.0344 36.8998 42.0114 37.597 41.87C37.8094 41.8268 37.9805 41.8336 38.2903 41.8972C38.7685 41.9954 38.6902 42.0573 39.0853 41.2688C40.2005 39.0426 39.4713 37.1616 37.4614 37.0801L36.8395 37.0549L36.8056 37.8761ZM23.3026 39.3871C21.0544 39.9665 20.2555 42.6468 21.7749 44.5116C22.1371 44.9561 22.1127 44.9485 22.4749 44.7329C23.0378 44.398 23.6722 44.2902 24.4121 44.4039C24.6802 44.445 24.6802 44.445 24.7481 44.1794C24.8622 43.733 25.1979 43.1505 25.5623 42.7669C25.9088 42.4022 25.9088 42.4022 25.6728 42.0928C25.1577 41.4179 24.6996 40.1278 24.6954 39.3402C24.695 39.2656 23.6354 39.3013 23.3026 39.3871ZM40.8251 39.3402C40.8208 40.1278 40.3629 41.4179 39.8478 42.0928C39.6117 42.4022 39.6117 42.4022 39.9582 42.7669C40.3225 43.1505 40.6583 43.733 40.7724 44.1794C40.8404 44.445 40.8404 44.445 41.1085 44.4039C41.8483 44.2902 42.4828 44.398 43.0456 44.7329C43.4079 44.9485 43.3835 44.9561 43.7456 44.5116C45.012 42.9576 44.6344 40.481 43.0121 39.699C42.3155 39.3632 40.8263 39.1189 40.8251 39.3402ZM30.5107 42.0673C28.9314 42.7913 28.788 44.5568 30.1446 46.575C30.5618 47.1955 30.5618 47.1955 30.7244 46.9431C31.5888 45.6007 33.9317 45.6007 34.7962 46.9431C35.0313 47.3082 35.9779 45.9163 36.2183 44.8517C36.6476 42.9516 34.7654 41.0191 33.7014 42.2674C33.4751 42.5331 33.1971 43.0207 33.0873 43.3447C32.8746 43.9722 32.6459 43.9722 32.4333 43.3447C32.2632 42.843 31.9048 42.3019 31.5774 42.0532C31.3448 41.8763 30.9149 41.882 30.5107 42.0673ZM19.2991 42.453C16.43 42.8242 15.9059 46.8856 18.5028 48.6225C19.0557 48.9921 20.6336 49.6442 20.6336 49.5029C20.6336 49.4942 20.5814 49.286 20.5176 49.0402C20.2454 47.9922 20.5296 46.6733 21.2055 45.8473C21.3868 45.6259 21.3868 45.6259 20.9317 45.1525C20.2574 44.4509 19.8924 43.6967 19.7918 42.7972C19.7444 42.373 19.7713 42.3917 19.2991 42.453ZM45.7842 42.4636C45.7729 42.4979 45.7359 42.7121 45.702 42.9398C45.5675 43.8419 45.244 44.4788 44.5645 45.1793C44.1326 45.6244 44.1326 45.6244 44.3144 45.8466C44.991 46.6733 45.2752 47.9918 45.0029 49.0402C44.9391 49.286 44.887 49.4942 44.887 49.5029C44.887 49.6442 46.4648 48.9921 47.0177 48.6225C49.3185 47.0837 49.2785 43.7339 46.9467 42.6631C46.5622 42.4865 45.8184 42.3589 45.7842 42.4636ZM27.225 43.1897C25.4001 43.4484 25.028 46.3987 26.5704 48.3805C26.7038 48.5519 26.8306 48.7174 26.8521 48.7484C26.8754 48.7816 26.9817 48.7432 27.1133 48.6538C27.8566 48.1488 28.7561 48.0391 30.1147 48.2878C30.1598 48.296 30.406 47.6922 30.3666 47.6698C28.8892 46.829 28.046 45.3365 28.1311 43.7123C28.1557 43.2415 28.1557 43.2415 27.9485 43.2073C27.8346 43.1885 27.7021 43.1659 27.6543 43.1571C27.6064 43.1484 27.4133 43.1631 27.225 43.1897ZM37.8372 43.1583C37.8053 43.1667 37.686 43.189 37.572 43.2076C37.3649 43.2415 37.3649 43.2415 37.3895 43.7123C37.4745 45.3365 36.6314 46.829 35.1538 47.6698C35.1145 47.6922 35.3608 48.296 35.4058 48.2878C36.7645 48.0391 37.6639 48.1488 38.4073 48.6538C38.5388 48.7432 38.6452 48.7816 38.6684 48.7484C38.6899 48.7174 38.8167 48.5519 38.9501 48.3805C40.0838 46.9239 40.2218 44.455 39.2181 43.585C38.9076 43.3158 38.1379 43.078 37.8372 43.1583ZM23.5233 45.5488C21.2867 46.1417 21.13 49.1857 23.2358 51.1344C24.7577 52.5429 23.2714 52.2127 21.6136 50.7741C21.1641 50.384 21.1641 50.384 20.8216 50.4193C19.4226 50.5633 17.2675 49.3449 16.1184 47.7603C15.8533 47.3946 15.8533 47.3946 15.6846 47.5889C13.2955 50.3394 11.9357 52.8022 10.3873 57.1829C10.004 58.2674 10.0002 58.1829 10.4361 58.2646C17.8763 59.6554 22.7856 67.4622 22.9385 78.1463C22.9718 80.4794 22.9127 80.3394 23.7368 80.036C24.24 79.8503 24.3419 79.7092 24.753 78.6308C26.6342 73.6949 28.218 71.7378 30.8714 71.0697C31.4205 70.9314 31.4044 70.9417 31.4513 70.6954C31.5574 70.1389 32.1539 68.6817 32.3688 68.4543C32.8872 67.9063 33.756 69.0514 34.0692 70.6954C34.1161 70.9417 34.1001 70.9314 34.6492 71.0697C37.3025 71.7378 38.8862 73.6949 40.7675 78.6308C41.1786 79.7092 41.2806 79.8503 41.7838 80.036C42.6079 80.3394 42.5486 80.4794 42.582 78.1463C42.735 67.4617 47.6438 59.6554 55.0843 58.2646C55.5203 58.1829 55.5165 58.2674 55.1333 57.1829C53.5848 52.8022 52.225 50.3394 49.8359 47.5889C49.6673 47.3946 49.6673 47.3946 49.4022 47.7603C48.253 49.3449 46.098 50.5633 44.699 50.4193C44.3564 50.384 44.3564 50.384 43.907 50.7741C42.2492 52.2127 40.7628 52.5429 42.2847 51.1344C43.8041 49.7284 44.1877 48.2765 43.4297 46.8002C42.8291 45.6303 40.9765 44.9292 40.8588 45.8272C40.6706 47.2638 40.094 48.3689 39.2254 48.9574C38.9725 49.1289 38.9725 49.1289 39.1881 49.5131C39.6843 50.3971 39.4391 51.5461 38.5697 52.4117C37.834 53.1441 37.243 53.192 37.918 52.4646C38.8035 51.5104 38.742 50.3472 37.7912 50.0692C37.2224 49.9028 35.4293 49.9734 35.4293 50.1621C35.4293 50.5914 34.8529 51.9112 34.5108 52.2655C34.0863 52.7049 33.9974 52.5144 34.2897 51.7918C35.1852 49.5786 34.4389 47.4689 32.7603 47.4689C31.0817 47.4689 30.3354 49.5786 31.2308 51.7918C31.5231 52.5144 31.4342 52.7049 31.0098 52.2655C30.6676 51.9112 30.0913 50.5914 30.0913 50.1621C30.0913 49.9734 28.2982 49.9028 27.7294 50.0692C26.7785 50.3472 26.7169 51.5104 27.6024 52.4646C28.2776 53.192 27.6866 53.1441 26.9509 52.4117C26.0813 51.5461 25.8363 50.3971 26.3324 49.5131C26.5481 49.1289 26.5481 49.1289 26.295 48.9574C25.4274 48.3696 24.8498 47.2635 24.6622 45.8308C24.6313 45.5953 24.5985 45.5292 24.4998 45.5031C24.2959 45.4492 23.8138 45.4717 23.5233 45.5488ZM7.52915 59.6949C4.10538 60.2303 4.62032 63.9446 8.54982 67.0565C9.79719 68.0446 9.81982 68.0583 11.8142 69.0703C19.1665 72.8011 21.0978 75.0937 21.0978 80.092C21.0978 80.4354 21.3455 80.5406 21.6926 80.344C21.7551 80.3086 21.7451 77.9178 21.6772 76.64C21.358 70.64 18.9172 65.0314 15.4184 62.2589C13.104 60.4246 9.77717 59.3435 7.52915 59.6949ZM56.2303 59.676C49.8811 60.3417 45.0534 66.3251 43.9893 74.8468C43.8201 76.2035 43.7006 80.2714 43.828 80.344C44.1751 80.5406 44.4228 80.4354 44.4228 80.092C44.4228 75.0932 46.3528 72.8017 53.7063 69.0703C55.7007 68.0583 55.7234 68.0446 56.9707 67.0565C61.6801 63.3274 61.2606 59.1486 56.2303 59.676ZM5.04208 67.3114C2.37132 70.1789 1.58425 76.1011 3.31256 80.3257C5.73841 86.256 13.6757 91.7692 20.6626 92.3778C23.8289 92.6532 24.5476 92.6063 24.2448 92.1417C23.7481 91.3811 22.0458 88.296 21.0511 86.3543C20.7935 85.8514 20.3938 85.1446 20.1627 84.7829C19.1251 83.1594 19.049 81.9794 19.9224 81.06C20.4395 80.5154 20.1147 77.94 19.3326 76.3822C18.9459 75.612 18.9725 75.62 18.6045 76.1686C14.3714 82.4789 5.73493 77.6497 5.90998 69.0708C5.93673 67.7617 5.93673 67.7617 5.57032 67.472C5.14264 67.1349 5.1927 67.1497 5.04208 67.3114ZM59.9377 67.476C59.5837 67.7617 59.5837 67.7617 59.6104 69.0708C59.7856 77.6497 51.1491 82.4783 46.916 76.1686C46.548 75.62 46.5747 75.612 46.1879 76.3822C45.4059 77.94 45.081 80.5154 45.5982 81.06C46.4716 81.9794 46.3955 83.1594 45.3578 84.7829C45.1268 85.1446 44.7271 85.8514 44.4694 86.3543C43.4748 88.296 41.7724 91.3811 41.2758 92.1417C40.971 92.6092 40.8857 92.5868 42.6688 92.5046C46.3873 92.3337 47.9341 91.9954 50.9502 90.6937C61.8559 85.9886 66.2905 75.9925 60.9994 68.0429C60.3455 67.06 60.4099 67.0949 59.9377 67.476ZM7.3787 68.8543C6.81635 70.6926 7.92956 74.1571 9.65346 75.9343C10.1887 76.4857 10.2209 76.4892 10.007 75.972C9.14751 73.892 9.46263 71.3126 10.6764 70.4937C10.9008 70.3422 10.4909 70.088 8.9131 69.4011C8.54611 69.2411 8.07027 69.024 7.85565 68.9183C7.39239 68.6897 7.42761 68.6949 7.3787 68.8543ZM57.7389 68.8806C57.5793 68.9622 57.0832 69.1914 56.6365 69.3897C54.9123 70.1532 54.6126 70.3378 54.8433 70.4932C56.058 71.3125 56.3734 73.8908 55.5136 75.972C55.2997 76.4892 55.3318 76.4857 55.8671 75.9343C57.591 74.1571 58.7041 70.6926 58.1418 68.8543C58.0937 68.6971 58.096 68.6971 57.7389 68.8806ZM32.0735 72.3863C29.8533 72.7778 27.7753 75.1474 26.1638 79.1257C25.3559 81.1206 24.9357 81.4092 22.2583 81.8103C20.4963 82.0743 20.3801 82.4971 21.591 84.2371C22.4665 85.4954 23.5359 87.2337 24.6653 89.2337C26.6838 92.8092 27.4286 93.9949 28.4551 95.2686C31.9953 99.6622 35.0211 98.9417 38.7749 92.8114C39.514 91.6046 39.6063 91.4457 40.8552 89.2337C41.9847 87.2337 43.054 85.4954 43.9295 84.2371C45.1404 82.4971 45.0243 82.0743 43.2623 81.8103C40.5848 81.4092 40.1646 81.1206 39.3567 79.1257C37.414 74.3297 34.7951 71.9063 32.0735 72.3863ZM26.1749 81.8446C25.6326 82.1229 25.4371 82.6571 25.6895 83.1708C25.8897 83.5778 26.4409 83.7806 26.7801 83.572C26.8734 83.5149 26.9439 83.536 27.229 83.708C28.2484 84.3217 28.6369 84.2029 28.3201 83.3737C27.8365 82.1086 26.9254 81.4594 26.1749 81.8446ZM38.3483 81.8703C37.7261 82.1817 36.9305 83.5126 37.1258 83.916C37.267 84.2075 37.5441 84.1583 38.2915 83.708C38.5766 83.536 38.6471 83.5149 38.7404 83.572C39.0796 83.7806 39.6309 83.5778 39.8311 83.1708C40.2634 82.2914 39.2618 81.4126 38.3483 81.8703Z" fill="#22110C"/>
<path d="M37.8373 43.1583C37.8053 43.1668 37.6859 43.189 37.572 43.2077C37.3649 43.2416 37.3649 43.2416 37.3895 43.7124C37.4745 45.3366 36.6314 46.829 35.1539 47.6698C35.1146 47.6923 35.3607 48.296 35.4058 48.2878C36.7644 48.0391 37.6639 48.1488 38.4073 48.6538C38.5388 48.7432 38.6451 48.7817 38.6684 48.7484C38.6899 48.7175 38.8166 48.552 38.9501 48.3805C40.0838 46.9239 40.2218 44.455 39.2181 43.585C38.9077 43.3158 38.1378 43.078 37.8373 43.1583Z" fill="#2430F0"/>
<path d="M45.7842 42.4636C45.7729 42.4979 45.736 42.7122 45.702 42.9398C45.5675 43.842 45.244 44.4788 44.5645 45.1793C44.1326 45.6244 44.1326 45.6244 44.3144 45.8467C44.9909 46.6734 45.2753 47.992 45.003 49.0402C44.9391 49.2861 44.887 49.4942 44.887 49.5029C44.887 49.6442 46.4648 48.9922 47.0177 48.6225C49.3185 47.0837 49.2785 43.7339 46.9468 42.6631C46.5622 42.4866 45.8184 42.3589 45.7842 42.4636Z" fill="#2430F0"/>
<path d="M40.8251 39.3402C40.8209 40.1277 40.3628 41.4179 39.8478 42.0927C39.6117 42.4022 39.6117 42.4022 39.9582 42.7669C40.3225 43.1505 40.6583 43.733 40.7724 44.1794C40.8403 44.445 40.8404 44.445 41.1085 44.4039C41.8483 44.2902 42.4828 44.398 43.0456 44.7329C43.4078 44.9485 43.3835 44.9561 43.7456 44.5116C45.0119 42.9575 44.6344 40.481 43.0121 39.699C42.3155 39.3632 40.8263 39.1189 40.8251 39.3402Z" fill="#2430F0"/>
<path d="M36.8057 37.8762C36.7584 39.0255 36.5506 39.7556 36.0529 40.5197C35.8708 40.7992 35.8708 40.7992 36.1467 41.0286C36.2985 41.1547 36.5428 41.4237 36.6897 41.6265C36.9852 42.0344 36.8998 42.0115 37.5971 41.87C37.8094 41.8269 37.9805 41.8336 38.2903 41.8972C38.7685 41.9954 38.6903 42.0574 39.0852 41.2688C40.2005 39.0426 39.4713 37.1617 37.4613 37.08L36.8395 37.0549L36.8057 37.8762Z" fill="#2430F0"/>
<path d="M32.129 35.4722C30.2929 35.7948 29.7 37.4872 30.6768 39.6174C30.9677 40.2517 30.9677 40.2517 31.414 40.2563C31.815 40.2604 31.9062 40.2839 32.3103 40.4872C32.7603 40.7136 32.7603 40.7136 33.2102 40.4872C33.6143 40.2839 33.7055 40.2604 34.1064 40.2563C34.5528 40.2517 34.5528 40.2517 34.8434 39.6174C36.0417 37.0017 34.7397 35.0135 32.129 35.4722Z" fill="#2430F0"/>
<path d="M30.5106 42.0674C28.9313 42.7915 28.788 44.5569 30.1446 46.575C30.5618 47.1956 30.5618 47.1956 30.7243 46.9431C31.5888 45.6008 33.9317 45.6008 34.7961 46.9431C35.0313 47.3082 35.9779 45.9164 36.2183 44.8518C36.6475 42.9517 34.7654 41.0191 33.7014 42.2675C33.4751 42.5331 33.1971 43.0208 33.0873 43.3447C32.8746 43.9723 32.6459 43.9723 32.4332 43.3447C32.2632 42.843 31.9047 42.302 31.5774 42.0532C31.3448 41.8764 30.9148 41.8821 30.5106 42.0674Z" fill="#2430F0"/>
<path d="M27.225 43.1896C25.4 43.4483 25.028 46.3986 26.5704 48.3805C26.7038 48.5519 26.8306 48.7174 26.8521 48.7483C26.8754 48.7816 26.9817 48.7431 27.1132 48.6537C27.8566 48.1487 28.7561 48.039 30.1147 48.2877C30.1598 48.296 30.4059 47.6922 30.3666 47.6697C28.8891 46.8289 28.046 45.3365 28.1309 43.7123C28.1556 43.2415 28.1556 43.2415 27.9485 43.2073C27.8346 43.1884 27.7021 43.1659 27.6543 43.1571C27.6064 43.1483 27.4132 43.163 27.225 43.1896Z" fill="#2430F0"/>
<path d="M23.3026 39.3872C21.0545 39.9666 20.2555 42.6469 21.775 44.5117C22.1371 44.9562 22.1127 44.9485 22.475 44.7329C23.0378 44.398 23.6722 44.2902 24.4121 44.4038C24.6802 44.445 24.6802 44.445 24.7481 44.1794C24.8623 43.733 25.198 43.1505 25.5624 42.767C25.9087 42.4023 25.9087 42.4023 25.6727 42.0928C25.1577 41.4179 24.6997 40.1278 24.6954 39.3402C24.6951 39.2656 23.6355 39.3014 23.3026 39.3872Z" fill="#2430F0"/>
<path d="M27.4194 37.1466C25.915 37.5461 25.4811 39.364 26.4353 41.2687C26.8303 42.0573 26.752 41.9954 27.2302 41.8972C27.54 41.8335 27.7111 41.8268 27.9235 41.87C28.6207 42.0114 28.5353 42.0343 28.8309 41.6264C28.9778 41.4236 29.2221 41.1547 29.3738 41.0285C29.6497 40.7991 29.6497 40.7991 29.4677 40.5197C28.9711 39.7572 28.7621 39.025 28.7151 37.883C28.6798 37.0232 28.4262 36.8791 27.4194 37.1466Z" fill="#2430F0"/>
<path d="M19.2991 42.453C16.43 42.8243 15.9059 46.8856 18.5028 48.6225C19.0557 48.9922 20.6336 49.6442 20.6336 49.5029C20.6336 49.4942 20.5814 49.286 20.5176 49.0402C20.2454 47.9923 20.5296 46.6733 21.2055 45.8474C21.3867 45.626 21.3867 45.626 20.9317 45.1525C20.2575 44.451 19.8924 43.6968 19.7918 42.7973C19.7443 42.373 19.7713 42.3918 19.2991 42.453Z" fill="#2430F0"/>
<path d="M56.2303 59.676C49.8812 60.3417 45.0534 66.3251 43.9894 74.8468C43.8201 76.2035 43.7006 80.2714 43.828 80.344C44.1751 80.5406 44.4228 80.4354 44.4228 80.092C44.4228 75.0932 46.3529 72.8017 53.7063 69.0703C55.7007 68.0583 55.7234 68.0446 56.9707 67.0565C61.6801 63.3275 61.2605 59.1486 56.2303 59.676Z" fill="#2BE1B7"/>
<path d="M59.9377 67.476C59.5837 67.7617 59.5837 67.7617 59.6103 69.0708C59.7856 77.6496 51.1491 82.4782 46.916 76.1685C46.548 75.62 46.5746 75.6119 46.1879 76.3822C45.4058 77.94 45.081 80.5154 45.5981 81.06C46.4716 81.9793 46.3955 83.1593 45.3578 84.7828C45.1268 85.1445 44.727 85.8514 44.4694 86.3542C43.4747 88.296 41.7724 91.3811 41.2758 92.1417C40.971 92.609 40.8857 92.5868 42.6688 92.5046C46.3873 92.3336 47.9341 91.9954 50.9502 90.6936C61.8559 85.9885 66.2905 75.9925 60.9994 68.0428C60.3455 67.06 60.4099 67.0949 59.9377 67.476Z" fill="#2BE1B7"/>
<path d="M5.04213 67.3114C2.37136 70.1789 1.58429 76.1011 3.3126 80.3257C5.73846 86.256 13.6757 91.7692 20.6627 92.3777C23.8289 92.6531 24.5476 92.6063 24.2448 92.1417C23.7482 91.3811 22.0458 88.296 21.0512 86.3543C20.7935 85.8514 20.3938 85.1446 20.1628 84.7828C19.1251 83.1594 19.049 81.9794 19.9224 81.06C20.4396 80.5154 20.1147 77.94 19.3326 76.3822C18.9459 75.612 18.9726 75.62 18.6046 76.1686C14.3715 82.4789 5.73498 77.6497 5.91003 69.0708C5.93677 67.7617 5.93677 67.7617 5.57037 67.472C5.14269 67.1349 5.19275 67.1497 5.04213 67.3114Z" fill="#2BE1B7"/>
<path d="M7.52915 59.6949C4.10537 60.2303 4.62032 63.9446 8.54981 67.0565C9.79718 68.0446 9.81981 68.0582 11.8142 69.0703C19.1664 72.8011 21.0977 75.0936 21.0977 80.092C21.0977 80.4354 21.3455 80.5406 21.6925 80.344C21.755 80.3085 21.7451 77.9177 21.6772 76.64C21.3581 70.64 18.9173 65.0314 15.4184 62.2589C13.104 60.4246 9.77716 59.3434 7.52915 59.6949Z" fill="#2BE1B7"/>
<path d="M23.5233 45.5488C21.2867 46.1418 21.1301 49.1857 23.2358 51.1344C24.7578 52.5429 23.2713 52.2127 21.6136 50.7741C21.1642 50.384 21.1642 50.384 20.8216 50.4193C19.4226 50.5633 17.2675 49.3449 16.1184 47.7603C15.8533 47.3946 15.8533 47.3946 15.6847 47.5889C13.2955 50.3394 11.9358 52.8023 10.3873 57.1829C10.0041 58.2675 10.0002 58.1829 10.4362 58.2646C17.8763 59.6554 22.7856 67.4623 22.9385 78.1464C22.9718 80.4794 22.9127 80.3394 23.7368 80.0361C24.2399 79.8503 24.3419 79.7092 24.753 78.6308C26.6343 73.6949 28.218 71.7378 30.8714 71.0697C31.4205 70.9315 31.4044 70.9418 31.4514 70.6954C31.5574 70.1389 32.1539 68.6818 32.3689 68.4543C32.8872 67.9064 33.7561 69.0515 34.0693 70.6954C34.1162 70.9418 34.1001 70.9315 34.6492 71.0697C37.3025 71.7378 38.8862 73.6949 40.7676 78.6308C41.1787 79.7092 41.2806 79.8503 41.7838 80.0361C42.6079 80.3394 42.5487 80.4794 42.5821 78.1464C42.735 67.4618 47.6438 59.6554 55.0843 58.2646C55.5203 58.1829 55.5166 58.2675 55.1333 57.1829C53.5848 52.8023 52.2251 50.3394 49.8359 47.5889C49.6673 47.3946 49.6673 47.3946 49.4021 47.7603C48.2531 49.3449 46.098 50.5633 44.699 50.4193C44.3564 50.384 44.3564 50.384 43.907 50.7741C42.2492 52.2127 40.7627 52.5429 42.2848 51.1344C43.8041 49.7284 44.1877 48.2766 43.4297 46.8002C42.8292 45.6303 40.9765 44.9292 40.8588 45.8273C40.6706 47.2638 40.094 48.3689 39.2254 48.9575C38.9725 49.1289 38.9725 49.1289 39.1882 49.5131C39.6843 50.3972 39.4391 51.5463 38.5697 52.4118C37.834 53.1441 37.243 53.1921 37.918 52.4646C38.8036 51.5104 38.742 50.3473 37.7912 50.0692C37.2224 49.9029 35.4293 49.9734 35.4293 50.1622C35.4293 50.5915 34.853 51.9113 34.5108 52.2655C34.0864 52.7049 33.9974 52.5144 34.2897 51.792C35.1852 49.5786 34.4388 47.4689 32.7603 47.4689C31.0817 47.4689 30.3354 49.5786 31.2308 51.792C31.5232 52.5144 31.4341 52.7049 31.0098 52.2655C30.6676 51.9113 30.0913 50.5915 30.0913 50.1622C30.0913 49.9734 28.2982 49.9029 27.7294 50.0692C26.7785 50.3473 26.7169 51.5104 27.6025 52.4646C28.2776 53.1921 27.6866 53.1441 26.9509 52.4118C26.0814 51.5463 25.8363 50.3972 26.3325 49.5131C26.5481 49.1289 26.5481 49.1289 26.2951 48.9575C25.4274 48.3696 24.8499 47.2635 24.6622 45.8308C24.6313 45.5953 24.5986 45.5292 24.4998 45.5031C24.2959 45.4492 23.8138 45.4718 23.5233 45.5488Z" fill="#2430F0"/>
<path fill-rule="evenodd" clip-rule="evenodd" d="M32.0735 72.3864C29.8533 72.7778 27.7753 75.1475 26.1638 79.1257C25.3558 81.1206 24.9357 81.4092 22.2583 81.8103C20.4963 82.0743 20.3802 82.4972 21.5911 84.2372C22.4666 85.4954 23.5359 87.2337 24.6654 89.2337C26.6837 92.8092 27.4286 93.9949 28.4551 95.2686C31.9953 99.6623 35.0212 98.9418 38.7749 92.8115C39.514 91.6046 39.6063 91.4457 40.8553 89.2337C41.9847 87.2337 43.054 85.4954 43.9295 84.2372C45.1403 82.4972 45.0243 82.0743 43.2623 81.8103C40.5848 81.4092 40.1647 81.1206 39.3568 79.1257C37.414 74.3297 34.7951 71.9064 32.0735 72.3864ZM25.6895 83.1709C25.4371 82.6572 25.6326 82.1229 26.1749 81.8446C26.9254 81.4594 27.8366 82.1086 28.3201 83.3737C28.637 84.2029 28.2484 84.3218 27.2291 83.708C26.944 83.5361 26.8735 83.5149 26.7801 83.5721C26.4409 83.7806 25.8897 83.5778 25.6895 83.1709ZM37.1258 83.9161C36.9306 83.5126 37.7262 82.1818 38.3482 81.8703C39.2618 81.4126 40.2634 82.2915 39.8311 83.1709C39.6309 83.5778 39.0797 83.7806 38.7405 83.5721C38.6471 83.5149 38.5767 83.5361 38.2914 83.708C37.544 84.1583 37.267 84.2075 37.1258 83.9161Z" fill="#F2C79C"/>
<path fill-rule="evenodd" clip-rule="evenodd" d="M20.8172 24.9011C20.0451 22.0362 17.6402 19.7795 14.3726 20.3813C11.7799 20.8588 9.47605 22.8207 8.87256 25.0449C9.05086 25.6645 9.34572 26.2628 9.76865 26.8135C12.7607 30.7097 18.1485 30.3167 20.3683 26.0402C20.5626 25.6659 20.711 25.2846 20.8172 24.9011Z" fill="#2430F0"/>
<path fill-rule="evenodd" clip-rule="evenodd" d="M23.7708 14.1154C23.6596 13.7868 23.5716 13.4563 23.5057 13.1253C24.1816 9.68113 27.5221 6.69245 31.4724 5.98165C36.7594 5.03045 41.1143 8.59759 42.0175 13.1193C41.951 13.4508 41.8622 13.7833 41.7497 14.1154C39.0886 21.9815 26.4319 21.9815 23.7708 14.1154Z" fill="#2430F0"/>
<path d="M49.5667 17.3315C45.8148 17.999 43.8704 21.6458 44.7082 24.8954C45.2624 22.7175 47.4281 20.8434 50.0073 20.3845C53.3882 19.7829 55.8526 22.1836 56.6471 25.0661C57.8037 21.1355 54.116 16.522 49.5667 17.3315Z" fill="#2430F0"/>
<path d="M23.5058 13.1253C24.1816 9.68113 27.5221 6.69245 31.4724 5.98165C36.7595 5.03045 41.1143 8.59759 42.0175 13.1193C43.1835 7.30559 37.4724 1.7699 31.0318 2.92868C25.9391 3.84499 22.5922 8.53513 23.5058 13.1253Z" fill="#2430F0"/>
<path d="M14.3726 20.3812C17.6401 19.7795 20.0451 22.0361 20.8172 24.901C21.9387 20.8439 18.315 16.5211 13.932 17.3283C10.1709 18.0209 7.94509 21.8218 8.87251 25.0449C9.47601 22.8207 11.7798 20.8588 14.3726 20.3812Z" fill="#2430F0"/>
<path d="M46.5168 27.8943C49.2145 30.4006 53.3707 29.9142 55.7519 26.8135C56.1752 26.2621 56.4687 25.6722 56.6471 25.0662C55.8526 22.1837 53.3882 19.783 50.0073 20.3845C47.4281 20.8435 45.2624 22.7175 44.7082 24.8954C44.9882 25.9813 45.579 27.0231 46.5168 27.8943Z" fill="#2430F0"/>
<path fill-rule="evenodd" clip-rule="evenodd" d="M24.9081 10.0222C26.384 8.00348 28.7896 6.4653 31.4775 5.98165C35.4998 5.25798 38.9826 7.14959 40.8164 10.0871C41.1659 9.74068 41.4855 9.38856 41.7497 9.04365C40.3856 5.02103 35.9209 2.04993 31.0369 2.92868C27.6626 3.53579 25.0547 5.79959 23.9447 8.5933C24.1848 9.04919 24.5239 9.53833 24.9081 10.0222Z" fill="#F2C79C"/>
<path d="M24.9081 10.0222C26.2185 11.6724 28.053 13.2615 28.2741 13.2615C28.4414 13.2615 29.3664 12.3767 30.3271 11.4579C31.3646 10.4653 32.4438 9.43296 32.6548 9.43296C32.8578 9.43296 33.7282 10.3901 34.5985 11.3472C35.4689 12.3044 36.3391 13.2615 36.5423 13.2615C36.8013 13.2615 39.1495 11.7388 40.8164 10.0871C38.9826 7.1496 35.4998 5.25798 31.4776 5.98165C28.7896 6.46531 26.3841 8.00348 24.9081 10.0222Z" fill="#2BE1B7"/>
<path d="M8.90336 24.8837C9.57178 22.7265 11.8266 20.8472 14.3566 20.3812C16.2912 20.025 17.9234 20.6706 19.0933 21.8512C19.3107 21.0598 19.4681 20.1146 19.4496 19.3211C18.1365 17.8156 16.1225 16.922 13.916 17.3283C10.2437 18.0045 8.03506 21.6441 8.79608 24.8156C8.83136 24.8386 8.86716 24.8612 8.90336 24.8837Z" fill="#2BE1B7"/>
<path d="M8.90332 24.8837C10.3262 25.7687 12.2659 26.1551 12.777 25.8616C13.1726 25.6343 13.3558 24.488 13.3988 23.3074C13.4316 22.4101 13.4609 21.6069 13.6363 21.4588C13.8301 21.2951 14.7703 21.8276 15.7666 22.3919C16.8584 23.0101 18.0918 23.5494 18.4104 23.3701C18.6381 23.242 18.8625 22.6919 19.0933 21.8512C17.9234 20.6706 16.2911 20.025 14.3565 20.3812C11.8266 20.8472 9.57174 22.7266 8.90332 24.8837Z" fill="#2BE1B7"/>
<path fill-rule="evenodd" clip-rule="evenodd" d="M45.14 20.8044C45.227 21.4329 47.0547 24.8044 47.5479 24.9187C47.815 24.9806 48.7286 24.3387 49.5656 23.7507C50.2741 23.2528 50.9277 22.7937 51.0873 22.8329C51.2329 22.8688 51.5103 23.2992 51.8346 23.8025C52.2862 24.5031 52.829 25.3451 53.234 25.4615C53.7589 25.6122 55.849 24.5297 56.8718 23.8037C57.0298 20.2205 53.6505 16.6075 49.5823 17.3315C47.4579 17.7095 45.913 19.0426 45.1245 20.7179C45.1305 20.7444 45.1356 20.773 45.14 20.8044Z" fill="#2BE1B7"/>
<path d="M57.7389 68.8806C57.5793 68.9622 57.0833 69.1914 56.6365 69.3897C54.9123 70.1531 54.6127 70.3377 54.8433 70.4931C56.058 71.3125 56.3734 73.8908 55.5136 75.972C55.2997 76.4892 55.3319 76.4857 55.8671 75.9343C57.591 74.1571 58.7042 70.6925 58.1418 68.8543C58.0937 68.6971 58.096 68.6971 57.7389 68.8806Z" fill="#F1F1F1"/>
<path d="M7.37873 68.8543C6.81637 70.6926 7.92959 74.1572 9.65349 75.9343C10.1887 76.4858 10.2209 76.4892 10.007 75.9721C9.14753 73.8921 9.46266 71.3126 10.6764 70.4937C10.9009 70.3423 10.491 70.088 8.91313 69.4012C8.54614 69.2412 8.0703 69.024 7.85566 68.9183C7.39241 68.6897 7.42763 68.6949 7.37873 68.8543Z" fill="#F1F1F1"/>
<path d="M53.9608 74.0903C53.9608 73.9006 53.7919 73.7474 53.5836 73.7474C53.3753 73.7474 53.2065 73.9006 53.2065 74.0903C53.2065 74.2794 53.3753 74.4332 53.5836 74.4332C53.7919 74.4332 53.9608 74.2794 53.9608 74.0903Z" fill="#F1F1F1"/>
<path opacity="0.2" fill-rule="evenodd" clip-rule="evenodd" d="M41.5005 14.764C38.2724 18.305 31.8562 20.2535 24.5248 15.7442C28.15 21.7485 38.6204 21.4218 41.5005 14.764ZM19.4431 27.4102C16.0452 28.81 11.4317 27.3769 9.17798 25.8508C9.33627 26.1835 9.53255 26.5059 9.76876 26.8135C12.4022 30.2426 16.8913 30.3492 19.4431 27.4102ZM56.2773 25.9882C54.3237 27.7975 50.3679 29.0837 45.7476 27.0438C45.9717 27.3411 46.2278 27.6258 46.5169 27.8943C49.2147 30.4007 53.3708 29.9142 55.7521 26.8135C55.957 26.5466 56.1315 26.2707 56.2773 25.9882Z" fill="#22110C"/>
<path d="M23.5058 13.1253C24.1816 9.68112 27.5221 6.69243 31.4724 5.98169C36.7595 5.03044 41.1143 8.59758 42.0175 13.1193C43.1835 7.30564 37.4724 1.7699 31.0318 2.92868C25.9391 3.84498 22.5922 8.53518 23.5058 13.1253Z" fill="#2430F0"/>
<path fill-rule="evenodd" clip-rule="evenodd" d="M24.9081 10.0221C26.384 8.00346 28.7896 6.46529 31.4775 5.98169C35.4998 5.25798 38.9826 7.14957 40.8164 10.0871C41.1659 9.74066 41.4855 9.3886 41.7497 9.04369C40.3856 5.02102 35.9209 2.04994 31.0369 2.92868C27.6626 3.53579 25.0547 5.79957 23.9447 8.59329C24.1848 9.04918 24.5239 9.53832 24.9081 10.0221Z" fill="#2BE1B7"/>
<g opacity="0.2">
<g style="mix-blend-mode:hard-light">
<path fill-rule="evenodd" clip-rule="evenodd" d="M35.0867 36.7115C34.6625 35.7356 33.6049 35.2129 32.129 35.4722C31.2574 35.6255 30.666 36.0873 30.3896 36.7581C30.9712 36.2852 32.0003 36.1306 32.7682 36.1145C33.5102 36.1301 34.4962 36.2749 35.0867 36.7115ZM28.6251 37.3291C27.9062 37.4378 26.5933 37.7822 26.0227 38.5747C26.213 37.8667 26.6906 37.3402 27.4194 37.1466C28.1489 36.9528 28.483 36.9751 28.6251 37.3291ZM24.7041 39.5281C24.6987 39.4629 24.6958 39.4 24.6954 39.3402C24.6949 39.2656 23.6354 39.3014 23.3026 39.3871C22.1633 39.6808 21.3961 40.514 21.1144 41.5072C21.8764 40.4462 23.2951 39.5614 24.7041 39.5281ZM16.826 45.3091C17.1627 44.1811 18.4175 43.0043 19.4375 43.0043C19.5818 43.0043 19.7075 42.9965 19.8167 42.9825C19.8071 42.9215 19.7989 42.8596 19.7918 42.7972C19.7895 42.7763 19.7874 42.7564 19.7852 42.7376C19.7672 42.571 19.7578 42.4852 19.7095 42.4466C19.6581 42.4056 19.5626 42.4182 19.3655 42.4441C19.3445 42.447 19.3224 42.45 19.2991 42.4529C17.7596 42.6521 16.8951 43.914 16.826 45.3091ZM32.1238 42.697C31.5321 42.2444 30.6565 42.0656 29.427 43.0785C29.6346 42.6491 29.9965 42.303 30.5106 42.0673C30.9148 41.882 31.3448 41.8763 31.5774 42.0531C31.7629 42.194 31.9583 42.4288 32.1238 42.697ZM35.929 42.9364C35.3982 41.9722 34.3823 41.4686 33.7015 42.2674C33.6022 42.3839 33.4929 42.5433 33.3923 42.7127C33.9552 42.2715 34.78 42.0736 35.929 42.9364ZM28.1406 43.5084C28.1495 43.2406 28.12 43.2357 27.9485 43.2073C27.8346 43.1885 27.7021 43.1659 27.6543 43.1571C27.6064 43.1483 27.4132 43.163 27.225 43.1896C26.3286 43.3168 25.7828 44.0932 25.6422 45.0853C25.997 43.9502 27.3348 43.4202 28.1406 43.5084ZM40.8921 45.6968C41.1709 45.0054 42.8612 45.6928 43.4297 46.8002C43.5878 47.1079 43.6962 47.4146 43.755 47.7201C43.3194 46.5142 41.9476 45.9616 40.8921 45.6968ZM35.4279 50.2018C35.4288 50.1878 35.4293 50.1745 35.4293 50.1621C35.4293 49.9734 37.2224 49.9028 37.7912 50.0691C38.0607 50.1479 38.2587 50.2978 38.384 50.4939C37.8398 50.0209 36.6559 50.1087 35.4279 50.2018ZM31.3067 48.2472C31.6366 47.7631 32.1334 47.4688 32.7603 47.4688C33.3753 47.4688 33.8652 47.7521 34.195 48.2199C33.7842 47.9041 33.2214 47.742 32.7682 47.7001C32.302 47.7431 31.7202 47.9134 31.3067 48.2472ZM27.1165 50.5268C27.2403 50.3145 27.445 50.1523 27.7293 50.0691C28.2982 49.9028 30.0913 49.9734 30.0913 50.1621C30.0913 50.1742 30.0917 50.1871 30.0926 50.2006C28.8427 50.1059 27.641 50.019 27.1165 50.5268ZM24.6406 45.6977C23.5614 45.9689 22.1534 46.5411 21.7528 47.8041C21.8174 46.7382 22.415 45.8426 23.5233 45.5487C23.8138 45.4717 24.2959 45.4491 24.4998 45.503C24.5767 45.5233 24.6136 45.5679 24.6406 45.6977ZM39.5131 38.5742C39.2678 37.7003 38.5538 37.1243 37.4613 37.0801L36.8394 37.0548L36.8286 37.3173C37.5247 37.4112 38.9198 37.7507 39.5131 38.5742ZM44.3885 41.4613C44.186 40.6972 43.7164 40.0384 43.0121 39.6989C42.3155 39.3631 40.8263 39.1188 40.8251 39.3402C40.8248 39.4 40.8219 39.4627 40.8165 39.5278C42.2103 39.5544 43.616 40.4169 44.3885 41.4613ZM48.7149 45.3244C48.385 44.1918 47.1235 43.0043 46.0988 43.0043C45.944 43.0043 45.8106 42.9953 45.696 42.9793C45.698 42.9663 45.7001 42.953 45.702 42.9397C45.7359 42.7121 45.7729 42.4978 45.7842 42.4635C45.8184 42.3588 46.5622 42.4865 46.9468 42.663C48.0648 43.1765 48.656 44.2139 48.7149 45.3244ZM39.8604 44.9868C39.784 44.3971 39.572 43.8917 39.2181 43.5849C38.9076 43.3158 38.1379 43.0779 37.8372 43.1582C37.8053 43.1667 37.686 43.1889 37.5721 43.2076C37.4002 43.2358 37.371 43.2406 37.38 43.5102C38.1606 43.4161 39.4585 43.9124 39.8604 44.9868Z" fill="white"/>
</g>
</g>
<g style="mix-blend-mode:hard-light">
<path fill-rule="evenodd" clip-rule="evenodd" d="M59.3023 60.1868C57.016 60.0177 54.3498 60.7639 52.4232 61.9474C49.7251 63.6045 45.5766 68.0045 44.7062 72.2617C44.4654 73.4388 44.2848 73.8239 44.1511 73.7393C45.4804 65.8096 50.16 60.3125 56.2303 59.676C57.5993 59.5325 58.6269 59.7377 59.3023 60.1868Z" fill="white" fill-opacity="0.4"/>
</g>
<g style="mix-blend-mode:hard-light">
<path fill-rule="evenodd" clip-rule="evenodd" d="M6.09985 60.2411C8.44535 59.9857 11.2524 60.744 13.2581 61.976C15.9561 63.6331 20.1047 68.0331 20.975 72.2903C21.1116 72.9577 21.2287 73.3703 21.3289 73.5874C20.4859 68.7925 18.3146 64.5543 15.4184 62.2589C13.104 60.4246 9.77719 59.3434 7.52918 59.6949C6.93503 59.7879 6.45954 59.9765 6.09985 60.2411Z" fill="white" fill-opacity="0.4"/>
</g>
<g style="mix-blend-mode:hard-light">
<path fill-rule="evenodd" clip-rule="evenodd" d="M27.0393 77.2097C28.9366 75.1549 31.3674 74.8046 32.6667 74.8046C34.0165 74.8046 36.692 75.2337 38.6238 77.4914C36.7795 73.7863 34.4662 71.964 32.0737 72.3863C30.2369 72.7103 28.4976 74.3874 27.0393 77.2097Z" fill="white" fill-opacity="0.4"/>
</g>
<path opacity="0.2" fill-rule="evenodd" clip-rule="evenodd" d="M58.2892 69.9611C57.4216 70.3297 56.4501 70.704 55.4009 71.0789C55.2441 70.8371 55.0577 70.6377 54.8433 70.4931C54.6127 70.3377 54.9125 70.1531 56.6366 69.3897C57.0834 69.1914 57.5794 68.9623 57.7391 68.8806L57.7451 68.8771C57.9665 68.7635 58.0472 68.7217 58.089 68.7463C58.1128 68.76 58.1238 68.7954 58.1413 68.852L58.1418 68.8543C58.241 69.1789 58.2881 69.5536 58.2892 69.9611ZM7.23279 69.8674C8.10951 70.2582 9.08735 70.6543 10.139 71.0497C10.2916 70.8211 10.4711 70.632 10.6764 70.4938C10.901 70.3423 10.491 70.088 8.91324 69.4011C8.54624 69.2411 8.07039 69.024 7.85577 68.9182C7.8259 68.9035 7.79815 68.8897 7.77228 68.8771C7.53874 68.7617 7.46116 68.7228 7.42496 68.7468C7.40691 68.7582 7.39914 68.7851 7.38742 68.8257C7.38481 68.8343 7.38202 68.844 7.37883 68.8543C7.28727 69.1537 7.2401 69.4966 7.23279 69.8674Z" fill="#22110C"/>
<path opacity="0.2" fill-rule="evenodd" clip-rule="evenodd" d="M19.7786 84.1178C19.5935 86.0783 20.276 88.2709 20.5911 89.2829C20.6447 89.4549 20.6877 89.5932 20.714 89.6903C20.9387 90.5207 18.4955 91.8337 9.53357 87.8109C12.8426 90.2915 16.891 92.0492 20.6625 92.3778C23.8287 92.6532 24.5475 92.6064 24.2447 92.1418C23.748 91.3812 22.0457 88.2961 21.051 86.3543C20.7935 85.8515 20.3936 85.1446 20.1627 84.7829C20.0153 84.5526 19.8873 84.3309 19.7786 84.1178Z" fill="#22110C"/>
<path opacity="0.2" fill-rule="evenodd" clip-rule="evenodd" d="M56.0419 87.7932C47.0479 91.8371 44.5972 90.5217 44.8223 89.6903C44.8486 89.5932 44.8915 89.4554 44.9452 89.2829C45.2616 88.2663 45.9488 86.0583 45.7551 84.0914C45.6436 84.3126 45.5113 84.5429 45.3579 84.7829C45.1269 85.1446 44.7272 85.8514 44.4695 86.3543C43.4749 88.296 41.7725 91.3811 41.2759 92.1417C41.1653 92.3114 41.0838 92.416 41.1095 92.4771C41.1548 92.5851 41.5322 92.5571 42.6689 92.5046C46.3874 92.3337 47.9342 91.9954 50.9504 90.6937C52.8495 89.8743 54.5523 88.8949 56.0419 87.7932Z" fill="#22110C"/>
<path opacity="0.2" fill-rule="evenodd" clip-rule="evenodd" d="M24.1579 88.3457C26.1186 91.4686 26.9132 92.5925 27.9851 93.7943C31.9063 98.1914 35.2578 97.4703 39.4154 91.3349C40.1942 90.1863 40.3246 89.9863 41.526 88.0646C41.3055 88.4422 41.0815 88.8331 40.8552 89.2337C39.6062 91.4457 39.514 91.6046 38.7748 92.8114C35.0211 98.9417 31.9952 99.6622 28.455 95.2686C27.4286 93.9949 26.6837 92.8092 24.6652 89.2337C24.4945 88.9314 24.3253 88.6354 24.1579 88.3457Z" fill="#22110C"/>
<path d="M32.7246 66.8903C31.9993 66.8903 31.071 71.976 30.6649 71.976L29.8235 72.7474L32.7246 71.976L36.0609 72.9474C35.703 72.6234 34.9352 71.976 34.7264 71.976C34.4653 71.976 33.4499 66.8903 32.7246 66.8903Z" fill="black" fill-opacity="0.2"/>
<path d="M27.9088 53.233C27.5026 53.233 26.139 52.2901 26.139 50.8901C26.3325 50.5378 26.7193 49.9873 26.7193 50.6044C26.7193 51.3758 27.5897 52.3758 27.8217 52.6044C28.0538 52.833 28.3149 53.233 27.9088 53.233Z" fill="black" fill-opacity="0.2"/>
<path d="M20.1337 50.8901C18.48 50.8901 16.3333 48.7472 15.2308 47.2901L15.8981 46.7186L17.4066 48.8615L20.8299 49.8615L21.4973 48.7758C21.6616 49.0234 22.0484 49.6215 22.2806 50.0329C22.5707 50.5472 23.3249 50.9472 23.9341 51.8043C24.5434 52.6615 22.2225 51.6043 21.9324 51.4615C21.7003 51.3472 21.1974 50.9949 20.975 50.8329C20.975 50.852 20.8068 50.8901 20.1337 50.8901Z" fill="black" fill-opacity="0.2"/>
<path d="M25.3267 48.2901C24.6595 47.4615 24.8915 46.4901 24.7756 45.6615L26.6613 49.0329L26.5162 49.2901L26.5123 49.2881C26.326 49.1915 25.8569 48.9484 25.3267 48.2901Z" fill="black" fill-opacity="0.2"/>
<path d="M31.274 52.7187C30.6647 52.5759 30.1136 51.1759 30.1136 50.1187L30.6938 49.8616L31.0709 51.3473C31.187 51.8045 31.8832 52.8616 31.274 52.7187Z" fill="black" fill-opacity="0.2"/>
<path d="M37.5695 53.233C37.9756 53.233 39.3391 52.2901 39.3391 50.8901C39.1457 50.5378 38.7589 49.9873 38.7589 50.6044C38.7589 51.3758 37.8886 52.3758 37.6565 52.6044C37.4244 52.833 37.1633 53.233 37.5695 53.233Z" fill="black" fill-opacity="0.2"/>
<path d="M45.3444 50.8901C46.9981 50.8901 49.1449 48.7472 50.2474 47.2901L49.5801 46.7186L48.0715 48.8615L44.6482 49.8615L43.981 48.7758C43.8165 49.0234 43.4297 49.6215 43.1977 50.0329C42.9075 50.5472 42.1532 50.9472 41.544 51.8043C40.9347 52.6615 43.2556 51.6043 43.5458 51.4615C43.7778 51.3472 44.2807 50.9949 44.5031 50.8329C44.5031 50.852 44.6714 50.8901 45.3444 50.8901Z" fill="black" fill-opacity="0.2"/>
<path d="M40.1514 48.2901C40.8186 47.4615 40.5866 46.4901 40.7027 45.6615L38.817 49.0329L38.962 49.2901L38.9658 49.2881C39.1522 49.1915 39.6213 48.9484 40.1514 48.2901Z" fill="black" fill-opacity="0.2"/>
<path d="M34.1751 52.7473C34.7844 52.6044 35.3646 51.1759 35.3646 50.1187L34.7844 49.8616L34.4072 51.3473C34.2912 51.8044 33.5659 52.8901 34.1751 52.7473Z" fill="black" fill-opacity="0.2"/>
<path opacity="0.2" d="M25.8604 83.3475C25.6573 83.3475 26.2955 83.0332 26.0924 82.4903C26.576 82.2903 27.3342 82.4961 27.8912 82.9761C28.5875 83.5761 28.5875 85.0618 28.5584 85.6903C28.5294 86.3189 26.0634 83.3475 25.8604 83.3475Z" fill="#22110C"/>
<path opacity="0.2" d="M39.6206 83.3663C39.8236 83.3663 39.1855 83.052 39.3885 82.5091C38.905 82.3091 38.1468 82.5149 37.5898 82.9949C36.8935 83.5949 36.8935 85.0806 36.9226 85.7091C36.9515 86.3377 39.4175 83.3663 39.6206 83.3663Z" fill="#22110C"/>
<path opacity="0.2" fill-rule="evenodd" clip-rule="evenodd" d="M13.2856 68.848C16.8169 70.9286 20.2498 72.9515 20.2498 75.4618C20.2498 75.5423 20.2485 75.6223 20.2458 75.7006C19.0978 73.3332 16.6082 71.5092 11.802 69.0703C9.80769 68.0583 9.78506 68.0446 8.53771 67.0566C5.47823 64.6337 4.48867 61.8457 5.81651 60.4772C4.92316 63.9212 9.17108 66.424 13.2856 68.848Z" fill="#22110C"/>
<path opacity="0.2" fill-rule="evenodd" clip-rule="evenodd" d="M5.87201 60.3783L5.84463 60.484C5.40183 62.1908 6.23134 63.668 7.69298 65.0246C9.15485 66.3812 11.2424 67.6108 13.3004 68.8235L13.302 68.8246C15.0665 69.864 16.8092 70.8908 18.1106 71.9721C19.4116 73.0526 20.2788 74.1932 20.2788 75.4618C20.2788 75.5429 20.2775 75.6229 20.2748 75.7012L20.2196 75.7126C19.0762 73.3549 16.5951 71.5343 11.7889 69.0954C10.7922 68.5897 10.2865 68.3326 9.87439 68.0783C9.46179 67.824 9.14296 67.5726 8.51956 67.0789C6.98708 65.8651 5.97105 64.5589 5.50483 63.3818C5.03875 62.2051 5.12082 61.1526 5.79551 60.4572L5.87201 60.3783ZM5.55888 63.3612C6.02037 64.5264 7.02886 65.8251 8.55589 67.0343C9.17986 67.5286 9.49602 67.7778 9.90519 68.0303C10.3148 68.2829 10.8177 68.5389 11.8154 69.0451C16.5498 71.4475 19.0447 73.2572 20.2197 75.5823C20.2204 75.5423 20.2208 75.5023 20.2208 75.4618C20.2208 74.22 19.3715 73.0937 18.0732 72.0154C16.7757 70.9378 15.0369 69.9132 13.2706 68.8726L13.2687 68.8715C11.2129 67.66 9.1201 66.4275 7.65317 65.0657C6.21654 63.7326 5.37382 62.2703 5.76162 60.5794C5.17825 61.2526 5.11579 62.2423 5.55888 63.3612Z" fill="#22110C"/>
<path opacity="0.2" fill-rule="evenodd" clip-rule="evenodd" d="M52.2797 68.848C48.7484 70.9286 45.3154 72.9514 45.3154 75.4617C45.3154 75.4971 45.3157 75.5325 45.3163 75.5674C46.4921 73.2646 48.9776 71.4635 53.6943 69.0703C55.6887 68.0583 55.7113 68.0446 56.9586 67.0565C60.0172 64.6343 60.9125 62.0229 59.7862 60.6337C60.5126 63.9977 56.3314 66.4611 52.2797 68.848Z" fill="#22110C"/>
<path opacity="0.2" fill-rule="evenodd" clip-rule="evenodd" d="M59.9684 63.4685C59.5007 64.6034 58.5085 65.8657 56.9768 67.0788C56.3534 67.5725 56.0345 67.8239 55.6219 68.0788C55.2098 68.3325 54.7042 68.5896 53.7074 69.096C48.9905 71.4891 46.5134 73.2868 45.3421 75.5806L45.2871 75.5679C45.2866 75.5325 45.2864 75.4971 45.2864 75.4617C45.2864 74.1931 46.1536 73.0525 47.4545 71.972C48.7561 70.8908 50.4987 69.8639 52.2632 68.8245L52.2648 68.8234C54.2914 67.6296 56.3466 66.4182 57.8049 65.0863C59.2633 63.7542 60.1174 62.3068 59.7577 60.6399L59.8088 60.616C60.3809 61.3211 60.436 62.3336 59.9684 63.4685ZM59.839 60.7508C60.3223 61.4291 60.3559 62.3765 59.915 63.4468C59.4519 64.5702 58.4673 65.8251 56.9404 67.0342C56.3164 67.5285 56.0002 67.7777 55.5912 68.0303C55.1815 68.2828 54.6786 68.5388 53.6809 69.045C49.0353 71.4022 46.5464 73.1879 45.3444 75.4508C45.3494 74.2131 46.1975 73.0908 47.492 72.0154C48.7895 70.9377 50.5283 69.9131 52.2946 68.8725L52.2964 68.8714C54.321 67.6788 56.3812 66.465 57.8444 65.1279C59.2727 63.8234 60.1383 62.3954 59.839 60.7508Z" fill="#22110C"/>
<g style="mix-blend-mode:multiply">
<path fill-rule="evenodd" clip-rule="evenodd" d="M4.52108 67.9246C4.48612 70.7561 4.59537 82.976 19.1765 82.976C19.2361 82.976 19.2954 82.9761 19.3542 82.9754C19.2138 82.2235 19.3998 81.5972 19.9103 81.06C20.4275 80.5154 20.1026 77.94 19.3205 76.3823C19.1135 75.9697 19.025 75.7806 18.9308 75.7778C18.8493 75.7754 18.7634 75.9137 18.5925 76.1686C14.3594 82.4789 5.72287 77.6497 5.89792 69.0708C5.92466 67.7618 5.92466 67.7618 5.55826 67.4721C5.29132 67.2618 5.2105 67.1886 5.15082 67.2023C5.1149 67.2108 5.08663 67.2508 5.03003 67.3115C4.85194 67.5029 4.68223 67.7075 4.52108 67.9246Z" fill="black" fill-opacity="0.2"/>
</g>
<path opacity="0.2" fill-rule="evenodd" clip-rule="evenodd" d="M61.0696 68.1674C61.0917 71.3091 60.6942 83.0331 46.4122 83.0331C46.3174 83.0331 46.2237 83.0325 46.131 83.032C46.2918 82.2548 46.1094 81.6109 45.5861 81.0599C45.069 80.5153 45.3938 77.9393 46.176 76.3822C46.383 75.9696 46.4715 75.7806 46.5656 75.7777C46.6472 75.7753 46.7331 75.9136 46.904 76.1685C51.1371 82.4782 59.7735 77.6496 59.5988 69.0708C59.5796 68.1399 59.5738 67.8708 59.6997 67.6908C59.7508 67.6171 59.8234 67.5588 59.926 67.476C60.1175 67.3211 60.2207 67.2239 60.3194 67.2279C60.4639 67.2342 60.5986 67.4588 60.9872 68.0428C61.0151 68.0845 61.0423 68.1263 61.0696 68.1674Z" fill="#22110C"/>
<path opacity="0.2" fill-rule="evenodd" clip-rule="evenodd" d="M30.2234 37.3424C30.1359 37.9925 30.2761 38.7703 30.6646 39.6175C30.9555 40.2519 30.9555 40.2519 31.4018 40.2565C31.8028 40.2605 31.894 40.284 32.2981 40.4874C32.748 40.7137 32.748 40.7137 33.1979 40.4874C33.6021 40.284 33.6932 40.2605 34.0942 40.2565C34.5406 40.2519 34.5406 40.2519 34.8312 39.6175C35.2195 38.7698 35.3453 37.9881 35.249 37.3341C35.0563 38.3921 34.6124 39.7748 33.6168 39.8902C33.1858 39.9795 32.886 39.9851 32.7824 39.9765L32.7755 39.9758H32.6953H32.6884C32.5849 39.9845 32.285 39.9795 31.854 39.8902C30.8611 39.7751 30.4169 38.3992 30.2234 37.3424ZM36.0406 40.5198C36.5382 39.7557 36.7461 39.0256 36.7933 37.8763L36.8182 37.2726C37.009 38.3077 36.9581 39.7572 36.0854 40.9878C35.8592 40.7982 35.8701 40.7817 36.0406 40.5198ZM39.5859 39.5464C39.5456 40.0746 39.3786 40.6588 39.073 41.2689C39.0402 41.3343 39.0107 41.3939 38.9838 41.448C38.8198 41.7791 38.7555 41.9089 38.6566 41.9436C38.5929 41.9661 38.5147 41.9488 38.3861 41.9205C38.3536 41.9133 38.3177 41.9054 38.2781 41.8973C37.9682 41.8337 37.7972 41.827 37.5847 41.8701C37.529 41.8814 37.4784 41.892 37.4321 41.9016C37.4222 41.9036 37.4125 41.9055 37.403 41.9076C37.4409 41.7943 37.7368 41.702 38.0383 41.6078C38.3219 41.5193 38.6105 41.4292 38.6938 41.3187C39.1072 40.77 39.4228 40.2168 39.5859 39.5464ZM40.8129 39.3403C40.8086 40.1278 40.3506 41.4179 39.8356 42.0929C39.6155 42.3813 39.6007 42.4008 39.8802 42.6977C40.473 41.8538 41.0903 40.1922 40.8568 39.2869C40.8285 39.3001 40.813 39.3178 40.8129 39.3403ZM44.4742 42.0143C44.3983 42.4977 44.1272 43.5151 43.7127 43.9474C43.2196 44.4617 43.0165 44.5188 42.6103 44.3474C42.3687 44.2454 42.0161 44.295 41.7596 44.3624C42.2254 44.3797 42.6464 44.5026 43.0333 44.733L43.0456 44.7402L43.0675 44.7534C43.2084 44.8374 43.2863 44.884 43.3575 44.8754C43.4462 44.8648 43.5241 44.7689 43.699 44.5539L43.7164 44.5326L43.7334 44.5118C44.3208 43.7907 44.5545 42.8712 44.4742 42.0143ZM48.6841 45.1072C48.5816 45.9049 48.2895 47.3234 47.165 48.2616C46.107 49.1445 45.3083 49.2044 45.1343 47.9473C45.1175 47.826 45.0938 47.7616 45.0658 47.7427C45.1182 48.1863 45.0964 48.6336 44.9907 49.0403C44.9269 49.2861 44.8747 49.4943 44.8747 49.503C44.8747 49.6443 46.4525 48.9923 47.0054 48.6225C48.2753 47.7732 48.8321 46.3722 48.6841 45.1072ZM45.6849 42.9718C45.5475 43.8571 45.2237 44.4871 44.5522 45.1793C44.1204 45.6245 44.1204 45.6245 44.3021 45.8468C44.3216 45.8705 44.3407 45.8947 44.3596 45.9193C44.9378 45.3406 45.582 44.2354 45.6849 42.9718ZM39.8783 45.6514C39.7709 46.256 39.5941 46.9176 39.332 47.233C38.8099 47.8617 38.1136 48.033 37.5624 47.9473C37.2853 47.9043 36.8257 48.0243 36.4241 48.1644C37.239 48.1303 37.8577 48.2888 38.3951 48.6539C38.5266 48.7432 38.633 48.7818 38.6561 48.7485C38.6776 48.7176 38.8044 48.5521 38.9379 48.3806C39.528 47.6223 39.8483 46.5898 39.8783 45.6514ZM35.1949 47.8848C36.0301 47.4511 37.369 46.2904 37.3526 44.4437C37.1906 45.7763 36.394 46.9572 35.1416 47.6699C35.1265 47.6785 35.1535 47.7726 35.1949 47.8848ZM36.2533 44.568C35.9955 45.3168 35.422 46.4945 34.5162 46.1758C33.7039 45.8901 33.2107 45.833 32.8045 45.833C32.7785 45.833 32.7556 45.8354 32.7355 45.84C32.7153 45.8354 32.6923 45.833 32.6663 45.833C32.2601 45.833 31.7669 45.8901 30.9547 46.1758C30.1372 46.4634 29.5905 45.5322 29.302 44.7975C29.4364 45.3502 29.7126 45.9505 30.1324 46.5751C30.3954 46.9664 30.4926 47.1108 30.5693 47.1011C30.6142 47.0952 30.652 47.0365 30.7122 46.9432C31.5765 45.6008 33.9195 45.6008 34.7839 46.9432C35.019 47.3083 35.9656 45.9164 36.206 44.8519C36.2274 44.7572 36.243 44.6625 36.2533 44.568ZM25.5938 45.6579C25.6038 46.5567 25.9141 47.5531 26.5581 48.3806C26.6916 48.5521 26.8184 48.7176 26.8399 48.7485C26.8631 48.7818 26.9694 48.7432 27.101 48.6539C27.632 48.2931 28.2427 48.134 29.0436 48.1633C28.6427 48.0237 28.1848 47.9044 27.9085 47.9473C27.3573 48.033 26.6611 47.8617 26.1388 47.233C25.8778 46.9187 25.7012 46.2607 25.5938 45.6579ZM28.1248 44.2535C28.0096 46.2269 29.4355 47.4564 30.2971 47.8957C30.3408 47.7787 30.37 47.6788 30.3544 47.6699C29.0427 46.9234 28.2309 45.6634 28.1248 44.2535ZM25.6014 42.7128C25.8959 42.4015 25.8842 42.3862 25.6605 42.0929C25.1455 41.4179 24.6874 40.1278 24.6831 39.3403C24.683 39.3283 24.6554 39.3191 24.6076 39.3126C24.3909 40.2288 25.011 41.8818 25.6014 42.7128ZM21 42.0349C20.9115 42.8649 21.1464 43.7554 21.7626 44.5118C21.7745 44.5263 21.786 44.5403 21.797 44.5539C21.9719 44.7689 22.0499 44.8648 22.1385 44.8754C22.2097 44.884 22.2876 44.8374 22.4285 44.7534C22.4395 44.7469 22.4509 44.7399 22.4627 44.733C22.8436 44.5063 23.2575 44.3836 23.7146 44.3632C23.4579 44.2954 23.1032 44.2449 22.8606 44.3474C22.4544 44.5188 22.2514 44.4617 21.7582 43.9474C21.3495 43.5212 21.0802 42.5259 21 42.0349ZM25.9481 39.776C26.01 40.25 26.1662 40.7563 26.4231 41.2689C26.4559 41.3343 26.4854 41.3938 26.5122 41.448C26.6762 41.779 26.7406 41.9089 26.8394 41.9436C26.9031 41.9661 26.9813 41.9488 27.11 41.9205C27.1424 41.9133 27.1783 41.9054 27.2179 41.8973C27.5278 41.8337 27.6988 41.827 27.9113 41.8701C27.9669 41.8814 28.0176 41.892 28.0639 41.9016C28.0646 41.9017 28.0652 41.9018 28.0658 41.902C28.0201 41.7912 27.7291 41.7003 27.4326 41.6078C27.149 41.5193 26.8604 41.4292 26.7771 41.3187C26.4119 40.8339 26.1229 40.3455 25.9481 39.776ZM28.633 37.3859C28.6736 37.5137 28.6945 37.678 28.7029 37.8832C28.7498 39.0251 28.9589 39.7574 29.4555 40.5198C29.6298 40.7876 29.6371 40.7988 29.3948 41.001C28.5447 39.8118 28.466 38.4155 28.633 37.3859ZM20.4308 47.7378C20.3917 47.7284 20.3583 47.7902 20.3366 47.9473C20.1625 49.2044 19.3638 49.1445 18.3058 48.2616C17.2679 47.3955 16.9392 46.1202 16.8141 45.3018C16.7518 46.5084 17.2848 47.8161 18.4906 48.6225C19.0435 48.9923 20.6214 49.6443 20.6214 49.503C20.6214 49.4943 20.5691 49.2861 20.5053 49.0403C20.3993 48.6322 20.3778 48.183 20.4308 47.7378ZM21.1256 45.9335C21.1477 45.9043 21.1703 45.8755 21.1932 45.8475C21.3746 45.626 21.3745 45.626 20.9195 45.1526C20.2452 44.4511 19.8801 43.6968 19.7796 42.7974C19.7773 42.7778 19.7754 42.7592 19.7734 42.7415C19.8111 44.1107 20.509 45.3244 21.1256 45.9335Z" fill="#22110C"/>
<path d="M54.1928 72.9475C54.1928 72.2532 54.7774 71.6903 55.4983 71.6903C56.2193 71.6903 56.8038 72.2532 56.8038 72.9475C56.8038 73.6417 56.2193 74.2046 55.4983 74.2046C54.7774 74.2046 54.1928 73.6417 54.1928 72.9475Z" fill="#F1F1F1"/>
<path d="M8.64532 72.9475C8.64532 72.2532 9.22985 71.6903 9.95083 71.6903C10.6718 71.6903 11.2563 72.2532 11.2563 72.9475C11.2563 73.6417 10.6718 74.2046 9.95083 74.2046C9.22985 74.2046 8.64532 73.6417 8.64532 72.9475Z" fill="#F1F1F1"/>
<path d="M12.1267 74.0903C12.1267 73.9006 11.9579 73.7474 11.7495 73.7474C11.5412 73.7474 11.3724 73.9006 11.3724 74.0903C11.3724 74.2794 11.5412 74.4332 11.7495 74.4332C11.9579 74.4332 12.1267 74.2794 12.1267 74.0903Z" fill="#F1F1F1"/>
</g>
<path d="M375.116 73.9726L376.553 80.89C375.555 81.5658 374.118 82.1821 372.242 82.7386C370.407 83.2554 368.571 83.5138 366.734 83.5138C363.182 83.5138 360.229 82.4006 357.873 80.1744C355.559 77.9481 354.402 74.6087 354.402 70.1561V58.0507H348.534V50.0003H354.402V42.904L362.963 41.0554V50.0003H375.175V58.0507H362.963V69.6791C362.963 73.6148 364.719 75.5827 368.231 75.5827C369.788 75.5827 372.083 75.0459 375.116 73.9726Z" fill="white"/>
<path d="M330.405 83.5136C325.975 83.5136 322.283 82.5 319.329 80.4724C316.376 78.4052 314.599 75.5825 314.001 72.0045H322.681C323.4 74.9465 326.055 76.4174 330.644 76.4174C334.356 76.4174 336.212 75.5229 336.212 73.7339C336.212 73.4954 336.172 73.2768 336.092 73.078C336.052 72.8792 335.953 72.7003 335.793 72.5413C335.673 72.3823 335.534 72.2431 335.374 72.1238C335.214 71.9648 334.975 71.8257 334.655 71.7064C334.376 71.5872 334.116 71.4878 333.877 71.4082C333.638 71.3287 333.278 71.2293 332.8 71.1101C332.36 70.9909 331.962 70.8915 331.602 70.8119C331.283 70.7324 330.824 70.633 330.225 70.5137C329.626 70.3945 329.108 70.2753 328.668 70.156C323.759 69.0031 320.327 67.7508 318.371 66.3991C316.456 65.0077 315.498 62.9405 315.498 60.1973C315.498 56.7784 316.795 54.1148 319.389 52.2066C322.023 50.2586 325.535 49.2845 329.926 49.2845C334.316 49.2845 337.728 50.2387 340.164 52.147C342.598 54.0155 344.115 56.5597 344.713 59.78H336.033C335.314 57.5536 333.179 56.4405 329.626 56.4405C325.954 56.4405 324.119 57.3549 324.119 59.1836C324.119 59.8991 324.498 60.416 325.256 60.734C326.015 61.0521 327.731 61.5092 330.405 62.1056C333.079 62.7019 335.194 63.2585 336.751 63.7753C338.307 64.2524 339.785 64.8884 341.181 65.6835C342.578 66.4786 343.576 67.4327 344.174 68.5459C344.774 69.659 345.073 71.0107 345.073 72.6009C345.073 76.1391 343.696 78.8425 340.942 80.711C338.187 82.5794 334.676 83.5136 330.405 83.5136Z" fill="white"/>
<path d="M292.549 49.2845C297.938 49.2845 302.188 51.1332 305.301 54.8304C308.455 58.5276 309.811 63.1193 309.373 68.6056H284.107C284.387 71.1498 285.305 73.0978 286.861 74.4495C288.418 75.8012 290.353 76.477 292.669 76.477C294.345 76.477 295.841 76.1192 297.159 75.4036C298.476 74.6483 299.414 73.6345 299.973 72.3624H308.834C307.676 76.0596 305.64 78.8425 302.727 80.711C299.813 82.5794 296.481 83.5136 292.728 83.5136C287.62 83.5136 283.449 81.9036 280.216 78.6834C276.983 75.4633 275.367 71.3884 275.367 66.4587C275.367 61.5291 276.983 57.4343 280.216 54.1744C283.449 50.9145 287.56 49.2845 292.549 49.2845ZM292.489 56.3212C290.454 56.3212 288.757 56.8778 287.4 57.991C286.044 59.0643 285.086 60.5154 284.526 62.3441H300.272C299.793 60.5154 298.875 59.0643 297.519 57.991C296.161 56.8778 294.485 56.3212 292.489 56.3212Z" fill="white"/>
<path d="M266.454 43.6196C262.582 43.6196 260.647 45.7068 260.647 49.881V50.0003H271.603V58.0507H260.647V82.7982H252.086V58.0507H246.219V50.0003H252.086V49.4636C252.086 45.0905 253.383 41.7908 255.977 39.5646C258.572 37.2986 261.744 36.1655 265.496 36.1655C268.49 36.1655 271.084 36.6625 273.279 37.6563L271.723 44.5737L270.586 44.2755C269.068 43.8383 267.691 43.6196 266.454 43.6196Z" fill="white"/>
<path d="M237.19 34.8535C238.748 34.8535 240.024 35.3306 241.022 36.2847C242.02 37.199 242.519 38.3917 242.519 39.8626C242.519 41.3336 242.02 42.5461 241.022 43.5002C240.024 44.4543 238.748 44.9314 237.19 44.9314C235.674 44.9314 234.397 44.4543 233.359 43.5002C232.361 42.5461 231.862 41.3336 231.862 39.8626C231.862 38.4315 232.361 37.2388 233.359 36.2847C234.397 35.3306 235.674 34.8535 237.19 34.8535ZM232.879 82.7981V50.0001H241.441V82.7981H232.879Z" fill="white"/>
<path d="M214.434 49.2845C218.146 49.2845 221.059 50.4375 223.175 52.7433C225.29 55.049 226.347 58.2095 226.347 62.2248V82.7981H217.786V64.0734C217.786 61.8472 217.308 60.1775 216.35 59.0643C215.392 57.9512 213.815 57.3946 211.62 57.3946C206.671 57.3946 204.196 60.1178 204.196 65.5642V82.7981H195.634V50.0002H204.196V54.4726C206.671 51.0139 210.083 49.2845 214.434 49.2845Z" fill="white"/>
<path d="M180.251 50.0002H188.812L188.753 82.7981H180.192V78.3853C177.677 81.8042 174.245 83.5136 169.894 83.5136C165.543 83.5136 161.951 81.9234 159.118 78.743C156.284 75.5229 154.867 71.4082 154.867 66.3991C154.867 61.39 156.284 57.2953 159.118 54.1149C161.991 50.8946 165.563 49.2845 169.834 49.2845C174.224 49.2845 177.697 51.0537 180.251 54.5919V50.0002ZM171.81 75.4036C174.245 75.4036 176.26 74.5688 177.857 72.899C179.453 71.2293 180.251 69.0627 180.251 66.3991C180.251 63.7356 179.453 61.5689 177.857 59.8991C176.26 58.2294 174.245 57.3946 171.81 57.3946C169.375 57.3946 167.38 58.2294 165.823 59.8991C164.266 61.5689 163.488 63.7356 163.488 66.3991C163.488 69.0627 164.266 71.2293 165.823 72.899C167.42 74.5688 169.415 75.4036 171.81 75.4036Z" fill="white"/>
<path d="M137.741 49.2845C141.254 49.2845 144.028 50.4176 146.064 52.6836C148.1 54.9496 149.117 58.0705 149.117 62.046V82.7981H140.555V63.8945C140.555 61.7478 140.096 60.1377 139.179 59.0643C138.301 57.9512 136.863 57.3946 134.868 57.3946C132.633 57.3946 130.937 58.1102 129.779 59.5414C128.622 60.9328 128.043 62.9405 128.043 65.5642V82.7981H119.481V63.8945C119.481 61.7478 119.022 60.1377 118.104 59.0643C117.227 57.9512 115.789 57.3946 113.794 57.3946C111.559 57.3946 109.842 58.1102 108.646 59.5414C107.488 60.9328 106.909 62.9405 106.909 65.5642L106.969 82.7981H98.3478V50.0002H106.969V54.3533C109.364 50.9741 112.616 49.2845 116.728 49.2845C121.517 49.2845 124.85 51.3519 126.726 55.4864C129.28 51.3519 132.952 49.2845 137.741 49.2845Z" fill="white"/>
</g>
<g clip-path="url(#clip1_5853_372)">
<path d="M472.577 25H422.356C415.532 25 410 30.5319 410 37.3559V87.5762C410 94.4002 415.532 99.9321 422.356 99.9321H472.577C479.401 99.9321 484.932 94.4002 484.932 87.5762V37.3559C484.932 30.5319 479.401 25 472.577 25Z" fill="white"/>
<path d="M465.354 82.8818V41H473.91V82.8818H465.354Z" fill="#22110C"/>
<path d="M447.907 41H456.582V65.9496C456.582 77.7363 449.163 83.5998 439.291 83.5998C429.419 83.5998 422 77.7363 422 65.9496V41H430.676V65.471C430.676 72.7704 434.265 75.4628 439.291 75.4628C444.317 75.4628 447.907 72.7704 447.907 65.471V41Z" fill="#22110C"/>
</g>
<defs>
<clipPath id="clip0_5853_372">
<rect width="377" height="100" fill="white"/>
</clipPath>
<clipPath id="clip1_5853_372">
<rect width="75" height="75" fill="white" transform="translate(410 25)"/>
</clipPath>
</defs>
</svg>
