<svg width="428" height="114" viewBox="0 0 428 114" fill="none" xmlns="http://www.w3.org/2000/svg">
<g clip-path="url(#clip0_2840_12790)">
<mask id="mask0_2840_12790" style="mask-type:luminance" maskUnits="userSpaceOnUse" x="0" y="0" width="75" height="114">
<path d="M74.4348 0H0V114H74.4348V0Z" fill="white"/>
</mask>
<g mask="url(#mask0_2840_12790)">
<path fill-rule="evenodd" clip-rule="evenodd" d="M35.644 0.0800637C20.5653 1.56578 20.0342 23.8921 35.0183 26.3905C35.6972 26.5037 35.9123 26.5632 35.9279 26.6419C35.9392 26.6987 35.8845 27.8245 35.8067 29.1438C35.7288 30.463 35.6307 33.0571 35.5887 34.9082C35.5467 36.7594 35.4975 38.2848 35.4793 38.2981C35.4613 38.3112 35.2164 38.435 34.9352 38.5732C34.4084 38.8321 33.7156 39.4006 33.437 39.8026C33.2808 40.0282 33.2808 40.0282 32.3217 40.0595C30.8072 40.109 29.8841 40.4793 29.0459 41.3733C28.8135 41.6212 28.6008 41.7969 28.5725 41.7641C28.5442 41.7314 27.6703 40.4442 26.6303 38.9035C25.5904 37.3629 24.4096 35.628 24.0064 35.0484L23.2732 33.9942L23.7034 33.5175C31.7268 24.6264 20.5077 11.2354 10.9677 18.3161C1.47171 25.3641 9.98263 40.1481 20.9009 35.5708C20.9458 35.5519 21.7569 36.5663 22.8194 37.97C23.8317 39.3075 25.0962 40.9566 25.6293 41.6345C26.1624 42.3126 26.6436 42.9352 26.6986 43.0182C26.8116 43.1887 26.848 43.1639 26.2373 43.3316C24.5439 43.7968 22.9474 45.2025 22.631 46.507C22.5894 46.6783 22.5213 46.8193 22.4797 46.8205C19.6181 46.8965 17.4282 49.0221 17.3973 51.7539C17.3868 52.6831 17.3868 52.6831 16.9971 52.9145C13.4502 55.0199 8.63832 62.0829 8.29473 65.6881C8.24396 66.221 8.26397 66.2034 7.56211 66.3232C5.97837 66.5936 5.0532 67.1655 4.07765 68.4769C2.84224 70.138 2.72827 71.5659 3.6703 73.5821C3.98938 74.2654 4.00691 74.1443 3.48092 74.8857C-2.08108 82.7217 -0.922397 91.9173 6.56061 99.3259C11.4547 104.171 18.3247 107.125 26.0268 107.695C28.9677 107.913 29.3044 108.024 30.0619 109.022C35.0425 115.582 39.3416 115.582 44.3222 109.022C45.0797 108.024 45.4164 107.913 48.3573 107.695C59.8696 106.843 69.5016 100.532 73.1121 91.4736C75.4136 85.7 74.6831 80.2182 70.9015 74.8804C70.377 74.1398 70.3948 74.2641 70.7137 73.5821C71.6557 71.5659 71.5417 70.138 70.3066 68.4769C69.331 67.1655 68.4056 66.5936 66.822 66.3232C66.1198 66.2034 66.1402 66.221 66.0895 65.6881C65.9769 64.506 64.7115 61.4722 63.5044 59.489C62.0208 57.0519 59.1385 53.9542 57.387 52.9145C56.9973 52.6831 56.9973 52.6831 56.9867 51.7539C56.9559 49.0221 54.766 46.8965 51.9044 46.8205C51.8628 46.8193 51.7946 46.6783 51.7531 46.507C51.4366 45.2025 49.8401 43.7968 48.1467 43.3316C47.536 43.1639 47.5724 43.1887 47.6855 43.0182C47.7404 42.9352 48.2216 42.3126 48.7548 41.6345C49.2879 40.9566 50.5524 39.3075 51.5647 37.97C52.6271 36.5663 53.4382 35.5519 53.4831 35.5708C64.4014 40.1481 72.9125 25.3641 63.4163 18.3161C53.8762 11.2354 42.6573 24.6264 50.6806 33.5175L51.1109 33.9942L50.3777 35.0484C49.9745 35.628 48.7936 37.3629 47.7537 38.9035C46.7138 40.4442 45.8398 41.7314 45.8116 41.7641C45.7833 41.7969 45.5706 41.6212 45.3381 41.3733C44.5 40.4793 43.5769 40.109 42.0624 40.0595C41.1032 40.0282 41.1032 40.0282 40.9492 39.8058C40.5457 39.2234 39.6158 38.562 38.8637 38.3221C38.5262 38.2145 38.5262 38.2145 38.5343 34.2597C38.5387 32.0844 38.5276 29.4575 38.5094 28.4221L38.4765 26.5393L39.3658 26.3908C56.2184 23.5756 52.6577 -1.59626 35.644 0.0800637ZM35.2298 3.33871C29.4481 4.3833 25.6485 9.73006 26.6856 14.9628C26.7604 15.3402 26.8603 15.717 26.9865 16.0916C30.0076 25.0589 44.3765 25.0589 47.3975 16.0916C47.5252 15.7129 47.626 15.3339 47.7015 14.956C49.0253 8.32839 42.5416 2.01771 35.2298 3.33871ZM15.8167 19.7542C11.5469 20.5438 9.01992 24.8769 10.0728 28.5512C10.2752 29.2575 10.61 29.9395 11.0901 30.5674C14.487 35.0091 20.6035 34.561 23.1236 29.6858C23.3443 29.2591 23.5128 28.8244 23.6333 28.3872C24.9066 23.762 20.7927 18.8341 15.8167 19.7542ZM56.272 19.7579C52.0126 20.519 49.8051 24.6762 50.7563 28.3808C51.0741 29.6187 51.7449 30.8063 52.8095 31.7995C55.8721 34.6567 60.5906 34.1022 63.294 30.5674C63.7746 29.9388 64.1078 29.2664 64.3103 28.5754C65.6233 24.0945 61.4367 18.8351 56.272 19.7579ZM36.4754 40.4384C34.391 40.8062 33.7178 42.7355 34.8268 45.1639C35.1569 45.887 35.1569 45.887 35.6638 45.8922C36.1189 45.897 36.2225 45.9237 36.6812 46.1555C37.192 46.4136 37.192 46.4136 37.7028 46.1555C38.1616 45.9237 38.2652 45.897 38.7203 45.8922C39.227 45.887 39.227 45.887 39.557 45.1639C40.9174 42.182 39.4393 39.9155 36.4754 40.4384ZM31.1286 42.3472C29.4208 42.8026 28.9282 44.8751 30.0114 47.0464C30.4599 47.9454 30.371 47.8748 30.9139 47.7629C31.2656 47.6903 31.4599 47.6826 31.701 47.7318C32.4925 47.893 32.3955 47.9192 32.7311 47.4541C32.8979 47.223 33.1752 46.9164 33.3475 46.7726C33.6607 46.5111 33.6607 46.5111 33.454 46.1925C32.8903 45.3233 32.653 44.4885 32.5996 43.1867C32.5595 42.2065 32.2717 42.0423 31.1286 42.3472ZM41.7847 43.1788C41.731 44.4891 41.4951 45.3214 40.9301 46.1925C40.7234 46.5111 40.7234 46.5111 41.0366 46.7726C41.2088 46.9164 41.4862 47.223 41.653 47.4541C41.9885 47.9192 41.8915 47.893 42.6831 47.7318C42.9242 47.6826 43.1184 47.6903 43.4701 47.7629C44.0131 47.8748 43.9242 47.9454 44.3727 47.0464C45.6388 44.5085 44.8109 42.3643 42.5291 42.2713L41.823 42.2426L41.7847 43.1788ZM26.4549 44.9013C23.9026 45.5618 22.9956 48.6174 24.7206 50.7433C25.1317 51.25 25.1041 51.2413 25.5153 50.9955C26.1543 50.6137 26.8746 50.4908 27.7145 50.6204C28.0189 50.6673 28.0189 50.6673 28.096 50.3645C28.2256 49.8556 28.6067 49.1916 29.0204 48.7543C29.4137 48.3386 29.4137 48.3386 29.1458 47.9857C28.561 47.2164 28.041 45.7456 28.0362 44.8478C28.0357 44.7628 26.8328 44.8035 26.4549 44.9013ZM46.3479 44.8478C46.343 45.7456 45.8231 47.2164 45.2383 47.9857C44.9704 48.3386 44.9704 48.3386 45.3637 48.7543C45.7773 49.1916 46.1585 49.8556 46.2881 50.3645C46.3652 50.6673 46.3652 50.6673 46.6696 50.6204C47.5095 50.4908 48.2298 50.6137 48.8688 50.9955C49.28 51.2413 49.2523 51.25 49.6635 50.7433C51.1011 48.9716 50.6725 46.1484 48.8307 45.2568C48.0399 44.874 46.3493 44.5955 46.3479 44.8478ZM34.6381 47.9568C32.8452 48.7821 32.6825 50.7948 34.2226 53.0955C34.6961 53.8029 34.6961 53.8029 34.8807 53.5151C35.8621 51.9848 38.522 51.9848 39.5034 53.5151C39.7703 53.9313 40.8449 52.3446 41.1179 51.131C41.6052 48.9649 39.4685 46.7618 38.2605 48.1849C38.0036 48.4877 37.688 49.0436 37.5633 49.413C37.3218 50.1284 37.0622 50.1284 36.8208 49.413C36.6277 48.841 36.2208 48.2242 35.8492 47.9406C35.5851 47.739 35.097 47.7455 34.6381 47.9568ZM21.9099 48.3964C18.6527 48.8196 18.0576 53.4496 21.0058 55.4296C21.6335 55.851 23.4249 56.5944 23.4249 56.4333C23.4249 56.4234 23.3657 56.1861 23.2932 55.9058C22.9842 54.7112 23.3068 53.2075 24.0742 52.266C24.2799 52.0135 24.2799 52.0135 23.7633 51.4738C22.9978 50.674 22.5834 49.8143 22.4692 48.7889C22.4153 48.3052 22.4459 48.3266 21.9099 48.3964ZM51.9778 48.4085C51.965 48.4476 51.923 48.6918 51.8845 48.9514C51.7318 49.9798 51.3645 50.7058 50.5931 51.5044C50.1027 52.0118 50.1028 52.0118 50.3092 52.2652C51.0773 53.2075 51.4 54.7107 51.0909 55.9058C51.0184 56.1861 50.9592 56.4234 50.9592 56.4333C50.9592 56.5944 52.7505 55.851 53.3782 55.4296C55.9902 53.6754 55.9448 49.8566 53.2976 48.6359C52.861 48.4346 52.0167 48.2891 51.9778 48.4085ZM30.908 49.2363C28.8362 49.5311 28.4137 52.8945 30.1648 55.1538C30.3162 55.3492 30.4602 55.5379 30.4847 55.5731C30.5111 55.6111 30.6318 55.5672 30.7811 55.4653C31.625 54.8896 32.6462 54.7646 34.1886 55.048C34.2398 55.0575 34.5192 54.3692 34.4746 54.3436C32.7972 53.385 31.8401 51.6836 31.9366 49.8321C31.9645 49.2953 31.9645 49.2953 31.7293 49.2564C31.6 49.2349 31.4496 49.2091 31.3953 49.1991C31.341 49.1891 31.1218 49.2059 30.908 49.2363ZM42.9557 49.2004C42.9196 49.2101 42.7841 49.2354 42.6547 49.2567C42.4196 49.2953 42.4196 49.2953 42.4475 49.8321C42.544 51.6836 41.5868 53.385 39.9094 54.3436C39.8647 54.3692 40.1443 55.0575 40.1955 55.048C41.7379 54.7646 42.7591 54.8896 43.603 55.4653C43.7523 55.5672 43.873 55.6111 43.8994 55.5731C43.9239 55.5379 44.0677 55.3492 44.2193 55.1538C45.5063 53.4932 45.6629 50.6787 44.5235 49.6869C44.171 49.38 43.2971 49.1089 42.9557 49.2004ZM26.7055 51.9256C24.1663 52.6016 23.9885 56.0717 26.3791 58.2932C28.1069 59.8989 26.4195 59.5224 24.5374 57.8825C24.0272 57.4377 24.0272 57.4377 23.6383 57.478C22.05 57.6421 19.6034 56.2532 18.2989 54.4468C17.9979 54.0298 17.9979 54.0298 17.8064 54.2513C15.0941 57.3869 13.5504 60.1946 11.7924 65.1885C11.3574 66.4249 11.353 66.3285 11.8479 66.4216C20.2945 68.0072 25.868 76.907 26.0416 89.0868C26.0794 91.7465 26.0123 91.5869 26.9478 91.2411C27.5191 91.0294 27.6348 90.8685 28.1016 89.6391C30.2373 84.0122 32.0353 81.781 35.0476 81.0195C35.671 80.8618 35.6528 80.8736 35.706 80.5928C35.8264 79.9583 36.5036 78.2972 36.7476 78.0379C37.3361 77.4132 38.3225 78.7186 38.6781 80.5928C38.7313 80.8736 38.7131 80.8618 39.3365 81.0195C42.3487 81.781 44.1467 84.0122 46.2825 89.6391C46.7492 90.8685 46.865 91.0294 47.4362 91.2411C48.3718 91.5869 48.3046 91.7465 48.3425 89.0868C48.5161 76.9064 54.089 68.0072 62.536 66.4216C63.031 66.3285 63.0267 66.4249 62.5916 65.1885C60.8337 60.1946 59.29 57.3869 56.5776 54.2513C56.3862 54.0298 56.3862 54.0298 56.0852 54.4468C54.7806 56.2532 52.334 57.6421 50.7458 57.478C50.3569 57.4377 50.3569 57.4377 49.8466 57.8825C47.9646 59.5224 46.2771 59.8989 48.005 58.2932C49.7299 56.6903 50.1653 55.0352 49.3048 53.3522C48.623 52.0186 46.5198 51.2193 46.3861 52.2431C46.1725 53.8807 45.5178 55.1405 44.5318 55.8115C44.2446 56.0069 44.2446 56.0069 44.4894 56.4449C45.0527 57.4527 44.7744 58.7626 43.7873 59.7494C42.9521 60.5843 42.2812 60.6389 43.0475 59.8096C44.0528 58.7219 43.9829 57.3959 42.9035 57.0789C42.2578 56.8891 40.2221 56.9696 40.2221 57.1848C40.2221 57.6742 39.5678 59.1788 39.1793 59.5827C38.6975 60.0836 38.5965 59.8664 38.9283 59.0427C39.945 56.5196 39.0977 54.1145 37.192 54.1145C35.2864 54.1145 34.4391 56.5196 35.4556 59.0427C35.7875 59.8664 35.6866 60.0836 35.2048 59.5827C34.8163 59.1788 34.162 57.6742 34.162 57.1848C34.162 56.9696 32.1263 56.8891 31.4806 57.0789C30.401 57.3959 30.3311 58.7219 31.3365 59.8096C32.1029 60.6389 31.432 60.5843 30.5968 59.7494C29.6096 58.7626 29.3314 57.4527 29.8946 56.4449C30.1395 56.0069 30.1395 56.0069 29.8522 55.8115C28.8672 55.1413 28.2115 53.8804 27.9984 52.2471C27.9634 51.9786 27.9262 51.9033 27.8141 51.8735C27.5826 51.8121 27.0353 51.8378 26.7055 51.9256ZM8.54768 68.0522C4.66075 68.6626 5.24535 72.8968 9.70642 76.4445C11.1225 77.5708 11.1482 77.5864 13.4125 78.7402C21.7593 82.9933 23.9518 85.6068 23.9518 91.3049C23.9518 91.6964 24.2331 91.8163 24.6271 91.5921C24.698 91.5518 24.6868 88.8262 24.6097 87.3696C24.2472 80.5296 21.4763 74.1358 17.5042 70.9751C14.8767 68.884 11.0998 67.6516 8.54768 68.0522ZM63.837 68.0307C56.6289 68.7896 51.1482 75.6106 49.9402 85.3254C49.748 86.872 49.6124 91.5094 49.757 91.5921C50.151 91.8163 50.4322 91.6964 50.4322 91.3049C50.4322 85.6062 52.6233 82.994 60.9716 78.7402C63.2358 77.5864 63.2615 77.5708 64.6777 76.4445C70.0241 72.1933 69.5478 67.4294 63.837 68.0307ZM5.72416 76.735C2.69211 80.0039 1.79857 86.7553 3.76068 91.5713C6.5147 98.3319 15.5257 104.617 23.4578 105.311C27.0524 105.625 27.8684 105.571 27.5246 105.042C26.9607 104.174 25.0281 100.657 23.8989 98.4439C23.6064 97.8706 23.1526 97.0648 22.8903 96.6525C21.7123 94.8017 21.6259 93.4565 22.6175 92.4084C23.2046 91.7876 22.8358 88.8516 21.9479 87.0758C21.5089 86.1977 21.5391 86.2068 21.1213 86.8322C16.3155 94.0259 6.51074 88.5207 6.70947 78.7407C6.73984 77.2484 6.73984 77.2484 6.32386 76.9181C5.83833 76.5338 5.89517 76.5507 5.72416 76.735ZM68.046 76.9227C67.6441 77.2484 67.6441 77.2484 67.6744 78.7407C67.8734 88.5207 58.0684 94.0252 53.2627 86.8322C52.845 86.2068 52.8752 86.1977 52.4362 87.0758C51.5483 88.8516 51.1795 91.7876 51.7666 92.4084C52.7582 93.4565 52.6718 94.8017 51.4938 96.6525C51.2315 97.0648 50.7777 97.8706 50.4852 98.4439C49.356 100.657 47.4233 104.174 46.8595 105.042C46.5135 105.574 46.4167 105.549 48.441 105.455C52.6625 105.26 54.4186 104.875 57.8427 103.391C70.2236 98.027 75.2582 86.6315 69.2513 77.5689C68.509 76.4484 68.5821 76.4882 68.046 76.9227ZM8.37688 78.4939C7.73845 80.5895 9.00226 84.5391 10.9594 86.5651C11.567 87.1937 11.6035 87.1977 11.3607 86.6081C10.385 84.2369 10.7427 81.2963 12.1207 80.3628C12.3755 80.1902 11.9101 79.9003 10.1189 79.1173C9.70222 78.9349 9.162 78.6873 8.91835 78.5668C8.39242 78.3063 8.4324 78.3122 8.37688 78.4939ZM65.5497 78.5239C65.3685 78.617 64.8054 78.8782 64.2982 79.1043C62.3408 79.9746 62.0006 80.185 62.2624 80.3622C63.6414 81.2963 63.9995 84.2355 63.0233 86.6081C62.7805 87.1977 62.817 87.1937 63.4247 86.5651C65.3818 84.5391 66.6455 80.5895 66.0071 78.4939C65.9525 78.3148 65.9551 78.3147 65.5497 78.5239ZM36.4123 82.5204C33.8918 82.9666 31.5327 85.6681 29.7032 90.2033C28.786 92.4775 28.3089 92.8065 25.2693 93.2638C23.269 93.5647 23.1371 94.0467 24.5118 96.0303C25.5058 97.4648 26.7198 99.4464 28.002 101.726C30.2936 105.802 31.1391 107.154 32.3045 108.606C36.3236 113.615 39.7588 112.794 44.0203 105.805C44.8594 104.429 44.9642 104.248 46.3821 101.726C47.6643 99.4464 48.8783 97.4648 49.8722 96.0303C51.247 94.0467 51.1151 93.5647 49.1147 93.2638C46.075 92.8065 45.598 92.4775 44.6809 90.2033C42.4753 84.7359 39.5021 81.9732 36.4123 82.5204ZM29.7158 93.3028C29.1002 93.6201 28.8781 94.2291 29.1647 94.8147C29.392 95.2786 30.0178 95.5099 30.4029 95.2721C30.5088 95.207 30.5889 95.2311 30.9125 95.4271C32.0698 96.1268 32.5109 95.9913 32.1512 95.046C31.6022 93.6038 30.5678 92.8637 29.7158 93.3028ZM43.536 93.3322C42.8297 93.6872 41.9264 95.2043 42.1481 95.6643C42.3084 95.9965 42.623 95.9404 43.4715 95.4271C43.7952 95.2311 43.8752 95.207 43.9812 95.2721C44.3663 95.5099 44.9921 95.2786 45.2194 94.8147C45.7102 93.8122 44.5731 92.8103 43.536 93.3322Z" fill="#22110C"/>
<path d="M42.9558 49.2004C42.9195 49.2101 42.7841 49.2354 42.6547 49.2567C42.4196 49.2953 42.4196 49.2953 42.4475 49.8321C42.544 51.6836 41.5868 53.385 39.9095 54.3436C39.8648 54.3692 40.1443 55.0575 40.1955 55.048C41.7379 54.7646 42.759 54.8896 43.603 55.4653C43.7523 55.5672 43.873 55.6111 43.8994 55.5731C43.9238 55.5379 44.0677 55.3492 44.2193 55.1538C45.5063 53.4932 45.6629 50.6787 44.5235 49.6869C44.1711 49.38 43.2971 49.1089 42.9558 49.2004Z" fill="#2430F0"/>
<path d="M51.9778 48.4085C51.965 48.4476 51.9231 48.6918 51.8846 48.9514C51.7319 49.9798 51.3646 50.7058 50.5931 51.5044C50.1028 52.0118 50.1028 52.0118 50.3092 52.2652C51.0772 53.2076 51.4 54.7108 51.0909 55.9058C51.0184 56.1861 50.9592 56.4234 50.9592 56.4333C50.9592 56.5944 52.7504 55.851 53.3781 55.4296C55.9902 53.6754 55.9449 49.8566 53.2977 48.6359C52.8611 48.4346 52.0167 48.2891 51.9778 48.4085Z" fill="#2430F0"/>
<path d="M46.3479 44.8478C46.3431 45.7456 45.8231 47.2163 45.2383 47.9857C44.9704 48.3385 44.9704 48.3385 45.3637 48.7543C45.7773 49.1915 46.1585 49.8555 46.2881 50.3645C46.3652 50.6673 46.3652 50.6673 46.6696 50.6204C47.5095 50.4908 48.2298 50.6136 48.8688 50.9954C49.28 51.2412 49.2523 51.2499 49.6635 50.7432C51.1011 48.9716 50.6725 46.1483 48.8307 45.2568C48.0399 44.874 46.3493 44.5955 46.3479 44.8478Z" fill="#2430F0"/>
<path d="M41.7847 43.1787C41.7311 44.489 41.4951 45.3214 40.9301 46.1924C40.7234 46.511 40.7234 46.511 41.0366 46.7725C41.2088 46.9163 41.4862 47.223 41.653 47.4541C41.9886 47.9192 41.8916 47.893 42.6831 47.7318C42.9242 47.6826 43.1185 47.6902 43.4702 47.7627C44.0131 47.8747 43.9242 47.9453 44.3726 47.0464C45.6388 44.5085 44.8109 42.3642 42.529 42.2712L41.823 42.2426L41.7847 43.1787Z" fill="#2430F0"/>
<path d="M36.4754 40.4384C34.3908 40.8062 33.7178 42.7355 34.8268 45.1639C35.1569 45.887 35.1569 45.887 35.6637 45.8922C36.1189 45.8969 36.2224 45.9237 36.6812 46.1555C37.192 46.4136 37.192 46.4136 37.7028 46.1555C38.1615 45.9237 38.2652 45.8969 38.7203 45.8922C39.227 45.887 39.227 45.887 39.557 45.1639C40.9174 42.182 39.4393 39.9155 36.4754 40.4384Z" fill="#2430F0"/>
<path d="M34.6381 47.9568C32.8451 48.7822 32.6824 50.7948 34.2225 53.0955C34.6961 53.8029 34.6961 53.8029 34.8807 53.5151C35.8621 51.9848 38.522 51.9848 39.5033 53.5151C39.7703 53.9313 40.8449 52.3446 41.1179 51.131C41.6052 48.9649 39.4684 46.7618 38.2605 48.1849C38.0036 48.4877 37.6879 49.0436 37.5633 49.413C37.3218 50.1284 37.0622 50.1284 36.8208 49.413C36.6277 48.841 36.2208 48.2242 35.8492 47.9406C35.585 47.739 35.0969 47.7455 34.6381 47.9568Z" fill="#2430F0"/>
<path d="M30.908 49.2362C28.8361 49.5311 28.4137 52.8945 30.1648 55.1538C30.3162 55.3492 30.4602 55.5379 30.4846 55.5731C30.511 55.611 30.6318 55.5672 30.7811 55.4653C31.625 54.8896 32.6461 54.7645 34.1886 55.048C34.2398 55.0574 34.5192 54.3691 34.4746 54.3436C32.7972 53.385 31.84 51.6836 31.9365 49.8321C31.9645 49.2953 31.9645 49.2953 31.7293 49.2564C31.6 49.2348 31.4496 49.2091 31.3953 49.1991C31.341 49.1891 31.1216 49.2059 30.908 49.2362Z" fill="#2430F0"/>
<path d="M26.4549 44.9013C23.9026 45.5618 22.9956 48.6174 24.7206 50.7432C25.1317 51.25 25.104 51.2412 25.5153 50.9954C26.1543 50.6137 26.8745 50.4908 27.7145 50.6203C28.0189 50.6673 28.0189 50.6673 28.096 50.3645C28.2255 49.8556 28.6067 49.1916 29.0204 48.7543C29.4136 48.3385 29.4136 48.3385 29.1456 47.9857C28.561 47.2163 28.041 45.7456 28.0361 44.8478C28.0357 44.7628 26.8328 44.8035 26.4549 44.9013Z" fill="#2430F0"/>
<path d="M31.1286 42.3472C29.4208 42.8026 28.9282 44.8751 30.0114 47.0464C30.4599 47.9454 30.371 47.8748 30.9139 47.7629C31.2656 47.6903 31.4599 47.6826 31.701 47.7318C32.4925 47.8931 32.3955 47.9192 32.7311 47.4542C32.8979 47.223 33.1752 46.9164 33.3475 46.7726C33.6607 46.5111 33.6607 46.5111 33.454 46.1925C32.8903 45.3233 32.653 44.4885 32.5997 43.1867C32.5595 42.2066 32.2717 42.0423 31.1286 42.3472Z" fill="#2430F0"/>
<path d="M21.9099 48.3964C18.6526 48.8197 18.0576 53.4496 21.0058 55.4296C21.6335 55.851 23.4248 56.5944 23.4248 56.4332C23.4248 56.4234 23.3656 56.1861 23.2932 55.9058C22.9842 54.7112 23.3068 53.2075 24.0742 52.266C24.2799 52.0135 24.2799 52.0135 23.7633 51.4738C22.9979 50.674 22.5834 49.8143 22.4692 48.7889C22.4153 48.3052 22.4459 48.3266 21.9099 48.3964Z" fill="#2430F0"/>
<path d="M63.837 68.0306C56.629 68.7895 51.1482 75.6106 49.9402 85.3254C49.748 86.8719 49.6124 91.5094 49.7569 91.5921C50.151 91.8163 50.4322 91.6963 50.4322 91.3049C50.4322 85.6062 52.6234 82.994 60.9716 78.7401C63.2358 77.5864 63.2615 77.5708 64.6776 76.4444C70.024 72.1933 69.5478 67.4293 63.837 68.0306Z" fill="#2BE1B7"/>
<path d="M68.046 76.9227C67.6441 77.2484 67.6441 77.2484 67.6744 78.7407C67.8734 88.5206 58.0685 94.0252 53.2628 86.8322C52.845 86.2068 52.8752 86.1976 52.4362 87.0757C51.5483 88.8516 51.1795 91.7875 51.7666 92.4084C52.7582 93.4565 52.6718 94.8017 51.4938 96.6524C51.2315 97.0648 50.7777 97.8706 50.4852 98.4439C49.356 100.657 47.4234 104.174 46.8595 105.042C46.5135 105.574 46.4167 105.549 48.441 105.455C52.6625 105.26 54.4186 104.875 57.8427 103.391C70.2237 98.027 75.2582 86.6315 69.2514 77.5688C68.509 76.4484 68.5821 76.4882 68.046 76.9227Z" fill="#2BE1B7"/>
<path d="M5.7242 76.735C2.69214 80.0039 1.79859 86.7553 3.76071 91.5713C6.51473 98.3319 15.5257 104.617 23.4579 105.311C27.0524 105.625 27.8684 105.571 27.5246 105.042C26.9608 104.174 25.0281 100.657 23.8989 98.4439C23.6064 97.8706 23.1526 97.0648 22.8903 96.6524C21.7123 94.8017 21.6259 93.4565 22.6175 92.4084C23.2046 91.7875 22.8358 88.8516 21.9479 87.0757C21.5089 86.1977 21.5391 86.2068 21.1214 86.8322C16.3157 94.0259 6.51078 88.5206 6.70951 78.7407C6.73988 77.2484 6.73988 77.2484 6.3239 76.9181C5.83837 76.5338 5.89521 76.5506 5.7242 76.735Z" fill="#2BE1B7"/>
<path d="M8.54771 68.0522C4.66077 68.6626 5.24537 72.8968 9.70645 76.4445C11.1226 77.5708 11.1482 77.5864 13.4125 78.7402C21.7593 82.9933 23.9518 85.6068 23.9518 91.3049C23.9518 91.6964 24.2331 91.8163 24.6271 91.5921C24.6981 91.5518 24.6868 88.8263 24.6097 87.3696C24.2474 80.5296 21.4764 74.1358 17.5042 70.9751C14.8767 68.884 11.0998 67.6516 8.54771 68.0522Z" fill="#2BE1B7"/>
<path d="M26.7055 51.9256C24.1663 52.6016 23.9885 56.0717 26.3791 58.2932C28.1069 59.8988 26.4194 59.5224 24.5374 57.8824C24.0272 57.4377 24.0272 57.4377 23.6383 57.478C22.05 57.6421 19.6035 56.2532 18.2989 54.4467C17.9979 54.0298 17.9979 54.0298 17.8064 54.2513C15.0941 57.3869 13.5504 60.1945 11.7925 65.1884C11.3574 66.4249 11.353 66.3284 11.8479 66.4216C20.2945 68.0071 25.868 76.9069 26.0416 89.0868C26.0794 91.7465 26.0123 91.5869 26.9479 91.241C27.519 91.0293 27.6349 90.8684 28.1016 89.6391C30.2373 84.0122 32.0352 81.781 35.0476 81.0194C35.671 80.8618 35.6528 80.8736 35.706 80.5927C35.8264 79.9583 36.5036 78.2972 36.7477 78.0379C37.3362 77.4132 38.3225 78.7186 38.6781 80.5927C38.7313 80.8736 38.7131 80.8618 39.3365 81.0194C42.3488 81.781 44.1467 84.0122 46.2825 89.6391C46.7492 90.8684 46.865 91.0293 47.4363 91.241C48.3718 91.5869 48.3046 91.7465 48.3425 89.0868C48.5161 76.9063 54.089 68.0071 62.536 66.4216C63.031 66.3284 63.0267 66.4249 62.5916 65.1884C60.8337 60.1945 59.29 57.3869 56.5777 54.2513C56.3862 54.0298 56.3862 54.0298 56.0851 54.4467C54.7806 56.2532 52.3341 57.6421 50.7458 57.478C50.3569 57.4377 50.3569 57.4377 49.8467 57.8824C47.9646 59.5224 46.2771 59.8988 48.005 58.2932C49.7299 56.6903 50.1653 55.0352 49.3048 53.3522C48.623 52.0185 46.5198 51.2192 46.3861 52.243C46.1725 53.8807 45.5178 55.1405 44.5318 55.8115C44.2446 56.0069 44.2446 56.0069 44.4895 56.4449C45.0527 57.4527 44.7744 58.7627 43.7873 59.7494C42.9521 60.5842 42.2812 60.6389 43.0475 59.8096C44.0528 58.7218 43.9829 57.3958 42.9035 57.0788C42.2578 56.8892 40.2221 56.9696 40.2221 57.1848C40.2221 57.6742 39.5678 59.1788 39.1793 59.5827C38.6975 60.0836 38.5965 59.8664 38.9284 59.0428C39.945 56.5195 39.0976 54.1145 37.1921 54.1145C35.2864 54.1145 34.4391 56.5195 35.4556 59.0428C35.7876 59.8664 35.6865 60.0836 35.2048 59.5827C34.8163 59.1788 34.162 57.6742 34.162 57.1848C34.162 56.9696 32.1263 56.8892 31.4806 57.0788C30.401 57.3958 30.3311 58.7218 31.3365 59.8096C32.1029 60.6389 31.432 60.5842 30.5968 59.7494C29.6096 58.7627 29.3314 57.4527 29.8947 56.4449C30.1395 56.0069 30.1395 56.0069 29.8522 55.8115C28.8672 55.1413 28.2115 53.8803 27.9984 52.2471C27.9634 51.9786 27.9262 51.9032 27.8141 51.8735C27.5826 51.812 27.0353 51.8378 26.7055 51.9256Z" fill="#2430F0"/>
<path fill-rule="evenodd" clip-rule="evenodd" d="M36.4123 82.5204C33.8918 82.9666 31.5326 85.6681 29.7032 90.2033C28.7859 92.4775 28.3089 92.8065 25.2693 93.2637C23.269 93.5647 23.1371 94.0467 24.5118 96.0303C25.5058 97.4648 26.7197 99.4464 28.002 101.726C30.2934 105.802 31.1391 107.154 32.3044 108.606C36.3236 113.615 39.7587 112.794 44.0202 105.805C44.8594 104.429 44.9642 104.248 46.382 101.726C47.6643 99.4464 48.8783 97.4648 49.8722 96.0303C51.2468 94.0467 51.115 93.5647 49.1147 93.2637C46.075 92.8065 45.598 92.4775 44.6808 90.2033C42.4753 84.7358 39.502 81.9732 36.4123 82.5204ZM29.1647 94.8147C28.8781 94.2291 29.1001 93.6201 29.7157 93.3028C30.5678 92.8637 31.6022 93.6038 32.1511 95.046C32.5109 95.9913 32.0697 96.1268 30.9125 95.4271C30.5888 95.2311 30.5088 95.207 30.4029 95.2721C30.0178 95.5099 29.3919 95.2786 29.1647 94.8147ZM42.1481 95.6643C41.9264 95.2043 42.8296 93.6872 43.5358 93.3321C44.573 92.8103 45.7101 93.8122 45.2193 94.8147C44.9921 95.2786 44.3662 95.5099 43.9812 95.2721C43.8752 95.207 43.7952 95.2311 43.4714 95.4271C42.6228 95.9404 42.3084 95.9965 42.1481 95.6643Z" fill="#F2C79C"/>
<path fill-rule="evenodd" clip-rule="evenodd" d="M23.6333 28.3872C22.7568 25.1212 20.0266 22.5486 16.3169 23.2346C13.3735 23.779 10.7579 26.0156 10.0728 28.5512C10.2752 29.2575 10.61 29.9396 11.0901 30.5674C14.487 35.0091 20.6035 34.561 23.1236 29.6858C23.3443 29.2592 23.5128 28.8244 23.6333 28.3872Z" fill="#2430F0"/>
<path fill-rule="evenodd" clip-rule="evenodd" d="M26.9864 16.0916C26.8602 15.717 26.7603 15.3402 26.6855 14.9628C27.4528 11.0365 31.2453 7.6294 35.73 6.81909C41.7322 5.73472 46.6762 9.80126 47.7015 14.956C47.626 15.3339 47.5252 15.7129 47.3975 16.0916C44.3765 25.0589 30.0075 25.0589 26.9864 16.0916Z" fill="#2430F0"/>
<path d="M56.272 19.758C52.0126 20.519 49.8051 24.6762 50.7563 28.3808C51.3855 25.898 53.8442 23.7616 56.7722 23.2383C60.6105 22.5526 63.4083 25.2894 64.3103 28.5754C65.6234 24.0945 61.4367 18.8351 56.272 19.758Z" fill="#2430F0"/>
<path d="M26.6855 14.9629C27.4528 11.0365 31.2453 7.62942 35.73 6.81911C41.7322 5.73474 46.6762 9.80128 47.7015 14.956C49.0253 8.3284 42.5416 2.01772 35.2297 3.33873C29.4481 4.38332 25.6485 9.73008 26.6855 14.9629Z" fill="#2430F0"/>
<path d="M16.3169 23.2346C20.0265 22.5486 22.7568 25.1212 23.6333 28.3872C24.9066 23.762 20.7927 18.8341 15.8167 19.7542C11.5469 20.5439 9.01992 24.8769 10.0728 28.5512C10.7579 26.0156 13.3734 23.779 16.3169 23.2346Z" fill="#2430F0"/>
<path d="M52.8095 31.7995C55.8722 34.6567 60.5906 34.1022 63.294 30.5674C63.7746 29.9389 64.1078 29.2664 64.3103 28.5755C63.4083 25.2894 60.6105 22.5526 56.7722 23.2383C53.8442 23.7616 51.3855 25.898 50.7563 28.3808C51.0741 29.6187 51.7449 30.8063 52.8095 31.7995Z" fill="#2430F0"/>
<path fill-rule="evenodd" clip-rule="evenodd" d="M28.2777 11.4253C29.9533 9.124 32.6842 7.37048 35.7358 6.81911C40.3022 5.99413 44.2562 8.15056 46.338 11.4994C46.7348 11.1044 47.0977 10.703 47.3975 10.3098C45.8489 5.724 40.7803 2.33696 35.2356 3.33873C31.4048 4.03084 28.4441 6.61156 27.184 9.7964C27.4566 10.3161 27.8415 10.8737 28.2777 11.4253Z" fill="#F2C79C"/>
<path d="M28.2776 11.4253C29.7653 13.3066 31.848 15.1181 32.0989 15.1181C32.2889 15.1181 33.339 14.1095 34.4297 13.062C35.6075 11.9305 36.8328 10.7536 37.0722 10.7536C37.3028 10.7536 38.2909 11.8447 39.2789 12.9359C40.267 14.027 41.255 15.1181 41.4856 15.1181C41.7797 15.1181 44.4456 13.3822 46.338 11.4993C44.2561 8.15055 40.3021 5.99411 35.7358 6.81909C32.6842 7.37047 29.9532 9.12398 28.2776 11.4253Z" fill="#2BE1B7"/>
<path d="M10.1078 28.3674C10.8666 25.9083 13.4265 23.7658 16.2988 23.2346C18.4951 22.8285 20.348 23.5645 21.6762 24.9104C21.923 24.0082 22.1017 22.9307 22.0807 22.0261C20.5899 20.3098 18.3035 19.291 15.7986 19.7542C11.6295 20.5251 9.12203 24.6743 9.986 28.2898C10.0261 28.316 10.0667 28.3418 10.1078 28.3674Z" fill="#2BE1B7"/>
<path d="M10.1078 28.3674C11.7231 29.3763 13.9252 29.8168 14.5055 29.4821C14.9547 29.2231 15.1626 27.9163 15.2115 26.5704C15.2487 25.5475 15.2819 24.6318 15.481 24.463C15.7011 24.2764 16.7684 24.8834 17.8995 25.5267C19.1391 26.2315 20.5392 26.8463 20.9009 26.6419C21.1595 26.4958 21.4142 25.8687 21.6762 24.9104C20.348 23.5645 18.495 22.8285 16.2987 23.2346C13.4265 23.7657 10.8666 25.9082 10.1078 28.3674Z" fill="#2BE1B7"/>
<path fill-rule="evenodd" clip-rule="evenodd" d="M51.2465 23.717C51.3452 24.4335 53.4202 28.277 53.9801 28.4073C54.2833 28.4779 55.3205 27.7461 56.2707 27.0758C57.0751 26.5082 57.8171 25.9848 57.9983 26.0295C58.1636 26.0704 58.4785 26.561 58.8468 27.1349C59.3594 27.9336 59.9756 28.8934 60.4355 29.0261C61.0313 29.1979 63.4041 27.9638 64.5653 27.1362C64.7447 23.0514 60.9083 18.9326 56.2897 19.7579C53.8779 20.1888 52.124 21.7086 51.2288 23.6184C51.2357 23.6486 51.2415 23.6813 51.2465 23.717Z" fill="#2BE1B7"/>
<path d="M65.5497 78.5239C65.3685 78.6169 64.8054 78.8782 64.2982 79.1042C62.3408 79.9746 62.0006 80.185 62.2624 80.3622C63.6414 81.2963 63.9995 84.2355 63.0234 86.6081C62.7805 87.1976 62.817 87.1937 63.4247 86.5651C65.3818 84.5391 66.6455 80.5895 66.0071 78.4939C65.9525 78.3147 65.9552 78.3147 65.5497 78.5239Z" fill="#F1F1F1"/>
<path d="M8.37689 78.4939C7.73846 80.5895 9.00227 84.5391 10.9594 86.5651C11.567 87.1937 11.6035 87.1976 11.3607 86.6081C10.385 84.2369 10.7427 81.2963 12.1207 80.3628C12.3755 80.1901 11.9102 79.9003 10.1189 79.1173C9.70222 78.9349 9.16201 78.6873 8.91834 78.5668C8.39243 78.3062 8.43241 78.3122 8.37689 78.4939Z" fill="#F1F1F1"/>
<path d="M61.2605 84.4629C61.2605 84.2467 61.0687 84.0721 60.8323 84.0721C60.5958 84.0721 60.4042 84.2467 60.4042 84.4629C60.4042 84.6785 60.5958 84.8538 60.8323 84.8538C61.0687 84.8538 61.2605 84.6785 61.2605 84.4629Z" fill="#F1F1F1"/>
<path opacity="0.2" fill-rule="evenodd" clip-rule="evenodd" d="M47.1147 16.8309C43.4498 20.8676 36.1657 23.089 27.8425 17.9484C31.9581 24.7933 43.8449 24.4208 47.1147 16.8309ZM22.0733 31.2475C18.2157 32.8433 12.9782 31.2096 10.4196 29.4698C10.5993 29.8491 10.8221 30.2166 11.0903 30.5674C14.0799 34.4765 19.1763 34.5981 22.0733 31.2475ZM63.8904 29.6265C61.6725 31.6891 57.1816 33.1554 51.9363 30.8299C52.1907 31.1688 52.4814 31.4933 52.8096 31.7995C55.8724 34.6567 60.5907 34.1022 63.2941 30.5674C63.5267 30.263 63.7249 29.9485 63.8904 29.6265Z" fill="#22110C"/>
<path d="M26.6855 14.9629C27.4528 11.0365 31.2453 7.62941 35.73 6.81916C41.7322 5.73474 46.6762 9.80127 47.7015 14.956C49.0253 8.32846 42.5416 2.01772 35.2297 3.33873C29.4481 4.38332 25.6485 9.73014 26.6855 14.9629Z" fill="#2430F0"/>
<path fill-rule="evenodd" clip-rule="evenodd" d="M28.2777 11.4253C29.9533 9.12398 32.6842 7.37046 35.7358 6.81916C40.3022 5.99413 44.2562 8.15055 46.338 11.4993C46.7348 11.1044 47.0977 10.703 47.3975 10.3098C45.8489 5.724 40.7803 2.33697 35.2356 3.33873C31.4048 4.03083 28.4441 6.61155 27.184 9.79638C27.4566 10.3161 27.8415 10.8737 28.2777 11.4253Z" fill="#2BE1B7"/>
<g opacity="0.2">
<g style="mix-blend-mode:hard-light">
<path fill-rule="evenodd" clip-rule="evenodd" d="M39.8332 41.8511C39.3516 40.7386 38.151 40.1428 36.4754 40.4384C35.4859 40.6131 34.8144 41.1396 34.5006 41.9043C35.1609 41.3651 36.3293 41.1889 37.201 41.1706C38.0434 41.1883 39.1628 41.3535 39.8332 41.8511ZM32.4974 42.5553C31.6813 42.6792 30.1907 43.0718 29.543 43.9753C29.759 43.1681 30.3012 42.5678 31.1286 42.3472C31.9568 42.1263 32.3361 42.1516 32.4974 42.5553ZM28.046 45.0621C28.0399 44.9878 28.0366 44.9161 28.0361 44.8478C28.0356 44.7628 26.8328 44.8036 26.4549 44.9013C25.1615 45.2361 24.2905 46.186 23.9707 47.3183C24.8357 46.1087 26.4464 45.1 28.046 45.0621ZM19.1022 51.6525C19.4845 50.3665 20.909 49.025 22.067 49.025C22.2308 49.025 22.3735 49.016 22.4974 49.0001C22.4865 48.9305 22.4772 48.86 22.4692 48.7889C22.4666 48.765 22.4642 48.7423 22.4617 48.7209C22.4413 48.531 22.4306 48.4331 22.3758 48.3892C22.3174 48.3424 22.209 48.3568 21.9852 48.3864C21.9614 48.3896 21.9363 48.393 21.9099 48.3964C20.1621 48.6234 19.1807 50.062 19.1022 51.6525ZM36.4694 48.6746C35.7977 48.1587 34.8036 47.9548 33.4078 49.1096C33.6435 48.6201 34.0544 48.2255 34.638 47.9568C35.0969 47.7455 35.5851 47.739 35.8492 47.9406C36.0597 48.1012 36.2816 48.3689 36.4694 48.6746ZM40.7894 48.9475C40.1868 47.8484 39.0335 47.2743 38.2605 48.1849C38.1478 48.3177 38.0237 48.4994 37.9095 48.6925C38.5486 48.1895 39.485 47.964 40.7894 48.9475ZM31.9474 49.5997C31.9575 49.2943 31.924 49.2887 31.7293 49.2564C31.6 49.235 31.4496 49.2091 31.3953 49.1991C31.341 49.1891 31.1216 49.2059 30.908 49.2362C29.8903 49.3812 29.2707 50.2663 29.111 51.3972C29.5139 50.1032 31.0326 49.499 31.9474 49.5997ZM46.4239 52.0944C46.7404 51.3062 48.6594 52.0899 49.3048 53.3522C49.4842 53.7031 49.6073 54.0527 49.6741 54.4009C49.1795 53.0263 47.6222 52.3963 46.4239 52.0944ZM40.2205 57.2301C40.2215 57.2141 40.2221 57.199 40.2221 57.1848C40.2221 56.9697 42.2578 56.8892 42.9035 57.0789C43.2095 57.1687 43.4343 57.3396 43.5766 57.5631C42.9588 57.0238 41.6146 57.124 40.2205 57.2301ZM35.5418 55.0019C35.9163 54.45 36.4804 54.1145 37.192 54.1145C37.8902 54.1145 38.4464 54.4374 38.8209 54.9708C38.3545 54.6108 37.7155 54.4259 37.201 54.3781C36.6718 54.4272 36.0112 54.6213 35.5418 55.0019ZM30.7847 57.6006C30.9253 57.3586 31.1577 57.1737 31.4804 57.0789C32.1263 56.8892 34.162 56.9697 34.162 57.1848C34.162 57.1987 34.1624 57.2133 34.1635 57.2287C32.7444 57.1207 31.3802 57.0217 30.7847 57.6006ZM27.974 52.0954C26.7487 52.4046 25.1502 53.0569 24.6955 54.4968C24.7689 53.2816 25.4473 52.2606 26.7055 51.9256C27.0353 51.8378 27.5826 51.8121 27.8141 51.8735C27.9014 51.8966 27.9433 51.9475 27.974 52.0954ZM44.8584 43.9747C44.5799 42.9783 43.7693 42.3218 42.529 42.2713L41.8229 42.2426L41.8107 42.5418C42.601 42.6488 44.1848 43.0358 44.8584 43.9747ZM50.3933 47.2659C50.1635 46.3949 49.6303 45.6438 48.8307 45.2568C48.0399 44.874 46.3493 44.5955 46.3479 44.8478C46.3475 44.9161 46.3443 44.9875 46.3381 45.0618C47.9204 45.0921 49.5163 46.0753 50.3933 47.2659ZM55.3049 51.6699C54.9304 50.3787 53.4983 49.025 52.335 49.025C52.1592 49.025 52.0078 49.0146 51.8777 48.9965C51.88 48.9816 51.8823 48.9665 51.8845 48.9514C51.923 48.6918 51.965 48.4476 51.9778 48.4085C52.0167 48.2891 52.861 48.4346 53.2976 48.6359C54.567 49.2212 55.238 50.4039 55.3049 51.6699ZM45.2526 51.285C45.1659 50.6127 44.9252 50.0366 44.5235 49.6869C44.171 49.38 43.2971 49.1089 42.9557 49.2004C42.9196 49.2101 42.7841 49.2354 42.6547 49.2567C42.4597 49.2888 42.4264 49.2943 42.4367 49.6016C43.3229 49.4944 44.7964 50.0602 45.2526 51.285Z" fill="white"/>
</g>
</g>
<g style="mix-blend-mode:hard-light">
<path fill-rule="evenodd" clip-rule="evenodd" d="M67.3246 68.613C64.729 68.4203 61.7021 69.271 59.5149 70.6201C56.4518 72.5093 51.742 77.5253 50.7539 82.3784C50.4806 83.7203 50.2756 84.1594 50.1238 84.0629C51.6328 75.0231 56.9455 68.7563 63.837 68.0307C65.3912 67.8671 66.5578 68.1011 67.3246 68.613Z" fill="white" fill-opacity="0.4"/>
</g>
<g style="mix-blend-mode:hard-light">
<path fill-rule="evenodd" clip-rule="evenodd" d="M6.92499 68.6749C9.58778 68.3837 12.7746 69.2481 15.0516 70.6527C18.1146 72.5418 22.8244 77.5578 23.8125 82.411C23.9675 83.1718 24.1004 83.6422 24.2142 83.8897C23.2571 78.4235 20.7922 73.5919 17.5041 70.9751C14.8767 68.884 11.0998 67.6516 8.54767 68.0522C7.87315 68.1583 7.33333 68.3733 6.92499 68.6749Z" fill="white" fill-opacity="0.4"/>
</g>
<g style="mix-blend-mode:hard-light">
<path fill-rule="evenodd" clip-rule="evenodd" d="M30.6971 88.0191C32.8511 85.6766 35.6108 85.2773 37.0859 85.2773C38.6182 85.2773 41.6557 85.7664 43.8487 88.3403C41.755 84.1164 39.1287 82.039 36.4126 82.5204C34.3274 82.8898 32.3527 84.8017 30.6971 88.0191Z" fill="white" fill-opacity="0.4"/>
</g>
<path opacity="0.2" fill-rule="evenodd" clip-rule="evenodd" d="M66.1745 79.7557C65.1895 80.1758 64.0866 80.6025 62.8955 81.0299C62.7174 80.7543 62.5059 80.527 62.2625 80.3622C62.0007 80.185 62.341 79.9746 64.2984 79.1042C64.8056 78.8782 65.3687 78.6171 65.5499 78.5239L65.5568 78.5199C65.8081 78.3903 65.8998 78.3428 65.9472 78.3708C65.9742 78.3864 65.9868 78.4267 66.0065 78.4913L66.0071 78.4939C66.1198 78.8639 66.1732 79.2912 66.1745 79.7557ZM8.21124 79.6489C9.20656 80.0944 10.3167 80.5459 11.5106 80.9966C11.6838 80.7361 11.8877 80.5205 12.1208 80.3629C12.3757 80.1903 11.9102 79.9004 10.119 79.1173C9.70238 78.9349 9.16216 78.6873 8.9185 78.5668C8.88459 78.5499 8.85309 78.5342 8.82371 78.5199C8.55859 78.3884 8.47051 78.344 8.42941 78.3714C8.40892 78.3844 8.4001 78.415 8.38679 78.4613C8.38383 78.4711 8.38066 78.4821 8.37705 78.4939C8.27309 78.8352 8.21955 79.2261 8.21124 79.6489Z" fill="#22110C"/>
<path opacity="0.2" fill-rule="evenodd" clip-rule="evenodd" d="M22.4543 95.8942C22.2442 98.1292 23.019 100.629 23.3767 101.782C23.4376 101.979 23.4864 102.136 23.5162 102.247C23.7713 103.193 20.9976 104.69 10.8233 100.104C14.5799 102.932 19.176 104.936 23.4578 105.311C27.0523 105.625 27.8683 105.571 27.5245 105.042C26.9606 104.174 25.028 100.657 23.8988 98.4439C23.6064 97.8706 23.1525 97.0648 22.8903 96.6524C22.723 96.3899 22.5777 96.1371 22.4543 95.8942Z" fill="#22110C"/>
<path opacity="0.2" fill-rule="evenodd" clip-rule="evenodd" d="M63.6231 100.084C53.4124 104.694 50.6302 103.195 50.8858 102.247C50.9156 102.136 50.9643 101.979 51.0252 101.782C51.3845 100.624 52.1647 98.1065 51.9447 95.8643C51.8182 96.1163 51.6679 96.3789 51.4938 96.6525C51.2316 97.0649 50.7778 97.8707 50.4852 98.4439C49.356 100.657 47.4234 104.175 46.8596 105.042C46.7341 105.235 46.6415 105.354 46.6707 105.424C46.7221 105.547 47.1506 105.515 48.4411 105.455C52.6626 105.26 54.4187 104.875 57.8429 103.391C59.9988 102.457 61.932 101.34 63.6231 100.084Z" fill="#22110C"/>
<path opacity="0.2" fill-rule="evenodd" clip-rule="evenodd" d="M27.426 100.714C29.6519 104.274 30.554 105.555 31.7709 106.925C36.2225 111.938 40.0274 111.116 44.7475 104.122C45.6317 102.812 45.7797 102.584 47.1436 100.394C46.8932 100.824 46.639 101.27 46.3821 101.726C44.9641 104.248 44.8594 104.429 44.0203 105.805C39.7588 112.794 36.3235 113.615 32.3044 108.606C31.1391 107.154 30.2934 105.802 28.0019 101.726C27.8081 101.382 27.616 101.044 27.426 100.714Z" fill="#22110C"/>
<path d="M37.1515 76.2549C36.3281 76.2549 35.2741 82.0527 34.8131 82.0527L33.8579 82.9321L37.1515 82.0527L40.9391 83.1601C40.5329 82.7908 39.6611 82.0527 39.4241 82.0527C39.1277 82.0527 37.9749 76.2549 37.1515 76.2549Z" fill="black" fill-opacity="0.2"/>
<path d="M31.6842 60.6856C31.2231 60.6856 29.675 59.6107 29.675 58.0147C29.8946 57.613 30.3338 56.9855 30.3338 57.689C30.3338 58.5684 31.3219 59.7084 31.5853 59.969C31.8489 60.2296 32.1452 60.6856 31.6842 60.6856Z" fill="black" fill-opacity="0.2"/>
<path d="M22.8574 58.0147C20.98 58.0147 18.5429 55.5718 17.2912 53.9107L18.0488 53.2593L19.7614 55.7021L23.6478 56.8421L24.4054 55.6044C24.592 55.8867 25.0311 56.5685 25.2947 57.0376C25.6241 57.6238 26.4803 58.0798 27.172 59.057C27.8636 60.0341 25.2287 58.829 24.8994 58.6661C24.6359 58.5358 24.065 58.1342 23.8125 57.9496C23.8125 57.9713 23.6215 58.0147 22.8574 58.0147Z" fill="black" fill-opacity="0.2"/>
<path d="M28.7529 55.0507C27.9954 54.1061 28.2588 52.9987 28.1271 52.0541L30.268 55.8976L30.1033 56.1907L30.0988 56.1885C29.8873 56.0783 29.3547 55.8012 28.7529 55.0507Z" fill="black" fill-opacity="0.2"/>
<path d="M35.5047 60.0993C34.813 59.9364 34.1873 58.3404 34.1873 57.1353L34.8461 56.8422L35.2742 58.5359C35.406 59.0571 36.1964 60.2622 35.5047 60.0993Z" fill="black" fill-opacity="0.2"/>
<path d="M42.6518 60.6856C43.1129 60.6856 44.6609 59.6107 44.6609 58.0147C44.4413 57.613 44.0021 56.9855 44.0021 57.689C44.0021 58.5684 43.0141 59.7084 42.7506 59.969C42.4872 60.2296 42.1907 60.6856 42.6518 60.6856Z" fill="black" fill-opacity="0.2"/>
<path d="M51.4785 58.0147C53.3559 58.0147 55.7932 55.5718 57.0447 53.9107L56.2872 53.2593L54.5745 55.7021L50.6881 56.8421L49.9306 55.6044C49.744 55.8867 49.3048 56.5685 49.0414 57.0376C48.712 57.6238 47.8556 58.0798 47.164 59.057C46.4723 60.0341 49.1072 58.829 49.4366 58.6661C49.7 58.5358 50.2709 58.1342 50.5234 57.9496C50.5234 57.9713 50.7145 58.0147 51.4785 58.0147Z" fill="black" fill-opacity="0.2"/>
<path d="M45.583 55.0507C46.3405 54.1061 46.0771 52.9987 46.2089 52.0541L44.0681 55.8976L44.2327 56.1907L44.237 56.1885C44.4486 56.0783 44.9812 55.8012 45.583 55.0507Z" fill="black" fill-opacity="0.2"/>
<path d="M38.7983 60.1319C39.49 59.969 40.1487 58.3404 40.1487 57.1353L39.49 56.8422L39.0618 58.5359C38.9301 59.057 38.1067 60.2947 38.7983 60.1319Z" fill="black" fill-opacity="0.2"/>
<path opacity="0.2" d="M29.3587 95.0161C29.1282 95.0161 29.8527 94.6578 29.6221 94.039C30.1711 93.811 31.0319 94.0455 31.6642 94.5927C32.4547 95.2767 32.4547 96.9704 32.4217 97.687C32.3888 98.4035 29.5892 95.0161 29.3587 95.0161Z" fill="#22110C"/>
<path opacity="0.2" d="M44.9804 95.0376C45.2109 95.0376 44.4864 94.6793 44.7169 94.0604C44.168 93.8324 43.3072 94.067 42.6749 94.6142C41.8843 95.2982 41.8843 96.9919 41.9174 97.7084C41.9503 98.425 44.7498 95.0376 44.9804 95.0376Z" fill="#22110C"/>
<path opacity="0.2" fill-rule="evenodd" clip-rule="evenodd" d="M15.0828 78.4867C19.0918 80.8586 22.9892 83.1647 22.9892 86.0264C22.9892 86.1182 22.9877 86.2094 22.9847 86.2987C21.6814 83.5998 18.8549 81.5205 13.3986 78.7402C11.1345 77.5865 11.1088 77.5709 9.69269 76.4445C6.21933 73.6824 5.09591 70.5041 6.60338 68.944C5.58917 72.8701 10.4117 75.7234 15.0828 78.4867Z" fill="#22110C"/>
<path opacity="0.2" fill-rule="evenodd" clip-rule="evenodd" d="M6.66633 68.8312L6.63525 68.9518C6.13254 70.8975 7.07427 72.5815 8.73364 74.128C10.3933 75.6745 12.7632 77.0763 15.0997 78.4588L15.1014 78.46C17.1046 79.6449 19.0831 80.8155 20.5605 82.0481C22.0376 83.2799 23.0221 84.5802 23.0221 86.0264C23.0221 86.1189 23.0206 86.2101 23.0176 86.2993L22.9549 86.3123C21.6568 83.6246 18.84 81.5491 13.3836 78.7688C12.2521 78.1923 11.678 77.8991 11.2101 77.6092C10.7417 77.3193 10.3798 77.0327 9.67205 76.4699C7.93225 75.0862 6.77878 73.5971 6.24949 72.2552C5.72035 70.9138 5.81352 69.7139 6.57949 68.9212L6.66633 68.8312ZM6.31085 72.2317C6.83477 73.56 7.97968 75.0406 9.71329 76.4191C10.4217 76.9826 10.7806 77.2667 11.2451 77.5546C11.7101 77.8425 12.281 78.1343 13.4137 78.7114C18.7886 81.4501 21.621 83.5132 22.955 86.1638C22.9558 86.1182 22.9563 86.0726 22.9563 86.0264C22.9563 84.6108 21.992 83.3268 20.5181 82.0976C19.0451 80.8691 17.071 79.701 15.0658 78.5147L15.0636 78.5134C12.7297 77.1324 10.3538 75.7273 8.68845 74.1749C7.05748 72.6551 6.10075 70.9882 6.54102 69.0605C5.87872 69.8279 5.80781 70.9562 6.31085 72.2317Z" fill="#22110C"/>
<path opacity="0.2" fill-rule="evenodd" clip-rule="evenodd" d="M59.352 78.4867C55.343 80.8586 51.4456 83.1646 51.4456 86.0264C51.4456 86.0667 51.446 86.1071 51.4465 86.1469C52.7815 83.5216 55.6031 81.4683 60.9579 78.7401C63.2221 77.5864 63.2478 77.5708 64.6638 76.4444C68.1362 73.6831 69.1526 70.706 67.874 69.1224C68.6987 72.9574 63.9518 75.7657 59.352 78.4867Z" fill="#22110C"/>
<path opacity="0.2" fill-rule="evenodd" clip-rule="evenodd" d="M68.0808 72.3542C67.5499 73.648 66.4235 75.0869 64.6845 76.4699C63.9768 77.0327 63.6147 77.3194 63.1464 77.61C62.6785 77.8991 62.1045 78.1923 60.9729 78.7695C55.6179 81.4977 52.8056 83.547 51.4759 86.1619L51.4135 86.1475C51.4129 86.1071 51.4127 86.0668 51.4127 86.0264C51.4127 84.5802 52.3972 83.2799 53.8741 82.0482C55.3518 80.8156 57.3301 79.645 59.3333 78.4601L59.3351 78.4588C61.6358 77.0979 63.9691 75.7169 65.6247 74.1984C67.2804 72.6799 68.25 71.0298 67.8417 69.1296L67.8996 69.1023C68.5492 69.9061 68.6117 71.0604 68.0808 72.3542ZM67.9339 69.256C68.4826 70.0293 68.5208 71.1093 68.0202 72.3294C67.4945 73.6102 66.3767 75.0407 64.6432 76.4191C63.9348 76.9826 63.5759 77.2667 63.1115 77.5546C62.6464 77.8425 62.0754 78.1343 60.9428 78.7114C55.6687 81.3986 52.8431 83.4343 51.4785 86.014C51.4842 84.603 52.4471 83.3236 53.9167 82.0976C55.3897 80.8691 57.3637 79.701 59.3689 78.5147L59.371 78.5135C61.6694 77.154 64.0084 75.7702 65.6695 74.2459C67.291 72.7588 68.2738 71.1308 67.9339 69.256Z" fill="#22110C"/>
<g style="mix-blend-mode:multiply">
<path fill-rule="evenodd" clip-rule="evenodd" d="M5.1327 77.4341C5.093 80.6619 5.21704 94.5927 21.7707 94.5927C21.8384 94.5927 21.9057 94.5927 21.9725 94.592C21.813 93.7348 22.0242 93.0208 22.6038 92.4084C23.1909 91.7876 22.8221 88.8516 21.9342 87.0758C21.6992 86.6055 21.5987 86.3899 21.4918 86.3867C21.3992 86.384 21.3017 86.5416 21.1076 86.8322C16.3019 94.0259 6.49706 88.5207 6.69579 78.7407C6.72615 77.2484 6.72615 77.2484 6.31019 76.9181C6.00713 76.6784 5.91538 76.595 5.84763 76.6106C5.80684 76.6203 5.77476 76.666 5.7105 76.7351C5.50831 76.9533 5.31564 77.1865 5.1327 77.4341Z" fill="black" fill-opacity="0.2"/>
</g>
<path opacity="0.2" fill-rule="evenodd" clip-rule="evenodd" d="M69.331 77.7109C69.3561 81.2925 68.9048 94.6578 52.6907 94.6578C52.5832 94.6578 52.4767 94.6571 52.3715 94.6566C52.5541 93.7706 52.3469 93.0365 51.7529 92.4084C51.1659 91.7876 51.5346 88.8509 52.4225 87.0758C52.6576 86.6055 52.7581 86.3899 52.8648 86.3867C52.9575 86.384 53.055 86.5416 53.2491 86.8322C58.0548 94.0253 67.8595 88.5207 67.6612 78.7408C67.6394 77.6796 67.6328 77.3728 67.7758 77.1676C67.8338 77.0836 67.9161 77.0172 68.0327 76.9227C68.25 76.7461 68.3673 76.6354 68.4793 76.6399C68.6434 76.6471 68.7962 76.9032 69.2375 77.5689C69.2691 77.6165 69.3 77.664 69.331 77.7109Z" fill="#22110C"/>
<path opacity="0.2" fill-rule="evenodd" clip-rule="evenodd" d="M34.312 42.5703C34.2127 43.3114 34.3718 44.1982 34.8129 45.1639C35.1431 45.8871 35.1431 45.8871 35.6498 45.8923C36.105 45.897 36.2085 45.9238 36.6674 46.1556C37.1781 46.4136 37.1781 46.4136 37.6889 46.1556C38.1477 45.9238 38.2512 45.897 38.7064 45.8923C39.2132 45.8871 39.2132 45.8871 39.5431 45.1639C39.9839 44.1976 40.1267 43.3064 40.0174 42.5609C39.7986 43.7669 39.2947 45.3433 38.1644 45.4748C37.6751 45.5766 37.3347 45.583 37.2171 45.5731L37.2093 45.5724H37.1183H37.1105C36.9929 45.5823 36.6525 45.5766 36.1632 45.4748C35.036 45.3436 34.5317 43.7751 34.312 42.5703ZM40.9161 46.1926C41.4811 45.3215 41.7171 44.4892 41.7707 43.1789L41.799 42.4907C42.0155 43.6707 41.9577 45.3232 40.967 46.7261C40.7102 46.5099 40.7226 46.4911 40.9161 46.1926ZM44.941 45.0828C44.8953 45.6851 44.7056 46.351 44.3587 47.0465C44.3215 47.1211 44.288 47.189 44.2575 47.2507C44.0713 47.6282 43.9983 47.7761 43.886 47.8157C43.8137 47.8413 43.725 47.8216 43.5789 47.7894C43.542 47.7811 43.5013 47.7722 43.4563 47.7629C43.1045 47.6904 42.9104 47.6827 42.6691 47.7319C42.6059 47.7447 42.5484 47.7568 42.4958 47.7678C42.4846 47.7701 42.4736 47.7723 42.4628 47.7746C42.5058 47.6455 42.8417 47.5402 43.184 47.4329C43.5061 47.332 43.8337 47.2293 43.9283 47.1033C44.3975 46.4778 44.7559 45.8471 44.941 45.0828ZM46.334 44.848C46.3291 45.7457 45.8091 47.2164 45.2245 47.9859C44.9746 48.3146 44.9578 48.3369 45.2752 48.6753C45.9481 47.7133 46.649 45.8191 46.3839 44.787C46.3517 44.8021 46.3341 44.8223 46.334 44.848ZM50.4906 47.8963C50.4044 48.4473 50.0967 49.6072 49.6261 50.1C49.0662 50.6863 48.8357 50.7514 48.3746 50.556C48.1003 50.4398 47.7 50.4963 47.4088 50.5731C47.9376 50.5929 48.4155 50.7329 48.8548 50.9956L48.8687 51.0038L48.8936 51.0189C49.0535 51.1146 49.1421 51.1678 49.2229 51.158C49.3235 51.1459 49.412 51.0365 49.6105 50.7914L49.6303 50.7671L49.6496 50.7434C50.3165 49.9214 50.5818 48.8731 50.4906 47.8963ZM55.27 51.4222C55.1536 52.3316 54.822 53.9487 53.5455 55.0182C52.3443 56.0247 51.4376 56.093 51.24 54.6599C51.2209 54.5216 51.194 54.4482 51.1623 54.4266C51.2217 54.9323 51.1969 55.4423 51.077 55.906C51.0046 56.1861 50.9452 56.4235 50.9452 56.4334C50.9452 56.5945 52.7366 55.8512 53.3643 55.4296C54.806 54.4614 55.4381 52.8643 55.27 51.4222ZM51.8651 48.9878C51.7091 49.997 51.3415 50.7152 50.5791 51.5044C50.0889 52.0119 50.0889 52.0119 50.2952 52.2653C50.3173 52.2924 50.3391 52.32 50.3605 52.348C51.0169 51.6883 51.7483 50.4284 51.8651 48.9878ZM45.273 52.0425C45.1511 52.7318 44.9503 53.486 44.6528 53.8456C44.06 54.5623 43.2695 54.7576 42.6438 54.6599C42.3292 54.6109 41.8074 54.7477 41.3515 54.9074C42.2766 54.8686 42.9791 55.0492 43.5891 55.4654C43.7384 55.5672 43.8592 55.6112 43.8855 55.5733C43.9099 55.538 44.0539 55.3493 44.2054 55.1539C44.8753 54.2894 45.2389 53.1124 45.273 52.0425ZM39.956 54.5887C40.9042 54.0942 42.4242 52.7711 42.4056 50.6658C42.2217 52.1849 41.3173 53.5312 39.8955 54.3437C39.8784 54.3535 39.909 54.4607 39.956 54.5887ZM41.1576 50.8075C40.8649 51.6611 40.2138 53.0037 39.1855 52.6404C38.2633 52.3147 37.7034 52.2496 37.2423 52.2496C37.2127 52.2496 37.1868 52.2524 37.1639 52.2576C37.141 52.2524 37.1149 52.2496 37.0854 52.2496C36.6242 52.2496 36.0643 52.3147 35.1422 52.6404C34.2142 52.9683 33.5934 51.9067 33.2659 51.0691C33.4185 51.6992 33.7321 52.3836 34.2087 53.0956C34.5072 53.5416 34.6176 53.7063 34.7046 53.6952C34.7557 53.6885 34.7986 53.6215 34.8669 53.5152C35.8481 51.9849 38.5081 51.9849 39.4894 53.5152C39.7563 53.9314 40.831 52.3446 41.1039 51.1311C41.1282 51.0232 41.1459 50.9152 41.1576 50.8075ZM29.0561 52.05C29.0675 53.0746 29.4198 54.2105 30.1508 55.1539C30.3024 55.3493 30.4464 55.538 30.4708 55.5733C30.4971 55.6112 30.6178 55.5672 30.7671 55.4654C31.3701 55.0541 32.0633 54.8728 32.9726 54.9061C32.5174 54.747 31.9976 54.611 31.684 54.6599C31.0581 54.7576 30.2677 54.5623 29.6748 53.8456C29.3785 53.4873 29.1781 52.7372 29.0561 52.05ZM31.9295 50.449C31.7988 52.6986 33.4175 54.1002 34.3956 54.6011C34.4453 54.4677 34.4784 54.3538 34.4607 54.3437C32.9716 53.4927 32.05 52.0563 31.9295 50.449ZM29.0647 48.6926C29.399 48.3376 29.3858 48.3202 29.1318 47.9859C28.5471 47.2164 28.0271 45.7457 28.0222 44.848C28.0221 44.8342 27.9907 44.8238 27.9365 44.8163C27.6904 45.8608 28.3944 47.7452 29.0647 48.6926ZM23.8409 47.9198C23.7404 48.866 24.0071 49.8812 24.7066 50.7434C24.7201 50.7599 24.7331 50.776 24.7457 50.7914C24.9442 51.0365 25.0327 51.1459 25.1334 51.158C25.2142 51.1678 25.3027 51.1146 25.4626 51.0189C25.4751 51.0114 25.4881 51.0035 25.5015 50.9956C25.9339 50.7371 26.4037 50.5973 26.9227 50.574C26.6312 50.4968 26.2286 50.4392 25.9532 50.556C25.492 50.7514 25.2615 50.6863 24.7016 50.1C24.2376 49.6141 23.9319 48.4796 23.8409 47.9198ZM29.4584 45.3446C29.5286 45.885 29.706 46.4621 29.9975 47.0465C30.0348 47.1211 30.0683 47.1889 30.0987 47.2507C30.2849 47.6281 30.358 47.7761 30.4702 47.8157C30.5426 47.8413 30.6313 47.8216 30.7774 47.7894C30.8142 47.7811 30.8549 47.7722 30.9 47.7629C31.2518 47.6904 31.4459 47.6827 31.6871 47.7319C31.7503 47.7447 31.8078 47.7568 31.8604 47.7678C31.8611 47.7679 31.8618 47.768 31.8625 47.7682C31.8106 47.6419 31.4802 47.5384 31.1436 47.4329C30.8217 47.332 30.4941 47.2293 30.3995 47.1033C29.9849 46.5506 29.6568 45.9939 29.4584 45.3446ZM32.5065 42.62C32.5525 42.7656 32.5762 42.9529 32.5858 43.1868C32.6391 44.4886 32.8764 45.3234 33.4402 46.1926C33.6381 46.4978 33.6464 46.5106 33.3713 46.7411C32.4062 45.3854 32.3169 43.7937 32.5065 42.62ZM23.1947 54.4211C23.1502 54.4104 23.1123 54.4808 23.0877 54.6599C22.8901 56.093 21.9834 56.0247 20.7822 55.0182C19.6039 54.0309 19.2307 52.577 19.0887 51.644C19.018 53.0196 19.6231 54.5103 20.992 55.4296C21.6197 55.8512 23.411 56.5945 23.411 56.4334C23.411 56.4235 23.3517 56.1861 23.2792 55.906C23.1589 55.4407 23.1344 54.9286 23.1947 54.4211ZM23.9834 52.3642C24.0086 52.3309 24.0342 52.2981 24.0602 52.2661C24.2661 52.0136 24.2661 52.0136 23.7494 51.4739C22.9839 50.6742 22.5694 49.8143 22.4553 48.789C22.4528 48.7667 22.4506 48.7455 22.4483 48.7252C22.4911 50.2862 23.2834 51.6698 23.9834 52.3642Z" fill="#22110C"/>
<path d="M61.5239 83.1601C61.5239 82.3686 62.1876 81.7269 63.006 81.7269C63.8245 81.7269 64.4882 82.3686 64.4882 83.1601C64.4882 83.9516 63.8245 84.5932 63.006 84.5932C62.1876 84.5932 61.5239 83.9516 61.5239 83.1601Z" fill="#F1F1F1"/>
<path d="M9.81482 83.1601C9.81482 82.3686 10.4784 81.7269 11.2969 81.7269C12.1154 81.7269 12.779 82.3686 12.779 83.1601C12.779 83.9516 12.1154 84.5932 11.2969 84.5932C10.4784 84.5932 9.81482 83.9516 9.81482 83.1601Z" fill="#F1F1F1"/>
<path d="M13.7672 84.4629C13.7672 84.2467 13.5755 84.0721 13.3389 84.0721C13.1025 84.0721 12.9108 84.2467 12.9108 84.4629C12.9108 84.6785 13.1025 84.8538 13.3389 84.8538C13.5755 84.8538 13.7672 84.6785 13.7672 84.4629Z" fill="#F1F1F1"/>
</g>
<path d="M425.861 84.3287L427.493 92.2146C426.36 92.985 424.728 93.6875 422.599 94.322C420.515 94.9112 418.43 95.2057 416.345 95.2057C412.313 95.2057 408.96 93.9367 406.286 91.3988C403.659 88.8608 402.344 85.0539 402.344 79.978V66.1778H395.684V57.0003H402.344V48.9105L412.064 46.8032V57.0003H425.929V66.1778H412.064V79.4342C412.064 83.9209 414.057 86.1642 418.044 86.1642C419.812 86.1642 422.417 85.5523 425.861 84.3287Z" fill="#22110C"/>
<path d="M375.101 95.2056C370.072 95.2056 365.881 94.05 362.528 91.7386C359.175 89.3819 357.158 86.1641 356.479 82.0852H366.333C367.15 85.4391 370.163 87.1159 375.373 87.1159C379.587 87.1159 381.695 86.0962 381.695 84.0568C381.695 83.7848 381.649 83.5356 381.559 83.309C381.513 83.0824 381.4 82.8784 381.219 82.6971C381.083 82.5159 380.925 82.3572 380.743 82.2212C380.562 82.04 380.29 81.8813 379.927 81.7453C379.61 81.6095 379.315 81.4962 379.044 81.4054C378.772 81.3148 378.364 81.2015 377.82 81.0655C377.322 80.9297 376.869 80.8164 376.461 80.7256C376.098 80.635 375.577 80.5217 374.898 80.3857C374.217 80.2498 373.629 80.1139 373.13 79.9779C367.557 78.6636 363.66 77.2359 361.44 75.6951C359.265 74.1089 358.178 71.7522 358.178 68.625C358.178 64.7275 359.65 61.691 362.595 59.5156C365.586 57.2949 369.573 56.1844 374.558 56.1844C379.542 56.1844 383.416 57.2722 386.18 59.4476C388.944 61.5777 390.666 64.4782 391.346 68.1492H381.491C380.675 65.6112 378.251 64.3422 374.217 64.3422C370.049 64.3422 367.965 65.3846 367.965 67.4694C367.965 68.2851 368.395 68.8743 369.256 69.2369C370.118 69.5995 372.066 70.1206 375.101 70.8004C378.138 71.4802 380.539 72.1148 382.306 72.7039C384.073 73.2478 385.75 73.9729 387.335 74.8793C388.922 75.7857 390.055 76.8734 390.734 78.1424C391.414 79.4114 391.754 80.9522 391.754 82.7651C391.754 86.7987 390.191 89.8805 387.064 92.0106C383.937 94.1406 379.95 95.2056 375.101 95.2056Z" fill="#22110C"/>
<path d="M332.125 56.1844C338.242 56.1844 343.068 58.2919 346.602 62.5067C350.182 66.7215 351.722 71.9561 351.224 78.2104H322.541C322.859 81.1109 323.901 83.3316 325.667 84.8726C327.435 86.4134 329.632 87.1838 332.261 87.1838C334.163 87.1838 335.863 86.776 337.358 85.9602C338.854 85.0992 339.918 83.9434 340.553 82.4932H350.612C349.298 86.7081 346.987 89.8805 343.679 92.0106C340.372 94.1406 336.588 95.2056 332.328 95.2056C326.529 95.2056 321.793 93.3702 318.124 89.6992C314.453 86.0283 312.618 81.3829 312.618 75.763C312.618 70.1433 314.453 65.4752 318.124 61.7589C321.793 58.0426 326.46 56.1844 332.125 56.1844ZM332.057 64.2062C329.746 64.2062 327.82 64.8408 326.279 66.1098C324.739 67.3334 323.652 68.9876 323.017 71.0724H340.893C340.348 68.9876 339.306 67.3334 337.766 66.1098C336.225 64.8408 334.323 64.2062 332.057 64.2062Z" fill="#22110C"/>
<path d="M302.499 49.7264C298.104 49.7264 295.907 52.1057 295.907 56.8644V57.0004H308.345V66.1778H295.907V94.3899H286.188V66.1778H279.527V57.0004H286.188V56.3885C286.188 51.4032 287.66 47.6415 290.605 45.1037C293.551 42.5204 297.153 41.2287 301.412 41.2287C304.81 41.2287 307.756 41.7952 310.248 42.9282L308.481 50.814L307.19 50.4741C305.468 49.9756 303.904 49.7264 302.499 49.7264Z" fill="#22110C"/>
<path d="M269.277 39.7331C271.045 39.7331 272.494 40.2769 273.627 41.3647C274.76 42.407 275.326 43.7666 275.326 45.4434C275.326 47.1204 274.76 48.5026 273.627 49.5904C272.494 50.678 271.045 51.2218 269.277 51.2218C267.556 51.2218 266.106 50.678 264.927 49.5904C263.795 48.5026 263.228 47.1204 263.228 45.4434C263.228 43.812 263.795 42.4523 264.927 41.3647C266.106 40.2769 267.556 39.7331 269.277 39.7331ZM264.383 94.3899V57.0003H274.103V94.3899H264.383Z" fill="#22110C"/>
<path d="M243.442 56.1844C247.656 56.1844 250.964 57.4988 253.366 60.1275C255.767 62.756 256.967 66.3589 256.967 70.9364V94.3899H247.248V73.0438C247.248 70.5059 246.705 68.6024 245.617 67.3334C244.53 66.0644 242.74 65.43 240.248 65.43C234.629 65.43 231.819 68.5344 231.819 74.7433V94.3899H222.099V57.0002H231.819V62.0988C234.629 58.156 238.503 56.1844 243.442 56.1844Z" fill="#22110C"/>
<path d="M204.635 57.0002H214.355L214.287 94.3899H204.568V89.3593C201.712 93.2569 197.816 95.2056 192.877 95.2056C187.937 95.2056 183.86 93.3928 180.643 89.7671C177.426 86.0962 175.817 81.4054 175.817 75.6951C175.817 69.9846 177.426 65.3167 180.643 61.691C183.905 58.02 187.961 56.1844 192.809 56.1844C197.793 56.1844 201.736 58.2013 204.635 62.2348V57.0002ZM195.052 85.9602C197.816 85.9602 200.104 85.0085 201.917 83.105C203.729 81.2015 204.635 78.7316 204.635 75.6951C204.635 72.6586 203.729 70.1886 201.917 68.2851C200.104 66.3816 197.816 65.43 195.052 65.43C192.288 65.43 190.023 66.3816 188.255 68.2851C186.488 70.1886 185.604 72.6586 185.604 75.6951C185.604 78.7316 186.488 81.2015 188.255 83.105C190.068 85.0085 192.334 85.9602 195.052 85.9602Z" fill="#22110C"/>
<path d="M156.375 56.1844C160.363 56.1844 163.512 57.4761 165.823 60.0594C168.134 62.6427 169.289 66.2004 169.289 70.7325V94.3899H159.57V72.8398C159.57 70.3926 159.049 68.5571 158.006 67.3334C157.01 66.0644 155.378 65.43 153.112 65.43C150.576 65.43 148.65 66.2456 147.335 67.8772C146.021 69.4635 145.364 71.7522 145.364 74.7433V94.3899H135.645V72.8398C135.645 70.3926 135.124 68.5571 134.081 67.3334C133.085 66.0644 131.453 65.43 129.187 65.43C126.651 65.43 124.702 66.2456 123.343 67.8772C122.029 69.4635 121.372 71.7522 121.372 74.7433L121.439 94.3899H111.652V57.0002H121.439V61.9629C124.158 58.1106 127.851 56.1844 132.518 56.1844C137.956 56.1844 141.739 58.5412 143.87 63.2545C146.769 58.5412 150.937 56.1844 156.375 56.1844Z" fill="#22110C"/>
</g>
<defs>
<clipPath id="clip0_2840_12790">
<rect width="428" height="114" fill="white"/>
</clipPath>
</defs>
</svg>
