<svg id="Groupe_2" data-name="Groupe 2" xmlns="http://www.w3.org/2000/svg" xmlns:xlink="http://www.w3.org/1999/xlink" width="513" height="210" viewBox="0 0 513 210">
  <defs>
    <clipPath id="clip-path">
      <rect id="Rectangle_2" data-name="Rectangle 2" width="375" height="71" transform="translate(69 70)" fill="#fff"/>
    </clipPath>
  </defs>
  <rect id="Rectangle_1" data-name="Rectangle 1" width="513" height="210" fill="#fff"/>
  <g id="Groupe_1" data-name="Groupe 1" clip-path="url(#clip-path)">
    <path id="Tracé_1" data-name="Tracé 1" d="M202.5,141a37.164,37.164,0,0,1-13.8-2.5,33.669,33.669,0,0,1-11.2-7.2,32.995,32.995,0,0,1-7.5-11.1,36.06,36.06,0,0,1-2.8-14.5A35.724,35.724,0,0,1,170,91.2,34.146,34.146,0,0,1,177.6,80a33.669,33.669,0,0,1,11.2-7.2,36.432,36.432,0,0,1,13.5-2.6,35.1,35.1,0,0,1,13.2,2.2,32.11,32.11,0,0,1,9.4,5.6,27.152,27.152,0,0,1,6,7.4,33.9,33.9,0,0,1,3,7.7l-14.3,4.5a19.29,19.29,0,0,0-1.5-3.9,15.2,15.2,0,0,0-3.1-4.2,17.275,17.275,0,0,0-5.1-3.3,19.175,19.175,0,0,0-7.6-1.3,20.888,20.888,0,0,0-6.9,1.2,17.329,17.329,0,0,0-6.2,3.8,18.012,18.012,0,0,0-4.5,6.5,22.078,22.078,0,0,0-1.7,9.3,20.792,20.792,0,0,0,1.6,8.5,17.872,17.872,0,0,0,4.4,6.3,19.133,19.133,0,0,0,6.2,3.9,20.068,20.068,0,0,0,7.3,1.3,19.509,19.509,0,0,0,7.6-1.3,18.407,18.407,0,0,0,5.3-3.3,16.071,16.071,0,0,0,3.3-4.2,18.31,18.31,0,0,0,1.7-4l14.5,4.1a37.9,37.9,0,0,1-3,7.7,28.712,28.712,0,0,1-6,7.7,34.261,34.261,0,0,1-23.4,8.6Z"/>
    <path id="Tracé_2" data-name="Tracé 2" d="M202.5,141a37.164,37.164,0,0,1-13.8-2.5,33.669,33.669,0,0,1-11.2-7.2,32.995,32.995,0,0,1-7.5-11.1,36.06,36.06,0,0,1-2.8-14.5A35.724,35.724,0,0,1,170,91.2,34.146,34.146,0,0,1,177.6,80a33.669,33.669,0,0,1,11.2-7.2,36.432,36.432,0,0,1,13.5-2.6,35.1,35.1,0,0,1,13.2,2.2,32.11,32.11,0,0,1,9.4,5.6,27.152,27.152,0,0,1,6,7.4,33.9,33.9,0,0,1,3,7.7l-14.3,4.5a19.29,19.29,0,0,0-1.5-3.9,15.2,15.2,0,0,0-3.1-4.2,17.275,17.275,0,0,0-5.1-3.3,19.175,19.175,0,0,0-7.6-1.3,20.888,20.888,0,0,0-6.9,1.2,17.329,17.329,0,0,0-6.2,3.8,18.012,18.012,0,0,0-4.5,6.5,22.078,22.078,0,0,0-1.7,9.3,20.792,20.792,0,0,0,1.6,8.5,17.872,17.872,0,0,0,4.4,6.3,19.133,19.133,0,0,0,6.2,3.9,20.068,20.068,0,0,0,7.3,1.3,19.509,19.509,0,0,0,7.6-1.3,18.407,18.407,0,0,0,5.3-3.3,16.071,16.071,0,0,0,3.3-4.2,18.31,18.31,0,0,0,1.7-4l14.5,4.1a37.9,37.9,0,0,1-3,7.7,28.712,28.712,0,0,1-6,7.7,34.261,34.261,0,0,1-23.4,8.6Z"/>
    <path id="Tracé_3" data-name="Tracé 3" d="M202.5,141a37.164,37.164,0,0,1-13.8-2.5,33.669,33.669,0,0,1-11.2-7.2,32.995,32.995,0,0,1-7.5-11.1,36.06,36.06,0,0,1-2.8-14.5A35.724,35.724,0,0,1,170,91.2,34.146,34.146,0,0,1,177.6,80a33.669,33.669,0,0,1,11.2-7.2,36.432,36.432,0,0,1,13.5-2.6,35.1,35.1,0,0,1,13.2,2.2,32.11,32.11,0,0,1,9.4,5.6,27.152,27.152,0,0,1,6,7.4,33.9,33.9,0,0,1,3,7.7l-14.3,4.5a19.29,19.29,0,0,0-1.5-3.9,15.2,15.2,0,0,0-3.1-4.2,17.275,17.275,0,0,0-5.1-3.3,19.175,19.175,0,0,0-7.6-1.3,20.888,20.888,0,0,0-6.9,1.2,17.329,17.329,0,0,0-6.2,3.8,18.012,18.012,0,0,0-4.5,6.5,22.078,22.078,0,0,0-1.7,9.3,20.792,20.792,0,0,0,1.6,8.5,17.872,17.872,0,0,0,4.4,6.3,19.133,19.133,0,0,0,6.2,3.9,20.068,20.068,0,0,0,7.3,1.3,19.509,19.509,0,0,0,7.6-1.3,18.407,18.407,0,0,0,5.3-3.3,16.071,16.071,0,0,0,3.3-4.2,18.31,18.31,0,0,0,1.7-4l14.5,4.1a37.9,37.9,0,0,1-3,7.7,28.712,28.712,0,0,1-6,7.7,34.261,34.261,0,0,1-23.4,8.6Z"/>
    <path id="Tracé_4" data-name="Tracé 4" d="M293,125.7H266.7l-4.9,13.8H245.9l25.6-68.1h17.6l25.3,68.1H297.9Zm-21.3-13.8h16.5L280,88.4Z"/>
    <path id="Tracé_5" data-name="Tracé 5" d="M364.8,92a10.8,10.8,0,0,0-.8-2.6,9.922,9.922,0,0,0-1.9-2.8,10.517,10.517,0,0,0-3.4-2.2,13.108,13.108,0,0,0-5.2-.9,9.987,9.987,0,0,0-6.8,2.3,6.581,6.581,0,0,0-2.5,5,5.652,5.652,0,0,0,1.6,4.2,10.129,10.129,0,0,0,5.1,2.4L360,99a28.306,28.306,0,0,1,8.5,2.8,22.5,22.5,0,0,1,6.1,4.7,17.15,17.15,0,0,1,3.7,6,20.187,20.187,0,0,1,1.2,7,19.928,19.928,0,0,1-1.6,7.9,21.488,21.488,0,0,1-4.8,6.9,25.848,25.848,0,0,1-7.9,4.9,29.751,29.751,0,0,1-10.8,1.9,32.1,32.1,0,0,1-12.2-2.1,26.685,26.685,0,0,1-8.4-5.2,22.877,22.877,0,0,1-5.1-7,22.37,22.37,0,0,1-2.1-7.5l13.9-3.4a14.814,14.814,0,0,0,1.1,4.5,10.786,10.786,0,0,0,2.6,3.7,12.183,12.183,0,0,0,4.3,2.5,17.927,17.927,0,0,0,6,1,11.52,11.52,0,0,0,7.1-2,6.076,6.076,0,0,0,2.5-5.1,5.86,5.86,0,0,0-2-4.4,10.424,10.424,0,0,0-5.3-2.4l-9.3-1.7c-5.8-1.1-10.4-3.4-13.6-7A18.463,18.463,0,0,1,329,92a19.947,19.947,0,0,1,2-8.8,21.233,21.233,0,0,1,5.3-6.9,24.927,24.927,0,0,1,7.8-4.5,25.978,25.978,0,0,1,9.3-1.6,31.383,31.383,0,0,1,10.8,1.7,23.053,23.053,0,0,1,7.4,4.4,19.324,19.324,0,0,1,4.5,5.9,26.711,26.711,0,0,1,2.1,6.2Z"/>
    <path id="Tracé_6" data-name="Tracé 6" d="M400.7,139.5v-68h43.1V85.8H415.9v13h25.3v13.3H415.9v13.1h28v14.4H400.7Z"/>
    <path id="Tracé_7" data-name="Tracé 7" d="M69.1,71.5v68h68v-68Zm62,34h-56v-28h56Z"/>
  </g>
</svg>
