<svg width="400" height="229" viewBox="0 0 400 229" fill="none" xmlns="http://www.w3.org/2000/svg">
<mask id="path-1-inside-1_905_3617" fill="white">
<path d="M0 0H400V229H0V0Z"/>
</mask>
<path d="M0 0H400V229H0V0Z" fill="#F5F7F9"/>
<path d="M0.5 0.5H62.5V17C62.5 18.933 60.933 20.5 59 20.5H0.5V0.5Z" fill="#F5F7F9"/>
<path d="M13.122 14C13.0487 14 12.9863 13.9743 12.935 13.923C12.8837 13.8717 12.858 13.8093 12.858 13.736V6.575C12.858 6.49433 12.88 6.42833 12.924 6.377C12.9753 6.32567 13.0413 6.3 13.122 6.3H15.806C17.962 6.3 19.062 7.29733 19.106 9.292C19.1207 9.71733 19.128 10.0033 19.128 10.15C19.128 10.2893 19.1207 10.5717 19.106 10.997C19.0767 12.0237 18.8017 12.7827 18.281 13.274C17.7603 13.758 16.9537 14 15.861 14H13.122ZM15.806 12.735C16.422 12.735 16.8657 12.5993 17.137 12.328C17.4083 12.0493 17.5513 11.5947 17.566 10.964C17.5807 10.524 17.588 10.249 17.588 10.139C17.588 10.0217 17.5807 9.75033 17.566 9.325C17.5513 8.72367 17.3973 8.28 17.104 7.994C16.818 7.708 16.367 7.565 15.751 7.565H14.387V12.735H15.806ZM20.6804 7.334C20.607 7.334 20.5447 7.30833 20.4934 7.257C20.442 7.20567 20.4164 7.14333 20.4164 7.07V6.278C20.4164 6.20467 20.442 6.14233 20.4934 6.091C20.5447 6.03967 20.607 6.014 20.6804 6.014H21.6814C21.7547 6.014 21.817 6.03967 21.8684 6.091C21.927 6.14233 21.9564 6.20467 21.9564 6.278V7.07C21.9564 7.14333 21.9307 7.20567 21.8794 7.257C21.828 7.30833 21.762 7.334 21.6814 7.334H20.6804ZM20.7244 14C20.651 14 20.5887 13.9743 20.5374 13.923C20.486 13.8717 20.4604 13.8093 20.4604 13.736V8.544C20.4604 8.47067 20.486 8.40833 20.5374 8.357C20.5887 8.30567 20.651 8.28 20.7244 8.28H21.6374C21.718 8.28 21.7804 8.30567 21.8244 8.357C21.8757 8.401 21.9014 8.46333 21.9014 8.544V13.736C21.9014 13.8093 21.8757 13.8717 21.8244 13.923C21.7804 13.9743 21.718 14 21.6374 14H20.7244ZM25.5278 14.11C24.9778 14.11 24.5158 14.0293 24.1418 13.868C23.7678 13.6993 23.4891 13.505 23.3058 13.285C23.1298 13.0577 23.0418 12.8633 23.0418 12.702C23.0418 12.6287 23.0674 12.57 23.1188 12.526C23.1701 12.482 23.2288 12.46 23.2948 12.46H24.1638C24.2298 12.46 24.2848 12.4857 24.3288 12.537C24.3581 12.559 24.4351 12.625 24.5598 12.735C24.6844 12.8523 24.8311 12.944 24.9998 13.01C25.1684 13.076 25.3554 13.109 25.5608 13.109C25.8541 13.109 26.0961 13.0503 26.2868 12.933C26.4774 12.8157 26.5728 12.6543 26.5728 12.449C26.5728 12.295 26.5288 12.1703 26.4408 12.075C26.3601 11.9797 26.2098 11.8953 25.9898 11.822C25.7698 11.7413 25.4434 11.657 25.0108 11.569C24.3874 11.437 23.9254 11.2353 23.6248 10.964C23.3314 10.6927 23.1848 10.3333 23.1848 9.886C23.1848 9.59267 23.2728 9.31767 23.4488 9.061C23.6248 8.797 23.8851 8.58433 24.2298 8.423C24.5818 8.25433 24.9998 8.17 25.4838 8.17C25.9751 8.17 26.4004 8.25067 26.7598 8.412C27.1191 8.566 27.3904 8.753 27.5738 8.973C27.7644 9.18567 27.8598 9.37633 27.8598 9.545C27.8598 9.611 27.8341 9.66967 27.7828 9.721C27.7388 9.765 27.6838 9.787 27.6178 9.787H26.8038C26.7451 9.787 26.6828 9.76133 26.6168 9.71C26.5654 9.67333 26.4848 9.60367 26.3748 9.501C26.2648 9.39833 26.1364 9.31767 25.9898 9.259C25.8431 9.20033 25.6708 9.171 25.4728 9.171C25.2014 9.171 24.9888 9.22967 24.8348 9.347C24.6881 9.46433 24.6148 9.61833 24.6148 9.809C24.6148 9.94833 24.6514 10.062 24.7248 10.15C24.7981 10.238 24.9411 10.3223 25.1538 10.403C25.3664 10.4837 25.6854 10.5643 26.1108 10.645C26.8148 10.7843 27.3171 11.0007 27.6178 11.294C27.9258 11.5873 28.0798 11.9467 28.0798 12.372C28.0798 12.8853 27.8561 13.3033 27.4088 13.626C26.9614 13.9487 26.3344 14.11 25.5278 14.11ZM29.4903 16.09C29.4169 16.09 29.3546 16.0643 29.3033 16.013C29.2519 15.969 29.2263 15.9067 29.2263 15.826V8.544C29.2263 8.46333 29.2519 8.401 29.3033 8.357C29.3546 8.30567 29.4169 8.28 29.4903 8.28H30.3593C30.4399 8.28 30.5023 8.30567 30.5463 8.357C30.5976 8.401 30.6233 8.46333 30.6233 8.544V8.984C31.0339 8.44133 31.6206 8.17 32.3833 8.17C33.1239 8.17 33.6923 8.40467 34.0883 8.874C34.4843 9.336 34.6969 9.963 34.7263 10.755C34.7336 10.843 34.7373 10.9713 34.7373 11.14C34.7373 11.316 34.7336 11.448 34.7263 11.536C34.6969 12.306 34.4843 12.9293 34.0883 13.406C33.6923 13.8753 33.1239 14.11 32.3833 14.11C31.6426 14.11 31.0779 13.8497 30.6893 13.329V15.826C30.6893 15.9067 30.6636 15.969 30.6123 16.013C30.5683 16.0643 30.5059 16.09 30.4253 16.09H29.4903ZM31.9763 12.933C32.7683 12.933 33.1899 12.4453 33.2413 11.47C33.2486 11.3967 33.2523 11.2867 33.2523 11.14C33.2523 10.9933 33.2486 10.8833 33.2413 10.81C33.1899 9.83467 32.7683 9.347 31.9763 9.347C31.5509 9.347 31.2356 9.48267 31.0303 9.754C30.8249 10.0253 30.7113 10.359 30.6893 10.755L30.6783 11.173L30.6893 11.602C30.7039 11.9687 30.8176 12.284 31.0303 12.548C31.2503 12.8047 31.5656 12.933 31.9763 12.933ZM36.2471 14C36.1738 14 36.1114 13.9743 36.0601 13.923C36.0088 13.8717 35.9831 13.8093 35.9831 13.736V6.454C35.9831 6.37333 36.0088 6.311 36.0601 6.267C36.1114 6.21567 36.1738 6.19 36.2471 6.19H37.1601C37.2408 6.19 37.3031 6.21567 37.3471 6.267C37.3984 6.311 37.4241 6.37333 37.4241 6.454V13.736C37.4241 13.8093 37.3984 13.8717 37.3471 13.923C37.3031 13.9743 37.2408 14 37.1601 14H36.2471ZM40.5442 14.11C40.1702 14.11 39.8256 14.0367 39.5102 13.89C39.2022 13.736 38.9566 13.5307 38.7732 13.274C38.5972 13.0173 38.5092 12.735 38.5092 12.427C38.5092 11.9283 38.7109 11.525 39.1142 11.217C39.5176 10.909 40.0712 10.7 40.7752 10.59L42.2822 10.37V10.139C42.2822 9.81633 42.2016 9.57433 42.0402 9.413C41.8789 9.25167 41.6186 9.171 41.2592 9.171C41.0172 9.171 40.8192 9.21867 40.6652 9.314C40.5186 9.402 40.4012 9.49 40.3132 9.578C40.2252 9.67333 40.1666 9.73567 40.1372 9.765C40.1079 9.853 40.0529 9.897 39.9722 9.897H39.1252C39.0592 9.897 39.0006 9.875 38.9492 9.831C38.9052 9.787 38.8832 9.72833 38.8832 9.655C38.8906 9.47167 38.9786 9.26267 39.1472 9.028C39.3232 8.79333 39.5909 8.59167 39.9502 8.423C40.3096 8.25433 40.7496 8.17 41.2702 8.17C42.1356 8.17 42.7662 8.36433 43.1622 8.753C43.5582 9.14167 43.7562 9.65133 43.7562 10.282V13.736C43.7562 13.8093 43.7306 13.8717 43.6792 13.923C43.6352 13.9743 43.5729 14 43.4922 14H42.6012C42.5279 14 42.4656 13.9743 42.4142 13.923C42.3629 13.8717 42.3372 13.8093 42.3372 13.736V13.307C42.1759 13.5417 41.9449 13.736 41.6442 13.89C41.3509 14.0367 40.9842 14.11 40.5442 14.11ZM40.9182 13.065C41.3216 13.065 41.6516 12.933 41.9082 12.669C42.1649 12.405 42.2932 12.02 42.2932 11.514V11.283L41.1932 11.459C40.7679 11.525 40.4452 11.6313 40.2252 11.778C40.0126 11.9247 39.9062 12.1043 39.9062 12.317C39.9062 12.5517 40.0052 12.735 40.2032 12.867C40.4012 12.999 40.6396 13.065 40.9182 13.065ZM46.051 16.09C45.9923 16.09 45.941 16.068 45.897 16.024C45.853 15.98 45.831 15.9287 45.831 15.87C45.831 15.804 45.8457 15.7453 45.875 15.694L46.733 13.659L44.621 8.676C44.5917 8.61 44.577 8.55867 44.577 8.522C44.5843 8.456 44.61 8.401 44.654 8.357C44.698 8.30567 44.753 8.28 44.819 8.28H45.71C45.8493 8.28 45.9483 8.34967 46.007 8.489L47.47 12.086L48.977 8.489C49.0357 8.34967 49.1347 8.28 49.274 8.28H50.154C50.2127 8.28 50.264 8.302 50.308 8.346C50.3593 8.39 50.385 8.44133 50.385 8.5C50.385 8.55133 50.3703 8.61 50.341 8.676L47.228 15.881C47.162 16.0203 47.0593 16.09 46.92 16.09H46.051Z" fill="#535356"/>
<path d="M0.5 0.5H62.5V17C62.5 18.933 60.933 20.5 59 20.5H0.5V0.5Z" stroke="#EAEAEF"/>
<g filter="url(#filter0_d_905_3617)">
<mask id="path-6-inside-2_905_3617" fill="white">
<path d="M63 30H161V79H63V30Z"/>
</mask>
<path d="M63 30H161V79H63V30Z" fill="white"/>
<path d="M87.173 59.13C86.4017 59.13 85.7387 59.013 85.184 58.779C84.6293 58.545 84.209 58.2373 83.923 57.856C83.637 57.4747 83.4853 57.063 83.468 56.621C83.468 56.543 83.494 56.478 83.546 56.426C83.598 56.374 83.663 56.348 83.741 56.348H84.898C85.002 56.348 85.08 56.3697 85.132 56.413C85.1927 56.4477 85.249 56.5083 85.301 56.595C85.3877 56.8897 85.587 57.1367 85.899 57.336C86.211 57.5353 86.6357 57.635 87.173 57.635C87.7883 57.635 88.252 57.5353 88.564 57.336C88.876 57.128 89.032 56.842 89.032 56.478C89.032 56.2353 88.9497 56.036 88.785 55.88C88.629 55.724 88.3907 55.5897 88.07 55.477C87.758 55.3643 87.29 55.2257 86.666 55.061C85.6433 54.8183 84.8937 54.4977 84.417 54.099C83.949 53.6917 83.715 53.1153 83.715 52.37C83.715 51.8673 83.8493 51.421 84.118 51.031C84.3953 50.641 84.7897 50.3333 85.301 50.108C85.821 49.8827 86.4233 49.77 87.108 49.77C87.8187 49.77 88.434 49.8957 88.954 50.147C89.474 50.3983 89.8683 50.7147 90.137 51.096C90.4143 51.4687 90.5617 51.8413 90.579 52.214C90.579 52.292 90.553 52.357 90.501 52.409C90.449 52.461 90.384 52.487 90.306 52.487H89.097C88.915 52.487 88.7893 52.4047 88.72 52.24C88.668 51.9627 88.4947 51.733 88.2 51.551C87.9053 51.3603 87.5413 51.265 87.108 51.265C86.6227 51.265 86.2413 51.356 85.964 51.538C85.6867 51.72 85.548 51.9843 85.548 52.331C85.548 52.5737 85.6173 52.773 85.756 52.929C85.8947 53.085 86.1113 53.2237 86.406 53.345C86.7093 53.4663 87.1427 53.6007 87.706 53.748C88.4687 53.9213 89.0753 54.1163 89.526 54.333C89.9853 54.5497 90.3233 54.8227 90.54 55.152C90.7567 55.4813 90.865 55.9017 90.865 56.413C90.865 56.9677 90.709 57.453 90.397 57.869C90.0937 58.2763 89.6603 58.5883 89.097 58.805C88.5423 59.0217 87.901 59.13 87.173 59.13ZM94.5673 59C94.4806 59 94.4069 58.9697 94.3463 58.909C94.2856 58.8483 94.2553 58.7747 94.2553 58.688V51.499H91.8503C91.7636 51.499 91.6899 51.4687 91.6293 51.408C91.5686 51.3473 91.5383 51.2737 91.5383 51.187V50.225C91.5383 50.1297 91.5643 50.0517 91.6163 49.991C91.6769 49.9303 91.7549 49.9 91.8503 49.9H98.4803C98.5756 49.9 98.6536 49.9303 98.7143 49.991C98.7749 50.0517 98.8053 50.1297 98.8053 50.225V51.187C98.8053 51.2737 98.7749 51.3473 98.7143 51.408C98.6536 51.4687 98.5756 51.499 98.4803 51.499H96.0883V58.688C96.0883 58.7747 96.0579 58.8483 95.9973 58.909C95.9366 58.9697 95.8586 59 95.7633 59H94.5673ZM98.6132 59C98.5439 59 98.4789 58.974 98.4182 58.922C98.3662 58.87 98.3402 58.805 98.3402 58.727L98.3662 58.61L101.499 50.225C101.56 50.0083 101.712 49.9 101.954 49.9H103.371C103.597 49.9 103.748 50.0083 103.826 50.225L106.959 58.61C106.968 58.636 106.972 58.675 106.972 58.727C106.972 58.805 106.946 58.87 106.894 58.922C106.842 58.974 106.782 59 106.712 59H105.581C105.469 59 105.382 58.974 105.321 58.922C105.261 58.87 105.222 58.8137 105.204 58.753L104.593 57.167H100.732L100.121 58.753C100.052 58.9177 99.9262 59 99.7442 59H98.6132ZM104.138 55.672L102.656 51.655L101.187 55.672H104.138ZM109.548 59C109.461 59 109.387 58.9697 109.327 58.909C109.266 58.8483 109.236 58.7747 109.236 58.688V51.499H106.831C106.744 51.499 106.67 51.4687 106.61 51.408C106.549 51.3473 106.519 51.2737 106.519 51.187V50.225C106.519 50.1297 106.545 50.0517 106.597 49.991C106.657 49.9303 106.735 49.9 106.831 49.9H113.461C113.556 49.9 113.634 49.9303 113.695 49.991C113.755 50.0517 113.786 50.1297 113.786 50.225V51.187C113.786 51.2737 113.755 51.3473 113.695 51.408C113.634 51.4687 113.556 51.499 113.461 51.499H111.069V58.688C111.069 58.7747 111.038 58.8483 110.978 58.909C110.917 58.9697 110.839 59 110.744 59H109.548ZM118.732 59.13C117.562 59.13 116.652 58.831 116.002 58.233C115.352 57.635 115.027 56.7293 115.027 55.516V50.225C115.027 50.1297 115.053 50.0517 115.105 49.991C115.165 49.9303 115.243 49.9 115.339 49.9H116.522C116.617 49.9 116.691 49.9303 116.743 49.991C116.803 50.0517 116.834 50.1297 116.834 50.225V55.516C116.834 56.2093 116.998 56.7337 117.328 57.089C117.657 57.4357 118.125 57.609 118.732 57.609C119.338 57.609 119.802 57.4357 120.123 57.089C120.452 56.7337 120.617 56.2093 120.617 55.516V50.225C120.617 50.1297 120.647 50.0517 120.708 49.991C120.768 49.9303 120.846 49.9 120.942 49.9H122.112C122.207 49.9 122.281 49.9303 122.333 49.991C122.393 50.0517 122.424 50.1297 122.424 50.225V55.516C122.424 56.7293 122.099 57.635 121.449 58.233C120.807 58.831 119.902 59.13 118.732 59.13ZM127.531 59.13C126.76 59.13 126.097 59.013 125.542 58.779C124.988 58.545 124.567 58.2373 124.281 57.856C123.995 57.4747 123.844 57.063 123.826 56.621C123.826 56.543 123.852 56.478 123.904 56.426C123.956 56.374 124.021 56.348 124.099 56.348H125.256C125.36 56.348 125.438 56.3697 125.49 56.413C125.551 56.4477 125.607 56.5083 125.659 56.595C125.746 56.8897 125.945 57.1367 126.257 57.336C126.569 57.5353 126.994 57.635 127.531 57.635C128.147 57.635 128.61 57.5353 128.922 57.336C129.234 57.128 129.39 56.842 129.39 56.478C129.39 56.2353 129.308 56.036 129.143 55.88C128.987 55.724 128.749 55.5897 128.428 55.477C128.116 55.3643 127.648 55.2257 127.024 55.061C126.002 54.8183 125.252 54.4977 124.775 54.099C124.307 53.6917 124.073 53.1153 124.073 52.37C124.073 51.8673 124.208 51.421 124.476 51.031C124.754 50.641 125.148 50.3333 125.659 50.108C126.179 49.8827 126.782 49.77 127.466 49.77C128.177 49.77 128.792 49.8957 129.312 50.147C129.832 50.3983 130.227 50.7147 130.495 51.096C130.773 51.4687 130.92 51.8413 130.937 52.214C130.937 52.292 130.911 52.357 130.859 52.409C130.807 52.461 130.742 52.487 130.664 52.487H129.455C129.273 52.487 129.148 52.4047 129.078 52.24C129.026 51.9627 128.853 51.733 128.558 51.551C128.264 51.3603 127.9 51.265 127.466 51.265C126.981 51.265 126.6 51.356 126.322 51.538C126.045 51.72 125.906 51.9843 125.906 52.331C125.906 52.5737 125.976 52.773 126.114 52.929C126.253 53.085 126.47 53.2237 126.764 53.345C127.068 53.4663 127.501 53.6007 128.064 53.748C128.827 53.9213 129.434 54.1163 129.884 54.333C130.344 54.5497 130.682 54.8227 130.898 55.152C131.115 55.4813 131.223 55.9017 131.223 56.413C131.223 56.9677 131.067 57.453 130.755 57.869C130.452 58.2763 130.019 58.5883 129.455 58.805C128.901 59.0217 128.259 59.13 127.531 59.13Z" fill="#A0A0A5"/>
<path d="M161 78H63V80H161V78Z" fill="#CBC9CD" mask="url(#path-6-inside-2_905_3617)"/>
<mask id="path-9-inside-3_905_3617" fill="white">
<path d="M63 79H161V119H63V79Z"/>
</mask>
<path d="M63 79H161V119H63V79Z" fill="white"/>
<circle cx="87" cy="99" r="4" fill="#A084E8"/>
<circle cx="97" cy="99" r="4" fill="#A084E8"/>
<circle cx="107" cy="99" r="4" fill="#A084E8"/>
<circle cx="117" cy="99" r="4" fill="#F2F2F6"/>
<circle cx="127" cy="99" r="4" fill="#F2F2F6"/>
<circle cx="137" cy="99" r="4" fill="#F2F2F6"/>
<path d="M161 118H63V120H161V118Z" fill="#CBC9CD" mask="url(#path-9-inside-3_905_3617)"/>
<mask id="path-17-inside-4_905_3617" fill="white">
<path d="M63 119H161V159H63V119Z"/>
</mask>
<path d="M63 119H161V159H63V119Z" fill="white"/>
<circle cx="87" cy="139" r="4" fill="#8BE8E5"/>
<circle cx="97" cy="139" r="4" fill="#8BE8E5"/>
<circle cx="107" cy="139" r="4" fill="#F2F2F6"/>
<circle cx="117" cy="139" r="4" fill="#F2F2F6"/>
<circle cx="127" cy="139" r="4" fill="#F2F2F6"/>
<circle cx="137" cy="139" r="4" fill="#F2F2F6"/>
<path d="M161 158H63V160H161V158Z" fill="#CBC9CD" mask="url(#path-17-inside-4_905_3617)"/>
<mask id="path-25-inside-5_905_3617" fill="white">
<path d="M63 159H161V199H63V159Z"/>
</mask>
<path d="M63 159H161V199H63V159Z" fill="white"/>
<circle cx="87" cy="179" r="4" fill="#F79BD3"/>
<circle cx="97" cy="179" r="4" fill="#F79BD3"/>
<circle cx="107" cy="179" r="4" fill="#F79BD3"/>
<circle cx="117" cy="179" r="4" fill="#F79BD3"/>
<circle cx="127" cy="179" r="4" fill="#F79BD3"/>
<circle cx="137" cy="179" r="4" fill="#F79BD3"/>
<path d="M161 198H63V200H161V198Z" fill="#CBC9CD" mask="url(#path-25-inside-5_905_3617)"/>
<mask id="path-33-inside-6_905_3617" fill="white">
<path d="M161 30H249V79H161V30Z"/>
</mask>
<path d="M161 30H249V79H161V30Z" fill="white"/>
<rect x="181" y="46" width="48" height="17" rx="5" fill="#F2F2F6"/>
<path d="M249 78H161V80H249V78Z" fill="#CBC9CD" mask="url(#path-33-inside-6_905_3617)"/>
<mask id="path-36-inside-7_905_3617" fill="white">
<path d="M161 79H249V119H161V79Z"/>
</mask>
<path d="M161 79H249V119H161V79Z" fill="white"/>
<rect x="181" y="90.5" width="48" height="17" rx="5" fill="#F2F2F6"/>
<path d="M249 118H161V120H249V118Z" fill="#CBC9CD" mask="url(#path-36-inside-7_905_3617)"/>
<mask id="path-39-inside-8_905_3617" fill="white">
<path d="M161 119H249V159H161V119Z"/>
</mask>
<path d="M161 119H249V159H161V119Z" fill="white"/>
<rect x="181" y="130.5" width="48" height="17" rx="5" fill="#F2F2F6"/>
<path d="M249 158H161V160H249V158Z" fill="#CBC9CD" mask="url(#path-39-inside-8_905_3617)"/>
<mask id="path-42-inside-9_905_3617" fill="white">
<path d="M161 159H249V199H161V159Z"/>
</mask>
<path d="M161 159H249V199H161V159Z" fill="white"/>
<rect x="181" y="170.5" width="48" height="17" rx="5" fill="#F2F2F6"/>
<path d="M249 198H161V200H249V198Z" fill="#CBC9CD" mask="url(#path-42-inside-9_905_3617)"/>
<mask id="path-45-inside-10_905_3617" fill="white">
<path d="M249 30H337V79H249V30Z"/>
</mask>
<path d="M249 30H337V79H249V30Z" fill="white"/>
<rect x="269" y="46" width="48" height="17" rx="5" fill="#F2F2F6"/>
<path d="M337 78H249V80H337V78Z" fill="#CBC9CD" mask="url(#path-45-inside-10_905_3617)"/>
<mask id="path-48-inside-11_905_3617" fill="white">
<path d="M249 79H337V119H249V79Z"/>
</mask>
<path d="M249 79H337V119H249V79Z" fill="white"/>
<rect x="269" y="90.5" width="48" height="17" rx="5" fill="#F2F2F6"/>
<path d="M337 118H249V120H337V118Z" fill="#CBC9CD" mask="url(#path-48-inside-11_905_3617)"/>
<mask id="path-51-inside-12_905_3617" fill="white">
<path d="M249 119H337V159H249V119Z"/>
</mask>
<path d="M249 119H337V159H249V119Z" fill="white"/>
<rect x="269" y="130.5" width="48" height="17" rx="5" fill="#F2F2F6"/>
<path d="M337 158H249V160H337V158Z" fill="#CBC9CD" mask="url(#path-51-inside-12_905_3617)"/>
<mask id="path-54-inside-13_905_3617" fill="white">
<path d="M249 159H337V199H249V159Z"/>
</mask>
<path d="M249 159H337V199H249V159Z" fill="white"/>
<rect x="269" y="170.5" width="48" height="17" rx="5" fill="#F2F2F6"/>
<path d="M337 198H249V200H337V198Z" fill="#CBC9CD" mask="url(#path-54-inside-13_905_3617)"/>
</g>
<path d="M1 229V0H-1V229H1Z" fill="#EAEAEF" mask="url(#path-1-inside-1_905_3617)"/>
<defs>
<filter id="filter0_d_905_3617" x="43" y="20" width="314" height="209" filterUnits="userSpaceOnUse" color-interpolation-filters="sRGB">
<feFlood flood-opacity="0" result="BackgroundImageFix"/>
<feColorMatrix in="SourceAlpha" type="matrix" values="0 0 0 0 0 0 0 0 0 0 0 0 0 0 0 0 0 0 127 0" result="hardAlpha"/>
<feOffset dy="10"/>
<feGaussianBlur stdDeviation="10"/>
<feComposite in2="hardAlpha" operator="out"/>
<feColorMatrix type="matrix" values="0 0 0 0 0.117647 0 0 0 0 0.117647 0 0 0 0 0.117647 0 0 0 0.12 0"/>
<feBlend mode="normal" in2="BackgroundImageFix" result="effect1_dropShadow_905_3617"/>
<feBlend mode="normal" in="SourceGraphic" in2="effect1_dropShadow_905_3617" result="shape"/>
</filter>
</defs>
</svg>
