<svg width="400" height="256" viewBox="0 0 400 256" fill="none" xmlns="http://www.w3.org/2000/svg">
<mask id="path-1-inside-1_905_2657" fill="white">
<path d="M0 0H400V256H0V0Z"/>
</mask>
<path d="M0 0H400V256H0V0Z" fill="#F5F7F9"/>
<path d="M0.5 0.5H62.5V17C62.5 18.933 60.933 20.5 59 20.5H0.5V0.5Z" fill="#F5F7F9"/>
<path d="M13.122 14C13.0487 14 12.9863 13.9743 12.935 13.923C12.8837 13.8717 12.858 13.8093 12.858 13.736V6.575C12.858 6.49433 12.88 6.42833 12.924 6.377C12.9753 6.32567 13.0413 6.3 13.122 6.3H15.806C17.962 6.3 19.062 7.29733 19.106 9.292C19.1207 9.71733 19.128 10.0033 19.128 10.15C19.128 10.2893 19.1207 10.5717 19.106 10.997C19.0767 12.0237 18.8017 12.7827 18.281 13.274C17.7603 13.758 16.9537 14 15.861 14H13.122ZM15.806 12.735C16.422 12.735 16.8657 12.5993 17.137 12.328C17.4083 12.0493 17.5513 11.5947 17.566 10.964C17.5807 10.524 17.588 10.249 17.588 10.139C17.588 10.0217 17.5807 9.75033 17.566 9.325C17.5513 8.72367 17.3973 8.28 17.104 7.994C16.818 7.708 16.367 7.565 15.751 7.565H14.387V12.735H15.806ZM20.6804 7.334C20.607 7.334 20.5447 7.30833 20.4934 7.257C20.442 7.20567 20.4164 7.14333 20.4164 7.07V6.278C20.4164 6.20467 20.442 6.14233 20.4934 6.091C20.5447 6.03967 20.607 6.014 20.6804 6.014H21.6814C21.7547 6.014 21.817 6.03967 21.8684 6.091C21.927 6.14233 21.9564 6.20467 21.9564 6.278V7.07C21.9564 7.14333 21.9307 7.20567 21.8794 7.257C21.828 7.30833 21.762 7.334 21.6814 7.334H20.6804ZM20.7244 14C20.651 14 20.5887 13.9743 20.5374 13.923C20.486 13.8717 20.4604 13.8093 20.4604 13.736V8.544C20.4604 8.47067 20.486 8.40833 20.5374 8.357C20.5887 8.30567 20.651 8.28 20.7244 8.28H21.6374C21.718 8.28 21.7804 8.30567 21.8244 8.357C21.8757 8.401 21.9014 8.46333 21.9014 8.544V13.736C21.9014 13.8093 21.8757 13.8717 21.8244 13.923C21.7804 13.9743 21.718 14 21.6374 14H20.7244ZM25.5278 14.11C24.9778 14.11 24.5158 14.0293 24.1418 13.868C23.7678 13.6993 23.4891 13.505 23.3058 13.285C23.1298 13.0577 23.0418 12.8633 23.0418 12.702C23.0418 12.6287 23.0674 12.57 23.1188 12.526C23.1701 12.482 23.2288 12.46 23.2948 12.46H24.1638C24.2298 12.46 24.2848 12.4857 24.3288 12.537C24.3581 12.559 24.4351 12.625 24.5598 12.735C24.6844 12.8523 24.8311 12.944 24.9998 13.01C25.1684 13.076 25.3554 13.109 25.5608 13.109C25.8541 13.109 26.0961 13.0503 26.2868 12.933C26.4774 12.8157 26.5728 12.6543 26.5728 12.449C26.5728 12.295 26.5288 12.1703 26.4408 12.075C26.3601 11.9797 26.2098 11.8953 25.9898 11.822C25.7698 11.7413 25.4434 11.657 25.0108 11.569C24.3874 11.437 23.9254 11.2353 23.6248 10.964C23.3314 10.6927 23.1848 10.3333 23.1848 9.886C23.1848 9.59267 23.2728 9.31767 23.4488 9.061C23.6248 8.797 23.8851 8.58433 24.2298 8.423C24.5818 8.25433 24.9998 8.17 25.4838 8.17C25.9751 8.17 26.4004 8.25067 26.7598 8.412C27.1191 8.566 27.3904 8.753 27.5738 8.973C27.7644 9.18567 27.8598 9.37633 27.8598 9.545C27.8598 9.611 27.8341 9.66967 27.7828 9.721C27.7388 9.765 27.6838 9.787 27.6178 9.787H26.8038C26.7451 9.787 26.6828 9.76133 26.6168 9.71C26.5654 9.67333 26.4848 9.60367 26.3748 9.501C26.2648 9.39833 26.1364 9.31767 25.9898 9.259C25.8431 9.20033 25.6708 9.171 25.4728 9.171C25.2014 9.171 24.9888 9.22967 24.8348 9.347C24.6881 9.46433 24.6148 9.61833 24.6148 9.809C24.6148 9.94833 24.6514 10.062 24.7248 10.15C24.7981 10.238 24.9411 10.3223 25.1538 10.403C25.3664 10.4837 25.6854 10.5643 26.1108 10.645C26.8148 10.7843 27.3171 11.0007 27.6178 11.294C27.9258 11.5873 28.0798 11.9467 28.0798 12.372C28.0798 12.8853 27.8561 13.3033 27.4088 13.626C26.9614 13.9487 26.3344 14.11 25.5278 14.11ZM29.4903 16.09C29.4169 16.09 29.3546 16.0643 29.3033 16.013C29.2519 15.969 29.2263 15.9067 29.2263 15.826V8.544C29.2263 8.46333 29.2519 8.401 29.3033 8.357C29.3546 8.30567 29.4169 8.28 29.4903 8.28H30.3593C30.4399 8.28 30.5023 8.30567 30.5463 8.357C30.5976 8.401 30.6233 8.46333 30.6233 8.544V8.984C31.0339 8.44133 31.6206 8.17 32.3833 8.17C33.1239 8.17 33.6923 8.40467 34.0883 8.874C34.4843 9.336 34.6969 9.963 34.7263 10.755C34.7336 10.843 34.7373 10.9713 34.7373 11.14C34.7373 11.316 34.7336 11.448 34.7263 11.536C34.6969 12.306 34.4843 12.9293 34.0883 13.406C33.6923 13.8753 33.1239 14.11 32.3833 14.11C31.6426 14.11 31.0779 13.8497 30.6893 13.329V15.826C30.6893 15.9067 30.6636 15.969 30.6123 16.013C30.5683 16.0643 30.5059 16.09 30.4253 16.09H29.4903ZM31.9763 12.933C32.7683 12.933 33.1899 12.4453 33.2413 11.47C33.2486 11.3967 33.2523 11.2867 33.2523 11.14C33.2523 10.9933 33.2486 10.8833 33.2413 10.81C33.1899 9.83467 32.7683 9.347 31.9763 9.347C31.5509 9.347 31.2356 9.48267 31.0303 9.754C30.8249 10.0253 30.7113 10.359 30.6893 10.755L30.6783 11.173L30.6893 11.602C30.7039 11.9687 30.8176 12.284 31.0303 12.548C31.2503 12.8047 31.5656 12.933 31.9763 12.933ZM36.2471 14C36.1738 14 36.1114 13.9743 36.0601 13.923C36.0088 13.8717 35.9831 13.8093 35.9831 13.736V6.454C35.9831 6.37333 36.0088 6.311 36.0601 6.267C36.1114 6.21567 36.1738 6.19 36.2471 6.19H37.1601C37.2408 6.19 37.3031 6.21567 37.3471 6.267C37.3984 6.311 37.4241 6.37333 37.4241 6.454V13.736C37.4241 13.8093 37.3984 13.8717 37.3471 13.923C37.3031 13.9743 37.2408 14 37.1601 14H36.2471ZM40.5442 14.11C40.1702 14.11 39.8256 14.0367 39.5102 13.89C39.2022 13.736 38.9566 13.5307 38.7732 13.274C38.5972 13.0173 38.5092 12.735 38.5092 12.427C38.5092 11.9283 38.7109 11.525 39.1142 11.217C39.5176 10.909 40.0712 10.7 40.7752 10.59L42.2822 10.37V10.139C42.2822 9.81633 42.2016 9.57433 42.0402 9.413C41.8789 9.25167 41.6186 9.171 41.2592 9.171C41.0172 9.171 40.8192 9.21867 40.6652 9.314C40.5186 9.402 40.4012 9.49 40.3132 9.578C40.2252 9.67333 40.1666 9.73567 40.1372 9.765C40.1079 9.853 40.0529 9.897 39.9722 9.897H39.1252C39.0592 9.897 39.0006 9.875 38.9492 9.831C38.9052 9.787 38.8832 9.72833 38.8832 9.655C38.8906 9.47167 38.9786 9.26267 39.1472 9.028C39.3232 8.79333 39.5909 8.59167 39.9502 8.423C40.3096 8.25433 40.7496 8.17 41.2702 8.17C42.1356 8.17 42.7662 8.36433 43.1622 8.753C43.5582 9.14167 43.7562 9.65133 43.7562 10.282V13.736C43.7562 13.8093 43.7306 13.8717 43.6792 13.923C43.6352 13.9743 43.5729 14 43.4922 14H42.6012C42.5279 14 42.4656 13.9743 42.4142 13.923C42.3629 13.8717 42.3372 13.8093 42.3372 13.736V13.307C42.1759 13.5417 41.9449 13.736 41.6442 13.89C41.3509 14.0367 40.9842 14.11 40.5442 14.11ZM40.9182 13.065C41.3216 13.065 41.6516 12.933 41.9082 12.669C42.1649 12.405 42.2932 12.02 42.2932 11.514V11.283L41.1932 11.459C40.7679 11.525 40.4452 11.6313 40.2252 11.778C40.0126 11.9247 39.9062 12.1043 39.9062 12.317C39.9062 12.5517 40.0052 12.735 40.2032 12.867C40.4012 12.999 40.6396 13.065 40.9182 13.065ZM46.051 16.09C45.9923 16.09 45.941 16.068 45.897 16.024C45.853 15.98 45.831 15.9287 45.831 15.87C45.831 15.804 45.8457 15.7453 45.875 15.694L46.733 13.659L44.621 8.676C44.5917 8.61 44.577 8.55867 44.577 8.522C44.5843 8.456 44.61 8.401 44.654 8.357C44.698 8.30567 44.753 8.28 44.819 8.28H45.71C45.8493 8.28 45.9483 8.34967 46.007 8.489L47.47 12.086L48.977 8.489C49.0357 8.34967 49.1347 8.28 49.274 8.28H50.154C50.2127 8.28 50.264 8.302 50.308 8.346C50.3593 8.39 50.385 8.44133 50.385 8.5C50.385 8.55133 50.3703 8.61 50.341 8.676L47.228 15.881C47.162 16.0203 47.0593 16.09 46.92 16.09H46.051Z" fill="#535356"/>
<path d="M0.5 0.5H62.5V17C62.5 18.933 60.933 20.5 59 20.5H0.5V0.5Z" stroke="#EAEAEF"/>
<g filter="url(#filter0_d_905_2657)">
<mask id="path-6-inside-2_905_2657" fill="white">
<path d="M56.5 30H144.5V79H56.5V30Z"/>
</mask>
<path d="M56.5 30H144.5V79H56.5V30Z" fill="white"/>
<rect x="76.5" y="46" width="48" height="17" rx="5" fill="#F2F2F6"/>
<path d="M144.5 78H56.5V80H144.5V78Z" fill="#CBC9CD" mask="url(#path-6-inside-2_905_2657)"/>
<mask id="path-9-inside-3_905_2657" fill="white">
<path d="M56.5 79H144.5V128H56.5V79Z"/>
</mask>
<path d="M56.5 79H144.5V128H56.5V79Z" fill="white"/>
<rect x="76.5" y="95" width="48" height="17" rx="5" fill="#F2F2F6"/>
<path d="M144.5 127H56.5V129H144.5V127Z" fill="#CBC9CD" mask="url(#path-9-inside-3_905_2657)"/>
<mask id="path-12-inside-4_905_2657" fill="white">
<path d="M56.5 128H144.5V177H56.5V128Z"/>
</mask>
<path d="M56.5 128H144.5V177H56.5V128Z" fill="white"/>
<rect x="76.5" y="144" width="48" height="17" rx="5" fill="#F2F2F6"/>
<path d="M144.5 176H56.5V178H144.5V176Z" fill="#CBC9CD" mask="url(#path-12-inside-4_905_2657)"/>
<mask id="path-15-inside-5_905_2657" fill="white">
<path d="M56.5 177H144.5V226H56.5V177Z"/>
</mask>
<path d="M56.5 177H144.5V226H56.5V177Z" fill="white"/>
<rect x="76.5" y="193" width="48" height="17" rx="5" fill="#F2F2F6"/>
<path d="M144.5 225H56.5V227H144.5V225Z" fill="#CBC9CD" mask="url(#path-15-inside-5_905_2657)"/>
<mask id="path-18-inside-6_905_2657" fill="white">
<path d="M144.5 30H255.5V79H144.5V30Z"/>
</mask>
<path d="M144.5 30H255.5V79H144.5V30Z" fill="white"/>
<path d="M169.076 59.13C168.261 59.13 167.568 58.9957 166.996 58.727C166.433 58.4497 165.995 58.051 165.683 57.531C165.371 57.0023 165.198 56.361 165.163 55.607C165.154 55.2517 165.15 54.8703 165.15 54.463C165.15 54.0557 165.154 53.6657 165.163 53.293C165.198 52.5477 165.371 51.915 165.683 51.395C166.004 50.8663 166.45 50.4633 167.022 50.186C167.594 49.9087 168.279 49.77 169.076 49.77C169.657 49.77 170.185 49.8437 170.662 49.991C171.139 50.1383 171.55 50.3507 171.897 50.628C172.244 50.9053 172.512 51.2303 172.703 51.603C172.894 51.9757 172.998 52.3917 173.015 52.851C173.015 52.929 172.985 52.994 172.924 53.046C172.872 53.098 172.807 53.124 172.729 53.124H171.247C171.143 53.124 171.061 53.098 171 53.046C170.939 52.994 170.892 52.9073 170.857 52.786C170.727 52.2747 170.51 51.9237 170.207 51.733C169.904 51.5423 169.527 51.447 169.076 51.447C168.539 51.447 168.114 51.5943 167.802 51.889C167.49 52.1837 167.321 52.6733 167.295 53.358C167.269 54.0687 167.269 54.7967 167.295 55.542C167.321 56.2267 167.49 56.7163 167.802 57.011C168.114 57.3057 168.539 57.453 169.076 57.453C169.527 57.453 169.904 57.3577 170.207 57.167C170.519 56.9677 170.736 56.6167 170.857 56.114C170.892 55.984 170.939 55.8973 171 55.854C171.061 55.802 171.143 55.776 171.247 55.776H172.729C172.807 55.776 172.872 55.802 172.924 55.854C172.985 55.906 173.015 55.971 173.015 56.049C172.998 56.5083 172.894 56.9243 172.703 57.297C172.512 57.6697 172.244 57.9947 171.897 58.272C171.55 58.5493 171.139 58.7617 170.662 58.909C170.185 59.0563 169.657 59.13 169.076 59.13ZM178.09 59.13C177.301 59.13 176.621 59 176.049 58.74C175.477 58.48 175.03 58.09 174.71 57.57C174.389 57.0413 174.216 56.3783 174.19 55.581C174.181 55.2083 174.177 54.84 174.177 54.476C174.177 54.1033 174.181 53.7263 174.19 53.345C174.216 52.565 174.389 51.9107 174.71 51.382C175.039 50.8447 175.49 50.4417 176.062 50.173C176.642 49.9043 177.318 49.77 178.09 49.77C178.852 49.77 179.52 49.9043 180.092 50.173C180.672 50.4417 181.127 50.8447 181.457 51.382C181.786 51.9107 181.959 52.565 181.977 53.345C181.994 53.7263 182.003 54.1033 182.003 54.476C182.003 54.84 181.994 55.2083 181.977 55.581C181.951 56.3783 181.777 57.0413 181.457 57.57C181.136 58.09 180.69 58.48 180.118 58.74C179.546 59 178.87 59.13 178.09 59.13ZM178.09 57.453C178.592 57.453 179.004 57.3013 179.325 56.998C179.654 56.686 179.827 56.192 179.845 55.516C179.862 55.1347 179.871 54.7793 179.871 54.45C179.871 54.112 179.862 53.7567 179.845 53.384C179.836 52.9333 179.754 52.565 179.598 52.279C179.442 51.993 179.234 51.785 178.974 51.655C178.722 51.5163 178.428 51.447 178.09 51.447C177.752 51.447 177.453 51.5163 177.193 51.655C176.933 51.785 176.725 51.993 176.569 52.279C176.421 52.565 176.339 52.9333 176.322 53.384C176.313 53.7567 176.309 54.112 176.309 54.45C176.309 54.7793 176.313 55.1347 176.322 55.516C176.348 56.192 176.521 56.686 176.842 56.998C177.162 57.3013 177.578 57.453 178.09 57.453ZM183.941 59C183.846 59 183.768 58.9697 183.707 58.909C183.647 58.8483 183.616 58.7703 183.616 58.675V50.225C183.616 50.1297 183.647 50.0517 183.707 49.991C183.768 49.9303 183.846 49.9 183.941 49.9H185.124C185.254 49.9 185.35 49.9303 185.41 49.991C185.471 50.0517 185.51 50.0993 185.527 50.134L188.998 55.555V50.225C188.998 50.1297 189.029 50.0517 189.089 49.991C189.15 49.9303 189.224 49.9 189.31 49.9H190.636C190.732 49.9 190.81 49.9303 190.87 49.991C190.931 50.0517 190.961 50.1297 190.961 50.225V58.675C190.961 58.7617 190.931 58.8397 190.87 58.909C190.81 58.9697 190.732 59 190.636 59H189.44C189.31 59 189.215 58.9697 189.154 58.909C189.102 58.8397 189.063 58.792 189.037 58.766L185.579 53.514V58.675C185.579 58.7703 185.549 58.8483 185.488 58.909C185.428 58.9697 185.35 59 185.254 59H183.941ZM195.211 59C195.116 59 195.038 58.9697 194.977 58.909C194.916 58.8483 194.886 58.7703 194.886 58.675V51.707H192.52C192.433 51.707 192.36 51.6767 192.299 51.616C192.238 51.5553 192.208 51.4817 192.208 51.395V50.225C192.208 50.1297 192.238 50.0517 192.299 49.991C192.36 49.9303 192.433 49.9 192.52 49.9H199.332C199.427 49.9 199.505 49.9303 199.566 49.991C199.627 50.0517 199.657 50.1297 199.657 50.225V51.395C199.657 51.4817 199.627 51.5553 199.566 51.616C199.505 51.6767 199.427 51.707 199.332 51.707H196.979V58.675C196.979 58.7703 196.949 58.8483 196.888 58.909C196.827 58.9697 196.749 59 196.654 59H195.211ZM201.232 59C201.137 59 201.059 58.9697 200.998 58.909C200.938 58.8483 200.907 58.7703 200.907 58.675V50.225C200.907 50.1297 200.938 50.0517 200.998 49.991C201.059 49.9303 201.137 49.9 201.232 49.9H204.677C205.761 49.9 206.614 50.1513 207.238 50.654C207.862 51.148 208.174 51.863 208.174 52.799C208.174 53.4317 208.023 53.9603 207.719 54.385C207.416 54.8097 207.009 55.126 206.497 55.334L208.33 58.584C208.356 58.636 208.369 58.6837 208.369 58.727C208.369 58.7963 208.343 58.8613 208.291 58.922C208.239 58.974 208.174 59 208.096 59H206.653C206.497 59 206.38 58.961 206.302 58.883C206.224 58.7963 206.168 58.7183 206.133 58.649L204.547 55.672H202.974V58.675C202.974 58.7703 202.944 58.8483 202.883 58.909C202.823 58.9697 202.745 59 202.649 59H201.232ZM202.974 54.021H204.638C205.115 54.021 205.466 53.9127 205.691 53.696C205.925 53.4793 206.042 53.176 206.042 52.786C206.042 52.396 205.93 52.0883 205.704 51.863C205.479 51.6377 205.124 51.525 204.638 51.525H202.974V54.021ZM209.236 59C209.158 59 209.093 58.974 209.041 58.922C208.989 58.8613 208.963 58.7963 208.963 58.727C208.963 58.6837 208.967 58.6447 208.976 58.61L212.07 50.251C212.096 50.1557 212.148 50.0733 212.226 50.004C212.304 49.9347 212.412 49.9 212.551 49.9H214.215C214.353 49.9 214.462 49.9347 214.54 50.004C214.618 50.0733 214.67 50.1557 214.696 50.251L217.79 58.61C217.798 58.6447 217.803 58.6837 217.803 58.727C217.803 58.7963 217.777 58.8613 217.725 58.922C217.673 58.974 217.608 59 217.53 59H216.178C216.048 59 215.952 58.9697 215.892 58.909C215.831 58.8483 215.792 58.792 215.775 58.74L215.216 57.284H211.55L210.991 58.74C210.973 58.792 210.934 58.8483 210.874 58.909C210.813 58.9697 210.718 59 210.588 59H209.236ZM212.031 55.607H214.722L213.383 51.863L212.031 55.607ZM222.346 59.13C221.531 59.13 220.838 58.9957 220.266 58.727C219.702 58.4497 219.265 58.051 218.953 57.531C218.641 57.0023 218.467 56.361 218.433 55.607C218.424 55.2517 218.42 54.8703 218.42 54.463C218.42 54.0557 218.424 53.6657 218.433 53.293C218.467 52.5477 218.641 51.915 218.953 51.395C219.273 50.8663 219.72 50.4633 220.292 50.186C220.864 49.9087 221.548 49.77 222.346 49.77C222.926 49.77 223.455 49.8437 223.932 49.991C224.408 50.1383 224.82 50.3507 225.167 50.628C225.513 50.9053 225.782 51.2303 225.973 51.603C226.163 51.9757 226.267 52.3917 226.285 52.851C226.285 52.929 226.254 52.994 226.194 53.046C226.142 53.098 226.077 53.124 225.999 53.124H224.517C224.413 53.124 224.33 53.098 224.27 53.046C224.209 52.994 224.161 52.9073 224.127 52.786C223.997 52.2747 223.78 51.9237 223.477 51.733C223.173 51.5423 222.796 51.447 222.346 51.447C221.808 51.447 221.384 51.5943 221.072 51.889C220.76 52.1837 220.591 52.6733 220.565 53.358C220.539 54.0687 220.539 54.7967 220.565 55.542C220.591 56.2267 220.76 56.7163 221.072 57.011C221.384 57.3057 221.808 57.453 222.346 57.453C222.796 57.453 223.173 57.3577 223.477 57.167C223.789 56.9677 224.005 56.6167 224.127 56.114C224.161 55.984 224.209 55.8973 224.27 55.854C224.33 55.802 224.413 55.776 224.517 55.776H225.999C226.077 55.776 226.142 55.802 226.194 55.854C226.254 55.906 226.285 55.971 226.285 56.049C226.267 56.5083 226.163 56.9243 225.973 57.297C225.782 57.6697 225.513 57.9947 225.167 58.272C224.82 58.5493 224.408 58.7617 223.932 58.909C223.455 59.0563 222.926 59.13 222.346 59.13ZM230.072 59C229.977 59 229.899 58.9697 229.838 58.909C229.778 58.8483 229.747 58.7703 229.747 58.675V51.707H227.381C227.295 51.707 227.221 51.6767 227.16 51.616C227.1 51.5553 227.069 51.4817 227.069 51.395V50.225C227.069 50.1297 227.1 50.0517 227.16 49.991C227.221 49.9303 227.295 49.9 227.381 49.9H234.193C234.289 49.9 234.367 49.9303 234.427 49.991C234.488 50.0517 234.518 50.1297 234.518 50.225V51.395C234.518 51.4817 234.488 51.5553 234.427 51.616C234.367 51.6767 234.289 51.707 234.193 51.707H231.84V58.675C231.84 58.7703 231.81 58.8483 231.749 58.909C231.689 58.9697 231.611 59 231.515 59H230.072Z" fill="#A0A0A5"/>
<path d="M255.5 78H144.5V80H255.5V78Z" fill="#CBC9CD" mask="url(#path-18-inside-6_905_2657)"/>
<mask id="path-21-inside-7_905_2657" fill="white">
<path d="M144.5 79H255.5V128H144.5V79Z"/>
</mask>
<path d="M144.5 79H255.5V128H144.5V79Z" fill="white"/>
<path d="M178.5 105.5V108.167C178.5 108.52 178.36 108.859 178.109 109.109C177.859 109.36 177.52 109.5 177.167 109.5H167.833C167.48 109.5 167.141 109.36 166.891 109.109C166.64 108.859 166.5 108.52 166.5 108.167V105.5" stroke="#5C1EE8" stroke-linecap="round" stroke-linejoin="round"/>
<path d="M169.167 102.167L172.5 105.5L175.833 102.167" stroke="#5C1EE8" stroke-linecap="round" stroke-linejoin="round"/>
<path d="M172.5 105.5V97.5" stroke="#5C1EE8" stroke-linecap="round" stroke-linejoin="round"/>
<path d="M255.5 127H144.5V129H255.5V127Z" fill="#CBC9CD" mask="url(#path-21-inside-7_905_2657)"/>
<mask id="path-26-inside-8_905_2657" fill="white">
<path d="M144.5 128H255.5V177H144.5V128Z"/>
</mask>
<path d="M144.5 128H255.5V177H144.5V128Z" fill="white"/>
<path d="M178.5 154.5V157.167C178.5 157.52 178.36 157.859 178.109 158.109C177.859 158.36 177.52 158.5 177.167 158.5H167.833C167.48 158.5 167.141 158.36 166.891 158.109C166.64 157.859 166.5 157.52 166.5 157.167V154.5" stroke="#5C1EE8" stroke-linecap="round" stroke-linejoin="round"/>
<path d="M169.167 151.167L172.5 154.5L175.833 151.167" stroke="#5C1EE8" stroke-linecap="round" stroke-linejoin="round"/>
<path d="M172.5 154.5V146.5" stroke="#5C1EE8" stroke-linecap="round" stroke-linejoin="round"/>
<path d="M255.5 176H144.5V178H255.5V176Z" fill="#CBC9CD" mask="url(#path-26-inside-8_905_2657)"/>
<mask id="path-31-inside-9_905_2657" fill="white">
<path d="M144.5 177H255.5V226H144.5V177Z"/>
</mask>
<path d="M144.5 177H255.5V226H144.5V177Z" fill="white"/>
<path d="M178.5 203.5V206.167C178.5 206.52 178.36 206.859 178.109 207.109C177.859 207.36 177.52 207.5 177.167 207.5H167.833C167.48 207.5 167.141 207.36 166.891 207.109C166.64 206.859 166.5 206.52 166.5 206.167V203.5" stroke="#5C1EE8" stroke-linecap="round" stroke-linejoin="round"/>
<path d="M169.167 200.167L172.5 203.5L175.833 200.167" stroke="#5C1EE8" stroke-linecap="round" stroke-linejoin="round"/>
<path d="M172.5 203.5V195.5" stroke="#5C1EE8" stroke-linecap="round" stroke-linejoin="round"/>
<path d="M255.5 225H144.5V227H255.5V225Z" fill="#CBC9CD" mask="url(#path-31-inside-9_905_2657)"/>
<mask id="path-36-inside-10_905_2657" fill="white">
<path d="M255.5 30H343.5V79H255.5V30Z"/>
</mask>
<path d="M255.5 30H343.5V79H255.5V30Z" fill="white"/>
<rect x="275.5" y="46" width="48" height="17" rx="5" fill="#F2F2F6"/>
<path d="M343.5 78H255.5V80H343.5V78Z" fill="#CBC9CD" mask="url(#path-36-inside-10_905_2657)"/>
<mask id="path-39-inside-11_905_2657" fill="white">
<path d="M255.5 79H343.5V128H255.5V79Z"/>
</mask>
<path d="M255.5 79H343.5V128H255.5V79Z" fill="white"/>
<rect x="275.5" y="95" width="48" height="17" rx="5" fill="#F2F2F6"/>
<path d="M343.5 127H255.5V129H343.5V127Z" fill="#CBC9CD" mask="url(#path-39-inside-11_905_2657)"/>
<mask id="path-42-inside-12_905_2657" fill="white">
<path d="M255.5 128H343.5V177H255.5V128Z"/>
</mask>
<path d="M255.5 128H343.5V177H255.5V128Z" fill="white"/>
<rect x="275.5" y="144" width="48" height="17" rx="5" fill="#F2F2F6"/>
<path d="M343.5 176H255.5V178H343.5V176Z" fill="#CBC9CD" mask="url(#path-42-inside-12_905_2657)"/>
<mask id="path-45-inside-13_905_2657" fill="white">
<path d="M255.5 177H343.5V226H255.5V177Z"/>
</mask>
<path d="M255.5 177H343.5V226H255.5V177Z" fill="white"/>
<rect x="275.5" y="193" width="48" height="17" rx="5" fill="#F2F2F6"/>
<path d="M343.5 225H255.5V227H343.5V225Z" fill="#CBC9CD" mask="url(#path-45-inside-13_905_2657)"/>
</g>
<path d="M1 256V0H-1V256H1Z" fill="#EAEAEF" mask="url(#path-1-inside-1_905_2657)"/>
<defs>
<filter id="filter0_d_905_2657" x="36.5" y="20" width="327" height="236" filterUnits="userSpaceOnUse" color-interpolation-filters="sRGB">
<feFlood flood-opacity="0" result="BackgroundImageFix"/>
<feColorMatrix in="SourceAlpha" type="matrix" values="0 0 0 0 0 0 0 0 0 0 0 0 0 0 0 0 0 0 127 0" result="hardAlpha"/>
<feOffset dy="10"/>
<feGaussianBlur stdDeviation="10"/>
<feComposite in2="hardAlpha" operator="out"/>
<feColorMatrix type="matrix" values="0 0 0 0 0.117647 0 0 0 0 0.117647 0 0 0 0 0.117647 0 0 0 0.12 0"/>
<feBlend mode="normal" in2="BackgroundImageFix" result="effect1_dropShadow_905_2657"/>
<feBlend mode="normal" in="SourceGraphic" in2="effect1_dropShadow_905_2657" result="shape"/>
</filter>
</defs>
</svg>
