<svg width="400" height="256" viewBox="0 0 400 256" fill="none" xmlns="http://www.w3.org/2000/svg">
<mask id="path-1-inside-1_905_3746" fill="white">
<path d="M0 0H400V256H0V0Z"/>
</mask>
<path d="M0 0H400V256H0V0Z" fill="#F5F7F9"/>
<g filter="url(#filter0_d_905_3746)">
<mask id="path-4-inside-2_905_3746" fill="white">
<path d="M72 30H160V79H72V30Z"/>
</mask>
<path d="M72 30H160V79H72V30Z" fill="white"/>
<rect x="92" y="46" width="48" height="17" rx="5" fill="#F2F2F6"/>
<path d="M160 78H72V80H160V78Z" fill="#CBC9CD" mask="url(#path-4-inside-2_905_3746)"/>
<mask id="path-7-inside-3_905_3746" fill="white">
<path d="M72 79H160V128H72V79Z"/>
</mask>
<path d="M72 79H160V128H72V79Z" fill="white"/>
<rect x="92" y="95" width="48" height="17" rx="5" fill="#F2F2F6"/>
<path d="M160 127H72V129H160V127Z" fill="#CBC9CD" mask="url(#path-7-inside-3_905_3746)"/>
<mask id="path-10-inside-4_905_3746" fill="white">
<path d="M72 128H160V177H72V128Z"/>
</mask>
<path d="M72 128H160V177H72V128Z" fill="white"/>
<rect x="92" y="144" width="48" height="17" rx="5" fill="#F2F2F6"/>
<path d="M160 176H72V178H160V176Z" fill="#CBC9CD" mask="url(#path-10-inside-4_905_3746)"/>
<mask id="path-13-inside-5_905_3746" fill="white">
<path d="M72 177H160V226H72V177Z"/>
</mask>
<path d="M72 177H160V226H72V177Z" fill="white"/>
<rect x="92" y="193" width="48" height="17" rx="5" fill="#F2F2F6"/>
<path d="M160 225H72V227H160V225Z" fill="#CBC9CD" mask="url(#path-13-inside-5_905_3746)"/>
<mask id="path-16-inside-6_905_3746" fill="white">
<path d="M160 30H240V79H160V30Z"/>
</mask>
<path d="M160 30H240V79H160V30Z" fill="white"/>
<path d="M181.287 59C181.192 59 181.114 58.9697 181.053 58.909C180.992 58.8483 180.962 58.7703 180.962 58.675V50.225C180.962 50.1297 180.992 50.0517 181.053 49.991C181.114 49.9303 181.192 49.9 181.287 49.9H182.47C182.6 49.9 182.695 49.9303 182.756 49.991C182.817 50.0517 182.856 50.0993 182.873 50.134L186.344 55.555V50.225C186.344 50.1297 186.374 50.0517 186.435 49.991C186.496 49.9303 186.569 49.9 186.656 49.9H187.982C188.077 49.9 188.155 49.9303 188.216 49.991C188.277 50.0517 188.307 50.1297 188.307 50.225V58.675C188.307 58.7617 188.277 58.8397 188.216 58.909C188.155 58.9697 188.077 59 187.982 59H186.786C186.656 59 186.561 58.9697 186.5 58.909C186.448 58.8397 186.409 58.792 186.383 58.766L182.925 53.514V58.675C182.925 58.7703 182.895 58.8483 182.834 58.909C182.773 58.9697 182.695 59 182.6 59H181.287ZM189.697 59C189.619 59 189.554 58.974 189.502 58.922C189.45 58.8613 189.424 58.7963 189.424 58.727C189.424 58.6837 189.428 58.6447 189.437 58.61L192.531 50.251C192.557 50.1557 192.609 50.0733 192.687 50.004C192.765 49.9347 192.873 49.9 193.012 49.9H194.676C194.814 49.9 194.923 49.9347 195.001 50.004C195.079 50.0733 195.131 50.1557 195.157 50.251L198.251 58.61C198.259 58.6447 198.264 58.6837 198.264 58.727C198.264 58.7963 198.238 58.8613 198.186 58.922C198.134 58.974 198.069 59 197.991 59H196.639C196.509 59 196.413 58.9697 196.353 58.909C196.292 58.8483 196.253 58.792 196.236 58.74L195.677 57.284H192.011L191.452 58.74C191.434 58.792 191.395 58.8483 191.335 58.909C191.274 58.9697 191.179 59 191.049 59H189.697ZM192.492 55.607H195.183L193.844 51.863L192.492 55.607ZM199.708 59C199.621 59 199.543 58.9697 199.474 58.909C199.413 58.8483 199.383 58.7703 199.383 58.675V50.225C199.383 50.1297 199.413 50.0517 199.474 49.991C199.543 49.9303 199.621 49.9 199.708 49.9H200.917C201.047 49.9 201.142 49.9347 201.203 50.004C201.272 50.0733 201.32 50.1253 201.346 50.16L203.738 54.567L206.156 50.16C206.173 50.1253 206.212 50.0733 206.273 50.004C206.342 49.9347 206.442 49.9 206.572 49.9H207.781C207.876 49.9 207.954 49.9303 208.015 49.991C208.076 50.0517 208.106 50.1297 208.106 50.225V58.675C208.106 58.7703 208.076 58.8483 208.015 58.909C207.954 58.9697 207.876 59 207.781 59H206.455C206.368 59 206.295 58.9697 206.234 58.909C206.173 58.8483 206.143 58.7703 206.143 58.675V53.423L204.492 56.517C204.449 56.595 204.392 56.6643 204.323 56.725C204.254 56.7857 204.163 56.816 204.05 56.816H203.439C203.326 56.816 203.235 56.7857 203.166 56.725C203.097 56.6643 203.04 56.595 202.997 56.517L201.346 53.423V58.675C201.346 58.7703 201.316 58.8483 201.255 58.909C201.194 58.9697 201.121 59 201.034 59H199.708ZM210.359 59C210.264 59 210.186 58.9697 210.125 58.909C210.065 58.8483 210.034 58.7703 210.034 58.675V50.225C210.034 50.1297 210.065 50.0517 210.125 49.991C210.186 49.9303 210.264 49.9 210.359 49.9H216.248C216.344 49.9 216.422 49.9303 216.482 49.991C216.543 50.0517 216.573 50.1297 216.573 50.225V51.265C216.573 51.3517 216.543 51.4253 216.482 51.486C216.422 51.5467 216.344 51.577 216.248 51.577H212.036V53.618H215.962C216.058 53.618 216.136 53.6483 216.196 53.709C216.257 53.7697 216.287 53.8477 216.287 53.943V54.905C216.287 54.9917 216.257 55.0653 216.196 55.126C216.136 55.1867 216.058 55.217 215.962 55.217H212.036V57.323H216.352C216.448 57.323 216.526 57.3533 216.586 57.414C216.647 57.4747 216.677 57.5527 216.677 57.648V58.675C216.677 58.7703 216.647 58.8483 216.586 58.909C216.526 58.9697 216.448 59 216.352 59H210.359Z" fill="#A0A0A5"/>
<path d="M240 78H160V80H240V78Z" fill="#CBC9CD" mask="url(#path-16-inside-6_905_3746)"/>
<mask id="path-19-inside-7_905_3746" fill="white">
<path d="M160 79H240V128H160V79Z"/>
</mask>
<path d="M160 79H240V128H160V79Z" fill="white"/>
<path d="M181.43 108C181.343 108 181.27 107.974 181.209 107.922C181.157 107.861 181.131 107.788 181.131 107.701V99.212C181.131 99.1167 181.157 99.043 181.209 98.991C181.27 98.9303 181.343 98.9 181.43 98.9H182.028C182.184 98.9 182.292 98.9607 182.353 99.082L186.669 105.712V99.212C186.669 99.1167 186.695 99.043 186.747 98.991C186.808 98.9303 186.881 98.9 186.968 98.9H187.592C187.687 98.9 187.761 98.9303 187.813 98.991C187.874 99.043 187.904 99.1167 187.904 99.212V107.688C187.904 107.775 187.874 107.848 187.813 107.909C187.761 107.97 187.692 108 187.605 108H186.981C186.851 108 186.747 107.939 186.669 107.818L182.366 101.253V107.701C182.366 107.788 182.336 107.861 182.275 107.922C182.214 107.974 182.141 108 182.054 108H181.43ZM192.705 108.13C191.812 108.13 191.097 107.857 190.56 107.311C190.031 106.756 189.741 106.002 189.689 105.049L189.676 104.607L189.689 104.178C189.75 103.242 190.044 102.497 190.573 101.942C191.11 101.387 191.817 101.11 192.692 101.11C193.654 101.11 194.399 101.418 194.928 102.033C195.457 102.64 195.721 103.463 195.721 104.503V104.724C195.721 104.811 195.691 104.884 195.63 104.945C195.578 104.997 195.509 105.023 195.422 105.023H190.924V105.14C190.95 105.703 191.119 106.184 191.431 106.583C191.752 106.973 192.172 107.168 192.692 107.168C193.091 107.168 193.416 107.09 193.667 106.934C193.927 106.769 194.118 106.6 194.239 106.427C194.317 106.323 194.373 106.262 194.408 106.245C194.451 106.219 194.525 106.206 194.629 106.206H195.266C195.344 106.206 195.409 106.228 195.461 106.271C195.513 106.314 195.539 106.375 195.539 106.453C195.539 106.644 195.418 106.873 195.175 107.142C194.941 107.411 194.607 107.645 194.174 107.844C193.749 108.035 193.26 108.13 192.705 108.13ZM194.486 104.126V104.087C194.486 103.489 194.321 103.004 193.992 102.631C193.671 102.25 193.238 102.059 192.692 102.059C192.146 102.059 191.713 102.25 191.392 102.631C191.08 103.004 190.924 103.489 190.924 104.087V104.126H194.486ZM197.574 108C197.488 108 197.414 107.974 197.353 107.922C197.301 107.861 197.275 107.788 197.275 107.701V101.552C197.275 101.465 197.301 101.392 197.353 101.331C197.414 101.27 197.488 101.24 197.574 101.24H198.172C198.259 101.24 198.333 101.27 198.393 101.331C198.454 101.392 198.484 101.465 198.484 101.552V102.124C198.84 101.535 199.446 101.24 200.304 101.24H200.811C200.898 101.24 200.967 101.27 201.019 101.331C201.08 101.383 201.11 101.452 201.11 101.539V102.072C201.11 102.159 201.08 102.228 201.019 102.28C200.967 102.332 200.898 102.358 200.811 102.358H200.031C199.563 102.358 199.195 102.497 198.926 102.774C198.658 103.043 198.523 103.411 198.523 103.879V107.701C198.523 107.788 198.493 107.861 198.432 107.922C198.372 107.974 198.298 108 198.211 108H197.574ZM204.856 108.13C203.903 108.13 203.162 107.861 202.633 107.324C202.113 106.787 201.836 106.072 201.801 105.179L201.788 104.62L201.801 104.061C201.836 103.177 202.117 102.466 202.646 101.929C203.175 101.383 203.911 101.11 204.856 101.11C205.801 101.11 206.537 101.383 207.066 101.929C207.595 102.466 207.876 103.177 207.911 104.061C207.92 104.156 207.924 104.343 207.924 104.62C207.924 104.897 207.92 105.084 207.911 105.179C207.876 106.072 207.595 106.787 207.066 107.324C206.546 107.861 205.809 108.13 204.856 108.13ZM204.856 107.129C205.402 107.129 205.831 106.956 206.143 106.609C206.464 106.262 206.637 105.764 206.663 105.114C206.672 105.027 206.676 104.863 206.676 104.62C206.676 104.377 206.672 104.213 206.663 104.126C206.637 103.476 206.464 102.978 206.143 102.631C205.831 102.284 205.402 102.111 204.856 102.111C204.31 102.111 203.877 102.284 203.556 102.631C203.235 102.978 203.066 103.476 203.049 104.126L203.036 104.62L203.049 105.114C203.066 105.764 203.235 106.262 203.556 106.609C203.877 106.956 204.31 107.129 204.856 107.129Z" fill="#303032"/>
<path d="M240 127H160V129H240V127Z" fill="#CBC9CD" mask="url(#path-19-inside-7_905_3746)"/>
<mask id="path-22-inside-8_905_3746" fill="white">
<path d="M160 128H240V177H160V128Z"/>
</mask>
<path d="M160 128H240V177H160V128Z" fill="white"/>
<path d="M181.43 157C181.343 157 181.27 156.974 181.209 156.922C181.157 156.861 181.131 156.788 181.131 156.701V148.212C181.131 148.117 181.157 148.043 181.209 147.991C181.27 147.93 181.343 147.9 181.43 147.9H182.08C182.219 147.9 182.331 147.969 182.418 148.108L185.161 153.36L187.93 148.108C187.947 148.056 187.982 148.008 188.034 147.965C188.095 147.922 188.168 147.9 188.255 147.9H188.892C188.987 147.9 189.061 147.93 189.113 147.991C189.174 148.043 189.204 148.117 189.204 148.212V156.701C189.204 156.788 189.174 156.861 189.113 156.922C189.052 156.974 188.979 157 188.892 157H188.255C188.168 157 188.095 156.974 188.034 156.922C187.982 156.861 187.956 156.788 187.956 156.701V150.305L185.785 154.543C185.698 154.725 185.56 154.816 185.369 154.816H184.966C184.775 154.816 184.637 154.725 184.55 154.543L182.366 150.305V156.701C182.366 156.788 182.336 156.861 182.275 156.922C182.223 156.974 182.154 157 182.067 157H181.43ZM193.168 157.13C192.744 157.13 192.349 157.043 191.985 156.87C191.621 156.697 191.331 156.463 191.114 156.168C190.906 155.865 190.802 155.531 190.802 155.167C190.802 154.595 191.036 154.127 191.504 153.763C191.981 153.39 192.622 153.148 193.428 153.035L195.365 152.762V152.385C195.365 151.501 194.858 151.059 193.844 151.059C193.463 151.059 193.151 151.141 192.908 151.306C192.666 151.462 192.484 151.648 192.362 151.865C192.336 151.943 192.302 151.999 192.258 152.034C192.224 152.069 192.172 152.086 192.102 152.086H191.543C191.465 152.086 191.396 152.06 191.335 152.008C191.283 151.947 191.257 151.878 191.257 151.8C191.266 151.592 191.361 151.358 191.543 151.098C191.734 150.829 192.024 150.6 192.414 150.409C192.804 150.21 193.285 150.11 193.857 150.11C194.828 150.11 195.526 150.34 195.95 150.799C196.375 151.25 196.587 151.813 196.587 152.489V156.701C196.587 156.788 196.557 156.861 196.496 156.922C196.444 156.974 196.375 157 196.288 157H195.69C195.604 157 195.53 156.974 195.469 156.922C195.417 156.861 195.391 156.788 195.391 156.701V156.142C195.201 156.419 194.923 156.653 194.559 156.844C194.195 157.035 193.732 157.13 193.168 157.13ZM193.441 156.155C194.005 156.155 194.464 155.973 194.819 155.609C195.183 155.236 195.365 154.703 195.365 154.01V153.646L193.857 153.867C193.242 153.954 192.778 154.101 192.466 154.309C192.154 154.508 191.998 154.764 191.998 155.076C191.998 155.423 192.141 155.691 192.427 155.882C192.713 156.064 193.051 156.155 193.441 156.155ZM198.768 157C198.681 157 198.608 156.974 198.547 156.922C198.495 156.861 198.469 156.788 198.469 156.701V148.069C198.469 147.982 198.495 147.913 198.547 147.861C198.608 147.8 198.681 147.77 198.768 147.77H199.379C199.466 147.77 199.535 147.8 199.587 147.861C199.648 147.913 199.678 147.982 199.678 148.069V156.701C199.678 156.788 199.648 156.861 199.587 156.922C199.535 156.974 199.466 157 199.379 157H198.768ZM201.812 148.979C201.726 148.979 201.652 148.953 201.591 148.901C201.539 148.84 201.513 148.767 201.513 148.68V147.978C201.513 147.891 201.539 147.818 201.591 147.757C201.652 147.696 201.726 147.666 201.812 147.666H202.631C202.718 147.666 202.792 147.696 202.852 147.757C202.913 147.818 202.943 147.891 202.943 147.978V148.68C202.943 148.767 202.913 148.84 202.852 148.901C202.792 148.953 202.718 148.979 202.631 148.979H201.812ZM201.916 157C201.83 157 201.756 156.974 201.695 156.922C201.643 156.861 201.617 156.788 201.617 156.701V150.539C201.617 150.452 201.643 150.383 201.695 150.331C201.756 150.27 201.83 150.24 201.916 150.24H202.54C202.627 150.24 202.696 150.27 202.748 150.331C202.809 150.383 202.839 150.452 202.839 150.539V156.701C202.839 156.788 202.809 156.861 202.748 156.922C202.696 156.974 202.627 157 202.54 157H201.916ZM208.107 157.13C207.171 157.13 206.46 156.805 205.975 156.155V156.701C205.975 156.788 205.944 156.861 205.884 156.922C205.832 156.974 205.762 157 205.676 157H205.078C204.991 157 204.917 156.974 204.857 156.922C204.805 156.861 204.779 156.788 204.779 156.701V148.069C204.779 147.982 204.805 147.913 204.857 147.861C204.917 147.8 204.991 147.77 205.078 147.77H205.715C205.801 147.77 205.871 147.8 205.923 147.861C205.975 147.913 206.001 147.982 206.001 148.069V151.059C206.512 150.426 207.214 150.11 208.107 150.11C209.008 150.11 209.688 150.409 210.148 151.007C210.607 151.596 210.854 152.337 210.889 153.23C210.897 153.325 210.902 153.455 210.902 153.62C210.902 153.785 210.897 153.915 210.889 154.01C210.854 154.911 210.607 155.657 210.148 156.246C209.688 156.835 209.008 157.13 208.107 157.13ZM207.834 156.077C208.449 156.077 208.895 155.886 209.173 155.505C209.459 155.124 209.615 154.621 209.641 153.997C209.649 153.91 209.654 153.785 209.654 153.62C209.654 151.982 209.047 151.163 207.834 151.163C207.253 151.163 206.807 151.354 206.495 151.735C206.183 152.116 206.018 152.563 206.001 153.074L205.988 153.581L206.001 154.075C206.027 154.621 206.187 155.093 206.482 155.492C206.785 155.882 207.236 156.077 207.834 156.077ZM215.019 157.13C214.196 157.13 213.559 156.866 213.108 156.337C212.657 155.8 212.432 155.089 212.432 154.205V150.539C212.432 150.452 212.458 150.383 212.51 150.331C212.571 150.27 212.644 150.24 212.731 150.24H213.381C213.468 150.24 213.537 150.27 213.589 150.331C213.65 150.383 213.68 150.452 213.68 150.539V154.14C213.68 155.431 214.243 156.077 215.37 156.077C215.916 156.077 216.349 155.908 216.67 155.57C216.991 155.223 217.151 154.747 217.151 154.14V150.539C217.151 150.452 217.177 150.383 217.229 150.331C217.29 150.27 217.363 150.24 217.45 150.24H218.1C218.187 150.24 218.256 150.27 218.308 150.331C218.36 150.383 218.386 150.452 218.386 150.539V156.701C218.386 156.788 218.36 156.861 218.308 156.922C218.256 156.974 218.187 157 218.1 157H217.489C217.402 157 217.329 156.974 217.268 156.922C217.216 156.861 217.19 156.788 217.19 156.701V156.129C216.947 156.458 216.653 156.71 216.306 156.883C215.959 157.048 215.53 157.13 215.019 157.13Z" fill="#303032"/>
<path d="M240 176H160V178H240V176Z" fill="#CBC9CD" mask="url(#path-22-inside-8_905_3746)"/>
<mask id="path-25-inside-9_905_3746" fill="white">
<path d="M160 177H240V226H160V177Z"/>
</mask>
<path d="M160 177H240V226H160V177Z" fill="white"/>
<path d="M181.43 206C181.343 206 181.27 205.974 181.209 205.922C181.157 205.861 181.131 205.788 181.131 205.701V197.212C181.131 197.117 181.157 197.043 181.209 196.991C181.27 196.93 181.343 196.9 181.43 196.9H182.028C182.184 196.9 182.292 196.961 182.353 197.082L186.669 203.712V197.212C186.669 197.117 186.695 197.043 186.747 196.991C186.808 196.93 186.881 196.9 186.968 196.9H187.592C187.687 196.9 187.761 196.93 187.813 196.991C187.874 197.043 187.904 197.117 187.904 197.212V205.688C187.904 205.775 187.874 205.848 187.813 205.909C187.761 205.97 187.692 206 187.605 206H186.981C186.851 206 186.747 205.939 186.669 205.818L182.366 199.253V205.701C182.366 205.788 182.336 205.861 182.275 205.922C182.214 205.974 182.141 206 182.054 206H181.43ZM191.886 206.13C191.461 206.13 191.067 206.043 190.703 205.87C190.339 205.697 190.049 205.463 189.832 205.168C189.624 204.865 189.52 204.531 189.52 204.167C189.52 203.595 189.754 203.127 190.222 202.763C190.699 202.39 191.34 202.148 192.146 202.035L194.083 201.762V201.385C194.083 200.501 193.576 200.059 192.562 200.059C192.181 200.059 191.869 200.141 191.626 200.306C191.383 200.462 191.201 200.648 191.08 200.865C191.054 200.943 191.019 200.999 190.976 201.034C190.941 201.069 190.889 201.086 190.82 201.086H190.261C190.183 201.086 190.114 201.06 190.053 201.008C190.001 200.947 189.975 200.878 189.975 200.8C189.984 200.592 190.079 200.358 190.261 200.098C190.452 199.829 190.742 199.6 191.132 199.409C191.522 199.21 192.003 199.11 192.575 199.11C193.546 199.11 194.243 199.34 194.668 199.799C195.093 200.25 195.305 200.813 195.305 201.489V205.701C195.305 205.788 195.275 205.861 195.214 205.922C195.162 205.974 195.093 206 195.006 206H194.408C194.321 206 194.248 205.974 194.187 205.922C194.135 205.861 194.109 205.788 194.109 205.701V205.142C193.918 205.419 193.641 205.653 193.277 205.844C192.913 206.035 192.449 206.13 191.886 206.13ZM192.159 205.155C192.722 205.155 193.182 204.973 193.537 204.609C193.901 204.236 194.083 203.703 194.083 203.01V202.646L192.575 202.867C191.96 202.954 191.496 203.101 191.184 203.309C190.872 203.508 190.716 203.764 190.716 204.076C190.716 204.423 190.859 204.691 191.145 204.882C191.431 205.064 191.769 205.155 192.159 205.155ZM197.486 206C197.399 206 197.326 205.974 197.265 205.922C197.213 205.861 197.187 205.788 197.187 205.701V197.069C197.187 196.982 197.213 196.913 197.265 196.861C197.326 196.8 197.399 196.77 197.486 196.77H198.097C198.184 196.77 198.253 196.8 198.305 196.861C198.366 196.913 198.396 196.982 198.396 197.069V205.701C198.396 205.788 198.366 205.861 198.305 205.922C198.253 205.974 198.184 206 198.097 206H197.486ZM202.22 206.13C201.795 206.13 201.401 206.043 201.037 205.87C200.673 205.697 200.383 205.463 200.166 205.168C199.958 204.865 199.854 204.531 199.854 204.167C199.854 203.595 200.088 203.127 200.556 202.763C201.033 202.39 201.674 202.148 202.48 202.035L204.417 201.762V201.385C204.417 200.501 203.91 200.059 202.896 200.059C202.515 200.059 202.203 200.141 201.96 200.306C201.717 200.462 201.535 200.648 201.414 200.865C201.388 200.943 201.353 200.999 201.31 201.034C201.275 201.069 201.223 201.086 201.154 201.086H200.595C200.517 201.086 200.448 201.06 200.387 201.008C200.335 200.947 200.309 200.878 200.309 200.8C200.318 200.592 200.413 200.358 200.595 200.098C200.786 199.829 201.076 199.6 201.466 199.409C201.856 199.21 202.337 199.11 202.909 199.11C203.88 199.11 204.577 199.34 205.002 199.799C205.427 200.25 205.639 200.813 205.639 201.489V205.701C205.639 205.788 205.609 205.861 205.548 205.922C205.496 205.974 205.427 206 205.34 206H204.742C204.655 206 204.582 205.974 204.521 205.922C204.469 205.861 204.443 205.788 204.443 205.701V205.142C204.252 205.419 203.975 205.653 203.611 205.844C203.247 206.035 202.783 206.13 202.22 206.13ZM202.493 205.155C203.056 205.155 203.516 204.973 203.871 204.609C204.235 204.236 204.417 203.703 204.417 203.01V202.646L202.909 202.867C202.294 202.954 201.83 203.101 201.518 203.309C201.206 203.508 201.05 203.764 201.05 204.076C201.05 204.423 201.193 204.691 201.479 204.882C201.765 205.064 202.103 205.155 202.493 205.155Z" fill="#303032"/>
<path d="M240 225H160V227H240V225Z" fill="#CBC9CD" mask="url(#path-25-inside-9_905_3746)"/>
<mask id="path-28-inside-10_905_3746" fill="white">
<path d="M240 30H328V79H240V30Z"/>
</mask>
<path d="M240 30H328V79H240V30Z" fill="white"/>
<rect x="260" y="46" width="48" height="17" rx="5" fill="#F2F2F6"/>
<path d="M328 78H240V80H328V78Z" fill="#CBC9CD" mask="url(#path-28-inside-10_905_3746)"/>
<mask id="path-31-inside-11_905_3746" fill="white">
<path d="M240 79H328V128H240V79Z"/>
</mask>
<path d="M240 79H328V128H240V79Z" fill="white"/>
<rect x="260" y="95" width="48" height="17" rx="5" fill="#F2F2F6"/>
<path d="M328 127H240V129H328V127Z" fill="#CBC9CD" mask="url(#path-31-inside-11_905_3746)"/>
<mask id="path-34-inside-12_905_3746" fill="white">
<path d="M240 128H328V177H240V128Z"/>
</mask>
<path d="M240 128H328V177H240V128Z" fill="white"/>
<rect x="260" y="144" width="48" height="17" rx="5" fill="#F2F2F6"/>
<path d="M328 176H240V178H328V176Z" fill="#CBC9CD" mask="url(#path-34-inside-12_905_3746)"/>
<mask id="path-37-inside-13_905_3746" fill="white">
<path d="M240 177H328V226H240V177Z"/>
</mask>
<path d="M240 177H328V226H240V177Z" fill="white"/>
<rect x="260" y="193" width="48" height="17" rx="5" fill="#F2F2F6"/>
<path d="M328 225H240V227H328V225Z" fill="#CBC9CD" mask="url(#path-37-inside-13_905_3746)"/>
</g>
<path d="M1 256V0H-1V256H1Z" fill="#EAEAEF" mask="url(#path-1-inside-1_905_3746)"/>
<path d="M0.5 0.5H62.5V17C62.5 18.933 60.933 20.5 59 20.5H0.5V0.5Z" fill="#F5F7F9"/>
<path d="M13.122 14C13.0487 14 12.9863 13.9743 12.935 13.923C12.8837 13.8717 12.858 13.8093 12.858 13.736V6.575C12.858 6.49433 12.88 6.42833 12.924 6.377C12.9753 6.32567 13.0413 6.3 13.122 6.3H15.806C17.962 6.3 19.062 7.29733 19.106 9.292C19.1207 9.71733 19.128 10.0033 19.128 10.15C19.128 10.2893 19.1207 10.5717 19.106 10.997C19.0767 12.0237 18.8017 12.7827 18.281 13.274C17.7603 13.758 16.9537 14 15.861 14H13.122ZM15.806 12.735C16.422 12.735 16.8657 12.5993 17.137 12.328C17.4083 12.0493 17.5513 11.5947 17.566 10.964C17.5807 10.524 17.588 10.249 17.588 10.139C17.588 10.0217 17.5807 9.75033 17.566 9.325C17.5513 8.72367 17.3973 8.28 17.104 7.994C16.818 7.708 16.367 7.565 15.751 7.565H14.387V12.735H15.806ZM20.6804 7.334C20.607 7.334 20.5447 7.30833 20.4934 7.257C20.442 7.20567 20.4164 7.14333 20.4164 7.07V6.278C20.4164 6.20467 20.442 6.14233 20.4934 6.091C20.5447 6.03967 20.607 6.014 20.6804 6.014H21.6814C21.7547 6.014 21.817 6.03967 21.8684 6.091C21.927 6.14233 21.9564 6.20467 21.9564 6.278V7.07C21.9564 7.14333 21.9307 7.20567 21.8794 7.257C21.828 7.30833 21.762 7.334 21.6814 7.334H20.6804ZM20.7244 14C20.651 14 20.5887 13.9743 20.5374 13.923C20.486 13.8717 20.4604 13.8093 20.4604 13.736V8.544C20.4604 8.47067 20.486 8.40833 20.5374 8.357C20.5887 8.30567 20.651 8.28 20.7244 8.28H21.6374C21.718 8.28 21.7804 8.30567 21.8244 8.357C21.8757 8.401 21.9014 8.46333 21.9014 8.544V13.736C21.9014 13.8093 21.8757 13.8717 21.8244 13.923C21.7804 13.9743 21.718 14 21.6374 14H20.7244ZM25.5278 14.11C24.9778 14.11 24.5158 14.0293 24.1418 13.868C23.7678 13.6993 23.4891 13.505 23.3058 13.285C23.1298 13.0577 23.0418 12.8633 23.0418 12.702C23.0418 12.6287 23.0674 12.57 23.1188 12.526C23.1701 12.482 23.2288 12.46 23.2948 12.46H24.1638C24.2298 12.46 24.2848 12.4857 24.3288 12.537C24.3581 12.559 24.4351 12.625 24.5598 12.735C24.6844 12.8523 24.8311 12.944 24.9998 13.01C25.1684 13.076 25.3554 13.109 25.5608 13.109C25.8541 13.109 26.0961 13.0503 26.2868 12.933C26.4774 12.8157 26.5728 12.6543 26.5728 12.449C26.5728 12.295 26.5288 12.1703 26.4408 12.075C26.3601 11.9797 26.2098 11.8953 25.9898 11.822C25.7698 11.7413 25.4434 11.657 25.0108 11.569C24.3874 11.437 23.9254 11.2353 23.6248 10.964C23.3314 10.6927 23.1848 10.3333 23.1848 9.886C23.1848 9.59267 23.2728 9.31767 23.4488 9.061C23.6248 8.797 23.8851 8.58433 24.2298 8.423C24.5818 8.25433 24.9998 8.17 25.4838 8.17C25.9751 8.17 26.4004 8.25067 26.7598 8.412C27.1191 8.566 27.3904 8.753 27.5738 8.973C27.7644 9.18567 27.8598 9.37633 27.8598 9.545C27.8598 9.611 27.8341 9.66967 27.7828 9.721C27.7388 9.765 27.6838 9.787 27.6178 9.787H26.8038C26.7451 9.787 26.6828 9.76133 26.6168 9.71C26.5654 9.67333 26.4848 9.60367 26.3748 9.501C26.2648 9.39833 26.1364 9.31767 25.9898 9.259C25.8431 9.20033 25.6708 9.171 25.4728 9.171C25.2014 9.171 24.9888 9.22967 24.8348 9.347C24.6881 9.46433 24.6148 9.61833 24.6148 9.809C24.6148 9.94833 24.6514 10.062 24.7248 10.15C24.7981 10.238 24.9411 10.3223 25.1538 10.403C25.3664 10.4837 25.6854 10.5643 26.1108 10.645C26.8148 10.7843 27.3171 11.0007 27.6178 11.294C27.9258 11.5873 28.0798 11.9467 28.0798 12.372C28.0798 12.8853 27.8561 13.3033 27.4088 13.626C26.9614 13.9487 26.3344 14.11 25.5278 14.11ZM29.4903 16.09C29.4169 16.09 29.3546 16.0643 29.3033 16.013C29.2519 15.969 29.2263 15.9067 29.2263 15.826V8.544C29.2263 8.46333 29.2519 8.401 29.3033 8.357C29.3546 8.30567 29.4169 8.28 29.4903 8.28H30.3593C30.4399 8.28 30.5023 8.30567 30.5463 8.357C30.5976 8.401 30.6233 8.46333 30.6233 8.544V8.984C31.0339 8.44133 31.6206 8.17 32.3833 8.17C33.1239 8.17 33.6923 8.40467 34.0883 8.874C34.4843 9.336 34.6969 9.963 34.7263 10.755C34.7336 10.843 34.7373 10.9713 34.7373 11.14C34.7373 11.316 34.7336 11.448 34.7263 11.536C34.6969 12.306 34.4843 12.9293 34.0883 13.406C33.6923 13.8753 33.1239 14.11 32.3833 14.11C31.6426 14.11 31.0779 13.8497 30.6893 13.329V15.826C30.6893 15.9067 30.6636 15.969 30.6123 16.013C30.5683 16.0643 30.5059 16.09 30.4253 16.09H29.4903ZM31.9763 12.933C32.7683 12.933 33.1899 12.4453 33.2413 11.47C33.2486 11.3967 33.2523 11.2867 33.2523 11.14C33.2523 10.9933 33.2486 10.8833 33.2413 10.81C33.1899 9.83467 32.7683 9.347 31.9763 9.347C31.5509 9.347 31.2356 9.48267 31.0303 9.754C30.8249 10.0253 30.7113 10.359 30.6893 10.755L30.6783 11.173L30.6893 11.602C30.7039 11.9687 30.8176 12.284 31.0303 12.548C31.2503 12.8047 31.5656 12.933 31.9763 12.933ZM36.2471 14C36.1738 14 36.1114 13.9743 36.0601 13.923C36.0088 13.8717 35.9831 13.8093 35.9831 13.736V6.454C35.9831 6.37333 36.0088 6.311 36.0601 6.267C36.1114 6.21567 36.1738 6.19 36.2471 6.19H37.1601C37.2408 6.19 37.3031 6.21567 37.3471 6.267C37.3984 6.311 37.4241 6.37333 37.4241 6.454V13.736C37.4241 13.8093 37.3984 13.8717 37.3471 13.923C37.3031 13.9743 37.2408 14 37.1601 14H36.2471ZM40.5442 14.11C40.1702 14.11 39.8256 14.0367 39.5102 13.89C39.2022 13.736 38.9566 13.5307 38.7732 13.274C38.5972 13.0173 38.5092 12.735 38.5092 12.427C38.5092 11.9283 38.7109 11.525 39.1142 11.217C39.5176 10.909 40.0712 10.7 40.7752 10.59L42.2822 10.37V10.139C42.2822 9.81633 42.2016 9.57433 42.0402 9.413C41.8789 9.25167 41.6186 9.171 41.2592 9.171C41.0172 9.171 40.8192 9.21867 40.6652 9.314C40.5186 9.402 40.4012 9.49 40.3132 9.578C40.2252 9.67333 40.1666 9.73567 40.1372 9.765C40.1079 9.853 40.0529 9.897 39.9722 9.897H39.1252C39.0592 9.897 39.0006 9.875 38.9492 9.831C38.9052 9.787 38.8832 9.72833 38.8832 9.655C38.8906 9.47167 38.9786 9.26267 39.1472 9.028C39.3232 8.79333 39.5909 8.59167 39.9502 8.423C40.3096 8.25433 40.7496 8.17 41.2702 8.17C42.1356 8.17 42.7662 8.36433 43.1622 8.753C43.5582 9.14167 43.7562 9.65133 43.7562 10.282V13.736C43.7562 13.8093 43.7306 13.8717 43.6792 13.923C43.6352 13.9743 43.5729 14 43.4922 14H42.6012C42.5279 14 42.4656 13.9743 42.4142 13.923C42.3629 13.8717 42.3372 13.8093 42.3372 13.736V13.307C42.1759 13.5417 41.9449 13.736 41.6442 13.89C41.3509 14.0367 40.9842 14.11 40.5442 14.11ZM40.9182 13.065C41.3216 13.065 41.6516 12.933 41.9082 12.669C42.1649 12.405 42.2932 12.02 42.2932 11.514V11.283L41.1932 11.459C40.7679 11.525 40.4452 11.6313 40.2252 11.778C40.0126 11.9247 39.9062 12.1043 39.9062 12.317C39.9062 12.5517 40.0052 12.735 40.2032 12.867C40.4012 12.999 40.6396 13.065 40.9182 13.065ZM46.051 16.09C45.9923 16.09 45.941 16.068 45.897 16.024C45.853 15.98 45.831 15.9287 45.831 15.87C45.831 15.804 45.8457 15.7453 45.875 15.694L46.733 13.659L44.621 8.676C44.5917 8.61 44.577 8.55867 44.577 8.522C44.5843 8.456 44.61 8.401 44.654 8.357C44.698 8.30567 44.753 8.28 44.819 8.28H45.71C45.8493 8.28 45.9483 8.34967 46.007 8.489L47.47 12.086L48.977 8.489C49.0357 8.34967 49.1347 8.28 49.274 8.28H50.154C50.2127 8.28 50.264 8.302 50.308 8.346C50.3593 8.39 50.385 8.44133 50.385 8.5C50.385 8.55133 50.3703 8.61 50.341 8.676L47.228 15.881C47.162 16.0203 47.0593 16.09 46.92 16.09H46.051Z" fill="#535356"/>
<path d="M0.5 0.5H62.5V17C62.5 18.933 60.933 20.5 59 20.5H0.5V0.5Z" stroke="#EAEAEF"/>
<defs>
<filter id="filter0_d_905_3746" x="52" y="20" width="296" height="236" filterUnits="userSpaceOnUse" color-interpolation-filters="sRGB">
<feFlood flood-opacity="0" result="BackgroundImageFix"/>
<feColorMatrix in="SourceAlpha" type="matrix" values="0 0 0 0 0 0 0 0 0 0 0 0 0 0 0 0 0 0 127 0" result="hardAlpha"/>
<feOffset dy="10"/>
<feGaussianBlur stdDeviation="10"/>
<feComposite in2="hardAlpha" operator="out"/>
<feColorMatrix type="matrix" values="0 0 0 0 0.117647 0 0 0 0 0.117647 0 0 0 0 0.117647 0 0 0 0.12 0"/>
<feBlend mode="normal" in2="BackgroundImageFix" result="effect1_dropShadow_905_3746"/>
<feBlend mode="normal" in="SourceGraphic" in2="effect1_dropShadow_905_3746" result="shape"/>
</filter>
</defs>
</svg>
