<svg width="400" height="256" viewBox="0 0 400 256" fill="none" xmlns="http://www.w3.org/2000/svg">
<mask id="path-1-inside-1_905_1572" fill="white">
<path d="M0 0H400V256H0V0Z"/>
</mask>
<path d="M0 0H400V256H0V0Z" fill="#F5F7F9"/>
<g filter="url(#filter0_d_905_1572)">
<mask id="path-4-inside-2_905_1572" fill="white">
<path d="M64 30H152V79H64V30Z"/>
</mask>
<path d="M64 30H152V79H64V30Z" fill="white"/>
<rect x="84" y="46" width="48" height="17" rx="5" fill="#F2F2F6"/>
<path d="M152 78H64V80H152V78Z" fill="#CBC9CD" mask="url(#path-4-inside-2_905_1572)"/>
<mask id="path-7-inside-3_905_1572" fill="white">
<path d="M64 79H152V128H64V79Z"/>
</mask>
<path d="M64 79H152V128H64V79Z" fill="white"/>
<rect x="84" y="95" width="48" height="17" rx="5" fill="#F2F2F6"/>
<path d="M152 127H64V129H152V127Z" fill="#CBC9CD" mask="url(#path-7-inside-3_905_1572)"/>
<mask id="path-10-inside-4_905_1572" fill="white">
<path d="M64 128H152V177H64V128Z"/>
</mask>
<path d="M64 128H152V177H64V128Z" fill="white"/>
<rect x="84" y="144" width="48" height="17" rx="5" fill="#F2F2F6"/>
<path d="M152 176H64V178H152V176Z" fill="#CBC9CD" mask="url(#path-10-inside-4_905_1572)"/>
<mask id="path-13-inside-5_905_1572" fill="white">
<path d="M64 177H152V226H64V177Z"/>
</mask>
<path d="M64 177H152V226H64V177Z" fill="white"/>
<rect x="84" y="193" width="48" height="17" rx="5" fill="#F2F2F6"/>
<path d="M152 225H64V227H152V225Z" fill="#CBC9CD" mask="url(#path-13-inside-5_905_1572)"/>
<mask id="path-16-inside-6_905_1572" fill="white">
<path d="M152 30H248V79H152V30Z"/>
</mask>
<path d="M152 30H248V79H152V30Z" fill="white"/>
<path d="M172.429 59C172.351 59 172.286 58.974 172.234 58.922C172.182 58.8613 172.156 58.7963 172.156 58.727C172.156 58.6837 172.16 58.6447 172.169 58.61L175.263 50.251C175.289 50.1557 175.341 50.0733 175.419 50.004C175.497 49.9347 175.605 49.9 175.744 49.9H177.408C177.547 49.9 177.655 49.9347 177.733 50.004C177.811 50.0733 177.863 50.1557 177.889 50.251L180.983 58.61C180.992 58.6447 180.996 58.6837 180.996 58.727C180.996 58.7963 180.97 58.8613 180.918 58.922C180.866 58.974 180.801 59 180.723 59H179.371C179.241 59 179.146 58.9697 179.085 58.909C179.024 58.8483 178.985 58.792 178.968 58.74L178.409 57.284H174.743L174.184 58.74C174.167 58.792 174.128 58.8483 174.067 58.909C174.006 58.9697 173.911 59 173.781 59H172.429ZM175.224 55.607H177.915L176.576 51.863L175.224 55.607ZM182.44 59C182.354 59 182.276 58.9697 182.206 58.909C182.146 58.8483 182.115 58.7703 182.115 58.675V50.225C182.115 50.1297 182.146 50.0517 182.206 49.991C182.276 49.9303 182.354 49.9 182.44 49.9H183.649C183.779 49.9 183.875 49.9347 183.935 50.004C184.005 50.0733 184.052 50.1253 184.078 50.16L186.47 54.567L188.888 50.16C188.906 50.1253 188.945 50.0733 189.005 50.004C189.075 49.9347 189.174 49.9 189.304 49.9H190.513C190.609 49.9 190.687 49.9303 190.747 49.991C190.808 50.0517 190.838 50.1297 190.838 50.225V58.675C190.838 58.7703 190.808 58.8483 190.747 58.909C190.687 58.9697 190.609 59 190.513 59H189.187C189.101 59 189.027 58.9697 188.966 58.909C188.906 58.8483 188.875 58.7703 188.875 58.675V53.423L187.224 56.517C187.181 56.595 187.125 56.6643 187.055 56.725C186.986 56.7857 186.895 56.816 186.782 56.816H186.171C186.059 56.816 185.968 56.7857 185.898 56.725C185.829 56.6643 185.773 56.595 185.729 56.517L184.078 53.423V58.675C184.078 58.7703 184.048 58.8483 183.987 58.909C183.927 58.9697 183.853 59 183.766 59H182.44ZM196.381 59.13C195.592 59.13 194.912 59 194.34 58.74C193.768 58.48 193.321 58.09 193.001 57.57C192.68 57.0413 192.507 56.3783 192.481 55.581C192.472 55.2083 192.468 54.84 192.468 54.476C192.468 54.1033 192.472 53.7263 192.481 53.345C192.507 52.565 192.68 51.9107 193.001 51.382C193.33 50.8447 193.781 50.4417 194.353 50.173C194.933 49.9043 195.609 49.77 196.381 49.77C197.143 49.77 197.811 49.9043 198.383 50.173C198.963 50.4417 199.418 50.8447 199.748 51.382C200.077 51.9107 200.25 52.565 200.268 53.345C200.285 53.7263 200.294 54.1033 200.294 54.476C200.294 54.84 200.285 55.2083 200.268 55.581C200.242 56.3783 200.068 57.0413 199.748 57.57C199.427 58.09 198.981 58.48 198.409 58.74C197.837 59 197.161 59.13 196.381 59.13ZM196.381 57.453C196.883 57.453 197.295 57.3013 197.616 56.998C197.945 56.686 198.118 56.192 198.136 55.516C198.153 55.1347 198.162 54.7793 198.162 54.45C198.162 54.112 198.153 53.7567 198.136 53.384C198.127 52.9333 198.045 52.565 197.889 52.279C197.733 51.993 197.525 51.785 197.265 51.655C197.013 51.5163 196.719 51.447 196.381 51.447C196.043 51.447 195.744 51.5163 195.484 51.655C195.224 51.785 195.016 51.993 194.86 52.279C194.712 52.565 194.63 52.9333 194.613 53.384C194.604 53.7567 194.6 54.112 194.6 54.45C194.6 54.7793 194.604 55.1347 194.613 55.516C194.639 56.192 194.812 56.686 195.133 56.998C195.453 57.3013 195.869 57.453 196.381 57.453ZM205.625 59.13C204.863 59.13 204.195 59.0043 203.623 58.753C203.051 58.493 202.609 58.0987 202.297 57.57C201.985 57.0327 201.829 56.3523 201.829 55.529V50.225C201.829 50.1297 201.86 50.0517 201.92 49.991C201.981 49.9303 202.059 49.9 202.154 49.9H203.571C203.667 49.9 203.745 49.9303 203.805 49.991C203.866 50.0517 203.896 50.1297 203.896 50.225V55.516C203.896 56.1573 204.048 56.634 204.351 56.946C204.655 57.258 205.079 57.414 205.625 57.414C206.163 57.414 206.583 57.258 206.886 56.946C207.19 56.634 207.341 56.1573 207.341 55.516V50.225C207.341 50.1297 207.372 50.0517 207.432 49.991C207.502 49.9303 207.58 49.9 207.666 49.9H209.096C209.183 49.9 209.257 49.9303 209.317 49.991C209.378 50.0517 209.408 50.1297 209.408 50.225V55.529C209.408 56.3523 209.252 57.0327 208.94 57.57C208.628 58.0987 208.191 58.493 207.627 58.753C207.064 59.0043 206.397 59.13 205.625 59.13ZM211.576 59C211.481 59 211.403 58.9697 211.342 58.909C211.281 58.8483 211.251 58.7703 211.251 58.675V50.225C211.251 50.1297 211.281 50.0517 211.342 49.991C211.403 49.9303 211.481 49.9 211.576 49.9H212.759C212.889 49.9 212.984 49.9303 213.045 49.991C213.106 50.0517 213.145 50.0993 213.162 50.134L216.633 55.555V50.225C216.633 50.1297 216.663 50.0517 216.724 49.991C216.785 49.9303 216.858 49.9 216.945 49.9H218.271C218.366 49.9 218.444 49.9303 218.505 49.991C218.566 50.0517 218.596 50.1297 218.596 50.225V58.675C218.596 58.7617 218.566 58.8397 218.505 58.909C218.444 58.9697 218.366 59 218.271 59H217.075C216.945 59 216.85 58.9697 216.789 58.909C216.737 58.8397 216.698 58.792 216.672 58.766L213.214 53.514V58.675C213.214 58.7703 213.184 58.8483 213.123 58.909C213.062 58.9697 212.984 59 212.889 59H211.576ZM222.846 59C222.75 59 222.672 58.9697 222.612 58.909C222.551 58.8483 222.521 58.7703 222.521 58.675V51.707H220.155C220.068 51.707 219.994 51.6767 219.934 51.616C219.873 51.5553 219.843 51.4817 219.843 51.395V50.225C219.843 50.1297 219.873 50.0517 219.934 49.991C219.994 49.9303 220.068 49.9 220.155 49.9H226.967C227.062 49.9 227.14 49.9303 227.201 49.991C227.261 50.0517 227.292 50.1297 227.292 50.225V51.395C227.292 51.4817 227.261 51.5553 227.201 51.616C227.14 51.6767 227.062 51.707 226.967 51.707H224.614V58.675C224.614 58.7703 224.583 58.8483 224.523 58.909C224.462 58.9697 224.384 59 224.289 59H222.846Z" fill="#A0A0A5"/>
<path d="M248 78H152V80H248V78Z" fill="#CBC9CD" mask="url(#path-16-inside-6_905_1572)"/>
<mask id="path-19-inside-7_905_1572" fill="white">
<path d="M152 79H248V128H152V79Z"/>
</mask>
<path d="M152 79H248V128H152V79Z" fill="white"/>
<path d="M212.134 108.13C211.458 108.13 210.864 108.022 210.353 107.805C209.842 107.58 209.443 107.259 209.157 106.843C208.871 106.427 208.728 105.942 208.728 105.387C208.728 104.876 208.854 104.429 209.105 104.048C209.356 103.658 209.699 103.359 210.132 103.151C209.785 102.952 209.517 102.692 209.326 102.371C209.144 102.042 209.053 101.66 209.053 101.227C209.053 100.464 209.33 99.8663 209.885 99.433C210.448 98.991 211.198 98.77 212.134 98.77C213.061 98.77 213.802 98.991 214.357 99.433C214.92 99.8663 215.202 100.46 215.202 101.214C215.202 101.647 215.107 102.029 214.916 102.358C214.734 102.679 214.474 102.943 214.136 103.151C214.569 103.359 214.912 103.658 215.163 104.048C215.414 104.429 215.54 104.876 215.54 105.387C215.54 105.942 215.397 106.427 215.111 106.843C214.825 107.259 214.422 107.58 213.902 107.805C213.391 108.022 212.801 108.13 212.134 108.13ZM212.134 102.683C212.654 102.674 213.092 102.54 213.447 102.28C213.802 102.02 213.98 101.678 213.98 101.253C213.98 100.82 213.802 100.473 213.447 100.213C213.1 99.9443 212.663 99.81 212.134 99.81C211.597 99.81 211.15 99.94 210.795 100.2C210.448 100.46 210.275 100.811 210.275 101.253C210.275 101.686 210.448 102.033 210.795 102.293C211.15 102.553 211.597 102.683 212.134 102.683ZM212.134 107.09C212.741 107.09 213.248 106.934 213.655 106.622C214.062 106.31 214.266 105.898 214.266 105.387C214.266 104.876 214.062 104.468 213.655 104.165C213.248 103.862 212.741 103.71 212.134 103.71C211.519 103.71 211.007 103.862 210.6 104.165C210.193 104.468 209.989 104.876 209.989 105.387C209.989 105.898 210.193 106.31 210.6 106.622C211.007 106.934 211.519 107.09 212.134 107.09ZM223.221 109.3C223.135 109.3 223.061 109.27 223 109.209C222.948 109.157 222.922 109.088 222.922 109.001V108.091C222.316 108.039 221.791 107.9 221.349 107.675C220.907 107.441 220.569 107.155 220.335 106.817C220.11 106.47 219.989 106.102 219.971 105.712C219.971 105.643 219.997 105.582 220.049 105.53C220.11 105.469 220.179 105.439 220.257 105.439H220.933C221.089 105.439 221.198 105.526 221.258 105.699C221.345 106.063 221.57 106.375 221.934 106.635C222.298 106.895 222.814 107.025 223.481 107.025C224.201 107.025 224.742 106.899 225.106 106.648C225.47 106.388 225.652 106.028 225.652 105.569C225.652 105.274 225.561 105.036 225.379 104.854C225.206 104.672 224.946 104.512 224.599 104.373C224.253 104.234 223.733 104.061 223.039 103.853C222.363 103.662 221.826 103.459 221.427 103.242C221.029 103.025 220.73 102.757 220.53 102.436C220.331 102.115 220.231 101.712 220.231 101.227C220.231 100.586 220.47 100.044 220.946 99.602C221.423 99.1513 222.082 98.8827 222.922 98.796V97.899C222.922 97.8123 222.948 97.743 223 97.691C223.061 97.6303 223.135 97.6 223.221 97.6H223.715C223.802 97.6 223.871 97.6303 223.923 97.691C223.984 97.743 224.014 97.8123 224.014 97.899V98.809C224.569 98.8783 225.041 99.0343 225.431 99.277C225.83 99.5197 226.129 99.8057 226.328 100.135C226.536 100.464 226.649 100.794 226.666 101.123C226.666 101.192 226.64 101.253 226.588 101.305C226.545 101.357 226.48 101.383 226.393 101.383H225.704C225.522 101.383 225.41 101.301 225.366 101.136C225.314 100.772 225.111 100.473 224.755 100.239C224.4 99.9963 223.954 99.875 223.416 99.875C222.827 99.875 222.363 99.9877 222.025 100.213C221.687 100.438 221.518 100.772 221.518 101.214C221.518 101.509 221.596 101.751 221.752 101.942C221.917 102.133 222.164 102.302 222.493 102.449C222.823 102.588 223.304 102.748 223.936 102.93C224.673 103.129 225.254 103.337 225.678 103.554C226.103 103.762 226.419 104.026 226.627 104.347C226.835 104.659 226.939 105.058 226.939 105.543C226.939 106.28 226.679 106.873 226.159 107.324C225.639 107.766 224.924 108.026 224.014 108.104V109.001C224.014 109.088 223.984 109.157 223.923 109.209C223.871 109.27 223.802 109.3 223.715 109.3H223.221Z" fill="#303032"/>
<path d="M248 127H152V129H248V127Z" fill="#CBC9CD" mask="url(#path-19-inside-7_905_1572)"/>
<mask id="path-22-inside-8_905_1572" fill="white">
<path d="M152 128H248V177H152V128Z"/>
</mask>
<path d="M152 128H248V177H152V128Z" fill="white"/>
<path d="M206.588 157C206.501 157 206.428 156.974 206.367 156.922C206.315 156.861 206.289 156.788 206.289 156.701V149.421L204.131 151.085C204.07 151.137 204.005 151.163 203.936 151.163C203.858 151.163 203.784 151.12 203.715 151.033L203.377 150.604C203.334 150.543 203.312 150.483 203.312 150.422C203.312 150.318 203.355 150.236 203.442 150.175L206.276 147.991C206.371 147.93 206.484 147.9 206.614 147.9H207.277C207.364 147.9 207.433 147.93 207.485 147.991C207.546 148.043 207.576 148.112 207.576 148.199V156.701C207.576 156.788 207.546 156.861 207.485 156.922C207.433 156.974 207.364 157 207.277 157H206.588ZM213.774 157C213.687 157 213.613 156.974 213.553 156.922C213.501 156.861 213.475 156.788 213.475 156.701V154.829H209.263C209.176 154.829 209.102 154.803 209.042 154.751C208.99 154.69 208.964 154.617 208.964 154.53V154.01C208.964 153.88 209.011 153.75 209.107 153.62L213.007 148.121C213.05 148.052 213.115 148 213.202 147.965C213.288 147.922 213.384 147.9 213.488 147.9H214.424C214.51 147.9 214.58 147.93 214.632 147.991C214.692 148.043 214.723 148.112 214.723 148.199V153.698H215.893C215.979 153.698 216.053 153.728 216.114 153.789C216.174 153.841 216.205 153.91 216.205 153.997V154.53C216.205 154.617 216.174 154.69 216.114 154.751C216.062 154.803 215.992 154.829 215.906 154.829H214.723V156.701C214.723 156.788 214.692 156.861 214.632 156.922C214.58 156.974 214.51 157 214.424 157H213.774ZM213.488 153.724V149.265L210.355 153.724H213.488ZM223.591 158.3C223.505 158.3 223.431 158.27 223.37 158.209C223.318 158.157 223.292 158.088 223.292 158.001V157.091C222.686 157.039 222.161 156.9 221.719 156.675C221.277 156.441 220.939 156.155 220.705 155.817C220.48 155.47 220.359 155.102 220.341 154.712C220.341 154.643 220.367 154.582 220.419 154.53C220.48 154.469 220.549 154.439 220.627 154.439H221.303C221.459 154.439 221.568 154.526 221.628 154.699C221.715 155.063 221.94 155.375 222.304 155.635C222.668 155.895 223.184 156.025 223.851 156.025C224.571 156.025 225.112 155.899 225.476 155.648C225.84 155.388 226.022 155.028 226.022 154.569C226.022 154.274 225.931 154.036 225.749 153.854C225.576 153.672 225.316 153.512 224.969 153.373C224.623 153.234 224.103 153.061 223.409 152.853C222.733 152.662 222.196 152.459 221.797 152.242C221.399 152.025 221.1 151.757 220.9 151.436C220.701 151.115 220.601 150.712 220.601 150.227C220.601 149.586 220.84 149.044 221.316 148.602C221.793 148.151 222.452 147.883 223.292 147.796V146.899C223.292 146.812 223.318 146.743 223.37 146.691C223.431 146.63 223.505 146.6 223.591 146.6H224.085C224.172 146.6 224.241 146.63 224.293 146.691C224.354 146.743 224.384 146.812 224.384 146.899V147.809C224.939 147.878 225.411 148.034 225.801 148.277C226.2 148.52 226.499 148.806 226.698 149.135C226.906 149.464 227.019 149.794 227.036 150.123C227.036 150.192 227.01 150.253 226.958 150.305C226.915 150.357 226.85 150.383 226.763 150.383H226.074C225.892 150.383 225.78 150.301 225.736 150.136C225.684 149.772 225.481 149.473 225.125 149.239C224.77 148.996 224.324 148.875 223.786 148.875C223.197 148.875 222.733 148.988 222.395 149.213C222.057 149.438 221.888 149.772 221.888 150.214C221.888 150.509 221.966 150.751 222.122 150.942C222.287 151.133 222.534 151.302 222.863 151.449C223.193 151.588 223.674 151.748 224.306 151.93C225.043 152.129 225.624 152.337 226.048 152.554C226.473 152.762 226.789 153.026 226.997 153.347C227.205 153.659 227.309 154.058 227.309 154.543C227.309 155.28 227.049 155.873 226.529 156.324C226.009 156.766 225.294 157.026 224.384 157.104V158.001C224.384 158.088 224.354 158.157 224.293 158.209C224.241 158.27 224.172 158.3 224.085 158.3H223.591Z" fill="#303032"/>
<path d="M248 176H152V178H248V176Z" fill="#CBC9CD" mask="url(#path-22-inside-8_905_1572)"/>
<mask id="path-25-inside-9_905_1572" fill="white">
<path d="M152 177H248V226H152V177Z"/>
</mask>
<path d="M152 177H248V226H152V177Z" fill="white"/>
<path d="M206.588 206C206.501 206 206.428 205.974 206.367 205.922C206.315 205.861 206.289 205.788 206.289 205.701V198.421L204.131 200.085C204.07 200.137 204.005 200.163 203.936 200.163C203.858 200.163 203.784 200.12 203.715 200.033L203.377 199.604C203.334 199.543 203.312 199.483 203.312 199.422C203.312 199.318 203.355 199.236 203.442 199.175L206.276 196.991C206.371 196.93 206.484 196.9 206.614 196.9H207.277C207.364 196.9 207.433 196.93 207.485 196.991C207.546 197.043 207.576 197.112 207.576 197.199V205.701C207.576 205.788 207.546 205.861 207.485 205.922C207.433 205.974 207.364 206 207.277 206H206.588ZM212.435 206.13C211.75 206.13 211.156 206.022 210.654 205.805C210.16 205.58 209.783 205.289 209.523 204.934C209.271 204.579 209.137 204.206 209.12 203.816C209.12 203.738 209.146 203.677 209.198 203.634C209.25 203.582 209.315 203.556 209.393 203.556H210.03C210.212 203.556 210.333 203.651 210.394 203.842C210.506 204.275 210.749 204.583 211.122 204.765C211.494 204.938 211.932 205.025 212.435 205.025C213.05 205.025 213.54 204.882 213.904 204.596C214.268 204.301 214.45 203.881 214.45 203.335C214.45 202.286 213.813 201.762 212.539 201.762H211.304C211.217 201.762 211.143 201.736 211.083 201.684C211.031 201.623 211.005 201.55 211.005 201.463V201.112C211.005 200.991 211.052 200.874 211.148 200.761L213.67 198.005H209.835C209.748 198.005 209.674 197.979 209.614 197.927C209.562 197.866 209.536 197.793 209.536 197.706V197.212C209.536 197.125 209.562 197.052 209.614 196.991C209.674 196.93 209.748 196.9 209.835 196.9H215.022C215.117 196.9 215.191 196.93 215.243 196.991C215.303 197.043 215.334 197.117 215.334 197.212V197.68C215.334 197.784 215.286 197.884 215.191 197.979L212.682 200.774L212.89 200.787C213.774 200.813 214.471 201.043 214.983 201.476C215.494 201.909 215.75 202.542 215.75 203.374C215.75 203.937 215.607 204.427 215.321 204.843C215.035 205.259 214.64 205.58 214.138 205.805C213.635 206.022 213.067 206.13 212.435 206.13ZM223.325 207.3C223.238 207.3 223.164 207.27 223.104 207.209C223.052 207.157 223.026 207.088 223.026 207.001V206.091C222.419 206.039 221.895 205.9 221.453 205.675C221.011 205.441 220.673 205.155 220.439 204.817C220.213 204.47 220.092 204.102 220.075 203.712C220.075 203.643 220.101 203.582 220.153 203.53C220.213 203.469 220.283 203.439 220.361 203.439H221.037C221.193 203.439 221.301 203.526 221.362 203.699C221.448 204.063 221.674 204.375 222.038 204.635C222.402 204.895 222.917 205.025 223.585 205.025C224.304 205.025 224.846 204.899 225.21 204.648C225.574 204.388 225.756 204.028 225.756 203.569C225.756 203.274 225.665 203.036 225.483 202.854C225.309 202.672 225.049 202.512 224.703 202.373C224.356 202.234 223.836 202.061 223.143 201.853C222.467 201.662 221.929 201.459 221.531 201.242C221.132 201.025 220.833 200.757 220.634 200.436C220.434 200.115 220.335 199.712 220.335 199.227C220.335 198.586 220.573 198.044 221.05 197.602C221.526 197.151 222.185 196.883 223.026 196.796V195.899C223.026 195.812 223.052 195.743 223.104 195.691C223.164 195.63 223.238 195.6 223.325 195.6H223.819C223.905 195.6 223.975 195.63 224.027 195.691C224.087 195.743 224.118 195.812 224.118 195.899V196.809C224.672 196.878 225.145 197.034 225.535 197.277C225.933 197.52 226.232 197.806 226.432 198.135C226.64 198.464 226.752 198.794 226.77 199.123C226.77 199.192 226.744 199.253 226.692 199.305C226.648 199.357 226.583 199.383 226.497 199.383H225.808C225.626 199.383 225.513 199.301 225.47 199.136C225.418 198.772 225.214 198.473 224.859 198.239C224.503 197.996 224.057 197.875 223.52 197.875C222.93 197.875 222.467 197.988 222.129 198.213C221.791 198.438 221.622 198.772 221.622 199.214C221.622 199.509 221.7 199.751 221.856 199.942C222.02 200.133 222.267 200.302 222.597 200.449C222.926 200.588 223.407 200.748 224.04 200.93C224.776 201.129 225.357 201.337 225.782 201.554C226.206 201.762 226.523 202.026 226.731 202.347C226.939 202.659 227.043 203.058 227.043 203.543C227.043 204.28 226.783 204.873 226.263 205.324C225.743 205.766 225.028 206.026 224.118 206.104V207.001C224.118 207.088 224.087 207.157 224.027 207.209C223.975 207.27 223.905 207.3 223.819 207.3H223.325Z" fill="#303032"/>
<path d="M248 225H152V227H248V225Z" fill="#CBC9CD" mask="url(#path-25-inside-9_905_1572)"/>
<mask id="path-28-inside-10_905_1572" fill="white">
<path d="M248 30H336V79H248V30Z"/>
</mask>
<path d="M248 30H336V79H248V30Z" fill="white"/>
<rect x="268" y="46" width="48" height="17" rx="5" fill="#F2F2F6"/>
<path d="M336 78H248V80H336V78Z" fill="#CBC9CD" mask="url(#path-28-inside-10_905_1572)"/>
<mask id="path-31-inside-11_905_1572" fill="white">
<path d="M248 79H336V128H248V79Z"/>
</mask>
<path d="M248 79H336V128H248V79Z" fill="white"/>
<rect x="268" y="95" width="48" height="17" rx="5" fill="#F2F2F6"/>
<path d="M336 127H248V129H336V127Z" fill="#CBC9CD" mask="url(#path-31-inside-11_905_1572)"/>
<mask id="path-34-inside-12_905_1572" fill="white">
<path d="M248 128H336V177H248V128Z"/>
</mask>
<path d="M248 128H336V177H248V128Z" fill="white"/>
<rect x="268" y="144" width="48" height="17" rx="5" fill="#F2F2F6"/>
<path d="M336 176H248V178H336V176Z" fill="#CBC9CD" mask="url(#path-34-inside-12_905_1572)"/>
<mask id="path-37-inside-13_905_1572" fill="white">
<path d="M248 177H336V226H248V177Z"/>
</mask>
<path d="M248 177H336V226H248V177Z" fill="white"/>
<rect x="268" y="193" width="48" height="17" rx="5" fill="#F2F2F6"/>
<path d="M336 225H248V227H336V225Z" fill="#CBC9CD" mask="url(#path-37-inside-13_905_1572)"/>
</g>
<path d="M0.5 0.5H62.5V17C62.5 18.933 60.933 20.5 59 20.5H0.5V0.5Z" fill="#F5F7F9"/>
<path d="M13.122 14C13.0487 14 12.9863 13.9743 12.935 13.923C12.8837 13.8717 12.858 13.8093 12.858 13.736V6.575C12.858 6.49433 12.88 6.42833 12.924 6.377C12.9753 6.32567 13.0413 6.3 13.122 6.3H15.806C17.962 6.3 19.062 7.29733 19.106 9.292C19.1207 9.71733 19.128 10.0033 19.128 10.15C19.128 10.2893 19.1207 10.5717 19.106 10.997C19.0767 12.0237 18.8017 12.7827 18.281 13.274C17.7603 13.758 16.9537 14 15.861 14H13.122ZM15.806 12.735C16.422 12.735 16.8657 12.5993 17.137 12.328C17.4083 12.0493 17.5513 11.5947 17.566 10.964C17.5807 10.524 17.588 10.249 17.588 10.139C17.588 10.0217 17.5807 9.75033 17.566 9.325C17.5513 8.72367 17.3973 8.28 17.104 7.994C16.818 7.708 16.367 7.565 15.751 7.565H14.387V12.735H15.806ZM20.6804 7.334C20.607 7.334 20.5447 7.30833 20.4934 7.257C20.442 7.20567 20.4164 7.14333 20.4164 7.07V6.278C20.4164 6.20467 20.442 6.14233 20.4934 6.091C20.5447 6.03967 20.607 6.014 20.6804 6.014H21.6814C21.7547 6.014 21.817 6.03967 21.8684 6.091C21.927 6.14233 21.9564 6.20467 21.9564 6.278V7.07C21.9564 7.14333 21.9307 7.20567 21.8794 7.257C21.828 7.30833 21.762 7.334 21.6814 7.334H20.6804ZM20.7244 14C20.651 14 20.5887 13.9743 20.5374 13.923C20.486 13.8717 20.4604 13.8093 20.4604 13.736V8.544C20.4604 8.47067 20.486 8.40833 20.5374 8.357C20.5887 8.30567 20.651 8.28 20.7244 8.28H21.6374C21.718 8.28 21.7804 8.30567 21.8244 8.357C21.8757 8.401 21.9014 8.46333 21.9014 8.544V13.736C21.9014 13.8093 21.8757 13.8717 21.8244 13.923C21.7804 13.9743 21.718 14 21.6374 14H20.7244ZM25.5278 14.11C24.9778 14.11 24.5158 14.0293 24.1418 13.868C23.7678 13.6993 23.4891 13.505 23.3058 13.285C23.1298 13.0577 23.0418 12.8633 23.0418 12.702C23.0418 12.6287 23.0674 12.57 23.1188 12.526C23.1701 12.482 23.2288 12.46 23.2948 12.46H24.1638C24.2298 12.46 24.2848 12.4857 24.3288 12.537C24.3581 12.559 24.4351 12.625 24.5598 12.735C24.6844 12.8523 24.8311 12.944 24.9998 13.01C25.1684 13.076 25.3554 13.109 25.5608 13.109C25.8541 13.109 26.0961 13.0503 26.2868 12.933C26.4774 12.8157 26.5728 12.6543 26.5728 12.449C26.5728 12.295 26.5288 12.1703 26.4408 12.075C26.3601 11.9797 26.2098 11.8953 25.9898 11.822C25.7698 11.7413 25.4434 11.657 25.0108 11.569C24.3874 11.437 23.9254 11.2353 23.6248 10.964C23.3314 10.6927 23.1848 10.3333 23.1848 9.886C23.1848 9.59267 23.2728 9.31767 23.4488 9.061C23.6248 8.797 23.8851 8.58433 24.2298 8.423C24.5818 8.25433 24.9998 8.17 25.4838 8.17C25.9751 8.17 26.4004 8.25067 26.7598 8.412C27.1191 8.566 27.3904 8.753 27.5738 8.973C27.7644 9.18567 27.8598 9.37633 27.8598 9.545C27.8598 9.611 27.8341 9.66967 27.7828 9.721C27.7388 9.765 27.6838 9.787 27.6178 9.787H26.8038C26.7451 9.787 26.6828 9.76133 26.6168 9.71C26.5654 9.67333 26.4848 9.60367 26.3748 9.501C26.2648 9.39833 26.1364 9.31767 25.9898 9.259C25.8431 9.20033 25.6708 9.171 25.4728 9.171C25.2014 9.171 24.9888 9.22967 24.8348 9.347C24.6881 9.46433 24.6148 9.61833 24.6148 9.809C24.6148 9.94833 24.6514 10.062 24.7248 10.15C24.7981 10.238 24.9411 10.3223 25.1538 10.403C25.3664 10.4837 25.6854 10.5643 26.1108 10.645C26.8148 10.7843 27.3171 11.0007 27.6178 11.294C27.9258 11.5873 28.0798 11.9467 28.0798 12.372C28.0798 12.8853 27.8561 13.3033 27.4088 13.626C26.9614 13.9487 26.3344 14.11 25.5278 14.11ZM29.4903 16.09C29.4169 16.09 29.3546 16.0643 29.3033 16.013C29.2519 15.969 29.2263 15.9067 29.2263 15.826V8.544C29.2263 8.46333 29.2519 8.401 29.3033 8.357C29.3546 8.30567 29.4169 8.28 29.4903 8.28H30.3593C30.4399 8.28 30.5023 8.30567 30.5463 8.357C30.5976 8.401 30.6233 8.46333 30.6233 8.544V8.984C31.0339 8.44133 31.6206 8.17 32.3833 8.17C33.1239 8.17 33.6923 8.40467 34.0883 8.874C34.4843 9.336 34.6969 9.963 34.7263 10.755C34.7336 10.843 34.7373 10.9713 34.7373 11.14C34.7373 11.316 34.7336 11.448 34.7263 11.536C34.6969 12.306 34.4843 12.9293 34.0883 13.406C33.6923 13.8753 33.1239 14.11 32.3833 14.11C31.6426 14.11 31.0779 13.8497 30.6893 13.329V15.826C30.6893 15.9067 30.6636 15.969 30.6123 16.013C30.5683 16.0643 30.5059 16.09 30.4253 16.09H29.4903ZM31.9763 12.933C32.7683 12.933 33.1899 12.4453 33.2413 11.47C33.2486 11.3967 33.2523 11.2867 33.2523 11.14C33.2523 10.9933 33.2486 10.8833 33.2413 10.81C33.1899 9.83467 32.7683 9.347 31.9763 9.347C31.5509 9.347 31.2356 9.48267 31.0303 9.754C30.8249 10.0253 30.7113 10.359 30.6893 10.755L30.6783 11.173L30.6893 11.602C30.7039 11.9687 30.8176 12.284 31.0303 12.548C31.2503 12.8047 31.5656 12.933 31.9763 12.933ZM36.2471 14C36.1738 14 36.1114 13.9743 36.0601 13.923C36.0088 13.8717 35.9831 13.8093 35.9831 13.736V6.454C35.9831 6.37333 36.0088 6.311 36.0601 6.267C36.1114 6.21567 36.1738 6.19 36.2471 6.19H37.1601C37.2408 6.19 37.3031 6.21567 37.3471 6.267C37.3984 6.311 37.4241 6.37333 37.4241 6.454V13.736C37.4241 13.8093 37.3984 13.8717 37.3471 13.923C37.3031 13.9743 37.2408 14 37.1601 14H36.2471ZM40.5442 14.11C40.1702 14.11 39.8256 14.0367 39.5102 13.89C39.2022 13.736 38.9566 13.5307 38.7732 13.274C38.5972 13.0173 38.5092 12.735 38.5092 12.427C38.5092 11.9283 38.7109 11.525 39.1142 11.217C39.5176 10.909 40.0712 10.7 40.7752 10.59L42.2822 10.37V10.139C42.2822 9.81633 42.2016 9.57433 42.0402 9.413C41.8789 9.25167 41.6186 9.171 41.2592 9.171C41.0172 9.171 40.8192 9.21867 40.6652 9.314C40.5186 9.402 40.4012 9.49 40.3132 9.578C40.2252 9.67333 40.1666 9.73567 40.1372 9.765C40.1079 9.853 40.0529 9.897 39.9722 9.897H39.1252C39.0592 9.897 39.0006 9.875 38.9492 9.831C38.9052 9.787 38.8832 9.72833 38.8832 9.655C38.8906 9.47167 38.9786 9.26267 39.1472 9.028C39.3232 8.79333 39.5909 8.59167 39.9502 8.423C40.3096 8.25433 40.7496 8.17 41.2702 8.17C42.1356 8.17 42.7662 8.36433 43.1622 8.753C43.5582 9.14167 43.7562 9.65133 43.7562 10.282V13.736C43.7562 13.8093 43.7306 13.8717 43.6792 13.923C43.6352 13.9743 43.5729 14 43.4922 14H42.6012C42.5279 14 42.4656 13.9743 42.4142 13.923C42.3629 13.8717 42.3372 13.8093 42.3372 13.736V13.307C42.1759 13.5417 41.9449 13.736 41.6442 13.89C41.3509 14.0367 40.9842 14.11 40.5442 14.11ZM40.9182 13.065C41.3216 13.065 41.6516 12.933 41.9082 12.669C42.1649 12.405 42.2932 12.02 42.2932 11.514V11.283L41.1932 11.459C40.7679 11.525 40.4452 11.6313 40.2252 11.778C40.0126 11.9247 39.9062 12.1043 39.9062 12.317C39.9062 12.5517 40.0052 12.735 40.2032 12.867C40.4012 12.999 40.6396 13.065 40.9182 13.065ZM46.051 16.09C45.9923 16.09 45.941 16.068 45.897 16.024C45.853 15.98 45.831 15.9287 45.831 15.87C45.831 15.804 45.8457 15.7453 45.875 15.694L46.733 13.659L44.621 8.676C44.5917 8.61 44.577 8.55867 44.577 8.522C44.5843 8.456 44.61 8.401 44.654 8.357C44.698 8.30567 44.753 8.28 44.819 8.28H45.71C45.8493 8.28 45.9483 8.34967 46.007 8.489L47.47 12.086L48.977 8.489C49.0357 8.34967 49.1347 8.28 49.274 8.28H50.154C50.2127 8.28 50.264 8.302 50.308 8.346C50.3593 8.39 50.385 8.44133 50.385 8.5C50.385 8.55133 50.3703 8.61 50.341 8.676L47.228 15.881C47.162 16.0203 47.0593 16.09 46.92 16.09H46.051Z" fill="#535356"/>
<path d="M0.5 0.5H62.5V17C62.5 18.933 60.933 20.5 59 20.5H0.5V0.5Z" stroke="#EAEAEF"/>
<path d="M1 256V0H-1V256H1Z" fill="#EAEAEF" mask="url(#path-1-inside-1_905_1572)"/>
<defs>
<filter id="filter0_d_905_1572" x="44" y="20" width="312" height="236" filterUnits="userSpaceOnUse" color-interpolation-filters="sRGB">
<feFlood flood-opacity="0" result="BackgroundImageFix"/>
<feColorMatrix in="SourceAlpha" type="matrix" values="0 0 0 0 0 0 0 0 0 0 0 0 0 0 0 0 0 0 127 0" result="hardAlpha"/>
<feOffset dy="10"/>
<feGaussianBlur stdDeviation="10"/>
<feComposite in2="hardAlpha" operator="out"/>
<feColorMatrix type="matrix" values="0 0 0 0 0.117647 0 0 0 0 0.117647 0 0 0 0 0.117647 0 0 0 0.12 0"/>
<feBlend mode="normal" in2="BackgroundImageFix" result="effect1_dropShadow_905_1572"/>
<feBlend mode="normal" in="SourceGraphic" in2="effect1_dropShadow_905_1572" result="shape"/>
</filter>
</defs>
</svg>
