<svg width="400" height="256" viewBox="0 0 400 256" fill="none" xmlns="http://www.w3.org/2000/svg">
<mask id="path-1-inside-1_908_1050" fill="white">
<path d="M0 0H400V256H0V0Z"/>
</mask>
<path d="M0 0H400V256H0V0Z" fill="#F5F7F9"/>
<path d="M0.5 0.5H62.5V17C62.5 18.933 60.933 20.5 59 20.5H0.5V0.5Z" fill="#F5F7F9"/>
<path d="M13.122 14C13.0487 14 12.9863 13.9743 12.935 13.923C12.8837 13.8717 12.858 13.8093 12.858 13.736V6.575C12.858 6.49433 12.88 6.42833 12.924 6.377C12.9753 6.32567 13.0413 6.3 13.122 6.3H15.806C17.962 6.3 19.062 7.29733 19.106 9.292C19.1207 9.71733 19.128 10.0033 19.128 10.15C19.128 10.2893 19.1207 10.5717 19.106 10.997C19.0767 12.0237 18.8017 12.7827 18.281 13.274C17.7603 13.758 16.9537 14 15.861 14H13.122ZM15.806 12.735C16.422 12.735 16.8657 12.5993 17.137 12.328C17.4083 12.0493 17.5513 11.5947 17.566 10.964C17.5807 10.524 17.588 10.249 17.588 10.139C17.588 10.0217 17.5807 9.75033 17.566 9.325C17.5513 8.72367 17.3973 8.28 17.104 7.994C16.818 7.708 16.367 7.565 15.751 7.565H14.387V12.735H15.806ZM20.6804 7.334C20.607 7.334 20.5447 7.30833 20.4934 7.257C20.442 7.20567 20.4164 7.14333 20.4164 7.07V6.278C20.4164 6.20467 20.442 6.14233 20.4934 6.091C20.5447 6.03967 20.607 6.014 20.6804 6.014H21.6814C21.7547 6.014 21.817 6.03967 21.8684 6.091C21.927 6.14233 21.9564 6.20467 21.9564 6.278V7.07C21.9564 7.14333 21.9307 7.20567 21.8794 7.257C21.828 7.30833 21.762 7.334 21.6814 7.334H20.6804ZM20.7244 14C20.651 14 20.5887 13.9743 20.5374 13.923C20.486 13.8717 20.4604 13.8093 20.4604 13.736V8.544C20.4604 8.47067 20.486 8.40833 20.5374 8.357C20.5887 8.30567 20.651 8.28 20.7244 8.28H21.6374C21.718 8.28 21.7804 8.30567 21.8244 8.357C21.8757 8.401 21.9014 8.46333 21.9014 8.544V13.736C21.9014 13.8093 21.8757 13.8717 21.8244 13.923C21.7804 13.9743 21.718 14 21.6374 14H20.7244ZM25.5278 14.11C24.9778 14.11 24.5158 14.0293 24.1418 13.868C23.7678 13.6993 23.4891 13.505 23.3058 13.285C23.1298 13.0577 23.0418 12.8633 23.0418 12.702C23.0418 12.6287 23.0674 12.57 23.1188 12.526C23.1701 12.482 23.2288 12.46 23.2948 12.46H24.1638C24.2298 12.46 24.2848 12.4857 24.3288 12.537C24.3581 12.559 24.4351 12.625 24.5598 12.735C24.6844 12.8523 24.8311 12.944 24.9998 13.01C25.1684 13.076 25.3554 13.109 25.5608 13.109C25.8541 13.109 26.0961 13.0503 26.2868 12.933C26.4774 12.8157 26.5728 12.6543 26.5728 12.449C26.5728 12.295 26.5288 12.1703 26.4408 12.075C26.3601 11.9797 26.2098 11.8953 25.9898 11.822C25.7698 11.7413 25.4434 11.657 25.0108 11.569C24.3874 11.437 23.9254 11.2353 23.6248 10.964C23.3314 10.6927 23.1848 10.3333 23.1848 9.886C23.1848 9.59267 23.2728 9.31767 23.4488 9.061C23.6248 8.797 23.8851 8.58433 24.2298 8.423C24.5818 8.25433 24.9998 8.17 25.4838 8.17C25.9751 8.17 26.4004 8.25067 26.7598 8.412C27.1191 8.566 27.3904 8.753 27.5738 8.973C27.7644 9.18567 27.8598 9.37633 27.8598 9.545C27.8598 9.611 27.8341 9.66967 27.7828 9.721C27.7388 9.765 27.6838 9.787 27.6178 9.787H26.8038C26.7451 9.787 26.6828 9.76133 26.6168 9.71C26.5654 9.67333 26.4848 9.60367 26.3748 9.501C26.2648 9.39833 26.1364 9.31767 25.9898 9.259C25.8431 9.20033 25.6708 9.171 25.4728 9.171C25.2014 9.171 24.9888 9.22967 24.8348 9.347C24.6881 9.46433 24.6148 9.61833 24.6148 9.809C24.6148 9.94833 24.6514 10.062 24.7248 10.15C24.7981 10.238 24.9411 10.3223 25.1538 10.403C25.3664 10.4837 25.6854 10.5643 26.1108 10.645C26.8148 10.7843 27.3171 11.0007 27.6178 11.294C27.9258 11.5873 28.0798 11.9467 28.0798 12.372C28.0798 12.8853 27.8561 13.3033 27.4088 13.626C26.9614 13.9487 26.3344 14.11 25.5278 14.11ZM29.4903 16.09C29.4169 16.09 29.3546 16.0643 29.3033 16.013C29.2519 15.969 29.2263 15.9067 29.2263 15.826V8.544C29.2263 8.46333 29.2519 8.401 29.3033 8.357C29.3546 8.30567 29.4169 8.28 29.4903 8.28H30.3593C30.4399 8.28 30.5023 8.30567 30.5463 8.357C30.5976 8.401 30.6233 8.46333 30.6233 8.544V8.984C31.0339 8.44133 31.6206 8.17 32.3833 8.17C33.1239 8.17 33.6923 8.40467 34.0883 8.874C34.4843 9.336 34.6969 9.963 34.7263 10.755C34.7336 10.843 34.7373 10.9713 34.7373 11.14C34.7373 11.316 34.7336 11.448 34.7263 11.536C34.6969 12.306 34.4843 12.9293 34.0883 13.406C33.6923 13.8753 33.1239 14.11 32.3833 14.11C31.6426 14.11 31.0779 13.8497 30.6893 13.329V15.826C30.6893 15.9067 30.6636 15.969 30.6123 16.013C30.5683 16.0643 30.5059 16.09 30.4253 16.09H29.4903ZM31.9763 12.933C32.7683 12.933 33.1899 12.4453 33.2413 11.47C33.2486 11.3967 33.2523 11.2867 33.2523 11.14C33.2523 10.9933 33.2486 10.8833 33.2413 10.81C33.1899 9.83467 32.7683 9.347 31.9763 9.347C31.5509 9.347 31.2356 9.48267 31.0303 9.754C30.8249 10.0253 30.7113 10.359 30.6893 10.755L30.6783 11.173L30.6893 11.602C30.7039 11.9687 30.8176 12.284 31.0303 12.548C31.2503 12.8047 31.5656 12.933 31.9763 12.933ZM36.2471 14C36.1738 14 36.1114 13.9743 36.0601 13.923C36.0088 13.8717 35.9831 13.8093 35.9831 13.736V6.454C35.9831 6.37333 36.0088 6.311 36.0601 6.267C36.1114 6.21567 36.1738 6.19 36.2471 6.19H37.1601C37.2408 6.19 37.3031 6.21567 37.3471 6.267C37.3984 6.311 37.4241 6.37333 37.4241 6.454V13.736C37.4241 13.8093 37.3984 13.8717 37.3471 13.923C37.3031 13.9743 37.2408 14 37.1601 14H36.2471ZM40.5442 14.11C40.1702 14.11 39.8256 14.0367 39.5102 13.89C39.2022 13.736 38.9566 13.5307 38.7732 13.274C38.5972 13.0173 38.5092 12.735 38.5092 12.427C38.5092 11.9283 38.7109 11.525 39.1142 11.217C39.5176 10.909 40.0712 10.7 40.7752 10.59L42.2822 10.37V10.139C42.2822 9.81633 42.2016 9.57433 42.0402 9.413C41.8789 9.25167 41.6186 9.171 41.2592 9.171C41.0172 9.171 40.8192 9.21867 40.6652 9.314C40.5186 9.402 40.4012 9.49 40.3132 9.578C40.2252 9.67333 40.1666 9.73567 40.1372 9.765C40.1079 9.853 40.0529 9.897 39.9722 9.897H39.1252C39.0592 9.897 39.0006 9.875 38.9492 9.831C38.9052 9.787 38.8832 9.72833 38.8832 9.655C38.8906 9.47167 38.9786 9.26267 39.1472 9.028C39.3232 8.79333 39.5909 8.59167 39.9502 8.423C40.3096 8.25433 40.7496 8.17 41.2702 8.17C42.1356 8.17 42.7662 8.36433 43.1622 8.753C43.5582 9.14167 43.7562 9.65133 43.7562 10.282V13.736C43.7562 13.8093 43.7306 13.8717 43.6792 13.923C43.6352 13.9743 43.5729 14 43.4922 14H42.6012C42.5279 14 42.4656 13.9743 42.4142 13.923C42.3629 13.8717 42.3372 13.8093 42.3372 13.736V13.307C42.1759 13.5417 41.9449 13.736 41.6442 13.89C41.3509 14.0367 40.9842 14.11 40.5442 14.11ZM40.9182 13.065C41.3216 13.065 41.6516 12.933 41.9082 12.669C42.1649 12.405 42.2932 12.02 42.2932 11.514V11.283L41.1932 11.459C40.7679 11.525 40.4452 11.6313 40.2252 11.778C40.0126 11.9247 39.9062 12.1043 39.9062 12.317C39.9062 12.5517 40.0052 12.735 40.2032 12.867C40.4012 12.999 40.6396 13.065 40.9182 13.065ZM46.051 16.09C45.9923 16.09 45.941 16.068 45.897 16.024C45.853 15.98 45.831 15.9287 45.831 15.87C45.831 15.804 45.8457 15.7453 45.875 15.694L46.733 13.659L44.621 8.676C44.5917 8.61 44.577 8.55867 44.577 8.522C44.5843 8.456 44.61 8.401 44.654 8.357C44.698 8.30567 44.753 8.28 44.819 8.28H45.71C45.8493 8.28 45.9483 8.34967 46.007 8.489L47.47 12.086L48.977 8.489C49.0357 8.34967 49.1347 8.28 49.274 8.28H50.154C50.2127 8.28 50.264 8.302 50.308 8.346C50.3593 8.39 50.385 8.44133 50.385 8.5C50.385 8.55133 50.3703 8.61 50.341 8.676L47.228 15.881C47.162 16.0203 47.0593 16.09 46.92 16.09H46.051Z" fill="#535356"/>
<path d="M0.5 0.5H62.5V17C62.5 18.933 60.933 20.5 59 20.5H0.5V0.5Z" stroke="#EAEAEF"/>
<g filter="url(#filter0_d_908_1050)">
<mask id="path-6-inside-2_908_1050" fill="white">
<path d="M64.5 30H152.5V79H64.5V30Z"/>
</mask>
<path d="M64.5 30H152.5V79H64.5V30Z" fill="white"/>
<rect x="84.5" y="46" width="48" height="17" rx="5" fill="#F2F2F6"/>
<path d="M152.5 78H64.5V80H152.5V78Z" fill="#CBC9CD" mask="url(#path-6-inside-2_908_1050)"/>
<mask id="path-9-inside-3_908_1050" fill="white">
<path d="M64.5 79H152.5V128H64.5V79Z"/>
</mask>
<path d="M64.5 79H152.5V128H64.5V79Z" fill="white"/>
<rect x="84.5" y="95" width="48" height="17" rx="5" fill="#F2F2F6"/>
<path d="M152.5 127H64.5V129H152.5V127Z" fill="#CBC9CD" mask="url(#path-9-inside-3_908_1050)"/>
<mask id="path-12-inside-4_908_1050" fill="white">
<path d="M64.5 128H152.5V177H64.5V128Z"/>
</mask>
<path d="M64.5 128H152.5V177H64.5V128Z" fill="white"/>
<rect x="84.5" y="144" width="48" height="17" rx="5" fill="#F2F2F6"/>
<path d="M152.5 176H64.5V178H152.5V176Z" fill="#CBC9CD" mask="url(#path-12-inside-4_908_1050)"/>
<mask id="path-15-inside-5_908_1050" fill="white">
<path d="M64.5 177H152.5V226H64.5V177Z"/>
</mask>
<path d="M64.5 177H152.5V226H64.5V177Z" fill="white"/>
<rect x="84.5" y="193" width="48" height="17" rx="5" fill="#F2F2F6"/>
<path d="M152.5 225H64.5V227H152.5V225Z" fill="#CBC9CD" mask="url(#path-15-inside-5_908_1050)"/>
<mask id="path-18-inside-6_908_1050" fill="white">
<path d="M152.5 30H335.5V79H152.5V30Z"/>
</mask>
<path d="M152.5 30H335.5V79H152.5V30Z" fill="white"/>
<path d="M175.009 59C174.879 59 174.775 58.9653 174.697 58.896C174.619 58.8267 174.571 58.7313 174.554 58.61L173.007 50.277L172.994 50.173C172.994 50.095 173.02 50.03 173.072 49.978C173.133 49.926 173.198 49.9 173.267 49.9H174.411C174.628 49.9 174.749 49.9867 174.775 50.16L175.854 56.049L177.024 52.24C177.111 52.0233 177.254 51.915 177.453 51.915H178.155C178.372 51.915 178.51 52.0233 178.571 52.24L179.754 56.036L180.833 50.16C180.85 50.0647 180.885 49.9997 180.937 49.965C180.998 49.9217 181.084 49.9 181.197 49.9H182.341C182.41 49.9 182.471 49.926 182.523 49.978C182.575 50.03 182.601 50.095 182.601 50.173C182.601 50.2163 182.597 50.251 182.588 50.277L181.041 58.61C180.998 58.87 180.846 59 180.586 59H179.715C179.594 59 179.494 58.9697 179.416 58.909C179.338 58.8483 179.286 58.7703 179.26 58.675L177.804 54.333L176.348 58.675C176.261 58.8917 176.105 59 175.88 59H175.009ZM184.439 59C184.353 59 184.279 58.9697 184.218 58.909C184.158 58.8483 184.127 58.7747 184.127 58.688V50.225C184.127 50.1297 184.153 50.0517 184.205 49.991C184.266 49.9303 184.344 49.9 184.439 49.9H190.159C190.255 49.9 190.333 49.9303 190.393 49.991C190.454 50.0517 190.484 50.1297 190.484 50.225V51.083C190.484 51.1783 190.454 51.2563 190.393 51.317C190.333 51.369 190.255 51.395 190.159 51.395H185.882V53.696H189.873C189.969 53.696 190.047 53.7263 190.107 53.787C190.168 53.839 190.198 53.9127 190.198 54.008V54.814C190.198 54.9093 190.168 54.9873 190.107 55.048C190.047 55.1 189.969 55.126 189.873 55.126H185.882V57.505H190.263C190.359 57.505 190.437 57.5353 190.497 57.596C190.558 57.6567 190.588 57.7347 190.588 57.83V58.688C190.588 58.7833 190.558 58.8613 190.497 58.922C190.437 58.974 190.359 59 190.263 59H184.439ZM192.526 59C192.44 59 192.366 58.9697 192.305 58.909C192.245 58.8483 192.214 58.7747 192.214 58.688V50.225C192.214 50.1297 192.24 50.0517 192.292 49.991C192.353 49.9303 192.431 49.9 192.526 49.9H196.296C197.31 49.9 198.064 50.1253 198.558 50.576C199.061 51.018 199.312 51.6247 199.312 52.396C199.312 52.8467 199.2 53.2323 198.974 53.553C198.758 53.865 198.502 54.0903 198.207 54.229C198.571 54.3937 198.875 54.6623 199.117 55.035C199.369 55.4077 199.494 55.8323 199.494 56.309C199.494 57.115 199.221 57.765 198.675 58.259C198.138 58.753 197.38 59 196.4 59H192.526ZM196.062 53.631C196.513 53.631 196.855 53.5227 197.089 53.306C197.323 53.0893 197.44 52.799 197.44 52.435C197.44 52.0623 197.323 51.7763 197.089 51.577C196.855 51.369 196.513 51.265 196.062 51.265H194.021V53.631H196.062ZM196.192 57.622C196.643 57.622 196.994 57.5007 197.245 57.258C197.497 57.0067 197.622 56.6903 197.622 56.309C197.622 55.919 197.497 55.6027 197.245 55.36C196.994 55.1087 196.643 54.983 196.192 54.983H194.021V57.622H196.192ZM204.285 59.13C203.514 59.13 202.851 59.013 202.296 58.779C201.742 58.545 201.321 58.2373 201.035 57.856C200.749 57.4747 200.598 57.063 200.58 56.621C200.58 56.543 200.606 56.478 200.658 56.426C200.71 56.374 200.775 56.348 200.853 56.348H202.01C202.114 56.348 202.192 56.3697 202.244 56.413C202.305 56.4477 202.361 56.5083 202.413 56.595C202.5 56.8897 202.699 57.1367 203.011 57.336C203.323 57.5353 203.748 57.635 204.285 57.635C204.901 57.635 205.364 57.5353 205.676 57.336C205.988 57.128 206.144 56.842 206.144 56.478C206.144 56.2353 206.062 56.036 205.897 55.88C205.741 55.724 205.503 55.5897 205.182 55.477C204.87 55.3643 204.402 55.2257 203.778 55.061C202.756 54.8183 202.006 54.4977 201.529 54.099C201.061 53.6917 200.827 53.1153 200.827 52.37C200.827 51.8673 200.962 51.421 201.23 51.031C201.508 50.641 201.902 50.3333 202.413 50.108C202.933 49.8827 203.536 49.77 204.22 49.77C204.931 49.77 205.546 49.8957 206.066 50.147C206.586 50.3983 206.981 50.7147 207.249 51.096C207.527 51.4687 207.674 51.8413 207.691 52.214C207.691 52.292 207.665 52.357 207.613 52.409C207.561 52.461 207.496 52.487 207.418 52.487H206.209C206.027 52.487 205.902 52.4047 205.832 52.24C205.78 51.9627 205.607 51.733 205.312 51.551C205.018 51.3603 204.654 51.265 204.22 51.265C203.735 51.265 203.354 51.356 203.076 51.538C202.799 51.72 202.66 51.9843 202.66 52.331C202.66 52.5737 202.73 52.773 202.868 52.929C203.007 53.085 203.224 53.2237 203.518 53.345C203.822 53.4663 204.255 53.6007 204.818 53.748C205.581 53.9213 206.188 54.1163 206.638 54.333C207.098 54.5497 207.436 54.8227 207.652 55.152C207.869 55.4813 207.977 55.9017 207.977 56.413C207.977 56.9677 207.821 57.453 207.509 57.869C207.206 58.2763 206.773 58.5883 206.209 58.805C205.655 59.0217 205.013 59.13 204.285 59.13ZM209.779 59C209.692 59 209.619 58.9697 209.558 58.909C209.497 58.8483 209.467 58.7747 209.467 58.688V50.212C209.467 50.1167 209.497 50.043 209.558 49.991C209.619 49.9303 209.692 49.9 209.779 49.9H211.001C211.096 49.9 211.17 49.9303 211.222 49.991C211.283 50.043 211.313 50.1167 211.313 50.212V58.688C211.313 58.7747 211.283 58.8483 211.222 58.909C211.17 58.9697 211.096 59 211.001 59H209.779ZM215.666 59C215.579 59 215.506 58.9697 215.445 58.909C215.384 58.8483 215.354 58.7747 215.354 58.688V51.499H212.949C212.862 51.499 212.789 51.4687 212.728 51.408C212.667 51.3473 212.637 51.2737 212.637 51.187V50.225C212.637 50.1297 212.663 50.0517 212.715 49.991C212.776 49.9303 212.854 49.9 212.949 49.9H219.579C219.674 49.9 219.752 49.9303 219.813 49.991C219.874 50.0517 219.904 50.1297 219.904 50.225V51.187C219.904 51.2737 219.874 51.3473 219.813 51.408C219.752 51.4687 219.674 51.499 219.579 51.499H217.187V58.688C217.187 58.7747 217.157 58.8483 217.096 58.909C217.035 58.9697 216.957 59 216.862 59H215.666ZM221.535 59C221.448 59 221.375 58.9697 221.314 58.909C221.253 58.8483 221.223 58.7747 221.223 58.688V50.225C221.223 50.1297 221.249 50.0517 221.301 49.991C221.362 49.9303 221.44 49.9 221.535 49.9H227.255C227.35 49.9 227.428 49.9303 227.489 49.991C227.55 50.0517 227.58 50.1297 227.58 50.225V51.083C227.58 51.1783 227.55 51.2563 227.489 51.317C227.428 51.369 227.35 51.395 227.255 51.395H222.978V53.696H226.969C227.064 53.696 227.142 53.7263 227.203 53.787C227.264 53.839 227.294 53.9127 227.294 54.008V54.814C227.294 54.9093 227.264 54.9873 227.203 55.048C227.142 55.1 227.064 55.126 226.969 55.126H222.978V57.505H227.359C227.454 57.505 227.532 57.5353 227.593 57.596C227.654 57.6567 227.684 57.7347 227.684 57.83V58.688C227.684 58.7833 227.654 58.8613 227.593 58.922C227.532 58.974 227.454 59 227.359 59H221.535ZM235.908 59.13C234.738 59.13 233.828 58.831 233.178 58.233C232.528 57.635 232.203 56.7293 232.203 55.516V50.225C232.203 50.1297 232.229 50.0517 232.281 49.991C232.341 49.9303 232.419 49.9 232.515 49.9H233.698C233.793 49.9 233.867 49.9303 233.919 49.991C233.979 50.0517 234.01 50.1297 234.01 50.225V55.516C234.01 56.2093 234.174 56.7337 234.504 57.089C234.833 57.4357 235.301 57.609 235.908 57.609C236.514 57.609 236.978 57.4357 237.299 57.089C237.628 56.7337 237.793 56.2093 237.793 55.516V50.225C237.793 50.1297 237.823 50.0517 237.884 49.991C237.944 49.9303 238.022 49.9 238.118 49.9H239.288C239.383 49.9 239.457 49.9303 239.509 49.991C239.569 50.0517 239.6 50.1297 239.6 50.225V55.516C239.6 56.7293 239.275 57.635 238.625 58.233C237.983 58.831 237.078 59.13 235.908 59.13ZM241.86 59C241.774 59 241.7 58.9697 241.639 58.909C241.579 58.8483 241.548 58.7747 241.548 58.688V50.225C241.548 50.1297 241.574 50.0517 241.626 49.991C241.687 49.9303 241.765 49.9 241.86 49.9H245.227C246.285 49.9 247.112 50.147 247.71 50.641C248.317 51.135 248.62 51.837 248.62 52.747C248.62 53.3797 248.464 53.9127 248.152 54.346C247.849 54.7707 247.424 55.0783 246.878 55.269L248.776 58.584C248.802 58.636 248.815 58.6837 248.815 58.727C248.815 58.805 248.785 58.87 248.724 58.922C248.672 58.974 248.612 59 248.542 59H247.359C247.221 59 247.112 58.9697 247.034 58.909C246.965 58.8483 246.9 58.7617 246.839 58.649L245.162 55.568H243.355V58.688C243.355 58.7747 243.325 58.8483 243.264 58.909C243.212 58.9697 243.139 59 243.043 59H241.86ZM245.188 54.099C245.708 54.099 246.098 53.982 246.358 53.748C246.627 53.514 246.761 53.176 246.761 52.734C246.761 52.292 246.627 51.9497 246.358 51.707C246.098 51.4643 245.708 51.343 245.188 51.343H243.355V54.099H245.188ZM250.607 59C250.521 59 250.447 58.9697 250.386 58.909C250.326 58.8483 250.295 58.7747 250.295 58.688V50.212C250.295 50.1167 250.326 50.043 250.386 49.991C250.447 49.9303 250.521 49.9 250.607 49.9H251.816C251.912 49.9 251.985 49.9303 252.037 49.991C252.098 50.043 252.128 50.1167 252.128 50.212V57.453H256.249C256.345 57.453 256.423 57.4833 256.483 57.544C256.544 57.6047 256.574 57.6827 256.574 57.778V58.688C256.574 58.7833 256.544 58.8613 256.483 58.922C256.423 58.974 256.345 59 256.249 59H250.607Z" fill="#A0A0A5"/>
<path d="M335.5 78H152.5V80H335.5V78Z" fill="#CBC9CD" mask="url(#path-18-inside-6_908_1050)"/>
<mask id="path-21-inside-7_908_1050" fill="white">
<path d="M152.5 79H335.5V128H152.5V79Z"/>
</mask>
<path d="M152.5 79H335.5V128H152.5V79Z" fill="white"/>
<path d="M184.5 104.167V108.167C184.5 108.52 184.36 108.859 184.109 109.109C183.859 109.36 183.52 109.5 183.167 109.5H175.833C175.48 109.5 175.141 109.36 174.891 109.109C174.64 108.859 174.5 108.52 174.5 108.167V100.833C174.5 100.48 174.64 100.141 174.891 99.8905C175.141 99.6405 175.48 99.5 175.833 99.5H179.833" stroke="#5C1EE8" stroke-linecap="round" stroke-linejoin="round"/>
<path d="M182.5 97.5H186.5V101.5" stroke="#5C1EE8" stroke-linecap="round" stroke-linejoin="round"/>
<path d="M179.167 104.833L186.5 97.5" stroke="#5C1EE8" stroke-linecap="round" stroke-linejoin="round"/>
<path d="M194.774 108C194.687 108 194.614 107.974 194.553 107.922C194.501 107.861 194.475 107.788 194.475 107.701V99.069C194.475 98.9823 194.501 98.913 194.553 98.861C194.614 98.8003 194.687 98.77 194.774 98.77H195.424C195.511 98.77 195.58 98.8003 195.632 98.861C195.693 98.913 195.723 98.9823 195.723 99.069V102.098C195.974 101.777 196.269 101.535 196.607 101.37C196.945 101.197 197.365 101.11 197.868 101.11C198.7 101.11 199.346 101.379 199.805 101.916C200.273 102.445 200.507 103.151 200.507 104.035V107.701C200.507 107.788 200.477 107.861 200.416 107.922C200.364 107.974 200.295 108 200.208 108H199.558C199.471 108 199.398 107.974 199.337 107.922C199.285 107.861 199.259 107.788 199.259 107.701V104.1C199.259 103.485 199.107 103.008 198.804 102.67C198.509 102.332 198.08 102.163 197.517 102.163C196.971 102.163 196.533 102.336 196.204 102.683C195.883 103.021 195.723 103.493 195.723 104.1V107.701C195.723 107.788 195.693 107.861 195.632 107.922C195.58 107.974 195.511 108 195.424 108H194.774ZM204.934 108C203.565 108 202.88 107.237 202.88 105.712V102.28H201.866C201.779 102.28 201.706 102.254 201.645 102.202C201.593 102.141 201.567 102.068 201.567 101.981V101.539C201.567 101.452 201.593 101.383 201.645 101.331C201.706 101.27 201.779 101.24 201.866 101.24H202.88V99.069C202.88 98.9823 202.906 98.913 202.958 98.861C203.019 98.8003 203.092 98.77 203.179 98.77H203.79C203.877 98.77 203.946 98.8003 203.998 98.861C204.059 98.913 204.089 98.9823 204.089 99.069V101.24H205.701C205.788 101.24 205.857 101.27 205.909 101.331C205.97 101.383 206 101.452 206 101.539V101.981C206 102.068 205.97 102.141 205.909 102.202C205.857 102.254 205.788 102.28 205.701 102.28H204.089V105.621C204.089 106.054 204.163 106.384 204.31 106.609C204.457 106.826 204.7 106.934 205.038 106.934H205.831C205.918 106.934 205.987 106.964 206.039 107.025C206.1 107.077 206.13 107.146 206.13 107.233V107.701C206.13 107.788 206.1 107.861 206.039 107.922C205.987 107.974 205.918 108 205.831 108H204.934ZM210.012 108C208.643 108 207.958 107.237 207.958 105.712V102.28H206.944C206.857 102.28 206.784 102.254 206.723 102.202C206.671 102.141 206.645 102.068 206.645 101.981V101.539C206.645 101.452 206.671 101.383 206.723 101.331C206.784 101.27 206.857 101.24 206.944 101.24H207.958V99.069C207.958 98.9823 207.984 98.913 208.036 98.861C208.097 98.8003 208.17 98.77 208.257 98.77H208.868C208.955 98.77 209.024 98.8003 209.076 98.861C209.137 98.913 209.167 98.9823 209.167 99.069V101.24H210.779C210.866 101.24 210.935 101.27 210.987 101.331C211.048 101.383 211.078 101.452 211.078 101.539V101.981C211.078 102.068 211.048 102.141 210.987 102.202C210.935 102.254 210.866 102.28 210.779 102.28H209.167V105.621C209.167 106.054 209.241 106.384 209.388 106.609C209.535 106.826 209.778 106.934 210.116 106.934H210.909C210.996 106.934 211.065 106.964 211.117 107.025C211.178 107.077 211.208 107.146 211.208 107.233V107.701C211.208 107.788 211.178 107.861 211.117 107.922C211.065 107.974 210.996 108 210.909 108H210.012ZM212.763 110.47C212.677 110.47 212.603 110.44 212.542 110.379C212.49 110.327 212.464 110.258 212.464 110.171V101.539C212.464 101.452 212.49 101.383 212.542 101.331C212.603 101.27 212.677 101.24 212.763 101.24H213.361C213.448 101.24 213.517 101.27 213.569 101.331C213.63 101.383 213.66 101.452 213.66 101.539V102.111C214.146 101.444 214.856 101.11 215.792 101.11C216.702 101.11 217.383 101.396 217.833 101.968C218.293 102.54 218.54 103.277 218.574 104.178C218.583 104.273 218.587 104.421 218.587 104.62C218.587 104.819 218.583 104.967 218.574 105.062C218.54 105.955 218.293 106.691 217.833 107.272C217.374 107.844 216.694 108.13 215.792 108.13C214.891 108.13 214.189 107.805 213.686 107.155V110.171C213.686 110.258 213.66 110.327 213.608 110.379C213.556 110.44 213.487 110.47 213.4 110.47H212.763ZM215.519 107.077C216.135 107.077 216.581 106.886 216.858 106.505C217.144 106.124 217.3 105.621 217.326 104.997C217.335 104.91 217.339 104.785 217.339 104.62C217.339 102.982 216.733 102.163 215.519 102.163C214.921 102.163 214.471 102.362 214.167 102.761C213.873 103.151 213.712 103.619 213.686 104.165L213.673 104.659L213.686 105.166C213.704 105.677 213.868 106.124 214.18 106.505C214.492 106.886 214.939 107.077 215.519 107.077ZM222.535 108.13C221.929 108.13 221.417 108.035 221.001 107.844C220.594 107.645 220.286 107.419 220.078 107.168C219.879 106.917 219.779 106.709 219.779 106.544C219.779 106.457 219.81 106.392 219.87 106.349C219.94 106.297 220.009 106.271 220.078 106.271H220.663C220.75 106.271 220.828 106.314 220.897 106.401C221.105 106.644 221.331 106.834 221.573 106.973C221.816 107.112 222.141 107.181 222.548 107.181C222.999 107.181 223.363 107.094 223.64 106.921C223.926 106.739 224.069 106.492 224.069 106.18C224.069 105.972 224.009 105.803 223.887 105.673C223.775 105.534 223.575 105.417 223.289 105.322C223.012 105.218 222.596 105.105 222.041 104.984C221.287 104.819 220.75 104.581 220.429 104.269C220.117 103.957 219.961 103.554 219.961 103.06C219.961 102.731 220.057 102.419 220.247 102.124C220.447 101.821 220.733 101.578 221.105 101.396C221.487 101.205 221.942 101.11 222.47 101.11C223.025 101.11 223.497 101.201 223.887 101.383C224.277 101.565 224.568 101.782 224.758 102.033C224.958 102.276 225.057 102.479 225.057 102.644C225.057 102.722 225.027 102.787 224.966 102.839C224.914 102.891 224.849 102.917 224.771 102.917H224.225C224.121 102.917 224.035 102.874 223.965 102.787C223.827 102.622 223.705 102.497 223.601 102.41C223.506 102.315 223.363 102.232 223.172 102.163C222.99 102.094 222.756 102.059 222.47 102.059C222.054 102.059 221.734 102.15 221.508 102.332C221.283 102.505 221.17 102.735 221.17 103.021C221.17 103.203 221.218 103.359 221.313 103.489C221.409 103.61 221.591 103.723 221.859 103.827C222.137 103.931 222.535 104.039 223.055 104.152C223.879 104.325 224.459 104.577 224.797 104.906C225.144 105.227 225.317 105.638 225.317 106.141C225.317 106.514 225.209 106.852 224.992 107.155C224.776 107.458 224.455 107.697 224.03 107.87C223.614 108.043 223.116 108.13 222.535 108.13ZM227.056 103.45C226.97 103.45 226.896 103.424 226.835 103.372C226.783 103.311 226.757 103.238 226.757 103.151V102.241C226.757 102.154 226.783 102.085 226.835 102.033C226.896 101.972 226.97 101.942 227.056 101.942H227.992C228.079 101.942 228.148 101.972 228.2 102.033C228.261 102.085 228.291 102.154 228.291 102.241V103.151C228.291 103.238 228.261 103.311 228.2 103.372C228.148 103.424 228.079 103.45 227.992 103.45H227.056ZM227.056 108C226.97 108 226.896 107.974 226.835 107.922C226.783 107.861 226.757 107.788 226.757 107.701V106.791C226.757 106.704 226.783 106.635 226.835 106.583C226.896 106.522 226.97 106.492 227.056 106.492H227.992C228.079 106.492 228.148 106.522 228.2 106.583C228.261 106.635 228.291 106.704 228.291 106.791V107.701C228.291 107.788 228.261 107.861 228.2 107.922C228.148 107.974 228.079 108 227.992 108H227.056ZM229.785 109.092C229.715 109.092 229.655 109.066 229.603 109.014C229.551 108.962 229.525 108.901 229.525 108.832C229.525 108.797 229.538 108.745 229.564 108.676L234.01 98.016C234.079 97.86 234.192 97.782 234.348 97.782H234.855C234.924 97.782 234.985 97.808 235.037 97.86C235.089 97.912 235.115 97.9727 235.115 98.042C235.115 98.1027 235.106 98.1547 235.089 98.198L230.63 108.858C230.56 109.014 230.448 109.092 230.292 109.092H229.785ZM233.39 109.092C233.321 109.092 233.26 109.066 233.208 109.014C233.156 108.962 233.13 108.901 233.13 108.832C233.13 108.797 233.143 108.745 233.169 108.676L237.615 98.016C237.684 97.86 237.797 97.782 237.953 97.782H238.46C238.529 97.782 238.59 97.808 238.642 97.86C238.694 97.912 238.72 97.9727 238.72 98.042C238.72 98.1027 238.711 98.1547 238.694 98.198L234.235 108.858C234.166 109.014 234.053 109.092 233.897 109.092H233.39ZM241.464 108C241.351 108 241.265 107.974 241.204 107.922C241.143 107.87 241.091 107.788 241.048 107.675L239.202 101.643L239.176 101.513C239.176 101.435 239.202 101.37 239.254 101.318C239.315 101.266 239.38 101.24 239.449 101.24H240.021C240.108 101.24 240.177 101.266 240.229 101.318C240.29 101.361 240.329 101.409 240.346 101.461L241.789 106.362L243.336 101.513C243.353 101.444 243.392 101.383 243.453 101.331C243.514 101.27 243.596 101.24 243.7 101.24H244.142C244.246 101.24 244.328 101.27 244.389 101.331C244.45 101.383 244.489 101.444 244.506 101.513L246.053 106.362L247.496 101.461C247.505 101.418 247.535 101.37 247.587 101.318C247.648 101.266 247.721 101.24 247.808 101.24H248.393C248.462 101.24 248.523 101.266 248.575 101.318C248.627 101.37 248.653 101.435 248.653 101.513L248.627 101.643L246.794 107.675C246.751 107.788 246.699 107.87 246.638 107.922C246.577 107.974 246.486 108 246.365 108H245.858C245.624 108 245.481 107.892 245.429 107.675L243.921 103.021L242.413 107.675C242.344 107.892 242.196 108 241.971 108H241.464ZM252.619 108.13C251.726 108.13 251.011 107.857 250.474 107.311C249.945 106.756 249.655 106.002 249.603 105.049L249.59 104.607L249.603 104.178C249.664 103.242 249.958 102.497 250.487 101.942C251.024 101.387 251.731 101.11 252.606 101.11C253.568 101.11 254.313 101.418 254.842 102.033C255.371 102.64 255.635 103.463 255.635 104.503V104.724C255.635 104.811 255.605 104.884 255.544 104.945C255.492 104.997 255.423 105.023 255.336 105.023H250.838V105.14C250.864 105.703 251.033 106.184 251.345 106.583C251.666 106.973 252.086 107.168 252.606 107.168C253.005 107.168 253.33 107.09 253.581 106.934C253.841 106.769 254.032 106.6 254.153 106.427C254.231 106.323 254.287 106.262 254.322 106.245C254.365 106.219 254.439 106.206 254.543 106.206H255.18C255.258 106.206 255.323 106.228 255.375 106.271C255.427 106.314 255.453 106.375 255.453 106.453C255.453 106.644 255.332 106.873 255.089 107.142C254.855 107.411 254.521 107.645 254.088 107.844C253.663 108.035 253.174 108.13 252.619 108.13ZM254.4 104.126V104.087C254.4 103.489 254.235 103.004 253.906 102.631C253.585 102.25 253.152 102.059 252.606 102.059C252.06 102.059 251.627 102.25 251.306 102.631C250.994 103.004 250.838 103.489 250.838 104.087V104.126H254.4ZM260.531 108.13C259.595 108.13 258.884 107.805 258.399 107.155V107.701C258.399 107.788 258.368 107.861 258.308 107.922C258.256 107.974 258.186 108 258.1 108H257.502C257.415 108 257.341 107.974 257.281 107.922C257.229 107.861 257.203 107.788 257.203 107.701V99.069C257.203 98.9823 257.229 98.913 257.281 98.861C257.341 98.8003 257.415 98.77 257.502 98.77H258.139C258.225 98.77 258.295 98.8003 258.347 98.861C258.399 98.913 258.425 98.9823 258.425 99.069V102.059C258.936 101.426 259.638 101.11 260.531 101.11C261.432 101.11 262.112 101.409 262.572 102.007C263.031 102.596 263.278 103.337 263.313 104.23C263.321 104.325 263.326 104.455 263.326 104.62C263.326 104.785 263.321 104.915 263.313 105.01C263.278 105.911 263.031 106.657 262.572 107.246C262.112 107.835 261.432 108.13 260.531 108.13ZM260.258 107.077C260.873 107.077 261.319 106.886 261.597 106.505C261.883 106.124 262.039 105.621 262.065 104.997C262.073 104.91 262.078 104.785 262.078 104.62C262.078 102.982 261.471 102.163 260.258 102.163C259.677 102.163 259.231 102.354 258.919 102.735C258.607 103.116 258.442 103.563 258.425 104.074L258.412 104.581L258.425 105.075C258.451 105.621 258.611 106.093 258.906 106.492C259.209 106.882 259.66 107.077 260.258 107.077ZM267.261 108.13C266.654 108.13 266.143 108.035 265.727 107.844C265.32 107.645 265.012 107.419 264.804 107.168C264.605 106.917 264.505 106.709 264.505 106.544C264.505 106.457 264.535 106.392 264.596 106.349C264.665 106.297 264.735 106.271 264.804 106.271H265.389C265.476 106.271 265.554 106.314 265.623 106.401C265.831 106.644 266.056 106.834 266.299 106.973C266.542 107.112 266.867 107.181 267.274 107.181C267.725 107.181 268.089 107.094 268.366 106.921C268.652 106.739 268.795 106.492 268.795 106.18C268.795 105.972 268.734 105.803 268.613 105.673C268.5 105.534 268.301 105.417 268.015 105.322C267.738 105.218 267.322 105.105 266.767 104.984C266.013 104.819 265.476 104.581 265.155 104.269C264.843 103.957 264.687 103.554 264.687 103.06C264.687 102.731 264.782 102.419 264.973 102.124C265.172 101.821 265.458 101.578 265.831 101.396C266.212 101.205 266.667 101.11 267.196 101.11C267.751 101.11 268.223 101.201 268.613 101.383C269.003 101.565 269.293 101.782 269.484 102.033C269.683 102.276 269.783 102.479 269.783 102.644C269.783 102.722 269.753 102.787 269.692 102.839C269.64 102.891 269.575 102.917 269.497 102.917H268.951C268.847 102.917 268.76 102.874 268.691 102.787C268.552 102.622 268.431 102.497 268.327 102.41C268.232 102.315 268.089 102.232 267.898 102.163C267.716 102.094 267.482 102.059 267.196 102.059C266.78 102.059 266.459 102.15 266.234 102.332C266.009 102.505 265.896 102.735 265.896 103.021C265.896 103.203 265.944 103.359 266.039 103.489C266.134 103.61 266.316 103.723 266.585 103.827C266.862 103.931 267.261 104.039 267.781 104.152C268.604 104.325 269.185 104.577 269.523 104.906C269.87 105.227 270.043 105.638 270.043 106.141C270.043 106.514 269.935 106.852 269.718 107.155C269.501 107.458 269.181 107.697 268.756 107.87C268.34 108.043 267.842 108.13 267.261 108.13ZM271.743 99.979C271.656 99.979 271.583 99.953 271.522 99.901C271.47 99.8403 271.444 99.7667 271.444 99.68V98.978C271.444 98.8913 271.47 98.8177 271.522 98.757C271.583 98.6963 271.656 98.666 271.743 98.666H272.562C272.649 98.666 272.722 98.6963 272.783 98.757C272.844 98.8177 272.874 98.8913 272.874 98.978V99.68C272.874 99.7667 272.844 99.8403 272.783 99.901C272.722 99.953 272.649 99.979 272.562 99.979H271.743ZM271.847 108C271.76 108 271.687 107.974 271.626 107.922C271.574 107.861 271.548 107.788 271.548 107.701V101.539C271.548 101.452 271.574 101.383 271.626 101.331C271.687 101.27 271.76 101.24 271.847 101.24H272.471C272.558 101.24 272.627 101.27 272.679 101.331C272.74 101.383 272.77 101.452 272.77 101.539V107.701C272.77 107.788 272.74 107.861 272.679 107.922C272.627 107.974 272.558 108 272.471 108H271.847ZM277.335 108C275.966 108 275.281 107.237 275.281 105.712V102.28H274.267C274.181 102.28 274.107 102.254 274.046 102.202C273.994 102.141 273.968 102.068 273.968 101.981V101.539C273.968 101.452 273.994 101.383 274.046 101.331C274.107 101.27 274.181 101.24 274.267 101.24H275.281V99.069C275.281 98.9823 275.307 98.913 275.359 98.861C275.42 98.8003 275.494 98.77 275.58 98.77H276.191C276.278 98.77 276.347 98.8003 276.399 98.861C276.46 98.913 276.49 98.9823 276.49 99.069V101.24H278.102C278.189 101.24 278.258 101.27 278.31 101.331C278.371 101.383 278.401 101.452 278.401 101.539V101.981C278.401 102.068 278.371 102.141 278.31 102.202C278.258 102.254 278.189 102.28 278.102 102.28H276.49V105.621C276.49 106.054 276.564 106.384 276.711 106.609C276.859 106.826 277.101 106.934 277.439 106.934H278.232C278.319 106.934 278.388 106.964 278.44 107.025C278.501 107.077 278.531 107.146 278.531 107.233V107.701C278.531 107.788 278.501 107.861 278.44 107.922C278.388 107.974 278.319 108 278.232 108H277.335ZM282.479 108.13C281.586 108.13 280.871 107.857 280.334 107.311C279.805 106.756 279.515 106.002 279.463 105.049L279.45 104.607L279.463 104.178C279.523 103.242 279.818 102.497 280.347 101.942C280.884 101.387 281.59 101.11 282.466 101.11C283.428 101.11 284.173 101.418 284.702 102.033C285.23 102.64 285.494 103.463 285.494 104.503V104.724C285.494 104.811 285.464 104.884 285.404 104.945C285.352 104.997 285.282 105.023 285.196 105.023H280.698V105.14C280.724 105.703 280.893 106.184 281.205 106.583C281.525 106.973 281.946 107.168 282.466 107.168C282.864 107.168 283.189 107.09 283.441 106.934C283.701 106.769 283.891 106.6 284.013 106.427C284.091 106.323 284.147 106.262 284.182 106.245C284.225 106.219 284.299 106.206 284.403 106.206H285.04C285.118 106.206 285.183 106.228 285.235 106.271C285.287 106.314 285.312 106.375 285.312 106.453C285.312 106.644 285.191 106.873 284.949 107.142C284.715 107.411 284.381 107.645 283.948 107.844C283.523 108.035 283.033 108.13 282.479 108.13ZM284.26 104.126V104.087C284.26 103.489 284.095 103.004 283.766 102.631C283.445 102.25 283.012 102.059 282.466 102.059C281.92 102.059 281.486 102.25 281.166 102.631C280.854 103.004 280.698 103.489 280.698 104.087V104.126H284.26ZM287.257 108C287.17 108 287.097 107.974 287.036 107.922C286.984 107.861 286.958 107.788 286.958 107.701V106.765C286.958 106.678 286.984 106.609 287.036 106.557C287.097 106.496 287.17 106.466 287.257 106.466H288.193C288.28 106.466 288.353 106.496 288.414 106.557C288.475 106.609 288.505 106.678 288.505 106.765V107.701C288.505 107.788 288.475 107.861 288.414 107.922C288.353 107.974 288.28 108 288.193 108H287.257ZM292.927 108.13C292 108.13 291.272 107.87 290.743 107.35C290.223 106.821 289.946 106.085 289.911 105.14L289.898 104.62L289.911 104.1C289.946 103.155 290.223 102.423 290.743 101.903C291.272 101.374 292 101.11 292.927 101.11C293.551 101.11 294.08 101.223 294.513 101.448C294.947 101.673 295.267 101.951 295.475 102.28C295.692 102.609 295.809 102.939 295.826 103.268C295.835 103.355 295.809 103.424 295.748 103.476C295.688 103.528 295.614 103.554 295.527 103.554H294.903C294.817 103.554 294.752 103.537 294.708 103.502C294.665 103.467 294.622 103.398 294.578 103.294C294.431 102.878 294.223 102.583 293.954 102.41C293.686 102.228 293.348 102.137 292.94 102.137C292.403 102.137 291.974 102.306 291.653 102.644C291.341 102.973 291.172 103.48 291.146 104.165L291.133 104.633L291.146 105.075C291.172 105.768 291.341 106.28 291.653 106.609C291.965 106.938 292.394 107.103 292.94 107.103C293.348 107.103 293.686 107.016 293.954 106.843C294.223 106.661 294.431 106.362 294.578 105.946C294.622 105.842 294.665 105.773 294.708 105.738C294.752 105.695 294.817 105.673 294.903 105.673H295.527C295.614 105.673 295.688 105.703 295.748 105.764C295.809 105.816 295.835 105.885 295.826 105.972C295.809 106.293 295.692 106.622 295.475 106.96C295.267 107.289 294.947 107.567 294.513 107.792C294.089 108.017 293.56 108.13 292.927 108.13ZM300.139 108.13C299.186 108.13 298.445 107.861 297.916 107.324C297.396 106.787 297.119 106.072 297.084 105.179L297.071 104.62L297.084 104.061C297.119 103.177 297.401 102.466 297.929 101.929C298.458 101.383 299.195 101.11 300.139 101.11C301.084 101.11 301.821 101.383 302.349 101.929C302.878 102.466 303.16 103.177 303.194 104.061C303.203 104.156 303.207 104.343 303.207 104.62C303.207 104.897 303.203 105.084 303.194 105.179C303.16 106.072 302.878 106.787 302.349 107.324C301.829 107.861 301.093 108.13 300.139 108.13ZM300.139 107.129C300.685 107.129 301.114 106.956 301.426 106.609C301.747 106.262 301.92 105.764 301.946 105.114C301.955 105.027 301.959 104.863 301.959 104.62C301.959 104.377 301.955 104.213 301.946 104.126C301.92 103.476 301.747 102.978 301.426 102.631C301.114 102.284 300.685 102.111 300.139 102.111C299.593 102.111 299.16 102.284 298.839 102.631C298.519 102.978 298.35 103.476 298.332 104.126L298.319 104.62L298.332 105.114C298.35 105.764 298.519 106.262 298.839 106.609C299.16 106.956 299.593 107.129 300.139 107.129ZM305.134 108C305.047 108 304.974 107.974 304.913 107.922C304.861 107.861 304.835 107.788 304.835 107.701V101.539C304.835 101.452 304.861 101.383 304.913 101.331C304.974 101.27 305.047 101.24 305.134 101.24H305.719C305.806 101.24 305.875 101.27 305.927 101.331C305.988 101.383 306.018 101.452 306.018 101.539V101.994C306.469 101.405 307.097 101.11 307.903 101.11C308.865 101.11 309.545 101.509 309.944 102.306C310.152 101.942 310.447 101.652 310.828 101.435C311.209 101.218 311.638 101.11 312.115 101.11C312.826 101.11 313.406 101.353 313.857 101.838C314.308 102.323 314.533 103.025 314.533 103.944V107.701C314.533 107.788 314.503 107.861 314.442 107.922C314.39 107.974 314.321 108 314.234 108H313.623C313.536 108 313.463 107.974 313.402 107.922C313.35 107.861 313.324 107.788 313.324 107.701V104.061C313.324 103.385 313.181 102.9 312.895 102.605C312.618 102.31 312.249 102.163 311.79 102.163C311.383 102.163 311.032 102.315 310.737 102.618C310.442 102.913 310.295 103.394 310.295 104.061V107.701C310.295 107.788 310.265 107.861 310.204 107.922C310.152 107.974 310.083 108 309.996 108H309.385C309.298 108 309.225 107.974 309.164 107.922C309.112 107.861 309.086 107.788 309.086 107.701V104.061C309.086 103.385 308.939 102.9 308.644 102.605C308.358 102.31 307.994 102.163 307.552 102.163C307.145 102.163 306.794 102.315 306.499 102.618C306.204 102.913 306.057 103.389 306.057 104.048V107.701C306.057 107.788 306.027 107.861 305.966 107.922C305.914 107.974 305.845 108 305.758 108H305.134Z" fill="#5C1EE8"/>
<path d="M193.5 108.975H315.43V109.625H193.5V108.975Z" fill="#5C1EE8"/>
<path d="M335.5 127H152.5V129H335.5V127Z" fill="#CBC9CD" mask="url(#path-21-inside-7_908_1050)"/>
<mask id="path-27-inside-8_908_1050" fill="white">
<path d="M152.5 128H335.5V177H152.5V128Z"/>
</mask>
<path d="M152.5 128H335.5V177H152.5V128Z" fill="white"/>
<path d="M184.5 153.167V157.167C184.5 157.52 184.36 157.859 184.109 158.109C183.859 158.36 183.52 158.5 183.167 158.5H175.833C175.48 158.5 175.141 158.36 174.891 158.109C174.64 157.859 174.5 157.52 174.5 157.167V149.833C174.5 149.48 174.64 149.141 174.891 148.891C175.141 148.64 175.48 148.5 175.833 148.5H179.833" stroke="#5C1EE8" stroke-linecap="round" stroke-linejoin="round"/>
<path d="M182.5 146.5H186.5V150.5" stroke="#5C1EE8" stroke-linecap="round" stroke-linejoin="round"/>
<path d="M179.167 153.833L186.5 146.5" stroke="#5C1EE8" stroke-linecap="round" stroke-linejoin="round"/>
<path d="M194.774 157C194.687 157 194.614 156.974 194.553 156.922C194.501 156.861 194.475 156.788 194.475 156.701V148.069C194.475 147.982 194.501 147.913 194.553 147.861C194.614 147.8 194.687 147.77 194.774 147.77H195.424C195.511 147.77 195.58 147.8 195.632 147.861C195.693 147.913 195.723 147.982 195.723 148.069V151.098C195.974 150.777 196.269 150.535 196.607 150.37C196.945 150.197 197.365 150.11 197.868 150.11C198.7 150.11 199.346 150.379 199.805 150.916C200.273 151.445 200.507 152.151 200.507 153.035V156.701C200.507 156.788 200.477 156.861 200.416 156.922C200.364 156.974 200.295 157 200.208 157H199.558C199.471 157 199.398 156.974 199.337 156.922C199.285 156.861 199.259 156.788 199.259 156.701V153.1C199.259 152.485 199.107 152.008 198.804 151.67C198.509 151.332 198.08 151.163 197.517 151.163C196.971 151.163 196.533 151.336 196.204 151.683C195.883 152.021 195.723 152.493 195.723 153.1V156.701C195.723 156.788 195.693 156.861 195.632 156.922C195.58 156.974 195.511 157 195.424 157H194.774ZM204.934 157C203.565 157 202.88 156.237 202.88 154.712V151.28H201.866C201.779 151.28 201.706 151.254 201.645 151.202C201.593 151.141 201.567 151.068 201.567 150.981V150.539C201.567 150.452 201.593 150.383 201.645 150.331C201.706 150.27 201.779 150.24 201.866 150.24H202.88V148.069C202.88 147.982 202.906 147.913 202.958 147.861C203.019 147.8 203.092 147.77 203.179 147.77H203.79C203.877 147.77 203.946 147.8 203.998 147.861C204.059 147.913 204.089 147.982 204.089 148.069V150.24H205.701C205.788 150.24 205.857 150.27 205.909 150.331C205.97 150.383 206 150.452 206 150.539V150.981C206 151.068 205.97 151.141 205.909 151.202C205.857 151.254 205.788 151.28 205.701 151.28H204.089V154.621C204.089 155.054 204.163 155.384 204.31 155.609C204.457 155.826 204.7 155.934 205.038 155.934H205.831C205.918 155.934 205.987 155.964 206.039 156.025C206.1 156.077 206.13 156.146 206.13 156.233V156.701C206.13 156.788 206.1 156.861 206.039 156.922C205.987 156.974 205.918 157 205.831 157H204.934ZM210.012 157C208.643 157 207.958 156.237 207.958 154.712V151.28H206.944C206.857 151.28 206.784 151.254 206.723 151.202C206.671 151.141 206.645 151.068 206.645 150.981V150.539C206.645 150.452 206.671 150.383 206.723 150.331C206.784 150.27 206.857 150.24 206.944 150.24H207.958V148.069C207.958 147.982 207.984 147.913 208.036 147.861C208.097 147.8 208.17 147.77 208.257 147.77H208.868C208.955 147.77 209.024 147.8 209.076 147.861C209.137 147.913 209.167 147.982 209.167 148.069V150.24H210.779C210.866 150.24 210.935 150.27 210.987 150.331C211.048 150.383 211.078 150.452 211.078 150.539V150.981C211.078 151.068 211.048 151.141 210.987 151.202C210.935 151.254 210.866 151.28 210.779 151.28H209.167V154.621C209.167 155.054 209.241 155.384 209.388 155.609C209.535 155.826 209.778 155.934 210.116 155.934H210.909C210.996 155.934 211.065 155.964 211.117 156.025C211.178 156.077 211.208 156.146 211.208 156.233V156.701C211.208 156.788 211.178 156.861 211.117 156.922C211.065 156.974 210.996 157 210.909 157H210.012ZM212.763 159.47C212.677 159.47 212.603 159.44 212.542 159.379C212.49 159.327 212.464 159.258 212.464 159.171V150.539C212.464 150.452 212.49 150.383 212.542 150.331C212.603 150.27 212.677 150.24 212.763 150.24H213.361C213.448 150.24 213.517 150.27 213.569 150.331C213.63 150.383 213.66 150.452 213.66 150.539V151.111C214.146 150.444 214.856 150.11 215.792 150.11C216.702 150.11 217.383 150.396 217.833 150.968C218.293 151.54 218.54 152.277 218.574 153.178C218.583 153.273 218.587 153.421 218.587 153.62C218.587 153.819 218.583 153.967 218.574 154.062C218.54 154.955 218.293 155.691 217.833 156.272C217.374 156.844 216.694 157.13 215.792 157.13C214.891 157.13 214.189 156.805 213.686 156.155V159.171C213.686 159.258 213.66 159.327 213.608 159.379C213.556 159.44 213.487 159.47 213.4 159.47H212.763ZM215.519 156.077C216.135 156.077 216.581 155.886 216.858 155.505C217.144 155.124 217.3 154.621 217.326 153.997C217.335 153.91 217.339 153.785 217.339 153.62C217.339 151.982 216.733 151.163 215.519 151.163C214.921 151.163 214.471 151.362 214.167 151.761C213.873 152.151 213.712 152.619 213.686 153.165L213.673 153.659L213.686 154.166C213.704 154.677 213.868 155.124 214.18 155.505C214.492 155.886 214.939 156.077 215.519 156.077ZM222.535 157.13C221.929 157.13 221.417 157.035 221.001 156.844C220.594 156.645 220.286 156.419 220.078 156.168C219.879 155.917 219.779 155.709 219.779 155.544C219.779 155.457 219.81 155.392 219.87 155.349C219.94 155.297 220.009 155.271 220.078 155.271H220.663C220.75 155.271 220.828 155.314 220.897 155.401C221.105 155.644 221.331 155.834 221.573 155.973C221.816 156.112 222.141 156.181 222.548 156.181C222.999 156.181 223.363 156.094 223.64 155.921C223.926 155.739 224.069 155.492 224.069 155.18C224.069 154.972 224.009 154.803 223.887 154.673C223.775 154.534 223.575 154.417 223.289 154.322C223.012 154.218 222.596 154.105 222.041 153.984C221.287 153.819 220.75 153.581 220.429 153.269C220.117 152.957 219.961 152.554 219.961 152.06C219.961 151.731 220.057 151.419 220.247 151.124C220.447 150.821 220.733 150.578 221.105 150.396C221.487 150.205 221.942 150.11 222.47 150.11C223.025 150.11 223.497 150.201 223.887 150.383C224.277 150.565 224.568 150.782 224.758 151.033C224.958 151.276 225.057 151.479 225.057 151.644C225.057 151.722 225.027 151.787 224.966 151.839C224.914 151.891 224.849 151.917 224.771 151.917H224.225C224.121 151.917 224.035 151.874 223.965 151.787C223.827 151.622 223.705 151.497 223.601 151.41C223.506 151.315 223.363 151.232 223.172 151.163C222.99 151.094 222.756 151.059 222.47 151.059C222.054 151.059 221.734 151.15 221.508 151.332C221.283 151.505 221.17 151.735 221.17 152.021C221.17 152.203 221.218 152.359 221.313 152.489C221.409 152.61 221.591 152.723 221.859 152.827C222.137 152.931 222.535 153.039 223.055 153.152C223.879 153.325 224.459 153.577 224.797 153.906C225.144 154.227 225.317 154.638 225.317 155.141C225.317 155.514 225.209 155.852 224.992 156.155C224.776 156.458 224.455 156.697 224.03 156.87C223.614 157.043 223.116 157.13 222.535 157.13ZM227.056 152.45C226.97 152.45 226.896 152.424 226.835 152.372C226.783 152.311 226.757 152.238 226.757 152.151V151.241C226.757 151.154 226.783 151.085 226.835 151.033C226.896 150.972 226.97 150.942 227.056 150.942H227.992C228.079 150.942 228.148 150.972 228.2 151.033C228.261 151.085 228.291 151.154 228.291 151.241V152.151C228.291 152.238 228.261 152.311 228.2 152.372C228.148 152.424 228.079 152.45 227.992 152.45H227.056ZM227.056 157C226.97 157 226.896 156.974 226.835 156.922C226.783 156.861 226.757 156.788 226.757 156.701V155.791C226.757 155.704 226.783 155.635 226.835 155.583C226.896 155.522 226.97 155.492 227.056 155.492H227.992C228.079 155.492 228.148 155.522 228.2 155.583C228.261 155.635 228.291 155.704 228.291 155.791V156.701C228.291 156.788 228.261 156.861 228.2 156.922C228.148 156.974 228.079 157 227.992 157H227.056ZM229.785 158.092C229.715 158.092 229.655 158.066 229.603 158.014C229.551 157.962 229.525 157.901 229.525 157.832C229.525 157.797 229.538 157.745 229.564 157.676L234.01 147.016C234.079 146.86 234.192 146.782 234.348 146.782H234.855C234.924 146.782 234.985 146.808 235.037 146.86C235.089 146.912 235.115 146.973 235.115 147.042C235.115 147.103 235.106 147.155 235.089 147.198L230.63 157.858C230.56 158.014 230.448 158.092 230.292 158.092H229.785ZM233.39 158.092C233.321 158.092 233.26 158.066 233.208 158.014C233.156 157.962 233.13 157.901 233.13 157.832C233.13 157.797 233.143 157.745 233.169 157.676L237.615 147.016C237.684 146.86 237.797 146.782 237.953 146.782H238.46C238.529 146.782 238.59 146.808 238.642 146.86C238.694 146.912 238.72 146.973 238.72 147.042C238.72 147.103 238.711 147.155 238.694 147.198L234.235 157.858C234.166 158.014 234.053 158.092 233.897 158.092H233.39ZM243.366 157.13C242.43 157.13 241.72 156.805 241.234 156.155V156.701C241.234 156.788 241.204 156.861 241.143 156.922C241.091 156.974 241.022 157 240.935 157H240.337C240.251 157 240.177 156.974 240.116 156.922C240.064 156.861 240.038 156.788 240.038 156.701V148.069C240.038 147.982 240.064 147.913 240.116 147.861C240.177 147.8 240.251 147.77 240.337 147.77H240.974C241.061 147.77 241.13 147.8 241.182 147.861C241.234 147.913 241.26 147.982 241.26 148.069V151.059C241.772 150.426 242.474 150.11 243.366 150.11C244.268 150.11 244.948 150.409 245.407 151.007C245.867 151.596 246.114 152.337 246.148 153.23C246.157 153.325 246.161 153.455 246.161 153.62C246.161 153.785 246.157 153.915 246.148 154.01C246.114 154.911 245.867 155.657 245.407 156.246C244.948 156.835 244.268 157.13 243.366 157.13ZM243.093 156.077C243.709 156.077 244.155 155.886 244.432 155.505C244.718 155.124 244.874 154.621 244.9 153.997C244.909 153.91 244.913 153.785 244.913 153.62C244.913 151.982 244.307 151.163 243.093 151.163C242.513 151.163 242.066 151.354 241.754 151.735C241.442 152.116 241.278 152.563 241.26 153.074L241.247 153.581L241.26 154.075C241.286 154.621 241.447 155.093 241.741 155.492C242.045 155.882 242.495 156.077 243.093 156.077ZM250.279 157.13C249.456 157.13 248.819 156.866 248.368 156.337C247.917 155.8 247.692 155.089 247.692 154.205V150.539C247.692 150.452 247.718 150.383 247.77 150.331C247.831 150.27 247.904 150.24 247.991 150.24H248.641C248.728 150.24 248.797 150.27 248.849 150.331C248.91 150.383 248.94 150.452 248.94 150.539V154.14C248.94 155.431 249.503 156.077 250.63 156.077C251.176 156.077 251.609 155.908 251.93 155.57C252.251 155.223 252.411 154.747 252.411 154.14V150.539C252.411 150.452 252.437 150.383 252.489 150.331C252.55 150.27 252.623 150.24 252.71 150.24H253.36C253.447 150.24 253.516 150.27 253.568 150.331C253.62 150.383 253.646 150.452 253.646 150.539V156.701C253.646 156.788 253.62 156.861 253.568 156.922C253.516 156.974 253.447 157 253.36 157H252.749C252.662 157 252.589 156.974 252.528 156.922C252.476 156.861 252.45 156.788 252.45 156.701V156.129C252.207 156.458 251.913 156.71 251.566 156.883C251.219 157.048 250.79 157.13 250.279 157.13ZM258.047 157.13C257.146 157.13 256.466 156.835 256.006 156.246C255.547 155.657 255.304 154.911 255.278 154.01L255.265 153.62L255.278 153.23C255.304 152.337 255.547 151.596 256.006 151.007C256.466 150.409 257.146 150.11 258.047 150.11C258.94 150.11 259.642 150.426 260.153 151.059V148.069C260.153 147.982 260.179 147.913 260.231 147.861C260.292 147.8 260.366 147.77 260.452 147.77H261.076C261.163 147.77 261.232 147.8 261.284 147.861C261.345 147.913 261.375 147.982 261.375 148.069V156.701C261.375 156.788 261.345 156.861 261.284 156.922C261.232 156.974 261.163 157 261.076 157H260.491C260.405 157 260.331 156.974 260.27 156.922C260.218 156.861 260.192 156.788 260.192 156.701V156.155C259.69 156.805 258.975 157.13 258.047 157.13ZM258.32 156.077C258.918 156.077 259.365 155.882 259.659 155.492C259.963 155.093 260.127 154.621 260.153 154.075C260.162 153.98 260.166 153.815 260.166 153.581C260.166 153.338 260.162 153.169 260.153 153.074C260.136 152.563 259.971 152.116 259.659 151.735C259.347 151.354 258.901 151.163 258.32 151.163C257.705 151.163 257.254 151.354 256.968 151.735C256.691 152.116 256.539 152.619 256.513 153.243L256.5 153.62C256.5 155.258 257.107 156.077 258.32 156.077ZM265.779 157.13C264.877 157.13 264.197 156.835 263.738 156.246C263.278 155.657 263.036 154.911 263.01 154.01L262.997 153.62L263.01 153.23C263.036 152.337 263.278 151.596 263.738 151.007C264.197 150.409 264.877 150.11 265.779 150.11C266.671 150.11 267.373 150.426 267.885 151.059V148.069C267.885 147.982 267.911 147.913 267.963 147.861C268.023 147.8 268.097 147.77 268.184 147.77H268.808C268.894 147.77 268.964 147.8 269.016 147.861C269.076 147.913 269.107 147.982 269.107 148.069V156.701C269.107 156.788 269.076 156.861 269.016 156.922C268.964 156.974 268.894 157 268.808 157H268.223C268.136 157 268.062 156.974 268.002 156.922C267.95 156.861 267.924 156.788 267.924 156.701V156.155C267.421 156.805 266.706 157.13 265.779 157.13ZM266.052 156.077C266.65 156.077 267.096 155.882 267.391 155.492C267.694 155.093 267.859 154.621 267.885 154.075C267.893 153.98 267.898 153.815 267.898 153.581C267.898 153.338 267.893 153.169 267.885 153.074C267.867 152.563 267.703 152.116 267.391 151.735C267.079 151.354 266.632 151.163 266.052 151.163C265.436 151.163 264.986 151.354 264.7 151.735C264.422 152.116 264.271 152.619 264.245 153.243L264.232 153.62C264.232 155.258 264.838 156.077 266.052 156.077ZM272.223 159.47C272.154 159.47 272.093 159.444 272.041 159.392C271.989 159.34 271.963 159.279 271.963 159.21C271.963 159.149 271.985 159.071 272.028 158.976L273.029 156.597L270.546 150.734C270.503 150.621 270.481 150.548 270.481 150.513C270.481 150.435 270.507 150.37 270.559 150.318C270.611 150.266 270.676 150.24 270.754 150.24H271.391C271.53 150.24 271.634 150.314 271.703 150.461L273.679 155.193L275.707 150.461C275.776 150.314 275.885 150.24 276.032 150.24H276.643C276.721 150.24 276.786 150.266 276.838 150.318C276.89 150.37 276.916 150.431 276.916 150.5C276.916 150.526 276.894 150.604 276.851 150.734L273.159 159.249C273.09 159.396 272.981 159.47 272.834 159.47H272.223ZM280.007 157C279.894 157 279.808 156.974 279.747 156.922C279.686 156.87 279.634 156.788 279.591 156.675L277.745 150.643L277.719 150.513C277.719 150.435 277.745 150.37 277.797 150.318C277.858 150.266 277.923 150.24 277.992 150.24H278.564C278.651 150.24 278.72 150.266 278.772 150.318C278.833 150.361 278.872 150.409 278.889 150.461L280.332 155.362L281.879 150.513C281.896 150.444 281.935 150.383 281.996 150.331C282.057 150.27 282.139 150.24 282.243 150.24H282.685C282.789 150.24 282.871 150.27 282.932 150.331C282.993 150.383 283.032 150.444 283.049 150.513L284.596 155.362L286.039 150.461C286.048 150.418 286.078 150.37 286.13 150.318C286.191 150.266 286.264 150.24 286.351 150.24H286.936C287.005 150.24 287.066 150.266 287.118 150.318C287.17 150.37 287.196 150.435 287.196 150.513L287.17 150.643L285.337 156.675C285.294 156.788 285.242 156.87 285.181 156.922C285.12 156.974 285.029 157 284.908 157H284.401C284.167 157 284.024 156.892 283.972 156.675L282.464 152.021L280.956 156.675C280.887 156.892 280.739 157 280.514 157H280.007ZM291.162 157.13C290.269 157.13 289.554 156.857 289.017 156.311C288.488 155.756 288.198 155.002 288.146 154.049L288.133 153.607L288.146 153.178C288.207 152.242 288.501 151.497 289.03 150.942C289.567 150.387 290.274 150.11 291.149 150.11C292.111 150.11 292.856 150.418 293.385 151.033C293.914 151.64 294.178 152.463 294.178 153.503V153.724C294.178 153.811 294.148 153.884 294.087 153.945C294.035 153.997 293.966 154.023 293.879 154.023H289.381V154.14C289.407 154.703 289.576 155.184 289.888 155.583C290.209 155.973 290.629 156.168 291.149 156.168C291.548 156.168 291.873 156.09 292.124 155.934C292.384 155.769 292.575 155.6 292.696 155.427C292.774 155.323 292.83 155.262 292.865 155.245C292.908 155.219 292.982 155.206 293.086 155.206H293.723C293.801 155.206 293.866 155.228 293.918 155.271C293.97 155.314 293.996 155.375 293.996 155.453C293.996 155.644 293.875 155.873 293.632 156.142C293.398 156.411 293.064 156.645 292.631 156.844C292.206 157.035 291.717 157.13 291.162 157.13ZM292.943 153.126V153.087C292.943 152.489 292.778 152.004 292.449 151.631C292.128 151.25 291.695 151.059 291.149 151.059C290.603 151.059 290.17 151.25 289.849 151.631C289.537 152.004 289.381 152.489 289.381 153.087V153.126H292.943ZM299.074 157.13C298.138 157.13 297.427 156.805 296.942 156.155V156.701C296.942 156.788 296.911 156.861 296.851 156.922C296.799 156.974 296.729 157 296.643 157H296.045C295.958 157 295.884 156.974 295.824 156.922C295.772 156.861 295.746 156.788 295.746 156.701V148.069C295.746 147.982 295.772 147.913 295.824 147.861C295.884 147.8 295.958 147.77 296.045 147.77H296.682C296.768 147.77 296.838 147.8 296.89 147.861C296.942 147.913 296.968 147.982 296.968 148.069V151.059C297.479 150.426 298.181 150.11 299.074 150.11C299.975 150.11 300.655 150.409 301.115 151.007C301.574 151.596 301.821 152.337 301.856 153.23C301.864 153.325 301.869 153.455 301.869 153.62C301.869 153.785 301.864 153.915 301.856 154.01C301.821 154.911 301.574 155.657 301.115 156.246C300.655 156.835 299.975 157.13 299.074 157.13ZM298.801 156.077C299.416 156.077 299.862 155.886 300.14 155.505C300.426 155.124 300.582 154.621 300.608 153.997C300.616 153.91 300.621 153.785 300.621 153.62C300.621 151.982 300.014 151.163 298.801 151.163C298.22 151.163 297.774 151.354 297.462 151.735C297.15 152.116 296.985 152.563 296.968 153.074L296.955 153.581L296.968 154.075C296.994 154.621 297.154 155.093 297.449 155.492C297.752 155.882 298.203 156.077 298.801 156.077ZM303.545 157C303.458 157 303.385 156.974 303.324 156.922C303.272 156.861 303.246 156.788 303.246 156.701V155.765C303.246 155.678 303.272 155.609 303.324 155.557C303.385 155.496 303.458 155.466 303.545 155.466H304.481C304.568 155.466 304.641 155.496 304.702 155.557C304.763 155.609 304.793 155.678 304.793 155.765V156.701C304.793 156.788 304.763 156.861 304.702 156.922C304.641 156.974 304.568 157 304.481 157H303.545ZM307.27 157C307.183 157 307.11 156.974 307.049 156.922C306.997 156.861 306.971 156.788 306.971 156.701V151.28H305.866C305.779 151.28 305.706 151.254 305.645 151.202C305.593 151.141 305.567 151.068 305.567 150.981V150.539C305.567 150.452 305.593 150.383 305.645 150.331C305.706 150.27 305.779 150.24 305.866 150.24H306.971V149.59C306.971 148.117 307.716 147.38 309.207 147.38H309.987C310.074 147.38 310.143 147.41 310.195 147.471C310.256 147.523 310.286 147.592 310.286 147.679V148.121C310.286 148.208 310.256 148.281 310.195 148.342C310.143 148.394 310.074 148.42 309.987 148.42H309.233C308.843 148.42 308.57 148.524 308.414 148.732C308.258 148.931 308.18 149.239 308.18 149.655V150.24H309.857C309.944 150.24 310.013 150.27 310.065 150.331C310.126 150.383 310.156 150.452 310.156 150.539V150.981C310.156 151.068 310.126 151.141 310.065 151.202C310.013 151.254 309.944 151.28 309.857 151.28H308.18V156.701C308.18 156.788 308.15 156.861 308.089 156.922C308.037 156.974 307.968 157 307.881 157H307.27ZM311.596 157C311.509 157 311.436 156.974 311.375 156.922C311.323 156.861 311.297 156.788 311.297 156.701V150.552C311.297 150.465 311.323 150.392 311.375 150.331C311.436 150.27 311.509 150.24 311.596 150.24H312.194C312.281 150.24 312.354 150.27 312.415 150.331C312.476 150.392 312.506 150.465 312.506 150.552V151.124C312.861 150.535 313.468 150.24 314.326 150.24H314.833C314.92 150.24 314.989 150.27 315.041 150.331C315.102 150.383 315.132 150.452 315.132 150.539V151.072C315.132 151.159 315.102 151.228 315.041 151.28C314.989 151.332 314.92 151.358 314.833 151.358H314.053C313.585 151.358 313.217 151.497 312.948 151.774C312.679 152.043 312.545 152.411 312.545 152.879V156.701C312.545 156.788 312.515 156.861 312.454 156.922C312.393 156.974 312.32 157 312.233 157H311.596Z" fill="#5C1EE8"/>
<path d="M193.5 157.975H315.275V158.625H193.5V157.975Z" fill="#5C1EE8"/>
<path d="M335.5 176H152.5V178H335.5V176Z" fill="#CBC9CD" mask="url(#path-27-inside-8_908_1050)"/>
<mask id="path-33-inside-9_908_1050" fill="white">
<path d="M152.5 177H335.5V226H152.5V177Z"/>
</mask>
<path d="M152.5 177H335.5V226H152.5V177Z" fill="white"/>
<path d="M184.5 202.167V206.167C184.5 206.52 184.36 206.859 184.109 207.109C183.859 207.36 183.52 207.5 183.167 207.5H175.833C175.48 207.5 175.141 207.36 174.891 207.109C174.64 206.859 174.5 206.52 174.5 206.167V198.833C174.5 198.48 174.64 198.141 174.891 197.891C175.141 197.64 175.48 197.5 175.833 197.5H179.833" stroke="#5C1EE8" stroke-linecap="round" stroke-linejoin="round"/>
<path d="M182.5 195.5H186.5V199.5" stroke="#5C1EE8" stroke-linecap="round" stroke-linejoin="round"/>
<path d="M179.167 202.833L186.5 195.5" stroke="#5C1EE8" stroke-linecap="round" stroke-linejoin="round"/>
<path d="M194.774 206C194.687 206 194.614 205.974 194.553 205.922C194.501 205.861 194.475 205.788 194.475 205.701V197.069C194.475 196.982 194.501 196.913 194.553 196.861C194.614 196.8 194.687 196.77 194.774 196.77H195.424C195.511 196.77 195.58 196.8 195.632 196.861C195.693 196.913 195.723 196.982 195.723 197.069V200.098C195.974 199.777 196.269 199.535 196.607 199.37C196.945 199.197 197.365 199.11 197.868 199.11C198.7 199.11 199.346 199.379 199.805 199.916C200.273 200.445 200.507 201.151 200.507 202.035V205.701C200.507 205.788 200.477 205.861 200.416 205.922C200.364 205.974 200.295 206 200.208 206H199.558C199.471 206 199.398 205.974 199.337 205.922C199.285 205.861 199.259 205.788 199.259 205.701V202.1C199.259 201.485 199.107 201.008 198.804 200.67C198.509 200.332 198.08 200.163 197.517 200.163C196.971 200.163 196.533 200.336 196.204 200.683C195.883 201.021 195.723 201.493 195.723 202.1V205.701C195.723 205.788 195.693 205.861 195.632 205.922C195.58 205.974 195.511 206 195.424 206H194.774ZM204.934 206C203.565 206 202.88 205.237 202.88 203.712V200.28H201.866C201.779 200.28 201.706 200.254 201.645 200.202C201.593 200.141 201.567 200.068 201.567 199.981V199.539C201.567 199.452 201.593 199.383 201.645 199.331C201.706 199.27 201.779 199.24 201.866 199.24H202.88V197.069C202.88 196.982 202.906 196.913 202.958 196.861C203.019 196.8 203.092 196.77 203.179 196.77H203.79C203.877 196.77 203.946 196.8 203.998 196.861C204.059 196.913 204.089 196.982 204.089 197.069V199.24H205.701C205.788 199.24 205.857 199.27 205.909 199.331C205.97 199.383 206 199.452 206 199.539V199.981C206 200.068 205.97 200.141 205.909 200.202C205.857 200.254 205.788 200.28 205.701 200.28H204.089V203.621C204.089 204.054 204.163 204.384 204.31 204.609C204.457 204.826 204.7 204.934 205.038 204.934H205.831C205.918 204.934 205.987 204.964 206.039 205.025C206.1 205.077 206.13 205.146 206.13 205.233V205.701C206.13 205.788 206.1 205.861 206.039 205.922C205.987 205.974 205.918 206 205.831 206H204.934ZM210.012 206C208.643 206 207.958 205.237 207.958 203.712V200.28H206.944C206.857 200.28 206.784 200.254 206.723 200.202C206.671 200.141 206.645 200.068 206.645 199.981V199.539C206.645 199.452 206.671 199.383 206.723 199.331C206.784 199.27 206.857 199.24 206.944 199.24H207.958V197.069C207.958 196.982 207.984 196.913 208.036 196.861C208.097 196.8 208.17 196.77 208.257 196.77H208.868C208.955 196.77 209.024 196.8 209.076 196.861C209.137 196.913 209.167 196.982 209.167 197.069V199.24H210.779C210.866 199.24 210.935 199.27 210.987 199.331C211.048 199.383 211.078 199.452 211.078 199.539V199.981C211.078 200.068 211.048 200.141 210.987 200.202C210.935 200.254 210.866 200.28 210.779 200.28H209.167V203.621C209.167 204.054 209.241 204.384 209.388 204.609C209.535 204.826 209.778 204.934 210.116 204.934H210.909C210.996 204.934 211.065 204.964 211.117 205.025C211.178 205.077 211.208 205.146 211.208 205.233V205.701C211.208 205.788 211.178 205.861 211.117 205.922C211.065 205.974 210.996 206 210.909 206H210.012ZM212.763 208.47C212.677 208.47 212.603 208.44 212.542 208.379C212.49 208.327 212.464 208.258 212.464 208.171V199.539C212.464 199.452 212.49 199.383 212.542 199.331C212.603 199.27 212.677 199.24 212.763 199.24H213.361C213.448 199.24 213.517 199.27 213.569 199.331C213.63 199.383 213.66 199.452 213.66 199.539V200.111C214.146 199.444 214.856 199.11 215.792 199.11C216.702 199.11 217.383 199.396 217.833 199.968C218.293 200.54 218.54 201.277 218.574 202.178C218.583 202.273 218.587 202.421 218.587 202.62C218.587 202.819 218.583 202.967 218.574 203.062C218.54 203.955 218.293 204.691 217.833 205.272C217.374 205.844 216.694 206.13 215.792 206.13C214.891 206.13 214.189 205.805 213.686 205.155V208.171C213.686 208.258 213.66 208.327 213.608 208.379C213.556 208.44 213.487 208.47 213.4 208.47H212.763ZM215.519 205.077C216.135 205.077 216.581 204.886 216.858 204.505C217.144 204.124 217.3 203.621 217.326 202.997C217.335 202.91 217.339 202.785 217.339 202.62C217.339 200.982 216.733 200.163 215.519 200.163C214.921 200.163 214.471 200.362 214.167 200.761C213.873 201.151 213.712 201.619 213.686 202.165L213.673 202.659L213.686 203.166C213.704 203.677 213.868 204.124 214.18 204.505C214.492 204.886 214.939 205.077 215.519 205.077ZM222.535 206.13C221.929 206.13 221.417 206.035 221.001 205.844C220.594 205.645 220.286 205.419 220.078 205.168C219.879 204.917 219.779 204.709 219.779 204.544C219.779 204.457 219.81 204.392 219.87 204.349C219.94 204.297 220.009 204.271 220.078 204.271H220.663C220.75 204.271 220.828 204.314 220.897 204.401C221.105 204.644 221.331 204.834 221.573 204.973C221.816 205.112 222.141 205.181 222.548 205.181C222.999 205.181 223.363 205.094 223.64 204.921C223.926 204.739 224.069 204.492 224.069 204.18C224.069 203.972 224.009 203.803 223.887 203.673C223.775 203.534 223.575 203.417 223.289 203.322C223.012 203.218 222.596 203.105 222.041 202.984C221.287 202.819 220.75 202.581 220.429 202.269C220.117 201.957 219.961 201.554 219.961 201.06C219.961 200.731 220.057 200.419 220.247 200.124C220.447 199.821 220.733 199.578 221.105 199.396C221.487 199.205 221.942 199.11 222.47 199.11C223.025 199.11 223.497 199.201 223.887 199.383C224.277 199.565 224.568 199.782 224.758 200.033C224.958 200.276 225.057 200.479 225.057 200.644C225.057 200.722 225.027 200.787 224.966 200.839C224.914 200.891 224.849 200.917 224.771 200.917H224.225C224.121 200.917 224.035 200.874 223.965 200.787C223.827 200.622 223.705 200.497 223.601 200.41C223.506 200.315 223.363 200.232 223.172 200.163C222.99 200.094 222.756 200.059 222.47 200.059C222.054 200.059 221.734 200.15 221.508 200.332C221.283 200.505 221.17 200.735 221.17 201.021C221.17 201.203 221.218 201.359 221.313 201.489C221.409 201.61 221.591 201.723 221.859 201.827C222.137 201.931 222.535 202.039 223.055 202.152C223.879 202.325 224.459 202.577 224.797 202.906C225.144 203.227 225.317 203.638 225.317 204.141C225.317 204.514 225.209 204.852 224.992 205.155C224.776 205.458 224.455 205.697 224.03 205.87C223.614 206.043 223.116 206.13 222.535 206.13ZM227.056 201.45C226.97 201.45 226.896 201.424 226.835 201.372C226.783 201.311 226.757 201.238 226.757 201.151V200.241C226.757 200.154 226.783 200.085 226.835 200.033C226.896 199.972 226.97 199.942 227.056 199.942H227.992C228.079 199.942 228.148 199.972 228.2 200.033C228.261 200.085 228.291 200.154 228.291 200.241V201.151C228.291 201.238 228.261 201.311 228.2 201.372C228.148 201.424 228.079 201.45 227.992 201.45H227.056ZM227.056 206C226.97 206 226.896 205.974 226.835 205.922C226.783 205.861 226.757 205.788 226.757 205.701V204.791C226.757 204.704 226.783 204.635 226.835 204.583C226.896 204.522 226.97 204.492 227.056 204.492H227.992C228.079 204.492 228.148 204.522 228.2 204.583C228.261 204.635 228.291 204.704 228.291 204.791V205.701C228.291 205.788 228.261 205.861 228.2 205.922C228.148 205.974 228.079 206 227.992 206H227.056ZM229.785 207.092C229.715 207.092 229.655 207.066 229.603 207.014C229.551 206.962 229.525 206.901 229.525 206.832C229.525 206.797 229.538 206.745 229.564 206.676L234.01 196.016C234.079 195.86 234.192 195.782 234.348 195.782H234.855C234.924 195.782 234.985 195.808 235.037 195.86C235.089 195.912 235.115 195.973 235.115 196.042C235.115 196.103 235.106 196.155 235.089 196.198L230.63 206.858C230.56 207.014 230.448 207.092 230.292 207.092H229.785ZM233.39 207.092C233.321 207.092 233.26 207.066 233.208 207.014C233.156 206.962 233.13 206.901 233.13 206.832C233.13 206.797 233.143 206.745 233.169 206.676L237.615 196.016C237.684 195.86 237.797 195.782 237.953 195.782H238.46C238.529 195.782 238.59 195.808 238.642 195.86C238.694 195.912 238.72 195.973 238.72 196.042C238.72 196.103 238.711 196.155 238.694 196.198L234.235 206.858C234.166 207.014 234.053 207.092 233.897 207.092H233.39ZM241.464 206C241.351 206 241.265 205.974 241.204 205.922C241.143 205.87 241.091 205.788 241.048 205.675L239.202 199.643L239.176 199.513C239.176 199.435 239.202 199.37 239.254 199.318C239.315 199.266 239.38 199.24 239.449 199.24H240.021C240.108 199.24 240.177 199.266 240.229 199.318C240.29 199.361 240.329 199.409 240.346 199.461L241.789 204.362L243.336 199.513C243.353 199.444 243.392 199.383 243.453 199.331C243.514 199.27 243.596 199.24 243.7 199.24H244.142C244.246 199.24 244.328 199.27 244.389 199.331C244.45 199.383 244.489 199.444 244.506 199.513L246.053 204.362L247.496 199.461C247.505 199.418 247.535 199.37 247.587 199.318C247.648 199.266 247.721 199.24 247.808 199.24H248.393C248.462 199.24 248.523 199.266 248.575 199.318C248.627 199.37 248.653 199.435 248.653 199.513L248.627 199.643L246.794 205.675C246.751 205.788 246.699 205.87 246.638 205.922C246.577 205.974 246.486 206 246.365 206H245.858C245.624 206 245.481 205.892 245.429 205.675L243.921 201.021L242.413 205.675C242.344 205.892 242.196 206 241.971 206H241.464ZM252.619 206.13C251.726 206.13 251.011 205.857 250.474 205.311C249.945 204.756 249.655 204.002 249.603 203.049L249.59 202.607L249.603 202.178C249.664 201.242 249.958 200.497 250.487 199.942C251.024 199.387 251.731 199.11 252.606 199.11C253.568 199.11 254.313 199.418 254.842 200.033C255.371 200.64 255.635 201.463 255.635 202.503V202.724C255.635 202.811 255.605 202.884 255.544 202.945C255.492 202.997 255.423 203.023 255.336 203.023H250.838V203.14C250.864 203.703 251.033 204.184 251.345 204.583C251.666 204.973 252.086 205.168 252.606 205.168C253.005 205.168 253.33 205.09 253.581 204.934C253.841 204.769 254.032 204.6 254.153 204.427C254.231 204.323 254.287 204.262 254.322 204.245C254.365 204.219 254.439 204.206 254.543 204.206H255.18C255.258 204.206 255.323 204.228 255.375 204.271C255.427 204.314 255.453 204.375 255.453 204.453C255.453 204.644 255.332 204.873 255.089 205.142C254.855 205.411 254.521 205.645 254.088 205.844C253.663 206.035 253.174 206.13 252.619 206.13ZM254.4 202.126V202.087C254.4 201.489 254.235 201.004 253.906 200.631C253.585 200.25 253.152 200.059 252.606 200.059C252.06 200.059 251.627 200.25 251.306 200.631C250.994 201.004 250.838 201.489 250.838 202.087V202.126H254.4ZM260.531 206.13C259.595 206.13 258.884 205.805 258.399 205.155V205.701C258.399 205.788 258.368 205.861 258.308 205.922C258.256 205.974 258.186 206 258.1 206H257.502C257.415 206 257.341 205.974 257.281 205.922C257.229 205.861 257.203 205.788 257.203 205.701V197.069C257.203 196.982 257.229 196.913 257.281 196.861C257.341 196.8 257.415 196.77 257.502 196.77H258.139C258.225 196.77 258.295 196.8 258.347 196.861C258.399 196.913 258.425 196.982 258.425 197.069V200.059C258.936 199.426 259.638 199.11 260.531 199.11C261.432 199.11 262.112 199.409 262.572 200.007C263.031 200.596 263.278 201.337 263.313 202.23C263.321 202.325 263.326 202.455 263.326 202.62C263.326 202.785 263.321 202.915 263.313 203.01C263.278 203.911 263.031 204.657 262.572 205.246C262.112 205.835 261.432 206.13 260.531 206.13ZM260.258 205.077C260.873 205.077 261.319 204.886 261.597 204.505C261.883 204.124 262.039 203.621 262.065 202.997C262.073 202.91 262.078 202.785 262.078 202.62C262.078 200.982 261.471 200.163 260.258 200.163C259.677 200.163 259.231 200.354 258.919 200.735C258.607 201.116 258.442 201.563 258.425 202.074L258.412 202.581L258.425 203.075C258.451 203.621 258.611 204.093 258.906 204.492C259.209 204.882 259.66 205.077 260.258 205.077ZM267.261 206.13C266.654 206.13 266.143 206.035 265.727 205.844C265.32 205.645 265.012 205.419 264.804 205.168C264.605 204.917 264.505 204.709 264.505 204.544C264.505 204.457 264.535 204.392 264.596 204.349C264.665 204.297 264.735 204.271 264.804 204.271H265.389C265.476 204.271 265.554 204.314 265.623 204.401C265.831 204.644 266.056 204.834 266.299 204.973C266.542 205.112 266.867 205.181 267.274 205.181C267.725 205.181 268.089 205.094 268.366 204.921C268.652 204.739 268.795 204.492 268.795 204.18C268.795 203.972 268.734 203.803 268.613 203.673C268.5 203.534 268.301 203.417 268.015 203.322C267.738 203.218 267.322 203.105 266.767 202.984C266.013 202.819 265.476 202.581 265.155 202.269C264.843 201.957 264.687 201.554 264.687 201.06C264.687 200.731 264.782 200.419 264.973 200.124C265.172 199.821 265.458 199.578 265.831 199.396C266.212 199.205 266.667 199.11 267.196 199.11C267.751 199.11 268.223 199.201 268.613 199.383C269.003 199.565 269.293 199.782 269.484 200.033C269.683 200.276 269.783 200.479 269.783 200.644C269.783 200.722 269.753 200.787 269.692 200.839C269.64 200.891 269.575 200.917 269.497 200.917H268.951C268.847 200.917 268.76 200.874 268.691 200.787C268.552 200.622 268.431 200.497 268.327 200.41C268.232 200.315 268.089 200.232 267.898 200.163C267.716 200.094 267.482 200.059 267.196 200.059C266.78 200.059 266.459 200.15 266.234 200.332C266.009 200.505 265.896 200.735 265.896 201.021C265.896 201.203 265.944 201.359 266.039 201.489C266.134 201.61 266.316 201.723 266.585 201.827C266.862 201.931 267.261 202.039 267.781 202.152C268.604 202.325 269.185 202.577 269.523 202.906C269.87 203.227 270.043 203.638 270.043 204.141C270.043 204.514 269.935 204.852 269.718 205.155C269.501 205.458 269.181 205.697 268.756 205.87C268.34 206.043 267.842 206.13 267.261 206.13ZM271.743 197.979C271.656 197.979 271.583 197.953 271.522 197.901C271.47 197.84 271.444 197.767 271.444 197.68V196.978C271.444 196.891 271.47 196.818 271.522 196.757C271.583 196.696 271.656 196.666 271.743 196.666H272.562C272.649 196.666 272.722 196.696 272.783 196.757C272.844 196.818 272.874 196.891 272.874 196.978V197.68C272.874 197.767 272.844 197.84 272.783 197.901C272.722 197.953 272.649 197.979 272.562 197.979H271.743ZM271.847 206C271.76 206 271.687 205.974 271.626 205.922C271.574 205.861 271.548 205.788 271.548 205.701V199.539C271.548 199.452 271.574 199.383 271.626 199.331C271.687 199.27 271.76 199.24 271.847 199.24H272.471C272.558 199.24 272.627 199.27 272.679 199.331C272.74 199.383 272.77 199.452 272.77 199.539V205.701C272.77 205.788 272.74 205.861 272.679 205.922C272.627 205.974 272.558 206 272.471 206H271.847ZM277.335 206C275.966 206 275.281 205.237 275.281 203.712V200.28H274.267C274.181 200.28 274.107 200.254 274.046 200.202C273.994 200.141 273.968 200.068 273.968 199.981V199.539C273.968 199.452 273.994 199.383 274.046 199.331C274.107 199.27 274.181 199.24 274.267 199.24H275.281V197.069C275.281 196.982 275.307 196.913 275.359 196.861C275.42 196.8 275.494 196.77 275.58 196.77H276.191C276.278 196.77 276.347 196.8 276.399 196.861C276.46 196.913 276.49 196.982 276.49 197.069V199.24H278.102C278.189 199.24 278.258 199.27 278.31 199.331C278.371 199.383 278.401 199.452 278.401 199.539V199.981C278.401 200.068 278.371 200.141 278.31 200.202C278.258 200.254 278.189 200.28 278.102 200.28H276.49V203.621C276.49 204.054 276.564 204.384 276.711 204.609C276.859 204.826 277.101 204.934 277.439 204.934H278.232C278.319 204.934 278.388 204.964 278.44 205.025C278.501 205.077 278.531 205.146 278.531 205.233V205.701C278.531 205.788 278.501 205.861 278.44 205.922C278.388 205.974 278.319 206 278.232 206H277.335ZM282.479 206.13C281.586 206.13 280.871 205.857 280.334 205.311C279.805 204.756 279.515 204.002 279.463 203.049L279.45 202.607L279.463 202.178C279.523 201.242 279.818 200.497 280.347 199.942C280.884 199.387 281.59 199.11 282.466 199.11C283.428 199.11 284.173 199.418 284.702 200.033C285.23 200.64 285.494 201.463 285.494 202.503V202.724C285.494 202.811 285.464 202.884 285.404 202.945C285.352 202.997 285.282 203.023 285.196 203.023H280.698V203.14C280.724 203.703 280.893 204.184 281.205 204.583C281.525 204.973 281.946 205.168 282.466 205.168C282.864 205.168 283.189 205.09 283.441 204.934C283.701 204.769 283.891 204.6 284.013 204.427C284.091 204.323 284.147 204.262 284.182 204.245C284.225 204.219 284.299 204.206 284.403 204.206H285.04C285.118 204.206 285.183 204.228 285.235 204.271C285.287 204.314 285.312 204.375 285.312 204.453C285.312 204.644 285.191 204.873 284.949 205.142C284.715 205.411 284.381 205.645 283.948 205.844C283.523 206.035 283.033 206.13 282.479 206.13ZM284.26 202.126V202.087C284.26 201.489 284.095 201.004 283.766 200.631C283.445 200.25 283.012 200.059 282.466 200.059C281.92 200.059 281.486 200.25 281.166 200.631C280.854 201.004 280.698 201.489 280.698 202.087V202.126H284.26ZM287.257 206C287.17 206 287.097 205.974 287.036 205.922C286.984 205.861 286.958 205.788 286.958 205.701V204.765C286.958 204.678 286.984 204.609 287.036 204.557C287.097 204.496 287.17 204.466 287.257 204.466H288.193C288.28 204.466 288.353 204.496 288.414 204.557C288.475 204.609 288.505 204.678 288.505 204.765V205.701C288.505 205.788 288.475 205.861 288.414 205.922C288.353 205.974 288.28 206 288.193 206H287.257ZM292.209 206.13C291.785 206.13 291.39 206.043 291.026 205.87C290.662 205.697 290.372 205.463 290.155 205.168C289.947 204.865 289.843 204.531 289.843 204.167C289.843 203.595 290.077 203.127 290.545 202.763C291.022 202.39 291.663 202.148 292.469 202.035L294.406 201.762V201.385C294.406 200.501 293.899 200.059 292.885 200.059C292.504 200.059 292.192 200.141 291.949 200.306C291.707 200.462 291.525 200.648 291.403 200.865C291.377 200.943 291.343 200.999 291.299 201.034C291.265 201.069 291.213 201.086 291.143 201.086H290.584C290.506 201.086 290.437 201.06 290.376 201.008C290.324 200.947 290.298 200.878 290.298 200.8C290.307 200.592 290.402 200.358 290.584 200.098C290.775 199.829 291.065 199.6 291.455 199.409C291.845 199.21 292.326 199.11 292.898 199.11C293.869 199.11 294.567 199.34 294.991 199.799C295.416 200.25 295.628 200.813 295.628 201.489V205.701C295.628 205.788 295.598 205.861 295.537 205.922C295.485 205.974 295.416 206 295.329 206H294.731C294.645 206 294.571 205.974 294.51 205.922C294.458 205.861 294.432 205.788 294.432 205.701V205.142C294.242 205.419 293.964 205.653 293.6 205.844C293.236 206.035 292.773 206.13 292.209 206.13ZM292.482 205.155C293.046 205.155 293.505 204.973 293.86 204.609C294.224 204.236 294.406 203.703 294.406 203.01V202.646L292.898 202.867C292.283 202.954 291.819 203.101 291.507 203.309C291.195 203.508 291.039 203.764 291.039 204.076C291.039 204.423 291.182 204.691 291.468 204.882C291.754 205.064 292.092 205.155 292.482 205.155ZM297.809 208.47C297.722 208.47 297.649 208.44 297.588 208.379C297.536 208.327 297.51 208.258 297.51 208.171V199.539C297.51 199.452 297.536 199.383 297.588 199.331C297.649 199.27 297.722 199.24 297.809 199.24H298.407C298.494 199.24 298.563 199.27 298.615 199.331C298.676 199.383 298.706 199.452 298.706 199.539V200.111C299.191 199.444 299.902 199.11 300.838 199.11C301.748 199.11 302.428 199.396 302.879 199.968C303.338 200.54 303.585 201.277 303.62 202.178C303.629 202.273 303.633 202.421 303.633 202.62C303.633 202.819 303.629 202.967 303.62 203.062C303.585 203.955 303.338 204.691 302.879 205.272C302.42 205.844 301.739 206.13 300.838 206.13C299.937 206.13 299.235 205.805 298.732 205.155V208.171C298.732 208.258 298.706 208.327 298.654 208.379C298.602 208.44 298.533 208.47 298.446 208.47H297.809ZM300.565 205.077C301.18 205.077 301.627 204.886 301.904 204.505C302.19 204.124 302.346 203.621 302.372 202.997C302.381 202.91 302.385 202.785 302.385 202.62C302.385 200.982 301.778 200.163 300.565 200.163C299.967 200.163 299.516 200.362 299.213 200.761C298.918 201.151 298.758 201.619 298.732 202.165L298.719 202.659L298.732 203.166C298.749 203.677 298.914 204.124 299.226 204.505C299.538 204.886 299.984 205.077 300.565 205.077ZM305.553 208.47C305.467 208.47 305.393 208.44 305.332 208.379C305.28 208.327 305.254 208.258 305.254 208.171V199.539C305.254 199.452 305.28 199.383 305.332 199.331C305.393 199.27 305.467 199.24 305.553 199.24H306.151C306.238 199.24 306.307 199.27 306.359 199.331C306.42 199.383 306.45 199.452 306.45 199.539V200.111C306.936 199.444 307.646 199.11 308.582 199.11C309.492 199.11 310.173 199.396 310.623 199.968C311.083 200.54 311.33 201.277 311.364 202.178C311.373 202.273 311.377 202.421 311.377 202.62C311.377 202.819 311.373 202.967 311.364 203.062C311.33 203.955 311.083 204.691 310.623 205.272C310.164 205.844 309.484 206.13 308.582 206.13C307.681 206.13 306.979 205.805 306.476 205.155V208.171C306.476 208.258 306.45 208.327 306.398 208.379C306.346 208.44 306.277 208.47 306.19 208.47H305.553ZM308.309 205.077C308.925 205.077 309.371 204.886 309.648 204.505C309.934 204.124 310.09 203.621 310.116 202.997C310.125 202.91 310.129 202.785 310.129 202.62C310.129 200.982 309.523 200.163 308.309 200.163C307.711 200.163 307.261 200.362 306.957 200.761C306.663 201.151 306.502 201.619 306.476 202.165L306.463 202.659L306.476 203.166C306.494 203.677 306.658 204.124 306.97 204.505C307.282 204.886 307.729 205.077 308.309 205.077Z" fill="#5C1EE8"/>
<path d="M193.5 206.975H312.027V207.625H193.5V206.975Z" fill="#5C1EE8"/>
<path d="M335.5 225H152.5V227H335.5V225Z" fill="#CBC9CD" mask="url(#path-33-inside-9_908_1050)"/>
</g>
<path d="M1 256V0H-1V256H1Z" fill="#EAEAEF" mask="url(#path-1-inside-1_908_1050)"/>
<defs>
<filter id="filter0_d_908_1050" x="44.5" y="20" width="311" height="236" filterUnits="userSpaceOnUse" color-interpolation-filters="sRGB">
<feFlood flood-opacity="0" result="BackgroundImageFix"/>
<feColorMatrix in="SourceAlpha" type="matrix" values="0 0 0 0 0 0 0 0 0 0 0 0 0 0 0 0 0 0 127 0" result="hardAlpha"/>
<feOffset dy="10"/>
<feGaussianBlur stdDeviation="10"/>
<feComposite in2="hardAlpha" operator="out"/>
<feColorMatrix type="matrix" values="0 0 0 0 0.117647 0 0 0 0 0.117647 0 0 0 0 0.117647 0 0 0 0.12 0"/>
<feBlend mode="normal" in2="BackgroundImageFix" result="effect1_dropShadow_908_1050"/>
<feBlend mode="normal" in="SourceGraphic" in2="effect1_dropShadow_908_1050" result="shape"/>
</filter>
</defs>
</svg>
