<svg width="400" height="256" viewBox="0 0 400 256" fill="none" xmlns="http://www.w3.org/2000/svg">
<mask id="path-1-inside-1_905_1692" fill="white">
<path d="M0 0H400V256H0V0Z"/>
</mask>
<path d="M0 0H400V256H0V0Z" fill="#F5F7F9"/>
<path d="M0.5 0.5H62.5V17C62.5 18.933 60.933 20.5 59 20.5H0.5V0.5Z" fill="#F5F7F9"/>
<path d="M13.122 14C13.0487 14 12.9863 13.9743 12.935 13.923C12.8837 13.8717 12.858 13.8093 12.858 13.736V6.575C12.858 6.49433 12.88 6.42833 12.924 6.377C12.9753 6.32567 13.0413 6.3 13.122 6.3H15.806C17.962 6.3 19.062 7.29733 19.106 9.292C19.1207 9.71733 19.128 10.0033 19.128 10.15C19.128 10.2893 19.1207 10.5717 19.106 10.997C19.0767 12.0237 18.8017 12.7827 18.281 13.274C17.7603 13.758 16.9537 14 15.861 14H13.122ZM15.806 12.735C16.422 12.735 16.8657 12.5993 17.137 12.328C17.4083 12.0493 17.5513 11.5947 17.566 10.964C17.5807 10.524 17.588 10.249 17.588 10.139C17.588 10.0217 17.5807 9.75033 17.566 9.325C17.5513 8.72367 17.3973 8.28 17.104 7.994C16.818 7.708 16.367 7.565 15.751 7.565H14.387V12.735H15.806ZM20.6804 7.334C20.607 7.334 20.5447 7.30833 20.4934 7.257C20.442 7.20567 20.4164 7.14333 20.4164 7.07V6.278C20.4164 6.20467 20.442 6.14233 20.4934 6.091C20.5447 6.03967 20.607 6.014 20.6804 6.014H21.6814C21.7547 6.014 21.817 6.03967 21.8684 6.091C21.927 6.14233 21.9564 6.20467 21.9564 6.278V7.07C21.9564 7.14333 21.9307 7.20567 21.8794 7.257C21.828 7.30833 21.762 7.334 21.6814 7.334H20.6804ZM20.7244 14C20.651 14 20.5887 13.9743 20.5374 13.923C20.486 13.8717 20.4604 13.8093 20.4604 13.736V8.544C20.4604 8.47067 20.486 8.40833 20.5374 8.357C20.5887 8.30567 20.651 8.28 20.7244 8.28H21.6374C21.718 8.28 21.7804 8.30567 21.8244 8.357C21.8757 8.401 21.9014 8.46333 21.9014 8.544V13.736C21.9014 13.8093 21.8757 13.8717 21.8244 13.923C21.7804 13.9743 21.718 14 21.6374 14H20.7244ZM25.5278 14.11C24.9778 14.11 24.5158 14.0293 24.1418 13.868C23.7678 13.6993 23.4891 13.505 23.3058 13.285C23.1298 13.0577 23.0418 12.8633 23.0418 12.702C23.0418 12.6287 23.0674 12.57 23.1188 12.526C23.1701 12.482 23.2288 12.46 23.2948 12.46H24.1638C24.2298 12.46 24.2848 12.4857 24.3288 12.537C24.3581 12.559 24.4351 12.625 24.5598 12.735C24.6844 12.8523 24.8311 12.944 24.9998 13.01C25.1684 13.076 25.3554 13.109 25.5608 13.109C25.8541 13.109 26.0961 13.0503 26.2868 12.933C26.4774 12.8157 26.5728 12.6543 26.5728 12.449C26.5728 12.295 26.5288 12.1703 26.4408 12.075C26.3601 11.9797 26.2098 11.8953 25.9898 11.822C25.7698 11.7413 25.4434 11.657 25.0108 11.569C24.3874 11.437 23.9254 11.2353 23.6248 10.964C23.3314 10.6927 23.1848 10.3333 23.1848 9.886C23.1848 9.59267 23.2728 9.31767 23.4488 9.061C23.6248 8.797 23.8851 8.58433 24.2298 8.423C24.5818 8.25433 24.9998 8.17 25.4838 8.17C25.9751 8.17 26.4004 8.25067 26.7598 8.412C27.1191 8.566 27.3904 8.753 27.5738 8.973C27.7644 9.18567 27.8598 9.37633 27.8598 9.545C27.8598 9.611 27.8341 9.66967 27.7828 9.721C27.7388 9.765 27.6838 9.787 27.6178 9.787H26.8038C26.7451 9.787 26.6828 9.76133 26.6168 9.71C26.5654 9.67333 26.4848 9.60367 26.3748 9.501C26.2648 9.39833 26.1364 9.31767 25.9898 9.259C25.8431 9.20033 25.6708 9.171 25.4728 9.171C25.2014 9.171 24.9888 9.22967 24.8348 9.347C24.6881 9.46433 24.6148 9.61833 24.6148 9.809C24.6148 9.94833 24.6514 10.062 24.7248 10.15C24.7981 10.238 24.9411 10.3223 25.1538 10.403C25.3664 10.4837 25.6854 10.5643 26.1108 10.645C26.8148 10.7843 27.3171 11.0007 27.6178 11.294C27.9258 11.5873 28.0798 11.9467 28.0798 12.372C28.0798 12.8853 27.8561 13.3033 27.4088 13.626C26.9614 13.9487 26.3344 14.11 25.5278 14.11ZM29.4903 16.09C29.4169 16.09 29.3546 16.0643 29.3033 16.013C29.2519 15.969 29.2263 15.9067 29.2263 15.826V8.544C29.2263 8.46333 29.2519 8.401 29.3033 8.357C29.3546 8.30567 29.4169 8.28 29.4903 8.28H30.3593C30.4399 8.28 30.5023 8.30567 30.5463 8.357C30.5976 8.401 30.6233 8.46333 30.6233 8.544V8.984C31.0339 8.44133 31.6206 8.17 32.3833 8.17C33.1239 8.17 33.6923 8.40467 34.0883 8.874C34.4843 9.336 34.6969 9.963 34.7263 10.755C34.7336 10.843 34.7373 10.9713 34.7373 11.14C34.7373 11.316 34.7336 11.448 34.7263 11.536C34.6969 12.306 34.4843 12.9293 34.0883 13.406C33.6923 13.8753 33.1239 14.11 32.3833 14.11C31.6426 14.11 31.0779 13.8497 30.6893 13.329V15.826C30.6893 15.9067 30.6636 15.969 30.6123 16.013C30.5683 16.0643 30.5059 16.09 30.4253 16.09H29.4903ZM31.9763 12.933C32.7683 12.933 33.1899 12.4453 33.2413 11.47C33.2486 11.3967 33.2523 11.2867 33.2523 11.14C33.2523 10.9933 33.2486 10.8833 33.2413 10.81C33.1899 9.83467 32.7683 9.347 31.9763 9.347C31.5509 9.347 31.2356 9.48267 31.0303 9.754C30.8249 10.0253 30.7113 10.359 30.6893 10.755L30.6783 11.173L30.6893 11.602C30.7039 11.9687 30.8176 12.284 31.0303 12.548C31.2503 12.8047 31.5656 12.933 31.9763 12.933ZM36.2471 14C36.1738 14 36.1114 13.9743 36.0601 13.923C36.0088 13.8717 35.9831 13.8093 35.9831 13.736V6.454C35.9831 6.37333 36.0088 6.311 36.0601 6.267C36.1114 6.21567 36.1738 6.19 36.2471 6.19H37.1601C37.2408 6.19 37.3031 6.21567 37.3471 6.267C37.3984 6.311 37.4241 6.37333 37.4241 6.454V13.736C37.4241 13.8093 37.3984 13.8717 37.3471 13.923C37.3031 13.9743 37.2408 14 37.1601 14H36.2471ZM40.5442 14.11C40.1702 14.11 39.8256 14.0367 39.5102 13.89C39.2022 13.736 38.9566 13.5307 38.7732 13.274C38.5972 13.0173 38.5092 12.735 38.5092 12.427C38.5092 11.9283 38.7109 11.525 39.1142 11.217C39.5176 10.909 40.0712 10.7 40.7752 10.59L42.2822 10.37V10.139C42.2822 9.81633 42.2016 9.57433 42.0402 9.413C41.8789 9.25167 41.6186 9.171 41.2592 9.171C41.0172 9.171 40.8192 9.21867 40.6652 9.314C40.5186 9.402 40.4012 9.49 40.3132 9.578C40.2252 9.67333 40.1666 9.73567 40.1372 9.765C40.1079 9.853 40.0529 9.897 39.9722 9.897H39.1252C39.0592 9.897 39.0006 9.875 38.9492 9.831C38.9052 9.787 38.8832 9.72833 38.8832 9.655C38.8906 9.47167 38.9786 9.26267 39.1472 9.028C39.3232 8.79333 39.5909 8.59167 39.9502 8.423C40.3096 8.25433 40.7496 8.17 41.2702 8.17C42.1356 8.17 42.7662 8.36433 43.1622 8.753C43.5582 9.14167 43.7562 9.65133 43.7562 10.282V13.736C43.7562 13.8093 43.7306 13.8717 43.6792 13.923C43.6352 13.9743 43.5729 14 43.4922 14H42.6012C42.5279 14 42.4656 13.9743 42.4142 13.923C42.3629 13.8717 42.3372 13.8093 42.3372 13.736V13.307C42.1759 13.5417 41.9449 13.736 41.6442 13.89C41.3509 14.0367 40.9842 14.11 40.5442 14.11ZM40.9182 13.065C41.3216 13.065 41.6516 12.933 41.9082 12.669C42.1649 12.405 42.2932 12.02 42.2932 11.514V11.283L41.1932 11.459C40.7679 11.525 40.4452 11.6313 40.2252 11.778C40.0126 11.9247 39.9062 12.1043 39.9062 12.317C39.9062 12.5517 40.0052 12.735 40.2032 12.867C40.4012 12.999 40.6396 13.065 40.9182 13.065ZM46.051 16.09C45.9923 16.09 45.941 16.068 45.897 16.024C45.853 15.98 45.831 15.9287 45.831 15.87C45.831 15.804 45.8457 15.7453 45.875 15.694L46.733 13.659L44.621 8.676C44.5917 8.61 44.577 8.55867 44.577 8.522C44.5843 8.456 44.61 8.401 44.654 8.357C44.698 8.30567 44.753 8.28 44.819 8.28H45.71C45.8493 8.28 45.9483 8.34967 46.007 8.489L47.47 12.086L48.977 8.489C49.0357 8.34967 49.1347 8.28 49.274 8.28H50.154C50.2127 8.28 50.264 8.302 50.308 8.346C50.3593 8.39 50.385 8.44133 50.385 8.5C50.385 8.55133 50.3703 8.61 50.341 8.676L47.228 15.881C47.162 16.0203 47.0593 16.09 46.92 16.09H46.051Z" fill="#535356"/>
<path d="M0.5 0.5H62.5V17C62.5 18.933 60.933 20.5 59 20.5H0.5V0.5Z" stroke="#EAEAEF"/>
<g filter="url(#filter0_d_905_1692)">
<mask id="path-6-inside-2_905_1692" fill="white">
<path d="M53 30H141V79H53V30Z"/>
</mask>
<path d="M53 30H141V79H53V30Z" fill="white"/>
<rect x="73" y="46" width="48" height="17" rx="5" fill="#F2F2F6"/>
<path d="M141 78H53V80H141V78Z" fill="#CBC9CD" mask="url(#path-6-inside-2_905_1692)"/>
<mask id="path-9-inside-3_905_1692" fill="white">
<path d="M53 79H141V128H53V79Z"/>
</mask>
<path d="M53 79H141V128H53V79Z" fill="white"/>
<rect x="73" y="95" width="48" height="17" rx="5" fill="#F2F2F6"/>
<path d="M141 127H53V129H141V127Z" fill="#CBC9CD" mask="url(#path-9-inside-3_905_1692)"/>
<mask id="path-12-inside-4_905_1692" fill="white">
<path d="M53 128H141V177H53V128Z"/>
</mask>
<path d="M53 128H141V177H53V128Z" fill="white"/>
<rect x="73" y="144" width="48" height="17" rx="5" fill="#F2F2F6"/>
<path d="M141 176H53V178H141V176Z" fill="#CBC9CD" mask="url(#path-12-inside-4_905_1692)"/>
<mask id="path-15-inside-5_905_1692" fill="white">
<path d="M53 177H141V226H53V177Z"/>
</mask>
<path d="M53 177H141V226H53V177Z" fill="white"/>
<rect x="73" y="193" width="48" height="17" rx="5" fill="#F2F2F6"/>
<path d="M141 225H53V227H141V225Z" fill="#CBC9CD" mask="url(#path-15-inside-5_905_1692)"/>
<mask id="path-18-inside-6_905_1692" fill="white">
<path d="M141 30H259V79H141V30Z"/>
</mask>
<path d="M141 30H259V79H141V30Z" fill="white"/>
<path d="M165.238 59.13C164.406 59.13 163.708 59.0087 163.145 58.766C162.59 58.5233 162.17 58.207 161.884 57.817C161.598 57.427 161.446 57.011 161.429 56.569C161.429 56.4997 161.455 56.439 161.507 56.387C161.559 56.3263 161.624 56.296 161.702 56.296H163.093C163.206 56.296 163.292 56.322 163.353 56.374C163.414 56.4173 163.47 56.4737 163.522 56.543C163.583 56.6903 163.678 56.8333 163.808 56.972C163.947 57.1107 164.133 57.2277 164.367 57.323C164.601 57.4097 164.891 57.453 165.238 57.453C165.801 57.453 166.222 57.362 166.499 57.18C166.785 56.998 166.928 56.751 166.928 56.439C166.928 56.2137 166.85 56.0317 166.694 55.893C166.547 55.7543 166.308 55.6287 165.979 55.516C165.658 55.4033 165.229 55.282 164.692 55.152C164.042 55.0133 163.487 54.8357 163.028 54.619C162.577 54.3937 162.235 54.1077 162.001 53.761C161.776 53.4057 161.663 52.968 161.663 52.448C161.663 51.928 161.806 51.4687 162.092 51.07C162.378 50.6627 162.781 50.3463 163.301 50.121C163.821 49.887 164.441 49.77 165.16 49.77C165.741 49.77 166.252 49.848 166.694 50.004C167.145 50.16 167.517 50.3637 167.812 50.615C168.115 50.8663 168.345 51.135 168.501 51.421C168.657 51.707 168.739 51.9843 168.748 52.253C168.748 52.3223 168.722 52.3873 168.67 52.448C168.618 52.5 168.553 52.526 168.475 52.526H167.019C166.932 52.526 166.854 52.5087 166.785 52.474C166.716 52.4393 166.659 52.3787 166.616 52.292C166.564 52.0667 166.408 51.8717 166.148 51.707C165.897 51.5337 165.567 51.447 165.16 51.447C164.735 51.447 164.397 51.525 164.146 51.681C163.903 51.837 163.782 52.0753 163.782 52.396C163.782 52.604 163.843 52.7817 163.964 52.929C164.094 53.0677 164.306 53.1933 164.601 53.306C164.904 53.41 165.303 53.527 165.797 53.657C166.56 53.813 167.179 53.9993 167.656 54.216C168.133 54.4327 168.484 54.7143 168.709 55.061C168.934 55.399 169.047 55.828 169.047 56.348C169.047 56.9287 168.882 57.427 168.553 57.843C168.232 58.259 167.786 58.5797 167.214 58.805C166.651 59.0217 165.992 59.13 165.238 59.13ZM172.681 59C172.585 59 172.507 58.9697 172.447 58.909C172.386 58.8483 172.356 58.7703 172.356 58.675V51.707H169.99C169.903 51.707 169.829 51.6767 169.769 51.616C169.708 51.5553 169.678 51.4817 169.678 51.395V50.225C169.678 50.1297 169.708 50.0517 169.769 49.991C169.829 49.9303 169.903 49.9 169.99 49.9H176.802C176.897 49.9 176.975 49.9303 177.036 49.991C177.096 50.0517 177.127 50.1297 177.127 50.225V51.395C177.127 51.4817 177.096 51.5553 177.036 51.616C176.975 51.6767 176.897 51.707 176.802 51.707H174.449V58.675C174.449 58.7703 174.418 58.8483 174.358 58.909C174.297 58.9697 174.219 59 174.124 59H172.681ZM176.905 59C176.827 59 176.762 58.974 176.71 58.922C176.658 58.8613 176.632 58.7963 176.632 58.727C176.632 58.6837 176.636 58.6447 176.645 58.61L179.739 50.251C179.765 50.1557 179.817 50.0733 179.895 50.004C179.973 49.9347 180.081 49.9 180.22 49.9H181.884C182.022 49.9 182.131 49.9347 182.209 50.004C182.287 50.0733 182.339 50.1557 182.365 50.251L185.459 58.61C185.467 58.6447 185.472 58.6837 185.472 58.727C185.472 58.7963 185.446 58.8613 185.394 58.922C185.342 58.974 185.277 59 185.199 59H183.847C183.717 59 183.621 58.9697 183.561 58.909C183.5 58.8483 183.461 58.792 183.444 58.74L182.885 57.284H179.219L178.66 58.74C178.642 58.792 178.603 58.8483 178.543 58.909C178.482 58.9697 178.387 59 178.257 59H176.905ZM179.7 55.607H182.391L181.052 51.863L179.7 55.607ZM186.916 59C186.821 59 186.743 58.9697 186.682 58.909C186.621 58.8483 186.591 58.7703 186.591 58.675V50.225C186.591 50.1297 186.621 50.0517 186.682 49.991C186.743 49.9303 186.821 49.9 186.916 49.9H190.361C191.444 49.9 192.298 50.1513 192.922 50.654C193.546 51.148 193.858 51.863 193.858 52.799C193.858 53.4317 193.706 53.9603 193.403 54.385C193.1 54.8097 192.692 55.126 192.181 55.334L194.014 58.584C194.04 58.636 194.053 58.6837 194.053 58.727C194.053 58.7963 194.027 58.8613 193.975 58.922C193.923 58.974 193.858 59 193.78 59H192.337C192.181 59 192.064 58.961 191.986 58.883C191.908 58.7963 191.852 58.7183 191.817 58.649L190.231 55.672H188.658V58.675C188.658 58.7703 188.628 58.8483 188.567 58.909C188.506 58.9697 188.428 59 188.333 59H186.916ZM188.658 54.021H190.322C190.799 54.021 191.15 53.9127 191.375 53.696C191.609 53.4793 191.726 53.176 191.726 52.786C191.726 52.396 191.613 52.0883 191.388 51.863C191.163 51.6377 190.807 51.525 190.322 51.525H188.658V54.021ZM197.69 59C197.595 59 197.517 58.9697 197.456 58.909C197.396 58.8483 197.365 58.7703 197.365 58.675V51.707H194.999C194.913 51.707 194.839 51.6767 194.778 51.616C194.718 51.5553 194.687 51.4817 194.687 51.395V50.225C194.687 50.1297 194.718 50.0517 194.778 49.991C194.839 49.9303 194.913 49.9 194.999 49.9H201.811C201.907 49.9 201.985 49.9303 202.045 49.991C202.106 50.0517 202.136 50.1297 202.136 50.225V51.395C202.136 51.4817 202.106 51.5553 202.045 51.616C201.985 51.6767 201.907 51.707 201.811 51.707H199.458V58.675C199.458 58.7703 199.428 58.8483 199.367 58.909C199.307 58.9697 199.229 59 199.133 59H197.69ZM206.276 59C206.181 59 206.103 58.9697 206.042 58.909C205.982 58.8483 205.951 58.7703 205.951 58.675V50.225C205.951 50.1297 205.982 50.0517 206.042 49.991C206.103 49.9303 206.181 49.9 206.276 49.9H209.539C210.406 49.9 211.13 50.0387 211.71 50.316C212.291 50.5847 212.733 50.9833 213.036 51.512C213.348 52.032 213.513 52.6777 213.53 53.449C213.539 53.8303 213.543 54.164 213.543 54.45C213.543 54.736 213.539 55.0653 213.53 55.438C213.504 56.244 213.344 56.9113 213.049 57.44C212.755 57.9687 212.321 58.363 211.749 58.623C211.177 58.8743 210.462 59 209.604 59H206.276ZM208.018 57.323H209.539C209.973 57.323 210.328 57.258 210.605 57.128C210.883 56.998 211.086 56.7943 211.216 56.517C211.355 56.231 211.429 55.8627 211.437 55.412C211.446 55.1607 211.45 54.9353 211.45 54.736C211.459 54.5367 211.459 54.3373 211.45 54.138C211.45 53.9387 211.446 53.7177 211.437 53.475C211.42 52.825 211.251 52.3483 210.93 52.045C210.618 51.733 210.133 51.577 209.474 51.577H208.018V57.323ZM214.445 59C214.367 59 214.302 58.974 214.25 58.922C214.198 58.8613 214.172 58.7963 214.172 58.727C214.172 58.6837 214.176 58.6447 214.185 58.61L217.279 50.251C217.305 50.1557 217.357 50.0733 217.435 50.004C217.513 49.9347 217.621 49.9 217.76 49.9H219.424C219.562 49.9 219.671 49.9347 219.749 50.004C219.827 50.0733 219.879 50.1557 219.905 50.251L222.999 58.61C223.007 58.6447 223.012 58.6837 223.012 58.727C223.012 58.7963 222.986 58.8613 222.934 58.922C222.882 58.974 222.817 59 222.739 59H221.387C221.257 59 221.161 58.9697 221.101 58.909C221.04 58.8483 221.001 58.792 220.984 58.74L220.425 57.284H216.759L216.2 58.74C216.182 58.792 216.143 58.8483 216.083 58.909C216.022 58.9697 215.927 59 215.797 59H214.445ZM217.24 55.607H219.931L218.592 51.863L217.24 55.607ZM225.518 59C225.423 59 225.345 58.9697 225.284 58.909C225.224 58.8483 225.193 58.7703 225.193 58.675V51.707H222.827C222.741 51.707 222.667 51.6767 222.606 51.616C222.546 51.5553 222.515 51.4817 222.515 51.395V50.225C222.515 50.1297 222.546 50.0517 222.606 49.991C222.667 49.9303 222.741 49.9 222.827 49.9H229.639C229.735 49.9 229.813 49.9303 229.873 49.991C229.934 50.0517 229.964 50.1297 229.964 50.225V51.395C229.964 51.4817 229.934 51.5553 229.873 51.616C229.813 51.6767 229.735 51.707 229.639 51.707H227.286V58.675C227.286 58.7703 227.256 58.8483 227.195 58.909C227.135 58.9697 227.057 59 226.961 59H225.518ZM231.54 59C231.445 59 231.367 58.9697 231.306 58.909C231.245 58.8483 231.215 58.7703 231.215 58.675V50.225C231.215 50.1297 231.245 50.0517 231.306 49.991C231.367 49.9303 231.445 49.9 231.54 49.9H237.429C237.524 49.9 237.602 49.9303 237.663 49.991C237.724 50.0517 237.754 50.1297 237.754 50.225V51.265C237.754 51.3517 237.724 51.4253 237.663 51.486C237.602 51.5467 237.524 51.577 237.429 51.577H233.217V53.618H237.143C237.238 53.618 237.316 53.6483 237.377 53.709C237.438 53.7697 237.468 53.8477 237.468 53.943V54.905C237.468 54.9917 237.438 55.0653 237.377 55.126C237.316 55.1867 237.238 55.217 237.143 55.217H233.217V57.323H237.533C237.628 57.323 237.706 57.3533 237.767 57.414C237.828 57.4747 237.858 57.5527 237.858 57.648V58.675C237.858 58.7703 237.828 58.8483 237.767 58.909C237.706 58.9697 237.628 59 237.533 59H231.54Z" fill="#A0A0A5"/>
<path d="M259 78H141V80H259V78Z" fill="#CBC9CD" mask="url(#path-18-inside-6_905_1692)"/>
<mask id="path-21-inside-7_905_1692" fill="white">
<path d="M141 79H259V128H141V79Z"/>
</mask>
<path d="M141 79H259V128H141V79Z" fill="white"/>
<path d="M171.588 108C171.501 108 171.428 107.974 171.367 107.922C171.315 107.861 171.289 107.788 171.289 107.701V100.421L169.131 102.085C169.07 102.137 169.005 102.163 168.936 102.163C168.858 102.163 168.784 102.12 168.715 102.033L168.377 101.604C168.334 101.543 168.312 101.483 168.312 101.422C168.312 101.318 168.355 101.236 168.442 101.175L171.276 98.991C171.371 98.9303 171.484 98.9 171.614 98.9H172.277C172.364 98.9 172.433 98.9303 172.485 98.991C172.546 99.043 172.576 99.1123 172.576 99.199V107.701C172.576 107.788 172.546 107.861 172.485 107.922C172.433 107.974 172.364 108 172.277 108H171.588ZM177.435 108.13C176.75 108.13 176.156 108.022 175.654 107.805C175.16 107.58 174.783 107.289 174.523 106.934C174.271 106.579 174.137 106.206 174.12 105.816C174.12 105.738 174.146 105.677 174.198 105.634C174.25 105.582 174.315 105.556 174.393 105.556H175.03C175.212 105.556 175.333 105.651 175.394 105.842C175.506 106.275 175.749 106.583 176.122 106.765C176.494 106.938 176.932 107.025 177.435 107.025C178.05 107.025 178.54 106.882 178.904 106.596C179.268 106.301 179.45 105.881 179.45 105.335C179.45 104.286 178.813 103.762 177.539 103.762H176.304C176.217 103.762 176.143 103.736 176.083 103.684C176.031 103.623 176.005 103.55 176.005 103.463V103.112C176.005 102.991 176.052 102.874 176.148 102.761L178.67 100.005H174.835C174.748 100.005 174.674 99.979 174.614 99.927C174.562 99.8663 174.536 99.7927 174.536 99.706V99.212C174.536 99.1253 174.562 99.0517 174.614 98.991C174.674 98.9303 174.748 98.9 174.835 98.9H180.022C180.117 98.9 180.191 98.9303 180.243 98.991C180.303 99.043 180.334 99.1167 180.334 99.212V99.68C180.334 99.784 180.286 99.8837 180.191 99.979L177.682 102.774L177.89 102.787C178.774 102.813 179.471 103.043 179.983 103.476C180.494 103.909 180.75 104.542 180.75 105.374C180.75 105.937 180.607 106.427 180.321 106.843C180.035 107.259 179.64 107.58 179.138 107.805C178.635 108.022 178.067 108.13 177.435 108.13ZM181.915 109.092C181.846 109.092 181.785 109.066 181.733 109.014C181.681 108.962 181.655 108.901 181.655 108.832C181.655 108.797 181.668 108.745 181.694 108.676L186.14 98.016C186.21 97.86 186.322 97.782 186.478 97.782H186.985C187.055 97.782 187.115 97.808 187.167 97.86C187.219 97.912 187.245 97.9727 187.245 98.042C187.245 98.1027 187.237 98.1547 187.219 98.198L182.76 108.858C182.691 109.014 182.578 109.092 182.422 109.092H181.915ZM191.126 108C191.039 108 190.966 107.974 190.905 107.922C190.853 107.861 190.827 107.788 190.827 107.701V100.421L188.669 102.085C188.608 102.137 188.543 102.163 188.474 102.163C188.396 102.163 188.322 102.12 188.253 102.033L187.915 101.604C187.872 101.543 187.85 101.483 187.85 101.422C187.85 101.318 187.893 101.236 187.98 101.175L190.814 98.991C190.909 98.9303 191.022 98.9 191.152 98.9H191.815C191.902 98.9 191.971 98.9303 192.023 98.991C192.084 99.043 192.114 99.1123 192.114 99.199V107.701C192.114 107.788 192.084 107.861 192.023 107.922C191.971 107.974 191.902 108 191.815 108H191.126ZM197.22 108.13C196.102 108.13 195.283 107.805 194.763 107.155C194.243 106.505 193.965 105.651 193.931 104.594C193.922 104.36 193.918 103.983 193.918 103.463C193.918 102.926 193.922 102.536 193.931 102.293C193.957 101.253 194.234 100.408 194.763 99.758C195.291 99.0993 196.11 98.77 197.22 98.77C198.338 98.77 199.161 99.0993 199.69 99.758C200.218 100.408 200.496 101.253 200.522 102.293C200.539 102.778 200.548 103.168 200.548 103.463C200.548 103.749 200.539 104.126 200.522 104.594C200.487 105.651 200.21 106.505 199.69 107.155C199.17 107.805 198.346 108.13 197.22 108.13ZM197.22 107.012C197.87 107.012 198.359 106.795 198.689 106.362C199.027 105.929 199.204 105.318 199.222 104.529C199.239 104.026 199.248 103.662 199.248 103.437C199.248 103.194 199.239 102.839 199.222 102.371C199.204 101.591 199.031 100.98 198.702 100.538C198.372 100.096 197.878 99.875 197.22 99.875C196.57 99.875 196.076 100.096 195.738 100.538C195.408 100.98 195.235 101.591 195.218 102.371L195.205 103.437L195.218 104.529C195.235 105.318 195.408 105.929 195.738 106.362C196.076 106.795 196.57 107.012 197.22 107.012ZM201.695 109.092C201.625 109.092 201.565 109.066 201.513 109.014C201.461 108.962 201.435 108.901 201.435 108.832C201.435 108.797 201.448 108.745 201.474 108.676L205.92 98.016C205.989 97.86 206.102 97.782 206.258 97.782H206.765C206.834 97.782 206.895 97.808 206.947 97.86C206.999 97.912 207.025 97.9727 207.025 98.042C207.025 98.1027 207.016 98.1547 206.999 98.198L202.54 108.858C202.47 109.014 202.358 109.092 202.202 109.092H201.695ZM208.126 108C208.04 108 207.966 107.974 207.905 107.922C207.853 107.861 207.827 107.788 207.827 107.701V107.285C207.827 107.086 207.936 106.895 208.152 106.713L210.908 103.957C211.576 103.402 212.035 102.952 212.286 102.605C212.538 102.25 212.663 101.877 212.663 101.487C212.663 100.984 212.52 100.59 212.234 100.304C211.957 100.018 211.55 99.875 211.012 99.875C210.51 99.875 210.107 100.027 209.803 100.33C209.5 100.625 209.314 101.019 209.244 101.513C209.227 101.617 209.184 101.695 209.114 101.747C209.054 101.79 208.984 101.812 208.906 101.812H208.23C208.152 101.812 208.087 101.79 208.035 101.747C207.983 101.695 207.957 101.634 207.957 101.565C207.975 101.097 208.1 100.651 208.334 100.226C208.568 99.7927 208.911 99.4417 209.361 99.173C209.821 98.8957 210.371 98.757 211.012 98.757C211.992 98.757 212.728 99.0127 213.222 99.524C213.725 100.027 213.976 100.668 213.976 101.448C213.976 101.994 213.838 102.488 213.56 102.93C213.292 103.363 212.871 103.831 212.299 104.334L209.803 106.869H213.859C213.955 106.869 214.028 106.899 214.08 106.96C214.141 107.012 214.171 107.081 214.171 107.168V107.701C214.171 107.788 214.141 107.861 214.08 107.922C214.02 107.974 213.946 108 213.859 108H208.126ZM218.941 108.13C217.823 108.13 217.004 107.805 216.484 107.155C215.964 106.505 215.687 105.651 215.652 104.594C215.644 104.36 215.639 103.983 215.639 103.463C215.639 102.926 215.644 102.536 215.652 102.293C215.678 101.253 215.956 100.408 216.484 99.758C217.013 99.0993 217.832 98.77 218.941 98.77C220.059 98.77 220.883 99.0993 221.411 99.758C221.94 100.408 222.217 101.253 222.243 102.293C222.261 102.778 222.269 103.168 222.269 103.463C222.269 103.749 222.261 104.126 222.243 104.594C222.209 105.651 221.931 106.505 221.411 107.155C220.891 107.805 220.068 108.13 218.941 108.13ZM218.941 107.012C219.591 107.012 220.081 106.795 220.41 106.362C220.748 105.929 220.926 105.318 220.943 104.529C220.961 104.026 220.969 103.662 220.969 103.437C220.969 103.194 220.961 102.839 220.943 102.371C220.926 101.591 220.753 100.98 220.423 100.538C220.094 100.096 219.6 99.875 218.941 99.875C218.291 99.875 217.797 100.096 217.459 100.538C217.13 100.98 216.957 101.591 216.939 102.371L216.926 103.437L216.939 104.529C216.957 105.318 217.13 105.929 217.459 106.362C217.797 106.795 218.291 107.012 218.941 107.012ZM224.008 108C223.922 108 223.848 107.974 223.787 107.922C223.735 107.861 223.709 107.788 223.709 107.701V107.285C223.709 107.086 223.818 106.895 224.034 106.713L226.79 103.957C227.458 103.402 227.917 102.952 228.168 102.605C228.42 102.25 228.545 101.877 228.545 101.487C228.545 100.984 228.402 100.59 228.116 100.304C227.839 100.018 227.432 99.875 226.894 99.875C226.392 99.875 225.989 100.027 225.685 100.33C225.382 100.625 225.196 101.019 225.126 101.513C225.109 101.617 225.066 101.695 224.996 101.747C224.936 101.79 224.866 101.812 224.788 101.812H224.112C224.034 101.812 223.969 101.79 223.917 101.747C223.865 101.695 223.839 101.634 223.839 101.565C223.857 101.097 223.982 100.651 224.216 100.226C224.45 99.7927 224.793 99.4417 225.243 99.173C225.703 98.8957 226.253 98.757 226.894 98.757C227.874 98.757 228.61 99.0127 229.104 99.524C229.607 100.027 229.858 100.668 229.858 101.448C229.858 101.994 229.72 102.488 229.442 102.93C229.174 103.363 228.753 103.831 228.181 104.334L225.685 106.869H229.741C229.837 106.869 229.91 106.899 229.962 106.96C230.023 107.012 230.053 107.081 230.053 107.168V107.701C230.053 107.788 230.023 107.861 229.962 107.922C229.902 107.974 229.828 108 229.741 108H224.008ZM234.576 108.13C233.891 108.13 233.298 108.022 232.795 107.805C232.301 107.58 231.924 107.289 231.664 106.934C231.413 106.579 231.278 106.206 231.261 105.816C231.261 105.738 231.287 105.677 231.339 105.634C231.391 105.582 231.456 105.556 231.534 105.556H232.171C232.353 105.556 232.474 105.651 232.535 105.842C232.648 106.275 232.89 106.583 233.263 106.765C233.636 106.938 234.073 107.025 234.576 107.025C235.191 107.025 235.681 106.882 236.045 106.596C236.409 106.301 236.591 105.881 236.591 105.335C236.591 104.286 235.954 103.762 234.68 103.762H233.445C233.358 103.762 233.285 103.736 233.224 103.684C233.172 103.623 233.146 103.55 233.146 103.463V103.112C233.146 102.991 233.194 102.874 233.289 102.761L235.811 100.005H231.976C231.889 100.005 231.816 99.979 231.755 99.927C231.703 99.8663 231.677 99.7927 231.677 99.706V99.212C231.677 99.1253 231.703 99.0517 231.755 98.991C231.816 98.9303 231.889 98.9 231.976 98.9H237.163C237.258 98.9 237.332 98.9303 237.384 98.991C237.445 99.043 237.475 99.1167 237.475 99.212V99.68C237.475 99.784 237.427 99.8837 237.332 99.979L234.823 102.774L235.031 102.787C235.915 102.813 236.613 103.043 237.124 103.476C237.635 103.909 237.891 104.542 237.891 105.374C237.891 105.937 237.748 106.427 237.462 106.843C237.176 107.259 236.782 107.58 236.279 107.805C235.776 108.022 235.209 108.13 234.576 108.13Z" fill="#303032"/>
<path d="M259 127H141V129H259V127Z" fill="#CBC9CD" mask="url(#path-21-inside-7_905_1692)"/>
<mask id="path-24-inside-8_905_1692" fill="white">
<path d="M141 128H259V177H141V128Z"/>
</mask>
<path d="M141 128H259V177H141V128Z" fill="white"/>
<path d="M169.121 157.13C168.003 157.13 167.184 156.805 166.664 156.155C166.144 155.505 165.867 154.651 165.832 153.594C165.823 153.36 165.819 152.983 165.819 152.463C165.819 151.926 165.823 151.536 165.832 151.293C165.858 150.253 166.135 149.408 166.664 148.758C167.193 148.099 168.012 147.77 169.121 147.77C170.239 147.77 171.062 148.099 171.591 148.758C172.12 149.408 172.397 150.253 172.423 151.293C172.44 151.778 172.449 152.168 172.449 152.463C172.449 152.749 172.44 153.126 172.423 153.594C172.388 154.651 172.111 155.505 171.591 156.155C171.071 156.805 170.248 157.13 169.121 157.13ZM169.121 156.012C169.771 156.012 170.261 155.795 170.59 155.362C170.928 154.929 171.106 154.318 171.123 153.529C171.14 153.026 171.149 152.662 171.149 152.437C171.149 152.194 171.14 151.839 171.123 151.371C171.106 150.591 170.932 149.98 170.603 149.538C170.274 149.096 169.78 148.875 169.121 148.875C168.471 148.875 167.977 149.096 167.639 149.538C167.31 149.98 167.136 150.591 167.119 151.371L167.106 152.437L167.119 153.529C167.136 154.318 167.31 154.929 167.639 155.362C167.977 155.795 168.471 156.012 169.121 156.012ZM177.048 157.13C176.389 157.13 175.822 157.013 175.345 156.779C174.868 156.545 174.5 156.237 174.24 155.856C173.989 155.475 173.854 155.067 173.837 154.634V154.608C173.837 154.539 173.863 154.482 173.915 154.439C173.967 154.396 174.028 154.374 174.097 154.374H174.799C174.981 154.374 175.098 154.469 175.15 154.66C175.271 155.119 175.505 155.462 175.852 155.687C176.199 155.912 176.597 156.025 177.048 156.025C177.629 156.025 178.11 155.852 178.491 155.505C178.881 155.15 179.076 154.66 179.076 154.036C179.076 153.473 178.881 153.018 178.491 152.671C178.11 152.324 177.629 152.151 177.048 152.151C176.736 152.151 176.485 152.194 176.294 152.281C176.103 152.359 175.913 152.472 175.722 152.619C175.618 152.697 175.527 152.758 175.449 152.801C175.38 152.836 175.302 152.853 175.215 152.853H174.539C174.461 152.853 174.392 152.827 174.331 152.775C174.27 152.714 174.244 152.645 174.253 152.567L174.669 148.225C174.678 148.121 174.708 148.043 174.76 147.991C174.821 147.93 174.899 147.9 174.994 147.9H179.531C179.618 147.9 179.687 147.93 179.739 147.991C179.8 148.043 179.83 148.112 179.83 148.199V148.706C179.83 148.793 179.8 148.866 179.739 148.927C179.687 148.979 179.618 149.005 179.531 149.005H175.787L175.54 151.566C176.008 151.271 176.571 151.124 177.23 151.124C177.802 151.124 178.326 151.241 178.803 151.475C179.288 151.709 179.67 152.047 179.947 152.489C180.233 152.931 180.376 153.451 180.376 154.049C180.376 154.69 180.233 155.245 179.947 155.713C179.67 156.172 179.28 156.523 178.777 156.766C178.274 157.009 177.698 157.13 177.048 157.13ZM181.518 158.092C181.449 158.092 181.388 158.066 181.336 158.014C181.284 157.962 181.258 157.901 181.258 157.832C181.258 157.797 181.271 157.745 181.297 157.676L185.743 147.016C185.812 146.86 185.925 146.782 186.081 146.782H186.588C186.657 146.782 186.718 146.808 186.77 146.86C186.822 146.912 186.848 146.973 186.848 147.042C186.848 147.103 186.839 147.155 186.822 147.198L182.363 157.858C182.294 158.014 182.181 158.092 182.025 158.092H181.518ZM191.071 157.13C189.953 157.13 189.134 156.805 188.614 156.155C188.094 155.505 187.817 154.651 187.782 153.594C187.774 153.36 187.769 152.983 187.769 152.463C187.769 151.926 187.774 151.536 187.782 151.293C187.808 150.253 188.086 149.408 188.614 148.758C189.143 148.099 189.962 147.77 191.071 147.77C192.189 147.77 193.013 148.099 193.541 148.758C194.07 149.408 194.347 150.253 194.373 151.293C194.391 151.778 194.399 152.168 194.399 152.463C194.399 152.749 194.391 153.126 194.373 153.594C194.339 154.651 194.061 155.505 193.541 156.155C193.021 156.805 192.198 157.13 191.071 157.13ZM191.071 156.012C191.721 156.012 192.211 155.795 192.54 155.362C192.878 154.929 193.056 154.318 193.073 153.529C193.091 153.026 193.099 152.662 193.099 152.437C193.099 152.194 193.091 151.839 193.073 151.371C193.056 150.591 192.883 149.98 192.553 149.538C192.224 149.096 191.73 148.875 191.071 148.875C190.421 148.875 189.927 149.096 189.589 149.538C189.26 149.98 189.087 150.591 189.069 151.371L189.056 152.437L189.069 153.529C189.087 154.318 189.26 154.929 189.589 155.362C189.927 155.795 190.421 156.012 191.071 156.012ZM198.79 157C198.703 157 198.63 156.974 198.569 156.922C198.517 156.861 198.491 156.788 198.491 156.701V149.421L196.333 151.085C196.272 151.137 196.207 151.163 196.138 151.163C196.06 151.163 195.986 151.12 195.917 151.033L195.579 150.604C195.536 150.543 195.514 150.483 195.514 150.422C195.514 150.318 195.557 150.236 195.644 150.175L198.478 147.991C198.573 147.93 198.686 147.9 198.816 147.9H199.479C199.566 147.9 199.635 147.93 199.687 147.991C199.748 148.043 199.778 148.112 199.778 148.199V156.701C199.778 156.788 199.748 156.861 199.687 156.922C199.635 156.974 199.566 157 199.479 157H198.79ZM201.361 158.092C201.291 158.092 201.231 158.066 201.179 158.014C201.127 157.962 201.101 157.901 201.101 157.832C201.101 157.797 201.114 157.745 201.14 157.676L205.586 147.016C205.655 146.86 205.768 146.782 205.924 146.782H206.431C206.5 146.782 206.561 146.808 206.613 146.86C206.665 146.912 206.691 146.973 206.691 147.042C206.691 147.103 206.682 147.155 206.665 147.198L202.206 157.858C202.136 158.014 202.024 158.092 201.868 158.092H201.361ZM207.792 157C207.706 157 207.632 156.974 207.571 156.922C207.519 156.861 207.493 156.788 207.493 156.701V156.285C207.493 156.086 207.602 155.895 207.818 155.713L210.574 152.957C211.242 152.402 211.701 151.952 211.952 151.605C212.204 151.25 212.329 150.877 212.329 150.487C212.329 149.984 212.186 149.59 211.9 149.304C211.623 149.018 211.216 148.875 210.678 148.875C210.176 148.875 209.773 149.027 209.469 149.33C209.166 149.625 208.98 150.019 208.91 150.513C208.893 150.617 208.85 150.695 208.78 150.747C208.72 150.79 208.65 150.812 208.572 150.812H207.896C207.818 150.812 207.753 150.79 207.701 150.747C207.649 150.695 207.623 150.634 207.623 150.565C207.641 150.097 207.766 149.651 208 149.226C208.234 148.793 208.577 148.442 209.027 148.173C209.487 147.896 210.037 147.757 210.678 147.757C211.658 147.757 212.394 148.013 212.888 148.524C213.391 149.027 213.642 149.668 213.642 150.448C213.642 150.994 213.504 151.488 213.226 151.93C212.958 152.363 212.537 152.831 211.965 153.334L209.469 155.869H213.525C213.621 155.869 213.694 155.899 213.746 155.96C213.807 156.012 213.837 156.081 213.837 156.168V156.701C213.837 156.788 213.807 156.861 213.746 156.922C213.686 156.974 213.612 157 213.525 157H207.792ZM218.607 157.13C217.489 157.13 216.67 156.805 216.15 156.155C215.63 155.505 215.353 154.651 215.318 153.594C215.31 153.36 215.305 152.983 215.305 152.463C215.305 151.926 215.31 151.536 215.318 151.293C215.344 150.253 215.622 149.408 216.15 148.758C216.679 148.099 217.498 147.77 218.607 147.77C219.725 147.77 220.549 148.099 221.077 148.758C221.606 149.408 221.883 150.253 221.909 151.293C221.927 151.778 221.935 152.168 221.935 152.463C221.935 152.749 221.927 153.126 221.909 153.594C221.875 154.651 221.597 155.505 221.077 156.155C220.557 156.805 219.734 157.13 218.607 157.13ZM218.607 156.012C219.257 156.012 219.747 155.795 220.076 155.362C220.414 154.929 220.592 154.318 220.609 153.529C220.627 153.026 220.635 152.662 220.635 152.437C220.635 152.194 220.627 151.839 220.609 151.371C220.592 150.591 220.419 149.98 220.089 149.538C219.76 149.096 219.266 148.875 218.607 148.875C217.957 148.875 217.463 149.096 217.125 149.538C216.796 149.98 216.623 150.591 216.605 151.371L216.592 152.437L216.605 153.529C216.623 154.318 216.796 154.929 217.125 155.362C217.463 155.795 217.957 156.012 218.607 156.012ZM223.674 157C223.588 157 223.514 156.974 223.453 156.922C223.401 156.861 223.375 156.788 223.375 156.701V156.285C223.375 156.086 223.484 155.895 223.7 155.713L226.456 152.957C227.124 152.402 227.583 151.952 227.834 151.605C228.086 151.25 228.211 150.877 228.211 150.487C228.211 149.984 228.068 149.59 227.782 149.304C227.505 149.018 227.098 148.875 226.56 148.875C226.058 148.875 225.655 149.027 225.351 149.33C225.048 149.625 224.862 150.019 224.792 150.513C224.775 150.617 224.732 150.695 224.662 150.747C224.602 150.79 224.532 150.812 224.454 150.812H223.778C223.7 150.812 223.635 150.79 223.583 150.747C223.531 150.695 223.505 150.634 223.505 150.565C223.523 150.097 223.648 149.651 223.882 149.226C224.116 148.793 224.459 148.442 224.909 148.173C225.369 147.896 225.919 147.757 226.56 147.757C227.54 147.757 228.276 148.013 228.77 148.524C229.273 149.027 229.524 149.668 229.524 150.448C229.524 150.994 229.386 151.488 229.108 151.93C228.84 152.363 228.419 152.831 227.847 153.334L225.351 155.869H229.407C229.503 155.869 229.576 155.899 229.628 155.96C229.689 156.012 229.719 156.081 229.719 156.168V156.701C229.719 156.788 229.689 156.861 229.628 156.922C229.568 156.974 229.494 157 229.407 157H223.674ZM235.454 157C235.368 157 235.294 156.974 235.233 156.922C235.181 156.861 235.155 156.788 235.155 156.701V154.829H230.943C230.857 154.829 230.783 154.803 230.722 154.751C230.67 154.69 230.644 154.617 230.644 154.53V154.01C230.644 153.88 230.692 153.75 230.787 153.62L234.687 148.121C234.731 148.052 234.796 148 234.882 147.965C234.969 147.922 235.064 147.9 235.168 147.9H236.104C236.191 147.9 236.26 147.93 236.312 147.991C236.373 148.043 236.403 148.112 236.403 148.199V153.698H237.573C237.66 153.698 237.734 153.728 237.794 153.789C237.855 153.841 237.885 153.91 237.885 153.997V154.53C237.885 154.617 237.855 154.69 237.794 154.751C237.742 154.803 237.673 154.829 237.586 154.829H236.403V156.701C236.403 156.788 236.373 156.861 236.312 156.922C236.26 156.974 236.191 157 236.104 157H235.454ZM235.168 153.724V149.265L232.035 153.724H235.168Z" fill="#303032"/>
<path d="M259 176H141V178H259V176Z" fill="#CBC9CD" mask="url(#path-24-inside-8_905_1692)"/>
<mask id="path-27-inside-9_905_1692" fill="white">
<path d="M141 177H259V226H141V177Z"/>
</mask>
<path d="M141 177H259V226H141V177Z" fill="white"/>
<path d="M171.588 206C171.501 206 171.428 205.974 171.367 205.922C171.315 205.861 171.289 205.788 171.289 205.701V198.421L169.131 200.085C169.07 200.137 169.005 200.163 168.936 200.163C168.858 200.163 168.784 200.12 168.715 200.033L168.377 199.604C168.334 199.543 168.312 199.483 168.312 199.422C168.312 199.318 168.355 199.236 168.442 199.175L171.276 196.991C171.371 196.93 171.484 196.9 171.614 196.9H172.277C172.364 196.9 172.433 196.93 172.485 196.991C172.546 197.043 172.576 197.112 172.576 197.199V205.701C172.576 205.788 172.546 205.861 172.485 205.922C172.433 205.974 172.364 206 172.277 206H171.588ZM177.149 206C177.062 206 176.988 205.974 176.928 205.922C176.876 205.861 176.85 205.788 176.85 205.701V198.421L174.692 200.085C174.631 200.137 174.566 200.163 174.497 200.163C174.419 200.163 174.345 200.12 174.276 200.033L173.938 199.604C173.894 199.543 173.873 199.483 173.873 199.422C173.873 199.318 173.916 199.236 174.003 199.175L176.837 196.991C176.932 196.93 177.045 196.9 177.175 196.9H177.838C177.924 196.9 177.994 196.93 178.046 196.991C178.106 197.043 178.137 197.112 178.137 197.199V205.701C178.137 205.788 178.106 205.861 178.046 205.922C177.994 205.974 177.924 206 177.838 206H177.149ZM179.719 207.092C179.65 207.092 179.589 207.066 179.537 207.014C179.485 206.962 179.459 206.901 179.459 206.832C179.459 206.797 179.472 206.745 179.498 206.676L183.944 196.016C184.013 195.86 184.126 195.782 184.282 195.782H184.789C184.858 195.782 184.919 195.808 184.971 195.86C185.023 195.912 185.049 195.973 185.049 196.042C185.049 196.103 185.04 196.155 185.023 196.198L180.564 206.858C180.495 207.014 180.382 207.092 180.226 207.092H179.719ZM189.272 206.13C188.154 206.13 187.335 205.805 186.815 205.155C186.295 204.505 186.018 203.651 185.983 202.594C185.975 202.36 185.97 201.983 185.97 201.463C185.97 200.926 185.975 200.536 185.983 200.293C186.009 199.253 186.287 198.408 186.815 197.758C187.344 197.099 188.163 196.77 189.272 196.77C190.39 196.77 191.214 197.099 191.742 197.758C192.271 198.408 192.548 199.253 192.574 200.293C192.592 200.778 192.6 201.168 192.6 201.463C192.6 201.749 192.592 202.126 192.574 202.594C192.54 203.651 192.262 204.505 191.742 205.155C191.222 205.805 190.399 206.13 189.272 206.13ZM189.272 205.012C189.922 205.012 190.412 204.795 190.741 204.362C191.079 203.929 191.257 203.318 191.274 202.529C191.292 202.026 191.3 201.662 191.3 201.437C191.3 201.194 191.292 200.839 191.274 200.371C191.257 199.591 191.084 198.98 190.754 198.538C190.425 198.096 189.931 197.875 189.272 197.875C188.622 197.875 188.128 198.096 187.79 198.538C187.461 198.98 187.288 199.591 187.27 200.371L187.257 201.437L187.27 202.529C187.288 203.318 187.461 203.929 187.79 204.362C188.128 204.795 188.622 205.012 189.272 205.012ZM194.339 206C194.253 206 194.179 205.974 194.118 205.922C194.066 205.861 194.04 205.788 194.04 205.701V205.285C194.04 205.086 194.149 204.895 194.365 204.713L197.121 201.957C197.789 201.402 198.248 200.952 198.499 200.605C198.751 200.25 198.876 199.877 198.876 199.487C198.876 198.984 198.733 198.59 198.447 198.304C198.17 198.018 197.763 197.875 197.225 197.875C196.723 197.875 196.32 198.027 196.016 198.33C195.713 198.625 195.527 199.019 195.457 199.513C195.44 199.617 195.397 199.695 195.327 199.747C195.267 199.79 195.197 199.812 195.119 199.812H194.443C194.365 199.812 194.3 199.79 194.248 199.747C194.196 199.695 194.17 199.634 194.17 199.565C194.188 199.097 194.313 198.651 194.547 198.226C194.781 197.793 195.124 197.442 195.574 197.173C196.034 196.896 196.584 196.757 197.225 196.757C198.205 196.757 198.941 197.013 199.435 197.524C199.938 198.027 200.189 198.668 200.189 199.448C200.189 199.994 200.051 200.488 199.773 200.93C199.505 201.363 199.084 201.831 198.512 202.334L196.016 204.869H200.072C200.168 204.869 200.241 204.899 200.293 204.96C200.354 205.012 200.384 205.081 200.384 205.168V205.701C200.384 205.788 200.354 205.861 200.293 205.922C200.233 205.974 200.159 206 200.072 206H194.339ZM201.631 207.092C201.562 207.092 201.501 207.066 201.449 207.014C201.397 206.962 201.371 206.901 201.371 206.832C201.371 206.797 201.384 206.745 201.41 206.676L205.856 196.016C205.926 195.86 206.038 195.782 206.194 195.782H206.701C206.771 195.782 206.831 195.808 206.883 195.86C206.935 195.912 206.961 195.973 206.961 196.042C206.961 196.103 206.953 196.155 206.935 196.198L202.476 206.858C202.407 207.014 202.294 207.092 202.138 207.092H201.631ZM208.063 206C207.976 206 207.903 205.974 207.842 205.922C207.79 205.861 207.764 205.788 207.764 205.701V205.285C207.764 205.086 207.872 204.895 208.089 204.713L210.845 201.957C211.512 201.402 211.972 200.952 212.223 200.605C212.474 200.25 212.6 199.877 212.6 199.487C212.6 198.984 212.457 198.59 212.171 198.304C211.894 198.018 211.486 197.875 210.949 197.875C210.446 197.875 210.043 198.027 209.74 198.33C209.437 198.625 209.25 199.019 209.181 199.513C209.164 199.617 209.12 199.695 209.051 199.747C208.99 199.79 208.921 199.812 208.843 199.812H208.167C208.089 199.812 208.024 199.79 207.972 199.747C207.92 199.695 207.894 199.634 207.894 199.565C207.911 199.097 208.037 198.651 208.271 198.226C208.505 197.793 208.847 197.442 209.298 197.173C209.757 196.896 210.308 196.757 210.949 196.757C211.928 196.757 212.665 197.013 213.159 197.524C213.662 198.027 213.913 198.668 213.913 199.448C213.913 199.994 213.774 200.488 213.497 200.93C213.228 201.363 212.808 201.831 212.236 202.334L209.74 204.869H213.796C213.891 204.869 213.965 204.899 214.017 204.96C214.078 205.012 214.108 205.081 214.108 205.168V205.701C214.108 205.788 214.078 205.861 214.017 205.922C213.956 205.974 213.883 206 213.796 206H208.063ZM218.878 206.13C217.76 206.13 216.941 205.805 216.421 205.155C215.901 204.505 215.624 203.651 215.589 202.594C215.58 202.36 215.576 201.983 215.576 201.463C215.576 200.926 215.58 200.536 215.589 200.293C215.615 199.253 215.892 198.408 216.421 197.758C216.95 197.099 217.769 196.77 218.878 196.77C219.996 196.77 220.819 197.099 221.348 197.758C221.877 198.408 222.154 199.253 222.18 200.293C222.197 200.778 222.206 201.168 222.206 201.463C222.206 201.749 222.197 202.126 222.18 202.594C222.145 203.651 221.868 204.505 221.348 205.155C220.828 205.805 220.005 206.13 218.878 206.13ZM218.878 205.012C219.528 205.012 220.018 204.795 220.347 204.362C220.685 203.929 220.863 203.318 220.88 202.529C220.897 202.026 220.906 201.662 220.906 201.437C220.906 201.194 220.897 200.839 220.88 200.371C220.863 199.591 220.689 198.98 220.36 198.538C220.031 198.096 219.537 197.875 218.878 197.875C218.228 197.875 217.734 198.096 217.396 198.538C217.067 198.98 216.893 199.591 216.876 200.371L216.863 201.437L216.876 202.529C216.893 203.318 217.067 203.929 217.396 204.362C217.734 204.795 218.228 205.012 218.878 205.012ZM223.945 206C223.858 206 223.784 205.974 223.724 205.922C223.672 205.861 223.646 205.788 223.646 205.701V205.285C223.646 205.086 223.754 204.895 223.971 204.713L226.727 201.957C227.394 201.402 227.853 200.952 228.105 200.605C228.356 200.25 228.482 199.877 228.482 199.487C228.482 198.984 228.339 198.59 228.053 198.304C227.775 198.018 227.368 197.875 226.831 197.875C226.328 197.875 225.925 198.027 225.622 198.33C225.318 198.625 225.132 199.019 225.063 199.513C225.045 199.617 225.002 199.695 224.933 199.747C224.872 199.79 224.803 199.812 224.725 199.812H224.049C223.971 199.812 223.906 199.79 223.854 199.747C223.802 199.695 223.776 199.634 223.776 199.565C223.793 199.097 223.919 198.651 224.153 198.226C224.387 197.793 224.729 197.442 225.18 197.173C225.639 196.896 226.189 196.757 226.831 196.757C227.81 196.757 228.547 197.013 229.041 197.524C229.543 198.027 229.795 198.668 229.795 199.448C229.795 199.994 229.656 200.488 229.379 200.93C229.11 201.363 228.69 201.831 228.118 202.334L225.622 204.869H229.678C229.773 204.869 229.847 204.899 229.899 204.96C229.959 205.012 229.99 205.081 229.99 205.168V205.701C229.99 205.788 229.959 205.861 229.899 205.922C229.838 205.974 229.764 206 229.678 206H223.945ZM235.725 206C235.638 206 235.564 205.974 235.504 205.922C235.452 205.861 235.426 205.788 235.426 205.701V203.829H231.214C231.127 203.829 231.053 203.803 230.993 203.751C230.941 203.69 230.915 203.617 230.915 203.53V203.01C230.915 202.88 230.962 202.75 231.058 202.62L234.958 197.121C235.001 197.052 235.066 197 235.153 196.965C235.239 196.922 235.335 196.9 235.439 196.9H236.375C236.461 196.9 236.531 196.93 236.583 196.991C236.643 197.043 236.674 197.112 236.674 197.199V202.698H237.844C237.93 202.698 238.004 202.728 238.065 202.789C238.125 202.841 238.156 202.91 238.156 202.997V203.53C238.156 203.617 238.125 203.69 238.065 203.751C238.013 203.803 237.943 203.829 237.857 203.829H236.674V205.701C236.674 205.788 236.643 205.861 236.583 205.922C236.531 205.974 236.461 206 236.375 206H235.725ZM235.439 202.724V198.265L232.306 202.724H235.439Z" fill="#303032"/>
<path d="M259 225H141V227H259V225Z" fill="#CBC9CD" mask="url(#path-27-inside-9_905_1692)"/>
<mask id="path-30-inside-10_905_1692" fill="white">
<path d="M259 30H347V79H259V30Z"/>
</mask>
<path d="M259 30H347V79H259V30Z" fill="white"/>
<rect x="279" y="46" width="48" height="17" rx="5" fill="#F2F2F6"/>
<path d="M347 78H259V80H347V78Z" fill="#CBC9CD" mask="url(#path-30-inside-10_905_1692)"/>
<mask id="path-33-inside-11_905_1692" fill="white">
<path d="M259 79H347V128H259V79Z"/>
</mask>
<path d="M259 79H347V128H259V79Z" fill="white"/>
<rect x="279" y="95" width="48" height="17" rx="5" fill="#F2F2F6"/>
<path d="M347 127H259V129H347V127Z" fill="#CBC9CD" mask="url(#path-33-inside-11_905_1692)"/>
<mask id="path-36-inside-12_905_1692" fill="white">
<path d="M259 128H347V177H259V128Z"/>
</mask>
<path d="M259 128H347V177H259V128Z" fill="white"/>
<rect x="279" y="144" width="48" height="17" rx="5" fill="#F2F2F6"/>
<path d="M347 176H259V178H347V176Z" fill="#CBC9CD" mask="url(#path-36-inside-12_905_1692)"/>
<mask id="path-39-inside-13_905_1692" fill="white">
<path d="M259 177H347V226H259V177Z"/>
</mask>
<path d="M259 177H347V226H259V177Z" fill="white"/>
<rect x="279" y="193" width="48" height="17" rx="5" fill="#F2F2F6"/>
<path d="M347 225H259V227H347V225Z" fill="#CBC9CD" mask="url(#path-39-inside-13_905_1692)"/>
</g>
<path d="M1 256V0H-1V256H1Z" fill="#EAEAEF" mask="url(#path-1-inside-1_905_1692)"/>
<defs>
<filter id="filter0_d_905_1692" x="33" y="20" width="334" height="236" filterUnits="userSpaceOnUse" color-interpolation-filters="sRGB">
<feFlood flood-opacity="0" result="BackgroundImageFix"/>
<feColorMatrix in="SourceAlpha" type="matrix" values="0 0 0 0 0 0 0 0 0 0 0 0 0 0 0 0 0 0 127 0" result="hardAlpha"/>
<feOffset dy="10"/>
<feGaussianBlur stdDeviation="10"/>
<feComposite in2="hardAlpha" operator="out"/>
<feColorMatrix type="matrix" values="0 0 0 0 0.117647 0 0 0 0 0.117647 0 0 0 0 0.117647 0 0 0 0.12 0"/>
<feBlend mode="normal" in2="BackgroundImageFix" result="effect1_dropShadow_905_1692"/>
<feBlend mode="normal" in="SourceGraphic" in2="effect1_dropShadow_905_1692" result="shape"/>
</filter>
</defs>
</svg>
