<svg width="400" height="256" viewBox="0 0 400 256" fill="none" xmlns="http://www.w3.org/2000/svg">
<mask id="path-1-inside-1_905_1461" fill="white">
<path d="M0 0H400V256H0V0Z"/>
</mask>
<path d="M0 0H400V256H0V0Z" fill="#F5F7F9"/>
<g filter="url(#filter0_d_905_1461)">
<mask id="path-4-inside-2_905_1461" fill="white">
<path d="M78.5 30H166.5V79H78.5V30Z"/>
</mask>
<path d="M78.5 30H166.5V79H78.5V30Z" fill="white"/>
<rect x="98.5" y="46" width="48" height="17" rx="5" fill="#F2F2F6"/>
<path d="M166.5 78H78.5V80H166.5V78Z" fill="#CBC9CD" mask="url(#path-4-inside-2_905_1461)"/>
<mask id="path-7-inside-3_905_1461" fill="white">
<path d="M78.5 79H166.5V128H78.5V79Z"/>
</mask>
<path d="M78.5 79H166.5V128H78.5V79Z" fill="white"/>
<rect x="98.5" y="95" width="48" height="17" rx="5" fill="#F2F2F6"/>
<path d="M166.5 127H78.5V129H166.5V127Z" fill="#CBC9CD" mask="url(#path-7-inside-3_905_1461)"/>
<mask id="path-10-inside-4_905_1461" fill="white">
<path d="M78.5 128H166.5V177H78.5V128Z"/>
</mask>
<path d="M78.5 128H166.5V177H78.5V128Z" fill="white"/>
<rect x="98.5" y="144" width="48" height="17" rx="5" fill="#F2F2F6"/>
<path d="M166.5 176H78.5V178H166.5V176Z" fill="#CBC9CD" mask="url(#path-10-inside-4_905_1461)"/>
<mask id="path-13-inside-5_905_1461" fill="white">
<path d="M78.5 177H166.5V226H78.5V177Z"/>
</mask>
<path d="M78.5 177H166.5V226H78.5V177Z" fill="white"/>
<rect x="98.5" y="193" width="48" height="17" rx="5" fill="#F2F2F6"/>
<path d="M166.5 225H78.5V227H166.5V225Z" fill="#CBC9CD" mask="url(#path-13-inside-5_905_1461)"/>
<mask id="path-16-inside-6_905_1461" fill="white">
<path d="M166.5 30H233.5V79H166.5V30Z"/>
</mask>
<path d="M166.5 30H233.5V79H166.5V30Z" fill="white"/>
<path d="M186.929 59C186.851 59 186.786 58.974 186.734 58.922C186.682 58.8613 186.656 58.7963 186.656 58.727C186.656 58.6837 186.66 58.6447 186.669 58.61L189.763 50.251C189.789 50.1557 189.841 50.0733 189.919 50.004C189.997 49.9347 190.105 49.9 190.244 49.9H191.908C192.047 49.9 192.155 49.9347 192.233 50.004C192.311 50.0733 192.363 50.1557 192.389 50.251L195.483 58.61C195.492 58.6447 195.496 58.6837 195.496 58.727C195.496 58.7963 195.47 58.8613 195.418 58.922C195.366 58.974 195.301 59 195.223 59H193.871C193.741 59 193.646 58.9697 193.585 58.909C193.524 58.8483 193.485 58.792 193.468 58.74L192.909 57.284H189.243L188.684 58.74C188.667 58.792 188.628 58.8483 188.567 58.909C188.506 58.9697 188.411 59 188.281 59H186.929ZM189.724 55.607H192.415L191.076 51.863L189.724 55.607ZM200.078 59.13C199.263 59.13 198.566 58.9957 197.985 58.727C197.413 58.4497 196.967 58.051 196.646 57.531C196.334 57.0023 196.165 56.3653 196.139 55.62C196.13 55.2473 196.126 54.8487 196.126 54.424C196.126 53.9993 196.13 53.5963 196.139 53.215C196.165 52.487 196.334 51.8673 196.646 51.356C196.967 50.8447 197.417 50.4547 197.998 50.186C198.587 49.9087 199.281 49.77 200.078 49.77C200.719 49.77 201.283 49.8523 201.768 50.017C202.253 50.1817 202.661 50.3983 202.99 50.667C203.319 50.927 203.571 51.213 203.744 51.525C203.917 51.837 204.008 52.136 204.017 52.422C204.017 52.5 203.991 52.5693 203.939 52.63C203.887 52.682 203.818 52.708 203.731 52.708H202.119C202.032 52.708 201.963 52.6907 201.911 52.656C201.868 52.6213 201.829 52.5693 201.794 52.5C201.733 52.344 201.634 52.188 201.495 52.032C201.365 51.8673 201.187 51.7287 200.962 51.616C200.737 51.5033 200.442 51.447 200.078 51.447C199.532 51.447 199.099 51.59 198.778 51.876C198.466 52.162 198.297 52.63 198.271 53.28C198.245 54.0253 198.245 54.7837 198.271 55.555C198.297 56.231 198.47 56.7163 198.791 57.011C199.12 57.3057 199.558 57.453 200.104 57.453C200.459 57.453 200.776 57.3923 201.053 57.271C201.339 57.141 201.564 56.9417 201.729 56.673C201.894 56.4043 201.976 56.062 201.976 55.646V55.321H200.559C200.472 55.321 200.399 55.2907 200.338 55.23C200.277 55.1607 200.247 55.0827 200.247 54.996V54.164C200.247 54.0687 200.277 53.9907 200.338 53.93C200.399 53.8693 200.472 53.839 200.559 53.839H203.744C203.839 53.839 203.917 53.8693 203.978 53.93C204.039 53.9907 204.069 54.0687 204.069 54.164V55.581C204.069 56.3263 203.904 56.9633 203.575 57.492C203.254 58.0207 202.791 58.428 202.184 58.714C201.586 58.9913 200.884 59.13 200.078 59.13ZM205.979 59C205.884 59 205.806 58.9697 205.745 58.909C205.685 58.8483 205.654 58.7703 205.654 58.675V50.225C205.654 50.1297 205.685 50.0517 205.745 49.991C205.806 49.9303 205.884 49.9 205.979 49.9H211.868C211.964 49.9 212.042 49.9303 212.102 49.991C212.163 50.0517 212.193 50.1297 212.193 50.225V51.265C212.193 51.3517 212.163 51.4253 212.102 51.486C212.042 51.5467 211.964 51.577 211.868 51.577H207.656V53.618H211.582C211.678 53.618 211.756 53.6483 211.816 53.709C211.877 53.7697 211.907 53.8477 211.907 53.943V54.905C211.907 54.9917 211.877 55.0653 211.816 55.126C211.756 55.1867 211.678 55.217 211.582 55.217H207.656V57.323H211.972C212.068 57.323 212.146 57.3533 212.206 57.414C212.267 57.4747 212.297 57.5527 212.297 57.648V58.675C212.297 58.7703 212.267 58.8483 212.206 58.909C212.146 58.9697 212.068 59 211.972 59H205.979Z" fill="#A0A0A5"/>
<path d="M233.5 78H166.5V80H233.5V78Z" fill="#CBC9CD" mask="url(#path-16-inside-6_905_1461)"/>
<mask id="path-19-inside-7_905_1461" fill="white">
<path d="M166.5 79H233.5V128H166.5V79Z"/>
</mask>
<path d="M166.5 79H233.5V128H166.5V79Z" fill="white"/>
<path d="M208.634 108.13C207.958 108.13 207.364 108.022 206.853 107.805C206.342 107.58 205.943 107.259 205.657 106.843C205.371 106.427 205.228 105.942 205.228 105.387C205.228 104.876 205.354 104.429 205.605 104.048C205.856 103.658 206.199 103.359 206.632 103.151C206.285 102.952 206.017 102.692 205.826 102.371C205.644 102.042 205.553 101.66 205.553 101.227C205.553 100.464 205.83 99.8663 206.385 99.433C206.948 98.991 207.698 98.77 208.634 98.77C209.561 98.77 210.302 98.991 210.857 99.433C211.42 99.8663 211.702 100.46 211.702 101.214C211.702 101.647 211.607 102.029 211.416 102.358C211.234 102.679 210.974 102.943 210.636 103.151C211.069 103.359 211.412 103.658 211.663 104.048C211.914 104.429 212.04 104.876 212.04 105.387C212.04 105.942 211.897 106.427 211.611 106.843C211.325 107.259 210.922 107.58 210.402 107.805C209.891 108.022 209.301 108.13 208.634 108.13ZM208.634 102.683C209.154 102.674 209.592 102.54 209.947 102.28C210.302 102.02 210.48 101.678 210.48 101.253C210.48 100.82 210.302 100.473 209.947 100.213C209.6 99.9443 209.163 99.81 208.634 99.81C208.097 99.81 207.65 99.94 207.295 100.2C206.948 100.46 206.775 100.811 206.775 101.253C206.775 101.686 206.948 102.033 207.295 102.293C207.65 102.553 208.097 102.683 208.634 102.683ZM208.634 107.09C209.241 107.09 209.748 106.934 210.155 106.622C210.562 106.31 210.766 105.898 210.766 105.387C210.766 104.876 210.562 104.468 210.155 104.165C209.748 103.862 209.241 103.71 208.634 103.71C208.019 103.71 207.507 103.862 207.1 104.165C206.693 104.468 206.489 104.876 206.489 105.387C206.489 105.898 206.693 106.31 207.1 106.622C207.507 106.934 208.019 107.09 208.634 107.09Z" fill="#303032"/>
<path d="M233.5 127H166.5V129H233.5V127Z" fill="#CBC9CD" mask="url(#path-19-inside-7_905_1461)"/>
<mask id="path-22-inside-8_905_1461" fill="white">
<path d="M166.5 128H233.5V177H166.5V128Z"/>
</mask>
<path d="M166.5 128H233.5V177H166.5V128Z" fill="white"/>
<path d="M203.088 157C203.001 157 202.928 156.974 202.867 156.922C202.815 156.861 202.789 156.788 202.789 156.701V149.421L200.631 151.085C200.57 151.137 200.505 151.163 200.436 151.163C200.358 151.163 200.284 151.12 200.215 151.033L199.877 150.604C199.834 150.543 199.812 150.483 199.812 150.422C199.812 150.318 199.855 150.236 199.942 150.175L202.776 147.991C202.871 147.93 202.984 147.9 203.114 147.9H203.777C203.864 147.9 203.933 147.93 203.985 147.991C204.046 148.043 204.076 148.112 204.076 148.199V156.701C204.076 156.788 204.046 156.861 203.985 156.922C203.933 156.974 203.864 157 203.777 157H203.088ZM210.274 157C210.187 157 210.113 156.974 210.053 156.922C210.001 156.861 209.975 156.788 209.975 156.701V154.829H205.763C205.676 154.829 205.602 154.803 205.542 154.751C205.49 154.69 205.464 154.617 205.464 154.53V154.01C205.464 153.88 205.511 153.75 205.607 153.62L209.507 148.121C209.55 148.052 209.615 148 209.702 147.965C209.788 147.922 209.884 147.9 209.988 147.9H210.924C211.01 147.9 211.08 147.93 211.132 147.991C211.192 148.043 211.223 148.112 211.223 148.199V153.698H212.393C212.479 153.698 212.553 153.728 212.614 153.789C212.674 153.841 212.705 153.91 212.705 153.997V154.53C212.705 154.617 212.674 154.69 212.614 154.751C212.562 154.803 212.492 154.829 212.406 154.829H211.223V156.701C211.223 156.788 211.192 156.861 211.132 156.922C211.08 156.974 211.01 157 210.924 157H210.274ZM209.988 153.724V149.265L206.855 153.724H209.988Z" fill="#303032"/>
<path d="M233.5 176H166.5V178H233.5V176Z" fill="#CBC9CD" mask="url(#path-22-inside-8_905_1461)"/>
<mask id="path-25-inside-9_905_1461" fill="white">
<path d="M166.5 177H233.5V226H166.5V177Z"/>
</mask>
<path d="M166.5 177H233.5V226H166.5V177Z" fill="white"/>
<path d="M203.088 206C203.001 206 202.928 205.974 202.867 205.922C202.815 205.861 202.789 205.788 202.789 205.701V198.421L200.631 200.085C200.57 200.137 200.505 200.163 200.436 200.163C200.358 200.163 200.284 200.12 200.215 200.033L199.877 199.604C199.834 199.543 199.812 199.483 199.812 199.422C199.812 199.318 199.855 199.236 199.942 199.175L202.776 196.991C202.871 196.93 202.984 196.9 203.114 196.9H203.777C203.864 196.9 203.933 196.93 203.985 196.991C204.046 197.043 204.076 197.112 204.076 197.199V205.701C204.076 205.788 204.046 205.861 203.985 205.922C203.933 205.974 203.864 206 203.777 206H203.088ZM208.935 206.13C208.25 206.13 207.656 206.022 207.154 205.805C206.66 205.58 206.283 205.289 206.023 204.934C205.771 204.579 205.637 204.206 205.62 203.816C205.62 203.738 205.646 203.677 205.698 203.634C205.75 203.582 205.815 203.556 205.893 203.556H206.53C206.712 203.556 206.833 203.651 206.894 203.842C207.006 204.275 207.249 204.583 207.622 204.765C207.994 204.938 208.432 205.025 208.935 205.025C209.55 205.025 210.04 204.882 210.404 204.596C210.768 204.301 210.95 203.881 210.95 203.335C210.95 202.286 210.313 201.762 209.039 201.762H207.804C207.717 201.762 207.643 201.736 207.583 201.684C207.531 201.623 207.505 201.55 207.505 201.463V201.112C207.505 200.991 207.552 200.874 207.648 200.761L210.17 198.005H206.335C206.248 198.005 206.174 197.979 206.114 197.927C206.062 197.866 206.036 197.793 206.036 197.706V197.212C206.036 197.125 206.062 197.052 206.114 196.991C206.174 196.93 206.248 196.9 206.335 196.9H211.522C211.617 196.9 211.691 196.93 211.743 196.991C211.803 197.043 211.834 197.117 211.834 197.212V197.68C211.834 197.784 211.786 197.884 211.691 197.979L209.182 200.774L209.39 200.787C210.274 200.813 210.971 201.043 211.483 201.476C211.994 201.909 212.25 202.542 212.25 203.374C212.25 203.937 212.107 204.427 211.821 204.843C211.535 205.259 211.14 205.58 210.638 205.805C210.135 206.022 209.567 206.13 208.935 206.13Z" fill="#303032"/>
<path d="M233.5 225H166.5V227H233.5V225Z" fill="#CBC9CD" mask="url(#path-25-inside-9_905_1461)"/>
<mask id="path-28-inside-10_905_1461" fill="white">
<path d="M233.5 30H321.5V79H233.5V30Z"/>
</mask>
<path d="M233.5 30H321.5V79H233.5V30Z" fill="white"/>
<rect x="253.5" y="46" width="48" height="17" rx="5" fill="#F2F2F6"/>
<path d="M321.5 78H233.5V80H321.5V78Z" fill="#CBC9CD" mask="url(#path-28-inside-10_905_1461)"/>
<mask id="path-31-inside-11_905_1461" fill="white">
<path d="M233.5 79H321.5V128H233.5V79Z"/>
</mask>
<path d="M233.5 79H321.5V128H233.5V79Z" fill="white"/>
<rect x="253.5" y="95" width="48" height="17" rx="5" fill="#F2F2F6"/>
<path d="M321.5 127H233.5V129H321.5V127Z" fill="#CBC9CD" mask="url(#path-31-inside-11_905_1461)"/>
<mask id="path-34-inside-12_905_1461" fill="white">
<path d="M233.5 128H321.5V177H233.5V128Z"/>
</mask>
<path d="M233.5 128H321.5V177H233.5V128Z" fill="white"/>
<rect x="253.5" y="144" width="48" height="17" rx="5" fill="#F2F2F6"/>
<path d="M321.5 176H233.5V178H321.5V176Z" fill="#CBC9CD" mask="url(#path-34-inside-12_905_1461)"/>
<mask id="path-37-inside-13_905_1461" fill="white">
<path d="M233.5 177H321.5V226H233.5V177Z"/>
</mask>
<path d="M233.5 177H321.5V226H233.5V177Z" fill="white"/>
<rect x="253.5" y="193" width="48" height="17" rx="5" fill="#F2F2F6"/>
<path d="M321.5 225H233.5V227H321.5V225Z" fill="#CBC9CD" mask="url(#path-37-inside-13_905_1461)"/>
</g>
<path d="M0.5 0.5H62.5V17C62.5 18.933 60.933 20.5 59 20.5H0.5V0.5Z" fill="#F5F7F9"/>
<path d="M13.122 14C13.0487 14 12.9863 13.9743 12.935 13.923C12.8837 13.8717 12.858 13.8093 12.858 13.736V6.575C12.858 6.49433 12.88 6.42833 12.924 6.377C12.9753 6.32567 13.0413 6.3 13.122 6.3H15.806C17.962 6.3 19.062 7.29733 19.106 9.292C19.1207 9.71733 19.128 10.0033 19.128 10.15C19.128 10.2893 19.1207 10.5717 19.106 10.997C19.0767 12.0237 18.8017 12.7827 18.281 13.274C17.7603 13.758 16.9537 14 15.861 14H13.122ZM15.806 12.735C16.422 12.735 16.8657 12.5993 17.137 12.328C17.4083 12.0493 17.5513 11.5947 17.566 10.964C17.5807 10.524 17.588 10.249 17.588 10.139C17.588 10.0217 17.5807 9.75033 17.566 9.325C17.5513 8.72367 17.3973 8.28 17.104 7.994C16.818 7.708 16.367 7.565 15.751 7.565H14.387V12.735H15.806ZM20.6804 7.334C20.607 7.334 20.5447 7.30833 20.4934 7.257C20.442 7.20567 20.4164 7.14333 20.4164 7.07V6.278C20.4164 6.20467 20.442 6.14233 20.4934 6.091C20.5447 6.03967 20.607 6.014 20.6804 6.014H21.6814C21.7547 6.014 21.817 6.03967 21.8684 6.091C21.927 6.14233 21.9564 6.20467 21.9564 6.278V7.07C21.9564 7.14333 21.9307 7.20567 21.8794 7.257C21.828 7.30833 21.762 7.334 21.6814 7.334H20.6804ZM20.7244 14C20.651 14 20.5887 13.9743 20.5374 13.923C20.486 13.8717 20.4604 13.8093 20.4604 13.736V8.544C20.4604 8.47067 20.486 8.40833 20.5374 8.357C20.5887 8.30567 20.651 8.28 20.7244 8.28H21.6374C21.718 8.28 21.7804 8.30567 21.8244 8.357C21.8757 8.401 21.9014 8.46333 21.9014 8.544V13.736C21.9014 13.8093 21.8757 13.8717 21.8244 13.923C21.7804 13.9743 21.718 14 21.6374 14H20.7244ZM25.5278 14.11C24.9778 14.11 24.5158 14.0293 24.1418 13.868C23.7678 13.6993 23.4891 13.505 23.3058 13.285C23.1298 13.0577 23.0418 12.8633 23.0418 12.702C23.0418 12.6287 23.0674 12.57 23.1188 12.526C23.1701 12.482 23.2288 12.46 23.2948 12.46H24.1638C24.2298 12.46 24.2848 12.4857 24.3288 12.537C24.3581 12.559 24.4351 12.625 24.5598 12.735C24.6844 12.8523 24.8311 12.944 24.9998 13.01C25.1684 13.076 25.3554 13.109 25.5608 13.109C25.8541 13.109 26.0961 13.0503 26.2868 12.933C26.4774 12.8157 26.5728 12.6543 26.5728 12.449C26.5728 12.295 26.5288 12.1703 26.4408 12.075C26.3601 11.9797 26.2098 11.8953 25.9898 11.822C25.7698 11.7413 25.4434 11.657 25.0108 11.569C24.3874 11.437 23.9254 11.2353 23.6248 10.964C23.3314 10.6927 23.1848 10.3333 23.1848 9.886C23.1848 9.59267 23.2728 9.31767 23.4488 9.061C23.6248 8.797 23.8851 8.58433 24.2298 8.423C24.5818 8.25433 24.9998 8.17 25.4838 8.17C25.9751 8.17 26.4004 8.25067 26.7598 8.412C27.1191 8.566 27.3904 8.753 27.5738 8.973C27.7644 9.18567 27.8598 9.37633 27.8598 9.545C27.8598 9.611 27.8341 9.66967 27.7828 9.721C27.7388 9.765 27.6838 9.787 27.6178 9.787H26.8038C26.7451 9.787 26.6828 9.76133 26.6168 9.71C26.5654 9.67333 26.4848 9.60367 26.3748 9.501C26.2648 9.39833 26.1364 9.31767 25.9898 9.259C25.8431 9.20033 25.6708 9.171 25.4728 9.171C25.2014 9.171 24.9888 9.22967 24.8348 9.347C24.6881 9.46433 24.6148 9.61833 24.6148 9.809C24.6148 9.94833 24.6514 10.062 24.7248 10.15C24.7981 10.238 24.9411 10.3223 25.1538 10.403C25.3664 10.4837 25.6854 10.5643 26.1108 10.645C26.8148 10.7843 27.3171 11.0007 27.6178 11.294C27.9258 11.5873 28.0798 11.9467 28.0798 12.372C28.0798 12.8853 27.8561 13.3033 27.4088 13.626C26.9614 13.9487 26.3344 14.11 25.5278 14.11ZM29.4903 16.09C29.4169 16.09 29.3546 16.0643 29.3033 16.013C29.2519 15.969 29.2263 15.9067 29.2263 15.826V8.544C29.2263 8.46333 29.2519 8.401 29.3033 8.357C29.3546 8.30567 29.4169 8.28 29.4903 8.28H30.3593C30.4399 8.28 30.5023 8.30567 30.5463 8.357C30.5976 8.401 30.6233 8.46333 30.6233 8.544V8.984C31.0339 8.44133 31.6206 8.17 32.3833 8.17C33.1239 8.17 33.6923 8.40467 34.0883 8.874C34.4843 9.336 34.6969 9.963 34.7263 10.755C34.7336 10.843 34.7373 10.9713 34.7373 11.14C34.7373 11.316 34.7336 11.448 34.7263 11.536C34.6969 12.306 34.4843 12.9293 34.0883 13.406C33.6923 13.8753 33.1239 14.11 32.3833 14.11C31.6426 14.11 31.0779 13.8497 30.6893 13.329V15.826C30.6893 15.9067 30.6636 15.969 30.6123 16.013C30.5683 16.0643 30.5059 16.09 30.4253 16.09H29.4903ZM31.9763 12.933C32.7683 12.933 33.1899 12.4453 33.2413 11.47C33.2486 11.3967 33.2523 11.2867 33.2523 11.14C33.2523 10.9933 33.2486 10.8833 33.2413 10.81C33.1899 9.83467 32.7683 9.347 31.9763 9.347C31.5509 9.347 31.2356 9.48267 31.0303 9.754C30.8249 10.0253 30.7113 10.359 30.6893 10.755L30.6783 11.173L30.6893 11.602C30.7039 11.9687 30.8176 12.284 31.0303 12.548C31.2503 12.8047 31.5656 12.933 31.9763 12.933ZM36.2471 14C36.1738 14 36.1114 13.9743 36.0601 13.923C36.0088 13.8717 35.9831 13.8093 35.9831 13.736V6.454C35.9831 6.37333 36.0088 6.311 36.0601 6.267C36.1114 6.21567 36.1738 6.19 36.2471 6.19H37.1601C37.2408 6.19 37.3031 6.21567 37.3471 6.267C37.3984 6.311 37.4241 6.37333 37.4241 6.454V13.736C37.4241 13.8093 37.3984 13.8717 37.3471 13.923C37.3031 13.9743 37.2408 14 37.1601 14H36.2471ZM40.5442 14.11C40.1702 14.11 39.8256 14.0367 39.5102 13.89C39.2022 13.736 38.9566 13.5307 38.7732 13.274C38.5972 13.0173 38.5092 12.735 38.5092 12.427C38.5092 11.9283 38.7109 11.525 39.1142 11.217C39.5176 10.909 40.0712 10.7 40.7752 10.59L42.2822 10.37V10.139C42.2822 9.81633 42.2016 9.57433 42.0402 9.413C41.8789 9.25167 41.6186 9.171 41.2592 9.171C41.0172 9.171 40.8192 9.21867 40.6652 9.314C40.5186 9.402 40.4012 9.49 40.3132 9.578C40.2252 9.67333 40.1666 9.73567 40.1372 9.765C40.1079 9.853 40.0529 9.897 39.9722 9.897H39.1252C39.0592 9.897 39.0006 9.875 38.9492 9.831C38.9052 9.787 38.8832 9.72833 38.8832 9.655C38.8906 9.47167 38.9786 9.26267 39.1472 9.028C39.3232 8.79333 39.5909 8.59167 39.9502 8.423C40.3096 8.25433 40.7496 8.17 41.2702 8.17C42.1356 8.17 42.7662 8.36433 43.1622 8.753C43.5582 9.14167 43.7562 9.65133 43.7562 10.282V13.736C43.7562 13.8093 43.7306 13.8717 43.6792 13.923C43.6352 13.9743 43.5729 14 43.4922 14H42.6012C42.5279 14 42.4656 13.9743 42.4142 13.923C42.3629 13.8717 42.3372 13.8093 42.3372 13.736V13.307C42.1759 13.5417 41.9449 13.736 41.6442 13.89C41.3509 14.0367 40.9842 14.11 40.5442 14.11ZM40.9182 13.065C41.3216 13.065 41.6516 12.933 41.9082 12.669C42.1649 12.405 42.2932 12.02 42.2932 11.514V11.283L41.1932 11.459C40.7679 11.525 40.4452 11.6313 40.2252 11.778C40.0126 11.9247 39.9062 12.1043 39.9062 12.317C39.9062 12.5517 40.0052 12.735 40.2032 12.867C40.4012 12.999 40.6396 13.065 40.9182 13.065ZM46.051 16.09C45.9923 16.09 45.941 16.068 45.897 16.024C45.853 15.98 45.831 15.9287 45.831 15.87C45.831 15.804 45.8457 15.7453 45.875 15.694L46.733 13.659L44.621 8.676C44.5917 8.61 44.577 8.55867 44.577 8.522C44.5843 8.456 44.61 8.401 44.654 8.357C44.698 8.30567 44.753 8.28 44.819 8.28H45.71C45.8493 8.28 45.9483 8.34967 46.007 8.489L47.47 12.086L48.977 8.489C49.0357 8.34967 49.1347 8.28 49.274 8.28H50.154C50.2127 8.28 50.264 8.302 50.308 8.346C50.3593 8.39 50.385 8.44133 50.385 8.5C50.385 8.55133 50.3703 8.61 50.341 8.676L47.228 15.881C47.162 16.0203 47.0593 16.09 46.92 16.09H46.051Z" fill="#535356"/>
<path d="M0.5 0.5H62.5V17C62.5 18.933 60.933 20.5 59 20.5H0.5V0.5Z" stroke="#EAEAEF"/>
<path d="M1 256V0H-1V256H1Z" fill="#EAEAEF" mask="url(#path-1-inside-1_905_1461)"/>
<defs>
<filter id="filter0_d_905_1461" x="58.5" y="20" width="283" height="236" filterUnits="userSpaceOnUse" color-interpolation-filters="sRGB">
<feFlood flood-opacity="0" result="BackgroundImageFix"/>
<feColorMatrix in="SourceAlpha" type="matrix" values="0 0 0 0 0 0 0 0 0 0 0 0 0 0 0 0 0 0 127 0" result="hardAlpha"/>
<feOffset dy="10"/>
<feGaussianBlur stdDeviation="10"/>
<feComposite in2="hardAlpha" operator="out"/>
<feColorMatrix type="matrix" values="0 0 0 0 0.117647 0 0 0 0 0.117647 0 0 0 0 0.117647 0 0 0 0.12 0"/>
<feBlend mode="normal" in2="BackgroundImageFix" result="effect1_dropShadow_905_1461"/>
<feBlend mode="normal" in="SourceGraphic" in2="effect1_dropShadow_905_1461" result="shape"/>
</filter>
</defs>
</svg>
