<svg width="400" height="256" viewBox="0 0 400 256" fill="none" xmlns="http://www.w3.org/2000/svg">
<mask id="path-1-inside-1_905_3420" fill="white">
<path d="M0 0H400V256H0V0Z"/>
</mask>
<path d="M0 0H400V256H0V0Z" fill="#F5F7F9"/>
<path d="M0.5 0.5H62.5V17C62.5 18.933 60.933 20.5 59 20.5H0.5V0.5Z" fill="#F5F7F9"/>
<path d="M13.122 14C13.0487 14 12.9863 13.9743 12.935 13.923C12.8837 13.8717 12.858 13.8093 12.858 13.736V6.575C12.858 6.49433 12.88 6.42833 12.924 6.377C12.9753 6.32567 13.0413 6.3 13.122 6.3H15.806C17.962 6.3 19.062 7.29733 19.106 9.292C19.1207 9.71733 19.128 10.0033 19.128 10.15C19.128 10.2893 19.1207 10.5717 19.106 10.997C19.0767 12.0237 18.8017 12.7827 18.281 13.274C17.7603 13.758 16.9537 14 15.861 14H13.122ZM15.806 12.735C16.422 12.735 16.8657 12.5993 17.137 12.328C17.4083 12.0493 17.5513 11.5947 17.566 10.964C17.5807 10.524 17.588 10.249 17.588 10.139C17.588 10.0217 17.5807 9.75033 17.566 9.325C17.5513 8.72367 17.3973 8.28 17.104 7.994C16.818 7.708 16.367 7.565 15.751 7.565H14.387V12.735H15.806ZM20.6804 7.334C20.607 7.334 20.5447 7.30833 20.4934 7.257C20.442 7.20567 20.4164 7.14333 20.4164 7.07V6.278C20.4164 6.20467 20.442 6.14233 20.4934 6.091C20.5447 6.03967 20.607 6.014 20.6804 6.014H21.6814C21.7547 6.014 21.817 6.03967 21.8684 6.091C21.927 6.14233 21.9564 6.20467 21.9564 6.278V7.07C21.9564 7.14333 21.9307 7.20567 21.8794 7.257C21.828 7.30833 21.762 7.334 21.6814 7.334H20.6804ZM20.7244 14C20.651 14 20.5887 13.9743 20.5374 13.923C20.486 13.8717 20.4604 13.8093 20.4604 13.736V8.544C20.4604 8.47067 20.486 8.40833 20.5374 8.357C20.5887 8.30567 20.651 8.28 20.7244 8.28H21.6374C21.718 8.28 21.7804 8.30567 21.8244 8.357C21.8757 8.401 21.9014 8.46333 21.9014 8.544V13.736C21.9014 13.8093 21.8757 13.8717 21.8244 13.923C21.7804 13.9743 21.718 14 21.6374 14H20.7244ZM25.5278 14.11C24.9778 14.11 24.5158 14.0293 24.1418 13.868C23.7678 13.6993 23.4891 13.505 23.3058 13.285C23.1298 13.0577 23.0418 12.8633 23.0418 12.702C23.0418 12.6287 23.0674 12.57 23.1188 12.526C23.1701 12.482 23.2288 12.46 23.2948 12.46H24.1638C24.2298 12.46 24.2848 12.4857 24.3288 12.537C24.3581 12.559 24.4351 12.625 24.5598 12.735C24.6844 12.8523 24.8311 12.944 24.9998 13.01C25.1684 13.076 25.3554 13.109 25.5608 13.109C25.8541 13.109 26.0961 13.0503 26.2868 12.933C26.4774 12.8157 26.5728 12.6543 26.5728 12.449C26.5728 12.295 26.5288 12.1703 26.4408 12.075C26.3601 11.9797 26.2098 11.8953 25.9898 11.822C25.7698 11.7413 25.4434 11.657 25.0108 11.569C24.3874 11.437 23.9254 11.2353 23.6248 10.964C23.3314 10.6927 23.1848 10.3333 23.1848 9.886C23.1848 9.59267 23.2728 9.31767 23.4488 9.061C23.6248 8.797 23.8851 8.58433 24.2298 8.423C24.5818 8.25433 24.9998 8.17 25.4838 8.17C25.9751 8.17 26.4004 8.25067 26.7598 8.412C27.1191 8.566 27.3904 8.753 27.5738 8.973C27.7644 9.18567 27.8598 9.37633 27.8598 9.545C27.8598 9.611 27.8341 9.66967 27.7828 9.721C27.7388 9.765 27.6838 9.787 27.6178 9.787H26.8038C26.7451 9.787 26.6828 9.76133 26.6168 9.71C26.5654 9.67333 26.4848 9.60367 26.3748 9.501C26.2648 9.39833 26.1364 9.31767 25.9898 9.259C25.8431 9.20033 25.6708 9.171 25.4728 9.171C25.2014 9.171 24.9888 9.22967 24.8348 9.347C24.6881 9.46433 24.6148 9.61833 24.6148 9.809C24.6148 9.94833 24.6514 10.062 24.7248 10.15C24.7981 10.238 24.9411 10.3223 25.1538 10.403C25.3664 10.4837 25.6854 10.5643 26.1108 10.645C26.8148 10.7843 27.3171 11.0007 27.6178 11.294C27.9258 11.5873 28.0798 11.9467 28.0798 12.372C28.0798 12.8853 27.8561 13.3033 27.4088 13.626C26.9614 13.9487 26.3344 14.11 25.5278 14.11ZM29.4903 16.09C29.4169 16.09 29.3546 16.0643 29.3033 16.013C29.2519 15.969 29.2263 15.9067 29.2263 15.826V8.544C29.2263 8.46333 29.2519 8.401 29.3033 8.357C29.3546 8.30567 29.4169 8.28 29.4903 8.28H30.3593C30.4399 8.28 30.5023 8.30567 30.5463 8.357C30.5976 8.401 30.6233 8.46333 30.6233 8.544V8.984C31.0339 8.44133 31.6206 8.17 32.3833 8.17C33.1239 8.17 33.6923 8.40467 34.0883 8.874C34.4843 9.336 34.6969 9.963 34.7263 10.755C34.7336 10.843 34.7373 10.9713 34.7373 11.14C34.7373 11.316 34.7336 11.448 34.7263 11.536C34.6969 12.306 34.4843 12.9293 34.0883 13.406C33.6923 13.8753 33.1239 14.11 32.3833 14.11C31.6426 14.11 31.0779 13.8497 30.6893 13.329V15.826C30.6893 15.9067 30.6636 15.969 30.6123 16.013C30.5683 16.0643 30.5059 16.09 30.4253 16.09H29.4903ZM31.9763 12.933C32.7683 12.933 33.1899 12.4453 33.2413 11.47C33.2486 11.3967 33.2523 11.2867 33.2523 11.14C33.2523 10.9933 33.2486 10.8833 33.2413 10.81C33.1899 9.83467 32.7683 9.347 31.9763 9.347C31.5509 9.347 31.2356 9.48267 31.0303 9.754C30.8249 10.0253 30.7113 10.359 30.6893 10.755L30.6783 11.173L30.6893 11.602C30.7039 11.9687 30.8176 12.284 31.0303 12.548C31.2503 12.8047 31.5656 12.933 31.9763 12.933ZM36.2471 14C36.1738 14 36.1114 13.9743 36.0601 13.923C36.0088 13.8717 35.9831 13.8093 35.9831 13.736V6.454C35.9831 6.37333 36.0088 6.311 36.0601 6.267C36.1114 6.21567 36.1738 6.19 36.2471 6.19H37.1601C37.2408 6.19 37.3031 6.21567 37.3471 6.267C37.3984 6.311 37.4241 6.37333 37.4241 6.454V13.736C37.4241 13.8093 37.3984 13.8717 37.3471 13.923C37.3031 13.9743 37.2408 14 37.1601 14H36.2471ZM40.5442 14.11C40.1702 14.11 39.8256 14.0367 39.5102 13.89C39.2022 13.736 38.9566 13.5307 38.7732 13.274C38.5972 13.0173 38.5092 12.735 38.5092 12.427C38.5092 11.9283 38.7109 11.525 39.1142 11.217C39.5176 10.909 40.0712 10.7 40.7752 10.59L42.2822 10.37V10.139C42.2822 9.81633 42.2016 9.57433 42.0402 9.413C41.8789 9.25167 41.6186 9.171 41.2592 9.171C41.0172 9.171 40.8192 9.21867 40.6652 9.314C40.5186 9.402 40.4012 9.49 40.3132 9.578C40.2252 9.67333 40.1666 9.73567 40.1372 9.765C40.1079 9.853 40.0529 9.897 39.9722 9.897H39.1252C39.0592 9.897 39.0006 9.875 38.9492 9.831C38.9052 9.787 38.8832 9.72833 38.8832 9.655C38.8906 9.47167 38.9786 9.26267 39.1472 9.028C39.3232 8.79333 39.5909 8.59167 39.9502 8.423C40.3096 8.25433 40.7496 8.17 41.2702 8.17C42.1356 8.17 42.7662 8.36433 43.1622 8.753C43.5582 9.14167 43.7562 9.65133 43.7562 10.282V13.736C43.7562 13.8093 43.7306 13.8717 43.6792 13.923C43.6352 13.9743 43.5729 14 43.4922 14H42.6012C42.5279 14 42.4656 13.9743 42.4142 13.923C42.3629 13.8717 42.3372 13.8093 42.3372 13.736V13.307C42.1759 13.5417 41.9449 13.736 41.6442 13.89C41.3509 14.0367 40.9842 14.11 40.5442 14.11ZM40.9182 13.065C41.3216 13.065 41.6516 12.933 41.9082 12.669C42.1649 12.405 42.2932 12.02 42.2932 11.514V11.283L41.1932 11.459C40.7679 11.525 40.4452 11.6313 40.2252 11.778C40.0126 11.9247 39.9062 12.1043 39.9062 12.317C39.9062 12.5517 40.0052 12.735 40.2032 12.867C40.4012 12.999 40.6396 13.065 40.9182 13.065ZM46.051 16.09C45.9923 16.09 45.941 16.068 45.897 16.024C45.853 15.98 45.831 15.9287 45.831 15.87C45.831 15.804 45.8457 15.7453 45.875 15.694L46.733 13.659L44.621 8.676C44.5917 8.61 44.577 8.55867 44.577 8.522C44.5843 8.456 44.61 8.401 44.654 8.357C44.698 8.30567 44.753 8.28 44.819 8.28H45.71C45.8493 8.28 45.9483 8.34967 46.007 8.489L47.47 12.086L48.977 8.489C49.0357 8.34967 49.1347 8.28 49.274 8.28H50.154C50.2127 8.28 50.264 8.302 50.308 8.346C50.3593 8.39 50.385 8.44133 50.385 8.5C50.385 8.55133 50.3703 8.61 50.341 8.676L47.228 15.881C47.162 16.0203 47.0593 16.09 46.92 16.09H46.051Z" fill="#535356"/>
<path d="M0.5 0.5H62.5V17C62.5 18.933 60.933 20.5 59 20.5H0.5V0.5Z" stroke="#EAEAEF"/>
<g filter="url(#filter0_d_905_3420)">
<mask id="path-6-inside-2_905_3420" fill="white">
<path d="M51.5 30H172.5V79H51.5V30Z"/>
</mask>
<path d="M51.5 30H172.5V79H51.5V30Z" fill="white"/>
<path d="M75.673 59.13C74.9017 59.13 74.2387 59.013 73.684 58.779C73.1293 58.545 72.709 58.2373 72.423 57.856C72.137 57.4747 71.9853 57.063 71.968 56.621C71.968 56.543 71.994 56.478 72.046 56.426C72.098 56.374 72.163 56.348 72.241 56.348H73.398C73.502 56.348 73.58 56.3697 73.632 56.413C73.6927 56.4477 73.749 56.5083 73.801 56.595C73.8877 56.8897 74.087 57.1367 74.399 57.336C74.711 57.5353 75.1357 57.635 75.673 57.635C76.2883 57.635 76.752 57.5353 77.064 57.336C77.376 57.128 77.532 56.842 77.532 56.478C77.532 56.2353 77.4497 56.036 77.285 55.88C77.129 55.724 76.8907 55.5897 76.57 55.477C76.258 55.3643 75.79 55.2257 75.166 55.061C74.1433 54.8183 73.3937 54.4977 72.917 54.099C72.449 53.6917 72.215 53.1153 72.215 52.37C72.215 51.8673 72.3493 51.421 72.618 51.031C72.8953 50.641 73.2897 50.3333 73.801 50.108C74.321 49.8827 74.9233 49.77 75.608 49.77C76.3187 49.77 76.934 49.8957 77.454 50.147C77.974 50.3983 78.3683 50.7147 78.637 51.096C78.9143 51.4687 79.0617 51.8413 79.079 52.214C79.079 52.292 79.053 52.357 79.001 52.409C78.949 52.461 78.884 52.487 78.806 52.487H77.597C77.415 52.487 77.2893 52.4047 77.22 52.24C77.168 51.9627 76.9947 51.733 76.7 51.551C76.4053 51.3603 76.0413 51.265 75.608 51.265C75.1227 51.265 74.7413 51.356 74.464 51.538C74.1867 51.72 74.048 51.9843 74.048 52.331C74.048 52.5737 74.1173 52.773 74.256 52.929C74.3947 53.085 74.6113 53.2237 74.906 53.345C75.2093 53.4663 75.6427 53.6007 76.206 53.748C76.9687 53.9213 77.5753 54.1163 78.026 54.333C78.4853 54.5497 78.8233 54.8227 79.04 55.152C79.2567 55.4813 79.365 55.9017 79.365 56.413C79.365 56.9677 79.209 57.453 78.897 57.869C78.5937 58.2763 78.1603 58.5883 77.597 58.805C77.0423 59.0217 76.401 59.13 75.673 59.13ZM83.0673 59C82.9806 59 82.9069 58.9697 82.8463 58.909C82.7856 58.8483 82.7553 58.7747 82.7553 58.688V51.499H80.3503C80.2636 51.499 80.1899 51.4687 80.1293 51.408C80.0686 51.3473 80.0383 51.2737 80.0383 51.187V50.225C80.0383 50.1297 80.0643 50.0517 80.1163 49.991C80.1769 49.9303 80.2549 49.9 80.3503 49.9H86.9803C87.0756 49.9 87.1536 49.9303 87.2143 49.991C87.2749 50.0517 87.3053 50.1297 87.3053 50.225V51.187C87.3053 51.2737 87.2749 51.3473 87.2143 51.408C87.1536 51.4687 87.0756 51.499 86.9803 51.499H84.5883V58.688C84.5883 58.7747 84.5579 58.8483 84.4973 58.909C84.4366 58.9697 84.3586 59 84.2633 59H83.0673ZM87.1132 59C87.0439 59 86.9789 58.974 86.9182 58.922C86.8662 58.87 86.8402 58.805 86.8402 58.727L86.8662 58.61L89.9992 50.225C90.0599 50.0083 90.2115 49.9 90.4542 49.9H91.8712C92.0965 49.9 92.2482 50.0083 92.3262 50.225L95.4592 58.61C95.4679 58.636 95.4722 58.675 95.4722 58.727C95.4722 58.805 95.4462 58.87 95.3942 58.922C95.3422 58.974 95.2815 59 95.2122 59H94.0812C93.9685 59 93.8819 58.974 93.8212 58.922C93.7605 58.87 93.7215 58.8137 93.7042 58.753L93.0932 57.167H89.2322L88.6212 58.753C88.5519 58.9177 88.4262 59 88.2442 59H87.1132ZM92.6382 55.672L91.1562 51.655L89.6872 55.672H92.6382ZM98.0477 59C97.9611 59 97.8874 58.9697 97.8267 58.909C97.7661 58.8483 97.7357 58.7747 97.7357 58.688V51.499H95.3307C95.2441 51.499 95.1704 51.4687 95.1097 51.408C95.0491 51.3473 95.0187 51.2737 95.0187 51.187V50.225C95.0187 50.1297 95.0447 50.0517 95.0967 49.991C95.1574 49.9303 95.2354 49.9 95.3307 49.9H101.961C102.056 49.9 102.134 49.9303 102.195 49.991C102.255 50.0517 102.286 50.1297 102.286 50.225V51.187C102.286 51.2737 102.255 51.3473 102.195 51.408C102.134 51.4687 102.056 51.499 101.961 51.499H99.5687V58.688C99.5687 58.7747 99.5384 58.8483 99.4777 58.909C99.4171 58.9697 99.3391 59 99.2437 59H98.0477ZM107.232 59.13C106.062 59.13 105.152 58.831 104.502 58.233C103.852 57.635 103.527 56.7293 103.527 55.516V50.225C103.527 50.1297 103.553 50.0517 103.605 49.991C103.665 49.9303 103.743 49.9 103.839 49.9H105.022C105.117 49.9 105.191 49.9303 105.243 49.991C105.303 50.0517 105.334 50.1297 105.334 50.225V55.516C105.334 56.2093 105.498 56.7337 105.828 57.089C106.157 57.4357 106.625 57.609 107.232 57.609C107.838 57.609 108.302 57.4357 108.623 57.089C108.952 56.7337 109.117 56.2093 109.117 55.516V50.225C109.117 50.1297 109.147 50.0517 109.208 49.991C109.268 49.9303 109.346 49.9 109.442 49.9H110.612C110.707 49.9 110.781 49.9303 110.833 49.991C110.893 50.0517 110.924 50.1297 110.924 50.225V55.516C110.924 56.7293 110.599 57.635 109.949 58.233C109.307 58.831 108.402 59.13 107.232 59.13ZM116.031 59.13C115.26 59.13 114.597 59.013 114.042 58.779C113.488 58.545 113.067 58.2373 112.781 57.856C112.495 57.4747 112.344 57.063 112.326 56.621C112.326 56.543 112.352 56.478 112.404 56.426C112.456 56.374 112.521 56.348 112.599 56.348H113.756C113.86 56.348 113.938 56.3697 113.99 56.413C114.051 56.4477 114.107 56.5083 114.159 56.595C114.246 56.8897 114.445 57.1367 114.757 57.336C115.069 57.5353 115.494 57.635 116.031 57.635C116.647 57.635 117.11 57.5353 117.422 57.336C117.734 57.128 117.89 56.842 117.89 56.478C117.89 56.2353 117.808 56.036 117.643 55.88C117.487 55.724 117.249 55.5897 116.928 55.477C116.616 55.3643 116.148 55.2257 115.524 55.061C114.502 54.8183 113.752 54.4977 113.275 54.099C112.807 53.6917 112.573 53.1153 112.573 52.37C112.573 51.8673 112.708 51.421 112.976 51.031C113.254 50.641 113.648 50.3333 114.159 50.108C114.679 49.8827 115.282 49.77 115.966 49.77C116.677 49.77 117.292 49.8957 117.812 50.147C118.332 50.3983 118.727 50.7147 118.995 51.096C119.273 51.4687 119.42 51.8413 119.437 52.214C119.437 52.292 119.411 52.357 119.359 52.409C119.307 52.461 119.242 52.487 119.164 52.487H117.955C117.773 52.487 117.648 52.4047 117.578 52.24C117.526 51.9627 117.353 51.733 117.058 51.551C116.764 51.3603 116.4 51.265 115.966 51.265C115.481 51.265 115.1 51.356 114.822 51.538C114.545 51.72 114.406 51.9843 114.406 52.331C114.406 52.5737 114.476 52.773 114.614 52.929C114.753 53.085 114.97 53.2237 115.264 53.345C115.568 53.4663 116.001 53.6007 116.564 53.748C117.327 53.9213 117.934 54.1163 118.384 54.333C118.844 54.5497 119.182 54.8227 119.398 55.152C119.615 55.4813 119.723 55.9017 119.723 56.413C119.723 56.9677 119.567 57.453 119.255 57.869C118.952 58.2763 118.519 58.5883 117.955 58.805C117.401 59.0217 116.759 59.13 116.031 59.13Z" fill="#A0A0A5"/>
<path d="M172.5 78H51.5V80H172.5V78Z" fill="#CBC9CD" mask="url(#path-6-inside-2_905_3420)"/>
<mask id="path-9-inside-3_905_3420" fill="white">
<path d="M51.5 79H172.5V128H51.5V79Z"/>
</mask>
<path d="M51.5 79H172.5V128H51.5V79Z" fill="white"/>
<rect x="71.5" y="91.5" width="81" height="24" rx="12" fill="#F9F54B"/>
<path d="M82.0544 107.5C81.9744 107.5 81.9064 107.476 81.8504 107.428C81.8024 107.372 81.7784 107.304 81.7784 107.224V99.376C81.7784 99.296 81.8024 99.232 81.8504 99.184C81.9064 99.128 81.9744 99.1 82.0544 99.1H82.6904C82.7704 99.1 82.8344 99.128 82.8824 99.184C82.9384 99.232 82.9664 99.296 82.9664 99.376V107.224C82.9664 107.304 82.9384 107.372 82.8824 107.428C82.8344 107.476 82.7704 107.5 82.6904 107.5H82.0544ZM85.1796 107.5C85.0996 107.5 85.0316 107.476 84.9756 107.428C84.9276 107.372 84.9036 107.304 84.9036 107.224V101.536C84.9036 101.456 84.9276 101.392 84.9756 101.344C85.0316 101.288 85.0996 101.26 85.1796 101.26H85.7436C85.8236 101.26 85.8876 101.288 85.9356 101.344C85.9916 101.392 86.0196 101.456 86.0196 101.536V102.064C86.2516 101.768 86.5236 101.54 86.8356 101.38C87.1556 101.22 87.5516 101.14 88.0236 101.14C88.7916 101.14 89.3876 101.388 89.8116 101.884C90.2436 102.372 90.4596 103.024 90.4596 103.84V107.224C90.4596 107.304 90.4316 107.372 90.3756 107.428C90.3276 107.476 90.2636 107.5 90.1836 107.5H89.5836C89.5036 107.5 89.4356 107.476 89.3796 107.428C89.3316 107.372 89.3076 107.304 89.3076 107.224V103.9C89.3076 103.332 89.1676 102.892 88.8876 102.58C88.6156 102.268 88.2196 102.112 87.6996 102.112C87.1956 102.112 86.7956 102.272 86.4996 102.592C86.2036 102.904 86.0556 103.34 86.0556 103.9V107.224C86.0556 107.304 86.0276 107.372 85.9716 107.428C85.9236 107.476 85.8596 107.5 85.7796 107.5H85.1796ZM95.4104 109.78C95.3304 109.78 95.2624 109.752 95.2064 109.696C95.1584 109.648 95.1344 109.584 95.1344 109.504V101.536C95.1344 101.456 95.1584 101.392 95.2064 101.344C95.2624 101.288 95.3304 101.26 95.4104 101.26H95.9624C96.0424 101.26 96.1064 101.288 96.1544 101.344C96.2104 101.392 96.2384 101.456 96.2384 101.536V102.064C96.6864 101.448 97.3424 101.14 98.2064 101.14C99.0464 101.14 99.6744 101.404 100.09 101.932C100.514 102.46 100.742 103.14 100.774 103.972C100.782 104.06 100.786 104.196 100.786 104.38C100.786 104.564 100.782 104.7 100.774 104.788C100.742 105.612 100.514 106.292 100.09 106.828C99.6664 107.356 99.0384 107.62 98.2064 107.62C97.3744 107.62 96.7264 107.32 96.2624 106.72V109.504C96.2624 109.584 96.2384 109.648 96.1904 109.696C96.1424 109.752 96.0784 109.78 95.9984 109.78H95.4104ZM97.9544 106.648C98.5224 106.648 98.9344 106.472 99.1904 106.12C99.4544 105.768 99.5984 105.304 99.6224 104.728C99.6304 104.648 99.6344 104.532 99.6344 104.38C99.6344 102.868 99.0744 102.112 97.9544 102.112C97.4024 102.112 96.9864 102.296 96.7064 102.664C96.4344 103.024 96.2864 103.456 96.2624 103.96L96.2504 104.416L96.2624 104.884C96.2784 105.356 96.4304 105.768 96.7184 106.12C97.0064 106.472 97.4184 106.648 97.9544 106.648ZM102.547 107.5C102.467 107.5 102.399 107.476 102.343 107.428C102.295 107.372 102.271 107.304 102.271 107.224V101.548C102.271 101.468 102.295 101.4 102.343 101.344C102.399 101.288 102.467 101.26 102.547 101.26H103.099C103.179 101.26 103.247 101.288 103.303 101.344C103.359 101.4 103.387 101.468 103.387 101.548V102.076C103.715 101.532 104.275 101.26 105.067 101.26H105.535C105.615 101.26 105.679 101.288 105.727 101.344C105.783 101.392 105.811 101.456 105.811 101.536V102.028C105.811 102.108 105.783 102.172 105.727 102.22C105.679 102.268 105.615 102.292 105.535 102.292H104.815C104.383 102.292 104.043 102.42 103.795 102.676C103.547 102.924 103.423 103.264 103.423 103.696V107.224C103.423 107.304 103.395 107.372 103.339 107.428C103.283 107.476 103.215 107.5 103.135 107.5H102.547ZM109.268 107.62C108.388 107.62 107.704 107.372 107.216 106.876C106.736 106.38 106.48 105.72 106.448 104.896L106.436 104.38L106.448 103.864C106.48 103.048 106.74 102.392 107.228 101.896C107.716 101.392 108.396 101.14 109.268 101.14C110.14 101.14 110.82 101.392 111.308 101.896C111.796 102.392 112.056 103.048 112.088 103.864C112.096 103.952 112.1 104.124 112.1 104.38C112.1 104.636 112.096 104.808 112.088 104.896C112.056 105.72 111.796 106.38 111.308 106.876C110.828 107.372 110.148 107.62 109.268 107.62ZM109.268 106.696C109.772 106.696 110.168 106.536 110.456 106.216C110.752 105.896 110.912 105.436 110.936 104.836C110.944 104.756 110.948 104.604 110.948 104.38C110.948 104.156 110.944 104.004 110.936 103.924C110.912 103.324 110.752 102.864 110.456 102.544C110.168 102.224 109.772 102.064 109.268 102.064C108.764 102.064 108.364 102.224 108.068 102.544C107.772 102.864 107.616 103.324 107.6 103.924L107.588 104.38L107.6 104.836C107.616 105.436 107.772 105.896 108.068 106.216C108.364 106.536 108.764 106.696 109.268 106.696ZM116.159 110.14C115.503 110.14 114.975 110.028 114.575 109.804C114.175 109.588 113.891 109.34 113.723 109.06C113.555 108.78 113.463 108.528 113.447 108.304C113.439 108.224 113.463 108.156 113.519 108.1C113.583 108.044 113.651 108.016 113.723 108.016H114.299C114.371 108.016 114.431 108.032 114.479 108.064C114.527 108.104 114.567 108.172 114.599 108.268C114.695 108.524 114.851 108.744 115.067 108.928C115.291 109.12 115.635 109.216 116.099 109.216C116.691 109.216 117.127 109.088 117.407 108.832C117.687 108.584 117.827 108.14 117.827 107.5V106.684C117.619 106.948 117.355 107.16 117.035 107.32C116.715 107.472 116.335 107.548 115.895 107.548C115.047 107.548 114.411 107.28 113.987 106.744C113.571 106.2 113.351 105.512 113.327 104.68L113.315 104.344L113.327 104.02C113.351 103.196 113.575 102.512 113.999 101.968C114.423 101.416 115.055 101.14 115.895 101.14C116.735 101.14 117.391 101.448 117.863 102.064V101.548C117.863 101.468 117.887 101.4 117.935 101.344C117.991 101.288 118.059 101.26 118.139 101.26H118.691C118.771 101.26 118.839 101.288 118.895 101.344C118.951 101.4 118.979 101.468 118.979 101.548V107.368C118.979 109.216 118.039 110.14 116.159 110.14ZM116.135 106.588C116.679 106.588 117.091 106.408 117.371 106.048C117.651 105.688 117.803 105.26 117.827 104.764C117.835 104.692 117.839 104.552 117.839 104.344C117.839 104.144 117.835 104.008 117.827 103.936C117.803 103.44 117.651 103.012 117.371 102.652C117.099 102.292 116.687 102.112 116.135 102.112C115.567 102.112 115.155 102.288 114.899 102.64C114.643 102.992 114.503 103.456 114.479 104.032L114.467 104.344L114.479 104.668C114.503 105.236 114.643 105.7 114.899 106.06C115.155 106.412 115.567 106.588 116.135 106.588ZM121.039 107.5C120.959 107.5 120.891 107.476 120.835 107.428C120.787 107.372 120.763 107.304 120.763 107.224V101.548C120.763 101.468 120.787 101.4 120.835 101.344C120.891 101.288 120.959 101.26 121.039 101.26H121.591C121.671 101.26 121.739 101.288 121.795 101.344C121.851 101.4 121.879 101.468 121.879 101.548V102.076C122.207 101.532 122.767 101.26 123.559 101.26H124.027C124.107 101.26 124.171 101.288 124.219 101.344C124.275 101.392 124.303 101.456 124.303 101.536V102.028C124.303 102.108 124.275 102.172 124.219 102.22C124.171 102.268 124.107 102.292 124.027 102.292H123.307C122.875 102.292 122.535 102.42 122.287 102.676C122.039 102.924 121.915 103.264 121.915 103.696V107.224C121.915 107.304 121.887 107.372 121.831 107.428C121.775 107.476 121.707 107.5 121.627 107.5H121.039ZM127.7 107.62C126.876 107.62 126.216 107.368 125.72 106.864C125.232 106.352 124.964 105.656 124.916 104.776L124.904 104.368L124.916 103.972C124.972 103.108 125.244 102.42 125.732 101.908C126.228 101.396 126.88 101.14 127.688 101.14C128.576 101.14 129.264 101.424 129.752 101.992C130.24 102.552 130.484 103.312 130.484 104.272V104.476C130.484 104.556 130.456 104.624 130.4 104.68C130.352 104.728 130.288 104.752 130.208 104.752H126.056V104.86C126.08 105.38 126.236 105.824 126.524 106.192C126.82 106.552 127.208 106.732 127.688 106.732C128.056 106.732 128.356 106.66 128.588 106.516C128.828 106.364 129.004 106.208 129.116 106.048C129.188 105.952 129.24 105.896 129.272 105.88C129.312 105.856 129.38 105.844 129.476 105.844H130.064C130.136 105.844 130.196 105.864 130.244 105.904C130.292 105.944 130.316 106 130.316 106.072C130.316 106.248 130.204 106.46 129.98 106.708C129.764 106.956 129.456 107.172 129.056 107.356C128.664 107.532 128.212 107.62 127.7 107.62ZM129.344 103.924V103.888C129.344 103.336 129.192 102.888 128.888 102.544C128.592 102.192 128.192 102.016 127.688 102.016C127.184 102.016 126.784 102.192 126.488 102.544C126.2 102.888 126.056 103.336 126.056 103.888V103.924H129.344ZM134.079 107.62C133.519 107.62 133.047 107.532 132.663 107.356C132.287 107.172 132.003 106.964 131.811 106.732C131.627 106.5 131.535 106.308 131.535 106.156C131.535 106.076 131.563 106.016 131.619 105.976C131.683 105.928 131.747 105.904 131.811 105.904H132.351C132.431 105.904 132.503 105.944 132.567 106.024C132.759 106.248 132.967 106.424 133.191 106.552C133.415 106.68 133.715 106.744 134.091 106.744C134.507 106.744 134.843 106.664 135.099 106.504C135.363 106.336 135.495 106.108 135.495 105.82C135.495 105.628 135.439 105.472 135.327 105.352C135.223 105.224 135.039 105.116 134.775 105.028C134.519 104.932 134.135 104.828 133.623 104.716C132.927 104.564 132.431 104.344 132.135 104.056C131.847 103.768 131.703 103.396 131.703 102.94C131.703 102.636 131.791 102.348 131.967 102.076C132.151 101.796 132.415 101.572 132.759 101.404C133.111 101.228 133.531 101.14 134.019 101.14C134.531 101.14 134.967 101.224 135.327 101.392C135.687 101.56 135.955 101.76 136.131 101.992C136.315 102.216 136.407 102.404 136.407 102.556C136.407 102.628 136.379 102.688 136.323 102.736C136.275 102.784 136.215 102.808 136.143 102.808H135.639C135.543 102.808 135.463 102.768 135.399 102.688C135.271 102.536 135.159 102.42 135.063 102.34C134.975 102.252 134.843 102.176 134.667 102.112C134.499 102.048 134.283 102.016 134.019 102.016C133.635 102.016 133.339 102.1 133.131 102.268C132.923 102.428 132.819 102.64 132.819 102.904C132.819 103.072 132.863 103.216 132.951 103.336C133.039 103.448 133.207 103.552 133.455 103.648C133.711 103.744 134.079 103.844 134.559 103.948C135.319 104.108 135.855 104.34 136.167 104.644C136.487 104.94 136.647 105.32 136.647 105.784C136.647 106.128 136.547 106.44 136.347 106.72C136.147 107 135.851 107.22 135.459 107.38C135.075 107.54 134.615 107.62 134.079 107.62ZM140.196 107.62C139.636 107.62 139.164 107.532 138.78 107.356C138.404 107.172 138.12 106.964 137.928 106.732C137.744 106.5 137.652 106.308 137.652 106.156C137.652 106.076 137.68 106.016 137.736 105.976C137.8 105.928 137.864 105.904 137.928 105.904H138.468C138.548 105.904 138.62 105.944 138.684 106.024C138.876 106.248 139.084 106.424 139.308 106.552C139.532 106.68 139.832 106.744 140.208 106.744C140.624 106.744 140.96 106.664 141.216 106.504C141.48 106.336 141.612 106.108 141.612 105.82C141.612 105.628 141.556 105.472 141.444 105.352C141.34 105.224 141.156 105.116 140.892 105.028C140.636 104.932 140.252 104.828 139.74 104.716C139.044 104.564 138.548 104.344 138.252 104.056C137.964 103.768 137.82 103.396 137.82 102.94C137.82 102.636 137.908 102.348 138.084 102.076C138.268 101.796 138.532 101.572 138.876 101.404C139.228 101.228 139.648 101.14 140.136 101.14C140.648 101.14 141.084 101.224 141.444 101.392C141.804 101.56 142.072 101.76 142.248 101.992C142.432 102.216 142.524 102.404 142.524 102.556C142.524 102.628 142.496 102.688 142.44 102.736C142.392 102.784 142.332 102.808 142.26 102.808H141.756C141.66 102.808 141.58 102.768 141.516 102.688C141.388 102.536 141.276 102.42 141.18 102.34C141.092 102.252 140.96 102.176 140.784 102.112C140.616 102.048 140.4 102.016 140.136 102.016C139.752 102.016 139.456 102.1 139.248 102.268C139.04 102.428 138.936 102.64 138.936 102.904C138.936 103.072 138.98 103.216 139.068 103.336C139.156 103.448 139.324 103.552 139.572 103.648C139.828 103.744 140.196 103.844 140.676 103.948C141.436 104.108 141.972 104.34 142.284 104.644C142.604 104.94 142.764 105.32 142.764 105.784C142.764 106.128 142.664 106.44 142.464 106.72C142.264 107 141.968 107.22 141.576 107.38C141.192 107.54 140.732 107.62 140.196 107.62Z" fill="black"/>
<path d="M172.5 127H51.5V129H172.5V127Z" fill="#CBC9CD" mask="url(#path-9-inside-3_905_3420)"/>
<mask id="path-13-inside-4_905_3420" fill="white">
<path d="M51.5 128H172.5V177H51.5V128Z"/>
</mask>
<path d="M51.5 128H172.5V177H51.5V128Z" fill="white"/>
<rect x="71.5" y="140.5" width="48" height="24" rx="12" fill="#8BE8E5"/>
<path d="M83.8259 156.5C83.7459 156.5 83.6779 156.476 83.6219 156.428C83.5739 156.372 83.5499 156.304 83.5499 156.224V149.168H81.2459C81.1659 149.168 81.0979 149.144 81.0419 149.096C80.9939 149.04 80.9699 148.972 80.9699 148.892V148.388C80.9699 148.308 80.9939 148.24 81.0419 148.184C81.0979 148.128 81.1659 148.1 81.2459 148.1H87.0299C87.1179 148.1 87.1859 148.128 87.2339 148.184C87.2899 148.232 87.3179 148.3 87.3179 148.388V148.892C87.3179 148.972 87.2899 149.04 87.2339 149.096C87.1779 149.144 87.1099 149.168 87.0299 149.168H84.7379V156.224C84.7379 156.304 84.7099 156.372 84.6539 156.428C84.5979 156.476 84.5299 156.5 84.4499 156.5H83.8259ZM89.9147 156.62C89.0347 156.62 88.3507 156.372 87.8627 155.876C87.3827 155.38 87.1267 154.72 87.0947 153.896L87.0827 153.38L87.0947 152.864C87.1267 152.048 87.3867 151.392 87.8747 150.896C88.3627 150.392 89.0427 150.14 89.9147 150.14C90.7867 150.14 91.4667 150.392 91.9547 150.896C92.4427 151.392 92.7027 152.048 92.7347 152.864C92.7427 152.952 92.7467 153.124 92.7467 153.38C92.7467 153.636 92.7427 153.808 92.7347 153.896C92.7027 154.72 92.4427 155.38 91.9547 155.876C91.4747 156.372 90.7947 156.62 89.9147 156.62ZM89.9147 155.696C90.4187 155.696 90.8147 155.536 91.1027 155.216C91.3987 154.896 91.5587 154.436 91.5827 153.836C91.5907 153.756 91.5947 153.604 91.5947 153.38C91.5947 153.156 91.5907 153.004 91.5827 152.924C91.5587 152.324 91.3987 151.864 91.1027 151.544C90.8147 151.224 90.4187 151.064 89.9147 151.064C89.4107 151.064 89.0107 151.224 88.7147 151.544C88.4187 151.864 88.2627 152.324 88.2467 152.924L88.2347 153.38L88.2467 153.836C88.2627 154.436 88.4187 154.896 88.7147 155.216C89.0107 155.536 89.4107 155.696 89.9147 155.696ZM99.4707 156.62C98.6387 156.62 98.0107 156.348 97.5867 155.804C97.1627 155.26 96.9387 154.572 96.9147 153.74L96.9027 153.38L96.9147 153.02C96.9387 152.196 97.1627 151.512 97.5867 150.968C98.0107 150.416 98.6387 150.14 99.4707 150.14C100.295 150.14 100.943 150.432 101.415 151.016V148.256C101.415 148.176 101.439 148.112 101.487 148.064C101.543 148.008 101.611 147.98 101.691 147.98H102.267C102.347 147.98 102.411 148.008 102.459 148.064C102.515 148.112 102.543 148.176 102.543 148.256V156.224C102.543 156.304 102.515 156.372 102.459 156.428C102.411 156.476 102.347 156.5 102.267 156.5H101.727C101.647 156.5 101.579 156.476 101.523 156.428C101.475 156.372 101.451 156.304 101.451 156.224V155.72C100.987 156.32 100.327 156.62 99.4707 156.62ZM99.7227 155.648C100.275 155.648 100.687 155.468 100.959 155.108C101.239 154.74 101.391 154.304 101.415 153.8C101.423 153.712 101.427 153.56 101.427 153.344C101.427 153.12 101.423 152.964 101.415 152.876C101.399 152.404 101.247 151.992 100.959 151.64C100.671 151.288 100.259 151.112 99.7227 151.112C99.1547 151.112 98.7387 151.288 98.4747 151.64C98.2187 151.992 98.0787 152.456 98.0547 153.032L98.0427 153.38C98.0427 154.892 98.6027 155.648 99.7227 155.648ZM106.883 156.62C106.003 156.62 105.319 156.372 104.831 155.876C104.351 155.38 104.095 154.72 104.063 153.896L104.051 153.38L104.063 152.864C104.095 152.048 104.355 151.392 104.843 150.896C105.331 150.392 106.011 150.14 106.883 150.14C107.755 150.14 108.435 150.392 108.923 150.896C109.411 151.392 109.671 152.048 109.703 152.864C109.711 152.952 109.715 153.124 109.715 153.38C109.715 153.636 109.711 153.808 109.703 153.896C109.671 154.72 109.411 155.38 108.923 155.876C108.443 156.372 107.763 156.62 106.883 156.62ZM106.883 155.696C107.387 155.696 107.783 155.536 108.071 155.216C108.367 154.896 108.527 154.436 108.551 153.836C108.559 153.756 108.563 153.604 108.563 153.38C108.563 153.156 108.559 153.004 108.551 152.924C108.527 152.324 108.367 151.864 108.071 151.544C107.783 151.224 107.387 151.064 106.883 151.064C106.379 151.064 105.979 151.224 105.683 151.544C105.387 151.864 105.231 152.324 105.215 152.924L105.203 153.38L105.215 153.836C105.231 154.436 105.387 154.896 105.683 155.216C105.979 155.536 106.379 155.696 106.883 155.696Z" fill="black"/>
<path d="M172.5 176H51.5V178H172.5V176Z" fill="#CBC9CD" mask="url(#path-13-inside-4_905_3420)"/>
<mask id="path-17-inside-5_905_3420" fill="white">
<path d="M51.5 177H172.5V226H51.5V177Z"/>
</mask>
<path d="M51.5 177H172.5V226H51.5V177Z" fill="white"/>
<rect x="71.5" y="189.5" width="48" height="24" rx="12" fill="#A084E8"/>
<path d="M82.2419 205.5C82.1619 205.5 82.0939 205.476 82.0379 205.428C81.9899 205.372 81.9659 205.304 81.9659 205.224V197.388C81.9659 197.3 81.9899 197.232 82.0379 197.184C82.0939 197.128 82.1619 197.1 82.2419 197.1H84.9659C86.1739 197.1 87.0459 197.372 87.5819 197.916C88.1179 198.452 88.3979 199.264 88.4219 200.352C88.4299 200.584 88.4339 200.896 88.4339 201.288C88.4339 201.68 88.4299 201.996 88.4219 202.236C88.3979 202.996 88.2699 203.616 88.0379 204.096C87.8139 204.568 87.4579 204.92 86.9699 205.152C86.4819 205.384 85.8339 205.5 85.0259 205.5H82.2419ZM84.9659 204.48C85.5179 204.48 85.9539 204.404 86.2739 204.252C86.6019 204.1 86.8379 203.86 86.9819 203.532C87.1339 203.196 87.2179 202.748 87.2339 202.188C87.2499 201.708 87.2579 201.408 87.2579 201.288C87.2579 201.16 87.2499 200.864 87.2339 200.4C87.2179 199.608 87.0299 199.032 86.6699 198.672C86.3099 198.304 85.7219 198.12 84.9059 198.12H83.1419V204.48H84.9659ZM92.6393 205.62C91.7593 205.62 91.0753 205.372 90.5873 204.876C90.1073 204.38 89.8513 203.72 89.8193 202.896L89.8073 202.38L89.8193 201.864C89.8513 201.048 90.1113 200.392 90.5993 199.896C91.0873 199.392 91.7673 199.14 92.6393 199.14C93.5113 199.14 94.1913 199.392 94.6793 199.896C95.1673 200.392 95.4273 201.048 95.4593 201.864C95.4673 201.952 95.4713 202.124 95.4713 202.38C95.4713 202.636 95.4673 202.808 95.4593 202.896C95.4273 203.72 95.1673 204.38 94.6793 204.876C94.1993 205.372 93.5193 205.62 92.6393 205.62ZM92.6393 204.696C93.1433 204.696 93.5393 204.536 93.8273 204.216C94.1233 203.896 94.2833 203.436 94.3073 202.836C94.3153 202.756 94.3193 202.604 94.3193 202.38C94.3193 202.156 94.3153 202.004 94.3073 201.924C94.2833 201.324 94.1233 200.864 93.8273 200.544C93.5393 200.224 93.1433 200.064 92.6393 200.064C92.1353 200.064 91.7353 200.224 91.4393 200.544C91.1433 200.864 90.9873 201.324 90.9713 201.924L90.9593 202.38L90.9713 202.836C90.9873 203.436 91.1433 203.896 91.4393 204.216C91.7353 204.536 92.1353 204.696 92.6393 204.696ZM97.2499 205.5C97.1699 205.5 97.1019 205.476 97.0459 205.428C96.9979 205.372 96.9739 205.304 96.9739 205.224V199.536C96.9739 199.456 96.9979 199.392 97.0459 199.344C97.1019 199.288 97.1699 199.26 97.2499 199.26H97.8139C97.8939 199.26 97.9579 199.288 98.0059 199.344C98.0619 199.392 98.0899 199.456 98.0899 199.536V200.064C98.3219 199.768 98.5939 199.54 98.9059 199.38C99.2259 199.22 99.6219 199.14 100.094 199.14C100.862 199.14 101.458 199.388 101.882 199.884C102.314 200.372 102.53 201.024 102.53 201.84V205.224C102.53 205.304 102.502 205.372 102.446 205.428C102.398 205.476 102.334 205.5 102.254 205.5H101.654C101.574 205.5 101.506 205.476 101.45 205.428C101.402 205.372 101.378 205.304 101.378 205.224V201.9C101.378 201.332 101.238 200.892 100.958 200.58C100.686 200.268 100.29 200.112 99.7699 200.112C99.2659 200.112 98.8659 200.272 98.5699 200.592C98.2739 200.904 98.1259 201.34 98.1259 201.9V205.224C98.1259 205.304 98.0979 205.372 98.0419 205.428C97.9939 205.476 97.9299 205.5 97.8499 205.5H97.2499ZM106.747 205.62C105.923 205.62 105.263 205.368 104.767 204.864C104.279 204.352 104.011 203.656 103.963 202.776L103.951 202.368L103.963 201.972C104.019 201.108 104.291 200.42 104.779 199.908C105.275 199.396 105.927 199.14 106.735 199.14C107.623 199.14 108.311 199.424 108.799 199.992C109.287 200.552 109.531 201.312 109.531 202.272V202.476C109.531 202.556 109.503 202.624 109.447 202.68C109.399 202.728 109.335 202.752 109.255 202.752H105.103V202.86C105.127 203.38 105.283 203.824 105.571 204.192C105.867 204.552 106.255 204.732 106.735 204.732C107.103 204.732 107.403 204.66 107.635 204.516C107.875 204.364 108.051 204.208 108.163 204.048C108.235 203.952 108.287 203.896 108.319 203.88C108.359 203.856 108.427 203.844 108.523 203.844H109.111C109.183 203.844 109.243 203.864 109.291 203.904C109.339 203.944 109.363 204 109.363 204.072C109.363 204.248 109.251 204.46 109.027 204.708C108.811 204.956 108.503 205.172 108.103 205.356C107.711 205.532 107.259 205.62 106.747 205.62ZM108.391 201.924V201.888C108.391 201.336 108.239 200.888 107.935 200.544C107.639 200.192 107.239 200.016 106.735 200.016C106.231 200.016 105.831 200.192 105.535 200.544C105.247 200.888 105.103 201.336 105.103 201.888V201.924H108.391Z" fill="white"/>
<path d="M172.5 225H51.5V227H172.5V225Z" fill="#CBC9CD" mask="url(#path-17-inside-5_905_3420)"/>
<mask id="path-21-inside-6_905_3420" fill="white">
<path d="M172.5 30H260.5V79H172.5V30Z"/>
</mask>
<path d="M172.5 30H260.5V79H172.5V30Z" fill="white"/>
<rect x="192.5" y="46" width="48" height="17" rx="5" fill="#F2F2F6"/>
<path d="M260.5 78H172.5V80H260.5V78Z" fill="#CBC9CD" mask="url(#path-21-inside-6_905_3420)"/>
<mask id="path-24-inside-7_905_3420" fill="white">
<path d="M172.5 79H260.5V128H172.5V79Z"/>
</mask>
<path d="M172.5 79H260.5V128H172.5V79Z" fill="white"/>
<rect x="192.5" y="95" width="48" height="17" rx="5" fill="#F2F2F6"/>
<path d="M260.5 127H172.5V129H260.5V127Z" fill="#CBC9CD" mask="url(#path-24-inside-7_905_3420)"/>
<mask id="path-27-inside-8_905_3420" fill="white">
<path d="M172.5 128H260.5V177H172.5V128Z"/>
</mask>
<path d="M172.5 128H260.5V177H172.5V128Z" fill="white"/>
<rect x="192.5" y="144" width="48" height="17" rx="5" fill="#F2F2F6"/>
<path d="M260.5 176H172.5V178H260.5V176Z" fill="#CBC9CD" mask="url(#path-27-inside-8_905_3420)"/>
<mask id="path-30-inside-9_905_3420" fill="white">
<path d="M172.5 177H260.5V226H172.5V177Z"/>
</mask>
<path d="M172.5 177H260.5V226H172.5V177Z" fill="white"/>
<rect x="192.5" y="193" width="48" height="17" rx="5" fill="#F2F2F6"/>
<path d="M260.5 225H172.5V227H260.5V225Z" fill="#CBC9CD" mask="url(#path-30-inside-9_905_3420)"/>
<mask id="path-33-inside-10_905_3420" fill="white">
<path d="M260.5 30H348.5V79H260.5V30Z"/>
</mask>
<path d="M260.5 30H348.5V79H260.5V30Z" fill="white"/>
<rect x="280.5" y="46" width="48" height="17" rx="5" fill="#F2F2F6"/>
<path d="M348.5 78H260.5V80H348.5V78Z" fill="#CBC9CD" mask="url(#path-33-inside-10_905_3420)"/>
<mask id="path-36-inside-11_905_3420" fill="white">
<path d="M260.5 79H348.5V128H260.5V79Z"/>
</mask>
<path d="M260.5 79H348.5V128H260.5V79Z" fill="white"/>
<rect x="280.5" y="95" width="48" height="17" rx="5" fill="#F2F2F6"/>
<path d="M348.5 127H260.5V129H348.5V127Z" fill="#CBC9CD" mask="url(#path-36-inside-11_905_3420)"/>
<mask id="path-39-inside-12_905_3420" fill="white">
<path d="M260.5 128H348.5V177H260.5V128Z"/>
</mask>
<path d="M260.5 128H348.5V177H260.5V128Z" fill="white"/>
<rect x="280.5" y="144" width="48" height="17" rx="5" fill="#F2F2F6"/>
<path d="M348.5 176H260.5V178H348.5V176Z" fill="#CBC9CD" mask="url(#path-39-inside-12_905_3420)"/>
<mask id="path-42-inside-13_905_3420" fill="white">
<path d="M260.5 177H348.5V226H260.5V177Z"/>
</mask>
<path d="M260.5 177H348.5V226H260.5V177Z" fill="white"/>
<rect x="280.5" y="193" width="48" height="17" rx="5" fill="#F2F2F6"/>
<path d="M348.5 225H260.5V227H348.5V225Z" fill="#CBC9CD" mask="url(#path-42-inside-13_905_3420)"/>
</g>
<path d="M1 256V0H-1V256H1Z" fill="#EAEAEF" mask="url(#path-1-inside-1_905_3420)"/>
<defs>
<filter id="filter0_d_905_3420" x="31.5" y="20" width="337" height="236" filterUnits="userSpaceOnUse" color-interpolation-filters="sRGB">
<feFlood flood-opacity="0" result="BackgroundImageFix"/>
<feColorMatrix in="SourceAlpha" type="matrix" values="0 0 0 0 0 0 0 0 0 0 0 0 0 0 0 0 0 0 127 0" result="hardAlpha"/>
<feOffset dy="10"/>
<feGaussianBlur stdDeviation="10"/>
<feComposite in2="hardAlpha" operator="out"/>
<feColorMatrix type="matrix" values="0 0 0 0 0.117647 0 0 0 0 0.117647 0 0 0 0 0.117647 0 0 0 0.12 0"/>
<feBlend mode="normal" in2="BackgroundImageFix" result="effect1_dropShadow_905_3420"/>
<feBlend mode="normal" in="SourceGraphic" in2="effect1_dropShadow_905_3420" result="shape"/>
</filter>
</defs>
</svg>
