<svg width="400" height="256" viewBox="0 0 400 256" fill="none" xmlns="http://www.w3.org/2000/svg">
<mask id="path-1-inside-1_905_1919" fill="white">
<path d="M0 0H400V256H0V0Z"/>
</mask>
<path d="M0 0H400V256H0V0Z" fill="#F5F7F9"/>
<path d="M0.5 0.5H62.5V17C62.5 18.933 60.933 20.5 59 20.5H0.5V0.5Z" fill="#F5F7F9"/>
<path d="M13.122 14C13.0487 14 12.9863 13.9743 12.935 13.923C12.8837 13.8717 12.858 13.8093 12.858 13.736V6.575C12.858 6.49433 12.88 6.42833 12.924 6.377C12.9753 6.32567 13.0413 6.3 13.122 6.3H15.806C17.962 6.3 19.062 7.29733 19.106 9.292C19.1207 9.71733 19.128 10.0033 19.128 10.15C19.128 10.2893 19.1207 10.5717 19.106 10.997C19.0767 12.0237 18.8017 12.7827 18.281 13.274C17.7603 13.758 16.9537 14 15.861 14H13.122ZM15.806 12.735C16.422 12.735 16.8657 12.5993 17.137 12.328C17.4083 12.0493 17.5513 11.5947 17.566 10.964C17.5807 10.524 17.588 10.249 17.588 10.139C17.588 10.0217 17.5807 9.75033 17.566 9.325C17.5513 8.72367 17.3973 8.28 17.104 7.994C16.818 7.708 16.367 7.565 15.751 7.565H14.387V12.735H15.806ZM20.6804 7.334C20.607 7.334 20.5447 7.30833 20.4934 7.257C20.442 7.20567 20.4164 7.14333 20.4164 7.07V6.278C20.4164 6.20467 20.442 6.14233 20.4934 6.091C20.5447 6.03967 20.607 6.014 20.6804 6.014H21.6814C21.7547 6.014 21.817 6.03967 21.8684 6.091C21.927 6.14233 21.9564 6.20467 21.9564 6.278V7.07C21.9564 7.14333 21.9307 7.20567 21.8794 7.257C21.828 7.30833 21.762 7.334 21.6814 7.334H20.6804ZM20.7244 14C20.651 14 20.5887 13.9743 20.5374 13.923C20.486 13.8717 20.4604 13.8093 20.4604 13.736V8.544C20.4604 8.47067 20.486 8.40833 20.5374 8.357C20.5887 8.30567 20.651 8.28 20.7244 8.28H21.6374C21.718 8.28 21.7804 8.30567 21.8244 8.357C21.8757 8.401 21.9014 8.46333 21.9014 8.544V13.736C21.9014 13.8093 21.8757 13.8717 21.8244 13.923C21.7804 13.9743 21.718 14 21.6374 14H20.7244ZM25.5278 14.11C24.9778 14.11 24.5158 14.0293 24.1418 13.868C23.7678 13.6993 23.4891 13.505 23.3058 13.285C23.1298 13.0577 23.0418 12.8633 23.0418 12.702C23.0418 12.6287 23.0674 12.57 23.1188 12.526C23.1701 12.482 23.2288 12.46 23.2948 12.46H24.1638C24.2298 12.46 24.2848 12.4857 24.3288 12.537C24.3581 12.559 24.4351 12.625 24.5598 12.735C24.6844 12.8523 24.8311 12.944 24.9998 13.01C25.1684 13.076 25.3554 13.109 25.5608 13.109C25.8541 13.109 26.0961 13.0503 26.2868 12.933C26.4774 12.8157 26.5728 12.6543 26.5728 12.449C26.5728 12.295 26.5288 12.1703 26.4408 12.075C26.3601 11.9797 26.2098 11.8953 25.9898 11.822C25.7698 11.7413 25.4434 11.657 25.0108 11.569C24.3874 11.437 23.9254 11.2353 23.6248 10.964C23.3314 10.6927 23.1848 10.3333 23.1848 9.886C23.1848 9.59267 23.2728 9.31767 23.4488 9.061C23.6248 8.797 23.8851 8.58433 24.2298 8.423C24.5818 8.25433 24.9998 8.17 25.4838 8.17C25.9751 8.17 26.4004 8.25067 26.7598 8.412C27.1191 8.566 27.3904 8.753 27.5738 8.973C27.7644 9.18567 27.8598 9.37633 27.8598 9.545C27.8598 9.611 27.8341 9.66967 27.7828 9.721C27.7388 9.765 27.6838 9.787 27.6178 9.787H26.8038C26.7451 9.787 26.6828 9.76133 26.6168 9.71C26.5654 9.67333 26.4848 9.60367 26.3748 9.501C26.2648 9.39833 26.1364 9.31767 25.9898 9.259C25.8431 9.20033 25.6708 9.171 25.4728 9.171C25.2014 9.171 24.9888 9.22967 24.8348 9.347C24.6881 9.46433 24.6148 9.61833 24.6148 9.809C24.6148 9.94833 24.6514 10.062 24.7248 10.15C24.7981 10.238 24.9411 10.3223 25.1538 10.403C25.3664 10.4837 25.6854 10.5643 26.1108 10.645C26.8148 10.7843 27.3171 11.0007 27.6178 11.294C27.9258 11.5873 28.0798 11.9467 28.0798 12.372C28.0798 12.8853 27.8561 13.3033 27.4088 13.626C26.9614 13.9487 26.3344 14.11 25.5278 14.11ZM29.4903 16.09C29.4169 16.09 29.3546 16.0643 29.3033 16.013C29.2519 15.969 29.2263 15.9067 29.2263 15.826V8.544C29.2263 8.46333 29.2519 8.401 29.3033 8.357C29.3546 8.30567 29.4169 8.28 29.4903 8.28H30.3593C30.4399 8.28 30.5023 8.30567 30.5463 8.357C30.5976 8.401 30.6233 8.46333 30.6233 8.544V8.984C31.0339 8.44133 31.6206 8.17 32.3833 8.17C33.1239 8.17 33.6923 8.40467 34.0883 8.874C34.4843 9.336 34.6969 9.963 34.7263 10.755C34.7336 10.843 34.7373 10.9713 34.7373 11.14C34.7373 11.316 34.7336 11.448 34.7263 11.536C34.6969 12.306 34.4843 12.9293 34.0883 13.406C33.6923 13.8753 33.1239 14.11 32.3833 14.11C31.6426 14.11 31.0779 13.8497 30.6893 13.329V15.826C30.6893 15.9067 30.6636 15.969 30.6123 16.013C30.5683 16.0643 30.5059 16.09 30.4253 16.09H29.4903ZM31.9763 12.933C32.7683 12.933 33.1899 12.4453 33.2413 11.47C33.2486 11.3967 33.2523 11.2867 33.2523 11.14C33.2523 10.9933 33.2486 10.8833 33.2413 10.81C33.1899 9.83467 32.7683 9.347 31.9763 9.347C31.5509 9.347 31.2356 9.48267 31.0303 9.754C30.8249 10.0253 30.7113 10.359 30.6893 10.755L30.6783 11.173L30.6893 11.602C30.7039 11.9687 30.8176 12.284 31.0303 12.548C31.2503 12.8047 31.5656 12.933 31.9763 12.933ZM36.2471 14C36.1738 14 36.1114 13.9743 36.0601 13.923C36.0088 13.8717 35.9831 13.8093 35.9831 13.736V6.454C35.9831 6.37333 36.0088 6.311 36.0601 6.267C36.1114 6.21567 36.1738 6.19 36.2471 6.19H37.1601C37.2408 6.19 37.3031 6.21567 37.3471 6.267C37.3984 6.311 37.4241 6.37333 37.4241 6.454V13.736C37.4241 13.8093 37.3984 13.8717 37.3471 13.923C37.3031 13.9743 37.2408 14 37.1601 14H36.2471ZM40.5442 14.11C40.1702 14.11 39.8256 14.0367 39.5102 13.89C39.2022 13.736 38.9566 13.5307 38.7732 13.274C38.5972 13.0173 38.5092 12.735 38.5092 12.427C38.5092 11.9283 38.7109 11.525 39.1142 11.217C39.5176 10.909 40.0712 10.7 40.7752 10.59L42.2822 10.37V10.139C42.2822 9.81633 42.2016 9.57433 42.0402 9.413C41.8789 9.25167 41.6186 9.171 41.2592 9.171C41.0172 9.171 40.8192 9.21867 40.6652 9.314C40.5186 9.402 40.4012 9.49 40.3132 9.578C40.2252 9.67333 40.1666 9.73567 40.1372 9.765C40.1079 9.853 40.0529 9.897 39.9722 9.897H39.1252C39.0592 9.897 39.0006 9.875 38.9492 9.831C38.9052 9.787 38.8832 9.72833 38.8832 9.655C38.8906 9.47167 38.9786 9.26267 39.1472 9.028C39.3232 8.79333 39.5909 8.59167 39.9502 8.423C40.3096 8.25433 40.7496 8.17 41.2702 8.17C42.1356 8.17 42.7662 8.36433 43.1622 8.753C43.5582 9.14167 43.7562 9.65133 43.7562 10.282V13.736C43.7562 13.8093 43.7306 13.8717 43.6792 13.923C43.6352 13.9743 43.5729 14 43.4922 14H42.6012C42.5279 14 42.4656 13.9743 42.4142 13.923C42.3629 13.8717 42.3372 13.8093 42.3372 13.736V13.307C42.1759 13.5417 41.9449 13.736 41.6442 13.89C41.3509 14.0367 40.9842 14.11 40.5442 14.11ZM40.9182 13.065C41.3216 13.065 41.6516 12.933 41.9082 12.669C42.1649 12.405 42.2932 12.02 42.2932 11.514V11.283L41.1932 11.459C40.7679 11.525 40.4452 11.6313 40.2252 11.778C40.0126 11.9247 39.9062 12.1043 39.9062 12.317C39.9062 12.5517 40.0052 12.735 40.2032 12.867C40.4012 12.999 40.6396 13.065 40.9182 13.065ZM46.051 16.09C45.9923 16.09 45.941 16.068 45.897 16.024C45.853 15.98 45.831 15.9287 45.831 15.87C45.831 15.804 45.8457 15.7453 45.875 15.694L46.733 13.659L44.621 8.676C44.5917 8.61 44.577 8.55867 44.577 8.522C44.5843 8.456 44.61 8.401 44.654 8.357C44.698 8.30567 44.753 8.28 44.819 8.28H45.71C45.8493 8.28 45.9483 8.34967 46.007 8.489L47.47 12.086L48.977 8.489C49.0357 8.34967 49.1347 8.28 49.274 8.28H50.154C50.2127 8.28 50.264 8.302 50.308 8.346C50.3593 8.39 50.385 8.44133 50.385 8.5C50.385 8.55133 50.3703 8.61 50.341 8.676L47.228 15.881C47.162 16.0203 47.0593 16.09 46.92 16.09H46.051Z" fill="#535356"/>
<path d="M0.5 0.5H62.5V17C62.5 18.933 60.933 20.5 59 20.5H0.5V0.5Z" stroke="#EAEAEF"/>
<g filter="url(#filter0_d_905_1919)">
<mask id="path-6-inside-2_905_1919" fill="white">
<path d="M66.5 30H154.5V79H66.5V30Z"/>
</mask>
<path d="M66.5 30H154.5V79H66.5V30Z" fill="white"/>
<rect x="86.5" y="46" width="48" height="17" rx="5" fill="#F2F2F6"/>
<path d="M154.5 78H66.5V80H154.5V78Z" fill="#CBC9CD" mask="url(#path-6-inside-2_905_1919)"/>
<mask id="path-9-inside-3_905_1919" fill="white">
<path d="M66.5 79H154.5V128H66.5V79Z"/>
</mask>
<path d="M66.5 79H154.5V128H66.5V79Z" fill="white"/>
<rect x="86.5" y="95" width="48" height="17" rx="5" fill="#F2F2F6"/>
<path d="M154.5 127H66.5V129H154.5V127Z" fill="#CBC9CD" mask="url(#path-9-inside-3_905_1919)"/>
<mask id="path-12-inside-4_905_1919" fill="white">
<path d="M66.5 128H154.5V177H66.5V128Z"/>
</mask>
<path d="M66.5 128H154.5V177H66.5V128Z" fill="white"/>
<rect x="86.5" y="144" width="48" height="17" rx="5" fill="#F2F2F6"/>
<path d="M154.5 176H66.5V178H154.5V176Z" fill="#CBC9CD" mask="url(#path-12-inside-4_905_1919)"/>
<mask id="path-15-inside-5_905_1919" fill="white">
<path d="M66.5 177H154.5V226H66.5V177Z"/>
</mask>
<path d="M66.5 177H154.5V226H66.5V177Z" fill="white"/>
<rect x="86.5" y="193" width="48" height="17" rx="5" fill="#F2F2F6"/>
<path d="M154.5 225H66.5V227H154.5V225Z" fill="#CBC9CD" mask="url(#path-15-inside-5_905_1919)"/>
<mask id="path-18-inside-6_905_1919" fill="white">
<path d="M154.5 30H333.5V79H154.5V30Z"/>
</mask>
<path d="M154.5 30H333.5V79H154.5V30Z" fill="white"/>
<path d="M175.787 59C175.692 59 175.614 58.9697 175.553 58.909C175.492 58.8483 175.462 58.7703 175.462 58.675V50.225C175.462 50.1297 175.492 50.0517 175.553 49.991C175.614 49.9303 175.692 49.9 175.787 49.9H177.256C177.351 49.9 177.429 49.9303 177.49 49.991C177.551 50.0517 177.581 50.1297 177.581 50.225V58.675C177.581 58.7703 177.551 58.8483 177.49 58.909C177.429 58.9697 177.351 59 177.256 59H175.787ZM182.775 59.13C181.943 59.13 181.245 59.0087 180.682 58.766C180.127 58.5233 179.707 58.207 179.421 57.817C179.135 57.427 178.983 57.011 178.966 56.569C178.966 56.4997 178.992 56.439 179.044 56.387C179.096 56.3263 179.161 56.296 179.239 56.296H180.63C180.743 56.296 180.829 56.322 180.89 56.374C180.951 56.4173 181.007 56.4737 181.059 56.543C181.12 56.6903 181.215 56.8333 181.345 56.972C181.484 57.1107 181.67 57.2277 181.904 57.323C182.138 57.4097 182.428 57.453 182.775 57.453C183.338 57.453 183.759 57.362 184.036 57.18C184.322 56.998 184.465 56.751 184.465 56.439C184.465 56.2137 184.387 56.0317 184.231 55.893C184.084 55.7543 183.845 55.6287 183.516 55.516C183.195 55.4033 182.766 55.282 182.229 55.152C181.579 55.0133 181.024 54.8357 180.565 54.619C180.114 54.3937 179.772 54.1077 179.538 53.761C179.313 53.4057 179.2 52.968 179.2 52.448C179.2 51.928 179.343 51.4687 179.629 51.07C179.915 50.6627 180.318 50.3463 180.838 50.121C181.358 49.887 181.978 49.77 182.697 49.77C183.278 49.77 183.789 49.848 184.231 50.004C184.682 50.16 185.054 50.3637 185.349 50.615C185.652 50.8663 185.882 51.135 186.038 51.421C186.194 51.707 186.276 51.9843 186.285 52.253C186.285 52.3223 186.259 52.3873 186.207 52.448C186.155 52.5 186.09 52.526 186.012 52.526H184.556C184.469 52.526 184.391 52.5087 184.322 52.474C184.253 52.4393 184.196 52.3787 184.153 52.292C184.101 52.0667 183.945 51.8717 183.685 51.707C183.434 51.5337 183.104 51.447 182.697 51.447C182.272 51.447 181.934 51.525 181.683 51.681C181.44 51.837 181.319 52.0753 181.319 52.396C181.319 52.604 181.38 52.7817 181.501 52.929C181.631 53.0677 181.843 53.1933 182.138 53.306C182.441 53.41 182.84 53.527 183.334 53.657C184.097 53.813 184.716 53.9993 185.193 54.216C185.67 54.4327 186.021 54.7143 186.246 55.061C186.471 55.399 186.584 55.828 186.584 56.348C186.584 56.9287 186.419 57.427 186.09 57.843C185.769 58.259 185.323 58.5797 184.751 58.805C184.188 59.0217 183.529 59.13 182.775 59.13ZM192.871 59C192.776 59 192.698 58.9697 192.637 58.909C192.576 58.8483 192.546 58.7703 192.546 58.675V51.707H190.18C190.093 51.707 190.02 51.6767 189.959 51.616C189.898 51.5553 189.868 51.4817 189.868 51.395V50.225C189.868 50.1297 189.898 50.0517 189.959 49.991C190.02 49.9303 190.093 49.9 190.18 49.9H196.992C197.087 49.9 197.165 49.9303 197.226 49.991C197.287 50.0517 197.317 50.1297 197.317 50.225V51.395C197.317 51.4817 197.287 51.5553 197.226 51.616C197.165 51.6767 197.087 51.707 196.992 51.707H194.639V58.675C194.639 58.7703 194.609 58.8483 194.548 58.909C194.487 58.9697 194.409 59 194.314 59H192.871ZM198.892 59C198.797 59 198.719 58.9697 198.658 58.909C198.598 58.8483 198.567 58.7703 198.567 58.675V50.225C198.567 50.1297 198.598 50.0517 198.658 49.991C198.719 49.9303 198.797 49.9 198.892 49.9H200.309C200.405 49.9 200.483 49.9303 200.543 49.991C200.604 50.0517 200.634 50.1297 200.634 50.225V53.475H204.157V50.225C204.157 50.1297 204.188 50.0517 204.248 49.991C204.309 49.9303 204.387 49.9 204.482 49.9H205.899C205.995 49.9 206.073 49.9303 206.133 49.991C206.194 50.0517 206.224 50.1297 206.224 50.225V58.675C206.224 58.7703 206.194 58.8483 206.133 58.909C206.073 58.9697 205.995 59 205.899 59H204.482C204.387 59 204.309 58.9697 204.248 58.909C204.188 58.8483 204.157 58.7703 204.157 58.675V55.321H200.634V58.675C200.634 58.7703 200.604 58.8483 200.543 58.909C200.483 58.9697 200.405 59 200.309 59H198.892ZM208.477 59C208.382 59 208.304 58.9697 208.243 58.909C208.183 58.8483 208.152 58.7703 208.152 58.675V50.225C208.152 50.1297 208.183 50.0517 208.243 49.991C208.304 49.9303 208.382 49.9 208.477 49.9H214.366C214.462 49.9 214.54 49.9303 214.6 49.991C214.661 50.0517 214.691 50.1297 214.691 50.225V51.265C214.691 51.3517 214.661 51.4253 214.6 51.486C214.54 51.5467 214.462 51.577 214.366 51.577H210.154V53.618H214.08C214.176 53.618 214.254 53.6483 214.314 53.709C214.375 53.7697 214.405 53.8477 214.405 53.943V54.905C214.405 54.9917 214.375 55.0653 214.314 55.126C214.254 55.1867 214.176 55.217 214.08 55.217H210.154V57.323H214.47C214.566 57.323 214.644 57.3533 214.704 57.414C214.765 57.4747 214.795 57.5527 214.795 57.648V58.675C214.795 58.7703 214.765 58.8483 214.704 58.909C214.644 58.9697 214.566 59 214.47 59H208.477ZM222.928 59.13C222.165 59.13 221.498 59.0043 220.926 58.753C220.354 58.493 219.912 58.0987 219.6 57.57C219.288 57.0327 219.132 56.3523 219.132 55.529V50.225C219.132 50.1297 219.162 50.0517 219.223 49.991C219.284 49.9303 219.362 49.9 219.457 49.9H220.874C220.969 49.9 221.047 49.9303 221.108 49.991C221.169 50.0517 221.199 50.1297 221.199 50.225V55.516C221.199 56.1573 221.351 56.634 221.654 56.946C221.957 57.258 222.382 57.414 222.928 57.414C223.465 57.414 223.886 57.258 224.189 56.946C224.492 56.634 224.644 56.1573 224.644 55.516V50.225C224.644 50.1297 224.674 50.0517 224.735 49.991C224.804 49.9303 224.882 49.9 224.969 49.9H226.399C226.486 49.9 226.559 49.9303 226.62 49.991C226.681 50.0517 226.711 50.1297 226.711 50.225V55.529C226.711 56.3523 226.555 57.0327 226.243 57.57C225.931 58.0987 225.493 58.493 224.93 58.753C224.367 59.0043 223.699 59.13 222.928 59.13ZM231.83 59.13C230.998 59.13 230.3 59.0087 229.737 58.766C229.182 58.5233 228.762 58.207 228.476 57.817C228.19 57.427 228.038 57.011 228.021 56.569C228.021 56.4997 228.047 56.439 228.099 56.387C228.151 56.3263 228.216 56.296 228.294 56.296H229.685C229.797 56.296 229.884 56.322 229.945 56.374C230.005 56.4173 230.062 56.4737 230.114 56.543C230.174 56.6903 230.27 56.8333 230.4 56.972C230.538 57.1107 230.725 57.2277 230.959 57.323C231.193 57.4097 231.483 57.453 231.83 57.453C232.393 57.453 232.813 57.362 233.091 57.18C233.377 56.998 233.52 56.751 233.52 56.439C233.52 56.2137 233.442 56.0317 233.286 55.893C233.138 55.7543 232.9 55.6287 232.571 55.516C232.25 55.4033 231.821 55.282 231.284 55.152C230.634 55.0133 230.079 54.8357 229.62 54.619C229.169 54.3937 228.827 54.1077 228.593 53.761C228.367 53.4057 228.255 52.968 228.255 52.448C228.255 51.928 228.398 51.4687 228.684 51.07C228.97 50.6627 229.373 50.3463 229.893 50.121C230.413 49.887 231.032 49.77 231.752 49.77C232.332 49.77 232.844 49.848 233.286 50.004C233.736 50.16 234.109 50.3637 234.404 50.615C234.707 50.8663 234.937 51.135 235.093 51.421C235.249 51.707 235.331 51.9843 235.34 52.253C235.34 52.3223 235.314 52.3873 235.262 52.448C235.21 52.5 235.145 52.526 235.067 52.526H233.611C233.524 52.526 233.446 52.5087 233.377 52.474C233.307 52.4393 233.251 52.3787 233.208 52.292C233.156 52.0667 233 51.8717 232.74 51.707C232.488 51.5337 232.159 51.447 231.752 51.447C231.327 51.447 230.989 51.525 230.738 51.681C230.495 51.837 230.374 52.0753 230.374 52.396C230.374 52.604 230.434 52.7817 230.556 52.929C230.686 53.0677 230.898 53.1933 231.193 53.306C231.496 53.41 231.895 53.527 232.389 53.657C233.151 53.813 233.771 53.9993 234.248 54.216C234.724 54.4327 235.075 54.7143 235.301 55.061C235.526 55.399 235.639 55.828 235.639 56.348C235.639 56.9287 235.474 57.427 235.145 57.843C234.824 58.259 234.378 58.5797 233.806 58.805C233.242 59.0217 232.584 59.13 231.83 59.13ZM237.359 59C237.264 59 237.186 58.9697 237.125 58.909C237.065 58.8483 237.034 58.7703 237.034 58.675V50.225C237.034 50.1297 237.065 50.0517 237.125 49.991C237.186 49.9303 237.264 49.9 237.359 49.9H243.248C243.344 49.9 243.422 49.9303 243.482 49.991C243.543 50.0517 243.573 50.1297 243.573 50.225V51.265C243.573 51.3517 243.543 51.4253 243.482 51.486C243.422 51.5467 243.344 51.577 243.248 51.577H239.036V53.618H242.962C243.058 53.618 243.136 53.6483 243.196 53.709C243.257 53.7697 243.287 53.8477 243.287 53.943V54.905C243.287 54.9917 243.257 55.0653 243.196 55.126C243.136 55.1867 243.058 55.217 242.962 55.217H239.036V57.323H243.352C243.448 57.323 243.526 57.3533 243.586 57.414C243.647 57.4747 243.677 57.5527 243.677 57.648V58.675C243.677 58.7703 243.647 58.8483 243.586 58.909C243.526 58.9697 243.448 59 243.352 59H237.359ZM245.548 59C245.452 59 245.374 58.9697 245.314 58.909C245.253 58.8483 245.223 58.7703 245.223 58.675V50.225C245.223 50.1297 245.253 50.0517 245.314 49.991C245.374 49.9303 245.452 49.9 245.548 49.9H248.993C250.076 49.9 250.93 50.1513 251.554 50.654C252.178 51.148 252.49 51.863 252.49 52.799C252.49 53.4317 252.338 53.9603 252.035 54.385C251.731 54.8097 251.324 55.126 250.813 55.334L252.646 58.584C252.672 58.636 252.685 58.6837 252.685 58.727C252.685 58.7963 252.659 58.8613 252.607 58.922C252.555 58.974 252.49 59 252.412 59H250.969C250.813 59 250.696 58.961 250.618 58.883C250.54 58.7963 250.483 58.7183 250.449 58.649L248.863 55.672H247.29V58.675C247.29 58.7703 247.259 58.8483 247.199 58.909C247.138 58.9697 247.06 59 246.965 59H245.548ZM247.29 54.021H248.954C249.43 54.021 249.781 53.9127 250.007 53.696C250.241 53.4793 250.358 53.176 250.358 52.786C250.358 52.396 250.245 52.0883 250.02 51.863C249.794 51.6377 249.439 51.525 248.954 51.525H247.29V54.021ZM256.09 59C256.012 59 255.947 58.974 255.895 58.922C255.843 58.8613 255.817 58.7963 255.817 58.727C255.817 58.6837 255.821 58.6447 255.83 58.61L258.924 50.251C258.95 50.1557 259.002 50.0733 259.08 50.004C259.158 49.9347 259.266 49.9 259.405 49.9H261.069C261.208 49.9 261.316 49.9347 261.394 50.004C261.472 50.0733 261.524 50.1557 261.55 50.251L264.644 58.61C264.653 58.6447 264.657 58.6837 264.657 58.727C264.657 58.7963 264.631 58.8613 264.579 58.922C264.527 58.974 264.462 59 264.384 59H263.032C262.902 59 262.807 58.9697 262.746 58.909C262.685 58.8483 262.646 58.792 262.629 58.74L262.07 57.284H258.404L257.845 58.74C257.828 58.792 257.789 58.8483 257.728 58.909C257.667 58.9697 257.572 59 257.442 59H256.09ZM258.885 55.607H261.576L260.237 51.863L258.885 55.607ZM269.2 59.13C268.385 59.13 267.692 58.9957 267.12 58.727C266.557 58.4497 266.119 58.051 265.807 57.531C265.495 57.0023 265.322 56.361 265.287 55.607C265.278 55.2517 265.274 54.8703 265.274 54.463C265.274 54.0557 265.278 53.6657 265.287 53.293C265.322 52.5477 265.495 51.915 265.807 51.395C266.128 50.8663 266.574 50.4633 267.146 50.186C267.718 49.9087 268.403 49.77 269.2 49.77C269.781 49.77 270.309 49.8437 270.786 49.991C271.263 50.1383 271.674 50.3507 272.021 50.628C272.368 50.9053 272.636 51.2303 272.827 51.603C273.018 51.9757 273.122 52.3917 273.139 52.851C273.139 52.929 273.109 52.994 273.048 53.046C272.996 53.098 272.931 53.124 272.853 53.124H271.371C271.267 53.124 271.185 53.098 271.124 53.046C271.063 52.994 271.016 52.9073 270.981 52.786C270.851 52.2747 270.634 51.9237 270.331 51.733C270.028 51.5423 269.651 51.447 269.2 51.447C268.663 51.447 268.238 51.5943 267.926 51.889C267.614 52.1837 267.445 52.6733 267.419 53.358C267.393 54.0687 267.393 54.7967 267.419 55.542C267.445 56.2267 267.614 56.7163 267.926 57.011C268.238 57.3057 268.663 57.453 269.2 57.453C269.651 57.453 270.028 57.3577 270.331 57.167C270.643 56.9677 270.86 56.6167 270.981 56.114C271.016 55.984 271.063 55.8973 271.124 55.854C271.185 55.802 271.267 55.776 271.371 55.776H272.853C272.931 55.776 272.996 55.802 273.048 55.854C273.109 55.906 273.139 55.971 273.139 56.049C273.122 56.5083 273.018 56.9243 272.827 57.297C272.636 57.6697 272.368 57.9947 272.021 58.272C271.674 58.5493 271.263 58.7617 270.786 58.909C270.309 59.0563 269.781 59.13 269.2 59.13ZM276.927 59C276.831 59 276.753 58.9697 276.693 58.909C276.632 58.8483 276.602 58.7703 276.602 58.675V51.707H274.236C274.149 51.707 274.075 51.6767 274.015 51.616C273.954 51.5553 273.924 51.4817 273.924 51.395V50.225C273.924 50.1297 273.954 50.0517 274.015 49.991C274.075 49.9303 274.149 49.9 274.236 49.9H281.048C281.143 49.9 281.221 49.9303 281.282 49.991C281.342 50.0517 281.373 50.1297 281.373 50.225V51.395C281.373 51.4817 281.342 51.5553 281.282 51.616C281.221 51.6767 281.143 51.707 281.048 51.707H278.695V58.675C278.695 58.7703 278.664 58.8483 278.604 58.909C278.543 58.9697 278.465 59 278.37 59H276.927ZM282.948 59C282.853 59 282.775 58.9697 282.714 58.909C282.653 58.8483 282.623 58.7703 282.623 58.675V50.225C282.623 50.1297 282.653 50.0517 282.714 49.991C282.775 49.9303 282.853 49.9 282.948 49.9H284.417C284.512 49.9 284.59 49.9303 284.651 49.991C284.712 50.0517 284.742 50.1297 284.742 50.225V58.675C284.742 58.7703 284.712 58.8483 284.651 58.909C284.59 58.9697 284.512 59 284.417 59H282.948ZM289.286 59C289.148 59 289.035 58.9653 288.948 58.896C288.87 58.818 288.814 58.727 288.779 58.623L286.049 50.29C286.041 50.2467 286.036 50.2077 286.036 50.173C286.036 50.1037 286.062 50.043 286.114 49.991C286.166 49.9303 286.231 49.9 286.309 49.9H287.674C287.804 49.9 287.904 49.939 287.973 50.017C288.051 50.0863 288.099 50.1513 288.116 50.212L290.144 56.569L292.159 50.212C292.185 50.1513 292.233 50.0863 292.302 50.017C292.372 49.939 292.471 49.9 292.601 49.9H293.966C294.044 49.9 294.109 49.9303 294.161 49.991C294.213 50.043 294.239 50.1037 294.239 50.173C294.239 50.2077 294.235 50.2467 294.226 50.29L291.496 58.623C291.47 58.727 291.414 58.818 291.327 58.896C291.249 58.9653 291.137 59 290.989 59H289.286ZM295.859 59C295.764 59 295.686 58.9697 295.625 58.909C295.565 58.8483 295.534 58.7703 295.534 58.675V50.225C295.534 50.1297 295.565 50.0517 295.625 49.991C295.686 49.9303 295.764 49.9 295.859 49.9H301.748C301.844 49.9 301.922 49.9303 301.982 49.991C302.043 50.0517 302.073 50.1297 302.073 50.225V51.265C302.073 51.3517 302.043 51.4253 301.982 51.486C301.922 51.5467 301.844 51.577 301.748 51.577H297.536V53.618H301.462C301.558 53.618 301.636 53.6483 301.696 53.709C301.757 53.7697 301.787 53.8477 301.787 53.943V54.905C301.787 54.9917 301.757 55.0653 301.696 55.126C301.636 55.1867 301.558 55.217 301.462 55.217H297.536V57.323H301.852C301.948 57.323 302.026 57.3533 302.086 57.414C302.147 57.4747 302.177 57.5527 302.177 57.648V58.675C302.177 58.7703 302.147 58.8483 302.086 58.909C302.026 58.9697 301.948 59 301.852 59H295.859ZM308.698 56.413C308.629 56.413 308.568 56.387 308.516 56.335C308.464 56.283 308.438 56.2223 308.438 56.153C308.438 56.0923 308.438 56.0317 308.438 55.971C308.438 55.9103 308.438 55.8497 308.438 55.789C308.481 55.4683 308.577 55.1823 308.724 54.931C308.88 54.671 309.058 54.4327 309.257 54.216C309.465 53.9993 309.669 53.8 309.868 53.618C310.067 53.4273 310.236 53.2367 310.375 53.046C310.514 52.8553 310.587 52.6647 310.596 52.474C310.622 52.2487 310.579 52.0623 310.466 51.915C310.362 51.759 310.215 51.642 310.024 51.564C309.842 51.4773 309.647 51.434 309.439 51.434C309.058 51.434 308.75 51.5293 308.516 51.72C308.291 51.902 308.135 52.1837 308.048 52.565C308.013 52.6603 307.966 52.734 307.905 52.786C307.844 52.838 307.762 52.864 307.658 52.864H306.306C306.228 52.864 306.159 52.8337 306.098 52.773C306.037 52.7123 306.007 52.6343 306.007 52.539C306.016 52.1923 306.098 51.8543 306.254 51.525C306.41 51.1957 306.64 50.901 306.943 50.641C307.246 50.3723 307.615 50.16 308.048 50.004C308.481 49.848 308.984 49.77 309.556 49.77C310.18 49.77 310.696 49.848 311.103 50.004C311.519 50.16 311.848 50.3637 312.091 50.615C312.342 50.8577 312.52 51.122 312.624 51.408C312.728 51.6853 312.771 51.9497 312.754 52.201C312.745 52.5217 312.676 52.812 312.546 53.072C312.425 53.3233 312.273 53.5573 312.091 53.774C311.918 53.9907 311.731 54.203 311.532 54.411C311.341 54.6103 311.168 54.814 311.012 55.022C310.865 55.23 310.756 55.4467 310.687 55.672C310.67 55.7413 310.652 55.8107 310.635 55.88C310.626 55.9407 310.618 56.0057 310.609 56.075C310.566 56.1877 310.518 56.2743 310.466 56.335C310.414 56.387 310.336 56.413 310.232 56.413H308.698ZM308.698 59C308.603 59 308.525 58.9697 308.464 58.909C308.403 58.8483 308.373 58.7703 308.373 58.675V57.375C308.373 57.2883 308.403 57.2147 308.464 57.154C308.525 57.0847 308.603 57.05 308.698 57.05H310.154C310.241 57.05 310.314 57.0847 310.375 57.154C310.444 57.2147 310.479 57.2883 310.479 57.375V58.675C310.479 58.7703 310.444 58.8483 310.375 58.909C310.314 58.9697 310.241 59 310.154 59H308.698Z" fill="#A0A0A5"/>
<path d="M333.5 78H154.5V80H333.5V78Z" fill="#CBC9CD" mask="url(#path-18-inside-6_905_1919)"/>
<mask id="path-21-inside-7_905_1919" fill="white">
<path d="M154.5 79H333.5V128H154.5V79Z"/>
</mask>
<path d="M154.5 79H333.5V128H154.5V79Z" fill="white"/>
<path d="M189.167 102.887V103.5C189.166 104.938 188.7 106.337 187.839 107.488C186.979 108.639 185.769 109.482 184.39 109.889C183.012 110.297 181.538 110.248 180.19 109.75C178.841 109.252 177.69 108.331 176.907 107.125C176.125 105.919 175.753 104.492 175.848 103.058C175.942 101.623 176.498 100.258 177.432 99.1648C178.366 98.072 179.628 97.3103 181.031 96.9935C182.433 96.6767 183.9 96.8216 185.213 97.4067" stroke="#57B3A0" stroke-linecap="round" stroke-linejoin="round"/>
<path d="M189.167 98.1665L182.5 104.84L180.5 102.84" stroke="#57B3A0" stroke-linecap="round" stroke-linejoin="round"/>
<path d="M333.5 127H154.5V129H333.5V127Z" fill="#CBC9CD" mask="url(#path-21-inside-7_905_1919)"/>
<mask id="path-25-inside-8_905_1919" fill="white">
<path d="M154.5 128H333.5V177H154.5V128Z"/>
</mask>
<path d="M154.5 128H333.5V177H154.5V128Z" fill="white"/>
<path d="M189.167 151.887V152.5C189.166 153.938 188.7 155.337 187.839 156.488C186.979 157.639 185.769 158.482 184.39 158.889C183.012 159.297 181.538 159.248 180.19 158.75C178.841 158.252 177.69 157.331 176.907 156.125C176.125 154.919 175.753 153.492 175.848 152.058C175.942 150.623 176.498 149.258 177.432 148.165C178.366 147.072 179.628 146.31 181.031 145.994C182.433 145.677 183.9 145.822 185.213 146.407" stroke="#57B3A0" stroke-linecap="round" stroke-linejoin="round"/>
<path d="M189.167 147.167L182.5 153.84L180.5 151.84" stroke="#57B3A0" stroke-linecap="round" stroke-linejoin="round"/>
<path d="M333.5 176H154.5V178H333.5V176Z" fill="#CBC9CD" mask="url(#path-25-inside-8_905_1919)"/>
<mask id="path-29-inside-9_905_1919" fill="white">
<path d="M154.5 177H333.5V226H154.5V177Z"/>
</mask>
<path d="M154.5 177H333.5V226H154.5V177Z" fill="white"/>
<path d="M175.696 202.646C175.609 202.646 175.536 202.62 175.475 202.568C175.423 202.507 175.397 202.434 175.397 202.347V201.853C175.397 201.766 175.423 201.697 175.475 201.645C175.536 201.584 175.609 201.554 175.696 201.554H179.596C179.683 201.554 179.752 201.584 179.804 201.645C179.865 201.697 179.895 201.766 179.895 201.853V202.347C179.895 202.434 179.865 202.507 179.804 202.568C179.752 202.62 179.683 202.646 179.596 202.646H175.696Z" fill="#303032"/>
<path d="M333.5 225H154.5V227H333.5V225Z" fill="#CBC9CD" mask="url(#path-29-inside-9_905_1919)"/>
</g>
<path d="M1 256V0H-1V256H1Z" fill="#EAEAEF" mask="url(#path-1-inside-1_905_1919)"/>
<defs>
<filter id="filter0_d_905_1919" x="46.5" y="20" width="307" height="236" filterUnits="userSpaceOnUse" color-interpolation-filters="sRGB">
<feFlood flood-opacity="0" result="BackgroundImageFix"/>
<feColorMatrix in="SourceAlpha" type="matrix" values="0 0 0 0 0 0 0 0 0 0 0 0 0 0 0 0 0 0 127 0" result="hardAlpha"/>
<feOffset dy="10"/>
<feGaussianBlur stdDeviation="10"/>
<feComposite in2="hardAlpha" operator="out"/>
<feColorMatrix type="matrix" values="0 0 0 0 0.117647 0 0 0 0 0.117647 0 0 0 0 0.117647 0 0 0 0.12 0"/>
<feBlend mode="normal" in2="BackgroundImageFix" result="effect1_dropShadow_905_1919"/>
<feBlend mode="normal" in="SourceGraphic" in2="effect1_dropShadow_905_1919" result="shape"/>
</filter>
</defs>
</svg>
