<svg width="400" height="256" viewBox="0 0 400 256" fill="none" xmlns="http://www.w3.org/2000/svg">
<mask id="path-1-inside-1_905_1826" fill="white">
<path d="M0 0H400V256H0V0Z"/>
</mask>
<path d="M0 0H400V256H0V0Z" fill="#F5F7F9"/>
<path d="M0.5 0.5H62.5V17C62.5 18.933 60.933 20.5 59 20.5H0.5V0.5Z" fill="#F5F7F9"/>
<path d="M13.122 14C13.0487 14 12.9863 13.9743 12.935 13.923C12.8837 13.8717 12.858 13.8093 12.858 13.736V6.575C12.858 6.49433 12.88 6.42833 12.924 6.377C12.9753 6.32567 13.0413 6.3 13.122 6.3H15.806C17.962 6.3 19.062 7.29733 19.106 9.292C19.1207 9.71733 19.128 10.0033 19.128 10.15C19.128 10.2893 19.1207 10.5717 19.106 10.997C19.0767 12.0237 18.8017 12.7827 18.281 13.274C17.7603 13.758 16.9537 14 15.861 14H13.122ZM15.806 12.735C16.422 12.735 16.8657 12.5993 17.137 12.328C17.4083 12.0493 17.5513 11.5947 17.566 10.964C17.5807 10.524 17.588 10.249 17.588 10.139C17.588 10.0217 17.5807 9.75033 17.566 9.325C17.5513 8.72367 17.3973 8.28 17.104 7.994C16.818 7.708 16.367 7.565 15.751 7.565H14.387V12.735H15.806ZM20.6804 7.334C20.607 7.334 20.5447 7.30833 20.4934 7.257C20.442 7.20567 20.4164 7.14333 20.4164 7.07V6.278C20.4164 6.20467 20.442 6.14233 20.4934 6.091C20.5447 6.03967 20.607 6.014 20.6804 6.014H21.6814C21.7547 6.014 21.817 6.03967 21.8684 6.091C21.927 6.14233 21.9564 6.20467 21.9564 6.278V7.07C21.9564 7.14333 21.9307 7.20567 21.8794 7.257C21.828 7.30833 21.762 7.334 21.6814 7.334H20.6804ZM20.7244 14C20.651 14 20.5887 13.9743 20.5374 13.923C20.486 13.8717 20.4604 13.8093 20.4604 13.736V8.544C20.4604 8.47067 20.486 8.40833 20.5374 8.357C20.5887 8.30567 20.651 8.28 20.7244 8.28H21.6374C21.718 8.28 21.7804 8.30567 21.8244 8.357C21.8757 8.401 21.9014 8.46333 21.9014 8.544V13.736C21.9014 13.8093 21.8757 13.8717 21.8244 13.923C21.7804 13.9743 21.718 14 21.6374 14H20.7244ZM25.5278 14.11C24.9778 14.11 24.5158 14.0293 24.1418 13.868C23.7678 13.6993 23.4891 13.505 23.3058 13.285C23.1298 13.0577 23.0418 12.8633 23.0418 12.702C23.0418 12.6287 23.0674 12.57 23.1188 12.526C23.1701 12.482 23.2288 12.46 23.2948 12.46H24.1638C24.2298 12.46 24.2848 12.4857 24.3288 12.537C24.3581 12.559 24.4351 12.625 24.5598 12.735C24.6844 12.8523 24.8311 12.944 24.9998 13.01C25.1684 13.076 25.3554 13.109 25.5608 13.109C25.8541 13.109 26.0961 13.0503 26.2868 12.933C26.4774 12.8157 26.5728 12.6543 26.5728 12.449C26.5728 12.295 26.5288 12.1703 26.4408 12.075C26.3601 11.9797 26.2098 11.8953 25.9898 11.822C25.7698 11.7413 25.4434 11.657 25.0108 11.569C24.3874 11.437 23.9254 11.2353 23.6248 10.964C23.3314 10.6927 23.1848 10.3333 23.1848 9.886C23.1848 9.59267 23.2728 9.31767 23.4488 9.061C23.6248 8.797 23.8851 8.58433 24.2298 8.423C24.5818 8.25433 24.9998 8.17 25.4838 8.17C25.9751 8.17 26.4004 8.25067 26.7598 8.412C27.1191 8.566 27.3904 8.753 27.5738 8.973C27.7644 9.18567 27.8598 9.37633 27.8598 9.545C27.8598 9.611 27.8341 9.66967 27.7828 9.721C27.7388 9.765 27.6838 9.787 27.6178 9.787H26.8038C26.7451 9.787 26.6828 9.76133 26.6168 9.71C26.5654 9.67333 26.4848 9.60367 26.3748 9.501C26.2648 9.39833 26.1364 9.31767 25.9898 9.259C25.8431 9.20033 25.6708 9.171 25.4728 9.171C25.2014 9.171 24.9888 9.22967 24.8348 9.347C24.6881 9.46433 24.6148 9.61833 24.6148 9.809C24.6148 9.94833 24.6514 10.062 24.7248 10.15C24.7981 10.238 24.9411 10.3223 25.1538 10.403C25.3664 10.4837 25.6854 10.5643 26.1108 10.645C26.8148 10.7843 27.3171 11.0007 27.6178 11.294C27.9258 11.5873 28.0798 11.9467 28.0798 12.372C28.0798 12.8853 27.8561 13.3033 27.4088 13.626C26.9614 13.9487 26.3344 14.11 25.5278 14.11ZM29.4903 16.09C29.4169 16.09 29.3546 16.0643 29.3033 16.013C29.2519 15.969 29.2263 15.9067 29.2263 15.826V8.544C29.2263 8.46333 29.2519 8.401 29.3033 8.357C29.3546 8.30567 29.4169 8.28 29.4903 8.28H30.3593C30.4399 8.28 30.5023 8.30567 30.5463 8.357C30.5976 8.401 30.6233 8.46333 30.6233 8.544V8.984C31.0339 8.44133 31.6206 8.17 32.3833 8.17C33.1239 8.17 33.6923 8.40467 34.0883 8.874C34.4843 9.336 34.6969 9.963 34.7263 10.755C34.7336 10.843 34.7373 10.9713 34.7373 11.14C34.7373 11.316 34.7336 11.448 34.7263 11.536C34.6969 12.306 34.4843 12.9293 34.0883 13.406C33.6923 13.8753 33.1239 14.11 32.3833 14.11C31.6426 14.11 31.0779 13.8497 30.6893 13.329V15.826C30.6893 15.9067 30.6636 15.969 30.6123 16.013C30.5683 16.0643 30.5059 16.09 30.4253 16.09H29.4903ZM31.9763 12.933C32.7683 12.933 33.1899 12.4453 33.2413 11.47C33.2486 11.3967 33.2523 11.2867 33.2523 11.14C33.2523 10.9933 33.2486 10.8833 33.2413 10.81C33.1899 9.83467 32.7683 9.347 31.9763 9.347C31.5509 9.347 31.2356 9.48267 31.0303 9.754C30.8249 10.0253 30.7113 10.359 30.6893 10.755L30.6783 11.173L30.6893 11.602C30.7039 11.9687 30.8176 12.284 31.0303 12.548C31.2503 12.8047 31.5656 12.933 31.9763 12.933ZM36.2471 14C36.1738 14 36.1114 13.9743 36.0601 13.923C36.0088 13.8717 35.9831 13.8093 35.9831 13.736V6.454C35.9831 6.37333 36.0088 6.311 36.0601 6.267C36.1114 6.21567 36.1738 6.19 36.2471 6.19H37.1601C37.2408 6.19 37.3031 6.21567 37.3471 6.267C37.3984 6.311 37.4241 6.37333 37.4241 6.454V13.736C37.4241 13.8093 37.3984 13.8717 37.3471 13.923C37.3031 13.9743 37.2408 14 37.1601 14H36.2471ZM40.5442 14.11C40.1702 14.11 39.8256 14.0367 39.5102 13.89C39.2022 13.736 38.9566 13.5307 38.7732 13.274C38.5972 13.0173 38.5092 12.735 38.5092 12.427C38.5092 11.9283 38.7109 11.525 39.1142 11.217C39.5176 10.909 40.0712 10.7 40.7752 10.59L42.2822 10.37V10.139C42.2822 9.81633 42.2016 9.57433 42.0402 9.413C41.8789 9.25167 41.6186 9.171 41.2592 9.171C41.0172 9.171 40.8192 9.21867 40.6652 9.314C40.5186 9.402 40.4012 9.49 40.3132 9.578C40.2252 9.67333 40.1666 9.73567 40.1372 9.765C40.1079 9.853 40.0529 9.897 39.9722 9.897H39.1252C39.0592 9.897 39.0006 9.875 38.9492 9.831C38.9052 9.787 38.8832 9.72833 38.8832 9.655C38.8906 9.47167 38.9786 9.26267 39.1472 9.028C39.3232 8.79333 39.5909 8.59167 39.9502 8.423C40.3096 8.25433 40.7496 8.17 41.2702 8.17C42.1356 8.17 42.7662 8.36433 43.1622 8.753C43.5582 9.14167 43.7562 9.65133 43.7562 10.282V13.736C43.7562 13.8093 43.7306 13.8717 43.6792 13.923C43.6352 13.9743 43.5729 14 43.4922 14H42.6012C42.5279 14 42.4656 13.9743 42.4142 13.923C42.3629 13.8717 42.3372 13.8093 42.3372 13.736V13.307C42.1759 13.5417 41.9449 13.736 41.6442 13.89C41.3509 14.0367 40.9842 14.11 40.5442 14.11ZM40.9182 13.065C41.3216 13.065 41.6516 12.933 41.9082 12.669C42.1649 12.405 42.2932 12.02 42.2932 11.514V11.283L41.1932 11.459C40.7679 11.525 40.4452 11.6313 40.2252 11.778C40.0126 11.9247 39.9062 12.1043 39.9062 12.317C39.9062 12.5517 40.0052 12.735 40.2032 12.867C40.4012 12.999 40.6396 13.065 40.9182 13.065ZM46.051 16.09C45.9923 16.09 45.941 16.068 45.897 16.024C45.853 15.98 45.831 15.9287 45.831 15.87C45.831 15.804 45.8457 15.7453 45.875 15.694L46.733 13.659L44.621 8.676C44.5917 8.61 44.577 8.55867 44.577 8.522C44.5843 8.456 44.61 8.401 44.654 8.357C44.698 8.30567 44.753 8.28 44.819 8.28H45.71C45.8493 8.28 45.9483 8.34967 46.007 8.489L47.47 12.086L48.977 8.489C49.0357 8.34967 49.1347 8.28 49.274 8.28H50.154C50.2127 8.28 50.264 8.302 50.308 8.346C50.3593 8.39 50.385 8.44133 50.385 8.5C50.385 8.55133 50.3703 8.61 50.341 8.676L47.228 15.881C47.162 16.0203 47.0593 16.09 46.92 16.09H46.051Z" fill="#535356"/>
<path d="M0.5 0.5H62.5V17C62.5 18.933 60.933 20.5 59 20.5H0.5V0.5Z" stroke="#EAEAEF"/>
<g filter="url(#filter0_d_905_1826)">
<mask id="path-6-inside-2_905_1826" fill="white">
<path d="M57 30H145V79H57V30Z"/>
</mask>
<path d="M57 30H145V79H57V30Z" fill="white"/>
<rect x="77" y="46" width="48" height="17" rx="5" fill="#F2F2F6"/>
<path d="M145 78H57V80H145V78Z" fill="#CBC9CD" mask="url(#path-6-inside-2_905_1826)"/>
<mask id="path-9-inside-3_905_1826" fill="white">
<path d="M57 79H145V128H57V79Z"/>
</mask>
<path d="M57 79H145V128H57V79Z" fill="white"/>
<rect x="77" y="95" width="48" height="17" rx="5" fill="#F2F2F6"/>
<path d="M145 127H57V129H145V127Z" fill="#CBC9CD" mask="url(#path-9-inside-3_905_1826)"/>
<mask id="path-12-inside-4_905_1826" fill="white">
<path d="M57 128H145V177H57V128Z"/>
</mask>
<path d="M57 128H145V177H57V128Z" fill="white"/>
<rect x="77" y="144" width="48" height="17" rx="5" fill="#F2F2F6"/>
<path d="M145 176H57V178H145V176Z" fill="#CBC9CD" mask="url(#path-12-inside-4_905_1826)"/>
<mask id="path-15-inside-5_905_1826" fill="white">
<path d="M57 177H145V226H57V177Z"/>
</mask>
<path d="M57 177H145V226H57V177Z" fill="white"/>
<rect x="77" y="193" width="48" height="17" rx="5" fill="#F2F2F6"/>
<path d="M145 225H57V227H145V225Z" fill="#CBC9CD" mask="url(#path-15-inside-5_905_1826)"/>
<mask id="path-18-inside-6_905_1826" fill="white">
<path d="M145 30H343V79H145V30Z"/>
</mask>
<path d="M145 30H343V79H145V30Z" fill="white"/>
<path d="M166.287 59C166.192 59 166.114 58.9697 166.053 58.909C165.992 58.8483 165.962 58.7703 165.962 58.675V50.225C165.962 50.1297 165.992 50.0517 166.053 49.991C166.114 49.9303 166.192 49.9 166.287 49.9H172.176C172.271 49.9 172.349 49.9303 172.41 49.991C172.471 50.0517 172.501 50.1297 172.501 50.225V51.265C172.501 51.3517 172.471 51.4253 172.41 51.486C172.349 51.5467 172.271 51.577 172.176 51.577H167.964V53.618H171.89C171.985 53.618 172.063 53.6483 172.124 53.709C172.185 53.7697 172.215 53.8477 172.215 53.943V54.905C172.215 54.9917 172.185 55.0653 172.124 55.126C172.063 55.1867 171.985 55.217 171.89 55.217H167.964V57.323H172.28C172.375 57.323 172.453 57.3533 172.514 57.414C172.575 57.4747 172.605 57.5527 172.605 57.648V58.675C172.605 58.7703 172.575 58.8483 172.514 58.909C172.453 58.9697 172.375 59 172.28 59H166.287ZM174.475 59C174.389 59 174.311 58.9697 174.241 58.909C174.181 58.8483 174.15 58.7703 174.15 58.675V50.225C174.15 50.1297 174.181 50.0517 174.241 49.991C174.311 49.9303 174.389 49.9 174.475 49.9H175.684C175.814 49.9 175.91 49.9347 175.97 50.004C176.04 50.0733 176.087 50.1253 176.113 50.16L178.505 54.567L180.923 50.16C180.941 50.1253 180.98 50.0733 181.04 50.004C181.11 49.9347 181.209 49.9 181.339 49.9H182.548C182.644 49.9 182.722 49.9303 182.782 49.991C182.843 50.0517 182.873 50.1297 182.873 50.225V58.675C182.873 58.7703 182.843 58.8483 182.782 58.909C182.722 58.9697 182.644 59 182.548 59H181.222C181.136 59 181.062 58.9697 181.001 58.909C180.941 58.8483 180.91 58.7703 180.91 58.675V53.423L179.259 56.517C179.216 56.595 179.16 56.6643 179.09 56.725C179.021 56.7857 178.93 56.816 178.817 56.816H178.206C178.094 56.816 178.003 56.7857 177.933 56.725C177.864 56.6643 177.808 56.595 177.764 56.517L176.113 53.423V58.675C176.113 58.7703 176.083 58.8483 176.022 58.909C175.962 58.9697 175.888 59 175.801 59H174.475ZM184.269 59C184.191 59 184.126 58.974 184.074 58.922C184.022 58.8613 183.996 58.7963 183.996 58.727C183.996 58.6837 184 58.6447 184.009 58.61L187.103 50.251C187.129 50.1557 187.181 50.0733 187.259 50.004C187.337 49.9347 187.445 49.9 187.584 49.9H189.248C189.387 49.9 189.495 49.9347 189.573 50.004C189.651 50.0733 189.703 50.1557 189.729 50.251L192.823 58.61C192.832 58.6447 192.836 58.6837 192.836 58.727C192.836 58.7963 192.81 58.8613 192.758 58.922C192.706 58.974 192.641 59 192.563 59H191.211C191.081 59 190.986 58.9697 190.925 58.909C190.864 58.8483 190.825 58.792 190.808 58.74L190.249 57.284H186.583L186.024 58.74C186.007 58.792 185.968 58.8483 185.907 58.909C185.846 58.9697 185.751 59 185.621 59H184.269ZM187.064 55.607H189.755L188.416 51.863L187.064 55.607ZM194.28 59C194.185 59 194.107 58.9697 194.046 58.909C193.985 58.8483 193.955 58.7703 193.955 58.675V50.225C193.955 50.1297 193.985 50.0517 194.046 49.991C194.107 49.9303 194.185 49.9 194.28 49.9H195.749C195.844 49.9 195.922 49.9303 195.983 49.991C196.044 50.0517 196.074 50.1297 196.074 50.225V58.675C196.074 58.7703 196.044 58.8483 195.983 58.909C195.922 58.9697 195.844 59 195.749 59H194.28ZM198.317 59C198.222 59 198.144 58.9697 198.083 58.909C198.023 58.8483 197.992 58.7703 197.992 58.675V50.225C197.992 50.1297 198.023 50.0517 198.083 49.991C198.144 49.9303 198.222 49.9 198.317 49.9H199.76C199.856 49.9 199.934 49.9303 199.994 49.991C200.055 50.0517 200.085 50.1297 200.085 50.225V57.258H204.115C204.211 57.258 204.289 57.2883 204.349 57.349C204.41 57.4097 204.44 57.4877 204.44 57.583V58.675C204.44 58.7703 204.41 58.8483 204.349 58.909C204.289 58.9697 204.211 59 204.115 59H198.317Z" fill="#A0A0A5"/>
<path d="M343 78H145V80H343V78Z" fill="#CBC9CD" mask="url(#path-18-inside-6_905_1826)"/>
<mask id="path-21-inside-7_905_1826" fill="white">
<path d="M145 79H343V128H145V79Z"/>
</mask>
<path d="M145 79H343V128H145V79Z" fill="white"/>
<path d="M168.432 108.13C167.531 108.13 166.85 107.835 166.391 107.246C165.932 106.657 165.689 105.911 165.663 105.01L165.65 104.62L165.663 104.23C165.689 103.337 165.932 102.596 166.391 102.007C166.85 101.409 167.531 101.11 168.432 101.11C169.325 101.11 170.027 101.426 170.538 102.059V99.069C170.538 98.9823 170.564 98.913 170.616 98.861C170.677 98.8003 170.75 98.77 170.837 98.77H171.461C171.548 98.77 171.617 98.8003 171.669 98.861C171.73 98.913 171.76 98.9823 171.76 99.069V107.701C171.76 107.788 171.73 107.861 171.669 107.922C171.617 107.974 171.548 108 171.461 108H170.876C170.789 108 170.716 107.974 170.655 107.922C170.603 107.861 170.577 107.788 170.577 107.701V107.155C170.074 107.805 169.359 108.13 168.432 108.13ZM168.705 107.077C169.303 107.077 169.749 106.882 170.044 106.492C170.347 106.093 170.512 105.621 170.538 105.075C170.547 104.98 170.551 104.815 170.551 104.581C170.551 104.338 170.547 104.169 170.538 104.074C170.521 103.563 170.356 103.116 170.044 102.735C169.732 102.354 169.286 102.163 168.705 102.163C168.09 102.163 167.639 102.354 167.353 102.735C167.076 103.116 166.924 103.619 166.898 104.243L166.885 104.62C166.885 106.258 167.492 107.077 168.705 107.077ZM175.578 108.13C175.154 108.13 174.759 108.043 174.395 107.87C174.031 107.697 173.741 107.463 173.524 107.168C173.316 106.865 173.212 106.531 173.212 106.167C173.212 105.595 173.446 105.127 173.914 104.763C174.391 104.39 175.032 104.148 175.838 104.035L177.775 103.762V103.385C177.775 102.501 177.268 102.059 176.254 102.059C175.873 102.059 175.561 102.141 175.318 102.306C175.076 102.462 174.894 102.648 174.772 102.865C174.746 102.943 174.712 102.999 174.668 103.034C174.634 103.069 174.582 103.086 174.512 103.086H173.953C173.875 103.086 173.806 103.06 173.745 103.008C173.693 102.947 173.667 102.878 173.667 102.8C173.676 102.592 173.771 102.358 173.953 102.098C174.144 101.829 174.434 101.6 174.824 101.409C175.214 101.21 175.695 101.11 176.267 101.11C177.238 101.11 177.936 101.34 178.36 101.799C178.785 102.25 178.997 102.813 178.997 103.489V107.701C178.997 107.788 178.967 107.861 178.906 107.922C178.854 107.974 178.785 108 178.698 108H178.1C178.014 108 177.94 107.974 177.879 107.922C177.827 107.861 177.801 107.788 177.801 107.701V107.142C177.611 107.419 177.333 107.653 176.969 107.844C176.605 108.035 176.142 108.13 175.578 108.13ZM175.851 107.155C176.415 107.155 176.874 106.973 177.229 106.609C177.593 106.236 177.775 105.703 177.775 105.01V104.646L176.267 104.867C175.652 104.954 175.188 105.101 174.876 105.309C174.564 105.508 174.408 105.764 174.408 106.076C174.408 106.423 174.551 106.691 174.837 106.882C175.123 107.064 175.461 107.155 175.851 107.155ZM183.092 108C182.867 108 182.707 107.892 182.611 107.675L180.206 101.643L180.18 101.513C180.18 101.435 180.206 101.37 180.258 101.318C180.31 101.266 180.375 101.24 180.453 101.24H181.077C181.225 101.24 181.333 101.314 181.402 101.461L183.378 106.583L185.354 101.461C185.432 101.314 185.536 101.24 185.666 101.24H186.303C186.373 101.24 186.433 101.266 186.485 101.318C186.546 101.37 186.576 101.435 186.576 101.513L186.55 101.643L184.132 107.675C184.037 107.892 183.877 108 183.651 108H183.092ZM190.4 108.13C189.508 108.13 188.793 107.857 188.255 107.311C187.727 106.756 187.436 106.002 187.384 105.049L187.371 104.607L187.384 104.178C187.445 103.242 187.74 102.497 188.268 101.942C188.806 101.387 189.512 101.11 190.387 101.11C191.349 101.11 192.095 101.418 192.623 102.033C193.152 102.64 193.416 103.463 193.416 104.503V104.724C193.416 104.811 193.386 104.884 193.325 104.945C193.273 104.997 193.204 105.023 193.117 105.023H188.619V105.14C188.645 105.703 188.814 106.184 189.126 106.583C189.447 106.973 189.867 107.168 190.387 107.168C190.786 107.168 191.111 107.09 191.362 106.934C191.622 106.769 191.813 106.6 191.934 106.427C192.012 106.323 192.069 106.262 192.103 106.245C192.147 106.219 192.22 106.206 192.324 106.206H192.961C193.039 106.206 193.104 106.228 193.156 106.271C193.208 106.314 193.234 106.375 193.234 106.453C193.234 106.644 193.113 106.873 192.87 107.142C192.636 107.411 192.303 107.645 191.869 107.844C191.445 108.035 190.955 108.13 190.4 108.13ZM192.181 104.126V104.087C192.181 103.489 192.017 103.004 191.687 102.631C191.367 102.25 190.933 102.059 190.387 102.059C189.841 102.059 189.408 102.25 189.087 102.631C188.775 103.004 188.619 103.489 188.619 104.087V104.126H192.181ZM195.179 108C195.092 108 195.018 107.974 194.958 107.922C194.906 107.861 194.88 107.788 194.88 107.701V106.765C194.88 106.678 194.906 106.609 194.958 106.557C195.018 106.496 195.092 106.466 195.179 106.466H196.115C196.201 106.466 196.275 106.496 196.336 106.557C196.396 106.609 196.427 106.678 196.427 106.765V107.701C196.427 107.788 196.396 107.861 196.336 107.922C196.275 107.974 196.201 108 196.115 108H195.179ZM198.558 108C198.472 108 198.398 107.974 198.337 107.922C198.285 107.861 198.259 107.788 198.259 107.701V99.069C198.259 98.9823 198.285 98.913 198.337 98.861C198.398 98.8003 198.472 98.77 198.558 98.77H199.169C199.256 98.77 199.325 98.8003 199.377 98.861C199.438 98.913 199.468 98.9823 199.468 99.069V107.701C199.468 107.788 199.438 107.861 199.377 107.922C199.325 107.974 199.256 108 199.169 108H198.558ZM201.602 99.979C201.516 99.979 201.442 99.953 201.381 99.901C201.329 99.8403 201.303 99.7667 201.303 99.68V98.978C201.303 98.8913 201.329 98.8177 201.381 98.757C201.442 98.6963 201.516 98.666 201.602 98.666H202.421C202.508 98.666 202.582 98.6963 202.642 98.757C202.703 98.8177 202.733 98.8913 202.733 98.978V99.68C202.733 99.7667 202.703 99.8403 202.642 99.901C202.582 99.953 202.508 99.979 202.421 99.979H201.602ZM201.706 108C201.62 108 201.546 107.974 201.485 107.922C201.433 107.861 201.407 107.788 201.407 107.701V101.539C201.407 101.452 201.433 101.383 201.485 101.331C201.546 101.27 201.62 101.24 201.706 101.24H202.33C202.417 101.24 202.486 101.27 202.538 101.331C202.599 101.383 202.629 101.452 202.629 101.539V107.701C202.629 107.788 202.599 107.861 202.538 107.922C202.486 107.974 202.417 108 202.33 108H201.706ZM204.426 108C204.339 108 204.265 107.974 204.205 107.922C204.153 107.861 204.127 107.788 204.127 107.701V107.246C204.127 107.177 204.144 107.107 204.179 107.038C204.222 106.96 204.265 106.891 204.309 106.83L207.897 102.267H204.543C204.456 102.267 204.382 102.241 204.322 102.189C204.27 102.128 204.244 102.055 204.244 101.968V101.539C204.244 101.452 204.27 101.383 204.322 101.331C204.382 101.27 204.456 101.24 204.543 101.24H209.171C209.257 101.24 209.327 101.27 209.379 101.331C209.439 101.383 209.47 101.452 209.47 101.539V102.02C209.47 102.089 209.448 102.159 209.405 102.228C209.37 102.297 209.331 102.362 209.288 102.423L205.739 106.973H209.431C209.526 106.973 209.6 106.999 209.652 107.051C209.704 107.103 209.73 107.177 209.73 107.272V107.701C209.73 107.788 209.699 107.861 209.639 107.922C209.587 107.974 209.517 108 209.431 108H204.426ZM213.798 108.13C212.905 108.13 212.19 107.857 211.653 107.311C211.124 106.756 210.834 106.002 210.782 105.049L210.769 104.607L210.782 104.178C210.843 103.242 211.137 102.497 211.666 101.942C212.203 101.387 212.91 101.11 213.785 101.11C214.747 101.11 215.492 101.418 216.021 102.033C216.55 102.64 216.814 103.463 216.814 104.503V104.724C216.814 104.811 216.784 104.884 216.723 104.945C216.671 104.997 216.602 105.023 216.515 105.023H212.017V105.14C212.043 105.703 212.212 106.184 212.524 106.583C212.845 106.973 213.265 107.168 213.785 107.168C214.184 107.168 214.509 107.09 214.76 106.934C215.02 106.769 215.211 106.6 215.332 106.427C215.41 106.323 215.466 106.262 215.501 106.245C215.544 106.219 215.618 106.206 215.722 106.206H216.359C216.437 106.206 216.502 106.228 216.554 106.271C216.606 106.314 216.632 106.375 216.632 106.453C216.632 106.644 216.511 106.873 216.268 107.142C216.034 107.411 215.7 107.645 215.267 107.844C214.842 108.035 214.353 108.13 213.798 108.13ZM215.579 104.126V104.087C215.579 103.489 215.414 103.004 215.085 102.631C214.764 102.25 214.331 102.059 213.785 102.059C213.239 102.059 212.806 102.25 212.485 102.631C212.173 103.004 212.017 103.489 212.017 104.087V104.126H215.579ZM219.985 108C219.872 108 219.785 107.974 219.725 107.922C219.664 107.87 219.612 107.788 219.569 107.675L217.723 101.643L217.697 101.513C217.697 101.435 217.723 101.37 217.775 101.318C217.835 101.266 217.9 101.24 217.97 101.24H218.542C218.628 101.24 218.698 101.266 218.75 101.318C218.81 101.361 218.849 101.409 218.867 101.461L220.31 106.362L221.857 101.513C221.874 101.444 221.913 101.383 221.974 101.331C222.034 101.27 222.117 101.24 222.221 101.24H222.663C222.767 101.24 222.849 101.27 222.91 101.331C222.97 101.383 223.009 101.444 223.027 101.513L224.574 106.362L226.017 101.461C226.025 101.418 226.056 101.37 226.108 101.318C226.168 101.266 226.242 101.24 226.329 101.24H226.914C226.983 101.24 227.044 101.266 227.096 101.318C227.148 101.37 227.174 101.435 227.174 101.513L227.148 101.643L225.315 107.675C225.271 107.788 225.219 107.87 225.159 107.922C225.098 107.974 225.007 108 224.886 108H224.379C224.145 108 224.002 107.892 223.95 107.675L222.442 103.021L220.934 107.675C220.864 107.892 220.717 108 220.492 108H219.985ZM230.788 108.13C230.182 108.13 229.67 108.035 229.254 107.844C228.847 107.645 228.539 107.419 228.331 107.168C228.132 106.917 228.032 106.709 228.032 106.544C228.032 106.457 228.063 106.392 228.123 106.349C228.193 106.297 228.262 106.271 228.331 106.271H228.916C229.003 106.271 229.081 106.314 229.15 106.401C229.358 106.644 229.584 106.834 229.826 106.973C230.069 107.112 230.394 107.181 230.801 107.181C231.252 107.181 231.616 107.094 231.893 106.921C232.179 106.739 232.322 106.492 232.322 106.18C232.322 105.972 232.262 105.803 232.14 105.673C232.028 105.534 231.828 105.417 231.542 105.322C231.265 105.218 230.849 105.105 230.294 104.984C229.54 104.819 229.003 104.581 228.682 104.269C228.37 103.957 228.214 103.554 228.214 103.06C228.214 102.731 228.31 102.419 228.5 102.124C228.7 101.821 228.986 101.578 229.358 101.396C229.74 101.205 230.195 101.11 230.723 101.11C231.278 101.11 231.75 101.201 232.14 101.383C232.53 101.565 232.821 101.782 233.011 102.033C233.211 102.276 233.31 102.479 233.31 102.644C233.31 102.722 233.28 102.787 233.219 102.839C233.167 102.891 233.102 102.917 233.024 102.917H232.478C232.374 102.917 232.288 102.874 232.218 102.787C232.08 102.622 231.958 102.497 231.854 102.41C231.759 102.315 231.616 102.232 231.425 102.163C231.243 102.094 231.009 102.059 230.723 102.059C230.307 102.059 229.987 102.15 229.761 102.332C229.536 102.505 229.423 102.735 229.423 103.021C229.423 103.203 229.471 103.359 229.566 103.489C229.662 103.61 229.844 103.723 230.112 103.827C230.39 103.931 230.788 104.039 231.308 104.152C232.132 104.325 232.712 104.577 233.05 104.906C233.397 105.227 233.57 105.638 233.57 106.141C233.57 106.514 233.462 106.852 233.245 107.155C233.029 107.458 232.708 107.697 232.283 107.87C231.867 108.043 231.369 108.13 230.788 108.13ZM235.387 108C235.301 108 235.227 107.974 235.166 107.922C235.114 107.861 235.088 107.788 235.088 107.701V99.069C235.088 98.9823 235.114 98.913 235.166 98.861C235.227 98.8003 235.301 98.77 235.387 98.77H235.998C236.085 98.77 236.154 98.8003 236.206 98.861C236.267 98.913 236.297 98.9823 236.297 99.069V103.593L238.858 101.461C238.884 101.444 238.928 101.409 238.988 101.357C239.049 101.314 239.105 101.283 239.157 101.266C239.218 101.249 239.292 101.24 239.378 101.24H240.067C240.145 101.24 240.21 101.266 240.262 101.318C240.314 101.37 240.34 101.435 240.34 101.513C240.34 101.608 240.288 101.691 240.184 101.76L237.181 104.256L240.509 107.493C240.613 107.58 240.665 107.658 240.665 107.727C240.665 107.805 240.639 107.87 240.587 107.922C240.535 107.974 240.47 108 240.392 108H239.716C239.586 108 239.491 107.987 239.43 107.961C239.378 107.935 239.3 107.874 239.196 107.779L236.297 105.01V107.701C236.297 107.788 236.267 107.861 236.206 107.922C236.154 107.974 236.085 108 235.998 108H235.387ZM241.973 99.979C241.887 99.979 241.813 99.953 241.752 99.901C241.7 99.8403 241.674 99.7667 241.674 99.68V98.978C241.674 98.8913 241.7 98.8177 241.752 98.757C241.813 98.6963 241.887 98.666 241.973 98.666H242.792C242.879 98.666 242.953 98.6963 243.013 98.757C243.074 98.8177 243.104 98.8913 243.104 98.978V99.68C243.104 99.7667 243.074 99.8403 243.013 99.901C242.953 99.953 242.879 99.979 242.792 99.979H241.973ZM242.077 108C241.991 108 241.917 107.974 241.856 107.922C241.804 107.861 241.778 107.788 241.778 107.701V101.539C241.778 101.452 241.804 101.383 241.856 101.331C241.917 101.27 241.991 101.24 242.077 101.24H242.701C242.788 101.24 242.857 101.27 242.909 101.331C242.97 101.383 243 101.452 243 101.539V107.701C243 107.788 242.97 107.861 242.909 107.922C242.857 107.974 242.788 108 242.701 108H242.077ZM249.308 109.534C247.939 109.534 246.868 109.187 246.097 108.494C245.326 107.809 244.875 106.834 244.745 105.569C244.719 105.318 244.706 104.945 244.706 104.451C244.706 103.931 244.719 103.563 244.745 103.346C244.875 102.115 245.326 101.145 246.097 100.434C246.877 99.7147 247.93 99.355 249.256 99.355C250.79 99.355 251.943 99.7017 252.714 100.395C253.485 101.08 253.906 102.063 253.975 103.346C253.992 103.693 254.001 103.961 254.001 104.152C254.001 104.542 253.992 104.841 253.975 105.049C253.94 105.673 253.767 106.15 253.455 106.479C253.152 106.808 252.736 106.973 252.207 106.973C251.834 106.973 251.531 106.895 251.297 106.739C251.063 106.583 250.885 106.414 250.764 106.232C250.617 106.475 250.417 106.683 250.166 106.856C249.923 107.021 249.572 107.103 249.113 107.103C248.463 107.103 247.947 106.873 247.566 106.414C247.193 105.946 247.007 105.292 247.007 104.451C247.007 103.61 247.193 102.956 247.566 102.488C247.947 102.02 248.463 101.786 249.113 101.786C249.434 101.786 249.694 101.847 249.893 101.968C250.101 102.081 250.283 102.228 250.439 102.41V102.189C250.439 102.102 250.465 102.033 250.517 101.981C250.578 101.92 250.651 101.89 250.738 101.89H251.089C251.176 101.89 251.245 101.92 251.297 101.981C251.358 102.033 251.388 102.102 251.388 102.189V104.958C251.388 105.313 251.462 105.586 251.609 105.777C251.756 105.968 251.956 106.063 252.207 106.063C252.51 106.063 252.718 105.95 252.831 105.725C252.952 105.5 253.017 105.244 253.026 104.958C253.043 104.75 253.052 104.481 253.052 104.152C253.052 104.005 253.043 103.758 253.026 103.411C252.948 102.354 252.614 101.565 252.025 101.045C251.444 100.516 250.521 100.252 249.256 100.252C248.207 100.252 247.38 100.529 246.773 101.084C246.175 101.63 245.815 102.406 245.694 103.411C245.668 103.628 245.655 103.974 245.655 104.451C245.655 104.902 245.668 105.253 245.694 105.504C245.798 106.501 246.158 107.272 246.773 107.818C247.388 108.355 248.233 108.624 249.308 108.624C249.871 108.624 250.335 108.576 250.699 108.481C251.072 108.394 251.34 108.299 251.505 108.195C251.678 108.091 251.878 107.952 252.103 107.779C252.12 107.77 252.159 107.74 252.22 107.688C252.281 107.645 252.354 107.623 252.441 107.623H252.961C253.039 107.623 253.104 107.649 253.156 107.701C253.217 107.753 253.247 107.822 253.247 107.909C253.247 107.978 253.221 108.039 253.169 108.091C252.77 108.524 252.263 108.871 251.648 109.131C251.041 109.4 250.261 109.534 249.308 109.534ZM249.191 106.193C249.633 106.193 249.949 106.046 250.14 105.751C250.339 105.448 250.439 105.014 250.439 104.451C250.439 103.888 250.339 103.454 250.14 103.151C249.949 102.848 249.633 102.696 249.191 102.696C248.766 102.696 248.454 102.852 248.255 103.164C248.056 103.467 247.956 103.896 247.956 104.451C247.956 104.962 248.056 105.383 248.255 105.712C248.463 106.033 248.775 106.193 249.191 106.193ZM258.512 110.86C257.802 110.86 257.23 110.739 256.796 110.496C256.363 110.262 256.055 109.993 255.873 109.69C255.691 109.387 255.592 109.114 255.574 108.871C255.566 108.784 255.592 108.711 255.652 108.65C255.722 108.589 255.795 108.559 255.873 108.559H256.497C256.575 108.559 256.64 108.576 256.692 108.611C256.744 108.654 256.788 108.728 256.822 108.832C256.926 109.109 257.095 109.348 257.329 109.547C257.572 109.755 257.945 109.859 258.447 109.859C259.089 109.859 259.561 109.72 259.864 109.443C260.168 109.174 260.319 108.693 260.319 108V107.116C260.094 107.402 259.808 107.632 259.461 107.805C259.115 107.97 258.703 108.052 258.226 108.052C257.308 108.052 256.619 107.762 256.159 107.181C255.709 106.592 255.47 105.846 255.444 104.945L255.431 104.581L255.444 104.23C255.47 103.337 255.713 102.596 256.172 102.007C256.632 101.409 257.316 101.11 258.226 101.11C259.136 101.11 259.847 101.444 260.358 102.111V101.552C260.358 101.465 260.384 101.392 260.436 101.331C260.497 101.27 260.571 101.24 260.657 101.24H261.255C261.342 101.24 261.416 101.27 261.476 101.331C261.537 101.392 261.567 101.465 261.567 101.552V107.857C261.567 109.859 260.549 110.86 258.512 110.86ZM258.486 107.012C259.076 107.012 259.522 106.817 259.825 106.427C260.129 106.037 260.293 105.573 260.319 105.036C260.328 104.958 260.332 104.806 260.332 104.581C260.332 104.364 260.328 104.217 260.319 104.139C260.293 103.602 260.129 103.138 259.825 102.748C259.531 102.358 259.084 102.163 258.486 102.163C257.871 102.163 257.425 102.354 257.147 102.735C256.87 103.116 256.718 103.619 256.692 104.243L256.679 104.581L256.692 104.932C256.718 105.547 256.87 106.05 257.147 106.44C257.425 106.821 257.871 107.012 258.486 107.012ZM263.799 108C263.712 108 263.639 107.974 263.578 107.922C263.526 107.861 263.5 107.788 263.5 107.701V101.539C263.5 101.452 263.526 101.383 263.578 101.331C263.639 101.27 263.712 101.24 263.799 101.24H264.384C264.471 101.24 264.54 101.27 264.592 101.331C264.653 101.383 264.683 101.452 264.683 101.539V101.994C265.134 101.405 265.762 101.11 266.568 101.11C267.53 101.11 268.21 101.509 268.609 102.306C268.817 101.942 269.112 101.652 269.493 101.435C269.874 101.218 270.303 101.11 270.78 101.11C271.491 101.11 272.071 101.353 272.522 101.838C272.973 102.323 273.198 103.025 273.198 103.944V107.701C273.198 107.788 273.168 107.861 273.107 107.922C273.055 107.974 272.986 108 272.899 108H272.288C272.201 108 272.128 107.974 272.067 107.922C272.015 107.861 271.989 107.788 271.989 107.701V104.061C271.989 103.385 271.846 102.9 271.56 102.605C271.283 102.31 270.914 102.163 270.455 102.163C270.048 102.163 269.697 102.315 269.402 102.618C269.107 102.913 268.96 103.394 268.96 104.061V107.701C268.96 107.788 268.93 107.861 268.869 107.922C268.817 107.974 268.748 108 268.661 108H268.05C267.963 108 267.89 107.974 267.829 107.922C267.777 107.861 267.751 107.788 267.751 107.701V104.061C267.751 103.385 267.604 102.9 267.309 102.605C267.023 102.31 266.659 102.163 266.217 102.163C265.81 102.163 265.459 102.315 265.164 102.618C264.869 102.913 264.722 103.389 264.722 104.048V107.701C264.722 107.788 264.692 107.861 264.631 107.922C264.579 107.974 264.51 108 264.423 108H263.799ZM276.938 108.13C276.513 108.13 276.119 108.043 275.755 107.87C275.391 107.697 275.1 107.463 274.884 107.168C274.676 106.865 274.572 106.531 274.572 106.167C274.572 105.595 274.806 105.127 275.274 104.763C275.75 104.39 276.392 104.148 277.198 104.035L279.135 103.762V103.385C279.135 102.501 278.628 102.059 277.614 102.059C277.232 102.059 276.92 102.141 276.678 102.306C276.435 102.462 276.253 102.648 276.132 102.865C276.106 102.943 276.071 102.999 276.028 103.034C275.993 103.069 275.941 103.086 275.872 103.086H275.313C275.235 103.086 275.165 103.06 275.105 103.008C275.053 102.947 275.027 102.878 275.027 102.8C275.035 102.592 275.131 102.358 275.313 102.098C275.503 101.829 275.794 101.6 276.184 101.409C276.574 101.21 277.055 101.11 277.627 101.11C278.597 101.11 279.295 101.34 279.72 101.799C280.144 102.25 280.357 102.813 280.357 103.489V107.701C280.357 107.788 280.326 107.861 280.266 107.922C280.214 107.974 280.144 108 280.058 108H279.46C279.373 108 279.299 107.974 279.239 107.922C279.187 107.861 279.161 107.788 279.161 107.701V107.142C278.97 107.419 278.693 107.653 278.329 107.844C277.965 108.035 277.501 108.13 276.938 108.13ZM277.211 107.155C277.774 107.155 278.233 106.973 278.589 106.609C278.953 106.236 279.135 105.703 279.135 105.01V104.646L277.627 104.867C277.011 104.954 276.548 105.101 276.236 105.309C275.924 105.508 275.768 105.764 275.768 106.076C275.768 106.423 275.911 106.691 276.197 106.882C276.483 107.064 276.821 107.155 277.211 107.155ZM282.421 99.979C282.334 99.979 282.26 99.953 282.2 99.901C282.148 99.8403 282.122 99.7667 282.122 99.68V98.978C282.122 98.8913 282.148 98.8177 282.2 98.757C282.26 98.6963 282.334 98.666 282.421 98.666H283.24C283.326 98.666 283.4 98.6963 283.461 98.757C283.521 98.8177 283.552 98.8913 283.552 98.978V99.68C283.552 99.7667 283.521 99.8403 283.461 99.901C283.4 99.953 283.326 99.979 283.24 99.979H282.421ZM282.525 108C282.438 108 282.364 107.974 282.304 107.922C282.252 107.861 282.226 107.788 282.226 107.701V101.539C282.226 101.452 282.252 101.383 282.304 101.331C282.364 101.27 282.438 101.24 282.525 101.24H283.149C283.235 101.24 283.305 101.27 283.357 101.331C283.417 101.383 283.448 101.452 283.448 101.539V107.701C283.448 107.788 283.417 107.861 283.357 107.922C283.305 107.974 283.235 108 283.149 108H282.525ZM285.686 108C285.599 108 285.526 107.974 285.465 107.922C285.413 107.861 285.387 107.788 285.387 107.701V99.069C285.387 98.9823 285.413 98.913 285.465 98.861C285.526 98.8003 285.599 98.77 285.686 98.77H286.297C286.384 98.77 286.453 98.8003 286.505 98.861C286.566 98.913 286.596 98.9823 286.596 99.069V107.701C286.596 107.788 286.566 107.861 286.505 107.922C286.453 107.974 286.384 108 286.297 108H285.686ZM288.743 108C288.657 108 288.583 107.974 288.522 107.922C288.47 107.861 288.444 107.788 288.444 107.701V106.765C288.444 106.678 288.47 106.609 288.522 106.557C288.583 106.496 288.657 106.466 288.743 106.466H289.679C289.766 106.466 289.84 106.496 289.9 106.557C289.961 106.609 289.991 106.678 289.991 106.765V107.701C289.991 107.788 289.961 107.861 289.9 107.922C289.84 107.974 289.766 108 289.679 108H288.743ZM294.414 108.13C293.486 108.13 292.758 107.87 292.23 107.35C291.71 106.821 291.432 106.085 291.398 105.14L291.385 104.62L291.398 104.1C291.432 103.155 291.71 102.423 292.23 101.903C292.758 101.374 293.486 101.11 294.414 101.11C295.038 101.11 295.566 101.223 296 101.448C296.433 101.673 296.754 101.951 296.962 102.28C297.178 102.609 297.295 102.939 297.313 103.268C297.321 103.355 297.295 103.424 297.235 103.476C297.174 103.528 297.1 103.554 297.014 103.554H296.39C296.303 103.554 296.238 103.537 296.195 103.502C296.151 103.467 296.108 103.398 296.065 103.294C295.917 102.878 295.709 102.583 295.441 102.41C295.172 102.228 294.834 102.137 294.427 102.137C293.889 102.137 293.46 102.306 293.14 102.644C292.828 102.973 292.659 103.48 292.633 104.165L292.62 104.633L292.633 105.075C292.659 105.768 292.828 106.28 293.14 106.609C293.452 106.938 293.881 107.103 294.427 107.103C294.834 107.103 295.172 107.016 295.441 106.843C295.709 106.661 295.917 106.362 296.065 105.946C296.108 105.842 296.151 105.773 296.195 105.738C296.238 105.695 296.303 105.673 296.39 105.673H297.014C297.1 105.673 297.174 105.703 297.235 105.764C297.295 105.816 297.321 105.885 297.313 105.972C297.295 106.293 297.178 106.622 296.962 106.96C296.754 107.289 296.433 107.567 296 107.792C295.575 108.017 295.046 108.13 294.414 108.13ZM301.626 108.13C300.672 108.13 299.931 107.861 299.403 107.324C298.883 106.787 298.605 106.072 298.571 105.179L298.558 104.62L298.571 104.061C298.605 103.177 298.887 102.466 299.416 101.929C299.944 101.383 300.681 101.11 301.626 101.11C302.57 101.11 303.307 101.383 303.836 101.929C304.364 102.466 304.646 103.177 304.681 104.061C304.689 104.156 304.694 104.343 304.694 104.62C304.694 104.897 304.689 105.084 304.681 105.179C304.646 106.072 304.364 106.787 303.836 107.324C303.316 107.861 302.579 108.13 301.626 108.13ZM301.626 107.129C302.172 107.129 302.601 106.956 302.913 106.609C303.233 106.262 303.407 105.764 303.433 105.114C303.441 105.027 303.446 104.863 303.446 104.62C303.446 104.377 303.441 104.213 303.433 104.126C303.407 103.476 303.233 102.978 302.913 102.631C302.601 102.284 302.172 102.111 301.626 102.111C301.08 102.111 300.646 102.284 300.326 102.631C300.005 102.978 299.836 103.476 299.819 104.126L299.806 104.62L299.819 105.114C299.836 105.764 300.005 106.262 300.326 106.609C300.646 106.956 301.08 107.129 301.626 107.129ZM306.62 108C306.534 108 306.46 107.974 306.399 107.922C306.347 107.861 306.321 107.788 306.321 107.701V101.539C306.321 101.452 306.347 101.383 306.399 101.331C306.46 101.27 306.534 101.24 306.62 101.24H307.205C307.292 101.24 307.361 101.27 307.413 101.331C307.474 101.383 307.504 101.452 307.504 101.539V101.994C307.955 101.405 308.583 101.11 309.389 101.11C310.351 101.11 311.032 101.509 311.43 102.306C311.638 101.942 311.933 101.652 312.314 101.435C312.696 101.218 313.125 101.11 313.601 101.11C314.312 101.11 314.893 101.353 315.343 101.838C315.794 102.323 316.019 103.025 316.019 103.944V107.701C316.019 107.788 315.989 107.861 315.928 107.922C315.876 107.974 315.807 108 315.72 108H315.109C315.023 108 314.949 107.974 314.888 107.922C314.836 107.861 314.81 107.788 314.81 107.701V104.061C314.81 103.385 314.667 102.9 314.381 102.605C314.104 102.31 313.736 102.163 313.276 102.163C312.869 102.163 312.518 102.315 312.223 102.618C311.929 102.913 311.781 103.394 311.781 104.061V107.701C311.781 107.788 311.751 107.861 311.69 107.922C311.638 107.974 311.569 108 311.482 108H310.871C310.785 108 310.711 107.974 310.65 107.922C310.598 107.861 310.572 107.788 310.572 107.701V104.061C310.572 103.385 310.425 102.9 310.13 102.605C309.844 102.31 309.48 102.163 309.038 102.163C308.631 102.163 308.28 102.315 307.985 102.618C307.691 102.913 307.543 103.389 307.543 104.048V107.701C307.543 107.788 307.513 107.861 307.452 107.922C307.4 107.974 307.331 108 307.244 108H306.62Z" fill="#303032"/>
<path d="M343 127H145V129H343V127Z" fill="#CBC9CD" mask="url(#path-21-inside-7_905_1826)"/>
<mask id="path-24-inside-8_905_1826" fill="white">
<path d="M145 128H343V177H145V128Z"/>
</mask>
<path d="M145 128H343V177H145V128Z" fill="white"/>
<path d="M166.261 157C166.174 157 166.101 156.974 166.04 156.922C165.988 156.861 165.962 156.788 165.962 156.701V150.539C165.962 150.452 165.988 150.383 166.04 150.331C166.101 150.27 166.174 150.24 166.261 150.24H166.846C166.933 150.24 167.002 150.27 167.054 150.331C167.115 150.383 167.145 150.452 167.145 150.539V150.994C167.596 150.405 168.224 150.11 169.03 150.11C169.992 150.11 170.672 150.509 171.071 151.306C171.279 150.942 171.574 150.652 171.955 150.435C172.336 150.218 172.765 150.11 173.242 150.11C173.953 150.11 174.533 150.353 174.984 150.838C175.435 151.323 175.66 152.025 175.66 152.944V156.701C175.66 156.788 175.63 156.861 175.569 156.922C175.517 156.974 175.448 157 175.361 157H174.75C174.663 157 174.59 156.974 174.529 156.922C174.477 156.861 174.451 156.788 174.451 156.701V153.061C174.451 152.385 174.308 151.9 174.022 151.605C173.745 151.31 173.376 151.163 172.917 151.163C172.51 151.163 172.159 151.315 171.864 151.618C171.569 151.913 171.422 152.394 171.422 153.061V156.701C171.422 156.788 171.392 156.861 171.331 156.922C171.279 156.974 171.21 157 171.123 157H170.512C170.425 157 170.352 156.974 170.291 156.922C170.239 156.861 170.213 156.788 170.213 156.701V153.061C170.213 152.385 170.066 151.9 169.771 151.605C169.485 151.31 169.121 151.163 168.679 151.163C168.272 151.163 167.921 151.315 167.626 151.618C167.331 151.913 167.184 152.389 167.184 153.048V156.701C167.184 156.788 167.154 156.861 167.093 156.922C167.041 156.974 166.972 157 166.885 157H166.261ZM179.4 157.13C178.975 157.13 178.581 157.043 178.217 156.87C177.853 156.697 177.562 156.463 177.346 156.168C177.138 155.865 177.034 155.531 177.034 155.167C177.034 154.595 177.268 154.127 177.736 153.763C178.212 153.39 178.854 153.148 179.66 153.035L181.597 152.762V152.385C181.597 151.501 181.09 151.059 180.076 151.059C179.694 151.059 179.382 151.141 179.14 151.306C178.897 151.462 178.715 151.648 178.594 151.865C178.568 151.943 178.533 151.999 178.49 152.034C178.455 152.069 178.403 152.086 178.334 152.086H177.775C177.697 152.086 177.627 152.06 177.567 152.008C177.515 151.947 177.489 151.878 177.489 151.8C177.497 151.592 177.593 151.358 177.775 151.098C177.965 150.829 178.256 150.6 178.646 150.409C179.036 150.21 179.517 150.11 180.089 150.11C181.059 150.11 181.757 150.34 182.182 150.799C182.606 151.25 182.819 151.813 182.819 152.489V156.701C182.819 156.788 182.788 156.861 182.728 156.922C182.676 156.974 182.606 157 182.52 157H181.922C181.835 157 181.761 156.974 181.701 156.922C181.649 156.861 181.623 156.788 181.623 156.701V156.142C181.432 156.419 181.155 156.653 180.791 156.844C180.427 157.035 179.963 157.13 179.4 157.13ZM179.673 156.155C180.236 156.155 180.695 155.973 181.051 155.609C181.415 155.236 181.597 154.703 181.597 154.01V153.646L180.089 153.867C179.473 153.954 179.01 154.101 178.698 154.309C178.386 154.508 178.23 154.764 178.23 155.076C178.23 155.423 178.373 155.691 178.659 155.882C178.945 156.064 179.283 156.155 179.673 156.155ZM187.21 157.13C186.386 157.13 185.749 156.866 185.299 156.337C184.848 155.8 184.623 155.089 184.623 154.205V150.539C184.623 150.452 184.649 150.383 184.701 150.331C184.761 150.27 184.835 150.24 184.922 150.24H185.572C185.658 150.24 185.728 150.27 185.78 150.331C185.84 150.383 185.871 150.452 185.871 150.539V154.14C185.871 155.431 186.434 156.077 187.561 156.077C188.107 156.077 188.54 155.908 188.861 155.57C189.181 155.223 189.342 154.747 189.342 154.14V150.539C189.342 150.452 189.368 150.383 189.42 150.331C189.48 150.27 189.554 150.24 189.641 150.24H190.291C190.377 150.24 190.447 150.27 190.499 150.331C190.551 150.383 190.577 150.452 190.577 150.539V156.701C190.577 156.788 190.551 156.861 190.499 156.922C190.447 156.974 190.377 157 190.291 157H189.68C189.593 157 189.519 156.974 189.459 156.922C189.407 156.861 189.381 156.788 189.381 156.701V156.129C189.138 156.458 188.843 156.71 188.497 156.883C188.15 157.048 187.721 157.13 187.21 157.13ZM192.807 157C192.72 157 192.647 156.974 192.586 156.922C192.534 156.861 192.508 156.788 192.508 156.701V150.552C192.508 150.465 192.534 150.392 192.586 150.331C192.647 150.27 192.72 150.24 192.807 150.24H193.405C193.492 150.24 193.565 150.27 193.626 150.331C193.687 150.392 193.717 150.465 193.717 150.552V151.124C194.072 150.535 194.679 150.24 195.537 150.24H196.044C196.131 150.24 196.2 150.27 196.252 150.331C196.313 150.383 196.343 150.452 196.343 150.539V151.072C196.343 151.159 196.313 151.228 196.252 151.28C196.2 151.332 196.131 151.358 196.044 151.358H195.264C194.796 151.358 194.428 151.497 194.159 151.774C193.89 152.043 193.756 152.411 193.756 152.879V156.701C193.756 156.788 193.726 156.861 193.665 156.922C193.604 156.974 193.531 157 193.444 157H192.807ZM197.641 148.979C197.555 148.979 197.481 148.953 197.42 148.901C197.368 148.84 197.342 148.767 197.342 148.68V147.978C197.342 147.891 197.368 147.818 197.42 147.757C197.481 147.696 197.555 147.666 197.641 147.666H198.46C198.547 147.666 198.621 147.696 198.681 147.757C198.742 147.818 198.772 147.891 198.772 147.978V148.68C198.772 148.767 198.742 148.84 198.681 148.901C198.621 148.953 198.547 148.979 198.46 148.979H197.641ZM197.745 157C197.659 157 197.585 156.974 197.524 156.922C197.472 156.861 197.446 156.788 197.446 156.701V150.539C197.446 150.452 197.472 150.383 197.524 150.331C197.585 150.27 197.659 150.24 197.745 150.24H198.369C198.456 150.24 198.525 150.27 198.577 150.331C198.638 150.383 198.668 150.452 198.668 150.539V156.701C198.668 156.788 198.638 156.861 198.577 156.922C198.525 156.974 198.456 157 198.369 157H197.745ZM203.325 157.13C202.397 157.13 201.669 156.87 201.141 156.35C200.621 155.821 200.343 155.085 200.309 154.14L200.296 153.62L200.309 153.1C200.343 152.155 200.621 151.423 201.141 150.903C201.669 150.374 202.397 150.11 203.325 150.11C203.949 150.11 204.477 150.223 204.911 150.448C205.344 150.673 205.665 150.951 205.873 151.28C206.089 151.609 206.206 151.939 206.224 152.268C206.232 152.355 206.206 152.424 206.146 152.476C206.085 152.528 206.011 152.554 205.925 152.554H205.301C205.214 152.554 205.149 152.537 205.106 152.502C205.062 152.467 205.019 152.398 204.976 152.294C204.828 151.878 204.62 151.583 204.352 151.41C204.083 151.228 203.745 151.137 203.338 151.137C202.8 151.137 202.371 151.306 202.051 151.644C201.739 151.973 201.57 152.48 201.544 153.165L201.531 153.633L201.544 154.075C201.57 154.768 201.739 155.28 202.051 155.609C202.363 155.938 202.792 156.103 203.338 156.103C203.745 156.103 204.083 156.016 204.352 155.843C204.62 155.661 204.828 155.362 204.976 154.946C205.019 154.842 205.062 154.773 205.106 154.738C205.149 154.695 205.214 154.673 205.301 154.673H205.925C206.011 154.673 206.085 154.703 206.146 154.764C206.206 154.816 206.232 154.885 206.224 154.972C206.206 155.293 206.089 155.622 205.873 155.96C205.665 156.289 205.344 156.567 204.911 156.792C204.486 157.017 203.957 157.13 203.325 157.13ZM210.472 157.13C209.579 157.13 208.864 156.857 208.327 156.311C207.798 155.756 207.508 155.002 207.456 154.049L207.443 153.607L207.456 153.178C207.516 152.242 207.811 151.497 208.34 150.942C208.877 150.387 209.583 150.11 210.459 150.11C211.421 150.11 212.166 150.418 212.695 151.033C213.223 151.64 213.488 152.463 213.488 153.503V153.724C213.488 153.811 213.457 153.884 213.397 153.945C213.345 153.997 213.275 154.023 213.189 154.023H208.691V154.14C208.717 154.703 208.886 155.184 209.198 155.583C209.518 155.973 209.939 156.168 210.459 156.168C210.857 156.168 211.182 156.09 211.434 155.934C211.694 155.769 211.884 155.6 212.006 155.427C212.084 155.323 212.14 155.262 212.175 155.245C212.218 155.219 212.292 155.206 212.396 155.206H213.033C213.111 155.206 213.176 155.228 213.228 155.271C213.28 155.314 213.306 155.375 213.306 155.453C213.306 155.644 213.184 155.873 212.942 156.142C212.708 156.411 212.374 156.645 211.941 156.844C211.516 157.035 211.026 157.13 210.472 157.13ZM212.253 153.126V153.087C212.253 152.489 212.088 152.004 211.759 151.631C211.438 151.25 211.005 151.059 210.459 151.059C209.913 151.059 209.479 151.25 209.159 151.631C208.847 152.004 208.691 152.489 208.691 153.087V153.126H212.253ZM215.25 157C215.163 157 215.09 156.974 215.029 156.922C214.977 156.861 214.951 156.788 214.951 156.701V155.765C214.951 155.678 214.977 155.609 215.029 155.557C215.09 155.496 215.163 155.466 215.25 155.466H216.186C216.273 155.466 216.346 155.496 216.407 155.557C216.468 155.609 216.498 155.678 216.498 155.765V156.701C216.498 156.788 216.468 156.861 216.407 156.922C216.346 156.974 216.273 157 216.186 157H215.25ZM218.616 157C218.53 157 218.456 156.974 218.395 156.922C218.343 156.861 218.317 156.788 218.317 156.701V150.539C218.317 150.452 218.343 150.383 218.395 150.331C218.456 150.27 218.53 150.24 218.616 150.24H219.201C219.288 150.24 219.357 150.27 219.409 150.331C219.47 150.383 219.5 150.452 219.5 150.539V150.994C219.951 150.405 220.579 150.11 221.385 150.11C222.347 150.11 223.028 150.509 223.426 151.306C223.634 150.942 223.929 150.652 224.31 150.435C224.692 150.218 225.121 150.11 225.597 150.11C226.308 150.11 226.889 150.353 227.339 150.838C227.79 151.323 228.015 152.025 228.015 152.944V156.701C228.015 156.788 227.985 156.861 227.924 156.922C227.872 156.974 227.803 157 227.716 157H227.105C227.019 157 226.945 156.974 226.884 156.922C226.832 156.861 226.806 156.788 226.806 156.701V153.061C226.806 152.385 226.663 151.9 226.377 151.605C226.1 151.31 225.732 151.163 225.272 151.163C224.865 151.163 224.514 151.315 224.219 151.618C223.925 151.913 223.777 152.394 223.777 153.061V156.701C223.777 156.788 223.747 156.861 223.686 156.922C223.634 156.974 223.565 157 223.478 157H222.867C222.781 157 222.707 156.974 222.646 156.922C222.594 156.861 222.568 156.788 222.568 156.701V153.061C222.568 152.385 222.421 151.9 222.126 151.605C221.84 151.31 221.476 151.163 221.034 151.163C220.627 151.163 220.276 151.315 219.981 151.618C219.687 151.913 219.539 152.389 219.539 153.048V156.701C219.539 156.788 219.509 156.861 219.448 156.922C219.396 156.974 219.327 157 219.24 157H218.616ZM232.639 157.13C231.686 157.13 230.945 156.861 230.416 156.324C229.896 155.787 229.619 155.072 229.584 154.179L229.571 153.62L229.584 153.061C229.619 152.177 229.901 151.466 230.429 150.929C230.958 150.383 231.695 150.11 232.639 150.11C233.584 150.11 234.321 150.383 234.849 150.929C235.378 151.466 235.66 152.177 235.694 153.061C235.703 153.156 235.707 153.343 235.707 153.62C235.707 153.897 235.703 154.084 235.694 154.179C235.66 155.072 235.378 155.787 234.849 156.324C234.329 156.861 233.593 157.13 232.639 157.13ZM232.639 156.129C233.185 156.129 233.614 155.956 233.926 155.609C234.247 155.262 234.42 154.764 234.446 154.114C234.455 154.027 234.459 153.863 234.459 153.62C234.459 153.377 234.455 153.213 234.446 153.126C234.42 152.476 234.247 151.978 233.926 151.631C233.614 151.284 233.185 151.111 232.639 151.111C232.093 151.111 231.66 151.284 231.339 151.631C231.019 151.978 230.85 152.476 230.832 153.126L230.819 153.62L230.832 154.114C230.85 154.764 231.019 155.262 231.339 155.609C231.66 155.956 232.093 156.129 232.639 156.129ZM239.675 157.13C239.068 157.13 238.557 157.035 238.141 156.844C237.734 156.645 237.426 156.419 237.218 156.168C237.019 155.917 236.919 155.709 236.919 155.544C236.919 155.457 236.949 155.392 237.01 155.349C237.079 155.297 237.149 155.271 237.218 155.271H237.803C237.89 155.271 237.968 155.314 238.037 155.401C238.245 155.644 238.47 155.834 238.713 155.973C238.956 156.112 239.281 156.181 239.688 156.181C240.139 156.181 240.503 156.094 240.78 155.921C241.066 155.739 241.209 155.492 241.209 155.18C241.209 154.972 241.148 154.803 241.027 154.673C240.914 154.534 240.715 154.417 240.429 154.322C240.152 154.218 239.736 154.105 239.181 153.984C238.427 153.819 237.89 153.581 237.569 153.269C237.257 152.957 237.101 152.554 237.101 152.06C237.101 151.731 237.196 151.419 237.387 151.124C237.586 150.821 237.872 150.578 238.245 150.396C238.626 150.205 239.081 150.11 239.61 150.11C240.165 150.11 240.637 150.201 241.027 150.383C241.417 150.565 241.707 150.782 241.898 151.033C242.097 151.276 242.197 151.479 242.197 151.644C242.197 151.722 242.167 151.787 242.106 151.839C242.054 151.891 241.989 151.917 241.911 151.917H241.365C241.261 151.917 241.174 151.874 241.105 151.787C240.966 151.622 240.845 151.497 240.741 151.41C240.646 151.315 240.503 151.232 240.312 151.163C240.13 151.094 239.896 151.059 239.61 151.059C239.194 151.059 238.873 151.15 238.648 151.332C238.423 151.505 238.31 151.735 238.31 152.021C238.31 152.203 238.358 152.359 238.453 152.489C238.548 152.61 238.73 152.723 238.999 152.827C239.276 152.931 239.675 153.039 240.195 153.152C241.018 153.325 241.599 153.577 241.937 153.906C242.284 154.227 242.457 154.638 242.457 155.141C242.457 155.514 242.349 155.852 242.132 156.155C241.915 156.458 241.595 156.697 241.17 156.87C240.754 157.043 240.256 157.13 239.675 157.13ZM246.302 157.13C245.695 157.13 245.184 157.035 244.768 156.844C244.361 156.645 244.053 156.419 243.845 156.168C243.646 155.917 243.546 155.709 243.546 155.544C243.546 155.457 243.576 155.392 243.637 155.349C243.706 155.297 243.776 155.271 243.845 155.271H244.43C244.517 155.271 244.595 155.314 244.664 155.401C244.872 155.644 245.097 155.834 245.34 155.973C245.583 156.112 245.908 156.181 246.315 156.181C246.766 156.181 247.13 156.094 247.407 155.921C247.693 155.739 247.836 155.492 247.836 155.18C247.836 154.972 247.775 154.803 247.654 154.673C247.541 154.534 247.342 154.417 247.056 154.322C246.779 154.218 246.363 154.105 245.808 153.984C245.054 153.819 244.517 153.581 244.196 153.269C243.884 152.957 243.728 152.554 243.728 152.06C243.728 151.731 243.823 151.419 244.014 151.124C244.213 150.821 244.499 150.578 244.872 150.396C245.253 150.205 245.708 150.11 246.237 150.11C246.792 150.11 247.264 150.201 247.654 150.383C248.044 150.565 248.334 150.782 248.525 151.033C248.724 151.276 248.824 151.479 248.824 151.644C248.824 151.722 248.794 151.787 248.733 151.839C248.681 151.891 248.616 151.917 248.538 151.917H247.992C247.888 151.917 247.801 151.874 247.732 151.787C247.593 151.622 247.472 151.497 247.368 151.41C247.273 151.315 247.13 151.232 246.939 151.163C246.757 151.094 246.523 151.059 246.237 151.059C245.821 151.059 245.5 151.15 245.275 151.332C245.05 151.505 244.937 151.735 244.937 152.021C244.937 152.203 244.985 152.359 245.08 152.489C245.175 152.61 245.357 152.723 245.626 152.827C245.903 152.931 246.302 153.039 246.822 153.152C247.645 153.325 248.226 153.577 248.564 153.906C248.911 154.227 249.084 154.638 249.084 155.141C249.084 155.514 248.976 155.852 248.759 156.155C248.542 156.458 248.222 156.697 247.797 156.87C247.381 157.043 246.883 157.13 246.302 157.13ZM254.97 158.534C253.601 158.534 252.53 158.187 251.759 157.494C250.988 156.809 250.537 155.834 250.407 154.569C250.381 154.318 250.368 153.945 250.368 153.451C250.368 152.931 250.381 152.563 250.407 152.346C250.537 151.115 250.988 150.145 251.759 149.434C252.539 148.715 253.592 148.355 254.918 148.355C256.452 148.355 257.605 148.702 258.376 149.395C259.147 150.08 259.568 151.063 259.637 152.346C259.654 152.693 259.663 152.961 259.663 153.152C259.663 153.542 259.654 153.841 259.637 154.049C259.602 154.673 259.429 155.15 259.117 155.479C258.814 155.808 258.398 155.973 257.869 155.973C257.496 155.973 257.193 155.895 256.959 155.739C256.725 155.583 256.547 155.414 256.426 155.232C256.279 155.475 256.079 155.683 255.828 155.856C255.585 156.021 255.234 156.103 254.775 156.103C254.125 156.103 253.609 155.873 253.228 155.414C252.855 154.946 252.669 154.292 252.669 153.451C252.669 152.61 252.855 151.956 253.228 151.488C253.609 151.02 254.125 150.786 254.775 150.786C255.096 150.786 255.356 150.847 255.555 150.968C255.763 151.081 255.945 151.228 256.101 151.41V151.189C256.101 151.102 256.127 151.033 256.179 150.981C256.24 150.92 256.313 150.89 256.4 150.89H256.751C256.838 150.89 256.907 150.92 256.959 150.981C257.02 151.033 257.05 151.102 257.05 151.189V153.958C257.05 154.313 257.124 154.586 257.271 154.777C257.418 154.968 257.618 155.063 257.869 155.063C258.172 155.063 258.38 154.95 258.493 154.725C258.614 154.5 258.679 154.244 258.688 153.958C258.705 153.75 258.714 153.481 258.714 153.152C258.714 153.005 258.705 152.758 258.688 152.411C258.61 151.354 258.276 150.565 257.687 150.045C257.106 149.516 256.183 149.252 254.918 149.252C253.869 149.252 253.042 149.529 252.435 150.084C251.837 150.63 251.477 151.406 251.356 152.411C251.33 152.628 251.317 152.974 251.317 153.451C251.317 153.902 251.33 154.253 251.356 154.504C251.46 155.501 251.82 156.272 252.435 156.818C253.05 157.355 253.895 157.624 254.97 157.624C255.533 157.624 255.997 157.576 256.361 157.481C256.734 157.394 257.002 157.299 257.167 157.195C257.34 157.091 257.54 156.952 257.765 156.779C257.782 156.77 257.821 156.74 257.882 156.688C257.943 156.645 258.016 156.623 258.103 156.623H258.623C258.701 156.623 258.766 156.649 258.818 156.701C258.879 156.753 258.909 156.822 258.909 156.909C258.909 156.978 258.883 157.039 258.831 157.091C258.432 157.524 257.925 157.871 257.31 158.131C256.703 158.4 255.923 158.534 254.97 158.534ZM254.853 155.193C255.295 155.193 255.611 155.046 255.802 154.751C256.001 154.448 256.101 154.014 256.101 153.451C256.101 152.888 256.001 152.454 255.802 152.151C255.611 151.848 255.295 151.696 254.853 151.696C254.428 151.696 254.116 151.852 253.917 152.164C253.718 152.467 253.618 152.896 253.618 153.451C253.618 153.962 253.718 154.383 253.917 154.712C254.125 155.033 254.437 155.193 254.853 155.193ZM264.174 159.86C263.464 159.86 262.892 159.739 262.458 159.496C262.025 159.262 261.717 158.993 261.535 158.69C261.353 158.387 261.254 158.114 261.236 157.871C261.228 157.784 261.254 157.711 261.314 157.65C261.384 157.589 261.457 157.559 261.535 157.559H262.159C262.237 157.559 262.302 157.576 262.354 157.611C262.406 157.654 262.45 157.728 262.484 157.832C262.588 158.109 262.757 158.348 262.991 158.547C263.234 158.755 263.607 158.859 264.109 158.859C264.751 158.859 265.223 158.72 265.526 158.443C265.83 158.174 265.981 157.693 265.981 157V156.116C265.756 156.402 265.47 156.632 265.123 156.805C264.777 156.97 264.365 157.052 263.888 157.052C262.97 157.052 262.281 156.762 261.821 156.181C261.371 155.592 261.132 154.846 261.106 153.945L261.093 153.581L261.106 153.23C261.132 152.337 261.375 151.596 261.834 151.007C262.294 150.409 262.978 150.11 263.888 150.11C264.798 150.11 265.509 150.444 266.02 151.111V150.552C266.02 150.465 266.046 150.392 266.098 150.331C266.159 150.27 266.233 150.24 266.319 150.24H266.917C267.004 150.24 267.078 150.27 267.138 150.331C267.199 150.392 267.229 150.465 267.229 150.552V156.857C267.229 158.859 266.211 159.86 264.174 159.86ZM264.148 156.012C264.738 156.012 265.184 155.817 265.487 155.427C265.791 155.037 265.955 154.573 265.981 154.036C265.99 153.958 265.994 153.806 265.994 153.581C265.994 153.364 265.99 153.217 265.981 153.139C265.955 152.602 265.791 152.138 265.487 151.748C265.193 151.358 264.746 151.163 264.148 151.163C263.533 151.163 263.087 151.354 262.809 151.735C262.532 152.116 262.38 152.619 262.354 153.243L262.341 153.581L262.354 153.932C262.38 154.547 262.532 155.05 262.809 155.44C263.087 155.821 263.533 156.012 264.148 156.012ZM269.461 157C269.375 157 269.301 156.974 269.24 156.922C269.188 156.861 269.162 156.788 269.162 156.701V150.539C269.162 150.452 269.188 150.383 269.24 150.331C269.301 150.27 269.375 150.24 269.461 150.24H270.046C270.133 150.24 270.202 150.27 270.254 150.331C270.315 150.383 270.345 150.452 270.345 150.539V150.994C270.796 150.405 271.424 150.11 272.23 150.11C273.192 150.11 273.873 150.509 274.271 151.306C274.479 150.942 274.774 150.652 275.155 150.435C275.537 150.218 275.966 150.11 276.442 150.11C277.153 150.11 277.734 150.353 278.184 150.838C278.635 151.323 278.86 152.025 278.86 152.944V156.701C278.86 156.788 278.83 156.861 278.769 156.922C278.717 156.974 278.648 157 278.561 157H277.95C277.864 157 277.79 156.974 277.729 156.922C277.677 156.861 277.651 156.788 277.651 156.701V153.061C277.651 152.385 277.508 151.9 277.222 151.605C276.945 151.31 276.577 151.163 276.117 151.163C275.71 151.163 275.359 151.315 275.064 151.618C274.77 151.913 274.622 152.394 274.622 153.061V156.701C274.622 156.788 274.592 156.861 274.531 156.922C274.479 156.974 274.41 157 274.323 157H273.712C273.626 157 273.552 156.974 273.491 156.922C273.439 156.861 273.413 156.788 273.413 156.701V153.061C273.413 152.385 273.266 151.9 272.971 151.605C272.685 151.31 272.321 151.163 271.879 151.163C271.472 151.163 271.121 151.315 270.826 151.618C270.532 151.913 270.384 152.389 270.384 153.048V156.701C270.384 156.788 270.354 156.861 270.293 156.922C270.241 156.974 270.172 157 270.085 157H269.461ZM282.6 157.13C282.175 157.13 281.781 157.043 281.417 156.87C281.053 156.697 280.763 156.463 280.546 156.168C280.338 155.865 280.234 155.531 280.234 155.167C280.234 154.595 280.468 154.127 280.936 153.763C281.413 153.39 282.054 153.148 282.86 153.035L284.797 152.762V152.385C284.797 151.501 284.29 151.059 283.276 151.059C282.895 151.059 282.583 151.141 282.34 151.306C282.097 151.462 281.915 151.648 281.794 151.865C281.768 151.943 281.733 151.999 281.69 152.034C281.655 152.069 281.603 152.086 281.534 152.086H280.975C280.897 152.086 280.828 152.06 280.767 152.008C280.715 151.947 280.689 151.878 280.689 151.8C280.698 151.592 280.793 151.358 280.975 151.098C281.166 150.829 281.456 150.6 281.846 150.409C282.236 150.21 282.717 150.11 283.289 150.11C284.26 150.11 284.957 150.34 285.382 150.799C285.807 151.25 286.019 151.813 286.019 152.489V156.701C286.019 156.788 285.989 156.861 285.928 156.922C285.876 156.974 285.807 157 285.72 157H285.122C285.035 157 284.962 156.974 284.901 156.922C284.849 156.861 284.823 156.788 284.823 156.701V156.142C284.632 156.419 284.355 156.653 283.991 156.844C283.627 157.035 283.163 157.13 282.6 157.13ZM282.873 156.155C283.436 156.155 283.896 155.973 284.251 155.609C284.615 155.236 284.797 154.703 284.797 154.01V153.646L283.289 153.867C282.674 153.954 282.21 154.101 281.898 154.309C281.586 154.508 281.43 154.764 281.43 155.076C281.43 155.423 281.573 155.691 281.859 155.882C282.145 156.064 282.483 156.155 282.873 156.155ZM288.083 148.979C287.996 148.979 287.922 148.953 287.862 148.901C287.81 148.84 287.784 148.767 287.784 148.68V147.978C287.784 147.891 287.81 147.818 287.862 147.757C287.922 147.696 287.996 147.666 288.083 147.666H288.902C288.988 147.666 289.062 147.696 289.123 147.757C289.183 147.818 289.214 147.891 289.214 147.978V148.68C289.214 148.767 289.183 148.84 289.123 148.901C289.062 148.953 288.988 148.979 288.902 148.979H288.083ZM288.187 157C288.1 157 288.026 156.974 287.966 156.922C287.914 156.861 287.888 156.788 287.888 156.701V150.539C287.888 150.452 287.914 150.383 287.966 150.331C288.026 150.27 288.1 150.24 288.187 150.24H288.811C288.897 150.24 288.967 150.27 289.019 150.331C289.079 150.383 289.11 150.452 289.11 150.539V156.701C289.11 156.788 289.079 156.861 289.019 156.922C288.967 156.974 288.897 157 288.811 157H288.187ZM291.348 157C291.262 157 291.188 156.974 291.127 156.922C291.075 156.861 291.049 156.788 291.049 156.701V148.069C291.049 147.982 291.075 147.913 291.127 147.861C291.188 147.8 291.262 147.77 291.348 147.77H291.959C292.046 147.77 292.115 147.8 292.167 147.861C292.228 147.913 292.258 147.982 292.258 148.069V156.701C292.258 156.788 292.228 156.861 292.167 156.922C292.115 156.974 292.046 157 291.959 157H291.348ZM294.405 157C294.319 157 294.245 156.974 294.184 156.922C294.132 156.861 294.106 156.788 294.106 156.701V155.765C294.106 155.678 294.132 155.609 294.184 155.557C294.245 155.496 294.319 155.466 294.405 155.466H295.341C295.428 155.466 295.502 155.496 295.562 155.557C295.623 155.609 295.653 155.678 295.653 155.765V156.701C295.653 156.788 295.623 156.861 295.562 156.922C295.502 156.974 295.428 157 295.341 157H294.405ZM300.076 157.13C299.148 157.13 298.42 156.87 297.892 156.35C297.372 155.821 297.094 155.085 297.06 154.14L297.047 153.62L297.06 153.1C297.094 152.155 297.372 151.423 297.892 150.903C298.42 150.374 299.148 150.11 300.076 150.11C300.7 150.11 301.228 150.223 301.662 150.448C302.095 150.673 302.416 150.951 302.624 151.28C302.84 151.609 302.957 151.939 302.975 152.268C302.983 152.355 302.957 152.424 302.897 152.476C302.836 152.528 302.762 152.554 302.676 152.554H302.052C301.965 152.554 301.9 152.537 301.857 152.502C301.813 152.467 301.77 152.398 301.727 152.294C301.579 151.878 301.371 151.583 301.103 151.41C300.834 151.228 300.496 151.137 300.089 151.137C299.551 151.137 299.122 151.306 298.802 151.644C298.49 151.973 298.321 152.48 298.295 153.165L298.282 153.633L298.295 154.075C298.321 154.768 298.49 155.28 298.802 155.609C299.114 155.938 299.543 156.103 300.089 156.103C300.496 156.103 300.834 156.016 301.103 155.843C301.371 155.661 301.579 155.362 301.727 154.946C301.77 154.842 301.813 154.773 301.857 154.738C301.9 154.695 301.965 154.673 302.052 154.673H302.676C302.762 154.673 302.836 154.703 302.897 154.764C302.957 154.816 302.983 154.885 302.975 154.972C302.957 155.293 302.84 155.622 302.624 155.96C302.416 156.289 302.095 156.567 301.662 156.792C301.237 157.017 300.708 157.13 300.076 157.13ZM307.288 157.13C306.334 157.13 305.593 156.861 305.065 156.324C304.545 155.787 304.267 155.072 304.233 154.179L304.22 153.62L304.233 153.061C304.267 152.177 304.549 151.466 305.078 150.929C305.606 150.383 306.343 150.11 307.288 150.11C308.232 150.11 308.969 150.383 309.498 150.929C310.026 151.466 310.308 152.177 310.343 153.061C310.351 153.156 310.356 153.343 310.356 153.62C310.356 153.897 310.351 154.084 310.343 154.179C310.308 155.072 310.026 155.787 309.498 156.324C308.978 156.861 308.241 157.13 307.288 157.13ZM307.288 156.129C307.834 156.129 308.263 155.956 308.575 155.609C308.895 155.262 309.069 154.764 309.095 154.114C309.103 154.027 309.108 153.863 309.108 153.62C309.108 153.377 309.103 153.213 309.095 153.126C309.069 152.476 308.895 151.978 308.575 151.631C308.263 151.284 307.834 151.111 307.288 151.111C306.742 151.111 306.308 151.284 305.988 151.631C305.667 151.978 305.498 152.476 305.481 153.126L305.468 153.62L305.481 154.114C305.498 154.764 305.667 155.262 305.988 155.609C306.308 155.956 306.742 156.129 307.288 156.129ZM312.282 157C312.196 157 312.122 156.974 312.061 156.922C312.009 156.861 311.983 156.788 311.983 156.701V150.539C311.983 150.452 312.009 150.383 312.061 150.331C312.122 150.27 312.196 150.24 312.282 150.24H312.867C312.954 150.24 313.023 150.27 313.075 150.331C313.136 150.383 313.166 150.452 313.166 150.539V150.994C313.617 150.405 314.245 150.11 315.051 150.11C316.013 150.11 316.694 150.509 317.092 151.306C317.3 150.942 317.595 150.652 317.976 150.435C318.358 150.218 318.787 150.11 319.263 150.11C319.974 150.11 320.555 150.353 321.005 150.838C321.456 151.323 321.681 152.025 321.681 152.944V156.701C321.681 156.788 321.651 156.861 321.59 156.922C321.538 156.974 321.469 157 321.382 157H320.771C320.685 157 320.611 156.974 320.55 156.922C320.498 156.861 320.472 156.788 320.472 156.701V153.061C320.472 152.385 320.329 151.9 320.043 151.605C319.766 151.31 319.398 151.163 318.938 151.163C318.531 151.163 318.18 151.315 317.885 151.618C317.591 151.913 317.443 152.394 317.443 153.061V156.701C317.443 156.788 317.413 156.861 317.352 156.922C317.3 156.974 317.231 157 317.144 157H316.533C316.447 157 316.373 156.974 316.312 156.922C316.26 156.861 316.234 156.788 316.234 156.701V153.061C316.234 152.385 316.087 151.9 315.792 151.605C315.506 151.31 315.142 151.163 314.7 151.163C314.293 151.163 313.942 151.315 313.647 151.618C313.353 151.913 313.205 152.389 313.205 153.048V156.701C313.205 156.788 313.175 156.861 313.114 156.922C313.062 156.974 312.993 157 312.906 157H312.282Z" fill="#303032"/>
<path d="M343 176H145V178H343V176Z" fill="#CBC9CD" mask="url(#path-24-inside-8_905_1826)"/>
<mask id="path-27-inside-9_905_1826" fill="white">
<path d="M145 177H343V226H145V177Z"/>
</mask>
<path d="M145 177H343V226H145V177Z" fill="white"/>
<path d="M168.666 206.13C167.773 206.13 167.058 205.857 166.521 205.311C165.992 204.756 165.702 204.002 165.65 203.049L165.637 202.607L165.65 202.178C165.711 201.242 166.005 200.497 166.534 199.942C167.071 199.387 167.778 199.11 168.653 199.11C169.615 199.11 170.36 199.418 170.889 200.033C171.418 200.64 171.682 201.463 171.682 202.503V202.724C171.682 202.811 171.652 202.884 171.591 202.945C171.539 202.997 171.47 203.023 171.383 203.023H166.885V203.14C166.911 203.703 167.08 204.184 167.392 204.583C167.713 204.973 168.133 205.168 168.653 205.168C169.052 205.168 169.377 205.09 169.628 204.934C169.888 204.769 170.079 204.6 170.2 204.427C170.278 204.323 170.334 204.262 170.369 204.245C170.412 204.219 170.486 204.206 170.59 204.206H171.227C171.305 204.206 171.37 204.228 171.422 204.271C171.474 204.314 171.5 204.375 171.5 204.453C171.5 204.644 171.379 204.873 171.136 205.142C170.902 205.411 170.568 205.645 170.135 205.844C169.71 206.035 169.221 206.13 168.666 206.13ZM170.447 202.126V202.087C170.447 201.489 170.282 201.004 169.953 200.631C169.632 200.25 169.199 200.059 168.653 200.059C168.107 200.059 167.674 200.25 167.353 200.631C167.041 201.004 166.885 201.489 166.885 202.087V202.126H170.447ZM173.548 206C173.462 206 173.388 205.974 173.327 205.922C173.275 205.861 173.249 205.788 173.249 205.701V197.069C173.249 196.982 173.275 196.913 173.327 196.861C173.388 196.8 173.462 196.77 173.548 196.77H174.159C174.246 196.77 174.315 196.8 174.367 196.861C174.428 196.913 174.458 196.982 174.458 197.069V205.701C174.458 205.788 174.428 205.861 174.367 205.922C174.315 205.974 174.246 206 174.159 206H173.548ZM176.71 206C176.623 206 176.549 205.974 176.489 205.922C176.437 205.861 176.411 205.788 176.411 205.701V197.069C176.411 196.982 176.437 196.913 176.489 196.861C176.549 196.8 176.623 196.77 176.71 196.77H177.321C177.407 196.77 177.477 196.8 177.529 196.861C177.589 196.913 177.62 196.982 177.62 197.069V205.701C177.62 205.788 177.589 205.861 177.529 205.922C177.477 205.974 177.407 206 177.321 206H176.71ZM179.754 197.979C179.667 197.979 179.593 197.953 179.533 197.901C179.481 197.84 179.455 197.767 179.455 197.68V196.978C179.455 196.891 179.481 196.818 179.533 196.757C179.593 196.696 179.667 196.666 179.754 196.666H180.573C180.659 196.666 180.733 196.696 180.794 196.757C180.854 196.818 180.885 196.891 180.885 196.978V197.68C180.885 197.767 180.854 197.84 180.794 197.901C180.733 197.953 180.659 197.979 180.573 197.979H179.754ZM179.858 206C179.771 206 179.697 205.974 179.637 205.922C179.585 205.861 179.559 205.788 179.559 205.701V199.539C179.559 199.452 179.585 199.383 179.637 199.331C179.697 199.27 179.771 199.24 179.858 199.24H180.482C180.568 199.24 180.638 199.27 180.69 199.331C180.75 199.383 180.781 199.452 180.781 199.539V205.701C180.781 205.788 180.75 205.861 180.69 205.922C180.638 205.974 180.568 206 180.482 206H179.858ZM185.476 206.13C184.523 206.13 183.782 205.861 183.253 205.324C182.733 204.787 182.456 204.072 182.421 203.179L182.408 202.62L182.421 202.061C182.456 201.177 182.737 200.466 183.266 199.929C183.795 199.383 184.531 199.11 185.476 199.11C186.421 199.11 187.157 199.383 187.686 199.929C188.215 200.466 188.496 201.177 188.531 202.061C188.54 202.156 188.544 202.343 188.544 202.62C188.544 202.897 188.54 203.084 188.531 203.179C188.496 204.072 188.215 204.787 187.686 205.324C187.166 205.861 186.429 206.13 185.476 206.13ZM185.476 205.129C186.022 205.129 186.451 204.956 186.763 204.609C187.084 204.262 187.257 203.764 187.283 203.114C187.292 203.027 187.296 202.863 187.296 202.62C187.296 202.377 187.292 202.213 187.283 202.126C187.257 201.476 187.084 200.978 186.763 200.631C186.451 200.284 186.022 200.111 185.476 200.111C184.93 200.111 184.497 200.284 184.176 200.631C183.855 200.978 183.686 201.476 183.669 202.126L183.656 202.62L183.669 203.114C183.686 203.764 183.855 204.262 184.176 204.609C184.497 204.956 184.93 205.129 185.476 205.129ZM192.747 206C191.378 206 190.693 205.237 190.693 203.712V200.28H189.679C189.593 200.28 189.519 200.254 189.458 200.202C189.406 200.141 189.38 200.068 189.38 199.981V199.539C189.38 199.452 189.406 199.383 189.458 199.331C189.519 199.27 189.593 199.24 189.679 199.24H190.693V197.069C190.693 196.982 190.719 196.913 190.771 196.861C190.832 196.8 190.906 196.77 190.992 196.77H191.603C191.69 196.77 191.759 196.8 191.811 196.861C191.872 196.913 191.902 196.982 191.902 197.069V199.24H193.514C193.601 199.24 193.67 199.27 193.722 199.331C193.783 199.383 193.813 199.452 193.813 199.539V199.981C193.813 200.068 193.783 200.141 193.722 200.202C193.67 200.254 193.601 200.28 193.514 200.28H191.902V203.621C191.902 204.054 191.976 204.384 192.123 204.609C192.271 204.826 192.513 204.934 192.851 204.934H193.644C193.731 204.934 193.8 204.964 193.852 205.025C193.913 205.077 193.943 205.146 193.943 205.233V205.701C193.943 205.788 193.913 205.861 193.852 205.922C193.8 205.974 193.731 206 193.644 206H192.747ZM195.395 206C195.308 206 195.234 205.974 195.174 205.922C195.122 205.861 195.096 205.788 195.096 205.701V204.765C195.096 204.678 195.122 204.609 195.174 204.557C195.234 204.496 195.308 204.466 195.395 204.466H196.331C196.417 204.466 196.491 204.496 196.552 204.557C196.612 204.609 196.643 204.678 196.643 204.765V205.701C196.643 205.788 196.612 205.861 196.552 205.922C196.491 205.974 196.417 206 196.331 206H195.395ZM200.347 206.13C199.922 206.13 199.528 206.043 199.164 205.87C198.8 205.697 198.51 205.463 198.293 205.168C198.085 204.865 197.981 204.531 197.981 204.167C197.981 203.595 198.215 203.127 198.683 202.763C199.16 202.39 199.801 202.148 200.607 202.035L202.544 201.762V201.385C202.544 200.501 202.037 200.059 201.023 200.059C200.642 200.059 200.33 200.141 200.087 200.306C199.844 200.462 199.662 200.648 199.541 200.865C199.515 200.943 199.48 200.999 199.437 201.034C199.402 201.069 199.35 201.086 199.281 201.086H198.722C198.644 201.086 198.575 201.06 198.514 201.008C198.462 200.947 198.436 200.878 198.436 200.8C198.445 200.592 198.54 200.358 198.722 200.098C198.913 199.829 199.203 199.6 199.593 199.409C199.983 199.21 200.464 199.11 201.036 199.11C202.007 199.11 202.704 199.34 203.129 199.799C203.554 200.25 203.766 200.813 203.766 201.489V205.701C203.766 205.788 203.736 205.861 203.675 205.922C203.623 205.974 203.554 206 203.467 206H202.869C202.782 206 202.709 205.974 202.648 205.922C202.596 205.861 202.57 205.788 202.57 205.701V205.142C202.379 205.419 202.102 205.653 201.738 205.844C201.374 206.035 200.91 206.13 200.347 206.13ZM200.62 205.155C201.183 205.155 201.643 204.973 201.998 204.609C202.362 204.236 202.544 203.703 202.544 203.01V202.646L201.036 202.867C200.421 202.954 199.957 203.101 199.645 203.309C199.333 203.508 199.177 203.764 199.177 204.076C199.177 204.423 199.32 204.691 199.606 204.882C199.892 205.064 200.23 205.155 200.62 205.155ZM205.947 206C205.86 206 205.787 205.974 205.726 205.922C205.674 205.861 205.648 205.788 205.648 205.701V197.069C205.648 196.982 205.674 196.913 205.726 196.861C205.787 196.8 205.86 196.77 205.947 196.77H206.558C206.645 196.77 206.714 196.8 206.766 196.861C206.827 196.913 206.857 196.982 206.857 197.069V205.701C206.857 205.788 206.827 205.861 206.766 205.922C206.714 205.974 206.645 206 206.558 206H205.947ZM211.266 206.13C210.365 206.13 209.684 205.835 209.225 205.246C208.766 204.657 208.523 203.911 208.497 203.01L208.484 202.62L208.497 202.23C208.523 201.337 208.766 200.596 209.225 200.007C209.684 199.409 210.365 199.11 211.266 199.11C212.159 199.11 212.861 199.426 213.372 200.059V197.069C213.372 196.982 213.398 196.913 213.45 196.861C213.511 196.8 213.584 196.77 213.671 196.77H214.295C214.382 196.77 214.451 196.8 214.503 196.861C214.564 196.913 214.594 196.982 214.594 197.069V205.701C214.594 205.788 214.564 205.861 214.503 205.922C214.451 205.974 214.382 206 214.295 206H213.71C213.623 206 213.55 205.974 213.489 205.922C213.437 205.861 213.411 205.788 213.411 205.701V205.155C212.908 205.805 212.193 206.13 211.266 206.13ZM211.539 205.077C212.137 205.077 212.583 204.882 212.878 204.492C213.181 204.093 213.346 203.621 213.372 203.075C213.381 202.98 213.385 202.815 213.385 202.581C213.385 202.338 213.381 202.169 213.372 202.074C213.355 201.563 213.19 201.116 212.878 200.735C212.566 200.354 212.12 200.163 211.539 200.163C210.924 200.163 210.473 200.354 210.187 200.735C209.91 201.116 209.758 201.619 209.732 202.243L209.719 202.62C209.719 204.258 210.326 205.077 211.539 205.077ZM219.231 206.13C218.339 206.13 217.624 205.857 217.086 205.311C216.558 204.756 216.267 204.002 216.215 203.049L216.202 202.607L216.215 202.178C216.276 201.242 216.571 200.497 217.099 199.942C217.637 199.387 218.343 199.11 219.218 199.11C220.18 199.11 220.926 199.418 221.454 200.033C221.983 200.64 222.247 201.463 222.247 202.503V202.724C222.247 202.811 222.217 202.884 222.156 202.945C222.104 202.997 222.035 203.023 221.948 203.023H217.45V203.14C217.476 203.703 217.645 204.184 217.957 204.583C218.278 204.973 218.698 205.168 219.218 205.168C219.617 205.168 219.942 205.09 220.193 204.934C220.453 204.769 220.644 204.6 220.765 204.427C220.843 204.323 220.9 204.262 220.934 204.245C220.978 204.219 221.051 204.206 221.155 204.206H221.792C221.87 204.206 221.935 204.228 221.987 204.271C222.039 204.314 222.065 204.375 222.065 204.453C222.065 204.644 221.944 204.873 221.701 205.142C221.467 205.411 221.134 205.645 220.7 205.844C220.276 206.035 219.786 206.13 219.231 206.13ZM221.012 202.126V202.087C221.012 201.489 220.848 201.004 220.518 200.631C220.198 200.25 219.764 200.059 219.218 200.059C218.672 200.059 218.239 200.25 217.918 200.631C217.606 201.004 217.45 201.489 217.45 202.087V202.126H221.012ZM224.101 206C224.014 206 223.941 205.974 223.88 205.922C223.828 205.861 223.802 205.788 223.802 205.701V199.552C223.802 199.465 223.828 199.392 223.88 199.331C223.941 199.27 224.014 199.24 224.101 199.24H224.699C224.786 199.24 224.859 199.27 224.92 199.331C224.981 199.392 225.011 199.465 225.011 199.552V200.124C225.366 199.535 225.973 199.24 226.831 199.24H227.338C227.425 199.24 227.494 199.27 227.546 199.331C227.607 199.383 227.637 199.452 227.637 199.539V200.072C227.637 200.159 227.607 200.228 227.546 200.28C227.494 200.332 227.425 200.358 227.338 200.358H226.558C226.09 200.358 225.722 200.497 225.453 200.774C225.184 201.043 225.05 201.411 225.05 201.879V205.701C225.05 205.788 225.02 205.861 224.959 205.922C224.898 205.974 224.825 206 224.738 206H224.101ZM231.08 206.13C230.474 206.13 229.962 206.035 229.546 205.844C229.139 205.645 228.831 205.419 228.623 205.168C228.424 204.917 228.324 204.709 228.324 204.544C228.324 204.457 228.355 204.392 228.415 204.349C228.485 204.297 228.554 204.271 228.623 204.271H229.208C229.295 204.271 229.373 204.314 229.442 204.401C229.65 204.644 229.876 204.834 230.118 204.973C230.361 205.112 230.686 205.181 231.093 205.181C231.544 205.181 231.908 205.094 232.185 204.921C232.471 204.739 232.614 204.492 232.614 204.18C232.614 203.972 232.554 203.803 232.432 203.673C232.32 203.534 232.12 203.417 231.834 203.322C231.557 203.218 231.141 203.105 230.586 202.984C229.832 202.819 229.295 202.581 228.974 202.269C228.662 201.957 228.506 201.554 228.506 201.06C228.506 200.731 228.602 200.419 228.792 200.124C228.992 199.821 229.278 199.578 229.65 199.396C230.032 199.205 230.487 199.11 231.015 199.11C231.57 199.11 232.042 199.201 232.432 199.383C232.822 199.565 233.113 199.782 233.303 200.033C233.503 200.276 233.602 200.479 233.602 200.644C233.602 200.722 233.572 200.787 233.511 200.839C233.459 200.891 233.394 200.917 233.316 200.917H232.77C232.666 200.917 232.58 200.874 232.51 200.787C232.372 200.622 232.25 200.497 232.146 200.41C232.051 200.315 231.908 200.232 231.717 200.163C231.535 200.094 231.301 200.059 231.015 200.059C230.599 200.059 230.279 200.15 230.053 200.332C229.828 200.505 229.715 200.735 229.715 201.021C229.715 201.203 229.763 201.359 229.858 201.489C229.954 201.61 230.136 201.723 230.404 201.827C230.682 201.931 231.08 202.039 231.6 202.152C232.424 202.325 233.004 202.577 233.342 202.906C233.689 203.227 233.862 203.638 233.862 204.141C233.862 204.514 233.754 204.852 233.537 205.155C233.321 205.458 233 205.697 232.575 205.87C232.159 206.043 231.661 206.13 231.08 206.13ZM238.136 206.13C237.183 206.13 236.442 205.861 235.913 205.324C235.393 204.787 235.116 204.072 235.081 203.179L235.068 202.62L235.081 202.061C235.116 201.177 235.398 200.466 235.926 199.929C236.455 199.383 237.192 199.11 238.136 199.11C239.081 199.11 239.818 199.383 240.346 199.929C240.875 200.466 241.157 201.177 241.191 202.061C241.2 202.156 241.204 202.343 241.204 202.62C241.204 202.897 241.2 203.084 241.191 203.179C241.157 204.072 240.875 204.787 240.346 205.324C239.826 205.861 239.09 206.13 238.136 206.13ZM238.136 205.129C238.682 205.129 239.111 204.956 239.423 204.609C239.744 204.262 239.917 203.764 239.943 203.114C239.952 203.027 239.956 202.863 239.956 202.62C239.956 202.377 239.952 202.213 239.943 202.126C239.917 201.476 239.744 200.978 239.423 200.631C239.111 200.284 238.682 200.111 238.136 200.111C237.59 200.111 237.157 200.284 236.836 200.631C236.516 200.978 236.347 201.476 236.329 202.126L236.316 202.62L236.329 203.114C236.347 203.764 236.516 204.262 236.836 204.609C237.157 204.956 237.59 205.129 238.136 205.129ZM243.131 206C243.044 206 242.971 205.974 242.91 205.922C242.858 205.861 242.832 205.788 242.832 205.701V199.539C242.832 199.452 242.858 199.383 242.91 199.331C242.971 199.27 243.044 199.24 243.131 199.24H243.742C243.829 199.24 243.898 199.27 243.95 199.331C244.011 199.383 244.041 199.452 244.041 199.539V200.111C244.292 199.79 244.587 199.543 244.925 199.37C245.272 199.197 245.701 199.11 246.212 199.11C247.044 199.11 247.69 199.379 248.149 199.916C248.617 200.445 248.851 201.151 248.851 202.035V205.701C248.851 205.788 248.821 205.861 248.76 205.922C248.708 205.974 248.639 206 248.552 206H247.902C247.815 206 247.742 205.974 247.681 205.922C247.629 205.861 247.603 205.788 247.603 205.701V202.1C247.603 201.485 247.451 201.008 247.148 200.67C246.853 200.332 246.424 200.163 245.861 200.163C245.315 200.163 244.882 200.336 244.561 200.683C244.24 201.021 244.08 201.493 244.08 202.1V205.701C244.08 205.788 244.05 205.861 243.989 205.922C243.937 205.974 243.868 206 243.781 206H243.131ZM255.097 207.534C253.728 207.534 252.657 207.187 251.886 206.494C251.115 205.809 250.664 204.834 250.534 203.569C250.508 203.318 250.495 202.945 250.495 202.451C250.495 201.931 250.508 201.563 250.534 201.346C250.664 200.115 251.115 199.145 251.886 198.434C252.666 197.715 253.719 197.355 255.045 197.355C256.579 197.355 257.732 197.702 258.503 198.395C259.274 199.08 259.695 200.063 259.764 201.346C259.781 201.693 259.79 201.961 259.79 202.152C259.79 202.542 259.781 202.841 259.764 203.049C259.729 203.673 259.556 204.15 259.244 204.479C258.941 204.808 258.525 204.973 257.996 204.973C257.623 204.973 257.32 204.895 257.086 204.739C256.852 204.583 256.674 204.414 256.553 204.232C256.406 204.475 256.206 204.683 255.955 204.856C255.712 205.021 255.361 205.103 254.902 205.103C254.252 205.103 253.736 204.873 253.355 204.414C252.982 203.946 252.796 203.292 252.796 202.451C252.796 201.61 252.982 200.956 253.355 200.488C253.736 200.02 254.252 199.786 254.902 199.786C255.223 199.786 255.483 199.847 255.682 199.968C255.89 200.081 256.072 200.228 256.228 200.41V200.189C256.228 200.102 256.254 200.033 256.306 199.981C256.367 199.92 256.44 199.89 256.527 199.89H256.878C256.965 199.89 257.034 199.92 257.086 199.981C257.147 200.033 257.177 200.102 257.177 200.189V202.958C257.177 203.313 257.251 203.586 257.398 203.777C257.545 203.968 257.745 204.063 257.996 204.063C258.299 204.063 258.507 203.95 258.62 203.725C258.741 203.5 258.806 203.244 258.815 202.958C258.832 202.75 258.841 202.481 258.841 202.152C258.841 202.005 258.832 201.758 258.815 201.411C258.737 200.354 258.403 199.565 257.814 199.045C257.233 198.516 256.31 198.252 255.045 198.252C253.996 198.252 253.169 198.529 252.562 199.084C251.964 199.63 251.604 200.406 251.483 201.411C251.457 201.628 251.444 201.974 251.444 202.451C251.444 202.902 251.457 203.253 251.483 203.504C251.587 204.501 251.947 205.272 252.562 205.818C253.177 206.355 254.022 206.624 255.097 206.624C255.66 206.624 256.124 206.576 256.488 206.481C256.861 206.394 257.129 206.299 257.294 206.195C257.467 206.091 257.667 205.952 257.892 205.779C257.909 205.77 257.948 205.74 258.009 205.688C258.07 205.645 258.143 205.623 258.23 205.623H258.75C258.828 205.623 258.893 205.649 258.945 205.701C259.006 205.753 259.036 205.822 259.036 205.909C259.036 205.978 259.01 206.039 258.958 206.091C258.559 206.524 258.052 206.871 257.437 207.131C256.83 207.4 256.05 207.534 255.097 207.534ZM254.98 204.193C255.422 204.193 255.738 204.046 255.929 203.751C256.128 203.448 256.228 203.014 256.228 202.451C256.228 201.888 256.128 201.454 255.929 201.151C255.738 200.848 255.422 200.696 254.98 200.696C254.555 200.696 254.243 200.852 254.044 201.164C253.845 201.467 253.745 201.896 253.745 202.451C253.745 202.962 253.845 203.383 254.044 203.712C254.252 204.033 254.564 204.193 254.98 204.193ZM264.301 208.86C263.591 208.86 263.019 208.739 262.585 208.496C262.152 208.262 261.844 207.993 261.662 207.69C261.48 207.387 261.381 207.114 261.363 206.871C261.355 206.784 261.381 206.711 261.441 206.65C261.511 206.589 261.584 206.559 261.662 206.559H262.286C262.364 206.559 262.429 206.576 262.481 206.611C262.533 206.654 262.577 206.728 262.611 206.832C262.715 207.109 262.884 207.348 263.118 207.547C263.361 207.755 263.734 207.859 264.236 207.859C264.878 207.859 265.35 207.72 265.653 207.443C265.957 207.174 266.108 206.693 266.108 206V205.116C265.883 205.402 265.597 205.632 265.25 205.805C264.904 205.97 264.492 206.052 264.015 206.052C263.097 206.052 262.408 205.762 261.948 205.181C261.498 204.592 261.259 203.846 261.233 202.945L261.22 202.581L261.233 202.23C261.259 201.337 261.502 200.596 261.961 200.007C262.421 199.409 263.105 199.11 264.015 199.11C264.925 199.11 265.636 199.444 266.147 200.111V199.552C266.147 199.465 266.173 199.392 266.225 199.331C266.286 199.27 266.36 199.24 266.446 199.24H267.044C267.131 199.24 267.205 199.27 267.265 199.331C267.326 199.392 267.356 199.465 267.356 199.552V205.857C267.356 207.859 266.338 208.86 264.301 208.86ZM264.275 205.012C264.865 205.012 265.311 204.817 265.614 204.427C265.918 204.037 266.082 203.573 266.108 203.036C266.117 202.958 266.121 202.806 266.121 202.581C266.121 202.364 266.117 202.217 266.108 202.139C266.082 201.602 265.918 201.138 265.614 200.748C265.32 200.358 264.873 200.163 264.275 200.163C263.66 200.163 263.214 200.354 262.936 200.735C262.659 201.116 262.507 201.619 262.481 202.243L262.468 202.581L262.481 202.932C262.507 203.547 262.659 204.05 262.936 204.44C263.214 204.821 263.66 205.012 264.275 205.012ZM269.588 206C269.501 206 269.428 205.974 269.367 205.922C269.315 205.861 269.289 205.788 269.289 205.701V199.539C269.289 199.452 269.315 199.383 269.367 199.331C269.428 199.27 269.501 199.24 269.588 199.24H270.173C270.26 199.24 270.329 199.27 270.381 199.331C270.442 199.383 270.472 199.452 270.472 199.539V199.994C270.923 199.405 271.551 199.11 272.357 199.11C273.319 199.11 273.999 199.509 274.398 200.306C274.606 199.942 274.901 199.652 275.282 199.435C275.663 199.218 276.092 199.11 276.569 199.11C277.28 199.11 277.86 199.353 278.311 199.838C278.762 200.323 278.987 201.025 278.987 201.944V205.701C278.987 205.788 278.957 205.861 278.896 205.922C278.844 205.974 278.775 206 278.688 206H278.077C277.99 206 277.917 205.974 277.856 205.922C277.804 205.861 277.778 205.788 277.778 205.701V202.061C277.778 201.385 277.635 200.9 277.349 200.605C277.072 200.31 276.703 200.163 276.244 200.163C275.837 200.163 275.486 200.315 275.191 200.618C274.896 200.913 274.749 201.394 274.749 202.061V205.701C274.749 205.788 274.719 205.861 274.658 205.922C274.606 205.974 274.537 206 274.45 206H273.839C273.752 206 273.679 205.974 273.618 205.922C273.566 205.861 273.54 205.788 273.54 205.701V202.061C273.54 201.385 273.393 200.9 273.098 200.605C272.812 200.31 272.448 200.163 272.006 200.163C271.599 200.163 271.248 200.315 270.953 200.618C270.658 200.913 270.511 201.389 270.511 202.048V205.701C270.511 205.788 270.481 205.861 270.42 205.922C270.368 205.974 270.299 206 270.212 206H269.588ZM282.727 206.13C282.302 206.13 281.908 206.043 281.544 205.87C281.18 205.697 280.89 205.463 280.673 205.168C280.465 204.865 280.361 204.531 280.361 204.167C280.361 203.595 280.595 203.127 281.063 202.763C281.54 202.39 282.181 202.148 282.987 202.035L284.924 201.762V201.385C284.924 200.501 284.417 200.059 283.403 200.059C283.022 200.059 282.71 200.141 282.467 200.306C282.224 200.462 282.042 200.648 281.921 200.865C281.895 200.943 281.86 200.999 281.817 201.034C281.782 201.069 281.73 201.086 281.661 201.086H281.102C281.024 201.086 280.955 201.06 280.894 201.008C280.842 200.947 280.816 200.878 280.816 200.8C280.825 200.592 280.92 200.358 281.102 200.098C281.293 199.829 281.583 199.6 281.973 199.409C282.363 199.21 282.844 199.11 283.416 199.11C284.387 199.11 285.084 199.34 285.509 199.799C285.934 200.25 286.146 200.813 286.146 201.489V205.701C286.146 205.788 286.116 205.861 286.055 205.922C286.003 205.974 285.934 206 285.847 206H285.249C285.162 206 285.089 205.974 285.028 205.922C284.976 205.861 284.95 205.788 284.95 205.701V205.142C284.759 205.419 284.482 205.653 284.118 205.844C283.754 206.035 283.29 206.13 282.727 206.13ZM283 205.155C283.563 205.155 284.023 204.973 284.378 204.609C284.742 204.236 284.924 203.703 284.924 203.01V202.646L283.416 202.867C282.801 202.954 282.337 203.101 282.025 203.309C281.713 203.508 281.557 203.764 281.557 204.076C281.557 204.423 281.7 204.691 281.986 204.882C282.272 205.064 282.61 205.155 283 205.155ZM288.21 197.979C288.123 197.979 288.049 197.953 287.989 197.901C287.937 197.84 287.911 197.767 287.911 197.68V196.978C287.911 196.891 287.937 196.818 287.989 196.757C288.049 196.696 288.123 196.666 288.21 196.666H289.029C289.115 196.666 289.189 196.696 289.25 196.757C289.31 196.818 289.341 196.891 289.341 196.978V197.68C289.341 197.767 289.31 197.84 289.25 197.901C289.189 197.953 289.115 197.979 289.029 197.979H288.21ZM288.314 206C288.227 206 288.153 205.974 288.093 205.922C288.041 205.861 288.015 205.788 288.015 205.701V199.539C288.015 199.452 288.041 199.383 288.093 199.331C288.153 199.27 288.227 199.24 288.314 199.24H288.938C289.024 199.24 289.094 199.27 289.146 199.331C289.206 199.383 289.237 199.452 289.237 199.539V205.701C289.237 205.788 289.206 205.861 289.146 205.922C289.094 205.974 289.024 206 288.938 206H288.314ZM291.475 206C291.389 206 291.315 205.974 291.254 205.922C291.202 205.861 291.176 205.788 291.176 205.701V197.069C291.176 196.982 291.202 196.913 291.254 196.861C291.315 196.8 291.389 196.77 291.475 196.77H292.086C292.173 196.77 292.242 196.8 292.294 196.861C292.355 196.913 292.385 196.982 292.385 197.069V205.701C292.385 205.788 292.355 205.861 292.294 205.922C292.242 205.974 292.173 206 292.086 206H291.475ZM294.532 206C294.446 206 294.372 205.974 294.311 205.922C294.259 205.861 294.233 205.788 294.233 205.701V204.765C294.233 204.678 294.259 204.609 294.311 204.557C294.372 204.496 294.446 204.466 294.532 204.466H295.468C295.555 204.466 295.629 204.496 295.689 204.557C295.75 204.609 295.78 204.678 295.78 204.765V205.701C295.78 205.788 295.75 205.861 295.689 205.922C295.629 205.974 295.555 206 295.468 206H294.532ZM300.203 206.13C299.275 206.13 298.547 205.87 298.019 205.35C297.499 204.821 297.221 204.085 297.187 203.14L297.174 202.62L297.187 202.1C297.221 201.155 297.499 200.423 298.019 199.903C298.547 199.374 299.275 199.11 300.203 199.11C300.827 199.11 301.355 199.223 301.789 199.448C302.222 199.673 302.543 199.951 302.751 200.28C302.967 200.609 303.084 200.939 303.102 201.268C303.11 201.355 303.084 201.424 303.024 201.476C302.963 201.528 302.889 201.554 302.803 201.554H302.179C302.092 201.554 302.027 201.537 301.984 201.502C301.94 201.467 301.897 201.398 301.854 201.294C301.706 200.878 301.498 200.583 301.23 200.41C300.961 200.228 300.623 200.137 300.216 200.137C299.678 200.137 299.249 200.306 298.929 200.644C298.617 200.973 298.448 201.48 298.422 202.165L298.409 202.633L298.422 203.075C298.448 203.768 298.617 204.28 298.929 204.609C299.241 204.938 299.67 205.103 300.216 205.103C300.623 205.103 300.961 205.016 301.23 204.843C301.498 204.661 301.706 204.362 301.854 203.946C301.897 203.842 301.94 203.773 301.984 203.738C302.027 203.695 302.092 203.673 302.179 203.673H302.803C302.889 203.673 302.963 203.703 303.024 203.764C303.084 203.816 303.11 203.885 303.102 203.972C303.084 204.293 302.967 204.622 302.751 204.96C302.543 205.289 302.222 205.567 301.789 205.792C301.364 206.017 300.835 206.13 300.203 206.13ZM307.415 206.13C306.461 206.13 305.72 205.861 305.192 205.324C304.672 204.787 304.394 204.072 304.36 203.179L304.347 202.62L304.36 202.061C304.394 201.177 304.676 200.466 305.205 199.929C305.733 199.383 306.47 199.11 307.415 199.11C308.359 199.11 309.096 199.383 309.625 199.929C310.153 200.466 310.435 201.177 310.47 202.061C310.478 202.156 310.483 202.343 310.483 202.62C310.483 202.897 310.478 203.084 310.47 203.179C310.435 204.072 310.153 204.787 309.625 205.324C309.105 205.861 308.368 206.13 307.415 206.13ZM307.415 205.129C307.961 205.129 308.39 204.956 308.702 204.609C309.022 204.262 309.196 203.764 309.222 203.114C309.23 203.027 309.235 202.863 309.235 202.62C309.235 202.377 309.23 202.213 309.222 202.126C309.196 201.476 309.022 200.978 308.702 200.631C308.39 200.284 307.961 200.111 307.415 200.111C306.869 200.111 306.435 200.284 306.115 200.631C305.794 200.978 305.625 201.476 305.608 202.126L305.595 202.62L305.608 203.114C305.625 203.764 305.794 204.262 306.115 204.609C306.435 204.956 306.869 205.129 307.415 205.129ZM312.409 206C312.323 206 312.249 205.974 312.188 205.922C312.136 205.861 312.11 205.788 312.11 205.701V199.539C312.11 199.452 312.136 199.383 312.188 199.331C312.249 199.27 312.323 199.24 312.409 199.24H312.994C313.081 199.24 313.15 199.27 313.202 199.331C313.263 199.383 313.293 199.452 313.293 199.539V199.994C313.744 199.405 314.372 199.11 315.178 199.11C316.14 199.11 316.821 199.509 317.219 200.306C317.427 199.942 317.722 199.652 318.103 199.435C318.485 199.218 318.914 199.11 319.39 199.11C320.101 199.11 320.682 199.353 321.132 199.838C321.583 200.323 321.808 201.025 321.808 201.944V205.701C321.808 205.788 321.778 205.861 321.717 205.922C321.665 205.974 321.596 206 321.509 206H320.898C320.812 206 320.738 205.974 320.677 205.922C320.625 205.861 320.599 205.788 320.599 205.701V202.061C320.599 201.385 320.456 200.9 320.17 200.605C319.893 200.31 319.525 200.163 319.065 200.163C318.658 200.163 318.307 200.315 318.012 200.618C317.718 200.913 317.57 201.394 317.57 202.061V205.701C317.57 205.788 317.54 205.861 317.479 205.922C317.427 205.974 317.358 206 317.271 206H316.66C316.574 206 316.5 205.974 316.439 205.922C316.387 205.861 316.361 205.788 316.361 205.701V202.061C316.361 201.385 316.214 200.9 315.919 200.605C315.633 200.31 315.269 200.163 314.827 200.163C314.42 200.163 314.069 200.315 313.774 200.618C313.48 200.913 313.332 201.389 313.332 202.048V205.701C313.332 205.788 313.302 205.861 313.241 205.922C313.189 205.974 313.12 206 313.033 206H312.409Z" fill="#303032"/>
<path d="M343 225H145V227H343V225Z" fill="#CBC9CD" mask="url(#path-27-inside-9_905_1826)"/>
</g>
<path d="M1 256V0H-1V256H1Z" fill="#EAEAEF" mask="url(#path-1-inside-1_905_1826)"/>
<defs>
<filter id="filter0_d_905_1826" x="37" y="20" width="326" height="236" filterUnits="userSpaceOnUse" color-interpolation-filters="sRGB">
<feFlood flood-opacity="0" result="BackgroundImageFix"/>
<feColorMatrix in="SourceAlpha" type="matrix" values="0 0 0 0 0 0 0 0 0 0 0 0 0 0 0 0 0 0 127 0" result="hardAlpha"/>
<feOffset dy="10"/>
<feGaussianBlur stdDeviation="10"/>
<feComposite in2="hardAlpha" operator="out"/>
<feColorMatrix type="matrix" values="0 0 0 0 0.117647 0 0 0 0 0.117647 0 0 0 0 0.117647 0 0 0 0.12 0"/>
<feBlend mode="normal" in2="BackgroundImageFix" result="effect1_dropShadow_905_1826"/>
<feBlend mode="normal" in="SourceGraphic" in2="effect1_dropShadow_905_1826" result="shape"/>
</filter>
</defs>
</svg>
