<svg width="400" height="256" viewBox="0 0 400 256" fill="none" xmlns="http://www.w3.org/2000/svg">
<mask id="path-1-inside-1_905_2375" fill="white">
<path d="M0 0H400V256H0V0Z"/>
</mask>
<path d="M0 0H400V256H0V0Z" fill="#F5F7F9"/>
<path d="M0.5 0.5H62.5V17C62.5 18.933 60.933 20.5 59 20.5H0.5V0.5Z" fill="#F5F7F9"/>
<path d="M13.122 14C13.0487 14 12.9863 13.9743 12.935 13.923C12.8837 13.8717 12.858 13.8093 12.858 13.736V6.575C12.858 6.49433 12.88 6.42833 12.924 6.377C12.9753 6.32567 13.0413 6.3 13.122 6.3H15.806C17.962 6.3 19.062 7.29733 19.106 9.292C19.1207 9.71733 19.128 10.0033 19.128 10.15C19.128 10.2893 19.1207 10.5717 19.106 10.997C19.0767 12.0237 18.8017 12.7827 18.281 13.274C17.7603 13.758 16.9537 14 15.861 14H13.122ZM15.806 12.735C16.422 12.735 16.8657 12.5993 17.137 12.328C17.4083 12.0493 17.5513 11.5947 17.566 10.964C17.5807 10.524 17.588 10.249 17.588 10.139C17.588 10.0217 17.5807 9.75033 17.566 9.325C17.5513 8.72367 17.3973 8.28 17.104 7.994C16.818 7.708 16.367 7.565 15.751 7.565H14.387V12.735H15.806ZM20.6804 7.334C20.607 7.334 20.5447 7.30833 20.4934 7.257C20.442 7.20567 20.4164 7.14333 20.4164 7.07V6.278C20.4164 6.20467 20.442 6.14233 20.4934 6.091C20.5447 6.03967 20.607 6.014 20.6804 6.014H21.6814C21.7547 6.014 21.817 6.03967 21.8684 6.091C21.927 6.14233 21.9564 6.20467 21.9564 6.278V7.07C21.9564 7.14333 21.9307 7.20567 21.8794 7.257C21.828 7.30833 21.762 7.334 21.6814 7.334H20.6804ZM20.7244 14C20.651 14 20.5887 13.9743 20.5374 13.923C20.486 13.8717 20.4604 13.8093 20.4604 13.736V8.544C20.4604 8.47067 20.486 8.40833 20.5374 8.357C20.5887 8.30567 20.651 8.28 20.7244 8.28H21.6374C21.718 8.28 21.7804 8.30567 21.8244 8.357C21.8757 8.401 21.9014 8.46333 21.9014 8.544V13.736C21.9014 13.8093 21.8757 13.8717 21.8244 13.923C21.7804 13.9743 21.718 14 21.6374 14H20.7244ZM25.5278 14.11C24.9778 14.11 24.5158 14.0293 24.1418 13.868C23.7678 13.6993 23.4891 13.505 23.3058 13.285C23.1298 13.0577 23.0418 12.8633 23.0418 12.702C23.0418 12.6287 23.0674 12.57 23.1188 12.526C23.1701 12.482 23.2288 12.46 23.2948 12.46H24.1638C24.2298 12.46 24.2848 12.4857 24.3288 12.537C24.3581 12.559 24.4351 12.625 24.5598 12.735C24.6844 12.8523 24.8311 12.944 24.9998 13.01C25.1684 13.076 25.3554 13.109 25.5608 13.109C25.8541 13.109 26.0961 13.0503 26.2868 12.933C26.4774 12.8157 26.5728 12.6543 26.5728 12.449C26.5728 12.295 26.5288 12.1703 26.4408 12.075C26.3601 11.9797 26.2098 11.8953 25.9898 11.822C25.7698 11.7413 25.4434 11.657 25.0108 11.569C24.3874 11.437 23.9254 11.2353 23.6248 10.964C23.3314 10.6927 23.1848 10.3333 23.1848 9.886C23.1848 9.59267 23.2728 9.31767 23.4488 9.061C23.6248 8.797 23.8851 8.58433 24.2298 8.423C24.5818 8.25433 24.9998 8.17 25.4838 8.17C25.9751 8.17 26.4004 8.25067 26.7598 8.412C27.1191 8.566 27.3904 8.753 27.5738 8.973C27.7644 9.18567 27.8598 9.37633 27.8598 9.545C27.8598 9.611 27.8341 9.66967 27.7828 9.721C27.7388 9.765 27.6838 9.787 27.6178 9.787H26.8038C26.7451 9.787 26.6828 9.76133 26.6168 9.71C26.5654 9.67333 26.4848 9.60367 26.3748 9.501C26.2648 9.39833 26.1364 9.31767 25.9898 9.259C25.8431 9.20033 25.6708 9.171 25.4728 9.171C25.2014 9.171 24.9888 9.22967 24.8348 9.347C24.6881 9.46433 24.6148 9.61833 24.6148 9.809C24.6148 9.94833 24.6514 10.062 24.7248 10.15C24.7981 10.238 24.9411 10.3223 25.1538 10.403C25.3664 10.4837 25.6854 10.5643 26.1108 10.645C26.8148 10.7843 27.3171 11.0007 27.6178 11.294C27.9258 11.5873 28.0798 11.9467 28.0798 12.372C28.0798 12.8853 27.8561 13.3033 27.4088 13.626C26.9614 13.9487 26.3344 14.11 25.5278 14.11ZM29.4903 16.09C29.4169 16.09 29.3546 16.0643 29.3033 16.013C29.2519 15.969 29.2263 15.9067 29.2263 15.826V8.544C29.2263 8.46333 29.2519 8.401 29.3033 8.357C29.3546 8.30567 29.4169 8.28 29.4903 8.28H30.3593C30.4399 8.28 30.5023 8.30567 30.5463 8.357C30.5976 8.401 30.6233 8.46333 30.6233 8.544V8.984C31.0339 8.44133 31.6206 8.17 32.3833 8.17C33.1239 8.17 33.6923 8.40467 34.0883 8.874C34.4843 9.336 34.6969 9.963 34.7263 10.755C34.7336 10.843 34.7373 10.9713 34.7373 11.14C34.7373 11.316 34.7336 11.448 34.7263 11.536C34.6969 12.306 34.4843 12.9293 34.0883 13.406C33.6923 13.8753 33.1239 14.11 32.3833 14.11C31.6426 14.11 31.0779 13.8497 30.6893 13.329V15.826C30.6893 15.9067 30.6636 15.969 30.6123 16.013C30.5683 16.0643 30.5059 16.09 30.4253 16.09H29.4903ZM31.9763 12.933C32.7683 12.933 33.1899 12.4453 33.2413 11.47C33.2486 11.3967 33.2523 11.2867 33.2523 11.14C33.2523 10.9933 33.2486 10.8833 33.2413 10.81C33.1899 9.83467 32.7683 9.347 31.9763 9.347C31.5509 9.347 31.2356 9.48267 31.0303 9.754C30.8249 10.0253 30.7113 10.359 30.6893 10.755L30.6783 11.173L30.6893 11.602C30.7039 11.9687 30.8176 12.284 31.0303 12.548C31.2503 12.8047 31.5656 12.933 31.9763 12.933ZM36.2471 14C36.1738 14 36.1114 13.9743 36.0601 13.923C36.0088 13.8717 35.9831 13.8093 35.9831 13.736V6.454C35.9831 6.37333 36.0088 6.311 36.0601 6.267C36.1114 6.21567 36.1738 6.19 36.2471 6.19H37.1601C37.2408 6.19 37.3031 6.21567 37.3471 6.267C37.3984 6.311 37.4241 6.37333 37.4241 6.454V13.736C37.4241 13.8093 37.3984 13.8717 37.3471 13.923C37.3031 13.9743 37.2408 14 37.1601 14H36.2471ZM40.5442 14.11C40.1702 14.11 39.8256 14.0367 39.5102 13.89C39.2022 13.736 38.9566 13.5307 38.7732 13.274C38.5972 13.0173 38.5092 12.735 38.5092 12.427C38.5092 11.9283 38.7109 11.525 39.1142 11.217C39.5176 10.909 40.0712 10.7 40.7752 10.59L42.2822 10.37V10.139C42.2822 9.81633 42.2016 9.57433 42.0402 9.413C41.8789 9.25167 41.6186 9.171 41.2592 9.171C41.0172 9.171 40.8192 9.21867 40.6652 9.314C40.5186 9.402 40.4012 9.49 40.3132 9.578C40.2252 9.67333 40.1666 9.73567 40.1372 9.765C40.1079 9.853 40.0529 9.897 39.9722 9.897H39.1252C39.0592 9.897 39.0006 9.875 38.9492 9.831C38.9052 9.787 38.8832 9.72833 38.8832 9.655C38.8906 9.47167 38.9786 9.26267 39.1472 9.028C39.3232 8.79333 39.5909 8.59167 39.9502 8.423C40.3096 8.25433 40.7496 8.17 41.2702 8.17C42.1356 8.17 42.7662 8.36433 43.1622 8.753C43.5582 9.14167 43.7562 9.65133 43.7562 10.282V13.736C43.7562 13.8093 43.7306 13.8717 43.6792 13.923C43.6352 13.9743 43.5729 14 43.4922 14H42.6012C42.5279 14 42.4656 13.9743 42.4142 13.923C42.3629 13.8717 42.3372 13.8093 42.3372 13.736V13.307C42.1759 13.5417 41.9449 13.736 41.6442 13.89C41.3509 14.0367 40.9842 14.11 40.5442 14.11ZM40.9182 13.065C41.3216 13.065 41.6516 12.933 41.9082 12.669C42.1649 12.405 42.2932 12.02 42.2932 11.514V11.283L41.1932 11.459C40.7679 11.525 40.4452 11.6313 40.2252 11.778C40.0126 11.9247 39.9062 12.1043 39.9062 12.317C39.9062 12.5517 40.0052 12.735 40.2032 12.867C40.4012 12.999 40.6396 13.065 40.9182 13.065ZM46.051 16.09C45.9923 16.09 45.941 16.068 45.897 16.024C45.853 15.98 45.831 15.9287 45.831 15.87C45.831 15.804 45.8457 15.7453 45.875 15.694L46.733 13.659L44.621 8.676C44.5917 8.61 44.577 8.55867 44.577 8.522C44.5843 8.456 44.61 8.401 44.654 8.357C44.698 8.30567 44.753 8.28 44.819 8.28H45.71C45.8493 8.28 45.9483 8.34967 46.007 8.489L47.47 12.086L48.977 8.489C49.0357 8.34967 49.1347 8.28 49.274 8.28H50.154C50.2127 8.28 50.264 8.302 50.308 8.346C50.3593 8.39 50.385 8.44133 50.385 8.5C50.385 8.55133 50.3703 8.61 50.341 8.676L47.228 15.881C47.162 16.0203 47.0593 16.09 46.92 16.09H46.051Z" fill="#535356"/>
<path d="M0.5 0.5H62.5V17C62.5 18.933 60.933 20.5 59 20.5H0.5V0.5Z" stroke="#EAEAEF"/>
<g filter="url(#filter0_d_905_2375)">
<mask id="path-6-inside-2_905_2375" fill="white">
<path d="M37 30H125V79H37V30Z"/>
</mask>
<path d="M37 30H125V79H37V30Z" fill="white"/>
<rect x="57" y="46" width="48" height="17" rx="5" fill="#F2F2F6"/>
<path d="M125 78H37V80H125V78Z" fill="#CBC9CD" mask="url(#path-6-inside-2_905_2375)"/>
<mask id="path-9-inside-3_905_2375" fill="white">
<path d="M37 79H125V128H37V79Z"/>
</mask>
<path d="M37 79H125V128H37V79Z" fill="white"/>
<rect x="57" y="95" width="48" height="17" rx="5" fill="#F2F2F6"/>
<path d="M125 127H37V129H125V127Z" fill="#CBC9CD" mask="url(#path-9-inside-3_905_2375)"/>
<mask id="path-12-inside-4_905_2375" fill="white">
<path d="M37 128H125V177H37V128Z"/>
</mask>
<path d="M37 128H125V177H37V128Z" fill="white"/>
<rect x="57" y="144" width="48" height="17" rx="5" fill="#F2F2F6"/>
<path d="M125 176H37V178H125V176Z" fill="#CBC9CD" mask="url(#path-12-inside-4_905_2375)"/>
<mask id="path-15-inside-5_905_2375" fill="white">
<path d="M37 177H125V226H37V177Z"/>
</mask>
<path d="M37 177H125V226H37V177Z" fill="white"/>
<rect x="57" y="193" width="48" height="17" rx="5" fill="#F2F2F6"/>
<path d="M125 225H37V227H125V225Z" fill="#CBC9CD" mask="url(#path-15-inside-5_905_2375)"/>
<mask id="path-18-inside-6_905_2375" fill="white">
<path d="M125 30H275V79H125V30Z"/>
</mask>
<path d="M125 30H275V79H125V30Z" fill="white"/>
<path d="M149.576 59.13C148.761 59.13 148.068 58.9957 147.496 58.727C146.933 58.4497 146.495 58.051 146.183 57.531C145.871 57.0023 145.698 56.361 145.663 55.607C145.654 55.2517 145.65 54.8703 145.65 54.463C145.65 54.0557 145.654 53.6657 145.663 53.293C145.698 52.5477 145.871 51.915 146.183 51.395C146.504 50.8663 146.95 50.4633 147.522 50.186C148.094 49.9087 148.779 49.77 149.576 49.77C150.157 49.77 150.685 49.8437 151.162 49.991C151.639 50.1383 152.05 50.3507 152.397 50.628C152.744 50.9053 153.012 51.2303 153.203 51.603C153.394 51.9757 153.498 52.3917 153.515 52.851C153.515 52.929 153.485 52.994 153.424 53.046C153.372 53.098 153.307 53.124 153.229 53.124H151.747C151.643 53.124 151.561 53.098 151.5 53.046C151.439 52.994 151.392 52.9073 151.357 52.786C151.227 52.2747 151.01 51.9237 150.707 51.733C150.404 51.5423 150.027 51.447 149.576 51.447C149.039 51.447 148.614 51.5943 148.302 51.889C147.99 52.1837 147.821 52.6733 147.795 53.358C147.769 54.0687 147.769 54.7967 147.795 55.542C147.821 56.2267 147.99 56.7163 148.302 57.011C148.614 57.3057 149.039 57.453 149.576 57.453C150.027 57.453 150.404 57.3577 150.707 57.167C151.019 56.9677 151.236 56.6167 151.357 56.114C151.392 55.984 151.439 55.8973 151.5 55.854C151.561 55.802 151.643 55.776 151.747 55.776H153.229C153.307 55.776 153.372 55.802 153.424 55.854C153.485 55.906 153.515 55.971 153.515 56.049C153.498 56.5083 153.394 56.9243 153.203 57.297C153.012 57.6697 152.744 57.9947 152.397 58.272C152.05 58.5493 151.639 58.7617 151.162 58.909C150.685 59.0563 150.157 59.13 149.576 59.13ZM158.59 59.13C157.801 59.13 157.121 59 156.549 58.74C155.977 58.48 155.53 58.09 155.21 57.57C154.889 57.0413 154.716 56.3783 154.69 55.581C154.681 55.2083 154.677 54.84 154.677 54.476C154.677 54.1033 154.681 53.7263 154.69 53.345C154.716 52.565 154.889 51.9107 155.21 51.382C155.539 50.8447 155.99 50.4417 156.562 50.173C157.142 49.9043 157.818 49.77 158.59 49.77C159.352 49.77 160.02 49.9043 160.592 50.173C161.172 50.4417 161.627 50.8447 161.957 51.382C162.286 51.9107 162.459 52.565 162.477 53.345C162.494 53.7263 162.503 54.1033 162.503 54.476C162.503 54.84 162.494 55.2083 162.477 55.581C162.451 56.3783 162.277 57.0413 161.957 57.57C161.636 58.09 161.19 58.48 160.618 58.74C160.046 59 159.37 59.13 158.59 59.13ZM158.59 57.453C159.092 57.453 159.504 57.3013 159.825 56.998C160.154 56.686 160.327 56.192 160.345 55.516C160.362 55.1347 160.371 54.7793 160.371 54.45C160.371 54.112 160.362 53.7567 160.345 53.384C160.336 52.9333 160.254 52.565 160.098 52.279C159.942 51.993 159.734 51.785 159.474 51.655C159.222 51.5163 158.928 51.447 158.59 51.447C158.252 51.447 157.953 51.5163 157.693 51.655C157.433 51.785 157.225 51.993 157.069 52.279C156.921 52.565 156.839 52.9333 156.822 53.384C156.813 53.7567 156.809 54.112 156.809 54.45C156.809 54.7793 156.813 55.1347 156.822 55.516C156.848 56.192 157.021 56.686 157.342 56.998C157.662 57.3013 158.078 57.453 158.59 57.453ZM164.441 59C164.346 59 164.268 58.9697 164.207 58.909C164.147 58.8483 164.116 58.7703 164.116 58.675V50.225C164.116 50.1297 164.147 50.0517 164.207 49.991C164.268 49.9303 164.346 49.9 164.441 49.9H165.624C165.754 49.9 165.85 49.9303 165.91 49.991C165.971 50.0517 166.01 50.0993 166.027 50.134L169.498 55.555V50.225C169.498 50.1297 169.529 50.0517 169.589 49.991C169.65 49.9303 169.724 49.9 169.81 49.9H171.136C171.232 49.9 171.31 49.9303 171.37 49.991C171.431 50.0517 171.461 50.1297 171.461 50.225V58.675C171.461 58.7617 171.431 58.8397 171.37 58.909C171.31 58.9697 171.232 59 171.136 59H169.94C169.81 59 169.715 58.9697 169.654 58.909C169.602 58.8397 169.563 58.792 169.537 58.766L166.079 53.514V58.675C166.079 58.7703 166.049 58.8483 165.988 58.909C165.928 58.9697 165.85 59 165.754 59H164.441ZM175.711 59C175.616 59 175.538 58.9697 175.477 58.909C175.416 58.8483 175.386 58.7703 175.386 58.675V51.707H173.02C172.933 51.707 172.86 51.6767 172.799 51.616C172.738 51.5553 172.708 51.4817 172.708 51.395V50.225C172.708 50.1297 172.738 50.0517 172.799 49.991C172.86 49.9303 172.933 49.9 173.02 49.9H179.832C179.927 49.9 180.005 49.9303 180.066 49.991C180.127 50.0517 180.157 50.1297 180.157 50.225V51.395C180.157 51.4817 180.127 51.5553 180.066 51.616C180.005 51.6767 179.927 51.707 179.832 51.707H177.479V58.675C177.479 58.7703 177.449 58.8483 177.388 58.909C177.327 58.9697 177.249 59 177.154 59H175.711ZM179.935 59C179.857 59 179.792 58.974 179.74 58.922C179.688 58.8613 179.662 58.7963 179.662 58.727C179.662 58.6837 179.666 58.6447 179.675 58.61L182.769 50.251C182.795 50.1557 182.847 50.0733 182.925 50.004C183.003 49.9347 183.111 49.9 183.25 49.9H184.914C185.053 49.9 185.161 49.9347 185.239 50.004C185.317 50.0733 185.369 50.1557 185.395 50.251L188.489 58.61C188.498 58.6447 188.502 58.6837 188.502 58.727C188.502 58.7963 188.476 58.8613 188.424 58.922C188.372 58.974 188.307 59 188.229 59H186.877C186.747 59 186.652 58.9697 186.591 58.909C186.53 58.8483 186.491 58.792 186.474 58.74L185.915 57.284H182.249L181.69 58.74C181.673 58.792 181.634 58.8483 181.573 58.909C181.512 58.9697 181.417 59 181.287 59H179.935ZM182.73 55.607H185.421L184.082 51.863L182.73 55.607ZM193.045 59.13C192.23 59.13 191.537 58.9957 190.965 58.727C190.401 58.4497 189.964 58.051 189.652 57.531C189.34 57.0023 189.166 56.361 189.132 55.607C189.123 55.2517 189.119 54.8703 189.119 54.463C189.119 54.0557 189.123 53.6657 189.132 53.293C189.166 52.5477 189.34 51.915 189.652 51.395C189.972 50.8663 190.419 50.4633 190.991 50.186C191.563 49.9087 192.247 49.77 193.045 49.77C193.625 49.77 194.154 49.8437 194.631 49.991C195.107 50.1383 195.519 50.3507 195.866 50.628C196.212 50.9053 196.481 51.2303 196.672 51.603C196.862 51.9757 196.966 52.3917 196.984 52.851C196.984 52.929 196.953 52.994 196.893 53.046C196.841 53.098 196.776 53.124 196.698 53.124H195.216C195.112 53.124 195.029 53.098 194.969 53.046C194.908 52.994 194.86 52.9073 194.826 52.786C194.696 52.2747 194.479 51.9237 194.176 51.733C193.872 51.5423 193.495 51.447 193.045 51.447C192.507 51.447 192.083 51.5943 191.771 51.889C191.459 52.1837 191.29 52.6733 191.264 53.358C191.238 54.0687 191.238 54.7967 191.264 55.542C191.29 56.2267 191.459 56.7163 191.771 57.011C192.083 57.3057 192.507 57.453 193.045 57.453C193.495 57.453 193.872 57.3577 194.176 57.167C194.488 56.9677 194.704 56.6167 194.826 56.114C194.86 55.984 194.908 55.8973 194.969 55.854C195.029 55.802 195.112 55.776 195.216 55.776H196.698C196.776 55.776 196.841 55.802 196.893 55.854C196.953 55.906 196.984 55.971 196.984 56.049C196.966 56.5083 196.862 56.9243 196.672 57.297C196.481 57.6697 196.212 57.9947 195.866 58.272C195.519 58.5493 195.107 58.7617 194.631 58.909C194.154 59.0563 193.625 59.13 193.045 59.13ZM200.771 59C200.676 59 200.598 58.9697 200.537 58.909C200.477 58.8483 200.446 58.7703 200.446 58.675V51.707H198.08C197.994 51.707 197.92 51.6767 197.859 51.616C197.799 51.5553 197.768 51.4817 197.768 51.395V50.225C197.768 50.1297 197.799 50.0517 197.859 49.991C197.92 49.9303 197.994 49.9 198.08 49.9H204.892C204.988 49.9 205.066 49.9303 205.126 49.991C205.187 50.0517 205.217 50.1297 205.217 50.225V51.395C205.217 51.4817 205.187 51.5553 205.126 51.616C205.066 51.6767 204.988 51.707 204.892 51.707H202.539V58.675C202.539 58.7703 202.509 58.8483 202.448 58.909C202.388 58.9697 202.31 59 202.214 59H200.771ZM212.646 59.13C211.832 59.13 211.138 58.9957 210.566 58.727C210.003 58.4497 209.565 58.051 209.253 57.531C208.941 57.0023 208.768 56.361 208.733 55.607C208.725 55.2517 208.72 54.8703 208.72 54.463C208.72 54.0557 208.725 53.6657 208.733 53.293C208.768 52.5477 208.941 51.915 209.253 51.395C209.574 50.8663 210.02 50.4633 210.592 50.186C211.164 49.9087 211.849 49.77 212.646 49.77C213.227 49.77 213.756 49.8437 214.232 49.991C214.709 50.1383 215.121 50.3507 215.467 50.628C215.814 50.9053 216.083 51.2303 216.273 51.603C216.464 51.9757 216.568 52.3917 216.585 52.851C216.585 52.929 216.555 52.994 216.494 53.046C216.442 53.098 216.377 53.124 216.299 53.124H214.817C214.713 53.124 214.631 53.098 214.57 53.046C214.51 52.994 214.462 52.9073 214.427 52.786C214.297 52.2747 214.081 51.9237 213.777 51.733C213.474 51.5423 213.097 51.447 212.646 51.447C212.109 51.447 211.684 51.5943 211.372 51.889C211.06 52.1837 210.891 52.6733 210.865 53.358C210.839 54.0687 210.839 54.7967 210.865 55.542C210.891 56.2267 211.06 56.7163 211.372 57.011C211.684 57.3057 212.109 57.453 212.646 57.453C213.097 57.453 213.474 57.3577 213.777 57.167C214.089 56.9677 214.306 56.6167 214.427 56.114C214.462 55.984 214.51 55.8973 214.57 55.854C214.631 55.802 214.713 55.776 214.817 55.776H216.299C216.377 55.776 216.442 55.802 216.494 55.854C216.555 55.906 216.585 55.971 216.585 56.049C216.568 56.5083 216.464 56.9243 216.273 57.297C216.083 57.6697 215.814 57.9947 215.467 58.272C215.121 58.5493 214.709 58.7617 214.232 58.909C213.756 59.0563 213.227 59.13 212.646 59.13ZM218.371 59C218.276 59 218.198 58.9697 218.137 58.909C218.076 58.8483 218.046 58.7703 218.046 58.675V50.225C218.046 50.1297 218.076 50.0517 218.137 49.991C218.198 49.9303 218.276 49.9 218.371 49.9H219.814C219.909 49.9 219.987 49.9303 220.048 49.991C220.109 50.0517 220.139 50.1297 220.139 50.225V57.258H224.169C224.264 57.258 224.342 57.2883 224.403 57.349C224.464 57.4097 224.494 57.4877 224.494 57.583V58.675C224.494 58.7703 224.464 58.8483 224.403 58.909C224.342 58.9697 224.264 59 224.169 59H218.371ZM226.014 59C225.918 59 225.84 58.9697 225.78 58.909C225.719 58.8483 225.689 58.7703 225.689 58.675V50.225C225.689 50.1297 225.719 50.0517 225.78 49.991C225.84 49.9303 225.918 49.9 226.014 49.9H227.483C227.578 49.9 227.656 49.9303 227.717 49.991C227.777 50.0517 227.808 50.1297 227.808 50.225V58.675C227.808 58.7703 227.777 58.8483 227.717 58.909C227.656 58.9697 227.578 59 227.483 59H226.014ZM230.051 59C229.955 59 229.877 58.9697 229.817 58.909C229.756 58.8483 229.726 58.7703 229.726 58.675V50.225C229.726 50.1297 229.756 50.0517 229.817 49.991C229.877 49.9303 229.955 49.9 230.051 49.9H235.94C236.035 49.9 236.113 49.9303 236.174 49.991C236.234 50.0517 236.265 50.1297 236.265 50.225V51.265C236.265 51.3517 236.234 51.4253 236.174 51.486C236.113 51.5467 236.035 51.577 235.94 51.577H231.728V53.618H235.654C235.749 53.618 235.827 53.6483 235.888 53.709C235.948 53.7697 235.979 53.8477 235.979 53.943V54.905C235.979 54.9917 235.948 55.0653 235.888 55.126C235.827 55.1867 235.749 55.217 235.654 55.217H231.728V57.323H236.044C236.139 57.323 236.217 57.3533 236.278 57.414C236.338 57.4747 236.369 57.5527 236.369 57.648V58.675C236.369 58.7703 236.338 58.8483 236.278 58.909C236.217 58.9697 236.139 59 236.044 59H230.051ZM238.239 59C238.144 59 238.066 58.9697 238.005 58.909C237.944 58.8483 237.914 58.7703 237.914 58.675V50.225C237.914 50.1297 237.944 50.0517 238.005 49.991C238.066 49.9303 238.144 49.9 238.239 49.9H239.422C239.552 49.9 239.647 49.9303 239.708 49.991C239.769 50.0517 239.808 50.0993 239.825 50.134L243.296 55.555V50.225C243.296 50.1297 243.326 50.0517 243.387 49.991C243.448 49.9303 243.521 49.9 243.608 49.9H244.934C245.029 49.9 245.107 49.9303 245.168 49.991C245.229 50.0517 245.259 50.1297 245.259 50.225V58.675C245.259 58.7617 245.229 58.8397 245.168 58.909C245.107 58.9697 245.029 59 244.934 59H243.738C243.608 59 243.513 58.9697 243.452 58.909C243.4 58.8397 243.361 58.792 243.335 58.766L239.877 53.514V58.675C239.877 58.7703 239.847 58.8483 239.786 58.909C239.725 58.9697 239.647 59 239.552 59H238.239ZM249.509 59C249.413 59 249.335 58.9697 249.275 58.909C249.214 58.8483 249.184 58.7703 249.184 58.675V51.707H246.818C246.731 51.707 246.657 51.6767 246.597 51.616C246.536 51.5553 246.506 51.4817 246.506 51.395V50.225C246.506 50.1297 246.536 50.0517 246.597 49.991C246.657 49.9303 246.731 49.9 246.818 49.9H253.63C253.725 49.9 253.803 49.9303 253.864 49.991C253.924 50.0517 253.955 50.1297 253.955 50.225V51.395C253.955 51.4817 253.924 51.5553 253.864 51.616C253.803 51.6767 253.725 51.707 253.63 51.707H251.277V58.675C251.277 58.7703 251.246 58.8483 251.186 58.909C251.125 58.9697 251.047 59 250.952 59H249.509Z" fill="#A0A0A5"/>
<path d="M275 78H125V80H275V78Z" fill="#CBC9CD" mask="url(#path-18-inside-6_905_2375)"/>
<mask id="path-21-inside-7_905_2375" fill="white">
<path d="M125 79H275V128H125V79Z"/>
</mask>
<path d="M125 79H275V128H125V79Z" fill="white"/>
<path d="M146.43 108C146.343 108 146.27 107.974 146.209 107.922C146.157 107.861 146.131 107.788 146.131 107.701V99.212C146.131 99.1167 146.157 99.043 146.209 98.991C146.27 98.9303 146.343 98.9 146.43 98.9H149.602C150.599 98.9 151.379 99.134 151.942 99.602C152.505 100.07 152.787 100.746 152.787 101.63C152.787 102.289 152.622 102.83 152.293 103.255C151.972 103.68 151.517 103.974 150.928 104.139L152.93 107.597C152.956 107.649 152.969 107.697 152.969 107.74C152.969 107.809 152.939 107.87 152.878 107.922C152.826 107.974 152.765 108 152.696 108H152.072C151.942 108 151.838 107.97 151.76 107.909C151.691 107.848 151.626 107.762 151.565 107.649L149.68 104.347H147.405V107.701C147.405 107.788 147.375 107.861 147.314 107.922C147.253 107.974 147.18 108 147.093 108H146.43ZM149.55 103.242C150.841 103.242 151.487 102.7 151.487 101.617C151.487 100.534 150.841 99.992 149.55 99.992H147.405V103.242H149.55ZM157.173 108.13C156.22 108.13 155.479 107.861 154.95 107.324C154.43 106.787 154.153 106.072 154.118 105.179L154.105 104.62L154.118 104.061C154.153 103.177 154.435 102.466 154.963 101.929C155.492 101.383 156.229 101.11 157.173 101.11C158.118 101.11 158.855 101.383 159.383 101.929C159.912 102.466 160.194 103.177 160.228 104.061C160.237 104.156 160.241 104.343 160.241 104.62C160.241 104.897 160.237 105.084 160.228 105.179C160.194 106.072 159.912 106.787 159.383 107.324C158.863 107.861 158.127 108.13 157.173 108.13ZM157.173 107.129C157.719 107.129 158.148 106.956 158.46 106.609C158.781 106.262 158.954 105.764 158.98 105.114C158.989 105.027 158.993 104.863 158.993 104.62C158.993 104.377 158.989 104.213 158.98 104.126C158.954 103.476 158.781 102.978 158.46 102.631C158.148 102.284 157.719 102.111 157.173 102.111C156.627 102.111 156.194 102.284 155.873 102.631C155.553 102.978 155.384 103.476 155.366 104.126L155.353 104.62L155.366 105.114C155.384 105.764 155.553 106.262 155.873 106.609C156.194 106.956 156.627 107.129 157.173 107.129ZM162.798 110.47C162.729 110.47 162.668 110.444 162.616 110.392C162.564 110.34 162.538 110.279 162.538 110.21C162.538 110.149 162.56 110.071 162.603 109.976L163.604 107.597L161.121 101.734C161.078 101.621 161.056 101.548 161.056 101.513C161.056 101.435 161.082 101.37 161.134 101.318C161.186 101.266 161.251 101.24 161.329 101.24H161.966C162.105 101.24 162.209 101.314 162.278 101.461L164.254 106.193L166.282 101.461C166.352 101.314 166.46 101.24 166.607 101.24H167.218C167.296 101.24 167.361 101.266 167.413 101.318C167.465 101.37 167.491 101.431 167.491 101.5C167.491 101.526 167.47 101.604 167.426 101.734L163.734 110.249C163.665 110.396 163.557 110.47 163.409 110.47H162.798Z" fill="#303032"/>
<path d="M275 127H125V129H275V127Z" fill="#CBC9CD" mask="url(#path-21-inside-7_905_2375)"/>
<mask id="path-24-inside-8_905_2375" fill="white">
<path d="M125 128H275V177H125V128Z"/>
</mask>
<path d="M125 128H275V177H125V128Z" fill="white"/>
<path d="M148.835 157.13C147.89 157.13 147.106 156.896 146.482 156.428C145.858 155.96 145.529 155.275 145.494 154.374C145.494 154.296 145.52 154.231 145.572 154.179C145.624 154.118 145.693 154.088 145.78 154.088H146.482C146.664 154.088 146.777 154.188 146.82 154.387C146.872 154.942 147.084 155.353 147.457 155.622C147.83 155.891 148.298 156.025 148.861 156.025C149.511 156.025 150.009 155.813 150.356 155.388C150.711 154.955 150.889 154.374 150.889 153.646V149.031H146.274C146.187 149.031 146.114 149.005 146.053 148.953C146.001 148.892 145.975 148.819 145.975 148.732V148.199C145.975 148.112 146.001 148.043 146.053 147.991C146.114 147.93 146.187 147.9 146.274 147.9H151.877C151.972 147.9 152.046 147.93 152.098 147.991C152.159 148.043 152.189 148.117 152.189 148.212V153.672C152.189 154.729 151.89 155.57 151.292 156.194C150.703 156.818 149.884 157.13 148.835 157.13ZM156.905 157.13C156.013 157.13 155.298 156.857 154.76 156.311C154.232 155.756 153.941 155.002 153.889 154.049L153.876 153.607L153.889 153.178C153.95 152.242 154.245 151.497 154.773 150.942C155.311 150.387 156.017 150.11 156.892 150.11C157.854 150.11 158.6 150.418 159.128 151.033C159.657 151.64 159.921 152.463 159.921 153.503V153.724C159.921 153.811 159.891 153.884 159.83 153.945C159.778 153.997 159.709 154.023 159.622 154.023H155.124V154.14C155.15 154.703 155.319 155.184 155.631 155.583C155.952 155.973 156.372 156.168 156.892 156.168C157.291 156.168 157.616 156.09 157.867 155.934C158.127 155.769 158.318 155.6 158.439 155.427C158.517 155.323 158.574 155.262 158.608 155.245C158.652 155.219 158.725 155.206 158.829 155.206H159.466C159.544 155.206 159.609 155.228 159.661 155.271C159.713 155.314 159.739 155.375 159.739 155.453C159.739 155.644 159.618 155.873 159.375 156.142C159.141 156.411 158.808 156.645 158.374 156.844C157.95 157.035 157.46 157.13 156.905 157.13ZM158.686 153.126V153.087C158.686 152.489 158.522 152.004 158.192 151.631C157.872 151.25 157.438 151.059 156.892 151.059C156.346 151.059 155.913 151.25 155.592 151.631C155.28 152.004 155.124 152.489 155.124 153.087V153.126H158.686ZM161.775 157C161.688 157 161.614 156.974 161.554 156.922C161.502 156.861 161.476 156.788 161.476 156.701V150.539C161.476 150.452 161.502 150.383 161.554 150.331C161.614 150.27 161.688 150.24 161.775 150.24H162.386C162.472 150.24 162.542 150.27 162.594 150.331C162.654 150.383 162.685 150.452 162.685 150.539V151.111C162.936 150.79 163.231 150.543 163.569 150.37C163.915 150.197 164.344 150.11 164.856 150.11C165.688 150.11 166.333 150.379 166.793 150.916C167.261 151.445 167.495 152.151 167.495 153.035V156.701C167.495 156.788 167.464 156.861 167.404 156.922C167.352 156.974 167.282 157 167.196 157H166.546C166.459 157 166.385 156.974 166.325 156.922C166.273 156.861 166.247 156.788 166.247 156.701V153.1C166.247 152.485 166.095 152.008 165.792 151.67C165.497 151.332 165.068 151.163 164.505 151.163C163.959 151.163 163.525 151.336 163.205 151.683C162.884 152.021 162.724 152.493 162.724 153.1V156.701C162.724 156.788 162.693 156.861 162.633 156.922C162.581 156.974 162.511 157 162.425 157H161.775ZM173.014 157C172.927 157 172.854 156.974 172.793 156.922C172.741 156.861 172.715 156.788 172.715 156.701V148.212C172.715 148.117 172.741 148.043 172.793 147.991C172.854 147.93 172.927 147.9 173.014 147.9H176.576C177.503 147.9 178.201 148.121 178.669 148.563C179.137 149.005 179.371 149.586 179.371 150.305C179.371 150.79 179.258 151.193 179.033 151.514C178.816 151.835 178.556 152.069 178.253 152.216C178.617 152.398 178.925 152.68 179.176 153.061C179.427 153.442 179.553 153.88 179.553 154.374C179.553 154.859 179.44 155.301 179.215 155.7C178.998 156.099 178.673 156.415 178.24 156.649C177.807 156.883 177.287 157 176.68 157H173.014ZM176.381 151.748C176.927 151.748 177.343 151.622 177.629 151.371C177.924 151.12 178.071 150.769 178.071 150.318C178.071 149.876 177.928 149.538 177.642 149.304C177.356 149.07 176.936 148.953 176.381 148.953H173.989V151.748H176.381ZM176.511 155.947C177.057 155.947 177.482 155.8 177.785 155.505C178.097 155.21 178.253 154.833 178.253 154.374C178.253 153.897 178.097 153.516 177.785 153.23C177.482 152.935 177.057 152.788 176.511 152.788H173.989V155.947H176.511ZM183.115 157.13C182.69 157.13 182.296 157.043 181.932 156.87C181.568 156.697 181.277 156.463 181.061 156.168C180.853 155.865 180.749 155.531 180.749 155.167C180.749 154.595 180.983 154.127 181.451 153.763C181.927 153.39 182.569 153.148 183.375 153.035L185.312 152.762V152.385C185.312 151.501 184.805 151.059 183.791 151.059C183.409 151.059 183.097 151.141 182.855 151.306C182.612 151.462 182.43 151.648 182.309 151.865C182.283 151.943 182.248 151.999 182.205 152.034C182.17 152.069 182.118 152.086 182.049 152.086H181.49C181.412 152.086 181.342 152.06 181.282 152.008C181.23 151.947 181.204 151.878 181.204 151.8C181.212 151.592 181.308 151.358 181.49 151.098C181.68 150.829 181.971 150.6 182.361 150.409C182.751 150.21 183.232 150.11 183.804 150.11C184.774 150.11 185.472 150.34 185.897 150.799C186.321 151.25 186.534 151.813 186.534 152.489V156.701C186.534 156.788 186.503 156.861 186.443 156.922C186.391 156.974 186.321 157 186.235 157H185.637C185.55 157 185.476 156.974 185.416 156.922C185.364 156.861 185.338 156.788 185.338 156.701V156.142C185.147 156.419 184.87 156.653 184.506 156.844C184.142 157.035 183.678 157.13 183.115 157.13ZM183.388 156.155C183.951 156.155 184.41 155.973 184.766 155.609C185.13 155.236 185.312 154.703 185.312 154.01V153.646L183.804 153.867C183.188 153.954 182.725 154.101 182.413 154.309C182.101 154.508 181.945 154.764 181.945 155.076C181.945 155.423 182.088 155.691 182.374 155.882C182.66 156.064 182.998 156.155 183.388 156.155ZM188.701 157C188.615 157 188.541 156.974 188.48 156.922C188.428 156.861 188.402 156.788 188.402 156.701V150.552C188.402 150.465 188.428 150.392 188.48 150.331C188.541 150.27 188.615 150.24 188.701 150.24H189.299C189.386 150.24 189.46 150.27 189.52 150.331C189.581 150.392 189.611 150.465 189.611 150.552V151.124C189.967 150.535 190.573 150.24 191.431 150.24H191.938C192.025 150.24 192.094 150.27 192.146 150.331C192.207 150.383 192.237 150.452 192.237 150.539V151.072C192.237 151.159 192.207 151.228 192.146 151.28C192.094 151.332 192.025 151.358 191.938 151.358H191.158C190.69 151.358 190.322 151.497 190.053 151.774C189.785 152.043 189.65 152.411 189.65 152.879V156.701C189.65 156.788 189.62 156.861 189.559 156.922C189.499 156.974 189.425 157 189.338 157H188.701ZM196.682 157.13C195.746 157.13 195.035 156.805 194.55 156.155V156.701C194.55 156.788 194.52 156.861 194.459 156.922C194.407 156.974 194.338 157 194.251 157H193.653C193.566 157 193.493 156.974 193.432 156.922C193.38 156.861 193.354 156.788 193.354 156.701V148.069C193.354 147.982 193.38 147.913 193.432 147.861C193.493 147.8 193.566 147.77 193.653 147.77H194.29C194.377 147.77 194.446 147.8 194.498 147.861C194.55 147.913 194.576 147.982 194.576 148.069V151.059C195.087 150.426 195.789 150.11 196.682 150.11C197.583 150.11 198.264 150.409 198.723 151.007C199.182 151.596 199.429 152.337 199.464 153.23C199.473 153.325 199.477 153.455 199.477 153.62C199.477 153.785 199.473 153.915 199.464 154.01C199.429 154.911 199.182 155.657 198.723 156.246C198.264 156.835 197.583 157.13 196.682 157.13ZM196.409 156.077C197.024 156.077 197.471 155.886 197.748 155.505C198.034 155.124 198.19 154.621 198.216 153.997C198.225 153.91 198.229 153.785 198.229 153.62C198.229 151.982 197.622 151.163 196.409 151.163C195.828 151.163 195.382 151.354 195.07 151.735C194.758 152.116 194.593 152.563 194.576 153.074L194.563 153.581L194.576 154.075C194.602 154.621 194.762 155.093 195.057 155.492C195.36 155.882 195.811 156.077 196.409 156.077ZM203.776 157.13C202.884 157.13 202.169 156.857 201.631 156.311C201.103 155.756 200.812 155.002 200.76 154.049L200.747 153.607L200.76 153.178C200.821 152.242 201.116 151.497 201.644 150.942C202.182 150.387 202.888 150.11 203.763 150.11C204.725 150.11 205.471 150.418 205.999 151.033C206.528 151.64 206.792 152.463 206.792 153.503V153.724C206.792 153.811 206.762 153.884 206.701 153.945C206.649 153.997 206.58 154.023 206.493 154.023H201.995V154.14C202.021 154.703 202.19 155.184 202.502 155.583C202.823 155.973 203.243 156.168 203.763 156.168C204.162 156.168 204.487 156.09 204.738 155.934C204.998 155.769 205.189 155.6 205.31 155.427C205.388 155.323 205.445 155.262 205.479 155.245C205.523 155.219 205.596 155.206 205.7 155.206H206.337C206.415 155.206 206.48 155.228 206.532 155.271C206.584 155.314 206.61 155.375 206.61 155.453C206.61 155.644 206.489 155.873 206.246 156.142C206.012 156.411 205.679 156.645 205.245 156.844C204.821 157.035 204.331 157.13 203.776 157.13ZM205.557 153.126V153.087C205.557 152.489 205.393 152.004 205.063 151.631C204.743 151.25 204.309 151.059 203.763 151.059C203.217 151.059 202.784 151.25 202.463 151.631C202.151 152.004 201.995 152.489 201.995 153.087V153.126H205.557ZM208.646 157C208.559 157 208.485 156.974 208.425 156.922C208.373 156.861 208.347 156.788 208.347 156.701V150.552C208.347 150.465 208.373 150.392 208.425 150.331C208.485 150.27 208.559 150.24 208.646 150.24H209.244C209.33 150.24 209.404 150.27 209.465 150.331C209.525 150.392 209.556 150.465 209.556 150.552V151.124C209.911 150.535 210.518 150.24 211.376 150.24H211.883C211.969 150.24 212.039 150.27 212.091 150.331C212.151 150.383 212.182 150.452 212.182 150.539V151.072C212.182 151.159 212.151 151.228 212.091 151.28C212.039 151.332 211.969 151.358 211.883 151.358H211.103C210.635 151.358 210.266 151.497 209.998 151.774C209.729 152.043 209.595 152.411 209.595 152.879V156.701C209.595 156.788 209.564 156.861 209.504 156.922C209.443 156.974 209.369 157 209.283 157H208.646Z" fill="#303032"/>
<path d="M275 176H125V178H275V176Z" fill="#CBC9CD" mask="url(#path-24-inside-8_905_2375)"/>
<mask id="path-27-inside-9_905_2375" fill="white">
<path d="M125 177H275V226H125V177Z"/>
</mask>
<path d="M125 177H275V226H125V177Z" fill="white"/>
<path d="M146.43 206C146.343 206 146.27 205.974 146.209 205.922C146.157 205.861 146.131 205.788 146.131 205.701V197.212C146.131 197.117 146.157 197.043 146.209 196.991C146.27 196.93 146.343 196.9 146.43 196.9H147.08C147.219 196.9 147.331 196.969 147.418 197.108L150.161 202.36L152.93 197.108C152.947 197.056 152.982 197.008 153.034 196.965C153.095 196.922 153.168 196.9 153.255 196.9H153.892C153.987 196.9 154.061 196.93 154.113 196.991C154.174 197.043 154.204 197.117 154.204 197.212V205.701C154.204 205.788 154.174 205.861 154.113 205.922C154.052 205.974 153.979 206 153.892 206H153.255C153.168 206 153.095 205.974 153.034 205.922C152.982 205.861 152.956 205.788 152.956 205.701V199.305L150.785 203.543C150.698 203.725 150.56 203.816 150.369 203.816H149.966C149.775 203.816 149.637 203.725 149.55 203.543L147.366 199.305V205.701C147.366 205.788 147.336 205.861 147.275 205.922C147.223 205.974 147.154 206 147.067 206H146.43ZM158.168 206.13C157.744 206.13 157.349 206.043 156.985 205.87C156.621 205.697 156.331 205.463 156.114 205.168C155.906 204.865 155.802 204.531 155.802 204.167C155.802 203.595 156.036 203.127 156.504 202.763C156.981 202.39 157.622 202.148 158.428 202.035L160.365 201.762V201.385C160.365 200.501 159.858 200.059 158.844 200.059C158.463 200.059 158.151 200.141 157.908 200.306C157.666 200.462 157.484 200.648 157.362 200.865C157.336 200.943 157.302 200.999 157.258 201.034C157.224 201.069 157.172 201.086 157.102 201.086H156.543C156.465 201.086 156.396 201.06 156.335 201.008C156.283 200.947 156.257 200.878 156.257 200.8C156.266 200.592 156.361 200.358 156.543 200.098C156.734 199.829 157.024 199.6 157.414 199.409C157.804 199.21 158.285 199.11 158.857 199.11C159.828 199.11 160.526 199.34 160.95 199.799C161.375 200.25 161.587 200.813 161.587 201.489V205.701C161.587 205.788 161.557 205.861 161.496 205.922C161.444 205.974 161.375 206 161.288 206H160.69C160.604 206 160.53 205.974 160.469 205.922C160.417 205.861 160.391 205.788 160.391 205.701V205.142C160.201 205.419 159.923 205.653 159.559 205.844C159.195 206.035 158.732 206.13 158.168 206.13ZM158.441 205.155C159.005 205.155 159.464 204.973 159.819 204.609C160.183 204.236 160.365 203.703 160.365 203.01V202.646L158.857 202.867C158.242 202.954 157.778 203.101 157.466 203.309C157.154 203.508 156.998 203.764 156.998 204.076C156.998 204.423 157.141 204.691 157.427 204.882C157.713 205.064 158.051 205.155 158.441 205.155ZM165.978 206.13C165.155 206.13 164.518 205.866 164.067 205.337C163.616 204.8 163.391 204.089 163.391 203.205V199.539C163.391 199.452 163.417 199.383 163.469 199.331C163.53 199.27 163.603 199.24 163.69 199.24H164.34C164.427 199.24 164.496 199.27 164.548 199.331C164.609 199.383 164.639 199.452 164.639 199.539V203.14C164.639 204.431 165.202 205.077 166.329 205.077C166.875 205.077 167.308 204.908 167.629 204.57C167.95 204.223 168.11 203.747 168.11 203.14V199.539C168.11 199.452 168.136 199.383 168.188 199.331C168.249 199.27 168.322 199.24 168.409 199.24H169.059C169.146 199.24 169.215 199.27 169.267 199.331C169.319 199.383 169.345 199.452 169.345 199.539V205.701C169.345 205.788 169.319 205.861 169.267 205.922C169.215 205.974 169.146 206 169.059 206H168.448C168.361 206 168.288 205.974 168.227 205.922C168.175 205.861 168.149 205.788 168.149 205.701V205.129C167.906 205.458 167.612 205.71 167.265 205.883C166.918 206.048 166.489 206.13 165.978 206.13ZM171.575 206C171.489 206 171.415 205.974 171.354 205.922C171.302 205.861 171.276 205.788 171.276 205.701V199.552C171.276 199.465 171.302 199.392 171.354 199.331C171.415 199.27 171.489 199.24 171.575 199.24H172.173C172.26 199.24 172.334 199.27 172.394 199.331C172.455 199.392 172.485 199.465 172.485 199.552V200.124C172.841 199.535 173.447 199.24 174.305 199.24H174.812C174.899 199.24 174.968 199.27 175.02 199.331C175.081 199.383 175.111 199.452 175.111 199.539V200.072C175.111 200.159 175.081 200.228 175.02 200.28C174.968 200.332 174.899 200.358 174.812 200.358H174.032C173.564 200.358 173.196 200.497 172.927 200.774C172.659 201.043 172.524 201.411 172.524 201.879V205.701C172.524 205.788 172.494 205.861 172.433 205.922C172.373 205.974 172.299 206 172.212 206H171.575ZM176.41 197.979C176.323 197.979 176.25 197.953 176.189 197.901C176.137 197.84 176.111 197.767 176.111 197.68V196.978C176.111 196.891 176.137 196.818 176.189 196.757C176.25 196.696 176.323 196.666 176.41 196.666H177.229C177.316 196.666 177.389 196.696 177.45 196.757C177.511 196.818 177.541 196.891 177.541 196.978V197.68C177.541 197.767 177.511 197.84 177.45 197.901C177.389 197.953 177.316 197.979 177.229 197.979H176.41ZM176.514 206C176.427 206 176.354 205.974 176.293 205.922C176.241 205.861 176.215 205.788 176.215 205.701V199.539C176.215 199.452 176.241 199.383 176.293 199.331C176.354 199.27 176.427 199.24 176.514 199.24H177.138C177.225 199.24 177.294 199.27 177.346 199.331C177.407 199.383 177.437 199.452 177.437 199.539V205.701C177.437 205.788 177.407 205.861 177.346 205.922C177.294 205.974 177.225 206 177.138 206H176.514ZM182.093 206.13C181.166 206.13 180.438 205.87 179.909 205.35C179.389 204.821 179.112 204.085 179.077 203.14L179.064 202.62L179.077 202.1C179.112 201.155 179.389 200.423 179.909 199.903C180.438 199.374 181.166 199.11 182.093 199.11C182.717 199.11 183.246 199.223 183.679 199.448C184.113 199.673 184.433 199.951 184.641 200.28C184.858 200.609 184.975 200.939 184.992 201.268C185.001 201.355 184.975 201.424 184.914 201.476C184.854 201.528 184.78 201.554 184.693 201.554H184.069C183.983 201.554 183.918 201.537 183.874 201.502C183.831 201.467 183.788 201.398 183.744 201.294C183.597 200.878 183.389 200.583 183.12 200.41C182.852 200.228 182.514 200.137 182.106 200.137C181.569 200.137 181.14 200.306 180.819 200.644C180.507 200.973 180.338 201.48 180.312 202.165L180.299 202.633L180.312 203.075C180.338 203.768 180.507 204.28 180.819 204.609C181.131 204.938 181.56 205.103 182.106 205.103C182.514 205.103 182.852 205.016 183.12 204.843C183.389 204.661 183.597 204.362 183.744 203.946C183.788 203.842 183.831 203.773 183.874 203.738C183.918 203.695 183.983 203.673 184.069 203.673H184.693C184.78 203.673 184.854 203.703 184.914 203.764C184.975 203.816 185.001 203.885 184.992 203.972C184.975 204.293 184.858 204.622 184.641 204.96C184.433 205.289 184.113 205.567 183.679 205.792C183.255 206.017 182.726 206.13 182.093 206.13ZM189.24 206.13C188.348 206.13 187.633 205.857 187.095 205.311C186.567 204.756 186.276 204.002 186.224 203.049L186.211 202.607L186.224 202.178C186.285 201.242 186.58 200.497 187.108 199.942C187.646 199.387 188.352 199.11 189.227 199.11C190.189 199.11 190.935 199.418 191.463 200.033C191.992 200.64 192.256 201.463 192.256 202.503V202.724C192.256 202.811 192.226 202.884 192.165 202.945C192.113 202.997 192.044 203.023 191.957 203.023H187.459V203.14C187.485 203.703 187.654 204.184 187.966 204.583C188.287 204.973 188.707 205.168 189.227 205.168C189.626 205.168 189.951 205.09 190.202 204.934C190.462 204.769 190.653 204.6 190.774 204.427C190.852 204.323 190.909 204.262 190.943 204.245C190.987 204.219 191.06 204.206 191.164 204.206H191.801C191.879 204.206 191.944 204.228 191.996 204.271C192.048 204.314 192.074 204.375 192.074 204.453C192.074 204.644 191.953 204.873 191.71 205.142C191.476 205.411 191.143 205.645 190.709 205.844C190.285 206.035 189.795 206.13 189.24 206.13ZM191.021 202.126V202.087C191.021 201.489 190.857 201.004 190.527 200.631C190.207 200.25 189.773 200.059 189.227 200.059C188.681 200.059 188.248 200.25 187.927 200.631C187.615 201.004 187.459 201.489 187.459 202.087V202.126H191.021ZM197.465 206C197.378 206 197.305 205.974 197.244 205.922C197.192 205.861 197.166 205.788 197.166 205.701V197.212C197.166 197.117 197.192 197.043 197.244 196.991C197.305 196.93 197.378 196.9 197.465 196.9H200.637C201.634 196.9 202.414 197.134 202.977 197.602C203.54 198.07 203.822 198.746 203.822 199.63C203.822 200.289 203.657 200.83 203.328 201.255C203.007 201.68 202.552 201.974 201.963 202.139L203.965 205.597C203.991 205.649 204.004 205.697 204.004 205.74C204.004 205.809 203.974 205.87 203.913 205.922C203.861 205.974 203.8 206 203.731 206H203.107C202.977 206 202.873 205.97 202.795 205.909C202.726 205.848 202.661 205.762 202.6 205.649L200.715 202.347H198.44V205.701C198.44 205.788 198.41 205.861 198.349 205.922C198.288 205.974 198.215 206 198.128 206H197.465ZM200.585 201.242C201.876 201.242 202.522 200.7 202.522 199.617C202.522 198.534 201.876 197.992 200.585 197.992H198.44V201.242H200.585ZM208.209 206.13C207.255 206.13 206.514 205.861 205.986 205.324C205.466 204.787 205.188 204.072 205.154 203.179L205.141 202.62L205.154 202.061C205.188 201.177 205.47 200.466 205.999 199.929C206.527 199.383 207.264 199.11 208.209 199.11C209.153 199.11 209.89 199.383 210.419 199.929C210.947 200.466 211.229 201.177 211.264 202.061C211.272 202.156 211.277 202.343 211.277 202.62C211.277 202.897 211.272 203.084 211.264 203.179C211.229 204.072 210.947 204.787 210.419 205.324C209.899 205.861 209.162 206.13 208.209 206.13ZM208.209 205.129C208.755 205.129 209.184 204.956 209.496 204.609C209.816 204.262 209.99 203.764 210.016 203.114C210.024 203.027 210.029 202.863 210.029 202.62C210.029 202.377 210.024 202.213 210.016 202.126C209.99 201.476 209.816 200.978 209.496 200.631C209.184 200.284 208.755 200.111 208.209 200.111C207.663 200.111 207.229 200.284 206.909 200.631C206.588 200.978 206.419 201.476 206.402 202.126L206.389 202.62L206.402 203.114C206.419 203.764 206.588 204.262 206.909 204.609C207.229 204.956 207.663 205.129 208.209 205.129ZM215.244 206.13C214.638 206.13 214.126 206.035 213.71 205.844C213.303 205.645 212.995 205.419 212.787 205.168C212.588 204.917 212.488 204.709 212.488 204.544C212.488 204.457 212.519 204.392 212.579 204.349C212.649 204.297 212.718 204.271 212.787 204.271H213.372C213.459 204.271 213.537 204.314 213.606 204.401C213.814 204.644 214.04 204.834 214.282 204.973C214.525 205.112 214.85 205.181 215.257 205.181C215.708 205.181 216.072 205.094 216.349 204.921C216.635 204.739 216.778 204.492 216.778 204.18C216.778 203.972 216.718 203.803 216.596 203.673C216.484 203.534 216.284 203.417 215.998 203.322C215.721 203.218 215.305 203.105 214.75 202.984C213.996 202.819 213.459 202.581 213.138 202.269C212.826 201.957 212.67 201.554 212.67 201.06C212.67 200.731 212.766 200.419 212.956 200.124C213.156 199.821 213.442 199.578 213.814 199.396C214.196 199.205 214.651 199.11 215.179 199.11C215.734 199.11 216.206 199.201 216.596 199.383C216.986 199.565 217.277 199.782 217.467 200.033C217.667 200.276 217.766 200.479 217.766 200.644C217.766 200.722 217.736 200.787 217.675 200.839C217.623 200.891 217.558 200.917 217.48 200.917H216.934C216.83 200.917 216.744 200.874 216.674 200.787C216.536 200.622 216.414 200.497 216.31 200.41C216.215 200.315 216.072 200.232 215.881 200.163C215.699 200.094 215.465 200.059 215.179 200.059C214.763 200.059 214.443 200.15 214.217 200.332C213.992 200.505 213.879 200.735 213.879 201.021C213.879 201.203 213.927 201.359 214.022 201.489C214.118 201.61 214.3 201.723 214.568 201.827C214.846 201.931 215.244 202.039 215.764 202.152C216.588 202.325 217.168 202.577 217.506 202.906C217.853 203.227 218.026 203.638 218.026 204.141C218.026 204.514 217.918 204.852 217.701 205.155C217.485 205.458 217.164 205.697 216.739 205.87C216.323 206.043 215.825 206.13 215.244 206.13ZM221.871 206.13C221.265 206.13 220.753 206.035 220.337 205.844C219.93 205.645 219.622 205.419 219.414 205.168C219.215 204.917 219.115 204.709 219.115 204.544C219.115 204.457 219.146 204.392 219.206 204.349C219.276 204.297 219.345 204.271 219.414 204.271H219.999C220.086 204.271 220.164 204.314 220.233 204.401C220.441 204.644 220.667 204.834 220.909 204.973C221.152 205.112 221.477 205.181 221.884 205.181C222.335 205.181 222.699 205.094 222.976 204.921C223.262 204.739 223.405 204.492 223.405 204.18C223.405 203.972 223.345 203.803 223.223 203.673C223.111 203.534 222.911 203.417 222.625 203.322C222.348 203.218 221.932 203.105 221.377 202.984C220.623 202.819 220.086 202.581 219.765 202.269C219.453 201.957 219.297 201.554 219.297 201.06C219.297 200.731 219.393 200.419 219.583 200.124C219.783 199.821 220.069 199.578 220.441 199.396C220.823 199.205 221.278 199.11 221.806 199.11C222.361 199.11 222.833 199.201 223.223 199.383C223.613 199.565 223.904 199.782 224.094 200.033C224.294 200.276 224.393 200.479 224.393 200.644C224.393 200.722 224.363 200.787 224.302 200.839C224.25 200.891 224.185 200.917 224.107 200.917H223.561C223.457 200.917 223.371 200.874 223.301 200.787C223.163 200.622 223.041 200.497 222.937 200.41C222.842 200.315 222.699 200.232 222.508 200.163C222.326 200.094 222.092 200.059 221.806 200.059C221.39 200.059 221.07 200.15 220.844 200.332C220.619 200.505 220.506 200.735 220.506 201.021C220.506 201.203 220.554 201.359 220.649 201.489C220.745 201.61 220.927 201.723 221.195 201.827C221.473 201.931 221.871 202.039 222.391 202.152C223.215 202.325 223.795 202.577 224.133 202.906C224.48 203.227 224.653 203.638 224.653 204.141C224.653 204.514 224.545 204.852 224.328 205.155C224.112 205.458 223.791 205.697 223.366 205.87C222.95 206.043 222.452 206.13 221.871 206.13Z" fill="#303032"/>
<path d="M275 225H125V227H275V225Z" fill="#CBC9CD" mask="url(#path-27-inside-9_905_2375)"/>
<mask id="path-30-inside-10_905_2375" fill="white">
<path d="M275 30H363V79H275V30Z"/>
</mask>
<path d="M275 30H363V79H275V30Z" fill="white"/>
<rect x="295" y="46" width="48" height="17" rx="5" fill="#F2F2F6"/>
<path d="M363 78H275V80H363V78Z" fill="#CBC9CD" mask="url(#path-30-inside-10_905_2375)"/>
<mask id="path-33-inside-11_905_2375" fill="white">
<path d="M275 79H363V128H275V79Z"/>
</mask>
<path d="M275 79H363V128H275V79Z" fill="white"/>
<rect x="295" y="95" width="48" height="17" rx="5" fill="#F2F2F6"/>
<path d="M363 127H275V129H363V127Z" fill="#CBC9CD" mask="url(#path-33-inside-11_905_2375)"/>
<mask id="path-36-inside-12_905_2375" fill="white">
<path d="M275 128H363V177H275V128Z"/>
</mask>
<path d="M275 128H363V177H275V128Z" fill="white"/>
<rect x="295" y="144" width="48" height="17" rx="5" fill="#F2F2F6"/>
<path d="M363 176H275V178H363V176Z" fill="#CBC9CD" mask="url(#path-36-inside-12_905_2375)"/>
<mask id="path-39-inside-13_905_2375" fill="white">
<path d="M275 177H363V226H275V177Z"/>
</mask>
<path d="M275 177H363V226H275V177Z" fill="white"/>
<rect x="295" y="193" width="48" height="17" rx="5" fill="#F2F2F6"/>
<path d="M363 225H275V227H363V225Z" fill="#CBC9CD" mask="url(#path-39-inside-13_905_2375)"/>
</g>
<path d="M1 256V0H-1V256H1Z" fill="#EAEAEF" mask="url(#path-1-inside-1_905_2375)"/>
<defs>
<filter id="filter0_d_905_2375" x="17" y="20" width="366" height="236" filterUnits="userSpaceOnUse" color-interpolation-filters="sRGB">
<feFlood flood-opacity="0" result="BackgroundImageFix"/>
<feColorMatrix in="SourceAlpha" type="matrix" values="0 0 0 0 0 0 0 0 0 0 0 0 0 0 0 0 0 0 127 0" result="hardAlpha"/>
<feOffset dy="10"/>
<feGaussianBlur stdDeviation="10"/>
<feComposite in2="hardAlpha" operator="out"/>
<feColorMatrix type="matrix" values="0 0 0 0 0.117647 0 0 0 0 0.117647 0 0 0 0 0.117647 0 0 0 0.12 0"/>
<feBlend mode="normal" in2="BackgroundImageFix" result="effect1_dropShadow_905_2375"/>
<feBlend mode="normal" in="SourceGraphic" in2="effect1_dropShadow_905_2375" result="shape"/>
</filter>
</defs>
</svg>
