<svg width="402" height="135" viewBox="0 0 402 135" fill="none" xmlns="http://www.w3.org/2000/svg">
<rect x="0.5" y="0.5" width="401" height="134" fill="white"/>
<rect width="400" height="133" transform="translate(1 1)" fill="white"/>
<rect width="320" height="73" transform="translate(41 31)" fill="white"/>
<path d="M42.326 44C42.2393 44 42.1657 43.9697 42.105 43.909C42.0443 43.8483 42.014 43.7747 42.014 43.688V35.225C42.014 35.1297 42.04 35.0517 42.092 34.991C42.1527 34.9303 42.2307 34.9 42.326 34.9H48.046C48.1413 34.9 48.2193 34.9303 48.28 34.991C48.3407 35.0517 48.371 35.1297 48.371 35.225V36.083C48.371 36.1783 48.3407 36.2563 48.28 36.317C48.2193 36.369 48.1413 36.395 48.046 36.395H43.769V38.696H47.76C47.8553 38.696 47.9333 38.7263 47.994 38.787C48.0547 38.839 48.085 38.9127 48.085 39.008V39.814C48.085 39.9093 48.0547 39.9873 47.994 40.048C47.9333 40.1 47.8553 40.126 47.76 40.126H43.769V42.505H48.15C48.2453 42.505 48.3233 42.5353 48.384 42.596C48.4447 42.6567 48.475 42.7347 48.475 42.83V43.688C48.475 43.7833 48.4447 43.8613 48.384 43.922C48.3233 43.974 48.2453 44 48.15 44H42.326ZM50.4259 44C50.3306 44 50.2526 43.974 50.1919 43.922C50.1312 43.8613 50.1009 43.7833 50.1009 43.688V35.225C50.1009 35.1297 50.1312 35.0517 50.1919 34.991C50.2526 34.9303 50.3306 34.9 50.4259 34.9H51.4529C51.6349 34.9 51.7649 34.9823 51.8429 35.147L54.3519 39.827L56.8869 35.147C56.9736 34.9823 57.1036 34.9 57.2769 34.9H58.2909C58.3862 34.9 58.4642 34.9303 58.5249 34.991C58.5856 35.0517 58.6159 35.1297 58.6159 35.225V43.688C58.6159 43.7833 58.5856 43.8613 58.5249 43.922C58.4642 43.974 58.3862 44 58.2909 44H57.1989C57.1122 44 57.0386 43.9697 56.9779 43.909C56.9172 43.8483 56.8869 43.7747 56.8869 43.688V38.059L55.0669 41.53C54.9542 41.7207 54.8069 41.816 54.6249 41.816H54.0919C53.9099 41.816 53.7626 41.7207 53.6499 41.53L51.8299 38.059V43.688C51.8299 43.7747 51.7996 43.8483 51.7389 43.909C51.6869 43.9697 51.6132 44 51.5179 44H50.4259ZM60.079 44C60.0097 44 59.9447 43.974 59.884 43.922C59.832 43.87 59.806 43.805 59.806 43.727L59.832 43.61L62.965 35.225C63.0257 35.0083 63.1774 34.9 63.42 34.9H64.837C65.0624 34.9 65.214 35.0083 65.292 35.225L68.425 43.61C68.4337 43.636 68.438 43.675 68.438 43.727C68.438 43.805 68.412 43.87 68.36 43.922C68.308 43.974 68.2474 44 68.178 44H67.047C66.9344 44 66.8477 43.974 66.787 43.922C66.7264 43.87 66.6874 43.8137 66.67 43.753L66.059 42.167H62.198L61.587 43.753C61.5177 43.9177 61.392 44 61.21 44H60.079ZM65.604 40.672L64.122 36.655L62.653 40.672H65.604ZM69.9637 44C69.877 44 69.8034 43.9697 69.7427 43.909C69.682 43.8483 69.6517 43.7747 69.6517 43.688V35.212C69.6517 35.1167 69.682 35.043 69.7427 34.991C69.8034 34.9303 69.877 34.9 69.9637 34.9H71.1857C71.281 34.9 71.3547 34.9303 71.4067 34.991C71.4674 35.043 71.4977 35.1167 71.4977 35.212V43.688C71.4977 43.7747 71.4674 43.8483 71.4067 43.909C71.3547 43.9697 71.281 44 71.1857 44H69.9637ZM73.8485 44C73.7618 44 73.6881 43.9697 73.6275 43.909C73.5668 43.8483 73.5365 43.7747 73.5365 43.688V35.212C73.5365 35.1167 73.5668 35.043 73.6275 34.991C73.6881 34.9303 73.7618 34.9 73.8485 34.9H75.0575C75.1528 34.9 75.2265 34.9303 75.2785 34.991C75.3391 35.043 75.3695 35.1167 75.3695 35.212V42.453H79.4905C79.5858 42.453 79.6638 42.4833 79.7245 42.544C79.7851 42.6047 79.8155 42.6827 79.8155 42.778V43.688C79.8155 43.7833 79.7851 43.8613 79.7245 43.922C79.6638 43.974 79.5858 44 79.4905 44H73.8485Z" fill="#A0A0A5"/>
<rect x="41.5" y="59.5" width="319" height="44" rx="2.5" fill="#F5F7F9"/>
<path d="M59.96 86.15C58.92 86.15 58.135 85.81 57.605 85.13C57.075 84.45 56.795 83.59 56.765 82.55L56.75 82.1L56.765 81.65C56.795 80.62 57.075 79.765 57.605 79.085C58.135 78.395 58.92 78.05 59.96 78.05C60.99 78.05 61.8 78.415 62.39 79.145V75.695C62.39 75.595 62.42 75.515 62.48 75.455C62.55 75.385 62.635 75.35 62.735 75.35H63.455C63.555 75.35 63.635 75.385 63.695 75.455C63.765 75.515 63.8 75.595 63.8 75.695V85.655C63.8 85.755 63.765 85.84 63.695 85.91C63.635 85.97 63.555 86 63.455 86H62.78C62.68 86 62.595 85.97 62.525 85.91C62.465 85.84 62.435 85.755 62.435 85.655V85.025C61.855 85.775 61.03 86.15 59.96 86.15ZM60.275 84.935C60.965 84.935 61.48 84.71 61.82 84.26C62.17 83.8 62.36 83.255 62.39 82.625C62.4 82.515 62.405 82.325 62.405 82.055C62.405 81.775 62.4 81.58 62.39 81.47C62.37 80.88 62.18 80.365 61.82 79.925C61.46 79.485 60.945 79.265 60.275 79.265C59.565 79.265 59.045 79.485 58.715 79.925C58.395 80.365 58.22 80.945 58.19 81.665L58.175 82.1C58.175 83.99 58.875 84.935 60.275 84.935ZM68.2059 86.15C67.7159 86.15 67.2609 86.05 66.8409 85.85C66.4209 85.65 66.0859 85.38 65.8359 85.04C65.5959 84.69 65.4759 84.305 65.4759 83.885C65.4759 83.225 65.7459 82.685 66.2859 82.265C66.8359 81.835 67.5759 81.555 68.5059 81.425L70.7409 81.11V80.675C70.7409 79.655 70.1559 79.145 68.9859 79.145C68.5459 79.145 68.1859 79.24 67.9059 79.43C67.6259 79.61 67.4159 79.825 67.2759 80.075C67.2459 80.165 67.2059 80.23 67.1559 80.27C67.1159 80.31 67.0559 80.33 66.9759 80.33H66.3309C66.2409 80.33 66.1609 80.3 66.0909 80.24C66.0309 80.17 66.0009 80.09 66.0009 80C66.0109 79.76 66.1209 79.49 66.3309 79.19C66.5509 78.88 66.8859 78.615 67.3359 78.395C67.7859 78.165 68.3409 78.05 69.0009 78.05C70.1209 78.05 70.9259 78.315 71.4159 78.845C71.9059 79.365 72.1509 80.015 72.1509 80.795V85.655C72.1509 85.755 72.1159 85.84 72.0459 85.91C71.9859 85.97 71.9059 86 71.8059 86H71.1159C71.0159 86 70.9309 85.97 70.8609 85.91C70.8009 85.84 70.7709 85.755 70.7709 85.655V85.01C70.5509 85.33 70.2309 85.6 69.8109 85.82C69.3909 86.04 68.8559 86.15 68.2059 86.15ZM68.5209 85.025C69.1709 85.025 69.7009 84.815 70.1109 84.395C70.5309 83.965 70.7409 83.35 70.7409 82.55V82.13L69.0009 82.385C68.2909 82.485 67.7559 82.655 67.3959 82.895C67.0359 83.125 66.8559 83.42 66.8559 83.78C66.8559 84.18 67.0209 84.49 67.3509 84.71C67.6809 84.92 68.0709 85.025 68.5209 85.025ZM76.8758 86C76.6158 86 76.4308 85.875 76.3208 85.625L73.5458 78.665L73.5158 78.515C73.5158 78.425 73.5458 78.35 73.6058 78.29C73.6658 78.23 73.7408 78.2 73.8308 78.2H74.5508C74.7208 78.2 74.8458 78.285 74.9258 78.455L77.2058 84.365L79.4858 78.455C79.5758 78.285 79.6958 78.2 79.8458 78.2H80.5808C80.6608 78.2 80.7308 78.23 80.7908 78.29C80.8608 78.35 80.8958 78.425 80.8958 78.515L80.8658 78.665L78.0758 85.625C77.9658 85.875 77.7808 86 77.5208 86H76.8758ZM85.3081 86.15C84.2781 86.15 83.4531 85.835 82.8331 85.205C82.2231 84.565 81.8881 83.695 81.8281 82.595L81.8131 82.085L81.8281 81.59C81.8981 80.51 82.2381 79.65 82.8481 79.01C83.4681 78.37 84.2831 78.05 85.2931 78.05C86.4031 78.05 87.2631 78.405 87.8731 79.115C88.4831 79.815 88.7881 80.765 88.7881 81.965V82.22C88.7881 82.32 88.7531 82.405 88.6831 82.475C88.6231 82.535 88.5431 82.565 88.4431 82.565H83.2531V82.7C83.2831 83.35 83.4781 83.905 83.8381 84.365C84.2081 84.815 84.6931 85.04 85.2931 85.04C85.7531 85.04 86.1281 84.95 86.4181 84.77C86.7181 84.58 86.9381 84.385 87.0781 84.185C87.1681 84.065 87.2331 83.995 87.2731 83.975C87.3231 83.945 87.4081 83.93 87.5281 83.93H88.2631C88.3531 83.93 88.4281 83.955 88.4881 84.005C88.5481 84.055 88.5781 84.125 88.5781 84.215C88.5781 84.435 88.4381 84.7 88.1581 85.01C87.8881 85.32 87.5031 85.59 87.0031 85.82C86.5131 86.04 85.9481 86.15 85.3081 86.15ZM87.3631 81.53V81.485C87.3631 80.795 87.1731 80.235 86.7931 79.805C86.4231 79.365 85.9231 79.145 85.2931 79.145C84.6631 79.145 84.1631 79.365 83.7931 79.805C83.4331 80.235 83.2531 80.795 83.2531 81.485V81.53H87.3631ZM90.8217 86C90.7217 86 90.6367 85.97 90.5667 85.91C90.5067 85.84 90.4767 85.755 90.4767 85.655V84.575C90.4767 84.475 90.5067 84.395 90.5667 84.335C90.6367 84.265 90.7217 84.23 90.8217 84.23H91.9017C92.0017 84.23 92.0867 84.265 92.1567 84.335C92.2267 84.395 92.2617 84.475 92.2617 84.575V85.655C92.2617 85.755 92.2267 85.84 92.1567 85.91C92.0867 85.97 92.0017 86 91.9017 86H90.8217ZM94.721 86C94.621 86 94.536 85.97 94.466 85.91C94.406 85.84 94.376 85.755 94.376 85.655V75.695C94.376 75.595 94.406 75.515 94.466 75.455C94.536 75.385 94.621 75.35 94.721 75.35H95.426C95.526 75.35 95.606 75.385 95.666 75.455C95.736 75.515 95.771 75.595 95.771 75.695V85.655C95.771 85.755 95.736 85.84 95.666 85.91C95.606 85.97 95.526 86 95.426 86H94.721ZM98.2334 76.745C98.1334 76.745 98.0484 76.715 97.9784 76.655C97.9184 76.585 97.8884 76.5 97.8884 76.4V75.59C97.8884 75.49 97.9184 75.405 97.9784 75.335C98.0484 75.265 98.1334 75.23 98.2334 75.23H99.1784C99.2784 75.23 99.3634 75.265 99.4334 75.335C99.5034 75.405 99.5384 75.49 99.5384 75.59V76.4C99.5384 76.5 99.5034 76.585 99.4334 76.655C99.3634 76.715 99.2784 76.745 99.1784 76.745H98.2334ZM98.3534 86C98.2534 86 98.1684 85.97 98.0984 85.91C98.0384 85.84 98.0084 85.755 98.0084 85.655V78.545C98.0084 78.445 98.0384 78.365 98.0984 78.305C98.1684 78.235 98.2534 78.2 98.3534 78.2H99.0734C99.1734 78.2 99.2534 78.235 99.3134 78.305C99.3834 78.365 99.4184 78.445 99.4184 78.545V85.655C99.4184 85.755 99.3834 85.84 99.3134 85.91C99.2534 85.97 99.1734 86 99.0734 86H98.3534ZM101.491 86C101.391 86 101.306 85.97 101.236 85.91C101.176 85.84 101.146 85.755 101.146 85.655V85.13C101.146 85.05 101.166 84.97 101.206 84.89C101.256 84.8 101.306 84.72 101.356 84.65L105.496 79.385H101.626C101.526 79.385 101.441 79.355 101.371 79.295C101.311 79.225 101.281 79.14 101.281 79.04V78.545C101.281 78.445 101.311 78.365 101.371 78.305C101.441 78.235 101.526 78.2 101.626 78.2H106.966C107.066 78.2 107.146 78.235 107.206 78.305C107.276 78.365 107.311 78.445 107.311 78.545V79.1C107.311 79.18 107.286 79.26 107.236 79.34C107.196 79.42 107.151 79.495 107.101 79.565L103.006 84.815H107.266C107.376 84.815 107.461 84.845 107.521 84.905C107.581 84.965 107.611 85.05 107.611 85.16V85.655C107.611 85.755 107.576 85.84 107.506 85.91C107.446 85.97 107.366 86 107.266 86H101.491ZM112.305 86.15C111.275 86.15 110.45 85.835 109.83 85.205C109.22 84.565 108.885 83.695 108.825 82.595L108.81 82.085L108.825 81.59C108.895 80.51 109.235 79.65 109.845 79.01C110.465 78.37 111.28 78.05 112.29 78.05C113.4 78.05 114.26 78.405 114.87 79.115C115.48 79.815 115.785 80.765 115.785 81.965V82.22C115.785 82.32 115.75 82.405 115.68 82.475C115.62 82.535 115.54 82.565 115.44 82.565H110.25V82.7C110.28 83.35 110.475 83.905 110.835 84.365C111.205 84.815 111.69 85.04 112.29 85.04C112.75 85.04 113.125 84.95 113.415 84.77C113.715 84.58 113.935 84.385 114.075 84.185C114.165 84.065 114.23 83.995 114.27 83.975C114.32 83.945 114.405 83.93 114.525 83.93H115.26C115.35 83.93 115.425 83.955 115.485 84.005C115.545 84.055 115.575 84.125 115.575 84.215C115.575 84.435 115.435 84.7 115.155 85.01C114.885 85.32 114.5 85.59 114 85.82C113.51 86.04 112.945 86.15 112.305 86.15ZM114.36 81.53V81.485C114.36 80.795 114.17 80.235 113.79 79.805C113.42 79.365 112.92 79.145 112.29 79.145C111.66 79.145 111.16 79.365 110.79 79.805C110.43 80.235 110.25 80.795 110.25 81.485V81.53H114.36ZM119.444 86C119.314 86 119.214 85.97 119.144 85.91C119.074 85.85 119.014 85.755 118.964 85.625L116.834 78.665L116.804 78.515C116.804 78.425 116.834 78.35 116.894 78.29C116.964 78.23 117.039 78.2 117.119 78.2H117.779C117.879 78.2 117.959 78.23 118.019 78.29C118.089 78.34 118.134 78.395 118.154 78.455L119.819 84.11L121.604 78.515C121.624 78.435 121.669 78.365 121.739 78.305C121.809 78.235 121.904 78.2 122.024 78.2H122.534C122.654 78.2 122.749 78.235 122.819 78.305C122.889 78.365 122.934 78.435 122.954 78.515L124.739 84.11L126.404 78.455C126.414 78.405 126.449 78.35 126.509 78.29C126.579 78.23 126.664 78.2 126.764 78.2H127.439C127.519 78.2 127.589 78.23 127.649 78.29C127.709 78.35 127.739 78.425 127.739 78.515L127.709 78.665L125.594 85.625C125.544 85.755 125.484 85.85 125.414 85.91C125.344 85.97 125.239 86 125.099 86H124.514C124.244 86 124.079 85.875 124.019 85.625L122.279 80.255L120.539 85.625C120.459 85.875 120.289 86 120.029 86H119.444ZM131.91 86.15C131.21 86.15 130.62 86.04 130.14 85.82C129.67 85.59 129.315 85.33 129.075 85.04C128.845 84.75 128.73 84.51 128.73 84.32C128.73 84.22 128.765 84.145 128.835 84.095C128.915 84.035 128.995 84.005 129.075 84.005H129.75C129.85 84.005 129.94 84.055 130.02 84.155C130.26 84.435 130.52 84.655 130.8 84.815C131.08 84.975 131.455 85.055 131.925 85.055C132.445 85.055 132.865 84.955 133.185 84.755C133.515 84.545 133.68 84.26 133.68 83.9C133.68 83.66 133.61 83.465 133.47 83.315C133.34 83.155 133.11 83.02 132.78 82.91C132.46 82.79 131.98 82.66 131.34 82.52C130.47 82.33 129.85 82.055 129.48 81.695C129.12 81.335 128.94 80.87 128.94 80.3C128.94 79.92 129.05 79.56 129.27 79.22C129.5 78.87 129.83 78.59 130.26 78.38C130.7 78.16 131.225 78.05 131.835 78.05C132.475 78.05 133.02 78.155 133.47 78.365C133.92 78.575 134.255 78.825 134.475 79.115C134.705 79.395 134.82 79.63 134.82 79.82C134.82 79.91 134.785 79.985 134.715 80.045C134.655 80.105 134.58 80.135 134.49 80.135H133.86C133.74 80.135 133.64 80.085 133.56 79.985C133.4 79.795 133.26 79.65 133.14 79.55C133.03 79.44 132.865 79.345 132.645 79.265C132.435 79.185 132.165 79.145 131.835 79.145C131.355 79.145 130.985 79.25 130.725 79.46C130.465 79.66 130.335 79.925 130.335 80.255C130.335 80.465 130.39 80.645 130.5 80.795C130.61 80.935 130.82 81.065 131.13 81.185C131.45 81.305 131.91 81.43 132.51 81.56C133.46 81.76 134.13 82.05 134.52 82.43C134.92 82.8 135.12 83.275 135.12 83.855C135.12 84.285 134.995 84.675 134.745 85.025C134.495 85.375 134.125 85.65 133.635 85.85C133.155 86.05 132.58 86.15 131.91 86.15ZM137.216 86C137.116 86 137.031 85.97 136.961 85.91C136.901 85.84 136.871 85.755 136.871 85.655V75.695C136.871 75.595 136.901 75.515 136.961 75.455C137.031 75.385 137.116 75.35 137.216 75.35H137.921C138.021 75.35 138.101 75.385 138.161 75.455C138.231 75.515 138.266 75.595 138.266 75.695V80.915L141.221 78.455C141.251 78.435 141.301 78.395 141.371 78.335C141.441 78.285 141.506 78.25 141.566 78.23C141.636 78.21 141.721 78.2 141.821 78.2H142.616C142.706 78.2 142.781 78.23 142.841 78.29C142.901 78.35 142.931 78.425 142.931 78.515C142.931 78.625 142.871 78.72 142.751 78.8L139.286 81.68L143.126 85.415C143.246 85.515 143.306 85.605 143.306 85.685C143.306 85.775 143.276 85.85 143.216 85.91C143.156 85.97 143.081 86 142.991 86H142.211C142.061 86 141.951 85.985 141.881 85.955C141.821 85.925 141.731 85.855 141.611 85.745L138.266 82.55V85.655C138.266 85.755 138.231 85.84 138.161 85.91C138.101 85.97 138.021 86 137.921 86H137.216ZM144.815 76.745C144.715 76.745 144.63 76.715 144.56 76.655C144.5 76.585 144.47 76.5 144.47 76.4V75.59C144.47 75.49 144.5 75.405 144.56 75.335C144.63 75.265 144.715 75.23 144.815 75.23H145.76C145.86 75.23 145.945 75.265 146.015 75.335C146.085 75.405 146.12 75.49 146.12 75.59V76.4C146.12 76.5 146.085 76.585 146.015 76.655C145.945 76.715 145.86 76.745 145.76 76.745H144.815ZM144.935 86C144.835 86 144.75 85.97 144.68 85.91C144.62 85.84 144.59 85.755 144.59 85.655V78.545C144.59 78.445 144.62 78.365 144.68 78.305C144.75 78.235 144.835 78.2 144.935 78.2H145.655C145.755 78.2 145.835 78.235 145.895 78.305C145.965 78.365 146 78.445 146 78.545V85.655C146 85.755 145.965 85.84 145.895 85.91C145.835 85.97 145.755 86 145.655 86H144.935ZM153.278 87.77C151.698 87.77 150.463 87.37 149.573 86.57C148.683 85.78 148.163 84.655 148.013 83.195C147.983 82.905 147.968 82.475 147.968 81.905C147.968 81.305 147.983 80.88 148.013 80.63C148.163 79.21 148.683 78.09 149.573 77.27C150.473 76.44 151.688 76.025 153.218 76.025C154.988 76.025 156.318 76.425 157.208 77.225C158.098 78.015 158.583 79.15 158.663 80.63C158.683 81.03 158.693 81.34 158.693 81.56C158.693 82.01 158.683 82.355 158.663 82.595C158.623 83.315 158.423 83.865 158.063 84.245C157.713 84.625 157.233 84.815 156.623 84.815C156.193 84.815 155.843 84.725 155.573 84.545C155.303 84.365 155.098 84.17 154.958 83.96C154.788 84.24 154.558 84.48 154.268 84.68C153.988 84.87 153.583 84.965 153.053 84.965C152.303 84.965 151.708 84.7 151.268 84.17C150.838 83.63 150.623 82.875 150.623 81.905C150.623 80.935 150.838 80.18 151.268 79.64C151.708 79.1 152.303 78.83 153.053 78.83C153.423 78.83 153.723 78.9 153.953 79.04C154.193 79.17 154.403 79.34 154.583 79.55V79.295C154.583 79.195 154.613 79.115 154.673 79.055C154.743 78.985 154.828 78.95 154.928 78.95H155.333C155.433 78.95 155.513 78.985 155.573 79.055C155.643 79.115 155.678 79.195 155.678 79.295V82.49C155.678 82.9 155.763 83.215 155.933 83.435C156.103 83.655 156.333 83.765 156.623 83.765C156.973 83.765 157.213 83.635 157.343 83.375C157.483 83.115 157.558 82.82 157.568 82.49C157.588 82.25 157.598 81.94 157.598 81.56C157.598 81.39 157.588 81.105 157.568 80.705C157.478 79.485 157.093 78.575 156.413 77.975C155.743 77.365 154.678 77.06 153.218 77.06C152.008 77.06 151.053 77.38 150.353 78.02C149.663 78.65 149.248 79.545 149.108 80.705C149.078 80.955 149.063 81.355 149.063 81.905C149.063 82.425 149.078 82.83 149.108 83.12C149.228 84.27 149.643 85.16 150.353 85.79C151.063 86.41 152.038 86.72 153.278 86.72C153.928 86.72 154.463 86.665 154.883 86.555C155.313 86.455 155.623 86.345 155.813 86.225C156.013 86.105 156.243 85.945 156.503 85.745C156.523 85.735 156.568 85.7 156.638 85.64C156.708 85.59 156.793 85.565 156.893 85.565H157.493C157.583 85.565 157.658 85.595 157.718 85.655C157.788 85.715 157.823 85.795 157.823 85.895C157.823 85.975 157.793 86.045 157.733 86.105C157.273 86.605 156.688 87.005 155.978 87.305C155.278 87.615 154.378 87.77 153.278 87.77ZM153.143 83.915C153.653 83.915 154.018 83.745 154.238 83.405C154.468 83.055 154.583 82.555 154.583 81.905C154.583 81.255 154.468 80.755 154.238 80.405C154.018 80.055 153.653 79.88 153.143 79.88C152.653 79.88 152.293 80.06 152.063 80.42C151.833 80.77 151.718 81.265 151.718 81.905C151.718 82.495 151.833 82.98 152.063 83.36C152.303 83.73 152.663 83.915 153.143 83.915ZM163.899 89.3C163.079 89.3 162.419 89.16 161.919 88.88C161.419 88.61 161.064 88.3 160.854 87.95C160.644 87.6 160.529 87.285 160.509 87.005C160.499 86.905 160.529 86.82 160.599 86.75C160.679 86.68 160.764 86.645 160.854 86.645H161.574C161.664 86.645 161.739 86.665 161.799 86.705C161.859 86.755 161.909 86.84 161.949 86.96C162.069 87.28 162.264 87.555 162.534 87.785C162.814 88.025 163.244 88.145 163.824 88.145C164.564 88.145 165.109 87.985 165.459 87.665C165.809 87.355 165.984 86.8 165.984 86V84.98C165.724 85.31 165.394 85.575 164.994 85.775C164.594 85.965 164.119 86.06 163.569 86.06C162.509 86.06 161.714 85.725 161.184 85.055C160.664 84.375 160.389 83.515 160.359 82.475L160.344 82.055L160.359 81.65C160.389 80.62 160.669 79.765 161.199 79.085C161.729 78.395 162.519 78.05 163.569 78.05C164.619 78.05 165.439 78.435 166.029 79.205V78.56C166.029 78.46 166.059 78.375 166.119 78.305C166.189 78.235 166.274 78.2 166.374 78.2H167.064C167.164 78.2 167.249 78.235 167.319 78.305C167.389 78.375 167.424 78.46 167.424 78.56V85.835C167.424 88.145 166.249 89.3 163.899 89.3ZM163.869 84.86C164.549 84.86 165.064 84.635 165.414 84.185C165.764 83.735 165.954 83.2 165.984 82.58C165.994 82.49 165.999 82.315 165.999 82.055C165.999 81.805 165.994 81.635 165.984 81.545C165.954 80.925 165.764 80.39 165.414 79.94C165.074 79.49 164.559 79.265 163.869 79.265C163.159 79.265 162.644 79.485 162.324 79.925C162.004 80.365 161.829 80.945 161.799 81.665L161.784 82.055L161.799 82.46C161.829 83.17 162.004 83.75 162.324 84.2C162.644 84.64 163.159 84.86 163.869 84.86ZM169.999 86C169.899 86 169.814 85.97 169.744 85.91C169.684 85.84 169.654 85.755 169.654 85.655V78.545C169.654 78.445 169.684 78.365 169.744 78.305C169.814 78.235 169.899 78.2 169.999 78.2H170.674C170.774 78.2 170.854 78.235 170.914 78.305C170.984 78.365 171.019 78.445 171.019 78.545V79.07C171.539 78.39 172.264 78.05 173.194 78.05C174.304 78.05 175.089 78.51 175.549 79.43C175.789 79.01 176.129 78.675 176.569 78.425C177.009 78.175 177.504 78.05 178.054 78.05C178.874 78.05 179.544 78.33 180.064 78.89C180.584 79.45 180.844 80.26 180.844 81.32V85.655C180.844 85.755 180.809 85.84 180.739 85.91C180.679 85.97 180.599 86 180.499 86H179.794C179.694 86 179.609 85.97 179.539 85.91C179.479 85.84 179.449 85.755 179.449 85.655V81.455C179.449 80.675 179.284 80.115 178.954 79.775C178.634 79.435 178.209 79.265 177.679 79.265C177.209 79.265 176.804 79.44 176.464 79.79C176.124 80.13 175.954 80.685 175.954 81.455V85.655C175.954 85.755 175.919 85.84 175.849 85.91C175.789 85.97 175.709 86 175.609 86H174.904C174.804 86 174.719 85.97 174.649 85.91C174.589 85.84 174.559 85.755 174.559 85.655V81.455C174.559 80.675 174.389 80.115 174.049 79.775C173.719 79.435 173.299 79.265 172.789 79.265C172.319 79.265 171.914 79.44 171.574 79.79C171.234 80.13 171.064 80.68 171.064 81.44V85.655C171.064 85.755 171.029 85.84 170.959 85.91C170.899 85.97 170.819 86 170.719 86H169.999ZM185.159 86.15C184.669 86.15 184.214 86.05 183.794 85.85C183.374 85.65 183.039 85.38 182.789 85.04C182.549 84.69 182.429 84.305 182.429 83.885C182.429 83.225 182.699 82.685 183.239 82.265C183.789 81.835 184.529 81.555 185.459 81.425L187.694 81.11V80.675C187.694 79.655 187.109 79.145 185.939 79.145C185.499 79.145 185.139 79.24 184.859 79.43C184.579 79.61 184.369 79.825 184.229 80.075C184.199 80.165 184.159 80.23 184.109 80.27C184.069 80.31 184.009 80.33 183.929 80.33H183.284C183.194 80.33 183.114 80.3 183.044 80.24C182.984 80.17 182.954 80.09 182.954 80C182.964 79.76 183.074 79.49 183.284 79.19C183.504 78.88 183.839 78.615 184.289 78.395C184.739 78.165 185.294 78.05 185.954 78.05C187.074 78.05 187.879 78.315 188.369 78.845C188.859 79.365 189.104 80.015 189.104 80.795V85.655C189.104 85.755 189.069 85.84 188.999 85.91C188.939 85.97 188.859 86 188.759 86H188.069C187.969 86 187.884 85.97 187.814 85.91C187.754 85.84 187.724 85.755 187.724 85.655V85.01C187.504 85.33 187.184 85.6 186.764 85.82C186.344 86.04 185.809 86.15 185.159 86.15ZM185.474 85.025C186.124 85.025 186.654 84.815 187.064 84.395C187.484 83.965 187.694 83.35 187.694 82.55V82.13L185.954 82.385C185.244 82.485 184.709 82.655 184.349 82.895C183.989 83.125 183.809 83.42 183.809 83.78C183.809 84.18 183.974 84.49 184.304 84.71C184.634 84.92 185.024 85.025 185.474 85.025ZM191.485 76.745C191.385 76.745 191.3 76.715 191.23 76.655C191.17 76.585 191.14 76.5 191.14 76.4V75.59C191.14 75.49 191.17 75.405 191.23 75.335C191.3 75.265 191.385 75.23 191.485 75.23H192.43C192.53 75.23 192.615 75.265 192.685 75.335C192.755 75.405 192.79 75.49 192.79 75.59V76.4C192.79 76.5 192.755 76.585 192.685 76.655C192.615 76.715 192.53 76.745 192.43 76.745H191.485ZM191.605 86C191.505 86 191.42 85.97 191.35 85.91C191.29 85.84 191.26 85.755 191.26 85.655V78.545C191.26 78.445 191.29 78.365 191.35 78.305C191.42 78.235 191.505 78.2 191.605 78.2H192.325C192.425 78.2 192.505 78.235 192.565 78.305C192.635 78.365 192.67 78.445 192.67 78.545V85.655C192.67 85.755 192.635 85.84 192.565 85.91C192.505 85.97 192.425 86 192.325 86H191.605ZM195.253 86C195.153 86 195.068 85.97 194.998 85.91C194.938 85.84 194.908 85.755 194.908 85.655V75.695C194.908 75.595 194.938 75.515 194.998 75.455C195.068 75.385 195.153 75.35 195.253 75.35H195.958C196.058 75.35 196.138 75.385 196.198 75.455C196.268 75.515 196.303 75.595 196.303 75.695V85.655C196.303 85.755 196.268 85.84 196.198 85.91C196.138 85.97 196.058 86 195.958 86H195.253ZM198.781 86C198.681 86 198.596 85.97 198.526 85.91C198.466 85.84 198.436 85.755 198.436 85.655V84.575C198.436 84.475 198.466 84.395 198.526 84.335C198.596 84.265 198.681 84.23 198.781 84.23H199.861C199.961 84.23 200.046 84.265 200.116 84.335C200.186 84.395 200.221 84.475 200.221 84.575V85.655C200.221 85.755 200.186 85.84 200.116 85.91C200.046 85.97 199.961 86 199.861 86H198.781ZM205.323 86.15C204.253 86.15 203.413 85.85 202.803 85.25C202.203 84.64 201.883 83.79 201.843 82.7L201.828 82.1L201.843 81.5C201.883 80.41 202.203 79.565 202.803 78.965C203.413 78.355 204.253 78.05 205.323 78.05C206.043 78.05 206.653 78.18 207.153 78.44C207.653 78.7 208.023 79.02 208.263 79.4C208.513 79.78 208.648 80.16 208.668 80.54C208.678 80.64 208.648 80.72 208.578 80.78C208.508 80.84 208.423 80.87 208.323 80.87H207.603C207.503 80.87 207.428 80.85 207.378 80.81C207.328 80.77 207.278 80.69 207.228 80.57C207.058 80.09 206.818 79.75 206.508 79.55C206.198 79.34 205.808 79.235 205.338 79.235C204.718 79.235 204.223 79.43 203.853 79.82C203.493 80.2 203.298 80.785 203.268 81.575L203.253 82.115L203.268 82.625C203.298 83.425 203.493 84.015 203.853 84.395C204.213 84.775 204.708 84.965 205.338 84.965C205.808 84.965 206.198 84.865 206.508 84.665C206.818 84.455 207.058 84.11 207.228 83.63C207.278 83.51 207.328 83.43 207.378 83.39C207.428 83.34 207.503 83.315 207.603 83.315H208.323C208.423 83.315 208.508 83.35 208.578 83.42C208.648 83.48 208.678 83.56 208.668 83.66C208.648 84.03 208.513 84.41 208.263 84.8C208.023 85.18 207.653 85.5 207.153 85.76C206.663 86.02 206.053 86.15 205.323 86.15ZM213.645 86.15C212.545 86.15 211.69 85.84 211.08 85.22C210.48 84.6 210.16 83.775 210.12 82.745L210.105 82.1L210.12 81.455C210.16 80.435 210.485 79.615 211.095 78.995C211.705 78.365 212.555 78.05 213.645 78.05C214.735 78.05 215.585 78.365 216.195 78.995C216.805 79.615 217.13 80.435 217.17 81.455C217.18 81.565 217.185 81.78 217.185 82.1C217.185 82.42 217.18 82.635 217.17 82.745C217.13 83.775 216.805 84.6 216.195 85.22C215.595 85.84 214.745 86.15 213.645 86.15ZM213.645 84.995C214.275 84.995 214.77 84.795 215.13 84.395C215.5 83.995 215.7 83.42 215.73 82.67C215.74 82.57 215.745 82.38 215.745 82.1C215.745 81.82 215.74 81.63 215.73 81.53C215.7 80.78 215.5 80.205 215.13 79.805C214.77 79.405 214.275 79.205 213.645 79.205C213.015 79.205 212.515 79.405 212.145 79.805C211.775 80.205 211.58 80.78 211.56 81.53L211.545 82.1L211.56 82.67C211.58 83.42 211.775 83.995 212.145 84.395C212.515 84.795 213.015 84.995 213.645 84.995ZM219.408 86C219.308 86 219.223 85.97 219.153 85.91C219.093 85.84 219.063 85.755 219.063 85.655V78.545C219.063 78.445 219.093 78.365 219.153 78.305C219.223 78.235 219.308 78.2 219.408 78.2H220.083C220.183 78.2 220.263 78.235 220.323 78.305C220.393 78.365 220.428 78.445 220.428 78.545V79.07C220.948 78.39 221.673 78.05 222.603 78.05C223.713 78.05 224.498 78.51 224.958 79.43C225.198 79.01 225.538 78.675 225.978 78.425C226.418 78.175 226.913 78.05 227.463 78.05C228.283 78.05 228.953 78.33 229.473 78.89C229.993 79.45 230.253 80.26 230.253 81.32V85.655C230.253 85.755 230.218 85.84 230.148 85.91C230.088 85.97 230.008 86 229.908 86H229.203C229.103 86 229.018 85.97 228.948 85.91C228.888 85.84 228.858 85.755 228.858 85.655V81.455C228.858 80.675 228.693 80.115 228.363 79.775C228.043 79.435 227.618 79.265 227.088 79.265C226.618 79.265 226.213 79.44 225.873 79.79C225.533 80.13 225.363 80.685 225.363 81.455V85.655C225.363 85.755 225.328 85.84 225.258 85.91C225.198 85.97 225.118 86 225.018 86H224.313C224.213 86 224.128 85.97 224.058 85.91C223.998 85.84 223.968 85.755 223.968 85.655V81.455C223.968 80.675 223.798 80.115 223.458 79.775C223.128 79.435 222.708 79.265 222.198 79.265C221.728 79.265 221.323 79.44 220.983 79.79C220.643 80.13 220.473 80.68 220.473 81.44V85.655C220.473 85.755 220.438 85.84 220.368 85.91C220.308 85.97 220.228 86 220.128 86H219.408Z" fill="#303032"/>
<rect x="41.5" y="59.5" width="319" height="44" rx="2.5" stroke="#DDDDE2"/>
<path d="M0.5 0.5H52.5V17C52.5 18.933 50.933 20.5 49 20.5H0.5V0.5Z" fill="#F5F7F9"/>
<path d="M13.122 14C13.0487 14 12.9863 13.9743 12.935 13.923C12.8837 13.8717 12.858 13.8093 12.858 13.736V6.564C12.858 6.48333 12.8837 6.421 12.935 6.377C12.9863 6.32567 13.0487 6.3 13.122 6.3H14.156C14.2367 6.3 14.299 6.32567 14.343 6.377C14.3943 6.421 14.42 6.48333 14.42 6.564V13.736C14.42 13.8093 14.3943 13.8717 14.343 13.923C14.299 13.9743 14.2367 14 14.156 14H13.122ZM16.2771 14C16.2038 14 16.1414 13.9743 16.0901 13.923C16.0388 13.8717 16.0131 13.8093 16.0131 13.736V8.544C16.0131 8.47067 16.0388 8.40833 16.0901 8.357C16.1414 8.30567 16.2038 8.28 16.2771 8.28H17.1791C17.2524 8.28 17.3148 8.30567 17.3661 8.357C17.4174 8.40833 17.4431 8.47067 17.4431 8.544V8.995C17.8758 8.445 18.4881 8.17 19.2801 8.17C19.9548 8.17 20.4901 8.39367 20.8861 8.841C21.2821 9.281 21.4801 9.88233 21.4801 10.645V13.736C21.4801 13.8093 21.4544 13.8717 21.4031 13.923C21.3591 13.9743 21.2968 14 21.2161 14H20.2481C20.1748 14 20.1124 13.9743 20.0611 13.923C20.0098 13.8717 19.9841 13.8093 19.9841 13.736V10.711C19.9841 10.2783 19.8778 9.94467 19.6651 9.71C19.4598 9.468 19.1591 9.347 18.7631 9.347C18.3744 9.347 18.0664 9.468 17.8391 9.71C17.6191 9.952 17.5091 10.2857 17.5091 10.711V13.736C17.5091 13.8093 17.4834 13.8717 17.4321 13.923C17.3881 13.9743 17.3258 14 17.2451 14H16.2771ZM23.1524 16.09C23.079 16.09 23.0167 16.0643 22.9654 16.013C22.914 15.969 22.8884 15.9067 22.8884 15.826V8.544C22.8884 8.46333 22.914 8.401 22.9654 8.357C23.0167 8.30567 23.079 8.28 23.1524 8.28H24.0214C24.102 8.28 24.1644 8.30567 24.2084 8.357C24.2597 8.401 24.2854 8.46333 24.2854 8.544V8.984C24.696 8.44133 25.2827 8.17 26.0454 8.17C26.786 8.17 27.3544 8.40467 27.7504 8.874C28.1464 9.336 28.359 9.963 28.3884 10.755C28.3957 10.843 28.3994 10.9713 28.3994 11.14C28.3994 11.316 28.3957 11.448 28.3884 11.536C28.359 12.306 28.1464 12.9293 27.7504 13.406C27.3544 13.8753 26.786 14.11 26.0454 14.11C25.3047 14.11 24.74 13.8497 24.3514 13.329V15.826C24.3514 15.9067 24.3257 15.969 24.2744 16.013C24.2304 16.0643 24.168 16.09 24.0874 16.09H23.1524ZM25.6384 12.933C26.4304 12.933 26.852 12.4453 26.9034 11.47C26.9107 11.3967 26.9144 11.2867 26.9144 11.14C26.9144 10.9933 26.9107 10.8833 26.9034 10.81C26.852 9.83467 26.4304 9.347 25.6384 9.347C25.213 9.347 24.8977 9.48267 24.6924 9.754C24.487 10.0253 24.3734 10.359 24.3514 10.755L24.3404 11.173L24.3514 11.602C24.366 11.9687 24.4797 12.284 24.6924 12.548C24.9124 12.8047 25.2277 12.933 25.6384 12.933ZM31.7572 14.11C31.0825 14.11 30.5509 13.89 30.1622 13.45C29.7735 13.0027 29.5792 12.3977 29.5792 11.635V8.544C29.5792 8.47067 29.6049 8.40833 29.6562 8.357C29.7075 8.30567 29.7699 8.28 29.8432 8.28H30.8112C30.8919 8.28 30.9542 8.30567 30.9982 8.357C31.0495 8.401 31.0752 8.46333 31.0752 8.544V11.569C31.0752 12.4783 31.4749 12.933 32.2742 12.933C32.6555 12.933 32.9562 12.812 33.1762 12.57C33.4035 12.328 33.5172 11.9943 33.5172 11.569V8.544C33.5172 8.47067 33.5429 8.40833 33.5942 8.357C33.6455 8.30567 33.7079 8.28 33.7812 8.28H34.7492C34.8299 8.28 34.8922 8.30567 34.9362 8.357C34.9875 8.401 35.0132 8.46333 35.0132 8.544V13.736C35.0132 13.8093 34.9875 13.8717 34.9362 13.923C34.8922 13.9743 34.8299 14 34.7492 14H33.8582C33.7849 14 33.7225 13.9743 33.6712 13.923C33.6199 13.8717 33.5942 13.8093 33.5942 13.736V13.285C33.1835 13.835 32.5712 14.11 31.7572 14.11ZM39.0512 14C38.3839 14 37.8816 13.8277 37.5442 13.483C37.2142 13.131 37.0492 12.6177 37.0492 11.943V9.446H36.1802C36.1069 9.446 36.0446 9.42033 35.9932 9.369C35.9419 9.31033 35.9162 9.24433 35.9162 9.171V8.544C35.9162 8.47067 35.9419 8.40833 35.9932 8.357C36.0446 8.30567 36.1069 8.28 36.1802 8.28H37.0492V6.454C37.0492 6.37333 37.0749 6.311 37.1262 6.267C37.1776 6.21567 37.2399 6.19 37.3132 6.19H38.2042C38.2849 6.19 38.3472 6.21567 38.3912 6.267C38.4426 6.311 38.4682 6.37333 38.4682 6.454V8.28H39.8432C39.9239 8.28 39.9862 8.30567 40.0302 8.357C40.0816 8.401 40.1072 8.46333 40.1072 8.544V9.171C40.1072 9.25167 40.0816 9.31767 40.0302 9.369C39.9789 9.42033 39.9166 9.446 39.8432 9.446H38.4682V11.833C38.4682 12.1483 38.5232 12.3867 38.6332 12.548C38.7432 12.7093 38.9266 12.79 39.1832 12.79H39.9422C40.0156 12.79 40.0779 12.8157 40.1292 12.867C40.1806 12.9183 40.2062 12.9807 40.2062 13.054V13.736C40.2062 13.8093 40.1806 13.8717 40.1292 13.923C40.0852 13.9743 40.0229 14 39.9422 14H39.0512Z" fill="#535356"/>
<path d="M0.5 0.5H52.5V17C52.5 18.933 50.933 20.5 49 20.5H0.5V0.5Z" stroke="#EAEAEF"/>
<rect x="0.5" y="0.5" width="401" height="134" stroke="#EAEAEF"/>
</svg>
