<svg width="402" height="135" viewBox="0 0 402 135" fill="none" xmlns="http://www.w3.org/2000/svg">
<rect x="0.5" y="0.5" width="401" height="134" fill="white"/>
<rect width="400" height="133" transform="translate(1 1)" fill="white"/>
<rect width="320" height="73" transform="translate(41 31)" fill="white"/>
<path d="M41.455 44C41.3857 44 41.3207 43.974 41.26 43.922C41.208 43.87 41.182 43.805 41.182 43.727L41.208 43.61L44.341 35.225C44.4017 35.0083 44.5533 34.9 44.796 34.9H46.213C46.4383 34.9 46.59 35.0083 46.668 35.225L49.801 43.61C49.8097 43.636 49.814 43.675 49.814 43.727C49.814 43.805 49.788 43.87 49.736 43.922C49.684 43.974 49.6233 44 49.554 44H48.423C48.3103 44 48.2237 43.974 48.163 43.922C48.1023 43.87 48.0633 43.8137 48.046 43.753L47.435 42.167H43.574L42.963 43.753C42.8937 43.9177 42.768 44 42.586 44H41.455ZM46.98 40.672L45.498 36.655L44.029 40.672H46.98ZM54.3859 44.13C53.1986 44.13 52.2713 43.8223 51.6039 43.207C50.9453 42.5917 50.5943 41.7337 50.5509 40.633C50.5423 40.3817 50.5379 39.9787 50.5379 39.424C50.5379 38.8693 50.5423 38.4663 50.5509 38.215C50.5943 37.1403 50.9496 36.2997 51.6169 35.693C52.2929 35.0777 53.2159 34.77 54.3859 34.77C55.1833 34.77 55.8679 34.9043 56.4399 35.173C57.0119 35.4417 57.4453 35.7797 57.7399 36.187C58.0346 36.5857 58.1906 36.98 58.2079 37.37V37.396C58.2079 37.4653 58.1819 37.526 58.1299 37.578C58.0779 37.6213 58.0129 37.643 57.9349 37.643H56.5959C56.5093 37.643 56.4443 37.63 56.4009 37.604C56.3576 37.5693 56.3186 37.513 56.2839 37.435C56.1626 37.1143 55.9503 36.8413 55.6469 36.616C55.3436 36.382 54.9233 36.265 54.3859 36.265C53.7793 36.265 53.3026 36.4297 52.9559 36.759C52.6179 37.0883 52.4359 37.5953 52.4099 38.28C52.4013 38.5313 52.3969 38.9127 52.3969 39.424C52.3969 39.9267 52.4013 40.308 52.4099 40.568C52.4619 41.946 53.1293 42.635 54.4119 42.635C55.0273 42.635 55.5213 42.4703 55.8939 42.141C56.2666 41.803 56.4529 41.3047 56.4529 40.646V40.243H54.8669C54.7716 40.243 54.6936 40.2127 54.6329 40.152C54.5809 40.0913 54.5549 40.0133 54.5549 39.918V39.229C54.5549 39.1337 54.5809 39.0557 54.6329 38.995C54.6936 38.9343 54.7716 38.904 54.8669 38.904H57.9739C58.0693 38.904 58.1429 38.9343 58.1949 38.995C58.2556 39.0557 58.2859 39.1337 58.2859 39.229V40.594C58.2859 41.3133 58.1256 41.9417 57.8049 42.479C57.4929 43.0077 57.0423 43.415 56.4529 43.701C55.8636 43.987 55.1746 44.13 54.3859 44.13ZM60.2645 44C60.1778 44 60.1041 43.9697 60.0435 43.909C59.9828 43.8483 59.9525 43.7747 59.9525 43.688V35.225C59.9525 35.1297 59.9785 35.0517 60.0305 34.991C60.0911 34.9303 60.1691 34.9 60.2645 34.9H65.9845C66.0798 34.9 66.1578 34.9303 66.2185 34.991C66.2791 35.0517 66.3095 35.1297 66.3095 35.225V36.083C66.3095 36.1783 66.2791 36.2563 66.2185 36.317C66.1578 36.369 66.0798 36.395 65.9845 36.395H61.7075V38.696H65.6985C65.7938 38.696 65.8718 38.7263 65.9325 38.787C65.9931 38.839 66.0235 38.9127 66.0235 39.008V39.814C66.0235 39.9093 65.9931 39.9873 65.9325 40.048C65.8718 40.1 65.7938 40.126 65.6985 40.126H61.7075V42.505H66.0885C66.1838 42.505 66.2618 42.5353 66.3225 42.596C66.3831 42.6567 66.4135 42.7347 66.4135 42.83V43.688C66.4135 43.7833 66.3831 43.8613 66.3225 43.922C66.2618 43.974 66.1838 44 66.0885 44H60.2645Z" fill="#A0A0A5"/>
<rect x="41.5" y="59.5" width="319" height="44" rx="2.5" fill="#F5F7F9"/>
<rect x="41.5" y="59.5" width="319" height="44" rx="2.5" stroke="#DDDDE2"/>
<path d="M0.5 0.5H52.5V17C52.5 18.933 50.933 20.5 49 20.5H0.5V0.5Z" fill="#F5F7F9"/>
<path d="M13.122 14C13.0487 14 12.9863 13.9743 12.935 13.923C12.8837 13.8717 12.858 13.8093 12.858 13.736V6.564C12.858 6.48333 12.8837 6.421 12.935 6.377C12.9863 6.32567 13.0487 6.3 13.122 6.3H14.156C14.2367 6.3 14.299 6.32567 14.343 6.377C14.3943 6.421 14.42 6.48333 14.42 6.564V13.736C14.42 13.8093 14.3943 13.8717 14.343 13.923C14.299 13.9743 14.2367 14 14.156 14H13.122ZM16.2771 14C16.2038 14 16.1414 13.9743 16.0901 13.923C16.0388 13.8717 16.0131 13.8093 16.0131 13.736V8.544C16.0131 8.47067 16.0388 8.40833 16.0901 8.357C16.1414 8.30567 16.2038 8.28 16.2771 8.28H17.1791C17.2524 8.28 17.3148 8.30567 17.3661 8.357C17.4174 8.40833 17.4431 8.47067 17.4431 8.544V8.995C17.8758 8.445 18.4881 8.17 19.2801 8.17C19.9548 8.17 20.4901 8.39367 20.8861 8.841C21.2821 9.281 21.4801 9.88233 21.4801 10.645V13.736C21.4801 13.8093 21.4544 13.8717 21.4031 13.923C21.3591 13.9743 21.2968 14 21.2161 14H20.2481C20.1748 14 20.1124 13.9743 20.0611 13.923C20.0098 13.8717 19.9841 13.8093 19.9841 13.736V10.711C19.9841 10.2783 19.8778 9.94467 19.6651 9.71C19.4598 9.468 19.1591 9.347 18.7631 9.347C18.3744 9.347 18.0664 9.468 17.8391 9.71C17.6191 9.952 17.5091 10.2857 17.5091 10.711V13.736C17.5091 13.8093 17.4834 13.8717 17.4321 13.923C17.3881 13.9743 17.3258 14 17.2451 14H16.2771ZM23.1524 16.09C23.079 16.09 23.0167 16.0643 22.9654 16.013C22.914 15.969 22.8884 15.9067 22.8884 15.826V8.544C22.8884 8.46333 22.914 8.401 22.9654 8.357C23.0167 8.30567 23.079 8.28 23.1524 8.28H24.0214C24.102 8.28 24.1644 8.30567 24.2084 8.357C24.2597 8.401 24.2854 8.46333 24.2854 8.544V8.984C24.696 8.44133 25.2827 8.17 26.0454 8.17C26.786 8.17 27.3544 8.40467 27.7504 8.874C28.1464 9.336 28.359 9.963 28.3884 10.755C28.3957 10.843 28.3994 10.9713 28.3994 11.14C28.3994 11.316 28.3957 11.448 28.3884 11.536C28.359 12.306 28.1464 12.9293 27.7504 13.406C27.3544 13.8753 26.786 14.11 26.0454 14.11C25.3047 14.11 24.74 13.8497 24.3514 13.329V15.826C24.3514 15.9067 24.3257 15.969 24.2744 16.013C24.2304 16.0643 24.168 16.09 24.0874 16.09H23.1524ZM25.6384 12.933C26.4304 12.933 26.852 12.4453 26.9034 11.47C26.9107 11.3967 26.9144 11.2867 26.9144 11.14C26.9144 10.9933 26.9107 10.8833 26.9034 10.81C26.852 9.83467 26.4304 9.347 25.6384 9.347C25.213 9.347 24.8977 9.48267 24.6924 9.754C24.487 10.0253 24.3734 10.359 24.3514 10.755L24.3404 11.173L24.3514 11.602C24.366 11.9687 24.4797 12.284 24.6924 12.548C24.9124 12.8047 25.2277 12.933 25.6384 12.933ZM31.7572 14.11C31.0825 14.11 30.5509 13.89 30.1622 13.45C29.7735 13.0027 29.5792 12.3977 29.5792 11.635V8.544C29.5792 8.47067 29.6049 8.40833 29.6562 8.357C29.7075 8.30567 29.7699 8.28 29.8432 8.28H30.8112C30.8919 8.28 30.9542 8.30567 30.9982 8.357C31.0495 8.401 31.0752 8.46333 31.0752 8.544V11.569C31.0752 12.4783 31.4749 12.933 32.2742 12.933C32.6555 12.933 32.9562 12.812 33.1762 12.57C33.4035 12.328 33.5172 11.9943 33.5172 11.569V8.544C33.5172 8.47067 33.5429 8.40833 33.5942 8.357C33.6455 8.30567 33.7079 8.28 33.7812 8.28H34.7492C34.8299 8.28 34.8922 8.30567 34.9362 8.357C34.9875 8.401 35.0132 8.46333 35.0132 8.544V13.736C35.0132 13.8093 34.9875 13.8717 34.9362 13.923C34.8922 13.9743 34.8299 14 34.7492 14H33.8582C33.7849 14 33.7225 13.9743 33.6712 13.923C33.6199 13.8717 33.5942 13.8093 33.5942 13.736V13.285C33.1835 13.835 32.5712 14.11 31.7572 14.11ZM39.0512 14C38.3839 14 37.8816 13.8277 37.5442 13.483C37.2142 13.131 37.0492 12.6177 37.0492 11.943V9.446H36.1802C36.1069 9.446 36.0446 9.42033 35.9932 9.369C35.9419 9.31033 35.9162 9.24433 35.9162 9.171V8.544C35.9162 8.47067 35.9419 8.40833 35.9932 8.357C36.0446 8.30567 36.1069 8.28 36.1802 8.28H37.0492V6.454C37.0492 6.37333 37.0749 6.311 37.1262 6.267C37.1776 6.21567 37.2399 6.19 37.3132 6.19H38.2042C38.2849 6.19 38.3472 6.21567 38.3912 6.267C38.4426 6.311 38.4682 6.37333 38.4682 6.454V8.28H39.8432C39.9239 8.28 39.9862 8.30567 40.0302 8.357C40.0816 8.401 40.1072 8.46333 40.1072 8.544V9.171C40.1072 9.25167 40.0816 9.31767 40.0302 9.369C39.9789 9.42033 39.9166 9.446 39.8432 9.446H38.4682V11.833C38.4682 12.1483 38.5232 12.3867 38.6332 12.548C38.7432 12.7093 38.9266 12.79 39.1832 12.79H39.9422C40.0156 12.79 40.0779 12.8157 40.1292 12.867C40.1806 12.9183 40.2062 12.9807 40.2062 13.054V13.736C40.2062 13.8093 40.1806 13.8717 40.1292 13.923C40.0852 13.9743 40.0229 14 39.9422 14H39.0512Z" fill="#535356"/>
<path d="M0.5 0.5H52.5V17C52.5 18.933 50.933 20.5 49 20.5H0.5V0.5Z" stroke="#EAEAEF"/>
<rect x="0.5" y="0.5" width="401" height="134" stroke="#EAEAEF"/>
</svg>
