<svg width="402" height="210" viewBox="0 0 402 210" fill="none" xmlns="http://www.w3.org/2000/svg">
<rect x="0.5" y="0.5" width="401" height="209" fill="white"/>
<rect width="400" height="208" transform="translate(1 1)" fill="white"/>
<rect width="320" height="148" transform="translate(41 31)" fill="white"/>
<path d="M42.326 44C42.2393 44 42.1657 43.9697 42.105 43.909C42.0443 43.8483 42.014 43.7747 42.014 43.688V35.225C42.014 35.1297 42.04 35.0517 42.092 34.991C42.1527 34.9303 42.2307 34.9 42.326 34.9H45.498C48.046 34.9 49.346 36.0787 49.398 38.436C49.4153 38.9387 49.424 39.2767 49.424 39.45C49.424 39.6147 49.4153 39.9483 49.398 40.451C49.3633 41.6643 49.0383 42.5613 48.423 43.142C47.8077 43.714 46.8543 44 45.563 44H42.326ZM45.498 42.505C46.226 42.505 46.7503 42.3447 47.071 42.024C47.3917 41.6947 47.5607 41.1573 47.578 40.412C47.5953 39.892 47.604 39.567 47.604 39.437C47.604 39.2983 47.5953 38.9777 47.578 38.475C47.5607 37.7643 47.3787 37.24 47.032 36.902C46.694 36.564 46.161 36.395 45.433 36.395H43.821V42.505H45.498ZM51.4666 44C51.38 44 51.3063 43.9697 51.2456 43.909C51.185 43.8483 51.1546 43.7747 51.1546 43.688V35.225C51.1546 35.1297 51.1806 35.0517 51.2326 34.991C51.2933 34.9303 51.3713 34.9 51.4666 34.9H57.1866C57.282 34.9 57.36 34.9303 57.4206 34.991C57.4813 35.0517 57.5116 35.1297 57.5116 35.225V36.083C57.5116 36.1783 57.4813 36.2563 57.4206 36.317C57.36 36.369 57.282 36.395 57.1866 36.395H52.9096V38.696H56.9006C56.996 38.696 57.074 38.7263 57.1346 38.787C57.1953 38.839 57.2256 38.9127 57.2256 39.008V39.814C57.2256 39.9093 57.1953 39.9873 57.1346 40.048C57.074 40.1 56.996 40.126 56.9006 40.126H52.9096V42.505H57.2906C57.386 42.505 57.464 42.5353 57.5246 42.596C57.5853 42.6567 57.6156 42.7347 57.6156 42.83V43.688C57.6156 43.7833 57.5853 43.8613 57.5246 43.922C57.464 43.974 57.386 44 57.2906 44H51.4666ZM62.4005 44.13C61.6292 44.13 60.9662 44.013 60.4115 43.779C59.8569 43.545 59.4365 43.2373 59.1505 42.856C58.8645 42.4747 58.7129 42.063 58.6955 41.621C58.6955 41.543 58.7215 41.478 58.7735 41.426C58.8255 41.374 58.8905 41.348 58.9685 41.348H60.1255C60.2295 41.348 60.3075 41.3697 60.3595 41.413C60.4202 41.4477 60.4765 41.5083 60.5285 41.595C60.6152 41.8897 60.8145 42.1367 61.1265 42.336C61.4385 42.5353 61.8632 42.635 62.4005 42.635C63.0159 42.635 63.4795 42.5353 63.7915 42.336C64.1035 42.128 64.2595 41.842 64.2595 41.478C64.2595 41.2353 64.1772 41.036 64.0125 40.88C63.8565 40.724 63.6182 40.5897 63.2975 40.477C62.9855 40.3643 62.5175 40.2257 61.8935 40.061C60.8709 39.8183 60.1212 39.4977 59.6445 39.099C59.1765 38.6917 58.9425 38.1153 58.9425 37.37C58.9425 36.8673 59.0769 36.421 59.3455 36.031C59.6229 35.641 60.0172 35.3333 60.5285 35.108C61.0485 34.8827 61.6509 34.77 62.3355 34.77C63.0462 34.77 63.6615 34.8957 64.1815 35.147C64.7015 35.3983 65.0959 35.7147 65.3645 36.096C65.6419 36.4687 65.7892 36.8413 65.8065 37.214C65.8065 37.292 65.7805 37.357 65.7285 37.409C65.6765 37.461 65.6115 37.487 65.5335 37.487H64.3245C64.1425 37.487 64.0169 37.4047 63.9475 37.24C63.8955 36.9627 63.7222 36.733 63.4275 36.551C63.1329 36.3603 62.7689 36.265 62.3355 36.265C61.8502 36.265 61.4689 36.356 61.1915 36.538C60.9142 36.72 60.7755 36.9843 60.7755 37.331C60.7755 37.5737 60.8449 37.773 60.9835 37.929C61.1222 38.085 61.3389 38.2237 61.6335 38.345C61.9369 38.4663 62.3702 38.6007 62.9335 38.748C63.6962 38.9213 64.3029 39.1163 64.7535 39.333C65.2129 39.5497 65.5509 39.8227 65.7675 40.152C65.9842 40.4813 66.0925 40.9017 66.0925 41.413C66.0925 41.9677 65.9365 42.453 65.6245 42.869C65.3212 43.2763 64.8879 43.5883 64.3245 43.805C63.7699 44.0217 63.1285 44.13 62.4005 44.13ZM71.0924 44.13C69.8964 44.13 68.969 43.8223 68.3104 43.207C67.6604 42.5917 67.3137 41.725 67.2704 40.607C67.2617 40.373 67.2574 39.9917 67.2574 39.463C67.2574 38.9257 67.2617 38.5357 67.2704 38.293C67.3137 37.1837 67.6647 36.3213 68.3234 35.706C68.9907 35.082 69.9137 34.77 71.0924 34.77C71.8637 34.77 72.5354 34.9043 73.1074 35.173C73.6794 35.433 74.1214 35.7927 74.4334 36.252C74.7454 36.7027 74.91 37.214 74.9274 37.786V37.812C74.9274 37.8813 74.897 37.942 74.8364 37.994C74.7844 38.0373 74.7237 38.059 74.6544 38.059H73.4194C73.3154 38.059 73.2374 38.0373 73.1854 37.994C73.1334 37.9507 73.09 37.8683 73.0554 37.747C72.9167 37.201 72.687 36.8197 72.3664 36.603C72.0457 36.3777 71.6167 36.265 71.0794 36.265C69.8314 36.265 69.1814 36.9627 69.1294 38.358C69.1207 38.592 69.1164 38.9517 69.1164 39.437C69.1164 39.9223 69.1207 40.2907 69.1294 40.542C69.1814 41.9373 69.8314 42.635 71.0794 42.635C71.6167 42.635 72.0457 42.5223 72.3664 42.297C72.6957 42.0717 72.9254 41.6903 73.0554 41.153C73.0814 41.0317 73.1204 40.9493 73.1724 40.906C73.233 40.8627 73.3154 40.841 73.4194 40.841H74.6544C74.7324 40.841 74.7974 40.867 74.8494 40.919C74.91 40.971 74.936 41.036 74.9274 41.114C74.91 41.686 74.7454 42.2017 74.4334 42.661C74.1214 43.1117 73.6794 43.4713 73.1074 43.74C72.5354 44 71.8637 44.13 71.0924 44.13ZM76.7811 44C76.6944 44 76.6207 43.9697 76.5601 43.909C76.4994 43.8483 76.4691 43.7747 76.4691 43.688V35.225C76.4691 35.1297 76.4951 35.0517 76.5471 34.991C76.6077 34.9303 76.6857 34.9 76.7811 34.9H80.1481C81.2054 34.9 82.0331 35.147 82.6311 35.641C83.2377 36.135 83.5411 36.837 83.5411 37.747C83.5411 38.3797 83.3851 38.9127 83.0731 39.346C82.7697 39.7707 82.3451 40.0783 81.7991 40.269L83.6971 43.584C83.7231 43.636 83.7361 43.6837 83.7361 43.727C83.7361 43.805 83.7057 43.87 83.6451 43.922C83.5931 43.974 83.5324 44 83.4631 44H82.2801C82.1414 44 82.0331 43.9697 81.9551 43.909C81.8857 43.8483 81.8207 43.7617 81.7601 43.649L80.0831 40.568H78.2761V43.688C78.2761 43.7747 78.2457 43.8483 78.1851 43.909C78.1331 43.9697 78.0594 44 77.9641 44H76.7811ZM80.1091 39.099C80.6291 39.099 81.0191 38.982 81.2791 38.748C81.5477 38.514 81.6821 38.176 81.6821 37.734C81.6821 37.292 81.5477 36.9497 81.2791 36.707C81.0191 36.4643 80.6291 36.343 80.1091 36.343H78.2761V39.099H80.1091ZM85.5281 44C85.4415 44 85.3678 43.9697 85.3071 43.909C85.2465 43.8483 85.2161 43.7747 85.2161 43.688V35.212C85.2161 35.1167 85.2465 35.043 85.3071 34.991C85.3678 34.9303 85.4415 34.9 85.5281 34.9H86.7501C86.8455 34.9 86.9191 34.9303 86.9711 34.991C87.0318 35.043 87.0621 35.1167 87.0621 35.212V43.688C87.0621 43.7747 87.0318 43.8483 86.9711 43.909C86.9191 43.9697 86.8455 44 86.7501 44H85.5281ZM89.4129 44C89.3262 44 89.2526 43.9697 89.1919 43.909C89.1312 43.8483 89.1009 43.7747 89.1009 43.688V35.225C89.1009 35.1297 89.1269 35.0517 89.1789 34.991C89.2396 34.9303 89.3176 34.9 89.4129 34.9H92.8969C93.9369 34.9 94.7559 35.147 95.3539 35.641C95.9519 36.1263 96.2509 36.8413 96.2509 37.786C96.2509 38.7307 95.9519 39.4457 95.3539 39.931C94.7646 40.4077 93.9456 40.646 92.8969 40.646H90.9599V43.688C90.9599 43.7747 90.9296 43.8483 90.8689 43.909C90.8169 43.9697 90.7432 44 90.6479 44H89.4129ZM92.8319 39.203C93.3346 39.203 93.7202 39.086 93.9889 38.852C94.2576 38.6093 94.3919 38.254 94.3919 37.786C94.3919 37.3353 94.2619 36.9843 94.0019 36.733C93.7419 36.473 93.3519 36.343 92.8319 36.343H90.9339V39.203H92.8319ZM99.9843 44C99.8976 44 99.8239 43.9697 99.7633 43.909C99.7026 43.8483 99.6723 43.7747 99.6723 43.688V36.499H97.2673C97.1806 36.499 97.1069 36.4687 97.0463 36.408C96.9856 36.3473 96.9553 36.2737 96.9553 36.187V35.225C96.9553 35.1297 96.9813 35.0517 97.0333 34.991C97.0939 34.9303 97.1719 34.9 97.2673 34.9H103.897C103.993 34.9 104.071 34.9303 104.131 34.991C104.192 35.0517 104.222 35.1297 104.222 35.225V36.187C104.222 36.2737 104.192 36.3473 104.131 36.408C104.071 36.4687 103.993 36.499 103.897 36.499H101.505V43.688C101.505 43.7747 101.475 43.8483 101.414 43.909C101.354 43.9697 101.276 44 101.18 44H99.9843ZM105.853 44C105.767 44 105.693 43.9697 105.632 43.909C105.572 43.8483 105.541 43.7747 105.541 43.688V35.212C105.541 35.1167 105.572 35.043 105.632 34.991C105.693 34.9303 105.767 34.9 105.853 34.9H107.075C107.171 34.9 107.244 34.9303 107.296 34.991C107.357 35.043 107.387 35.1167 107.387 35.212V43.688C107.387 43.7747 107.357 43.8483 107.296 43.909C107.244 43.9697 107.171 44 107.075 44H105.853ZM112.923 44.13C111.744 44.13 110.826 43.831 110.167 43.233C109.508 42.635 109.162 41.7467 109.127 40.568C109.118 40.3167 109.114 39.9483 109.114 39.463C109.114 38.969 109.118 38.5963 109.127 38.345C109.162 37.1923 109.517 36.3083 110.193 35.693C110.869 35.0777 111.779 34.77 112.923 34.77C114.067 34.77 114.977 35.0777 115.653 35.693C116.338 36.3083 116.697 37.1923 116.732 38.345C116.749 38.8477 116.758 39.2203 116.758 39.463C116.758 39.697 116.749 40.0653 116.732 40.568C116.689 41.7467 116.338 42.635 115.679 43.233C115.02 43.831 114.102 44.13 112.923 44.13ZM112.923 42.635C113.504 42.635 113.967 42.4617 114.314 42.115C114.661 41.7597 114.847 41.2223 114.873 40.503C114.89 39.983 114.899 39.632 114.899 39.45C114.899 39.2507 114.89 38.8997 114.873 38.397C114.847 37.6777 114.661 37.1447 114.314 36.798C113.967 36.4427 113.504 36.265 112.923 36.265C112.351 36.265 111.892 36.4427 111.545 36.798C111.198 37.1447 111.012 37.6777 110.986 38.397C110.977 38.6483 110.973 38.9993 110.973 39.45C110.973 39.892 110.977 40.243 110.986 40.503C111.012 41.2223 111.194 41.7597 111.532 42.115C111.879 42.4617 112.342 42.635 112.923 42.635ZM118.777 44C118.691 44 118.617 43.9697 118.556 43.909C118.496 43.8483 118.465 43.7747 118.465 43.688V35.225C118.465 35.1297 118.491 35.0517 118.543 34.991C118.604 34.9303 118.682 34.9 118.777 34.9H119.778C119.882 34.9 119.96 34.9217 120.012 34.965C120.064 34.9997 120.112 35.0473 120.155 35.108L123.899 40.932V35.225C123.899 35.1297 123.925 35.0517 123.977 34.991C124.038 34.9303 124.116 34.9 124.211 34.9H125.303C125.399 34.9 125.477 34.9303 125.537 34.991C125.598 35.0517 125.628 35.1297 125.628 35.225V43.675C125.628 43.7703 125.598 43.8483 125.537 43.909C125.477 43.9697 125.403 44 125.316 44H124.302C124.155 44 124.029 43.9307 123.925 43.792L120.194 38.098V43.688C120.194 43.7833 120.164 43.8613 120.103 43.922C120.043 43.974 119.965 44 119.869 44H118.777Z" fill="#A0A0A5"/>
<rect x="41.5" y="59.5" width="319" height="119" rx="2.5" fill="#F5F7F9"/>
<rect x="41.5" y="59.5" width="319" height="119" rx="2.5" stroke="#DDDDE2"/>
<path d="M0.5 0.5H52.5V17C52.5 18.933 50.933 20.5 49 20.5H0.5V0.5Z" fill="#F5F7F9"/>
<path d="M13.122 14C13.0487 14 12.9863 13.9743 12.935 13.923C12.8837 13.8717 12.858 13.8093 12.858 13.736V6.564C12.858 6.48333 12.8837 6.421 12.935 6.377C12.9863 6.32567 13.0487 6.3 13.122 6.3H14.156C14.2367 6.3 14.299 6.32567 14.343 6.377C14.3943 6.421 14.42 6.48333 14.42 6.564V13.736C14.42 13.8093 14.3943 13.8717 14.343 13.923C14.299 13.9743 14.2367 14 14.156 14H13.122ZM16.2771 14C16.2038 14 16.1414 13.9743 16.0901 13.923C16.0388 13.8717 16.0131 13.8093 16.0131 13.736V8.544C16.0131 8.47067 16.0388 8.40833 16.0901 8.357C16.1414 8.30567 16.2038 8.28 16.2771 8.28H17.1791C17.2524 8.28 17.3148 8.30567 17.3661 8.357C17.4174 8.40833 17.4431 8.47067 17.4431 8.544V8.995C17.8758 8.445 18.4881 8.17 19.2801 8.17C19.9548 8.17 20.4901 8.39367 20.8861 8.841C21.2821 9.281 21.4801 9.88233 21.4801 10.645V13.736C21.4801 13.8093 21.4544 13.8717 21.4031 13.923C21.3591 13.9743 21.2968 14 21.2161 14H20.2481C20.1748 14 20.1124 13.9743 20.0611 13.923C20.0098 13.8717 19.9841 13.8093 19.9841 13.736V10.711C19.9841 10.2783 19.8778 9.94467 19.6651 9.71C19.4598 9.468 19.1591 9.347 18.7631 9.347C18.3744 9.347 18.0664 9.468 17.8391 9.71C17.6191 9.952 17.5091 10.2857 17.5091 10.711V13.736C17.5091 13.8093 17.4834 13.8717 17.4321 13.923C17.3881 13.9743 17.3258 14 17.2451 14H16.2771ZM23.1524 16.09C23.079 16.09 23.0167 16.0643 22.9654 16.013C22.914 15.969 22.8884 15.9067 22.8884 15.826V8.544C22.8884 8.46333 22.914 8.401 22.9654 8.357C23.0167 8.30567 23.079 8.28 23.1524 8.28H24.0214C24.102 8.28 24.1644 8.30567 24.2084 8.357C24.2597 8.401 24.2854 8.46333 24.2854 8.544V8.984C24.696 8.44133 25.2827 8.17 26.0454 8.17C26.786 8.17 27.3544 8.40467 27.7504 8.874C28.1464 9.336 28.359 9.963 28.3884 10.755C28.3957 10.843 28.3994 10.9713 28.3994 11.14C28.3994 11.316 28.3957 11.448 28.3884 11.536C28.359 12.306 28.1464 12.9293 27.7504 13.406C27.3544 13.8753 26.786 14.11 26.0454 14.11C25.3047 14.11 24.74 13.8497 24.3514 13.329V15.826C24.3514 15.9067 24.3257 15.969 24.2744 16.013C24.2304 16.0643 24.168 16.09 24.0874 16.09H23.1524ZM25.6384 12.933C26.4304 12.933 26.852 12.4453 26.9034 11.47C26.9107 11.3967 26.9144 11.2867 26.9144 11.14C26.9144 10.9933 26.9107 10.8833 26.9034 10.81C26.852 9.83467 26.4304 9.347 25.6384 9.347C25.213 9.347 24.8977 9.48267 24.6924 9.754C24.487 10.0253 24.3734 10.359 24.3514 10.755L24.3404 11.173L24.3514 11.602C24.366 11.9687 24.4797 12.284 24.6924 12.548C24.9124 12.8047 25.2277 12.933 25.6384 12.933ZM31.7572 14.11C31.0825 14.11 30.5509 13.89 30.1622 13.45C29.7735 13.0027 29.5792 12.3977 29.5792 11.635V8.544C29.5792 8.47067 29.6049 8.40833 29.6562 8.357C29.7075 8.30567 29.7699 8.28 29.8432 8.28H30.8112C30.8919 8.28 30.9542 8.30567 30.9982 8.357C31.0495 8.401 31.0752 8.46333 31.0752 8.544V11.569C31.0752 12.4783 31.4749 12.933 32.2742 12.933C32.6555 12.933 32.9562 12.812 33.1762 12.57C33.4035 12.328 33.5172 11.9943 33.5172 11.569V8.544C33.5172 8.47067 33.5429 8.40833 33.5942 8.357C33.6455 8.30567 33.7079 8.28 33.7812 8.28H34.7492C34.8299 8.28 34.8922 8.30567 34.9362 8.357C34.9875 8.401 35.0132 8.46333 35.0132 8.544V13.736C35.0132 13.8093 34.9875 13.8717 34.9362 13.923C34.8922 13.9743 34.8299 14 34.7492 14H33.8582C33.7849 14 33.7225 13.9743 33.6712 13.923C33.6199 13.8717 33.5942 13.8093 33.5942 13.736V13.285C33.1835 13.835 32.5712 14.11 31.7572 14.11ZM39.0512 14C38.3839 14 37.8816 13.8277 37.5442 13.483C37.2142 13.131 37.0492 12.6177 37.0492 11.943V9.446H36.1802C36.1069 9.446 36.0446 9.42033 35.9932 9.369C35.9419 9.31033 35.9162 9.24433 35.9162 9.171V8.544C35.9162 8.47067 35.9419 8.40833 35.9932 8.357C36.0446 8.30567 36.1069 8.28 36.1802 8.28H37.0492V6.454C37.0492 6.37333 37.0749 6.311 37.1262 6.267C37.1776 6.21567 37.2399 6.19 37.3132 6.19H38.2042C38.2849 6.19 38.3472 6.21567 38.3912 6.267C38.4426 6.311 38.4682 6.37333 38.4682 6.454V8.28H39.8432C39.9239 8.28 39.9862 8.30567 40.0302 8.357C40.0816 8.401 40.1072 8.46333 40.1072 8.544V9.171C40.1072 9.25167 40.0816 9.31767 40.0302 9.369C39.9789 9.42033 39.9166 9.446 39.8432 9.446H38.4682V11.833C38.4682 12.1483 38.5232 12.3867 38.6332 12.548C38.7432 12.7093 38.9266 12.79 39.1832 12.79H39.9422C40.0156 12.79 40.0779 12.8157 40.1292 12.867C40.1806 12.9183 40.2062 12.9807 40.2062 13.054V13.736C40.2062 13.8093 40.1806 13.8717 40.1292 13.923C40.0852 13.9743 40.0229 14 39.9422 14H39.0512Z" fill="#535356"/>
<path d="M0.5 0.5H52.5V17C52.5 18.933 50.933 20.5 49 20.5H0.5V0.5Z" stroke="#EAEAEF"/>
<rect x="0.5" y="0.5" width="401" height="209" stroke="#EAEAEF"/>
</svg>
