<svg width="402" height="166" viewBox="0 0 402 166" fill="none" xmlns="http://www.w3.org/2000/svg">
<rect x="0.5" y="0.5" width="401" height="165" fill="white"/>
<rect width="400" height="164" transform="translate(1 1)" fill="white"/>
<rect width="400" height="104" transform="translate(1 31)" fill="white"/>
<rect width="320" height="74" transform="translate(41 46)" fill="white"/>
<path d="M45.173 59.13C44.4017 59.13 43.7387 59.013 43.184 58.779C42.6293 58.545 42.209 58.2373 41.923 57.856C41.637 57.4747 41.4853 57.063 41.468 56.621C41.468 56.543 41.494 56.478 41.546 56.426C41.598 56.374 41.663 56.348 41.741 56.348H42.898C43.002 56.348 43.08 56.3697 43.132 56.413C43.1927 56.4477 43.249 56.5083 43.301 56.595C43.3877 56.8897 43.587 57.1367 43.899 57.336C44.211 57.5353 44.6357 57.635 45.173 57.635C45.7883 57.635 46.252 57.5353 46.564 57.336C46.876 57.128 47.032 56.842 47.032 56.478C47.032 56.2353 46.9497 56.036 46.785 55.88C46.629 55.724 46.3907 55.5897 46.07 55.477C45.758 55.3643 45.29 55.2257 44.666 55.061C43.6433 54.8183 42.8937 54.4977 42.417 54.099C41.949 53.6917 41.715 53.1153 41.715 52.37C41.715 51.8673 41.8493 51.421 42.118 51.031C42.3953 50.641 42.7897 50.3333 43.301 50.108C43.821 49.8827 44.4233 49.77 45.108 49.77C45.8187 49.77 46.434 49.8957 46.954 50.147C47.474 50.3983 47.8683 50.7147 48.137 51.096C48.4143 51.4687 48.5617 51.8413 48.579 52.214C48.579 52.292 48.553 52.357 48.501 52.409C48.449 52.461 48.384 52.487 48.306 52.487H47.097C46.915 52.487 46.7893 52.4047 46.72 52.24C46.668 51.9627 46.4947 51.733 46.2 51.551C45.9053 51.3603 45.5413 51.265 45.108 51.265C44.6227 51.265 44.2413 51.356 43.964 51.538C43.6867 51.72 43.548 51.9843 43.548 52.331C43.548 52.5737 43.6173 52.773 43.756 52.929C43.8947 53.085 44.1113 53.2237 44.406 53.345C44.7093 53.4663 45.1427 53.6007 45.706 53.748C46.4687 53.9213 47.0753 54.1163 47.526 54.333C47.9853 54.5497 48.3233 54.8227 48.54 55.152C48.7567 55.4813 48.865 55.9017 48.865 56.413C48.865 56.9677 48.709 57.453 48.397 57.869C48.0937 58.2763 47.6603 58.5883 47.097 58.805C46.5423 59.0217 45.901 59.13 45.173 59.13ZM52.5673 59C52.4806 59 52.4069 58.9697 52.3463 58.909C52.2856 58.8483 52.2553 58.7747 52.2553 58.688V51.499H49.8503C49.7636 51.499 49.6899 51.4687 49.6293 51.408C49.5686 51.3473 49.5383 51.2737 49.5383 51.187V50.225C49.5383 50.1297 49.5643 50.0517 49.6163 49.991C49.6769 49.9303 49.7549 49.9 49.8503 49.9H56.4803C56.5756 49.9 56.6536 49.9303 56.7143 49.991C56.7749 50.0517 56.8053 50.1297 56.8053 50.225V51.187C56.8053 51.2737 56.7749 51.3473 56.7143 51.408C56.6536 51.4687 56.5756 51.499 56.4803 51.499H54.0883V58.688C54.0883 58.7747 54.0579 58.8483 53.9973 58.909C53.9366 58.9697 53.8586 59 53.7633 59H52.5673ZM56.6132 59C56.5439 59 56.4789 58.974 56.4182 58.922C56.3662 58.87 56.3402 58.805 56.3402 58.727L56.3662 58.61L59.4992 50.225C59.5599 50.0083 59.7115 49.9 59.9542 49.9H61.3712C61.5965 49.9 61.7482 50.0083 61.8262 50.225L64.9592 58.61C64.9679 58.636 64.9722 58.675 64.9722 58.727C64.9722 58.805 64.9462 58.87 64.8942 58.922C64.8422 58.974 64.7815 59 64.7122 59H63.5812C63.4685 59 63.3819 58.974 63.3212 58.922C63.2605 58.87 63.2215 58.8137 63.2042 58.753L62.5932 57.167H58.7322L58.1212 58.753C58.0519 58.9177 57.9262 59 57.7442 59H56.6132ZM62.1382 55.672L60.6562 51.655L59.1872 55.672H62.1382ZM67.5477 59C67.4611 59 67.3874 58.9697 67.3267 58.909C67.2661 58.8483 67.2357 58.7747 67.2357 58.688V51.499H64.8307C64.7441 51.499 64.6704 51.4687 64.6097 51.408C64.5491 51.3473 64.5187 51.2737 64.5187 51.187V50.225C64.5187 50.1297 64.5447 50.0517 64.5967 49.991C64.6574 49.9303 64.7354 49.9 64.8307 49.9H71.4607C71.5561 49.9 71.6341 49.9303 71.6947 49.991C71.7554 50.0517 71.7857 50.1297 71.7857 50.225V51.187C71.7857 51.2737 71.7554 51.3473 71.6947 51.408C71.6341 51.4687 71.5561 51.499 71.4607 51.499H69.0687V58.688C69.0687 58.7747 69.0384 58.8483 68.9777 58.909C68.9171 58.9697 68.8391 59 68.7437 59H67.5477ZM76.7318 59.13C75.5618 59.13 74.6518 58.831 74.0018 58.233C73.3518 57.635 73.0268 56.7293 73.0268 55.516V50.225C73.0268 50.1297 73.0528 50.0517 73.1048 49.991C73.1655 49.9303 73.2435 49.9 73.3388 49.9H74.5218C74.6172 49.9 74.6908 49.9303 74.7428 49.991C74.8035 50.0517 74.8338 50.1297 74.8338 50.225V55.516C74.8338 56.2093 74.9985 56.7337 75.3278 57.089C75.6572 57.4357 76.1252 57.609 76.7318 57.609C77.3385 57.609 77.8022 57.4357 78.1228 57.089C78.4522 56.7337 78.6168 56.2093 78.6168 55.516V50.225C78.6168 50.1297 78.6472 50.0517 78.7078 49.991C78.7685 49.9303 78.8465 49.9 78.9418 49.9H80.1118C80.2072 49.9 80.2808 49.9303 80.3328 49.991C80.3935 50.0517 80.4238 50.1297 80.4238 50.225V55.516C80.4238 56.7293 80.0988 57.635 79.4488 58.233C78.8075 58.831 77.9018 59.13 76.7318 59.13ZM85.5314 59.13C84.7601 59.13 84.0971 59.013 83.5424 58.779C82.9877 58.545 82.5674 58.2373 82.2814 57.856C81.9954 57.4747 81.8437 57.063 81.8264 56.621C81.8264 56.543 81.8524 56.478 81.9044 56.426C81.9564 56.374 82.0214 56.348 82.0994 56.348H83.2564C83.3604 56.348 83.4384 56.3697 83.4904 56.413C83.5511 56.4477 83.6074 56.5083 83.6594 56.595C83.7461 56.8897 83.9454 57.1367 84.2574 57.336C84.5694 57.5353 84.9941 57.635 85.5314 57.635C86.1467 57.635 86.6104 57.5353 86.9224 57.336C87.2344 57.128 87.3904 56.842 87.3904 56.478C87.3904 56.2353 87.3081 56.036 87.1434 55.88C86.9874 55.724 86.7491 55.5897 86.4284 55.477C86.1164 55.3643 85.6484 55.2257 85.0244 55.061C84.0017 54.8183 83.2521 54.4977 82.7754 54.099C82.3074 53.6917 82.0734 53.1153 82.0734 52.37C82.0734 51.8673 82.2077 51.421 82.4764 51.031C82.7537 50.641 83.1481 50.3333 83.6594 50.108C84.1794 49.8827 84.7817 49.77 85.4664 49.77C86.1771 49.77 86.7924 49.8957 87.3124 50.147C87.8324 50.3983 88.2267 50.7147 88.4954 51.096C88.7727 51.4687 88.9201 51.8413 88.9374 52.214C88.9374 52.292 88.9114 52.357 88.8594 52.409C88.8074 52.461 88.7424 52.487 88.6644 52.487H87.4554C87.2734 52.487 87.1477 52.4047 87.0784 52.24C87.0264 51.9627 86.8531 51.733 86.5584 51.551C86.2637 51.3603 85.8997 51.265 85.4664 51.265C84.9811 51.265 84.5997 51.356 84.3224 51.538C84.0451 51.72 83.9064 51.9843 83.9064 52.331C83.9064 52.5737 83.9757 52.773 84.1144 52.929C84.2531 53.085 84.4697 53.2237 84.7644 53.345C85.0677 53.4663 85.5011 53.6007 86.0644 53.748C86.8271 53.9213 87.4337 54.1163 87.8844 54.333C88.3437 54.5497 88.6817 54.8227 88.8984 55.152C89.1151 55.4813 89.2234 55.9017 89.2234 56.413C89.2234 56.9677 89.0674 57.453 88.7554 57.869C88.4521 58.2763 88.0187 58.5883 87.4554 58.805C86.9007 59.0217 86.2594 59.13 85.5314 59.13Z" fill="#A0A0A5"/>
<rect x="41.5" y="74.5" width="319" height="45" rx="2.5" fill="#F5F7F9"/>
<path d="M57.65 101C57.55 101 57.465 100.97 57.395 100.91C57.335 100.84 57.305 100.755 57.305 100.655V90.845C57.305 90.745 57.335 90.665 57.395 90.605C57.465 90.535 57.55 90.5 57.65 90.5H58.445C58.545 90.5 58.625 90.535 58.685 90.605C58.755 90.665 58.79 90.745 58.79 90.845V100.655C58.79 100.755 58.755 100.84 58.685 100.91C58.625 100.97 58.545 101 58.445 101H57.65ZM61.5566 101C61.4566 101 61.3716 100.97 61.3016 100.91C61.2416 100.84 61.2116 100.755 61.2116 100.655V93.545C61.2116 93.445 61.2416 93.365 61.3016 93.305C61.3716 93.235 61.4566 93.2 61.5566 93.2H62.2616C62.3616 93.2 62.4416 93.235 62.5016 93.305C62.5716 93.365 62.6066 93.445 62.6066 93.545V94.205C62.8966 93.835 63.2366 93.55 63.6266 93.35C64.0266 93.15 64.5216 93.05 65.1116 93.05C66.0716 93.05 66.8166 93.36 67.3466 93.98C67.8866 94.59 68.1566 95.405 68.1566 96.425V100.655C68.1566 100.755 68.1216 100.84 68.0516 100.91C67.9916 100.97 67.9116 101 67.8116 101H67.0616C66.9616 101 66.8766 100.97 66.8066 100.91C66.7466 100.84 66.7166 100.755 66.7166 100.655V96.5C66.7166 95.79 66.5416 95.24 66.1916 94.85C65.8516 94.46 65.3566 94.265 64.7066 94.265C64.0766 94.265 63.5766 94.465 63.2066 94.865C62.8366 95.255 62.6516 95.8 62.6516 96.5V100.655C62.6516 100.755 62.6166 100.84 62.5466 100.91C62.4866 100.97 62.4066 101 62.3066 101H61.5566ZM74.345 103.85C74.245 103.85 74.16 103.815 74.09 103.745C74.03 103.685 74 103.605 74 103.505V93.545C74 93.445 74.03 93.365 74.09 93.305C74.16 93.235 74.245 93.2 74.345 93.2H75.035C75.135 93.2 75.215 93.235 75.275 93.305C75.345 93.365 75.38 93.445 75.38 93.545V94.205C75.94 93.435 76.76 93.05 77.84 93.05C78.89 93.05 79.675 93.38 80.195 94.04C80.725 94.7 81.01 95.55 81.05 96.59C81.06 96.7 81.065 96.87 81.065 97.1C81.065 97.33 81.06 97.5 81.05 97.61C81.01 98.64 80.725 99.49 80.195 100.16C79.665 100.82 78.88 101.15 77.84 101.15C76.8 101.15 75.99 100.775 75.41 100.025V103.505C75.41 103.605 75.38 103.685 75.32 103.745C75.26 103.815 75.18 103.85 75.08 103.85H74.345ZM77.525 99.935C78.235 99.935 78.75 99.715 79.07 99.275C79.4 98.835 79.58 98.255 79.61 97.535C79.62 97.435 79.625 97.29 79.625 97.1C79.625 95.21 78.925 94.265 77.525 94.265C76.835 94.265 76.315 94.495 75.965 94.955C75.625 95.405 75.44 95.945 75.41 96.575L75.395 97.145L75.41 97.73C75.43 98.32 75.62 98.835 75.98 99.275C76.34 99.715 76.855 99.935 77.525 99.935ZM83.2655 101C83.1655 101 83.0805 100.97 83.0105 100.91C82.9505 100.84 82.9205 100.755 82.9205 100.655V93.56C82.9205 93.46 82.9505 93.375 83.0105 93.305C83.0805 93.235 83.1655 93.2 83.2655 93.2H83.9555C84.0555 93.2 84.1405 93.235 84.2105 93.305C84.2805 93.375 84.3155 93.46 84.3155 93.56V94.22C84.7255 93.54 85.4255 93.2 86.4155 93.2H87.0005C87.1005 93.2 87.1805 93.235 87.2405 93.305C87.3105 93.365 87.3455 93.445 87.3455 93.545V94.16C87.3455 94.26 87.3105 94.34 87.2405 94.4C87.1805 94.46 87.1005 94.49 87.0005 94.49H86.1005C85.5605 94.49 85.1355 94.65 84.8255 94.97C84.5155 95.28 84.3605 95.705 84.3605 96.245V100.655C84.3605 100.755 84.3255 100.84 84.2555 100.91C84.1855 100.97 84.1005 101 84.0005 101H83.2655ZM91.6673 101.15C90.5673 101.15 89.7123 100.84 89.1023 100.22C88.5023 99.6 88.1823 98.775 88.1423 97.745L88.1273 97.1L88.1423 96.455C88.1823 95.435 88.5073 94.615 89.1173 93.995C89.7273 93.365 90.5773 93.05 91.6673 93.05C92.7573 93.05 93.6073 93.365 94.2173 93.995C94.8273 94.615 95.1523 95.435 95.1923 96.455C95.2023 96.565 95.2073 96.78 95.2073 97.1C95.2073 97.42 95.2023 97.635 95.1923 97.745C95.1523 98.775 94.8273 99.6 94.2173 100.22C93.6173 100.84 92.7673 101.15 91.6673 101.15ZM91.6673 99.995C92.2973 99.995 92.7923 99.795 93.1523 99.395C93.5223 98.995 93.7223 98.42 93.7523 97.67C93.7623 97.57 93.7673 97.38 93.7673 97.1C93.7673 96.82 93.7623 96.63 93.7523 96.53C93.7223 95.78 93.5223 95.205 93.1523 94.805C92.7923 94.405 92.2973 94.205 91.6673 94.205C91.0373 94.205 90.5373 94.405 90.1673 94.805C89.7973 95.205 89.6023 95.78 89.5823 96.53L89.5673 97.1L89.5823 97.67C89.6023 98.42 89.7973 98.995 90.1673 99.395C90.5373 99.795 91.0373 99.995 91.6673 99.995ZM100.281 104.3C99.4606 104.3 98.8006 104.16 98.3006 103.88C97.8006 103.61 97.4456 103.3 97.2356 102.95C97.0256 102.6 96.9106 102.285 96.8906 102.005C96.8806 101.905 96.9106 101.82 96.9806 101.75C97.0606 101.68 97.1456 101.645 97.2356 101.645H97.9556C98.0456 101.645 98.1206 101.665 98.1806 101.705C98.2406 101.755 98.2906 101.84 98.3306 101.96C98.4506 102.28 98.6456 102.555 98.9156 102.785C99.1956 103.025 99.6256 103.145 100.206 103.145C100.946 103.145 101.491 102.985 101.841 102.665C102.191 102.355 102.366 101.8 102.366 101V99.98C102.106 100.31 101.776 100.575 101.376 100.775C100.976 100.965 100.501 101.06 99.9506 101.06C98.8906 101.06 98.0956 100.725 97.5656 100.055C97.0456 99.375 96.7706 98.515 96.7406 97.475L96.7256 97.055L96.7406 96.65C96.7706 95.62 97.0506 94.765 97.5806 94.085C98.1106 93.395 98.9006 93.05 99.9506 93.05C101.001 93.05 101.821 93.435 102.411 94.205V93.56C102.411 93.46 102.441 93.375 102.501 93.305C102.571 93.235 102.656 93.2 102.756 93.2H103.446C103.546 93.2 103.631 93.235 103.701 93.305C103.771 93.375 103.806 93.46 103.806 93.56V100.835C103.806 103.145 102.631 104.3 100.281 104.3ZM100.251 99.86C100.931 99.86 101.446 99.635 101.796 99.185C102.146 98.735 102.336 98.2 102.366 97.58C102.376 97.49 102.381 97.315 102.381 97.055C102.381 96.805 102.376 96.635 102.366 96.545C102.336 95.925 102.146 95.39 101.796 94.94C101.456 94.49 100.941 94.265 100.251 94.265C99.5406 94.265 99.0256 94.485 98.7056 94.925C98.3856 95.365 98.2106 95.945 98.1806 96.665L98.1656 97.055L98.1806 97.46C98.2106 98.17 98.3856 98.75 98.7056 99.2C99.0256 99.64 99.5406 99.86 100.251 99.86ZM106.381 101C106.281 101 106.196 100.97 106.126 100.91C106.066 100.84 106.036 100.755 106.036 100.655V93.56C106.036 93.46 106.066 93.375 106.126 93.305C106.196 93.235 106.281 93.2 106.381 93.2H107.071C107.171 93.2 107.256 93.235 107.326 93.305C107.396 93.375 107.431 93.46 107.431 93.56V94.22C107.841 93.54 108.541 93.2 109.531 93.2H110.116C110.216 93.2 110.296 93.235 110.356 93.305C110.426 93.365 110.461 93.445 110.461 93.545V94.16C110.461 94.26 110.426 94.34 110.356 94.4C110.296 94.46 110.216 94.49 110.116 94.49H109.216C108.676 94.49 108.251 94.65 107.941 94.97C107.631 95.28 107.476 95.705 107.476 96.245V100.655C107.476 100.755 107.441 100.84 107.371 100.91C107.301 100.97 107.216 101 107.116 101H106.381ZM114.708 101.15C113.678 101.15 112.853 100.835 112.233 100.205C111.623 99.565 111.288 98.695 111.228 97.595L111.213 97.085L111.228 96.59C111.298 95.51 111.638 94.65 112.248 94.01C112.868 93.37 113.683 93.05 114.693 93.05C115.803 93.05 116.663 93.405 117.273 94.115C117.883 94.815 118.188 95.765 118.188 96.965V97.22C118.188 97.32 118.153 97.405 118.083 97.475C118.023 97.535 117.943 97.565 117.843 97.565H112.653V97.7C112.683 98.35 112.878 98.905 113.238 99.365C113.608 99.815 114.093 100.04 114.693 100.04C115.153 100.04 115.528 99.95 115.818 99.77C116.118 99.58 116.338 99.385 116.478 99.185C116.568 99.065 116.633 98.995 116.673 98.975C116.723 98.945 116.808 98.93 116.928 98.93H117.663C117.753 98.93 117.828 98.955 117.888 99.005C117.948 99.055 117.978 99.125 117.978 99.215C117.978 99.435 117.838 99.7 117.558 100.01C117.288 100.32 116.903 100.59 116.403 100.82C115.913 101.04 115.348 101.15 114.708 101.15ZM116.763 96.53V96.485C116.763 95.795 116.573 95.235 116.193 94.805C115.823 94.365 115.323 94.145 114.693 94.145C114.063 94.145 113.563 94.365 113.193 94.805C112.833 95.235 112.653 95.795 112.653 96.485V96.53H116.763ZM122.681 101.15C121.981 101.15 121.391 101.04 120.911 100.82C120.441 100.59 120.086 100.33 119.846 100.04C119.616 99.75 119.501 99.51 119.501 99.32C119.501 99.22 119.536 99.145 119.606 99.095C119.686 99.035 119.766 99.005 119.846 99.005H120.521C120.621 99.005 120.711 99.055 120.791 99.155C121.031 99.435 121.291 99.655 121.571 99.815C121.851 99.975 122.226 100.055 122.696 100.055C123.216 100.055 123.636 99.955 123.956 99.755C124.286 99.545 124.451 99.26 124.451 98.9C124.451 98.66 124.381 98.465 124.241 98.315C124.111 98.155 123.881 98.02 123.551 97.91C123.231 97.79 122.751 97.66 122.111 97.52C121.241 97.33 120.621 97.055 120.251 96.695C119.891 96.335 119.711 95.87 119.711 95.3C119.711 94.92 119.821 94.56 120.041 94.22C120.271 93.87 120.601 93.59 121.031 93.38C121.471 93.16 121.996 93.05 122.606 93.05C123.246 93.05 123.791 93.155 124.241 93.365C124.691 93.575 125.026 93.825 125.246 94.115C125.476 94.395 125.591 94.63 125.591 94.82C125.591 94.91 125.556 94.985 125.486 95.045C125.426 95.105 125.351 95.135 125.261 95.135H124.631C124.511 95.135 124.411 95.085 124.331 94.985C124.171 94.795 124.031 94.65 123.911 94.55C123.801 94.44 123.636 94.345 123.416 94.265C123.206 94.185 122.936 94.145 122.606 94.145C122.126 94.145 121.756 94.25 121.496 94.46C121.236 94.66 121.106 94.925 121.106 95.255C121.106 95.465 121.161 95.645 121.271 95.795C121.381 95.935 121.591 96.065 121.901 96.185C122.221 96.305 122.681 96.43 123.281 96.56C124.231 96.76 124.901 97.05 125.291 97.43C125.691 97.8 125.891 98.275 125.891 98.855C125.891 99.285 125.766 99.675 125.516 100.025C125.266 100.375 124.896 100.65 124.406 100.85C123.926 101.05 123.351 101.15 122.681 101.15ZM130.328 101.15C129.628 101.15 129.038 101.04 128.558 100.82C128.088 100.59 127.733 100.33 127.493 100.04C127.263 99.75 127.148 99.51 127.148 99.32C127.148 99.22 127.183 99.145 127.253 99.095C127.333 99.035 127.413 99.005 127.493 99.005H128.168C128.268 99.005 128.358 99.055 128.438 99.155C128.678 99.435 128.938 99.655 129.218 99.815C129.498 99.975 129.873 100.055 130.343 100.055C130.863 100.055 131.283 99.955 131.603 99.755C131.933 99.545 132.098 99.26 132.098 98.9C132.098 98.66 132.028 98.465 131.888 98.315C131.758 98.155 131.528 98.02 131.198 97.91C130.878 97.79 130.398 97.66 129.758 97.52C128.888 97.33 128.268 97.055 127.898 96.695C127.538 96.335 127.358 95.87 127.358 95.3C127.358 94.92 127.468 94.56 127.688 94.22C127.918 93.87 128.248 93.59 128.678 93.38C129.118 93.16 129.643 93.05 130.253 93.05C130.893 93.05 131.438 93.155 131.888 93.365C132.338 93.575 132.673 93.825 132.893 94.115C133.123 94.395 133.238 94.63 133.238 94.82C133.238 94.91 133.203 94.985 133.133 95.045C133.073 95.105 132.998 95.135 132.908 95.135H132.278C132.158 95.135 132.058 95.085 131.978 94.985C131.818 94.795 131.678 94.65 131.558 94.55C131.448 94.44 131.283 94.345 131.063 94.265C130.853 94.185 130.583 94.145 130.253 94.145C129.773 94.145 129.403 94.25 129.143 94.46C128.883 94.66 128.753 94.925 128.753 95.255C128.753 95.465 128.808 95.645 128.918 95.795C129.028 95.935 129.238 96.065 129.548 96.185C129.868 96.305 130.328 96.43 130.928 96.56C131.878 96.76 132.548 97.05 132.938 97.43C133.338 97.8 133.538 98.275 133.538 98.855C133.538 99.285 133.413 99.675 133.163 100.025C132.913 100.375 132.543 100.65 132.053 100.85C131.573 101.05 130.998 101.15 130.328 101.15Z" fill="#303032"/>
<path d="M328 94L334 100L340 94" stroke="black" stroke-width="2" stroke-linecap="round" stroke-linejoin="round"/>
<rect x="41.5" y="74.5" width="319" height="45" rx="2.5" stroke="#DDDDE2"/>
<path d="M0.5 0.5H52.5V17C52.5 18.933 50.933 20.5 49 20.5H0.5V0.5Z" fill="#F5F7F9"/>
<path d="M13.122 14C13.0487 14 12.9863 13.9743 12.935 13.923C12.8837 13.8717 12.858 13.8093 12.858 13.736V6.564C12.858 6.48333 12.8837 6.421 12.935 6.377C12.9863 6.32567 13.0487 6.3 13.122 6.3H14.156C14.2367 6.3 14.299 6.32567 14.343 6.377C14.3943 6.421 14.42 6.48333 14.42 6.564V13.736C14.42 13.8093 14.3943 13.8717 14.343 13.923C14.299 13.9743 14.2367 14 14.156 14H13.122ZM16.2771 14C16.2038 14 16.1414 13.9743 16.0901 13.923C16.0388 13.8717 16.0131 13.8093 16.0131 13.736V8.544C16.0131 8.47067 16.0388 8.40833 16.0901 8.357C16.1414 8.30567 16.2038 8.28 16.2771 8.28H17.1791C17.2524 8.28 17.3148 8.30567 17.3661 8.357C17.4174 8.40833 17.4431 8.47067 17.4431 8.544V8.995C17.8758 8.445 18.4881 8.17 19.2801 8.17C19.9548 8.17 20.4901 8.39367 20.8861 8.841C21.2821 9.281 21.4801 9.88233 21.4801 10.645V13.736C21.4801 13.8093 21.4544 13.8717 21.4031 13.923C21.3591 13.9743 21.2968 14 21.2161 14H20.2481C20.1748 14 20.1124 13.9743 20.0611 13.923C20.0098 13.8717 19.9841 13.8093 19.9841 13.736V10.711C19.9841 10.2783 19.8778 9.94467 19.6651 9.71C19.4598 9.468 19.1591 9.347 18.7631 9.347C18.3744 9.347 18.0664 9.468 17.8391 9.71C17.6191 9.952 17.5091 10.2857 17.5091 10.711V13.736C17.5091 13.8093 17.4834 13.8717 17.4321 13.923C17.3881 13.9743 17.3258 14 17.2451 14H16.2771ZM23.1524 16.09C23.079 16.09 23.0167 16.0643 22.9654 16.013C22.914 15.969 22.8884 15.9067 22.8884 15.826V8.544C22.8884 8.46333 22.914 8.401 22.9654 8.357C23.0167 8.30567 23.079 8.28 23.1524 8.28H24.0214C24.102 8.28 24.1644 8.30567 24.2084 8.357C24.2597 8.401 24.2854 8.46333 24.2854 8.544V8.984C24.696 8.44133 25.2827 8.17 26.0454 8.17C26.786 8.17 27.3544 8.40467 27.7504 8.874C28.1464 9.336 28.359 9.963 28.3884 10.755C28.3957 10.843 28.3994 10.9713 28.3994 11.14C28.3994 11.316 28.3957 11.448 28.3884 11.536C28.359 12.306 28.1464 12.9293 27.7504 13.406C27.3544 13.8753 26.786 14.11 26.0454 14.11C25.3047 14.11 24.74 13.8497 24.3514 13.329V15.826C24.3514 15.9067 24.3257 15.969 24.2744 16.013C24.2304 16.0643 24.168 16.09 24.0874 16.09H23.1524ZM25.6384 12.933C26.4304 12.933 26.852 12.4453 26.9034 11.47C26.9107 11.3967 26.9144 11.2867 26.9144 11.14C26.9144 10.9933 26.9107 10.8833 26.9034 10.81C26.852 9.83467 26.4304 9.347 25.6384 9.347C25.213 9.347 24.8977 9.48267 24.6924 9.754C24.487 10.0253 24.3734 10.359 24.3514 10.755L24.3404 11.173L24.3514 11.602C24.366 11.9687 24.4797 12.284 24.6924 12.548C24.9124 12.8047 25.2277 12.933 25.6384 12.933ZM31.7572 14.11C31.0825 14.11 30.5509 13.89 30.1622 13.45C29.7735 13.0027 29.5792 12.3977 29.5792 11.635V8.544C29.5792 8.47067 29.6049 8.40833 29.6562 8.357C29.7075 8.30567 29.7699 8.28 29.8432 8.28H30.8112C30.8919 8.28 30.9542 8.30567 30.9982 8.357C31.0495 8.401 31.0752 8.46333 31.0752 8.544V11.569C31.0752 12.4783 31.4749 12.933 32.2742 12.933C32.6555 12.933 32.9562 12.812 33.1762 12.57C33.4035 12.328 33.5172 11.9943 33.5172 11.569V8.544C33.5172 8.47067 33.5429 8.40833 33.5942 8.357C33.6455 8.30567 33.7079 8.28 33.7812 8.28H34.7492C34.8299 8.28 34.8922 8.30567 34.9362 8.357C34.9875 8.401 35.0132 8.46333 35.0132 8.544V13.736C35.0132 13.8093 34.9875 13.8717 34.9362 13.923C34.8922 13.9743 34.8299 14 34.7492 14H33.8582C33.7849 14 33.7225 13.9743 33.6712 13.923C33.6199 13.8717 33.5942 13.8093 33.5942 13.736V13.285C33.1835 13.835 32.5712 14.11 31.7572 14.11ZM39.0512 14C38.3839 14 37.8816 13.8277 37.5442 13.483C37.2142 13.131 37.0492 12.6177 37.0492 11.943V9.446H36.1802C36.1069 9.446 36.0446 9.42033 35.9932 9.369C35.9419 9.31033 35.9162 9.24433 35.9162 9.171V8.544C35.9162 8.47067 35.9419 8.40833 35.9932 8.357C36.0446 8.30567 36.1069 8.28 36.1802 8.28H37.0492V6.454C37.0492 6.37333 37.0749 6.311 37.1262 6.267C37.1776 6.21567 37.2399 6.19 37.3132 6.19H38.2042C38.2849 6.19 38.3472 6.21567 38.3912 6.267C38.4426 6.311 38.4682 6.37333 38.4682 6.454V8.28H39.8432C39.9239 8.28 39.9862 8.30567 40.0302 8.357C40.0816 8.401 40.1072 8.46333 40.1072 8.544V9.171C40.1072 9.25167 40.0816 9.31767 40.0302 9.369C39.9789 9.42033 39.9166 9.446 39.8432 9.446H38.4682V11.833C38.4682 12.1483 38.5232 12.3867 38.6332 12.548C38.7432 12.7093 38.9266 12.79 39.1832 12.79H39.9422C40.0156 12.79 40.0779 12.8157 40.1292 12.867C40.1806 12.9183 40.2062 12.9807 40.2062 13.054V13.736C40.2062 13.8093 40.1806 13.8717 40.1292 13.923C40.0852 13.9743 40.0229 14 39.9422 14H39.0512Z" fill="#535356"/>
<path d="M0.5 0.5H52.5V17C52.5 18.933 50.933 20.5 49 20.5H0.5V0.5Z" stroke="#EAEAEF"/>
<rect x="0.5" y="0.5" width="401" height="165" stroke="#EAEAEF"/>
</svg>
