<svg width="402" height="109" viewBox="0 0 402 109" fill="none" xmlns="http://www.w3.org/2000/svg">
<rect x="0.5" y="0.5" width="401" height="108" fill="white"/>
<rect width="400" height="107" transform="translate(1 1)" fill="white"/>
<rect width="400" height="47" transform="translate(1 31)" fill="white"/>
<circle cx="129" cy="54.5" r="7.5" fill="white" stroke="#DDDDE2"/>
<path d="M152.65 60C152.55 60 152.465 59.97 152.395 59.91C152.335 59.84 152.305 59.755 152.305 59.655V49.845C152.305 49.745 152.335 49.665 152.395 49.605C152.465 49.535 152.55 49.5 152.65 49.5H153.445C153.545 49.5 153.625 49.535 153.685 49.605C153.755 49.665 153.79 49.745 153.79 49.845V59.655C153.79 59.755 153.755 59.84 153.685 59.91C153.625 59.97 153.545 60 153.445 60H152.65ZM158.912 60.15C158.212 60.15 157.622 60.04 157.142 59.82C156.672 59.59 156.317 59.33 156.077 59.04C155.847 58.75 155.732 58.51 155.732 58.32C155.732 58.22 155.767 58.145 155.837 58.095C155.917 58.035 155.997 58.005 156.077 58.005H156.752C156.852 58.005 156.942 58.055 157.022 58.155C157.262 58.435 157.522 58.655 157.802 58.815C158.082 58.975 158.457 59.055 158.927 59.055C159.447 59.055 159.867 58.955 160.187 58.755C160.517 58.545 160.682 58.26 160.682 57.9C160.682 57.66 160.612 57.465 160.472 57.315C160.342 57.155 160.112 57.02 159.782 56.91C159.462 56.79 158.982 56.66 158.342 56.52C157.472 56.33 156.852 56.055 156.482 55.695C156.122 55.335 155.942 54.87 155.942 54.3C155.942 53.92 156.052 53.56 156.272 53.22C156.502 52.87 156.832 52.59 157.262 52.38C157.702 52.16 158.227 52.05 158.837 52.05C159.477 52.05 160.022 52.155 160.472 52.365C160.922 52.575 161.257 52.825 161.477 53.115C161.707 53.395 161.822 53.63 161.822 53.82C161.822 53.91 161.787 53.985 161.717 54.045C161.657 54.105 161.582 54.135 161.492 54.135H160.862C160.742 54.135 160.642 54.085 160.562 53.985C160.402 53.795 160.262 53.65 160.142 53.55C160.032 53.44 159.867 53.345 159.647 53.265C159.437 53.185 159.167 53.145 158.837 53.145C158.357 53.145 157.987 53.25 157.727 53.46C157.467 53.66 157.337 53.925 157.337 54.255C157.337 54.465 157.392 54.645 157.502 54.795C157.612 54.935 157.822 55.065 158.132 55.185C158.452 55.305 158.912 55.43 159.512 55.56C160.462 55.76 161.132 56.05 161.522 56.43C161.922 56.8 162.122 57.275 162.122 57.855C162.122 58.285 161.997 58.675 161.747 59.025C161.497 59.375 161.127 59.65 160.637 59.85C160.157 60.05 159.582 60.15 158.912 60.15ZM170.258 60C168.678 60 167.888 59.12 167.888 57.36V53.4H166.718C166.618 53.4 166.533 53.37 166.463 53.31C166.403 53.24 166.373 53.155 166.373 53.055V52.545C166.373 52.445 166.403 52.365 166.463 52.305C166.533 52.235 166.618 52.2 166.718 52.2H167.888V49.695C167.888 49.595 167.918 49.515 167.978 49.455C168.048 49.385 168.133 49.35 168.233 49.35H168.938C169.038 49.35 169.118 49.385 169.178 49.455C169.248 49.515 169.283 49.595 169.283 49.695V52.2H171.143C171.243 52.2 171.323 52.235 171.383 52.305C171.453 52.365 171.488 52.445 171.488 52.545V53.055C171.488 53.155 171.453 53.24 171.383 53.31C171.323 53.37 171.243 53.4 171.143 53.4H169.283V57.255C169.283 57.755 169.368 58.135 169.538 58.395C169.708 58.645 169.988 58.77 170.378 58.77H171.293C171.393 58.77 171.473 58.805 171.533 58.875C171.603 58.935 171.638 59.015 171.638 59.115V59.655C171.638 59.755 171.603 59.84 171.533 59.91C171.473 59.97 171.393 60 171.293 60H170.258ZM173.432 60C173.332 60 173.247 59.97 173.177 59.91C173.117 59.84 173.087 59.755 173.087 59.655V49.695C173.087 49.595 173.117 49.515 173.177 49.455C173.247 49.385 173.332 49.35 173.432 49.35H174.182C174.282 49.35 174.362 49.385 174.422 49.455C174.492 49.515 174.527 49.595 174.527 49.695V53.19C174.817 52.82 175.157 52.54 175.547 52.35C175.937 52.15 176.422 52.05 177.002 52.05C177.962 52.05 178.707 52.36 179.237 52.98C179.777 53.59 180.047 54.405 180.047 55.425V59.655C180.047 59.755 180.012 59.84 179.942 59.91C179.882 59.97 179.802 60 179.702 60H178.952C178.852 60 178.767 59.97 178.697 59.91C178.637 59.84 178.607 59.755 178.607 59.655V55.5C178.607 54.79 178.432 54.24 178.082 53.85C177.742 53.46 177.247 53.265 176.597 53.265C175.967 53.265 175.462 53.465 175.082 53.865C174.712 54.255 174.527 54.8 174.527 55.5V59.655C174.527 59.755 174.492 59.84 174.422 59.91C174.362 59.97 174.282 60 174.182 60H173.432ZM185.333 60.15C184.303 60.15 183.478 59.835 182.858 59.205C182.248 58.565 181.913 57.695 181.853 56.595L181.838 56.085L181.853 55.59C181.923 54.51 182.263 53.65 182.873 53.01C183.493 52.37 184.308 52.05 185.318 52.05C186.428 52.05 187.288 52.405 187.898 53.115C188.508 53.815 188.813 54.765 188.813 55.965V56.22C188.813 56.32 188.778 56.405 188.708 56.475C188.648 56.535 188.568 56.565 188.468 56.565H183.278V56.7C183.308 57.35 183.503 57.905 183.863 58.365C184.233 58.815 184.718 59.04 185.318 59.04C185.778 59.04 186.153 58.95 186.443 58.77C186.743 58.58 186.963 58.385 187.103 58.185C187.193 58.065 187.258 57.995 187.298 57.975C187.348 57.945 187.433 57.93 187.553 57.93H188.288C188.378 57.93 188.453 57.955 188.513 58.005C188.573 58.055 188.603 58.125 188.603 58.215C188.603 58.435 188.463 58.7 188.183 59.01C187.913 59.32 187.528 59.59 187.028 59.82C186.538 60.04 185.973 60.15 185.333 60.15ZM187.388 55.53V55.485C187.388 54.795 187.198 54.235 186.818 53.805C186.448 53.365 185.948 53.145 185.318 53.145C184.688 53.145 184.188 53.365 183.818 53.805C183.458 54.235 183.278 54.795 183.278 55.485V55.53H187.388ZM197.193 60.15C196.243 60.15 195.508 59.845 194.988 59.235C194.468 58.615 194.208 57.795 194.208 56.775V52.545C194.208 52.445 194.238 52.365 194.298 52.305C194.368 52.235 194.453 52.2 194.553 52.2H195.303C195.403 52.2 195.483 52.235 195.543 52.305C195.613 52.365 195.648 52.445 195.648 52.545V56.7C195.648 58.19 196.298 58.935 197.598 58.935C198.228 58.935 198.728 58.74 199.098 58.35C199.468 57.95 199.653 57.4 199.653 56.7V52.545C199.653 52.445 199.683 52.365 199.743 52.305C199.813 52.235 199.898 52.2 199.998 52.2H200.748C200.848 52.2 200.928 52.235 200.988 52.305C201.048 52.365 201.078 52.445 201.078 52.545V59.655C201.078 59.755 201.048 59.84 200.988 59.91C200.928 59.97 200.848 60 200.748 60H200.043C199.943 60 199.858 59.97 199.788 59.91C199.728 59.84 199.698 59.755 199.698 59.655V58.995C199.418 59.375 199.078 59.665 198.678 59.865C198.278 60.055 197.783 60.15 197.193 60.15ZM206.006 60.15C205.306 60.15 204.716 60.04 204.236 59.82C203.766 59.59 203.411 59.33 203.171 59.04C202.941 58.75 202.826 58.51 202.826 58.32C202.826 58.22 202.861 58.145 202.931 58.095C203.011 58.035 203.091 58.005 203.171 58.005H203.846C203.946 58.005 204.036 58.055 204.116 58.155C204.356 58.435 204.616 58.655 204.896 58.815C205.176 58.975 205.551 59.055 206.021 59.055C206.541 59.055 206.961 58.955 207.281 58.755C207.611 58.545 207.776 58.26 207.776 57.9C207.776 57.66 207.706 57.465 207.566 57.315C207.436 57.155 207.206 57.02 206.876 56.91C206.556 56.79 206.076 56.66 205.436 56.52C204.566 56.33 203.946 56.055 203.576 55.695C203.216 55.335 203.036 54.87 203.036 54.3C203.036 53.92 203.146 53.56 203.366 53.22C203.596 52.87 203.926 52.59 204.356 52.38C204.796 52.16 205.321 52.05 205.931 52.05C206.571 52.05 207.116 52.155 207.566 52.365C208.016 52.575 208.351 52.825 208.571 53.115C208.801 53.395 208.916 53.63 208.916 53.82C208.916 53.91 208.881 53.985 208.811 54.045C208.751 54.105 208.676 54.135 208.586 54.135H207.956C207.836 54.135 207.736 54.085 207.656 53.985C207.496 53.795 207.356 53.65 207.236 53.55C207.126 53.44 206.961 53.345 206.741 53.265C206.531 53.185 206.261 53.145 205.931 53.145C205.451 53.145 205.081 53.25 204.821 53.46C204.561 53.66 204.431 53.925 204.431 54.255C204.431 54.465 204.486 54.645 204.596 54.795C204.706 54.935 204.916 55.065 205.226 55.185C205.546 55.305 206.006 55.43 206.606 55.56C207.556 55.76 208.226 56.05 208.616 56.43C209.016 56.8 209.216 57.275 209.216 57.855C209.216 58.285 209.091 58.675 208.841 59.025C208.591 59.375 208.221 59.65 207.731 59.85C207.251 60.05 206.676 60.15 206.006 60.15ZM214.073 60.15C213.043 60.15 212.218 59.835 211.598 59.205C210.988 58.565 210.653 57.695 210.593 56.595L210.578 56.085L210.593 55.59C210.663 54.51 211.003 53.65 211.613 53.01C212.233 52.37 213.048 52.05 214.058 52.05C215.168 52.05 216.028 52.405 216.638 53.115C217.248 53.815 217.553 54.765 217.553 55.965V56.22C217.553 56.32 217.518 56.405 217.448 56.475C217.388 56.535 217.308 56.565 217.208 56.565H212.018V56.7C212.048 57.35 212.243 57.905 212.603 58.365C212.973 58.815 213.458 59.04 214.058 59.04C214.518 59.04 214.893 58.95 215.183 58.77C215.483 58.58 215.703 58.385 215.843 58.185C215.933 58.065 215.998 57.995 216.038 57.975C216.088 57.945 216.173 57.93 216.293 57.93H217.028C217.118 57.93 217.193 57.955 217.253 58.005C217.313 58.055 217.343 58.125 217.343 58.215C217.343 58.435 217.203 58.7 216.923 59.01C216.653 59.32 216.268 59.59 215.768 59.82C215.278 60.04 214.713 60.15 214.073 60.15ZM216.128 55.53V55.485C216.128 54.795 215.938 54.235 215.558 53.805C215.188 53.365 214.688 53.145 214.058 53.145C213.428 53.145 212.928 53.365 212.558 53.805C212.198 54.235 212.018 54.795 212.018 55.485V55.53H216.128ZM219.691 60C219.591 60 219.506 59.97 219.436 59.91C219.376 59.84 219.346 59.755 219.346 59.655V52.56C219.346 52.46 219.376 52.375 219.436 52.305C219.506 52.235 219.591 52.2 219.691 52.2H220.381C220.481 52.2 220.566 52.235 220.636 52.305C220.706 52.375 220.741 52.46 220.741 52.56V53.22C221.151 52.54 221.851 52.2 222.841 52.2H223.426C223.526 52.2 223.606 52.235 223.666 52.305C223.736 52.365 223.771 52.445 223.771 52.545V53.16C223.771 53.26 223.736 53.34 223.666 53.4C223.606 53.46 223.526 53.49 223.426 53.49H222.526C221.986 53.49 221.561 53.65 221.251 53.97C220.941 54.28 220.786 54.705 220.786 55.245V59.655C220.786 59.755 220.751 59.84 220.681 59.91C220.611 59.97 220.526 60 220.426 60H219.691ZM230.545 60.15C230.055 60.15 229.6 60.05 229.18 59.85C228.76 59.65 228.425 59.38 228.175 59.04C227.935 58.69 227.815 58.305 227.815 57.885C227.815 57.225 228.085 56.685 228.625 56.265C229.175 55.835 229.915 55.555 230.845 55.425L233.08 55.11V54.675C233.08 53.655 232.495 53.145 231.325 53.145C230.885 53.145 230.525 53.24 230.245 53.43C229.965 53.61 229.755 53.825 229.615 54.075C229.585 54.165 229.545 54.23 229.495 54.27C229.455 54.31 229.395 54.33 229.315 54.33H228.67C228.58 54.33 228.5 54.3 228.43 54.24C228.37 54.17 228.34 54.09 228.34 54C228.35 53.76 228.46 53.49 228.67 53.19C228.89 52.88 229.225 52.615 229.675 52.395C230.125 52.165 230.68 52.05 231.34 52.05C232.46 52.05 233.265 52.315 233.755 52.845C234.245 53.365 234.49 54.015 234.49 54.795V59.655C234.49 59.755 234.455 59.84 234.385 59.91C234.325 59.97 234.245 60 234.145 60H233.455C233.355 60 233.27 59.97 233.2 59.91C233.14 59.84 233.11 59.755 233.11 59.655V59.01C232.89 59.33 232.57 59.6 232.15 59.82C231.73 60.04 231.195 60.15 230.545 60.15ZM230.86 59.025C231.51 59.025 232.04 58.815 232.45 58.395C232.87 57.965 233.08 57.35 233.08 56.55V56.13L231.34 56.385C230.63 56.485 230.095 56.655 229.735 56.895C229.375 57.125 229.195 57.42 229.195 57.78C229.195 58.18 229.36 58.49 229.69 58.71C230.02 58.92 230.41 59.025 230.86 59.025ZM239.796 60.15C238.726 60.15 237.886 59.85 237.276 59.25C236.676 58.64 236.356 57.79 236.316 56.7L236.301 56.1L236.316 55.5C236.356 54.41 236.676 53.565 237.276 52.965C237.886 52.355 238.726 52.05 239.796 52.05C240.516 52.05 241.126 52.18 241.626 52.44C242.126 52.7 242.496 53.02 242.736 53.4C242.986 53.78 243.121 54.16 243.141 54.54C243.151 54.64 243.121 54.72 243.051 54.78C242.981 54.84 242.896 54.87 242.796 54.87H242.076C241.976 54.87 241.901 54.85 241.851 54.81C241.801 54.77 241.751 54.69 241.701 54.57C241.531 54.09 241.291 53.75 240.981 53.55C240.671 53.34 240.281 53.235 239.811 53.235C239.191 53.235 238.696 53.43 238.326 53.82C237.966 54.2 237.771 54.785 237.741 55.575L237.726 56.115L237.741 56.625C237.771 57.425 237.966 58.015 238.326 58.395C238.686 58.775 239.181 58.965 239.811 58.965C240.281 58.965 240.671 58.865 240.981 58.665C241.291 58.455 241.531 58.11 241.701 57.63C241.751 57.51 241.801 57.43 241.851 57.39C241.901 57.34 241.976 57.315 242.076 57.315H242.796C242.896 57.315 242.981 57.35 243.051 57.42C243.121 57.48 243.151 57.56 243.141 57.66C243.121 58.03 242.986 58.41 242.736 58.8C242.496 59.18 242.126 59.5 241.626 59.76C241.136 60.02 240.526 60.15 239.796 60.15ZM247.968 60C246.388 60 245.598 59.12 245.598 57.36V53.4H244.428C244.328 53.4 244.243 53.37 244.173 53.31C244.113 53.24 244.083 53.155 244.083 53.055V52.545C244.083 52.445 244.113 52.365 244.173 52.305C244.243 52.235 244.328 52.2 244.428 52.2H245.598V49.695C245.598 49.595 245.628 49.515 245.688 49.455C245.757 49.385 245.843 49.35 245.943 49.35H246.648C246.748 49.35 246.828 49.385 246.888 49.455C246.958 49.515 246.993 49.595 246.993 49.695V52.2H248.853C248.953 52.2 249.033 52.235 249.093 52.305C249.163 52.365 249.198 52.445 249.198 52.545V53.055C249.198 53.155 249.163 53.24 249.093 53.31C249.033 53.37 248.953 53.4 248.853 53.4H246.993V57.255C246.993 57.755 247.078 58.135 247.248 58.395C247.418 58.645 247.698 58.77 248.088 58.77H249.003C249.103 58.77 249.183 58.805 249.243 58.875C249.313 58.935 249.348 59.015 249.348 59.115V59.655C249.348 59.755 249.313 59.84 249.243 59.91C249.183 59.97 249.103 60 249.003 60H247.968ZM251.007 50.745C250.907 50.745 250.822 50.715 250.752 50.655C250.692 50.585 250.662 50.5 250.662 50.4V49.59C250.662 49.49 250.692 49.405 250.752 49.335C250.822 49.265 250.907 49.23 251.007 49.23H251.952C252.052 49.23 252.137 49.265 252.207 49.335C252.277 49.405 252.312 49.49 252.312 49.59V50.4C252.312 50.5 252.277 50.585 252.207 50.655C252.137 50.715 252.052 50.745 251.952 50.745H251.007ZM251.127 60C251.027 60 250.942 59.97 250.872 59.91C250.812 59.84 250.782 59.755 250.782 59.655V52.545C250.782 52.445 250.812 52.365 250.872 52.305C250.942 52.235 251.027 52.2 251.127 52.2H251.847C251.947 52.2 252.027 52.235 252.087 52.305C252.157 52.365 252.192 52.445 252.192 52.545V59.655C252.192 59.755 252.157 59.84 252.087 59.91C252.027 59.97 251.947 60 251.847 60H251.127ZM257.13 60C256.87 60 256.685 59.875 256.575 59.625L253.8 52.665L253.77 52.515C253.77 52.425 253.8 52.35 253.86 52.29C253.92 52.23 253.995 52.2 254.085 52.2H254.805C254.975 52.2 255.1 52.285 255.18 52.455L257.46 58.365L259.74 52.455C259.83 52.285 259.95 52.2 260.1 52.2H260.835C260.915 52.2 260.985 52.23 261.045 52.29C261.115 52.35 261.15 52.425 261.15 52.515L261.12 52.665L258.33 59.625C258.22 59.875 258.035 60 257.775 60H257.13ZM265.562 60.15C264.532 60.15 263.707 59.835 263.087 59.205C262.477 58.565 262.142 57.695 262.082 56.595L262.067 56.085L262.082 55.59C262.152 54.51 262.492 53.65 263.102 53.01C263.722 52.37 264.537 52.05 265.547 52.05C266.657 52.05 267.517 52.405 268.127 53.115C268.737 53.815 269.042 54.765 269.042 55.965V56.22C269.042 56.32 269.007 56.405 268.937 56.475C268.877 56.535 268.797 56.565 268.697 56.565H263.507V56.7C263.537 57.35 263.732 57.905 264.092 58.365C264.462 58.815 264.947 59.04 265.547 59.04C266.007 59.04 266.382 58.95 266.672 58.77C266.972 58.58 267.192 58.385 267.332 58.185C267.422 58.065 267.487 57.995 267.527 57.975C267.577 57.945 267.662 57.93 267.782 57.93H268.517C268.607 57.93 268.682 57.955 268.742 58.005C268.802 58.055 268.832 58.125 268.832 58.215C268.832 58.435 268.692 58.7 268.412 59.01C268.142 59.32 267.757 59.59 267.257 59.82C266.767 60.04 266.202 60.15 265.562 60.15ZM267.617 55.53V55.485C267.617 54.795 267.427 54.235 267.047 53.805C266.677 53.365 266.177 53.145 265.547 53.145C264.917 53.145 264.417 53.365 264.047 53.805C263.687 54.235 263.507 54.795 263.507 55.485V55.53H267.617ZM277.047 57.54C276.957 57.54 276.882 57.51 276.822 57.45C276.762 57.39 276.732 57.315 276.732 57.225V56.625C276.752 56.095 276.887 55.64 277.137 55.26C277.387 54.88 277.752 54.445 278.232 53.955C278.622 53.555 278.907 53.225 279.087 52.965C279.267 52.705 279.357 52.42 279.357 52.11C279.357 51.65 279.162 51.285 278.772 51.015C278.392 50.745 277.947 50.61 277.437 50.61C276.247 50.61 275.547 51.21 275.337 52.41C275.287 52.63 275.157 52.74 274.947 52.74H274.227C274.127 52.74 274.047 52.71 273.987 52.65C273.927 52.59 273.897 52.51 273.897 52.41C273.917 51.86 274.072 51.355 274.362 50.895C274.662 50.425 275.082 50.05 275.622 49.77C276.162 49.49 276.782 49.35 277.482 49.35C278.222 49.35 278.842 49.48 279.342 49.74C279.852 49.99 280.227 50.32 280.467 50.73C280.707 51.13 280.827 51.56 280.827 52.02C280.827 52.53 280.712 52.97 280.482 53.34C280.252 53.71 279.907 54.14 279.447 54.63C279.067 55.03 278.782 55.37 278.592 55.65C278.402 55.92 278.292 56.225 278.262 56.565C278.242 56.845 278.232 57.055 278.232 57.195C278.182 57.425 278.057 57.54 277.857 57.54H277.047ZM276.927 60C276.827 60 276.742 59.97 276.672 59.91C276.612 59.84 276.582 59.755 276.582 59.655V58.74C276.582 58.64 276.612 58.56 276.672 58.5C276.742 58.43 276.827 58.395 276.927 58.395H277.902C278.002 58.395 278.087 58.43 278.157 58.5C278.227 58.56 278.262 58.64 278.262 58.74V59.655C278.262 59.755 278.227 59.84 278.157 59.91C278.087 59.97 278.002 60 277.902 60H276.927Z" fill="#303032"/>
<path d="M0.5 0.5H52.5V17C52.5 18.933 50.933 20.5 49 20.5H0.5V0.5Z" fill="#F5F7F9"/>
<path d="M13.122 14C13.0487 14 12.9863 13.9743 12.935 13.923C12.8837 13.8717 12.858 13.8093 12.858 13.736V6.564C12.858 6.48333 12.8837 6.421 12.935 6.377C12.9863 6.32567 13.0487 6.3 13.122 6.3H14.156C14.2367 6.3 14.299 6.32567 14.343 6.377C14.3943 6.421 14.42 6.48333 14.42 6.564V13.736C14.42 13.8093 14.3943 13.8717 14.343 13.923C14.299 13.9743 14.2367 14 14.156 14H13.122ZM16.2771 14C16.2038 14 16.1414 13.9743 16.0901 13.923C16.0388 13.8717 16.0131 13.8093 16.0131 13.736V8.544C16.0131 8.47067 16.0388 8.40833 16.0901 8.357C16.1414 8.30567 16.2038 8.28 16.2771 8.28H17.1791C17.2524 8.28 17.3148 8.30567 17.3661 8.357C17.4174 8.40833 17.4431 8.47067 17.4431 8.544V8.995C17.8758 8.445 18.4881 8.17 19.2801 8.17C19.9548 8.17 20.4901 8.39367 20.8861 8.841C21.2821 9.281 21.4801 9.88233 21.4801 10.645V13.736C21.4801 13.8093 21.4544 13.8717 21.4031 13.923C21.3591 13.9743 21.2968 14 21.2161 14H20.2481C20.1748 14 20.1124 13.9743 20.0611 13.923C20.0098 13.8717 19.9841 13.8093 19.9841 13.736V10.711C19.9841 10.2783 19.8778 9.94467 19.6651 9.71C19.4598 9.468 19.1591 9.347 18.7631 9.347C18.3744 9.347 18.0664 9.468 17.8391 9.71C17.6191 9.952 17.5091 10.2857 17.5091 10.711V13.736C17.5091 13.8093 17.4834 13.8717 17.4321 13.923C17.3881 13.9743 17.3258 14 17.2451 14H16.2771ZM23.1524 16.09C23.079 16.09 23.0167 16.0643 22.9654 16.013C22.914 15.969 22.8884 15.9067 22.8884 15.826V8.544C22.8884 8.46333 22.914 8.401 22.9654 8.357C23.0167 8.30567 23.079 8.28 23.1524 8.28H24.0214C24.102 8.28 24.1644 8.30567 24.2084 8.357C24.2597 8.401 24.2854 8.46333 24.2854 8.544V8.984C24.696 8.44133 25.2827 8.17 26.0454 8.17C26.786 8.17 27.3544 8.40467 27.7504 8.874C28.1464 9.336 28.359 9.963 28.3884 10.755C28.3957 10.843 28.3994 10.9713 28.3994 11.14C28.3994 11.316 28.3957 11.448 28.3884 11.536C28.359 12.306 28.1464 12.9293 27.7504 13.406C27.3544 13.8753 26.786 14.11 26.0454 14.11C25.3047 14.11 24.74 13.8497 24.3514 13.329V15.826C24.3514 15.9067 24.3257 15.969 24.2744 16.013C24.2304 16.0643 24.168 16.09 24.0874 16.09H23.1524ZM25.6384 12.933C26.4304 12.933 26.852 12.4453 26.9034 11.47C26.9107 11.3967 26.9144 11.2867 26.9144 11.14C26.9144 10.9933 26.9107 10.8833 26.9034 10.81C26.852 9.83467 26.4304 9.347 25.6384 9.347C25.213 9.347 24.8977 9.48267 24.6924 9.754C24.487 10.0253 24.3734 10.359 24.3514 10.755L24.3404 11.173L24.3514 11.602C24.366 11.9687 24.4797 12.284 24.6924 12.548C24.9124 12.8047 25.2277 12.933 25.6384 12.933ZM31.7572 14.11C31.0825 14.11 30.5509 13.89 30.1622 13.45C29.7735 13.0027 29.5792 12.3977 29.5792 11.635V8.544C29.5792 8.47067 29.6049 8.40833 29.6562 8.357C29.7075 8.30567 29.7699 8.28 29.8432 8.28H30.8112C30.8919 8.28 30.9542 8.30567 30.9982 8.357C31.0495 8.401 31.0752 8.46333 31.0752 8.544V11.569C31.0752 12.4783 31.4749 12.933 32.2742 12.933C32.6555 12.933 32.9562 12.812 33.1762 12.57C33.4035 12.328 33.5172 11.9943 33.5172 11.569V8.544C33.5172 8.47067 33.5429 8.40833 33.5942 8.357C33.6455 8.30567 33.7079 8.28 33.7812 8.28H34.7492C34.8299 8.28 34.8922 8.30567 34.9362 8.357C34.9875 8.401 35.0132 8.46333 35.0132 8.544V13.736C35.0132 13.8093 34.9875 13.8717 34.9362 13.923C34.8922 13.9743 34.8299 14 34.7492 14H33.8582C33.7849 14 33.7225 13.9743 33.6712 13.923C33.6199 13.8717 33.5942 13.8093 33.5942 13.736V13.285C33.1835 13.835 32.5712 14.11 31.7572 14.11ZM39.0512 14C38.3839 14 37.8816 13.8277 37.5442 13.483C37.2142 13.131 37.0492 12.6177 37.0492 11.943V9.446H36.1802C36.1069 9.446 36.0446 9.42033 35.9932 9.369C35.9419 9.31033 35.9162 9.24433 35.9162 9.171V8.544C35.9162 8.47067 35.9419 8.40833 35.9932 8.357C36.0446 8.30567 36.1069 8.28 36.1802 8.28H37.0492V6.454C37.0492 6.37333 37.0749 6.311 37.1262 6.267C37.1776 6.21567 37.2399 6.19 37.3132 6.19H38.2042C38.2849 6.19 38.3472 6.21567 38.3912 6.267C38.4426 6.311 38.4682 6.37333 38.4682 6.454V8.28H39.8432C39.9239 8.28 39.9862 8.30567 40.0302 8.357C40.0816 8.401 40.1072 8.46333 40.1072 8.544V9.171C40.1072 9.25167 40.0816 9.31767 40.0302 9.369C39.9789 9.42033 39.9166 9.446 39.8432 9.446H38.4682V11.833C38.4682 12.1483 38.5232 12.3867 38.6332 12.548C38.7432 12.7093 38.9266 12.79 39.1832 12.79H39.9422C40.0156 12.79 40.0779 12.8157 40.1292 12.867C40.1806 12.9183 40.2062 12.9807 40.2062 13.054V13.736C40.2062 13.8093 40.1806 13.8717 40.1292 13.923C40.0852 13.9743 40.0229 14 39.9422 14H39.0512Z" fill="#535356"/>
<path d="M0.5 0.5H52.5V17C52.5 18.933 50.933 20.5 49 20.5H0.5V0.5Z" stroke="#EAEAEF"/>
<rect x="0.5" y="0.5" width="401" height="108" stroke="#EAEAEF"/>
</svg>
