<svg width="402" height="135" viewBox="0 0 402 135" fill="none" xmlns="http://www.w3.org/2000/svg">
<rect x="0.5" y="0.5" width="401" height="134" fill="white"/>
<rect width="400" height="133" transform="translate(1 1)" fill="white"/>
<rect width="320" height="73" transform="translate(41 31)" fill="white"/>
<path d="M43.509 44C43.379 44 43.275 43.9653 43.197 43.896C43.119 43.8267 43.0713 43.7313 43.054 43.61L41.507 35.277L41.494 35.173C41.494 35.095 41.52 35.03 41.572 34.978C41.6327 34.926 41.6977 34.9 41.767 34.9H42.911C43.1277 34.9 43.249 34.9867 43.275 35.16L44.354 41.049L45.524 37.24C45.6107 37.0233 45.7537 36.915 45.953 36.915H46.655C46.8717 36.915 47.0103 37.0233 47.071 37.24L48.254 41.036L49.333 35.16C49.3503 35.0647 49.385 34.9997 49.437 34.965C49.4977 34.9217 49.5843 34.9 49.697 34.9H50.841C50.9103 34.9 50.971 34.926 51.023 34.978C51.075 35.03 51.101 35.095 51.101 35.173C51.101 35.2163 51.0967 35.251 51.088 35.277L49.541 43.61C49.4977 43.87 49.346 44 49.086 44H48.215C48.0937 44 47.994 43.9697 47.916 43.909C47.838 43.8483 47.786 43.7703 47.76 43.675L46.304 39.333L44.848 43.675C44.7613 43.8917 44.6053 44 44.38 44H43.509ZM52.9393 44C52.8526 44 52.7789 43.9697 52.7183 43.909C52.6576 43.8483 52.6273 43.7747 52.6273 43.688V35.225C52.6273 35.1297 52.6533 35.0517 52.7053 34.991C52.7659 34.9303 52.8439 34.9 52.9393 34.9H58.6593C58.7546 34.9 58.8326 34.9303 58.8933 34.991C58.9539 35.0517 58.9843 35.1297 58.9843 35.225V36.083C58.9843 36.1783 58.9539 36.2563 58.8933 36.317C58.8326 36.369 58.7546 36.395 58.6593 36.395H54.3823V38.696H58.3733C58.4686 38.696 58.5466 38.7263 58.6073 38.787C58.6679 38.839 58.6983 38.9127 58.6983 39.008V39.814C58.6983 39.9093 58.6679 39.9873 58.6073 40.048C58.5466 40.1 58.4686 40.126 58.3733 40.126H54.3823V42.505H58.7633C58.8586 42.505 58.9366 42.5353 58.9973 42.596C59.0579 42.6567 59.0883 42.7347 59.0883 42.83V43.688C59.0883 43.7833 59.0579 43.8613 58.9973 43.922C58.9366 43.974 58.8586 44 58.7633 44H52.9393ZM61.0262 44C60.9395 44 60.8659 43.9697 60.8052 43.909C60.7445 43.8483 60.7142 43.7747 60.7142 43.688V35.225C60.7142 35.1297 60.7402 35.0517 60.7922 34.991C60.8529 34.9303 60.9309 34.9 61.0262 34.9H64.7962C65.8102 34.9 66.5642 35.1253 67.0582 35.576C67.5609 36.018 67.8122 36.6247 67.8122 37.396C67.8122 37.8467 67.6995 38.2323 67.4742 38.553C67.2575 38.865 67.0019 39.0903 66.7072 39.229C67.0712 39.3937 67.3745 39.6623 67.6172 40.035C67.8685 40.4077 67.9942 40.8323 67.9942 41.309C67.9942 42.115 67.7212 42.765 67.1752 43.259C66.6379 43.753 65.8795 44 64.9002 44H61.0262ZM64.5622 38.631C65.0129 38.631 65.3552 38.5227 65.5892 38.306C65.8232 38.0893 65.9402 37.799 65.9402 37.435C65.9402 37.0623 65.8232 36.7763 65.5892 36.577C65.3552 36.369 65.0129 36.265 64.5622 36.265H62.5212V38.631H64.5622ZM64.6922 42.622C65.1429 42.622 65.4939 42.5007 65.7452 42.258C65.9965 42.0067 66.1222 41.6903 66.1222 41.309C66.1222 40.919 65.9965 40.6027 65.7452 40.36C65.4939 40.1087 65.1429 39.983 64.6922 39.983H62.5212V42.622H64.6922ZM72.7853 44.13C72.014 44.13 71.351 44.013 70.7963 43.779C70.2416 43.545 69.8213 43.2373 69.5353 42.856C69.2493 42.4747 69.0976 42.063 69.0803 41.621C69.0803 41.543 69.1063 41.478 69.1583 41.426C69.2103 41.374 69.2753 41.348 69.3533 41.348H70.5103C70.6143 41.348 70.6923 41.3697 70.7443 41.413C70.805 41.4477 70.8613 41.5083 70.9133 41.595C71 41.8897 71.1993 42.1367 71.5113 42.336C71.8233 42.5353 72.248 42.635 72.7853 42.635C73.4006 42.635 73.8643 42.5353 74.1763 42.336C74.4883 42.128 74.6443 41.842 74.6443 41.478C74.6443 41.2353 74.562 41.036 74.3973 40.88C74.2413 40.724 74.003 40.5897 73.6823 40.477C73.3703 40.3643 72.9023 40.2257 72.2783 40.061C71.2556 39.8183 70.506 39.4977 70.0293 39.099C69.5613 38.6917 69.3273 38.1153 69.3273 37.37C69.3273 36.8673 69.4616 36.421 69.7303 36.031C70.0076 35.641 70.402 35.3333 70.9133 35.108C71.4333 34.8827 72.0356 34.77 72.7203 34.77C73.431 34.77 74.0463 34.8957 74.5663 35.147C75.0863 35.3983 75.4806 35.7147 75.7493 36.096C76.0266 36.4687 76.174 36.8413 76.1913 37.214C76.1913 37.292 76.1653 37.357 76.1133 37.409C76.0613 37.461 75.9963 37.487 75.9183 37.487H74.7093C74.5273 37.487 74.4016 37.4047 74.3323 37.24C74.2803 36.9627 74.107 36.733 73.8123 36.551C73.5176 36.3603 73.1536 36.265 72.7203 36.265C72.235 36.265 71.8536 36.356 71.5763 36.538C71.299 36.72 71.1603 36.9843 71.1603 37.331C71.1603 37.5737 71.2296 37.773 71.3683 37.929C71.507 38.085 71.7236 38.2237 72.0183 38.345C72.3216 38.4663 72.755 38.6007 73.3183 38.748C74.081 38.9213 74.6876 39.1163 75.1383 39.333C75.5976 39.5497 75.9356 39.8227 76.1523 40.152C76.369 40.4813 76.4773 40.9017 76.4773 41.413C76.4773 41.9677 76.3213 42.453 76.0093 42.869C75.706 43.2763 75.2726 43.5883 74.7093 43.805C74.1546 44.0217 73.5133 44.13 72.7853 44.13ZM78.2791 44C78.1925 44 78.1188 43.9697 78.0581 43.909C77.9975 43.8483 77.9671 43.7747 77.9671 43.688V35.212C77.9671 35.1167 77.9975 35.043 78.0581 34.991C78.1188 34.9303 78.1925 34.9 78.2791 34.9H79.5011C79.5965 34.9 79.6701 34.9303 79.7221 34.991C79.7828 35.043 79.8131 35.1167 79.8131 35.212V43.688C79.8131 43.7747 79.7828 43.8483 79.7221 43.909C79.6701 43.9697 79.5965 44 79.5011 44H78.2791ZM84.1659 44C84.0792 44 84.0056 43.9697 83.9449 43.909C83.8842 43.8483 83.8539 43.7747 83.8539 43.688V36.499H81.4489C81.3622 36.499 81.2886 36.4687 81.2279 36.408C81.1672 36.3473 81.1369 36.2737 81.1369 36.187V35.225C81.1369 35.1297 81.1629 35.0517 81.2149 34.991C81.2756 34.9303 81.3536 34.9 81.4489 34.9H88.0789C88.1742 34.9 88.2522 34.9303 88.3129 34.991C88.3736 35.0517 88.4039 35.1297 88.4039 35.225V36.187C88.4039 36.2737 88.3736 36.3473 88.3129 36.408C88.2522 36.4687 88.1742 36.499 88.0789 36.499H85.6869V43.688C85.6869 43.7747 85.6566 43.8483 85.5959 43.909C85.5352 43.9697 85.4572 44 85.3619 44H84.1659ZM90.035 44C89.9483 44 89.8747 43.9697 89.814 43.909C89.7533 43.8483 89.723 43.7747 89.723 43.688V35.225C89.723 35.1297 89.749 35.0517 89.801 34.991C89.8617 34.9303 89.9397 34.9 90.035 34.9H95.755C95.8503 34.9 95.9283 34.9303 95.989 34.991C96.0497 35.0517 96.08 35.1297 96.08 35.225V36.083C96.08 36.1783 96.0497 36.2563 95.989 36.317C95.9283 36.369 95.8503 36.395 95.755 36.395H91.478V38.696H95.469C95.5643 38.696 95.6423 38.7263 95.703 38.787C95.7637 38.839 95.794 38.9127 95.794 39.008V39.814C95.794 39.9093 95.7637 39.9873 95.703 40.048C95.6423 40.1 95.5643 40.126 95.469 40.126H91.478V42.505H95.859C95.9543 42.505 96.0323 42.5353 96.093 42.596C96.1537 42.6567 96.184 42.7347 96.184 42.83V43.688C96.184 43.7833 96.1537 43.8613 96.093 43.922C96.0323 43.974 95.9543 44 95.859 44H90.035ZM104.408 44.13C103.238 44.13 102.328 43.831 101.678 43.233C101.028 42.635 100.703 41.7293 100.703 40.516V35.225C100.703 35.1297 100.729 35.0517 100.781 34.991C100.841 34.9303 100.919 34.9 101.015 34.9H102.198C102.293 34.9 102.367 34.9303 102.419 34.991C102.479 35.0517 102.51 35.1297 102.51 35.225V40.516C102.51 41.2093 102.674 41.7337 103.004 42.089C103.333 42.4357 103.801 42.609 104.408 42.609C105.014 42.609 105.478 42.4357 105.799 42.089C106.128 41.7337 106.293 41.2093 106.293 40.516V35.225C106.293 35.1297 106.323 35.0517 106.384 34.991C106.444 34.9303 106.522 34.9 106.618 34.9H107.788C107.883 34.9 107.957 34.9303 108.009 34.991C108.069 35.0517 108.1 35.1297 108.1 35.225V40.516C108.1 41.7293 107.775 42.635 107.125 43.233C106.483 43.831 105.578 44.13 104.408 44.13ZM110.36 44C110.274 44 110.2 43.9697 110.139 43.909C110.079 43.8483 110.048 43.7747 110.048 43.688V35.225C110.048 35.1297 110.074 35.0517 110.126 34.991C110.187 34.9303 110.265 34.9 110.36 34.9H113.727C114.785 34.9 115.612 35.147 116.21 35.641C116.817 36.135 117.12 36.837 117.12 37.747C117.12 38.3797 116.964 38.9127 116.652 39.346C116.349 39.7707 115.924 40.0783 115.378 40.269L117.276 43.584C117.302 43.636 117.315 43.6837 117.315 43.727C117.315 43.805 117.285 43.87 117.224 43.922C117.172 43.974 117.112 44 117.042 44H115.859C115.721 44 115.612 43.9697 115.534 43.909C115.465 43.8483 115.4 43.7617 115.339 43.649L113.662 40.568H111.855V43.688C111.855 43.7747 111.825 43.8483 111.764 43.909C111.712 43.9697 111.639 44 111.543 44H110.36ZM113.688 39.099C114.208 39.099 114.598 38.982 114.858 38.748C115.127 38.514 115.261 38.176 115.261 37.734C115.261 37.292 115.127 36.9497 114.858 36.707C114.598 36.4643 114.208 36.343 113.688 36.343H111.855V39.099H113.688ZM119.107 44C119.021 44 118.947 43.9697 118.886 43.909C118.826 43.8483 118.795 43.7747 118.795 43.688V35.212C118.795 35.1167 118.826 35.043 118.886 34.991C118.947 34.9303 119.021 34.9 119.107 34.9H120.316C120.412 34.9 120.485 34.9303 120.537 34.991C120.598 35.043 120.628 35.1167 120.628 35.212V42.453H124.749C124.845 42.453 124.923 42.4833 124.983 42.544C125.044 42.6047 125.074 42.6827 125.074 42.778V43.688C125.074 43.7833 125.044 43.8613 124.983 43.922C124.923 43.974 124.845 44 124.749 44H119.107Z" fill="#A0A0A5"/>
<rect x="41.5" y="59.5" width="319" height="44" rx="2.5" fill="#F5F7F9"/>
<path d="M57.47 86C57.37 86 57.285 85.97 57.215 85.91C57.155 85.84 57.125 85.755 57.125 85.655V75.695C57.125 75.595 57.155 75.515 57.215 75.455C57.285 75.385 57.37 75.35 57.47 75.35H58.22C58.32 75.35 58.4 75.385 58.46 75.455C58.53 75.515 58.565 75.595 58.565 75.695V79.19C58.855 78.82 59.195 78.54 59.585 78.35C59.975 78.15 60.46 78.05 61.04 78.05C62 78.05 62.745 78.36 63.275 78.98C63.815 79.59 64.085 80.405 64.085 81.425V85.655C64.085 85.755 64.05 85.84 63.98 85.91C63.92 85.97 63.84 86 63.74 86H62.99C62.89 86 62.805 85.97 62.735 85.91C62.675 85.84 62.645 85.755 62.645 85.655V81.5C62.645 80.79 62.47 80.24 62.12 79.85C61.78 79.46 61.285 79.265 60.635 79.265C60.005 79.265 59.5 79.465 59.12 79.865C58.75 80.255 58.565 80.8 58.565 81.5V85.655C58.565 85.755 58.53 85.84 58.46 85.91C58.4 85.97 58.32 86 58.22 86H57.47ZM69.1931 86C67.6131 86 66.8231 85.12 66.8231 83.36V79.4H65.6531C65.5531 79.4 65.4681 79.37 65.3981 79.31C65.3381 79.24 65.3081 79.155 65.3081 79.055V78.545C65.3081 78.445 65.3381 78.365 65.3981 78.305C65.4681 78.235 65.5531 78.2 65.6531 78.2H66.8231V75.695C66.8231 75.595 66.8531 75.515 66.9131 75.455C66.9831 75.385 67.0681 75.35 67.1681 75.35H67.8731C67.9731 75.35 68.0531 75.385 68.1131 75.455C68.1831 75.515 68.2181 75.595 68.2181 75.695V78.2H70.0781C70.1781 78.2 70.2581 78.235 70.3181 78.305C70.3881 78.365 70.4231 78.445 70.4231 78.545V79.055C70.4231 79.155 70.3881 79.24 70.3181 79.31C70.2581 79.37 70.1781 79.4 70.0781 79.4H68.2181V83.255C68.2181 83.755 68.3031 84.135 68.4731 84.395C68.6431 84.645 68.9231 84.77 69.3131 84.77H70.2281C70.3281 84.77 70.4081 84.805 70.4681 84.875C70.5381 84.935 70.5731 85.015 70.5731 85.115V85.655C70.5731 85.755 70.5381 85.84 70.4681 85.91C70.4081 85.97 70.3281 86 70.2281 86H69.1931ZM75.0525 86C73.4725 86 72.6825 85.12 72.6825 83.36V79.4H71.5125C71.4125 79.4 71.3275 79.37 71.2575 79.31C71.1975 79.24 71.1675 79.155 71.1675 79.055V78.545C71.1675 78.445 71.1975 78.365 71.2575 78.305C71.3275 78.235 71.4125 78.2 71.5125 78.2H72.6825V75.695C72.6825 75.595 72.7125 75.515 72.7725 75.455C72.8425 75.385 72.9275 75.35 73.0275 75.35H73.7325C73.8325 75.35 73.9125 75.385 73.9725 75.455C74.0425 75.515 74.0775 75.595 74.0775 75.695V78.2H75.9375C76.0375 78.2 76.1175 78.235 76.1775 78.305C76.2475 78.365 76.2825 78.445 76.2825 78.545V79.055C76.2825 79.155 76.2475 79.24 76.1775 79.31C76.1175 79.37 76.0375 79.4 75.9375 79.4H74.0775V83.255C74.0775 83.755 74.1625 84.135 74.3325 84.395C74.5025 84.645 74.7825 84.77 75.1725 84.77H76.0875C76.1875 84.77 76.2675 84.805 76.3275 84.875C76.3975 84.935 76.4325 85.015 76.4325 85.115V85.655C76.4325 85.755 76.3975 85.84 76.3275 85.91C76.2675 85.97 76.1875 86 76.0875 86H75.0525ZM78.2268 88.85C78.1268 88.85 78.0418 88.815 77.9718 88.745C77.9118 88.685 77.8818 88.605 77.8818 88.505V78.545C77.8818 78.445 77.9118 78.365 77.9718 78.305C78.0418 78.235 78.1268 78.2 78.2268 78.2H78.9168C79.0168 78.2 79.0968 78.235 79.1568 78.305C79.2268 78.365 79.2618 78.445 79.2618 78.545V79.205C79.8218 78.435 80.6418 78.05 81.7218 78.05C82.7718 78.05 83.5568 78.38 84.0768 79.04C84.6068 79.7 84.8918 80.55 84.9318 81.59C84.9418 81.7 84.9468 81.87 84.9468 82.1C84.9468 82.33 84.9418 82.5 84.9318 82.61C84.8918 83.64 84.6068 84.49 84.0768 85.16C83.5468 85.82 82.7618 86.15 81.7218 86.15C80.6818 86.15 79.8718 85.775 79.2918 85.025V88.505C79.2918 88.605 79.2618 88.685 79.2018 88.745C79.1418 88.815 79.0618 88.85 78.9618 88.85H78.2268ZM81.4068 84.935C82.1168 84.935 82.6318 84.715 82.9518 84.275C83.2818 83.835 83.4618 83.255 83.4918 82.535C83.5018 82.435 83.5068 82.29 83.5068 82.1C83.5068 80.21 82.8068 79.265 81.4068 79.265C80.7168 79.265 80.1968 79.495 79.8468 79.955C79.5068 80.405 79.3218 80.945 79.2918 81.575L79.2768 82.145L79.2918 82.73C79.3118 83.32 79.5018 83.835 79.8618 84.275C80.2218 84.715 80.7368 84.935 81.4068 84.935ZM89.5024 86.15C88.8024 86.15 88.2124 86.04 87.7324 85.82C87.2624 85.59 86.9074 85.33 86.6674 85.04C86.4374 84.75 86.3224 84.51 86.3224 84.32C86.3224 84.22 86.3574 84.145 86.4274 84.095C86.5074 84.035 86.5874 84.005 86.6674 84.005H87.3424C87.4424 84.005 87.5324 84.055 87.6124 84.155C87.8524 84.435 88.1124 84.655 88.3924 84.815C88.6724 84.975 89.0474 85.055 89.5174 85.055C90.0374 85.055 90.4574 84.955 90.7774 84.755C91.1074 84.545 91.2724 84.26 91.2724 83.9C91.2724 83.66 91.2024 83.465 91.0624 83.315C90.9324 83.155 90.7024 83.02 90.3724 82.91C90.0524 82.79 89.5724 82.66 88.9324 82.52C88.0624 82.33 87.4424 82.055 87.0724 81.695C86.7124 81.335 86.5324 80.87 86.5324 80.3C86.5324 79.92 86.6424 79.56 86.8624 79.22C87.0924 78.87 87.4224 78.59 87.8524 78.38C88.2924 78.16 88.8174 78.05 89.4274 78.05C90.0674 78.05 90.6124 78.155 91.0624 78.365C91.5124 78.575 91.8474 78.825 92.0674 79.115C92.2974 79.395 92.4124 79.63 92.4124 79.82C92.4124 79.91 92.3774 79.985 92.3074 80.045C92.2474 80.105 92.1724 80.135 92.0824 80.135H91.4524C91.3324 80.135 91.2324 80.085 91.1524 79.985C90.9924 79.795 90.8524 79.65 90.7324 79.55C90.6224 79.44 90.4574 79.345 90.2374 79.265C90.0274 79.185 89.7574 79.145 89.4274 79.145C88.9474 79.145 88.5774 79.25 88.3174 79.46C88.0574 79.66 87.9274 79.925 87.9274 80.255C87.9274 80.465 87.9824 80.645 88.0924 80.795C88.2024 80.935 88.4124 81.065 88.7224 81.185C89.0424 81.305 89.5024 81.43 90.1024 81.56C91.0524 81.76 91.7224 82.05 92.1124 82.43C92.5124 82.8 92.7124 83.275 92.7124 83.855C92.7124 84.285 92.5874 84.675 92.3374 85.025C92.0874 85.375 91.7174 85.65 91.2274 85.85C90.7474 86.05 90.1724 86.15 89.5024 86.15ZM94.7189 80.75C94.6189 80.75 94.5339 80.72 94.4639 80.66C94.4039 80.59 94.3739 80.505 94.3739 80.405V79.355C94.3739 79.255 94.4039 79.175 94.4639 79.115C94.5339 79.045 94.6189 79.01 94.7189 79.01H95.7989C95.8989 79.01 95.9789 79.045 96.0389 79.115C96.1089 79.175 96.1439 79.255 96.1439 79.355V80.405C96.1439 80.505 96.1089 80.59 96.0389 80.66C95.9789 80.72 95.8989 80.75 95.7989 80.75H94.7189ZM94.7189 86C94.6189 86 94.5339 85.97 94.4639 85.91C94.4039 85.84 94.3739 85.755 94.3739 85.655V84.605C94.3739 84.505 94.4039 84.425 94.4639 84.365C94.5339 84.295 94.6189 84.26 94.7189 84.26H95.7989C95.8989 84.26 95.9789 84.295 96.0389 84.365C96.1089 84.425 96.1439 84.505 96.1439 84.605V85.655C96.1439 85.755 96.1089 85.84 96.0389 85.91C95.9789 85.97 95.8989 86 95.7989 86H94.7189ZM97.8668 87.26C97.7868 87.26 97.7168 87.23 97.6568 87.17C97.5968 87.11 97.5668 87.04 97.5668 86.96C97.5668 86.92 97.5818 86.86 97.6118 86.78L102.742 74.48C102.822 74.3 102.952 74.21 103.132 74.21H103.717C103.797 74.21 103.867 74.24 103.927 74.3C103.987 74.36 104.017 74.43 104.017 74.51C104.017 74.58 104.007 74.64 103.987 74.69L98.8418 86.99C98.7618 87.17 98.6318 87.26 98.4518 87.26H97.8668ZM102.027 87.26C101.947 87.26 101.877 87.23 101.817 87.17C101.757 87.11 101.727 87.04 101.727 86.96C101.727 86.92 101.742 86.86 101.772 86.78L106.902 74.48C106.982 74.3 107.112 74.21 107.292 74.21H107.877C107.957 74.21 108.027 74.24 108.087 74.3C108.147 74.36 108.177 74.43 108.177 74.51C108.177 74.58 108.167 74.64 108.147 74.69L103.002 86.99C102.922 87.17 102.792 87.26 102.612 87.26H102.027ZM112.071 86.15C111.041 86.15 110.216 85.835 109.596 85.205C108.986 84.565 108.651 83.695 108.591 82.595L108.576 82.085L108.591 81.59C108.661 80.51 109.001 79.65 109.611 79.01C110.231 78.37 111.046 78.05 112.056 78.05C113.166 78.05 114.026 78.405 114.636 79.115C115.246 79.815 115.551 80.765 115.551 81.965V82.22C115.551 82.32 115.516 82.405 115.446 82.475C115.386 82.535 115.306 82.565 115.206 82.565H110.016V82.7C110.046 83.35 110.241 83.905 110.601 84.365C110.971 84.815 111.456 85.04 112.056 85.04C112.516 85.04 112.891 84.95 113.181 84.77C113.481 84.58 113.701 84.385 113.841 84.185C113.931 84.065 113.996 83.995 114.036 83.975C114.086 83.945 114.171 83.93 114.291 83.93H115.026C115.116 83.93 115.191 83.955 115.251 84.005C115.311 84.055 115.341 84.125 115.341 84.215C115.341 84.435 115.201 84.7 114.921 85.01C114.651 85.32 114.266 85.59 113.766 85.82C113.276 86.04 112.711 86.15 112.071 86.15ZM114.126 81.53V81.485C114.126 80.795 113.936 80.235 113.556 79.805C113.186 79.365 112.686 79.145 112.056 79.145C111.426 79.145 110.926 79.365 110.556 79.805C110.196 80.235 110.016 80.795 110.016 81.485V81.53H114.126ZM116.823 86C116.743 86 116.668 85.97 116.598 85.91C116.538 85.85 116.508 85.775 116.508 85.685C116.508 85.595 116.543 85.505 116.613 85.415L119.223 82.01L116.778 78.785C116.708 78.705 116.673 78.615 116.673 78.515C116.673 78.425 116.703 78.35 116.763 78.29C116.823 78.23 116.898 78.2 116.988 78.2H117.753C117.903 78.2 118.033 78.28 118.143 78.44L120.138 81.035L122.133 78.455C122.193 78.375 122.248 78.315 122.298 78.275C122.358 78.225 122.433 78.2 122.523 78.2H123.258C123.348 78.2 123.423 78.23 123.483 78.29C123.543 78.35 123.573 78.425 123.573 78.515C123.573 78.615 123.538 78.705 123.468 78.785L120.993 82.04L123.603 85.415C123.673 85.505 123.708 85.595 123.708 85.685C123.708 85.775 123.678 85.85 123.618 85.91C123.558 85.97 123.483 86 123.393 86H122.598C122.448 86 122.318 85.925 122.208 85.775L120.108 83.03L117.978 85.775C117.918 85.845 117.858 85.9 117.798 85.94C117.748 85.98 117.678 86 117.588 86H116.823ZM127.356 86.15C126.866 86.15 126.411 86.05 125.991 85.85C125.571 85.65 125.236 85.38 124.986 85.04C124.746 84.69 124.626 84.305 124.626 83.885C124.626 83.225 124.896 82.685 125.436 82.265C125.986 81.835 126.726 81.555 127.656 81.425L129.891 81.11V80.675C129.891 79.655 129.306 79.145 128.136 79.145C127.696 79.145 127.336 79.24 127.056 79.43C126.776 79.61 126.566 79.825 126.426 80.075C126.396 80.165 126.356 80.23 126.306 80.27C126.266 80.31 126.206 80.33 126.126 80.33H125.481C125.391 80.33 125.311 80.3 125.241 80.24C125.181 80.17 125.151 80.09 125.151 80C125.161 79.76 125.271 79.49 125.481 79.19C125.701 78.88 126.036 78.615 126.486 78.395C126.936 78.165 127.491 78.05 128.151 78.05C129.271 78.05 130.076 78.315 130.566 78.845C131.056 79.365 131.301 80.015 131.301 80.795V85.655C131.301 85.755 131.266 85.84 131.196 85.91C131.136 85.97 131.056 86 130.956 86H130.266C130.166 86 130.081 85.97 130.011 85.91C129.951 85.84 129.921 85.755 129.921 85.655V85.01C129.701 85.33 129.381 85.6 128.961 85.82C128.541 86.04 128.006 86.15 127.356 86.15ZM127.671 85.025C128.321 85.025 128.851 84.815 129.261 84.395C129.681 83.965 129.891 83.35 129.891 82.55V82.13L128.151 82.385C127.441 82.485 126.906 82.655 126.546 82.895C126.186 83.125 126.006 83.42 126.006 83.78C126.006 84.18 126.171 84.49 126.501 84.71C126.831 84.92 127.221 85.025 127.671 85.025ZM133.803 86C133.703 86 133.618 85.97 133.548 85.91C133.488 85.84 133.458 85.755 133.458 85.655V78.545C133.458 78.445 133.488 78.365 133.548 78.305C133.618 78.235 133.703 78.2 133.803 78.2H134.478C134.578 78.2 134.658 78.235 134.718 78.305C134.788 78.365 134.823 78.445 134.823 78.545V79.07C135.343 78.39 136.068 78.05 136.998 78.05C138.108 78.05 138.893 78.51 139.353 79.43C139.593 79.01 139.933 78.675 140.373 78.425C140.813 78.175 141.308 78.05 141.858 78.05C142.678 78.05 143.348 78.33 143.868 78.89C144.388 79.45 144.648 80.26 144.648 81.32V85.655C144.648 85.755 144.613 85.84 144.543 85.91C144.483 85.97 144.403 86 144.303 86H143.598C143.498 86 143.413 85.97 143.343 85.91C143.283 85.84 143.253 85.755 143.253 85.655V81.455C143.253 80.675 143.088 80.115 142.758 79.775C142.438 79.435 142.013 79.265 141.483 79.265C141.013 79.265 140.608 79.44 140.268 79.79C139.928 80.13 139.758 80.685 139.758 81.455V85.655C139.758 85.755 139.723 85.84 139.653 85.91C139.593 85.97 139.513 86 139.413 86H138.708C138.608 86 138.523 85.97 138.453 85.91C138.393 85.84 138.363 85.755 138.363 85.655V81.455C138.363 80.675 138.193 80.115 137.853 79.775C137.523 79.435 137.103 79.265 136.593 79.265C136.123 79.265 135.718 79.44 135.378 79.79C135.038 80.13 134.868 80.68 134.868 81.44V85.655C134.868 85.755 134.833 85.84 134.763 85.91C134.703 85.97 134.623 86 134.523 86H133.803ZM147.148 88.85C147.048 88.85 146.963 88.815 146.893 88.745C146.833 88.685 146.803 88.605 146.803 88.505V78.545C146.803 78.445 146.833 78.365 146.893 78.305C146.963 78.235 147.048 78.2 147.148 78.2H147.838C147.938 78.2 148.018 78.235 148.078 78.305C148.148 78.365 148.183 78.445 148.183 78.545V79.205C148.743 78.435 149.563 78.05 150.643 78.05C151.693 78.05 152.478 78.38 152.998 79.04C153.528 79.7 153.813 80.55 153.853 81.59C153.863 81.7 153.868 81.87 153.868 82.1C153.868 82.33 153.863 82.5 153.853 82.61C153.813 83.64 153.528 84.49 152.998 85.16C152.468 85.82 151.683 86.15 150.643 86.15C149.603 86.15 148.793 85.775 148.213 85.025V88.505C148.213 88.605 148.183 88.685 148.123 88.745C148.063 88.815 147.983 88.85 147.883 88.85H147.148ZM150.328 84.935C151.038 84.935 151.553 84.715 151.873 84.275C152.203 83.835 152.383 83.255 152.413 82.535C152.423 82.435 152.428 82.29 152.428 82.1C152.428 80.21 151.728 79.265 150.328 79.265C149.638 79.265 149.118 79.495 148.768 79.955C148.428 80.405 148.243 80.945 148.213 81.575L148.198 82.145L148.213 82.73C148.233 83.32 148.423 83.835 148.783 84.275C149.143 84.715 149.658 84.935 150.328 84.935ZM156.083 86C155.983 86 155.898 85.97 155.828 85.91C155.768 85.84 155.738 85.755 155.738 85.655V75.695C155.738 75.595 155.768 75.515 155.828 75.455C155.898 75.385 155.983 75.35 156.083 75.35H156.788C156.888 75.35 156.968 75.385 157.028 75.455C157.098 75.515 157.133 75.595 157.133 75.695V85.655C157.133 85.755 157.098 85.84 157.028 85.91C156.968 85.97 156.888 86 156.788 86H156.083ZM162.491 86.15C161.461 86.15 160.636 85.835 160.016 85.205C159.406 84.565 159.071 83.695 159.011 82.595L158.996 82.085L159.011 81.59C159.081 80.51 159.421 79.65 160.031 79.01C160.651 78.37 161.466 78.05 162.476 78.05C163.586 78.05 164.446 78.405 165.056 79.115C165.666 79.815 165.971 80.765 165.971 81.965V82.22C165.971 82.32 165.936 82.405 165.866 82.475C165.806 82.535 165.726 82.565 165.626 82.565H160.436V82.7C160.466 83.35 160.661 83.905 161.021 84.365C161.391 84.815 161.876 85.04 162.476 85.04C162.936 85.04 163.311 84.95 163.601 84.77C163.901 84.58 164.121 84.385 164.261 84.185C164.351 84.065 164.416 83.995 164.456 83.975C164.506 83.945 164.591 83.93 164.711 83.93H165.446C165.536 83.93 165.611 83.955 165.671 84.005C165.731 84.055 165.761 84.125 165.761 84.215C165.761 84.435 165.621 84.7 165.341 85.01C165.071 85.32 164.686 85.59 164.186 85.82C163.696 86.04 163.131 86.15 162.491 86.15ZM164.546 81.53V81.485C164.546 80.795 164.356 80.235 163.976 79.805C163.606 79.365 163.106 79.145 162.476 79.145C161.846 79.145 161.346 79.365 160.976 79.805C160.616 80.235 160.436 80.795 160.436 81.485V81.53H164.546ZM168.004 86C167.904 86 167.819 85.97 167.749 85.91C167.689 85.84 167.659 85.755 167.659 85.655V84.575C167.659 84.475 167.689 84.395 167.749 84.335C167.819 84.265 167.904 84.23 168.004 84.23H169.084C169.184 84.23 169.269 84.265 169.339 84.335C169.409 84.395 169.444 84.475 169.444 84.575V85.655C169.444 85.755 169.409 85.84 169.339 85.91C169.269 85.97 169.184 86 169.084 86H168.004ZM174.547 86.15C173.477 86.15 172.637 85.85 172.027 85.25C171.427 84.64 171.107 83.79 171.067 82.7L171.052 82.1L171.067 81.5C171.107 80.41 171.427 79.565 172.027 78.965C172.637 78.355 173.477 78.05 174.547 78.05C175.267 78.05 175.877 78.18 176.377 78.44C176.877 78.7 177.247 79.02 177.487 79.4C177.737 79.78 177.872 80.16 177.892 80.54C177.902 80.64 177.872 80.72 177.802 80.78C177.732 80.84 177.647 80.87 177.547 80.87H176.827C176.727 80.87 176.652 80.85 176.602 80.81C176.552 80.77 176.502 80.69 176.452 80.57C176.282 80.09 176.042 79.75 175.732 79.55C175.422 79.34 175.032 79.235 174.562 79.235C173.942 79.235 173.447 79.43 173.077 79.82C172.717 80.2 172.522 80.785 172.492 81.575L172.477 82.115L172.492 82.625C172.522 83.425 172.717 84.015 173.077 84.395C173.437 84.775 173.932 84.965 174.562 84.965C175.032 84.965 175.422 84.865 175.732 84.665C176.042 84.455 176.282 84.11 176.452 83.63C176.502 83.51 176.552 83.43 176.602 83.39C176.652 83.34 176.727 83.315 176.827 83.315H177.547C177.647 83.315 177.732 83.35 177.802 83.42C177.872 83.48 177.902 83.56 177.892 83.66C177.872 84.03 177.737 84.41 177.487 84.8C177.247 85.18 176.877 85.5 176.377 85.76C175.887 86.02 175.277 86.15 174.547 86.15ZM182.868 86.15C181.768 86.15 180.913 85.84 180.303 85.22C179.703 84.6 179.383 83.775 179.343 82.745L179.328 82.1L179.343 81.455C179.383 80.435 179.708 79.615 180.318 78.995C180.928 78.365 181.778 78.05 182.868 78.05C183.958 78.05 184.808 78.365 185.418 78.995C186.028 79.615 186.353 80.435 186.393 81.455C186.403 81.565 186.408 81.78 186.408 82.1C186.408 82.42 186.403 82.635 186.393 82.745C186.353 83.775 186.028 84.6 185.418 85.22C184.818 85.84 183.968 86.15 182.868 86.15ZM182.868 84.995C183.498 84.995 183.993 84.795 184.353 84.395C184.723 83.995 184.923 83.42 184.953 82.67C184.963 82.57 184.968 82.38 184.968 82.1C184.968 81.82 184.963 81.63 184.953 81.53C184.923 80.78 184.723 80.205 184.353 79.805C183.993 79.405 183.498 79.205 182.868 79.205C182.238 79.205 181.738 79.405 181.368 79.805C180.998 80.205 180.803 80.78 180.783 81.53L180.768 82.1L180.783 82.67C180.803 83.42 180.998 83.995 181.368 84.395C181.738 84.795 182.238 84.995 182.868 84.995ZM188.632 86C188.532 86 188.447 85.97 188.377 85.91C188.317 85.84 188.287 85.755 188.287 85.655V78.545C188.287 78.445 188.317 78.365 188.377 78.305C188.447 78.235 188.532 78.2 188.632 78.2H189.307C189.407 78.2 189.487 78.235 189.547 78.305C189.617 78.365 189.652 78.445 189.652 78.545V79.07C190.172 78.39 190.897 78.05 191.827 78.05C192.937 78.05 193.722 78.51 194.182 79.43C194.422 79.01 194.762 78.675 195.202 78.425C195.642 78.175 196.137 78.05 196.687 78.05C197.507 78.05 198.177 78.33 198.697 78.89C199.217 79.45 199.477 80.26 199.477 81.32V85.655C199.477 85.755 199.442 85.84 199.372 85.91C199.312 85.97 199.232 86 199.132 86H198.427C198.327 86 198.242 85.97 198.172 85.91C198.112 85.84 198.082 85.755 198.082 85.655V81.455C198.082 80.675 197.917 80.115 197.587 79.775C197.267 79.435 196.842 79.265 196.312 79.265C195.842 79.265 195.437 79.44 195.097 79.79C194.757 80.13 194.587 80.685 194.587 81.455V85.655C194.587 85.755 194.552 85.84 194.482 85.91C194.422 85.97 194.342 86 194.242 86H193.537C193.437 86 193.352 85.97 193.282 85.91C193.222 85.84 193.192 85.755 193.192 85.655V81.455C193.192 80.675 193.022 80.115 192.682 79.775C192.352 79.435 191.932 79.265 191.422 79.265C190.952 79.265 190.547 79.44 190.207 79.79C189.867 80.13 189.697 80.68 189.697 81.44V85.655C189.697 85.755 189.662 85.84 189.592 85.91C189.532 85.97 189.452 86 189.352 86H188.632Z" fill="#A0A0A5"/>
<rect x="41.5" y="59.5" width="319" height="44" rx="2.5" stroke="#DDDDE2"/>
<path d="M0.5 0.5H52.5V17C52.5 18.933 50.933 20.5 49 20.5H0.5V0.5Z" fill="#F5F7F9"/>
<path d="M13.122 14C13.0487 14 12.9863 13.9743 12.935 13.923C12.8837 13.8717 12.858 13.8093 12.858 13.736V6.564C12.858 6.48333 12.8837 6.421 12.935 6.377C12.9863 6.32567 13.0487 6.3 13.122 6.3H14.156C14.2367 6.3 14.299 6.32567 14.343 6.377C14.3943 6.421 14.42 6.48333 14.42 6.564V13.736C14.42 13.8093 14.3943 13.8717 14.343 13.923C14.299 13.9743 14.2367 14 14.156 14H13.122ZM16.2771 14C16.2038 14 16.1414 13.9743 16.0901 13.923C16.0388 13.8717 16.0131 13.8093 16.0131 13.736V8.544C16.0131 8.47067 16.0388 8.40833 16.0901 8.357C16.1414 8.30567 16.2038 8.28 16.2771 8.28H17.1791C17.2524 8.28 17.3148 8.30567 17.3661 8.357C17.4174 8.40833 17.4431 8.47067 17.4431 8.544V8.995C17.8758 8.445 18.4881 8.17 19.2801 8.17C19.9548 8.17 20.4901 8.39367 20.8861 8.841C21.2821 9.281 21.4801 9.88233 21.4801 10.645V13.736C21.4801 13.8093 21.4544 13.8717 21.4031 13.923C21.3591 13.9743 21.2968 14 21.2161 14H20.2481C20.1748 14 20.1124 13.9743 20.0611 13.923C20.0098 13.8717 19.9841 13.8093 19.9841 13.736V10.711C19.9841 10.2783 19.8778 9.94467 19.6651 9.71C19.4598 9.468 19.1591 9.347 18.7631 9.347C18.3744 9.347 18.0664 9.468 17.8391 9.71C17.6191 9.952 17.5091 10.2857 17.5091 10.711V13.736C17.5091 13.8093 17.4834 13.8717 17.4321 13.923C17.3881 13.9743 17.3258 14 17.2451 14H16.2771ZM23.1524 16.09C23.079 16.09 23.0167 16.0643 22.9654 16.013C22.914 15.969 22.8884 15.9067 22.8884 15.826V8.544C22.8884 8.46333 22.914 8.401 22.9654 8.357C23.0167 8.30567 23.079 8.28 23.1524 8.28H24.0214C24.102 8.28 24.1644 8.30567 24.2084 8.357C24.2597 8.401 24.2854 8.46333 24.2854 8.544V8.984C24.696 8.44133 25.2827 8.17 26.0454 8.17C26.786 8.17 27.3544 8.40467 27.7504 8.874C28.1464 9.336 28.359 9.963 28.3884 10.755C28.3957 10.843 28.3994 10.9713 28.3994 11.14C28.3994 11.316 28.3957 11.448 28.3884 11.536C28.359 12.306 28.1464 12.9293 27.7504 13.406C27.3544 13.8753 26.786 14.11 26.0454 14.11C25.3047 14.11 24.74 13.8497 24.3514 13.329V15.826C24.3514 15.9067 24.3257 15.969 24.2744 16.013C24.2304 16.0643 24.168 16.09 24.0874 16.09H23.1524ZM25.6384 12.933C26.4304 12.933 26.852 12.4453 26.9034 11.47C26.9107 11.3967 26.9144 11.2867 26.9144 11.14C26.9144 10.9933 26.9107 10.8833 26.9034 10.81C26.852 9.83467 26.4304 9.347 25.6384 9.347C25.213 9.347 24.8977 9.48267 24.6924 9.754C24.487 10.0253 24.3734 10.359 24.3514 10.755L24.3404 11.173L24.3514 11.602C24.366 11.9687 24.4797 12.284 24.6924 12.548C24.9124 12.8047 25.2277 12.933 25.6384 12.933ZM31.7572 14.11C31.0825 14.11 30.5509 13.89 30.1622 13.45C29.7735 13.0027 29.5792 12.3977 29.5792 11.635V8.544C29.5792 8.47067 29.6049 8.40833 29.6562 8.357C29.7075 8.30567 29.7699 8.28 29.8432 8.28H30.8112C30.8919 8.28 30.9542 8.30567 30.9982 8.357C31.0495 8.401 31.0752 8.46333 31.0752 8.544V11.569C31.0752 12.4783 31.4749 12.933 32.2742 12.933C32.6555 12.933 32.9562 12.812 33.1762 12.57C33.4035 12.328 33.5172 11.9943 33.5172 11.569V8.544C33.5172 8.47067 33.5429 8.40833 33.5942 8.357C33.6455 8.30567 33.7079 8.28 33.7812 8.28H34.7492C34.8299 8.28 34.8922 8.30567 34.9362 8.357C34.9875 8.401 35.0132 8.46333 35.0132 8.544V13.736C35.0132 13.8093 34.9875 13.8717 34.9362 13.923C34.8922 13.9743 34.8299 14 34.7492 14H33.8582C33.7849 14 33.7225 13.9743 33.6712 13.923C33.6199 13.8717 33.5942 13.8093 33.5942 13.736V13.285C33.1835 13.835 32.5712 14.11 31.7572 14.11ZM39.0512 14C38.3839 14 37.8816 13.8277 37.5442 13.483C37.2142 13.131 37.0492 12.6177 37.0492 11.943V9.446H36.1802C36.1069 9.446 36.0446 9.42033 35.9932 9.369C35.9419 9.31033 35.9162 9.24433 35.9162 9.171V8.544C35.9162 8.47067 35.9419 8.40833 35.9932 8.357C36.0446 8.30567 36.1069 8.28 36.1802 8.28H37.0492V6.454C37.0492 6.37333 37.0749 6.311 37.1262 6.267C37.1776 6.21567 37.2399 6.19 37.3132 6.19H38.2042C38.2849 6.19 38.3472 6.21567 38.3912 6.267C38.4426 6.311 38.4682 6.37333 38.4682 6.454V8.28H39.8432C39.9239 8.28 39.9862 8.30567 40.0302 8.357C40.0816 8.401 40.1072 8.46333 40.1072 8.544V9.171C40.1072 9.25167 40.0816 9.31767 40.0302 9.369C39.9789 9.42033 39.9166 9.446 39.8432 9.446H38.4682V11.833C38.4682 12.1483 38.5232 12.3867 38.6332 12.548C38.7432 12.7093 38.9266 12.79 39.1832 12.79H39.9422C40.0156 12.79 40.0779 12.8157 40.1292 12.867C40.1806 12.9183 40.2062 12.9807 40.2062 13.054V13.736C40.2062 13.8093 40.1806 13.8717 40.1292 13.923C40.0852 13.9743 40.0229 14 39.9422 14H39.0512Z" fill="#535356"/>
<path d="M0.5 0.5H52.5V17C52.5 18.933 50.933 20.5 49 20.5H0.5V0.5Z" stroke="#EAEAEF"/>
<rect x="0.5" y="0.5" width="401" height="134" stroke="#EAEAEF"/>
</svg>
