<svg width="402" height="258" viewBox="0 0 402 258" fill="none" xmlns="http://www.w3.org/2000/svg">
<rect x="0.5" y="0.5" width="401" height="257" fill="white"/>
<rect width="400" height="163" transform="translate(1 47.5)" fill="white"/>
<rect width="400" height="103" transform="translate(1 77.5)" fill="white"/>
<rect width="320" height="73" transform="translate(41 92.5)" fill="white"/>
<path d="M45.524 105.63C44.328 105.63 43.4007 105.322 42.742 104.707C42.092 104.092 41.7453 103.225 41.702 102.107C41.6933 101.873 41.689 101.492 41.689 100.963C41.689 100.426 41.6933 100.036 41.702 99.793C41.7453 98.6837 42.0963 97.8213 42.755 97.206C43.4223 96.582 44.3453 96.27 45.524 96.27C46.2953 96.27 46.967 96.4043 47.539 96.673C48.111 96.933 48.553 97.2927 48.865 97.752C49.177 98.2027 49.3417 98.714 49.359 99.286V99.312C49.359 99.3813 49.3287 99.442 49.268 99.494C49.216 99.5373 49.1553 99.559 49.086 99.559H47.851C47.747 99.559 47.669 99.5373 47.617 99.494C47.565 99.4507 47.5217 99.3683 47.487 99.247C47.3483 98.701 47.1187 98.3197 46.798 98.103C46.4773 97.8777 46.0483 97.765 45.511 97.765C44.263 97.765 43.613 98.4627 43.561 99.858C43.5523 100.092 43.548 100.452 43.548 100.937C43.548 101.422 43.5523 101.791 43.561 102.042C43.613 103.437 44.263 104.135 45.511 104.135C46.0483 104.135 46.4773 104.022 46.798 103.797C47.1273 103.572 47.357 103.19 47.487 102.653C47.513 102.532 47.552 102.449 47.604 102.406C47.6647 102.363 47.747 102.341 47.851 102.341H49.086C49.164 102.341 49.229 102.367 49.281 102.419C49.3417 102.471 49.3677 102.536 49.359 102.614C49.3417 103.186 49.177 103.702 48.865 104.161C48.553 104.612 48.111 104.971 47.539 105.24C46.967 105.5 46.2953 105.63 45.524 105.63ZM51.2127 105.5C51.1261 105.5 51.0524 105.47 50.9917 105.409C50.9311 105.348 50.9007 105.275 50.9007 105.188V96.725C50.9007 96.6297 50.9267 96.5517 50.9787 96.491C51.0394 96.4303 51.1174 96.4 51.2127 96.4H52.3957C52.4911 96.4 52.5647 96.4303 52.6167 96.491C52.6774 96.5517 52.7077 96.6297 52.7077 96.725V100.079H56.5427V96.725C56.5427 96.6297 56.5687 96.5517 56.6207 96.491C56.6814 96.4303 56.7594 96.4 56.8547 96.4H58.0247C58.1201 96.4 58.1981 96.4303 58.2587 96.491C58.3194 96.5517 58.3497 96.6297 58.3497 96.725V105.188C58.3497 105.283 58.3194 105.361 58.2587 105.422C58.1981 105.474 58.1201 105.5 58.0247 105.5H56.8547C56.7681 105.5 56.6944 105.47 56.6337 105.409C56.5731 105.348 56.5427 105.275 56.5427 105.188V101.704H52.7077V105.188C52.7077 105.275 52.6774 105.348 52.6167 105.409C52.5647 105.47 52.4911 105.5 52.3957 105.5H51.2127ZM63.8684 105.63C62.6898 105.63 61.7711 105.331 61.1124 104.733C60.4538 104.135 60.1071 103.247 60.0724 102.068C60.0638 101.817 60.0594 101.448 60.0594 100.963C60.0594 100.469 60.0638 100.096 60.0724 99.845C60.1071 98.6923 60.4624 97.8083 61.1384 97.193C61.8144 96.5777 62.7244 96.27 63.8684 96.27C65.0124 96.27 65.9224 96.5777 66.5984 97.193C67.2831 97.8083 67.6428 98.6923 67.6774 99.845C67.6948 100.348 67.7034 100.72 67.7034 100.963C67.7034 101.197 67.6948 101.565 67.6774 102.068C67.6341 103.247 67.2831 104.135 66.6244 104.733C65.9658 105.331 65.0471 105.63 63.8684 105.63ZM63.8684 104.135C64.4491 104.135 64.9128 103.962 65.2594 103.615C65.6061 103.26 65.7924 102.722 65.8184 102.003C65.8358 101.483 65.8444 101.132 65.8444 100.95C65.8444 100.751 65.8358 100.4 65.8184 99.897C65.7924 99.1777 65.6061 98.6447 65.2594 98.298C64.9128 97.9427 64.4491 97.765 63.8684 97.765C63.2964 97.765 62.8371 97.9427 62.4904 98.298C62.1438 98.6447 61.9574 99.1777 61.9314 99.897C61.9228 100.148 61.9184 100.499 61.9184 100.95C61.9184 101.392 61.9228 101.743 61.9314 102.003C61.9574 102.722 62.1394 103.26 62.4774 103.615C62.8241 103.962 63.2878 104.135 63.8684 104.135ZM72.9075 105.63C71.7288 105.63 70.8102 105.331 70.1515 104.733C69.4928 104.135 69.1462 103.247 69.1115 102.068C69.1028 101.817 69.0985 101.448 69.0985 100.963C69.0985 100.469 69.1028 100.096 69.1115 99.845C69.1462 98.6923 69.5015 97.8083 70.1775 97.193C70.8535 96.5777 71.7635 96.27 72.9075 96.27C74.0515 96.27 74.9615 96.5777 75.6375 97.193C76.3222 97.8083 76.6818 98.6923 76.7165 99.845C76.7338 100.348 76.7425 100.72 76.7425 100.963C76.7425 101.197 76.7338 101.565 76.7165 102.068C76.6732 103.247 76.3222 104.135 75.6635 104.733C75.0048 105.331 74.0862 105.63 72.9075 105.63ZM72.9075 104.135C73.4882 104.135 73.9518 103.962 74.2985 103.615C74.6452 103.26 74.8315 102.722 74.8575 102.003C74.8748 101.483 74.8835 101.132 74.8835 100.95C74.8835 100.751 74.8748 100.4 74.8575 99.897C74.8315 99.1777 74.6452 98.6447 74.2985 98.298C73.9518 97.9427 73.4882 97.765 72.9075 97.765C72.3355 97.765 71.8762 97.9427 71.5295 98.298C71.1828 98.6447 70.9965 99.1777 70.9705 99.897C70.9618 100.148 70.9575 100.499 70.9575 100.95C70.9575 101.392 70.9618 101.743 70.9705 102.003C70.9965 102.722 71.1785 103.26 71.5165 103.615C71.8632 103.962 72.3268 104.135 72.9075 104.135ZM81.6085 105.63C80.8372 105.63 80.1742 105.513 79.6195 105.279C79.0649 105.045 78.6445 104.737 78.3585 104.356C78.0725 103.975 77.9209 103.563 77.9035 103.121C77.9035 103.043 77.9295 102.978 77.9815 102.926C78.0335 102.874 78.0985 102.848 78.1765 102.848H79.3335C79.4375 102.848 79.5155 102.87 79.5675 102.913C79.6282 102.948 79.6845 103.008 79.7365 103.095C79.8232 103.39 80.0225 103.637 80.3345 103.836C80.6465 104.035 81.0712 104.135 81.6085 104.135C82.2239 104.135 82.6875 104.035 82.9995 103.836C83.3115 103.628 83.4675 103.342 83.4675 102.978C83.4675 102.735 83.3852 102.536 83.2205 102.38C83.0645 102.224 82.8262 102.09 82.5055 101.977C82.1935 101.864 81.7255 101.726 81.1015 101.561C80.0789 101.318 79.3292 100.998 78.8525 100.599C78.3845 100.192 78.1505 99.6153 78.1505 98.87C78.1505 98.3673 78.2849 97.921 78.5535 97.531C78.8309 97.141 79.2252 96.8333 79.7365 96.608C80.2565 96.3827 80.8589 96.27 81.5435 96.27C82.2542 96.27 82.8695 96.3957 83.3895 96.647C83.9095 96.8983 84.3039 97.2147 84.5725 97.596C84.8499 97.9687 84.9972 98.3413 85.0145 98.714C85.0145 98.792 84.9885 98.857 84.9365 98.909C84.8845 98.961 84.8195 98.987 84.7415 98.987H83.5325C83.3505 98.987 83.2249 98.9047 83.1555 98.74C83.1035 98.4627 82.9302 98.233 82.6355 98.051C82.3409 97.8603 81.9769 97.765 81.5435 97.765C81.0582 97.765 80.6769 97.856 80.3995 98.038C80.1222 98.22 79.9835 98.4843 79.9835 98.831C79.9835 99.0737 80.0529 99.273 80.1915 99.429C80.3302 99.585 80.5469 99.7237 80.8415 99.845C81.1449 99.9663 81.5782 100.101 82.1415 100.248C82.9042 100.421 83.5109 100.616 83.9615 100.833C84.4209 101.05 84.7589 101.323 84.9755 101.652C85.1922 101.981 85.3005 102.402 85.3005 102.913C85.3005 103.468 85.1445 103.953 84.8325 104.369C84.5292 104.776 84.0959 105.088 83.5325 105.305C82.9779 105.522 82.3365 105.63 81.6085 105.63ZM87.1024 105.5C87.0157 105.5 86.942 105.47 86.8814 105.409C86.8207 105.348 86.7904 105.275 86.7904 105.188V96.725C86.7904 96.6297 86.8164 96.5517 86.8684 96.491C86.929 96.4303 87.007 96.4 87.1024 96.4H92.8224C92.9177 96.4 92.9957 96.4303 93.0564 96.491C93.117 96.5517 93.1474 96.6297 93.1474 96.725V97.583C93.1474 97.6783 93.117 97.7563 93.0564 97.817C92.9957 97.869 92.9177 97.895 92.8224 97.895H88.5454V100.196H92.5364C92.6317 100.196 92.7097 100.226 92.7704 100.287C92.831 100.339 92.8614 100.413 92.8614 100.508V101.314C92.8614 101.409 92.831 101.487 92.7704 101.548C92.7097 101.6 92.6317 101.626 92.5364 101.626H88.5454V104.005H92.9264C93.0217 104.005 93.0997 104.035 93.1604 104.096C93.221 104.157 93.2514 104.235 93.2514 104.33V105.188C93.2514 105.283 93.221 105.361 93.1604 105.422C93.0997 105.474 93.0217 105.5 92.9264 105.5H87.1024ZM96.9462 105.5C96.8769 105.5 96.8119 105.474 96.7512 105.422C96.6992 105.37 96.6732 105.305 96.6732 105.227L96.6992 105.11L99.8322 96.725C99.8929 96.5083 100.045 96.4 100.287 96.4H101.704C101.93 96.4 102.081 96.5083 102.159 96.725L105.292 105.11C105.301 105.136 105.305 105.175 105.305 105.227C105.305 105.305 105.279 105.37 105.227 105.422C105.175 105.474 105.115 105.5 105.045 105.5H103.914C103.802 105.5 103.715 105.474 103.654 105.422C103.594 105.37 103.555 105.314 103.537 105.253L102.926 103.667H99.0652L98.4542 105.253C98.3849 105.418 98.2592 105.5 98.0772 105.5H96.9462ZM102.471 102.172L100.989 98.155L99.5202 102.172H102.471ZM112.657 105.63C111.461 105.63 110.533 105.322 109.875 104.707C109.225 104.092 108.878 103.225 108.835 102.107C108.826 101.873 108.822 101.492 108.822 100.963C108.822 100.426 108.826 100.036 108.835 99.793C108.878 98.6837 109.229 97.8213 109.888 97.206C110.555 96.582 111.478 96.27 112.657 96.27C113.428 96.27 114.1 96.4043 114.672 96.673C115.244 96.933 115.686 97.2927 115.998 97.752C116.31 98.2027 116.474 98.714 116.492 99.286V99.312C116.492 99.3813 116.461 99.442 116.401 99.494C116.349 99.5373 116.288 99.559 116.219 99.559H114.984C114.88 99.559 114.802 99.5373 114.75 99.494C114.698 99.4507 114.654 99.3683 114.62 99.247C114.481 98.701 114.251 98.3197 113.931 98.103C113.61 97.8777 113.181 97.765 112.644 97.765C111.396 97.765 110.746 98.4627 110.694 99.858C110.685 100.092 110.681 100.452 110.681 100.937C110.681 101.422 110.685 101.791 110.694 102.042C110.746 103.437 111.396 104.135 112.644 104.135C113.181 104.135 113.61 104.022 113.931 103.797C114.26 103.572 114.49 103.19 114.62 102.653C114.646 102.532 114.685 102.449 114.737 102.406C114.797 102.363 114.88 102.341 114.984 102.341H116.219C116.297 102.341 116.362 102.367 116.414 102.419C116.474 102.471 116.5 102.536 116.492 102.614C116.474 103.186 116.31 103.702 115.998 104.161C115.686 104.612 115.244 104.971 114.672 105.24C114.1 105.5 113.428 105.63 112.657 105.63ZM121.531 105.63C120.352 105.63 119.433 105.331 118.775 104.733C118.116 104.135 117.769 103.247 117.735 102.068C117.726 101.817 117.722 101.448 117.722 100.963C117.722 100.469 117.726 100.096 117.735 99.845C117.769 98.6923 118.125 97.8083 118.801 97.193C119.477 96.5777 120.387 96.27 121.531 96.27C122.675 96.27 123.585 96.5777 124.261 97.193C124.945 97.8083 125.305 98.6923 125.34 99.845C125.357 100.348 125.366 100.72 125.366 100.963C125.366 101.197 125.357 101.565 125.34 102.068C125.296 103.247 124.945 104.135 124.287 104.733C123.628 105.331 122.709 105.63 121.531 105.63ZM121.531 104.135C122.111 104.135 122.575 103.962 122.922 103.615C123.268 103.26 123.455 102.722 123.481 102.003C123.498 101.483 123.507 101.132 123.507 100.95C123.507 100.751 123.498 100.4 123.481 99.897C123.455 99.1777 123.268 98.6447 122.922 98.298C122.575 97.9427 122.111 97.765 121.531 97.765C120.959 97.765 120.499 97.9427 120.153 98.298C119.806 98.6447 119.62 99.1777 119.594 99.897C119.585 100.148 119.581 100.499 119.581 100.95C119.581 101.392 119.585 101.743 119.594 102.003C119.62 102.722 119.802 103.26 120.14 103.615C120.486 103.962 120.95 104.135 121.531 104.135ZM127.385 105.5C127.298 105.5 127.224 105.47 127.164 105.409C127.103 105.348 127.073 105.275 127.073 105.188V96.725C127.073 96.6297 127.099 96.5517 127.151 96.491C127.211 96.4303 127.289 96.4 127.385 96.4H128.386C128.49 96.4 128.568 96.4217 128.62 96.465C128.672 96.4997 128.719 96.5473 128.763 96.608L132.507 102.432V96.725C132.507 96.6297 132.533 96.5517 132.585 96.491C132.645 96.4303 132.723 96.4 132.819 96.4H133.911C134.006 96.4 134.084 96.4303 134.145 96.491C134.205 96.5517 134.236 96.6297 134.236 96.725V105.175C134.236 105.27 134.205 105.348 134.145 105.409C134.084 105.47 134.01 105.5 133.924 105.5H132.91C132.762 105.5 132.637 105.431 132.533 105.292L128.802 99.598V105.188C128.802 105.283 128.771 105.361 128.711 105.422C128.65 105.474 128.572 105.5 128.477 105.5H127.385ZM138.578 105.5C138.491 105.5 138.418 105.47 138.357 105.409C138.296 105.348 138.266 105.275 138.266 105.188V97.999H135.861C135.774 97.999 135.701 97.9687 135.64 97.908C135.579 97.8473 135.549 97.7737 135.549 97.687V96.725C135.549 96.6297 135.575 96.5517 135.627 96.491C135.688 96.4303 135.766 96.4 135.861 96.4H142.491C142.586 96.4 142.664 96.4303 142.725 96.491C142.786 96.5517 142.816 96.6297 142.816 96.725V97.687C142.816 97.7737 142.786 97.8473 142.725 97.908C142.664 97.9687 142.586 97.999 142.491 97.999H140.099V105.188C140.099 105.275 140.069 105.348 140.008 105.409C139.947 105.47 139.869 105.5 139.774 105.5H138.578ZM142.624 105.5C142.555 105.5 142.49 105.474 142.429 105.422C142.377 105.37 142.351 105.305 142.351 105.227L142.377 105.11L145.51 96.725C145.571 96.5083 145.722 96.4 145.965 96.4H147.382C147.607 96.4 147.759 96.5083 147.837 96.725L150.97 105.11C150.979 105.136 150.983 105.175 150.983 105.227C150.983 105.305 150.957 105.37 150.905 105.422C150.853 105.474 150.792 105.5 150.723 105.5H149.592C149.479 105.5 149.393 105.474 149.332 105.422C149.271 105.37 149.232 105.314 149.215 105.253L148.604 103.667H144.743L144.132 105.253C144.063 105.418 143.937 105.5 143.755 105.5H142.624ZM148.149 102.172L146.667 98.155L145.198 102.172H148.149ZM155.529 105.63C154.333 105.63 153.406 105.322 152.747 104.707C152.097 104.092 151.75 103.225 151.707 102.107C151.698 101.873 151.694 101.492 151.694 100.963C151.694 100.426 151.698 100.036 151.707 99.793C151.75 98.6837 152.101 97.8213 152.76 97.206C153.427 96.582 154.35 96.27 155.529 96.27C156.3 96.27 156.972 96.4043 157.544 96.673C158.116 96.933 158.558 97.2927 158.87 97.752C159.182 98.2027 159.347 98.714 159.364 99.286V99.312C159.364 99.3813 159.334 99.442 159.273 99.494C159.221 99.5373 159.16 99.559 159.091 99.559H157.856C157.752 99.559 157.674 99.5373 157.622 99.494C157.57 99.4507 157.527 99.3683 157.492 99.247C157.353 98.701 157.124 98.3197 156.803 98.103C156.482 97.8777 156.053 97.765 155.516 97.765C154.268 97.765 153.618 98.4627 153.566 99.858C153.557 100.092 153.553 100.452 153.553 100.937C153.553 101.422 153.557 101.791 153.566 102.042C153.618 103.437 154.268 104.135 155.516 104.135C156.053 104.135 156.482 104.022 156.803 103.797C157.132 103.572 157.362 103.19 157.492 102.653C157.518 102.532 157.557 102.449 157.609 102.406C157.67 102.363 157.752 102.341 157.856 102.341H159.091C159.169 102.341 159.234 102.367 159.286 102.419C159.347 102.471 159.373 102.536 159.364 102.614C159.347 103.186 159.182 103.702 158.87 104.161C158.558 104.612 158.116 104.971 157.544 105.24C156.972 105.5 156.3 105.63 155.529 105.63ZM163.22 105.5C163.133 105.5 163.059 105.47 162.999 105.409C162.938 105.348 162.908 105.275 162.908 105.188V97.999H160.503C160.416 97.999 160.342 97.9687 160.282 97.908C160.221 97.8473 160.191 97.7737 160.191 97.687V96.725C160.191 96.6297 160.217 96.5517 160.269 96.491C160.329 96.4303 160.407 96.4 160.503 96.4H167.133C167.228 96.4 167.306 96.4303 167.367 96.491C167.427 96.5517 167.458 96.6297 167.458 96.725V97.687C167.458 97.7737 167.427 97.8473 167.367 97.908C167.306 97.9687 167.228 97.999 167.133 97.999H164.741V105.188C164.741 105.275 164.71 105.348 164.65 105.409C164.589 105.47 164.511 105.5 164.416 105.5H163.22ZM174.94 105.63C173.744 105.63 172.817 105.322 172.158 104.707C171.508 104.092 171.161 103.225 171.118 102.107C171.109 101.873 171.105 101.492 171.105 100.963C171.105 100.426 171.109 100.036 171.118 99.793C171.161 98.6837 171.512 97.8213 172.171 97.206C172.838 96.582 173.761 96.27 174.94 96.27C175.711 96.27 176.383 96.4043 176.955 96.673C177.527 96.933 177.969 97.2927 178.281 97.752C178.593 98.2027 178.758 98.714 178.775 99.286V99.312C178.775 99.3813 178.745 99.442 178.684 99.494C178.632 99.5373 178.571 99.559 178.502 99.559H177.267C177.163 99.559 177.085 99.5373 177.033 99.494C176.981 99.4507 176.938 99.3683 176.903 99.247C176.764 98.701 176.535 98.3197 176.214 98.103C175.893 97.8777 175.464 97.765 174.927 97.765C173.679 97.765 173.029 98.4627 172.977 99.858C172.968 100.092 172.964 100.452 172.964 100.937C172.964 101.422 172.968 101.791 172.977 102.042C173.029 103.437 173.679 104.135 174.927 104.135C175.464 104.135 175.893 104.022 176.214 103.797C176.543 103.572 176.773 103.19 176.903 102.653C176.929 102.532 176.968 102.449 177.02 102.406C177.081 102.363 177.163 102.341 177.267 102.341H178.502C178.58 102.341 178.645 102.367 178.697 102.419C178.758 102.471 178.784 102.536 178.775 102.614C178.758 103.186 178.593 103.702 178.281 104.161C177.969 104.612 177.527 104.971 176.955 105.24C176.383 105.5 175.711 105.63 174.94 105.63ZM180.629 105.5C180.542 105.5 180.468 105.47 180.408 105.409C180.347 105.348 180.317 105.275 180.317 105.188V96.712C180.317 96.6167 180.347 96.543 180.408 96.491C180.468 96.4303 180.542 96.4 180.629 96.4H181.838C181.933 96.4 182.007 96.4303 182.059 96.491C182.119 96.543 182.15 96.6167 182.15 96.712V103.953H186.271C186.366 103.953 186.444 103.983 186.505 104.044C186.565 104.105 186.596 104.183 186.596 104.278V105.188C186.596 105.283 186.565 105.361 186.505 105.422C186.444 105.474 186.366 105.5 186.271 105.5H180.629ZM188.17 105.5C188.083 105.5 188.009 105.47 187.949 105.409C187.888 105.348 187.858 105.275 187.858 105.188V96.712C187.858 96.6167 187.888 96.543 187.949 96.491C188.009 96.4303 188.083 96.4 188.17 96.4H189.392C189.487 96.4 189.561 96.4303 189.613 96.491C189.673 96.543 189.704 96.6167 189.704 96.712V105.188C189.704 105.275 189.673 105.348 189.613 105.409C189.561 105.47 189.487 105.5 189.392 105.5H188.17ZM192.055 105.5C191.968 105.5 191.894 105.47 191.834 105.409C191.773 105.348 191.743 105.275 191.743 105.188V96.725C191.743 96.6297 191.769 96.5517 191.821 96.491C191.881 96.4303 191.959 96.4 192.055 96.4H197.775C197.87 96.4 197.948 96.4303 198.009 96.491C198.069 96.5517 198.1 96.6297 198.1 96.725V97.583C198.1 97.6783 198.069 97.7563 198.009 97.817C197.948 97.869 197.87 97.895 197.775 97.895H193.498V100.196H197.489C197.584 100.196 197.662 100.226 197.723 100.287C197.783 100.339 197.814 100.413 197.814 100.508V101.314C197.814 101.409 197.783 101.487 197.723 101.548C197.662 101.6 197.584 101.626 197.489 101.626H193.498V104.005H197.879C197.974 104.005 198.052 104.035 198.113 104.096C198.173 104.157 198.204 104.235 198.204 104.33V105.188C198.204 105.283 198.173 105.361 198.113 105.422C198.052 105.474 197.974 105.5 197.879 105.5H192.055ZM200.141 105.5C200.055 105.5 199.981 105.47 199.92 105.409C199.86 105.348 199.829 105.275 199.829 105.188V96.725C199.829 96.6297 199.855 96.5517 199.907 96.491C199.968 96.4303 200.046 96.4 200.141 96.4H201.142C201.246 96.4 201.324 96.4217 201.376 96.465C201.428 96.4997 201.476 96.5473 201.519 96.608L205.263 102.432V96.725C205.263 96.6297 205.289 96.5517 205.341 96.491C205.402 96.4303 205.48 96.4 205.575 96.4H206.667C206.763 96.4 206.841 96.4303 206.901 96.491C206.962 96.5517 206.992 96.6297 206.992 96.725V105.175C206.992 105.27 206.962 105.348 206.901 105.409C206.841 105.47 206.767 105.5 206.68 105.5H205.666C205.519 105.5 205.393 105.431 205.289 105.292L201.558 99.598V105.188C201.558 105.283 201.528 105.361 201.467 105.422C201.407 105.474 201.329 105.5 201.233 105.5H200.141ZM211.335 105.5C211.248 105.5 211.175 105.47 211.114 105.409C211.053 105.348 211.023 105.275 211.023 105.188V97.999H208.618C208.531 97.999 208.458 97.9687 208.397 97.908C208.336 97.8473 208.306 97.7737 208.306 97.687V96.725C208.306 96.6297 208.332 96.5517 208.384 96.491C208.445 96.4303 208.523 96.4 208.618 96.4H215.248C215.343 96.4 215.421 96.4303 215.482 96.491C215.543 96.5517 215.573 96.6297 215.573 96.725V97.687C215.573 97.7737 215.543 97.8473 215.482 97.908C215.421 97.9687 215.343 97.999 215.248 97.999H212.856V105.188C212.856 105.275 212.826 105.348 212.765 105.409C212.704 105.47 212.626 105.5 212.531 105.5H211.335Z" fill="#A0A0A5"/>
<rect x="41.5" y="121" width="319" height="44" rx="2.5" fill="#F5F7F9"/>
<rect x="41.5" y="121" width="319" height="44" rx="2.5" stroke="#DDDDE2"/>
<path d="M333 141L338 146L343 141" stroke="black" stroke-width="2" stroke-linecap="round" stroke-linejoin="round"/>
<path d="M0.5 0.5H52.5V17C52.5 18.933 50.933 20.5 49 20.5H0.5V0.5Z" fill="#F5F7F9"/>
<path d="M13.122 14C13.0487 14 12.9863 13.9743 12.935 13.923C12.8837 13.8717 12.858 13.8093 12.858 13.736V6.564C12.858 6.48333 12.8837 6.421 12.935 6.377C12.9863 6.32567 13.0487 6.3 13.122 6.3H14.156C14.2367 6.3 14.299 6.32567 14.343 6.377C14.3943 6.421 14.42 6.48333 14.42 6.564V13.736C14.42 13.8093 14.3943 13.8717 14.343 13.923C14.299 13.9743 14.2367 14 14.156 14H13.122ZM16.2771 14C16.2038 14 16.1414 13.9743 16.0901 13.923C16.0388 13.8717 16.0131 13.8093 16.0131 13.736V8.544C16.0131 8.47067 16.0388 8.40833 16.0901 8.357C16.1414 8.30567 16.2038 8.28 16.2771 8.28H17.1791C17.2524 8.28 17.3148 8.30567 17.3661 8.357C17.4174 8.40833 17.4431 8.47067 17.4431 8.544V8.995C17.8758 8.445 18.4881 8.17 19.2801 8.17C19.9548 8.17 20.4901 8.39367 20.8861 8.841C21.2821 9.281 21.4801 9.88233 21.4801 10.645V13.736C21.4801 13.8093 21.4544 13.8717 21.4031 13.923C21.3591 13.9743 21.2968 14 21.2161 14H20.2481C20.1748 14 20.1124 13.9743 20.0611 13.923C20.0098 13.8717 19.9841 13.8093 19.9841 13.736V10.711C19.9841 10.2783 19.8778 9.94467 19.6651 9.71C19.4598 9.468 19.1591 9.347 18.7631 9.347C18.3744 9.347 18.0664 9.468 17.8391 9.71C17.6191 9.952 17.5091 10.2857 17.5091 10.711V13.736C17.5091 13.8093 17.4834 13.8717 17.4321 13.923C17.3881 13.9743 17.3258 14 17.2451 14H16.2771ZM23.1524 16.09C23.079 16.09 23.0167 16.0643 22.9654 16.013C22.914 15.969 22.8884 15.9067 22.8884 15.826V8.544C22.8884 8.46333 22.914 8.401 22.9654 8.357C23.0167 8.30567 23.079 8.28 23.1524 8.28H24.0214C24.102 8.28 24.1644 8.30567 24.2084 8.357C24.2597 8.401 24.2854 8.46333 24.2854 8.544V8.984C24.696 8.44133 25.2827 8.17 26.0454 8.17C26.786 8.17 27.3544 8.40467 27.7504 8.874C28.1464 9.336 28.359 9.963 28.3884 10.755C28.3957 10.843 28.3994 10.9713 28.3994 11.14C28.3994 11.316 28.3957 11.448 28.3884 11.536C28.359 12.306 28.1464 12.9293 27.7504 13.406C27.3544 13.8753 26.786 14.11 26.0454 14.11C25.3047 14.11 24.74 13.8497 24.3514 13.329V15.826C24.3514 15.9067 24.3257 15.969 24.2744 16.013C24.2304 16.0643 24.168 16.09 24.0874 16.09H23.1524ZM25.6384 12.933C26.4304 12.933 26.852 12.4453 26.9034 11.47C26.9107 11.3967 26.9144 11.2867 26.9144 11.14C26.9144 10.9933 26.9107 10.8833 26.9034 10.81C26.852 9.83467 26.4304 9.347 25.6384 9.347C25.213 9.347 24.8977 9.48267 24.6924 9.754C24.487 10.0253 24.3734 10.359 24.3514 10.755L24.3404 11.173L24.3514 11.602C24.366 11.9687 24.4797 12.284 24.6924 12.548C24.9124 12.8047 25.2277 12.933 25.6384 12.933ZM31.7572 14.11C31.0825 14.11 30.5509 13.89 30.1622 13.45C29.7735 13.0027 29.5792 12.3977 29.5792 11.635V8.544C29.5792 8.47067 29.6049 8.40833 29.6562 8.357C29.7075 8.30567 29.7699 8.28 29.8432 8.28H30.8112C30.8919 8.28 30.9542 8.30567 30.9982 8.357C31.0495 8.401 31.0752 8.46333 31.0752 8.544V11.569C31.0752 12.4783 31.4749 12.933 32.2742 12.933C32.6555 12.933 32.9562 12.812 33.1762 12.57C33.4035 12.328 33.5172 11.9943 33.5172 11.569V8.544C33.5172 8.47067 33.5429 8.40833 33.5942 8.357C33.6455 8.30567 33.7079 8.28 33.7812 8.28H34.7492C34.8299 8.28 34.8922 8.30567 34.9362 8.357C34.9875 8.401 35.0132 8.46333 35.0132 8.544V13.736C35.0132 13.8093 34.9875 13.8717 34.9362 13.923C34.8922 13.9743 34.8299 14 34.7492 14H33.8582C33.7849 14 33.7225 13.9743 33.6712 13.923C33.6199 13.8717 33.5942 13.8093 33.5942 13.736V13.285C33.1835 13.835 32.5712 14.11 31.7572 14.11ZM39.0512 14C38.3839 14 37.8816 13.8277 37.5442 13.483C37.2142 13.131 37.0492 12.6177 37.0492 11.943V9.446H36.1802C36.1069 9.446 36.0446 9.42033 35.9932 9.369C35.9419 9.31033 35.9162 9.24433 35.9162 9.171V8.544C35.9162 8.47067 35.9419 8.40833 35.9932 8.357C36.0446 8.30567 36.1069 8.28 36.1802 8.28H37.0492V6.454C37.0492 6.37333 37.0749 6.311 37.1262 6.267C37.1776 6.21567 37.2399 6.19 37.3132 6.19H38.2042C38.2849 6.19 38.3472 6.21567 38.3912 6.267C38.4426 6.311 38.4682 6.37333 38.4682 6.454V8.28H39.8432C39.9239 8.28 39.9862 8.30567 40.0302 8.357C40.0816 8.401 40.1072 8.46333 40.1072 8.544V9.171C40.1072 9.25167 40.0816 9.31767 40.0302 9.369C39.9789 9.42033 39.9166 9.446 39.8432 9.446H38.4682V11.833C38.4682 12.1483 38.5232 12.3867 38.6332 12.548C38.7432 12.7093 38.9266 12.79 39.1832 12.79H39.9422C40.0156 12.79 40.0779 12.8157 40.1292 12.867C40.1806 12.9183 40.2062 12.9807 40.2062 13.054V13.736C40.2062 13.8093 40.1806 13.8717 40.1292 13.923C40.0852 13.9743 40.0229 14 39.9422 14H39.0512Z" fill="#535356"/>
<path d="M0.5 0.5H52.5V17C52.5 18.933 50.933 20.5 49 20.5H0.5V0.5Z" stroke="#EAEAEF"/>
<rect width="400" height="103" transform="translate(1 47)" fill="white"/>
<rect width="320" height="73" transform="translate(41 62)" fill="white"/>
<path d="M45.524 75.13C44.328 75.13 43.4007 74.8223 42.742 74.207C42.092 73.5917 41.7453 72.725 41.702 71.607C41.6933 71.373 41.689 70.9917 41.689 70.463C41.689 69.9257 41.6933 69.5357 41.702 69.293C41.7453 68.1837 42.0963 67.3213 42.755 66.706C43.4223 66.082 44.3453 65.77 45.524 65.77C46.2953 65.77 46.967 65.9043 47.539 66.173C48.111 66.433 48.553 66.7927 48.865 67.252C49.177 67.7027 49.3417 68.214 49.359 68.786V68.812C49.359 68.8813 49.3287 68.942 49.268 68.994C49.216 69.0373 49.1553 69.059 49.086 69.059H47.851C47.747 69.059 47.669 69.0373 47.617 68.994C47.565 68.9507 47.5217 68.8683 47.487 68.747C47.3483 68.201 47.1187 67.8197 46.798 67.603C46.4773 67.3777 46.0483 67.265 45.511 67.265C44.263 67.265 43.613 67.9627 43.561 69.358C43.5523 69.592 43.548 69.9517 43.548 70.437C43.548 70.9223 43.5523 71.2907 43.561 71.542C43.613 72.9373 44.263 73.635 45.511 73.635C46.0483 73.635 46.4773 73.5223 46.798 73.297C47.1273 73.0717 47.357 72.6903 47.487 72.153C47.513 72.0317 47.552 71.9493 47.604 71.906C47.6647 71.8627 47.747 71.841 47.851 71.841H49.086C49.164 71.841 49.229 71.867 49.281 71.919C49.3417 71.971 49.3677 72.036 49.359 72.114C49.3417 72.686 49.177 73.2017 48.865 73.661C48.553 74.1117 48.111 74.4713 47.539 74.74C46.967 75 46.2953 75.13 45.524 75.13ZM54.3977 75.13C53.2191 75.13 52.3004 74.831 51.6417 74.233C50.9831 73.635 50.6364 72.7467 50.6017 71.568C50.5931 71.3167 50.5887 70.9483 50.5887 70.463C50.5887 69.969 50.5931 69.5963 50.6017 69.345C50.6364 68.1923 50.9917 67.3083 51.6677 66.693C52.3437 66.0777 53.2537 65.77 54.3977 65.77C55.5417 65.77 56.4517 66.0777 57.1277 66.693C57.8124 67.3083 58.1721 68.1923 58.2067 69.345C58.2241 69.8477 58.2327 70.2203 58.2327 70.463C58.2327 70.697 58.2241 71.0653 58.2067 71.568C58.1634 72.7467 57.8124 73.635 57.1537 74.233C56.4951 74.831 55.5764 75.13 54.3977 75.13ZM54.3977 73.635C54.9784 73.635 55.4421 73.4617 55.7887 73.115C56.1354 72.7597 56.3217 72.2223 56.3477 71.503C56.3651 70.983 56.3737 70.632 56.3737 70.45C56.3737 70.2507 56.3651 69.8997 56.3477 69.397C56.3217 68.6777 56.1354 68.1447 55.7887 67.798C55.4421 67.4427 54.9784 67.265 54.3977 67.265C53.8257 67.265 53.3664 67.4427 53.0197 67.798C52.6731 68.1447 52.4867 68.6777 52.4607 69.397C52.4521 69.6483 52.4477 69.9993 52.4477 70.45C52.4477 70.892 52.4521 71.243 52.4607 71.503C52.4867 72.2223 52.6687 72.7597 53.0067 73.115C53.3534 73.4617 53.8171 73.635 54.3977 73.635ZM60.2518 75C60.1651 75 60.0914 74.9697 60.0308 74.909C59.9701 74.8483 59.9398 74.7747 59.9398 74.688V66.225C59.9398 66.1297 59.9658 66.0517 60.0178 65.991C60.0784 65.9303 60.1564 65.9 60.2518 65.9H61.2528C61.3568 65.9 61.4348 65.9217 61.4868 65.965C61.5388 65.9997 61.5864 66.0473 61.6298 66.108L65.3738 71.932V66.225C65.3738 66.1297 65.3998 66.0517 65.4518 65.991C65.5124 65.9303 65.5904 65.9 65.6858 65.9H66.7778C66.8731 65.9 66.9511 65.9303 67.0118 65.991C67.0724 66.0517 67.1028 66.1297 67.1028 66.225V74.675C67.1028 74.7703 67.0724 74.8483 67.0118 74.909C66.9511 74.9697 66.8774 75 66.7908 75H65.7768C65.6294 75 65.5038 74.9307 65.3998 74.792L61.6688 69.098V74.688C61.6688 74.7833 61.6384 74.8613 61.5778 74.922C61.5171 74.974 61.4391 75 61.3438 75H60.2518ZM71.4452 75C71.3585 75 71.2849 74.9697 71.2242 74.909C71.1635 74.8483 71.1332 74.7747 71.1332 74.688V67.499H68.7282C68.6415 67.499 68.5679 67.4687 68.5072 67.408C68.4465 67.3473 68.4162 67.2737 68.4162 67.187V66.225C68.4162 66.1297 68.4422 66.0517 68.4942 65.991C68.5549 65.9303 68.6329 65.9 68.7282 65.9H75.3582C75.4535 65.9 75.5315 65.9303 75.5922 65.991C75.6529 66.0517 75.6832 66.1297 75.6832 66.225V67.187C75.6832 67.2737 75.6529 67.3473 75.5922 67.408C75.5315 67.4687 75.4535 67.499 75.3582 67.499H72.9662V74.688C72.9662 74.7747 72.9359 74.8483 72.8752 74.909C72.8145 74.9697 72.7365 75 72.6412 75H71.4452ZM75.4911 75C75.4218 75 75.3568 74.974 75.2961 74.922C75.2441 74.87 75.2181 74.805 75.2181 74.727L75.2441 74.61L78.3771 66.225C78.4378 66.0083 78.5895 65.9 78.8321 65.9H80.2491C80.4745 65.9 80.6261 66.0083 80.7041 66.225L83.8371 74.61C83.8458 74.636 83.8501 74.675 83.8501 74.727C83.8501 74.805 83.8241 74.87 83.7721 74.922C83.7201 74.974 83.6595 75 83.5901 75H82.4591C82.3465 75 82.2598 74.974 82.1991 74.922C82.1385 74.87 82.0995 74.8137 82.0821 74.753L81.4711 73.167H77.6101L76.9991 74.753C76.9298 74.9177 76.8041 75 76.6221 75H75.4911ZM81.0161 71.672L79.5341 67.655L78.0651 71.672H81.0161ZM88.3961 75.13C87.2001 75.13 86.2727 74.8223 85.6141 74.207C84.9641 73.5917 84.6174 72.725 84.5741 71.607C84.5654 71.373 84.5611 70.9917 84.5611 70.463C84.5611 69.9257 84.5654 69.5357 84.5741 69.293C84.6174 68.1837 84.9684 67.3213 85.6271 66.706C86.2944 66.082 87.2174 65.77 88.3961 65.77C89.1674 65.77 89.8391 65.9043 90.4111 66.173C90.9831 66.433 91.4251 66.7927 91.7371 67.252C92.0491 67.7027 92.2137 68.214 92.2311 68.786V68.812C92.2311 68.8813 92.2007 68.942 92.1401 68.994C92.0881 69.0373 92.0274 69.059 91.9581 69.059H90.7231C90.6191 69.059 90.5411 69.0373 90.4891 68.994C90.4371 68.9507 90.3937 68.8683 90.3591 68.747C90.2204 68.201 89.9907 67.8197 89.6701 67.603C89.3494 67.3777 88.9204 67.265 88.3831 67.265C87.1351 67.265 86.4851 67.9627 86.4331 69.358C86.4244 69.592 86.4201 69.9517 86.4201 70.437C86.4201 70.9223 86.4244 71.2907 86.4331 71.542C86.4851 72.9373 87.1351 73.635 88.3831 73.635C88.9204 73.635 89.3494 73.5223 89.6701 73.297C89.9994 73.0717 90.2291 72.6903 90.3591 72.153C90.3851 72.0317 90.4241 71.9493 90.4761 71.906C90.5367 71.8627 90.6191 71.841 90.7231 71.841H91.9581C92.0361 71.841 92.1011 71.867 92.1531 71.919C92.2137 71.971 92.2397 72.036 92.2311 72.114C92.2137 72.686 92.0491 73.2017 91.7371 73.661C91.4251 74.1117 90.9831 74.4713 90.4111 74.74C89.8391 75 89.1674 75.13 88.3961 75.13ZM96.0868 75C96.0001 75 95.9265 74.9697 95.8658 74.909C95.8051 74.8483 95.7748 74.7747 95.7748 74.688V67.499H93.3698C93.2831 67.499 93.2095 67.4687 93.1488 67.408C93.0881 67.3473 93.0578 67.2737 93.0578 67.187V66.225C93.0578 66.1297 93.0838 66.0517 93.1358 65.991C93.1965 65.9303 93.2745 65.9 93.3698 65.9H99.9998C100.095 65.9 100.173 65.9303 100.234 65.991C100.294 66.0517 100.325 66.1297 100.325 66.225V67.187C100.325 67.2737 100.294 67.3473 100.234 67.408C100.173 67.4687 100.095 67.499 99.9998 67.499H97.6078V74.688C97.6078 74.7747 97.5775 74.8483 97.5168 74.909C97.4561 74.9697 97.3781 75 97.2828 75H96.0868ZM107.807 75.13C106.611 75.13 105.684 74.8223 105.025 74.207C104.375 73.5917 104.029 72.725 103.985 71.607C103.977 71.373 103.972 70.9917 103.972 70.463C103.972 69.9257 103.977 69.5357 103.985 69.293C104.029 68.1837 104.38 67.3213 105.038 66.706C105.706 66.082 106.629 65.77 107.807 65.77C108.579 65.77 109.25 65.9043 109.822 66.173C110.394 66.433 110.836 66.7927 111.148 67.252C111.46 67.7027 111.625 68.214 111.642 68.786V68.812C111.642 68.8813 111.612 68.942 111.551 68.994C111.499 69.0373 111.439 69.059 111.369 69.059H110.134C110.03 69.059 109.952 69.0373 109.9 68.994C109.848 68.9507 109.805 68.8683 109.77 68.747C109.632 68.201 109.402 67.8197 109.081 67.603C108.761 67.3777 108.332 67.265 107.794 67.265C106.546 67.265 105.896 67.9627 105.844 69.358C105.836 69.592 105.831 69.9517 105.831 70.437C105.831 70.9223 105.836 71.2907 105.844 71.542C105.896 72.9373 106.546 73.635 107.794 73.635C108.332 73.635 108.761 73.5223 109.081 73.297C109.411 73.0717 109.64 72.6903 109.77 72.153C109.796 72.0317 109.835 71.9493 109.887 71.906C109.948 71.8627 110.03 71.841 110.134 71.841H111.369C111.447 71.841 111.512 71.867 111.564 71.919C111.625 71.971 111.651 72.036 111.642 72.114C111.625 72.686 111.46 73.2017 111.148 73.661C110.836 74.1117 110.394 74.4713 109.822 74.74C109.25 75 108.579 75.13 107.807 75.13ZM113.496 75C113.409 75 113.336 74.9697 113.275 74.909C113.214 74.8483 113.184 74.7747 113.184 74.688V66.212C113.184 66.1167 113.214 66.043 113.275 65.991C113.336 65.9303 113.409 65.9 113.496 65.9H114.705C114.8 65.9 114.874 65.9303 114.926 65.991C114.987 66.043 115.017 66.1167 115.017 66.212V73.453H119.138C119.233 73.453 119.311 73.4833 119.372 73.544C119.433 73.6047 119.463 73.6827 119.463 73.778V74.688C119.463 74.7833 119.433 74.8613 119.372 74.922C119.311 74.974 119.233 75 119.138 75H113.496ZM121.037 75C120.95 75 120.877 74.9697 120.816 74.909C120.755 74.8483 120.725 74.7747 120.725 74.688V66.212C120.725 66.1167 120.755 66.043 120.816 65.991C120.877 65.9303 120.95 65.9 121.037 65.9H122.259C122.354 65.9 122.428 65.9303 122.48 65.991C122.541 66.043 122.571 66.1167 122.571 66.212V74.688C122.571 74.7747 122.541 74.8483 122.48 74.909C122.428 74.9697 122.354 75 122.259 75H121.037ZM124.922 75C124.835 75 124.761 74.9697 124.701 74.909C124.64 74.8483 124.61 74.7747 124.61 74.688V66.225C124.61 66.1297 124.636 66.0517 124.688 65.991C124.748 65.9303 124.826 65.9 124.922 65.9H130.642C130.737 65.9 130.815 65.9303 130.876 65.991C130.936 66.0517 130.967 66.1297 130.967 66.225V67.083C130.967 67.1783 130.936 67.2563 130.876 67.317C130.815 67.369 130.737 67.395 130.642 67.395H126.365V69.696H130.356C130.451 69.696 130.529 69.7263 130.59 69.787C130.65 69.839 130.681 69.9127 130.681 70.008V70.814C130.681 70.9093 130.65 70.9873 130.59 71.048C130.529 71.1 130.451 71.126 130.356 71.126H126.365V73.505H130.746C130.841 73.505 130.919 73.5353 130.98 73.596C131.04 73.6567 131.071 73.7347 131.071 73.83V74.688C131.071 74.7833 131.04 74.8613 130.98 74.922C130.919 74.974 130.841 75 130.746 75H124.922ZM133.009 75C132.922 75 132.848 74.9697 132.788 74.909C132.727 74.8483 132.697 74.7747 132.697 74.688V66.225C132.697 66.1297 132.723 66.0517 132.775 65.991C132.835 65.9303 132.913 65.9 133.009 65.9H134.01C134.114 65.9 134.192 65.9217 134.244 65.965C134.296 65.9997 134.343 66.0473 134.387 66.108L138.131 71.932V66.225C138.131 66.1297 138.157 66.0517 138.209 65.991C138.269 65.9303 138.347 65.9 138.443 65.9H139.535C139.63 65.9 139.708 65.9303 139.769 65.991C139.829 66.0517 139.86 66.1297 139.86 66.225V74.675C139.86 74.7703 139.829 74.8483 139.769 74.909C139.708 74.9697 139.634 75 139.548 75H138.534C138.386 75 138.261 74.9307 138.157 74.792L134.426 69.098V74.688C134.426 74.7833 134.395 74.8613 134.335 74.922C134.274 74.974 134.196 75 134.101 75H133.009ZM144.202 75C144.115 75 144.042 74.9697 143.981 74.909C143.92 74.8483 143.89 74.7747 143.89 74.688V67.499H141.485C141.398 67.499 141.325 67.4687 141.264 67.408C141.203 67.3473 141.173 67.2737 141.173 67.187V66.225C141.173 66.1297 141.199 66.0517 141.251 65.991C141.312 65.9303 141.39 65.9 141.485 65.9H148.115C148.21 65.9 148.288 65.9303 148.349 65.991C148.41 66.0517 148.44 66.1297 148.44 66.225V67.187C148.44 67.2737 148.41 67.3473 148.349 67.408C148.288 67.4687 148.21 67.499 148.115 67.499H145.723V74.688C145.723 74.7747 145.693 74.8483 145.632 74.909C145.571 74.9697 145.493 75 145.398 75H144.202Z" fill="#A0A0A5"/>
<rect x="41.5" y="90.5" width="319" height="44" rx="2.5" fill="#F5F7F9"/>
<rect x="41.5" y="90.5" width="319" height="44" rx="2.5" stroke="#5C1EE8"/>
<path d="M333 110.5L338 115.5L343 110.5" stroke="black" stroke-width="2" stroke-linecap="round" stroke-linejoin="round"/>
<g filter="url(#filter0_d_905_2367)">
<rect x="37.5" y="96" width="317" height="115" rx="4.5" fill="#65626A" stroke="#838187"/>
<path d="M66.7236 114.044C67.2204 114.044 67.6237 113.989 67.9336 113.88C68.5215 113.67 68.8154 113.281 68.8154 112.711C68.8154 112.378 68.6696 112.121 68.3779 111.938C68.0863 111.761 67.6283 111.604 67.0039 111.467L65.9375 111.228C64.8893 110.991 64.1647 110.733 63.7637 110.455C63.0846 109.99 62.7451 109.263 62.7451 108.274C62.7451 107.372 63.0732 106.622 63.7295 106.025C64.3857 105.428 65.3496 105.13 66.6211 105.13C67.6829 105.13 68.5876 105.412 69.335 105.978C70.0869 106.538 70.4811 107.354 70.5176 108.425H68.4941C68.4577 107.819 68.1934 107.388 67.7012 107.133C67.373 106.964 66.9652 106.88 66.4775 106.88C65.9352 106.88 65.5023 106.989 65.1787 107.208C64.8551 107.427 64.6934 107.732 64.6934 108.124C64.6934 108.484 64.8529 108.753 65.1719 108.931C65.377 109.049 65.8145 109.188 66.4844 109.348L68.2207 109.765C68.9818 109.947 69.556 110.191 69.9434 110.496C70.5449 110.97 70.8457 111.656 70.8457 112.554C70.8457 113.474 70.4925 114.24 69.7861 114.851C69.0843 115.457 68.0908 115.76 66.8057 115.76C65.4932 115.76 64.4609 115.461 63.709 114.864C62.957 114.263 62.5811 113.438 62.5811 112.39H64.5908C64.6546 112.85 64.7799 113.194 64.9668 113.422C65.3086 113.837 65.8942 114.044 66.7236 114.044ZM78.625 113.312C78.5749 113.755 78.3447 114.203 77.9346 114.659C77.2965 115.384 76.4033 115.746 75.2549 115.746C74.307 115.746 73.4707 115.441 72.7461 114.83C72.0215 114.219 71.6592 113.226 71.6592 111.85C71.6592 110.56 71.985 109.571 72.6367 108.883C73.293 108.195 74.1429 107.851 75.1865 107.851C75.8063 107.851 76.3646 107.967 76.8613 108.199C77.3581 108.432 77.7682 108.799 78.0918 109.3C78.3835 109.742 78.5726 110.255 78.6592 110.838C78.7093 111.18 78.7298 111.672 78.7207 112.314H73.6211C73.6484 113.062 73.8831 113.586 74.3252 113.887C74.5941 114.074 74.9176 114.167 75.2959 114.167C75.6969 114.167 76.0228 114.053 76.2734 113.825C76.4102 113.702 76.5309 113.531 76.6357 113.312H78.625ZM76.6973 111.029C76.6654 110.514 76.5081 110.125 76.2256 109.86C75.9476 109.591 75.6012 109.457 75.1865 109.457C74.7354 109.457 74.3844 109.598 74.1338 109.881C73.8877 110.163 73.7327 110.546 73.6689 111.029H76.6973ZM80.0811 105.424H82.0293V115.5H80.0811V105.424ZM90.3145 113.312C90.2643 113.755 90.0342 114.203 89.624 114.659C88.986 115.384 88.0928 115.746 86.9443 115.746C85.9964 115.746 85.1602 115.441 84.4355 114.83C83.7109 114.219 83.3486 113.226 83.3486 111.85C83.3486 110.56 83.6745 109.571 84.3262 108.883C84.9824 108.195 85.8324 107.851 86.876 107.851C87.4958 107.851 88.054 107.967 88.5508 108.199C89.0475 108.432 89.4577 108.799 89.7812 109.3C90.0729 109.742 90.262 110.255 90.3486 110.838C90.3988 111.18 90.4193 111.672 90.4102 112.314H85.3105C85.3379 113.062 85.5726 113.586 86.0146 113.887C86.2835 114.074 86.6071 114.167 86.9854 114.167C87.3864 114.167 87.7122 114.053 87.9629 113.825C88.0996 113.702 88.2204 113.531 88.3252 113.312H90.3145ZM88.3867 111.029C88.3548 110.514 88.1976 110.125 87.915 109.86C87.637 109.591 87.2907 109.457 86.876 109.457C86.4248 109.457 86.0739 109.598 85.8232 109.881C85.5771 110.163 85.4222 110.546 85.3584 111.029H88.3867ZM98.1758 110.722H96.1797C96.1432 110.444 96.0498 110.193 95.8994 109.97C95.6807 109.669 95.3411 109.519 94.8809 109.519C94.2246 109.519 93.7757 109.844 93.5342 110.496C93.4066 110.842 93.3428 111.303 93.3428 111.877C93.3428 112.424 93.4066 112.864 93.5342 113.196C93.7666 113.816 94.2041 114.126 94.8467 114.126C95.3024 114.126 95.626 114.003 95.8174 113.757C96.0088 113.511 96.125 113.192 96.166 112.8H98.1553C98.1097 113.392 97.8955 113.953 97.5127 114.481C96.902 115.334 95.9974 115.76 94.7988 115.76C93.6003 115.76 92.7184 115.404 92.1533 114.693C91.5882 113.982 91.3057 113.06 91.3057 111.925C91.3057 110.644 91.6178 109.648 92.2422 108.938C92.8665 108.227 93.7279 107.871 94.8262 107.871C95.7604 107.871 96.5238 108.081 97.1162 108.5C97.7132 108.919 98.0664 109.66 98.1758 110.722ZM102.934 114.112V115.568L102.011 115.603C101.09 115.634 100.461 115.475 100.124 115.124C99.9053 114.901 99.7959 114.557 99.7959 114.092V109.505H98.7568V108.117H99.7959V106.039H101.724V108.117H102.934V109.505H101.724V113.442C101.724 113.748 101.762 113.939 101.84 114.017C101.917 114.09 102.154 114.126 102.551 114.126C102.61 114.126 102.672 114.126 102.735 114.126C102.804 114.121 102.87 114.117 102.934 114.112ZM108.361 108.855C108.876 108.199 109.76 107.871 111.014 107.871C111.829 107.871 112.554 108.033 113.188 108.356C113.821 108.68 114.138 109.291 114.138 110.188V113.606C114.138 113.843 114.142 114.131 114.151 114.468C114.165 114.723 114.204 114.896 114.268 114.987C114.331 115.078 114.427 115.154 114.555 115.213V115.5H112.436C112.376 115.35 112.335 115.208 112.312 115.076C112.29 114.944 112.271 114.794 112.258 114.625C111.989 114.917 111.679 115.165 111.328 115.37C110.909 115.612 110.435 115.732 109.906 115.732C109.232 115.732 108.674 115.541 108.231 115.158C107.794 114.771 107.575 114.224 107.575 113.518C107.575 112.602 107.928 111.938 108.635 111.528C109.022 111.305 109.592 111.146 110.344 111.05L111.007 110.968C111.367 110.922 111.624 110.865 111.779 110.797C112.057 110.678 112.196 110.494 112.196 110.243C112.196 109.938 112.089 109.728 111.875 109.614C111.665 109.496 111.355 109.437 110.945 109.437C110.485 109.437 110.159 109.55 109.968 109.778C109.831 109.947 109.74 110.175 109.694 110.462H107.814C107.855 109.81 108.038 109.275 108.361 108.855ZM109.811 114.092C109.993 114.242 110.216 114.317 110.48 114.317C110.9 114.317 111.285 114.194 111.636 113.948C111.991 113.702 112.176 113.253 112.189 112.602V111.877C112.066 111.954 111.941 112.018 111.813 112.068C111.69 112.114 111.52 112.157 111.301 112.198L110.863 112.28C110.453 112.353 110.159 112.442 109.981 112.547C109.681 112.725 109.53 113 109.53 113.374C109.53 113.707 109.624 113.946 109.811 114.092ZM126.217 110.722H124.221C124.184 110.444 124.091 110.193 123.94 109.97C123.722 109.669 123.382 109.519 122.922 109.519C122.266 109.519 121.817 109.844 121.575 110.496C121.448 110.842 121.384 111.303 121.384 111.877C121.384 112.424 121.448 112.864 121.575 113.196C121.808 113.816 122.245 114.126 122.888 114.126C123.343 114.126 123.667 114.003 123.858 113.757C124.05 113.511 124.166 113.192 124.207 112.8H126.196C126.151 113.392 125.937 113.953 125.554 114.481C124.943 115.334 124.038 115.76 122.84 115.76C121.641 115.76 120.759 115.404 120.194 114.693C119.629 113.982 119.347 113.06 119.347 111.925C119.347 110.644 119.659 109.648 120.283 108.938C120.908 108.227 121.769 107.871 122.867 107.871C123.801 107.871 124.565 108.081 125.157 108.5C125.754 108.919 126.107 109.66 126.217 110.722ZM133.777 108.992C134.406 109.781 134.721 110.713 134.721 111.788C134.721 112.882 134.406 113.818 133.777 114.598C133.148 115.372 132.194 115.76 130.913 115.76C129.632 115.76 128.678 115.372 128.049 114.598C127.42 113.818 127.105 112.882 127.105 111.788C127.105 110.713 127.42 109.781 128.049 108.992C128.678 108.204 129.632 107.81 130.913 107.81C132.194 107.81 133.148 108.204 133.777 108.992ZM130.906 109.457C130.337 109.457 129.897 109.66 129.587 110.065C129.282 110.466 129.129 111.041 129.129 111.788C129.129 112.535 129.282 113.112 129.587 113.518C129.897 113.923 130.337 114.126 130.906 114.126C131.476 114.126 131.913 113.923 132.219 113.518C132.524 113.112 132.677 112.535 132.677 111.788C132.677 111.041 132.524 110.466 132.219 110.065C131.913 109.66 131.476 109.457 130.906 109.457ZM139.629 109.491C138.968 109.491 138.515 109.771 138.269 110.332C138.141 110.628 138.077 111.007 138.077 111.467V115.5H136.136V108.062H138.016V109.149C138.266 108.767 138.503 108.491 138.727 108.322C139.128 108.021 139.636 107.871 140.251 107.871C141.021 107.871 141.65 108.074 142.138 108.479C142.63 108.881 142.876 109.548 142.876 110.482V115.5H140.88V110.968C140.88 110.576 140.827 110.275 140.723 110.065C140.531 109.683 140.167 109.491 139.629 109.491ZM148.092 114.112V115.568L147.169 115.603C146.248 115.634 145.619 115.475 145.282 115.124C145.063 114.901 144.954 114.557 144.954 114.092V109.505H143.915V108.117H144.954V106.039H146.882V108.117H148.092V109.505H146.882V113.442C146.882 113.748 146.921 113.939 146.998 114.017C147.076 114.09 147.312 114.126 147.709 114.126C147.768 114.126 147.83 114.126 147.894 114.126C147.962 114.121 148.028 114.117 148.092 114.112ZM149.623 108.855C150.138 108.199 151.022 107.871 152.275 107.871C153.091 107.871 153.816 108.033 154.449 108.356C155.083 108.68 155.399 109.291 155.399 110.188V113.606C155.399 113.843 155.404 114.131 155.413 114.468C155.427 114.723 155.465 114.896 155.529 114.987C155.593 115.078 155.689 115.154 155.816 115.213V115.5H153.697C153.638 115.35 153.597 115.208 153.574 115.076C153.551 114.944 153.533 114.794 153.52 114.625C153.251 114.917 152.941 115.165 152.59 115.37C152.171 115.612 151.697 115.732 151.168 115.732C150.493 115.732 149.935 115.541 149.493 115.158C149.056 114.771 148.837 114.224 148.837 113.518C148.837 112.602 149.19 111.938 149.896 111.528C150.284 111.305 150.854 111.146 151.605 111.05L152.269 110.968C152.629 110.922 152.886 110.865 153.041 110.797C153.319 110.678 153.458 110.494 153.458 110.243C153.458 109.938 153.351 109.728 153.137 109.614C152.927 109.496 152.617 109.437 152.207 109.437C151.747 109.437 151.421 109.55 151.229 109.778C151.093 109.947 151.002 110.175 150.956 110.462H149.076C149.117 109.81 149.299 109.275 149.623 108.855ZM151.072 114.092C151.255 114.242 151.478 114.317 151.742 114.317C152.161 114.317 152.547 114.194 152.897 113.948C153.253 113.702 153.438 113.253 153.451 112.602V111.877C153.328 111.954 153.203 112.018 153.075 112.068C152.952 112.114 152.781 112.157 152.562 112.198L152.125 112.28C151.715 112.353 151.421 112.442 151.243 112.547C150.942 112.725 150.792 113 150.792 113.374C150.792 113.707 150.885 113.946 151.072 114.092ZM163.582 110.722H161.586C161.549 110.444 161.456 110.193 161.306 109.97C161.087 109.669 160.747 109.519 160.287 109.519C159.631 109.519 159.182 109.844 158.94 110.496C158.813 110.842 158.749 111.303 158.749 111.877C158.749 112.424 158.813 112.864 158.94 113.196C159.173 113.816 159.61 114.126 160.253 114.126C160.709 114.126 161.032 114.003 161.224 113.757C161.415 113.511 161.531 113.192 161.572 112.8H163.562C163.516 113.392 163.302 113.953 162.919 114.481C162.308 115.334 161.404 115.76 160.205 115.76C159.007 115.76 158.125 115.404 157.56 114.693C156.994 113.982 156.712 113.06 156.712 111.925C156.712 110.644 157.024 109.648 157.648 108.938C158.273 108.227 159.134 107.871 160.232 107.871C161.167 107.871 161.93 108.081 162.522 108.5C163.119 108.919 163.473 109.66 163.582 110.722ZM168.34 114.112V115.568L167.417 115.603C166.496 115.634 165.868 115.475 165.53 115.124C165.312 114.901 165.202 114.557 165.202 114.092V109.505H164.163V108.117H165.202V106.039H167.13V108.117H168.34V109.505H167.13V113.442C167.13 113.748 167.169 113.939 167.246 114.017C167.324 114.09 167.561 114.126 167.957 114.126C168.016 114.126 168.078 114.126 168.142 114.126C168.21 114.121 168.276 114.117 168.34 114.112ZM179.934 110.722H177.938C177.901 110.444 177.808 110.193 177.657 109.97C177.438 109.669 177.099 109.519 176.639 109.519C175.982 109.519 175.534 109.844 175.292 110.496C175.164 110.842 175.101 111.303 175.101 111.877C175.101 112.424 175.164 112.864 175.292 113.196C175.524 113.816 175.962 114.126 176.604 114.126C177.06 114.126 177.384 114.003 177.575 113.757C177.767 113.511 177.883 113.192 177.924 112.8H179.913C179.868 113.392 179.653 113.953 179.271 114.481C178.66 115.334 177.755 115.76 176.557 115.76C175.358 115.76 174.476 115.404 173.911 114.693C173.346 113.982 173.063 113.06 173.063 111.925C173.063 110.644 173.376 109.648 174 108.938C174.624 108.227 175.486 107.871 176.584 107.871C177.518 107.871 178.282 108.081 178.874 108.5C179.471 108.919 179.824 109.66 179.934 110.722ZM181.321 105.424H183.27V115.5H181.321V105.424ZM187.18 108.049V115.5H185.204V108.049H187.18ZM187.18 105.362V107.16H185.204V105.362H187.18ZM195.451 113.312C195.401 113.755 195.171 114.203 194.761 114.659C194.123 115.384 193.229 115.746 192.081 115.746C191.133 115.746 190.297 115.441 189.572 114.83C188.848 114.219 188.485 113.226 188.485 111.85C188.485 110.56 188.811 109.571 189.463 108.883C190.119 108.195 190.969 107.851 192.013 107.851C192.632 107.851 193.191 107.967 193.688 108.199C194.184 108.432 194.594 108.799 194.918 109.3C195.21 109.742 195.399 110.255 195.485 110.838C195.535 111.18 195.556 111.672 195.547 112.314H190.447C190.475 113.062 190.709 113.586 191.151 113.887C191.42 114.074 191.744 114.167 192.122 114.167C192.523 114.167 192.849 114.053 193.1 113.825C193.236 113.702 193.357 113.531 193.462 113.312H195.451ZM193.523 111.029C193.492 110.514 193.334 110.125 193.052 109.86C192.774 109.591 192.427 109.457 192.013 109.457C191.562 109.457 191.211 109.598 190.96 109.881C190.714 110.163 190.559 110.546 190.495 111.029H193.523ZM200.373 109.491C199.712 109.491 199.259 109.771 199.013 110.332C198.885 110.628 198.821 111.007 198.821 111.467V115.5H196.88V108.062H198.76V109.149C199.01 108.767 199.247 108.491 199.471 108.322C199.872 108.021 200.38 107.871 200.995 107.871C201.765 107.871 202.394 108.074 202.882 108.479C203.374 108.881 203.62 109.548 203.62 110.482V115.5H201.624V110.968C201.624 110.576 201.572 110.275 201.467 110.065C201.275 109.683 200.911 109.491 200.373 109.491ZM208.836 114.112V115.568L207.913 115.603C206.993 115.634 206.364 115.475 206.026 115.124C205.808 114.901 205.698 114.557 205.698 114.092V109.505H204.659V108.117H205.698V106.039H207.626V108.117H208.836V109.505H207.626V113.442C207.626 113.748 207.665 113.939 207.742 114.017C207.82 114.09 208.057 114.126 208.453 114.126C208.512 114.126 208.574 114.126 208.638 114.126C208.706 114.121 208.772 114.117 208.836 114.112Z" fill="white"/>
<path d="M55 109.5L49.5 115L47 112.5" stroke="white" stroke-width="1.3" stroke-linecap="round" stroke-linejoin="round"/>
<rect x="42" y="126.5" width="308" height="25" rx="5" fill="#5F8BE6"/>
<path d="M67.3457 139.549H65.1719V143.5H63.1143V133.424H68.0566C68.763 133.438 69.3053 133.524 69.6836 133.684C70.0664 133.843 70.39 134.078 70.6543 134.388C70.873 134.643 71.0462 134.925 71.1738 135.235C71.3014 135.545 71.3652 135.898 71.3652 136.295C71.3652 136.773 71.2445 137.245 71.0029 137.71C70.7614 138.17 70.3626 138.496 69.8066 138.688C70.2715 138.874 70.5996 139.141 70.791 139.487C70.987 139.829 71.085 140.353 71.085 141.06V141.736C71.085 142.197 71.1032 142.509 71.1396 142.673C71.1943 142.933 71.3219 143.124 71.5225 143.247V143.5H69.2051C69.1413 143.277 69.0957 143.097 69.0684 142.96C69.0137 142.677 68.984 142.388 68.9795 142.092L68.9658 141.155C68.9567 140.513 68.8382 140.084 68.6104 139.87C68.387 139.656 67.9655 139.549 67.3457 139.549ZM68.624 137.717C69.0433 137.525 69.2529 137.147 69.2529 136.582C69.2529 135.971 69.0501 135.561 68.6445 135.352C68.4167 135.233 68.0749 135.174 67.6191 135.174H65.1719V137.881H67.5576C68.0316 137.881 68.387 137.826 68.624 137.717ZM79.2402 136.992C79.8691 137.781 80.1836 138.713 80.1836 139.788C80.1836 140.882 79.8691 141.818 79.2402 142.598C78.6113 143.372 77.6566 143.76 76.376 143.76C75.0954 143.76 74.1406 143.372 73.5117 142.598C72.8828 141.818 72.5684 140.882 72.5684 139.788C72.5684 138.713 72.8828 137.781 73.5117 136.992C74.1406 136.204 75.0954 135.81 76.376 135.81C77.6566 135.81 78.6113 136.204 79.2402 136.992ZM76.3691 137.457C75.7995 137.457 75.3597 137.66 75.0498 138.065C74.7445 138.466 74.5918 139.041 74.5918 139.788C74.5918 140.535 74.7445 141.112 75.0498 141.518C75.3597 141.923 75.7995 142.126 76.3691 142.126C76.9388 142.126 77.3763 141.923 77.6816 141.518C77.987 141.112 78.1396 140.535 78.1396 139.788C78.1396 139.041 77.987 138.466 77.6816 138.065C77.3763 137.66 76.9388 137.457 76.3691 137.457ZM84.6133 141.545L86.1514 136.049H88.2227L85.666 143.377C85.1738 144.79 84.7842 145.665 84.4971 146.002C84.21 146.344 83.6357 146.515 82.7744 146.515C82.6012 146.515 82.4622 146.512 82.3574 146.508C82.2526 146.508 82.0954 146.501 81.8857 146.487V144.929L82.1318 144.942C82.3232 144.951 82.5055 144.945 82.6787 144.922C82.8519 144.899 82.9977 144.847 83.1162 144.765C83.2301 144.687 83.335 144.525 83.4307 144.279C83.5309 144.033 83.5719 143.883 83.5537 143.828L80.8193 136.049H82.9863L84.6133 141.545Z" fill="white"/>
<path d="M66.6621 168.472V161.424H68.7676V168.438C68.7676 169.294 68.6195 169.973 68.3232 170.475C67.8219 171.322 66.9173 171.746 65.6094 171.746C64.3014 171.746 63.4242 171.404 62.9775 170.721C62.5309 170.033 62.3076 169.096 62.3076 167.911V167.679H64.2969V167.911C64.3151 168.69 64.3994 169.24 64.5498 169.559C64.7048 169.873 65.0329 170.03 65.5342 170.03C66.0309 170.03 66.359 169.857 66.5186 169.511C66.6143 169.306 66.6621 168.959 66.6621 168.472ZM77.0801 169.312C77.0299 169.755 76.7998 170.203 76.3896 170.659C75.7516 171.384 74.8584 171.746 73.71 171.746C72.762 171.746 71.9258 171.441 71.2012 170.83C70.4766 170.219 70.1143 169.226 70.1143 167.85C70.1143 166.56 70.4401 165.571 71.0918 164.883C71.748 164.195 72.598 163.851 73.6416 163.851C74.2614 163.851 74.8197 163.967 75.3164 164.199C75.8132 164.432 76.2233 164.799 76.5469 165.3C76.8385 165.742 77.0277 166.255 77.1143 166.838C77.1644 167.18 77.1849 167.672 77.1758 168.314H72.0762C72.1035 169.062 72.3382 169.586 72.7803 169.887C73.0492 170.074 73.3727 170.167 73.751 170.167C74.152 170.167 74.4779 170.053 74.7285 169.825C74.8652 169.702 74.986 169.531 75.0908 169.312H77.0801ZM75.1523 167.029C75.1204 166.514 74.9632 166.125 74.6807 165.86C74.4027 165.591 74.0563 165.457 73.6416 165.457C73.1904 165.457 72.8395 165.598 72.5889 165.881C72.3428 166.163 72.1878 166.546 72.124 167.029H75.1523ZM82.002 165.491C81.3411 165.491 80.8877 165.771 80.6416 166.332C80.514 166.628 80.4502 167.007 80.4502 167.467V171.5H78.5088V164.062H80.3887V165.149C80.6393 164.767 80.8763 164.491 81.0996 164.322C81.5007 164.021 82.0088 163.871 82.624 163.871C83.3942 163.871 84.0231 164.074 84.5107 164.479C85.0029 164.881 85.249 165.548 85.249 166.482V171.5H83.2529V166.968C83.2529 166.576 83.2005 166.275 83.0957 166.065C82.9043 165.683 82.5397 165.491 82.002 165.491ZM95.708 171.5H91.1416V161.424H96.0361C97.2712 161.442 98.1462 161.8 98.6611 162.497C98.971 162.925 99.126 163.438 99.126 164.035C99.126 164.65 98.971 165.145 98.6611 165.519C98.488 165.728 98.2327 165.92 97.8955 166.093C98.4105 166.28 98.7979 166.576 99.0576 166.981C99.3219 167.387 99.4541 167.879 99.4541 168.458C99.4541 169.055 99.3037 169.59 99.0029 170.064C98.8115 170.379 98.5723 170.643 98.2852 170.857C97.9616 171.104 97.5788 171.272 97.1367 171.363C96.6992 171.454 96.223 171.5 95.708 171.5ZM95.6602 167.063H93.1514V169.75H95.626C96.068 169.75 96.4121 169.691 96.6582 169.572C97.1048 169.354 97.3281 168.934 97.3281 168.314C97.3281 167.79 97.1117 167.43 96.6787 167.234C96.4372 167.125 96.0977 167.068 95.6602 167.063ZM96.7061 165.143C96.9795 164.979 97.1162 164.685 97.1162 164.261C97.1162 163.791 96.9339 163.481 96.5693 163.331C96.2549 163.226 95.8538 163.174 95.3662 163.174H93.1514V165.396H95.626C96.068 165.396 96.4281 165.311 96.7061 165.143ZM101.348 164.855C101.863 164.199 102.747 163.871 104 163.871C104.816 163.871 105.54 164.033 106.174 164.356C106.807 164.68 107.124 165.291 107.124 166.188V169.606C107.124 169.843 107.129 170.131 107.138 170.468C107.151 170.723 107.19 170.896 107.254 170.987C107.318 171.078 107.413 171.154 107.541 171.213V171.5H105.422C105.363 171.35 105.322 171.208 105.299 171.076C105.276 170.944 105.258 170.794 105.244 170.625C104.975 170.917 104.665 171.165 104.314 171.37C103.895 171.612 103.421 171.732 102.893 171.732C102.218 171.732 101.66 171.541 101.218 171.158C100.78 170.771 100.562 170.224 100.562 169.518C100.562 168.602 100.915 167.938 101.621 167.528C102.008 167.305 102.578 167.146 103.33 167.05L103.993 166.968C104.353 166.922 104.611 166.865 104.766 166.797C105.044 166.678 105.183 166.494 105.183 166.243C105.183 165.938 105.076 165.728 104.861 165.614C104.652 165.496 104.342 165.437 103.932 165.437C103.471 165.437 103.146 165.55 102.954 165.778C102.817 165.947 102.726 166.175 102.681 166.462H100.801C100.842 165.81 101.024 165.275 101.348 164.855ZM102.797 170.092C102.979 170.242 103.202 170.317 103.467 170.317C103.886 170.317 104.271 170.194 104.622 169.948C104.978 169.702 105.162 169.253 105.176 168.602V167.877C105.053 167.954 104.927 168.018 104.8 168.068C104.677 168.114 104.506 168.157 104.287 168.198L103.85 168.28C103.439 168.353 103.146 168.442 102.968 168.547C102.667 168.725 102.517 169 102.517 169.374C102.517 169.707 102.61 169.946 102.797 170.092ZM112.606 165.847C111.823 165.847 111.296 166.102 111.027 166.612C110.877 166.899 110.802 167.341 110.802 167.938V171.5H108.84V164.049H110.699V165.348C111 164.851 111.262 164.511 111.485 164.329C111.85 164.024 112.324 163.871 112.907 163.871C112.944 163.871 112.973 163.873 112.996 163.878C113.023 163.878 113.08 163.88 113.167 163.885V165.881C113.044 165.867 112.935 165.858 112.839 165.854C112.743 165.849 112.666 165.847 112.606 165.847ZM118.362 171.698C117.747 171.698 117.253 171.575 116.879 171.329C116.656 171.183 116.414 170.928 116.154 170.563V171.5H114.247V161.438H116.188V165.02C116.435 164.673 116.706 164.409 117.002 164.227C117.353 163.999 117.799 163.885 118.342 163.885C119.322 163.885 120.087 164.238 120.639 164.944C121.195 165.651 121.473 166.562 121.473 167.679C121.473 168.836 121.199 169.796 120.652 170.557C120.105 171.318 119.342 171.698 118.362 171.698ZM119.429 167.884C119.429 167.355 119.36 166.918 119.224 166.571C118.964 165.915 118.485 165.587 117.788 165.587C117.082 165.587 116.596 165.908 116.332 166.551C116.195 166.893 116.127 167.335 116.127 167.877C116.127 168.515 116.268 169.044 116.551 169.463C116.833 169.882 117.264 170.092 117.843 170.092C118.344 170.092 118.734 169.889 119.012 169.483C119.29 169.078 119.429 168.545 119.429 167.884ZM129.252 169.312C129.202 169.755 128.972 170.203 128.562 170.659C127.924 171.384 127.03 171.746 125.882 171.746C124.934 171.746 124.098 171.441 123.373 170.83C122.648 170.219 122.286 169.226 122.286 167.85C122.286 166.56 122.612 165.571 123.264 164.883C123.92 164.195 124.77 163.851 125.813 163.851C126.433 163.851 126.992 163.967 127.488 164.199C127.985 164.432 128.395 164.799 128.719 165.3C129.01 165.742 129.2 166.255 129.286 166.838C129.336 167.18 129.357 167.672 129.348 168.314H124.248C124.275 169.062 124.51 169.586 124.952 169.887C125.221 170.074 125.545 170.167 125.923 170.167C126.324 170.167 126.65 170.053 126.9 169.825C127.037 169.702 127.158 169.531 127.263 169.312H129.252ZM127.324 167.029C127.292 166.514 127.135 166.125 126.853 165.86C126.575 165.591 126.228 165.457 125.813 165.457C125.362 165.457 125.011 165.598 124.761 165.881C124.515 166.163 124.36 166.546 124.296 167.029H127.324ZM134.413 165.847C133.629 165.847 133.103 166.102 132.834 166.612C132.684 166.899 132.608 167.341 132.608 167.938V171.5H130.646V164.049H132.506V165.348C132.807 164.851 133.069 164.511 133.292 164.329C133.657 164.024 134.131 163.871 134.714 163.871C134.75 163.871 134.78 163.873 134.803 163.878C134.83 163.878 134.887 163.88 134.974 163.885V165.881C134.851 165.867 134.741 165.858 134.646 165.854C134.55 165.849 134.472 165.847 134.413 165.847Z" fill="white"/>
<path d="M64.9941 199.5H63.0322V189.424H66.0947L67.9268 197.347L69.7451 189.424H72.7734V199.5H70.8115V192.685C70.8115 192.489 70.8138 192.215 70.8184 191.864C70.8229 191.509 70.8252 191.235 70.8252 191.044L68.918 199.5H66.874L64.9805 191.044C64.9805 191.235 64.9827 191.509 64.9873 191.864C64.9919 192.215 64.9941 192.489 64.9941 192.685V199.5ZM74.8516 192.855C75.3665 192.199 76.2507 191.871 77.5039 191.871C78.3197 191.871 79.0443 192.033 79.6777 192.356C80.3112 192.68 80.6279 193.291 80.6279 194.188V197.606C80.6279 197.843 80.6325 198.131 80.6416 198.468C80.6553 198.723 80.694 198.896 80.7578 198.987C80.8216 199.078 80.9173 199.154 81.0449 199.213V199.5H78.9258C78.8665 199.35 78.8255 199.208 78.8027 199.076C78.7799 198.944 78.7617 198.794 78.748 198.625C78.4792 198.917 78.1693 199.165 77.8184 199.37C77.3991 199.612 76.9251 199.732 76.3965 199.732C75.722 199.732 75.1637 199.541 74.7217 199.158C74.2842 198.771 74.0654 198.224 74.0654 197.518C74.0654 196.602 74.4186 195.938 75.125 195.528C75.5124 195.305 76.082 195.146 76.834 195.05L77.4971 194.968C77.8571 194.922 78.1146 194.865 78.2695 194.797C78.5475 194.678 78.6865 194.494 78.6865 194.243C78.6865 193.938 78.5794 193.728 78.3652 193.614C78.1556 193.496 77.8457 193.437 77.4355 193.437C76.9753 193.437 76.6494 193.55 76.458 193.778C76.3213 193.947 76.2301 194.175 76.1846 194.462H74.3047C74.3457 193.81 74.528 193.275 74.8516 192.855ZM76.3008 198.092C76.4831 198.242 76.7064 198.317 76.9707 198.317C77.39 198.317 77.7751 198.194 78.126 197.948C78.4814 197.702 78.666 197.253 78.6797 196.602V195.877C78.5566 195.954 78.4313 196.018 78.3037 196.068C78.1807 196.114 78.0098 196.157 77.791 196.198L77.3535 196.28C76.9434 196.353 76.6494 196.442 76.4717 196.547C76.1709 196.725 76.0205 197 76.0205 197.374C76.0205 197.707 76.1139 197.946 76.3008 198.092ZM87.1426 198.447C87.1243 198.47 87.0788 198.538 87.0059 198.652C86.9329 198.766 86.8464 198.867 86.7461 198.953C86.4408 199.227 86.1445 199.413 85.8574 199.514C85.5749 199.614 85.2422 199.664 84.8594 199.664C83.7565 199.664 83.0137 199.268 82.6309 198.475C82.4167 198.037 82.3096 197.392 82.3096 196.54V192.049H84.3057V196.54C84.3057 196.964 84.3558 197.283 84.4561 197.497C84.6338 197.875 84.9824 198.064 85.502 198.064C86.1673 198.064 86.623 197.796 86.8691 197.258C86.9967 196.966 87.0605 196.581 87.0605 196.103V192.049H89.0361V199.5H87.1426V198.447ZM94.6689 193.847C93.8851 193.847 93.3587 194.102 93.0898 194.612C92.9395 194.899 92.8643 195.341 92.8643 195.938V199.5H90.9023V192.049H92.7617V193.348C93.0625 192.851 93.3245 192.511 93.5479 192.329C93.9124 192.024 94.3864 191.871 94.9697 191.871C95.0062 191.871 95.0358 191.873 95.0586 191.878C95.0859 191.878 95.1429 191.88 95.2295 191.885V193.881C95.1064 193.867 94.9971 193.858 94.9014 193.854C94.8057 193.849 94.7282 193.847 94.6689 193.847ZM98.3809 192.049V199.5H96.4053V192.049H98.3809ZM98.3809 189.362V191.16H96.4053V189.362H98.3809ZM106.721 194.722H104.725C104.688 194.444 104.595 194.193 104.444 193.97C104.226 193.669 103.886 193.519 103.426 193.519C102.77 193.519 102.321 193.844 102.079 194.496C101.951 194.842 101.888 195.303 101.888 195.877C101.888 196.424 101.951 196.864 102.079 197.196C102.312 197.816 102.749 198.126 103.392 198.126C103.847 198.126 104.171 198.003 104.362 197.757C104.554 197.511 104.67 197.192 104.711 196.8H106.7C106.655 197.392 106.44 197.953 106.058 198.481C105.447 199.334 104.542 199.76 103.344 199.76C102.145 199.76 101.263 199.404 100.698 198.693C100.133 197.982 99.8506 197.06 99.8506 195.925C99.8506 194.644 100.163 193.648 100.787 192.938C101.411 192.227 102.273 191.871 103.371 191.871C104.305 191.871 105.069 192.081 105.661 192.5C106.258 192.919 106.611 193.66 106.721 194.722ZM114.445 197.312C114.395 197.755 114.165 198.203 113.755 198.659C113.117 199.384 112.224 199.746 111.075 199.746C110.127 199.746 109.291 199.441 108.566 198.83C107.842 198.219 107.479 197.226 107.479 195.85C107.479 194.56 107.805 193.571 108.457 192.883C109.113 192.195 109.963 191.851 111.007 191.851C111.627 191.851 112.185 191.967 112.682 192.199C113.178 192.432 113.589 192.799 113.912 193.3C114.204 193.742 114.393 194.255 114.479 194.838C114.53 195.18 114.55 195.672 114.541 196.314H109.441C109.469 197.062 109.703 197.586 110.146 197.887C110.414 198.074 110.738 198.167 111.116 198.167C111.517 198.167 111.843 198.053 112.094 197.825C112.23 197.702 112.351 197.531 112.456 197.312H114.445ZM112.518 195.029C112.486 194.514 112.328 194.125 112.046 193.86C111.768 193.591 111.422 193.457 111.007 193.457C110.556 193.457 110.205 193.598 109.954 193.881C109.708 194.163 109.553 194.546 109.489 195.029H112.518ZM124.193 195.549H122.02V199.5H119.962V189.424H124.904C125.611 189.438 126.153 189.524 126.531 189.684C126.914 189.843 127.238 190.078 127.502 190.388C127.721 190.643 127.894 190.925 128.021 191.235C128.149 191.545 128.213 191.898 128.213 192.295C128.213 192.773 128.092 193.245 127.851 193.71C127.609 194.17 127.21 194.496 126.654 194.688C127.119 194.874 127.447 195.141 127.639 195.487C127.835 195.829 127.933 196.353 127.933 197.06V197.736C127.933 198.197 127.951 198.509 127.987 198.673C128.042 198.933 128.17 199.124 128.37 199.247V199.5H126.053C125.989 199.277 125.943 199.097 125.916 198.96C125.861 198.677 125.832 198.388 125.827 198.092L125.813 197.155C125.804 196.513 125.686 196.084 125.458 195.87C125.235 195.656 124.813 195.549 124.193 195.549ZM125.472 193.717C125.891 193.525 126.101 193.147 126.101 192.582C126.101 191.971 125.898 191.561 125.492 191.352C125.264 191.233 124.923 191.174 124.467 191.174H122.02V193.881H124.405C124.879 193.881 125.235 193.826 125.472 193.717ZM136.088 192.992C136.717 193.781 137.031 194.713 137.031 195.788C137.031 196.882 136.717 197.818 136.088 198.598C135.459 199.372 134.504 199.76 133.224 199.76C131.943 199.76 130.988 199.372 130.359 198.598C129.73 197.818 129.416 196.882 129.416 195.788C129.416 194.713 129.73 193.781 130.359 192.992C130.988 192.204 131.943 191.81 133.224 191.81C134.504 191.81 135.459 192.204 136.088 192.992ZM133.217 193.457C132.647 193.457 132.207 193.66 131.897 194.065C131.592 194.466 131.439 195.041 131.439 195.788C131.439 196.535 131.592 197.112 131.897 197.518C132.207 197.923 132.647 198.126 133.217 198.126C133.786 198.126 134.224 197.923 134.529 197.518C134.835 197.112 134.987 196.535 134.987 195.788C134.987 195.041 134.835 194.466 134.529 194.065C134.224 193.66 133.786 193.457 133.217 193.457ZM143.566 192.391C144.15 192.764 144.485 193.407 144.571 194.318H142.623C142.596 194.068 142.525 193.869 142.411 193.724C142.197 193.459 141.832 193.327 141.317 193.327C140.894 193.327 140.59 193.393 140.408 193.525C140.23 193.658 140.142 193.812 140.142 193.99C140.142 194.214 140.237 194.375 140.429 194.476C140.62 194.58 141.297 194.76 142.459 195.016C143.234 195.198 143.815 195.474 144.202 195.843C144.585 196.216 144.776 196.684 144.776 197.244C144.776 197.982 144.501 198.586 143.949 199.056C143.402 199.521 142.555 199.753 141.406 199.753C140.235 199.753 139.369 199.507 138.809 199.015C138.253 198.518 137.975 197.887 137.975 197.121H139.95C139.991 197.467 140.08 197.714 140.217 197.859C140.458 198.119 140.905 198.249 141.557 198.249C141.939 198.249 142.243 198.192 142.466 198.078C142.694 197.964 142.808 197.793 142.808 197.565C142.808 197.347 142.716 197.18 142.534 197.066C142.352 196.952 141.675 196.757 140.504 196.479C139.661 196.269 139.066 196.007 138.72 195.692C138.373 195.382 138.2 194.936 138.2 194.353C138.2 193.664 138.469 193.074 139.007 192.582C139.549 192.085 140.31 191.837 141.29 191.837C142.22 191.837 142.979 192.021 143.566 192.391ZM151.359 192.391C151.943 192.764 152.278 193.407 152.364 194.318H150.416C150.389 194.068 150.318 193.869 150.204 193.724C149.99 193.459 149.625 193.327 149.11 193.327C148.687 193.327 148.383 193.393 148.201 193.525C148.023 193.658 147.935 193.812 147.935 193.99C147.935 194.214 148.03 194.375 148.222 194.476C148.413 194.58 149.09 194.76 150.252 195.016C151.027 195.198 151.608 195.474 151.995 195.843C152.378 196.216 152.569 196.684 152.569 197.244C152.569 197.982 152.294 198.586 151.742 199.056C151.195 199.521 150.348 199.753 149.199 199.753C148.028 199.753 147.162 199.507 146.602 199.015C146.046 198.518 145.768 197.887 145.768 197.121H147.743C147.784 197.467 147.873 197.714 148.01 197.859C148.251 198.119 148.698 198.249 149.35 198.249C149.732 198.249 150.035 198.192 150.259 198.078C150.487 197.964 150.601 197.793 150.601 197.565C150.601 197.347 150.509 197.18 150.327 197.066C150.145 196.952 149.468 196.757 148.297 196.479C147.454 196.269 146.859 196.007 146.513 195.692C146.166 195.382 145.993 194.936 145.993 194.353C145.993 193.664 146.262 193.074 146.8 192.582C147.342 192.085 148.103 191.837 149.083 191.837C150.013 191.837 150.771 192.021 151.359 192.391Z" fill="white"/>
</g>
<rect x="0.5" y="0.5" width="401" height="257" stroke="#EAEAEF"/>
<defs>
<filter id="filter0_d_905_2367" x="17" y="85.5" width="358" height="156" filterUnits="userSpaceOnUse" color-interpolation-filters="sRGB">
<feFlood flood-opacity="0" result="BackgroundImageFix"/>
<feColorMatrix in="SourceAlpha" type="matrix" values="0 0 0 0 0 0 0 0 0 0 0 0 0 0 0 0 0 0 127 0" result="hardAlpha"/>
<feOffset dy="10"/>
<feGaussianBlur stdDeviation="10"/>
<feComposite in2="hardAlpha" operator="out"/>
<feColorMatrix type="matrix" values="0 0 0 0 0.117647 0 0 0 0 0.117647 0 0 0 0 0.117647 0 0 0 0.12 0"/>
<feBlend mode="normal" in2="BackgroundImageFix" result="effect1_dropShadow_905_2367"/>
<feBlend mode="normal" in="SourceGraphic" in2="effect1_dropShadow_905_2367" result="shape"/>
</filter>
</defs>
</svg>
