<svg width="402" height="218" viewBox="0 0 402 218" fill="none" xmlns="http://www.w3.org/2000/svg">
<rect x="0.5" y="0.5" width="401" height="217" fill="white"/>
<rect width="400" height="216" transform="translate(1 1)" fill="white"/>
<rect width="320" height="73" transform="translate(41 31)" fill="white"/>
<path d="M45.524 44.13C44.328 44.13 43.4007 43.8223 42.742 43.207C42.092 42.5917 41.7453 41.725 41.702 40.607C41.6933 40.373 41.689 39.9917 41.689 39.463C41.689 38.9257 41.6933 38.5357 41.702 38.293C41.7453 37.1837 42.0963 36.3213 42.755 35.706C43.4223 35.082 44.3453 34.77 45.524 34.77C46.2953 34.77 46.967 34.9043 47.539 35.173C48.111 35.433 48.553 35.7927 48.865 36.252C49.177 36.7027 49.3417 37.214 49.359 37.786V37.812C49.359 37.8813 49.3287 37.942 49.268 37.994C49.216 38.0373 49.1553 38.059 49.086 38.059H47.851C47.747 38.059 47.669 38.0373 47.617 37.994C47.565 37.9507 47.5217 37.8683 47.487 37.747C47.3483 37.201 47.1187 36.8197 46.798 36.603C46.4773 36.3777 46.0483 36.265 45.511 36.265C44.263 36.265 43.613 36.9627 43.561 38.358C43.5523 38.592 43.548 38.9517 43.548 39.437C43.548 39.9223 43.5523 40.2907 43.561 40.542C43.613 41.9373 44.263 42.635 45.511 42.635C46.0483 42.635 46.4773 42.5223 46.798 42.297C47.1273 42.0717 47.357 41.6903 47.487 41.153C47.513 41.0317 47.552 40.9493 47.604 40.906C47.6647 40.8627 47.747 40.841 47.851 40.841H49.086C49.164 40.841 49.229 40.867 49.281 40.919C49.3417 40.971 49.3677 41.036 49.359 41.114C49.3417 41.686 49.177 42.2017 48.865 42.661C48.553 43.1117 48.111 43.4713 47.539 43.74C46.967 44 46.2953 44.13 45.524 44.13ZM54.3977 44.13C53.2191 44.13 52.3004 43.831 51.6417 43.233C50.9831 42.635 50.6364 41.7467 50.6017 40.568C50.5931 40.3167 50.5887 39.9483 50.5887 39.463C50.5887 38.969 50.5931 38.5963 50.6017 38.345C50.6364 37.1923 50.9917 36.3083 51.6677 35.693C52.3437 35.0777 53.2537 34.77 54.3977 34.77C55.5417 34.77 56.4517 35.0777 57.1277 35.693C57.8124 36.3083 58.1721 37.1923 58.2067 38.345C58.2241 38.8477 58.2327 39.2203 58.2327 39.463C58.2327 39.697 58.2241 40.0653 58.2067 40.568C58.1634 41.7467 57.8124 42.635 57.1537 43.233C56.4951 43.831 55.5764 44.13 54.3977 44.13ZM54.3977 42.635C54.9784 42.635 55.4421 42.4617 55.7887 42.115C56.1354 41.7597 56.3217 41.2223 56.3477 40.503C56.3651 39.983 56.3737 39.632 56.3737 39.45C56.3737 39.2507 56.3651 38.8997 56.3477 38.397C56.3217 37.6777 56.1354 37.1447 55.7887 36.798C55.4421 36.4427 54.9784 36.265 54.3977 36.265C53.8257 36.265 53.3664 36.4427 53.0197 36.798C52.6731 37.1447 52.4867 37.6777 52.4607 38.397C52.4521 38.6483 52.4477 38.9993 52.4477 39.45C52.4477 39.892 52.4521 40.243 52.4607 40.503C52.4867 41.2223 52.6687 41.7597 53.0067 42.115C53.3534 42.4617 53.8171 42.635 54.3977 42.635ZM60.2518 44C60.1651 44 60.0914 43.9697 60.0308 43.909C59.9701 43.8483 59.9398 43.7747 59.9398 43.688V35.225C59.9398 35.1297 59.9658 35.0517 60.0178 34.991C60.0784 34.9303 60.1564 34.9 60.2518 34.9H61.2528C61.3568 34.9 61.4348 34.9217 61.4868 34.965C61.5388 34.9997 61.5864 35.0473 61.6298 35.108L65.3738 40.932V35.225C65.3738 35.1297 65.3998 35.0517 65.4518 34.991C65.5124 34.9303 65.5904 34.9 65.6858 34.9H66.7778C66.8731 34.9 66.9511 34.9303 67.0118 34.991C67.0724 35.0517 67.1028 35.1297 67.1028 35.225V43.675C67.1028 43.7703 67.0724 43.8483 67.0118 43.909C66.9511 43.9697 66.8774 44 66.7908 44H65.7768C65.6294 44 65.5038 43.9307 65.3998 43.792L61.6688 38.098V43.688C61.6688 43.7833 61.6384 43.8613 61.5778 43.922C61.5171 43.974 61.4391 44 61.3438 44H60.2518ZM71.4452 44C71.3585 44 71.2849 43.9697 71.2242 43.909C71.1635 43.8483 71.1332 43.7747 71.1332 43.688V36.499H68.7282C68.6415 36.499 68.5679 36.4687 68.5072 36.408C68.4465 36.3473 68.4162 36.2737 68.4162 36.187V35.225C68.4162 35.1297 68.4422 35.0517 68.4942 34.991C68.5549 34.9303 68.6329 34.9 68.7282 34.9H75.3582C75.4535 34.9 75.5315 34.9303 75.5922 34.991C75.6529 35.0517 75.6832 35.1297 75.6832 35.225V36.187C75.6832 36.2737 75.6529 36.3473 75.5922 36.408C75.5315 36.4687 75.4535 36.499 75.3582 36.499H72.9662V43.688C72.9662 43.7747 72.9359 43.8483 72.8752 43.909C72.8145 43.9697 72.7365 44 72.6412 44H71.4452ZM77.3143 44C77.2276 44 77.1539 43.9697 77.0933 43.909C77.0326 43.8483 77.0023 43.7747 77.0023 43.688V35.225C77.0023 35.1297 77.0283 35.0517 77.0803 34.991C77.1409 34.9303 77.2189 34.9 77.3143 34.9H80.6813C81.7386 34.9 82.5663 35.147 83.1643 35.641C83.7709 36.135 84.0743 36.837 84.0743 37.747C84.0743 38.3797 83.9183 38.9127 83.6063 39.346C83.3029 39.7707 82.8783 40.0783 82.3323 40.269L84.2303 43.584C84.2563 43.636 84.2693 43.6837 84.2693 43.727C84.2693 43.805 84.2389 43.87 84.1783 43.922C84.1263 43.974 84.0656 44 83.9963 44H82.8133C82.6746 44 82.5663 43.9697 82.4883 43.909C82.4189 43.8483 82.3539 43.7617 82.2933 43.649L80.6163 40.568H78.8093V43.688C78.8093 43.7747 78.7789 43.8483 78.7183 43.909C78.6663 43.9697 78.5926 44 78.4973 44H77.3143ZM80.6423 39.099C81.1623 39.099 81.5523 38.982 81.8123 38.748C82.0809 38.514 82.2153 38.176 82.2153 37.734C82.2153 37.292 82.0809 36.9497 81.8123 36.707C81.5523 36.4643 81.1623 36.343 80.6423 36.343H78.8093V39.099H80.6423ZM85.1904 44C85.121 44 85.056 43.974 84.9954 43.922C84.9434 43.87 84.9174 43.805 84.9174 43.727L84.9434 43.61L88.0764 35.225C88.137 35.0083 88.2887 34.9 88.5314 34.9H89.9484C90.1737 34.9 90.3254 35.0083 90.4034 35.225L93.5364 43.61C93.545 43.636 93.5494 43.675 93.5494 43.727C93.5494 43.805 93.5234 43.87 93.4714 43.922C93.4194 43.974 93.3587 44 93.2894 44H92.1584C92.0457 44 91.959 43.974 91.8984 43.922C91.8377 43.87 91.7987 43.8137 91.7814 43.753L91.1704 42.167H87.3094L86.6984 43.753C86.629 43.9177 86.5034 44 86.3214 44H85.1904ZM90.7154 40.672L89.2334 36.655L87.7644 40.672H90.7154ZM98.0953 44.13C96.8993 44.13 95.972 43.8223 95.3133 43.207C94.6633 42.5917 94.3166 41.725 94.2733 40.607C94.2646 40.373 94.2603 39.9917 94.2603 39.463C94.2603 38.9257 94.2646 38.5357 94.2733 38.293C94.3166 37.1837 94.6676 36.3213 95.3263 35.706C95.9936 35.082 96.9166 34.77 98.0953 34.77C98.8666 34.77 99.5383 34.9043 100.11 35.173C100.682 35.433 101.124 35.7927 101.436 36.252C101.748 36.7027 101.913 37.214 101.93 37.786V37.812C101.93 37.8813 101.9 37.942 101.839 37.994C101.787 38.0373 101.727 38.059 101.657 38.059H100.422C100.318 38.059 100.24 38.0373 100.188 37.994C100.136 37.9507 100.093 37.8683 100.058 37.747C99.9196 37.201 99.69 36.8197 99.3693 36.603C99.0486 36.3777 98.6196 36.265 98.0823 36.265C96.8343 36.265 96.1843 36.9627 96.1323 38.358C96.1236 38.592 96.1193 38.9517 96.1193 39.437C96.1193 39.9223 96.1236 40.2907 96.1323 40.542C96.1843 41.9373 96.8343 42.635 98.0823 42.635C98.6196 42.635 99.0486 42.5223 99.3693 42.297C99.6986 42.0717 99.9283 41.6903 100.058 41.153C100.084 41.0317 100.123 40.9493 100.175 40.906C100.236 40.8627 100.318 40.841 100.422 40.841H101.657C101.735 40.841 101.8 40.867 101.852 40.919C101.913 40.971 101.939 41.036 101.93 41.114C101.913 41.686 101.748 42.2017 101.436 42.661C101.124 43.1117 100.682 43.4713 100.11 43.74C99.5383 44 98.8666 44.13 98.0953 44.13ZM105.786 44C105.699 44 105.626 43.9697 105.565 43.909C105.504 43.8483 105.474 43.7747 105.474 43.688V36.499H103.069C102.982 36.499 102.909 36.4687 102.848 36.408C102.787 36.3473 102.757 36.2737 102.757 36.187V35.225C102.757 35.1297 102.783 35.0517 102.835 34.991C102.896 34.9303 102.974 34.9 103.069 34.9H109.699C109.794 34.9 109.872 34.9303 109.933 34.991C109.994 35.0517 110.024 35.1297 110.024 35.225V36.187C110.024 36.2737 109.994 36.3473 109.933 36.408C109.872 36.4687 109.794 36.499 109.699 36.499H107.307V43.688C107.307 43.7747 107.277 43.8483 107.216 43.909C107.155 43.9697 107.077 44 106.982 44H105.786Z" fill="#A0A0A5"/>
<rect x="41.5" y="59.5" width="319" height="44" rx="2.5" fill="#F5F7F9"/>
<path d="M60.0001 74.8335H65.3334L69.3334 78.8335V86.8335C69.3334 87.1871 69.1929 87.5263 68.9429 87.7763C68.6928 88.0264 68.3537 88.1668 68.0001 88.1668H60.0001C59.6465 88.1668 59.3073 88.0264 59.0573 87.7763C58.8072 87.5263 58.6667 87.1871 58.6667 86.8335V76.1668C58.6667 75.8132 58.8072 75.4741 59.0573 75.224C59.3073 74.974 59.6465 74.8335 60.0001 74.8335Z" stroke="black" stroke-linecap="round" stroke-linejoin="round"/>
<path d="M65.3333 74.8335V78.8335H69.3333" stroke="black" stroke-linecap="round" stroke-linejoin="round"/>
<path d="M64 85.5V81.5" stroke="black" stroke-linecap="round" stroke-linejoin="round"/>
<path d="M62 83.5H66" stroke="black" stroke-linecap="round" stroke-linejoin="round"/>
<path d="M87.085 86.15C85.745 86.15 84.725 85.79 84.025 85.07C83.335 84.35 82.965 83.355 82.915 82.085C82.905 81.815 82.9 81.375 82.9 80.765C82.9 80.145 82.905 79.695 82.915 79.415C82.965 78.155 83.34 77.165 84.04 76.445C84.74 75.715 85.755 75.35 87.085 75.35C87.975 75.35 88.73 75.51 89.35 75.83C89.97 76.14 90.44 76.55 90.76 77.06C91.08 77.57 91.255 78.115 91.285 78.695V78.725C91.285 78.805 91.25 78.875 91.18 78.935C91.12 78.985 91.05 79.01 90.97 79.01H90.145C89.945 79.01 89.82 78.895 89.77 78.665C89.6 77.915 89.295 77.39 88.855 77.09C88.415 76.78 87.825 76.625 87.085 76.625C85.365 76.625 84.475 77.58 84.415 79.49C84.405 79.76 84.4 80.175 84.4 80.735C84.4 81.295 84.405 81.72 84.415 82.01C84.475 83.92 85.365 84.875 87.085 84.875C87.825 84.875 88.415 84.725 88.855 84.425C89.305 84.115 89.61 83.585 89.77 82.835C89.8 82.705 89.845 82.615 89.905 82.565C89.965 82.515 90.045 82.49 90.145 82.49H90.97C91.06 82.49 91.135 82.52 91.195 82.58C91.265 82.63 91.295 82.7 91.285 82.79C91.255 83.38 91.08 83.93 90.76 84.44C90.44 84.95 89.97 85.365 89.35 85.685C88.73 85.995 87.975 86.15 87.085 86.15ZM93.4602 86C93.3602 86 93.2752 85.97 93.2052 85.91C93.1452 85.84 93.1152 85.755 93.1152 85.655V75.695C93.1152 75.595 93.1452 75.515 93.2052 75.455C93.2752 75.385 93.3602 75.35 93.4602 75.35H94.1652C94.2652 75.35 94.3452 75.385 94.4052 75.455C94.4752 75.515 94.5102 75.595 94.5102 75.695V85.655C94.5102 85.755 94.4752 85.84 94.4052 85.91C94.3452 85.97 94.2652 86 94.1652 86H93.4602ZM96.9727 76.745C96.8727 76.745 96.7877 76.715 96.7177 76.655C96.6577 76.585 96.6277 76.5 96.6277 76.4V75.59C96.6277 75.49 96.6577 75.405 96.7177 75.335C96.7877 75.265 96.8727 75.23 96.9727 75.23H97.9177C98.0177 75.23 98.1027 75.265 98.1727 75.335C98.2427 75.405 98.2777 75.49 98.2777 75.59V76.4C98.2777 76.5 98.2427 76.585 98.1727 76.655C98.1027 76.715 98.0177 76.745 97.9177 76.745H96.9727ZM97.0927 86C96.9927 86 96.9077 85.97 96.8377 85.91C96.7777 85.84 96.7477 85.755 96.7477 85.655V78.545C96.7477 78.445 96.7777 78.365 96.8377 78.305C96.9077 78.235 96.9927 78.2 97.0927 78.2H97.8127C97.9127 78.2 97.9927 78.235 98.0527 78.305C98.1227 78.365 98.1577 78.445 98.1577 78.545V85.655C98.1577 85.755 98.1227 85.84 98.0527 85.91C97.9927 85.97 97.9127 86 97.8127 86H97.0927ZM103.531 86.15C102.461 86.15 101.621 85.85 101.011 85.25C100.411 84.64 100.091 83.79 100.051 82.7L100.036 82.1L100.051 81.5C100.091 80.41 100.411 79.565 101.011 78.965C101.621 78.355 102.461 78.05 103.531 78.05C104.251 78.05 104.861 78.18 105.361 78.44C105.861 78.7 106.231 79.02 106.471 79.4C106.721 79.78 106.856 80.16 106.876 80.54C106.886 80.64 106.856 80.72 106.786 80.78C106.716 80.84 106.631 80.87 106.531 80.87H105.811C105.711 80.87 105.636 80.85 105.586 80.81C105.536 80.77 105.486 80.69 105.436 80.57C105.266 80.09 105.026 79.75 104.716 79.55C104.406 79.34 104.016 79.235 103.546 79.235C102.926 79.235 102.431 79.43 102.061 79.82C101.701 80.2 101.506 80.785 101.476 81.575L101.461 82.115L101.476 82.625C101.506 83.425 101.701 84.015 102.061 84.395C102.421 84.775 102.916 84.965 103.546 84.965C104.016 84.965 104.406 84.865 104.716 84.665C105.026 84.455 105.266 84.11 105.436 83.63C105.486 83.51 105.536 83.43 105.586 83.39C105.636 83.34 105.711 83.315 105.811 83.315H106.531C106.631 83.315 106.716 83.35 106.786 83.42C106.856 83.48 106.886 83.56 106.876 83.66C106.856 84.03 106.721 84.41 106.471 84.8C106.231 85.18 105.861 85.5 105.361 85.76C104.871 86.02 104.261 86.15 103.531 86.15ZM109.017 86C108.917 86 108.832 85.97 108.762 85.91C108.702 85.84 108.672 85.755 108.672 85.655V75.695C108.672 75.595 108.702 75.515 108.762 75.455C108.832 75.385 108.917 75.35 109.017 75.35H109.722C109.822 75.35 109.902 75.385 109.962 75.455C110.032 75.515 110.067 75.595 110.067 75.695V80.915L113.022 78.455C113.052 78.435 113.102 78.395 113.172 78.335C113.242 78.285 113.307 78.25 113.367 78.23C113.437 78.21 113.522 78.2 113.622 78.2H114.417C114.507 78.2 114.582 78.23 114.642 78.29C114.702 78.35 114.732 78.425 114.732 78.515C114.732 78.625 114.672 78.72 114.552 78.8L111.087 81.68L114.927 85.415C115.047 85.515 115.107 85.605 115.107 85.685C115.107 85.775 115.077 85.85 115.017 85.91C114.957 85.97 114.882 86 114.792 86H114.012C113.862 86 113.752 85.985 113.682 85.955C113.622 85.925 113.532 85.855 113.412 85.745L110.067 82.55V85.655C110.067 85.755 110.032 85.84 109.962 85.91C109.902 85.97 109.822 86 109.722 86H109.017ZM122.644 86C121.064 86 120.274 85.12 120.274 83.36V79.4H119.104C119.004 79.4 118.919 79.37 118.849 79.31C118.789 79.24 118.759 79.155 118.759 79.055V78.545C118.759 78.445 118.789 78.365 118.849 78.305C118.919 78.235 119.004 78.2 119.104 78.2H120.274V75.695C120.274 75.595 120.304 75.515 120.364 75.455C120.434 75.385 120.519 75.35 120.619 75.35H121.324C121.424 75.35 121.504 75.385 121.564 75.455C121.634 75.515 121.669 75.595 121.669 75.695V78.2H123.529C123.629 78.2 123.709 78.235 123.769 78.305C123.839 78.365 123.874 78.445 123.874 78.545V79.055C123.874 79.155 123.839 79.24 123.769 79.31C123.709 79.37 123.629 79.4 123.529 79.4H121.669V83.255C121.669 83.755 121.754 84.135 121.924 84.395C122.094 84.645 122.374 84.77 122.764 84.77H123.679C123.779 84.77 123.859 84.805 123.919 84.875C123.989 84.935 124.024 85.015 124.024 85.115V85.655C124.024 85.755 123.989 85.84 123.919 85.91C123.859 85.97 123.779 86 123.679 86H122.644ZM128.654 86.15C127.554 86.15 126.699 85.84 126.089 85.22C125.489 84.6 125.169 83.775 125.129 82.745L125.114 82.1L125.129 81.455C125.169 80.435 125.494 79.615 126.104 78.995C126.714 78.365 127.564 78.05 128.654 78.05C129.744 78.05 130.594 78.365 131.204 78.995C131.814 79.615 132.139 80.435 132.179 81.455C132.189 81.565 132.194 81.78 132.194 82.1C132.194 82.42 132.189 82.635 132.179 82.745C132.139 83.775 131.814 84.6 131.204 85.22C130.604 85.84 129.754 86.15 128.654 86.15ZM128.654 84.995C129.284 84.995 129.779 84.795 130.139 84.395C130.509 83.995 130.709 83.42 130.739 82.67C130.749 82.57 130.754 82.38 130.754 82.1C130.754 81.82 130.749 81.63 130.739 81.53C130.709 80.78 130.509 80.205 130.139 79.805C129.779 79.405 129.284 79.205 128.654 79.205C128.024 79.205 127.524 79.405 127.154 79.805C126.784 80.205 126.589 80.78 126.569 81.53L126.554 82.1L126.569 82.67C126.589 83.42 126.784 83.995 127.154 84.395C127.524 84.795 128.024 84.995 128.654 84.995ZM140.659 86.15C139.709 86.15 138.974 85.845 138.454 85.235C137.934 84.615 137.674 83.795 137.674 82.775V78.545C137.674 78.445 137.704 78.365 137.764 78.305C137.834 78.235 137.919 78.2 138.019 78.2H138.769C138.869 78.2 138.949 78.235 139.009 78.305C139.079 78.365 139.114 78.445 139.114 78.545V82.7C139.114 84.19 139.764 84.935 141.064 84.935C141.694 84.935 142.194 84.74 142.564 84.35C142.934 83.95 143.119 83.4 143.119 82.7V78.545C143.119 78.445 143.149 78.365 143.209 78.305C143.279 78.235 143.364 78.2 143.464 78.2H144.214C144.314 78.2 144.394 78.235 144.454 78.305C144.514 78.365 144.544 78.445 144.544 78.545V85.655C144.544 85.755 144.514 85.84 144.454 85.91C144.394 85.97 144.314 86 144.214 86H143.509C143.409 86 143.324 85.97 143.254 85.91C143.194 85.84 143.164 85.755 143.164 85.655V84.995C142.884 85.375 142.544 85.665 142.144 85.865C141.744 86.055 141.249 86.15 140.659 86.15ZM147.132 88.85C147.032 88.85 146.947 88.815 146.877 88.745C146.817 88.685 146.787 88.605 146.787 88.505V78.545C146.787 78.445 146.817 78.365 146.877 78.305C146.947 78.235 147.032 78.2 147.132 78.2H147.822C147.922 78.2 148.002 78.235 148.062 78.305C148.132 78.365 148.167 78.445 148.167 78.545V79.205C148.727 78.435 149.547 78.05 150.627 78.05C151.677 78.05 152.462 78.38 152.982 79.04C153.512 79.7 153.797 80.55 153.837 81.59C153.847 81.7 153.852 81.87 153.852 82.1C153.852 82.33 153.847 82.5 153.837 82.61C153.797 83.64 153.512 84.49 152.982 85.16C152.452 85.82 151.667 86.15 150.627 86.15C149.587 86.15 148.777 85.775 148.197 85.025V88.505C148.197 88.605 148.167 88.685 148.107 88.745C148.047 88.815 147.967 88.85 147.867 88.85H147.132ZM150.312 84.935C151.022 84.935 151.537 84.715 151.857 84.275C152.187 83.835 152.367 83.255 152.397 82.535C152.407 82.435 152.412 82.29 152.412 82.1C152.412 80.21 151.712 79.265 150.312 79.265C149.622 79.265 149.102 79.495 148.752 79.955C148.412 80.405 148.227 80.945 148.197 81.575L148.182 82.145L148.197 82.73C148.217 83.32 148.407 83.835 148.767 84.275C149.127 84.715 149.642 84.935 150.312 84.935ZM156.068 86C155.968 86 155.883 85.97 155.813 85.91C155.753 85.84 155.723 85.755 155.723 85.655V75.695C155.723 75.595 155.753 75.515 155.813 75.455C155.883 75.385 155.968 75.35 156.068 75.35H156.773C156.873 75.35 156.953 75.385 157.013 75.455C157.083 75.515 157.118 75.595 157.118 75.695V85.655C157.118 85.755 157.083 85.84 157.013 85.91C156.953 85.97 156.873 86 156.773 86H156.068ZM162.55 86.15C161.45 86.15 160.595 85.84 159.985 85.22C159.385 84.6 159.065 83.775 159.025 82.745L159.01 82.1L159.025 81.455C159.065 80.435 159.39 79.615 160 78.995C160.61 78.365 161.46 78.05 162.55 78.05C163.64 78.05 164.49 78.365 165.1 78.995C165.71 79.615 166.035 80.435 166.075 81.455C166.085 81.565 166.09 81.78 166.09 82.1C166.09 82.42 166.085 82.635 166.075 82.745C166.035 83.775 165.71 84.6 165.1 85.22C164.5 85.84 163.65 86.15 162.55 86.15ZM162.55 84.995C163.18 84.995 163.675 84.795 164.035 84.395C164.405 83.995 164.605 83.42 164.635 82.67C164.645 82.57 164.65 82.38 164.65 82.1C164.65 81.82 164.645 81.63 164.635 81.53C164.605 80.78 164.405 80.205 164.035 79.805C163.675 79.405 163.18 79.205 162.55 79.205C161.92 79.205 161.42 79.405 161.05 79.805C160.68 80.205 160.485 80.78 160.465 81.53L160.45 82.1L160.465 82.67C160.485 83.42 160.68 83.995 161.05 84.395C161.42 84.795 161.92 84.995 162.55 84.995ZM170.143 86.15C169.653 86.15 169.198 86.05 168.778 85.85C168.358 85.65 168.023 85.38 167.773 85.04C167.533 84.69 167.413 84.305 167.413 83.885C167.413 83.225 167.683 82.685 168.223 82.265C168.773 81.835 169.513 81.555 170.443 81.425L172.678 81.11V80.675C172.678 79.655 172.093 79.145 170.923 79.145C170.483 79.145 170.123 79.24 169.843 79.43C169.563 79.61 169.353 79.825 169.213 80.075C169.183 80.165 169.143 80.23 169.093 80.27C169.053 80.31 168.993 80.33 168.913 80.33H168.268C168.178 80.33 168.098 80.3 168.028 80.24C167.968 80.17 167.938 80.09 167.938 80C167.948 79.76 168.058 79.49 168.268 79.19C168.488 78.88 168.823 78.615 169.273 78.395C169.723 78.165 170.278 78.05 170.938 78.05C172.058 78.05 172.863 78.315 173.353 78.845C173.843 79.365 174.088 80.015 174.088 80.795V85.655C174.088 85.755 174.053 85.84 173.983 85.91C173.923 85.97 173.843 86 173.743 86H173.053C172.953 86 172.868 85.97 172.798 85.91C172.738 85.84 172.708 85.755 172.708 85.655V85.01C172.488 85.33 172.168 85.6 171.748 85.82C171.328 86.04 170.793 86.15 170.143 86.15ZM170.458 85.025C171.108 85.025 171.638 84.815 172.048 84.395C172.468 83.965 172.678 83.35 172.678 82.55V82.13L170.938 82.385C170.228 82.485 169.693 82.655 169.333 82.895C168.973 83.125 168.793 83.42 168.793 83.78C168.793 84.18 168.958 84.49 169.288 84.71C169.618 84.92 170.008 85.025 170.458 85.025ZM179.095 86.15C178.055 86.15 177.27 85.81 176.74 85.13C176.21 84.45 175.93 83.59 175.9 82.55L175.885 82.1L175.9 81.65C175.93 80.62 176.21 79.765 176.74 79.085C177.27 78.395 178.055 78.05 179.095 78.05C180.125 78.05 180.935 78.415 181.525 79.145V75.695C181.525 75.595 181.555 75.515 181.615 75.455C181.685 75.385 181.77 75.35 181.87 75.35H182.59C182.69 75.35 182.77 75.385 182.83 75.455C182.9 75.515 182.935 75.595 182.935 75.695V85.655C182.935 85.755 182.9 85.84 182.83 85.91C182.77 85.97 182.69 86 182.59 86H181.915C181.815 86 181.73 85.97 181.66 85.91C181.6 85.84 181.57 85.755 181.57 85.655V85.025C180.99 85.775 180.165 86.15 179.095 86.15ZM179.41 84.935C180.1 84.935 180.615 84.71 180.955 84.26C181.305 83.8 181.495 83.255 181.525 82.625C181.535 82.515 181.54 82.325 181.54 82.055C181.54 81.775 181.535 81.58 181.525 81.47C181.505 80.88 181.315 80.365 180.955 79.925C180.595 79.485 180.08 79.265 179.41 79.265C178.7 79.265 178.18 79.485 177.85 79.925C177.53 80.365 177.355 80.945 177.325 81.665L177.31 82.1C177.31 83.99 178.01 84.935 179.41 84.935ZM191.017 86.15C190.527 86.15 190.072 86.05 189.652 85.85C189.232 85.65 188.897 85.38 188.647 85.04C188.407 84.69 188.287 84.305 188.287 83.885C188.287 83.225 188.557 82.685 189.097 82.265C189.647 81.835 190.387 81.555 191.317 81.425L193.552 81.11V80.675C193.552 79.655 192.967 79.145 191.797 79.145C191.357 79.145 190.997 79.24 190.717 79.43C190.437 79.61 190.227 79.825 190.087 80.075C190.057 80.165 190.017 80.23 189.967 80.27C189.927 80.31 189.867 80.33 189.787 80.33H189.142C189.052 80.33 188.972 80.3 188.902 80.24C188.842 80.17 188.812 80.09 188.812 80C188.822 79.76 188.932 79.49 189.142 79.19C189.362 78.88 189.697 78.615 190.147 78.395C190.597 78.165 191.152 78.05 191.812 78.05C192.932 78.05 193.737 78.315 194.227 78.845C194.717 79.365 194.962 80.015 194.962 80.795V85.655C194.962 85.755 194.927 85.84 194.857 85.91C194.797 85.97 194.717 86 194.617 86H193.927C193.827 86 193.742 85.97 193.672 85.91C193.612 85.84 193.582 85.755 193.582 85.655V85.01C193.362 85.33 193.042 85.6 192.622 85.82C192.202 86.04 191.667 86.15 191.017 86.15ZM191.332 85.025C191.982 85.025 192.512 84.815 192.922 84.395C193.342 83.965 193.552 83.35 193.552 82.55V82.13L191.812 82.385C191.102 82.485 190.567 82.655 190.207 82.895C189.847 83.125 189.667 83.42 189.667 83.78C189.667 84.18 189.832 84.49 190.162 84.71C190.492 84.92 190.882 85.025 191.332 85.025ZM201.642 86C201.542 86 201.457 85.97 201.387 85.91C201.327 85.84 201.297 85.755 201.297 85.655V79.4H200.022C199.922 79.4 199.837 79.37 199.767 79.31C199.707 79.24 199.677 79.155 199.677 79.055V78.545C199.677 78.445 199.707 78.365 199.767 78.305C199.837 78.235 199.922 78.2 200.022 78.2H201.297V77.45C201.297 75.75 202.157 74.9 203.877 74.9H206.187C206.287 74.9 206.367 74.935 206.427 75.005C206.497 75.065 206.532 75.145 206.532 75.245V75.755C206.532 75.855 206.497 75.94 206.427 76.01C206.367 76.07 206.287 76.1 206.187 76.1H203.907C203.457 76.1 203.142 76.22 202.962 76.46C202.782 76.69 202.692 77.045 202.692 77.525V78.2H206.187C206.287 78.2 206.367 78.235 206.427 78.305C206.497 78.365 206.532 78.445 206.532 78.545V85.655C206.532 85.755 206.497 85.84 206.427 85.91C206.367 85.97 206.287 86 206.187 86H205.497C205.397 86 205.312 85.97 205.242 85.91C205.182 85.84 205.152 85.755 205.152 85.655V79.4H202.692V85.655C202.692 85.755 202.657 85.84 202.587 85.91C202.527 85.97 202.447 86 202.347 86H201.642ZM209.11 86C209.01 86 208.925 85.97 208.855 85.91C208.795 85.84 208.765 85.755 208.765 85.655V75.695C208.765 75.595 208.795 75.515 208.855 75.455C208.925 75.385 209.01 75.35 209.11 75.35H209.815C209.915 75.35 209.995 75.385 210.055 75.455C210.125 75.515 210.16 75.595 210.16 75.695V85.655C210.16 85.755 210.125 85.84 210.055 85.91C209.995 85.97 209.915 86 209.815 86H209.11ZM215.517 86.15C214.487 86.15 213.662 85.835 213.042 85.205C212.432 84.565 212.097 83.695 212.037 82.595L212.022 82.085L212.037 81.59C212.107 80.51 212.447 79.65 213.057 79.01C213.677 78.37 214.492 78.05 215.502 78.05C216.612 78.05 217.472 78.405 218.082 79.115C218.692 79.815 218.997 80.765 218.997 81.965V82.22C218.997 82.32 218.962 82.405 218.892 82.475C218.832 82.535 218.752 82.565 218.652 82.565H213.462V82.7C213.492 83.35 213.687 83.905 214.047 84.365C214.417 84.815 214.902 85.04 215.502 85.04C215.962 85.04 216.337 84.95 216.627 84.77C216.927 84.58 217.147 84.385 217.287 84.185C217.377 84.065 217.442 83.995 217.482 83.975C217.532 83.945 217.617 83.93 217.737 83.93H218.472C218.562 83.93 218.637 83.955 218.697 84.005C218.757 84.055 218.787 84.125 218.787 84.215C218.787 84.435 218.647 84.7 218.367 85.01C218.097 85.32 217.712 85.59 217.212 85.82C216.722 86.04 216.157 86.15 215.517 86.15ZM217.572 81.53V81.485C217.572 80.795 217.382 80.235 217.002 79.805C216.632 79.365 216.132 79.145 215.502 79.145C214.872 79.145 214.372 79.365 214.002 79.805C213.642 80.235 213.462 80.795 213.462 81.485V81.53H217.572Z" fill="#303032"/>
<rect x="41.5" y="59.5" width="319" height="44" rx="2.5" stroke="#DDDDE2"/>
<rect width="320" height="73" transform="translate(41 114)" fill="white"/>
<path d="M42.326 127C42.2393 127 42.1657 126.97 42.105 126.909C42.0443 126.848 42.014 126.775 42.014 126.688V118.225C42.014 118.13 42.04 118.052 42.092 117.991C42.1527 117.93 42.2307 117.9 42.326 117.9H45.81C46.85 117.9 47.669 118.147 48.267 118.641C48.865 119.126 49.164 119.841 49.164 120.786C49.164 121.731 48.865 122.446 48.267 122.931C47.6777 123.408 46.8587 123.646 45.81 123.646H43.873V126.688C43.873 126.775 43.8427 126.848 43.782 126.909C43.73 126.97 43.6563 127 43.561 127H42.326ZM45.745 122.203C46.2477 122.203 46.6333 122.086 46.902 121.852C47.1707 121.609 47.305 121.254 47.305 120.786C47.305 120.335 47.175 119.984 46.915 119.733C46.655 119.473 46.265 119.343 45.745 119.343H43.847V122.203H45.745ZM50.8953 127C50.8087 127 50.735 126.97 50.6743 126.909C50.6137 126.848 50.5833 126.775 50.5833 126.688V118.225C50.5833 118.13 50.6093 118.052 50.6613 117.991C50.722 117.93 50.8 117.9 50.8953 117.9H54.2623C55.3197 117.9 56.1473 118.147 56.7453 118.641C57.352 119.135 57.6553 119.837 57.6553 120.747C57.6553 121.38 57.4993 121.913 57.1873 122.346C56.884 122.771 56.4593 123.078 55.9133 123.269L57.8113 126.584C57.8373 126.636 57.8503 126.684 57.8503 126.727C57.8503 126.805 57.82 126.87 57.7593 126.922C57.7073 126.974 57.6467 127 57.5773 127H56.3943C56.2557 127 56.1473 126.97 56.0693 126.909C56 126.848 55.935 126.762 55.8743 126.649L54.1973 123.568H52.3903V126.688C52.3903 126.775 52.36 126.848 52.2993 126.909C52.2473 126.97 52.1737 127 52.0783 127H50.8953ZM54.2233 122.099C54.7433 122.099 55.1333 121.982 55.3933 121.748C55.662 121.514 55.7963 121.176 55.7963 120.734C55.7963 120.292 55.662 119.95 55.3933 119.707C55.1333 119.464 54.7433 119.343 54.2233 119.343H52.3903V122.099H54.2233ZM62.802 127.13C61.6233 127.13 60.7047 126.831 60.046 126.233C59.3873 125.635 59.0407 124.747 59.006 123.568C58.9973 123.317 58.993 122.948 58.993 122.463C58.993 121.969 58.9973 121.596 59.006 121.345C59.0407 120.192 59.396 119.308 60.072 118.693C60.748 118.078 61.658 117.77 62.802 117.77C63.946 117.77 64.856 118.078 65.532 118.693C66.2167 119.308 66.5763 120.192 66.611 121.345C66.6283 121.848 66.637 122.22 66.637 122.463C66.637 122.697 66.6283 123.065 66.611 123.568C66.5677 124.747 66.2167 125.635 65.558 126.233C64.8993 126.831 63.9807 127.13 62.802 127.13ZM62.802 125.635C63.3827 125.635 63.8463 125.462 64.193 125.115C64.5397 124.76 64.726 124.222 64.752 123.503C64.7693 122.983 64.778 122.632 64.778 122.45C64.778 122.251 64.7693 121.9 64.752 121.397C64.726 120.678 64.5397 120.145 64.193 119.798C63.8463 119.443 63.3827 119.265 62.802 119.265C62.23 119.265 61.7707 119.443 61.424 119.798C61.0773 120.145 60.891 120.678 60.865 121.397C60.8563 121.648 60.852 121.999 60.852 122.45C60.852 122.892 60.8563 123.243 60.865 123.503C60.891 124.222 61.073 124.76 61.411 125.115C61.7577 125.462 62.2213 125.635 62.802 125.635ZM71.2821 127.13C70.6407 127.13 70.0514 127.022 69.5141 126.805C68.9854 126.588 68.5607 126.263 68.2401 125.83C67.9194 125.397 67.7504 124.872 67.7331 124.257C67.7331 124.179 67.7591 124.114 67.8111 124.062C67.8631 124.001 67.9281 123.971 68.0061 123.971H69.2411C69.4317 123.971 69.5617 124.084 69.6311 124.309C69.6917 124.76 69.8694 125.093 70.1641 125.31C70.4674 125.527 70.8531 125.635 71.3211 125.635C71.8671 125.635 72.2831 125.457 72.5691 125.102C72.8637 124.747 73.0111 124.253 73.0111 123.62V119.434H68.6041C68.5174 119.434 68.4437 119.404 68.3831 119.343C68.3224 119.282 68.2921 119.209 68.2921 119.122V118.212C68.2921 118.117 68.3224 118.043 68.3831 117.991C68.4437 117.93 68.5174 117.9 68.6041 117.9H74.5451C74.6404 117.9 74.7184 117.93 74.7791 117.991C74.8397 118.052 74.8701 118.13 74.8701 118.225V123.672C74.8701 124.391 74.7227 125.011 74.4281 125.531C74.1334 126.051 73.7131 126.45 73.1671 126.727C72.6297 126.996 72.0014 127.13 71.2821 127.13ZM77.1365 127C77.0499 127 76.9762 126.97 76.9155 126.909C76.8549 126.848 76.8245 126.775 76.8245 126.688V118.225C76.8245 118.13 76.8505 118.052 76.9025 117.991C76.9632 117.93 77.0412 117.9 77.1365 117.9H82.8565C82.9519 117.9 83.0299 117.93 83.0905 117.991C83.1512 118.052 83.1815 118.13 83.1815 118.225V119.083C83.1815 119.178 83.1512 119.256 83.0905 119.317C83.0299 119.369 82.9519 119.395 82.8565 119.395H78.5795V121.696H82.5705C82.6659 121.696 82.7439 121.726 82.8045 121.787C82.8652 121.839 82.8955 121.913 82.8955 122.008V122.814C82.8955 122.909 82.8652 122.987 82.8045 123.048C82.7439 123.1 82.6659 123.126 82.5705 123.126H78.5795V125.505H82.9605C83.0559 125.505 83.1339 125.535 83.1945 125.596C83.2552 125.657 83.2855 125.735 83.2855 125.83V126.688C83.2855 126.783 83.2552 126.861 83.1945 126.922C83.1339 126.974 83.0559 127 82.9605 127H77.1365ZM88.3453 127.13C87.1493 127.13 86.222 126.822 85.5633 126.207C84.9133 125.592 84.5666 124.725 84.5233 123.607C84.5146 123.373 84.5103 122.992 84.5103 122.463C84.5103 121.926 84.5146 121.536 84.5233 121.293C84.5666 120.184 84.9176 119.321 85.5763 118.706C86.2436 118.082 87.1666 117.77 88.3453 117.77C89.1166 117.77 89.7883 117.904 90.3603 118.173C90.9323 118.433 91.3743 118.793 91.6863 119.252C91.9983 119.703 92.163 120.214 92.1803 120.786V120.812C92.1803 120.881 92.15 120.942 92.0893 120.994C92.0373 121.037 91.9766 121.059 91.9073 121.059H90.6723C90.5683 121.059 90.4903 121.037 90.4383 120.994C90.3863 120.951 90.343 120.868 90.3083 120.747C90.1696 120.201 89.94 119.82 89.6193 119.603C89.2986 119.378 88.8696 119.265 88.3323 119.265C87.0843 119.265 86.4343 119.963 86.3823 121.358C86.3736 121.592 86.3693 121.952 86.3693 122.437C86.3693 122.922 86.3736 123.291 86.3823 123.542C86.4343 124.937 87.0843 125.635 88.3323 125.635C88.8696 125.635 89.2986 125.522 89.6193 125.297C89.9486 125.072 90.1783 124.69 90.3083 124.153C90.3343 124.032 90.3733 123.949 90.4253 123.906C90.486 123.863 90.5683 123.841 90.6723 123.841H91.9073C91.9853 123.841 92.0503 123.867 92.1023 123.919C92.163 123.971 92.189 124.036 92.1803 124.114C92.163 124.686 91.9983 125.202 91.6863 125.661C91.3743 126.112 90.9323 126.471 90.3603 126.74C89.7883 127 89.1166 127.13 88.3453 127.13ZM96.036 127C95.9493 127 95.8757 126.97 95.815 126.909C95.7543 126.848 95.724 126.775 95.724 126.688V119.499H93.319C93.2323 119.499 93.1587 119.469 93.098 119.408C93.0373 119.347 93.007 119.274 93.007 119.187V118.225C93.007 118.13 93.033 118.052 93.085 117.991C93.1457 117.93 93.2237 117.9 93.319 117.9H99.949C100.044 117.9 100.122 117.93 100.183 117.991C100.244 118.052 100.274 118.13 100.274 118.225V119.187C100.274 119.274 100.244 119.347 100.183 119.408C100.122 119.469 100.044 119.499 99.949 119.499H97.557V126.688C97.557 126.775 97.5267 126.848 97.466 126.909C97.4053 126.97 97.3273 127 97.232 127H96.036ZM107.405 127.13C106.634 127.13 105.971 127.013 105.416 126.779C104.862 126.545 104.441 126.237 104.155 125.856C103.869 125.475 103.718 125.063 103.7 124.621C103.7 124.543 103.726 124.478 103.778 124.426C103.83 124.374 103.895 124.348 103.973 124.348H105.13C105.234 124.348 105.312 124.37 105.364 124.413C105.425 124.448 105.481 124.508 105.533 124.595C105.62 124.89 105.819 125.137 106.131 125.336C106.443 125.535 106.868 125.635 107.405 125.635C108.021 125.635 108.484 125.535 108.796 125.336C109.108 125.128 109.264 124.842 109.264 124.478C109.264 124.235 109.182 124.036 109.017 123.88C108.861 123.724 108.623 123.59 108.302 123.477C107.99 123.364 107.522 123.226 106.898 123.061C105.876 122.818 105.126 122.498 104.649 122.099C104.181 121.692 103.947 121.115 103.947 120.37C103.947 119.867 104.082 119.421 104.35 119.031C104.628 118.641 105.022 118.333 105.533 118.108C106.053 117.883 106.656 117.77 107.34 117.77C108.051 117.77 108.666 117.896 109.186 118.147C109.706 118.398 110.101 118.715 110.369 119.096C110.647 119.469 110.794 119.841 110.811 120.214C110.811 120.292 110.785 120.357 110.733 120.409C110.681 120.461 110.616 120.487 110.538 120.487H109.329C109.147 120.487 109.022 120.405 108.952 120.24C108.9 119.963 108.727 119.733 108.432 119.551C108.138 119.36 107.774 119.265 107.34 119.265C106.855 119.265 106.474 119.356 106.196 119.538C105.919 119.72 105.78 119.984 105.78 120.331C105.78 120.574 105.85 120.773 105.988 120.929C106.127 121.085 106.344 121.224 106.638 121.345C106.942 121.466 107.375 121.601 107.938 121.748C108.701 121.921 109.308 122.116 109.758 122.333C110.218 122.55 110.556 122.823 110.772 123.152C110.989 123.481 111.097 123.902 111.097 124.413C111.097 124.968 110.941 125.453 110.629 125.869C110.326 126.276 109.893 126.588 109.329 126.805C108.775 127.022 108.133 127.13 107.405 127.13ZM112.899 127C112.813 127 112.739 126.97 112.678 126.909C112.618 126.848 112.587 126.775 112.587 126.688V118.225C112.587 118.13 112.613 118.052 112.665 117.991C112.726 117.93 112.804 117.9 112.899 117.9H116.383C117.423 117.9 118.242 118.147 118.84 118.641C119.438 119.126 119.737 119.841 119.737 120.786C119.737 121.731 119.438 122.446 118.84 122.931C118.251 123.408 117.432 123.646 116.383 123.646H114.446V126.688C114.446 126.775 114.416 126.848 114.355 126.909C114.303 126.97 114.23 127 114.134 127H112.899ZM116.318 122.203C116.821 122.203 117.207 122.086 117.475 121.852C117.744 121.609 117.878 121.254 117.878 120.786C117.878 120.335 117.748 119.984 117.488 119.733C117.228 119.473 116.838 119.343 116.318 119.343H114.42V122.203H116.318ZM121.469 127C121.382 127 121.308 126.97 121.248 126.909C121.187 126.848 121.157 126.775 121.157 126.688V118.225C121.157 118.13 121.183 118.052 121.235 117.991C121.295 117.93 121.373 117.9 121.469 117.9H127.189C127.284 117.9 127.362 117.93 127.423 117.991C127.483 118.052 127.514 118.13 127.514 118.225V119.083C127.514 119.178 127.483 119.256 127.423 119.317C127.362 119.369 127.284 119.395 127.189 119.395H122.912V121.696H126.903C126.998 121.696 127.076 121.726 127.137 121.787C127.197 121.839 127.228 121.913 127.228 122.008V122.814C127.228 122.909 127.197 122.987 127.137 123.048C127.076 123.1 126.998 123.126 126.903 123.126H122.912V125.505H127.293C127.388 125.505 127.466 125.535 127.527 125.596C127.587 125.657 127.618 125.735 127.618 125.83V126.688C127.618 126.783 127.587 126.861 127.527 126.922C127.466 126.974 127.388 127 127.293 127H121.469ZM132.677 127.13C131.481 127.13 130.554 126.822 129.895 126.207C129.245 125.592 128.899 124.725 128.855 123.607C128.847 123.373 128.842 122.992 128.842 122.463C128.842 121.926 128.847 121.536 128.855 121.293C128.899 120.184 129.25 119.321 129.908 118.706C130.576 118.082 131.499 117.77 132.677 117.77C133.449 117.77 134.12 117.904 134.692 118.173C135.264 118.433 135.706 118.793 136.018 119.252C136.33 119.703 136.495 120.214 136.512 120.786V120.812C136.512 120.881 136.482 120.942 136.421 120.994C136.369 121.037 136.309 121.059 136.239 121.059H135.004C134.9 121.059 134.822 121.037 134.77 120.994C134.718 120.951 134.675 120.868 134.64 120.747C134.502 120.201 134.272 119.82 133.951 119.603C133.631 119.378 133.202 119.265 132.664 119.265C131.416 119.265 130.766 119.963 130.714 121.358C130.706 121.592 130.701 121.952 130.701 122.437C130.701 122.922 130.706 123.291 130.714 123.542C130.766 124.937 131.416 125.635 132.664 125.635C133.202 125.635 133.631 125.522 133.951 125.297C134.281 125.072 134.51 124.69 134.64 124.153C134.666 124.032 134.705 123.949 134.757 123.906C134.818 123.863 134.9 123.841 135.004 123.841H136.239C136.317 123.841 136.382 123.867 136.434 123.919C136.495 123.971 136.521 124.036 136.512 124.114C136.495 124.686 136.33 125.202 136.018 125.661C135.706 126.112 135.264 126.471 134.692 126.74C134.12 127 133.449 127.13 132.677 127.13ZM138.366 127C138.279 127 138.206 126.97 138.145 126.909C138.084 126.848 138.054 126.775 138.054 126.688V118.212C138.054 118.117 138.084 118.043 138.145 117.991C138.206 117.93 138.279 117.9 138.366 117.9H139.588C139.683 117.9 139.757 117.93 139.809 117.991C139.87 118.043 139.9 118.117 139.9 118.212V126.688C139.9 126.775 139.87 126.848 139.809 126.909C139.757 126.97 139.683 127 139.588 127H138.366ZM142.251 127C142.164 127 142.09 126.97 142.03 126.909C141.969 126.848 141.939 126.775 141.939 126.688V118.225C141.939 118.13 141.965 118.052 142.017 117.991C142.077 117.93 142.155 117.9 142.251 117.9H147.893C147.988 117.9 148.066 117.93 148.127 117.991C148.187 118.052 148.218 118.13 148.218 118.225V119.135C148.218 119.23 148.187 119.308 148.127 119.369C148.066 119.421 147.988 119.447 147.893 119.447H143.72V121.917H147.633C147.728 121.917 147.806 121.947 147.867 122.008C147.927 122.069 147.958 122.147 147.958 122.242V123.152C147.958 123.247 147.927 123.325 147.867 123.386C147.806 123.438 147.728 123.464 147.633 123.464H143.72V126.688C143.72 126.783 143.689 126.861 143.629 126.922C143.568 126.974 143.49 127 143.395 127H142.251ZM150.058 127C149.972 127 149.898 126.97 149.837 126.909C149.777 126.848 149.746 126.775 149.746 126.688V118.212C149.746 118.117 149.777 118.043 149.837 117.991C149.898 117.93 149.972 117.9 150.058 117.9H151.28C151.376 117.9 151.449 117.93 151.501 117.991C151.562 118.043 151.592 118.117 151.592 118.212V126.688C151.592 126.775 151.562 126.848 151.501 126.909C151.449 126.97 151.376 127 151.28 127H150.058ZM157.141 127.13C155.945 127.13 155.018 126.822 154.359 126.207C153.709 125.592 153.363 124.725 153.319 123.607C153.311 123.373 153.306 122.992 153.306 122.463C153.306 121.926 153.311 121.536 153.319 121.293C153.363 120.184 153.714 119.321 154.372 118.706C155.04 118.082 155.963 117.77 157.141 117.77C157.913 117.77 158.584 117.904 159.156 118.173C159.728 118.433 160.17 118.793 160.482 119.252C160.794 119.703 160.959 120.214 160.976 120.786V120.812C160.976 120.881 160.946 120.942 160.885 120.994C160.833 121.037 160.773 121.059 160.703 121.059H159.468C159.364 121.059 159.286 121.037 159.234 120.994C159.182 120.951 159.139 120.868 159.104 120.747C158.966 120.201 158.736 119.82 158.415 119.603C158.095 119.378 157.666 119.265 157.128 119.265C155.88 119.265 155.23 119.963 155.178 121.358C155.17 121.592 155.165 121.952 155.165 122.437C155.165 122.922 155.17 123.291 155.178 123.542C155.23 124.937 155.88 125.635 157.128 125.635C157.666 125.635 158.095 125.522 158.415 125.297C158.745 125.072 158.974 124.69 159.104 124.153C159.13 124.032 159.169 123.949 159.221 123.906C159.282 123.863 159.364 123.841 159.468 123.841H160.703C160.781 123.841 160.846 123.867 160.898 123.919C160.959 123.971 160.985 124.036 160.976 124.114C160.959 124.686 160.794 125.202 160.482 125.661C160.17 126.112 159.728 126.471 159.156 126.74C158.584 127 157.913 127.13 157.141 127.13ZM161.857 127C161.788 127 161.723 126.974 161.662 126.922C161.61 126.87 161.584 126.805 161.584 126.727L161.61 126.61L164.743 118.225C164.804 118.008 164.956 117.9 165.198 117.9H166.615C166.841 117.9 166.992 118.008 167.07 118.225L170.203 126.61C170.212 126.636 170.216 126.675 170.216 126.727C170.216 126.805 170.19 126.87 170.138 126.922C170.086 126.974 170.026 127 169.956 127H168.825C168.713 127 168.626 126.974 168.565 126.922C168.505 126.87 168.466 126.814 168.448 126.753L167.837 125.167H163.976L163.365 126.753C163.296 126.918 163.17 127 162.988 127H161.857ZM167.382 123.672L165.9 119.655L164.431 123.672H167.382ZM172.792 127C172.705 127 172.632 126.97 172.571 126.909C172.51 126.848 172.48 126.775 172.48 126.688V119.499H170.075C169.988 119.499 169.915 119.469 169.854 119.408C169.793 119.347 169.763 119.274 169.763 119.187V118.225C169.763 118.13 169.789 118.052 169.841 117.991C169.902 117.93 169.98 117.9 170.075 117.9H176.705C176.8 117.9 176.878 117.93 176.939 117.991C177 118.052 177.03 118.13 177.03 118.225V119.187C177.03 119.274 177 119.347 176.939 119.408C176.878 119.469 176.8 119.499 176.705 119.499H174.313V126.688C174.313 126.775 174.283 126.848 174.222 126.909C174.161 126.97 174.083 127 173.988 127H172.792ZM178.661 127C178.574 127 178.501 126.97 178.44 126.909C178.379 126.848 178.349 126.775 178.349 126.688V118.212C178.349 118.117 178.379 118.043 178.44 117.991C178.501 117.93 178.574 117.9 178.661 117.9H179.883C179.978 117.9 180.052 117.93 180.104 117.991C180.165 118.043 180.195 118.117 180.195 118.212V126.688C180.195 126.775 180.165 126.848 180.104 126.909C180.052 126.97 179.978 127 179.883 127H178.661ZM185.731 127.13C184.552 127.13 183.633 126.831 182.975 126.233C182.316 125.635 181.969 124.747 181.935 123.568C181.926 123.317 181.922 122.948 181.922 122.463C181.922 121.969 181.926 121.596 181.935 121.345C181.969 120.192 182.325 119.308 183.001 118.693C183.677 118.078 184.587 117.77 185.731 117.77C186.875 117.77 187.785 118.078 188.461 118.693C189.145 119.308 189.505 120.192 189.54 121.345C189.557 121.848 189.566 122.22 189.566 122.463C189.566 122.697 189.557 123.065 189.54 123.568C189.496 124.747 189.145 125.635 188.487 126.233C187.828 126.831 186.909 127.13 185.731 127.13ZM185.731 125.635C186.311 125.635 186.775 125.462 187.122 125.115C187.468 124.76 187.655 124.222 187.681 123.503C187.698 122.983 187.707 122.632 187.707 122.45C187.707 122.251 187.698 121.9 187.681 121.397C187.655 120.678 187.468 120.145 187.122 119.798C186.775 119.443 186.311 119.265 185.731 119.265C185.159 119.265 184.699 119.443 184.353 119.798C184.006 120.145 183.82 120.678 183.794 121.397C183.785 121.648 183.781 121.999 183.781 122.45C183.781 122.892 183.785 123.243 183.794 123.503C183.82 124.222 184.002 124.76 184.34 125.115C184.686 125.462 185.15 125.635 185.731 125.635ZM191.585 127C191.498 127 191.424 126.97 191.364 126.909C191.303 126.848 191.273 126.775 191.273 126.688V118.225C191.273 118.13 191.299 118.052 191.351 117.991C191.411 117.93 191.489 117.9 191.585 117.9H192.586C192.69 117.9 192.768 117.922 192.82 117.965C192.872 118 192.919 118.047 192.963 118.108L196.707 123.932V118.225C196.707 118.13 196.733 118.052 196.785 117.991C196.845 117.93 196.923 117.9 197.019 117.9H198.111C198.206 117.9 198.284 117.93 198.345 117.991C198.405 118.052 198.436 118.13 198.436 118.225V126.675C198.436 126.77 198.405 126.848 198.345 126.909C198.284 126.97 198.21 127 198.124 127H197.11C196.962 127 196.837 126.931 196.733 126.792L193.002 121.098V126.688C193.002 126.783 192.971 126.861 192.911 126.922C192.85 126.974 192.772 127 192.677 127H191.585ZM203.623 127.13C202.852 127.13 202.189 127.013 201.634 126.779C201.08 126.545 200.659 126.237 200.373 125.856C200.087 125.475 199.936 125.063 199.918 124.621C199.918 124.543 199.944 124.478 199.996 124.426C200.048 124.374 200.113 124.348 200.191 124.348H201.348C201.452 124.348 201.53 124.37 201.582 124.413C201.643 124.448 201.699 124.508 201.751 124.595C201.838 124.89 202.037 125.137 202.349 125.336C202.661 125.535 203.086 125.635 203.623 125.635C204.239 125.635 204.702 125.535 205.014 125.336C205.326 125.128 205.482 124.842 205.482 124.478C205.482 124.235 205.4 124.036 205.235 123.88C205.079 123.724 204.841 123.59 204.52 123.477C204.208 123.364 203.74 123.226 203.116 123.061C202.094 122.818 201.344 122.498 200.867 122.099C200.399 121.692 200.165 121.115 200.165 120.37C200.165 119.867 200.3 119.421 200.568 119.031C200.846 118.641 201.24 118.333 201.751 118.108C202.271 117.883 202.874 117.77 203.558 117.77C204.269 117.77 204.884 117.896 205.404 118.147C205.924 118.398 206.319 118.715 206.587 119.096C206.865 119.469 207.012 119.841 207.029 120.214C207.029 120.292 207.003 120.357 206.951 120.409C206.899 120.461 206.834 120.487 206.756 120.487H205.547C205.365 120.487 205.24 120.405 205.17 120.24C205.118 119.963 204.945 119.733 204.65 119.551C204.356 119.36 203.992 119.265 203.558 119.265C203.073 119.265 202.692 119.356 202.414 119.538C202.137 119.72 201.998 119.984 201.998 120.331C201.998 120.574 202.068 120.773 202.206 120.929C202.345 121.085 202.562 121.224 202.856 121.345C203.16 121.466 203.593 121.601 204.156 121.748C204.919 121.921 205.526 122.116 205.976 122.333C206.436 122.55 206.774 122.823 206.99 123.152C207.207 123.481 207.315 123.902 207.315 124.413C207.315 124.968 207.159 125.453 206.847 125.869C206.544 126.276 206.111 126.588 205.547 126.805C204.993 127.022 204.351 127.13 203.623 127.13Z" fill="#A0A0A5"/>
<rect x="41.5" y="142.5" width="319" height="44" rx="2.5" fill="#F5F7F9"/>
<path d="M56.69 170.26C56.61 170.26 56.54 170.23 56.48 170.17C56.42 170.11 56.39 170.04 56.39 169.96C56.39 169.92 56.405 169.86 56.435 169.78L61.565 157.48C61.645 157.3 61.775 157.21 61.955 157.21H62.54C62.62 157.21 62.69 157.24 62.75 157.3C62.81 157.36 62.84 157.43 62.84 157.51C62.84 157.58 62.83 157.64 62.81 157.69L57.665 169.99C57.585 170.17 57.455 170.26 57.275 170.26H56.69ZM62.8256 169C62.7456 169 62.6756 168.97 62.6156 168.91C62.5556 168.85 62.5256 168.78 62.5256 168.7C62.5256 168.62 62.5306 168.565 62.5406 168.535L66.2606 158.83C66.3406 158.61 66.5006 158.5 66.7406 158.5H67.7606C68.0006 158.5 68.1606 158.61 68.2406 158.83L71.9456 168.535L71.9756 168.7C71.9756 168.78 71.9456 168.85 71.8856 168.91C71.8256 168.97 71.7556 169 71.6756 169H70.9106C70.8006 169 70.7156 168.975 70.6556 168.925C70.5956 168.865 70.5556 168.805 70.5356 168.745L69.7106 166.615H64.7906L63.9656 168.745C63.9456 168.805 63.9006 168.865 63.8306 168.925C63.7706 168.975 63.6906 169 63.5906 169H62.8256ZM69.2756 165.325L67.2506 160L65.2256 165.325H69.2756ZM76.1919 169.15C75.2419 169.15 74.5069 168.845 73.9869 168.235C73.4669 167.615 73.2069 166.795 73.2069 165.775V161.545C73.2069 161.445 73.2369 161.365 73.2969 161.305C73.3669 161.235 73.4519 161.2 73.5519 161.2H74.3019C74.4019 161.2 74.4819 161.235 74.5419 161.305C74.6119 161.365 74.6469 161.445 74.6469 161.545V165.7C74.6469 167.19 75.2969 167.935 76.5969 167.935C77.2269 167.935 77.7269 167.74 78.0969 167.35C78.4669 166.95 78.6519 166.4 78.6519 165.7V161.545C78.6519 161.445 78.6819 161.365 78.7419 161.305C78.8119 161.235 78.8969 161.2 78.9969 161.2H79.7469C79.8469 161.2 79.9269 161.235 79.9869 161.305C80.0469 161.365 80.0769 161.445 80.0769 161.545V168.655C80.0769 168.755 80.0469 168.84 79.9869 168.91C79.9269 168.97 79.8469 169 79.7469 169H79.0419C78.9419 169 78.8569 168.97 78.7869 168.91C78.7269 168.84 78.6969 168.755 78.6969 168.655V167.995C78.4169 168.375 78.0769 168.665 77.6769 168.865C77.2769 169.055 76.7819 169.15 76.1919 169.15ZM85.5003 172.3C84.6803 172.3 84.0203 172.16 83.5203 171.88C83.0203 171.61 82.6653 171.3 82.4553 170.95C82.2453 170.6 82.1303 170.285 82.1103 170.005C82.1003 169.905 82.1303 169.82 82.2003 169.75C82.2803 169.68 82.3653 169.645 82.4553 169.645H83.1753C83.2653 169.645 83.3403 169.665 83.4003 169.705C83.4603 169.755 83.5103 169.84 83.5503 169.96C83.6703 170.28 83.8653 170.555 84.1353 170.785C84.4153 171.025 84.8453 171.145 85.4253 171.145C86.1653 171.145 86.7103 170.985 87.0603 170.665C87.4103 170.355 87.5853 169.8 87.5853 169V167.98C87.3253 168.31 86.9953 168.575 86.5953 168.775C86.1953 168.965 85.7203 169.06 85.1703 169.06C84.1103 169.06 83.3153 168.725 82.7853 168.055C82.2653 167.375 81.9903 166.515 81.9603 165.475L81.9453 165.055L81.9603 164.65C81.9903 163.62 82.2703 162.765 82.8003 162.085C83.3303 161.395 84.1203 161.05 85.1703 161.05C86.2203 161.05 87.0403 161.435 87.6303 162.205V161.56C87.6303 161.46 87.6603 161.375 87.7203 161.305C87.7903 161.235 87.8753 161.2 87.9753 161.2H88.6653C88.7653 161.2 88.8503 161.235 88.9203 161.305C88.9903 161.375 89.0253 161.46 89.0253 161.56V168.835C89.0253 171.145 87.8503 172.3 85.5003 172.3ZM85.4703 167.86C86.1503 167.86 86.6653 167.635 87.0153 167.185C87.3653 166.735 87.5553 166.2 87.5853 165.58C87.5953 165.49 87.6003 165.315 87.6003 165.055C87.6003 164.805 87.5953 164.635 87.5853 164.545C87.5553 163.925 87.3653 163.39 87.0153 162.94C86.6753 162.49 86.1603 162.265 85.4703 162.265C84.7603 162.265 84.2453 162.485 83.9253 162.925C83.6053 163.365 83.4303 163.945 83.4003 164.665L83.3853 165.055L83.4003 165.46C83.4303 166.17 83.6053 166.75 83.9253 167.2C84.2453 167.64 84.7603 167.86 85.4703 167.86ZM91.2255 169C91.1255 169 91.0405 168.97 90.9705 168.91C90.9105 168.84 90.8805 168.755 90.8805 168.655V168.175C90.8805 167.945 91.0055 167.725 91.2555 167.515L94.4355 164.335C95.2055 163.695 95.7355 163.175 96.0255 162.775C96.3155 162.365 96.4605 161.935 96.4605 161.485C96.4605 160.905 96.2955 160.45 95.9655 160.12C95.6455 159.79 95.1755 159.625 94.5555 159.625C93.9755 159.625 93.5105 159.8 93.1605 160.15C92.8105 160.49 92.5955 160.945 92.5155 161.515C92.4955 161.635 92.4455 161.725 92.3655 161.785C92.2955 161.835 92.2155 161.86 92.1255 161.86H91.3455C91.2555 161.86 91.1805 161.835 91.1205 161.785C91.0605 161.725 91.0305 161.655 91.0305 161.575C91.0505 161.035 91.1955 160.52 91.4655 160.03C91.7355 159.53 92.1305 159.125 92.6505 158.815C93.1805 158.495 93.8155 158.335 94.5555 158.335C95.6855 158.335 96.5355 158.63 97.1055 159.22C97.6855 159.8 97.9755 160.54 97.9755 161.44C97.9755 162.07 97.8155 162.64 97.4955 163.15C97.1855 163.65 96.7005 164.19 96.0405 164.77L93.1605 167.695H97.8405C97.9505 167.695 98.0355 167.73 98.0955 167.8C98.1655 167.86 98.2005 167.94 98.2005 168.04V168.655C98.2005 168.755 98.1655 168.84 98.0955 168.91C98.0255 168.97 97.9405 169 97.8405 169H91.2255ZM103.704 169.15C102.414 169.15 101.469 168.775 100.869 168.025C100.269 167.275 99.9492 166.29 99.9092 165.07C99.8992 164.8 99.8942 164.365 99.8942 163.765C99.8942 163.145 99.8992 162.695 99.9092 162.415C99.9392 161.215 100.259 160.24 100.869 159.49C101.479 158.73 102.424 158.35 103.704 158.35C104.994 158.35 105.944 158.73 106.554 159.49C107.164 160.24 107.484 161.215 107.514 162.415C107.534 162.975 107.544 163.425 107.544 163.765C107.544 164.095 107.534 164.53 107.514 165.07C107.474 166.29 107.154 167.275 106.554 168.025C105.954 168.775 105.004 169.15 103.704 169.15ZM103.704 167.86C104.454 167.86 105.019 167.61 105.399 167.11C105.789 166.61 105.994 165.905 106.014 164.995C106.034 164.415 106.044 163.995 106.044 163.735C106.044 163.455 106.034 163.045 106.014 162.505C105.994 161.605 105.794 160.9 105.414 160.39C105.034 159.88 104.464 159.625 103.704 159.625C102.954 159.625 102.384 159.88 101.994 160.39C101.614 160.9 101.414 161.605 101.394 162.505L101.379 163.735L101.394 164.995C101.414 165.905 101.614 166.61 101.994 167.11C102.384 167.61 102.954 167.86 103.704 167.86ZM109.551 169C109.451 169 109.366 168.97 109.296 168.91C109.236 168.84 109.206 168.755 109.206 168.655V168.175C109.206 167.945 109.331 167.725 109.581 167.515L112.761 164.335C113.531 163.695 114.061 163.175 114.351 162.775C114.641 162.365 114.786 161.935 114.786 161.485C114.786 160.905 114.621 160.45 114.291 160.12C113.971 159.79 113.501 159.625 112.881 159.625C112.301 159.625 111.836 159.8 111.486 160.15C111.136 160.49 110.921 160.945 110.841 161.515C110.821 161.635 110.771 161.725 110.691 161.785C110.621 161.835 110.541 161.86 110.451 161.86H109.671C109.581 161.86 109.506 161.835 109.446 161.785C109.386 161.725 109.356 161.655 109.356 161.575C109.376 161.035 109.521 160.52 109.791 160.03C110.061 159.53 110.456 159.125 110.976 158.815C111.506 158.495 112.141 158.335 112.881 158.335C114.011 158.335 114.861 158.63 115.431 159.22C116.011 159.8 116.301 160.54 116.301 161.44C116.301 162.07 116.141 162.64 115.821 163.15C115.511 163.65 115.026 164.19 114.366 164.77L111.486 167.695H116.166C116.276 167.695 116.361 167.73 116.421 167.8C116.491 167.86 116.526 167.94 116.526 168.04V168.655C116.526 168.755 116.491 168.84 116.421 168.91C116.351 168.97 116.266 169 116.166 169H109.551ZM121.744 169.15C120.954 169.15 120.269 169.025 119.689 168.775C119.119 168.515 118.684 168.18 118.384 167.77C118.094 167.36 117.939 166.93 117.919 166.48C117.919 166.39 117.949 166.32 118.009 166.27C118.069 166.21 118.144 166.18 118.234 166.18H118.969C119.179 166.18 119.319 166.29 119.389 166.51C119.519 167.01 119.799 167.365 120.229 167.575C120.659 167.775 121.164 167.875 121.744 167.875C122.454 167.875 123.019 167.71 123.439 167.38C123.859 167.04 124.069 166.555 124.069 165.925C124.069 164.715 123.334 164.11 121.864 164.11H120.439C120.339 164.11 120.254 164.08 120.184 164.02C120.124 163.95 120.094 163.865 120.094 163.765V163.36C120.094 163.22 120.149 163.085 120.259 162.955L123.169 159.775H118.744C118.644 159.775 118.559 159.745 118.489 159.685C118.429 159.615 118.399 159.53 118.399 159.43V158.86C118.399 158.76 118.429 158.675 118.489 158.605C118.559 158.535 118.644 158.5 118.744 158.5H124.729C124.839 158.5 124.924 158.535 124.984 158.605C125.054 158.665 125.089 158.75 125.089 158.86V159.4C125.089 159.52 125.034 159.635 124.924 159.745L122.029 162.97L122.269 162.985C123.289 163.015 124.094 163.28 124.684 163.78C125.274 164.28 125.569 165.01 125.569 165.97C125.569 166.62 125.404 167.185 125.074 167.665C124.744 168.145 124.289 168.515 123.709 168.775C123.129 169.025 122.474 169.15 121.744 169.15ZM126.915 170.26C126.835 170.26 126.765 170.23 126.705 170.17C126.645 170.11 126.615 170.04 126.615 169.96C126.615 169.92 126.63 169.86 126.66 169.78L131.79 157.48C131.87 157.3 132 157.21 132.18 157.21H132.765C132.845 157.21 132.915 157.24 132.975 157.3C133.035 157.36 133.065 157.43 133.065 157.51C133.065 157.58 133.055 157.64 133.035 157.69L127.89 169.99C127.81 170.17 127.68 170.26 127.5 170.26H126.915ZM137.542 169C137.442 169 137.357 168.97 137.287 168.91C137.227 168.84 137.197 168.755 137.197 168.655V160.255L134.707 162.175C134.637 162.235 134.562 162.265 134.482 162.265C134.392 162.265 134.307 162.215 134.227 162.115L133.837 161.62C133.787 161.55 133.762 161.48 133.762 161.41C133.762 161.29 133.812 161.195 133.912 161.125L137.182 158.605C137.292 158.535 137.422 158.5 137.572 158.5H138.337C138.437 158.5 138.517 158.535 138.577 158.605C138.647 158.665 138.682 158.745 138.682 158.845V168.655C138.682 168.755 138.647 168.84 138.577 168.91C138.517 168.97 138.437 169 138.337 169H137.542ZM144.078 169.15C143.008 169.15 142.168 168.85 141.558 168.25C140.958 167.64 140.638 166.79 140.598 165.7L140.583 165.1L140.598 164.5C140.638 163.41 140.958 162.565 141.558 161.965C142.168 161.355 143.008 161.05 144.078 161.05C144.798 161.05 145.408 161.18 145.908 161.44C146.408 161.7 146.778 162.02 147.018 162.4C147.268 162.78 147.403 163.16 147.423 163.54C147.433 163.64 147.403 163.72 147.333 163.78C147.263 163.84 147.178 163.87 147.078 163.87H146.358C146.258 163.87 146.183 163.85 146.133 163.81C146.083 163.77 146.033 163.69 145.983 163.57C145.813 163.09 145.573 162.75 145.263 162.55C144.953 162.34 144.563 162.235 144.093 162.235C143.473 162.235 142.978 162.43 142.608 162.82C142.248 163.2 142.053 163.785 142.023 164.575L142.008 165.115L142.023 165.625C142.053 166.425 142.248 167.015 142.608 167.395C142.968 167.775 143.463 167.965 144.093 167.965C144.563 167.965 144.953 167.865 145.263 167.665C145.573 167.455 145.813 167.11 145.983 166.63C146.033 166.51 146.083 166.43 146.133 166.39C146.183 166.34 146.258 166.315 146.358 166.315H147.078C147.178 166.315 147.263 166.35 147.333 166.42C147.403 166.48 147.433 166.56 147.423 166.66C147.403 167.03 147.268 167.41 147.018 167.8C146.778 168.18 146.408 168.5 145.908 168.76C145.418 169.02 144.808 169.15 144.078 169.15ZM150.33 169C150.24 169 150.165 168.97 150.105 168.91C150.055 168.84 150.03 168.76 150.03 168.67L150.06 168.535L153.795 159.805H148.875C148.775 159.805 148.69 159.775 148.62 159.715C148.56 159.645 148.53 159.56 148.53 159.46V158.86C148.53 158.75 148.56 158.665 148.62 158.605C148.69 158.535 148.775 158.5 148.875 158.5H155.025C155.135 158.5 155.22 158.535 155.28 158.605C155.35 158.665 155.385 158.75 155.385 158.86V159.415C155.385 159.595 155.345 159.79 155.265 160L151.575 168.625C151.525 168.735 151.465 168.825 151.395 168.895C151.335 168.965 151.25 169 151.14 169H150.33ZM157.255 169C157.155 169 157.07 168.97 157 168.91C156.94 168.84 156.91 168.755 156.91 168.655V158.695C156.91 158.595 156.94 158.515 157 158.455C157.07 158.385 157.155 158.35 157.255 158.35H158.005C158.105 158.35 158.185 158.385 158.245 158.455C158.315 158.515 158.35 158.595 158.35 158.695V162.19C158.64 161.82 158.98 161.54 159.37 161.35C159.76 161.15 160.245 161.05 160.825 161.05C161.785 161.05 162.53 161.36 163.06 161.98C163.6 162.59 163.87 163.405 163.87 164.425V168.655C163.87 168.755 163.835 168.84 163.765 168.91C163.705 168.97 163.625 169 163.525 169H162.775C162.675 169 162.59 168.97 162.52 168.91C162.46 168.84 162.43 168.755 162.43 168.655V164.5C162.43 163.79 162.255 163.24 161.905 162.85C161.565 162.46 161.07 162.265 160.42 162.265C159.79 162.265 159.285 162.465 158.905 162.865C158.535 163.255 158.35 163.8 158.35 164.5V168.655C158.35 168.755 158.315 168.84 158.245 168.91C158.185 168.97 158.105 169 158.005 169H157.255ZM169.681 169.15C168.391 169.15 167.446 168.775 166.846 168.025C166.246 167.275 165.926 166.29 165.886 165.07C165.876 164.8 165.871 164.365 165.871 163.765C165.871 163.145 165.876 162.695 165.886 162.415C165.916 161.215 166.236 160.24 166.846 159.49C167.456 158.73 168.401 158.35 169.681 158.35C170.971 158.35 171.921 158.73 172.531 159.49C173.141 160.24 173.461 161.215 173.491 162.415C173.511 162.975 173.521 163.425 173.521 163.765C173.521 164.095 173.511 164.53 173.491 165.07C173.451 166.29 173.131 167.275 172.531 168.025C171.931 168.775 170.981 169.15 169.681 169.15ZM169.681 167.86C170.431 167.86 170.996 167.61 171.376 167.11C171.766 166.61 171.971 165.905 171.991 164.995C172.011 164.415 172.021 163.995 172.021 163.735C172.021 163.455 172.011 163.045 171.991 162.505C171.971 161.605 171.771 160.9 171.391 160.39C171.011 159.88 170.441 159.625 169.681 159.625C168.931 159.625 168.361 159.88 167.971 160.39C167.591 160.9 167.391 161.605 167.371 162.505L167.356 163.735L167.371 164.995C167.391 165.905 167.591 166.61 167.971 167.11C168.361 167.61 168.931 167.86 169.681 167.86ZM176.922 171.85C176.842 171.85 176.772 171.82 176.712 171.76C176.652 171.7 176.622 171.63 176.622 171.55C176.622 171.48 176.647 171.39 176.697 171.28L177.852 168.535L174.987 161.77C174.937 161.64 174.912 161.555 174.912 161.515C174.912 161.425 174.942 161.35 175.002 161.29C175.062 161.23 175.137 161.2 175.227 161.2H175.962C176.122 161.2 176.242 161.285 176.322 161.455L178.602 166.915L180.942 161.455C181.022 161.285 181.147 161.2 181.317 161.2H182.022C182.112 161.2 182.187 161.23 182.247 161.29C182.307 161.35 182.337 161.42 182.337 161.5C182.337 161.53 182.312 161.62 182.262 161.77L178.002 171.595C177.922 171.765 177.797 171.85 177.627 171.85H176.922ZM187.689 169.15C186.609 169.15 185.789 168.775 185.229 168.025V168.655C185.229 168.755 185.194 168.84 185.124 168.91C185.064 168.97 184.984 169 184.884 169H184.194C184.094 169 184.009 168.97 183.939 168.91C183.879 168.84 183.849 168.755 183.849 168.655V158.695C183.849 158.595 183.879 158.515 183.939 158.455C184.009 158.385 184.094 158.35 184.194 158.35H184.929C185.029 158.35 185.109 158.385 185.169 158.455C185.229 158.515 185.259 158.595 185.259 158.695V162.145C185.849 161.415 186.659 161.05 187.689 161.05C188.729 161.05 189.514 161.395 190.044 162.085C190.574 162.765 190.859 163.62 190.899 164.65C190.909 164.76 190.914 164.91 190.914 165.1C190.914 165.29 190.909 165.44 190.899 165.55C190.859 166.59 190.574 167.45 190.044 168.13C189.514 168.81 188.729 169.15 187.689 169.15ZM187.374 167.935C188.084 167.935 188.599 167.715 188.919 167.275C189.249 166.835 189.429 166.255 189.459 165.535C189.469 165.435 189.474 165.29 189.474 165.1C189.474 163.21 188.774 162.265 187.374 162.265C186.704 162.265 186.189 162.485 185.829 162.925C185.469 163.365 185.279 163.88 185.259 164.47L185.244 165.055L185.259 165.625C185.289 166.255 185.474 166.8 185.814 167.26C186.164 167.71 186.684 167.935 187.374 167.935ZM195.95 172.3C195.13 172.3 194.47 172.16 193.97 171.88C193.47 171.61 193.115 171.3 192.905 170.95C192.695 170.6 192.58 170.285 192.56 170.005C192.55 169.905 192.58 169.82 192.65 169.75C192.73 169.68 192.815 169.645 192.905 169.645H193.625C193.715 169.645 193.79 169.665 193.85 169.705C193.91 169.755 193.96 169.84 194 169.96C194.12 170.28 194.315 170.555 194.585 170.785C194.865 171.025 195.295 171.145 195.875 171.145C196.615 171.145 197.16 170.985 197.51 170.665C197.86 170.355 198.035 169.8 198.035 169V167.98C197.775 168.31 197.445 168.575 197.045 168.775C196.645 168.965 196.17 169.06 195.62 169.06C194.56 169.06 193.765 168.725 193.235 168.055C192.715 167.375 192.44 166.515 192.41 165.475L192.395 165.055L192.41 164.65C192.44 163.62 192.72 162.765 193.25 162.085C193.78 161.395 194.57 161.05 195.62 161.05C196.67 161.05 197.49 161.435 198.08 162.205V161.56C198.08 161.46 198.11 161.375 198.17 161.305C198.24 161.235 198.325 161.2 198.425 161.2H199.115C199.215 161.2 199.3 161.235 199.37 161.305C199.44 161.375 199.475 161.46 199.475 161.56V168.835C199.475 171.145 198.3 172.3 195.95 172.3ZM195.92 167.86C196.6 167.86 197.115 167.635 197.465 167.185C197.815 166.735 198.005 166.2 198.035 165.58C198.045 165.49 198.05 165.315 198.05 165.055C198.05 164.805 198.045 164.635 198.035 164.545C198.005 163.925 197.815 163.39 197.465 162.94C197.125 162.49 196.61 162.265 195.92 162.265C195.21 162.265 194.695 162.485 194.375 162.925C194.055 163.365 193.88 163.945 193.85 164.665L193.835 165.055L193.85 165.46C193.88 166.17 194.055 166.75 194.375 167.2C194.695 167.64 195.21 167.86 195.92 167.86ZM204.975 169.15C204.215 169.15 203.56 169.015 203.01 168.745C202.46 168.475 202.035 168.12 201.735 167.68C201.445 167.24 201.29 166.77 201.27 166.27V166.24C201.27 166.16 201.3 166.095 201.36 166.045C201.42 165.995 201.49 165.97 201.57 165.97H202.38C202.59 165.97 202.725 166.08 202.785 166.3C202.925 166.83 203.195 167.225 203.595 167.485C203.995 167.745 204.455 167.875 204.975 167.875C205.645 167.875 206.2 167.675 206.64 167.275C207.09 166.865 207.315 166.3 207.315 165.58C207.315 164.93 207.09 164.405 206.64 164.005C206.2 163.605 205.645 163.405 204.975 163.405C204.615 163.405 204.325 163.455 204.105 163.555C203.885 163.645 203.665 163.775 203.445 163.945C203.325 164.035 203.22 164.105 203.13 164.155C203.05 164.195 202.96 164.215 202.86 164.215H202.08C201.99 164.215 201.91 164.185 201.84 164.125C201.77 164.055 201.74 163.975 201.75 163.885L202.23 158.875C202.24 158.755 202.275 158.665 202.335 158.605C202.405 158.535 202.495 158.5 202.605 158.5H207.84C207.94 158.5 208.02 158.535 208.08 158.605C208.15 158.665 208.185 158.745 208.185 158.845V159.43C208.185 159.53 208.15 159.615 208.08 159.685C208.02 159.745 207.94 159.775 207.84 159.775H203.52L203.235 162.73C203.775 162.39 204.425 162.22 205.185 162.22C205.845 162.22 206.45 162.355 207 162.625C207.56 162.895 208 163.285 208.32 163.795C208.65 164.305 208.815 164.905 208.815 165.595C208.815 166.335 208.65 166.975 208.32 167.515C208 168.045 207.55 168.45 206.97 168.73C206.39 169.01 205.725 169.15 204.975 169.15ZM210.971 169C210.871 169 210.786 168.97 210.716 168.91C210.656 168.84 210.626 168.755 210.626 168.655V158.695C210.626 158.595 210.656 158.515 210.716 158.455C210.786 158.385 210.871 158.35 210.971 158.35H211.676C211.776 158.35 211.856 158.385 211.916 158.455C211.986 158.515 212.021 158.595 212.021 158.695V168.655C212.021 168.755 211.986 168.84 211.916 168.91C211.856 168.97 211.776 169 211.676 169H210.971ZM214.618 169C214.518 169 214.433 168.97 214.363 168.91C214.303 168.84 214.273 168.755 214.273 168.655V158.695C214.273 158.595 214.303 158.515 214.363 158.455C214.433 158.385 214.518 158.35 214.618 158.35H215.323C215.423 158.35 215.503 158.385 215.563 158.455C215.633 158.515 215.668 158.595 215.668 158.695V168.655C215.668 168.755 215.633 168.84 215.563 168.91C215.503 168.97 215.423 169 215.323 169H214.618ZM221.266 169.15C220.476 169.15 219.791 169.025 219.211 168.775C218.641 168.515 218.206 168.18 217.906 167.77C217.616 167.36 217.461 166.93 217.441 166.48C217.441 166.39 217.471 166.32 217.531 166.27C217.591 166.21 217.666 166.18 217.756 166.18H218.491C218.701 166.18 218.841 166.29 218.911 166.51C219.041 167.01 219.321 167.365 219.751 167.575C220.181 167.775 220.686 167.875 221.266 167.875C221.976 167.875 222.541 167.71 222.961 167.38C223.381 167.04 223.591 166.555 223.591 165.925C223.591 164.715 222.856 164.11 221.386 164.11H219.961C219.861 164.11 219.776 164.08 219.706 164.02C219.646 163.95 219.616 163.865 219.616 163.765V163.36C219.616 163.22 219.671 163.085 219.781 162.955L222.691 159.775H218.266C218.166 159.775 218.081 159.745 218.011 159.685C217.951 159.615 217.921 159.53 217.921 159.43V158.86C217.921 158.76 217.951 158.675 218.011 158.605C218.081 158.535 218.166 158.5 218.266 158.5H224.251C224.361 158.5 224.446 158.535 224.506 158.605C224.576 158.665 224.611 158.75 224.611 158.86V159.4C224.611 159.52 224.556 159.635 224.446 159.745L221.551 162.97L221.791 162.985C222.811 163.015 223.616 163.28 224.206 163.78C224.796 164.28 225.091 165.01 225.091 165.97C225.091 166.62 224.926 167.185 224.596 167.665C224.266 168.145 223.811 168.515 223.231 168.775C222.651 169.025 221.996 169.15 221.266 169.15ZM228.28 171.85C228.2 171.85 228.13 171.82 228.07 171.76C228.01 171.7 227.98 171.63 227.98 171.55C227.98 171.48 228.005 171.39 228.055 171.28L229.21 168.535L226.345 161.77C226.295 161.64 226.27 161.555 226.27 161.515C226.27 161.425 226.3 161.35 226.36 161.29C226.42 161.23 226.495 161.2 226.585 161.2H227.32C227.48 161.2 227.6 161.285 227.68 161.455L229.96 166.915L232.3 161.455C232.38 161.285 232.505 161.2 232.675 161.2H233.38C233.47 161.2 233.545 161.23 233.605 161.29C233.665 161.35 233.695 161.42 233.695 161.5C233.695 161.53 233.67 161.62 233.62 161.77L229.36 171.595C229.28 171.765 229.155 171.85 228.985 171.85H228.28ZM238.122 169.15C237.022 169.15 236.167 168.84 235.557 168.22C234.957 167.6 234.637 166.775 234.597 165.745L234.582 165.1L234.597 164.455C234.637 163.435 234.962 162.615 235.572 161.995C236.182 161.365 237.032 161.05 238.122 161.05C239.212 161.05 240.062 161.365 240.672 161.995C241.282 162.615 241.607 163.435 241.647 164.455C241.657 164.565 241.662 164.78 241.662 165.1C241.662 165.42 241.657 165.635 241.647 165.745C241.607 166.775 241.282 167.6 240.672 168.22C240.072 168.84 239.222 169.15 238.122 169.15ZM238.122 167.995C238.752 167.995 239.247 167.795 239.607 167.395C239.977 166.995 240.177 166.42 240.207 165.67C240.217 165.57 240.222 165.38 240.222 165.1C240.222 164.82 240.217 164.63 240.207 164.53C240.177 163.78 239.977 163.205 239.607 162.805C239.247 162.405 238.752 162.205 238.122 162.205C237.492 162.205 236.992 162.405 236.622 162.805C236.252 163.205 236.057 163.78 236.037 164.53L236.022 165.1L236.037 165.67C236.057 166.42 236.252 166.995 236.622 167.395C236.992 167.795 237.492 167.995 238.122 167.995ZM244.578 169C244.478 169 244.393 168.97 244.323 168.91C244.263 168.84 244.233 168.755 244.233 168.655V162.4H242.958C242.858 162.4 242.773 162.37 242.703 162.31C242.643 162.24 242.613 162.155 242.613 162.055V161.545C242.613 161.445 242.643 161.365 242.703 161.305C242.773 161.235 242.858 161.2 242.958 161.2H244.233V160.45C244.233 158.75 245.093 157.9 246.813 157.9H247.713C247.813 157.9 247.893 157.935 247.953 158.005C248.023 158.065 248.058 158.145 248.058 158.245V158.755C248.058 158.855 248.023 158.94 247.953 159.01C247.893 159.07 247.813 159.1 247.713 159.1H246.843C246.393 159.1 246.078 159.22 245.898 159.46C245.718 159.69 245.628 160.045 245.628 160.525V161.2H247.563C247.663 161.2 247.743 161.235 247.803 161.305C247.873 161.365 247.908 161.445 247.908 161.545V162.055C247.908 162.155 247.873 162.24 247.803 162.31C247.743 162.37 247.663 162.4 247.563 162.4H245.628V168.655C245.628 168.755 245.593 168.84 245.523 168.91C245.463 168.97 245.383 169 245.283 169H244.578ZM252.269 169C250.689 169 249.899 168.12 249.899 166.36V162.4H248.729C248.629 162.4 248.544 162.37 248.474 162.31C248.414 162.24 248.384 162.155 248.384 162.055V161.545C248.384 161.445 248.414 161.365 248.474 161.305C248.544 161.235 248.629 161.2 248.729 161.2H249.899V158.695C249.899 158.595 249.929 158.515 249.989 158.455C250.059 158.385 250.144 158.35 250.244 158.35H250.949C251.049 158.35 251.129 158.385 251.189 158.455C251.259 158.515 251.294 158.595 251.294 158.695V161.2H253.154C253.254 161.2 253.334 161.235 253.394 161.305C253.464 161.365 253.499 161.445 253.499 161.545V162.055C253.499 162.155 253.464 162.24 253.394 162.31C253.334 162.37 253.254 162.4 253.154 162.4H251.294V166.255C251.294 166.755 251.379 167.135 251.549 167.395C251.719 167.645 251.999 167.77 252.389 167.77H253.304C253.404 167.77 253.484 167.805 253.544 167.875C253.614 167.935 253.649 168.015 253.649 168.115V168.655C253.649 168.755 253.614 168.84 253.544 168.91C253.484 168.97 253.404 169 253.304 169H252.269ZM255.429 169C255.329 169 255.244 168.97 255.174 168.91C255.114 168.84 255.084 168.755 255.084 168.655V161.545C255.084 161.445 255.114 161.365 255.174 161.305C255.244 161.235 255.329 161.2 255.429 161.2H256.134C256.234 161.2 256.314 161.235 256.374 161.305C256.444 161.365 256.479 161.445 256.479 161.545V162.205C256.769 161.835 257.109 161.55 257.499 161.35C257.899 161.15 258.394 161.05 258.984 161.05C259.944 161.05 260.689 161.36 261.219 161.98C261.759 162.59 262.029 163.405 262.029 164.425V168.655C262.029 168.755 261.994 168.84 261.924 168.91C261.864 168.97 261.784 169 261.684 169H260.934C260.834 169 260.749 168.97 260.679 168.91C260.619 168.84 260.589 168.755 260.589 168.655V164.5C260.589 163.79 260.414 163.24 260.064 162.85C259.724 162.46 259.229 162.265 258.579 162.265C257.949 162.265 257.449 162.465 257.079 162.865C256.709 163.255 256.524 163.8 256.524 164.5V168.655C256.524 168.755 256.489 168.84 256.419 168.91C256.359 168.97 256.279 169 256.179 169H255.429ZM264.45 165.13C264.35 165.13 264.265 165.1 264.195 165.04C264.135 164.97 264.105 164.885 264.105 164.785V164.215C264.105 164.115 264.135 164.035 264.195 163.975C264.265 163.905 264.35 163.87 264.45 163.87H268.95C269.05 163.87 269.13 163.905 269.19 163.975C269.26 164.035 269.295 164.115 269.295 164.215V164.785C269.295 164.885 269.26 164.97 269.19 165.04C269.13 165.1 269.05 165.13 268.95 165.13H264.45ZM272.293 169C272.193 169 272.108 168.97 272.038 168.91C271.978 168.84 271.948 168.755 271.948 168.655V162.4H270.673C270.573 162.4 270.488 162.37 270.418 162.31C270.358 162.24 270.328 162.155 270.328 162.055V161.545C270.328 161.445 270.358 161.365 270.418 161.305C270.488 161.235 270.573 161.2 270.673 161.2H271.948V160.45C271.948 158.75 272.808 157.9 274.528 157.9H276.838C276.938 157.9 277.018 157.935 277.078 158.005C277.148 158.065 277.183 158.145 277.183 158.245V158.755C277.183 158.855 277.148 158.94 277.078 159.01C277.018 159.07 276.938 159.1 276.838 159.1H274.558C274.108 159.1 273.793 159.22 273.613 159.46C273.433 159.69 273.343 160.045 273.343 160.525V161.2H276.838C276.938 161.2 277.018 161.235 277.078 161.305C277.148 161.365 277.183 161.445 277.183 161.545V168.655C277.183 168.755 277.148 168.84 277.078 168.91C277.018 168.97 276.938 169 276.838 169H276.148C276.048 169 275.963 168.97 275.893 168.91C275.833 168.84 275.803 168.755 275.803 168.655V162.4H273.343V168.655C273.343 168.755 273.308 168.84 273.238 168.91C273.178 168.97 273.098 169 272.998 169H272.293ZM279.64 169C279.54 169 279.455 168.97 279.385 168.91C279.325 168.84 279.295 168.755 279.295 168.655V167.575C279.295 167.475 279.325 167.395 279.385 167.335C279.455 167.265 279.54 167.23 279.64 167.23H280.72C280.82 167.23 280.905 167.265 280.975 167.335C281.045 167.395 281.08 167.475 281.08 167.575V168.655C281.08 168.755 281.045 168.84 280.975 168.91C280.905 168.97 280.82 169 280.72 169H279.64ZM283.539 171.85C283.439 171.85 283.354 171.815 283.284 171.745C283.224 171.685 283.194 171.605 283.194 171.505V161.545C283.194 161.445 283.224 161.365 283.284 161.305C283.354 161.235 283.439 161.2 283.539 161.2H284.229C284.329 161.2 284.409 161.235 284.469 161.305C284.539 161.365 284.574 161.445 284.574 161.545V162.205C285.134 161.435 285.954 161.05 287.034 161.05C288.084 161.05 288.869 161.38 289.389 162.04C289.919 162.7 290.204 163.55 290.244 164.59C290.254 164.7 290.259 164.87 290.259 165.1C290.259 165.33 290.254 165.5 290.244 165.61C290.204 166.64 289.919 167.49 289.389 168.16C288.859 168.82 288.074 169.15 287.034 169.15C285.994 169.15 285.184 168.775 284.604 168.025V171.505C284.604 171.605 284.574 171.685 284.514 171.745C284.454 171.815 284.374 171.85 284.274 171.85H283.539ZM286.719 167.935C287.429 167.935 287.944 167.715 288.264 167.275C288.594 166.835 288.774 166.255 288.804 165.535C288.814 165.435 288.819 165.29 288.819 165.1C288.819 163.21 288.119 162.265 286.719 162.265C286.029 162.265 285.509 162.495 285.159 162.955C284.819 163.405 284.634 163.945 284.604 164.575L284.589 165.145L284.604 165.73C284.624 166.32 284.814 166.835 285.174 167.275C285.534 167.715 286.049 167.935 286.719 167.935ZM292.46 169C292.36 169 292.275 168.97 292.205 168.91C292.145 168.84 292.115 168.755 292.115 168.655V161.545C292.115 161.445 292.145 161.365 292.205 161.305C292.275 161.235 292.36 161.2 292.46 161.2H293.165C293.265 161.2 293.345 161.235 293.405 161.305C293.475 161.365 293.51 161.445 293.51 161.545V162.205C293.8 161.835 294.14 161.55 294.53 161.35C294.93 161.15 295.425 161.05 296.015 161.05C296.975 161.05 297.72 161.36 298.25 161.98C298.79 162.59 299.06 163.405 299.06 164.425V168.655C299.06 168.755 299.025 168.84 298.955 168.91C298.895 168.97 298.815 169 298.715 169H297.965C297.865 169 297.78 168.97 297.71 168.91C297.65 168.84 297.62 168.755 297.62 168.655V164.5C297.62 163.79 297.445 163.24 297.095 162.85C296.755 162.46 296.26 162.265 295.61 162.265C294.98 162.265 294.48 162.465 294.11 162.865C293.74 163.255 293.555 163.8 293.555 164.5V168.655C293.555 168.755 293.52 168.84 293.45 168.91C293.39 168.97 293.31 169 293.21 169H292.46ZM304.407 172.3C303.587 172.3 302.927 172.16 302.427 171.88C301.927 171.61 301.572 171.3 301.362 170.95C301.152 170.6 301.037 170.285 301.017 170.005C301.007 169.905 301.037 169.82 301.107 169.75C301.187 169.68 301.272 169.645 301.362 169.645H302.082C302.172 169.645 302.247 169.665 302.307 169.705C302.367 169.755 302.417 169.84 302.457 169.96C302.577 170.28 302.772 170.555 303.042 170.785C303.322 171.025 303.752 171.145 304.332 171.145C305.072 171.145 305.617 170.985 305.967 170.665C306.317 170.355 306.492 169.8 306.492 169V167.98C306.232 168.31 305.902 168.575 305.502 168.775C305.102 168.965 304.627 169.06 304.077 169.06C303.017 169.06 302.222 168.725 301.692 168.055C301.172 167.375 300.897 166.515 300.867 165.475L300.852 165.055L300.867 164.65C300.897 163.62 301.177 162.765 301.707 162.085C302.237 161.395 303.027 161.05 304.077 161.05C305.127 161.05 305.947 161.435 306.537 162.205V161.56C306.537 161.46 306.567 161.375 306.627 161.305C306.697 161.235 306.782 161.2 306.882 161.2H307.572C307.672 161.2 307.757 161.235 307.827 161.305C307.897 161.375 307.932 161.46 307.932 161.56V168.835C307.932 171.145 306.757 172.3 304.407 172.3ZM304.377 167.86C305.057 167.86 305.572 167.635 305.922 167.185C306.272 166.735 306.462 166.2 306.492 165.58C306.502 165.49 306.507 165.315 306.507 165.055C306.507 164.805 306.502 164.635 306.492 164.545C306.462 163.925 306.272 163.39 305.922 162.94C305.582 162.49 305.067 162.265 304.377 162.265C303.667 162.265 303.152 162.485 302.832 162.925C302.512 163.365 302.337 163.945 302.307 164.665L302.292 165.055L302.307 165.46C302.337 166.17 302.512 166.75 302.832 167.2C303.152 167.64 303.667 167.86 304.377 167.86Z" fill="#5C1EE8"/>
<path d="M56 170.125H309.057V170.875H56V170.125Z" fill="#5C1EE8"/>
<a href="http://localhost:4000/storage/certificate/Aug2023/1c7h0ybg5ll3yoftn-fi-15.png">
<rect fill="black" fill-opacity="0" y="2.3625" width="253.057" height="17.775"/>
</a>
<path d="M342 161L334 169" stroke="#5C1EE8" stroke-linecap="round" stroke-linejoin="round"/>
<path d="M334 161L342 169" stroke="#5C1EE8" stroke-linecap="round" stroke-linejoin="round"/>
<rect x="41.5" y="142.5" width="319" height="44" rx="2.5" stroke="#DDDDE2"/>
<path d="M0.5 0.5H52.5V17C52.5 18.933 50.933 20.5 49 20.5H0.5V0.5Z" fill="#F5F7F9"/>
<path d="M13.122 14C13.0487 14 12.9863 13.9743 12.935 13.923C12.8837 13.8717 12.858 13.8093 12.858 13.736V6.564C12.858 6.48333 12.8837 6.421 12.935 6.377C12.9863 6.32567 13.0487 6.3 13.122 6.3H14.156C14.2367 6.3 14.299 6.32567 14.343 6.377C14.3943 6.421 14.42 6.48333 14.42 6.564V13.736C14.42 13.8093 14.3943 13.8717 14.343 13.923C14.299 13.9743 14.2367 14 14.156 14H13.122ZM16.2771 14C16.2038 14 16.1414 13.9743 16.0901 13.923C16.0388 13.8717 16.0131 13.8093 16.0131 13.736V8.544C16.0131 8.47067 16.0388 8.40833 16.0901 8.357C16.1414 8.30567 16.2038 8.28 16.2771 8.28H17.1791C17.2524 8.28 17.3148 8.30567 17.3661 8.357C17.4174 8.40833 17.4431 8.47067 17.4431 8.544V8.995C17.8758 8.445 18.4881 8.17 19.2801 8.17C19.9548 8.17 20.4901 8.39367 20.8861 8.841C21.2821 9.281 21.4801 9.88233 21.4801 10.645V13.736C21.4801 13.8093 21.4544 13.8717 21.4031 13.923C21.3591 13.9743 21.2968 14 21.2161 14H20.2481C20.1748 14 20.1124 13.9743 20.0611 13.923C20.0098 13.8717 19.9841 13.8093 19.9841 13.736V10.711C19.9841 10.2783 19.8778 9.94467 19.6651 9.71C19.4598 9.468 19.1591 9.347 18.7631 9.347C18.3744 9.347 18.0664 9.468 17.8391 9.71C17.6191 9.952 17.5091 10.2857 17.5091 10.711V13.736C17.5091 13.8093 17.4834 13.8717 17.4321 13.923C17.3881 13.9743 17.3258 14 17.2451 14H16.2771ZM23.1524 16.09C23.079 16.09 23.0167 16.0643 22.9654 16.013C22.914 15.969 22.8884 15.9067 22.8884 15.826V8.544C22.8884 8.46333 22.914 8.401 22.9654 8.357C23.0167 8.30567 23.079 8.28 23.1524 8.28H24.0214C24.102 8.28 24.1644 8.30567 24.2084 8.357C24.2597 8.401 24.2854 8.46333 24.2854 8.544V8.984C24.696 8.44133 25.2827 8.17 26.0454 8.17C26.786 8.17 27.3544 8.40467 27.7504 8.874C28.1464 9.336 28.359 9.963 28.3884 10.755C28.3957 10.843 28.3994 10.9713 28.3994 11.14C28.3994 11.316 28.3957 11.448 28.3884 11.536C28.359 12.306 28.1464 12.9293 27.7504 13.406C27.3544 13.8753 26.786 14.11 26.0454 14.11C25.3047 14.11 24.74 13.8497 24.3514 13.329V15.826C24.3514 15.9067 24.3257 15.969 24.2744 16.013C24.2304 16.0643 24.168 16.09 24.0874 16.09H23.1524ZM25.6384 12.933C26.4304 12.933 26.852 12.4453 26.9034 11.47C26.9107 11.3967 26.9144 11.2867 26.9144 11.14C26.9144 10.9933 26.9107 10.8833 26.9034 10.81C26.852 9.83467 26.4304 9.347 25.6384 9.347C25.213 9.347 24.8977 9.48267 24.6924 9.754C24.487 10.0253 24.3734 10.359 24.3514 10.755L24.3404 11.173L24.3514 11.602C24.366 11.9687 24.4797 12.284 24.6924 12.548C24.9124 12.8047 25.2277 12.933 25.6384 12.933ZM31.7572 14.11C31.0825 14.11 30.5509 13.89 30.1622 13.45C29.7735 13.0027 29.5792 12.3977 29.5792 11.635V8.544C29.5792 8.47067 29.6049 8.40833 29.6562 8.357C29.7075 8.30567 29.7699 8.28 29.8432 8.28H30.8112C30.8919 8.28 30.9542 8.30567 30.9982 8.357C31.0495 8.401 31.0752 8.46333 31.0752 8.544V11.569C31.0752 12.4783 31.4749 12.933 32.2742 12.933C32.6555 12.933 32.9562 12.812 33.1762 12.57C33.4035 12.328 33.5172 11.9943 33.5172 11.569V8.544C33.5172 8.47067 33.5429 8.40833 33.5942 8.357C33.6455 8.30567 33.7079 8.28 33.7812 8.28H34.7492C34.8299 8.28 34.8922 8.30567 34.9362 8.357C34.9875 8.401 35.0132 8.46333 35.0132 8.544V13.736C35.0132 13.8093 34.9875 13.8717 34.9362 13.923C34.8922 13.9743 34.8299 14 34.7492 14H33.8582C33.7849 14 33.7225 13.9743 33.6712 13.923C33.6199 13.8717 33.5942 13.8093 33.5942 13.736V13.285C33.1835 13.835 32.5712 14.11 31.7572 14.11ZM39.0512 14C38.3839 14 37.8816 13.8277 37.5442 13.483C37.2142 13.131 37.0492 12.6177 37.0492 11.943V9.446H36.1802C36.1069 9.446 36.0446 9.42033 35.9932 9.369C35.9419 9.31033 35.9162 9.24433 35.9162 9.171V8.544C35.9162 8.47067 35.9419 8.40833 35.9932 8.357C36.0446 8.30567 36.1069 8.28 36.1802 8.28H37.0492V6.454C37.0492 6.37333 37.0749 6.311 37.1262 6.267C37.1776 6.21567 37.2399 6.19 37.3132 6.19H38.2042C38.2849 6.19 38.3472 6.21567 38.3912 6.267C38.4426 6.311 38.4682 6.37333 38.4682 6.454V8.28H39.8432C39.9239 8.28 39.9862 8.30567 40.0302 8.357C40.0816 8.401 40.1072 8.46333 40.1072 8.544V9.171C40.1072 9.25167 40.0816 9.31767 40.0302 9.369C39.9789 9.42033 39.9166 9.446 39.8432 9.446H38.4682V11.833C38.4682 12.1483 38.5232 12.3867 38.6332 12.548C38.7432 12.7093 38.9266 12.79 39.1832 12.79H39.9422C40.0156 12.79 40.0779 12.8157 40.1292 12.867C40.1806 12.9183 40.2062 12.9807 40.2062 13.054V13.736C40.2062 13.8093 40.1806 13.8717 40.1292 13.923C40.0852 13.9743 40.0229 14 39.9422 14H39.0512Z" fill="#535356"/>
<path d="M0.5 0.5H52.5V17C52.5 18.933 50.933 20.5 49 20.5H0.5V0.5Z" stroke="#EAEAEF"/>
<rect x="0.5" y="0.5" width="401" height="217" stroke="#EAEAEF"/>
</svg>
