<svg width="402" height="135" viewBox="0 0 402 135" fill="none" xmlns="http://www.w3.org/2000/svg">
<rect x="0.5" y="0.5" width="401" height="134" fill="white"/>
<rect width="400" height="133" transform="translate(1 1)" fill="white"/>
<rect width="320" height="73" transform="translate(41 31)" fill="white"/>
<path d="M41.455 44C41.3857 44 41.3207 43.974 41.26 43.922C41.208 43.87 41.182 43.805 41.182 43.727L41.208 43.61L44.341 35.225C44.4017 35.0083 44.5533 34.9 44.796 34.9H46.213C46.4383 34.9 46.59 35.0083 46.668 35.225L49.801 43.61C49.8097 43.636 49.814 43.675 49.814 43.727C49.814 43.805 49.788 43.87 49.736 43.922C49.684 43.974 49.6233 44 49.554 44H48.423C48.3103 44 48.2237 43.974 48.163 43.922C48.1023 43.87 48.0633 43.8137 48.046 43.753L47.435 42.167H43.574L42.963 43.753C42.8937 43.9177 42.768 44 42.586 44H41.455ZM46.98 40.672L45.498 36.655L44.029 40.672H46.98ZM51.3527 44C51.2573 44 51.1793 43.974 51.1187 43.922C51.058 43.8613 51.0277 43.7833 51.0277 43.688V35.225C51.0277 35.1297 51.058 35.0517 51.1187 34.991C51.1793 34.9303 51.2573 34.9 51.3527 34.9H52.3797C52.5617 34.9 52.6917 34.9823 52.7697 35.147L55.2787 39.827L57.8137 35.147C57.9003 34.9823 58.0303 34.9 58.2037 34.9H59.2177C59.313 34.9 59.391 34.9303 59.4517 34.991C59.5123 35.0517 59.5427 35.1297 59.5427 35.225V43.688C59.5427 43.7833 59.5123 43.8613 59.4517 43.922C59.391 43.974 59.313 44 59.2177 44H58.1257C58.039 44 57.9653 43.9697 57.9047 43.909C57.844 43.8483 57.8137 43.7747 57.8137 43.688V38.059L55.9937 41.53C55.881 41.7207 55.7337 41.816 55.5517 41.816H55.0187C54.8367 41.816 54.6893 41.7207 54.5767 41.53L52.7567 38.059V43.688C52.7567 43.7747 52.7263 43.8483 52.6657 43.909C52.6137 43.9697 52.54 44 52.4447 44H51.3527ZM65.0618 44.13C63.8831 44.13 62.9644 43.831 62.3058 43.233C61.6471 42.635 61.3004 41.7467 61.2658 40.568C61.2571 40.3167 61.2528 39.9483 61.2528 39.463C61.2528 38.969 61.2571 38.5963 61.2658 38.345C61.3004 37.1923 61.6558 36.3083 62.3318 35.693C63.0078 35.0777 63.9178 34.77 65.0618 34.77C66.2058 34.77 67.1158 35.0777 67.7918 35.693C68.4764 36.3083 68.8361 37.1923 68.8708 38.345C68.8881 38.8477 68.8968 39.2203 68.8968 39.463C68.8968 39.697 68.8881 40.0653 68.8708 40.568C68.8274 41.7467 68.4764 42.635 67.8178 43.233C67.1591 43.831 66.2404 44.13 65.0618 44.13ZM65.0618 42.635C65.6424 42.635 66.1061 42.4617 66.4528 42.115C66.7994 41.7597 66.9858 41.2223 67.0118 40.503C67.0291 39.983 67.0378 39.632 67.0378 39.45C67.0378 39.2507 67.0291 38.8997 67.0118 38.397C66.9858 37.6777 66.7994 37.1447 66.4528 36.798C66.1061 36.4427 65.6424 36.265 65.0618 36.265C64.4898 36.265 64.0304 36.4427 63.6838 36.798C63.3371 37.1447 63.1508 37.6777 63.1248 38.397C63.1161 38.6483 63.1118 38.9993 63.1118 39.45C63.1118 39.892 63.1161 40.243 63.1248 40.503C63.1508 41.2223 63.3328 41.7597 63.6708 42.115C64.0174 42.4617 64.4811 42.635 65.0618 42.635ZM74.2308 44.13C73.0608 44.13 72.1508 43.831 71.5008 43.233C70.8508 42.635 70.5258 41.7293 70.5258 40.516V35.225C70.5258 35.1297 70.5518 35.0517 70.6038 34.991C70.6645 34.9303 70.7425 34.9 70.8378 34.9H72.0208C72.1162 34.9 72.1898 34.9303 72.2418 34.991C72.3025 35.0517 72.3328 35.1297 72.3328 35.225V40.516C72.3328 41.2093 72.4975 41.7337 72.8268 42.089C73.1562 42.4357 73.6242 42.609 74.2308 42.609C74.8375 42.609 75.3012 42.4357 75.6218 42.089C75.9512 41.7337 76.1158 41.2093 76.1158 40.516V35.225C76.1158 35.1297 76.1462 35.0517 76.2068 34.991C76.2675 34.9303 76.3455 34.9 76.4408 34.9H77.6108C77.7062 34.9 77.7798 34.9303 77.8318 34.991C77.8925 35.0517 77.9228 35.1297 77.9228 35.225V40.516C77.9228 41.7293 77.5978 42.635 76.9478 43.233C76.3065 43.831 75.4008 44.13 74.2308 44.13ZM80.1834 44C80.0968 44 80.0231 43.9697 79.9624 43.909C79.9018 43.8483 79.8714 43.7747 79.8714 43.688V35.225C79.8714 35.1297 79.8974 35.0517 79.9494 34.991C80.0101 34.9303 80.0881 34.9 80.1834 34.9H81.1844C81.2884 34.9 81.3664 34.9217 81.4184 34.965C81.4704 34.9997 81.5181 35.0473 81.5614 35.108L85.3054 40.932V35.225C85.3054 35.1297 85.3314 35.0517 85.3834 34.991C85.4441 34.9303 85.5221 34.9 85.6174 34.9H86.7094C86.8048 34.9 86.8828 34.9303 86.9434 34.991C87.0041 35.0517 87.0344 35.1297 87.0344 35.225V43.675C87.0344 43.7703 87.0041 43.8483 86.9434 43.909C86.8828 43.9697 86.8091 44 86.7224 44H85.7084C85.5611 44 85.4354 43.9307 85.3314 43.792L81.6004 38.098V43.688C81.6004 43.7833 81.5701 43.8613 81.5094 43.922C81.4488 43.974 81.3708 44 81.2754 44H80.1834ZM91.3768 44C91.2902 44 91.2165 43.9697 91.1558 43.909C91.0952 43.8483 91.0648 43.7747 91.0648 43.688V36.499H88.6598C88.5732 36.499 88.4995 36.4687 88.4388 36.408C88.3782 36.3473 88.3478 36.2737 88.3478 36.187V35.225C88.3478 35.1297 88.3738 35.0517 88.4258 34.991C88.4865 34.9303 88.5645 34.9 88.6598 34.9H95.2898C95.3852 34.9 95.4632 34.9303 95.5238 34.991C95.5845 35.0517 95.6148 35.1297 95.6148 35.225V36.187C95.6148 36.2737 95.5845 36.3473 95.5238 36.408C95.4632 36.4687 95.3852 36.499 95.2898 36.499H92.8978V43.688C92.8978 43.7747 92.8675 43.8483 92.8068 43.909C92.7462 43.9697 92.6682 44 92.5728 44H91.3768Z" fill="#A0A0A5"/>
<rect x="41.5" y="59.5" width="319" height="44" rx="2.5" fill="#F5F7F9"/>
<path d="M60.35 87.5C60.25 87.5 60.165 87.465 60.095 87.395C60.035 87.335 60.005 87.255 60.005 87.155V86.105C59.305 86.045 58.7 85.885 58.19 85.625C57.68 85.355 57.29 85.025 57.02 84.635C56.76 84.235 56.62 83.81 56.6 83.36C56.6 83.28 56.63 83.21 56.69 83.15C56.76 83.08 56.84 83.045 56.93 83.045H57.71C57.89 83.045 58.015 83.145 58.085 83.345C58.185 83.765 58.445 84.125 58.865 84.425C59.285 84.725 59.88 84.875 60.65 84.875C61.48 84.875 62.105 84.73 62.525 84.44C62.945 84.14 63.155 83.725 63.155 83.195C63.155 82.855 63.05 82.58 62.84 82.37C62.64 82.16 62.34 81.975 61.94 81.815C61.54 81.655 60.94 81.455 60.14 81.215C59.36 80.995 58.74 80.76 58.28 80.51C57.82 80.26 57.475 79.95 57.245 79.58C57.015 79.21 56.9 78.745 56.9 78.185C56.9 77.445 57.175 76.82 57.725 76.31C58.275 75.79 59.035 75.48 60.005 75.38V74.345C60.005 74.245 60.035 74.165 60.095 74.105C60.165 74.035 60.25 74 60.35 74H60.92C61.02 74 61.1 74.035 61.16 74.105C61.23 74.165 61.265 74.245 61.265 74.345V75.395C61.905 75.475 62.45 75.655 62.9 75.935C63.36 76.215 63.705 76.545 63.935 76.925C64.175 77.305 64.305 77.685 64.325 78.065C64.325 78.145 64.295 78.215 64.235 78.275C64.185 78.335 64.11 78.365 64.01 78.365H63.215C63.005 78.365 62.875 78.27 62.825 78.08C62.765 77.66 62.53 77.315 62.12 77.045C61.71 76.765 61.195 76.625 60.575 76.625C59.895 76.625 59.36 76.755 58.97 77.015C58.58 77.275 58.385 77.66 58.385 78.17C58.385 78.51 58.475 78.79 58.655 79.01C58.845 79.23 59.13 79.425 59.51 79.595C59.89 79.755 60.445 79.94 61.175 80.15C62.025 80.38 62.695 80.62 63.185 80.87C63.675 81.11 64.04 81.415 64.28 81.785C64.52 82.145 64.64 82.605 64.64 83.165C64.64 84.015 64.34 84.7 63.74 85.22C63.14 85.73 62.315 86.03 61.265 86.12V87.155C61.265 87.255 61.23 87.335 61.16 87.395C61.1 87.465 61.02 87.5 60.92 87.5H60.35Z" fill="#303032"/>
<rect x="41.5" y="59.5" width="319" height="44" rx="2.5" stroke="#DDDDE2"/>
<path fill-rule="evenodd" clip-rule="evenodd" d="M338.583 84C338.347 84 338.135 84.1392 338.044 84.3528C337.954 84.5663 338.004 84.8121 338.171 84.9755L341.088 87.8326C341.315 88.0558 341.685 88.0558 341.912 87.8326L344.829 84.9755C344.996 84.8121 345.046 84.5663 344.956 84.3528C344.865 84.1392 344.653 84 344.417 84H338.583Z" fill="black"/>
<path fill-rule="evenodd" clip-rule="evenodd" d="M344.417 80C344.653 80 344.865 79.8608 344.956 79.6472C345.046 79.4337 344.996 79.1879 344.829 79.0245L341.912 76.1674C341.685 75.9442 341.315 75.9442 341.088 76.1674L338.171 79.0245C338.004 79.1879 337.954 79.4337 338.044 79.6472C338.135 79.8608 338.347 80 338.583 80L344.417 80Z" fill="black"/>
<path d="M0.5 0.5H52.5V17C52.5 18.933 50.933 20.5 49 20.5H0.5V0.5Z" fill="#F5F7F9"/>
<path d="M13.122 14C13.0487 14 12.9863 13.9743 12.935 13.923C12.8837 13.8717 12.858 13.8093 12.858 13.736V6.564C12.858 6.48333 12.8837 6.421 12.935 6.377C12.9863 6.32567 13.0487 6.3 13.122 6.3H14.156C14.2367 6.3 14.299 6.32567 14.343 6.377C14.3943 6.421 14.42 6.48333 14.42 6.564V13.736C14.42 13.8093 14.3943 13.8717 14.343 13.923C14.299 13.9743 14.2367 14 14.156 14H13.122ZM16.2771 14C16.2038 14 16.1414 13.9743 16.0901 13.923C16.0388 13.8717 16.0131 13.8093 16.0131 13.736V8.544C16.0131 8.47067 16.0388 8.40833 16.0901 8.357C16.1414 8.30567 16.2038 8.28 16.2771 8.28H17.1791C17.2524 8.28 17.3148 8.30567 17.3661 8.357C17.4174 8.40833 17.4431 8.47067 17.4431 8.544V8.995C17.8758 8.445 18.4881 8.17 19.2801 8.17C19.9548 8.17 20.4901 8.39367 20.8861 8.841C21.2821 9.281 21.4801 9.88233 21.4801 10.645V13.736C21.4801 13.8093 21.4544 13.8717 21.4031 13.923C21.3591 13.9743 21.2968 14 21.2161 14H20.2481C20.1748 14 20.1124 13.9743 20.0611 13.923C20.0098 13.8717 19.9841 13.8093 19.9841 13.736V10.711C19.9841 10.2783 19.8778 9.94467 19.6651 9.71C19.4598 9.468 19.1591 9.347 18.7631 9.347C18.3744 9.347 18.0664 9.468 17.8391 9.71C17.6191 9.952 17.5091 10.2857 17.5091 10.711V13.736C17.5091 13.8093 17.4834 13.8717 17.4321 13.923C17.3881 13.9743 17.3258 14 17.2451 14H16.2771ZM23.1524 16.09C23.079 16.09 23.0167 16.0643 22.9654 16.013C22.914 15.969 22.8884 15.9067 22.8884 15.826V8.544C22.8884 8.46333 22.914 8.401 22.9654 8.357C23.0167 8.30567 23.079 8.28 23.1524 8.28H24.0214C24.102 8.28 24.1644 8.30567 24.2084 8.357C24.2597 8.401 24.2854 8.46333 24.2854 8.544V8.984C24.696 8.44133 25.2827 8.17 26.0454 8.17C26.786 8.17 27.3544 8.40467 27.7504 8.874C28.1464 9.336 28.359 9.963 28.3884 10.755C28.3957 10.843 28.3994 10.9713 28.3994 11.14C28.3994 11.316 28.3957 11.448 28.3884 11.536C28.359 12.306 28.1464 12.9293 27.7504 13.406C27.3544 13.8753 26.786 14.11 26.0454 14.11C25.3047 14.11 24.74 13.8497 24.3514 13.329V15.826C24.3514 15.9067 24.3257 15.969 24.2744 16.013C24.2304 16.0643 24.168 16.09 24.0874 16.09H23.1524ZM25.6384 12.933C26.4304 12.933 26.852 12.4453 26.9034 11.47C26.9107 11.3967 26.9144 11.2867 26.9144 11.14C26.9144 10.9933 26.9107 10.8833 26.9034 10.81C26.852 9.83467 26.4304 9.347 25.6384 9.347C25.213 9.347 24.8977 9.48267 24.6924 9.754C24.487 10.0253 24.3734 10.359 24.3514 10.755L24.3404 11.173L24.3514 11.602C24.366 11.9687 24.4797 12.284 24.6924 12.548C24.9124 12.8047 25.2277 12.933 25.6384 12.933ZM31.7572 14.11C31.0825 14.11 30.5509 13.89 30.1622 13.45C29.7735 13.0027 29.5792 12.3977 29.5792 11.635V8.544C29.5792 8.47067 29.6049 8.40833 29.6562 8.357C29.7075 8.30567 29.7699 8.28 29.8432 8.28H30.8112C30.8919 8.28 30.9542 8.30567 30.9982 8.357C31.0495 8.401 31.0752 8.46333 31.0752 8.544V11.569C31.0752 12.4783 31.4749 12.933 32.2742 12.933C32.6555 12.933 32.9562 12.812 33.1762 12.57C33.4035 12.328 33.5172 11.9943 33.5172 11.569V8.544C33.5172 8.47067 33.5429 8.40833 33.5942 8.357C33.6455 8.30567 33.7079 8.28 33.7812 8.28H34.7492C34.8299 8.28 34.8922 8.30567 34.9362 8.357C34.9875 8.401 35.0132 8.46333 35.0132 8.544V13.736C35.0132 13.8093 34.9875 13.8717 34.9362 13.923C34.8922 13.9743 34.8299 14 34.7492 14H33.8582C33.7849 14 33.7225 13.9743 33.6712 13.923C33.6199 13.8717 33.5942 13.8093 33.5942 13.736V13.285C33.1835 13.835 32.5712 14.11 31.7572 14.11ZM39.0512 14C38.3839 14 37.8816 13.8277 37.5442 13.483C37.2142 13.131 37.0492 12.6177 37.0492 11.943V9.446H36.1802C36.1069 9.446 36.0446 9.42033 35.9932 9.369C35.9419 9.31033 35.9162 9.24433 35.9162 9.171V8.544C35.9162 8.47067 35.9419 8.40833 35.9932 8.357C36.0446 8.30567 36.1069 8.28 36.1802 8.28H37.0492V6.454C37.0492 6.37333 37.0749 6.311 37.1262 6.267C37.1776 6.21567 37.2399 6.19 37.3132 6.19H38.2042C38.2849 6.19 38.3472 6.21567 38.3912 6.267C38.4426 6.311 38.4682 6.37333 38.4682 6.454V8.28H39.8432C39.9239 8.28 39.9862 8.30567 40.0302 8.357C40.0816 8.401 40.1072 8.46333 40.1072 8.544V9.171C40.1072 9.25167 40.0816 9.31767 40.0302 9.369C39.9789 9.42033 39.9166 9.446 39.8432 9.446H38.4682V11.833C38.4682 12.1483 38.5232 12.3867 38.6332 12.548C38.7432 12.7093 38.9266 12.79 39.1832 12.79H39.9422C40.0156 12.79 40.0779 12.8157 40.1292 12.867C40.1806 12.9183 40.2062 12.9807 40.2062 13.054V13.736C40.2062 13.8093 40.1806 13.8717 40.1292 13.923C40.0852 13.9743 40.0229 14 39.9422 14H39.0512Z" fill="#535356"/>
<path d="M0.5 0.5H52.5V17C52.5 18.933 50.933 20.5 49 20.5H0.5V0.5Z" stroke="#EAEAEF"/>
<rect x="0.5" y="0.5" width="401" height="134" stroke="#EAEAEF"/>
</svg>
