<svg width="402" height="135" viewBox="0 0 402 135" fill="none" xmlns="http://www.w3.org/2000/svg">
<rect x="0.5" y="0.5" width="401" height="134" fill="white"/>
<rect width="400" height="133" transform="translate(1 1)" fill="white"/>
<rect width="320" height="73" transform="translate(41 31)" fill="white"/>
<path d="M42.326 44C42.2393 44 42.1657 43.9697 42.105 43.909C42.0443 43.8483 42.014 43.7747 42.014 43.688V35.225C42.014 35.1297 42.04 35.0517 42.092 34.991C42.1527 34.9303 42.2307 34.9 42.326 34.9H43.327C43.431 34.9 43.509 34.9217 43.561 34.965C43.613 34.9997 43.6607 35.0473 43.704 35.108L47.448 40.932V35.225C47.448 35.1297 47.474 35.0517 47.526 34.991C47.5867 34.9303 47.6647 34.9 47.76 34.9H48.852C48.9473 34.9 49.0253 34.9303 49.086 34.991C49.1467 35.0517 49.177 35.1297 49.177 35.225V43.675C49.177 43.7703 49.1467 43.8483 49.086 43.909C49.0253 43.9697 48.9517 44 48.865 44H47.851C47.7037 44 47.578 43.9307 47.474 43.792L43.743 38.098V43.688C43.743 43.7833 43.7127 43.8613 43.652 43.922C43.5913 43.974 43.5133 44 43.418 44H42.326ZM50.6464 44C50.5771 44 50.5121 43.974 50.4514 43.922C50.3994 43.87 50.3734 43.805 50.3734 43.727L50.3994 43.61L53.5324 35.225C53.5931 35.0083 53.7447 34.9 53.9874 34.9H55.4044C55.6297 34.9 55.7814 35.0083 55.8594 35.225L58.9924 43.61C59.0011 43.636 59.0054 43.675 59.0054 43.727C59.0054 43.805 58.9794 43.87 58.9274 43.922C58.8754 43.974 58.8147 44 58.7454 44H57.6144C57.5017 44 57.4151 43.974 57.3544 43.922C57.2937 43.87 57.2547 43.8137 57.2374 43.753L56.6264 42.167H52.7654L52.1544 43.753C52.0851 43.9177 51.9594 44 51.7774 44H50.6464ZM56.1714 40.672L54.6894 36.655L53.2204 40.672H56.1714ZM60.5441 44C60.4487 44 60.3707 43.974 60.3101 43.922C60.2494 43.8613 60.2191 43.7833 60.2191 43.688V35.225C60.2191 35.1297 60.2494 35.0517 60.3101 34.991C60.3707 34.9303 60.4487 34.9 60.5441 34.9H61.5711C61.7531 34.9 61.8831 34.9823 61.9611 35.147L64.4701 39.827L67.0051 35.147C67.0917 34.9823 67.2217 34.9 67.3951 34.9H68.4091C68.5044 34.9 68.5824 34.9303 68.6431 34.991C68.7037 35.0517 68.7341 35.1297 68.7341 35.225V43.688C68.7341 43.7833 68.7037 43.8613 68.6431 43.922C68.5824 43.974 68.5044 44 68.4091 44H67.3171C67.2304 44 67.1567 43.9697 67.0961 43.909C67.0354 43.8483 67.0051 43.7747 67.0051 43.688V38.059L65.1851 41.53C65.0724 41.7207 64.9251 41.816 64.7431 41.816H64.2101C64.0281 41.816 63.8807 41.7207 63.7681 41.53L61.9481 38.059V43.688C61.9481 43.7747 61.9177 43.8483 61.8571 43.909C61.8051 43.9697 61.7314 44 61.6361 44H60.5441ZM71.0682 44C70.9815 44 70.9079 43.9697 70.8472 43.909C70.7865 43.8483 70.7562 43.7747 70.7562 43.688V35.225C70.7562 35.1297 70.7822 35.0517 70.8342 34.991C70.8949 34.9303 70.9729 34.9 71.0682 34.9H76.7882C76.8835 34.9 76.9615 34.9303 77.0222 34.991C77.0829 35.0517 77.1132 35.1297 77.1132 35.225V36.083C77.1132 36.1783 77.0829 36.2563 77.0222 36.317C76.9615 36.369 76.8835 36.395 76.7882 36.395H72.5112V38.696H76.5022C76.5975 38.696 76.6755 38.7263 76.7362 38.787C76.7969 38.839 76.8272 38.9127 76.8272 39.008V39.814C76.8272 39.9093 76.7969 39.9873 76.7362 40.048C76.6755 40.1 76.5975 40.126 76.5022 40.126H72.5112V42.505H76.8922C76.9875 42.505 77.0655 42.5353 77.1262 42.596C77.1869 42.6567 77.2172 42.7347 77.2172 42.83V43.688C77.2172 43.7833 77.1869 43.8613 77.1262 43.922C77.0655 43.974 76.9875 44 76.8922 44H71.0682Z" fill="#A0A0A5"/>
<rect x="41.5" y="59.5" width="319" height="44" rx="2.5" fill="#F5F7F9"/>
<rect x="41.5" y="59.5" width="319" height="44" rx="2.5" stroke="#DDDDE2"/>
<rect x="0.5" y="0.5" width="401" height="134" stroke="#EAEAEF"/>
<path d="M0.5 0.5H52.5V17C52.5 18.933 50.933 20.5 49 20.5H0.5V0.5Z" fill="#F5F7F9"/>
<path d="M13.122 14C13.0487 14 12.9863 13.9743 12.935 13.923C12.8837 13.8717 12.858 13.8093 12.858 13.736V6.564C12.858 6.48333 12.8837 6.421 12.935 6.377C12.9863 6.32567 13.0487 6.3 13.122 6.3H14.156C14.2367 6.3 14.299 6.32567 14.343 6.377C14.3943 6.421 14.42 6.48333 14.42 6.564V13.736C14.42 13.8093 14.3943 13.8717 14.343 13.923C14.299 13.9743 14.2367 14 14.156 14H13.122ZM16.2771 14C16.2038 14 16.1414 13.9743 16.0901 13.923C16.0388 13.8717 16.0131 13.8093 16.0131 13.736V8.544C16.0131 8.47067 16.0388 8.40833 16.0901 8.357C16.1414 8.30567 16.2038 8.28 16.2771 8.28H17.1791C17.2524 8.28 17.3148 8.30567 17.3661 8.357C17.4174 8.40833 17.4431 8.47067 17.4431 8.544V8.995C17.8758 8.445 18.4881 8.17 19.2801 8.17C19.9548 8.17 20.4901 8.39367 20.8861 8.841C21.2821 9.281 21.4801 9.88233 21.4801 10.645V13.736C21.4801 13.8093 21.4544 13.8717 21.4031 13.923C21.3591 13.9743 21.2968 14 21.2161 14H20.2481C20.1748 14 20.1124 13.9743 20.0611 13.923C20.0098 13.8717 19.9841 13.8093 19.9841 13.736V10.711C19.9841 10.2783 19.8778 9.94467 19.6651 9.71C19.4598 9.468 19.1591 9.347 18.7631 9.347C18.3744 9.347 18.0664 9.468 17.8391 9.71C17.6191 9.952 17.5091 10.2857 17.5091 10.711V13.736C17.5091 13.8093 17.4834 13.8717 17.4321 13.923C17.3881 13.9743 17.3258 14 17.2451 14H16.2771ZM23.1524 16.09C23.079 16.09 23.0167 16.0643 22.9654 16.013C22.914 15.969 22.8884 15.9067 22.8884 15.826V8.544C22.8884 8.46333 22.914 8.401 22.9654 8.357C23.0167 8.30567 23.079 8.28 23.1524 8.28H24.0214C24.102 8.28 24.1644 8.30567 24.2084 8.357C24.2597 8.401 24.2854 8.46333 24.2854 8.544V8.984C24.696 8.44133 25.2827 8.17 26.0454 8.17C26.786 8.17 27.3544 8.40467 27.7504 8.874C28.1464 9.336 28.359 9.963 28.3884 10.755C28.3957 10.843 28.3994 10.9713 28.3994 11.14C28.3994 11.316 28.3957 11.448 28.3884 11.536C28.359 12.306 28.1464 12.9293 27.7504 13.406C27.3544 13.8753 26.786 14.11 26.0454 14.11C25.3047 14.11 24.74 13.8497 24.3514 13.329V15.826C24.3514 15.9067 24.3257 15.969 24.2744 16.013C24.2304 16.0643 24.168 16.09 24.0874 16.09H23.1524ZM25.6384 12.933C26.4304 12.933 26.852 12.4453 26.9034 11.47C26.9107 11.3967 26.9144 11.2867 26.9144 11.14C26.9144 10.9933 26.9107 10.8833 26.9034 10.81C26.852 9.83467 26.4304 9.347 25.6384 9.347C25.213 9.347 24.8977 9.48267 24.6924 9.754C24.487 10.0253 24.3734 10.359 24.3514 10.755L24.3404 11.173L24.3514 11.602C24.366 11.9687 24.4797 12.284 24.6924 12.548C24.9124 12.8047 25.2277 12.933 25.6384 12.933ZM31.7572 14.11C31.0825 14.11 30.5509 13.89 30.1622 13.45C29.7735 13.0027 29.5792 12.3977 29.5792 11.635V8.544C29.5792 8.47067 29.6049 8.40833 29.6562 8.357C29.7075 8.30567 29.7699 8.28 29.8432 8.28H30.8112C30.8919 8.28 30.9542 8.30567 30.9982 8.357C31.0495 8.401 31.0752 8.46333 31.0752 8.544V11.569C31.0752 12.4783 31.4749 12.933 32.2742 12.933C32.6555 12.933 32.9562 12.812 33.1762 12.57C33.4035 12.328 33.5172 11.9943 33.5172 11.569V8.544C33.5172 8.47067 33.5429 8.40833 33.5942 8.357C33.6455 8.30567 33.7079 8.28 33.7812 8.28H34.7492C34.8299 8.28 34.8922 8.30567 34.9362 8.357C34.9875 8.401 35.0132 8.46333 35.0132 8.544V13.736C35.0132 13.8093 34.9875 13.8717 34.9362 13.923C34.8922 13.9743 34.8299 14 34.7492 14H33.8582C33.7849 14 33.7225 13.9743 33.6712 13.923C33.6199 13.8717 33.5942 13.8093 33.5942 13.736V13.285C33.1835 13.835 32.5712 14.11 31.7572 14.11ZM39.0512 14C38.3839 14 37.8816 13.8277 37.5442 13.483C37.2142 13.131 37.0492 12.6177 37.0492 11.943V9.446H36.1802C36.1069 9.446 36.0446 9.42033 35.9932 9.369C35.9419 9.31033 35.9162 9.24433 35.9162 9.171V8.544C35.9162 8.47067 35.9419 8.40833 35.9932 8.357C36.0446 8.30567 36.1069 8.28 36.1802 8.28H37.0492V6.454C37.0492 6.37333 37.0749 6.311 37.1262 6.267C37.1776 6.21567 37.2399 6.19 37.3132 6.19H38.2042C38.2849 6.19 38.3472 6.21567 38.3912 6.267C38.4426 6.311 38.4682 6.37333 38.4682 6.454V8.28H39.8432C39.9239 8.28 39.9862 8.30567 40.0302 8.357C40.0816 8.401 40.1072 8.46333 40.1072 8.544V9.171C40.1072 9.25167 40.0816 9.31767 40.0302 9.369C39.9789 9.42033 39.9166 9.446 39.8432 9.446H38.4682V11.833C38.4682 12.1483 38.5232 12.3867 38.6332 12.548C38.7432 12.7093 38.9266 12.79 39.1832 12.79H39.9422C40.0156 12.79 40.0779 12.8157 40.1292 12.867C40.1806 12.9183 40.2062 12.9807 40.2062 13.054V13.736C40.2062 13.8093 40.1806 13.8717 40.1292 13.923C40.0852 13.9743 40.0229 14 39.9422 14H39.0512Z" fill="#535356"/>
<path d="M0.5 0.5H52.5V17C52.5 18.933 50.933 20.5 49 20.5H0.5V0.5Z" stroke="#EAEAEF"/>
</svg>
