<svg width="402" height="135" viewBox="0 0 402 135" fill="none" xmlns="http://www.w3.org/2000/svg">
<rect x="0.5" y="0.5" width="401" height="134" fill="white"/>
<rect width="400" height="133" transform="translate(1 1)" fill="white"/>
<rect width="320" height="73" transform="translate(41 31)" fill="white"/>
<path d="M45.173 44.13C44.4017 44.13 43.7387 44.013 43.184 43.779C42.6293 43.545 42.209 43.2373 41.923 42.856C41.637 42.4747 41.4853 42.063 41.468 41.621C41.468 41.543 41.494 41.478 41.546 41.426C41.598 41.374 41.663 41.348 41.741 41.348H42.898C43.002 41.348 43.08 41.3697 43.132 41.413C43.1927 41.4477 43.249 41.5083 43.301 41.595C43.3877 41.8897 43.587 42.1367 43.899 42.336C44.211 42.5353 44.6357 42.635 45.173 42.635C45.7883 42.635 46.252 42.5353 46.564 42.336C46.876 42.128 47.032 41.842 47.032 41.478C47.032 41.2353 46.9497 41.036 46.785 40.88C46.629 40.724 46.3907 40.5897 46.07 40.477C45.758 40.3643 45.29 40.2257 44.666 40.061C43.6433 39.8183 42.8937 39.4977 42.417 39.099C41.949 38.6917 41.715 38.1153 41.715 37.37C41.715 36.8673 41.8493 36.421 42.118 36.031C42.3953 35.641 42.7897 35.3333 43.301 35.108C43.821 34.8827 44.4233 34.77 45.108 34.77C45.8187 34.77 46.434 34.8957 46.954 35.147C47.474 35.3983 47.8683 35.7147 48.137 36.096C48.4143 36.4687 48.5617 36.8413 48.579 37.214C48.579 37.292 48.553 37.357 48.501 37.409C48.449 37.461 48.384 37.487 48.306 37.487H47.097C46.915 37.487 46.7893 37.4047 46.72 37.24C46.668 36.9627 46.4947 36.733 46.2 36.551C45.9053 36.3603 45.5413 36.265 45.108 36.265C44.6227 36.265 44.2413 36.356 43.964 36.538C43.6867 36.72 43.548 36.9843 43.548 37.331C43.548 37.5737 43.6173 37.773 43.756 37.929C43.8947 38.085 44.1113 38.2237 44.406 38.345C44.7093 38.4663 45.1427 38.6007 45.706 38.748C46.4687 38.9213 47.0753 39.1163 47.526 39.333C47.9853 39.5497 48.3233 39.8227 48.54 40.152C48.7567 40.4813 48.865 40.9017 48.865 41.413C48.865 41.9677 48.709 42.453 48.397 42.869C48.0937 43.2763 47.6603 43.5883 47.097 43.805C46.5423 44.0217 45.901 44.13 45.173 44.13ZM52.5673 44C52.4806 44 52.4069 43.9697 52.3463 43.909C52.2856 43.8483 52.2553 43.7747 52.2553 43.688V36.499H49.8503C49.7636 36.499 49.6899 36.4687 49.6293 36.408C49.5686 36.3473 49.5383 36.2737 49.5383 36.187V35.225C49.5383 35.1297 49.5643 35.0517 49.6163 34.991C49.6769 34.9303 49.7549 34.9 49.8503 34.9H56.4803C56.5756 34.9 56.6536 34.9303 56.7143 34.991C56.7749 35.0517 56.8053 35.1297 56.8053 35.225V36.187C56.8053 36.2737 56.7749 36.3473 56.7143 36.408C56.6536 36.4687 56.5756 36.499 56.4803 36.499H54.0883V43.688C54.0883 43.7747 54.0579 43.8483 53.9973 43.909C53.9366 43.9697 53.8586 44 53.7633 44H52.5673ZM56.6132 44C56.5439 44 56.4789 43.974 56.4182 43.922C56.3662 43.87 56.3402 43.805 56.3402 43.727L56.3662 43.61L59.4992 35.225C59.5599 35.0083 59.7115 34.9 59.9542 34.9H61.3712C61.5965 34.9 61.7482 35.0083 61.8262 35.225L64.9592 43.61C64.9679 43.636 64.9722 43.675 64.9722 43.727C64.9722 43.805 64.9462 43.87 64.8942 43.922C64.8422 43.974 64.7815 44 64.7122 44H63.5812C63.4685 44 63.3819 43.974 63.3212 43.922C63.2605 43.87 63.2215 43.8137 63.2042 43.753L62.5932 42.167H58.7322L58.1212 43.753C58.0519 43.9177 57.9262 44 57.7442 44H56.6132ZM62.1382 40.672L60.6562 36.655L59.1872 40.672H62.1382ZM66.4979 44C66.4112 44 66.3375 43.9697 66.2769 43.909C66.2162 43.8483 66.1859 43.7747 66.1859 43.688V35.225C66.1859 35.1297 66.2119 35.0517 66.2639 34.991C66.3245 34.9303 66.4025 34.9 66.4979 34.9H69.8649C70.9222 34.9 71.7499 35.147 72.3479 35.641C72.9545 36.135 73.2579 36.837 73.2579 37.747C73.2579 38.3797 73.1019 38.9127 72.7899 39.346C72.4865 39.7707 72.0619 40.0783 71.5159 40.269L73.4139 43.584C73.4399 43.636 73.4529 43.6837 73.4529 43.727C73.4529 43.805 73.4225 43.87 73.3619 43.922C73.3099 43.974 73.2492 44 73.1799 44H71.9969C71.8582 44 71.7499 43.9697 71.6719 43.909C71.6025 43.8483 71.5375 43.7617 71.4769 43.649L69.7999 40.568H67.9929V43.688C67.9929 43.7747 67.9625 43.8483 67.9019 43.909C67.8499 43.9697 67.7762 44 67.6809 44H66.4979ZM69.8259 39.099C70.3459 39.099 70.7359 38.982 70.9959 38.748C71.2645 38.514 71.3989 38.176 71.3989 37.734C71.3989 37.292 71.2645 36.9497 70.9959 36.707C70.7359 36.4643 70.3459 36.343 69.8259 36.343H67.9929V39.099H69.8259ZM77.1454 44C77.0587 44 76.985 43.9697 76.9244 43.909C76.8637 43.8483 76.8334 43.7747 76.8334 43.688V36.499H74.4284C74.3417 36.499 74.268 36.4687 74.2074 36.408C74.1467 36.3473 74.1164 36.2737 74.1164 36.187V35.225C74.1164 35.1297 74.1424 35.0517 74.1944 34.991C74.255 34.9303 74.333 34.9 74.4284 34.9H81.0584C81.1537 34.9 81.2317 34.9303 81.2924 34.991C81.353 35.0517 81.3834 35.1297 81.3834 35.225V36.187C81.3834 36.2737 81.353 36.3473 81.2924 36.408C81.2317 36.4687 81.1537 36.499 81.0584 36.499H78.6664V43.688C78.6664 43.7747 78.636 43.8483 78.5754 43.909C78.5147 43.9697 78.4367 44 78.3414 44H77.1454ZM85.6678 44C85.5811 44 85.5075 43.9697 85.4468 43.909C85.3861 43.8483 85.3558 43.7747 85.3558 43.688V35.225C85.3558 35.1297 85.3818 35.0517 85.4338 34.991C85.4945 34.9303 85.5725 34.9 85.6678 34.9H88.8398C91.3878 34.9 92.6878 36.0787 92.7398 38.436C92.7571 38.9387 92.7658 39.2767 92.7658 39.45C92.7658 39.6147 92.7571 39.9483 92.7398 40.451C92.7051 41.6643 92.3801 42.5613 91.7648 43.142C91.1495 43.714 90.1961 44 88.9048 44H85.6678ZM88.8398 42.505C89.5678 42.505 90.0921 42.3447 90.4128 42.024C90.7335 41.6947 90.9025 41.1573 90.9198 40.412C90.9371 39.892 90.9458 39.567 90.9458 39.437C90.9458 39.2983 90.9371 38.9777 90.9198 38.475C90.9025 37.7643 90.7205 37.24 90.3738 36.902C90.0358 36.564 89.5028 36.395 88.7748 36.395H87.1628V42.505H88.8398ZM93.7597 44C93.6904 44 93.6254 43.974 93.5647 43.922C93.5127 43.87 93.4867 43.805 93.4867 43.727L93.5127 43.61L96.6457 35.225C96.7064 35.0083 96.858 34.9 97.1007 34.9H98.5177C98.743 34.9 98.8947 35.0083 98.9727 35.225L102.106 43.61C102.114 43.636 102.119 43.675 102.119 43.727C102.119 43.805 102.093 43.87 102.041 43.922C101.989 43.974 101.928 44 101.859 44H100.728C100.615 44 100.528 43.974 100.468 43.922C100.407 43.87 100.368 43.8137 100.351 43.753L99.7397 42.167H95.8787L95.2677 43.753C95.1984 43.9177 95.0727 44 94.8907 44H93.7597ZM99.2847 40.672L97.8027 36.655L96.3337 40.672H99.2847ZM104.694 44C104.608 44 104.534 43.9697 104.473 43.909C104.413 43.8483 104.382 43.7747 104.382 43.688V36.499H101.977C101.891 36.499 101.817 36.4687 101.756 36.408C101.696 36.3473 101.665 36.2737 101.665 36.187V35.225C101.665 35.1297 101.691 35.0517 101.743 34.991C101.804 34.9303 101.882 34.9 101.977 34.9H108.607C108.703 34.9 108.781 34.9303 108.841 34.991C108.902 35.0517 108.932 35.1297 108.932 35.225V36.187C108.932 36.2737 108.902 36.3473 108.841 36.408C108.781 36.4687 108.703 36.499 108.607 36.499H106.215V43.688C106.215 43.7747 106.185 43.8483 106.124 43.909C106.064 43.9697 105.986 44 105.89 44H104.694ZM110.563 44C110.477 44 110.403 43.9697 110.342 43.909C110.282 43.8483 110.251 43.7747 110.251 43.688V35.225C110.251 35.1297 110.277 35.0517 110.329 34.991C110.39 34.9303 110.468 34.9 110.563 34.9H116.283C116.379 34.9 116.457 34.9303 116.517 34.991C116.578 35.0517 116.608 35.1297 116.608 35.225V36.083C116.608 36.1783 116.578 36.2563 116.517 36.317C116.457 36.369 116.379 36.395 116.283 36.395H112.006V38.696H115.997C116.093 38.696 116.171 38.7263 116.231 38.787C116.292 38.839 116.322 38.9127 116.322 39.008V39.814C116.322 39.9093 116.292 39.9873 116.231 40.048C116.171 40.1 116.093 40.126 115.997 40.126H112.006V42.505H116.387C116.483 42.505 116.561 42.5353 116.621 42.596C116.682 42.6567 116.712 42.7347 116.712 42.83V43.688C116.712 43.7833 116.682 43.8613 116.621 43.922C116.561 43.974 116.483 44 116.387 44H110.563Z" fill="#A0A0A5"/>
<rect x="41.5" y="59.5" width="319" height="44" rx="2.5" fill="#F5F7F9"/>
<path d="M60.14 86C60.04 86 59.955 85.97 59.885 85.91C59.825 85.84 59.795 85.755 59.795 85.655V77.255L57.305 79.175C57.235 79.235 57.16 79.265 57.08 79.265C56.99 79.265 56.905 79.215 56.825 79.115L56.435 78.62C56.385 78.55 56.36 78.48 56.36 78.41C56.36 78.29 56.41 78.195 56.51 78.125L59.78 75.605C59.89 75.535 60.02 75.5 60.17 75.5H60.935C61.035 75.5 61.115 75.535 61.175 75.605C61.245 75.665 61.28 75.745 61.28 75.845V85.655C61.28 85.755 61.245 85.84 61.175 85.91C61.115 85.97 61.035 86 60.935 86H60.14ZM66.886 86.15C66.096 86.15 65.411 86.025 64.831 85.775C64.261 85.515 63.826 85.18 63.526 84.77C63.236 84.36 63.081 83.93 63.061 83.48C63.061 83.39 63.091 83.32 63.151 83.27C63.211 83.21 63.286 83.18 63.376 83.18H64.111C64.321 83.18 64.461 83.29 64.531 83.51C64.661 84.01 64.941 84.365 65.371 84.575C65.801 84.775 66.306 84.875 66.886 84.875C67.596 84.875 68.161 84.71 68.581 84.38C69.001 84.04 69.211 83.555 69.211 82.925C69.211 81.715 68.476 81.11 67.006 81.11H65.581C65.481 81.11 65.396 81.08 65.326 81.02C65.266 80.95 65.236 80.865 65.236 80.765V80.36C65.236 80.22 65.291 80.085 65.401 79.955L68.311 76.775H63.886C63.786 76.775 63.701 76.745 63.631 76.685C63.571 76.615 63.541 76.53 63.541 76.43V75.86C63.541 75.76 63.571 75.675 63.631 75.605C63.701 75.535 63.786 75.5 63.886 75.5H69.871C69.981 75.5 70.066 75.535 70.126 75.605C70.196 75.665 70.231 75.75 70.231 75.86V76.4C70.231 76.52 70.176 76.635 70.066 76.745L67.171 79.97L67.411 79.985C68.431 80.015 69.236 80.28 69.826 80.78C70.416 81.28 70.711 82.01 70.711 82.97C70.711 83.62 70.546 84.185 70.216 84.665C69.886 85.145 69.431 85.515 68.851 85.775C68.271 86.025 67.616 86.15 66.886 86.15ZM72.0562 87.26C71.9762 87.26 71.9062 87.23 71.8462 87.17C71.7862 87.11 71.7562 87.04 71.7562 86.96C71.7562 86.92 71.7712 86.86 71.8012 86.78L76.9312 74.48C77.0112 74.3 77.1412 74.21 77.3212 74.21H77.9062C77.9862 74.21 78.0562 74.24 78.1162 74.3C78.1762 74.36 78.2062 74.43 78.2062 74.51C78.2062 74.58 78.1962 74.64 78.1762 74.69L73.0312 86.99C72.9512 87.17 72.8212 87.26 72.6412 87.26H72.0562ZM82.6839 86C82.5839 86 82.4989 85.97 82.4289 85.91C82.3689 85.84 82.3389 85.755 82.3389 85.655V77.255L79.8489 79.175C79.7789 79.235 79.7039 79.265 79.6239 79.265C79.5339 79.265 79.4489 79.215 79.3689 79.115L78.9789 78.62C78.9289 78.55 78.9039 78.48 78.9039 78.41C78.9039 78.29 78.9539 78.195 79.0539 78.125L82.3239 75.605C82.4339 75.535 82.5639 75.5 82.7139 75.5H83.4789C83.5789 75.5 83.6589 75.535 83.7189 75.605C83.7889 75.665 83.8239 75.745 83.8239 75.845V85.655C83.8239 85.755 83.7889 85.84 83.7189 85.91C83.6589 85.97 83.5789 86 83.4789 86H82.6839ZM89.715 86.15C88.425 86.15 87.48 85.775 86.88 85.025C86.28 84.275 85.96 83.29 85.92 82.07C85.91 81.8 85.905 81.365 85.905 80.765C85.905 80.145 85.91 79.695 85.92 79.415C85.95 78.215 86.27 77.24 86.88 76.49C87.49 75.73 88.435 75.35 89.715 75.35C91.005 75.35 91.955 75.73 92.565 76.49C93.175 77.24 93.495 78.215 93.525 79.415C93.545 79.975 93.555 80.425 93.555 80.765C93.555 81.095 93.545 81.53 93.525 82.07C93.485 83.29 93.165 84.275 92.565 85.025C91.965 85.775 91.015 86.15 89.715 86.15ZM89.715 84.86C90.465 84.86 91.03 84.61 91.41 84.11C91.8 83.61 92.005 82.905 92.025 81.995C92.045 81.415 92.055 80.995 92.055 80.735C92.055 80.455 92.045 80.045 92.025 79.505C92.005 78.605 91.805 77.9 91.425 77.39C91.045 76.88 90.475 76.625 89.715 76.625C88.965 76.625 88.395 76.88 88.005 77.39C87.625 77.9 87.425 78.605 87.405 79.505L87.39 80.735L87.405 81.995C87.425 82.905 87.625 83.61 88.005 84.11C88.395 84.61 88.965 84.86 89.715 84.86ZM94.8785 87.26C94.7985 87.26 94.7285 87.23 94.6685 87.17C94.6085 87.11 94.5785 87.04 94.5785 86.96C94.5785 86.92 94.5935 86.86 94.6235 86.78L99.7535 74.48C99.8335 74.3 99.9635 74.21 100.143 74.21H100.728C100.808 74.21 100.878 74.24 100.938 74.3C100.998 74.36 101.028 74.43 101.028 74.51C101.028 74.58 101.018 74.64 100.998 74.69L95.8535 86.99C95.7735 87.17 95.6435 87.26 95.4635 87.26H94.8785ZM102.3 86C102.2 86 102.115 85.97 102.045 85.91C101.985 85.84 101.955 85.755 101.955 85.655V85.175C101.955 84.945 102.08 84.725 102.33 84.515L105.51 81.335C106.28 80.695 106.81 80.175 107.1 79.775C107.39 79.365 107.535 78.935 107.535 78.485C107.535 77.905 107.37 77.45 107.04 77.12C106.72 76.79 106.25 76.625 105.63 76.625C105.05 76.625 104.585 76.8 104.235 77.15C103.885 77.49 103.67 77.945 103.59 78.515C103.57 78.635 103.52 78.725 103.44 78.785C103.37 78.835 103.29 78.86 103.2 78.86H102.42C102.33 78.86 102.255 78.835 102.195 78.785C102.135 78.725 102.105 78.655 102.105 78.575C102.125 78.035 102.27 77.52 102.54 77.03C102.81 76.53 103.205 76.125 103.725 75.815C104.255 75.495 104.89 75.335 105.63 75.335C106.76 75.335 107.61 75.63 108.18 76.22C108.76 76.8 109.05 77.54 109.05 78.44C109.05 79.07 108.89 79.64 108.57 80.15C108.26 80.65 107.775 81.19 107.115 81.77L104.235 84.695H108.915C109.025 84.695 109.11 84.73 109.17 84.8C109.24 84.86 109.275 84.94 109.275 85.04V85.655C109.275 85.755 109.24 85.84 109.17 85.91C109.1 85.97 109.015 86 108.915 86H102.3ZM114.778 86.15C113.488 86.15 112.543 85.775 111.943 85.025C111.343 84.275 111.023 83.29 110.983 82.07C110.973 81.8 110.968 81.365 110.968 80.765C110.968 80.145 110.973 79.695 110.983 79.415C111.013 78.215 111.333 77.24 111.943 76.49C112.553 75.73 113.498 75.35 114.778 75.35C116.068 75.35 117.018 75.73 117.628 76.49C118.238 77.24 118.558 78.215 118.588 79.415C118.608 79.975 118.618 80.425 118.618 80.765C118.618 81.095 118.608 81.53 118.588 82.07C118.548 83.29 118.228 84.275 117.628 85.025C117.028 85.775 116.078 86.15 114.778 86.15ZM114.778 84.86C115.528 84.86 116.093 84.61 116.473 84.11C116.863 83.61 117.068 82.905 117.088 81.995C117.108 81.415 117.118 80.995 117.118 80.735C117.118 80.455 117.108 80.045 117.088 79.505C117.068 78.605 116.868 77.9 116.488 77.39C116.108 76.88 115.538 76.625 114.778 76.625C114.028 76.625 113.458 76.88 113.068 77.39C112.688 77.9 112.488 78.605 112.468 79.505L112.453 80.735L112.468 81.995C112.488 82.905 112.688 83.61 113.068 84.11C113.458 84.61 114.028 84.86 114.778 84.86ZM120.625 86C120.525 86 120.44 85.97 120.37 85.91C120.31 85.84 120.28 85.755 120.28 85.655V85.175C120.28 84.945 120.405 84.725 120.655 84.515L123.835 81.335C124.605 80.695 125.135 80.175 125.425 79.775C125.715 79.365 125.86 78.935 125.86 78.485C125.86 77.905 125.695 77.45 125.365 77.12C125.045 76.79 124.575 76.625 123.955 76.625C123.375 76.625 122.91 76.8 122.56 77.15C122.21 77.49 121.995 77.945 121.915 78.515C121.895 78.635 121.845 78.725 121.765 78.785C121.695 78.835 121.615 78.86 121.525 78.86H120.745C120.655 78.86 120.58 78.835 120.52 78.785C120.46 78.725 120.43 78.655 120.43 78.575C120.45 78.035 120.595 77.52 120.865 77.03C121.135 76.53 121.53 76.125 122.05 75.815C122.58 75.495 123.215 75.335 123.955 75.335C125.085 75.335 125.935 75.63 126.505 76.22C127.085 76.8 127.375 77.54 127.375 78.44C127.375 79.07 127.215 79.64 126.895 80.15C126.585 80.65 126.1 81.19 125.44 81.77L122.56 84.695H127.24C127.35 84.695 127.435 84.73 127.495 84.8C127.565 84.86 127.6 84.94 127.6 85.04V85.655C127.6 85.755 127.565 85.84 127.495 85.91C127.425 85.97 127.34 86 127.24 86H120.625ZM132.819 86.15C132.029 86.15 131.344 86.025 130.764 85.775C130.194 85.515 129.759 85.18 129.459 84.77C129.169 84.36 129.014 83.93 128.994 83.48C128.994 83.39 129.024 83.32 129.084 83.27C129.144 83.21 129.219 83.18 129.309 83.18H130.044C130.254 83.18 130.394 83.29 130.464 83.51C130.594 84.01 130.874 84.365 131.304 84.575C131.734 84.775 132.239 84.875 132.819 84.875C133.529 84.875 134.094 84.71 134.514 84.38C134.934 84.04 135.144 83.555 135.144 82.925C135.144 81.715 134.409 81.11 132.939 81.11H131.514C131.414 81.11 131.329 81.08 131.259 81.02C131.199 80.95 131.169 80.865 131.169 80.765V80.36C131.169 80.22 131.224 80.085 131.334 79.955L134.244 76.775H129.819C129.719 76.775 129.634 76.745 129.564 76.685C129.504 76.615 129.474 76.53 129.474 76.43V75.86C129.474 75.76 129.504 75.675 129.564 75.605C129.634 75.535 129.719 75.5 129.819 75.5H135.804C135.914 75.5 135.999 75.535 136.059 75.605C136.129 75.665 136.164 75.75 136.164 75.86V76.4C136.164 76.52 136.109 76.635 135.999 76.745L133.104 79.97L133.344 79.985C134.364 80.015 135.169 80.28 135.759 80.78C136.349 81.28 136.644 82.01 136.644 82.97C136.644 83.62 136.479 84.185 136.149 84.665C135.819 85.145 135.364 85.515 134.784 85.775C134.204 86.025 133.549 86.15 132.819 86.15Z" fill="#303032"/>
<rect x="41.5" y="59.5" width="319" height="44" rx="2.5" stroke="#DDDDE2"/>
<path d="M0.5 0.5H52.5V17C52.5 18.933 50.933 20.5 49 20.5H0.5V0.5Z" fill="#F5F7F9"/>
<path d="M13.122 14C13.0487 14 12.9863 13.9743 12.935 13.923C12.8837 13.8717 12.858 13.8093 12.858 13.736V6.564C12.858 6.48333 12.8837 6.421 12.935 6.377C12.9863 6.32567 13.0487 6.3 13.122 6.3H14.156C14.2367 6.3 14.299 6.32567 14.343 6.377C14.3943 6.421 14.42 6.48333 14.42 6.564V13.736C14.42 13.8093 14.3943 13.8717 14.343 13.923C14.299 13.9743 14.2367 14 14.156 14H13.122ZM16.2771 14C16.2038 14 16.1414 13.9743 16.0901 13.923C16.0388 13.8717 16.0131 13.8093 16.0131 13.736V8.544C16.0131 8.47067 16.0388 8.40833 16.0901 8.357C16.1414 8.30567 16.2038 8.28 16.2771 8.28H17.1791C17.2524 8.28 17.3148 8.30567 17.3661 8.357C17.4174 8.40833 17.4431 8.47067 17.4431 8.544V8.995C17.8758 8.445 18.4881 8.17 19.2801 8.17C19.9548 8.17 20.4901 8.39367 20.8861 8.841C21.2821 9.281 21.4801 9.88233 21.4801 10.645V13.736C21.4801 13.8093 21.4544 13.8717 21.4031 13.923C21.3591 13.9743 21.2968 14 21.2161 14H20.2481C20.1748 14 20.1124 13.9743 20.0611 13.923C20.0098 13.8717 19.9841 13.8093 19.9841 13.736V10.711C19.9841 10.2783 19.8778 9.94467 19.6651 9.71C19.4598 9.468 19.1591 9.347 18.7631 9.347C18.3744 9.347 18.0664 9.468 17.8391 9.71C17.6191 9.952 17.5091 10.2857 17.5091 10.711V13.736C17.5091 13.8093 17.4834 13.8717 17.4321 13.923C17.3881 13.9743 17.3258 14 17.2451 14H16.2771ZM23.1524 16.09C23.079 16.09 23.0167 16.0643 22.9654 16.013C22.914 15.969 22.8884 15.9067 22.8884 15.826V8.544C22.8884 8.46333 22.914 8.401 22.9654 8.357C23.0167 8.30567 23.079 8.28 23.1524 8.28H24.0214C24.102 8.28 24.1644 8.30567 24.2084 8.357C24.2597 8.401 24.2854 8.46333 24.2854 8.544V8.984C24.696 8.44133 25.2827 8.17 26.0454 8.17C26.786 8.17 27.3544 8.40467 27.7504 8.874C28.1464 9.336 28.359 9.963 28.3884 10.755C28.3957 10.843 28.3994 10.9713 28.3994 11.14C28.3994 11.316 28.3957 11.448 28.3884 11.536C28.359 12.306 28.1464 12.9293 27.7504 13.406C27.3544 13.8753 26.786 14.11 26.0454 14.11C25.3047 14.11 24.74 13.8497 24.3514 13.329V15.826C24.3514 15.9067 24.3257 15.969 24.2744 16.013C24.2304 16.0643 24.168 16.09 24.0874 16.09H23.1524ZM25.6384 12.933C26.4304 12.933 26.852 12.4453 26.9034 11.47C26.9107 11.3967 26.9144 11.2867 26.9144 11.14C26.9144 10.9933 26.9107 10.8833 26.9034 10.81C26.852 9.83467 26.4304 9.347 25.6384 9.347C25.213 9.347 24.8977 9.48267 24.6924 9.754C24.487 10.0253 24.3734 10.359 24.3514 10.755L24.3404 11.173L24.3514 11.602C24.366 11.9687 24.4797 12.284 24.6924 12.548C24.9124 12.8047 25.2277 12.933 25.6384 12.933ZM31.7572 14.11C31.0825 14.11 30.5509 13.89 30.1622 13.45C29.7735 13.0027 29.5792 12.3977 29.5792 11.635V8.544C29.5792 8.47067 29.6049 8.40833 29.6562 8.357C29.7075 8.30567 29.7699 8.28 29.8432 8.28H30.8112C30.8919 8.28 30.9542 8.30567 30.9982 8.357C31.0495 8.401 31.0752 8.46333 31.0752 8.544V11.569C31.0752 12.4783 31.4749 12.933 32.2742 12.933C32.6555 12.933 32.9562 12.812 33.1762 12.57C33.4035 12.328 33.5172 11.9943 33.5172 11.569V8.544C33.5172 8.47067 33.5429 8.40833 33.5942 8.357C33.6455 8.30567 33.7079 8.28 33.7812 8.28H34.7492C34.8299 8.28 34.8922 8.30567 34.9362 8.357C34.9875 8.401 35.0132 8.46333 35.0132 8.544V13.736C35.0132 13.8093 34.9875 13.8717 34.9362 13.923C34.8922 13.9743 34.8299 14 34.7492 14H33.8582C33.7849 14 33.7225 13.9743 33.6712 13.923C33.6199 13.8717 33.5942 13.8093 33.5942 13.736V13.285C33.1835 13.835 32.5712 14.11 31.7572 14.11ZM39.0512 14C38.3839 14 37.8816 13.8277 37.5442 13.483C37.2142 13.131 37.0492 12.6177 37.0492 11.943V9.446H36.1802C36.1069 9.446 36.0446 9.42033 35.9932 9.369C35.9419 9.31033 35.9162 9.24433 35.9162 9.171V8.544C35.9162 8.47067 35.9419 8.40833 35.9932 8.357C36.0446 8.30567 36.1069 8.28 36.1802 8.28H37.0492V6.454C37.0492 6.37333 37.0749 6.311 37.1262 6.267C37.1776 6.21567 37.2399 6.19 37.3132 6.19H38.2042C38.2849 6.19 38.3472 6.21567 38.3912 6.267C38.4426 6.311 38.4682 6.37333 38.4682 6.454V8.28H39.8432C39.9239 8.28 39.9862 8.30567 40.0302 8.357C40.0816 8.401 40.1072 8.46333 40.1072 8.544V9.171C40.1072 9.25167 40.0816 9.31767 40.0302 9.369C39.9789 9.42033 39.9166 9.446 39.8432 9.446H38.4682V11.833C38.4682 12.1483 38.5232 12.3867 38.6332 12.548C38.7432 12.7093 38.9266 12.79 39.1832 12.79H39.9422C40.0156 12.79 40.0779 12.8157 40.1292 12.867C40.1806 12.9183 40.2062 12.9807 40.2062 13.054V13.736C40.2062 13.8093 40.1806 13.8717 40.1292 13.923C40.0852 13.9743 40.0229 14 39.9422 14H39.0512Z" fill="#535356"/>
<path d="M0.5 0.5H52.5V17C52.5 18.933 50.933 20.5 49 20.5H0.5V0.5Z" stroke="#EAEAEF"/>
<rect x="0.5" y="0.5" width="401" height="134" stroke="#EAEAEF"/>
</svg>
