<svg width="802" height="258" viewBox="0 0 802 258" fill="none" xmlns="http://www.w3.org/2000/svg">
<rect width="400" height="256" transform="translate(1 1)" fill="white"/>
<path d="M0.5 0.5H52.5V17C52.5 18.933 50.933 20.5 49 20.5H0.5V0.5Z" fill="#F5F7F9"/>
<path d="M13.122 14C13.0487 14 12.9863 13.9743 12.935 13.923C12.8837 13.8717 12.858 13.8093 12.858 13.736V6.564C12.858 6.48333 12.8837 6.421 12.935 6.377C12.9863 6.32567 13.0487 6.3 13.122 6.3H14.156C14.2367 6.3 14.299 6.32567 14.343 6.377C14.3943 6.421 14.42 6.48333 14.42 6.564V13.736C14.42 13.8093 14.3943 13.8717 14.343 13.923C14.299 13.9743 14.2367 14 14.156 14H13.122ZM16.2771 14C16.2038 14 16.1414 13.9743 16.0901 13.923C16.0388 13.8717 16.0131 13.8093 16.0131 13.736V8.544C16.0131 8.47067 16.0388 8.40833 16.0901 8.357C16.1414 8.30567 16.2038 8.28 16.2771 8.28H17.1791C17.2524 8.28 17.3148 8.30567 17.3661 8.357C17.4174 8.40833 17.4431 8.47067 17.4431 8.544V8.995C17.8758 8.445 18.4881 8.17 19.2801 8.17C19.9548 8.17 20.4901 8.39367 20.8861 8.841C21.2821 9.281 21.4801 9.88233 21.4801 10.645V13.736C21.4801 13.8093 21.4544 13.8717 21.4031 13.923C21.3591 13.9743 21.2968 14 21.2161 14H20.2481C20.1748 14 20.1124 13.9743 20.0611 13.923C20.0098 13.8717 19.9841 13.8093 19.9841 13.736V10.711C19.9841 10.2783 19.8778 9.94467 19.6651 9.71C19.4598 9.468 19.1591 9.347 18.7631 9.347C18.3744 9.347 18.0664 9.468 17.8391 9.71C17.6191 9.952 17.5091 10.2857 17.5091 10.711V13.736C17.5091 13.8093 17.4834 13.8717 17.4321 13.923C17.3881 13.9743 17.3258 14 17.2451 14H16.2771ZM23.1524 16.09C23.079 16.09 23.0167 16.0643 22.9654 16.013C22.914 15.969 22.8884 15.9067 22.8884 15.826V8.544C22.8884 8.46333 22.914 8.401 22.9654 8.357C23.0167 8.30567 23.079 8.28 23.1524 8.28H24.0214C24.102 8.28 24.1644 8.30567 24.2084 8.357C24.2597 8.401 24.2854 8.46333 24.2854 8.544V8.984C24.696 8.44133 25.2827 8.17 26.0454 8.17C26.786 8.17 27.3544 8.40467 27.7504 8.874C28.1464 9.336 28.359 9.963 28.3884 10.755C28.3957 10.843 28.3994 10.9713 28.3994 11.14C28.3994 11.316 28.3957 11.448 28.3884 11.536C28.359 12.306 28.1464 12.9293 27.7504 13.406C27.3544 13.8753 26.786 14.11 26.0454 14.11C25.3047 14.11 24.74 13.8497 24.3514 13.329V15.826C24.3514 15.9067 24.3257 15.969 24.2744 16.013C24.2304 16.0643 24.168 16.09 24.0874 16.09H23.1524ZM25.6384 12.933C26.4304 12.933 26.852 12.4453 26.9034 11.47C26.9107 11.3967 26.9144 11.2867 26.9144 11.14C26.9144 10.9933 26.9107 10.8833 26.9034 10.81C26.852 9.83467 26.4304 9.347 25.6384 9.347C25.213 9.347 24.8977 9.48267 24.6924 9.754C24.487 10.0253 24.3734 10.359 24.3514 10.755L24.3404 11.173L24.3514 11.602C24.366 11.9687 24.4797 12.284 24.6924 12.548C24.9124 12.8047 25.2277 12.933 25.6384 12.933ZM31.7572 14.11C31.0825 14.11 30.5509 13.89 30.1622 13.45C29.7735 13.0027 29.5792 12.3977 29.5792 11.635V8.544C29.5792 8.47067 29.6049 8.40833 29.6562 8.357C29.7075 8.30567 29.7699 8.28 29.8432 8.28H30.8112C30.8919 8.28 30.9542 8.30567 30.9982 8.357C31.0495 8.401 31.0752 8.46333 31.0752 8.544V11.569C31.0752 12.4783 31.4749 12.933 32.2742 12.933C32.6555 12.933 32.9562 12.812 33.1762 12.57C33.4035 12.328 33.5172 11.9943 33.5172 11.569V8.544C33.5172 8.47067 33.5429 8.40833 33.5942 8.357C33.6455 8.30567 33.7079 8.28 33.7812 8.28H34.7492C34.8299 8.28 34.8922 8.30567 34.9362 8.357C34.9875 8.401 35.0132 8.46333 35.0132 8.544V13.736C35.0132 13.8093 34.9875 13.8717 34.9362 13.923C34.8922 13.9743 34.8299 14 34.7492 14H33.8582C33.7849 14 33.7225 13.9743 33.6712 13.923C33.6199 13.8717 33.5942 13.8093 33.5942 13.736V13.285C33.1835 13.835 32.5712 14.11 31.7572 14.11ZM39.0512 14C38.3839 14 37.8816 13.8277 37.5442 13.483C37.2142 13.131 37.0492 12.6177 37.0492 11.943V9.446H36.1802C36.1069 9.446 36.0446 9.42033 35.9932 9.369C35.9419 9.31033 35.9162 9.24433 35.9162 9.171V8.544C35.9162 8.47067 35.9419 8.40833 35.9932 8.357C36.0446 8.30567 36.1069 8.28 36.1802 8.28H37.0492V6.454C37.0492 6.37333 37.0749 6.311 37.1262 6.267C37.1776 6.21567 37.2399 6.19 37.3132 6.19H38.2042C38.2849 6.19 38.3472 6.21567 38.3912 6.267C38.4426 6.311 38.4682 6.37333 38.4682 6.454V8.28H39.8432C39.9239 8.28 39.9862 8.30567 40.0302 8.357C40.0816 8.401 40.1072 8.46333 40.1072 8.544V9.171C40.1072 9.25167 40.0816 9.31767 40.0302 9.369C39.9789 9.42033 39.9166 9.446 39.8432 9.446H38.4682V11.833C38.4682 12.1483 38.5232 12.3867 38.6332 12.548C38.7432 12.7093 38.9266 12.79 39.1832 12.79H39.9422C40.0156 12.79 40.0779 12.8157 40.1292 12.867C40.1806 12.9183 40.2062 12.9807 40.2062 13.054V13.736C40.2062 13.8093 40.1806 13.8717 40.1292 13.923C40.0852 13.9743 40.0229 14 39.9422 14H39.0512Z" fill="#535356"/>
<path d="M0.5 0.5H52.5V17C52.5 18.933 50.933 20.5 49 20.5H0.5V0.5Z" stroke="#EAEAEF"/>
<rect width="400" height="103" transform="translate(1 47)" fill="white"/>
<rect width="320" height="73" transform="translate(41 62)" fill="white"/>
<path d="M45.524 75.13C44.328 75.13 43.4007 74.8223 42.742 74.207C42.092 73.5917 41.7453 72.725 41.702 71.607C41.6933 71.373 41.689 70.9917 41.689 70.463C41.689 69.9257 41.6933 69.5357 41.702 69.293C41.7453 68.1837 42.0963 67.3213 42.755 66.706C43.4223 66.082 44.3453 65.77 45.524 65.77C46.2953 65.77 46.967 65.9043 47.539 66.173C48.111 66.433 48.553 66.7927 48.865 67.252C49.177 67.7027 49.3417 68.214 49.359 68.786V68.812C49.359 68.8813 49.3287 68.942 49.268 68.994C49.216 69.0373 49.1553 69.059 49.086 69.059H47.851C47.747 69.059 47.669 69.0373 47.617 68.994C47.565 68.9507 47.5217 68.8683 47.487 68.747C47.3483 68.201 47.1187 67.8197 46.798 67.603C46.4773 67.3777 46.0483 67.265 45.511 67.265C44.263 67.265 43.613 67.9627 43.561 69.358C43.5523 69.592 43.548 69.9517 43.548 70.437C43.548 70.9223 43.5523 71.2907 43.561 71.542C43.613 72.9373 44.263 73.635 45.511 73.635C46.0483 73.635 46.4773 73.5223 46.798 73.297C47.1273 73.0717 47.357 72.6903 47.487 72.153C47.513 72.0317 47.552 71.9493 47.604 71.906C47.6647 71.8627 47.747 71.841 47.851 71.841H49.086C49.164 71.841 49.229 71.867 49.281 71.919C49.3417 71.971 49.3677 72.036 49.359 72.114C49.3417 72.686 49.177 73.2017 48.865 73.661C48.553 74.1117 48.111 74.4713 47.539 74.74C46.967 75 46.2953 75.13 45.524 75.13ZM54.3977 75.13C53.2191 75.13 52.3004 74.831 51.6417 74.233C50.9831 73.635 50.6364 72.7467 50.6017 71.568C50.5931 71.3167 50.5887 70.9483 50.5887 70.463C50.5887 69.969 50.5931 69.5963 50.6017 69.345C50.6364 68.1923 50.9917 67.3083 51.6677 66.693C52.3437 66.0777 53.2537 65.77 54.3977 65.77C55.5417 65.77 56.4517 66.0777 57.1277 66.693C57.8124 67.3083 58.1721 68.1923 58.2067 69.345C58.2241 69.8477 58.2327 70.2203 58.2327 70.463C58.2327 70.697 58.2241 71.0653 58.2067 71.568C58.1634 72.7467 57.8124 73.635 57.1537 74.233C56.4951 74.831 55.5764 75.13 54.3977 75.13ZM54.3977 73.635C54.9784 73.635 55.4421 73.4617 55.7887 73.115C56.1354 72.7597 56.3217 72.2223 56.3477 71.503C56.3651 70.983 56.3737 70.632 56.3737 70.45C56.3737 70.2507 56.3651 69.8997 56.3477 69.397C56.3217 68.6777 56.1354 68.1447 55.7887 67.798C55.4421 67.4427 54.9784 67.265 54.3977 67.265C53.8257 67.265 53.3664 67.4427 53.0197 67.798C52.6731 68.1447 52.4867 68.6777 52.4607 69.397C52.4521 69.6483 52.4477 69.9993 52.4477 70.45C52.4477 70.892 52.4521 71.243 52.4607 71.503C52.4867 72.2223 52.6687 72.7597 53.0067 73.115C53.3534 73.4617 53.8171 73.635 54.3977 73.635ZM60.2518 75C60.1651 75 60.0914 74.9697 60.0308 74.909C59.9701 74.8483 59.9398 74.7747 59.9398 74.688V66.225C59.9398 66.1297 59.9658 66.0517 60.0178 65.991C60.0784 65.9303 60.1564 65.9 60.2518 65.9H61.2528C61.3568 65.9 61.4348 65.9217 61.4868 65.965C61.5388 65.9997 61.5864 66.0473 61.6298 66.108L65.3738 71.932V66.225C65.3738 66.1297 65.3998 66.0517 65.4518 65.991C65.5124 65.9303 65.5904 65.9 65.6858 65.9H66.7778C66.8731 65.9 66.9511 65.9303 67.0118 65.991C67.0724 66.0517 67.1028 66.1297 67.1028 66.225V74.675C67.1028 74.7703 67.0724 74.8483 67.0118 74.909C66.9511 74.9697 66.8774 75 66.7908 75H65.7768C65.6294 75 65.5038 74.9307 65.3998 74.792L61.6688 69.098V74.688C61.6688 74.7833 61.6384 74.8613 61.5778 74.922C61.5171 74.974 61.4391 75 61.3438 75H60.2518ZM71.4452 75C71.3585 75 71.2849 74.9697 71.2242 74.909C71.1635 74.8483 71.1332 74.7747 71.1332 74.688V67.499H68.7282C68.6415 67.499 68.5679 67.4687 68.5072 67.408C68.4465 67.3473 68.4162 67.2737 68.4162 67.187V66.225C68.4162 66.1297 68.4422 66.0517 68.4942 65.991C68.5549 65.9303 68.6329 65.9 68.7282 65.9H75.3582C75.4535 65.9 75.5315 65.9303 75.5922 65.991C75.6529 66.0517 75.6832 66.1297 75.6832 66.225V67.187C75.6832 67.2737 75.6529 67.3473 75.5922 67.408C75.5315 67.4687 75.4535 67.499 75.3582 67.499H72.9662V74.688C72.9662 74.7747 72.9359 74.8483 72.8752 74.909C72.8145 74.9697 72.7365 75 72.6412 75H71.4452ZM75.4911 75C75.4218 75 75.3568 74.974 75.2961 74.922C75.2441 74.87 75.2181 74.805 75.2181 74.727L75.2441 74.61L78.3771 66.225C78.4378 66.0083 78.5895 65.9 78.8321 65.9H80.2491C80.4745 65.9 80.6261 66.0083 80.7041 66.225L83.8371 74.61C83.8458 74.636 83.8501 74.675 83.8501 74.727C83.8501 74.805 83.8241 74.87 83.7721 74.922C83.7201 74.974 83.6595 75 83.5901 75H82.4591C82.3465 75 82.2598 74.974 82.1991 74.922C82.1385 74.87 82.0995 74.8137 82.0821 74.753L81.4711 73.167H77.6101L76.9991 74.753C76.9298 74.9177 76.8041 75 76.6221 75H75.4911ZM81.0161 71.672L79.5341 67.655L78.0651 71.672H81.0161ZM88.3961 75.13C87.2001 75.13 86.2727 74.8223 85.6141 74.207C84.9641 73.5917 84.6174 72.725 84.5741 71.607C84.5654 71.373 84.5611 70.9917 84.5611 70.463C84.5611 69.9257 84.5654 69.5357 84.5741 69.293C84.6174 68.1837 84.9684 67.3213 85.6271 66.706C86.2944 66.082 87.2174 65.77 88.3961 65.77C89.1674 65.77 89.8391 65.9043 90.4111 66.173C90.9831 66.433 91.4251 66.7927 91.7371 67.252C92.0491 67.7027 92.2137 68.214 92.2311 68.786V68.812C92.2311 68.8813 92.2007 68.942 92.1401 68.994C92.0881 69.0373 92.0274 69.059 91.9581 69.059H90.7231C90.6191 69.059 90.5411 69.0373 90.4891 68.994C90.4371 68.9507 90.3937 68.8683 90.3591 68.747C90.2204 68.201 89.9907 67.8197 89.6701 67.603C89.3494 67.3777 88.9204 67.265 88.3831 67.265C87.1351 67.265 86.4851 67.9627 86.4331 69.358C86.4244 69.592 86.4201 69.9517 86.4201 70.437C86.4201 70.9223 86.4244 71.2907 86.4331 71.542C86.4851 72.9373 87.1351 73.635 88.3831 73.635C88.9204 73.635 89.3494 73.5223 89.6701 73.297C89.9994 73.0717 90.2291 72.6903 90.3591 72.153C90.3851 72.0317 90.4241 71.9493 90.4761 71.906C90.5367 71.8627 90.6191 71.841 90.7231 71.841H91.9581C92.0361 71.841 92.1011 71.867 92.1531 71.919C92.2137 71.971 92.2397 72.036 92.2311 72.114C92.2137 72.686 92.0491 73.2017 91.7371 73.661C91.4251 74.1117 90.9831 74.4713 90.4111 74.74C89.8391 75 89.1674 75.13 88.3961 75.13ZM96.0868 75C96.0001 75 95.9265 74.9697 95.8658 74.909C95.8051 74.8483 95.7748 74.7747 95.7748 74.688V67.499H93.3698C93.2831 67.499 93.2095 67.4687 93.1488 67.408C93.0881 67.3473 93.0578 67.2737 93.0578 67.187V66.225C93.0578 66.1297 93.0838 66.0517 93.1358 65.991C93.1965 65.9303 93.2745 65.9 93.3698 65.9H99.9998C100.095 65.9 100.173 65.9303 100.234 65.991C100.294 66.0517 100.325 66.1297 100.325 66.225V67.187C100.325 67.2737 100.294 67.3473 100.234 67.408C100.173 67.4687 100.095 67.499 99.9998 67.499H97.6078V74.688C97.6078 74.7747 97.5775 74.8483 97.5168 74.909C97.4561 74.9697 97.3781 75 97.2828 75H96.0868ZM107.807 75.13C106.611 75.13 105.684 74.8223 105.025 74.207C104.375 73.5917 104.029 72.725 103.985 71.607C103.977 71.373 103.972 70.9917 103.972 70.463C103.972 69.9257 103.977 69.5357 103.985 69.293C104.029 68.1837 104.38 67.3213 105.038 66.706C105.706 66.082 106.629 65.77 107.807 65.77C108.579 65.77 109.25 65.9043 109.822 66.173C110.394 66.433 110.836 66.7927 111.148 67.252C111.46 67.7027 111.625 68.214 111.642 68.786V68.812C111.642 68.8813 111.612 68.942 111.551 68.994C111.499 69.0373 111.439 69.059 111.369 69.059H110.134C110.03 69.059 109.952 69.0373 109.9 68.994C109.848 68.9507 109.805 68.8683 109.77 68.747C109.632 68.201 109.402 67.8197 109.081 67.603C108.761 67.3777 108.332 67.265 107.794 67.265C106.546 67.265 105.896 67.9627 105.844 69.358C105.836 69.592 105.831 69.9517 105.831 70.437C105.831 70.9223 105.836 71.2907 105.844 71.542C105.896 72.9373 106.546 73.635 107.794 73.635C108.332 73.635 108.761 73.5223 109.081 73.297C109.411 73.0717 109.64 72.6903 109.77 72.153C109.796 72.0317 109.835 71.9493 109.887 71.906C109.948 71.8627 110.03 71.841 110.134 71.841H111.369C111.447 71.841 111.512 71.867 111.564 71.919C111.625 71.971 111.651 72.036 111.642 72.114C111.625 72.686 111.46 73.2017 111.148 73.661C110.836 74.1117 110.394 74.4713 109.822 74.74C109.25 75 108.579 75.13 107.807 75.13ZM113.496 75C113.409 75 113.336 74.9697 113.275 74.909C113.214 74.8483 113.184 74.7747 113.184 74.688V66.212C113.184 66.1167 113.214 66.043 113.275 65.991C113.336 65.9303 113.409 65.9 113.496 65.9H114.705C114.8 65.9 114.874 65.9303 114.926 65.991C114.987 66.043 115.017 66.1167 115.017 66.212V73.453H119.138C119.233 73.453 119.311 73.4833 119.372 73.544C119.433 73.6047 119.463 73.6827 119.463 73.778V74.688C119.463 74.7833 119.433 74.8613 119.372 74.922C119.311 74.974 119.233 75 119.138 75H113.496ZM121.037 75C120.95 75 120.877 74.9697 120.816 74.909C120.755 74.8483 120.725 74.7747 120.725 74.688V66.212C120.725 66.1167 120.755 66.043 120.816 65.991C120.877 65.9303 120.95 65.9 121.037 65.9H122.259C122.354 65.9 122.428 65.9303 122.48 65.991C122.541 66.043 122.571 66.1167 122.571 66.212V74.688C122.571 74.7747 122.541 74.8483 122.48 74.909C122.428 74.9697 122.354 75 122.259 75H121.037ZM124.922 75C124.835 75 124.761 74.9697 124.701 74.909C124.64 74.8483 124.61 74.7747 124.61 74.688V66.225C124.61 66.1297 124.636 66.0517 124.688 65.991C124.748 65.9303 124.826 65.9 124.922 65.9H130.642C130.737 65.9 130.815 65.9303 130.876 65.991C130.936 66.0517 130.967 66.1297 130.967 66.225V67.083C130.967 67.1783 130.936 67.2563 130.876 67.317C130.815 67.369 130.737 67.395 130.642 67.395H126.365V69.696H130.356C130.451 69.696 130.529 69.7263 130.59 69.787C130.65 69.839 130.681 69.9127 130.681 70.008V70.814C130.681 70.9093 130.65 70.9873 130.59 71.048C130.529 71.1 130.451 71.126 130.356 71.126H126.365V73.505H130.746C130.841 73.505 130.919 73.5353 130.98 73.596C131.04 73.6567 131.071 73.7347 131.071 73.83V74.688C131.071 74.7833 131.04 74.8613 130.98 74.922C130.919 74.974 130.841 75 130.746 75H124.922ZM133.009 75C132.922 75 132.848 74.9697 132.788 74.909C132.727 74.8483 132.697 74.7747 132.697 74.688V66.225C132.697 66.1297 132.723 66.0517 132.775 65.991C132.835 65.9303 132.913 65.9 133.009 65.9H134.01C134.114 65.9 134.192 65.9217 134.244 65.965C134.296 65.9997 134.343 66.0473 134.387 66.108L138.131 71.932V66.225C138.131 66.1297 138.157 66.0517 138.209 65.991C138.269 65.9303 138.347 65.9 138.443 65.9H139.535C139.63 65.9 139.708 65.9303 139.769 65.991C139.829 66.0517 139.86 66.1297 139.86 66.225V74.675C139.86 74.7703 139.829 74.8483 139.769 74.909C139.708 74.9697 139.634 75 139.548 75H138.534C138.386 75 138.261 74.9307 138.157 74.792L134.426 69.098V74.688C134.426 74.7833 134.395 74.8613 134.335 74.922C134.274 74.974 134.196 75 134.101 75H133.009ZM144.202 75C144.115 75 144.042 74.9697 143.981 74.909C143.92 74.8483 143.89 74.7747 143.89 74.688V67.499H141.485C141.398 67.499 141.325 67.4687 141.264 67.408C141.203 67.3473 141.173 67.2737 141.173 67.187V66.225C141.173 66.1297 141.199 66.0517 141.251 65.991C141.312 65.9303 141.39 65.9 141.485 65.9H148.115C148.21 65.9 148.288 65.9303 148.349 65.991C148.41 66.0517 148.44 66.1297 148.44 66.225V67.187C148.44 67.2737 148.41 67.3473 148.349 67.408C148.288 67.4687 148.21 67.499 148.115 67.499H145.723V74.688C145.723 74.7747 145.693 74.8483 145.632 74.909C145.571 74.9697 145.493 75 145.398 75H144.202Z" fill="#A0A0A5"/>
<rect x="41.5" y="90.5" width="319" height="44" rx="2.5" fill="#F5F7F9"/>
<rect x="41.5" y="90.5" width="319" height="44" rx="2.5" stroke="#5C1EE8"/>
<path d="M333 110.5L338 115.5L343 110.5" stroke="black" stroke-width="2" stroke-linecap="round" stroke-linejoin="round"/>
<g filter="url(#filter0_d_905_2281)">
<rect x="37.5" y="96" width="317" height="115" rx="4.5" fill="#65626A" stroke="#838187"/>
<path d="M66.7236 114.044C67.2204 114.044 67.6237 113.989 67.9336 113.88C68.5215 113.67 68.8154 113.281 68.8154 112.711C68.8154 112.378 68.6696 112.121 68.3779 111.938C68.0863 111.761 67.6283 111.604 67.0039 111.467L65.9375 111.228C64.8893 110.991 64.1647 110.733 63.7637 110.455C63.0846 109.99 62.7451 109.263 62.7451 108.274C62.7451 107.372 63.0732 106.622 63.7295 106.025C64.3857 105.428 65.3496 105.13 66.6211 105.13C67.6829 105.13 68.5876 105.412 69.335 105.978C70.0869 106.538 70.4811 107.354 70.5176 108.425H68.4941C68.4577 107.819 68.1934 107.388 67.7012 107.133C67.373 106.964 66.9652 106.88 66.4775 106.88C65.9352 106.88 65.5023 106.989 65.1787 107.208C64.8551 107.427 64.6934 107.732 64.6934 108.124C64.6934 108.484 64.8529 108.753 65.1719 108.931C65.377 109.049 65.8145 109.188 66.4844 109.348L68.2207 109.765C68.9818 109.947 69.556 110.191 69.9434 110.496C70.5449 110.97 70.8457 111.656 70.8457 112.554C70.8457 113.474 70.4925 114.24 69.7861 114.851C69.0843 115.457 68.0908 115.76 66.8057 115.76C65.4932 115.76 64.4609 115.461 63.709 114.864C62.957 114.263 62.5811 113.438 62.5811 112.39H64.5908C64.6546 112.85 64.7799 113.194 64.9668 113.422C65.3086 113.837 65.8942 114.044 66.7236 114.044ZM78.625 113.312C78.5749 113.755 78.3447 114.203 77.9346 114.659C77.2965 115.384 76.4033 115.746 75.2549 115.746C74.307 115.746 73.4707 115.441 72.7461 114.83C72.0215 114.219 71.6592 113.226 71.6592 111.85C71.6592 110.56 71.985 109.571 72.6367 108.883C73.293 108.195 74.1429 107.851 75.1865 107.851C75.8063 107.851 76.3646 107.967 76.8613 108.199C77.3581 108.432 77.7682 108.799 78.0918 109.3C78.3835 109.742 78.5726 110.255 78.6592 110.838C78.7093 111.18 78.7298 111.672 78.7207 112.314H73.6211C73.6484 113.062 73.8831 113.586 74.3252 113.887C74.5941 114.074 74.9176 114.167 75.2959 114.167C75.6969 114.167 76.0228 114.053 76.2734 113.825C76.4102 113.702 76.5309 113.531 76.6357 113.312H78.625ZM76.6973 111.029C76.6654 110.514 76.5081 110.125 76.2256 109.86C75.9476 109.591 75.6012 109.457 75.1865 109.457C74.7354 109.457 74.3844 109.598 74.1338 109.881C73.8877 110.163 73.7327 110.546 73.6689 111.029H76.6973ZM80.0811 105.424H82.0293V115.5H80.0811V105.424ZM90.3145 113.312C90.2643 113.755 90.0342 114.203 89.624 114.659C88.986 115.384 88.0928 115.746 86.9443 115.746C85.9964 115.746 85.1602 115.441 84.4355 114.83C83.7109 114.219 83.3486 113.226 83.3486 111.85C83.3486 110.56 83.6745 109.571 84.3262 108.883C84.9824 108.195 85.8324 107.851 86.876 107.851C87.4958 107.851 88.054 107.967 88.5508 108.199C89.0475 108.432 89.4577 108.799 89.7812 109.3C90.0729 109.742 90.262 110.255 90.3486 110.838C90.3988 111.18 90.4193 111.672 90.4102 112.314H85.3105C85.3379 113.062 85.5726 113.586 86.0146 113.887C86.2835 114.074 86.6071 114.167 86.9854 114.167C87.3864 114.167 87.7122 114.053 87.9629 113.825C88.0996 113.702 88.2204 113.531 88.3252 113.312H90.3145ZM88.3867 111.029C88.3548 110.514 88.1976 110.125 87.915 109.86C87.637 109.591 87.2907 109.457 86.876 109.457C86.4248 109.457 86.0739 109.598 85.8232 109.881C85.5771 110.163 85.4222 110.546 85.3584 111.029H88.3867ZM98.1758 110.722H96.1797C96.1432 110.444 96.0498 110.193 95.8994 109.97C95.6807 109.669 95.3411 109.519 94.8809 109.519C94.2246 109.519 93.7757 109.844 93.5342 110.496C93.4066 110.842 93.3428 111.303 93.3428 111.877C93.3428 112.424 93.4066 112.864 93.5342 113.196C93.7666 113.816 94.2041 114.126 94.8467 114.126C95.3024 114.126 95.626 114.003 95.8174 113.757C96.0088 113.511 96.125 113.192 96.166 112.8H98.1553C98.1097 113.392 97.8955 113.953 97.5127 114.481C96.902 115.334 95.9974 115.76 94.7988 115.76C93.6003 115.76 92.7184 115.404 92.1533 114.693C91.5882 113.982 91.3057 113.06 91.3057 111.925C91.3057 110.644 91.6178 109.648 92.2422 108.938C92.8665 108.227 93.7279 107.871 94.8262 107.871C95.7604 107.871 96.5238 108.081 97.1162 108.5C97.7132 108.919 98.0664 109.66 98.1758 110.722ZM102.934 114.112V115.568L102.011 115.603C101.09 115.634 100.461 115.475 100.124 115.124C99.9053 114.901 99.7959 114.557 99.7959 114.092V109.505H98.7568V108.117H99.7959V106.039H101.724V108.117H102.934V109.505H101.724V113.442C101.724 113.748 101.762 113.939 101.84 114.017C101.917 114.09 102.154 114.126 102.551 114.126C102.61 114.126 102.672 114.126 102.735 114.126C102.804 114.121 102.87 114.117 102.934 114.112ZM108.361 108.855C108.876 108.199 109.76 107.871 111.014 107.871C111.829 107.871 112.554 108.033 113.188 108.356C113.821 108.68 114.138 109.291 114.138 110.188V113.606C114.138 113.843 114.142 114.131 114.151 114.468C114.165 114.723 114.204 114.896 114.268 114.987C114.331 115.078 114.427 115.154 114.555 115.213V115.5H112.436C112.376 115.35 112.335 115.208 112.312 115.076C112.29 114.944 112.271 114.794 112.258 114.625C111.989 114.917 111.679 115.165 111.328 115.37C110.909 115.612 110.435 115.732 109.906 115.732C109.232 115.732 108.674 115.541 108.231 115.158C107.794 114.771 107.575 114.224 107.575 113.518C107.575 112.602 107.928 111.938 108.635 111.528C109.022 111.305 109.592 111.146 110.344 111.05L111.007 110.968C111.367 110.922 111.624 110.865 111.779 110.797C112.057 110.678 112.196 110.494 112.196 110.243C112.196 109.938 112.089 109.728 111.875 109.614C111.665 109.496 111.355 109.437 110.945 109.437C110.485 109.437 110.159 109.55 109.968 109.778C109.831 109.947 109.74 110.175 109.694 110.462H107.814C107.855 109.81 108.038 109.275 108.361 108.855ZM109.811 114.092C109.993 114.242 110.216 114.317 110.48 114.317C110.9 114.317 111.285 114.194 111.636 113.948C111.991 113.702 112.176 113.253 112.189 112.602V111.877C112.066 111.954 111.941 112.018 111.813 112.068C111.69 112.114 111.52 112.157 111.301 112.198L110.863 112.28C110.453 112.353 110.159 112.442 109.981 112.547C109.681 112.725 109.53 113 109.53 113.374C109.53 113.707 109.624 113.946 109.811 114.092ZM126.217 110.722H124.221C124.184 110.444 124.091 110.193 123.94 109.97C123.722 109.669 123.382 109.519 122.922 109.519C122.266 109.519 121.817 109.844 121.575 110.496C121.448 110.842 121.384 111.303 121.384 111.877C121.384 112.424 121.448 112.864 121.575 113.196C121.808 113.816 122.245 114.126 122.888 114.126C123.343 114.126 123.667 114.003 123.858 113.757C124.05 113.511 124.166 113.192 124.207 112.8H126.196C126.151 113.392 125.937 113.953 125.554 114.481C124.943 115.334 124.038 115.76 122.84 115.76C121.641 115.76 120.759 115.404 120.194 114.693C119.629 113.982 119.347 113.06 119.347 111.925C119.347 110.644 119.659 109.648 120.283 108.938C120.908 108.227 121.769 107.871 122.867 107.871C123.801 107.871 124.565 108.081 125.157 108.5C125.754 108.919 126.107 109.66 126.217 110.722ZM133.777 108.992C134.406 109.781 134.721 110.713 134.721 111.788C134.721 112.882 134.406 113.818 133.777 114.598C133.148 115.372 132.194 115.76 130.913 115.76C129.632 115.76 128.678 115.372 128.049 114.598C127.42 113.818 127.105 112.882 127.105 111.788C127.105 110.713 127.42 109.781 128.049 108.992C128.678 108.204 129.632 107.81 130.913 107.81C132.194 107.81 133.148 108.204 133.777 108.992ZM130.906 109.457C130.337 109.457 129.897 109.66 129.587 110.065C129.282 110.466 129.129 111.041 129.129 111.788C129.129 112.535 129.282 113.112 129.587 113.518C129.897 113.923 130.337 114.126 130.906 114.126C131.476 114.126 131.913 113.923 132.219 113.518C132.524 113.112 132.677 112.535 132.677 111.788C132.677 111.041 132.524 110.466 132.219 110.065C131.913 109.66 131.476 109.457 130.906 109.457ZM139.629 109.491C138.968 109.491 138.515 109.771 138.269 110.332C138.141 110.628 138.077 111.007 138.077 111.467V115.5H136.136V108.062H138.016V109.149C138.266 108.767 138.503 108.491 138.727 108.322C139.128 108.021 139.636 107.871 140.251 107.871C141.021 107.871 141.65 108.074 142.138 108.479C142.63 108.881 142.876 109.548 142.876 110.482V115.5H140.88V110.968C140.88 110.576 140.827 110.275 140.723 110.065C140.531 109.683 140.167 109.491 139.629 109.491ZM148.092 114.112V115.568L147.169 115.603C146.248 115.634 145.619 115.475 145.282 115.124C145.063 114.901 144.954 114.557 144.954 114.092V109.505H143.915V108.117H144.954V106.039H146.882V108.117H148.092V109.505H146.882V113.442C146.882 113.748 146.921 113.939 146.998 114.017C147.076 114.09 147.312 114.126 147.709 114.126C147.768 114.126 147.83 114.126 147.894 114.126C147.962 114.121 148.028 114.117 148.092 114.112ZM149.623 108.855C150.138 108.199 151.022 107.871 152.275 107.871C153.091 107.871 153.816 108.033 154.449 108.356C155.083 108.68 155.399 109.291 155.399 110.188V113.606C155.399 113.843 155.404 114.131 155.413 114.468C155.427 114.723 155.465 114.896 155.529 114.987C155.593 115.078 155.689 115.154 155.816 115.213V115.5H153.697C153.638 115.35 153.597 115.208 153.574 115.076C153.551 114.944 153.533 114.794 153.52 114.625C153.251 114.917 152.941 115.165 152.59 115.37C152.171 115.612 151.697 115.732 151.168 115.732C150.493 115.732 149.935 115.541 149.493 115.158C149.056 114.771 148.837 114.224 148.837 113.518C148.837 112.602 149.19 111.938 149.896 111.528C150.284 111.305 150.854 111.146 151.605 111.05L152.269 110.968C152.629 110.922 152.886 110.865 153.041 110.797C153.319 110.678 153.458 110.494 153.458 110.243C153.458 109.938 153.351 109.728 153.137 109.614C152.927 109.496 152.617 109.437 152.207 109.437C151.747 109.437 151.421 109.55 151.229 109.778C151.093 109.947 151.002 110.175 150.956 110.462H149.076C149.117 109.81 149.299 109.275 149.623 108.855ZM151.072 114.092C151.255 114.242 151.478 114.317 151.742 114.317C152.161 114.317 152.547 114.194 152.897 113.948C153.253 113.702 153.438 113.253 153.451 112.602V111.877C153.328 111.954 153.203 112.018 153.075 112.068C152.952 112.114 152.781 112.157 152.562 112.198L152.125 112.28C151.715 112.353 151.421 112.442 151.243 112.547C150.942 112.725 150.792 113 150.792 113.374C150.792 113.707 150.885 113.946 151.072 114.092ZM163.582 110.722H161.586C161.549 110.444 161.456 110.193 161.306 109.97C161.087 109.669 160.747 109.519 160.287 109.519C159.631 109.519 159.182 109.844 158.94 110.496C158.813 110.842 158.749 111.303 158.749 111.877C158.749 112.424 158.813 112.864 158.94 113.196C159.173 113.816 159.61 114.126 160.253 114.126C160.709 114.126 161.032 114.003 161.224 113.757C161.415 113.511 161.531 113.192 161.572 112.8H163.562C163.516 113.392 163.302 113.953 162.919 114.481C162.308 115.334 161.404 115.76 160.205 115.76C159.007 115.76 158.125 115.404 157.56 114.693C156.994 113.982 156.712 113.06 156.712 111.925C156.712 110.644 157.024 109.648 157.648 108.938C158.273 108.227 159.134 107.871 160.232 107.871C161.167 107.871 161.93 108.081 162.522 108.5C163.119 108.919 163.473 109.66 163.582 110.722ZM168.34 114.112V115.568L167.417 115.603C166.496 115.634 165.868 115.475 165.53 115.124C165.312 114.901 165.202 114.557 165.202 114.092V109.505H164.163V108.117H165.202V106.039H167.13V108.117H168.34V109.505H167.13V113.442C167.13 113.748 167.169 113.939 167.246 114.017C167.324 114.09 167.561 114.126 167.957 114.126C168.016 114.126 168.078 114.126 168.142 114.126C168.21 114.121 168.276 114.117 168.34 114.112ZM179.934 110.722H177.938C177.901 110.444 177.808 110.193 177.657 109.97C177.438 109.669 177.099 109.519 176.639 109.519C175.982 109.519 175.534 109.844 175.292 110.496C175.164 110.842 175.101 111.303 175.101 111.877C175.101 112.424 175.164 112.864 175.292 113.196C175.524 113.816 175.962 114.126 176.604 114.126C177.06 114.126 177.384 114.003 177.575 113.757C177.767 113.511 177.883 113.192 177.924 112.8H179.913C179.868 113.392 179.653 113.953 179.271 114.481C178.66 115.334 177.755 115.76 176.557 115.76C175.358 115.76 174.476 115.404 173.911 114.693C173.346 113.982 173.063 113.06 173.063 111.925C173.063 110.644 173.376 109.648 174 108.938C174.624 108.227 175.486 107.871 176.584 107.871C177.518 107.871 178.282 108.081 178.874 108.5C179.471 108.919 179.824 109.66 179.934 110.722ZM181.321 105.424H183.27V115.5H181.321V105.424ZM187.18 108.049V115.5H185.204V108.049H187.18ZM187.18 105.362V107.16H185.204V105.362H187.18ZM195.451 113.312C195.401 113.755 195.171 114.203 194.761 114.659C194.123 115.384 193.229 115.746 192.081 115.746C191.133 115.746 190.297 115.441 189.572 114.83C188.848 114.219 188.485 113.226 188.485 111.85C188.485 110.56 188.811 109.571 189.463 108.883C190.119 108.195 190.969 107.851 192.013 107.851C192.632 107.851 193.191 107.967 193.688 108.199C194.184 108.432 194.594 108.799 194.918 109.3C195.21 109.742 195.399 110.255 195.485 110.838C195.535 111.18 195.556 111.672 195.547 112.314H190.447C190.475 113.062 190.709 113.586 191.151 113.887C191.42 114.074 191.744 114.167 192.122 114.167C192.523 114.167 192.849 114.053 193.1 113.825C193.236 113.702 193.357 113.531 193.462 113.312H195.451ZM193.523 111.029C193.492 110.514 193.334 110.125 193.052 109.86C192.774 109.591 192.427 109.457 192.013 109.457C191.562 109.457 191.211 109.598 190.96 109.881C190.714 110.163 190.559 110.546 190.495 111.029H193.523ZM200.373 109.491C199.712 109.491 199.259 109.771 199.013 110.332C198.885 110.628 198.821 111.007 198.821 111.467V115.5H196.88V108.062H198.76V109.149C199.01 108.767 199.247 108.491 199.471 108.322C199.872 108.021 200.38 107.871 200.995 107.871C201.765 107.871 202.394 108.074 202.882 108.479C203.374 108.881 203.62 109.548 203.62 110.482V115.5H201.624V110.968C201.624 110.576 201.572 110.275 201.467 110.065C201.275 109.683 200.911 109.491 200.373 109.491ZM208.836 114.112V115.568L207.913 115.603C206.993 115.634 206.364 115.475 206.026 115.124C205.808 114.901 205.698 114.557 205.698 114.092V109.505H204.659V108.117H205.698V106.039H207.626V108.117H208.836V109.505H207.626V113.442C207.626 113.748 207.665 113.939 207.742 114.017C207.82 114.09 208.057 114.126 208.453 114.126C208.512 114.126 208.574 114.126 208.638 114.126C208.706 114.121 208.772 114.117 208.836 114.112Z" fill="white"/>
<path d="M55 109.5L49.5 115L47 112.5" stroke="white" stroke-width="1.3" stroke-linecap="round" stroke-linejoin="round"/>
<rect x="42" y="126.5" width="308" height="25" rx="5" fill="#5F8BE6"/>
<path d="M67.3457 139.549H65.1719V143.5H63.1143V133.424H68.0566C68.763 133.438 69.3053 133.524 69.6836 133.684C70.0664 133.843 70.39 134.078 70.6543 134.388C70.873 134.643 71.0462 134.925 71.1738 135.235C71.3014 135.545 71.3652 135.898 71.3652 136.295C71.3652 136.773 71.2445 137.245 71.0029 137.71C70.7614 138.17 70.3626 138.496 69.8066 138.688C70.2715 138.874 70.5996 139.141 70.791 139.487C70.987 139.829 71.085 140.353 71.085 141.06V141.736C71.085 142.197 71.1032 142.509 71.1396 142.673C71.1943 142.933 71.3219 143.124 71.5225 143.247V143.5H69.2051C69.1413 143.277 69.0957 143.097 69.0684 142.96C69.0137 142.677 68.984 142.388 68.9795 142.092L68.9658 141.155C68.9567 140.513 68.8382 140.084 68.6104 139.87C68.387 139.656 67.9655 139.549 67.3457 139.549ZM68.624 137.717C69.0433 137.525 69.2529 137.147 69.2529 136.582C69.2529 135.971 69.0501 135.561 68.6445 135.352C68.4167 135.233 68.0749 135.174 67.6191 135.174H65.1719V137.881H67.5576C68.0316 137.881 68.387 137.826 68.624 137.717ZM79.2402 136.992C79.8691 137.781 80.1836 138.713 80.1836 139.788C80.1836 140.882 79.8691 141.818 79.2402 142.598C78.6113 143.372 77.6566 143.76 76.376 143.76C75.0954 143.76 74.1406 143.372 73.5117 142.598C72.8828 141.818 72.5684 140.882 72.5684 139.788C72.5684 138.713 72.8828 137.781 73.5117 136.992C74.1406 136.204 75.0954 135.81 76.376 135.81C77.6566 135.81 78.6113 136.204 79.2402 136.992ZM76.3691 137.457C75.7995 137.457 75.3597 137.66 75.0498 138.065C74.7445 138.466 74.5918 139.041 74.5918 139.788C74.5918 140.535 74.7445 141.112 75.0498 141.518C75.3597 141.923 75.7995 142.126 76.3691 142.126C76.9388 142.126 77.3763 141.923 77.6816 141.518C77.987 141.112 78.1396 140.535 78.1396 139.788C78.1396 139.041 77.987 138.466 77.6816 138.065C77.3763 137.66 76.9388 137.457 76.3691 137.457ZM84.6133 141.545L86.1514 136.049H88.2227L85.666 143.377C85.1738 144.79 84.7842 145.665 84.4971 146.002C84.21 146.344 83.6357 146.515 82.7744 146.515C82.6012 146.515 82.4622 146.512 82.3574 146.508C82.2526 146.508 82.0954 146.501 81.8857 146.487V144.929L82.1318 144.942C82.3232 144.951 82.5055 144.945 82.6787 144.922C82.8519 144.899 82.9977 144.847 83.1162 144.765C83.2301 144.687 83.335 144.525 83.4307 144.279C83.5309 144.033 83.5719 143.883 83.5537 143.828L80.8193 136.049H82.9863L84.6133 141.545Z" fill="white"/>
<path d="M66.6621 168.472V161.424H68.7676V168.438C68.7676 169.294 68.6195 169.973 68.3232 170.475C67.8219 171.322 66.9173 171.746 65.6094 171.746C64.3014 171.746 63.4242 171.404 62.9775 170.721C62.5309 170.033 62.3076 169.096 62.3076 167.911V167.679H64.2969V167.911C64.3151 168.69 64.3994 169.24 64.5498 169.559C64.7048 169.873 65.0329 170.03 65.5342 170.03C66.0309 170.03 66.359 169.857 66.5186 169.511C66.6143 169.306 66.6621 168.959 66.6621 168.472ZM77.0801 169.312C77.0299 169.755 76.7998 170.203 76.3896 170.659C75.7516 171.384 74.8584 171.746 73.71 171.746C72.762 171.746 71.9258 171.441 71.2012 170.83C70.4766 170.219 70.1143 169.226 70.1143 167.85C70.1143 166.56 70.4401 165.571 71.0918 164.883C71.748 164.195 72.598 163.851 73.6416 163.851C74.2614 163.851 74.8197 163.967 75.3164 164.199C75.8132 164.432 76.2233 164.799 76.5469 165.3C76.8385 165.742 77.0277 166.255 77.1143 166.838C77.1644 167.18 77.1849 167.672 77.1758 168.314H72.0762C72.1035 169.062 72.3382 169.586 72.7803 169.887C73.0492 170.074 73.3727 170.167 73.751 170.167C74.152 170.167 74.4779 170.053 74.7285 169.825C74.8652 169.702 74.986 169.531 75.0908 169.312H77.0801ZM75.1523 167.029C75.1204 166.514 74.9632 166.125 74.6807 165.86C74.4027 165.591 74.0563 165.457 73.6416 165.457C73.1904 165.457 72.8395 165.598 72.5889 165.881C72.3428 166.163 72.1878 166.546 72.124 167.029H75.1523ZM82.002 165.491C81.3411 165.491 80.8877 165.771 80.6416 166.332C80.514 166.628 80.4502 167.007 80.4502 167.467V171.5H78.5088V164.062H80.3887V165.149C80.6393 164.767 80.8763 164.491 81.0996 164.322C81.5007 164.021 82.0088 163.871 82.624 163.871C83.3942 163.871 84.0231 164.074 84.5107 164.479C85.0029 164.881 85.249 165.548 85.249 166.482V171.5H83.2529V166.968C83.2529 166.576 83.2005 166.275 83.0957 166.065C82.9043 165.683 82.5397 165.491 82.002 165.491ZM95.708 171.5H91.1416V161.424H96.0361C97.2712 161.442 98.1462 161.8 98.6611 162.497C98.971 162.925 99.126 163.438 99.126 164.035C99.126 164.65 98.971 165.145 98.6611 165.519C98.488 165.728 98.2327 165.92 97.8955 166.093C98.4105 166.28 98.7979 166.576 99.0576 166.981C99.3219 167.387 99.4541 167.879 99.4541 168.458C99.4541 169.055 99.3037 169.59 99.0029 170.064C98.8115 170.379 98.5723 170.643 98.2852 170.857C97.9616 171.104 97.5788 171.272 97.1367 171.363C96.6992 171.454 96.223 171.5 95.708 171.5ZM95.6602 167.063H93.1514V169.75H95.626C96.068 169.75 96.4121 169.691 96.6582 169.572C97.1048 169.354 97.3281 168.934 97.3281 168.314C97.3281 167.79 97.1117 167.43 96.6787 167.234C96.4372 167.125 96.0977 167.068 95.6602 167.063ZM96.7061 165.143C96.9795 164.979 97.1162 164.685 97.1162 164.261C97.1162 163.791 96.9339 163.481 96.5693 163.331C96.2549 163.226 95.8538 163.174 95.3662 163.174H93.1514V165.396H95.626C96.068 165.396 96.4281 165.311 96.7061 165.143ZM101.348 164.855C101.863 164.199 102.747 163.871 104 163.871C104.816 163.871 105.54 164.033 106.174 164.356C106.807 164.68 107.124 165.291 107.124 166.188V169.606C107.124 169.843 107.129 170.131 107.138 170.468C107.151 170.723 107.19 170.896 107.254 170.987C107.318 171.078 107.413 171.154 107.541 171.213V171.5H105.422C105.363 171.35 105.322 171.208 105.299 171.076C105.276 170.944 105.258 170.794 105.244 170.625C104.975 170.917 104.665 171.165 104.314 171.37C103.895 171.612 103.421 171.732 102.893 171.732C102.218 171.732 101.66 171.541 101.218 171.158C100.78 170.771 100.562 170.224 100.562 169.518C100.562 168.602 100.915 167.938 101.621 167.528C102.008 167.305 102.578 167.146 103.33 167.05L103.993 166.968C104.353 166.922 104.611 166.865 104.766 166.797C105.044 166.678 105.183 166.494 105.183 166.243C105.183 165.938 105.076 165.728 104.861 165.614C104.652 165.496 104.342 165.437 103.932 165.437C103.471 165.437 103.146 165.55 102.954 165.778C102.817 165.947 102.726 166.175 102.681 166.462H100.801C100.842 165.81 101.024 165.275 101.348 164.855ZM102.797 170.092C102.979 170.242 103.202 170.317 103.467 170.317C103.886 170.317 104.271 170.194 104.622 169.948C104.978 169.702 105.162 169.253 105.176 168.602V167.877C105.053 167.954 104.927 168.018 104.8 168.068C104.677 168.114 104.506 168.157 104.287 168.198L103.85 168.28C103.439 168.353 103.146 168.442 102.968 168.547C102.667 168.725 102.517 169 102.517 169.374C102.517 169.707 102.61 169.946 102.797 170.092ZM112.606 165.847C111.823 165.847 111.296 166.102 111.027 166.612C110.877 166.899 110.802 167.341 110.802 167.938V171.5H108.84V164.049H110.699V165.348C111 164.851 111.262 164.511 111.485 164.329C111.85 164.024 112.324 163.871 112.907 163.871C112.944 163.871 112.973 163.873 112.996 163.878C113.023 163.878 113.08 163.88 113.167 163.885V165.881C113.044 165.867 112.935 165.858 112.839 165.854C112.743 165.849 112.666 165.847 112.606 165.847ZM118.362 171.698C117.747 171.698 117.253 171.575 116.879 171.329C116.656 171.183 116.414 170.928 116.154 170.563V171.5H114.247V161.438H116.188V165.02C116.435 164.673 116.706 164.409 117.002 164.227C117.353 163.999 117.799 163.885 118.342 163.885C119.322 163.885 120.087 164.238 120.639 164.944C121.195 165.651 121.473 166.562 121.473 167.679C121.473 168.836 121.199 169.796 120.652 170.557C120.105 171.318 119.342 171.698 118.362 171.698ZM119.429 167.884C119.429 167.355 119.36 166.918 119.224 166.571C118.964 165.915 118.485 165.587 117.788 165.587C117.082 165.587 116.596 165.908 116.332 166.551C116.195 166.893 116.127 167.335 116.127 167.877C116.127 168.515 116.268 169.044 116.551 169.463C116.833 169.882 117.264 170.092 117.843 170.092C118.344 170.092 118.734 169.889 119.012 169.483C119.29 169.078 119.429 168.545 119.429 167.884ZM129.252 169.312C129.202 169.755 128.972 170.203 128.562 170.659C127.924 171.384 127.03 171.746 125.882 171.746C124.934 171.746 124.098 171.441 123.373 170.83C122.648 170.219 122.286 169.226 122.286 167.85C122.286 166.56 122.612 165.571 123.264 164.883C123.92 164.195 124.77 163.851 125.813 163.851C126.433 163.851 126.992 163.967 127.488 164.199C127.985 164.432 128.395 164.799 128.719 165.3C129.01 165.742 129.2 166.255 129.286 166.838C129.336 167.18 129.357 167.672 129.348 168.314H124.248C124.275 169.062 124.51 169.586 124.952 169.887C125.221 170.074 125.545 170.167 125.923 170.167C126.324 170.167 126.65 170.053 126.9 169.825C127.037 169.702 127.158 169.531 127.263 169.312H129.252ZM127.324 167.029C127.292 166.514 127.135 166.125 126.853 165.86C126.575 165.591 126.228 165.457 125.813 165.457C125.362 165.457 125.011 165.598 124.761 165.881C124.515 166.163 124.36 166.546 124.296 167.029H127.324ZM134.413 165.847C133.629 165.847 133.103 166.102 132.834 166.612C132.684 166.899 132.608 167.341 132.608 167.938V171.5H130.646V164.049H132.506V165.348C132.807 164.851 133.069 164.511 133.292 164.329C133.657 164.024 134.131 163.871 134.714 163.871C134.75 163.871 134.78 163.873 134.803 163.878C134.83 163.878 134.887 163.88 134.974 163.885V165.881C134.851 165.867 134.741 165.858 134.646 165.854C134.55 165.849 134.472 165.847 134.413 165.847Z" fill="white"/>
<path d="M64.9941 199.5H63.0322V189.424H66.0947L67.9268 197.347L69.7451 189.424H72.7734V199.5H70.8115V192.685C70.8115 192.489 70.8138 192.215 70.8184 191.864C70.8229 191.509 70.8252 191.235 70.8252 191.044L68.918 199.5H66.874L64.9805 191.044C64.9805 191.235 64.9827 191.509 64.9873 191.864C64.9919 192.215 64.9941 192.489 64.9941 192.685V199.5ZM74.8516 192.855C75.3665 192.199 76.2507 191.871 77.5039 191.871C78.3197 191.871 79.0443 192.033 79.6777 192.356C80.3112 192.68 80.6279 193.291 80.6279 194.188V197.606C80.6279 197.843 80.6325 198.131 80.6416 198.468C80.6553 198.723 80.694 198.896 80.7578 198.987C80.8216 199.078 80.9173 199.154 81.0449 199.213V199.5H78.9258C78.8665 199.35 78.8255 199.208 78.8027 199.076C78.7799 198.944 78.7617 198.794 78.748 198.625C78.4792 198.917 78.1693 199.165 77.8184 199.37C77.3991 199.612 76.9251 199.732 76.3965 199.732C75.722 199.732 75.1637 199.541 74.7217 199.158C74.2842 198.771 74.0654 198.224 74.0654 197.518C74.0654 196.602 74.4186 195.938 75.125 195.528C75.5124 195.305 76.082 195.146 76.834 195.05L77.4971 194.968C77.8571 194.922 78.1146 194.865 78.2695 194.797C78.5475 194.678 78.6865 194.494 78.6865 194.243C78.6865 193.938 78.5794 193.728 78.3652 193.614C78.1556 193.496 77.8457 193.437 77.4355 193.437C76.9753 193.437 76.6494 193.55 76.458 193.778C76.3213 193.947 76.2301 194.175 76.1846 194.462H74.3047C74.3457 193.81 74.528 193.275 74.8516 192.855ZM76.3008 198.092C76.4831 198.242 76.7064 198.317 76.9707 198.317C77.39 198.317 77.7751 198.194 78.126 197.948C78.4814 197.702 78.666 197.253 78.6797 196.602V195.877C78.5566 195.954 78.4313 196.018 78.3037 196.068C78.1807 196.114 78.0098 196.157 77.791 196.198L77.3535 196.28C76.9434 196.353 76.6494 196.442 76.4717 196.547C76.1709 196.725 76.0205 197 76.0205 197.374C76.0205 197.707 76.1139 197.946 76.3008 198.092ZM87.1426 198.447C87.1243 198.47 87.0788 198.538 87.0059 198.652C86.9329 198.766 86.8464 198.867 86.7461 198.953C86.4408 199.227 86.1445 199.413 85.8574 199.514C85.5749 199.614 85.2422 199.664 84.8594 199.664C83.7565 199.664 83.0137 199.268 82.6309 198.475C82.4167 198.037 82.3096 197.392 82.3096 196.54V192.049H84.3057V196.54C84.3057 196.964 84.3558 197.283 84.4561 197.497C84.6338 197.875 84.9824 198.064 85.502 198.064C86.1673 198.064 86.623 197.796 86.8691 197.258C86.9967 196.966 87.0605 196.581 87.0605 196.103V192.049H89.0361V199.5H87.1426V198.447ZM94.6689 193.847C93.8851 193.847 93.3587 194.102 93.0898 194.612C92.9395 194.899 92.8643 195.341 92.8643 195.938V199.5H90.9023V192.049H92.7617V193.348C93.0625 192.851 93.3245 192.511 93.5479 192.329C93.9124 192.024 94.3864 191.871 94.9697 191.871C95.0062 191.871 95.0358 191.873 95.0586 191.878C95.0859 191.878 95.1429 191.88 95.2295 191.885V193.881C95.1064 193.867 94.9971 193.858 94.9014 193.854C94.8057 193.849 94.7282 193.847 94.6689 193.847ZM98.3809 192.049V199.5H96.4053V192.049H98.3809ZM98.3809 189.362V191.16H96.4053V189.362H98.3809ZM106.721 194.722H104.725C104.688 194.444 104.595 194.193 104.444 193.97C104.226 193.669 103.886 193.519 103.426 193.519C102.77 193.519 102.321 193.844 102.079 194.496C101.951 194.842 101.888 195.303 101.888 195.877C101.888 196.424 101.951 196.864 102.079 197.196C102.312 197.816 102.749 198.126 103.392 198.126C103.847 198.126 104.171 198.003 104.362 197.757C104.554 197.511 104.67 197.192 104.711 196.8H106.7C106.655 197.392 106.44 197.953 106.058 198.481C105.447 199.334 104.542 199.76 103.344 199.76C102.145 199.76 101.263 199.404 100.698 198.693C100.133 197.982 99.8506 197.06 99.8506 195.925C99.8506 194.644 100.163 193.648 100.787 192.938C101.411 192.227 102.273 191.871 103.371 191.871C104.305 191.871 105.069 192.081 105.661 192.5C106.258 192.919 106.611 193.66 106.721 194.722ZM114.445 197.312C114.395 197.755 114.165 198.203 113.755 198.659C113.117 199.384 112.224 199.746 111.075 199.746C110.127 199.746 109.291 199.441 108.566 198.83C107.842 198.219 107.479 197.226 107.479 195.85C107.479 194.56 107.805 193.571 108.457 192.883C109.113 192.195 109.963 191.851 111.007 191.851C111.627 191.851 112.185 191.967 112.682 192.199C113.178 192.432 113.589 192.799 113.912 193.3C114.204 193.742 114.393 194.255 114.479 194.838C114.53 195.18 114.55 195.672 114.541 196.314H109.441C109.469 197.062 109.703 197.586 110.146 197.887C110.414 198.074 110.738 198.167 111.116 198.167C111.517 198.167 111.843 198.053 112.094 197.825C112.23 197.702 112.351 197.531 112.456 197.312H114.445ZM112.518 195.029C112.486 194.514 112.328 194.125 112.046 193.86C111.768 193.591 111.422 193.457 111.007 193.457C110.556 193.457 110.205 193.598 109.954 193.881C109.708 194.163 109.553 194.546 109.489 195.029H112.518ZM124.193 195.549H122.02V199.5H119.962V189.424H124.904C125.611 189.438 126.153 189.524 126.531 189.684C126.914 189.843 127.238 190.078 127.502 190.388C127.721 190.643 127.894 190.925 128.021 191.235C128.149 191.545 128.213 191.898 128.213 192.295C128.213 192.773 128.092 193.245 127.851 193.71C127.609 194.17 127.21 194.496 126.654 194.688C127.119 194.874 127.447 195.141 127.639 195.487C127.835 195.829 127.933 196.353 127.933 197.06V197.736C127.933 198.197 127.951 198.509 127.987 198.673C128.042 198.933 128.17 199.124 128.37 199.247V199.5H126.053C125.989 199.277 125.943 199.097 125.916 198.96C125.861 198.677 125.832 198.388 125.827 198.092L125.813 197.155C125.804 196.513 125.686 196.084 125.458 195.87C125.235 195.656 124.813 195.549 124.193 195.549ZM125.472 193.717C125.891 193.525 126.101 193.147 126.101 192.582C126.101 191.971 125.898 191.561 125.492 191.352C125.264 191.233 124.923 191.174 124.467 191.174H122.02V193.881H124.405C124.879 193.881 125.235 193.826 125.472 193.717ZM136.088 192.992C136.717 193.781 137.031 194.713 137.031 195.788C137.031 196.882 136.717 197.818 136.088 198.598C135.459 199.372 134.504 199.76 133.224 199.76C131.943 199.76 130.988 199.372 130.359 198.598C129.73 197.818 129.416 196.882 129.416 195.788C129.416 194.713 129.73 193.781 130.359 192.992C130.988 192.204 131.943 191.81 133.224 191.81C134.504 191.81 135.459 192.204 136.088 192.992ZM133.217 193.457C132.647 193.457 132.207 193.66 131.897 194.065C131.592 194.466 131.439 195.041 131.439 195.788C131.439 196.535 131.592 197.112 131.897 197.518C132.207 197.923 132.647 198.126 133.217 198.126C133.786 198.126 134.224 197.923 134.529 197.518C134.835 197.112 134.987 196.535 134.987 195.788C134.987 195.041 134.835 194.466 134.529 194.065C134.224 193.66 133.786 193.457 133.217 193.457ZM143.566 192.391C144.15 192.764 144.485 193.407 144.571 194.318H142.623C142.596 194.068 142.525 193.869 142.411 193.724C142.197 193.459 141.832 193.327 141.317 193.327C140.894 193.327 140.59 193.393 140.408 193.525C140.23 193.658 140.142 193.812 140.142 193.99C140.142 194.214 140.237 194.375 140.429 194.476C140.62 194.58 141.297 194.76 142.459 195.016C143.234 195.198 143.815 195.474 144.202 195.843C144.585 196.216 144.776 196.684 144.776 197.244C144.776 197.982 144.501 198.586 143.949 199.056C143.402 199.521 142.555 199.753 141.406 199.753C140.235 199.753 139.369 199.507 138.809 199.015C138.253 198.518 137.975 197.887 137.975 197.121H139.95C139.991 197.467 140.08 197.714 140.217 197.859C140.458 198.119 140.905 198.249 141.557 198.249C141.939 198.249 142.243 198.192 142.466 198.078C142.694 197.964 142.808 197.793 142.808 197.565C142.808 197.347 142.716 197.18 142.534 197.066C142.352 196.952 141.675 196.757 140.504 196.479C139.661 196.269 139.066 196.007 138.72 195.692C138.373 195.382 138.2 194.936 138.2 194.353C138.2 193.664 138.469 193.074 139.007 192.582C139.549 192.085 140.31 191.837 141.29 191.837C142.22 191.837 142.979 192.021 143.566 192.391ZM151.359 192.391C151.943 192.764 152.278 193.407 152.364 194.318H150.416C150.389 194.068 150.318 193.869 150.204 193.724C149.99 193.459 149.625 193.327 149.11 193.327C148.687 193.327 148.383 193.393 148.201 193.525C148.023 193.658 147.935 193.812 147.935 193.99C147.935 194.214 148.03 194.375 148.222 194.476C148.413 194.58 149.09 194.76 150.252 195.016C151.027 195.198 151.608 195.474 151.995 195.843C152.378 196.216 152.569 196.684 152.569 197.244C152.569 197.982 152.294 198.586 151.742 199.056C151.195 199.521 150.348 199.753 149.199 199.753C148.028 199.753 147.162 199.507 146.602 199.015C146.046 198.518 145.768 197.887 145.768 197.121H147.743C147.784 197.467 147.873 197.714 148.01 197.859C148.251 198.119 148.698 198.249 149.35 198.249C149.732 198.249 150.035 198.192 150.259 198.078C150.487 197.964 150.601 197.793 150.601 197.565C150.601 197.347 150.509 197.18 150.327 197.066C150.145 196.952 149.468 196.757 148.297 196.479C147.454 196.269 146.859 196.007 146.513 195.692C146.166 195.382 145.993 194.936 145.993 194.353C145.993 193.664 146.262 193.074 146.8 192.582C147.342 192.085 148.103 191.837 149.083 191.837C150.013 191.837 150.771 192.021 151.359 192.391Z" fill="white"/>
</g>
<mask id="path-17-inside-1_905_2281" fill="white">
<path d="M401 1H801V257H401V1Z"/>
</mask>
<path d="M401 1H801V257H401V1Z" fill="#F5F7F9"/>
<g filter="url(#filter1_d_905_2281)">
<mask id="path-20-inside-2_905_2281" fill="white">
<path d="M438 31H526V80H438V31Z"/>
</mask>
<path d="M438 31H526V80H438V31Z" fill="white"/>
<rect x="458" y="47" width="48" height="17" rx="5" fill="#F2F2F6"/>
<path d="M526 79H438V81H526V79Z" fill="#CBC9CD" mask="url(#path-20-inside-2_905_2281)"/>
<mask id="path-23-inside-3_905_2281" fill="white">
<path d="M438 80H526V129H438V80Z"/>
</mask>
<path d="M438 80H526V129H438V80Z" fill="white"/>
<rect x="458" y="96" width="48" height="17" rx="5" fill="#F2F2F6"/>
<path d="M526 128H438V130H526V128Z" fill="#CBC9CD" mask="url(#path-23-inside-3_905_2281)"/>
<mask id="path-26-inside-4_905_2281" fill="white">
<path d="M438 129H526V178H438V129Z"/>
</mask>
<path d="M438 129H526V178H438V129Z" fill="white"/>
<rect x="458" y="145" width="48" height="17" rx="5" fill="#F2F2F6"/>
<path d="M526 177H438V179H526V177Z" fill="#CBC9CD" mask="url(#path-26-inside-4_905_2281)"/>
<mask id="path-29-inside-5_905_2281" fill="white">
<path d="M438 178H526V227H438V178Z"/>
</mask>
<path d="M438 178H526V227H438V178Z" fill="white"/>
<rect x="458" y="194" width="48" height="17" rx="5" fill="#F2F2F6"/>
<path d="M526 226H438V228H526V226Z" fill="#CBC9CD" mask="url(#path-29-inside-5_905_2281)"/>
<mask id="path-32-inside-6_905_2281" fill="white">
<path d="M526 31H676V80H526V31Z"/>
</mask>
<path d="M526 31H676V80H526V31Z" fill="white"/>
<path d="M550.576 60.13C549.761 60.13 549.068 59.9957 548.496 59.727C547.933 59.4497 547.495 59.051 547.183 58.531C546.871 58.0023 546.698 57.361 546.663 56.607C546.654 56.2517 546.65 55.8703 546.65 55.463C546.65 55.0557 546.654 54.6657 546.663 54.293C546.698 53.5477 546.871 52.915 547.183 52.395C547.504 51.8663 547.95 51.4633 548.522 51.186C549.094 50.9087 549.779 50.77 550.576 50.77C551.157 50.77 551.685 50.8437 552.162 50.991C552.639 51.1383 553.05 51.3507 553.397 51.628C553.744 51.9053 554.012 52.2303 554.203 52.603C554.394 52.9757 554.498 53.3917 554.515 53.851C554.515 53.929 554.485 53.994 554.424 54.046C554.372 54.098 554.307 54.124 554.229 54.124H552.747C552.643 54.124 552.561 54.098 552.5 54.046C552.439 53.994 552.392 53.9073 552.357 53.786C552.227 53.2747 552.01 52.9237 551.707 52.733C551.404 52.5423 551.027 52.447 550.576 52.447C550.039 52.447 549.614 52.5943 549.302 52.889C548.99 53.1837 548.821 53.6733 548.795 54.358C548.769 55.0687 548.769 55.7967 548.795 56.542C548.821 57.2267 548.99 57.7163 549.302 58.011C549.614 58.3057 550.039 58.453 550.576 58.453C551.027 58.453 551.404 58.3577 551.707 58.167C552.019 57.9677 552.236 57.6167 552.357 57.114C552.392 56.984 552.439 56.8973 552.5 56.854C552.561 56.802 552.643 56.776 552.747 56.776H554.229C554.307 56.776 554.372 56.802 554.424 56.854C554.485 56.906 554.515 56.971 554.515 57.049C554.498 57.5083 554.394 57.9243 554.203 58.297C554.012 58.6697 553.744 58.9947 553.397 59.272C553.05 59.5493 552.639 59.7617 552.162 59.909C551.685 60.0563 551.157 60.13 550.576 60.13ZM559.59 60.13C558.801 60.13 558.121 60 557.549 59.74C556.977 59.48 556.53 59.09 556.21 58.57C555.889 58.0413 555.716 57.3783 555.69 56.581C555.681 56.2083 555.677 55.84 555.677 55.476C555.677 55.1033 555.681 54.7263 555.69 54.345C555.716 53.565 555.889 52.9107 556.21 52.382C556.539 51.8447 556.99 51.4417 557.562 51.173C558.142 50.9043 558.818 50.77 559.59 50.77C560.352 50.77 561.02 50.9043 561.592 51.173C562.172 51.4417 562.627 51.8447 562.957 52.382C563.286 52.9107 563.459 53.565 563.477 54.345C563.494 54.7263 563.503 55.1033 563.503 55.476C563.503 55.84 563.494 56.2083 563.477 56.581C563.451 57.3783 563.277 58.0413 562.957 58.57C562.636 59.09 562.19 59.48 561.618 59.74C561.046 60 560.37 60.13 559.59 60.13ZM559.59 58.453C560.092 58.453 560.504 58.3013 560.825 57.998C561.154 57.686 561.327 57.192 561.345 56.516C561.362 56.1347 561.371 55.7793 561.371 55.45C561.371 55.112 561.362 54.7567 561.345 54.384C561.336 53.9333 561.254 53.565 561.098 53.279C560.942 52.993 560.734 52.785 560.474 52.655C560.222 52.5163 559.928 52.447 559.59 52.447C559.252 52.447 558.953 52.5163 558.693 52.655C558.433 52.785 558.225 52.993 558.069 53.279C557.921 53.565 557.839 53.9333 557.822 54.384C557.813 54.7567 557.809 55.112 557.809 55.45C557.809 55.7793 557.813 56.1347 557.822 56.516C557.848 57.192 558.021 57.686 558.342 57.998C558.662 58.3013 559.078 58.453 559.59 58.453ZM565.441 60C565.346 60 565.268 59.9697 565.207 59.909C565.147 59.8483 565.116 59.7703 565.116 59.675V51.225C565.116 51.1297 565.147 51.0517 565.207 50.991C565.268 50.9303 565.346 50.9 565.441 50.9H566.624C566.754 50.9 566.85 50.9303 566.91 50.991C566.971 51.0517 567.01 51.0993 567.027 51.134L570.498 56.555V51.225C570.498 51.1297 570.529 51.0517 570.589 50.991C570.65 50.9303 570.724 50.9 570.81 50.9H572.136C572.232 50.9 572.31 50.9303 572.37 50.991C572.431 51.0517 572.461 51.1297 572.461 51.225V59.675C572.461 59.7617 572.431 59.8397 572.37 59.909C572.31 59.9697 572.232 60 572.136 60H570.94C570.81 60 570.715 59.9697 570.654 59.909C570.602 59.8397 570.563 59.792 570.537 59.766L567.079 54.514V59.675C567.079 59.7703 567.049 59.8483 566.988 59.909C566.928 59.9697 566.85 60 566.754 60H565.441ZM576.711 60C576.616 60 576.538 59.9697 576.477 59.909C576.416 59.8483 576.386 59.7703 576.386 59.675V52.707H574.02C573.933 52.707 573.86 52.6767 573.799 52.616C573.738 52.5553 573.708 52.4817 573.708 52.395V51.225C573.708 51.1297 573.738 51.0517 573.799 50.991C573.86 50.9303 573.933 50.9 574.02 50.9H580.832C580.927 50.9 581.005 50.9303 581.066 50.991C581.127 51.0517 581.157 51.1297 581.157 51.225V52.395C581.157 52.4817 581.127 52.5553 581.066 52.616C581.005 52.6767 580.927 52.707 580.832 52.707H578.479V59.675C578.479 59.7703 578.449 59.8483 578.388 59.909C578.327 59.9697 578.249 60 578.154 60H576.711ZM580.935 60C580.857 60 580.792 59.974 580.74 59.922C580.688 59.8613 580.662 59.7963 580.662 59.727C580.662 59.6837 580.666 59.6447 580.675 59.61L583.769 51.251C583.795 51.1557 583.847 51.0733 583.925 51.004C584.003 50.9347 584.111 50.9 584.25 50.9H585.914C586.053 50.9 586.161 50.9347 586.239 51.004C586.317 51.0733 586.369 51.1557 586.395 51.251L589.489 59.61C589.498 59.6447 589.502 59.6837 589.502 59.727C589.502 59.7963 589.476 59.8613 589.424 59.922C589.372 59.974 589.307 60 589.229 60H587.877C587.747 60 587.652 59.9697 587.591 59.909C587.53 59.8483 587.491 59.792 587.474 59.74L586.915 58.284H583.249L582.69 59.74C582.673 59.792 582.634 59.8483 582.573 59.909C582.512 59.9697 582.417 60 582.287 60H580.935ZM583.73 56.607H586.421L585.082 52.863L583.73 56.607ZM594.045 60.13C593.23 60.13 592.537 59.9957 591.965 59.727C591.401 59.4497 590.964 59.051 590.652 58.531C590.34 58.0023 590.166 57.361 590.132 56.607C590.123 56.2517 590.119 55.8703 590.119 55.463C590.119 55.0557 590.123 54.6657 590.132 54.293C590.166 53.5477 590.34 52.915 590.652 52.395C590.972 51.8663 591.419 51.4633 591.991 51.186C592.563 50.9087 593.247 50.77 594.045 50.77C594.625 50.77 595.154 50.8437 595.631 50.991C596.107 51.1383 596.519 51.3507 596.866 51.628C597.212 51.9053 597.481 52.2303 597.672 52.603C597.862 52.9757 597.966 53.3917 597.984 53.851C597.984 53.929 597.953 53.994 597.893 54.046C597.841 54.098 597.776 54.124 597.698 54.124H596.216C596.112 54.124 596.029 54.098 595.969 54.046C595.908 53.994 595.86 53.9073 595.826 53.786C595.696 53.2747 595.479 52.9237 595.176 52.733C594.872 52.5423 594.495 52.447 594.045 52.447C593.507 52.447 593.083 52.5943 592.771 52.889C592.459 53.1837 592.29 53.6733 592.264 54.358C592.238 55.0687 592.238 55.7967 592.264 56.542C592.29 57.2267 592.459 57.7163 592.771 58.011C593.083 58.3057 593.507 58.453 594.045 58.453C594.495 58.453 594.872 58.3577 595.176 58.167C595.488 57.9677 595.704 57.6167 595.826 57.114C595.86 56.984 595.908 56.8973 595.969 56.854C596.029 56.802 596.112 56.776 596.216 56.776H597.698C597.776 56.776 597.841 56.802 597.893 56.854C597.953 56.906 597.984 56.971 597.984 57.049C597.966 57.5083 597.862 57.9243 597.672 58.297C597.481 58.6697 597.212 58.9947 596.866 59.272C596.519 59.5493 596.107 59.7617 595.631 59.909C595.154 60.0563 594.625 60.13 594.045 60.13ZM601.771 60C601.676 60 601.598 59.9697 601.537 59.909C601.477 59.8483 601.446 59.7703 601.446 59.675V52.707H599.08C598.994 52.707 598.92 52.6767 598.859 52.616C598.799 52.5553 598.768 52.4817 598.768 52.395V51.225C598.768 51.1297 598.799 51.0517 598.859 50.991C598.92 50.9303 598.994 50.9 599.08 50.9H605.892C605.988 50.9 606.066 50.9303 606.126 50.991C606.187 51.0517 606.217 51.1297 606.217 51.225V52.395C606.217 52.4817 606.187 52.5553 606.126 52.616C606.066 52.6767 605.988 52.707 605.892 52.707H603.539V59.675C603.539 59.7703 603.509 59.8483 603.448 59.909C603.388 59.9697 603.31 60 603.214 60H601.771ZM613.646 60.13C612.832 60.13 612.138 59.9957 611.566 59.727C611.003 59.4497 610.565 59.051 610.253 58.531C609.941 58.0023 609.768 57.361 609.733 56.607C609.725 56.2517 609.72 55.8703 609.72 55.463C609.72 55.0557 609.725 54.6657 609.733 54.293C609.768 53.5477 609.941 52.915 610.253 52.395C610.574 51.8663 611.02 51.4633 611.592 51.186C612.164 50.9087 612.849 50.77 613.646 50.77C614.227 50.77 614.756 50.8437 615.232 50.991C615.709 51.1383 616.121 51.3507 616.467 51.628C616.814 51.9053 617.083 52.2303 617.273 52.603C617.464 52.9757 617.568 53.3917 617.585 53.851C617.585 53.929 617.555 53.994 617.494 54.046C617.442 54.098 617.377 54.124 617.299 54.124H615.817C615.713 54.124 615.631 54.098 615.57 54.046C615.51 53.994 615.462 53.9073 615.427 53.786C615.297 53.2747 615.081 52.9237 614.777 52.733C614.474 52.5423 614.097 52.447 613.646 52.447C613.109 52.447 612.684 52.5943 612.372 52.889C612.06 53.1837 611.891 53.6733 611.865 54.358C611.839 55.0687 611.839 55.7967 611.865 56.542C611.891 57.2267 612.06 57.7163 612.372 58.011C612.684 58.3057 613.109 58.453 613.646 58.453C614.097 58.453 614.474 58.3577 614.777 58.167C615.089 57.9677 615.306 57.6167 615.427 57.114C615.462 56.984 615.51 56.8973 615.57 56.854C615.631 56.802 615.713 56.776 615.817 56.776H617.299C617.377 56.776 617.442 56.802 617.494 56.854C617.555 56.906 617.585 56.971 617.585 57.049C617.568 57.5083 617.464 57.9243 617.273 58.297C617.083 58.6697 616.814 58.9947 616.467 59.272C616.121 59.5493 615.709 59.7617 615.232 59.909C614.756 60.0563 614.227 60.13 613.646 60.13ZM619.371 60C619.276 60 619.198 59.9697 619.137 59.909C619.076 59.8483 619.046 59.7703 619.046 59.675V51.225C619.046 51.1297 619.076 51.0517 619.137 50.991C619.198 50.9303 619.276 50.9 619.371 50.9H620.814C620.909 50.9 620.987 50.9303 621.048 50.991C621.109 51.0517 621.139 51.1297 621.139 51.225V58.258H625.169C625.264 58.258 625.342 58.2883 625.403 58.349C625.464 58.4097 625.494 58.4877 625.494 58.583V59.675C625.494 59.7703 625.464 59.8483 625.403 59.909C625.342 59.9697 625.264 60 625.169 60H619.371ZM627.014 60C626.918 60 626.84 59.9697 626.78 59.909C626.719 59.8483 626.689 59.7703 626.689 59.675V51.225C626.689 51.1297 626.719 51.0517 626.78 50.991C626.84 50.9303 626.918 50.9 627.014 50.9H628.483C628.578 50.9 628.656 50.9303 628.717 50.991C628.777 51.0517 628.808 51.1297 628.808 51.225V59.675C628.808 59.7703 628.777 59.8483 628.717 59.909C628.656 59.9697 628.578 60 628.483 60H627.014ZM631.051 60C630.955 60 630.877 59.9697 630.817 59.909C630.756 59.8483 630.726 59.7703 630.726 59.675V51.225C630.726 51.1297 630.756 51.0517 630.817 50.991C630.877 50.9303 630.955 50.9 631.051 50.9H636.94C637.035 50.9 637.113 50.9303 637.174 50.991C637.234 51.0517 637.265 51.1297 637.265 51.225V52.265C637.265 52.3517 637.234 52.4253 637.174 52.486C637.113 52.5467 637.035 52.577 636.94 52.577H632.728V54.618H636.654C636.749 54.618 636.827 54.6483 636.888 54.709C636.948 54.7697 636.979 54.8477 636.979 54.943V55.905C636.979 55.9917 636.948 56.0653 636.888 56.126C636.827 56.1867 636.749 56.217 636.654 56.217H632.728V58.323H637.044C637.139 58.323 637.217 58.3533 637.278 58.414C637.338 58.4747 637.369 58.5527 637.369 58.648V59.675C637.369 59.7703 637.338 59.8483 637.278 59.909C637.217 59.9697 637.139 60 637.044 60H631.051ZM639.239 60C639.144 60 639.066 59.9697 639.005 59.909C638.944 59.8483 638.914 59.7703 638.914 59.675V51.225C638.914 51.1297 638.944 51.0517 639.005 50.991C639.066 50.9303 639.144 50.9 639.239 50.9H640.422C640.552 50.9 640.647 50.9303 640.708 50.991C640.769 51.0517 640.808 51.0993 640.825 51.134L644.296 56.555V51.225C644.296 51.1297 644.326 51.0517 644.387 50.991C644.448 50.9303 644.521 50.9 644.608 50.9H645.934C646.029 50.9 646.107 50.9303 646.168 50.991C646.229 51.0517 646.259 51.1297 646.259 51.225V59.675C646.259 59.7617 646.229 59.8397 646.168 59.909C646.107 59.9697 646.029 60 645.934 60H644.738C644.608 60 644.513 59.9697 644.452 59.909C644.4 59.8397 644.361 59.792 644.335 59.766L640.877 54.514V59.675C640.877 59.7703 640.847 59.8483 640.786 59.909C640.725 59.9697 640.647 60 640.552 60H639.239ZM650.509 60C650.413 60 650.335 59.9697 650.275 59.909C650.214 59.8483 650.184 59.7703 650.184 59.675V52.707H647.818C647.731 52.707 647.657 52.6767 647.597 52.616C647.536 52.5553 647.506 52.4817 647.506 52.395V51.225C647.506 51.1297 647.536 51.0517 647.597 50.991C647.657 50.9303 647.731 50.9 647.818 50.9H654.63C654.725 50.9 654.803 50.9303 654.864 50.991C654.924 51.0517 654.955 51.1297 654.955 51.225V52.395C654.955 52.4817 654.924 52.5553 654.864 52.616C654.803 52.6767 654.725 52.707 654.63 52.707H652.277V59.675C652.277 59.7703 652.246 59.8483 652.186 59.909C652.125 59.9697 652.047 60 651.952 60H650.509Z" fill="#A0A0A5"/>
<path d="M676 79H526V81H676V79Z" fill="#CBC9CD" mask="url(#path-32-inside-6_905_2281)"/>
<mask id="path-35-inside-7_905_2281" fill="white">
<path d="M526 80H676V129H526V80Z"/>
</mask>
<path d="M526 80H676V129H526V80Z" fill="white"/>
<path d="M547.43 109C547.343 109 547.27 108.974 547.209 108.922C547.157 108.861 547.131 108.788 547.131 108.701V100.212C547.131 100.117 547.157 100.043 547.209 99.991C547.27 99.9303 547.343 99.9 547.43 99.9H550.602C551.599 99.9 552.379 100.134 552.942 100.602C553.505 101.07 553.787 101.746 553.787 102.63C553.787 103.289 553.622 103.83 553.293 104.255C552.972 104.68 552.517 104.974 551.928 105.139L553.93 108.597C553.956 108.649 553.969 108.697 553.969 108.74C553.969 108.809 553.939 108.87 553.878 108.922C553.826 108.974 553.765 109 553.696 109H553.072C552.942 109 552.838 108.97 552.76 108.909C552.691 108.848 552.626 108.762 552.565 108.649L550.68 105.347H548.405V108.701C548.405 108.788 548.375 108.861 548.314 108.922C548.253 108.974 548.18 109 548.093 109H547.43ZM550.55 104.242C551.841 104.242 552.487 103.7 552.487 102.617C552.487 101.534 551.841 100.992 550.55 100.992H548.405V104.242H550.55ZM558.173 109.13C557.22 109.13 556.479 108.861 555.95 108.324C555.43 107.787 555.153 107.072 555.118 106.179L555.105 105.62L555.118 105.061C555.153 104.177 555.435 103.466 555.963 102.929C556.492 102.383 557.229 102.11 558.173 102.11C559.118 102.11 559.855 102.383 560.383 102.929C560.912 103.466 561.194 104.177 561.228 105.061C561.237 105.156 561.241 105.343 561.241 105.62C561.241 105.897 561.237 106.084 561.228 106.179C561.194 107.072 560.912 107.787 560.383 108.324C559.863 108.861 559.127 109.13 558.173 109.13ZM558.173 108.129C558.719 108.129 559.148 107.956 559.46 107.609C559.781 107.262 559.954 106.764 559.98 106.114C559.989 106.027 559.993 105.863 559.993 105.62C559.993 105.377 559.989 105.213 559.98 105.126C559.954 104.476 559.781 103.978 559.46 103.631C559.148 103.284 558.719 103.111 558.173 103.111C557.627 103.111 557.194 103.284 556.873 103.631C556.553 103.978 556.384 104.476 556.366 105.126L556.353 105.62L556.366 106.114C556.384 106.764 556.553 107.262 556.873 107.609C557.194 107.956 557.627 108.129 558.173 108.129ZM563.798 111.47C563.729 111.47 563.668 111.444 563.616 111.392C563.564 111.34 563.538 111.279 563.538 111.21C563.538 111.149 563.56 111.071 563.603 110.976L564.604 108.597L562.121 102.734C562.078 102.621 562.056 102.548 562.056 102.513C562.056 102.435 562.082 102.37 562.134 102.318C562.186 102.266 562.251 102.24 562.329 102.24H562.966C563.105 102.24 563.209 102.314 563.278 102.461L565.254 107.193L567.282 102.461C567.352 102.314 567.46 102.24 567.607 102.24H568.218C568.296 102.24 568.361 102.266 568.413 102.318C568.465 102.37 568.491 102.431 568.491 102.5C568.491 102.526 568.47 102.604 568.426 102.734L564.734 111.249C564.665 111.396 564.557 111.47 564.409 111.47H563.798Z" fill="#303032"/>
<path d="M676 128H526V130H676V128Z" fill="#CBC9CD" mask="url(#path-35-inside-7_905_2281)"/>
<mask id="path-38-inside-8_905_2281" fill="white">
<path d="M526 129H676V178H526V129Z"/>
</mask>
<path d="M526 129H676V178H526V129Z" fill="white"/>
<path d="M549.835 158.13C548.89 158.13 548.106 157.896 547.482 157.428C546.858 156.96 546.529 156.275 546.494 155.374C546.494 155.296 546.52 155.231 546.572 155.179C546.624 155.118 546.693 155.088 546.78 155.088H547.482C547.664 155.088 547.777 155.188 547.82 155.387C547.872 155.942 548.084 156.353 548.457 156.622C548.83 156.891 549.298 157.025 549.861 157.025C550.511 157.025 551.009 156.813 551.356 156.388C551.711 155.955 551.889 155.374 551.889 154.646V150.031H547.274C547.187 150.031 547.114 150.005 547.053 149.953C547.001 149.892 546.975 149.819 546.975 149.732V149.199C546.975 149.112 547.001 149.043 547.053 148.991C547.114 148.93 547.187 148.9 547.274 148.9H552.877C552.972 148.9 553.046 148.93 553.098 148.991C553.159 149.043 553.189 149.117 553.189 149.212V154.672C553.189 155.729 552.89 156.57 552.292 157.194C551.703 157.818 550.884 158.13 549.835 158.13ZM557.905 158.13C557.013 158.13 556.298 157.857 555.76 157.311C555.232 156.756 554.941 156.002 554.889 155.049L554.876 154.607L554.889 154.178C554.95 153.242 555.245 152.497 555.773 151.942C556.311 151.387 557.017 151.11 557.892 151.11C558.854 151.11 559.6 151.418 560.128 152.033C560.657 152.64 560.921 153.463 560.921 154.503V154.724C560.921 154.811 560.891 154.884 560.83 154.945C560.778 154.997 560.709 155.023 560.622 155.023H556.124V155.14C556.15 155.703 556.319 156.184 556.631 156.583C556.952 156.973 557.372 157.168 557.892 157.168C558.291 157.168 558.616 157.09 558.867 156.934C559.127 156.769 559.318 156.6 559.439 156.427C559.517 156.323 559.574 156.262 559.608 156.245C559.652 156.219 559.725 156.206 559.829 156.206H560.466C560.544 156.206 560.609 156.228 560.661 156.271C560.713 156.314 560.739 156.375 560.739 156.453C560.739 156.644 560.618 156.873 560.375 157.142C560.141 157.411 559.808 157.645 559.374 157.844C558.95 158.035 558.46 158.13 557.905 158.13ZM559.686 154.126V154.087C559.686 153.489 559.522 153.004 559.192 152.631C558.872 152.25 558.438 152.059 557.892 152.059C557.346 152.059 556.913 152.25 556.592 152.631C556.28 153.004 556.124 153.489 556.124 154.087V154.126H559.686ZM562.775 158C562.688 158 562.614 157.974 562.554 157.922C562.502 157.861 562.476 157.788 562.476 157.701V151.539C562.476 151.452 562.502 151.383 562.554 151.331C562.614 151.27 562.688 151.24 562.775 151.24H563.386C563.472 151.24 563.542 151.27 563.594 151.331C563.654 151.383 563.685 151.452 563.685 151.539V152.111C563.936 151.79 564.231 151.543 564.569 151.37C564.915 151.197 565.344 151.11 565.856 151.11C566.688 151.11 567.333 151.379 567.793 151.916C568.261 152.445 568.495 153.151 568.495 154.035V157.701C568.495 157.788 568.464 157.861 568.404 157.922C568.352 157.974 568.282 158 568.196 158H567.546C567.459 158 567.385 157.974 567.325 157.922C567.273 157.861 567.247 157.788 567.247 157.701V154.1C567.247 153.485 567.095 153.008 566.792 152.67C566.497 152.332 566.068 152.163 565.505 152.163C564.959 152.163 564.525 152.336 564.205 152.683C563.884 153.021 563.724 153.493 563.724 154.1V157.701C563.724 157.788 563.693 157.861 563.633 157.922C563.581 157.974 563.511 158 563.425 158H562.775ZM574.014 158C573.927 158 573.854 157.974 573.793 157.922C573.741 157.861 573.715 157.788 573.715 157.701V149.212C573.715 149.117 573.741 149.043 573.793 148.991C573.854 148.93 573.927 148.9 574.014 148.9H577.576C578.503 148.9 579.201 149.121 579.669 149.563C580.137 150.005 580.371 150.586 580.371 151.305C580.371 151.79 580.258 152.193 580.033 152.514C579.816 152.835 579.556 153.069 579.253 153.216C579.617 153.398 579.925 153.68 580.176 154.061C580.427 154.442 580.553 154.88 580.553 155.374C580.553 155.859 580.44 156.301 580.215 156.7C579.998 157.099 579.673 157.415 579.24 157.649C578.807 157.883 578.287 158 577.68 158H574.014ZM577.381 152.748C577.927 152.748 578.343 152.622 578.629 152.371C578.924 152.12 579.071 151.769 579.071 151.318C579.071 150.876 578.928 150.538 578.642 150.304C578.356 150.07 577.936 149.953 577.381 149.953H574.989V152.748H577.381ZM577.511 156.947C578.057 156.947 578.482 156.8 578.785 156.505C579.097 156.21 579.253 155.833 579.253 155.374C579.253 154.897 579.097 154.516 578.785 154.23C578.482 153.935 578.057 153.788 577.511 153.788H574.989V156.947H577.511ZM584.115 158.13C583.69 158.13 583.296 158.043 582.932 157.87C582.568 157.697 582.277 157.463 582.061 157.168C581.853 156.865 581.749 156.531 581.749 156.167C581.749 155.595 581.983 155.127 582.451 154.763C582.927 154.39 583.569 154.148 584.375 154.035L586.312 153.762V153.385C586.312 152.501 585.805 152.059 584.791 152.059C584.409 152.059 584.097 152.141 583.855 152.306C583.612 152.462 583.43 152.648 583.309 152.865C583.283 152.943 583.248 152.999 583.205 153.034C583.17 153.069 583.118 153.086 583.049 153.086H582.49C582.412 153.086 582.342 153.06 582.282 153.008C582.23 152.947 582.204 152.878 582.204 152.8C582.212 152.592 582.308 152.358 582.49 152.098C582.68 151.829 582.971 151.6 583.361 151.409C583.751 151.21 584.232 151.11 584.804 151.11C585.774 151.11 586.472 151.34 586.897 151.799C587.321 152.25 587.534 152.813 587.534 153.489V157.701C587.534 157.788 587.503 157.861 587.443 157.922C587.391 157.974 587.321 158 587.235 158H586.637C586.55 158 586.476 157.974 586.416 157.922C586.364 157.861 586.338 157.788 586.338 157.701V157.142C586.147 157.419 585.87 157.653 585.506 157.844C585.142 158.035 584.678 158.13 584.115 158.13ZM584.388 157.155C584.951 157.155 585.41 156.973 585.766 156.609C586.13 156.236 586.312 155.703 586.312 155.01V154.646L584.804 154.867C584.188 154.954 583.725 155.101 583.413 155.309C583.101 155.508 582.945 155.764 582.945 156.076C582.945 156.423 583.088 156.691 583.374 156.882C583.66 157.064 583.998 157.155 584.388 157.155ZM589.701 158C589.615 158 589.541 157.974 589.48 157.922C589.428 157.861 589.402 157.788 589.402 157.701V151.552C589.402 151.465 589.428 151.392 589.48 151.331C589.541 151.27 589.615 151.24 589.701 151.24H590.299C590.386 151.24 590.46 151.27 590.52 151.331C590.581 151.392 590.611 151.465 590.611 151.552V152.124C590.967 151.535 591.573 151.24 592.431 151.24H592.938C593.025 151.24 593.094 151.27 593.146 151.331C593.207 151.383 593.237 151.452 593.237 151.539V152.072C593.237 152.159 593.207 152.228 593.146 152.28C593.094 152.332 593.025 152.358 592.938 152.358H592.158C591.69 152.358 591.322 152.497 591.053 152.774C590.785 153.043 590.65 153.411 590.65 153.879V157.701C590.65 157.788 590.62 157.861 590.559 157.922C590.499 157.974 590.425 158 590.338 158H589.701ZM597.682 158.13C596.746 158.13 596.035 157.805 595.55 157.155V157.701C595.55 157.788 595.52 157.861 595.459 157.922C595.407 157.974 595.338 158 595.251 158H594.653C594.566 158 594.493 157.974 594.432 157.922C594.38 157.861 594.354 157.788 594.354 157.701V149.069C594.354 148.982 594.38 148.913 594.432 148.861C594.493 148.8 594.566 148.77 594.653 148.77H595.29C595.377 148.77 595.446 148.8 595.498 148.861C595.55 148.913 595.576 148.982 595.576 149.069V152.059C596.087 151.426 596.789 151.11 597.682 151.11C598.583 151.11 599.264 151.409 599.723 152.007C600.182 152.596 600.429 153.337 600.464 154.23C600.473 154.325 600.477 154.455 600.477 154.62C600.477 154.785 600.473 154.915 600.464 155.01C600.429 155.911 600.182 156.657 599.723 157.246C599.264 157.835 598.583 158.13 597.682 158.13ZM597.409 157.077C598.024 157.077 598.471 156.886 598.748 156.505C599.034 156.124 599.19 155.621 599.216 154.997C599.225 154.91 599.229 154.785 599.229 154.62C599.229 152.982 598.622 152.163 597.409 152.163C596.828 152.163 596.382 152.354 596.07 152.735C595.758 153.116 595.593 153.563 595.576 154.074L595.563 154.581L595.576 155.075C595.602 155.621 595.762 156.093 596.057 156.492C596.36 156.882 596.811 157.077 597.409 157.077ZM604.776 158.13C603.884 158.13 603.169 157.857 602.631 157.311C602.103 156.756 601.812 156.002 601.76 155.049L601.747 154.607L601.76 154.178C601.821 153.242 602.116 152.497 602.644 151.942C603.182 151.387 603.888 151.11 604.763 151.11C605.725 151.11 606.471 151.418 606.999 152.033C607.528 152.64 607.792 153.463 607.792 154.503V154.724C607.792 154.811 607.762 154.884 607.701 154.945C607.649 154.997 607.58 155.023 607.493 155.023H602.995V155.14C603.021 155.703 603.19 156.184 603.502 156.583C603.823 156.973 604.243 157.168 604.763 157.168C605.162 157.168 605.487 157.09 605.738 156.934C605.998 156.769 606.189 156.6 606.31 156.427C606.388 156.323 606.445 156.262 606.479 156.245C606.523 156.219 606.596 156.206 606.7 156.206H607.337C607.415 156.206 607.48 156.228 607.532 156.271C607.584 156.314 607.61 156.375 607.61 156.453C607.61 156.644 607.489 156.873 607.246 157.142C607.012 157.411 606.679 157.645 606.245 157.844C605.821 158.035 605.331 158.13 604.776 158.13ZM606.557 154.126V154.087C606.557 153.489 606.393 153.004 606.063 152.631C605.743 152.25 605.309 152.059 604.763 152.059C604.217 152.059 603.784 152.25 603.463 152.631C603.151 153.004 602.995 153.489 602.995 154.087V154.126H606.557ZM609.646 158C609.559 158 609.485 157.974 609.425 157.922C609.373 157.861 609.347 157.788 609.347 157.701V151.552C609.347 151.465 609.373 151.392 609.425 151.331C609.485 151.27 609.559 151.24 609.646 151.24H610.244C610.33 151.24 610.404 151.27 610.465 151.331C610.525 151.392 610.556 151.465 610.556 151.552V152.124C610.911 151.535 611.518 151.24 612.376 151.24H612.883C612.969 151.24 613.039 151.27 613.091 151.331C613.151 151.383 613.182 151.452 613.182 151.539V152.072C613.182 152.159 613.151 152.228 613.091 152.28C613.039 152.332 612.969 152.358 612.883 152.358H612.103C611.635 152.358 611.266 152.497 610.998 152.774C610.729 153.043 610.595 153.411 610.595 153.879V157.701C610.595 157.788 610.564 157.861 610.504 157.922C610.443 157.974 610.369 158 610.283 158H609.646Z" fill="#303032"/>
<path d="M676 177H526V179H676V177Z" fill="#CBC9CD" mask="url(#path-38-inside-8_905_2281)"/>
<mask id="path-41-inside-9_905_2281" fill="white">
<path d="M526 178H676V227H526V178Z"/>
</mask>
<path d="M526 178H676V227H526V178Z" fill="white"/>
<path d="M547.43 207C547.343 207 547.27 206.974 547.209 206.922C547.157 206.861 547.131 206.788 547.131 206.701V198.212C547.131 198.117 547.157 198.043 547.209 197.991C547.27 197.93 547.343 197.9 547.43 197.9H548.08C548.219 197.9 548.331 197.969 548.418 198.108L551.161 203.36L553.93 198.108C553.947 198.056 553.982 198.008 554.034 197.965C554.095 197.922 554.168 197.9 554.255 197.9H554.892C554.987 197.9 555.061 197.93 555.113 197.991C555.174 198.043 555.204 198.117 555.204 198.212V206.701C555.204 206.788 555.174 206.861 555.113 206.922C555.052 206.974 554.979 207 554.892 207H554.255C554.168 207 554.095 206.974 554.034 206.922C553.982 206.861 553.956 206.788 553.956 206.701V200.305L551.785 204.543C551.698 204.725 551.56 204.816 551.369 204.816H550.966C550.775 204.816 550.637 204.725 550.55 204.543L548.366 200.305V206.701C548.366 206.788 548.336 206.861 548.275 206.922C548.223 206.974 548.154 207 548.067 207H547.43ZM559.168 207.13C558.744 207.13 558.349 207.043 557.985 206.87C557.621 206.697 557.331 206.463 557.114 206.168C556.906 205.865 556.802 205.531 556.802 205.167C556.802 204.595 557.036 204.127 557.504 203.763C557.981 203.39 558.622 203.148 559.428 203.035L561.365 202.762V202.385C561.365 201.501 560.858 201.059 559.844 201.059C559.463 201.059 559.151 201.141 558.908 201.306C558.666 201.462 558.484 201.648 558.362 201.865C558.336 201.943 558.302 201.999 558.258 202.034C558.224 202.069 558.172 202.086 558.102 202.086H557.543C557.465 202.086 557.396 202.06 557.335 202.008C557.283 201.947 557.257 201.878 557.257 201.8C557.266 201.592 557.361 201.358 557.543 201.098C557.734 200.829 558.024 200.6 558.414 200.409C558.804 200.21 559.285 200.11 559.857 200.11C560.828 200.11 561.526 200.34 561.95 200.799C562.375 201.25 562.587 201.813 562.587 202.489V206.701C562.587 206.788 562.557 206.861 562.496 206.922C562.444 206.974 562.375 207 562.288 207H561.69C561.604 207 561.53 206.974 561.469 206.922C561.417 206.861 561.391 206.788 561.391 206.701V206.142C561.201 206.419 560.923 206.653 560.559 206.844C560.195 207.035 559.732 207.13 559.168 207.13ZM559.441 206.155C560.005 206.155 560.464 205.973 560.819 205.609C561.183 205.236 561.365 204.703 561.365 204.01V203.646L559.857 203.867C559.242 203.954 558.778 204.101 558.466 204.309C558.154 204.508 557.998 204.764 557.998 205.076C557.998 205.423 558.141 205.691 558.427 205.882C558.713 206.064 559.051 206.155 559.441 206.155ZM566.978 207.13C566.155 207.13 565.518 206.866 565.067 206.337C564.616 205.8 564.391 205.089 564.391 204.205V200.539C564.391 200.452 564.417 200.383 564.469 200.331C564.53 200.27 564.603 200.24 564.69 200.24H565.34C565.427 200.24 565.496 200.27 565.548 200.331C565.609 200.383 565.639 200.452 565.639 200.539V204.14C565.639 205.431 566.202 206.077 567.329 206.077C567.875 206.077 568.308 205.908 568.629 205.57C568.95 205.223 569.11 204.747 569.11 204.14V200.539C569.11 200.452 569.136 200.383 569.188 200.331C569.249 200.27 569.322 200.24 569.409 200.24H570.059C570.146 200.24 570.215 200.27 570.267 200.331C570.319 200.383 570.345 200.452 570.345 200.539V206.701C570.345 206.788 570.319 206.861 570.267 206.922C570.215 206.974 570.146 207 570.059 207H569.448C569.361 207 569.288 206.974 569.227 206.922C569.175 206.861 569.149 206.788 569.149 206.701V206.129C568.906 206.458 568.612 206.71 568.265 206.883C567.918 207.048 567.489 207.13 566.978 207.13ZM572.575 207C572.489 207 572.415 206.974 572.354 206.922C572.302 206.861 572.276 206.788 572.276 206.701V200.552C572.276 200.465 572.302 200.392 572.354 200.331C572.415 200.27 572.489 200.24 572.575 200.24H573.173C573.26 200.24 573.334 200.27 573.394 200.331C573.455 200.392 573.485 200.465 573.485 200.552V201.124C573.841 200.535 574.447 200.24 575.305 200.24H575.812C575.899 200.24 575.968 200.27 576.02 200.331C576.081 200.383 576.111 200.452 576.111 200.539V201.072C576.111 201.159 576.081 201.228 576.02 201.28C575.968 201.332 575.899 201.358 575.812 201.358H575.032C574.564 201.358 574.196 201.497 573.927 201.774C573.659 202.043 573.524 202.411 573.524 202.879V206.701C573.524 206.788 573.494 206.861 573.433 206.922C573.373 206.974 573.299 207 573.212 207H572.575ZM577.41 198.979C577.323 198.979 577.25 198.953 577.189 198.901C577.137 198.84 577.111 198.767 577.111 198.68V197.978C577.111 197.891 577.137 197.818 577.189 197.757C577.25 197.696 577.323 197.666 577.41 197.666H578.229C578.316 197.666 578.389 197.696 578.45 197.757C578.511 197.818 578.541 197.891 578.541 197.978V198.68C578.541 198.767 578.511 198.84 578.45 198.901C578.389 198.953 578.316 198.979 578.229 198.979H577.41ZM577.514 207C577.427 207 577.354 206.974 577.293 206.922C577.241 206.861 577.215 206.788 577.215 206.701V200.539C577.215 200.452 577.241 200.383 577.293 200.331C577.354 200.27 577.427 200.24 577.514 200.24H578.138C578.225 200.24 578.294 200.27 578.346 200.331C578.407 200.383 578.437 200.452 578.437 200.539V206.701C578.437 206.788 578.407 206.861 578.346 206.922C578.294 206.974 578.225 207 578.138 207H577.514ZM583.093 207.13C582.166 207.13 581.438 206.87 580.909 206.35C580.389 205.821 580.112 205.085 580.077 204.14L580.064 203.62L580.077 203.1C580.112 202.155 580.389 201.423 580.909 200.903C581.438 200.374 582.166 200.11 583.093 200.11C583.717 200.11 584.246 200.223 584.679 200.448C585.113 200.673 585.433 200.951 585.641 201.28C585.858 201.609 585.975 201.939 585.992 202.268C586.001 202.355 585.975 202.424 585.914 202.476C585.854 202.528 585.78 202.554 585.693 202.554H585.069C584.983 202.554 584.918 202.537 584.874 202.502C584.831 202.467 584.788 202.398 584.744 202.294C584.597 201.878 584.389 201.583 584.12 201.41C583.852 201.228 583.514 201.137 583.106 201.137C582.569 201.137 582.14 201.306 581.819 201.644C581.507 201.973 581.338 202.48 581.312 203.165L581.299 203.633L581.312 204.075C581.338 204.768 581.507 205.28 581.819 205.609C582.131 205.938 582.56 206.103 583.106 206.103C583.514 206.103 583.852 206.016 584.12 205.843C584.389 205.661 584.597 205.362 584.744 204.946C584.788 204.842 584.831 204.773 584.874 204.738C584.918 204.695 584.983 204.673 585.069 204.673H585.693C585.78 204.673 585.854 204.703 585.914 204.764C585.975 204.816 586.001 204.885 585.992 204.972C585.975 205.293 585.858 205.622 585.641 205.96C585.433 206.289 585.113 206.567 584.679 206.792C584.255 207.017 583.726 207.13 583.093 207.13ZM590.24 207.13C589.348 207.13 588.633 206.857 588.095 206.311C587.567 205.756 587.276 205.002 587.224 204.049L587.211 203.607L587.224 203.178C587.285 202.242 587.58 201.497 588.108 200.942C588.646 200.387 589.352 200.11 590.227 200.11C591.189 200.11 591.935 200.418 592.463 201.033C592.992 201.64 593.256 202.463 593.256 203.503V203.724C593.256 203.811 593.226 203.884 593.165 203.945C593.113 203.997 593.044 204.023 592.957 204.023H588.459V204.14C588.485 204.703 588.654 205.184 588.966 205.583C589.287 205.973 589.707 206.168 590.227 206.168C590.626 206.168 590.951 206.09 591.202 205.934C591.462 205.769 591.653 205.6 591.774 205.427C591.852 205.323 591.909 205.262 591.943 205.245C591.987 205.219 592.06 205.206 592.164 205.206H592.801C592.879 205.206 592.944 205.228 592.996 205.271C593.048 205.314 593.074 205.375 593.074 205.453C593.074 205.644 592.953 205.873 592.71 206.142C592.476 206.411 592.143 206.645 591.709 206.844C591.285 207.035 590.795 207.13 590.24 207.13ZM592.021 203.126V203.087C592.021 202.489 591.857 202.004 591.527 201.631C591.207 201.25 590.773 201.059 590.227 201.059C589.681 201.059 589.248 201.25 588.927 201.631C588.615 202.004 588.459 202.489 588.459 203.087V203.126H592.021ZM598.465 207C598.378 207 598.305 206.974 598.244 206.922C598.192 206.861 598.166 206.788 598.166 206.701V198.212C598.166 198.117 598.192 198.043 598.244 197.991C598.305 197.93 598.378 197.9 598.465 197.9H601.637C602.634 197.9 603.414 198.134 603.977 198.602C604.54 199.07 604.822 199.746 604.822 200.63C604.822 201.289 604.657 201.83 604.328 202.255C604.007 202.68 603.552 202.974 602.963 203.139L604.965 206.597C604.991 206.649 605.004 206.697 605.004 206.74C605.004 206.809 604.974 206.87 604.913 206.922C604.861 206.974 604.8 207 604.731 207H604.107C603.977 207 603.873 206.97 603.795 206.909C603.726 206.848 603.661 206.762 603.6 206.649L601.715 203.347H599.44V206.701C599.44 206.788 599.41 206.861 599.349 206.922C599.288 206.974 599.215 207 599.128 207H598.465ZM601.585 202.242C602.876 202.242 603.522 201.7 603.522 200.617C603.522 199.534 602.876 198.992 601.585 198.992H599.44V202.242H601.585ZM609.209 207.13C608.255 207.13 607.514 206.861 606.986 206.324C606.466 205.787 606.188 205.072 606.154 204.179L606.141 203.62L606.154 203.061C606.188 202.177 606.47 201.466 606.999 200.929C607.527 200.383 608.264 200.11 609.209 200.11C610.153 200.11 610.89 200.383 611.419 200.929C611.947 201.466 612.229 202.177 612.264 203.061C612.272 203.156 612.277 203.343 612.277 203.62C612.277 203.897 612.272 204.084 612.264 204.179C612.229 205.072 611.947 205.787 611.419 206.324C610.899 206.861 610.162 207.13 609.209 207.13ZM609.209 206.129C609.755 206.129 610.184 205.956 610.496 205.609C610.816 205.262 610.99 204.764 611.016 204.114C611.024 204.027 611.029 203.863 611.029 203.62C611.029 203.377 611.024 203.213 611.016 203.126C610.99 202.476 610.816 201.978 610.496 201.631C610.184 201.284 609.755 201.111 609.209 201.111C608.663 201.111 608.229 201.284 607.909 201.631C607.588 201.978 607.419 202.476 607.402 203.126L607.389 203.62L607.402 204.114C607.419 204.764 607.588 205.262 607.909 205.609C608.229 205.956 608.663 206.129 609.209 206.129ZM616.244 207.13C615.638 207.13 615.126 207.035 614.71 206.844C614.303 206.645 613.995 206.419 613.787 206.168C613.588 205.917 613.488 205.709 613.488 205.544C613.488 205.457 613.519 205.392 613.579 205.349C613.649 205.297 613.718 205.271 613.787 205.271H614.372C614.459 205.271 614.537 205.314 614.606 205.401C614.814 205.644 615.04 205.834 615.282 205.973C615.525 206.112 615.85 206.181 616.257 206.181C616.708 206.181 617.072 206.094 617.349 205.921C617.635 205.739 617.778 205.492 617.778 205.18C617.778 204.972 617.718 204.803 617.596 204.673C617.484 204.534 617.284 204.417 616.998 204.322C616.721 204.218 616.305 204.105 615.75 203.984C614.996 203.819 614.459 203.581 614.138 203.269C613.826 202.957 613.67 202.554 613.67 202.06C613.67 201.731 613.766 201.419 613.956 201.124C614.156 200.821 614.442 200.578 614.814 200.396C615.196 200.205 615.651 200.11 616.179 200.11C616.734 200.11 617.206 200.201 617.596 200.383C617.986 200.565 618.277 200.782 618.467 201.033C618.667 201.276 618.766 201.479 618.766 201.644C618.766 201.722 618.736 201.787 618.675 201.839C618.623 201.891 618.558 201.917 618.48 201.917H617.934C617.83 201.917 617.744 201.874 617.674 201.787C617.536 201.622 617.414 201.497 617.31 201.41C617.215 201.315 617.072 201.232 616.881 201.163C616.699 201.094 616.465 201.059 616.179 201.059C615.763 201.059 615.443 201.15 615.217 201.332C614.992 201.505 614.879 201.735 614.879 202.021C614.879 202.203 614.927 202.359 615.022 202.489C615.118 202.61 615.3 202.723 615.568 202.827C615.846 202.931 616.244 203.039 616.764 203.152C617.588 203.325 618.168 203.577 618.506 203.906C618.853 204.227 619.026 204.638 619.026 205.141C619.026 205.514 618.918 205.852 618.701 206.155C618.485 206.458 618.164 206.697 617.739 206.87C617.323 207.043 616.825 207.13 616.244 207.13ZM622.871 207.13C622.265 207.13 621.753 207.035 621.337 206.844C620.93 206.645 620.622 206.419 620.414 206.168C620.215 205.917 620.115 205.709 620.115 205.544C620.115 205.457 620.146 205.392 620.206 205.349C620.276 205.297 620.345 205.271 620.414 205.271H620.999C621.086 205.271 621.164 205.314 621.233 205.401C621.441 205.644 621.667 205.834 621.909 205.973C622.152 206.112 622.477 206.181 622.884 206.181C623.335 206.181 623.699 206.094 623.976 205.921C624.262 205.739 624.405 205.492 624.405 205.18C624.405 204.972 624.345 204.803 624.223 204.673C624.111 204.534 623.911 204.417 623.625 204.322C623.348 204.218 622.932 204.105 622.377 203.984C621.623 203.819 621.086 203.581 620.765 203.269C620.453 202.957 620.297 202.554 620.297 202.06C620.297 201.731 620.393 201.419 620.583 201.124C620.783 200.821 621.069 200.578 621.441 200.396C621.823 200.205 622.278 200.11 622.806 200.11C623.361 200.11 623.833 200.201 624.223 200.383C624.613 200.565 624.904 200.782 625.094 201.033C625.294 201.276 625.393 201.479 625.393 201.644C625.393 201.722 625.363 201.787 625.302 201.839C625.25 201.891 625.185 201.917 625.107 201.917H624.561C624.457 201.917 624.371 201.874 624.301 201.787C624.163 201.622 624.041 201.497 623.937 201.41C623.842 201.315 623.699 201.232 623.508 201.163C623.326 201.094 623.092 201.059 622.806 201.059C622.39 201.059 622.07 201.15 621.844 201.332C621.619 201.505 621.506 201.735 621.506 202.021C621.506 202.203 621.554 202.359 621.649 202.489C621.745 202.61 621.927 202.723 622.195 202.827C622.473 202.931 622.871 203.039 623.391 203.152C624.215 203.325 624.795 203.577 625.133 203.906C625.48 204.227 625.653 204.638 625.653 205.141C625.653 205.514 625.545 205.852 625.328 206.155C625.112 206.458 624.791 206.697 624.366 206.87C623.95 207.043 623.452 207.13 622.871 207.13Z" fill="#303032"/>
<path d="M676 226H526V228H676V226Z" fill="#CBC9CD" mask="url(#path-41-inside-9_905_2281)"/>
<mask id="path-44-inside-10_905_2281" fill="white">
<path d="M676 31H764V80H676V31Z"/>
</mask>
<path d="M676 31H764V80H676V31Z" fill="white"/>
<rect x="696" y="47" width="48" height="17" rx="5" fill="#F2F2F6"/>
<path d="M764 79H676V81H764V79Z" fill="#CBC9CD" mask="url(#path-44-inside-10_905_2281)"/>
<mask id="path-47-inside-11_905_2281" fill="white">
<path d="M676 80H764V129H676V80Z"/>
</mask>
<path d="M676 80H764V129H676V80Z" fill="white"/>
<rect x="696" y="96" width="48" height="17" rx="5" fill="#F2F2F6"/>
<path d="M764 128H676V130H764V128Z" fill="#CBC9CD" mask="url(#path-47-inside-11_905_2281)"/>
<mask id="path-50-inside-12_905_2281" fill="white">
<path d="M676 129H764V178H676V129Z"/>
</mask>
<path d="M676 129H764V178H676V129Z" fill="white"/>
<rect x="696" y="145" width="48" height="17" rx="5" fill="#F2F2F6"/>
<path d="M764 177H676V179H764V177Z" fill="#CBC9CD" mask="url(#path-50-inside-12_905_2281)"/>
<mask id="path-53-inside-13_905_2281" fill="white">
<path d="M676 178H764V227H676V178Z"/>
</mask>
<path d="M676 178H764V227H676V178Z" fill="white"/>
<rect x="696" y="194" width="48" height="17" rx="5" fill="#F2F2F6"/>
<path d="M764 226H676V228H764V226Z" fill="#CBC9CD" mask="url(#path-53-inside-13_905_2281)"/>
</g>
<path d="M401.5 0.5H463.5V17C463.5 18.933 461.933 20.5 460 20.5H401.5V0.5Z" fill="#F5F7F9"/>
<path d="M414.122 14C414.049 14 413.986 13.9743 413.935 13.923C413.884 13.8717 413.858 13.8093 413.858 13.736V6.575C413.858 6.49433 413.88 6.42833 413.924 6.377C413.975 6.32567 414.041 6.3 414.122 6.3H416.806C418.962 6.3 420.062 7.29733 420.106 9.292C420.121 9.71733 420.128 10.0033 420.128 10.15C420.128 10.2893 420.121 10.5717 420.106 10.997C420.077 12.0237 419.802 12.7827 419.281 13.274C418.76 13.758 417.954 14 416.861 14H414.122ZM416.806 12.735C417.422 12.735 417.866 12.5993 418.137 12.328C418.408 12.0493 418.551 11.5947 418.566 10.964C418.581 10.524 418.588 10.249 418.588 10.139C418.588 10.0217 418.581 9.75033 418.566 9.325C418.551 8.72367 418.397 8.28 418.104 7.994C417.818 7.708 417.367 7.565 416.751 7.565H415.387V12.735H416.806ZM421.68 7.334C421.607 7.334 421.545 7.30833 421.493 7.257C421.442 7.20567 421.416 7.14333 421.416 7.07V6.278C421.416 6.20467 421.442 6.14233 421.493 6.091C421.545 6.03967 421.607 6.014 421.68 6.014H422.681C422.755 6.014 422.817 6.03967 422.868 6.091C422.927 6.14233 422.956 6.20467 422.956 6.278V7.07C422.956 7.14333 422.931 7.20567 422.879 7.257C422.828 7.30833 422.762 7.334 422.681 7.334H421.68ZM421.724 14C421.651 14 421.589 13.9743 421.537 13.923C421.486 13.8717 421.46 13.8093 421.46 13.736V8.544C421.46 8.47067 421.486 8.40833 421.537 8.357C421.589 8.30567 421.651 8.28 421.724 8.28H422.637C422.718 8.28 422.78 8.30567 422.824 8.357C422.876 8.401 422.901 8.46333 422.901 8.544V13.736C422.901 13.8093 422.876 13.8717 422.824 13.923C422.78 13.9743 422.718 14 422.637 14H421.724ZM426.528 14.11C425.978 14.11 425.516 14.0293 425.142 13.868C424.768 13.6993 424.489 13.505 424.306 13.285C424.13 13.0577 424.042 12.8633 424.042 12.702C424.042 12.6287 424.067 12.57 424.119 12.526C424.17 12.482 424.229 12.46 424.295 12.46H425.164C425.23 12.46 425.285 12.4857 425.329 12.537C425.358 12.559 425.435 12.625 425.56 12.735C425.684 12.8523 425.831 12.944 426 13.01C426.168 13.076 426.355 13.109 426.561 13.109C426.854 13.109 427.096 13.0503 427.287 12.933C427.477 12.8157 427.573 12.6543 427.573 12.449C427.573 12.295 427.529 12.1703 427.441 12.075C427.36 11.9797 427.21 11.8953 426.99 11.822C426.77 11.7413 426.443 11.657 426.011 11.569C425.387 11.437 424.925 11.2353 424.625 10.964C424.331 10.6927 424.185 10.3333 424.185 9.886C424.185 9.59267 424.273 9.31767 424.449 9.061C424.625 8.797 424.885 8.58433 425.23 8.423C425.582 8.25433 426 8.17 426.484 8.17C426.975 8.17 427.4 8.25067 427.76 8.412C428.119 8.566 428.39 8.753 428.574 8.973C428.764 9.18567 428.86 9.37633 428.86 9.545C428.86 9.611 428.834 9.66967 428.783 9.721C428.739 9.765 428.684 9.787 428.618 9.787H427.804C427.745 9.787 427.683 9.76133 427.617 9.71C427.565 9.67333 427.485 9.60367 427.375 9.501C427.265 9.39833 427.136 9.31767 426.99 9.259C426.843 9.20033 426.671 9.171 426.473 9.171C426.201 9.171 425.989 9.22967 425.835 9.347C425.688 9.46433 425.615 9.61833 425.615 9.809C425.615 9.94833 425.651 10.062 425.725 10.15C425.798 10.238 425.941 10.3223 426.154 10.403C426.366 10.4837 426.685 10.5643 427.111 10.645C427.815 10.7843 428.317 11.0007 428.618 11.294C428.926 11.5873 429.08 11.9467 429.08 12.372C429.08 12.8853 428.856 13.3033 428.409 13.626C427.961 13.9487 427.334 14.11 426.528 14.11ZM430.49 16.09C430.417 16.09 430.355 16.0643 430.303 16.013C430.252 15.969 430.226 15.9067 430.226 15.826V8.544C430.226 8.46333 430.252 8.401 430.303 8.357C430.355 8.30567 430.417 8.28 430.49 8.28H431.359C431.44 8.28 431.502 8.30567 431.546 8.357C431.598 8.401 431.623 8.46333 431.623 8.544V8.984C432.034 8.44133 432.621 8.17 433.383 8.17C434.124 8.17 434.692 8.40467 435.088 8.874C435.484 9.336 435.697 9.963 435.726 10.755C435.734 10.843 435.737 10.9713 435.737 11.14C435.737 11.316 435.734 11.448 435.726 11.536C435.697 12.306 435.484 12.9293 435.088 13.406C434.692 13.8753 434.124 14.11 433.383 14.11C432.643 14.11 432.078 13.8497 431.689 13.329V15.826C431.689 15.9067 431.664 15.969 431.612 16.013C431.568 16.0643 431.506 16.09 431.425 16.09H430.49ZM432.976 12.933C433.768 12.933 434.19 12.4453 434.241 11.47C434.249 11.3967 434.252 11.2867 434.252 11.14C434.252 10.9933 434.249 10.8833 434.241 10.81C434.19 9.83467 433.768 9.347 432.976 9.347C432.551 9.347 432.236 9.48267 432.03 9.754C431.825 10.0253 431.711 10.359 431.689 10.755L431.678 11.173L431.689 11.602C431.704 11.9687 431.818 12.284 432.03 12.548C432.25 12.8047 432.566 12.933 432.976 12.933ZM437.247 14C437.174 14 437.111 13.9743 437.06 13.923C437.009 13.8717 436.983 13.8093 436.983 13.736V6.454C436.983 6.37333 437.009 6.311 437.06 6.267C437.111 6.21567 437.174 6.19 437.247 6.19H438.16C438.241 6.19 438.303 6.21567 438.347 6.267C438.398 6.311 438.424 6.37333 438.424 6.454V13.736C438.424 13.8093 438.398 13.8717 438.347 13.923C438.303 13.9743 438.241 14 438.16 14H437.247ZM441.544 14.11C441.17 14.11 440.826 14.0367 440.51 13.89C440.202 13.736 439.957 13.5307 439.773 13.274C439.597 13.0173 439.509 12.735 439.509 12.427C439.509 11.9283 439.711 11.525 440.114 11.217C440.518 10.909 441.071 10.7 441.775 10.59L443.282 10.37V10.139C443.282 9.81633 443.202 9.57433 443.04 9.413C442.879 9.25167 442.619 9.171 442.259 9.171C442.017 9.171 441.819 9.21867 441.665 9.314C441.519 9.402 441.401 9.49 441.313 9.578C441.225 9.67333 441.167 9.73567 441.137 9.765C441.108 9.853 441.053 9.897 440.972 9.897H440.125C440.059 9.897 440.001 9.875 439.949 9.831C439.905 9.787 439.883 9.72833 439.883 9.655C439.891 9.47167 439.979 9.26267 440.147 9.028C440.323 8.79333 440.591 8.59167 440.95 8.423C441.31 8.25433 441.75 8.17 442.27 8.17C443.136 8.17 443.766 8.36433 444.162 8.753C444.558 9.14167 444.756 9.65133 444.756 10.282V13.736C444.756 13.8093 444.731 13.8717 444.679 13.923C444.635 13.9743 444.573 14 444.492 14H443.601C443.528 14 443.466 13.9743 443.414 13.923C443.363 13.8717 443.337 13.8093 443.337 13.736V13.307C443.176 13.5417 442.945 13.736 442.644 13.89C442.351 14.0367 441.984 14.11 441.544 14.11ZM441.918 13.065C442.322 13.065 442.652 12.933 442.908 12.669C443.165 12.405 443.293 12.02 443.293 11.514V11.283L442.193 11.459C441.768 11.525 441.445 11.6313 441.225 11.778C441.013 11.9247 440.906 12.1043 440.906 12.317C440.906 12.5517 441.005 12.735 441.203 12.867C441.401 12.999 441.64 13.065 441.918 13.065ZM447.051 16.09C446.992 16.09 446.941 16.068 446.897 16.024C446.853 15.98 446.831 15.9287 446.831 15.87C446.831 15.804 446.846 15.7453 446.875 15.694L447.733 13.659L445.621 8.676C445.592 8.61 445.577 8.55867 445.577 8.522C445.584 8.456 445.61 8.401 445.654 8.357C445.698 8.30567 445.753 8.28 445.819 8.28H446.71C446.849 8.28 446.948 8.34967 447.007 8.489L448.47 12.086L449.977 8.489C450.036 8.34967 450.135 8.28 450.274 8.28H451.154C451.213 8.28 451.264 8.302 451.308 8.346C451.359 8.39 451.385 8.44133 451.385 8.5C451.385 8.55133 451.37 8.61 451.341 8.676L448.228 15.881C448.162 16.0203 448.059 16.09 447.92 16.09H447.051Z" fill="#535356"/>
<path d="M401.5 0.5H463.5V17C463.5 18.933 461.933 20.5 460 20.5H401.5V0.5Z" stroke="#EAEAEF"/>
<path d="M402 257V1H400V257H402Z" fill="#EAEAEF" mask="url(#path-17-inside-1_905_2281)"/>
<rect x="0.5" y="0.5" width="801" height="257" stroke="#EAEAEF"/>
<defs>
<filter id="filter0_d_905_2281" x="17" y="85.5" width="358" height="156" filterUnits="userSpaceOnUse" color-interpolation-filters="sRGB">
<feFlood flood-opacity="0" result="BackgroundImageFix"/>
<feColorMatrix in="SourceAlpha" type="matrix" values="0 0 0 0 0 0 0 0 0 0 0 0 0 0 0 0 0 0 127 0" result="hardAlpha"/>
<feOffset dy="10"/>
<feGaussianBlur stdDeviation="10"/>
<feComposite in2="hardAlpha" operator="out"/>
<feColorMatrix type="matrix" values="0 0 0 0 0.117647 0 0 0 0 0.117647 0 0 0 0 0.117647 0 0 0 0.12 0"/>
<feBlend mode="normal" in2="BackgroundImageFix" result="effect1_dropShadow_905_2281"/>
<feBlend mode="normal" in="SourceGraphic" in2="effect1_dropShadow_905_2281" result="shape"/>
</filter>
<filter id="filter1_d_905_2281" x="418" y="21" width="366" height="236" filterUnits="userSpaceOnUse" color-interpolation-filters="sRGB">
<feFlood flood-opacity="0" result="BackgroundImageFix"/>
<feColorMatrix in="SourceAlpha" type="matrix" values="0 0 0 0 0 0 0 0 0 0 0 0 0 0 0 0 0 0 127 0" result="hardAlpha"/>
<feOffset dy="10"/>
<feGaussianBlur stdDeviation="10"/>
<feComposite in2="hardAlpha" operator="out"/>
<feColorMatrix type="matrix" values="0 0 0 0 0.117647 0 0 0 0 0.117647 0 0 0 0 0.117647 0 0 0 0.12 0"/>
<feBlend mode="normal" in2="BackgroundImageFix" result="effect1_dropShadow_905_2281"/>
<feBlend mode="normal" in="SourceGraphic" in2="effect1_dropShadow_905_2281" result="shape"/>
</filter>
</defs>
</svg>
