<svg width="802" height="258" viewBox="0 0 802 258" fill="none" xmlns="http://www.w3.org/2000/svg">
<rect width="400" height="256" transform="translate(1 1)" fill="white"/>
<rect width="400" height="104" transform="translate(1 77)" fill="white"/>
<rect width="320" height="74" transform="translate(41 92)" fill="white"/>
<path d="M45.173 105.13C44.4017 105.13 43.7387 105.013 43.184 104.779C42.6293 104.545 42.209 104.237 41.923 103.856C41.637 103.475 41.4853 103.063 41.468 102.621C41.468 102.543 41.494 102.478 41.546 102.426C41.598 102.374 41.663 102.348 41.741 102.348H42.898C43.002 102.348 43.08 102.37 43.132 102.413C43.1927 102.448 43.249 102.508 43.301 102.595C43.3877 102.89 43.587 103.137 43.899 103.336C44.211 103.535 44.6357 103.635 45.173 103.635C45.7883 103.635 46.252 103.535 46.564 103.336C46.876 103.128 47.032 102.842 47.032 102.478C47.032 102.235 46.9497 102.036 46.785 101.88C46.629 101.724 46.3907 101.59 46.07 101.477C45.758 101.364 45.29 101.226 44.666 101.061C43.6433 100.818 42.8937 100.498 42.417 100.099C41.949 99.6917 41.715 99.1153 41.715 98.37C41.715 97.8673 41.8493 97.421 42.118 97.031C42.3953 96.641 42.7897 96.3333 43.301 96.108C43.821 95.8827 44.4233 95.77 45.108 95.77C45.8187 95.77 46.434 95.8957 46.954 96.147C47.474 96.3983 47.8683 96.7147 48.137 97.096C48.4143 97.4687 48.5617 97.8413 48.579 98.214C48.579 98.292 48.553 98.357 48.501 98.409C48.449 98.461 48.384 98.487 48.306 98.487H47.097C46.915 98.487 46.7893 98.4047 46.72 98.24C46.668 97.9627 46.4947 97.733 46.2 97.551C45.9053 97.3603 45.5413 97.265 45.108 97.265C44.6227 97.265 44.2413 97.356 43.964 97.538C43.6867 97.72 43.548 97.9843 43.548 98.331C43.548 98.5737 43.6173 98.773 43.756 98.929C43.8947 99.085 44.1113 99.2237 44.406 99.345C44.7093 99.4663 45.1427 99.6007 45.706 99.748C46.4687 99.9213 47.0753 100.116 47.526 100.333C47.9853 100.55 48.3233 100.823 48.54 101.152C48.7567 101.481 48.865 101.902 48.865 102.413C48.865 102.968 48.709 103.453 48.397 103.869C48.0937 104.276 47.6603 104.588 47.097 104.805C46.5423 105.022 45.901 105.13 45.173 105.13ZM52.5673 105C52.4806 105 52.4069 104.97 52.3463 104.909C52.2856 104.848 52.2553 104.775 52.2553 104.688V97.499H49.8503C49.7636 97.499 49.6899 97.4687 49.6293 97.408C49.5686 97.3473 49.5383 97.2737 49.5383 97.187V96.225C49.5383 96.1297 49.5643 96.0517 49.6163 95.991C49.6769 95.9303 49.7549 95.9 49.8503 95.9H56.4803C56.5756 95.9 56.6536 95.9303 56.7143 95.991C56.7749 96.0517 56.8053 96.1297 56.8053 96.225V97.187C56.8053 97.2737 56.7749 97.3473 56.7143 97.408C56.6536 97.4687 56.5756 97.499 56.4803 97.499H54.0883V104.688C54.0883 104.775 54.0579 104.848 53.9973 104.909C53.9366 104.97 53.8586 105 53.7633 105H52.5673ZM56.6132 105C56.5439 105 56.4789 104.974 56.4182 104.922C56.3662 104.87 56.3402 104.805 56.3402 104.727L56.3662 104.61L59.4992 96.225C59.5599 96.0083 59.7115 95.9 59.9542 95.9H61.3712C61.5965 95.9 61.7482 96.0083 61.8262 96.225L64.9592 104.61C64.9679 104.636 64.9722 104.675 64.9722 104.727C64.9722 104.805 64.9462 104.87 64.8942 104.922C64.8422 104.974 64.7815 105 64.7122 105H63.5812C63.4685 105 63.3819 104.974 63.3212 104.922C63.2605 104.87 63.2215 104.814 63.2042 104.753L62.5932 103.167H58.7322L58.1212 104.753C58.0519 104.918 57.9262 105 57.7442 105H56.6132ZM62.1382 101.672L60.6562 97.655L59.1872 101.672H62.1382ZM67.5477 105C67.4611 105 67.3874 104.97 67.3267 104.909C67.2661 104.848 67.2357 104.775 67.2357 104.688V97.499H64.8307C64.7441 97.499 64.6704 97.4687 64.6097 97.408C64.5491 97.3473 64.5187 97.2737 64.5187 97.187V96.225C64.5187 96.1297 64.5447 96.0517 64.5967 95.991C64.6574 95.9303 64.7354 95.9 64.8307 95.9H71.4607C71.5561 95.9 71.6341 95.9303 71.6947 95.991C71.7554 96.0517 71.7857 96.1297 71.7857 96.225V97.187C71.7857 97.2737 71.7554 97.3473 71.6947 97.408C71.6341 97.4687 71.5561 97.499 71.4607 97.499H69.0687V104.688C69.0687 104.775 69.0384 104.848 68.9777 104.909C68.9171 104.97 68.8391 105 68.7437 105H67.5477ZM76.7318 105.13C75.5618 105.13 74.6518 104.831 74.0018 104.233C73.3518 103.635 73.0268 102.729 73.0268 101.516V96.225C73.0268 96.1297 73.0528 96.0517 73.1048 95.991C73.1655 95.9303 73.2435 95.9 73.3388 95.9H74.5218C74.6172 95.9 74.6908 95.9303 74.7428 95.991C74.8035 96.0517 74.8338 96.1297 74.8338 96.225V101.516C74.8338 102.209 74.9985 102.734 75.3278 103.089C75.6572 103.436 76.1252 103.609 76.7318 103.609C77.3385 103.609 77.8022 103.436 78.1228 103.089C78.4522 102.734 78.6168 102.209 78.6168 101.516V96.225C78.6168 96.1297 78.6472 96.0517 78.7078 95.991C78.7685 95.9303 78.8465 95.9 78.9418 95.9H80.1118C80.2072 95.9 80.2808 95.9303 80.3328 95.991C80.3935 96.0517 80.4238 96.1297 80.4238 96.225V101.516C80.4238 102.729 80.0988 103.635 79.4488 104.233C78.8075 104.831 77.9018 105.13 76.7318 105.13ZM85.5314 105.13C84.7601 105.13 84.0971 105.013 83.5424 104.779C82.9877 104.545 82.5674 104.237 82.2814 103.856C81.9954 103.475 81.8437 103.063 81.8264 102.621C81.8264 102.543 81.8524 102.478 81.9044 102.426C81.9564 102.374 82.0214 102.348 82.0994 102.348H83.2564C83.3604 102.348 83.4384 102.37 83.4904 102.413C83.5511 102.448 83.6074 102.508 83.6594 102.595C83.7461 102.89 83.9454 103.137 84.2574 103.336C84.5694 103.535 84.9941 103.635 85.5314 103.635C86.1467 103.635 86.6104 103.535 86.9224 103.336C87.2344 103.128 87.3904 102.842 87.3904 102.478C87.3904 102.235 87.3081 102.036 87.1434 101.88C86.9874 101.724 86.7491 101.59 86.4284 101.477C86.1164 101.364 85.6484 101.226 85.0244 101.061C84.0017 100.818 83.2521 100.498 82.7754 100.099C82.3074 99.6917 82.0734 99.1153 82.0734 98.37C82.0734 97.8673 82.2077 97.421 82.4764 97.031C82.7537 96.641 83.1481 96.3333 83.6594 96.108C84.1794 95.8827 84.7817 95.77 85.4664 95.77C86.1771 95.77 86.7924 95.8957 87.3124 96.147C87.8324 96.3983 88.2267 96.7147 88.4954 97.096C88.7727 97.4687 88.9201 97.8413 88.9374 98.214C88.9374 98.292 88.9114 98.357 88.8594 98.409C88.8074 98.461 88.7424 98.487 88.6644 98.487H87.4554C87.2734 98.487 87.1477 98.4047 87.0784 98.24C87.0264 97.9627 86.8531 97.733 86.5584 97.551C86.2637 97.3603 85.8997 97.265 85.4664 97.265C84.9811 97.265 84.5997 97.356 84.3224 97.538C84.0451 97.72 83.9064 97.9843 83.9064 98.331C83.9064 98.5737 83.9757 98.773 84.1144 98.929C84.2531 99.085 84.4697 99.2237 84.7644 99.345C85.0677 99.4663 85.5011 99.6007 86.0644 99.748C86.8271 99.9213 87.4337 100.116 87.8844 100.333C88.3437 100.55 88.6817 100.823 88.8984 101.152C89.1151 101.481 89.2234 101.902 89.2234 102.413C89.2234 102.968 89.0674 103.453 88.7554 103.869C88.4521 104.276 88.0187 104.588 87.4554 104.805C86.9007 105.022 86.2594 105.13 85.5314 105.13Z" fill="#A0A0A5"/>
<rect x="41.5" y="120.5" width="319" height="45" rx="2.5" fill="#F5F7F9"/>
<path d="M57.65 147C57.55 147 57.465 146.97 57.395 146.91C57.335 146.84 57.305 146.755 57.305 146.655V136.845C57.305 136.745 57.335 136.665 57.395 136.605C57.465 136.535 57.55 136.5 57.65 136.5H58.445C58.545 136.5 58.625 136.535 58.685 136.605C58.755 136.665 58.79 136.745 58.79 136.845V146.655C58.79 146.755 58.755 146.84 58.685 146.91C58.625 146.97 58.545 147 58.445 147H57.65ZM61.5566 147C61.4566 147 61.3716 146.97 61.3016 146.91C61.2416 146.84 61.2116 146.755 61.2116 146.655V139.545C61.2116 139.445 61.2416 139.365 61.3016 139.305C61.3716 139.235 61.4566 139.2 61.5566 139.2H62.2616C62.3616 139.2 62.4416 139.235 62.5016 139.305C62.5716 139.365 62.6066 139.445 62.6066 139.545V140.205C62.8966 139.835 63.2366 139.55 63.6266 139.35C64.0266 139.15 64.5216 139.05 65.1116 139.05C66.0716 139.05 66.8166 139.36 67.3466 139.98C67.8866 140.59 68.1566 141.405 68.1566 142.425V146.655C68.1566 146.755 68.1216 146.84 68.0516 146.91C67.9916 146.97 67.9116 147 67.8116 147H67.0616C66.9616 147 66.8766 146.97 66.8066 146.91C66.7466 146.84 66.7166 146.755 66.7166 146.655V142.5C66.7166 141.79 66.5416 141.24 66.1916 140.85C65.8516 140.46 65.3566 140.265 64.7066 140.265C64.0766 140.265 63.5766 140.465 63.2066 140.865C62.8366 141.255 62.6516 141.8 62.6516 142.5V146.655C62.6516 146.755 62.6166 146.84 62.5466 146.91C62.4866 146.97 62.4066 147 62.3066 147H61.5566ZM74.345 149.85C74.245 149.85 74.16 149.815 74.09 149.745C74.03 149.685 74 149.605 74 149.505V139.545C74 139.445 74.03 139.365 74.09 139.305C74.16 139.235 74.245 139.2 74.345 139.2H75.035C75.135 139.2 75.215 139.235 75.275 139.305C75.345 139.365 75.38 139.445 75.38 139.545V140.205C75.94 139.435 76.76 139.05 77.84 139.05C78.89 139.05 79.675 139.38 80.195 140.04C80.725 140.7 81.01 141.55 81.05 142.59C81.06 142.7 81.065 142.87 81.065 143.1C81.065 143.33 81.06 143.5 81.05 143.61C81.01 144.64 80.725 145.49 80.195 146.16C79.665 146.82 78.88 147.15 77.84 147.15C76.8 147.15 75.99 146.775 75.41 146.025V149.505C75.41 149.605 75.38 149.685 75.32 149.745C75.26 149.815 75.18 149.85 75.08 149.85H74.345ZM77.525 145.935C78.235 145.935 78.75 145.715 79.07 145.275C79.4 144.835 79.58 144.255 79.61 143.535C79.62 143.435 79.625 143.29 79.625 143.1C79.625 141.21 78.925 140.265 77.525 140.265C76.835 140.265 76.315 140.495 75.965 140.955C75.625 141.405 75.44 141.945 75.41 142.575L75.395 143.145L75.41 143.73C75.43 144.32 75.62 144.835 75.98 145.275C76.34 145.715 76.855 145.935 77.525 145.935ZM83.2655 147C83.1655 147 83.0805 146.97 83.0105 146.91C82.9505 146.84 82.9205 146.755 82.9205 146.655V139.56C82.9205 139.46 82.9505 139.375 83.0105 139.305C83.0805 139.235 83.1655 139.2 83.2655 139.2H83.9555C84.0555 139.2 84.1405 139.235 84.2105 139.305C84.2805 139.375 84.3155 139.46 84.3155 139.56V140.22C84.7255 139.54 85.4255 139.2 86.4155 139.2H87.0005C87.1005 139.2 87.1805 139.235 87.2405 139.305C87.3105 139.365 87.3455 139.445 87.3455 139.545V140.16C87.3455 140.26 87.3105 140.34 87.2405 140.4C87.1805 140.46 87.1005 140.49 87.0005 140.49H86.1005C85.5605 140.49 85.1355 140.65 84.8255 140.97C84.5155 141.28 84.3605 141.705 84.3605 142.245V146.655C84.3605 146.755 84.3255 146.84 84.2555 146.91C84.1855 146.97 84.1005 147 84.0005 147H83.2655ZM91.6673 147.15C90.5673 147.15 89.7123 146.84 89.1023 146.22C88.5023 145.6 88.1823 144.775 88.1423 143.745L88.1273 143.1L88.1423 142.455C88.1823 141.435 88.5073 140.615 89.1173 139.995C89.7273 139.365 90.5773 139.05 91.6673 139.05C92.7573 139.05 93.6073 139.365 94.2173 139.995C94.8273 140.615 95.1523 141.435 95.1923 142.455C95.2023 142.565 95.2073 142.78 95.2073 143.1C95.2073 143.42 95.2023 143.635 95.1923 143.745C95.1523 144.775 94.8273 145.6 94.2173 146.22C93.6173 146.84 92.7673 147.15 91.6673 147.15ZM91.6673 145.995C92.2973 145.995 92.7923 145.795 93.1523 145.395C93.5223 144.995 93.7223 144.42 93.7523 143.67C93.7623 143.57 93.7673 143.38 93.7673 143.1C93.7673 142.82 93.7623 142.63 93.7523 142.53C93.7223 141.78 93.5223 141.205 93.1523 140.805C92.7923 140.405 92.2973 140.205 91.6673 140.205C91.0373 140.205 90.5373 140.405 90.1673 140.805C89.7973 141.205 89.6023 141.78 89.5823 142.53L89.5673 143.1L89.5823 143.67C89.6023 144.42 89.7973 144.995 90.1673 145.395C90.5373 145.795 91.0373 145.995 91.6673 145.995ZM100.281 150.3C99.4606 150.3 98.8006 150.16 98.3006 149.88C97.8006 149.61 97.4456 149.3 97.2356 148.95C97.0256 148.6 96.9106 148.285 96.8906 148.005C96.8806 147.905 96.9106 147.82 96.9806 147.75C97.0606 147.68 97.1456 147.645 97.2356 147.645H97.9556C98.0456 147.645 98.1206 147.665 98.1806 147.705C98.2406 147.755 98.2906 147.84 98.3306 147.96C98.4506 148.28 98.6456 148.555 98.9156 148.785C99.1956 149.025 99.6256 149.145 100.206 149.145C100.946 149.145 101.491 148.985 101.841 148.665C102.191 148.355 102.366 147.8 102.366 147V145.98C102.106 146.31 101.776 146.575 101.376 146.775C100.976 146.965 100.501 147.06 99.9506 147.06C98.8906 147.06 98.0956 146.725 97.5656 146.055C97.0456 145.375 96.7706 144.515 96.7406 143.475L96.7256 143.055L96.7406 142.65C96.7706 141.62 97.0506 140.765 97.5806 140.085C98.1106 139.395 98.9006 139.05 99.9506 139.05C101.001 139.05 101.821 139.435 102.411 140.205V139.56C102.411 139.46 102.441 139.375 102.501 139.305C102.571 139.235 102.656 139.2 102.756 139.2H103.446C103.546 139.2 103.631 139.235 103.701 139.305C103.771 139.375 103.806 139.46 103.806 139.56V146.835C103.806 149.145 102.631 150.3 100.281 150.3ZM100.251 145.86C100.931 145.86 101.446 145.635 101.796 145.185C102.146 144.735 102.336 144.2 102.366 143.58C102.376 143.49 102.381 143.315 102.381 143.055C102.381 142.805 102.376 142.635 102.366 142.545C102.336 141.925 102.146 141.39 101.796 140.94C101.456 140.49 100.941 140.265 100.251 140.265C99.5406 140.265 99.0256 140.485 98.7056 140.925C98.3856 141.365 98.2106 141.945 98.1806 142.665L98.1656 143.055L98.1806 143.46C98.2106 144.17 98.3856 144.75 98.7056 145.2C99.0256 145.64 99.5406 145.86 100.251 145.86ZM106.381 147C106.281 147 106.196 146.97 106.126 146.91C106.066 146.84 106.036 146.755 106.036 146.655V139.56C106.036 139.46 106.066 139.375 106.126 139.305C106.196 139.235 106.281 139.2 106.381 139.2H107.071C107.171 139.2 107.256 139.235 107.326 139.305C107.396 139.375 107.431 139.46 107.431 139.56V140.22C107.841 139.54 108.541 139.2 109.531 139.2H110.116C110.216 139.2 110.296 139.235 110.356 139.305C110.426 139.365 110.461 139.445 110.461 139.545V140.16C110.461 140.26 110.426 140.34 110.356 140.4C110.296 140.46 110.216 140.49 110.116 140.49H109.216C108.676 140.49 108.251 140.65 107.941 140.97C107.631 141.28 107.476 141.705 107.476 142.245V146.655C107.476 146.755 107.441 146.84 107.371 146.91C107.301 146.97 107.216 147 107.116 147H106.381ZM114.708 147.15C113.678 147.15 112.853 146.835 112.233 146.205C111.623 145.565 111.288 144.695 111.228 143.595L111.213 143.085L111.228 142.59C111.298 141.51 111.638 140.65 112.248 140.01C112.868 139.37 113.683 139.05 114.693 139.05C115.803 139.05 116.663 139.405 117.273 140.115C117.883 140.815 118.188 141.765 118.188 142.965V143.22C118.188 143.32 118.153 143.405 118.083 143.475C118.023 143.535 117.943 143.565 117.843 143.565H112.653V143.7C112.683 144.35 112.878 144.905 113.238 145.365C113.608 145.815 114.093 146.04 114.693 146.04C115.153 146.04 115.528 145.95 115.818 145.77C116.118 145.58 116.338 145.385 116.478 145.185C116.568 145.065 116.633 144.995 116.673 144.975C116.723 144.945 116.808 144.93 116.928 144.93H117.663C117.753 144.93 117.828 144.955 117.888 145.005C117.948 145.055 117.978 145.125 117.978 145.215C117.978 145.435 117.838 145.7 117.558 146.01C117.288 146.32 116.903 146.59 116.403 146.82C115.913 147.04 115.348 147.15 114.708 147.15ZM116.763 142.53V142.485C116.763 141.795 116.573 141.235 116.193 140.805C115.823 140.365 115.323 140.145 114.693 140.145C114.063 140.145 113.563 140.365 113.193 140.805C112.833 141.235 112.653 141.795 112.653 142.485V142.53H116.763ZM122.681 147.15C121.981 147.15 121.391 147.04 120.911 146.82C120.441 146.59 120.086 146.33 119.846 146.04C119.616 145.75 119.501 145.51 119.501 145.32C119.501 145.22 119.536 145.145 119.606 145.095C119.686 145.035 119.766 145.005 119.846 145.005H120.521C120.621 145.005 120.711 145.055 120.791 145.155C121.031 145.435 121.291 145.655 121.571 145.815C121.851 145.975 122.226 146.055 122.696 146.055C123.216 146.055 123.636 145.955 123.956 145.755C124.286 145.545 124.451 145.26 124.451 144.9C124.451 144.66 124.381 144.465 124.241 144.315C124.111 144.155 123.881 144.02 123.551 143.91C123.231 143.79 122.751 143.66 122.111 143.52C121.241 143.33 120.621 143.055 120.251 142.695C119.891 142.335 119.711 141.87 119.711 141.3C119.711 140.92 119.821 140.56 120.041 140.22C120.271 139.87 120.601 139.59 121.031 139.38C121.471 139.16 121.996 139.05 122.606 139.05C123.246 139.05 123.791 139.155 124.241 139.365C124.691 139.575 125.026 139.825 125.246 140.115C125.476 140.395 125.591 140.63 125.591 140.82C125.591 140.91 125.556 140.985 125.486 141.045C125.426 141.105 125.351 141.135 125.261 141.135H124.631C124.511 141.135 124.411 141.085 124.331 140.985C124.171 140.795 124.031 140.65 123.911 140.55C123.801 140.44 123.636 140.345 123.416 140.265C123.206 140.185 122.936 140.145 122.606 140.145C122.126 140.145 121.756 140.25 121.496 140.46C121.236 140.66 121.106 140.925 121.106 141.255C121.106 141.465 121.161 141.645 121.271 141.795C121.381 141.935 121.591 142.065 121.901 142.185C122.221 142.305 122.681 142.43 123.281 142.56C124.231 142.76 124.901 143.05 125.291 143.43C125.691 143.8 125.891 144.275 125.891 144.855C125.891 145.285 125.766 145.675 125.516 146.025C125.266 146.375 124.896 146.65 124.406 146.85C123.926 147.05 123.351 147.15 122.681 147.15ZM130.328 147.15C129.628 147.15 129.038 147.04 128.558 146.82C128.088 146.59 127.733 146.33 127.493 146.04C127.263 145.75 127.148 145.51 127.148 145.32C127.148 145.22 127.183 145.145 127.253 145.095C127.333 145.035 127.413 145.005 127.493 145.005H128.168C128.268 145.005 128.358 145.055 128.438 145.155C128.678 145.435 128.938 145.655 129.218 145.815C129.498 145.975 129.873 146.055 130.343 146.055C130.863 146.055 131.283 145.955 131.603 145.755C131.933 145.545 132.098 145.26 132.098 144.9C132.098 144.66 132.028 144.465 131.888 144.315C131.758 144.155 131.528 144.02 131.198 143.91C130.878 143.79 130.398 143.66 129.758 143.52C128.888 143.33 128.268 143.055 127.898 142.695C127.538 142.335 127.358 141.87 127.358 141.3C127.358 140.92 127.468 140.56 127.688 140.22C127.918 139.87 128.248 139.59 128.678 139.38C129.118 139.16 129.643 139.05 130.253 139.05C130.893 139.05 131.438 139.155 131.888 139.365C132.338 139.575 132.673 139.825 132.893 140.115C133.123 140.395 133.238 140.63 133.238 140.82C133.238 140.91 133.203 140.985 133.133 141.045C133.073 141.105 132.998 141.135 132.908 141.135H132.278C132.158 141.135 132.058 141.085 131.978 140.985C131.818 140.795 131.678 140.65 131.558 140.55C131.448 140.44 131.283 140.345 131.063 140.265C130.853 140.185 130.583 140.145 130.253 140.145C129.773 140.145 129.403 140.25 129.143 140.46C128.883 140.66 128.753 140.925 128.753 141.255C128.753 141.465 128.808 141.645 128.918 141.795C129.028 141.935 129.238 142.065 129.548 142.185C129.868 142.305 130.328 142.43 130.928 142.56C131.878 142.76 132.548 143.05 132.938 143.43C133.338 143.8 133.538 144.275 133.538 144.855C133.538 145.285 133.413 145.675 133.163 146.025C132.913 146.375 132.543 146.65 132.053 146.85C131.573 147.05 130.998 147.15 130.328 147.15Z" fill="#303032"/>
<path d="M328 140L334 146L340 140" stroke="black" stroke-width="2" stroke-linecap="round" stroke-linejoin="round"/>
<rect x="41.5" y="120.5" width="319" height="45" rx="2.5" stroke="#DDDDE2"/>
<path d="M0.5 0.5H52.5V17C52.5 18.933 50.933 20.5 49 20.5H0.5V0.5Z" fill="#F5F7F9"/>
<path d="M13.122 14C13.0487 14 12.9863 13.9743 12.935 13.923C12.8837 13.8717 12.858 13.8093 12.858 13.736V6.564C12.858 6.48333 12.8837 6.421 12.935 6.377C12.9863 6.32567 13.0487 6.3 13.122 6.3H14.156C14.2367 6.3 14.299 6.32567 14.343 6.377C14.3943 6.421 14.42 6.48333 14.42 6.564V13.736C14.42 13.8093 14.3943 13.8717 14.343 13.923C14.299 13.9743 14.2367 14 14.156 14H13.122ZM16.2771 14C16.2038 14 16.1414 13.9743 16.0901 13.923C16.0388 13.8717 16.0131 13.8093 16.0131 13.736V8.544C16.0131 8.47067 16.0388 8.40833 16.0901 8.357C16.1414 8.30567 16.2038 8.28 16.2771 8.28H17.1791C17.2524 8.28 17.3148 8.30567 17.3661 8.357C17.4174 8.40833 17.4431 8.47067 17.4431 8.544V8.995C17.8758 8.445 18.4881 8.17 19.2801 8.17C19.9548 8.17 20.4901 8.39367 20.8861 8.841C21.2821 9.281 21.4801 9.88233 21.4801 10.645V13.736C21.4801 13.8093 21.4544 13.8717 21.4031 13.923C21.3591 13.9743 21.2968 14 21.2161 14H20.2481C20.1748 14 20.1124 13.9743 20.0611 13.923C20.0098 13.8717 19.9841 13.8093 19.9841 13.736V10.711C19.9841 10.2783 19.8778 9.94467 19.6651 9.71C19.4598 9.468 19.1591 9.347 18.7631 9.347C18.3744 9.347 18.0664 9.468 17.8391 9.71C17.6191 9.952 17.5091 10.2857 17.5091 10.711V13.736C17.5091 13.8093 17.4834 13.8717 17.4321 13.923C17.3881 13.9743 17.3258 14 17.2451 14H16.2771ZM23.1524 16.09C23.079 16.09 23.0167 16.0643 22.9654 16.013C22.914 15.969 22.8884 15.9067 22.8884 15.826V8.544C22.8884 8.46333 22.914 8.401 22.9654 8.357C23.0167 8.30567 23.079 8.28 23.1524 8.28H24.0214C24.102 8.28 24.1644 8.30567 24.2084 8.357C24.2597 8.401 24.2854 8.46333 24.2854 8.544V8.984C24.696 8.44133 25.2827 8.17 26.0454 8.17C26.786 8.17 27.3544 8.40467 27.7504 8.874C28.1464 9.336 28.359 9.963 28.3884 10.755C28.3957 10.843 28.3994 10.9713 28.3994 11.14C28.3994 11.316 28.3957 11.448 28.3884 11.536C28.359 12.306 28.1464 12.9293 27.7504 13.406C27.3544 13.8753 26.786 14.11 26.0454 14.11C25.3047 14.11 24.74 13.8497 24.3514 13.329V15.826C24.3514 15.9067 24.3257 15.969 24.2744 16.013C24.2304 16.0643 24.168 16.09 24.0874 16.09H23.1524ZM25.6384 12.933C26.4304 12.933 26.852 12.4453 26.9034 11.47C26.9107 11.3967 26.9144 11.2867 26.9144 11.14C26.9144 10.9933 26.9107 10.8833 26.9034 10.81C26.852 9.83467 26.4304 9.347 25.6384 9.347C25.213 9.347 24.8977 9.48267 24.6924 9.754C24.487 10.0253 24.3734 10.359 24.3514 10.755L24.3404 11.173L24.3514 11.602C24.366 11.9687 24.4797 12.284 24.6924 12.548C24.9124 12.8047 25.2277 12.933 25.6384 12.933ZM31.7572 14.11C31.0825 14.11 30.5509 13.89 30.1622 13.45C29.7735 13.0027 29.5792 12.3977 29.5792 11.635V8.544C29.5792 8.47067 29.6049 8.40833 29.6562 8.357C29.7075 8.30567 29.7699 8.28 29.8432 8.28H30.8112C30.8919 8.28 30.9542 8.30567 30.9982 8.357C31.0495 8.401 31.0752 8.46333 31.0752 8.544V11.569C31.0752 12.4783 31.4749 12.933 32.2742 12.933C32.6555 12.933 32.9562 12.812 33.1762 12.57C33.4035 12.328 33.5172 11.9943 33.5172 11.569V8.544C33.5172 8.47067 33.5429 8.40833 33.5942 8.357C33.6455 8.30567 33.7079 8.28 33.7812 8.28H34.7492C34.8299 8.28 34.8922 8.30567 34.9362 8.357C34.9875 8.401 35.0132 8.46333 35.0132 8.544V13.736C35.0132 13.8093 34.9875 13.8717 34.9362 13.923C34.8922 13.9743 34.8299 14 34.7492 14H33.8582C33.7849 14 33.7225 13.9743 33.6712 13.923C33.6199 13.8717 33.5942 13.8093 33.5942 13.736V13.285C33.1835 13.835 32.5712 14.11 31.7572 14.11ZM39.0512 14C38.3839 14 37.8816 13.8277 37.5442 13.483C37.2142 13.131 37.0492 12.6177 37.0492 11.943V9.446H36.1802C36.1069 9.446 36.0446 9.42033 35.9932 9.369C35.9419 9.31033 35.9162 9.24433 35.9162 9.171V8.544C35.9162 8.47067 35.9419 8.40833 35.9932 8.357C36.0446 8.30567 36.1069 8.28 36.1802 8.28H37.0492V6.454C37.0492 6.37333 37.0749 6.311 37.1262 6.267C37.1776 6.21567 37.2399 6.19 37.3132 6.19H38.2042C38.2849 6.19 38.3472 6.21567 38.3912 6.267C38.4426 6.311 38.4682 6.37333 38.4682 6.454V8.28H39.8432C39.9239 8.28 39.9862 8.30567 40.0302 8.357C40.0816 8.401 40.1072 8.46333 40.1072 8.544V9.171C40.1072 9.25167 40.0816 9.31767 40.0302 9.369C39.9789 9.42033 39.9166 9.446 39.8432 9.446H38.4682V11.833C38.4682 12.1483 38.5232 12.3867 38.6332 12.548C38.7432 12.7093 38.9266 12.79 39.1832 12.79H39.9422C40.0156 12.79 40.0779 12.8157 40.1292 12.867C40.1806 12.9183 40.2062 12.9807 40.2062 13.054V13.736C40.2062 13.8093 40.1806 13.8717 40.1292 13.923C40.0852 13.9743 40.0229 14 39.9422 14H39.0512Z" fill="#535356"/>
<path d="M0.5 0.5H52.5V17C52.5 18.933 50.933 20.5 49 20.5H0.5V0.5Z" stroke="#EAEAEF"/>
<mask id="path-8-inside-1_905_3398" fill="white">
<path d="M401 1H801V257H401V1Z"/>
</mask>
<path d="M401 1H801V257H401V1Z" fill="#F5F7F9"/>
<g filter="url(#filter0_d_905_3398)">
<mask id="path-11-inside-2_905_3398" fill="white">
<path d="M452.5 31H573.5V80H452.5V31Z"/>
</mask>
<path d="M452.5 31H573.5V80H452.5V31Z" fill="white"/>
<path d="M476.673 60.13C475.902 60.13 475.239 60.013 474.684 59.779C474.129 59.545 473.709 59.2373 473.423 58.856C473.137 58.4747 472.985 58.063 472.968 57.621C472.968 57.543 472.994 57.478 473.046 57.426C473.098 57.374 473.163 57.348 473.241 57.348H474.398C474.502 57.348 474.58 57.3697 474.632 57.413C474.693 57.4477 474.749 57.5083 474.801 57.595C474.888 57.8897 475.087 58.1367 475.399 58.336C475.711 58.5353 476.136 58.635 476.673 58.635C477.288 58.635 477.752 58.5353 478.064 58.336C478.376 58.128 478.532 57.842 478.532 57.478C478.532 57.2353 478.45 57.036 478.285 56.88C478.129 56.724 477.891 56.5897 477.57 56.477C477.258 56.3643 476.79 56.2257 476.166 56.061C475.143 55.8183 474.394 55.4977 473.917 55.099C473.449 54.6917 473.215 54.1153 473.215 53.37C473.215 52.8673 473.349 52.421 473.618 52.031C473.895 51.641 474.29 51.3333 474.801 51.108C475.321 50.8827 475.923 50.77 476.608 50.77C477.319 50.77 477.934 50.8957 478.454 51.147C478.974 51.3983 479.368 51.7147 479.637 52.096C479.914 52.4687 480.062 52.8413 480.079 53.214C480.079 53.292 480.053 53.357 480.001 53.409C479.949 53.461 479.884 53.487 479.806 53.487H478.597C478.415 53.487 478.289 53.4047 478.22 53.24C478.168 52.9627 477.995 52.733 477.7 52.551C477.405 52.3603 477.041 52.265 476.608 52.265C476.123 52.265 475.741 52.356 475.464 52.538C475.187 52.72 475.048 52.9843 475.048 53.331C475.048 53.5737 475.117 53.773 475.256 53.929C475.395 54.085 475.611 54.2237 475.906 54.345C476.209 54.4663 476.643 54.6007 477.206 54.748C477.969 54.9213 478.575 55.1163 479.026 55.333C479.485 55.5497 479.823 55.8227 480.04 56.152C480.257 56.4813 480.365 56.9017 480.365 57.413C480.365 57.9677 480.209 58.453 479.897 58.869C479.594 59.2763 479.16 59.5883 478.597 59.805C478.042 60.0217 477.401 60.13 476.673 60.13ZM484.067 60C483.981 60 483.907 59.9697 483.846 59.909C483.786 59.8483 483.755 59.7747 483.755 59.688V52.499H481.35C481.264 52.499 481.19 52.4687 481.129 52.408C481.069 52.3473 481.038 52.2737 481.038 52.187V51.225C481.038 51.1297 481.064 51.0517 481.116 50.991C481.177 50.9303 481.255 50.9 481.35 50.9H487.98C488.076 50.9 488.154 50.9303 488.214 50.991C488.275 51.0517 488.305 51.1297 488.305 51.225V52.187C488.305 52.2737 488.275 52.3473 488.214 52.408C488.154 52.4687 488.076 52.499 487.98 52.499H485.588V59.688C485.588 59.7747 485.558 59.8483 485.497 59.909C485.437 59.9697 485.359 60 485.263 60H484.067ZM488.113 60C488.044 60 487.979 59.974 487.918 59.922C487.866 59.87 487.84 59.805 487.84 59.727L487.866 59.61L490.999 51.225C491.06 51.0083 491.212 50.9 491.454 50.9H492.871C493.097 50.9 493.248 51.0083 493.326 51.225L496.459 59.61C496.468 59.636 496.472 59.675 496.472 59.727C496.472 59.805 496.446 59.87 496.394 59.922C496.342 59.974 496.282 60 496.212 60H495.081C494.969 60 494.882 59.974 494.821 59.922C494.761 59.87 494.722 59.8137 494.704 59.753L494.093 58.167H490.232L489.621 59.753C489.552 59.9177 489.426 60 489.244 60H488.113ZM493.638 56.672L492.156 52.655L490.687 56.672H493.638ZM499.048 60C498.961 60 498.887 59.9697 498.827 59.909C498.766 59.8483 498.736 59.7747 498.736 59.688V52.499H496.331C496.244 52.499 496.17 52.4687 496.11 52.408C496.049 52.3473 496.019 52.2737 496.019 52.187V51.225C496.019 51.1297 496.045 51.0517 496.097 50.991C496.157 50.9303 496.235 50.9 496.331 50.9H502.961C503.056 50.9 503.134 50.9303 503.195 50.991C503.255 51.0517 503.286 51.1297 503.286 51.225V52.187C503.286 52.2737 503.255 52.3473 503.195 52.408C503.134 52.4687 503.056 52.499 502.961 52.499H500.569V59.688C500.569 59.7747 500.538 59.8483 500.478 59.909C500.417 59.9697 500.339 60 500.244 60H499.048ZM508.232 60.13C507.062 60.13 506.152 59.831 505.502 59.233C504.852 58.635 504.527 57.7293 504.527 56.516V51.225C504.527 51.1297 504.553 51.0517 504.605 50.991C504.665 50.9303 504.743 50.9 504.839 50.9H506.022C506.117 50.9 506.191 50.9303 506.243 50.991C506.303 51.0517 506.334 51.1297 506.334 51.225V56.516C506.334 57.2093 506.498 57.7337 506.828 58.089C507.157 58.4357 507.625 58.609 508.232 58.609C508.838 58.609 509.302 58.4357 509.623 58.089C509.952 57.7337 510.117 57.2093 510.117 56.516V51.225C510.117 51.1297 510.147 51.0517 510.208 50.991C510.268 50.9303 510.346 50.9 510.442 50.9H511.612C511.707 50.9 511.781 50.9303 511.833 50.991C511.893 51.0517 511.924 51.1297 511.924 51.225V56.516C511.924 57.7293 511.599 58.635 510.949 59.233C510.307 59.831 509.402 60.13 508.232 60.13ZM517.031 60.13C516.26 60.13 515.597 60.013 515.042 59.779C514.488 59.545 514.067 59.2373 513.781 58.856C513.495 58.4747 513.344 58.063 513.326 57.621C513.326 57.543 513.352 57.478 513.404 57.426C513.456 57.374 513.521 57.348 513.599 57.348H514.756C514.86 57.348 514.938 57.3697 514.99 57.413C515.051 57.4477 515.107 57.5083 515.159 57.595C515.246 57.8897 515.445 58.1367 515.757 58.336C516.069 58.5353 516.494 58.635 517.031 58.635C517.647 58.635 518.11 58.5353 518.422 58.336C518.734 58.128 518.89 57.842 518.89 57.478C518.89 57.2353 518.808 57.036 518.643 56.88C518.487 56.724 518.249 56.5897 517.928 56.477C517.616 56.3643 517.148 56.2257 516.524 56.061C515.502 55.8183 514.752 55.4977 514.275 55.099C513.807 54.6917 513.573 54.1153 513.573 53.37C513.573 52.8673 513.708 52.421 513.976 52.031C514.254 51.641 514.648 51.3333 515.159 51.108C515.679 50.8827 516.282 50.77 516.966 50.77C517.677 50.77 518.292 50.8957 518.812 51.147C519.332 51.3983 519.727 51.7147 519.995 52.096C520.273 52.4687 520.42 52.8413 520.437 53.214C520.437 53.292 520.411 53.357 520.359 53.409C520.307 53.461 520.242 53.487 520.164 53.487H518.955C518.773 53.487 518.648 53.4047 518.578 53.24C518.526 52.9627 518.353 52.733 518.058 52.551C517.764 52.3603 517.4 52.265 516.966 52.265C516.481 52.265 516.1 52.356 515.822 52.538C515.545 52.72 515.406 52.9843 515.406 53.331C515.406 53.5737 515.476 53.773 515.614 53.929C515.753 54.085 515.97 54.2237 516.264 54.345C516.568 54.4663 517.001 54.6007 517.564 54.748C518.327 54.9213 518.934 55.1163 519.384 55.333C519.844 55.5497 520.182 55.8227 520.398 56.152C520.615 56.4813 520.723 56.9017 520.723 57.413C520.723 57.9677 520.567 58.453 520.255 58.869C519.952 59.2763 519.519 59.5883 518.955 59.805C518.401 60.0217 517.759 60.13 517.031 60.13Z" fill="#A0A0A5"/>
<path d="M573.5 79H452.5V81H573.5V79Z" fill="#CBC9CD" mask="url(#path-11-inside-2_905_3398)"/>
<mask id="path-14-inside-3_905_3398" fill="white">
<path d="M452.5 80H573.5V129H452.5V80Z"/>
</mask>
<path d="M452.5 80H573.5V129H452.5V80Z" fill="white"/>
<rect x="472.5" y="92.5" width="81" height="24" rx="12" fill="#F9F54B"/>
<path d="M483.054 108.5C482.974 108.5 482.906 108.476 482.85 108.428C482.802 108.372 482.778 108.304 482.778 108.224V100.376C482.778 100.296 482.802 100.232 482.85 100.184C482.906 100.128 482.974 100.1 483.054 100.1H483.69C483.77 100.1 483.834 100.128 483.882 100.184C483.938 100.232 483.966 100.296 483.966 100.376V108.224C483.966 108.304 483.938 108.372 483.882 108.428C483.834 108.476 483.77 108.5 483.69 108.5H483.054ZM486.18 108.5C486.1 108.5 486.032 108.476 485.976 108.428C485.928 108.372 485.904 108.304 485.904 108.224V102.536C485.904 102.456 485.928 102.392 485.976 102.344C486.032 102.288 486.1 102.26 486.18 102.26H486.744C486.824 102.26 486.888 102.288 486.936 102.344C486.992 102.392 487.02 102.456 487.02 102.536V103.064C487.252 102.768 487.524 102.54 487.836 102.38C488.156 102.22 488.552 102.14 489.024 102.14C489.792 102.14 490.388 102.388 490.812 102.884C491.244 103.372 491.46 104.024 491.46 104.84V108.224C491.46 108.304 491.432 108.372 491.376 108.428C491.328 108.476 491.264 108.5 491.184 108.5H490.584C490.504 108.5 490.436 108.476 490.38 108.428C490.332 108.372 490.308 108.304 490.308 108.224V104.9C490.308 104.332 490.168 103.892 489.888 103.58C489.616 103.268 489.22 103.112 488.7 103.112C488.196 103.112 487.796 103.272 487.5 103.592C487.204 103.904 487.056 104.34 487.056 104.9V108.224C487.056 108.304 487.028 108.372 486.972 108.428C486.924 108.476 486.86 108.5 486.78 108.5H486.18ZM496.41 110.78C496.33 110.78 496.262 110.752 496.206 110.696C496.158 110.648 496.134 110.584 496.134 110.504V102.536C496.134 102.456 496.158 102.392 496.206 102.344C496.262 102.288 496.33 102.26 496.41 102.26H496.962C497.042 102.26 497.106 102.288 497.154 102.344C497.21 102.392 497.238 102.456 497.238 102.536V103.064C497.686 102.448 498.342 102.14 499.206 102.14C500.046 102.14 500.674 102.404 501.09 102.932C501.514 103.46 501.742 104.14 501.774 104.972C501.782 105.06 501.786 105.196 501.786 105.38C501.786 105.564 501.782 105.7 501.774 105.788C501.742 106.612 501.514 107.292 501.09 107.828C500.666 108.356 500.038 108.62 499.206 108.62C498.374 108.62 497.726 108.32 497.262 107.72V110.504C497.262 110.584 497.238 110.648 497.19 110.696C497.142 110.752 497.078 110.78 496.998 110.78H496.41ZM498.954 107.648C499.522 107.648 499.934 107.472 500.19 107.12C500.454 106.768 500.598 106.304 500.622 105.728C500.63 105.648 500.634 105.532 500.634 105.38C500.634 103.868 500.074 103.112 498.954 103.112C498.402 103.112 497.986 103.296 497.706 103.664C497.434 104.024 497.286 104.456 497.262 104.96L497.25 105.416L497.262 105.884C497.278 106.356 497.43 106.768 497.718 107.12C498.006 107.472 498.418 107.648 498.954 107.648ZM503.547 108.5C503.467 108.5 503.399 108.476 503.343 108.428C503.295 108.372 503.271 108.304 503.271 108.224V102.548C503.271 102.468 503.295 102.4 503.343 102.344C503.399 102.288 503.467 102.26 503.547 102.26H504.099C504.179 102.26 504.247 102.288 504.303 102.344C504.359 102.4 504.387 102.468 504.387 102.548V103.076C504.715 102.532 505.275 102.26 506.067 102.26H506.535C506.615 102.26 506.679 102.288 506.727 102.344C506.783 102.392 506.811 102.456 506.811 102.536V103.028C506.811 103.108 506.783 103.172 506.727 103.22C506.679 103.268 506.615 103.292 506.535 103.292H505.815C505.383 103.292 505.043 103.42 504.795 103.676C504.547 103.924 504.423 104.264 504.423 104.696V108.224C504.423 108.304 504.395 108.372 504.339 108.428C504.283 108.476 504.215 108.5 504.135 108.5H503.547ZM510.268 108.62C509.388 108.62 508.704 108.372 508.216 107.876C507.736 107.38 507.48 106.72 507.448 105.896L507.436 105.38L507.448 104.864C507.48 104.048 507.74 103.392 508.228 102.896C508.716 102.392 509.396 102.14 510.268 102.14C511.14 102.14 511.82 102.392 512.308 102.896C512.796 103.392 513.056 104.048 513.088 104.864C513.096 104.952 513.1 105.124 513.1 105.38C513.1 105.636 513.096 105.808 513.088 105.896C513.056 106.72 512.796 107.38 512.308 107.876C511.828 108.372 511.148 108.62 510.268 108.62ZM510.268 107.696C510.772 107.696 511.168 107.536 511.456 107.216C511.752 106.896 511.912 106.436 511.936 105.836C511.944 105.756 511.948 105.604 511.948 105.38C511.948 105.156 511.944 105.004 511.936 104.924C511.912 104.324 511.752 103.864 511.456 103.544C511.168 103.224 510.772 103.064 510.268 103.064C509.764 103.064 509.364 103.224 509.068 103.544C508.772 103.864 508.616 104.324 508.6 104.924L508.588 105.38L508.6 105.836C508.616 106.436 508.772 106.896 509.068 107.216C509.364 107.536 509.764 107.696 510.268 107.696ZM517.159 111.14C516.503 111.14 515.975 111.028 515.575 110.804C515.175 110.588 514.891 110.34 514.723 110.06C514.555 109.78 514.463 109.528 514.447 109.304C514.439 109.224 514.463 109.156 514.519 109.1C514.583 109.044 514.651 109.016 514.723 109.016H515.299C515.371 109.016 515.431 109.032 515.479 109.064C515.527 109.104 515.567 109.172 515.599 109.268C515.695 109.524 515.851 109.744 516.067 109.928C516.291 110.12 516.635 110.216 517.099 110.216C517.691 110.216 518.127 110.088 518.407 109.832C518.687 109.584 518.827 109.14 518.827 108.5V107.684C518.619 107.948 518.355 108.16 518.035 108.32C517.715 108.472 517.335 108.548 516.895 108.548C516.047 108.548 515.411 108.28 514.987 107.744C514.571 107.2 514.351 106.512 514.327 105.68L514.315 105.344L514.327 105.02C514.351 104.196 514.575 103.512 514.999 102.968C515.423 102.416 516.055 102.14 516.895 102.14C517.735 102.14 518.391 102.448 518.863 103.064V102.548C518.863 102.468 518.887 102.4 518.935 102.344C518.991 102.288 519.059 102.26 519.139 102.26H519.691C519.771 102.26 519.839 102.288 519.895 102.344C519.951 102.4 519.979 102.468 519.979 102.548V108.368C519.979 110.216 519.039 111.14 517.159 111.14ZM517.135 107.588C517.679 107.588 518.091 107.408 518.371 107.048C518.651 106.688 518.803 106.26 518.827 105.764C518.835 105.692 518.839 105.552 518.839 105.344C518.839 105.144 518.835 105.008 518.827 104.936C518.803 104.44 518.651 104.012 518.371 103.652C518.099 103.292 517.687 103.112 517.135 103.112C516.567 103.112 516.155 103.288 515.899 103.64C515.643 103.992 515.503 104.456 515.479 105.032L515.467 105.344L515.479 105.668C515.503 106.236 515.643 106.7 515.899 107.06C516.155 107.412 516.567 107.588 517.135 107.588ZM522.039 108.5C521.959 108.5 521.891 108.476 521.835 108.428C521.787 108.372 521.763 108.304 521.763 108.224V102.548C521.763 102.468 521.787 102.4 521.835 102.344C521.891 102.288 521.959 102.26 522.039 102.26H522.591C522.671 102.26 522.739 102.288 522.795 102.344C522.851 102.4 522.879 102.468 522.879 102.548V103.076C523.207 102.532 523.767 102.26 524.559 102.26H525.027C525.107 102.26 525.171 102.288 525.219 102.344C525.275 102.392 525.303 102.456 525.303 102.536V103.028C525.303 103.108 525.275 103.172 525.219 103.22C525.171 103.268 525.107 103.292 525.027 103.292H524.307C523.875 103.292 523.535 103.42 523.287 103.676C523.039 103.924 522.915 104.264 522.915 104.696V108.224C522.915 108.304 522.887 108.372 522.831 108.428C522.775 108.476 522.707 108.5 522.627 108.5H522.039ZM528.7 108.62C527.876 108.62 527.216 108.368 526.72 107.864C526.232 107.352 525.964 106.656 525.916 105.776L525.904 105.368L525.916 104.972C525.972 104.108 526.244 103.42 526.732 102.908C527.228 102.396 527.88 102.14 528.688 102.14C529.576 102.14 530.264 102.424 530.752 102.992C531.24 103.552 531.484 104.312 531.484 105.272V105.476C531.484 105.556 531.456 105.624 531.4 105.68C531.352 105.728 531.288 105.752 531.208 105.752H527.056V105.86C527.08 106.38 527.236 106.824 527.524 107.192C527.82 107.552 528.208 107.732 528.688 107.732C529.056 107.732 529.356 107.66 529.588 107.516C529.828 107.364 530.004 107.208 530.116 107.048C530.188 106.952 530.24 106.896 530.272 106.88C530.312 106.856 530.38 106.844 530.476 106.844H531.064C531.136 106.844 531.196 106.864 531.244 106.904C531.292 106.944 531.316 107 531.316 107.072C531.316 107.248 531.204 107.46 530.98 107.708C530.764 107.956 530.456 108.172 530.056 108.356C529.664 108.532 529.212 108.62 528.7 108.62ZM530.344 104.924V104.888C530.344 104.336 530.192 103.888 529.888 103.544C529.592 103.192 529.192 103.016 528.688 103.016C528.184 103.016 527.784 103.192 527.488 103.544C527.2 103.888 527.056 104.336 527.056 104.888V104.924H530.344ZM535.079 108.62C534.519 108.62 534.047 108.532 533.663 108.356C533.287 108.172 533.003 107.964 532.811 107.732C532.627 107.5 532.535 107.308 532.535 107.156C532.535 107.076 532.563 107.016 532.619 106.976C532.683 106.928 532.747 106.904 532.811 106.904H533.351C533.431 106.904 533.503 106.944 533.567 107.024C533.759 107.248 533.967 107.424 534.191 107.552C534.415 107.68 534.715 107.744 535.091 107.744C535.507 107.744 535.843 107.664 536.099 107.504C536.363 107.336 536.495 107.108 536.495 106.82C536.495 106.628 536.439 106.472 536.327 106.352C536.223 106.224 536.039 106.116 535.775 106.028C535.519 105.932 535.135 105.828 534.623 105.716C533.927 105.564 533.431 105.344 533.135 105.056C532.847 104.768 532.703 104.396 532.703 103.94C532.703 103.636 532.791 103.348 532.967 103.076C533.151 102.796 533.415 102.572 533.759 102.404C534.111 102.228 534.531 102.14 535.019 102.14C535.531 102.14 535.967 102.224 536.327 102.392C536.687 102.56 536.955 102.76 537.131 102.992C537.315 103.216 537.407 103.404 537.407 103.556C537.407 103.628 537.379 103.688 537.323 103.736C537.275 103.784 537.215 103.808 537.143 103.808H536.639C536.543 103.808 536.463 103.768 536.399 103.688C536.271 103.536 536.159 103.42 536.063 103.34C535.975 103.252 535.843 103.176 535.667 103.112C535.499 103.048 535.283 103.016 535.019 103.016C534.635 103.016 534.339 103.1 534.131 103.268C533.923 103.428 533.819 103.64 533.819 103.904C533.819 104.072 533.863 104.216 533.951 104.336C534.039 104.448 534.207 104.552 534.455 104.648C534.711 104.744 535.079 104.844 535.559 104.948C536.319 105.108 536.855 105.34 537.167 105.644C537.487 105.94 537.647 106.32 537.647 106.784C537.647 107.128 537.547 107.44 537.347 107.72C537.147 108 536.851 108.22 536.459 108.38C536.075 108.54 535.615 108.62 535.079 108.62ZM541.196 108.62C540.636 108.62 540.164 108.532 539.78 108.356C539.404 108.172 539.12 107.964 538.928 107.732C538.744 107.5 538.652 107.308 538.652 107.156C538.652 107.076 538.68 107.016 538.736 106.976C538.8 106.928 538.864 106.904 538.928 106.904H539.468C539.548 106.904 539.62 106.944 539.684 107.024C539.876 107.248 540.084 107.424 540.308 107.552C540.532 107.68 540.832 107.744 541.208 107.744C541.624 107.744 541.96 107.664 542.216 107.504C542.48 107.336 542.612 107.108 542.612 106.82C542.612 106.628 542.556 106.472 542.444 106.352C542.34 106.224 542.156 106.116 541.892 106.028C541.636 105.932 541.252 105.828 540.74 105.716C540.044 105.564 539.548 105.344 539.252 105.056C538.964 104.768 538.82 104.396 538.82 103.94C538.82 103.636 538.908 103.348 539.084 103.076C539.268 102.796 539.532 102.572 539.876 102.404C540.228 102.228 540.648 102.14 541.136 102.14C541.648 102.14 542.084 102.224 542.444 102.392C542.804 102.56 543.072 102.76 543.248 102.992C543.432 103.216 543.524 103.404 543.524 103.556C543.524 103.628 543.496 103.688 543.44 103.736C543.392 103.784 543.332 103.808 543.26 103.808H542.756C542.66 103.808 542.58 103.768 542.516 103.688C542.388 103.536 542.276 103.42 542.18 103.34C542.092 103.252 541.96 103.176 541.784 103.112C541.616 103.048 541.4 103.016 541.136 103.016C540.752 103.016 540.456 103.1 540.248 103.268C540.04 103.428 539.936 103.64 539.936 103.904C539.936 104.072 539.98 104.216 540.068 104.336C540.156 104.448 540.324 104.552 540.572 104.648C540.828 104.744 541.196 104.844 541.676 104.948C542.436 105.108 542.972 105.34 543.284 105.644C543.604 105.94 543.764 106.32 543.764 106.784C543.764 107.128 543.664 107.44 543.464 107.72C543.264 108 542.968 108.22 542.576 108.38C542.192 108.54 541.732 108.62 541.196 108.62Z" fill="black"/>
<path d="M573.5 128H452.5V130H573.5V128Z" fill="#CBC9CD" mask="url(#path-14-inside-3_905_3398)"/>
<mask id="path-18-inside-4_905_3398" fill="white">
<path d="M452.5 129H573.5V178H452.5V129Z"/>
</mask>
<path d="M452.5 129H573.5V178H452.5V129Z" fill="white"/>
<rect x="472.5" y="141.5" width="48" height="24" rx="12" fill="#8BE8E5"/>
<path d="M484.826 157.5C484.746 157.5 484.678 157.476 484.622 157.428C484.574 157.372 484.55 157.304 484.55 157.224V150.168H482.246C482.166 150.168 482.098 150.144 482.042 150.096C481.994 150.04 481.97 149.972 481.97 149.892V149.388C481.97 149.308 481.994 149.24 482.042 149.184C482.098 149.128 482.166 149.1 482.246 149.1H488.03C488.118 149.1 488.186 149.128 488.234 149.184C488.29 149.232 488.318 149.3 488.318 149.388V149.892C488.318 149.972 488.29 150.04 488.234 150.096C488.178 150.144 488.11 150.168 488.03 150.168H485.738V157.224C485.738 157.304 485.71 157.372 485.654 157.428C485.598 157.476 485.53 157.5 485.45 157.5H484.826ZM490.915 157.62C490.035 157.62 489.351 157.372 488.863 156.876C488.383 156.38 488.127 155.72 488.095 154.896L488.083 154.38L488.095 153.864C488.127 153.048 488.387 152.392 488.875 151.896C489.363 151.392 490.043 151.14 490.915 151.14C491.787 151.14 492.467 151.392 492.955 151.896C493.443 152.392 493.703 153.048 493.735 153.864C493.743 153.952 493.747 154.124 493.747 154.38C493.747 154.636 493.743 154.808 493.735 154.896C493.703 155.72 493.443 156.38 492.955 156.876C492.475 157.372 491.795 157.62 490.915 157.62ZM490.915 156.696C491.419 156.696 491.815 156.536 492.103 156.216C492.399 155.896 492.559 155.436 492.583 154.836C492.591 154.756 492.595 154.604 492.595 154.38C492.595 154.156 492.591 154.004 492.583 153.924C492.559 153.324 492.399 152.864 492.103 152.544C491.815 152.224 491.419 152.064 490.915 152.064C490.411 152.064 490.011 152.224 489.715 152.544C489.419 152.864 489.263 153.324 489.247 153.924L489.235 154.38L489.247 154.836C489.263 155.436 489.419 155.896 489.715 156.216C490.011 156.536 490.411 156.696 490.915 156.696ZM500.471 157.62C499.639 157.62 499.011 157.348 498.587 156.804C498.163 156.26 497.939 155.572 497.915 154.74L497.903 154.38L497.915 154.02C497.939 153.196 498.163 152.512 498.587 151.968C499.011 151.416 499.639 151.14 500.471 151.14C501.295 151.14 501.943 151.432 502.415 152.016V149.256C502.415 149.176 502.439 149.112 502.487 149.064C502.543 149.008 502.611 148.98 502.691 148.98H503.267C503.347 148.98 503.411 149.008 503.459 149.064C503.515 149.112 503.543 149.176 503.543 149.256V157.224C503.543 157.304 503.515 157.372 503.459 157.428C503.411 157.476 503.347 157.5 503.267 157.5H502.727C502.647 157.5 502.579 157.476 502.523 157.428C502.475 157.372 502.451 157.304 502.451 157.224V156.72C501.987 157.32 501.327 157.62 500.471 157.62ZM500.723 156.648C501.275 156.648 501.687 156.468 501.959 156.108C502.239 155.74 502.391 155.304 502.415 154.8C502.423 154.712 502.427 154.56 502.427 154.344C502.427 154.12 502.423 153.964 502.415 153.876C502.399 153.404 502.247 152.992 501.959 152.64C501.671 152.288 501.259 152.112 500.723 152.112C500.155 152.112 499.739 152.288 499.475 152.64C499.219 152.992 499.079 153.456 499.055 154.032L499.043 154.38C499.043 155.892 499.603 156.648 500.723 156.648ZM507.883 157.62C507.003 157.62 506.319 157.372 505.831 156.876C505.351 156.38 505.095 155.72 505.063 154.896L505.051 154.38L505.063 153.864C505.095 153.048 505.355 152.392 505.843 151.896C506.331 151.392 507.011 151.14 507.883 151.14C508.755 151.14 509.435 151.392 509.923 151.896C510.411 152.392 510.671 153.048 510.703 153.864C510.711 153.952 510.715 154.124 510.715 154.38C510.715 154.636 510.711 154.808 510.703 154.896C510.671 155.72 510.411 156.38 509.923 156.876C509.443 157.372 508.763 157.62 507.883 157.62ZM507.883 156.696C508.387 156.696 508.783 156.536 509.071 156.216C509.367 155.896 509.527 155.436 509.551 154.836C509.559 154.756 509.563 154.604 509.563 154.38C509.563 154.156 509.559 154.004 509.551 153.924C509.527 153.324 509.367 152.864 509.071 152.544C508.783 152.224 508.387 152.064 507.883 152.064C507.379 152.064 506.979 152.224 506.683 152.544C506.387 152.864 506.231 153.324 506.215 153.924L506.203 154.38L506.215 154.836C506.231 155.436 506.387 155.896 506.683 156.216C506.979 156.536 507.379 156.696 507.883 156.696Z" fill="black"/>
<path d="M573.5 177H452.5V179H573.5V177Z" fill="#CBC9CD" mask="url(#path-18-inside-4_905_3398)"/>
<mask id="path-22-inside-5_905_3398" fill="white">
<path d="M452.5 178H573.5V227H452.5V178Z"/>
</mask>
<path d="M452.5 178H573.5V227H452.5V178Z" fill="white"/>
<rect x="472.5" y="190.5" width="48" height="24" rx="12" fill="#A084E8"/>
<path d="M483.242 206.5C483.162 206.5 483.094 206.476 483.038 206.428C482.99 206.372 482.966 206.304 482.966 206.224V198.388C482.966 198.3 482.99 198.232 483.038 198.184C483.094 198.128 483.162 198.1 483.242 198.1H485.966C487.174 198.1 488.046 198.372 488.582 198.916C489.118 199.452 489.398 200.264 489.422 201.352C489.43 201.584 489.434 201.896 489.434 202.288C489.434 202.68 489.43 202.996 489.422 203.236C489.398 203.996 489.27 204.616 489.038 205.096C488.814 205.568 488.458 205.92 487.97 206.152C487.482 206.384 486.834 206.5 486.026 206.5H483.242ZM485.966 205.48C486.518 205.48 486.954 205.404 487.274 205.252C487.602 205.1 487.838 204.86 487.982 204.532C488.134 204.196 488.218 203.748 488.234 203.188C488.25 202.708 488.258 202.408 488.258 202.288C488.258 202.16 488.25 201.864 488.234 201.4C488.218 200.608 488.03 200.032 487.67 199.672C487.31 199.304 486.722 199.12 485.906 199.12H484.142V205.48H485.966ZM493.639 206.62C492.759 206.62 492.075 206.372 491.587 205.876C491.107 205.38 490.851 204.72 490.819 203.896L490.807 203.38L490.819 202.864C490.851 202.048 491.111 201.392 491.599 200.896C492.087 200.392 492.767 200.14 493.639 200.14C494.511 200.14 495.191 200.392 495.679 200.896C496.167 201.392 496.427 202.048 496.459 202.864C496.467 202.952 496.471 203.124 496.471 203.38C496.471 203.636 496.467 203.808 496.459 203.896C496.427 204.72 496.167 205.38 495.679 205.876C495.199 206.372 494.519 206.62 493.639 206.62ZM493.639 205.696C494.143 205.696 494.539 205.536 494.827 205.216C495.123 204.896 495.283 204.436 495.307 203.836C495.315 203.756 495.319 203.604 495.319 203.38C495.319 203.156 495.315 203.004 495.307 202.924C495.283 202.324 495.123 201.864 494.827 201.544C494.539 201.224 494.143 201.064 493.639 201.064C493.135 201.064 492.735 201.224 492.439 201.544C492.143 201.864 491.987 202.324 491.971 202.924L491.959 203.38L491.971 203.836C491.987 204.436 492.143 204.896 492.439 205.216C492.735 205.536 493.135 205.696 493.639 205.696ZM498.25 206.5C498.17 206.5 498.102 206.476 498.046 206.428C497.998 206.372 497.974 206.304 497.974 206.224V200.536C497.974 200.456 497.998 200.392 498.046 200.344C498.102 200.288 498.17 200.26 498.25 200.26H498.814C498.894 200.26 498.958 200.288 499.006 200.344C499.062 200.392 499.09 200.456 499.09 200.536V201.064C499.322 200.768 499.594 200.54 499.906 200.38C500.226 200.22 500.622 200.14 501.094 200.14C501.862 200.14 502.458 200.388 502.882 200.884C503.314 201.372 503.53 202.024 503.53 202.84V206.224C503.53 206.304 503.502 206.372 503.446 206.428C503.398 206.476 503.334 206.5 503.254 206.5H502.654C502.574 206.5 502.506 206.476 502.45 206.428C502.402 206.372 502.378 206.304 502.378 206.224V202.9C502.378 202.332 502.238 201.892 501.958 201.58C501.686 201.268 501.29 201.112 500.77 201.112C500.266 201.112 499.866 201.272 499.57 201.592C499.274 201.904 499.126 202.34 499.126 202.9V206.224C499.126 206.304 499.098 206.372 499.042 206.428C498.994 206.476 498.93 206.5 498.85 206.5H498.25ZM507.747 206.62C506.923 206.62 506.263 206.368 505.767 205.864C505.279 205.352 505.011 204.656 504.963 203.776L504.951 203.368L504.963 202.972C505.019 202.108 505.291 201.42 505.779 200.908C506.275 200.396 506.927 200.14 507.735 200.14C508.623 200.14 509.311 200.424 509.799 200.992C510.287 201.552 510.531 202.312 510.531 203.272V203.476C510.531 203.556 510.503 203.624 510.447 203.68C510.399 203.728 510.335 203.752 510.255 203.752H506.103V203.86C506.127 204.38 506.283 204.824 506.571 205.192C506.867 205.552 507.255 205.732 507.735 205.732C508.103 205.732 508.403 205.66 508.635 205.516C508.875 205.364 509.051 205.208 509.163 205.048C509.235 204.952 509.287 204.896 509.319 204.88C509.359 204.856 509.427 204.844 509.523 204.844H510.111C510.183 204.844 510.243 204.864 510.291 204.904C510.339 204.944 510.363 205 510.363 205.072C510.363 205.248 510.251 205.46 510.027 205.708C509.811 205.956 509.503 206.172 509.103 206.356C508.711 206.532 508.259 206.62 507.747 206.62ZM509.391 202.924V202.888C509.391 202.336 509.239 201.888 508.935 201.544C508.639 201.192 508.239 201.016 507.735 201.016C507.231 201.016 506.831 201.192 506.535 201.544C506.247 201.888 506.103 202.336 506.103 202.888V202.924H509.391Z" fill="white"/>
<path d="M573.5 226H452.5V228H573.5V226Z" fill="#CBC9CD" mask="url(#path-22-inside-5_905_3398)"/>
<mask id="path-26-inside-6_905_3398" fill="white">
<path d="M573.5 31H661.5V80H573.5V31Z"/>
</mask>
<path d="M573.5 31H661.5V80H573.5V31Z" fill="white"/>
<rect x="593.5" y="47" width="48" height="17" rx="5" fill="#F2F2F6"/>
<path d="M661.5 79H573.5V81H661.5V79Z" fill="#CBC9CD" mask="url(#path-26-inside-6_905_3398)"/>
<mask id="path-29-inside-7_905_3398" fill="white">
<path d="M573.5 80H661.5V129H573.5V80Z"/>
</mask>
<path d="M573.5 80H661.5V129H573.5V80Z" fill="white"/>
<rect x="593.5" y="96" width="48" height="17" rx="5" fill="#F2F2F6"/>
<path d="M661.5 128H573.5V130H661.5V128Z" fill="#CBC9CD" mask="url(#path-29-inside-7_905_3398)"/>
<mask id="path-32-inside-8_905_3398" fill="white">
<path d="M573.5 129H661.5V178H573.5V129Z"/>
</mask>
<path d="M573.5 129H661.5V178H573.5V129Z" fill="white"/>
<rect x="593.5" y="145" width="48" height="17" rx="5" fill="#F2F2F6"/>
<path d="M661.5 177H573.5V179H661.5V177Z" fill="#CBC9CD" mask="url(#path-32-inside-8_905_3398)"/>
<mask id="path-35-inside-9_905_3398" fill="white">
<path d="M573.5 178H661.5V227H573.5V178Z"/>
</mask>
<path d="M573.5 178H661.5V227H573.5V178Z" fill="white"/>
<rect x="593.5" y="194" width="48" height="17" rx="5" fill="#F2F2F6"/>
<path d="M661.5 226H573.5V228H661.5V226Z" fill="#CBC9CD" mask="url(#path-35-inside-9_905_3398)"/>
<mask id="path-38-inside-10_905_3398" fill="white">
<path d="M661.5 31H749.5V80H661.5V31Z"/>
</mask>
<path d="M661.5 31H749.5V80H661.5V31Z" fill="white"/>
<rect x="681.5" y="47" width="48" height="17" rx="5" fill="#F2F2F6"/>
<path d="M749.5 79H661.5V81H749.5V79Z" fill="#CBC9CD" mask="url(#path-38-inside-10_905_3398)"/>
<mask id="path-41-inside-11_905_3398" fill="white">
<path d="M661.5 80H749.5V129H661.5V80Z"/>
</mask>
<path d="M661.5 80H749.5V129H661.5V80Z" fill="white"/>
<rect x="681.5" y="96" width="48" height="17" rx="5" fill="#F2F2F6"/>
<path d="M749.5 128H661.5V130H749.5V128Z" fill="#CBC9CD" mask="url(#path-41-inside-11_905_3398)"/>
<mask id="path-44-inside-12_905_3398" fill="white">
<path d="M661.5 129H749.5V178H661.5V129Z"/>
</mask>
<path d="M661.5 129H749.5V178H661.5V129Z" fill="white"/>
<rect x="681.5" y="145" width="48" height="17" rx="5" fill="#F2F2F6"/>
<path d="M749.5 177H661.5V179H749.5V177Z" fill="#CBC9CD" mask="url(#path-44-inside-12_905_3398)"/>
<mask id="path-47-inside-13_905_3398" fill="white">
<path d="M661.5 178H749.5V227H661.5V178Z"/>
</mask>
<path d="M661.5 178H749.5V227H661.5V178Z" fill="white"/>
<rect x="681.5" y="194" width="48" height="17" rx="5" fill="#F2F2F6"/>
<path d="M749.5 226H661.5V228H749.5V226Z" fill="#CBC9CD" mask="url(#path-47-inside-13_905_3398)"/>
</g>
<path d="M401.5 0.5H463.5V17C463.5 18.933 461.933 20.5 460 20.5H401.5V0.5Z" fill="#F5F7F9"/>
<path d="M414.122 14C414.049 14 413.986 13.9743 413.935 13.923C413.884 13.8717 413.858 13.8093 413.858 13.736V6.575C413.858 6.49433 413.88 6.42833 413.924 6.377C413.975 6.32567 414.041 6.3 414.122 6.3H416.806C418.962 6.3 420.062 7.29733 420.106 9.292C420.121 9.71733 420.128 10.0033 420.128 10.15C420.128 10.2893 420.121 10.5717 420.106 10.997C420.077 12.0237 419.802 12.7827 419.281 13.274C418.76 13.758 417.954 14 416.861 14H414.122ZM416.806 12.735C417.422 12.735 417.866 12.5993 418.137 12.328C418.408 12.0493 418.551 11.5947 418.566 10.964C418.581 10.524 418.588 10.249 418.588 10.139C418.588 10.0217 418.581 9.75033 418.566 9.325C418.551 8.72367 418.397 8.28 418.104 7.994C417.818 7.708 417.367 7.565 416.751 7.565H415.387V12.735H416.806ZM421.68 7.334C421.607 7.334 421.545 7.30833 421.493 7.257C421.442 7.20567 421.416 7.14333 421.416 7.07V6.278C421.416 6.20467 421.442 6.14233 421.493 6.091C421.545 6.03967 421.607 6.014 421.68 6.014H422.681C422.755 6.014 422.817 6.03967 422.868 6.091C422.927 6.14233 422.956 6.20467 422.956 6.278V7.07C422.956 7.14333 422.931 7.20567 422.879 7.257C422.828 7.30833 422.762 7.334 422.681 7.334H421.68ZM421.724 14C421.651 14 421.589 13.9743 421.537 13.923C421.486 13.8717 421.46 13.8093 421.46 13.736V8.544C421.46 8.47067 421.486 8.40833 421.537 8.357C421.589 8.30567 421.651 8.28 421.724 8.28H422.637C422.718 8.28 422.78 8.30567 422.824 8.357C422.876 8.401 422.901 8.46333 422.901 8.544V13.736C422.901 13.8093 422.876 13.8717 422.824 13.923C422.78 13.9743 422.718 14 422.637 14H421.724ZM426.528 14.11C425.978 14.11 425.516 14.0293 425.142 13.868C424.768 13.6993 424.489 13.505 424.306 13.285C424.13 13.0577 424.042 12.8633 424.042 12.702C424.042 12.6287 424.067 12.57 424.119 12.526C424.17 12.482 424.229 12.46 424.295 12.46H425.164C425.23 12.46 425.285 12.4857 425.329 12.537C425.358 12.559 425.435 12.625 425.56 12.735C425.684 12.8523 425.831 12.944 426 13.01C426.168 13.076 426.355 13.109 426.561 13.109C426.854 13.109 427.096 13.0503 427.287 12.933C427.477 12.8157 427.573 12.6543 427.573 12.449C427.573 12.295 427.529 12.1703 427.441 12.075C427.36 11.9797 427.21 11.8953 426.99 11.822C426.77 11.7413 426.443 11.657 426.011 11.569C425.387 11.437 424.925 11.2353 424.625 10.964C424.331 10.6927 424.185 10.3333 424.185 9.886C424.185 9.59267 424.273 9.31767 424.449 9.061C424.625 8.797 424.885 8.58433 425.23 8.423C425.582 8.25433 426 8.17 426.484 8.17C426.975 8.17 427.4 8.25067 427.76 8.412C428.119 8.566 428.39 8.753 428.574 8.973C428.764 9.18567 428.86 9.37633 428.86 9.545C428.86 9.611 428.834 9.66967 428.783 9.721C428.739 9.765 428.684 9.787 428.618 9.787H427.804C427.745 9.787 427.683 9.76133 427.617 9.71C427.565 9.67333 427.485 9.60367 427.375 9.501C427.265 9.39833 427.136 9.31767 426.99 9.259C426.843 9.20033 426.671 9.171 426.473 9.171C426.201 9.171 425.989 9.22967 425.835 9.347C425.688 9.46433 425.615 9.61833 425.615 9.809C425.615 9.94833 425.651 10.062 425.725 10.15C425.798 10.238 425.941 10.3223 426.154 10.403C426.366 10.4837 426.685 10.5643 427.111 10.645C427.815 10.7843 428.317 11.0007 428.618 11.294C428.926 11.5873 429.08 11.9467 429.08 12.372C429.08 12.8853 428.856 13.3033 428.409 13.626C427.961 13.9487 427.334 14.11 426.528 14.11ZM430.49 16.09C430.417 16.09 430.355 16.0643 430.303 16.013C430.252 15.969 430.226 15.9067 430.226 15.826V8.544C430.226 8.46333 430.252 8.401 430.303 8.357C430.355 8.30567 430.417 8.28 430.49 8.28H431.359C431.44 8.28 431.502 8.30567 431.546 8.357C431.598 8.401 431.623 8.46333 431.623 8.544V8.984C432.034 8.44133 432.621 8.17 433.383 8.17C434.124 8.17 434.692 8.40467 435.088 8.874C435.484 9.336 435.697 9.963 435.726 10.755C435.734 10.843 435.737 10.9713 435.737 11.14C435.737 11.316 435.734 11.448 435.726 11.536C435.697 12.306 435.484 12.9293 435.088 13.406C434.692 13.8753 434.124 14.11 433.383 14.11C432.643 14.11 432.078 13.8497 431.689 13.329V15.826C431.689 15.9067 431.664 15.969 431.612 16.013C431.568 16.0643 431.506 16.09 431.425 16.09H430.49ZM432.976 12.933C433.768 12.933 434.19 12.4453 434.241 11.47C434.249 11.3967 434.252 11.2867 434.252 11.14C434.252 10.9933 434.249 10.8833 434.241 10.81C434.19 9.83467 433.768 9.347 432.976 9.347C432.551 9.347 432.236 9.48267 432.03 9.754C431.825 10.0253 431.711 10.359 431.689 10.755L431.678 11.173L431.689 11.602C431.704 11.9687 431.818 12.284 432.03 12.548C432.25 12.8047 432.566 12.933 432.976 12.933ZM437.247 14C437.174 14 437.111 13.9743 437.06 13.923C437.009 13.8717 436.983 13.8093 436.983 13.736V6.454C436.983 6.37333 437.009 6.311 437.06 6.267C437.111 6.21567 437.174 6.19 437.247 6.19H438.16C438.241 6.19 438.303 6.21567 438.347 6.267C438.398 6.311 438.424 6.37333 438.424 6.454V13.736C438.424 13.8093 438.398 13.8717 438.347 13.923C438.303 13.9743 438.241 14 438.16 14H437.247ZM441.544 14.11C441.17 14.11 440.826 14.0367 440.51 13.89C440.202 13.736 439.957 13.5307 439.773 13.274C439.597 13.0173 439.509 12.735 439.509 12.427C439.509 11.9283 439.711 11.525 440.114 11.217C440.518 10.909 441.071 10.7 441.775 10.59L443.282 10.37V10.139C443.282 9.81633 443.202 9.57433 443.04 9.413C442.879 9.25167 442.619 9.171 442.259 9.171C442.017 9.171 441.819 9.21867 441.665 9.314C441.519 9.402 441.401 9.49 441.313 9.578C441.225 9.67333 441.167 9.73567 441.137 9.765C441.108 9.853 441.053 9.897 440.972 9.897H440.125C440.059 9.897 440.001 9.875 439.949 9.831C439.905 9.787 439.883 9.72833 439.883 9.655C439.891 9.47167 439.979 9.26267 440.147 9.028C440.323 8.79333 440.591 8.59167 440.95 8.423C441.31 8.25433 441.75 8.17 442.27 8.17C443.136 8.17 443.766 8.36433 444.162 8.753C444.558 9.14167 444.756 9.65133 444.756 10.282V13.736C444.756 13.8093 444.731 13.8717 444.679 13.923C444.635 13.9743 444.573 14 444.492 14H443.601C443.528 14 443.466 13.9743 443.414 13.923C443.363 13.8717 443.337 13.8093 443.337 13.736V13.307C443.176 13.5417 442.945 13.736 442.644 13.89C442.351 14.0367 441.984 14.11 441.544 14.11ZM441.918 13.065C442.322 13.065 442.652 12.933 442.908 12.669C443.165 12.405 443.293 12.02 443.293 11.514V11.283L442.193 11.459C441.768 11.525 441.445 11.6313 441.225 11.778C441.013 11.9247 440.906 12.1043 440.906 12.317C440.906 12.5517 441.005 12.735 441.203 12.867C441.401 12.999 441.64 13.065 441.918 13.065ZM447.051 16.09C446.992 16.09 446.941 16.068 446.897 16.024C446.853 15.98 446.831 15.9287 446.831 15.87C446.831 15.804 446.846 15.7453 446.875 15.694L447.733 13.659L445.621 8.676C445.592 8.61 445.577 8.55867 445.577 8.522C445.584 8.456 445.61 8.401 445.654 8.357C445.698 8.30567 445.753 8.28 445.819 8.28H446.71C446.849 8.28 446.948 8.34967 447.007 8.489L448.47 12.086L449.977 8.489C450.036 8.34967 450.135 8.28 450.274 8.28H451.154C451.213 8.28 451.264 8.302 451.308 8.346C451.359 8.39 451.385 8.44133 451.385 8.5C451.385 8.55133 451.37 8.61 451.341 8.676L448.228 15.881C448.162 16.0203 448.059 16.09 447.92 16.09H447.051Z" fill="#535356"/>
<path d="M401.5 0.5H463.5V17C463.5 18.933 461.933 20.5 460 20.5H401.5V0.5Z" stroke="#EAEAEF"/>
<path d="M402 257V1H400V257H402Z" fill="#EAEAEF" mask="url(#path-8-inside-1_905_3398)"/>
<rect x="0.5" y="0.5" width="801" height="257" stroke="#EAEAEF"/>
<defs>
<filter id="filter0_d_905_3398" x="432.5" y="21" width="337" height="236" filterUnits="userSpaceOnUse" color-interpolation-filters="sRGB">
<feFlood flood-opacity="0" result="BackgroundImageFix"/>
<feColorMatrix in="SourceAlpha" type="matrix" values="0 0 0 0 0 0 0 0 0 0 0 0 0 0 0 0 0 0 127 0" result="hardAlpha"/>
<feOffset dy="10"/>
<feGaussianBlur stdDeviation="10"/>
<feComposite in2="hardAlpha" operator="out"/>
<feColorMatrix type="matrix" values="0 0 0 0 0.117647 0 0 0 0 0.117647 0 0 0 0 0.117647 0 0 0 0.12 0"/>
<feBlend mode="normal" in2="BackgroundImageFix" result="effect1_dropShadow_905_3398"/>
<feBlend mode="normal" in="SourceGraphic" in2="effect1_dropShadow_905_3398" result="shape"/>
</filter>
</defs>
</svg>
