<svg width="802" height="258" viewBox="0 0 802 258" fill="none" xmlns="http://www.w3.org/2000/svg">
<rect width="400" height="256" transform="translate(1 1)" fill="white"/>
<rect width="400" height="47" transform="translate(1 105.5)" fill="white"/>
<circle cx="129" cy="129" r="7.5" fill="white" stroke="#DDDDE2"/>
<path d="M152.65 134.5C152.55 134.5 152.465 134.47 152.395 134.41C152.335 134.34 152.305 134.255 152.305 134.155V124.345C152.305 124.245 152.335 124.165 152.395 124.105C152.465 124.035 152.55 124 152.65 124H153.445C153.545 124 153.625 124.035 153.685 124.105C153.755 124.165 153.79 124.245 153.79 124.345V134.155C153.79 134.255 153.755 134.34 153.685 134.41C153.625 134.47 153.545 134.5 153.445 134.5H152.65ZM158.912 134.65C158.212 134.65 157.622 134.54 157.142 134.32C156.672 134.09 156.317 133.83 156.077 133.54C155.847 133.25 155.732 133.01 155.732 132.82C155.732 132.72 155.767 132.645 155.837 132.595C155.917 132.535 155.997 132.505 156.077 132.505H156.752C156.852 132.505 156.942 132.555 157.022 132.655C157.262 132.935 157.522 133.155 157.802 133.315C158.082 133.475 158.457 133.555 158.927 133.555C159.447 133.555 159.867 133.455 160.187 133.255C160.517 133.045 160.682 132.76 160.682 132.4C160.682 132.16 160.612 131.965 160.472 131.815C160.342 131.655 160.112 131.52 159.782 131.41C159.462 131.29 158.982 131.16 158.342 131.02C157.472 130.83 156.852 130.555 156.482 130.195C156.122 129.835 155.942 129.37 155.942 128.8C155.942 128.42 156.052 128.06 156.272 127.72C156.502 127.37 156.832 127.09 157.262 126.88C157.702 126.66 158.227 126.55 158.837 126.55C159.477 126.55 160.022 126.655 160.472 126.865C160.922 127.075 161.257 127.325 161.477 127.615C161.707 127.895 161.822 128.13 161.822 128.32C161.822 128.41 161.787 128.485 161.717 128.545C161.657 128.605 161.582 128.635 161.492 128.635H160.862C160.742 128.635 160.642 128.585 160.562 128.485C160.402 128.295 160.262 128.15 160.142 128.05C160.032 127.94 159.867 127.845 159.647 127.765C159.437 127.685 159.167 127.645 158.837 127.645C158.357 127.645 157.987 127.75 157.727 127.96C157.467 128.16 157.337 128.425 157.337 128.755C157.337 128.965 157.392 129.145 157.502 129.295C157.612 129.435 157.822 129.565 158.132 129.685C158.452 129.805 158.912 129.93 159.512 130.06C160.462 130.26 161.132 130.55 161.522 130.93C161.922 131.3 162.122 131.775 162.122 132.355C162.122 132.785 161.997 133.175 161.747 133.525C161.497 133.875 161.127 134.15 160.637 134.35C160.157 134.55 159.582 134.65 158.912 134.65ZM170.258 134.5C168.678 134.5 167.888 133.62 167.888 131.86V127.9H166.718C166.618 127.9 166.533 127.87 166.463 127.81C166.403 127.74 166.373 127.655 166.373 127.555V127.045C166.373 126.945 166.403 126.865 166.463 126.805C166.533 126.735 166.618 126.7 166.718 126.7H167.888V124.195C167.888 124.095 167.918 124.015 167.978 123.955C168.048 123.885 168.133 123.85 168.233 123.85H168.938C169.038 123.85 169.118 123.885 169.178 123.955C169.248 124.015 169.283 124.095 169.283 124.195V126.7H171.143C171.243 126.7 171.323 126.735 171.383 126.805C171.453 126.865 171.488 126.945 171.488 127.045V127.555C171.488 127.655 171.453 127.74 171.383 127.81C171.323 127.87 171.243 127.9 171.143 127.9H169.283V131.755C169.283 132.255 169.368 132.635 169.538 132.895C169.708 133.145 169.988 133.27 170.378 133.27H171.293C171.393 133.27 171.473 133.305 171.533 133.375C171.603 133.435 171.638 133.515 171.638 133.615V134.155C171.638 134.255 171.603 134.34 171.533 134.41C171.473 134.47 171.393 134.5 171.293 134.5H170.258ZM173.432 134.5C173.332 134.5 173.247 134.47 173.177 134.41C173.117 134.34 173.087 134.255 173.087 134.155V124.195C173.087 124.095 173.117 124.015 173.177 123.955C173.247 123.885 173.332 123.85 173.432 123.85H174.182C174.282 123.85 174.362 123.885 174.422 123.955C174.492 124.015 174.527 124.095 174.527 124.195V127.69C174.817 127.32 175.157 127.04 175.547 126.85C175.937 126.65 176.422 126.55 177.002 126.55C177.962 126.55 178.707 126.86 179.237 127.48C179.777 128.09 180.047 128.905 180.047 129.925V134.155C180.047 134.255 180.012 134.34 179.942 134.41C179.882 134.47 179.802 134.5 179.702 134.5H178.952C178.852 134.5 178.767 134.47 178.697 134.41C178.637 134.34 178.607 134.255 178.607 134.155V130C178.607 129.29 178.432 128.74 178.082 128.35C177.742 127.96 177.247 127.765 176.597 127.765C175.967 127.765 175.462 127.965 175.082 128.365C174.712 128.755 174.527 129.3 174.527 130V134.155C174.527 134.255 174.492 134.34 174.422 134.41C174.362 134.47 174.282 134.5 174.182 134.5H173.432ZM185.333 134.65C184.303 134.65 183.478 134.335 182.858 133.705C182.248 133.065 181.913 132.195 181.853 131.095L181.838 130.585L181.853 130.09C181.923 129.01 182.263 128.15 182.873 127.51C183.493 126.87 184.308 126.55 185.318 126.55C186.428 126.55 187.288 126.905 187.898 127.615C188.508 128.315 188.813 129.265 188.813 130.465V130.72C188.813 130.82 188.778 130.905 188.708 130.975C188.648 131.035 188.568 131.065 188.468 131.065H183.278V131.2C183.308 131.85 183.503 132.405 183.863 132.865C184.233 133.315 184.718 133.54 185.318 133.54C185.778 133.54 186.153 133.45 186.443 133.27C186.743 133.08 186.963 132.885 187.103 132.685C187.193 132.565 187.258 132.495 187.298 132.475C187.348 132.445 187.433 132.43 187.553 132.43H188.288C188.378 132.43 188.453 132.455 188.513 132.505C188.573 132.555 188.603 132.625 188.603 132.715C188.603 132.935 188.463 133.2 188.183 133.51C187.913 133.82 187.528 134.09 187.028 134.32C186.538 134.54 185.973 134.65 185.333 134.65ZM187.388 130.03V129.985C187.388 129.295 187.198 128.735 186.818 128.305C186.448 127.865 185.948 127.645 185.318 127.645C184.688 127.645 184.188 127.865 183.818 128.305C183.458 128.735 183.278 129.295 183.278 129.985V130.03H187.388ZM197.193 134.65C196.243 134.65 195.508 134.345 194.988 133.735C194.468 133.115 194.208 132.295 194.208 131.275V127.045C194.208 126.945 194.238 126.865 194.298 126.805C194.368 126.735 194.453 126.7 194.553 126.7H195.303C195.403 126.7 195.483 126.735 195.543 126.805C195.613 126.865 195.648 126.945 195.648 127.045V131.2C195.648 132.69 196.298 133.435 197.598 133.435C198.228 133.435 198.728 133.24 199.098 132.85C199.468 132.45 199.653 131.9 199.653 131.2V127.045C199.653 126.945 199.683 126.865 199.743 126.805C199.813 126.735 199.898 126.7 199.998 126.7H200.748C200.848 126.7 200.928 126.735 200.988 126.805C201.048 126.865 201.078 126.945 201.078 127.045V134.155C201.078 134.255 201.048 134.34 200.988 134.41C200.928 134.47 200.848 134.5 200.748 134.5H200.043C199.943 134.5 199.858 134.47 199.788 134.41C199.728 134.34 199.698 134.255 199.698 134.155V133.495C199.418 133.875 199.078 134.165 198.678 134.365C198.278 134.555 197.783 134.65 197.193 134.65ZM206.006 134.65C205.306 134.65 204.716 134.54 204.236 134.32C203.766 134.09 203.411 133.83 203.171 133.54C202.941 133.25 202.826 133.01 202.826 132.82C202.826 132.72 202.861 132.645 202.931 132.595C203.011 132.535 203.091 132.505 203.171 132.505H203.846C203.946 132.505 204.036 132.555 204.116 132.655C204.356 132.935 204.616 133.155 204.896 133.315C205.176 133.475 205.551 133.555 206.021 133.555C206.541 133.555 206.961 133.455 207.281 133.255C207.611 133.045 207.776 132.76 207.776 132.4C207.776 132.16 207.706 131.965 207.566 131.815C207.436 131.655 207.206 131.52 206.876 131.41C206.556 131.29 206.076 131.16 205.436 131.02C204.566 130.83 203.946 130.555 203.576 130.195C203.216 129.835 203.036 129.37 203.036 128.8C203.036 128.42 203.146 128.06 203.366 127.72C203.596 127.37 203.926 127.09 204.356 126.88C204.796 126.66 205.321 126.55 205.931 126.55C206.571 126.55 207.116 126.655 207.566 126.865C208.016 127.075 208.351 127.325 208.571 127.615C208.801 127.895 208.916 128.13 208.916 128.32C208.916 128.41 208.881 128.485 208.811 128.545C208.751 128.605 208.676 128.635 208.586 128.635H207.956C207.836 128.635 207.736 128.585 207.656 128.485C207.496 128.295 207.356 128.15 207.236 128.05C207.126 127.94 206.961 127.845 206.741 127.765C206.531 127.685 206.261 127.645 205.931 127.645C205.451 127.645 205.081 127.75 204.821 127.96C204.561 128.16 204.431 128.425 204.431 128.755C204.431 128.965 204.486 129.145 204.596 129.295C204.706 129.435 204.916 129.565 205.226 129.685C205.546 129.805 206.006 129.93 206.606 130.06C207.556 130.26 208.226 130.55 208.616 130.93C209.016 131.3 209.216 131.775 209.216 132.355C209.216 132.785 209.091 133.175 208.841 133.525C208.591 133.875 208.221 134.15 207.731 134.35C207.251 134.55 206.676 134.65 206.006 134.65ZM214.073 134.65C213.043 134.65 212.218 134.335 211.598 133.705C210.988 133.065 210.653 132.195 210.593 131.095L210.578 130.585L210.593 130.09C210.663 129.01 211.003 128.15 211.613 127.51C212.233 126.87 213.048 126.55 214.058 126.55C215.168 126.55 216.028 126.905 216.638 127.615C217.248 128.315 217.553 129.265 217.553 130.465V130.72C217.553 130.82 217.518 130.905 217.448 130.975C217.388 131.035 217.308 131.065 217.208 131.065H212.018V131.2C212.048 131.85 212.243 132.405 212.603 132.865C212.973 133.315 213.458 133.54 214.058 133.54C214.518 133.54 214.893 133.45 215.183 133.27C215.483 133.08 215.703 132.885 215.843 132.685C215.933 132.565 215.998 132.495 216.038 132.475C216.088 132.445 216.173 132.43 216.293 132.43H217.028C217.118 132.43 217.193 132.455 217.253 132.505C217.313 132.555 217.343 132.625 217.343 132.715C217.343 132.935 217.203 133.2 216.923 133.51C216.653 133.82 216.268 134.09 215.768 134.32C215.278 134.54 214.713 134.65 214.073 134.65ZM216.128 130.03V129.985C216.128 129.295 215.938 128.735 215.558 128.305C215.188 127.865 214.688 127.645 214.058 127.645C213.428 127.645 212.928 127.865 212.558 128.305C212.198 128.735 212.018 129.295 212.018 129.985V130.03H216.128ZM219.691 134.5C219.591 134.5 219.506 134.47 219.436 134.41C219.376 134.34 219.346 134.255 219.346 134.155V127.06C219.346 126.96 219.376 126.875 219.436 126.805C219.506 126.735 219.591 126.7 219.691 126.7H220.381C220.481 126.7 220.566 126.735 220.636 126.805C220.706 126.875 220.741 126.96 220.741 127.06V127.72C221.151 127.04 221.851 126.7 222.841 126.7H223.426C223.526 126.7 223.606 126.735 223.666 126.805C223.736 126.865 223.771 126.945 223.771 127.045V127.66C223.771 127.76 223.736 127.84 223.666 127.9C223.606 127.96 223.526 127.99 223.426 127.99H222.526C221.986 127.99 221.561 128.15 221.251 128.47C220.941 128.78 220.786 129.205 220.786 129.745V134.155C220.786 134.255 220.751 134.34 220.681 134.41C220.611 134.47 220.526 134.5 220.426 134.5H219.691ZM230.545 134.65C230.055 134.65 229.6 134.55 229.18 134.35C228.76 134.15 228.425 133.88 228.175 133.54C227.935 133.19 227.815 132.805 227.815 132.385C227.815 131.725 228.085 131.185 228.625 130.765C229.175 130.335 229.915 130.055 230.845 129.925L233.08 129.61V129.175C233.08 128.155 232.495 127.645 231.325 127.645C230.885 127.645 230.525 127.74 230.245 127.93C229.965 128.11 229.755 128.325 229.615 128.575C229.585 128.665 229.545 128.73 229.495 128.77C229.455 128.81 229.395 128.83 229.315 128.83H228.67C228.58 128.83 228.5 128.8 228.43 128.74C228.37 128.67 228.34 128.59 228.34 128.5C228.35 128.26 228.46 127.99 228.67 127.69C228.89 127.38 229.225 127.115 229.675 126.895C230.125 126.665 230.68 126.55 231.34 126.55C232.46 126.55 233.265 126.815 233.755 127.345C234.245 127.865 234.49 128.515 234.49 129.295V134.155C234.49 134.255 234.455 134.34 234.385 134.41C234.325 134.47 234.245 134.5 234.145 134.5H233.455C233.355 134.5 233.27 134.47 233.2 134.41C233.14 134.34 233.11 134.255 233.11 134.155V133.51C232.89 133.83 232.57 134.1 232.15 134.32C231.73 134.54 231.195 134.65 230.545 134.65ZM230.86 133.525C231.51 133.525 232.04 133.315 232.45 132.895C232.87 132.465 233.08 131.85 233.08 131.05V130.63L231.34 130.885C230.63 130.985 230.095 131.155 229.735 131.395C229.375 131.625 229.195 131.92 229.195 132.28C229.195 132.68 229.36 132.99 229.69 133.21C230.02 133.42 230.41 133.525 230.86 133.525ZM239.796 134.65C238.726 134.65 237.886 134.35 237.276 133.75C236.676 133.14 236.356 132.29 236.316 131.2L236.301 130.6L236.316 130C236.356 128.91 236.676 128.065 237.276 127.465C237.886 126.855 238.726 126.55 239.796 126.55C240.516 126.55 241.126 126.68 241.626 126.94C242.126 127.2 242.496 127.52 242.736 127.9C242.986 128.28 243.121 128.66 243.141 129.04C243.151 129.14 243.121 129.22 243.051 129.28C242.981 129.34 242.896 129.37 242.796 129.37H242.076C241.976 129.37 241.901 129.35 241.851 129.31C241.801 129.27 241.751 129.19 241.701 129.07C241.531 128.59 241.291 128.25 240.981 128.05C240.671 127.84 240.281 127.735 239.811 127.735C239.191 127.735 238.696 127.93 238.326 128.32C237.966 128.7 237.771 129.285 237.741 130.075L237.726 130.615L237.741 131.125C237.771 131.925 237.966 132.515 238.326 132.895C238.686 133.275 239.181 133.465 239.811 133.465C240.281 133.465 240.671 133.365 240.981 133.165C241.291 132.955 241.531 132.61 241.701 132.13C241.751 132.01 241.801 131.93 241.851 131.89C241.901 131.84 241.976 131.815 242.076 131.815H242.796C242.896 131.815 242.981 131.85 243.051 131.92C243.121 131.98 243.151 132.06 243.141 132.16C243.121 132.53 242.986 132.91 242.736 133.3C242.496 133.68 242.126 134 241.626 134.26C241.136 134.52 240.526 134.65 239.796 134.65ZM247.968 134.5C246.388 134.5 245.598 133.62 245.598 131.86V127.9H244.428C244.328 127.9 244.243 127.87 244.173 127.81C244.113 127.74 244.083 127.655 244.083 127.555V127.045C244.083 126.945 244.113 126.865 244.173 126.805C244.243 126.735 244.328 126.7 244.428 126.7H245.598V124.195C245.598 124.095 245.628 124.015 245.688 123.955C245.757 123.885 245.843 123.85 245.943 123.85H246.648C246.748 123.85 246.828 123.885 246.888 123.955C246.958 124.015 246.993 124.095 246.993 124.195V126.7H248.853C248.953 126.7 249.033 126.735 249.093 126.805C249.163 126.865 249.198 126.945 249.198 127.045V127.555C249.198 127.655 249.163 127.74 249.093 127.81C249.033 127.87 248.953 127.9 248.853 127.9H246.993V131.755C246.993 132.255 247.078 132.635 247.248 132.895C247.418 133.145 247.698 133.27 248.088 133.27H249.003C249.103 133.27 249.183 133.305 249.243 133.375C249.313 133.435 249.348 133.515 249.348 133.615V134.155C249.348 134.255 249.313 134.34 249.243 134.41C249.183 134.47 249.103 134.5 249.003 134.5H247.968ZM251.007 125.245C250.907 125.245 250.822 125.215 250.752 125.155C250.692 125.085 250.662 125 250.662 124.9V124.09C250.662 123.99 250.692 123.905 250.752 123.835C250.822 123.765 250.907 123.73 251.007 123.73H251.952C252.052 123.73 252.137 123.765 252.207 123.835C252.277 123.905 252.312 123.99 252.312 124.09V124.9C252.312 125 252.277 125.085 252.207 125.155C252.137 125.215 252.052 125.245 251.952 125.245H251.007ZM251.127 134.5C251.027 134.5 250.942 134.47 250.872 134.41C250.812 134.34 250.782 134.255 250.782 134.155V127.045C250.782 126.945 250.812 126.865 250.872 126.805C250.942 126.735 251.027 126.7 251.127 126.7H251.847C251.947 126.7 252.027 126.735 252.087 126.805C252.157 126.865 252.192 126.945 252.192 127.045V134.155C252.192 134.255 252.157 134.34 252.087 134.41C252.027 134.47 251.947 134.5 251.847 134.5H251.127ZM257.13 134.5C256.87 134.5 256.685 134.375 256.575 134.125L253.8 127.165L253.77 127.015C253.77 126.925 253.8 126.85 253.86 126.79C253.92 126.73 253.995 126.7 254.085 126.7H254.805C254.975 126.7 255.1 126.785 255.18 126.955L257.46 132.865L259.74 126.955C259.83 126.785 259.95 126.7 260.1 126.7H260.835C260.915 126.7 260.985 126.73 261.045 126.79C261.115 126.85 261.15 126.925 261.15 127.015L261.12 127.165L258.33 134.125C258.22 134.375 258.035 134.5 257.775 134.5H257.13ZM265.562 134.65C264.532 134.65 263.707 134.335 263.087 133.705C262.477 133.065 262.142 132.195 262.082 131.095L262.067 130.585L262.082 130.09C262.152 129.01 262.492 128.15 263.102 127.51C263.722 126.87 264.537 126.55 265.547 126.55C266.657 126.55 267.517 126.905 268.127 127.615C268.737 128.315 269.042 129.265 269.042 130.465V130.72C269.042 130.82 269.007 130.905 268.937 130.975C268.877 131.035 268.797 131.065 268.697 131.065H263.507V131.2C263.537 131.85 263.732 132.405 264.092 132.865C264.462 133.315 264.947 133.54 265.547 133.54C266.007 133.54 266.382 133.45 266.672 133.27C266.972 133.08 267.192 132.885 267.332 132.685C267.422 132.565 267.487 132.495 267.527 132.475C267.577 132.445 267.662 132.43 267.782 132.43H268.517C268.607 132.43 268.682 132.455 268.742 132.505C268.802 132.555 268.832 132.625 268.832 132.715C268.832 132.935 268.692 133.2 268.412 133.51C268.142 133.82 267.757 134.09 267.257 134.32C266.767 134.54 266.202 134.65 265.562 134.65ZM267.617 130.03V129.985C267.617 129.295 267.427 128.735 267.047 128.305C266.677 127.865 266.177 127.645 265.547 127.645C264.917 127.645 264.417 127.865 264.047 128.305C263.687 128.735 263.507 129.295 263.507 129.985V130.03H267.617ZM277.047 132.04C276.957 132.04 276.882 132.01 276.822 131.95C276.762 131.89 276.732 131.815 276.732 131.725V131.125C276.752 130.595 276.887 130.14 277.137 129.76C277.387 129.38 277.752 128.945 278.232 128.455C278.622 128.055 278.907 127.725 279.087 127.465C279.267 127.205 279.357 126.92 279.357 126.61C279.357 126.15 279.162 125.785 278.772 125.515C278.392 125.245 277.947 125.11 277.437 125.11C276.247 125.11 275.547 125.71 275.337 126.91C275.287 127.13 275.157 127.24 274.947 127.24H274.227C274.127 127.24 274.047 127.21 273.987 127.15C273.927 127.09 273.897 127.01 273.897 126.91C273.917 126.36 274.072 125.855 274.362 125.395C274.662 124.925 275.082 124.55 275.622 124.27C276.162 123.99 276.782 123.85 277.482 123.85C278.222 123.85 278.842 123.98 279.342 124.24C279.852 124.49 280.227 124.82 280.467 125.23C280.707 125.63 280.827 126.06 280.827 126.52C280.827 127.03 280.712 127.47 280.482 127.84C280.252 128.21 279.907 128.64 279.447 129.13C279.067 129.53 278.782 129.87 278.592 130.15C278.402 130.42 278.292 130.725 278.262 131.065C278.242 131.345 278.232 131.555 278.232 131.695C278.182 131.925 278.057 132.04 277.857 132.04H277.047ZM276.927 134.5C276.827 134.5 276.742 134.47 276.672 134.41C276.612 134.34 276.582 134.255 276.582 134.155V133.24C276.582 133.14 276.612 133.06 276.672 133C276.742 132.93 276.827 132.895 276.927 132.895H277.902C278.002 132.895 278.087 132.93 278.157 133C278.227 133.06 278.262 133.14 278.262 133.24V134.155C278.262 134.255 278.227 134.34 278.157 134.41C278.087 134.47 278.002 134.5 277.902 134.5H276.927Z" fill="#303032"/>
<path d="M0.5 0.5H52.5V17C52.5 18.933 50.933 20.5 49 20.5H0.5V0.5Z" fill="#F5F7F9"/>
<path d="M13.122 14C13.0487 14 12.9863 13.9743 12.935 13.923C12.8837 13.8717 12.858 13.8093 12.858 13.736V6.564C12.858 6.48333 12.8837 6.421 12.935 6.377C12.9863 6.32567 13.0487 6.3 13.122 6.3H14.156C14.2367 6.3 14.299 6.32567 14.343 6.377C14.3943 6.421 14.42 6.48333 14.42 6.564V13.736C14.42 13.8093 14.3943 13.8717 14.343 13.923C14.299 13.9743 14.2367 14 14.156 14H13.122ZM16.2771 14C16.2038 14 16.1414 13.9743 16.0901 13.923C16.0388 13.8717 16.0131 13.8093 16.0131 13.736V8.544C16.0131 8.47067 16.0388 8.40833 16.0901 8.357C16.1414 8.30567 16.2038 8.28 16.2771 8.28H17.1791C17.2524 8.28 17.3148 8.30567 17.3661 8.357C17.4174 8.40833 17.4431 8.47067 17.4431 8.544V8.995C17.8758 8.445 18.4881 8.17 19.2801 8.17C19.9548 8.17 20.4901 8.39367 20.8861 8.841C21.2821 9.281 21.4801 9.88233 21.4801 10.645V13.736C21.4801 13.8093 21.4544 13.8717 21.4031 13.923C21.3591 13.9743 21.2968 14 21.2161 14H20.2481C20.1748 14 20.1124 13.9743 20.0611 13.923C20.0098 13.8717 19.9841 13.8093 19.9841 13.736V10.711C19.9841 10.2783 19.8778 9.94467 19.6651 9.71C19.4598 9.468 19.1591 9.347 18.7631 9.347C18.3744 9.347 18.0664 9.468 17.8391 9.71C17.6191 9.952 17.5091 10.2857 17.5091 10.711V13.736C17.5091 13.8093 17.4834 13.8717 17.4321 13.923C17.3881 13.9743 17.3258 14 17.2451 14H16.2771ZM23.1524 16.09C23.079 16.09 23.0167 16.0643 22.9654 16.013C22.914 15.969 22.8884 15.9067 22.8884 15.826V8.544C22.8884 8.46333 22.914 8.401 22.9654 8.357C23.0167 8.30567 23.079 8.28 23.1524 8.28H24.0214C24.102 8.28 24.1644 8.30567 24.2084 8.357C24.2597 8.401 24.2854 8.46333 24.2854 8.544V8.984C24.696 8.44133 25.2827 8.17 26.0454 8.17C26.786 8.17 27.3544 8.40467 27.7504 8.874C28.1464 9.336 28.359 9.963 28.3884 10.755C28.3957 10.843 28.3994 10.9713 28.3994 11.14C28.3994 11.316 28.3957 11.448 28.3884 11.536C28.359 12.306 28.1464 12.9293 27.7504 13.406C27.3544 13.8753 26.786 14.11 26.0454 14.11C25.3047 14.11 24.74 13.8497 24.3514 13.329V15.826C24.3514 15.9067 24.3257 15.969 24.2744 16.013C24.2304 16.0643 24.168 16.09 24.0874 16.09H23.1524ZM25.6384 12.933C26.4304 12.933 26.852 12.4453 26.9034 11.47C26.9107 11.3967 26.9144 11.2867 26.9144 11.14C26.9144 10.9933 26.9107 10.8833 26.9034 10.81C26.852 9.83467 26.4304 9.347 25.6384 9.347C25.213 9.347 24.8977 9.48267 24.6924 9.754C24.487 10.0253 24.3734 10.359 24.3514 10.755L24.3404 11.173L24.3514 11.602C24.366 11.9687 24.4797 12.284 24.6924 12.548C24.9124 12.8047 25.2277 12.933 25.6384 12.933ZM31.7572 14.11C31.0825 14.11 30.5509 13.89 30.1622 13.45C29.7735 13.0027 29.5792 12.3977 29.5792 11.635V8.544C29.5792 8.47067 29.6049 8.40833 29.6562 8.357C29.7075 8.30567 29.7699 8.28 29.8432 8.28H30.8112C30.8919 8.28 30.9542 8.30567 30.9982 8.357C31.0495 8.401 31.0752 8.46333 31.0752 8.544V11.569C31.0752 12.4783 31.4749 12.933 32.2742 12.933C32.6555 12.933 32.9562 12.812 33.1762 12.57C33.4035 12.328 33.5172 11.9943 33.5172 11.569V8.544C33.5172 8.47067 33.5429 8.40833 33.5942 8.357C33.6455 8.30567 33.7079 8.28 33.7812 8.28H34.7492C34.8299 8.28 34.8922 8.30567 34.9362 8.357C34.9875 8.401 35.0132 8.46333 35.0132 8.544V13.736C35.0132 13.8093 34.9875 13.8717 34.9362 13.923C34.8922 13.9743 34.8299 14 34.7492 14H33.8582C33.7849 14 33.7225 13.9743 33.6712 13.923C33.6199 13.8717 33.5942 13.8093 33.5942 13.736V13.285C33.1835 13.835 32.5712 14.11 31.7572 14.11ZM39.0512 14C38.3839 14 37.8816 13.8277 37.5442 13.483C37.2142 13.131 37.0492 12.6177 37.0492 11.943V9.446H36.1802C36.1069 9.446 36.0446 9.42033 35.9932 9.369C35.9419 9.31033 35.9162 9.24433 35.9162 9.171V8.544C35.9162 8.47067 35.9419 8.40833 35.9932 8.357C36.0446 8.30567 36.1069 8.28 36.1802 8.28H37.0492V6.454C37.0492 6.37333 37.0749 6.311 37.1262 6.267C37.1776 6.21567 37.2399 6.19 37.3132 6.19H38.2042C38.2849 6.19 38.3472 6.21567 38.3912 6.267C38.4426 6.311 38.4682 6.37333 38.4682 6.454V8.28H39.8432C39.9239 8.28 39.9862 8.30567 40.0302 8.357C40.0816 8.401 40.1072 8.46333 40.1072 8.544V9.171C40.1072 9.25167 40.0816 9.31767 40.0302 9.369C39.9789 9.42033 39.9166 9.446 39.8432 9.446H38.4682V11.833C38.4682 12.1483 38.5232 12.3867 38.6332 12.548C38.7432 12.7093 38.9266 12.79 39.1832 12.79H39.9422C40.0156 12.79 40.0779 12.8157 40.1292 12.867C40.1806 12.9183 40.2062 12.9807 40.2062 13.054V13.736C40.2062 13.8093 40.1806 13.8717 40.1292 13.923C40.0852 13.9743 40.0229 14 39.9422 14H39.0512Z" fill="#535356"/>
<path d="M0.5 0.5H52.5V17C52.5 18.933 50.933 20.5 49 20.5H0.5V0.5Z" stroke="#EAEAEF"/>
<mask id="path-6-inside-1_905_1888" fill="white">
<path d="M401 1H801V257H401V1Z"/>
</mask>
<path d="M401 1H801V257H401V1Z" fill="#F5F7F9"/>
<g filter="url(#filter0_d_905_1888)">
<mask id="path-9-inside-2_905_1888" fill="white">
<path d="M467.5 31H555.5V80H467.5V31Z"/>
</mask>
<path d="M467.5 31H555.5V80H467.5V31Z" fill="white"/>
<rect x="487.5" y="47" width="48" height="17" rx="5" fill="#F2F2F6"/>
<path d="M555.5 79H467.5V81H555.5V79Z" fill="#CBC9CD" mask="url(#path-9-inside-2_905_1888)"/>
<mask id="path-12-inside-3_905_1888" fill="white">
<path d="M467.5 80H555.5V129H467.5V80Z"/>
</mask>
<path d="M467.5 80H555.5V129H467.5V80Z" fill="white"/>
<rect x="487.5" y="96" width="48" height="17" rx="5" fill="#F2F2F6"/>
<path d="M555.5 128H467.5V130H555.5V128Z" fill="#CBC9CD" mask="url(#path-12-inside-3_905_1888)"/>
<mask id="path-15-inside-4_905_1888" fill="white">
<path d="M467.5 129H555.5V178H467.5V129Z"/>
</mask>
<path d="M467.5 129H555.5V178H467.5V129Z" fill="white"/>
<rect x="487.5" y="145" width="48" height="17" rx="5" fill="#F2F2F6"/>
<path d="M555.5 177H467.5V179H555.5V177Z" fill="#CBC9CD" mask="url(#path-15-inside-4_905_1888)"/>
<mask id="path-18-inside-5_905_1888" fill="white">
<path d="M467.5 178H555.5V227H467.5V178Z"/>
</mask>
<path d="M467.5 178H555.5V227H467.5V178Z" fill="white"/>
<rect x="487.5" y="194" width="48" height="17" rx="5" fill="#F2F2F6"/>
<path d="M555.5 226H467.5V228H555.5V226Z" fill="#CBC9CD" mask="url(#path-18-inside-5_905_1888)"/>
<mask id="path-21-inside-6_905_1888" fill="white">
<path d="M555.5 31H734.5V80H555.5V31Z"/>
</mask>
<path d="M555.5 31H734.5V80H555.5V31Z" fill="white"/>
<path d="M576.787 60C576.692 60 576.614 59.9697 576.553 59.909C576.492 59.8483 576.462 59.7703 576.462 59.675V51.225C576.462 51.1297 576.492 51.0517 576.553 50.991C576.614 50.9303 576.692 50.9 576.787 50.9H578.256C578.351 50.9 578.429 50.9303 578.49 50.991C578.551 51.0517 578.581 51.1297 578.581 51.225V59.675C578.581 59.7703 578.551 59.8483 578.49 59.909C578.429 59.9697 578.351 60 578.256 60H576.787ZM583.775 60.13C582.943 60.13 582.245 60.0087 581.682 59.766C581.127 59.5233 580.707 59.207 580.421 58.817C580.135 58.427 579.983 58.011 579.966 57.569C579.966 57.4997 579.992 57.439 580.044 57.387C580.096 57.3263 580.161 57.296 580.239 57.296H581.63C581.743 57.296 581.829 57.322 581.89 57.374C581.951 57.4173 582.007 57.4737 582.059 57.543C582.12 57.6903 582.215 57.8333 582.345 57.972C582.484 58.1107 582.67 58.2277 582.904 58.323C583.138 58.4097 583.428 58.453 583.775 58.453C584.338 58.453 584.759 58.362 585.036 58.18C585.322 57.998 585.465 57.751 585.465 57.439C585.465 57.2137 585.387 57.0317 585.231 56.893C585.084 56.7543 584.845 56.6287 584.516 56.516C584.195 56.4033 583.766 56.282 583.229 56.152C582.579 56.0133 582.024 55.8357 581.565 55.619C581.114 55.3937 580.772 55.1077 580.538 54.761C580.313 54.4057 580.2 53.968 580.2 53.448C580.2 52.928 580.343 52.4687 580.629 52.07C580.915 51.6627 581.318 51.3463 581.838 51.121C582.358 50.887 582.978 50.77 583.697 50.77C584.278 50.77 584.789 50.848 585.231 51.004C585.682 51.16 586.054 51.3637 586.349 51.615C586.652 51.8663 586.882 52.135 587.038 52.421C587.194 52.707 587.276 52.9843 587.285 53.253C587.285 53.3223 587.259 53.3873 587.207 53.448C587.155 53.5 587.09 53.526 587.012 53.526H585.556C585.469 53.526 585.391 53.5087 585.322 53.474C585.253 53.4393 585.196 53.3787 585.153 53.292C585.101 53.0667 584.945 52.8717 584.685 52.707C584.434 52.5337 584.104 52.447 583.697 52.447C583.272 52.447 582.934 52.525 582.683 52.681C582.44 52.837 582.319 53.0753 582.319 53.396C582.319 53.604 582.38 53.7817 582.501 53.929C582.631 54.0677 582.843 54.1933 583.138 54.306C583.441 54.41 583.84 54.527 584.334 54.657C585.097 54.813 585.716 54.9993 586.193 55.216C586.67 55.4327 587.021 55.7143 587.246 56.061C587.471 56.399 587.584 56.828 587.584 57.348C587.584 57.9287 587.419 58.427 587.09 58.843C586.769 59.259 586.323 59.5797 585.751 59.805C585.188 60.0217 584.529 60.13 583.775 60.13ZM593.871 60C593.776 60 593.698 59.9697 593.637 59.909C593.576 59.8483 593.546 59.7703 593.546 59.675V52.707H591.18C591.093 52.707 591.02 52.6767 590.959 52.616C590.898 52.5553 590.868 52.4817 590.868 52.395V51.225C590.868 51.1297 590.898 51.0517 590.959 50.991C591.02 50.9303 591.093 50.9 591.18 50.9H597.992C598.087 50.9 598.165 50.9303 598.226 50.991C598.287 51.0517 598.317 51.1297 598.317 51.225V52.395C598.317 52.4817 598.287 52.5553 598.226 52.616C598.165 52.6767 598.087 52.707 597.992 52.707H595.639V59.675C595.639 59.7703 595.609 59.8483 595.548 59.909C595.487 59.9697 595.409 60 595.314 60H593.871ZM599.892 60C599.797 60 599.719 59.9697 599.658 59.909C599.598 59.8483 599.567 59.7703 599.567 59.675V51.225C599.567 51.1297 599.598 51.0517 599.658 50.991C599.719 50.9303 599.797 50.9 599.892 50.9H601.309C601.405 50.9 601.483 50.9303 601.543 50.991C601.604 51.0517 601.634 51.1297 601.634 51.225V54.475H605.157V51.225C605.157 51.1297 605.188 51.0517 605.248 50.991C605.309 50.9303 605.387 50.9 605.482 50.9H606.899C606.995 50.9 607.073 50.9303 607.133 50.991C607.194 51.0517 607.224 51.1297 607.224 51.225V59.675C607.224 59.7703 607.194 59.8483 607.133 59.909C607.073 59.9697 606.995 60 606.899 60H605.482C605.387 60 605.309 59.9697 605.248 59.909C605.188 59.8483 605.157 59.7703 605.157 59.675V56.321H601.634V59.675C601.634 59.7703 601.604 59.8483 601.543 59.909C601.483 59.9697 601.405 60 601.309 60H599.892ZM609.477 60C609.382 60 609.304 59.9697 609.243 59.909C609.183 59.8483 609.152 59.7703 609.152 59.675V51.225C609.152 51.1297 609.183 51.0517 609.243 50.991C609.304 50.9303 609.382 50.9 609.477 50.9H615.366C615.462 50.9 615.54 50.9303 615.6 50.991C615.661 51.0517 615.691 51.1297 615.691 51.225V52.265C615.691 52.3517 615.661 52.4253 615.6 52.486C615.54 52.5467 615.462 52.577 615.366 52.577H611.154V54.618H615.08C615.176 54.618 615.254 54.6483 615.314 54.709C615.375 54.7697 615.405 54.8477 615.405 54.943V55.905C615.405 55.9917 615.375 56.0653 615.314 56.126C615.254 56.1867 615.176 56.217 615.08 56.217H611.154V58.323H615.47C615.566 58.323 615.644 58.3533 615.704 58.414C615.765 58.4747 615.795 58.5527 615.795 58.648V59.675C615.795 59.7703 615.765 59.8483 615.704 59.909C615.644 59.9697 615.566 60 615.47 60H609.477ZM623.928 60.13C623.165 60.13 622.498 60.0043 621.926 59.753C621.354 59.493 620.912 59.0987 620.6 58.57C620.288 58.0327 620.132 57.3523 620.132 56.529V51.225C620.132 51.1297 620.162 51.0517 620.223 50.991C620.284 50.9303 620.362 50.9 620.457 50.9H621.874C621.969 50.9 622.047 50.9303 622.108 50.991C622.169 51.0517 622.199 51.1297 622.199 51.225V56.516C622.199 57.1573 622.351 57.634 622.654 57.946C622.957 58.258 623.382 58.414 623.928 58.414C624.465 58.414 624.886 58.258 625.189 57.946C625.492 57.634 625.644 57.1573 625.644 56.516V51.225C625.644 51.1297 625.674 51.0517 625.735 50.991C625.804 50.9303 625.882 50.9 625.969 50.9H627.399C627.486 50.9 627.559 50.9303 627.62 50.991C627.681 51.0517 627.711 51.1297 627.711 51.225V56.529C627.711 57.3523 627.555 58.0327 627.243 58.57C626.931 59.0987 626.493 59.493 625.93 59.753C625.367 60.0043 624.699 60.13 623.928 60.13ZM632.83 60.13C631.998 60.13 631.3 60.0087 630.737 59.766C630.182 59.5233 629.762 59.207 629.476 58.817C629.19 58.427 629.038 58.011 629.021 57.569C629.021 57.4997 629.047 57.439 629.099 57.387C629.151 57.3263 629.216 57.296 629.294 57.296H630.685C630.797 57.296 630.884 57.322 630.945 57.374C631.005 57.4173 631.062 57.4737 631.114 57.543C631.174 57.6903 631.27 57.8333 631.4 57.972C631.538 58.1107 631.725 58.2277 631.959 58.323C632.193 58.4097 632.483 58.453 632.83 58.453C633.393 58.453 633.813 58.362 634.091 58.18C634.377 57.998 634.52 57.751 634.52 57.439C634.52 57.2137 634.442 57.0317 634.286 56.893C634.138 56.7543 633.9 56.6287 633.571 56.516C633.25 56.4033 632.821 56.282 632.284 56.152C631.634 56.0133 631.079 55.8357 630.62 55.619C630.169 55.3937 629.827 55.1077 629.593 54.761C629.367 54.4057 629.255 53.968 629.255 53.448C629.255 52.928 629.398 52.4687 629.684 52.07C629.97 51.6627 630.373 51.3463 630.893 51.121C631.413 50.887 632.032 50.77 632.752 50.77C633.332 50.77 633.844 50.848 634.286 51.004C634.736 51.16 635.109 51.3637 635.404 51.615C635.707 51.8663 635.937 52.135 636.093 52.421C636.249 52.707 636.331 52.9843 636.34 53.253C636.34 53.3223 636.314 53.3873 636.262 53.448C636.21 53.5 636.145 53.526 636.067 53.526H634.611C634.524 53.526 634.446 53.5087 634.377 53.474C634.307 53.4393 634.251 53.3787 634.208 53.292C634.156 53.0667 634 52.8717 633.74 52.707C633.488 52.5337 633.159 52.447 632.752 52.447C632.327 52.447 631.989 52.525 631.738 52.681C631.495 52.837 631.374 53.0753 631.374 53.396C631.374 53.604 631.434 53.7817 631.556 53.929C631.686 54.0677 631.898 54.1933 632.193 54.306C632.496 54.41 632.895 54.527 633.389 54.657C634.151 54.813 634.771 54.9993 635.248 55.216C635.724 55.4327 636.075 55.7143 636.301 56.061C636.526 56.399 636.639 56.828 636.639 57.348C636.639 57.9287 636.474 58.427 636.145 58.843C635.824 59.259 635.378 59.5797 634.806 59.805C634.242 60.0217 633.584 60.13 632.83 60.13ZM638.359 60C638.264 60 638.186 59.9697 638.125 59.909C638.065 59.8483 638.034 59.7703 638.034 59.675V51.225C638.034 51.1297 638.065 51.0517 638.125 50.991C638.186 50.9303 638.264 50.9 638.359 50.9H644.248C644.344 50.9 644.422 50.9303 644.482 50.991C644.543 51.0517 644.573 51.1297 644.573 51.225V52.265C644.573 52.3517 644.543 52.4253 644.482 52.486C644.422 52.5467 644.344 52.577 644.248 52.577H640.036V54.618H643.962C644.058 54.618 644.136 54.6483 644.196 54.709C644.257 54.7697 644.287 54.8477 644.287 54.943V55.905C644.287 55.9917 644.257 56.0653 644.196 56.126C644.136 56.1867 644.058 56.217 643.962 56.217H640.036V58.323H644.352C644.448 58.323 644.526 58.3533 644.586 58.414C644.647 58.4747 644.677 58.5527 644.677 58.648V59.675C644.677 59.7703 644.647 59.8483 644.586 59.909C644.526 59.9697 644.448 60 644.352 60H638.359ZM646.548 60C646.452 60 646.374 59.9697 646.314 59.909C646.253 59.8483 646.223 59.7703 646.223 59.675V51.225C646.223 51.1297 646.253 51.0517 646.314 50.991C646.374 50.9303 646.452 50.9 646.548 50.9H649.993C651.076 50.9 651.93 51.1513 652.554 51.654C653.178 52.148 653.49 52.863 653.49 53.799C653.49 54.4317 653.338 54.9603 653.035 55.385C652.731 55.8097 652.324 56.126 651.813 56.334L653.646 59.584C653.672 59.636 653.685 59.6837 653.685 59.727C653.685 59.7963 653.659 59.8613 653.607 59.922C653.555 59.974 653.49 60 653.412 60H651.969C651.813 60 651.696 59.961 651.618 59.883C651.54 59.7963 651.483 59.7183 651.449 59.649L649.863 56.672H648.29V59.675C648.29 59.7703 648.259 59.8483 648.199 59.909C648.138 59.9697 648.06 60 647.965 60H646.548ZM648.29 55.021H649.954C650.43 55.021 650.781 54.9127 651.007 54.696C651.241 54.4793 651.358 54.176 651.358 53.786C651.358 53.396 651.245 53.0883 651.02 52.863C650.794 52.6377 650.439 52.525 649.954 52.525H648.29V55.021ZM657.09 60C657.012 60 656.947 59.974 656.895 59.922C656.843 59.8613 656.817 59.7963 656.817 59.727C656.817 59.6837 656.821 59.6447 656.83 59.61L659.924 51.251C659.95 51.1557 660.002 51.0733 660.08 51.004C660.158 50.9347 660.266 50.9 660.405 50.9H662.069C662.208 50.9 662.316 50.9347 662.394 51.004C662.472 51.0733 662.524 51.1557 662.55 51.251L665.644 59.61C665.653 59.6447 665.657 59.6837 665.657 59.727C665.657 59.7963 665.631 59.8613 665.579 59.922C665.527 59.974 665.462 60 665.384 60H664.032C663.902 60 663.807 59.9697 663.746 59.909C663.685 59.8483 663.646 59.792 663.629 59.74L663.07 58.284H659.404L658.845 59.74C658.828 59.792 658.789 59.8483 658.728 59.909C658.667 59.9697 658.572 60 658.442 60H657.09ZM659.885 56.607H662.576L661.237 52.863L659.885 56.607ZM670.2 60.13C669.385 60.13 668.692 59.9957 668.12 59.727C667.557 59.4497 667.119 59.051 666.807 58.531C666.495 58.0023 666.322 57.361 666.287 56.607C666.278 56.2517 666.274 55.8703 666.274 55.463C666.274 55.0557 666.278 54.6657 666.287 54.293C666.322 53.5477 666.495 52.915 666.807 52.395C667.128 51.8663 667.574 51.4633 668.146 51.186C668.718 50.9087 669.403 50.77 670.2 50.77C670.781 50.77 671.309 50.8437 671.786 50.991C672.263 51.1383 672.674 51.3507 673.021 51.628C673.368 51.9053 673.636 52.2303 673.827 52.603C674.018 52.9757 674.122 53.3917 674.139 53.851C674.139 53.929 674.109 53.994 674.048 54.046C673.996 54.098 673.931 54.124 673.853 54.124H672.371C672.267 54.124 672.185 54.098 672.124 54.046C672.063 53.994 672.016 53.9073 671.981 53.786C671.851 53.2747 671.634 52.9237 671.331 52.733C671.028 52.5423 670.651 52.447 670.2 52.447C669.663 52.447 669.238 52.5943 668.926 52.889C668.614 53.1837 668.445 53.6733 668.419 54.358C668.393 55.0687 668.393 55.7967 668.419 56.542C668.445 57.2267 668.614 57.7163 668.926 58.011C669.238 58.3057 669.663 58.453 670.2 58.453C670.651 58.453 671.028 58.3577 671.331 58.167C671.643 57.9677 671.86 57.6167 671.981 57.114C672.016 56.984 672.063 56.8973 672.124 56.854C672.185 56.802 672.267 56.776 672.371 56.776H673.853C673.931 56.776 673.996 56.802 674.048 56.854C674.109 56.906 674.139 56.971 674.139 57.049C674.122 57.5083 674.018 57.9243 673.827 58.297C673.636 58.6697 673.368 58.9947 673.021 59.272C672.674 59.5493 672.263 59.7617 671.786 59.909C671.309 60.0563 670.781 60.13 670.2 60.13ZM677.927 60C677.831 60 677.753 59.9697 677.693 59.909C677.632 59.8483 677.602 59.7703 677.602 59.675V52.707H675.236C675.149 52.707 675.075 52.6767 675.015 52.616C674.954 52.5553 674.924 52.4817 674.924 52.395V51.225C674.924 51.1297 674.954 51.0517 675.015 50.991C675.075 50.9303 675.149 50.9 675.236 50.9H682.048C682.143 50.9 682.221 50.9303 682.282 50.991C682.342 51.0517 682.373 51.1297 682.373 51.225V52.395C682.373 52.4817 682.342 52.5553 682.282 52.616C682.221 52.6767 682.143 52.707 682.048 52.707H679.695V59.675C679.695 59.7703 679.664 59.8483 679.604 59.909C679.543 59.9697 679.465 60 679.37 60H677.927ZM683.948 60C683.853 60 683.775 59.9697 683.714 59.909C683.653 59.8483 683.623 59.7703 683.623 59.675V51.225C683.623 51.1297 683.653 51.0517 683.714 50.991C683.775 50.9303 683.853 50.9 683.948 50.9H685.417C685.512 50.9 685.59 50.9303 685.651 50.991C685.712 51.0517 685.742 51.1297 685.742 51.225V59.675C685.742 59.7703 685.712 59.8483 685.651 59.909C685.59 59.9697 685.512 60 685.417 60H683.948ZM690.286 60C690.148 60 690.035 59.9653 689.948 59.896C689.87 59.818 689.814 59.727 689.779 59.623L687.049 51.29C687.041 51.2467 687.036 51.2077 687.036 51.173C687.036 51.1037 687.062 51.043 687.114 50.991C687.166 50.9303 687.231 50.9 687.309 50.9H688.674C688.804 50.9 688.904 50.939 688.973 51.017C689.051 51.0863 689.099 51.1513 689.116 51.212L691.144 57.569L693.159 51.212C693.185 51.1513 693.233 51.0863 693.302 51.017C693.372 50.939 693.471 50.9 693.601 50.9H694.966C695.044 50.9 695.109 50.9303 695.161 50.991C695.213 51.043 695.239 51.1037 695.239 51.173C695.239 51.2077 695.235 51.2467 695.226 51.29L692.496 59.623C692.47 59.727 692.414 59.818 692.327 59.896C692.249 59.9653 692.137 60 691.989 60H690.286ZM696.859 60C696.764 60 696.686 59.9697 696.625 59.909C696.565 59.8483 696.534 59.7703 696.534 59.675V51.225C696.534 51.1297 696.565 51.0517 696.625 50.991C696.686 50.9303 696.764 50.9 696.859 50.9H702.748C702.844 50.9 702.922 50.9303 702.982 50.991C703.043 51.0517 703.073 51.1297 703.073 51.225V52.265C703.073 52.3517 703.043 52.4253 702.982 52.486C702.922 52.5467 702.844 52.577 702.748 52.577H698.536V54.618H702.462C702.558 54.618 702.636 54.6483 702.696 54.709C702.757 54.7697 702.787 54.8477 702.787 54.943V55.905C702.787 55.9917 702.757 56.0653 702.696 56.126C702.636 56.1867 702.558 56.217 702.462 56.217H698.536V58.323H702.852C702.948 58.323 703.026 58.3533 703.086 58.414C703.147 58.4747 703.177 58.5527 703.177 58.648V59.675C703.177 59.7703 703.147 59.8483 703.086 59.909C703.026 59.9697 702.948 60 702.852 60H696.859ZM709.698 57.413C709.629 57.413 709.568 57.387 709.516 57.335C709.464 57.283 709.438 57.2223 709.438 57.153C709.438 57.0923 709.438 57.0317 709.438 56.971C709.438 56.9103 709.438 56.8497 709.438 56.789C709.481 56.4683 709.577 56.1823 709.724 55.931C709.88 55.671 710.058 55.4327 710.257 55.216C710.465 54.9993 710.669 54.8 710.868 54.618C711.067 54.4273 711.236 54.2367 711.375 54.046C711.514 53.8553 711.587 53.6647 711.596 53.474C711.622 53.2487 711.579 53.0623 711.466 52.915C711.362 52.759 711.215 52.642 711.024 52.564C710.842 52.4773 710.647 52.434 710.439 52.434C710.058 52.434 709.75 52.5293 709.516 52.72C709.291 52.902 709.135 53.1837 709.048 53.565C709.013 53.6603 708.966 53.734 708.905 53.786C708.844 53.838 708.762 53.864 708.658 53.864H707.306C707.228 53.864 707.159 53.8337 707.098 53.773C707.037 53.7123 707.007 53.6343 707.007 53.539C707.016 53.1923 707.098 52.8543 707.254 52.525C707.41 52.1957 707.64 51.901 707.943 51.641C708.246 51.3723 708.615 51.16 709.048 51.004C709.481 50.848 709.984 50.77 710.556 50.77C711.18 50.77 711.696 50.848 712.103 51.004C712.519 51.16 712.848 51.3637 713.091 51.615C713.342 51.8577 713.52 52.122 713.624 52.408C713.728 52.6853 713.771 52.9497 713.754 53.201C713.745 53.5217 713.676 53.812 713.546 54.072C713.425 54.3233 713.273 54.5573 713.091 54.774C712.918 54.9907 712.731 55.203 712.532 55.411C712.341 55.6103 712.168 55.814 712.012 56.022C711.865 56.23 711.756 56.4467 711.687 56.672C711.67 56.7413 711.652 56.8107 711.635 56.88C711.626 56.9407 711.618 57.0057 711.609 57.075C711.566 57.1877 711.518 57.2743 711.466 57.335C711.414 57.387 711.336 57.413 711.232 57.413H709.698ZM709.698 60C709.603 60 709.525 59.9697 709.464 59.909C709.403 59.8483 709.373 59.7703 709.373 59.675V58.375C709.373 58.2883 709.403 58.2147 709.464 58.154C709.525 58.0847 709.603 58.05 709.698 58.05H711.154C711.241 58.05 711.314 58.0847 711.375 58.154C711.444 58.2147 711.479 58.2883 711.479 58.375V59.675C711.479 59.7703 711.444 59.8483 711.375 59.909C711.314 59.9697 711.241 60 711.154 60H709.698Z" fill="#A0A0A5"/>
<path d="M734.5 79H555.5V81H734.5V79Z" fill="#CBC9CD" mask="url(#path-21-inside-6_905_1888)"/>
<mask id="path-24-inside-7_905_1888" fill="white">
<path d="M555.5 80H734.5V129H555.5V80Z"/>
</mask>
<path d="M555.5 80H734.5V129H555.5V80Z" fill="white"/>
<path d="M590.167 103.887V104.5C590.166 105.938 589.7 107.337 588.839 108.488C587.979 109.639 586.769 110.482 585.39 110.889C584.012 111.297 582.538 111.248 581.19 110.75C579.841 110.252 578.69 109.331 577.907 108.125C577.125 106.919 576.753 105.492 576.848 104.058C576.942 102.623 577.498 101.258 578.432 100.165C579.366 99.072 580.628 98.3103 582.031 97.9935C583.433 97.6767 584.9 97.8216 586.213 98.4067" stroke="#57B3A0" stroke-linecap="round" stroke-linejoin="round"/>
<path d="M590.167 99.1665L583.5 105.84L581.5 103.84" stroke="#57B3A0" stroke-linecap="round" stroke-linejoin="round"/>
<path d="M734.5 128H555.5V130H734.5V128Z" fill="#CBC9CD" mask="url(#path-24-inside-7_905_1888)"/>
<mask id="path-28-inside-8_905_1888" fill="white">
<path d="M555.5 129H734.5V178H555.5V129Z"/>
</mask>
<path d="M555.5 129H734.5V178H555.5V129Z" fill="white"/>
<path d="M590.167 152.887V153.5C590.166 154.938 589.7 156.337 588.839 157.488C587.979 158.639 586.769 159.482 585.39 159.889C584.012 160.297 582.538 160.248 581.19 159.75C579.841 159.252 578.69 158.331 577.907 157.125C577.125 155.919 576.753 154.492 576.848 153.058C576.942 151.623 577.498 150.258 578.432 149.165C579.366 148.072 580.628 147.31 582.031 146.994C583.433 146.677 584.9 146.822 586.213 147.407" stroke="#57B3A0" stroke-linecap="round" stroke-linejoin="round"/>
<path d="M590.167 148.167L583.5 154.84L581.5 152.84" stroke="#57B3A0" stroke-linecap="round" stroke-linejoin="round"/>
<path d="M734.5 177H555.5V179H734.5V177Z" fill="#CBC9CD" mask="url(#path-28-inside-8_905_1888)"/>
<mask id="path-32-inside-9_905_1888" fill="white">
<path d="M555.5 178H734.5V227H555.5V178Z"/>
</mask>
<path d="M555.5 178H734.5V227H555.5V178Z" fill="white"/>
<path d="M576.696 203.646C576.609 203.646 576.536 203.62 576.475 203.568C576.423 203.507 576.397 203.434 576.397 203.347V202.853C576.397 202.766 576.423 202.697 576.475 202.645C576.536 202.584 576.609 202.554 576.696 202.554H580.596C580.683 202.554 580.752 202.584 580.804 202.645C580.865 202.697 580.895 202.766 580.895 202.853V203.347C580.895 203.434 580.865 203.507 580.804 203.568C580.752 203.62 580.683 203.646 580.596 203.646H576.696Z" fill="#303032"/>
<path d="M734.5 226H555.5V228H734.5V226Z" fill="#CBC9CD" mask="url(#path-32-inside-9_905_1888)"/>
</g>
<path d="M401.5 0.5H463.5V17C463.5 18.933 461.933 20.5 460 20.5H401.5V0.5Z" fill="#F5F7F9"/>
<path d="M414.122 14C414.049 14 413.986 13.9743 413.935 13.923C413.884 13.8717 413.858 13.8093 413.858 13.736V6.575C413.858 6.49433 413.88 6.42833 413.924 6.377C413.975 6.32567 414.041 6.3 414.122 6.3H416.806C418.962 6.3 420.062 7.29733 420.106 9.292C420.121 9.71733 420.128 10.0033 420.128 10.15C420.128 10.2893 420.121 10.5717 420.106 10.997C420.077 12.0237 419.802 12.7827 419.281 13.274C418.76 13.758 417.954 14 416.861 14H414.122ZM416.806 12.735C417.422 12.735 417.866 12.5993 418.137 12.328C418.408 12.0493 418.551 11.5947 418.566 10.964C418.581 10.524 418.588 10.249 418.588 10.139C418.588 10.0217 418.581 9.75033 418.566 9.325C418.551 8.72367 418.397 8.28 418.104 7.994C417.818 7.708 417.367 7.565 416.751 7.565H415.387V12.735H416.806ZM421.68 7.334C421.607 7.334 421.545 7.30833 421.493 7.257C421.442 7.20567 421.416 7.14333 421.416 7.07V6.278C421.416 6.20467 421.442 6.14233 421.493 6.091C421.545 6.03967 421.607 6.014 421.68 6.014H422.681C422.755 6.014 422.817 6.03967 422.868 6.091C422.927 6.14233 422.956 6.20467 422.956 6.278V7.07C422.956 7.14333 422.931 7.20567 422.879 7.257C422.828 7.30833 422.762 7.334 422.681 7.334H421.68ZM421.724 14C421.651 14 421.589 13.9743 421.537 13.923C421.486 13.8717 421.46 13.8093 421.46 13.736V8.544C421.46 8.47067 421.486 8.40833 421.537 8.357C421.589 8.30567 421.651 8.28 421.724 8.28H422.637C422.718 8.28 422.78 8.30567 422.824 8.357C422.876 8.401 422.901 8.46333 422.901 8.544V13.736C422.901 13.8093 422.876 13.8717 422.824 13.923C422.78 13.9743 422.718 14 422.637 14H421.724ZM426.528 14.11C425.978 14.11 425.516 14.0293 425.142 13.868C424.768 13.6993 424.489 13.505 424.306 13.285C424.13 13.0577 424.042 12.8633 424.042 12.702C424.042 12.6287 424.067 12.57 424.119 12.526C424.17 12.482 424.229 12.46 424.295 12.46H425.164C425.23 12.46 425.285 12.4857 425.329 12.537C425.358 12.559 425.435 12.625 425.56 12.735C425.684 12.8523 425.831 12.944 426 13.01C426.168 13.076 426.355 13.109 426.561 13.109C426.854 13.109 427.096 13.0503 427.287 12.933C427.477 12.8157 427.573 12.6543 427.573 12.449C427.573 12.295 427.529 12.1703 427.441 12.075C427.36 11.9797 427.21 11.8953 426.99 11.822C426.77 11.7413 426.443 11.657 426.011 11.569C425.387 11.437 424.925 11.2353 424.625 10.964C424.331 10.6927 424.185 10.3333 424.185 9.886C424.185 9.59267 424.273 9.31767 424.449 9.061C424.625 8.797 424.885 8.58433 425.23 8.423C425.582 8.25433 426 8.17 426.484 8.17C426.975 8.17 427.4 8.25067 427.76 8.412C428.119 8.566 428.39 8.753 428.574 8.973C428.764 9.18567 428.86 9.37633 428.86 9.545C428.86 9.611 428.834 9.66967 428.783 9.721C428.739 9.765 428.684 9.787 428.618 9.787H427.804C427.745 9.787 427.683 9.76133 427.617 9.71C427.565 9.67333 427.485 9.60367 427.375 9.501C427.265 9.39833 427.136 9.31767 426.99 9.259C426.843 9.20033 426.671 9.171 426.473 9.171C426.201 9.171 425.989 9.22967 425.835 9.347C425.688 9.46433 425.615 9.61833 425.615 9.809C425.615 9.94833 425.651 10.062 425.725 10.15C425.798 10.238 425.941 10.3223 426.154 10.403C426.366 10.4837 426.685 10.5643 427.111 10.645C427.815 10.7843 428.317 11.0007 428.618 11.294C428.926 11.5873 429.08 11.9467 429.08 12.372C429.08 12.8853 428.856 13.3033 428.409 13.626C427.961 13.9487 427.334 14.11 426.528 14.11ZM430.49 16.09C430.417 16.09 430.355 16.0643 430.303 16.013C430.252 15.969 430.226 15.9067 430.226 15.826V8.544C430.226 8.46333 430.252 8.401 430.303 8.357C430.355 8.30567 430.417 8.28 430.49 8.28H431.359C431.44 8.28 431.502 8.30567 431.546 8.357C431.598 8.401 431.623 8.46333 431.623 8.544V8.984C432.034 8.44133 432.621 8.17 433.383 8.17C434.124 8.17 434.692 8.40467 435.088 8.874C435.484 9.336 435.697 9.963 435.726 10.755C435.734 10.843 435.737 10.9713 435.737 11.14C435.737 11.316 435.734 11.448 435.726 11.536C435.697 12.306 435.484 12.9293 435.088 13.406C434.692 13.8753 434.124 14.11 433.383 14.11C432.643 14.11 432.078 13.8497 431.689 13.329V15.826C431.689 15.9067 431.664 15.969 431.612 16.013C431.568 16.0643 431.506 16.09 431.425 16.09H430.49ZM432.976 12.933C433.768 12.933 434.19 12.4453 434.241 11.47C434.249 11.3967 434.252 11.2867 434.252 11.14C434.252 10.9933 434.249 10.8833 434.241 10.81C434.19 9.83467 433.768 9.347 432.976 9.347C432.551 9.347 432.236 9.48267 432.03 9.754C431.825 10.0253 431.711 10.359 431.689 10.755L431.678 11.173L431.689 11.602C431.704 11.9687 431.818 12.284 432.03 12.548C432.25 12.8047 432.566 12.933 432.976 12.933ZM437.247 14C437.174 14 437.111 13.9743 437.06 13.923C437.009 13.8717 436.983 13.8093 436.983 13.736V6.454C436.983 6.37333 437.009 6.311 437.06 6.267C437.111 6.21567 437.174 6.19 437.247 6.19H438.16C438.241 6.19 438.303 6.21567 438.347 6.267C438.398 6.311 438.424 6.37333 438.424 6.454V13.736C438.424 13.8093 438.398 13.8717 438.347 13.923C438.303 13.9743 438.241 14 438.16 14H437.247ZM441.544 14.11C441.17 14.11 440.826 14.0367 440.51 13.89C440.202 13.736 439.957 13.5307 439.773 13.274C439.597 13.0173 439.509 12.735 439.509 12.427C439.509 11.9283 439.711 11.525 440.114 11.217C440.518 10.909 441.071 10.7 441.775 10.59L443.282 10.37V10.139C443.282 9.81633 443.202 9.57433 443.04 9.413C442.879 9.25167 442.619 9.171 442.259 9.171C442.017 9.171 441.819 9.21867 441.665 9.314C441.519 9.402 441.401 9.49 441.313 9.578C441.225 9.67333 441.167 9.73567 441.137 9.765C441.108 9.853 441.053 9.897 440.972 9.897H440.125C440.059 9.897 440.001 9.875 439.949 9.831C439.905 9.787 439.883 9.72833 439.883 9.655C439.891 9.47167 439.979 9.26267 440.147 9.028C440.323 8.79333 440.591 8.59167 440.95 8.423C441.31 8.25433 441.75 8.17 442.27 8.17C443.136 8.17 443.766 8.36433 444.162 8.753C444.558 9.14167 444.756 9.65133 444.756 10.282V13.736C444.756 13.8093 444.731 13.8717 444.679 13.923C444.635 13.9743 444.573 14 444.492 14H443.601C443.528 14 443.466 13.9743 443.414 13.923C443.363 13.8717 443.337 13.8093 443.337 13.736V13.307C443.176 13.5417 442.945 13.736 442.644 13.89C442.351 14.0367 441.984 14.11 441.544 14.11ZM441.918 13.065C442.322 13.065 442.652 12.933 442.908 12.669C443.165 12.405 443.293 12.02 443.293 11.514V11.283L442.193 11.459C441.768 11.525 441.445 11.6313 441.225 11.778C441.013 11.9247 440.906 12.1043 440.906 12.317C440.906 12.5517 441.005 12.735 441.203 12.867C441.401 12.999 441.64 13.065 441.918 13.065ZM447.051 16.09C446.992 16.09 446.941 16.068 446.897 16.024C446.853 15.98 446.831 15.9287 446.831 15.87C446.831 15.804 446.846 15.7453 446.875 15.694L447.733 13.659L445.621 8.676C445.592 8.61 445.577 8.55867 445.577 8.522C445.584 8.456 445.61 8.401 445.654 8.357C445.698 8.30567 445.753 8.28 445.819 8.28H446.71C446.849 8.28 446.948 8.34967 447.007 8.489L448.47 12.086L449.977 8.489C450.036 8.34967 450.135 8.28 450.274 8.28H451.154C451.213 8.28 451.264 8.302 451.308 8.346C451.359 8.39 451.385 8.44133 451.385 8.5C451.385 8.55133 451.37 8.61 451.341 8.676L448.228 15.881C448.162 16.0203 448.059 16.09 447.92 16.09H447.051Z" fill="#535356"/>
<path d="M401.5 0.5H463.5V17C463.5 18.933 461.933 20.5 460 20.5H401.5V0.5Z" stroke="#EAEAEF"/>
<path d="M402 257V1H400V257H402Z" fill="#EAEAEF" mask="url(#path-6-inside-1_905_1888)"/>
<rect x="0.5" y="0.5" width="801" height="257" stroke="#EAEAEF"/>
<defs>
<filter id="filter0_d_905_1888" x="447.5" y="21" width="307" height="236" filterUnits="userSpaceOnUse" color-interpolation-filters="sRGB">
<feFlood flood-opacity="0" result="BackgroundImageFix"/>
<feColorMatrix in="SourceAlpha" type="matrix" values="0 0 0 0 0 0 0 0 0 0 0 0 0 0 0 0 0 0 127 0" result="hardAlpha"/>
<feOffset dy="10"/>
<feGaussianBlur stdDeviation="10"/>
<feComposite in2="hardAlpha" operator="out"/>
<feColorMatrix type="matrix" values="0 0 0 0 0.117647 0 0 0 0 0.117647 0 0 0 0 0.117647 0 0 0 0.12 0"/>
<feBlend mode="normal" in2="BackgroundImageFix" result="effect1_dropShadow_905_1888"/>
<feBlend mode="normal" in="SourceGraphic" in2="effect1_dropShadow_905_1888" result="shape"/>
</filter>
</defs>
</svg>
