<svg width="802" height="258" viewBox="0 0 802 258" fill="none" xmlns="http://www.w3.org/2000/svg">
<rect width="400" height="256" transform="translate(1 1)" fill="white"/>
<rect width="400" height="103" transform="translate(1 77.5)" fill="white"/>
<rect width="320" height="73" transform="translate(41 92.5)" fill="white"/>
<path d="M45.173 105.63C44.4017 105.63 43.7387 105.513 43.184 105.279C42.6293 105.045 42.209 104.737 41.923 104.356C41.637 103.975 41.4853 103.563 41.468 103.121C41.468 103.043 41.494 102.978 41.546 102.926C41.598 102.874 41.663 102.848 41.741 102.848H42.898C43.002 102.848 43.08 102.87 43.132 102.913C43.1927 102.948 43.249 103.008 43.301 103.095C43.3877 103.39 43.587 103.637 43.899 103.836C44.211 104.035 44.6357 104.135 45.173 104.135C45.7883 104.135 46.252 104.035 46.564 103.836C46.876 103.628 47.032 103.342 47.032 102.978C47.032 102.735 46.9497 102.536 46.785 102.38C46.629 102.224 46.3907 102.09 46.07 101.977C45.758 101.864 45.29 101.726 44.666 101.561C43.6433 101.318 42.8937 100.998 42.417 100.599C41.949 100.192 41.715 99.6153 41.715 98.87C41.715 98.3673 41.8493 97.921 42.118 97.531C42.3953 97.141 42.7897 96.8333 43.301 96.608C43.821 96.3827 44.4233 96.27 45.108 96.27C45.8187 96.27 46.434 96.3957 46.954 96.647C47.474 96.8983 47.8683 97.2147 48.137 97.596C48.4143 97.9687 48.5617 98.3413 48.579 98.714C48.579 98.792 48.553 98.857 48.501 98.909C48.449 98.961 48.384 98.987 48.306 98.987H47.097C46.915 98.987 46.7893 98.9047 46.72 98.74C46.668 98.4627 46.4947 98.233 46.2 98.051C45.9053 97.8603 45.5413 97.765 45.108 97.765C44.6227 97.765 44.2413 97.856 43.964 98.038C43.6867 98.22 43.548 98.4843 43.548 98.831C43.548 99.0737 43.6173 99.273 43.756 99.429C43.8947 99.585 44.1113 99.7237 44.406 99.845C44.7093 99.9663 45.1427 100.101 45.706 100.248C46.4687 100.421 47.0753 100.616 47.526 100.833C47.9853 101.05 48.3233 101.323 48.54 101.652C48.7567 101.981 48.865 102.402 48.865 102.913C48.865 103.468 48.709 103.953 48.397 104.369C48.0937 104.776 47.6603 105.088 47.097 105.305C46.5423 105.522 45.901 105.63 45.173 105.63ZM52.5673 105.5C52.4806 105.5 52.4069 105.47 52.3463 105.409C52.2856 105.348 52.2553 105.275 52.2553 105.188V97.999H49.8503C49.7636 97.999 49.6899 97.9687 49.6293 97.908C49.5686 97.8473 49.5383 97.7737 49.5383 97.687V96.725C49.5383 96.6297 49.5643 96.5517 49.6163 96.491C49.6769 96.4303 49.7549 96.4 49.8503 96.4H56.4803C56.5756 96.4 56.6536 96.4303 56.7143 96.491C56.7749 96.5517 56.8053 96.6297 56.8053 96.725V97.687C56.8053 97.7737 56.7749 97.8473 56.7143 97.908C56.6536 97.9687 56.5756 97.999 56.4803 97.999H54.0883V105.188C54.0883 105.275 54.0579 105.348 53.9973 105.409C53.9366 105.47 53.8586 105.5 53.7633 105.5H52.5673ZM56.6132 105.5C56.5439 105.5 56.4789 105.474 56.4182 105.422C56.3662 105.37 56.3402 105.305 56.3402 105.227L56.3662 105.11L59.4992 96.725C59.5599 96.5083 59.7115 96.4 59.9542 96.4H61.3712C61.5965 96.4 61.7482 96.5083 61.8262 96.725L64.9592 105.11C64.9679 105.136 64.9722 105.175 64.9722 105.227C64.9722 105.305 64.9462 105.37 64.8942 105.422C64.8422 105.474 64.7815 105.5 64.7122 105.5H63.5812C63.4685 105.5 63.3819 105.474 63.3212 105.422C63.2605 105.37 63.2215 105.314 63.2042 105.253L62.5932 103.667H58.7322L58.1212 105.253C58.0519 105.418 57.9262 105.5 57.7442 105.5H56.6132ZM62.1382 102.172L60.6562 98.155L59.1872 102.172H62.1382ZM66.4979 105.5C66.4112 105.5 66.3375 105.47 66.2769 105.409C66.2162 105.348 66.1859 105.275 66.1859 105.188V96.725C66.1859 96.6297 66.2119 96.5517 66.2639 96.491C66.3245 96.4303 66.4025 96.4 66.4979 96.4H69.8649C70.9222 96.4 71.7499 96.647 72.3479 97.141C72.9545 97.635 73.2579 98.337 73.2579 99.247C73.2579 99.8797 73.1019 100.413 72.7899 100.846C72.4865 101.271 72.0619 101.578 71.5159 101.769L73.4139 105.084C73.4399 105.136 73.4529 105.184 73.4529 105.227C73.4529 105.305 73.4225 105.37 73.3619 105.422C73.3099 105.474 73.2492 105.5 73.1799 105.5H71.9969C71.8582 105.5 71.7499 105.47 71.6719 105.409C71.6025 105.348 71.5375 105.262 71.4769 105.149L69.7999 102.068H67.9929V105.188C67.9929 105.275 67.9625 105.348 67.9019 105.409C67.8499 105.47 67.7762 105.5 67.6809 105.5H66.4979ZM69.8259 100.599C70.3459 100.599 70.7359 100.482 70.9959 100.248C71.2645 100.014 71.3989 99.676 71.3989 99.234C71.3989 98.792 71.2645 98.4497 70.9959 98.207C70.7359 97.9643 70.3459 97.843 69.8259 97.843H67.9929V100.599H69.8259ZM77.1454 105.5C77.0587 105.5 76.985 105.47 76.9244 105.409C76.8637 105.348 76.8334 105.275 76.8334 105.188V97.999H74.4284C74.3417 97.999 74.268 97.9687 74.2074 97.908C74.1467 97.8473 74.1164 97.7737 74.1164 97.687V96.725C74.1164 96.6297 74.1424 96.5517 74.1944 96.491C74.255 96.4303 74.333 96.4 74.4284 96.4H81.0584C81.1537 96.4 81.2317 96.4303 81.2924 96.491C81.353 96.5517 81.3834 96.6297 81.3834 96.725V97.687C81.3834 97.7737 81.353 97.8473 81.2924 97.908C81.2317 97.9687 81.1537 97.999 81.0584 97.999H78.6664V105.188C78.6664 105.275 78.636 105.348 78.5754 105.409C78.5147 105.47 78.4367 105.5 78.3414 105.5H77.1454ZM85.6678 105.5C85.5811 105.5 85.5075 105.47 85.4468 105.409C85.3861 105.348 85.3558 105.275 85.3558 105.188V96.725C85.3558 96.6297 85.3818 96.5517 85.4338 96.491C85.4945 96.4303 85.5725 96.4 85.6678 96.4H88.8398C91.3878 96.4 92.6878 97.5787 92.7398 99.936C92.7571 100.439 92.7658 100.777 92.7658 100.95C92.7658 101.115 92.7571 101.448 92.7398 101.951C92.7051 103.164 92.3801 104.061 91.7648 104.642C91.1495 105.214 90.1961 105.5 88.9048 105.5H85.6678ZM88.8398 104.005C89.5678 104.005 90.0921 103.845 90.4128 103.524C90.7335 103.195 90.9025 102.657 90.9198 101.912C90.9371 101.392 90.9458 101.067 90.9458 100.937C90.9458 100.798 90.9371 100.478 90.9198 99.975C90.9025 99.2643 90.7205 98.74 90.3738 98.402C90.0358 98.064 89.5028 97.895 88.7748 97.895H87.1628V104.005H88.8398ZM93.7597 105.5C93.6904 105.5 93.6254 105.474 93.5647 105.422C93.5127 105.37 93.4867 105.305 93.4867 105.227L93.5127 105.11L96.6457 96.725C96.7064 96.5083 96.858 96.4 97.1007 96.4H98.5177C98.743 96.4 98.8947 96.5083 98.9727 96.725L102.106 105.11C102.114 105.136 102.119 105.175 102.119 105.227C102.119 105.305 102.093 105.37 102.041 105.422C101.989 105.474 101.928 105.5 101.859 105.5H100.728C100.615 105.5 100.528 105.474 100.468 105.422C100.407 105.37 100.368 105.314 100.351 105.253L99.7397 103.667H95.8787L95.2677 105.253C95.1984 105.418 95.0727 105.5 94.8907 105.5H93.7597ZM99.2847 102.172L97.8027 98.155L96.3337 102.172H99.2847ZM104.694 105.5C104.608 105.5 104.534 105.47 104.473 105.409C104.413 105.348 104.382 105.275 104.382 105.188V97.999H101.977C101.891 97.999 101.817 97.9687 101.756 97.908C101.696 97.8473 101.665 97.7737 101.665 97.687V96.725C101.665 96.6297 101.691 96.5517 101.743 96.491C101.804 96.4303 101.882 96.4 101.977 96.4H108.607C108.703 96.4 108.781 96.4303 108.841 96.491C108.902 96.5517 108.932 96.6297 108.932 96.725V97.687C108.932 97.7737 108.902 97.8473 108.841 97.908C108.781 97.9687 108.703 97.999 108.607 97.999H106.215V105.188C106.215 105.275 106.185 105.348 106.124 105.409C106.064 105.47 105.986 105.5 105.89 105.5H104.694ZM110.563 105.5C110.477 105.5 110.403 105.47 110.342 105.409C110.282 105.348 110.251 105.275 110.251 105.188V96.725C110.251 96.6297 110.277 96.5517 110.329 96.491C110.39 96.4303 110.468 96.4 110.563 96.4H116.283C116.379 96.4 116.457 96.4303 116.517 96.491C116.578 96.5517 116.608 96.6297 116.608 96.725V97.583C116.608 97.6783 116.578 97.7563 116.517 97.817C116.457 97.869 116.379 97.895 116.283 97.895H112.006V100.196H115.997C116.093 100.196 116.171 100.226 116.231 100.287C116.292 100.339 116.322 100.413 116.322 100.508V101.314C116.322 101.409 116.292 101.487 116.231 101.548C116.171 101.6 116.093 101.626 115.997 101.626H112.006V104.005H116.387C116.483 104.005 116.561 104.035 116.621 104.096C116.682 104.157 116.712 104.235 116.712 104.33V105.188C116.712 105.283 116.682 105.361 116.621 105.422C116.561 105.474 116.483 105.5 116.387 105.5H110.563Z" fill="#A0A0A5"/>
<rect x="41.5" y="121" width="319" height="44" rx="2.5" fill="#F5F7F9"/>
<path d="M60.14 147.5C60.04 147.5 59.955 147.47 59.885 147.41C59.825 147.34 59.795 147.255 59.795 147.155V138.755L57.305 140.675C57.235 140.735 57.16 140.765 57.08 140.765C56.99 140.765 56.905 140.715 56.825 140.615L56.435 140.12C56.385 140.05 56.36 139.98 56.36 139.91C56.36 139.79 56.41 139.695 56.51 139.625L59.78 137.105C59.89 137.035 60.02 137 60.17 137H60.935C61.035 137 61.115 137.035 61.175 137.105C61.245 137.165 61.28 137.245 61.28 137.345V147.155C61.28 147.255 61.245 147.34 61.175 147.41C61.115 147.47 61.035 147.5 60.935 147.5H60.14ZM66.886 147.65C66.096 147.65 65.411 147.525 64.831 147.275C64.261 147.015 63.826 146.68 63.526 146.27C63.236 145.86 63.081 145.43 63.061 144.98C63.061 144.89 63.091 144.82 63.151 144.77C63.211 144.71 63.286 144.68 63.376 144.68H64.111C64.321 144.68 64.461 144.79 64.531 145.01C64.661 145.51 64.941 145.865 65.371 146.075C65.801 146.275 66.306 146.375 66.886 146.375C67.596 146.375 68.161 146.21 68.581 145.88C69.001 145.54 69.211 145.055 69.211 144.425C69.211 143.215 68.476 142.61 67.006 142.61H65.581C65.481 142.61 65.396 142.58 65.326 142.52C65.266 142.45 65.236 142.365 65.236 142.265V141.86C65.236 141.72 65.291 141.585 65.401 141.455L68.311 138.275H63.886C63.786 138.275 63.701 138.245 63.631 138.185C63.571 138.115 63.541 138.03 63.541 137.93V137.36C63.541 137.26 63.571 137.175 63.631 137.105C63.701 137.035 63.786 137 63.886 137H69.871C69.981 137 70.066 137.035 70.126 137.105C70.196 137.165 70.231 137.25 70.231 137.36V137.9C70.231 138.02 70.176 138.135 70.066 138.245L67.171 141.47L67.411 141.485C68.431 141.515 69.236 141.78 69.826 142.28C70.416 142.78 70.711 143.51 70.711 144.47C70.711 145.12 70.546 145.685 70.216 146.165C69.886 146.645 69.431 147.015 68.851 147.275C68.271 147.525 67.616 147.65 66.886 147.65ZM72.0562 148.76C71.9762 148.76 71.9062 148.73 71.8462 148.67C71.7862 148.61 71.7562 148.54 71.7562 148.46C71.7562 148.42 71.7712 148.36 71.8012 148.28L76.9312 135.98C77.0112 135.8 77.1412 135.71 77.3212 135.71H77.9062C77.9862 135.71 78.0562 135.74 78.1162 135.8C78.1762 135.86 78.2062 135.93 78.2062 136.01C78.2062 136.08 78.1962 136.14 78.1762 136.19L73.0312 148.49C72.9512 148.67 72.8212 148.76 72.6412 148.76H72.0562ZM82.6839 147.5C82.5839 147.5 82.4989 147.47 82.4289 147.41C82.3689 147.34 82.3389 147.255 82.3389 147.155V138.755L79.8489 140.675C79.7789 140.735 79.7039 140.765 79.6239 140.765C79.5339 140.765 79.4489 140.715 79.3689 140.615L78.9789 140.12C78.9289 140.05 78.9039 139.98 78.9039 139.91C78.9039 139.79 78.9539 139.695 79.0539 139.625L82.3239 137.105C82.4339 137.035 82.5639 137 82.7139 137H83.4789C83.5789 137 83.6589 137.035 83.7189 137.105C83.7889 137.165 83.8239 137.245 83.8239 137.345V147.155C83.8239 147.255 83.7889 147.34 83.7189 147.41C83.6589 147.47 83.5789 147.5 83.4789 147.5H82.6839ZM89.715 147.65C88.425 147.65 87.48 147.275 86.88 146.525C86.28 145.775 85.96 144.79 85.92 143.57C85.91 143.3 85.905 142.865 85.905 142.265C85.905 141.645 85.91 141.195 85.92 140.915C85.95 139.715 86.27 138.74 86.88 137.99C87.49 137.23 88.435 136.85 89.715 136.85C91.005 136.85 91.955 137.23 92.565 137.99C93.175 138.74 93.495 139.715 93.525 140.915C93.545 141.475 93.555 141.925 93.555 142.265C93.555 142.595 93.545 143.03 93.525 143.57C93.485 144.79 93.165 145.775 92.565 146.525C91.965 147.275 91.015 147.65 89.715 147.65ZM89.715 146.36C90.465 146.36 91.03 146.11 91.41 145.61C91.8 145.11 92.005 144.405 92.025 143.495C92.045 142.915 92.055 142.495 92.055 142.235C92.055 141.955 92.045 141.545 92.025 141.005C92.005 140.105 91.805 139.4 91.425 138.89C91.045 138.38 90.475 138.125 89.715 138.125C88.965 138.125 88.395 138.38 88.005 138.89C87.625 139.4 87.425 140.105 87.405 141.005L87.39 142.235L87.405 143.495C87.425 144.405 87.625 145.11 88.005 145.61C88.395 146.11 88.965 146.36 89.715 146.36ZM94.8785 148.76C94.7985 148.76 94.7285 148.73 94.6685 148.67C94.6085 148.61 94.5785 148.54 94.5785 148.46C94.5785 148.42 94.5935 148.36 94.6235 148.28L99.7535 135.98C99.8335 135.8 99.9635 135.71 100.143 135.71H100.728C100.808 135.71 100.878 135.74 100.938 135.8C100.998 135.86 101.028 135.93 101.028 136.01C101.028 136.08 101.018 136.14 100.998 136.19L95.8535 148.49C95.7735 148.67 95.6435 148.76 95.4635 148.76H94.8785ZM102.3 147.5C102.2 147.5 102.115 147.47 102.045 147.41C101.985 147.34 101.955 147.255 101.955 147.155V146.675C101.955 146.445 102.08 146.225 102.33 146.015L105.51 142.835C106.28 142.195 106.81 141.675 107.1 141.275C107.39 140.865 107.535 140.435 107.535 139.985C107.535 139.405 107.37 138.95 107.04 138.62C106.72 138.29 106.25 138.125 105.63 138.125C105.05 138.125 104.585 138.3 104.235 138.65C103.885 138.99 103.67 139.445 103.59 140.015C103.57 140.135 103.52 140.225 103.44 140.285C103.37 140.335 103.29 140.36 103.2 140.36H102.42C102.33 140.36 102.255 140.335 102.195 140.285C102.135 140.225 102.105 140.155 102.105 140.075C102.125 139.535 102.27 139.02 102.54 138.53C102.81 138.03 103.205 137.625 103.725 137.315C104.255 136.995 104.89 136.835 105.63 136.835C106.76 136.835 107.61 137.13 108.18 137.72C108.76 138.3 109.05 139.04 109.05 139.94C109.05 140.57 108.89 141.14 108.57 141.65C108.26 142.15 107.775 142.69 107.115 143.27L104.235 146.195H108.915C109.025 146.195 109.11 146.23 109.17 146.3C109.24 146.36 109.275 146.44 109.275 146.54V147.155C109.275 147.255 109.24 147.34 109.17 147.41C109.1 147.47 109.015 147.5 108.915 147.5H102.3ZM114.778 147.65C113.488 147.65 112.543 147.275 111.943 146.525C111.343 145.775 111.023 144.79 110.983 143.57C110.973 143.3 110.968 142.865 110.968 142.265C110.968 141.645 110.973 141.195 110.983 140.915C111.013 139.715 111.333 138.74 111.943 137.99C112.553 137.23 113.498 136.85 114.778 136.85C116.068 136.85 117.018 137.23 117.628 137.99C118.238 138.74 118.558 139.715 118.588 140.915C118.608 141.475 118.618 141.925 118.618 142.265C118.618 142.595 118.608 143.03 118.588 143.57C118.548 144.79 118.228 145.775 117.628 146.525C117.028 147.275 116.078 147.65 114.778 147.65ZM114.778 146.36C115.528 146.36 116.093 146.11 116.473 145.61C116.863 145.11 117.068 144.405 117.088 143.495C117.108 142.915 117.118 142.495 117.118 142.235C117.118 141.955 117.108 141.545 117.088 141.005C117.068 140.105 116.868 139.4 116.488 138.89C116.108 138.38 115.538 138.125 114.778 138.125C114.028 138.125 113.458 138.38 113.068 138.89C112.688 139.4 112.488 140.105 112.468 141.005L112.453 142.235L112.468 143.495C112.488 144.405 112.688 145.11 113.068 145.61C113.458 146.11 114.028 146.36 114.778 146.36ZM120.625 147.5C120.525 147.5 120.44 147.47 120.37 147.41C120.31 147.34 120.28 147.255 120.28 147.155V146.675C120.28 146.445 120.405 146.225 120.655 146.015L123.835 142.835C124.605 142.195 125.135 141.675 125.425 141.275C125.715 140.865 125.86 140.435 125.86 139.985C125.86 139.405 125.695 138.95 125.365 138.62C125.045 138.29 124.575 138.125 123.955 138.125C123.375 138.125 122.91 138.3 122.56 138.65C122.21 138.99 121.995 139.445 121.915 140.015C121.895 140.135 121.845 140.225 121.765 140.285C121.695 140.335 121.615 140.36 121.525 140.36H120.745C120.655 140.36 120.58 140.335 120.52 140.285C120.46 140.225 120.43 140.155 120.43 140.075C120.45 139.535 120.595 139.02 120.865 138.53C121.135 138.03 121.53 137.625 122.05 137.315C122.58 136.995 123.215 136.835 123.955 136.835C125.085 136.835 125.935 137.13 126.505 137.72C127.085 138.3 127.375 139.04 127.375 139.94C127.375 140.57 127.215 141.14 126.895 141.65C126.585 142.15 126.1 142.69 125.44 143.27L122.56 146.195H127.24C127.35 146.195 127.435 146.23 127.495 146.3C127.565 146.36 127.6 146.44 127.6 146.54V147.155C127.6 147.255 127.565 147.34 127.495 147.41C127.425 147.47 127.34 147.5 127.24 147.5H120.625ZM132.819 147.65C132.029 147.65 131.344 147.525 130.764 147.275C130.194 147.015 129.759 146.68 129.459 146.27C129.169 145.86 129.014 145.43 128.994 144.98C128.994 144.89 129.024 144.82 129.084 144.77C129.144 144.71 129.219 144.68 129.309 144.68H130.044C130.254 144.68 130.394 144.79 130.464 145.01C130.594 145.51 130.874 145.865 131.304 146.075C131.734 146.275 132.239 146.375 132.819 146.375C133.529 146.375 134.094 146.21 134.514 145.88C134.934 145.54 135.144 145.055 135.144 144.425C135.144 143.215 134.409 142.61 132.939 142.61H131.514C131.414 142.61 131.329 142.58 131.259 142.52C131.199 142.45 131.169 142.365 131.169 142.265V141.86C131.169 141.72 131.224 141.585 131.334 141.455L134.244 138.275H129.819C129.719 138.275 129.634 138.245 129.564 138.185C129.504 138.115 129.474 138.03 129.474 137.93V137.36C129.474 137.26 129.504 137.175 129.564 137.105C129.634 137.035 129.719 137 129.819 137H135.804C135.914 137 135.999 137.035 136.059 137.105C136.129 137.165 136.164 137.25 136.164 137.36V137.9C136.164 138.02 136.109 138.135 135.999 138.245L133.104 141.47L133.344 141.485C134.364 141.515 135.169 141.78 135.759 142.28C136.349 142.78 136.644 143.51 136.644 144.47C136.644 145.12 136.479 145.685 136.149 146.165C135.819 146.645 135.364 147.015 134.784 147.275C134.204 147.525 133.549 147.65 132.819 147.65Z" fill="#303032"/>
<rect x="41.5" y="121" width="319" height="44" rx="2.5" stroke="#DDDDE2"/>
<path d="M0.5 0.5H52.5V17C52.5 18.933 50.933 20.5 49 20.5H0.5V0.5Z" fill="#F5F7F9"/>
<path d="M13.122 14C13.0487 14 12.9863 13.9743 12.935 13.923C12.8837 13.8717 12.858 13.8093 12.858 13.736V6.564C12.858 6.48333 12.8837 6.421 12.935 6.377C12.9863 6.32567 13.0487 6.3 13.122 6.3H14.156C14.2367 6.3 14.299 6.32567 14.343 6.377C14.3943 6.421 14.42 6.48333 14.42 6.564V13.736C14.42 13.8093 14.3943 13.8717 14.343 13.923C14.299 13.9743 14.2367 14 14.156 14H13.122ZM16.2771 14C16.2038 14 16.1414 13.9743 16.0901 13.923C16.0388 13.8717 16.0131 13.8093 16.0131 13.736V8.544C16.0131 8.47067 16.0388 8.40833 16.0901 8.357C16.1414 8.30567 16.2038 8.28 16.2771 8.28H17.1791C17.2524 8.28 17.3148 8.30567 17.3661 8.357C17.4174 8.40833 17.4431 8.47067 17.4431 8.544V8.995C17.8758 8.445 18.4881 8.17 19.2801 8.17C19.9548 8.17 20.4901 8.39367 20.8861 8.841C21.2821 9.281 21.4801 9.88233 21.4801 10.645V13.736C21.4801 13.8093 21.4544 13.8717 21.4031 13.923C21.3591 13.9743 21.2968 14 21.2161 14H20.2481C20.1748 14 20.1124 13.9743 20.0611 13.923C20.0098 13.8717 19.9841 13.8093 19.9841 13.736V10.711C19.9841 10.2783 19.8778 9.94467 19.6651 9.71C19.4598 9.468 19.1591 9.347 18.7631 9.347C18.3744 9.347 18.0664 9.468 17.8391 9.71C17.6191 9.952 17.5091 10.2857 17.5091 10.711V13.736C17.5091 13.8093 17.4834 13.8717 17.4321 13.923C17.3881 13.9743 17.3258 14 17.2451 14H16.2771ZM23.1524 16.09C23.079 16.09 23.0167 16.0643 22.9654 16.013C22.914 15.969 22.8884 15.9067 22.8884 15.826V8.544C22.8884 8.46333 22.914 8.401 22.9654 8.357C23.0167 8.30567 23.079 8.28 23.1524 8.28H24.0214C24.102 8.28 24.1644 8.30567 24.2084 8.357C24.2597 8.401 24.2854 8.46333 24.2854 8.544V8.984C24.696 8.44133 25.2827 8.17 26.0454 8.17C26.786 8.17 27.3544 8.40467 27.7504 8.874C28.1464 9.336 28.359 9.963 28.3884 10.755C28.3957 10.843 28.3994 10.9713 28.3994 11.14C28.3994 11.316 28.3957 11.448 28.3884 11.536C28.359 12.306 28.1464 12.9293 27.7504 13.406C27.3544 13.8753 26.786 14.11 26.0454 14.11C25.3047 14.11 24.74 13.8497 24.3514 13.329V15.826C24.3514 15.9067 24.3257 15.969 24.2744 16.013C24.2304 16.0643 24.168 16.09 24.0874 16.09H23.1524ZM25.6384 12.933C26.4304 12.933 26.852 12.4453 26.9034 11.47C26.9107 11.3967 26.9144 11.2867 26.9144 11.14C26.9144 10.9933 26.9107 10.8833 26.9034 10.81C26.852 9.83467 26.4304 9.347 25.6384 9.347C25.213 9.347 24.8977 9.48267 24.6924 9.754C24.487 10.0253 24.3734 10.359 24.3514 10.755L24.3404 11.173L24.3514 11.602C24.366 11.9687 24.4797 12.284 24.6924 12.548C24.9124 12.8047 25.2277 12.933 25.6384 12.933ZM31.7572 14.11C31.0825 14.11 30.5509 13.89 30.1622 13.45C29.7735 13.0027 29.5792 12.3977 29.5792 11.635V8.544C29.5792 8.47067 29.6049 8.40833 29.6562 8.357C29.7075 8.30567 29.7699 8.28 29.8432 8.28H30.8112C30.8919 8.28 30.9542 8.30567 30.9982 8.357C31.0495 8.401 31.0752 8.46333 31.0752 8.544V11.569C31.0752 12.4783 31.4749 12.933 32.2742 12.933C32.6555 12.933 32.9562 12.812 33.1762 12.57C33.4035 12.328 33.5172 11.9943 33.5172 11.569V8.544C33.5172 8.47067 33.5429 8.40833 33.5942 8.357C33.6455 8.30567 33.7079 8.28 33.7812 8.28H34.7492C34.8299 8.28 34.8922 8.30567 34.9362 8.357C34.9875 8.401 35.0132 8.46333 35.0132 8.544V13.736C35.0132 13.8093 34.9875 13.8717 34.9362 13.923C34.8922 13.9743 34.8299 14 34.7492 14H33.8582C33.7849 14 33.7225 13.9743 33.6712 13.923C33.6199 13.8717 33.5942 13.8093 33.5942 13.736V13.285C33.1835 13.835 32.5712 14.11 31.7572 14.11ZM39.0512 14C38.3839 14 37.8816 13.8277 37.5442 13.483C37.2142 13.131 37.0492 12.6177 37.0492 11.943V9.446H36.1802C36.1069 9.446 36.0446 9.42033 35.9932 9.369C35.9419 9.31033 35.9162 9.24433 35.9162 9.171V8.544C35.9162 8.47067 35.9419 8.40833 35.9932 8.357C36.0446 8.30567 36.1069 8.28 36.1802 8.28H37.0492V6.454C37.0492 6.37333 37.0749 6.311 37.1262 6.267C37.1776 6.21567 37.2399 6.19 37.3132 6.19H38.2042C38.2849 6.19 38.3472 6.21567 38.3912 6.267C38.4426 6.311 38.4682 6.37333 38.4682 6.454V8.28H39.8432C39.9239 8.28 39.9862 8.30567 40.0302 8.357C40.0816 8.401 40.1072 8.46333 40.1072 8.544V9.171C40.1072 9.25167 40.0816 9.31767 40.0302 9.369C39.9789 9.42033 39.9166 9.446 39.8432 9.446H38.4682V11.833C38.4682 12.1483 38.5232 12.3867 38.6332 12.548C38.7432 12.7093 38.9266 12.79 39.1832 12.79H39.9422C40.0156 12.79 40.0779 12.8157 40.1292 12.867C40.1806 12.9183 40.2062 12.9807 40.2062 13.054V13.736C40.2062 13.8093 40.1806 13.8717 40.1292 13.923C40.0852 13.9743 40.0229 14 39.9422 14H39.0512Z" fill="#535356"/>
<path d="M0.5 0.5H52.5V17C52.5 18.933 50.933 20.5 49 20.5H0.5V0.5Z" stroke="#EAEAEF"/>
<mask id="path-7-inside-1_905_1646" fill="white">
<path d="M401 1H801V257H401V1Z"/>
</mask>
<path d="M401 1H801V257H401V1Z" fill="#F5F7F9"/>
<g filter="url(#filter0_d_905_1646)">
<mask id="path-10-inside-2_905_1646" fill="white">
<path d="M454 31H542V80H454V31Z"/>
</mask>
<path d="M454 31H542V80H454V31Z" fill="white"/>
<rect x="474" y="47" width="48" height="17" rx="5" fill="#F2F2F6"/>
<path d="M542 79H454V81H542V79Z" fill="#CBC9CD" mask="url(#path-10-inside-2_905_1646)"/>
<mask id="path-13-inside-3_905_1646" fill="white">
<path d="M454 80H542V129H454V80Z"/>
</mask>
<path d="M454 80H542V129H454V80Z" fill="white"/>
<rect x="474" y="96" width="48" height="17" rx="5" fill="#F2F2F6"/>
<path d="M542 128H454V130H542V128Z" fill="#CBC9CD" mask="url(#path-13-inside-3_905_1646)"/>
<mask id="path-16-inside-4_905_1646" fill="white">
<path d="M454 129H542V178H454V129Z"/>
</mask>
<path d="M454 129H542V178H454V129Z" fill="white"/>
<rect x="474" y="145" width="48" height="17" rx="5" fill="#F2F2F6"/>
<path d="M542 177H454V179H542V177Z" fill="#CBC9CD" mask="url(#path-16-inside-4_905_1646)"/>
<mask id="path-19-inside-5_905_1646" fill="white">
<path d="M454 178H542V227H454V178Z"/>
</mask>
<path d="M454 178H542V227H454V178Z" fill="white"/>
<rect x="474" y="194" width="48" height="17" rx="5" fill="#F2F2F6"/>
<path d="M542 226H454V228H542V226Z" fill="#CBC9CD" mask="url(#path-19-inside-5_905_1646)"/>
<mask id="path-22-inside-6_905_1646" fill="white">
<path d="M542 31H660V80H542V31Z"/>
</mask>
<path d="M542 31H660V80H542V31Z" fill="white"/>
<path d="M566.238 60.13C565.406 60.13 564.708 60.0087 564.145 59.766C563.59 59.5233 563.17 59.207 562.884 58.817C562.598 58.427 562.446 58.011 562.429 57.569C562.429 57.4997 562.455 57.439 562.507 57.387C562.559 57.3263 562.624 57.296 562.702 57.296H564.093C564.206 57.296 564.292 57.322 564.353 57.374C564.414 57.4173 564.47 57.4737 564.522 57.543C564.583 57.6903 564.678 57.8333 564.808 57.972C564.947 58.1107 565.133 58.2277 565.367 58.323C565.601 58.4097 565.891 58.453 566.238 58.453C566.801 58.453 567.222 58.362 567.499 58.18C567.785 57.998 567.928 57.751 567.928 57.439C567.928 57.2137 567.85 57.0317 567.694 56.893C567.547 56.7543 567.308 56.6287 566.979 56.516C566.658 56.4033 566.229 56.282 565.692 56.152C565.042 56.0133 564.487 55.8357 564.028 55.619C563.577 55.3937 563.235 55.1077 563.001 54.761C562.776 54.4057 562.663 53.968 562.663 53.448C562.663 52.928 562.806 52.4687 563.092 52.07C563.378 51.6627 563.781 51.3463 564.301 51.121C564.821 50.887 565.441 50.77 566.16 50.77C566.741 50.77 567.252 50.848 567.694 51.004C568.145 51.16 568.517 51.3637 568.812 51.615C569.115 51.8663 569.345 52.135 569.501 52.421C569.657 52.707 569.739 52.9843 569.748 53.253C569.748 53.3223 569.722 53.3873 569.67 53.448C569.618 53.5 569.553 53.526 569.475 53.526H568.019C567.932 53.526 567.854 53.5087 567.785 53.474C567.716 53.4393 567.659 53.3787 567.616 53.292C567.564 53.0667 567.408 52.8717 567.148 52.707C566.897 52.5337 566.567 52.447 566.16 52.447C565.735 52.447 565.397 52.525 565.146 52.681C564.903 52.837 564.782 53.0753 564.782 53.396C564.782 53.604 564.843 53.7817 564.964 53.929C565.094 54.0677 565.306 54.1933 565.601 54.306C565.904 54.41 566.303 54.527 566.797 54.657C567.56 54.813 568.179 54.9993 568.656 55.216C569.133 55.4327 569.484 55.7143 569.709 56.061C569.934 56.399 570.047 56.828 570.047 57.348C570.047 57.9287 569.882 58.427 569.553 58.843C569.232 59.259 568.786 59.5797 568.214 59.805C567.651 60.0217 566.992 60.13 566.238 60.13ZM573.681 60C573.585 60 573.507 59.9697 573.447 59.909C573.386 59.8483 573.356 59.7703 573.356 59.675V52.707H570.99C570.903 52.707 570.829 52.6767 570.769 52.616C570.708 52.5553 570.678 52.4817 570.678 52.395V51.225C570.678 51.1297 570.708 51.0517 570.769 50.991C570.829 50.9303 570.903 50.9 570.99 50.9H577.802C577.897 50.9 577.975 50.9303 578.036 50.991C578.096 51.0517 578.127 51.1297 578.127 51.225V52.395C578.127 52.4817 578.096 52.5553 578.036 52.616C577.975 52.6767 577.897 52.707 577.802 52.707H575.449V59.675C575.449 59.7703 575.418 59.8483 575.358 59.909C575.297 59.9697 575.219 60 575.124 60H573.681ZM577.905 60C577.827 60 577.762 59.974 577.71 59.922C577.658 59.8613 577.632 59.7963 577.632 59.727C577.632 59.6837 577.636 59.6447 577.645 59.61L580.739 51.251C580.765 51.1557 580.817 51.0733 580.895 51.004C580.973 50.9347 581.081 50.9 581.22 50.9H582.884C583.022 50.9 583.131 50.9347 583.209 51.004C583.287 51.0733 583.339 51.1557 583.365 51.251L586.459 59.61C586.467 59.6447 586.472 59.6837 586.472 59.727C586.472 59.7963 586.446 59.8613 586.394 59.922C586.342 59.974 586.277 60 586.199 60H584.847C584.717 60 584.621 59.9697 584.561 59.909C584.5 59.8483 584.461 59.792 584.444 59.74L583.885 58.284H580.219L579.66 59.74C579.642 59.792 579.603 59.8483 579.543 59.909C579.482 59.9697 579.387 60 579.257 60H577.905ZM580.7 56.607H583.391L582.052 52.863L580.7 56.607ZM587.916 60C587.821 60 587.743 59.9697 587.682 59.909C587.621 59.8483 587.591 59.7703 587.591 59.675V51.225C587.591 51.1297 587.621 51.0517 587.682 50.991C587.743 50.9303 587.821 50.9 587.916 50.9H591.361C592.444 50.9 593.298 51.1513 593.922 51.654C594.546 52.148 594.858 52.863 594.858 53.799C594.858 54.4317 594.706 54.9603 594.403 55.385C594.1 55.8097 593.692 56.126 593.181 56.334L595.014 59.584C595.04 59.636 595.053 59.6837 595.053 59.727C595.053 59.7963 595.027 59.8613 594.975 59.922C594.923 59.974 594.858 60 594.78 60H593.337C593.181 60 593.064 59.961 592.986 59.883C592.908 59.7963 592.852 59.7183 592.817 59.649L591.231 56.672H589.658V59.675C589.658 59.7703 589.628 59.8483 589.567 59.909C589.506 59.9697 589.428 60 589.333 60H587.916ZM589.658 55.021H591.322C591.799 55.021 592.15 54.9127 592.375 54.696C592.609 54.4793 592.726 54.176 592.726 53.786C592.726 53.396 592.613 53.0883 592.388 52.863C592.163 52.6377 591.807 52.525 591.322 52.525H589.658V55.021ZM598.69 60C598.595 60 598.517 59.9697 598.456 59.909C598.396 59.8483 598.365 59.7703 598.365 59.675V52.707H595.999C595.913 52.707 595.839 52.6767 595.778 52.616C595.718 52.5553 595.687 52.4817 595.687 52.395V51.225C595.687 51.1297 595.718 51.0517 595.778 50.991C595.839 50.9303 595.913 50.9 595.999 50.9H602.811C602.907 50.9 602.985 50.9303 603.045 50.991C603.106 51.0517 603.136 51.1297 603.136 51.225V52.395C603.136 52.4817 603.106 52.5553 603.045 52.616C602.985 52.6767 602.907 52.707 602.811 52.707H600.458V59.675C600.458 59.7703 600.428 59.8483 600.367 59.909C600.307 59.9697 600.229 60 600.133 60H598.69ZM607.276 60C607.181 60 607.103 59.9697 607.042 59.909C606.982 59.8483 606.951 59.7703 606.951 59.675V51.225C606.951 51.1297 606.982 51.0517 607.042 50.991C607.103 50.9303 607.181 50.9 607.276 50.9H610.539C611.406 50.9 612.13 51.0387 612.71 51.316C613.291 51.5847 613.733 51.9833 614.036 52.512C614.348 53.032 614.513 53.6777 614.53 54.449C614.539 54.8303 614.543 55.164 614.543 55.45C614.543 55.736 614.539 56.0653 614.53 56.438C614.504 57.244 614.344 57.9113 614.049 58.44C613.755 58.9687 613.321 59.363 612.749 59.623C612.177 59.8743 611.462 60 610.604 60H607.276ZM609.018 58.323H610.539C610.973 58.323 611.328 58.258 611.605 58.128C611.883 57.998 612.086 57.7943 612.216 57.517C612.355 57.231 612.429 56.8627 612.437 56.412C612.446 56.1607 612.45 55.9353 612.45 55.736C612.459 55.5367 612.459 55.3373 612.45 55.138C612.45 54.9387 612.446 54.7177 612.437 54.475C612.42 53.825 612.251 53.3483 611.93 53.045C611.618 52.733 611.133 52.577 610.474 52.577H609.018V58.323ZM615.445 60C615.367 60 615.302 59.974 615.25 59.922C615.198 59.8613 615.172 59.7963 615.172 59.727C615.172 59.6837 615.176 59.6447 615.185 59.61L618.279 51.251C618.305 51.1557 618.357 51.0733 618.435 51.004C618.513 50.9347 618.621 50.9 618.76 50.9H620.424C620.562 50.9 620.671 50.9347 620.749 51.004C620.827 51.0733 620.879 51.1557 620.905 51.251L623.999 59.61C624.007 59.6447 624.012 59.6837 624.012 59.727C624.012 59.7963 623.986 59.8613 623.934 59.922C623.882 59.974 623.817 60 623.739 60H622.387C622.257 60 622.161 59.9697 622.101 59.909C622.04 59.8483 622.001 59.792 621.984 59.74L621.425 58.284H617.759L617.2 59.74C617.182 59.792 617.143 59.8483 617.083 59.909C617.022 59.9697 616.927 60 616.797 60H615.445ZM618.24 56.607H620.931L619.592 52.863L618.24 56.607ZM626.518 60C626.423 60 626.345 59.9697 626.284 59.909C626.224 59.8483 626.193 59.7703 626.193 59.675V52.707H623.827C623.741 52.707 623.667 52.6767 623.606 52.616C623.546 52.5553 623.515 52.4817 623.515 52.395V51.225C623.515 51.1297 623.546 51.0517 623.606 50.991C623.667 50.9303 623.741 50.9 623.827 50.9H630.639C630.735 50.9 630.813 50.9303 630.873 50.991C630.934 51.0517 630.964 51.1297 630.964 51.225V52.395C630.964 52.4817 630.934 52.5553 630.873 52.616C630.813 52.6767 630.735 52.707 630.639 52.707H628.286V59.675C628.286 59.7703 628.256 59.8483 628.195 59.909C628.135 59.9697 628.057 60 627.961 60H626.518ZM632.54 60C632.445 60 632.367 59.9697 632.306 59.909C632.245 59.8483 632.215 59.7703 632.215 59.675V51.225C632.215 51.1297 632.245 51.0517 632.306 50.991C632.367 50.9303 632.445 50.9 632.54 50.9H638.429C638.524 50.9 638.602 50.9303 638.663 50.991C638.724 51.0517 638.754 51.1297 638.754 51.225V52.265C638.754 52.3517 638.724 52.4253 638.663 52.486C638.602 52.5467 638.524 52.577 638.429 52.577H634.217V54.618H638.143C638.238 54.618 638.316 54.6483 638.377 54.709C638.438 54.7697 638.468 54.8477 638.468 54.943V55.905C638.468 55.9917 638.438 56.0653 638.377 56.126C638.316 56.1867 638.238 56.217 638.143 56.217H634.217V58.323H638.533C638.628 58.323 638.706 58.3533 638.767 58.414C638.828 58.4747 638.858 58.5527 638.858 58.648V59.675C638.858 59.7703 638.828 59.8483 638.767 59.909C638.706 59.9697 638.628 60 638.533 60H632.54Z" fill="#A0A0A5"/>
<path d="M660 79H542V81H660V79Z" fill="#CBC9CD" mask="url(#path-22-inside-6_905_1646)"/>
<mask id="path-25-inside-7_905_1646" fill="white">
<path d="M542 80H660V129H542V80Z"/>
</mask>
<path d="M542 80H660V129H542V80Z" fill="white"/>
<path d="M572.588 109C572.501 109 572.428 108.974 572.367 108.922C572.315 108.861 572.289 108.788 572.289 108.701V101.421L570.131 103.085C570.07 103.137 570.005 103.163 569.936 103.163C569.858 103.163 569.784 103.12 569.715 103.033L569.377 102.604C569.334 102.543 569.312 102.483 569.312 102.422C569.312 102.318 569.355 102.236 569.442 102.175L572.276 99.991C572.371 99.9303 572.484 99.9 572.614 99.9H573.277C573.364 99.9 573.433 99.9303 573.485 99.991C573.546 100.043 573.576 100.112 573.576 100.199V108.701C573.576 108.788 573.546 108.861 573.485 108.922C573.433 108.974 573.364 109 573.277 109H572.588ZM578.435 109.13C577.75 109.13 577.156 109.022 576.654 108.805C576.16 108.58 575.783 108.289 575.523 107.934C575.271 107.579 575.137 107.206 575.12 106.816C575.12 106.738 575.146 106.677 575.198 106.634C575.25 106.582 575.315 106.556 575.393 106.556H576.03C576.212 106.556 576.333 106.651 576.394 106.842C576.506 107.275 576.749 107.583 577.122 107.765C577.494 107.938 577.932 108.025 578.435 108.025C579.05 108.025 579.54 107.882 579.904 107.596C580.268 107.301 580.45 106.881 580.45 106.335C580.45 105.286 579.813 104.762 578.539 104.762H577.304C577.217 104.762 577.143 104.736 577.083 104.684C577.031 104.623 577.005 104.55 577.005 104.463V104.112C577.005 103.991 577.052 103.874 577.148 103.761L579.67 101.005H575.835C575.748 101.005 575.674 100.979 575.614 100.927C575.562 100.866 575.536 100.793 575.536 100.706V100.212C575.536 100.125 575.562 100.052 575.614 99.991C575.674 99.9303 575.748 99.9 575.835 99.9H581.022C581.117 99.9 581.191 99.9303 581.243 99.991C581.303 100.043 581.334 100.117 581.334 100.212V100.68C581.334 100.784 581.286 100.884 581.191 100.979L578.682 103.774L578.89 103.787C579.774 103.813 580.471 104.043 580.983 104.476C581.494 104.909 581.75 105.542 581.75 106.374C581.75 106.937 581.607 107.427 581.321 107.843C581.035 108.259 580.64 108.58 580.138 108.805C579.635 109.022 579.067 109.13 578.435 109.13ZM582.915 110.092C582.846 110.092 582.785 110.066 582.733 110.014C582.681 109.962 582.655 109.901 582.655 109.832C582.655 109.797 582.668 109.745 582.694 109.676L587.14 99.016C587.21 98.86 587.322 98.782 587.478 98.782H587.985C588.055 98.782 588.115 98.808 588.167 98.86C588.219 98.912 588.245 98.9727 588.245 99.042C588.245 99.1027 588.237 99.1547 588.219 99.198L583.76 109.858C583.691 110.014 583.578 110.092 583.422 110.092H582.915ZM592.126 109C592.039 109 591.966 108.974 591.905 108.922C591.853 108.861 591.827 108.788 591.827 108.701V101.421L589.669 103.085C589.608 103.137 589.543 103.163 589.474 103.163C589.396 103.163 589.322 103.12 589.253 103.033L588.915 102.604C588.872 102.543 588.85 102.483 588.85 102.422C588.85 102.318 588.893 102.236 588.98 102.175L591.814 99.991C591.909 99.9303 592.022 99.9 592.152 99.9H592.815C592.902 99.9 592.971 99.9303 593.023 99.991C593.084 100.043 593.114 100.112 593.114 100.199V108.701C593.114 108.788 593.084 108.861 593.023 108.922C592.971 108.974 592.902 109 592.815 109H592.126ZM598.22 109.13C597.102 109.13 596.283 108.805 595.763 108.155C595.243 107.505 594.965 106.651 594.931 105.594C594.922 105.36 594.918 104.983 594.918 104.463C594.918 103.926 594.922 103.536 594.931 103.293C594.957 102.253 595.234 101.408 595.763 100.758C596.291 100.099 597.11 99.77 598.22 99.77C599.338 99.77 600.161 100.099 600.69 100.758C601.218 101.408 601.496 102.253 601.522 103.293C601.539 103.778 601.548 104.168 601.548 104.463C601.548 104.749 601.539 105.126 601.522 105.594C601.487 106.651 601.21 107.505 600.69 108.155C600.17 108.805 599.346 109.13 598.22 109.13ZM598.22 108.012C598.87 108.012 599.359 107.795 599.689 107.362C600.027 106.929 600.204 106.318 600.222 105.529C600.239 105.026 600.248 104.662 600.248 104.437C600.248 104.194 600.239 103.839 600.222 103.371C600.204 102.591 600.031 101.98 599.702 101.538C599.372 101.096 598.878 100.875 598.22 100.875C597.57 100.875 597.076 101.096 596.738 101.538C596.408 101.98 596.235 102.591 596.218 103.371L596.205 104.437L596.218 105.529C596.235 106.318 596.408 106.929 596.738 107.362C597.076 107.795 597.57 108.012 598.22 108.012ZM602.695 110.092C602.625 110.092 602.565 110.066 602.513 110.014C602.461 109.962 602.435 109.901 602.435 109.832C602.435 109.797 602.448 109.745 602.474 109.676L606.92 99.016C606.989 98.86 607.102 98.782 607.258 98.782H607.765C607.834 98.782 607.895 98.808 607.947 98.86C607.999 98.912 608.025 98.9727 608.025 99.042C608.025 99.1027 608.016 99.1547 607.999 99.198L603.54 109.858C603.47 110.014 603.358 110.092 603.202 110.092H602.695ZM609.126 109C609.04 109 608.966 108.974 608.905 108.922C608.853 108.861 608.827 108.788 608.827 108.701V108.285C608.827 108.086 608.936 107.895 609.152 107.713L611.908 104.957C612.576 104.402 613.035 103.952 613.286 103.605C613.538 103.25 613.663 102.877 613.663 102.487C613.663 101.984 613.52 101.59 613.234 101.304C612.957 101.018 612.55 100.875 612.012 100.875C611.51 100.875 611.107 101.027 610.803 101.33C610.5 101.625 610.314 102.019 610.244 102.513C610.227 102.617 610.184 102.695 610.114 102.747C610.054 102.79 609.984 102.812 609.906 102.812H609.23C609.152 102.812 609.087 102.79 609.035 102.747C608.983 102.695 608.957 102.634 608.957 102.565C608.975 102.097 609.1 101.651 609.334 101.226C609.568 100.793 609.911 100.442 610.361 100.173C610.821 99.8957 611.371 99.757 612.012 99.757C612.992 99.757 613.728 100.013 614.222 100.524C614.725 101.027 614.976 101.668 614.976 102.448C614.976 102.994 614.838 103.488 614.56 103.93C614.292 104.363 613.871 104.831 613.299 105.334L610.803 107.869H614.859C614.955 107.869 615.028 107.899 615.08 107.96C615.141 108.012 615.171 108.081 615.171 108.168V108.701C615.171 108.788 615.141 108.861 615.08 108.922C615.02 108.974 614.946 109 614.859 109H609.126ZM619.941 109.13C618.823 109.13 618.004 108.805 617.484 108.155C616.964 107.505 616.687 106.651 616.652 105.594C616.644 105.36 616.639 104.983 616.639 104.463C616.639 103.926 616.644 103.536 616.652 103.293C616.678 102.253 616.956 101.408 617.484 100.758C618.013 100.099 618.832 99.77 619.941 99.77C621.059 99.77 621.883 100.099 622.411 100.758C622.94 101.408 623.217 102.253 623.243 103.293C623.261 103.778 623.269 104.168 623.269 104.463C623.269 104.749 623.261 105.126 623.243 105.594C623.209 106.651 622.931 107.505 622.411 108.155C621.891 108.805 621.068 109.13 619.941 109.13ZM619.941 108.012C620.591 108.012 621.081 107.795 621.41 107.362C621.748 106.929 621.926 106.318 621.943 105.529C621.961 105.026 621.969 104.662 621.969 104.437C621.969 104.194 621.961 103.839 621.943 103.371C621.926 102.591 621.753 101.98 621.423 101.538C621.094 101.096 620.6 100.875 619.941 100.875C619.291 100.875 618.797 101.096 618.459 101.538C618.13 101.98 617.957 102.591 617.939 103.371L617.926 104.437L617.939 105.529C617.957 106.318 618.13 106.929 618.459 107.362C618.797 107.795 619.291 108.012 619.941 108.012ZM625.008 109C624.922 109 624.848 108.974 624.787 108.922C624.735 108.861 624.709 108.788 624.709 108.701V108.285C624.709 108.086 624.818 107.895 625.034 107.713L627.79 104.957C628.458 104.402 628.917 103.952 629.168 103.605C629.42 103.25 629.545 102.877 629.545 102.487C629.545 101.984 629.402 101.59 629.116 101.304C628.839 101.018 628.432 100.875 627.894 100.875C627.392 100.875 626.989 101.027 626.685 101.33C626.382 101.625 626.196 102.019 626.126 102.513C626.109 102.617 626.066 102.695 625.996 102.747C625.936 102.79 625.866 102.812 625.788 102.812H625.112C625.034 102.812 624.969 102.79 624.917 102.747C624.865 102.695 624.839 102.634 624.839 102.565C624.857 102.097 624.982 101.651 625.216 101.226C625.45 100.793 625.793 100.442 626.243 100.173C626.703 99.8957 627.253 99.757 627.894 99.757C628.874 99.757 629.61 100.013 630.104 100.524C630.607 101.027 630.858 101.668 630.858 102.448C630.858 102.994 630.72 103.488 630.442 103.93C630.174 104.363 629.753 104.831 629.181 105.334L626.685 107.869H630.741C630.837 107.869 630.91 107.899 630.962 107.96C631.023 108.012 631.053 108.081 631.053 108.168V108.701C631.053 108.788 631.023 108.861 630.962 108.922C630.902 108.974 630.828 109 630.741 109H625.008ZM635.576 109.13C634.891 109.13 634.298 109.022 633.795 108.805C633.301 108.58 632.924 108.289 632.664 107.934C632.413 107.579 632.278 107.206 632.261 106.816C632.261 106.738 632.287 106.677 632.339 106.634C632.391 106.582 632.456 106.556 632.534 106.556H633.171C633.353 106.556 633.474 106.651 633.535 106.842C633.648 107.275 633.89 107.583 634.263 107.765C634.636 107.938 635.073 108.025 635.576 108.025C636.191 108.025 636.681 107.882 637.045 107.596C637.409 107.301 637.591 106.881 637.591 106.335C637.591 105.286 636.954 104.762 635.68 104.762H634.445C634.358 104.762 634.285 104.736 634.224 104.684C634.172 104.623 634.146 104.55 634.146 104.463V104.112C634.146 103.991 634.194 103.874 634.289 103.761L636.811 101.005H632.976C632.889 101.005 632.816 100.979 632.755 100.927C632.703 100.866 632.677 100.793 632.677 100.706V100.212C632.677 100.125 632.703 100.052 632.755 99.991C632.816 99.9303 632.889 99.9 632.976 99.9H638.163C638.258 99.9 638.332 99.9303 638.384 99.991C638.445 100.043 638.475 100.117 638.475 100.212V100.68C638.475 100.784 638.427 100.884 638.332 100.979L635.823 103.774L636.031 103.787C636.915 103.813 637.613 104.043 638.124 104.476C638.635 104.909 638.891 105.542 638.891 106.374C638.891 106.937 638.748 107.427 638.462 107.843C638.176 108.259 637.782 108.58 637.279 108.805C636.776 109.022 636.209 109.13 635.576 109.13Z" fill="#303032"/>
<path d="M660 128H542V130H660V128Z" fill="#CBC9CD" mask="url(#path-25-inside-7_905_1646)"/>
<mask id="path-28-inside-8_905_1646" fill="white">
<path d="M542 129H660V178H542V129Z"/>
</mask>
<path d="M542 129H660V178H542V129Z" fill="white"/>
<path d="M570.121 158.13C569.003 158.13 568.184 157.805 567.664 157.155C567.144 156.505 566.867 155.651 566.832 154.594C566.823 154.36 566.819 153.983 566.819 153.463C566.819 152.926 566.823 152.536 566.832 152.293C566.858 151.253 567.135 150.408 567.664 149.758C568.193 149.099 569.012 148.77 570.121 148.77C571.239 148.77 572.062 149.099 572.591 149.758C573.12 150.408 573.397 151.253 573.423 152.293C573.44 152.778 573.449 153.168 573.449 153.463C573.449 153.749 573.44 154.126 573.423 154.594C573.388 155.651 573.111 156.505 572.591 157.155C572.071 157.805 571.248 158.13 570.121 158.13ZM570.121 157.012C570.771 157.012 571.261 156.795 571.59 156.362C571.928 155.929 572.106 155.318 572.123 154.529C572.14 154.026 572.149 153.662 572.149 153.437C572.149 153.194 572.14 152.839 572.123 152.371C572.106 151.591 571.932 150.98 571.603 150.538C571.274 150.096 570.78 149.875 570.121 149.875C569.471 149.875 568.977 150.096 568.639 150.538C568.31 150.98 568.136 151.591 568.119 152.371L568.106 153.437L568.119 154.529C568.136 155.318 568.31 155.929 568.639 156.362C568.977 156.795 569.471 157.012 570.121 157.012ZM578.048 158.13C577.389 158.13 576.822 158.013 576.345 157.779C575.868 157.545 575.5 157.237 575.24 156.856C574.989 156.475 574.854 156.067 574.837 155.634V155.608C574.837 155.539 574.863 155.482 574.915 155.439C574.967 155.396 575.028 155.374 575.097 155.374H575.799C575.981 155.374 576.098 155.469 576.15 155.66C576.271 156.119 576.505 156.462 576.852 156.687C577.199 156.912 577.597 157.025 578.048 157.025C578.629 157.025 579.11 156.852 579.491 156.505C579.881 156.15 580.076 155.66 580.076 155.036C580.076 154.473 579.881 154.018 579.491 153.671C579.11 153.324 578.629 153.151 578.048 153.151C577.736 153.151 577.485 153.194 577.294 153.281C577.103 153.359 576.913 153.472 576.722 153.619C576.618 153.697 576.527 153.758 576.449 153.801C576.38 153.836 576.302 153.853 576.215 153.853H575.539C575.461 153.853 575.392 153.827 575.331 153.775C575.27 153.714 575.244 153.645 575.253 153.567L575.669 149.225C575.678 149.121 575.708 149.043 575.76 148.991C575.821 148.93 575.899 148.9 575.994 148.9H580.531C580.618 148.9 580.687 148.93 580.739 148.991C580.8 149.043 580.83 149.112 580.83 149.199V149.706C580.83 149.793 580.8 149.866 580.739 149.927C580.687 149.979 580.618 150.005 580.531 150.005H576.787L576.54 152.566C577.008 152.271 577.571 152.124 578.23 152.124C578.802 152.124 579.326 152.241 579.803 152.475C580.288 152.709 580.67 153.047 580.947 153.489C581.233 153.931 581.376 154.451 581.376 155.049C581.376 155.69 581.233 156.245 580.947 156.713C580.67 157.172 580.28 157.523 579.777 157.766C579.274 158.009 578.698 158.13 578.048 158.13ZM582.518 159.092C582.449 159.092 582.388 159.066 582.336 159.014C582.284 158.962 582.258 158.901 582.258 158.832C582.258 158.797 582.271 158.745 582.297 158.676L586.743 148.016C586.812 147.86 586.925 147.782 587.081 147.782H587.588C587.657 147.782 587.718 147.808 587.77 147.86C587.822 147.912 587.848 147.973 587.848 148.042C587.848 148.103 587.839 148.155 587.822 148.198L583.363 158.858C583.294 159.014 583.181 159.092 583.025 159.092H582.518ZM592.071 158.13C590.953 158.13 590.134 157.805 589.614 157.155C589.094 156.505 588.817 155.651 588.782 154.594C588.774 154.36 588.769 153.983 588.769 153.463C588.769 152.926 588.774 152.536 588.782 152.293C588.808 151.253 589.086 150.408 589.614 149.758C590.143 149.099 590.962 148.77 592.071 148.77C593.189 148.77 594.013 149.099 594.541 149.758C595.07 150.408 595.347 151.253 595.373 152.293C595.391 152.778 595.399 153.168 595.399 153.463C595.399 153.749 595.391 154.126 595.373 154.594C595.339 155.651 595.061 156.505 594.541 157.155C594.021 157.805 593.198 158.13 592.071 158.13ZM592.071 157.012C592.721 157.012 593.211 156.795 593.54 156.362C593.878 155.929 594.056 155.318 594.073 154.529C594.091 154.026 594.099 153.662 594.099 153.437C594.099 153.194 594.091 152.839 594.073 152.371C594.056 151.591 593.883 150.98 593.553 150.538C593.224 150.096 592.73 149.875 592.071 149.875C591.421 149.875 590.927 150.096 590.589 150.538C590.26 150.98 590.087 151.591 590.069 152.371L590.056 153.437L590.069 154.529C590.087 155.318 590.26 155.929 590.589 156.362C590.927 156.795 591.421 157.012 592.071 157.012ZM599.79 158C599.703 158 599.63 157.974 599.569 157.922C599.517 157.861 599.491 157.788 599.491 157.701V150.421L597.333 152.085C597.272 152.137 597.207 152.163 597.138 152.163C597.06 152.163 596.986 152.12 596.917 152.033L596.579 151.604C596.536 151.543 596.514 151.483 596.514 151.422C596.514 151.318 596.557 151.236 596.644 151.175L599.478 148.991C599.573 148.93 599.686 148.9 599.816 148.9H600.479C600.566 148.9 600.635 148.93 600.687 148.991C600.748 149.043 600.778 149.112 600.778 149.199V157.701C600.778 157.788 600.748 157.861 600.687 157.922C600.635 157.974 600.566 158 600.479 158H599.79ZM602.361 159.092C602.291 159.092 602.231 159.066 602.179 159.014C602.127 158.962 602.101 158.901 602.101 158.832C602.101 158.797 602.114 158.745 602.14 158.676L606.586 148.016C606.655 147.86 606.768 147.782 606.924 147.782H607.431C607.5 147.782 607.561 147.808 607.613 147.86C607.665 147.912 607.691 147.973 607.691 148.042C607.691 148.103 607.682 148.155 607.665 148.198L603.206 158.858C603.136 159.014 603.024 159.092 602.868 159.092H602.361ZM608.792 158C608.706 158 608.632 157.974 608.571 157.922C608.519 157.861 608.493 157.788 608.493 157.701V157.285C608.493 157.086 608.602 156.895 608.818 156.713L611.574 153.957C612.242 153.402 612.701 152.952 612.952 152.605C613.204 152.25 613.329 151.877 613.329 151.487C613.329 150.984 613.186 150.59 612.9 150.304C612.623 150.018 612.216 149.875 611.678 149.875C611.176 149.875 610.773 150.027 610.469 150.33C610.166 150.625 609.98 151.019 609.91 151.513C609.893 151.617 609.85 151.695 609.78 151.747C609.72 151.79 609.65 151.812 609.572 151.812H608.896C608.818 151.812 608.753 151.79 608.701 151.747C608.649 151.695 608.623 151.634 608.623 151.565C608.641 151.097 608.766 150.651 609 150.226C609.234 149.793 609.577 149.442 610.027 149.173C610.487 148.896 611.037 148.757 611.678 148.757C612.658 148.757 613.394 149.013 613.888 149.524C614.391 150.027 614.642 150.668 614.642 151.448C614.642 151.994 614.504 152.488 614.226 152.93C613.958 153.363 613.537 153.831 612.965 154.334L610.469 156.869H614.525C614.621 156.869 614.694 156.899 614.746 156.96C614.807 157.012 614.837 157.081 614.837 157.168V157.701C614.837 157.788 614.807 157.861 614.746 157.922C614.686 157.974 614.612 158 614.525 158H608.792ZM619.607 158.13C618.489 158.13 617.67 157.805 617.15 157.155C616.63 156.505 616.353 155.651 616.318 154.594C616.31 154.36 616.305 153.983 616.305 153.463C616.305 152.926 616.31 152.536 616.318 152.293C616.344 151.253 616.622 150.408 617.15 149.758C617.679 149.099 618.498 148.77 619.607 148.77C620.725 148.77 621.549 149.099 622.077 149.758C622.606 150.408 622.883 151.253 622.909 152.293C622.927 152.778 622.935 153.168 622.935 153.463C622.935 153.749 622.927 154.126 622.909 154.594C622.875 155.651 622.597 156.505 622.077 157.155C621.557 157.805 620.734 158.13 619.607 158.13ZM619.607 157.012C620.257 157.012 620.747 156.795 621.076 156.362C621.414 155.929 621.592 155.318 621.609 154.529C621.627 154.026 621.635 153.662 621.635 153.437C621.635 153.194 621.627 152.839 621.609 152.371C621.592 151.591 621.419 150.98 621.089 150.538C620.76 150.096 620.266 149.875 619.607 149.875C618.957 149.875 618.463 150.096 618.125 150.538C617.796 150.98 617.623 151.591 617.605 152.371L617.592 153.437L617.605 154.529C617.623 155.318 617.796 155.929 618.125 156.362C618.463 156.795 618.957 157.012 619.607 157.012ZM624.674 158C624.588 158 624.514 157.974 624.453 157.922C624.401 157.861 624.375 157.788 624.375 157.701V157.285C624.375 157.086 624.484 156.895 624.7 156.713L627.456 153.957C628.124 153.402 628.583 152.952 628.834 152.605C629.086 152.25 629.211 151.877 629.211 151.487C629.211 150.984 629.068 150.59 628.782 150.304C628.505 150.018 628.098 149.875 627.56 149.875C627.058 149.875 626.655 150.027 626.351 150.33C626.048 150.625 625.862 151.019 625.792 151.513C625.775 151.617 625.732 151.695 625.662 151.747C625.602 151.79 625.532 151.812 625.454 151.812H624.778C624.7 151.812 624.635 151.79 624.583 151.747C624.531 151.695 624.505 151.634 624.505 151.565C624.523 151.097 624.648 150.651 624.882 150.226C625.116 149.793 625.459 149.442 625.909 149.173C626.369 148.896 626.919 148.757 627.56 148.757C628.54 148.757 629.276 149.013 629.77 149.524C630.273 150.027 630.524 150.668 630.524 151.448C630.524 151.994 630.386 152.488 630.108 152.93C629.84 153.363 629.419 153.831 628.847 154.334L626.351 156.869H630.407C630.503 156.869 630.576 156.899 630.628 156.96C630.689 157.012 630.719 157.081 630.719 157.168V157.701C630.719 157.788 630.689 157.861 630.628 157.922C630.568 157.974 630.494 158 630.407 158H624.674ZM636.454 158C636.368 158 636.294 157.974 636.233 157.922C636.181 157.861 636.155 157.788 636.155 157.701V155.829H631.943C631.857 155.829 631.783 155.803 631.722 155.751C631.67 155.69 631.644 155.617 631.644 155.53V155.01C631.644 154.88 631.692 154.75 631.787 154.62L635.687 149.121C635.731 149.052 635.796 149 635.882 148.965C635.969 148.922 636.064 148.9 636.168 148.9H637.104C637.191 148.9 637.26 148.93 637.312 148.991C637.373 149.043 637.403 149.112 637.403 149.199V154.698H638.573C638.66 154.698 638.734 154.728 638.794 154.789C638.855 154.841 638.885 154.91 638.885 154.997V155.53C638.885 155.617 638.855 155.69 638.794 155.751C638.742 155.803 638.673 155.829 638.586 155.829H637.403V157.701C637.403 157.788 637.373 157.861 637.312 157.922C637.26 157.974 637.191 158 637.104 158H636.454ZM636.168 154.724V150.265L633.035 154.724H636.168Z" fill="#303032"/>
<path d="M660 177H542V179H660V177Z" fill="#CBC9CD" mask="url(#path-28-inside-8_905_1646)"/>
<mask id="path-31-inside-9_905_1646" fill="white">
<path d="M542 178H660V227H542V178Z"/>
</mask>
<path d="M542 178H660V227H542V178Z" fill="white"/>
<path d="M572.588 207C572.501 207 572.428 206.974 572.367 206.922C572.315 206.861 572.289 206.788 572.289 206.701V199.421L570.131 201.085C570.07 201.137 570.005 201.163 569.936 201.163C569.858 201.163 569.784 201.12 569.715 201.033L569.377 200.604C569.334 200.543 569.312 200.483 569.312 200.422C569.312 200.318 569.355 200.236 569.442 200.175L572.276 197.991C572.371 197.93 572.484 197.9 572.614 197.9H573.277C573.364 197.9 573.433 197.93 573.485 197.991C573.546 198.043 573.576 198.112 573.576 198.199V206.701C573.576 206.788 573.546 206.861 573.485 206.922C573.433 206.974 573.364 207 573.277 207H572.588ZM578.149 207C578.062 207 577.988 206.974 577.928 206.922C577.876 206.861 577.85 206.788 577.85 206.701V199.421L575.692 201.085C575.631 201.137 575.566 201.163 575.497 201.163C575.419 201.163 575.345 201.12 575.276 201.033L574.938 200.604C574.894 200.543 574.873 200.483 574.873 200.422C574.873 200.318 574.916 200.236 575.003 200.175L577.837 197.991C577.932 197.93 578.045 197.9 578.175 197.9H578.838C578.924 197.9 578.994 197.93 579.046 197.991C579.106 198.043 579.137 198.112 579.137 198.199V206.701C579.137 206.788 579.106 206.861 579.046 206.922C578.994 206.974 578.924 207 578.838 207H578.149ZM580.719 208.092C580.65 208.092 580.589 208.066 580.537 208.014C580.485 207.962 580.459 207.901 580.459 207.832C580.459 207.797 580.472 207.745 580.498 207.676L584.944 197.016C585.013 196.86 585.126 196.782 585.282 196.782H585.789C585.858 196.782 585.919 196.808 585.971 196.86C586.023 196.912 586.049 196.973 586.049 197.042C586.049 197.103 586.04 197.155 586.023 197.198L581.564 207.858C581.495 208.014 581.382 208.092 581.226 208.092H580.719ZM590.272 207.13C589.154 207.13 588.335 206.805 587.815 206.155C587.295 205.505 587.018 204.651 586.983 203.594C586.975 203.36 586.97 202.983 586.97 202.463C586.97 201.926 586.975 201.536 586.983 201.293C587.009 200.253 587.287 199.408 587.815 198.758C588.344 198.099 589.163 197.77 590.272 197.77C591.39 197.77 592.214 198.099 592.742 198.758C593.271 199.408 593.548 200.253 593.574 201.293C593.592 201.778 593.6 202.168 593.6 202.463C593.6 202.749 593.592 203.126 593.574 203.594C593.54 204.651 593.262 205.505 592.742 206.155C592.222 206.805 591.399 207.13 590.272 207.13ZM590.272 206.012C590.922 206.012 591.412 205.795 591.741 205.362C592.079 204.929 592.257 204.318 592.274 203.529C592.292 203.026 592.3 202.662 592.3 202.437C592.3 202.194 592.292 201.839 592.274 201.371C592.257 200.591 592.084 199.98 591.754 199.538C591.425 199.096 590.931 198.875 590.272 198.875C589.622 198.875 589.128 199.096 588.79 199.538C588.461 199.98 588.288 200.591 588.27 201.371L588.257 202.437L588.27 203.529C588.288 204.318 588.461 204.929 588.79 205.362C589.128 205.795 589.622 206.012 590.272 206.012ZM595.339 207C595.253 207 595.179 206.974 595.118 206.922C595.066 206.861 595.04 206.788 595.04 206.701V206.285C595.04 206.086 595.149 205.895 595.365 205.713L598.121 202.957C598.789 202.402 599.248 201.952 599.499 201.605C599.751 201.25 599.876 200.877 599.876 200.487C599.876 199.984 599.733 199.59 599.447 199.304C599.17 199.018 598.763 198.875 598.225 198.875C597.723 198.875 597.32 199.027 597.016 199.33C596.713 199.625 596.527 200.019 596.457 200.513C596.44 200.617 596.397 200.695 596.327 200.747C596.267 200.79 596.197 200.812 596.119 200.812H595.443C595.365 200.812 595.3 200.79 595.248 200.747C595.196 200.695 595.17 200.634 595.17 200.565C595.188 200.097 595.313 199.651 595.547 199.226C595.781 198.793 596.124 198.442 596.574 198.173C597.034 197.896 597.584 197.757 598.225 197.757C599.205 197.757 599.941 198.013 600.435 198.524C600.938 199.027 601.189 199.668 601.189 200.448C601.189 200.994 601.051 201.488 600.773 201.93C600.505 202.363 600.084 202.831 599.512 203.334L597.016 205.869H601.072C601.168 205.869 601.241 205.899 601.293 205.96C601.354 206.012 601.384 206.081 601.384 206.168V206.701C601.384 206.788 601.354 206.861 601.293 206.922C601.233 206.974 601.159 207 601.072 207H595.339ZM602.631 208.092C602.562 208.092 602.501 208.066 602.449 208.014C602.397 207.962 602.371 207.901 602.371 207.832C602.371 207.797 602.384 207.745 602.41 207.676L606.856 197.016C606.926 196.86 607.038 196.782 607.194 196.782H607.701C607.771 196.782 607.831 196.808 607.883 196.86C607.935 196.912 607.961 196.973 607.961 197.042C607.961 197.103 607.953 197.155 607.935 197.198L603.476 207.858C603.407 208.014 603.294 208.092 603.138 208.092H602.631ZM609.063 207C608.976 207 608.903 206.974 608.842 206.922C608.79 206.861 608.764 206.788 608.764 206.701V206.285C608.764 206.086 608.872 205.895 609.089 205.713L611.845 202.957C612.512 202.402 612.972 201.952 613.223 201.605C613.474 201.25 613.6 200.877 613.6 200.487C613.6 199.984 613.457 199.59 613.171 199.304C612.894 199.018 612.486 198.875 611.949 198.875C611.446 198.875 611.043 199.027 610.74 199.33C610.437 199.625 610.25 200.019 610.181 200.513C610.164 200.617 610.12 200.695 610.051 200.747C609.99 200.79 609.921 200.812 609.843 200.812H609.167C609.089 200.812 609.024 200.79 608.972 200.747C608.92 200.695 608.894 200.634 608.894 200.565C608.911 200.097 609.037 199.651 609.271 199.226C609.505 198.793 609.847 198.442 610.298 198.173C610.757 197.896 611.308 197.757 611.949 197.757C612.928 197.757 613.665 198.013 614.159 198.524C614.662 199.027 614.913 199.668 614.913 200.448C614.913 200.994 614.774 201.488 614.497 201.93C614.228 202.363 613.808 202.831 613.236 203.334L610.74 205.869H614.796C614.891 205.869 614.965 205.899 615.017 205.96C615.078 206.012 615.108 206.081 615.108 206.168V206.701C615.108 206.788 615.078 206.861 615.017 206.922C614.956 206.974 614.883 207 614.796 207H609.063ZM619.878 207.13C618.76 207.13 617.941 206.805 617.421 206.155C616.901 205.505 616.624 204.651 616.589 203.594C616.58 203.36 616.576 202.983 616.576 202.463C616.576 201.926 616.58 201.536 616.589 201.293C616.615 200.253 616.892 199.408 617.421 198.758C617.95 198.099 618.769 197.77 619.878 197.77C620.996 197.77 621.819 198.099 622.348 198.758C622.877 199.408 623.154 200.253 623.18 201.293C623.197 201.778 623.206 202.168 623.206 202.463C623.206 202.749 623.197 203.126 623.18 203.594C623.145 204.651 622.868 205.505 622.348 206.155C621.828 206.805 621.005 207.13 619.878 207.13ZM619.878 206.012C620.528 206.012 621.018 205.795 621.347 205.362C621.685 204.929 621.863 204.318 621.88 203.529C621.897 203.026 621.906 202.662 621.906 202.437C621.906 202.194 621.897 201.839 621.88 201.371C621.863 200.591 621.689 199.98 621.36 199.538C621.031 199.096 620.537 198.875 619.878 198.875C619.228 198.875 618.734 199.096 618.396 199.538C618.067 199.98 617.893 200.591 617.876 201.371L617.863 202.437L617.876 203.529C617.893 204.318 618.067 204.929 618.396 205.362C618.734 205.795 619.228 206.012 619.878 206.012ZM624.945 207C624.858 207 624.784 206.974 624.724 206.922C624.672 206.861 624.646 206.788 624.646 206.701V206.285C624.646 206.086 624.754 205.895 624.971 205.713L627.727 202.957C628.394 202.402 628.853 201.952 629.105 201.605C629.356 201.25 629.482 200.877 629.482 200.487C629.482 199.984 629.339 199.59 629.053 199.304C628.775 199.018 628.368 198.875 627.831 198.875C627.328 198.875 626.925 199.027 626.622 199.33C626.318 199.625 626.132 200.019 626.063 200.513C626.045 200.617 626.002 200.695 625.933 200.747C625.872 200.79 625.803 200.812 625.725 200.812H625.049C624.971 200.812 624.906 200.79 624.854 200.747C624.802 200.695 624.776 200.634 624.776 200.565C624.793 200.097 624.919 199.651 625.153 199.226C625.387 198.793 625.729 198.442 626.18 198.173C626.639 197.896 627.189 197.757 627.831 197.757C628.81 197.757 629.547 198.013 630.041 198.524C630.543 199.027 630.795 199.668 630.795 200.448C630.795 200.994 630.656 201.488 630.379 201.93C630.11 202.363 629.69 202.831 629.118 203.334L626.622 205.869H630.678C630.773 205.869 630.847 205.899 630.899 205.96C630.959 206.012 630.99 206.081 630.99 206.168V206.701C630.99 206.788 630.959 206.861 630.899 206.922C630.838 206.974 630.764 207 630.678 207H624.945ZM636.725 207C636.638 207 636.564 206.974 636.504 206.922C636.452 206.861 636.426 206.788 636.426 206.701V204.829H632.214C632.127 204.829 632.053 204.803 631.993 204.751C631.941 204.69 631.915 204.617 631.915 204.53V204.01C631.915 203.88 631.962 203.75 632.058 203.62L635.958 198.121C636.001 198.052 636.066 198 636.153 197.965C636.239 197.922 636.335 197.9 636.439 197.9H637.375C637.461 197.9 637.531 197.93 637.583 197.991C637.643 198.043 637.674 198.112 637.674 198.199V203.698H638.844C638.93 203.698 639.004 203.728 639.065 203.789C639.125 203.841 639.156 203.91 639.156 203.997V204.53C639.156 204.617 639.125 204.69 639.065 204.751C639.013 204.803 638.943 204.829 638.857 204.829H637.674V206.701C637.674 206.788 637.643 206.861 637.583 206.922C637.531 206.974 637.461 207 637.375 207H636.725ZM636.439 203.724V199.265L633.306 203.724H636.439Z" fill="#303032"/>
<path d="M660 226H542V228H660V226Z" fill="#CBC9CD" mask="url(#path-31-inside-9_905_1646)"/>
<mask id="path-34-inside-10_905_1646" fill="white">
<path d="M660 31H748V80H660V31Z"/>
</mask>
<path d="M660 31H748V80H660V31Z" fill="white"/>
<rect x="680" y="47" width="48" height="17" rx="5" fill="#F2F2F6"/>
<path d="M748 79H660V81H748V79Z" fill="#CBC9CD" mask="url(#path-34-inside-10_905_1646)"/>
<mask id="path-37-inside-11_905_1646" fill="white">
<path d="M660 80H748V129H660V80Z"/>
</mask>
<path d="M660 80H748V129H660V80Z" fill="white"/>
<rect x="680" y="96" width="48" height="17" rx="5" fill="#F2F2F6"/>
<path d="M748 128H660V130H748V128Z" fill="#CBC9CD" mask="url(#path-37-inside-11_905_1646)"/>
<mask id="path-40-inside-12_905_1646" fill="white">
<path d="M660 129H748V178H660V129Z"/>
</mask>
<path d="M660 129H748V178H660V129Z" fill="white"/>
<rect x="680" y="145" width="48" height="17" rx="5" fill="#F2F2F6"/>
<path d="M748 177H660V179H748V177Z" fill="#CBC9CD" mask="url(#path-40-inside-12_905_1646)"/>
<mask id="path-43-inside-13_905_1646" fill="white">
<path d="M660 178H748V227H660V178Z"/>
</mask>
<path d="M660 178H748V227H660V178Z" fill="white"/>
<rect x="680" y="194" width="48" height="17" rx="5" fill="#F2F2F6"/>
<path d="M748 226H660V228H748V226Z" fill="#CBC9CD" mask="url(#path-43-inside-13_905_1646)"/>
</g>
<path d="M401.5 0.5H463.5V17C463.5 18.933 461.933 20.5 460 20.5H401.5V0.5Z" fill="#F5F7F9"/>
<path d="M414.122 14C414.049 14 413.986 13.9743 413.935 13.923C413.884 13.8717 413.858 13.8093 413.858 13.736V6.575C413.858 6.49433 413.88 6.42833 413.924 6.377C413.975 6.32567 414.041 6.3 414.122 6.3H416.806C418.962 6.3 420.062 7.29733 420.106 9.292C420.121 9.71733 420.128 10.0033 420.128 10.15C420.128 10.2893 420.121 10.5717 420.106 10.997C420.077 12.0237 419.802 12.7827 419.281 13.274C418.76 13.758 417.954 14 416.861 14H414.122ZM416.806 12.735C417.422 12.735 417.866 12.5993 418.137 12.328C418.408 12.0493 418.551 11.5947 418.566 10.964C418.581 10.524 418.588 10.249 418.588 10.139C418.588 10.0217 418.581 9.75033 418.566 9.325C418.551 8.72367 418.397 8.28 418.104 7.994C417.818 7.708 417.367 7.565 416.751 7.565H415.387V12.735H416.806ZM421.68 7.334C421.607 7.334 421.545 7.30833 421.493 7.257C421.442 7.20567 421.416 7.14333 421.416 7.07V6.278C421.416 6.20467 421.442 6.14233 421.493 6.091C421.545 6.03967 421.607 6.014 421.68 6.014H422.681C422.755 6.014 422.817 6.03967 422.868 6.091C422.927 6.14233 422.956 6.20467 422.956 6.278V7.07C422.956 7.14333 422.931 7.20567 422.879 7.257C422.828 7.30833 422.762 7.334 422.681 7.334H421.68ZM421.724 14C421.651 14 421.589 13.9743 421.537 13.923C421.486 13.8717 421.46 13.8093 421.46 13.736V8.544C421.46 8.47067 421.486 8.40833 421.537 8.357C421.589 8.30567 421.651 8.28 421.724 8.28H422.637C422.718 8.28 422.78 8.30567 422.824 8.357C422.876 8.401 422.901 8.46333 422.901 8.544V13.736C422.901 13.8093 422.876 13.8717 422.824 13.923C422.78 13.9743 422.718 14 422.637 14H421.724ZM426.528 14.11C425.978 14.11 425.516 14.0293 425.142 13.868C424.768 13.6993 424.489 13.505 424.306 13.285C424.13 13.0577 424.042 12.8633 424.042 12.702C424.042 12.6287 424.067 12.57 424.119 12.526C424.17 12.482 424.229 12.46 424.295 12.46H425.164C425.23 12.46 425.285 12.4857 425.329 12.537C425.358 12.559 425.435 12.625 425.56 12.735C425.684 12.8523 425.831 12.944 426 13.01C426.168 13.076 426.355 13.109 426.561 13.109C426.854 13.109 427.096 13.0503 427.287 12.933C427.477 12.8157 427.573 12.6543 427.573 12.449C427.573 12.295 427.529 12.1703 427.441 12.075C427.36 11.9797 427.21 11.8953 426.99 11.822C426.77 11.7413 426.443 11.657 426.011 11.569C425.387 11.437 424.925 11.2353 424.625 10.964C424.331 10.6927 424.185 10.3333 424.185 9.886C424.185 9.59267 424.273 9.31767 424.449 9.061C424.625 8.797 424.885 8.58433 425.23 8.423C425.582 8.25433 426 8.17 426.484 8.17C426.975 8.17 427.4 8.25067 427.76 8.412C428.119 8.566 428.39 8.753 428.574 8.973C428.764 9.18567 428.86 9.37633 428.86 9.545C428.86 9.611 428.834 9.66967 428.783 9.721C428.739 9.765 428.684 9.787 428.618 9.787H427.804C427.745 9.787 427.683 9.76133 427.617 9.71C427.565 9.67333 427.485 9.60367 427.375 9.501C427.265 9.39833 427.136 9.31767 426.99 9.259C426.843 9.20033 426.671 9.171 426.473 9.171C426.201 9.171 425.989 9.22967 425.835 9.347C425.688 9.46433 425.615 9.61833 425.615 9.809C425.615 9.94833 425.651 10.062 425.725 10.15C425.798 10.238 425.941 10.3223 426.154 10.403C426.366 10.4837 426.685 10.5643 427.111 10.645C427.815 10.7843 428.317 11.0007 428.618 11.294C428.926 11.5873 429.08 11.9467 429.08 12.372C429.08 12.8853 428.856 13.3033 428.409 13.626C427.961 13.9487 427.334 14.11 426.528 14.11ZM430.49 16.09C430.417 16.09 430.355 16.0643 430.303 16.013C430.252 15.969 430.226 15.9067 430.226 15.826V8.544C430.226 8.46333 430.252 8.401 430.303 8.357C430.355 8.30567 430.417 8.28 430.49 8.28H431.359C431.44 8.28 431.502 8.30567 431.546 8.357C431.598 8.401 431.623 8.46333 431.623 8.544V8.984C432.034 8.44133 432.621 8.17 433.383 8.17C434.124 8.17 434.692 8.40467 435.088 8.874C435.484 9.336 435.697 9.963 435.726 10.755C435.734 10.843 435.737 10.9713 435.737 11.14C435.737 11.316 435.734 11.448 435.726 11.536C435.697 12.306 435.484 12.9293 435.088 13.406C434.692 13.8753 434.124 14.11 433.383 14.11C432.643 14.11 432.078 13.8497 431.689 13.329V15.826C431.689 15.9067 431.664 15.969 431.612 16.013C431.568 16.0643 431.506 16.09 431.425 16.09H430.49ZM432.976 12.933C433.768 12.933 434.19 12.4453 434.241 11.47C434.249 11.3967 434.252 11.2867 434.252 11.14C434.252 10.9933 434.249 10.8833 434.241 10.81C434.19 9.83467 433.768 9.347 432.976 9.347C432.551 9.347 432.236 9.48267 432.03 9.754C431.825 10.0253 431.711 10.359 431.689 10.755L431.678 11.173L431.689 11.602C431.704 11.9687 431.818 12.284 432.03 12.548C432.25 12.8047 432.566 12.933 432.976 12.933ZM437.247 14C437.174 14 437.111 13.9743 437.06 13.923C437.009 13.8717 436.983 13.8093 436.983 13.736V6.454C436.983 6.37333 437.009 6.311 437.06 6.267C437.111 6.21567 437.174 6.19 437.247 6.19H438.16C438.241 6.19 438.303 6.21567 438.347 6.267C438.398 6.311 438.424 6.37333 438.424 6.454V13.736C438.424 13.8093 438.398 13.8717 438.347 13.923C438.303 13.9743 438.241 14 438.16 14H437.247ZM441.544 14.11C441.17 14.11 440.826 14.0367 440.51 13.89C440.202 13.736 439.957 13.5307 439.773 13.274C439.597 13.0173 439.509 12.735 439.509 12.427C439.509 11.9283 439.711 11.525 440.114 11.217C440.518 10.909 441.071 10.7 441.775 10.59L443.282 10.37V10.139C443.282 9.81633 443.202 9.57433 443.04 9.413C442.879 9.25167 442.619 9.171 442.259 9.171C442.017 9.171 441.819 9.21867 441.665 9.314C441.519 9.402 441.401 9.49 441.313 9.578C441.225 9.67333 441.167 9.73567 441.137 9.765C441.108 9.853 441.053 9.897 440.972 9.897H440.125C440.059 9.897 440.001 9.875 439.949 9.831C439.905 9.787 439.883 9.72833 439.883 9.655C439.891 9.47167 439.979 9.26267 440.147 9.028C440.323 8.79333 440.591 8.59167 440.95 8.423C441.31 8.25433 441.75 8.17 442.27 8.17C443.136 8.17 443.766 8.36433 444.162 8.753C444.558 9.14167 444.756 9.65133 444.756 10.282V13.736C444.756 13.8093 444.731 13.8717 444.679 13.923C444.635 13.9743 444.573 14 444.492 14H443.601C443.528 14 443.466 13.9743 443.414 13.923C443.363 13.8717 443.337 13.8093 443.337 13.736V13.307C443.176 13.5417 442.945 13.736 442.644 13.89C442.351 14.0367 441.984 14.11 441.544 14.11ZM441.918 13.065C442.322 13.065 442.652 12.933 442.908 12.669C443.165 12.405 443.293 12.02 443.293 11.514V11.283L442.193 11.459C441.768 11.525 441.445 11.6313 441.225 11.778C441.013 11.9247 440.906 12.1043 440.906 12.317C440.906 12.5517 441.005 12.735 441.203 12.867C441.401 12.999 441.64 13.065 441.918 13.065ZM447.051 16.09C446.992 16.09 446.941 16.068 446.897 16.024C446.853 15.98 446.831 15.9287 446.831 15.87C446.831 15.804 446.846 15.7453 446.875 15.694L447.733 13.659L445.621 8.676C445.592 8.61 445.577 8.55867 445.577 8.522C445.584 8.456 445.61 8.401 445.654 8.357C445.698 8.30567 445.753 8.28 445.819 8.28H446.71C446.849 8.28 446.948 8.34967 447.007 8.489L448.47 12.086L449.977 8.489C450.036 8.34967 450.135 8.28 450.274 8.28H451.154C451.213 8.28 451.264 8.302 451.308 8.346C451.359 8.39 451.385 8.44133 451.385 8.5C451.385 8.55133 451.37 8.61 451.341 8.676L448.228 15.881C448.162 16.0203 448.059 16.09 447.92 16.09H447.051Z" fill="#535356"/>
<path d="M401.5 0.5H463.5V17C463.5 18.933 461.933 20.5 460 20.5H401.5V0.5Z" stroke="#EAEAEF"/>
<path d="M402 257V1H400V257H402Z" fill="#EAEAEF" mask="url(#path-7-inside-1_905_1646)"/>
<rect x="0.5" y="0.5" width="801" height="257" stroke="#EAEAEF"/>
<defs>
<filter id="filter0_d_905_1646" x="434" y="21" width="334" height="236" filterUnits="userSpaceOnUse" color-interpolation-filters="sRGB">
<feFlood flood-opacity="0" result="BackgroundImageFix"/>
<feColorMatrix in="SourceAlpha" type="matrix" values="0 0 0 0 0 0 0 0 0 0 0 0 0 0 0 0 0 0 127 0" result="hardAlpha"/>
<feOffset dy="10"/>
<feGaussianBlur stdDeviation="10"/>
<feComposite in2="hardAlpha" operator="out"/>
<feColorMatrix type="matrix" values="0 0 0 0 0.117647 0 0 0 0 0.117647 0 0 0 0 0.117647 0 0 0 0.12 0"/>
<feBlend mode="normal" in2="BackgroundImageFix" result="effect1_dropShadow_905_1646"/>
<feBlend mode="normal" in="SourceGraphic" in2="effect1_dropShadow_905_1646" result="shape"/>
</filter>
</defs>
</svg>
