<svg width="802" height="258" viewBox="0 0 802 258" fill="none" xmlns="http://www.w3.org/2000/svg">
<rect width="400" height="256" transform="translate(1 1)" fill="white"/>
<rect width="400" height="103" transform="translate(1 77.5)" fill="white"/>
<rect width="320" height="73" transform="translate(41 92.5)" fill="white"/>
<path d="M41.455 105.5C41.3857 105.5 41.3207 105.474 41.26 105.422C41.208 105.37 41.182 105.305 41.182 105.227L41.208 105.11L44.341 96.725C44.4017 96.5083 44.5533 96.4 44.796 96.4H46.213C46.4383 96.4 46.59 96.5083 46.668 96.725L49.801 105.11C49.8097 105.136 49.814 105.175 49.814 105.227C49.814 105.305 49.788 105.37 49.736 105.422C49.684 105.474 49.6233 105.5 49.554 105.5H48.423C48.3103 105.5 48.2237 105.474 48.163 105.422C48.1023 105.37 48.0633 105.314 48.046 105.253L47.435 103.667H43.574L42.963 105.253C42.8937 105.418 42.768 105.5 42.586 105.5H41.455ZM46.98 102.172L45.498 98.155L44.029 102.172H46.98ZM51.3527 105.5C51.2573 105.5 51.1793 105.474 51.1187 105.422C51.058 105.361 51.0277 105.283 51.0277 105.188V96.725C51.0277 96.6297 51.058 96.5517 51.1187 96.491C51.1793 96.4303 51.2573 96.4 51.3527 96.4H52.3797C52.5617 96.4 52.6917 96.4823 52.7697 96.647L55.2787 101.327L57.8137 96.647C57.9003 96.4823 58.0303 96.4 58.2037 96.4H59.2177C59.313 96.4 59.391 96.4303 59.4517 96.491C59.5123 96.5517 59.5427 96.6297 59.5427 96.725V105.188C59.5427 105.283 59.5123 105.361 59.4517 105.422C59.391 105.474 59.313 105.5 59.2177 105.5H58.1257C58.039 105.5 57.9653 105.47 57.9047 105.409C57.844 105.348 57.8137 105.275 57.8137 105.188V99.559L55.9937 103.03C55.881 103.221 55.7337 103.316 55.5517 103.316H55.0187C54.8367 103.316 54.6893 103.221 54.5767 103.03L52.7567 99.559V105.188C52.7567 105.275 52.7263 105.348 52.6657 105.409C52.6137 105.47 52.54 105.5 52.4447 105.5H51.3527ZM65.0618 105.63C63.8831 105.63 62.9644 105.331 62.3058 104.733C61.6471 104.135 61.3004 103.247 61.2658 102.068C61.2571 101.817 61.2528 101.448 61.2528 100.963C61.2528 100.469 61.2571 100.096 61.2658 99.845C61.3004 98.6923 61.6558 97.8083 62.3318 97.193C63.0078 96.5777 63.9178 96.27 65.0618 96.27C66.2058 96.27 67.1158 96.5777 67.7918 97.193C68.4764 97.8083 68.8361 98.6923 68.8708 99.845C68.8881 100.348 68.8968 100.72 68.8968 100.963C68.8968 101.197 68.8881 101.565 68.8708 102.068C68.8274 103.247 68.4764 104.135 67.8178 104.733C67.1591 105.331 66.2404 105.63 65.0618 105.63ZM65.0618 104.135C65.6424 104.135 66.1061 103.962 66.4528 103.615C66.7994 103.26 66.9858 102.722 67.0118 102.003C67.0291 101.483 67.0378 101.132 67.0378 100.95C67.0378 100.751 67.0291 100.4 67.0118 99.897C66.9858 99.1777 66.7994 98.6447 66.4528 98.298C66.1061 97.9427 65.6424 97.765 65.0618 97.765C64.4898 97.765 64.0304 97.9427 63.6838 98.298C63.3371 98.6447 63.1508 99.1777 63.1248 99.897C63.1161 100.148 63.1118 100.499 63.1118 100.95C63.1118 101.392 63.1161 101.743 63.1248 102.003C63.1508 102.722 63.3328 103.26 63.6708 103.615C64.0174 103.962 64.4811 104.135 65.0618 104.135ZM74.2308 105.63C73.0608 105.63 72.1508 105.331 71.5008 104.733C70.8508 104.135 70.5258 103.229 70.5258 102.016V96.725C70.5258 96.6297 70.5518 96.5517 70.6038 96.491C70.6645 96.4303 70.7425 96.4 70.8378 96.4H72.0208C72.1162 96.4 72.1898 96.4303 72.2418 96.491C72.3025 96.5517 72.3328 96.6297 72.3328 96.725V102.016C72.3328 102.709 72.4975 103.234 72.8268 103.589C73.1562 103.936 73.6242 104.109 74.2308 104.109C74.8375 104.109 75.3012 103.936 75.6218 103.589C75.9512 103.234 76.1158 102.709 76.1158 102.016V96.725C76.1158 96.6297 76.1462 96.5517 76.2068 96.491C76.2675 96.4303 76.3455 96.4 76.4408 96.4H77.6108C77.7062 96.4 77.7798 96.4303 77.8318 96.491C77.8925 96.5517 77.9228 96.6297 77.9228 96.725V102.016C77.9228 103.229 77.5978 104.135 76.9478 104.733C76.3065 105.331 75.4008 105.63 74.2308 105.63ZM80.1834 105.5C80.0968 105.5 80.0231 105.47 79.9624 105.409C79.9018 105.348 79.8714 105.275 79.8714 105.188V96.725C79.8714 96.6297 79.8974 96.5517 79.9494 96.491C80.0101 96.4303 80.0881 96.4 80.1834 96.4H81.1844C81.2884 96.4 81.3664 96.4217 81.4184 96.465C81.4704 96.4997 81.5181 96.5473 81.5614 96.608L85.3054 102.432V96.725C85.3054 96.6297 85.3314 96.5517 85.3834 96.491C85.4441 96.4303 85.5221 96.4 85.6174 96.4H86.7094C86.8048 96.4 86.8828 96.4303 86.9434 96.491C87.0041 96.5517 87.0344 96.6297 87.0344 96.725V105.175C87.0344 105.27 87.0041 105.348 86.9434 105.409C86.8828 105.47 86.8091 105.5 86.7224 105.5H85.7084C85.5611 105.5 85.4354 105.431 85.3314 105.292L81.6004 99.598V105.188C81.6004 105.283 81.5701 105.361 81.5094 105.422C81.4488 105.474 81.3708 105.5 81.2754 105.5H80.1834ZM91.3768 105.5C91.2902 105.5 91.2165 105.47 91.1558 105.409C91.0952 105.348 91.0648 105.275 91.0648 105.188V97.999H88.6598C88.5732 97.999 88.4995 97.9687 88.4388 97.908C88.3782 97.8473 88.3478 97.7737 88.3478 97.687V96.725C88.3478 96.6297 88.3738 96.5517 88.4258 96.491C88.4865 96.4303 88.5645 96.4 88.6598 96.4H95.2898C95.3852 96.4 95.4632 96.4303 95.5238 96.491C95.5845 96.5517 95.6148 96.6297 95.6148 96.725V97.687C95.6148 97.7737 95.5845 97.8473 95.5238 97.908C95.4632 97.9687 95.3852 97.999 95.2898 97.999H92.8978V105.188C92.8978 105.275 92.8675 105.348 92.8068 105.409C92.7462 105.47 92.6682 105.5 92.5728 105.5H91.3768Z" fill="#A0A0A5"/>
<rect x="41.5" y="121" width="319" height="44" rx="2.5" fill="#F5F7F9"/>
<path d="M60.35 149C60.25 149 60.165 148.965 60.095 148.895C60.035 148.835 60.005 148.755 60.005 148.655V147.605C59.305 147.545 58.7 147.385 58.19 147.125C57.68 146.855 57.29 146.525 57.02 146.135C56.76 145.735 56.62 145.31 56.6 144.86C56.6 144.78 56.63 144.71 56.69 144.65C56.76 144.58 56.84 144.545 56.93 144.545H57.71C57.89 144.545 58.015 144.645 58.085 144.845C58.185 145.265 58.445 145.625 58.865 145.925C59.285 146.225 59.88 146.375 60.65 146.375C61.48 146.375 62.105 146.23 62.525 145.94C62.945 145.64 63.155 145.225 63.155 144.695C63.155 144.355 63.05 144.08 62.84 143.87C62.64 143.66 62.34 143.475 61.94 143.315C61.54 143.155 60.94 142.955 60.14 142.715C59.36 142.495 58.74 142.26 58.28 142.01C57.82 141.76 57.475 141.45 57.245 141.08C57.015 140.71 56.9 140.245 56.9 139.685C56.9 138.945 57.175 138.32 57.725 137.81C58.275 137.29 59.035 136.98 60.005 136.88V135.845C60.005 135.745 60.035 135.665 60.095 135.605C60.165 135.535 60.25 135.5 60.35 135.5H60.92C61.02 135.5 61.1 135.535 61.16 135.605C61.23 135.665 61.265 135.745 61.265 135.845V136.895C61.905 136.975 62.45 137.155 62.9 137.435C63.36 137.715 63.705 138.045 63.935 138.425C64.175 138.805 64.305 139.185 64.325 139.565C64.325 139.645 64.295 139.715 64.235 139.775C64.185 139.835 64.11 139.865 64.01 139.865H63.215C63.005 139.865 62.875 139.77 62.825 139.58C62.765 139.16 62.53 138.815 62.12 138.545C61.71 138.265 61.195 138.125 60.575 138.125C59.895 138.125 59.36 138.255 58.97 138.515C58.58 138.775 58.385 139.16 58.385 139.67C58.385 140.01 58.475 140.29 58.655 140.51C58.845 140.73 59.13 140.925 59.51 141.095C59.89 141.255 60.445 141.44 61.175 141.65C62.025 141.88 62.695 142.12 63.185 142.37C63.675 142.61 64.04 142.915 64.28 143.285C64.52 143.645 64.64 144.105 64.64 144.665C64.64 145.515 64.34 146.2 63.74 146.72C63.14 147.23 62.315 147.53 61.265 147.62V148.655C61.265 148.755 61.23 148.835 61.16 148.895C61.1 148.965 61.02 149 60.92 149H60.35Z" fill="#303032"/>
<rect x="41.5" y="121" width="319" height="44" rx="2.5" stroke="#DDDDE2"/>
<path fill-rule="evenodd" clip-rule="evenodd" d="M338.583 145C338.347 145 338.135 145.139 338.044 145.353C337.954 145.566 338.004 145.812 338.171 145.975L341.088 148.833C341.315 149.056 341.685 149.056 341.912 148.833L344.829 145.975C344.996 145.812 345.046 145.566 344.956 145.353C344.865 145.139 344.653 145 344.417 145H338.583Z" fill="black"/>
<path fill-rule="evenodd" clip-rule="evenodd" d="M344.417 141C344.653 141 344.865 140.861 344.956 140.647C345.046 140.434 344.996 140.188 344.829 140.025L341.912 137.167C341.685 136.944 341.315 136.944 341.088 137.167L338.171 140.025C338.004 140.188 337.954 140.434 338.044 140.647C338.135 140.861 338.347 141 338.583 141L344.417 141Z" fill="black"/>
<path d="M0.5 0.5H52.5V17C52.5 18.933 50.933 20.5 49 20.5H0.5V0.5Z" fill="#F5F7F9"/>
<path d="M13.122 14C13.0487 14 12.9863 13.9743 12.935 13.923C12.8837 13.8717 12.858 13.8093 12.858 13.736V6.564C12.858 6.48333 12.8837 6.421 12.935 6.377C12.9863 6.32567 13.0487 6.3 13.122 6.3H14.156C14.2367 6.3 14.299 6.32567 14.343 6.377C14.3943 6.421 14.42 6.48333 14.42 6.564V13.736C14.42 13.8093 14.3943 13.8717 14.343 13.923C14.299 13.9743 14.2367 14 14.156 14H13.122ZM16.2771 14C16.2038 14 16.1414 13.9743 16.0901 13.923C16.0388 13.8717 16.0131 13.8093 16.0131 13.736V8.544C16.0131 8.47067 16.0388 8.40833 16.0901 8.357C16.1414 8.30567 16.2038 8.28 16.2771 8.28H17.1791C17.2524 8.28 17.3148 8.30567 17.3661 8.357C17.4174 8.40833 17.4431 8.47067 17.4431 8.544V8.995C17.8758 8.445 18.4881 8.17 19.2801 8.17C19.9548 8.17 20.4901 8.39367 20.8861 8.841C21.2821 9.281 21.4801 9.88233 21.4801 10.645V13.736C21.4801 13.8093 21.4544 13.8717 21.4031 13.923C21.3591 13.9743 21.2968 14 21.2161 14H20.2481C20.1748 14 20.1124 13.9743 20.0611 13.923C20.0098 13.8717 19.9841 13.8093 19.9841 13.736V10.711C19.9841 10.2783 19.8778 9.94467 19.6651 9.71C19.4598 9.468 19.1591 9.347 18.7631 9.347C18.3744 9.347 18.0664 9.468 17.8391 9.71C17.6191 9.952 17.5091 10.2857 17.5091 10.711V13.736C17.5091 13.8093 17.4834 13.8717 17.4321 13.923C17.3881 13.9743 17.3258 14 17.2451 14H16.2771ZM23.1524 16.09C23.079 16.09 23.0167 16.0643 22.9654 16.013C22.914 15.969 22.8884 15.9067 22.8884 15.826V8.544C22.8884 8.46333 22.914 8.401 22.9654 8.357C23.0167 8.30567 23.079 8.28 23.1524 8.28H24.0214C24.102 8.28 24.1644 8.30567 24.2084 8.357C24.2597 8.401 24.2854 8.46333 24.2854 8.544V8.984C24.696 8.44133 25.2827 8.17 26.0454 8.17C26.786 8.17 27.3544 8.40467 27.7504 8.874C28.1464 9.336 28.359 9.963 28.3884 10.755C28.3957 10.843 28.3994 10.9713 28.3994 11.14C28.3994 11.316 28.3957 11.448 28.3884 11.536C28.359 12.306 28.1464 12.9293 27.7504 13.406C27.3544 13.8753 26.786 14.11 26.0454 14.11C25.3047 14.11 24.74 13.8497 24.3514 13.329V15.826C24.3514 15.9067 24.3257 15.969 24.2744 16.013C24.2304 16.0643 24.168 16.09 24.0874 16.09H23.1524ZM25.6384 12.933C26.4304 12.933 26.852 12.4453 26.9034 11.47C26.9107 11.3967 26.9144 11.2867 26.9144 11.14C26.9144 10.9933 26.9107 10.8833 26.9034 10.81C26.852 9.83467 26.4304 9.347 25.6384 9.347C25.213 9.347 24.8977 9.48267 24.6924 9.754C24.487 10.0253 24.3734 10.359 24.3514 10.755L24.3404 11.173L24.3514 11.602C24.366 11.9687 24.4797 12.284 24.6924 12.548C24.9124 12.8047 25.2277 12.933 25.6384 12.933ZM31.7572 14.11C31.0825 14.11 30.5509 13.89 30.1622 13.45C29.7735 13.0027 29.5792 12.3977 29.5792 11.635V8.544C29.5792 8.47067 29.6049 8.40833 29.6562 8.357C29.7075 8.30567 29.7699 8.28 29.8432 8.28H30.8112C30.8919 8.28 30.9542 8.30567 30.9982 8.357C31.0495 8.401 31.0752 8.46333 31.0752 8.544V11.569C31.0752 12.4783 31.4749 12.933 32.2742 12.933C32.6555 12.933 32.9562 12.812 33.1762 12.57C33.4035 12.328 33.5172 11.9943 33.5172 11.569V8.544C33.5172 8.47067 33.5429 8.40833 33.5942 8.357C33.6455 8.30567 33.7079 8.28 33.7812 8.28H34.7492C34.8299 8.28 34.8922 8.30567 34.9362 8.357C34.9875 8.401 35.0132 8.46333 35.0132 8.544V13.736C35.0132 13.8093 34.9875 13.8717 34.9362 13.923C34.8922 13.9743 34.8299 14 34.7492 14H33.8582C33.7849 14 33.7225 13.9743 33.6712 13.923C33.6199 13.8717 33.5942 13.8093 33.5942 13.736V13.285C33.1835 13.835 32.5712 14.11 31.7572 14.11ZM39.0512 14C38.3839 14 37.8816 13.8277 37.5442 13.483C37.2142 13.131 37.0492 12.6177 37.0492 11.943V9.446H36.1802C36.1069 9.446 36.0446 9.42033 35.9932 9.369C35.9419 9.31033 35.9162 9.24433 35.9162 9.171V8.544C35.9162 8.47067 35.9419 8.40833 35.9932 8.357C36.0446 8.30567 36.1069 8.28 36.1802 8.28H37.0492V6.454C37.0492 6.37333 37.0749 6.311 37.1262 6.267C37.1776 6.21567 37.2399 6.19 37.3132 6.19H38.2042C38.2849 6.19 38.3472 6.21567 38.3912 6.267C38.4426 6.311 38.4682 6.37333 38.4682 6.454V8.28H39.8432C39.9239 8.28 39.9862 8.30567 40.0302 8.357C40.0816 8.401 40.1072 8.46333 40.1072 8.544V9.171C40.1072 9.25167 40.0816 9.31767 40.0302 9.369C39.9789 9.42033 39.9166 9.446 39.8432 9.446H38.4682V11.833C38.4682 12.1483 38.5232 12.3867 38.6332 12.548C38.7432 12.7093 38.9266 12.79 39.1832 12.79H39.9422C40.0156 12.79 40.0779 12.8157 40.1292 12.867C40.1806 12.9183 40.2062 12.9807 40.2062 13.054V13.736C40.2062 13.8093 40.1806 13.8717 40.1292 13.923C40.0852 13.9743 40.0229 14 39.9422 14H39.0512Z" fill="#535356"/>
<path d="M0.5 0.5H52.5V17C52.5 18.933 50.933 20.5 49 20.5H0.5V0.5Z" stroke="#EAEAEF"/>
<mask id="path-9-inside-1_905_1534" fill="white">
<path d="M401 1H801V257H401V1Z"/>
</mask>
<path d="M401 1H801V257H401V1Z" fill="#F5F7F9"/>
<g filter="url(#filter0_d_905_1534)">
<mask id="path-12-inside-2_905_1534" fill="white">
<path d="M465 31H553V80H465V31Z"/>
</mask>
<path d="M465 31H553V80H465V31Z" fill="white"/>
<rect x="485" y="47" width="48" height="17" rx="5" fill="#F2F2F6"/>
<path d="M553 79H465V81H553V79Z" fill="#CBC9CD" mask="url(#path-12-inside-2_905_1534)"/>
<mask id="path-15-inside-3_905_1534" fill="white">
<path d="M465 80H553V129H465V80Z"/>
</mask>
<path d="M465 80H553V129H465V80Z" fill="white"/>
<rect x="485" y="96" width="48" height="17" rx="5" fill="#F2F2F6"/>
<path d="M553 128H465V130H553V128Z" fill="#CBC9CD" mask="url(#path-15-inside-3_905_1534)"/>
<mask id="path-18-inside-4_905_1534" fill="white">
<path d="M465 129H553V178H465V129Z"/>
</mask>
<path d="M465 129H553V178H465V129Z" fill="white"/>
<rect x="485" y="145" width="48" height="17" rx="5" fill="#F2F2F6"/>
<path d="M553 177H465V179H553V177Z" fill="#CBC9CD" mask="url(#path-18-inside-4_905_1534)"/>
<mask id="path-21-inside-5_905_1534" fill="white">
<path d="M465 178H553V227H465V178Z"/>
</mask>
<path d="M465 178H553V227H465V178Z" fill="white"/>
<rect x="485" y="194" width="48" height="17" rx="5" fill="#F2F2F6"/>
<path d="M553 226H465V228H553V226Z" fill="#CBC9CD" mask="url(#path-21-inside-5_905_1534)"/>
<mask id="path-24-inside-6_905_1534" fill="white">
<path d="M553 31H649V80H553V31Z"/>
</mask>
<path d="M553 31H649V80H553V31Z" fill="white"/>
<path d="M573.429 60C573.351 60 573.286 59.974 573.234 59.922C573.182 59.8613 573.156 59.7963 573.156 59.727C573.156 59.6837 573.16 59.6447 573.169 59.61L576.263 51.251C576.289 51.1557 576.341 51.0733 576.419 51.004C576.497 50.9347 576.605 50.9 576.744 50.9H578.408C578.547 50.9 578.655 50.9347 578.733 51.004C578.811 51.0733 578.863 51.1557 578.889 51.251L581.983 59.61C581.992 59.6447 581.996 59.6837 581.996 59.727C581.996 59.7963 581.97 59.8613 581.918 59.922C581.866 59.974 581.801 60 581.723 60H580.371C580.241 60 580.146 59.9697 580.085 59.909C580.024 59.8483 579.985 59.792 579.968 59.74L579.409 58.284H575.743L575.184 59.74C575.167 59.792 575.128 59.8483 575.067 59.909C575.006 59.9697 574.911 60 574.781 60H573.429ZM576.224 56.607H578.915L577.576 52.863L576.224 56.607ZM583.44 60C583.354 60 583.276 59.9697 583.206 59.909C583.146 59.8483 583.115 59.7703 583.115 59.675V51.225C583.115 51.1297 583.146 51.0517 583.206 50.991C583.276 50.9303 583.354 50.9 583.44 50.9H584.649C584.779 50.9 584.875 50.9347 584.935 51.004C585.005 51.0733 585.052 51.1253 585.078 51.16L587.47 55.567L589.888 51.16C589.906 51.1253 589.945 51.0733 590.005 51.004C590.075 50.9347 590.174 50.9 590.304 50.9H591.513C591.609 50.9 591.687 50.9303 591.747 50.991C591.808 51.0517 591.838 51.1297 591.838 51.225V59.675C591.838 59.7703 591.808 59.8483 591.747 59.909C591.687 59.9697 591.609 60 591.513 60H590.187C590.101 60 590.027 59.9697 589.966 59.909C589.906 59.8483 589.875 59.7703 589.875 59.675V54.423L588.224 57.517C588.181 57.595 588.125 57.6643 588.055 57.725C587.986 57.7857 587.895 57.816 587.782 57.816H587.171C587.059 57.816 586.968 57.7857 586.898 57.725C586.829 57.6643 586.773 57.595 586.729 57.517L585.078 54.423V59.675C585.078 59.7703 585.048 59.8483 584.987 59.909C584.927 59.9697 584.853 60 584.766 60H583.44ZM597.381 60.13C596.592 60.13 595.912 60 595.34 59.74C594.768 59.48 594.321 59.09 594.001 58.57C593.68 58.0413 593.507 57.3783 593.481 56.581C593.472 56.2083 593.468 55.84 593.468 55.476C593.468 55.1033 593.472 54.7263 593.481 54.345C593.507 53.565 593.68 52.9107 594.001 52.382C594.33 51.8447 594.781 51.4417 595.353 51.173C595.933 50.9043 596.609 50.77 597.381 50.77C598.143 50.77 598.811 50.9043 599.383 51.173C599.963 51.4417 600.418 51.8447 600.748 52.382C601.077 52.9107 601.25 53.565 601.268 54.345C601.285 54.7263 601.294 55.1033 601.294 55.476C601.294 55.84 601.285 56.2083 601.268 56.581C601.242 57.3783 601.068 58.0413 600.748 58.57C600.427 59.09 599.981 59.48 599.409 59.74C598.837 60 598.161 60.13 597.381 60.13ZM597.381 58.453C597.883 58.453 598.295 58.3013 598.616 57.998C598.945 57.686 599.118 57.192 599.136 56.516C599.153 56.1347 599.162 55.7793 599.162 55.45C599.162 55.112 599.153 54.7567 599.136 54.384C599.127 53.9333 599.045 53.565 598.889 53.279C598.733 52.993 598.525 52.785 598.265 52.655C598.013 52.5163 597.719 52.447 597.381 52.447C597.043 52.447 596.744 52.5163 596.484 52.655C596.224 52.785 596.016 52.993 595.86 53.279C595.712 53.565 595.63 53.9333 595.613 54.384C595.604 54.7567 595.6 55.112 595.6 55.45C595.6 55.7793 595.604 56.1347 595.613 56.516C595.639 57.192 595.812 57.686 596.133 57.998C596.453 58.3013 596.869 58.453 597.381 58.453ZM606.625 60.13C605.863 60.13 605.195 60.0043 604.623 59.753C604.051 59.493 603.609 59.0987 603.297 58.57C602.985 58.0327 602.829 57.3523 602.829 56.529V51.225C602.829 51.1297 602.86 51.0517 602.92 50.991C602.981 50.9303 603.059 50.9 603.154 50.9H604.571C604.667 50.9 604.745 50.9303 604.805 50.991C604.866 51.0517 604.896 51.1297 604.896 51.225V56.516C604.896 57.1573 605.048 57.634 605.351 57.946C605.655 58.258 606.079 58.414 606.625 58.414C607.163 58.414 607.583 58.258 607.886 57.946C608.19 57.634 608.341 57.1573 608.341 56.516V51.225C608.341 51.1297 608.372 51.0517 608.432 50.991C608.502 50.9303 608.58 50.9 608.666 50.9H610.096C610.183 50.9 610.257 50.9303 610.317 50.991C610.378 51.0517 610.408 51.1297 610.408 51.225V56.529C610.408 57.3523 610.252 58.0327 609.94 58.57C609.628 59.0987 609.191 59.493 608.627 59.753C608.064 60.0043 607.397 60.13 606.625 60.13ZM612.576 60C612.481 60 612.403 59.9697 612.342 59.909C612.281 59.8483 612.251 59.7703 612.251 59.675V51.225C612.251 51.1297 612.281 51.0517 612.342 50.991C612.403 50.9303 612.481 50.9 612.576 50.9H613.759C613.889 50.9 613.984 50.9303 614.045 50.991C614.106 51.0517 614.145 51.0993 614.162 51.134L617.633 56.555V51.225C617.633 51.1297 617.663 51.0517 617.724 50.991C617.785 50.9303 617.858 50.9 617.945 50.9H619.271C619.366 50.9 619.444 50.9303 619.505 50.991C619.566 51.0517 619.596 51.1297 619.596 51.225V59.675C619.596 59.7617 619.566 59.8397 619.505 59.909C619.444 59.9697 619.366 60 619.271 60H618.075C617.945 60 617.85 59.9697 617.789 59.909C617.737 59.8397 617.698 59.792 617.672 59.766L614.214 54.514V59.675C614.214 59.7703 614.184 59.8483 614.123 59.909C614.062 59.9697 613.984 60 613.889 60H612.576ZM623.846 60C623.75 60 623.672 59.9697 623.612 59.909C623.551 59.8483 623.521 59.7703 623.521 59.675V52.707H621.155C621.068 52.707 620.994 52.6767 620.934 52.616C620.873 52.5553 620.843 52.4817 620.843 52.395V51.225C620.843 51.1297 620.873 51.0517 620.934 50.991C620.994 50.9303 621.068 50.9 621.155 50.9H627.967C628.062 50.9 628.14 50.9303 628.201 50.991C628.261 51.0517 628.292 51.1297 628.292 51.225V52.395C628.292 52.4817 628.261 52.5553 628.201 52.616C628.14 52.6767 628.062 52.707 627.967 52.707H625.614V59.675C625.614 59.7703 625.583 59.8483 625.523 59.909C625.462 59.9697 625.384 60 625.289 60H623.846Z" fill="#A0A0A5"/>
<path d="M649 79H553V81H649V79Z" fill="#CBC9CD" mask="url(#path-24-inside-6_905_1534)"/>
<mask id="path-27-inside-7_905_1534" fill="white">
<path d="M553 80H649V129H553V80Z"/>
</mask>
<path d="M553 80H649V129H553V80Z" fill="white"/>
<path d="M613.134 109.13C612.458 109.13 611.864 109.022 611.353 108.805C610.842 108.58 610.443 108.259 610.157 107.843C609.871 107.427 609.728 106.942 609.728 106.387C609.728 105.876 609.854 105.429 610.105 105.048C610.356 104.658 610.699 104.359 611.132 104.151C610.785 103.952 610.517 103.692 610.326 103.371C610.144 103.042 610.053 102.66 610.053 102.227C610.053 101.464 610.33 100.866 610.885 100.433C611.448 99.991 612.198 99.77 613.134 99.77C614.061 99.77 614.802 99.991 615.357 100.433C615.92 100.866 616.202 101.46 616.202 102.214C616.202 102.647 616.107 103.029 615.916 103.358C615.734 103.679 615.474 103.943 615.136 104.151C615.569 104.359 615.912 104.658 616.163 105.048C616.414 105.429 616.54 105.876 616.54 106.387C616.54 106.942 616.397 107.427 616.111 107.843C615.825 108.259 615.422 108.58 614.902 108.805C614.391 109.022 613.801 109.13 613.134 109.13ZM613.134 103.683C613.654 103.674 614.092 103.54 614.447 103.28C614.802 103.02 614.98 102.678 614.98 102.253C614.98 101.82 614.802 101.473 614.447 101.213C614.1 100.944 613.663 100.81 613.134 100.81C612.597 100.81 612.15 100.94 611.795 101.2C611.448 101.46 611.275 101.811 611.275 102.253C611.275 102.686 611.448 103.033 611.795 103.293C612.15 103.553 612.597 103.683 613.134 103.683ZM613.134 108.09C613.741 108.09 614.248 107.934 614.655 107.622C615.062 107.31 615.266 106.898 615.266 106.387C615.266 105.876 615.062 105.468 614.655 105.165C614.248 104.862 613.741 104.71 613.134 104.71C612.519 104.71 612.007 104.862 611.6 105.165C611.193 105.468 610.989 105.876 610.989 106.387C610.989 106.898 611.193 107.31 611.6 107.622C612.007 107.934 612.519 108.09 613.134 108.09ZM624.221 110.3C624.135 110.3 624.061 110.27 624 110.209C623.948 110.157 623.922 110.088 623.922 110.001V109.091C623.316 109.039 622.791 108.9 622.349 108.675C621.907 108.441 621.569 108.155 621.335 107.817C621.11 107.47 620.989 107.102 620.971 106.712C620.971 106.643 620.997 106.582 621.049 106.53C621.11 106.469 621.179 106.439 621.257 106.439H621.933C622.089 106.439 622.198 106.526 622.258 106.699C622.345 107.063 622.57 107.375 622.934 107.635C623.298 107.895 623.814 108.025 624.481 108.025C625.201 108.025 625.742 107.899 626.106 107.648C626.47 107.388 626.652 107.028 626.652 106.569C626.652 106.274 626.561 106.036 626.379 105.854C626.206 105.672 625.946 105.512 625.599 105.373C625.253 105.234 624.733 105.061 624.039 104.853C623.363 104.662 622.826 104.459 622.427 104.242C622.029 104.025 621.73 103.757 621.53 103.436C621.331 103.115 621.231 102.712 621.231 102.227C621.231 101.586 621.47 101.044 621.946 100.602C622.423 100.151 623.082 99.8827 623.922 99.796V98.899C623.922 98.8123 623.948 98.743 624 98.691C624.061 98.6303 624.135 98.6 624.221 98.6H624.715C624.802 98.6 624.871 98.6303 624.923 98.691C624.984 98.743 625.014 98.8123 625.014 98.899V99.809C625.569 99.8783 626.041 100.034 626.431 100.277C626.83 100.52 627.129 100.806 627.328 101.135C627.536 101.464 627.649 101.794 627.666 102.123C627.666 102.192 627.64 102.253 627.588 102.305C627.545 102.357 627.48 102.383 627.393 102.383H626.704C626.522 102.383 626.41 102.301 626.366 102.136C626.314 101.772 626.111 101.473 625.755 101.239C625.4 100.996 624.954 100.875 624.416 100.875C623.827 100.875 623.363 100.988 623.025 101.213C622.687 101.438 622.518 101.772 622.518 102.214C622.518 102.509 622.596 102.751 622.752 102.942C622.917 103.133 623.164 103.302 623.493 103.449C623.823 103.588 624.304 103.748 624.936 103.93C625.673 104.129 626.254 104.337 626.678 104.554C627.103 104.762 627.419 105.026 627.627 105.347C627.835 105.659 627.939 106.058 627.939 106.543C627.939 107.28 627.679 107.873 627.159 108.324C626.639 108.766 625.924 109.026 625.014 109.104V110.001C625.014 110.088 624.984 110.157 624.923 110.209C624.871 110.27 624.802 110.3 624.715 110.3H624.221Z" fill="#303032"/>
<path d="M649 128H553V130H649V128Z" fill="#CBC9CD" mask="url(#path-27-inside-7_905_1534)"/>
<mask id="path-30-inside-8_905_1534" fill="white">
<path d="M553 129H649V178H553V129Z"/>
</mask>
<path d="M553 129H649V178H553V129Z" fill="white"/>
<path d="M607.588 158C607.501 158 607.428 157.974 607.367 157.922C607.315 157.861 607.289 157.788 607.289 157.701V150.421L605.131 152.085C605.07 152.137 605.005 152.163 604.936 152.163C604.858 152.163 604.784 152.12 604.715 152.033L604.377 151.604C604.334 151.543 604.312 151.483 604.312 151.422C604.312 151.318 604.355 151.236 604.442 151.175L607.276 148.991C607.371 148.93 607.484 148.9 607.614 148.9H608.277C608.364 148.9 608.433 148.93 608.485 148.991C608.546 149.043 608.576 149.112 608.576 149.199V157.701C608.576 157.788 608.546 157.861 608.485 157.922C608.433 157.974 608.364 158 608.277 158H607.588ZM614.774 158C614.687 158 614.613 157.974 614.553 157.922C614.501 157.861 614.475 157.788 614.475 157.701V155.829H610.263C610.176 155.829 610.102 155.803 610.042 155.751C609.99 155.69 609.964 155.617 609.964 155.53V155.01C609.964 154.88 610.011 154.75 610.107 154.62L614.007 149.121C614.05 149.052 614.115 149 614.202 148.965C614.288 148.922 614.384 148.9 614.488 148.9H615.424C615.51 148.9 615.58 148.93 615.632 148.991C615.692 149.043 615.723 149.112 615.723 149.199V154.698H616.893C616.979 154.698 617.053 154.728 617.114 154.789C617.174 154.841 617.205 154.91 617.205 154.997V155.53C617.205 155.617 617.174 155.69 617.114 155.751C617.062 155.803 616.992 155.829 616.906 155.829H615.723V157.701C615.723 157.788 615.692 157.861 615.632 157.922C615.58 157.974 615.51 158 615.424 158H614.774ZM614.488 154.724V150.265L611.355 154.724H614.488ZM624.591 159.3C624.505 159.3 624.431 159.27 624.37 159.209C624.318 159.157 624.292 159.088 624.292 159.001V158.091C623.686 158.039 623.161 157.9 622.719 157.675C622.277 157.441 621.939 157.155 621.705 156.817C621.48 156.47 621.359 156.102 621.341 155.712C621.341 155.643 621.367 155.582 621.419 155.53C621.48 155.469 621.549 155.439 621.627 155.439H622.303C622.459 155.439 622.568 155.526 622.628 155.699C622.715 156.063 622.94 156.375 623.304 156.635C623.668 156.895 624.184 157.025 624.851 157.025C625.571 157.025 626.112 156.899 626.476 156.648C626.84 156.388 627.022 156.028 627.022 155.569C627.022 155.274 626.931 155.036 626.749 154.854C626.576 154.672 626.316 154.512 625.969 154.373C625.623 154.234 625.103 154.061 624.409 153.853C623.733 153.662 623.196 153.459 622.797 153.242C622.399 153.025 622.1 152.757 621.9 152.436C621.701 152.115 621.601 151.712 621.601 151.227C621.601 150.586 621.84 150.044 622.316 149.602C622.793 149.151 623.452 148.883 624.292 148.796V147.899C624.292 147.812 624.318 147.743 624.37 147.691C624.431 147.63 624.505 147.6 624.591 147.6H625.085C625.172 147.6 625.241 147.63 625.293 147.691C625.354 147.743 625.384 147.812 625.384 147.899V148.809C625.939 148.878 626.411 149.034 626.801 149.277C627.2 149.52 627.499 149.806 627.698 150.135C627.906 150.464 628.019 150.794 628.036 151.123C628.036 151.192 628.01 151.253 627.958 151.305C627.915 151.357 627.85 151.383 627.763 151.383H627.074C626.892 151.383 626.78 151.301 626.736 151.136C626.684 150.772 626.481 150.473 626.125 150.239C625.77 149.996 625.324 149.875 624.786 149.875C624.197 149.875 623.733 149.988 623.395 150.213C623.057 150.438 622.888 150.772 622.888 151.214C622.888 151.509 622.966 151.751 623.122 151.942C623.287 152.133 623.534 152.302 623.863 152.449C624.193 152.588 624.674 152.748 625.306 152.93C626.043 153.129 626.624 153.337 627.048 153.554C627.473 153.762 627.789 154.026 627.997 154.347C628.205 154.659 628.309 155.058 628.309 155.543C628.309 156.28 628.049 156.873 627.529 157.324C627.009 157.766 626.294 158.026 625.384 158.104V159.001C625.384 159.088 625.354 159.157 625.293 159.209C625.241 159.27 625.172 159.3 625.085 159.3H624.591Z" fill="#303032"/>
<path d="M649 177H553V179H649V177Z" fill="#CBC9CD" mask="url(#path-30-inside-8_905_1534)"/>
<mask id="path-33-inside-9_905_1534" fill="white">
<path d="M553 178H649V227H553V178Z"/>
</mask>
<path d="M553 178H649V227H553V178Z" fill="white"/>
<path d="M607.588 207C607.501 207 607.428 206.974 607.367 206.922C607.315 206.861 607.289 206.788 607.289 206.701V199.421L605.131 201.085C605.07 201.137 605.005 201.163 604.936 201.163C604.858 201.163 604.784 201.12 604.715 201.033L604.377 200.604C604.334 200.543 604.312 200.483 604.312 200.422C604.312 200.318 604.355 200.236 604.442 200.175L607.276 197.991C607.371 197.93 607.484 197.9 607.614 197.9H608.277C608.364 197.9 608.433 197.93 608.485 197.991C608.546 198.043 608.576 198.112 608.576 198.199V206.701C608.576 206.788 608.546 206.861 608.485 206.922C608.433 206.974 608.364 207 608.277 207H607.588ZM613.435 207.13C612.75 207.13 612.156 207.022 611.654 206.805C611.16 206.58 610.783 206.289 610.523 205.934C610.271 205.579 610.137 205.206 610.12 204.816C610.12 204.738 610.146 204.677 610.198 204.634C610.25 204.582 610.315 204.556 610.393 204.556H611.03C611.212 204.556 611.333 204.651 611.394 204.842C611.506 205.275 611.749 205.583 612.122 205.765C612.494 205.938 612.932 206.025 613.435 206.025C614.05 206.025 614.54 205.882 614.904 205.596C615.268 205.301 615.45 204.881 615.45 204.335C615.45 203.286 614.813 202.762 613.539 202.762H612.304C612.217 202.762 612.143 202.736 612.083 202.684C612.031 202.623 612.005 202.55 612.005 202.463V202.112C612.005 201.991 612.052 201.874 612.148 201.761L614.67 199.005H610.835C610.748 199.005 610.674 198.979 610.614 198.927C610.562 198.866 610.536 198.793 610.536 198.706V198.212C610.536 198.125 610.562 198.052 610.614 197.991C610.674 197.93 610.748 197.9 610.835 197.9H616.022C616.117 197.9 616.191 197.93 616.243 197.991C616.303 198.043 616.334 198.117 616.334 198.212V198.68C616.334 198.784 616.286 198.884 616.191 198.979L613.682 201.774L613.89 201.787C614.774 201.813 615.471 202.043 615.983 202.476C616.494 202.909 616.75 203.542 616.75 204.374C616.75 204.937 616.607 205.427 616.321 205.843C616.035 206.259 615.64 206.58 615.138 206.805C614.635 207.022 614.067 207.13 613.435 207.13ZM624.325 208.3C624.238 208.3 624.164 208.27 624.104 208.209C624.052 208.157 624.026 208.088 624.026 208.001V207.091C623.419 207.039 622.895 206.9 622.453 206.675C622.011 206.441 621.673 206.155 621.439 205.817C621.213 205.47 621.092 205.102 621.075 204.712C621.075 204.643 621.101 204.582 621.153 204.53C621.213 204.469 621.283 204.439 621.361 204.439H622.037C622.193 204.439 622.301 204.526 622.362 204.699C622.448 205.063 622.674 205.375 623.038 205.635C623.402 205.895 623.917 206.025 624.585 206.025C625.304 206.025 625.846 205.899 626.21 205.648C626.574 205.388 626.756 205.028 626.756 204.569C626.756 204.274 626.665 204.036 626.483 203.854C626.309 203.672 626.049 203.512 625.703 203.373C625.356 203.234 624.836 203.061 624.143 202.853C623.467 202.662 622.929 202.459 622.531 202.242C622.132 202.025 621.833 201.757 621.634 201.436C621.434 201.115 621.335 200.712 621.335 200.227C621.335 199.586 621.573 199.044 622.05 198.602C622.526 198.151 623.185 197.883 624.026 197.796V196.899C624.026 196.812 624.052 196.743 624.104 196.691C624.164 196.63 624.238 196.6 624.325 196.6H624.819C624.905 196.6 624.975 196.63 625.027 196.691C625.087 196.743 625.118 196.812 625.118 196.899V197.809C625.672 197.878 626.145 198.034 626.535 198.277C626.933 198.52 627.232 198.806 627.432 199.135C627.64 199.464 627.752 199.794 627.77 200.123C627.77 200.192 627.744 200.253 627.692 200.305C627.648 200.357 627.583 200.383 627.497 200.383H626.808C626.626 200.383 626.513 200.301 626.47 200.136C626.418 199.772 626.214 199.473 625.859 199.239C625.503 198.996 625.057 198.875 624.52 198.875C623.93 198.875 623.467 198.988 623.129 199.213C622.791 199.438 622.622 199.772 622.622 200.214C622.622 200.509 622.7 200.751 622.856 200.942C623.02 201.133 623.267 201.302 623.597 201.449C623.926 201.588 624.407 201.748 625.04 201.93C625.776 202.129 626.357 202.337 626.782 202.554C627.206 202.762 627.523 203.026 627.731 203.347C627.939 203.659 628.043 204.058 628.043 204.543C628.043 205.28 627.783 205.873 627.263 206.324C626.743 206.766 626.028 207.026 625.118 207.104V208.001C625.118 208.088 625.087 208.157 625.027 208.209C624.975 208.27 624.905 208.3 624.819 208.3H624.325Z" fill="#303032"/>
<path d="M649 226H553V228H649V226Z" fill="#CBC9CD" mask="url(#path-33-inside-9_905_1534)"/>
<mask id="path-36-inside-10_905_1534" fill="white">
<path d="M649 31H737V80H649V31Z"/>
</mask>
<path d="M649 31H737V80H649V31Z" fill="white"/>
<rect x="669" y="47" width="48" height="17" rx="5" fill="#F2F2F6"/>
<path d="M737 79H649V81H737V79Z" fill="#CBC9CD" mask="url(#path-36-inside-10_905_1534)"/>
<mask id="path-39-inside-11_905_1534" fill="white">
<path d="M649 80H737V129H649V80Z"/>
</mask>
<path d="M649 80H737V129H649V80Z" fill="white"/>
<rect x="669" y="96" width="48" height="17" rx="5" fill="#F2F2F6"/>
<path d="M737 128H649V130H737V128Z" fill="#CBC9CD" mask="url(#path-39-inside-11_905_1534)"/>
<mask id="path-42-inside-12_905_1534" fill="white">
<path d="M649 129H737V178H649V129Z"/>
</mask>
<path d="M649 129H737V178H649V129Z" fill="white"/>
<rect x="669" y="145" width="48" height="17" rx="5" fill="#F2F2F6"/>
<path d="M737 177H649V179H737V177Z" fill="#CBC9CD" mask="url(#path-42-inside-12_905_1534)"/>
<mask id="path-45-inside-13_905_1534" fill="white">
<path d="M649 178H737V227H649V178Z"/>
</mask>
<path d="M649 178H737V227H649V178Z" fill="white"/>
<rect x="669" y="194" width="48" height="17" rx="5" fill="#F2F2F6"/>
<path d="M737 226H649V228H737V226Z" fill="#CBC9CD" mask="url(#path-45-inside-13_905_1534)"/>
</g>
<path d="M401.5 0.5H463.5V17C463.5 18.933 461.933 20.5 460 20.5H401.5V0.5Z" fill="#F5F7F9"/>
<path d="M414.122 14C414.049 14 413.986 13.9743 413.935 13.923C413.884 13.8717 413.858 13.8093 413.858 13.736V6.575C413.858 6.49433 413.88 6.42833 413.924 6.377C413.975 6.32567 414.041 6.3 414.122 6.3H416.806C418.962 6.3 420.062 7.29733 420.106 9.292C420.121 9.71733 420.128 10.0033 420.128 10.15C420.128 10.2893 420.121 10.5717 420.106 10.997C420.077 12.0237 419.802 12.7827 419.281 13.274C418.76 13.758 417.954 14 416.861 14H414.122ZM416.806 12.735C417.422 12.735 417.866 12.5993 418.137 12.328C418.408 12.0493 418.551 11.5947 418.566 10.964C418.581 10.524 418.588 10.249 418.588 10.139C418.588 10.0217 418.581 9.75033 418.566 9.325C418.551 8.72367 418.397 8.28 418.104 7.994C417.818 7.708 417.367 7.565 416.751 7.565H415.387V12.735H416.806ZM421.68 7.334C421.607 7.334 421.545 7.30833 421.493 7.257C421.442 7.20567 421.416 7.14333 421.416 7.07V6.278C421.416 6.20467 421.442 6.14233 421.493 6.091C421.545 6.03967 421.607 6.014 421.68 6.014H422.681C422.755 6.014 422.817 6.03967 422.868 6.091C422.927 6.14233 422.956 6.20467 422.956 6.278V7.07C422.956 7.14333 422.931 7.20567 422.879 7.257C422.828 7.30833 422.762 7.334 422.681 7.334H421.68ZM421.724 14C421.651 14 421.589 13.9743 421.537 13.923C421.486 13.8717 421.46 13.8093 421.46 13.736V8.544C421.46 8.47067 421.486 8.40833 421.537 8.357C421.589 8.30567 421.651 8.28 421.724 8.28H422.637C422.718 8.28 422.78 8.30567 422.824 8.357C422.876 8.401 422.901 8.46333 422.901 8.544V13.736C422.901 13.8093 422.876 13.8717 422.824 13.923C422.78 13.9743 422.718 14 422.637 14H421.724ZM426.528 14.11C425.978 14.11 425.516 14.0293 425.142 13.868C424.768 13.6993 424.489 13.505 424.306 13.285C424.13 13.0577 424.042 12.8633 424.042 12.702C424.042 12.6287 424.067 12.57 424.119 12.526C424.17 12.482 424.229 12.46 424.295 12.46H425.164C425.23 12.46 425.285 12.4857 425.329 12.537C425.358 12.559 425.435 12.625 425.56 12.735C425.684 12.8523 425.831 12.944 426 13.01C426.168 13.076 426.355 13.109 426.561 13.109C426.854 13.109 427.096 13.0503 427.287 12.933C427.477 12.8157 427.573 12.6543 427.573 12.449C427.573 12.295 427.529 12.1703 427.441 12.075C427.36 11.9797 427.21 11.8953 426.99 11.822C426.77 11.7413 426.443 11.657 426.011 11.569C425.387 11.437 424.925 11.2353 424.625 10.964C424.331 10.6927 424.185 10.3333 424.185 9.886C424.185 9.59267 424.273 9.31767 424.449 9.061C424.625 8.797 424.885 8.58433 425.23 8.423C425.582 8.25433 426 8.17 426.484 8.17C426.975 8.17 427.4 8.25067 427.76 8.412C428.119 8.566 428.39 8.753 428.574 8.973C428.764 9.18567 428.86 9.37633 428.86 9.545C428.86 9.611 428.834 9.66967 428.783 9.721C428.739 9.765 428.684 9.787 428.618 9.787H427.804C427.745 9.787 427.683 9.76133 427.617 9.71C427.565 9.67333 427.485 9.60367 427.375 9.501C427.265 9.39833 427.136 9.31767 426.99 9.259C426.843 9.20033 426.671 9.171 426.473 9.171C426.201 9.171 425.989 9.22967 425.835 9.347C425.688 9.46433 425.615 9.61833 425.615 9.809C425.615 9.94833 425.651 10.062 425.725 10.15C425.798 10.238 425.941 10.3223 426.154 10.403C426.366 10.4837 426.685 10.5643 427.111 10.645C427.815 10.7843 428.317 11.0007 428.618 11.294C428.926 11.5873 429.08 11.9467 429.08 12.372C429.08 12.8853 428.856 13.3033 428.409 13.626C427.961 13.9487 427.334 14.11 426.528 14.11ZM430.49 16.09C430.417 16.09 430.355 16.0643 430.303 16.013C430.252 15.969 430.226 15.9067 430.226 15.826V8.544C430.226 8.46333 430.252 8.401 430.303 8.357C430.355 8.30567 430.417 8.28 430.49 8.28H431.359C431.44 8.28 431.502 8.30567 431.546 8.357C431.598 8.401 431.623 8.46333 431.623 8.544V8.984C432.034 8.44133 432.621 8.17 433.383 8.17C434.124 8.17 434.692 8.40467 435.088 8.874C435.484 9.336 435.697 9.963 435.726 10.755C435.734 10.843 435.737 10.9713 435.737 11.14C435.737 11.316 435.734 11.448 435.726 11.536C435.697 12.306 435.484 12.9293 435.088 13.406C434.692 13.8753 434.124 14.11 433.383 14.11C432.643 14.11 432.078 13.8497 431.689 13.329V15.826C431.689 15.9067 431.664 15.969 431.612 16.013C431.568 16.0643 431.506 16.09 431.425 16.09H430.49ZM432.976 12.933C433.768 12.933 434.19 12.4453 434.241 11.47C434.249 11.3967 434.252 11.2867 434.252 11.14C434.252 10.9933 434.249 10.8833 434.241 10.81C434.19 9.83467 433.768 9.347 432.976 9.347C432.551 9.347 432.236 9.48267 432.03 9.754C431.825 10.0253 431.711 10.359 431.689 10.755L431.678 11.173L431.689 11.602C431.704 11.9687 431.818 12.284 432.03 12.548C432.25 12.8047 432.566 12.933 432.976 12.933ZM437.247 14C437.174 14 437.111 13.9743 437.06 13.923C437.009 13.8717 436.983 13.8093 436.983 13.736V6.454C436.983 6.37333 437.009 6.311 437.06 6.267C437.111 6.21567 437.174 6.19 437.247 6.19H438.16C438.241 6.19 438.303 6.21567 438.347 6.267C438.398 6.311 438.424 6.37333 438.424 6.454V13.736C438.424 13.8093 438.398 13.8717 438.347 13.923C438.303 13.9743 438.241 14 438.16 14H437.247ZM441.544 14.11C441.17 14.11 440.826 14.0367 440.51 13.89C440.202 13.736 439.957 13.5307 439.773 13.274C439.597 13.0173 439.509 12.735 439.509 12.427C439.509 11.9283 439.711 11.525 440.114 11.217C440.518 10.909 441.071 10.7 441.775 10.59L443.282 10.37V10.139C443.282 9.81633 443.202 9.57433 443.04 9.413C442.879 9.25167 442.619 9.171 442.259 9.171C442.017 9.171 441.819 9.21867 441.665 9.314C441.519 9.402 441.401 9.49 441.313 9.578C441.225 9.67333 441.167 9.73567 441.137 9.765C441.108 9.853 441.053 9.897 440.972 9.897H440.125C440.059 9.897 440.001 9.875 439.949 9.831C439.905 9.787 439.883 9.72833 439.883 9.655C439.891 9.47167 439.979 9.26267 440.147 9.028C440.323 8.79333 440.591 8.59167 440.95 8.423C441.31 8.25433 441.75 8.17 442.27 8.17C443.136 8.17 443.766 8.36433 444.162 8.753C444.558 9.14167 444.756 9.65133 444.756 10.282V13.736C444.756 13.8093 444.731 13.8717 444.679 13.923C444.635 13.9743 444.573 14 444.492 14H443.601C443.528 14 443.466 13.9743 443.414 13.923C443.363 13.8717 443.337 13.8093 443.337 13.736V13.307C443.176 13.5417 442.945 13.736 442.644 13.89C442.351 14.0367 441.984 14.11 441.544 14.11ZM441.918 13.065C442.322 13.065 442.652 12.933 442.908 12.669C443.165 12.405 443.293 12.02 443.293 11.514V11.283L442.193 11.459C441.768 11.525 441.445 11.6313 441.225 11.778C441.013 11.9247 440.906 12.1043 440.906 12.317C440.906 12.5517 441.005 12.735 441.203 12.867C441.401 12.999 441.64 13.065 441.918 13.065ZM447.051 16.09C446.992 16.09 446.941 16.068 446.897 16.024C446.853 15.98 446.831 15.9287 446.831 15.87C446.831 15.804 446.846 15.7453 446.875 15.694L447.733 13.659L445.621 8.676C445.592 8.61 445.577 8.55867 445.577 8.522C445.584 8.456 445.61 8.401 445.654 8.357C445.698 8.30567 445.753 8.28 445.819 8.28H446.71C446.849 8.28 446.948 8.34967 447.007 8.489L448.47 12.086L449.977 8.489C450.036 8.34967 450.135 8.28 450.274 8.28H451.154C451.213 8.28 451.264 8.302 451.308 8.346C451.359 8.39 451.385 8.44133 451.385 8.5C451.385 8.55133 451.37 8.61 451.341 8.676L448.228 15.881C448.162 16.0203 448.059 16.09 447.92 16.09H447.051Z" fill="#535356"/>
<path d="M401.5 0.5H463.5V17C463.5 18.933 461.933 20.5 460 20.5H401.5V0.5Z" stroke="#EAEAEF"/>
<path d="M402 257V1H400V257H402Z" fill="#EAEAEF" mask="url(#path-9-inside-1_905_1534)"/>
<rect x="0.5" y="0.5" width="801" height="257" stroke="#EAEAEF"/>
<defs>
<filter id="filter0_d_905_1534" x="445" y="21" width="312" height="236" filterUnits="userSpaceOnUse" color-interpolation-filters="sRGB">
<feFlood flood-opacity="0" result="BackgroundImageFix"/>
<feColorMatrix in="SourceAlpha" type="matrix" values="0 0 0 0 0 0 0 0 0 0 0 0 0 0 0 0 0 0 127 0" result="hardAlpha"/>
<feOffset dy="10"/>
<feGaussianBlur stdDeviation="10"/>
<feComposite in2="hardAlpha" operator="out"/>
<feColorMatrix type="matrix" values="0 0 0 0 0.117647 0 0 0 0 0.117647 0 0 0 0 0.117647 0 0 0 0.12 0"/>
<feBlend mode="normal" in2="BackgroundImageFix" result="effect1_dropShadow_905_1534"/>
<feBlend mode="normal" in="SourceGraphic" in2="effect1_dropShadow_905_1534" result="shape"/>
</filter>
</defs>
</svg>
