<svg width="802" height="231" viewBox="0 0 802 231" fill="none" xmlns="http://www.w3.org/2000/svg">
<rect width="400" height="229" transform="translate(1 1)" fill="white"/>
<rect width="400" height="104" transform="translate(1 63.5)" fill="white"/>
<rect width="320" height="74" transform="translate(41 78.5)" fill="white"/>
<path d="M45.173 91.63C44.4017 91.63 43.7387 91.513 43.184 91.279C42.6293 91.045 42.209 90.7373 41.923 90.356C41.637 89.9747 41.4853 89.563 41.468 89.121C41.468 89.043 41.494 88.978 41.546 88.926C41.598 88.874 41.663 88.848 41.741 88.848H42.898C43.002 88.848 43.08 88.8697 43.132 88.913C43.1927 88.9477 43.249 89.0083 43.301 89.095C43.3877 89.3897 43.587 89.6367 43.899 89.836C44.211 90.0353 44.6357 90.135 45.173 90.135C45.7883 90.135 46.252 90.0353 46.564 89.836C46.876 89.628 47.032 89.342 47.032 88.978C47.032 88.7353 46.9497 88.536 46.785 88.38C46.629 88.224 46.3907 88.0897 46.07 87.977C45.758 87.8643 45.29 87.7257 44.666 87.561C43.6433 87.3183 42.8937 86.9977 42.417 86.599C41.949 86.1917 41.715 85.6153 41.715 84.87C41.715 84.3673 41.8493 83.921 42.118 83.531C42.3953 83.141 42.7897 82.8333 43.301 82.608C43.821 82.3827 44.4233 82.27 45.108 82.27C45.8187 82.27 46.434 82.3957 46.954 82.647C47.474 82.8983 47.8683 83.2147 48.137 83.596C48.4143 83.9687 48.5617 84.3413 48.579 84.714C48.579 84.792 48.553 84.857 48.501 84.909C48.449 84.961 48.384 84.987 48.306 84.987H47.097C46.915 84.987 46.7893 84.9047 46.72 84.74C46.668 84.4627 46.4947 84.233 46.2 84.051C45.9053 83.8603 45.5413 83.765 45.108 83.765C44.6227 83.765 44.2413 83.856 43.964 84.038C43.6867 84.22 43.548 84.4843 43.548 84.831C43.548 85.0737 43.6173 85.273 43.756 85.429C43.8947 85.585 44.1113 85.7237 44.406 85.845C44.7093 85.9663 45.1427 86.1007 45.706 86.248C46.4687 86.4213 47.0753 86.6163 47.526 86.833C47.9853 87.0497 48.3233 87.3227 48.54 87.652C48.7567 87.9813 48.865 88.4017 48.865 88.913C48.865 89.4677 48.709 89.953 48.397 90.369C48.0937 90.7763 47.6603 91.0883 47.097 91.305C46.5423 91.5217 45.901 91.63 45.173 91.63ZM52.5673 91.5C52.4806 91.5 52.4069 91.4697 52.3463 91.409C52.2856 91.3483 52.2553 91.2747 52.2553 91.188V83.999H49.8503C49.7636 83.999 49.6899 83.9687 49.6293 83.908C49.5686 83.8473 49.5383 83.7737 49.5383 83.687V82.725C49.5383 82.6297 49.5643 82.5517 49.6163 82.491C49.6769 82.4303 49.7549 82.4 49.8503 82.4H56.4803C56.5756 82.4 56.6536 82.4303 56.7143 82.491C56.7749 82.5517 56.8053 82.6297 56.8053 82.725V83.687C56.8053 83.7737 56.7749 83.8473 56.7143 83.908C56.6536 83.9687 56.5756 83.999 56.4803 83.999H54.0883V91.188C54.0883 91.2747 54.0579 91.3483 53.9973 91.409C53.9366 91.4697 53.8586 91.5 53.7633 91.5H52.5673ZM56.6132 91.5C56.5439 91.5 56.4789 91.474 56.4182 91.422C56.3662 91.37 56.3402 91.305 56.3402 91.227L56.3662 91.11L59.4992 82.725C59.5599 82.5083 59.7115 82.4 59.9542 82.4H61.3712C61.5965 82.4 61.7482 82.5083 61.8262 82.725L64.9592 91.11C64.9679 91.136 64.9722 91.175 64.9722 91.227C64.9722 91.305 64.9462 91.37 64.8942 91.422C64.8422 91.474 64.7815 91.5 64.7122 91.5H63.5812C63.4685 91.5 63.3819 91.474 63.3212 91.422C63.2605 91.37 63.2215 91.3137 63.2042 91.253L62.5932 89.667H58.7322L58.1212 91.253C58.0519 91.4177 57.9262 91.5 57.7442 91.5H56.6132ZM62.1382 88.172L60.6562 84.155L59.1872 88.172H62.1382ZM67.5477 91.5C67.4611 91.5 67.3874 91.4697 67.3267 91.409C67.2661 91.3483 67.2357 91.2747 67.2357 91.188V83.999H64.8307C64.7441 83.999 64.6704 83.9687 64.6097 83.908C64.5491 83.8473 64.5187 83.7737 64.5187 83.687V82.725C64.5187 82.6297 64.5447 82.5517 64.5967 82.491C64.6574 82.4303 64.7354 82.4 64.8307 82.4H71.4607C71.5561 82.4 71.6341 82.4303 71.6947 82.491C71.7554 82.5517 71.7857 82.6297 71.7857 82.725V83.687C71.7857 83.7737 71.7554 83.8473 71.6947 83.908C71.6341 83.9687 71.5561 83.999 71.4607 83.999H69.0687V91.188C69.0687 91.2747 69.0384 91.3483 68.9777 91.409C68.9171 91.4697 68.8391 91.5 68.7437 91.5H67.5477ZM76.7318 91.63C75.5618 91.63 74.6518 91.331 74.0018 90.733C73.3518 90.135 73.0268 89.2293 73.0268 88.016V82.725C73.0268 82.6297 73.0528 82.5517 73.1048 82.491C73.1655 82.4303 73.2435 82.4 73.3388 82.4H74.5218C74.6172 82.4 74.6908 82.4303 74.7428 82.491C74.8035 82.5517 74.8338 82.6297 74.8338 82.725V88.016C74.8338 88.7093 74.9985 89.2337 75.3278 89.589C75.6572 89.9357 76.1252 90.109 76.7318 90.109C77.3385 90.109 77.8022 89.9357 78.1228 89.589C78.4522 89.2337 78.6168 88.7093 78.6168 88.016V82.725C78.6168 82.6297 78.6472 82.5517 78.7078 82.491C78.7685 82.4303 78.8465 82.4 78.9418 82.4H80.1118C80.2072 82.4 80.2808 82.4303 80.3328 82.491C80.3935 82.5517 80.4238 82.6297 80.4238 82.725V88.016C80.4238 89.2293 80.0988 90.135 79.4488 90.733C78.8075 91.331 77.9018 91.63 76.7318 91.63ZM85.5314 91.63C84.7601 91.63 84.0971 91.513 83.5424 91.279C82.9877 91.045 82.5674 90.7373 82.2814 90.356C81.9954 89.9747 81.8437 89.563 81.8264 89.121C81.8264 89.043 81.8524 88.978 81.9044 88.926C81.9564 88.874 82.0214 88.848 82.0994 88.848H83.2564C83.3604 88.848 83.4384 88.8697 83.4904 88.913C83.5511 88.9477 83.6074 89.0083 83.6594 89.095C83.7461 89.3897 83.9454 89.6367 84.2574 89.836C84.5694 90.0353 84.9941 90.135 85.5314 90.135C86.1467 90.135 86.6104 90.0353 86.9224 89.836C87.2344 89.628 87.3904 89.342 87.3904 88.978C87.3904 88.7353 87.3081 88.536 87.1434 88.38C86.9874 88.224 86.7491 88.0897 86.4284 87.977C86.1164 87.8643 85.6484 87.7257 85.0244 87.561C84.0017 87.3183 83.2521 86.9977 82.7754 86.599C82.3074 86.1917 82.0734 85.6153 82.0734 84.87C82.0734 84.3673 82.2077 83.921 82.4764 83.531C82.7537 83.141 83.1481 82.8333 83.6594 82.608C84.1794 82.3827 84.7817 82.27 85.4664 82.27C86.1771 82.27 86.7924 82.3957 87.3124 82.647C87.8324 82.8983 88.2267 83.2147 88.4954 83.596C88.7727 83.9687 88.9201 84.3413 88.9374 84.714C88.9374 84.792 88.9114 84.857 88.8594 84.909C88.8074 84.961 88.7424 84.987 88.6644 84.987H87.4554C87.2734 84.987 87.1477 84.9047 87.0784 84.74C87.0264 84.4627 86.8531 84.233 86.5584 84.051C86.2637 83.8603 85.8997 83.765 85.4664 83.765C84.9811 83.765 84.5997 83.856 84.3224 84.038C84.0451 84.22 83.9064 84.4843 83.9064 84.831C83.9064 85.0737 83.9757 85.273 84.1144 85.429C84.2531 85.585 84.4697 85.7237 84.7644 85.845C85.0677 85.9663 85.5011 86.1007 86.0644 86.248C86.8271 86.4213 87.4337 86.6163 87.8844 86.833C88.3437 87.0497 88.6817 87.3227 88.8984 87.652C89.1151 87.9813 89.2234 88.4017 89.2234 88.913C89.2234 89.4677 89.0674 89.953 88.7554 90.369C88.4521 90.7763 88.0187 91.0883 87.4554 91.305C86.9007 91.5217 86.2594 91.63 85.5314 91.63Z" fill="#A0A0A5"/>
<rect x="41.5" y="107" width="319" height="45" rx="2.5" fill="#F5F7F9"/>
<path d="M57.65 133.5C57.55 133.5 57.465 133.47 57.395 133.41C57.335 133.34 57.305 133.255 57.305 133.155V123.345C57.305 123.245 57.335 123.165 57.395 123.105C57.465 123.035 57.55 123 57.65 123H58.445C58.545 123 58.625 123.035 58.685 123.105C58.755 123.165 58.79 123.245 58.79 123.345V133.155C58.79 133.255 58.755 133.34 58.685 133.41C58.625 133.47 58.545 133.5 58.445 133.5H57.65ZM61.5566 133.5C61.4566 133.5 61.3716 133.47 61.3016 133.41C61.2416 133.34 61.2116 133.255 61.2116 133.155V126.045C61.2116 125.945 61.2416 125.865 61.3016 125.805C61.3716 125.735 61.4566 125.7 61.5566 125.7H62.2616C62.3616 125.7 62.4416 125.735 62.5016 125.805C62.5716 125.865 62.6066 125.945 62.6066 126.045V126.705C62.8966 126.335 63.2366 126.05 63.6266 125.85C64.0266 125.65 64.5216 125.55 65.1116 125.55C66.0716 125.55 66.8166 125.86 67.3466 126.48C67.8866 127.09 68.1566 127.905 68.1566 128.925V133.155C68.1566 133.255 68.1216 133.34 68.0516 133.41C67.9916 133.47 67.9116 133.5 67.8116 133.5H67.0616C66.9616 133.5 66.8766 133.47 66.8066 133.41C66.7466 133.34 66.7166 133.255 66.7166 133.155V129C66.7166 128.29 66.5416 127.74 66.1916 127.35C65.8516 126.96 65.3566 126.765 64.7066 126.765C64.0766 126.765 63.5766 126.965 63.2066 127.365C62.8366 127.755 62.6516 128.3 62.6516 129V133.155C62.6516 133.255 62.6166 133.34 62.5466 133.41C62.4866 133.47 62.4066 133.5 62.3066 133.5H61.5566ZM74.345 136.35C74.245 136.35 74.16 136.315 74.09 136.245C74.03 136.185 74 136.105 74 136.005V126.045C74 125.945 74.03 125.865 74.09 125.805C74.16 125.735 74.245 125.7 74.345 125.7H75.035C75.135 125.7 75.215 125.735 75.275 125.805C75.345 125.865 75.38 125.945 75.38 126.045V126.705C75.94 125.935 76.76 125.55 77.84 125.55C78.89 125.55 79.675 125.88 80.195 126.54C80.725 127.2 81.01 128.05 81.05 129.09C81.06 129.2 81.065 129.37 81.065 129.6C81.065 129.83 81.06 130 81.05 130.11C81.01 131.14 80.725 131.99 80.195 132.66C79.665 133.32 78.88 133.65 77.84 133.65C76.8 133.65 75.99 133.275 75.41 132.525V136.005C75.41 136.105 75.38 136.185 75.32 136.245C75.26 136.315 75.18 136.35 75.08 136.35H74.345ZM77.525 132.435C78.235 132.435 78.75 132.215 79.07 131.775C79.4 131.335 79.58 130.755 79.61 130.035C79.62 129.935 79.625 129.79 79.625 129.6C79.625 127.71 78.925 126.765 77.525 126.765C76.835 126.765 76.315 126.995 75.965 127.455C75.625 127.905 75.44 128.445 75.41 129.075L75.395 129.645L75.41 130.23C75.43 130.82 75.62 131.335 75.98 131.775C76.34 132.215 76.855 132.435 77.525 132.435ZM83.2655 133.5C83.1655 133.5 83.0805 133.47 83.0105 133.41C82.9505 133.34 82.9205 133.255 82.9205 133.155V126.06C82.9205 125.96 82.9505 125.875 83.0105 125.805C83.0805 125.735 83.1655 125.7 83.2655 125.7H83.9555C84.0555 125.7 84.1405 125.735 84.2105 125.805C84.2805 125.875 84.3155 125.96 84.3155 126.06V126.72C84.7255 126.04 85.4255 125.7 86.4155 125.7H87.0005C87.1005 125.7 87.1805 125.735 87.2405 125.805C87.3105 125.865 87.3455 125.945 87.3455 126.045V126.66C87.3455 126.76 87.3105 126.84 87.2405 126.9C87.1805 126.96 87.1005 126.99 87.0005 126.99H86.1005C85.5605 126.99 85.1355 127.15 84.8255 127.47C84.5155 127.78 84.3605 128.205 84.3605 128.745V133.155C84.3605 133.255 84.3255 133.34 84.2555 133.41C84.1855 133.47 84.1005 133.5 84.0005 133.5H83.2655ZM91.6673 133.65C90.5673 133.65 89.7123 133.34 89.1023 132.72C88.5023 132.1 88.1823 131.275 88.1423 130.245L88.1273 129.6L88.1423 128.955C88.1823 127.935 88.5073 127.115 89.1173 126.495C89.7273 125.865 90.5773 125.55 91.6673 125.55C92.7573 125.55 93.6073 125.865 94.2173 126.495C94.8273 127.115 95.1523 127.935 95.1923 128.955C95.2023 129.065 95.2073 129.28 95.2073 129.6C95.2073 129.92 95.2023 130.135 95.1923 130.245C95.1523 131.275 94.8273 132.1 94.2173 132.72C93.6173 133.34 92.7673 133.65 91.6673 133.65ZM91.6673 132.495C92.2973 132.495 92.7923 132.295 93.1523 131.895C93.5223 131.495 93.7223 130.92 93.7523 130.17C93.7623 130.07 93.7673 129.88 93.7673 129.6C93.7673 129.32 93.7623 129.13 93.7523 129.03C93.7223 128.28 93.5223 127.705 93.1523 127.305C92.7923 126.905 92.2973 126.705 91.6673 126.705C91.0373 126.705 90.5373 126.905 90.1673 127.305C89.7973 127.705 89.6023 128.28 89.5823 129.03L89.5673 129.6L89.5823 130.17C89.6023 130.92 89.7973 131.495 90.1673 131.895C90.5373 132.295 91.0373 132.495 91.6673 132.495ZM100.281 136.8C99.4606 136.8 98.8006 136.66 98.3006 136.38C97.8006 136.11 97.4456 135.8 97.2356 135.45C97.0256 135.1 96.9106 134.785 96.8906 134.505C96.8806 134.405 96.9106 134.32 96.9806 134.25C97.0606 134.18 97.1456 134.145 97.2356 134.145H97.9556C98.0456 134.145 98.1206 134.165 98.1806 134.205C98.2406 134.255 98.2906 134.34 98.3306 134.46C98.4506 134.78 98.6456 135.055 98.9156 135.285C99.1956 135.525 99.6256 135.645 100.206 135.645C100.946 135.645 101.491 135.485 101.841 135.165C102.191 134.855 102.366 134.3 102.366 133.5V132.48C102.106 132.81 101.776 133.075 101.376 133.275C100.976 133.465 100.501 133.56 99.9506 133.56C98.8906 133.56 98.0956 133.225 97.5656 132.555C97.0456 131.875 96.7706 131.015 96.7406 129.975L96.7256 129.555L96.7406 129.15C96.7706 128.12 97.0506 127.265 97.5806 126.585C98.1106 125.895 98.9006 125.55 99.9506 125.55C101.001 125.55 101.821 125.935 102.411 126.705V126.06C102.411 125.96 102.441 125.875 102.501 125.805C102.571 125.735 102.656 125.7 102.756 125.7H103.446C103.546 125.7 103.631 125.735 103.701 125.805C103.771 125.875 103.806 125.96 103.806 126.06V133.335C103.806 135.645 102.631 136.8 100.281 136.8ZM100.251 132.36C100.931 132.36 101.446 132.135 101.796 131.685C102.146 131.235 102.336 130.7 102.366 130.08C102.376 129.99 102.381 129.815 102.381 129.555C102.381 129.305 102.376 129.135 102.366 129.045C102.336 128.425 102.146 127.89 101.796 127.44C101.456 126.99 100.941 126.765 100.251 126.765C99.5406 126.765 99.0256 126.985 98.7056 127.425C98.3856 127.865 98.2106 128.445 98.1806 129.165L98.1656 129.555L98.1806 129.96C98.2106 130.67 98.3856 131.25 98.7056 131.7C99.0256 132.14 99.5406 132.36 100.251 132.36ZM106.381 133.5C106.281 133.5 106.196 133.47 106.126 133.41C106.066 133.34 106.036 133.255 106.036 133.155V126.06C106.036 125.96 106.066 125.875 106.126 125.805C106.196 125.735 106.281 125.7 106.381 125.7H107.071C107.171 125.7 107.256 125.735 107.326 125.805C107.396 125.875 107.431 125.96 107.431 126.06V126.72C107.841 126.04 108.541 125.7 109.531 125.7H110.116C110.216 125.7 110.296 125.735 110.356 125.805C110.426 125.865 110.461 125.945 110.461 126.045V126.66C110.461 126.76 110.426 126.84 110.356 126.9C110.296 126.96 110.216 126.99 110.116 126.99H109.216C108.676 126.99 108.251 127.15 107.941 127.47C107.631 127.78 107.476 128.205 107.476 128.745V133.155C107.476 133.255 107.441 133.34 107.371 133.41C107.301 133.47 107.216 133.5 107.116 133.5H106.381ZM114.708 133.65C113.678 133.65 112.853 133.335 112.233 132.705C111.623 132.065 111.288 131.195 111.228 130.095L111.213 129.585L111.228 129.09C111.298 128.01 111.638 127.15 112.248 126.51C112.868 125.87 113.683 125.55 114.693 125.55C115.803 125.55 116.663 125.905 117.273 126.615C117.883 127.315 118.188 128.265 118.188 129.465V129.72C118.188 129.82 118.153 129.905 118.083 129.975C118.023 130.035 117.943 130.065 117.843 130.065H112.653V130.2C112.683 130.85 112.878 131.405 113.238 131.865C113.608 132.315 114.093 132.54 114.693 132.54C115.153 132.54 115.528 132.45 115.818 132.27C116.118 132.08 116.338 131.885 116.478 131.685C116.568 131.565 116.633 131.495 116.673 131.475C116.723 131.445 116.808 131.43 116.928 131.43H117.663C117.753 131.43 117.828 131.455 117.888 131.505C117.948 131.555 117.978 131.625 117.978 131.715C117.978 131.935 117.838 132.2 117.558 132.51C117.288 132.82 116.903 133.09 116.403 133.32C115.913 133.54 115.348 133.65 114.708 133.65ZM116.763 129.03V128.985C116.763 128.295 116.573 127.735 116.193 127.305C115.823 126.865 115.323 126.645 114.693 126.645C114.063 126.645 113.563 126.865 113.193 127.305C112.833 127.735 112.653 128.295 112.653 128.985V129.03H116.763ZM122.681 133.65C121.981 133.65 121.391 133.54 120.911 133.32C120.441 133.09 120.086 132.83 119.846 132.54C119.616 132.25 119.501 132.01 119.501 131.82C119.501 131.72 119.536 131.645 119.606 131.595C119.686 131.535 119.766 131.505 119.846 131.505H120.521C120.621 131.505 120.711 131.555 120.791 131.655C121.031 131.935 121.291 132.155 121.571 132.315C121.851 132.475 122.226 132.555 122.696 132.555C123.216 132.555 123.636 132.455 123.956 132.255C124.286 132.045 124.451 131.76 124.451 131.4C124.451 131.16 124.381 130.965 124.241 130.815C124.111 130.655 123.881 130.52 123.551 130.41C123.231 130.29 122.751 130.16 122.111 130.02C121.241 129.83 120.621 129.555 120.251 129.195C119.891 128.835 119.711 128.37 119.711 127.8C119.711 127.42 119.821 127.06 120.041 126.72C120.271 126.37 120.601 126.09 121.031 125.88C121.471 125.66 121.996 125.55 122.606 125.55C123.246 125.55 123.791 125.655 124.241 125.865C124.691 126.075 125.026 126.325 125.246 126.615C125.476 126.895 125.591 127.13 125.591 127.32C125.591 127.41 125.556 127.485 125.486 127.545C125.426 127.605 125.351 127.635 125.261 127.635H124.631C124.511 127.635 124.411 127.585 124.331 127.485C124.171 127.295 124.031 127.15 123.911 127.05C123.801 126.94 123.636 126.845 123.416 126.765C123.206 126.685 122.936 126.645 122.606 126.645C122.126 126.645 121.756 126.75 121.496 126.96C121.236 127.16 121.106 127.425 121.106 127.755C121.106 127.965 121.161 128.145 121.271 128.295C121.381 128.435 121.591 128.565 121.901 128.685C122.221 128.805 122.681 128.93 123.281 129.06C124.231 129.26 124.901 129.55 125.291 129.93C125.691 130.3 125.891 130.775 125.891 131.355C125.891 131.785 125.766 132.175 125.516 132.525C125.266 132.875 124.896 133.15 124.406 133.35C123.926 133.55 123.351 133.65 122.681 133.65ZM130.328 133.65C129.628 133.65 129.038 133.54 128.558 133.32C128.088 133.09 127.733 132.83 127.493 132.54C127.263 132.25 127.148 132.01 127.148 131.82C127.148 131.72 127.183 131.645 127.253 131.595C127.333 131.535 127.413 131.505 127.493 131.505H128.168C128.268 131.505 128.358 131.555 128.438 131.655C128.678 131.935 128.938 132.155 129.218 132.315C129.498 132.475 129.873 132.555 130.343 132.555C130.863 132.555 131.283 132.455 131.603 132.255C131.933 132.045 132.098 131.76 132.098 131.4C132.098 131.16 132.028 130.965 131.888 130.815C131.758 130.655 131.528 130.52 131.198 130.41C130.878 130.29 130.398 130.16 129.758 130.02C128.888 129.83 128.268 129.555 127.898 129.195C127.538 128.835 127.358 128.37 127.358 127.8C127.358 127.42 127.468 127.06 127.688 126.72C127.918 126.37 128.248 126.09 128.678 125.88C129.118 125.66 129.643 125.55 130.253 125.55C130.893 125.55 131.438 125.655 131.888 125.865C132.338 126.075 132.673 126.325 132.893 126.615C133.123 126.895 133.238 127.13 133.238 127.32C133.238 127.41 133.203 127.485 133.133 127.545C133.073 127.605 132.998 127.635 132.908 127.635H132.278C132.158 127.635 132.058 127.585 131.978 127.485C131.818 127.295 131.678 127.15 131.558 127.05C131.448 126.94 131.283 126.845 131.063 126.765C130.853 126.685 130.583 126.645 130.253 126.645C129.773 126.645 129.403 126.75 129.143 126.96C128.883 127.16 128.753 127.425 128.753 127.755C128.753 127.965 128.808 128.145 128.918 128.295C129.028 128.435 129.238 128.565 129.548 128.685C129.868 128.805 130.328 128.93 130.928 129.06C131.878 129.26 132.548 129.55 132.938 129.93C133.338 130.3 133.538 130.775 133.538 131.355C133.538 131.785 133.413 132.175 133.163 132.525C132.913 132.875 132.543 133.15 132.053 133.35C131.573 133.55 130.998 133.65 130.328 133.65Z" fill="#303032"/>
<path d="M328 126.5L334 132.5L340 126.5" stroke="black" stroke-width="2" stroke-linecap="round" stroke-linejoin="round"/>
<rect x="41.5" y="107" width="319" height="45" rx="2.5" stroke="#DDDDE2"/>
<path d="M0.5 0.5H52.5V17C52.5 18.933 50.933 20.5 49 20.5H0.5V0.5Z" fill="#F5F7F9"/>
<path d="M13.122 14C13.0487 14 12.9863 13.9743 12.935 13.923C12.8837 13.8717 12.858 13.8093 12.858 13.736V6.564C12.858 6.48333 12.8837 6.421 12.935 6.377C12.9863 6.32567 13.0487 6.3 13.122 6.3H14.156C14.2367 6.3 14.299 6.32567 14.343 6.377C14.3943 6.421 14.42 6.48333 14.42 6.564V13.736C14.42 13.8093 14.3943 13.8717 14.343 13.923C14.299 13.9743 14.2367 14 14.156 14H13.122ZM16.2771 14C16.2038 14 16.1414 13.9743 16.0901 13.923C16.0388 13.8717 16.0131 13.8093 16.0131 13.736V8.544C16.0131 8.47067 16.0388 8.40833 16.0901 8.357C16.1414 8.30567 16.2038 8.28 16.2771 8.28H17.1791C17.2524 8.28 17.3148 8.30567 17.3661 8.357C17.4174 8.40833 17.4431 8.47067 17.4431 8.544V8.995C17.8758 8.445 18.4881 8.17 19.2801 8.17C19.9548 8.17 20.4901 8.39367 20.8861 8.841C21.2821 9.281 21.4801 9.88233 21.4801 10.645V13.736C21.4801 13.8093 21.4544 13.8717 21.4031 13.923C21.3591 13.9743 21.2968 14 21.2161 14H20.2481C20.1748 14 20.1124 13.9743 20.0611 13.923C20.0098 13.8717 19.9841 13.8093 19.9841 13.736V10.711C19.9841 10.2783 19.8778 9.94467 19.6651 9.71C19.4598 9.468 19.1591 9.347 18.7631 9.347C18.3744 9.347 18.0664 9.468 17.8391 9.71C17.6191 9.952 17.5091 10.2857 17.5091 10.711V13.736C17.5091 13.8093 17.4834 13.8717 17.4321 13.923C17.3881 13.9743 17.3258 14 17.2451 14H16.2771ZM23.1524 16.09C23.079 16.09 23.0167 16.0643 22.9654 16.013C22.914 15.969 22.8884 15.9067 22.8884 15.826V8.544C22.8884 8.46333 22.914 8.401 22.9654 8.357C23.0167 8.30567 23.079 8.28 23.1524 8.28H24.0214C24.102 8.28 24.1644 8.30567 24.2084 8.357C24.2597 8.401 24.2854 8.46333 24.2854 8.544V8.984C24.696 8.44133 25.2827 8.17 26.0454 8.17C26.786 8.17 27.3544 8.40467 27.7504 8.874C28.1464 9.336 28.359 9.963 28.3884 10.755C28.3957 10.843 28.3994 10.9713 28.3994 11.14C28.3994 11.316 28.3957 11.448 28.3884 11.536C28.359 12.306 28.1464 12.9293 27.7504 13.406C27.3544 13.8753 26.786 14.11 26.0454 14.11C25.3047 14.11 24.74 13.8497 24.3514 13.329V15.826C24.3514 15.9067 24.3257 15.969 24.2744 16.013C24.2304 16.0643 24.168 16.09 24.0874 16.09H23.1524ZM25.6384 12.933C26.4304 12.933 26.852 12.4453 26.9034 11.47C26.9107 11.3967 26.9144 11.2867 26.9144 11.14C26.9144 10.9933 26.9107 10.8833 26.9034 10.81C26.852 9.83467 26.4304 9.347 25.6384 9.347C25.213 9.347 24.8977 9.48267 24.6924 9.754C24.487 10.0253 24.3734 10.359 24.3514 10.755L24.3404 11.173L24.3514 11.602C24.366 11.9687 24.4797 12.284 24.6924 12.548C24.9124 12.8047 25.2277 12.933 25.6384 12.933ZM31.7572 14.11C31.0825 14.11 30.5509 13.89 30.1622 13.45C29.7735 13.0027 29.5792 12.3977 29.5792 11.635V8.544C29.5792 8.47067 29.6049 8.40833 29.6562 8.357C29.7075 8.30567 29.7699 8.28 29.8432 8.28H30.8112C30.8919 8.28 30.9542 8.30567 30.9982 8.357C31.0495 8.401 31.0752 8.46333 31.0752 8.544V11.569C31.0752 12.4783 31.4749 12.933 32.2742 12.933C32.6555 12.933 32.9562 12.812 33.1762 12.57C33.4035 12.328 33.5172 11.9943 33.5172 11.569V8.544C33.5172 8.47067 33.5429 8.40833 33.5942 8.357C33.6455 8.30567 33.7079 8.28 33.7812 8.28H34.7492C34.8299 8.28 34.8922 8.30567 34.9362 8.357C34.9875 8.401 35.0132 8.46333 35.0132 8.544V13.736C35.0132 13.8093 34.9875 13.8717 34.9362 13.923C34.8922 13.9743 34.8299 14 34.7492 14H33.8582C33.7849 14 33.7225 13.9743 33.6712 13.923C33.6199 13.8717 33.5942 13.8093 33.5942 13.736V13.285C33.1835 13.835 32.5712 14.11 31.7572 14.11ZM39.0512 14C38.3839 14 37.8816 13.8277 37.5442 13.483C37.2142 13.131 37.0492 12.6177 37.0492 11.943V9.446H36.1802C36.1069 9.446 36.0446 9.42033 35.9932 9.369C35.9419 9.31033 35.9162 9.24433 35.9162 9.171V8.544C35.9162 8.47067 35.9419 8.40833 35.9932 8.357C36.0446 8.30567 36.1069 8.28 36.1802 8.28H37.0492V6.454C37.0492 6.37333 37.0749 6.311 37.1262 6.267C37.1776 6.21567 37.2399 6.19 37.3132 6.19H38.2042C38.2849 6.19 38.3472 6.21567 38.3912 6.267C38.4426 6.311 38.4682 6.37333 38.4682 6.454V8.28H39.8432C39.9239 8.28 39.9862 8.30567 40.0302 8.357C40.0816 8.401 40.1072 8.46333 40.1072 8.544V9.171C40.1072 9.25167 40.0816 9.31767 40.0302 9.369C39.9789 9.42033 39.9166 9.446 39.8432 9.446H38.4682V11.833C38.4682 12.1483 38.5232 12.3867 38.6332 12.548C38.7432 12.7093 38.9266 12.79 39.1832 12.79H39.9422C40.0156 12.79 40.0779 12.8157 40.1292 12.867C40.1806 12.9183 40.2062 12.9807 40.2062 13.054V13.736C40.2062 13.8093 40.1806 13.8717 40.1292 13.923C40.0852 13.9743 40.0229 14 39.9422 14H39.0512Z" fill="#535356"/>
<path d="M0.5 0.5H52.5V17C52.5 18.933 50.933 20.5 49 20.5H0.5V0.5Z" stroke="#EAEAEF"/>
<mask id="path-8-inside-1_905_3576" fill="white">
<path d="M401 1H801V230H401V1Z"/>
</mask>
<path d="M401 1H801V230H401V1Z" fill="#F5F7F9"/>
<g filter="url(#filter0_d_905_3576)">
<mask id="path-11-inside-2_905_3576" fill="white">
<path d="M464 31H562V80H464V31Z"/>
</mask>
<path d="M464 31H562V80H464V31Z" fill="white"/>
<path d="M488.173 60.13C487.402 60.13 486.739 60.013 486.184 59.779C485.629 59.545 485.209 59.2373 484.923 58.856C484.637 58.4747 484.485 58.063 484.468 57.621C484.468 57.543 484.494 57.478 484.546 57.426C484.598 57.374 484.663 57.348 484.741 57.348H485.898C486.002 57.348 486.08 57.3697 486.132 57.413C486.193 57.4477 486.249 57.5083 486.301 57.595C486.388 57.8897 486.587 58.1367 486.899 58.336C487.211 58.5353 487.636 58.635 488.173 58.635C488.788 58.635 489.252 58.5353 489.564 58.336C489.876 58.128 490.032 57.842 490.032 57.478C490.032 57.2353 489.95 57.036 489.785 56.88C489.629 56.724 489.391 56.5897 489.07 56.477C488.758 56.3643 488.29 56.2257 487.666 56.061C486.643 55.8183 485.894 55.4977 485.417 55.099C484.949 54.6917 484.715 54.1153 484.715 53.37C484.715 52.8673 484.849 52.421 485.118 52.031C485.395 51.641 485.79 51.3333 486.301 51.108C486.821 50.8827 487.423 50.77 488.108 50.77C488.819 50.77 489.434 50.8957 489.954 51.147C490.474 51.3983 490.868 51.7147 491.137 52.096C491.414 52.4687 491.562 52.8413 491.579 53.214C491.579 53.292 491.553 53.357 491.501 53.409C491.449 53.461 491.384 53.487 491.306 53.487H490.097C489.915 53.487 489.789 53.4047 489.72 53.24C489.668 52.9627 489.495 52.733 489.2 52.551C488.905 52.3603 488.541 52.265 488.108 52.265C487.623 52.265 487.241 52.356 486.964 52.538C486.687 52.72 486.548 52.9843 486.548 53.331C486.548 53.5737 486.617 53.773 486.756 53.929C486.895 54.085 487.111 54.2237 487.406 54.345C487.709 54.4663 488.143 54.6007 488.706 54.748C489.469 54.9213 490.075 55.1163 490.526 55.333C490.985 55.5497 491.323 55.8227 491.54 56.152C491.757 56.4813 491.865 56.9017 491.865 57.413C491.865 57.9677 491.709 58.453 491.397 58.869C491.094 59.2763 490.66 59.5883 490.097 59.805C489.542 60.0217 488.901 60.13 488.173 60.13ZM495.567 60C495.481 60 495.407 59.9697 495.346 59.909C495.286 59.8483 495.255 59.7747 495.255 59.688V52.499H492.85C492.764 52.499 492.69 52.4687 492.629 52.408C492.569 52.3473 492.538 52.2737 492.538 52.187V51.225C492.538 51.1297 492.564 51.0517 492.616 50.991C492.677 50.9303 492.755 50.9 492.85 50.9H499.48C499.576 50.9 499.654 50.9303 499.714 50.991C499.775 51.0517 499.805 51.1297 499.805 51.225V52.187C499.805 52.2737 499.775 52.3473 499.714 52.408C499.654 52.4687 499.576 52.499 499.48 52.499H497.088V59.688C497.088 59.7747 497.058 59.8483 496.997 59.909C496.937 59.9697 496.859 60 496.763 60H495.567ZM499.613 60C499.544 60 499.479 59.974 499.418 59.922C499.366 59.87 499.34 59.805 499.34 59.727L499.366 59.61L502.499 51.225C502.56 51.0083 502.712 50.9 502.954 50.9H504.371C504.597 50.9 504.748 51.0083 504.826 51.225L507.959 59.61C507.968 59.636 507.972 59.675 507.972 59.727C507.972 59.805 507.946 59.87 507.894 59.922C507.842 59.974 507.782 60 507.712 60H506.581C506.469 60 506.382 59.974 506.321 59.922C506.261 59.87 506.222 59.8137 506.204 59.753L505.593 58.167H501.732L501.121 59.753C501.052 59.9177 500.926 60 500.744 60H499.613ZM505.138 56.672L503.656 52.655L502.187 56.672H505.138ZM510.548 60C510.461 60 510.387 59.9697 510.327 59.909C510.266 59.8483 510.236 59.7747 510.236 59.688V52.499H507.831C507.744 52.499 507.67 52.4687 507.61 52.408C507.549 52.3473 507.519 52.2737 507.519 52.187V51.225C507.519 51.1297 507.545 51.0517 507.597 50.991C507.657 50.9303 507.735 50.9 507.831 50.9H514.461C514.556 50.9 514.634 50.9303 514.695 50.991C514.755 51.0517 514.786 51.1297 514.786 51.225V52.187C514.786 52.2737 514.755 52.3473 514.695 52.408C514.634 52.4687 514.556 52.499 514.461 52.499H512.069V59.688C512.069 59.7747 512.038 59.8483 511.978 59.909C511.917 59.9697 511.839 60 511.744 60H510.548ZM519.732 60.13C518.562 60.13 517.652 59.831 517.002 59.233C516.352 58.635 516.027 57.7293 516.027 56.516V51.225C516.027 51.1297 516.053 51.0517 516.105 50.991C516.165 50.9303 516.243 50.9 516.339 50.9H517.522C517.617 50.9 517.691 50.9303 517.743 50.991C517.803 51.0517 517.834 51.1297 517.834 51.225V56.516C517.834 57.2093 517.998 57.7337 518.328 58.089C518.657 58.4357 519.125 58.609 519.732 58.609C520.338 58.609 520.802 58.4357 521.123 58.089C521.452 57.7337 521.617 57.2093 521.617 56.516V51.225C521.617 51.1297 521.647 51.0517 521.708 50.991C521.768 50.9303 521.846 50.9 521.942 50.9H523.112C523.207 50.9 523.281 50.9303 523.333 50.991C523.393 51.0517 523.424 51.1297 523.424 51.225V56.516C523.424 57.7293 523.099 58.635 522.449 59.233C521.807 59.831 520.902 60.13 519.732 60.13ZM528.531 60.13C527.76 60.13 527.097 60.013 526.542 59.779C525.988 59.545 525.567 59.2373 525.281 58.856C524.995 58.4747 524.844 58.063 524.826 57.621C524.826 57.543 524.852 57.478 524.904 57.426C524.956 57.374 525.021 57.348 525.099 57.348H526.256C526.36 57.348 526.438 57.3697 526.49 57.413C526.551 57.4477 526.607 57.5083 526.659 57.595C526.746 57.8897 526.945 58.1367 527.257 58.336C527.569 58.5353 527.994 58.635 528.531 58.635C529.147 58.635 529.61 58.5353 529.922 58.336C530.234 58.128 530.39 57.842 530.39 57.478C530.39 57.2353 530.308 57.036 530.143 56.88C529.987 56.724 529.749 56.5897 529.428 56.477C529.116 56.3643 528.648 56.2257 528.024 56.061C527.002 55.8183 526.252 55.4977 525.775 55.099C525.307 54.6917 525.073 54.1153 525.073 53.37C525.073 52.8673 525.208 52.421 525.476 52.031C525.754 51.641 526.148 51.3333 526.659 51.108C527.179 50.8827 527.782 50.77 528.466 50.77C529.177 50.77 529.792 50.8957 530.312 51.147C530.832 51.3983 531.227 51.7147 531.495 52.096C531.773 52.4687 531.92 52.8413 531.937 53.214C531.937 53.292 531.911 53.357 531.859 53.409C531.807 53.461 531.742 53.487 531.664 53.487H530.455C530.273 53.487 530.148 53.4047 530.078 53.24C530.026 52.9627 529.853 52.733 529.558 52.551C529.264 52.3603 528.9 52.265 528.466 52.265C527.981 52.265 527.6 52.356 527.322 52.538C527.045 52.72 526.906 52.9843 526.906 53.331C526.906 53.5737 526.976 53.773 527.114 53.929C527.253 54.085 527.47 54.2237 527.764 54.345C528.068 54.4663 528.501 54.6007 529.064 54.748C529.827 54.9213 530.434 55.1163 530.884 55.333C531.344 55.5497 531.682 55.8227 531.898 56.152C532.115 56.4813 532.223 56.9017 532.223 57.413C532.223 57.9677 532.067 58.453 531.755 58.869C531.452 59.2763 531.019 59.5883 530.455 59.805C529.901 60.0217 529.259 60.13 528.531 60.13Z" fill="#A0A0A5"/>
<path d="M562 79H464V81H562V79Z" fill="#CBC9CD" mask="url(#path-11-inside-2_905_3576)"/>
<mask id="path-14-inside-3_905_3576" fill="white">
<path d="M464 80H562V120H464V80Z"/>
</mask>
<path d="M464 80H562V120H464V80Z" fill="white"/>
<circle cx="488" cy="100" r="4" fill="#A084E8"/>
<circle cx="498" cy="100" r="4" fill="#A084E8"/>
<circle cx="508" cy="100" r="4" fill="#A084E8"/>
<circle cx="518" cy="100" r="4" fill="#F2F2F6"/>
<circle cx="528" cy="100" r="4" fill="#F2F2F6"/>
<circle cx="538" cy="100" r="4" fill="#F2F2F6"/>
<path d="M562 119H464V121H562V119Z" fill="#CBC9CD" mask="url(#path-14-inside-3_905_3576)"/>
<mask id="path-22-inside-4_905_3576" fill="white">
<path d="M464 120H562V160H464V120Z"/>
</mask>
<path d="M464 120H562V160H464V120Z" fill="white"/>
<circle cx="488" cy="140" r="4" fill="#8BE8E5"/>
<circle cx="498" cy="140" r="4" fill="#8BE8E5"/>
<circle cx="508" cy="140" r="4" fill="#F2F2F6"/>
<circle cx="518" cy="140" r="4" fill="#F2F2F6"/>
<circle cx="528" cy="140" r="4" fill="#F2F2F6"/>
<circle cx="538" cy="140" r="4" fill="#F2F2F6"/>
<path d="M562 159H464V161H562V159Z" fill="#CBC9CD" mask="url(#path-22-inside-4_905_3576)"/>
<mask id="path-30-inside-5_905_3576" fill="white">
<path d="M464 160H562V200H464V160Z"/>
</mask>
<path d="M464 160H562V200H464V160Z" fill="white"/>
<circle cx="488" cy="180" r="4" fill="#F79BD3"/>
<circle cx="498" cy="180" r="4" fill="#F79BD3"/>
<circle cx="508" cy="180" r="4" fill="#F79BD3"/>
<circle cx="518" cy="180" r="4" fill="#F79BD3"/>
<circle cx="528" cy="180" r="4" fill="#F79BD3"/>
<circle cx="538" cy="180" r="4" fill="#F79BD3"/>
<path d="M562 199H464V201H562V199Z" fill="#CBC9CD" mask="url(#path-30-inside-5_905_3576)"/>
<mask id="path-38-inside-6_905_3576" fill="white">
<path d="M562 31H650V80H562V31Z"/>
</mask>
<path d="M562 31H650V80H562V31Z" fill="white"/>
<rect x="582" y="47" width="48" height="17" rx="5" fill="#F2F2F6"/>
<path d="M650 79H562V81H650V79Z" fill="#CBC9CD" mask="url(#path-38-inside-6_905_3576)"/>
<mask id="path-41-inside-7_905_3576" fill="white">
<path d="M562 80H650V120H562V80Z"/>
</mask>
<path d="M562 80H650V120H562V80Z" fill="white"/>
<rect x="582" y="91.5" width="48" height="17" rx="5" fill="#F2F2F6"/>
<path d="M650 119H562V121H650V119Z" fill="#CBC9CD" mask="url(#path-41-inside-7_905_3576)"/>
<mask id="path-44-inside-8_905_3576" fill="white">
<path d="M562 120H650V160H562V120Z"/>
</mask>
<path d="M562 120H650V160H562V120Z" fill="white"/>
<rect x="582" y="131.5" width="48" height="17" rx="5" fill="#F2F2F6"/>
<path d="M650 159H562V161H650V159Z" fill="#CBC9CD" mask="url(#path-44-inside-8_905_3576)"/>
<mask id="path-47-inside-9_905_3576" fill="white">
<path d="M562 160H650V200H562V160Z"/>
</mask>
<path d="M562 160H650V200H562V160Z" fill="white"/>
<rect x="582" y="171.5" width="48" height="17" rx="5" fill="#F2F2F6"/>
<path d="M650 199H562V201H650V199Z" fill="#CBC9CD" mask="url(#path-47-inside-9_905_3576)"/>
<mask id="path-50-inside-10_905_3576" fill="white">
<path d="M650 31H738V80H650V31Z"/>
</mask>
<path d="M650 31H738V80H650V31Z" fill="white"/>
<rect x="670" y="47" width="48" height="17" rx="5" fill="#F2F2F6"/>
<path d="M738 79H650V81H738V79Z" fill="#CBC9CD" mask="url(#path-50-inside-10_905_3576)"/>
<mask id="path-53-inside-11_905_3576" fill="white">
<path d="M650 80H738V120H650V80Z"/>
</mask>
<path d="M650 80H738V120H650V80Z" fill="white"/>
<rect x="670" y="91.5" width="48" height="17" rx="5" fill="#F2F2F6"/>
<path d="M738 119H650V121H738V119Z" fill="#CBC9CD" mask="url(#path-53-inside-11_905_3576)"/>
<mask id="path-56-inside-12_905_3576" fill="white">
<path d="M650 120H738V160H650V120Z"/>
</mask>
<path d="M650 120H738V160H650V120Z" fill="white"/>
<rect x="670" y="131.5" width="48" height="17" rx="5" fill="#F2F2F6"/>
<path d="M738 159H650V161H738V159Z" fill="#CBC9CD" mask="url(#path-56-inside-12_905_3576)"/>
<mask id="path-59-inside-13_905_3576" fill="white">
<path d="M650 160H738V200H650V160Z"/>
</mask>
<path d="M650 160H738V200H650V160Z" fill="white"/>
<rect x="670" y="171.5" width="48" height="17" rx="5" fill="#F2F2F6"/>
<path d="M738 199H650V201H738V199Z" fill="#CBC9CD" mask="url(#path-59-inside-13_905_3576)"/>
</g>
<path d="M401.5 0.5H463.5V17C463.5 18.933 461.933 20.5 460 20.5H401.5V0.5Z" fill="#F5F7F9"/>
<path d="M414.122 14C414.049 14 413.986 13.9743 413.935 13.923C413.884 13.8717 413.858 13.8093 413.858 13.736V6.575C413.858 6.49433 413.88 6.42833 413.924 6.377C413.975 6.32567 414.041 6.3 414.122 6.3H416.806C418.962 6.3 420.062 7.29733 420.106 9.292C420.121 9.71733 420.128 10.0033 420.128 10.15C420.128 10.2893 420.121 10.5717 420.106 10.997C420.077 12.0237 419.802 12.7827 419.281 13.274C418.76 13.758 417.954 14 416.861 14H414.122ZM416.806 12.735C417.422 12.735 417.866 12.5993 418.137 12.328C418.408 12.0493 418.551 11.5947 418.566 10.964C418.581 10.524 418.588 10.249 418.588 10.139C418.588 10.0217 418.581 9.75033 418.566 9.325C418.551 8.72367 418.397 8.28 418.104 7.994C417.818 7.708 417.367 7.565 416.751 7.565H415.387V12.735H416.806ZM421.68 7.334C421.607 7.334 421.545 7.30833 421.493 7.257C421.442 7.20567 421.416 7.14333 421.416 7.07V6.278C421.416 6.20467 421.442 6.14233 421.493 6.091C421.545 6.03967 421.607 6.014 421.68 6.014H422.681C422.755 6.014 422.817 6.03967 422.868 6.091C422.927 6.14233 422.956 6.20467 422.956 6.278V7.07C422.956 7.14333 422.931 7.20567 422.879 7.257C422.828 7.30833 422.762 7.334 422.681 7.334H421.68ZM421.724 14C421.651 14 421.589 13.9743 421.537 13.923C421.486 13.8717 421.46 13.8093 421.46 13.736V8.544C421.46 8.47067 421.486 8.40833 421.537 8.357C421.589 8.30567 421.651 8.28 421.724 8.28H422.637C422.718 8.28 422.78 8.30567 422.824 8.357C422.876 8.401 422.901 8.46333 422.901 8.544V13.736C422.901 13.8093 422.876 13.8717 422.824 13.923C422.78 13.9743 422.718 14 422.637 14H421.724ZM426.528 14.11C425.978 14.11 425.516 14.0293 425.142 13.868C424.768 13.6993 424.489 13.505 424.306 13.285C424.13 13.0577 424.042 12.8633 424.042 12.702C424.042 12.6287 424.067 12.57 424.119 12.526C424.17 12.482 424.229 12.46 424.295 12.46H425.164C425.23 12.46 425.285 12.4857 425.329 12.537C425.358 12.559 425.435 12.625 425.56 12.735C425.684 12.8523 425.831 12.944 426 13.01C426.168 13.076 426.355 13.109 426.561 13.109C426.854 13.109 427.096 13.0503 427.287 12.933C427.477 12.8157 427.573 12.6543 427.573 12.449C427.573 12.295 427.529 12.1703 427.441 12.075C427.36 11.9797 427.21 11.8953 426.99 11.822C426.77 11.7413 426.443 11.657 426.011 11.569C425.387 11.437 424.925 11.2353 424.625 10.964C424.331 10.6927 424.185 10.3333 424.185 9.886C424.185 9.59267 424.273 9.31767 424.449 9.061C424.625 8.797 424.885 8.58433 425.23 8.423C425.582 8.25433 426 8.17 426.484 8.17C426.975 8.17 427.4 8.25067 427.76 8.412C428.119 8.566 428.39 8.753 428.574 8.973C428.764 9.18567 428.86 9.37633 428.86 9.545C428.86 9.611 428.834 9.66967 428.783 9.721C428.739 9.765 428.684 9.787 428.618 9.787H427.804C427.745 9.787 427.683 9.76133 427.617 9.71C427.565 9.67333 427.485 9.60367 427.375 9.501C427.265 9.39833 427.136 9.31767 426.99 9.259C426.843 9.20033 426.671 9.171 426.473 9.171C426.201 9.171 425.989 9.22967 425.835 9.347C425.688 9.46433 425.615 9.61833 425.615 9.809C425.615 9.94833 425.651 10.062 425.725 10.15C425.798 10.238 425.941 10.3223 426.154 10.403C426.366 10.4837 426.685 10.5643 427.111 10.645C427.815 10.7843 428.317 11.0007 428.618 11.294C428.926 11.5873 429.08 11.9467 429.08 12.372C429.08 12.8853 428.856 13.3033 428.409 13.626C427.961 13.9487 427.334 14.11 426.528 14.11ZM430.49 16.09C430.417 16.09 430.355 16.0643 430.303 16.013C430.252 15.969 430.226 15.9067 430.226 15.826V8.544C430.226 8.46333 430.252 8.401 430.303 8.357C430.355 8.30567 430.417 8.28 430.49 8.28H431.359C431.44 8.28 431.502 8.30567 431.546 8.357C431.598 8.401 431.623 8.46333 431.623 8.544V8.984C432.034 8.44133 432.621 8.17 433.383 8.17C434.124 8.17 434.692 8.40467 435.088 8.874C435.484 9.336 435.697 9.963 435.726 10.755C435.734 10.843 435.737 10.9713 435.737 11.14C435.737 11.316 435.734 11.448 435.726 11.536C435.697 12.306 435.484 12.9293 435.088 13.406C434.692 13.8753 434.124 14.11 433.383 14.11C432.643 14.11 432.078 13.8497 431.689 13.329V15.826C431.689 15.9067 431.664 15.969 431.612 16.013C431.568 16.0643 431.506 16.09 431.425 16.09H430.49ZM432.976 12.933C433.768 12.933 434.19 12.4453 434.241 11.47C434.249 11.3967 434.252 11.2867 434.252 11.14C434.252 10.9933 434.249 10.8833 434.241 10.81C434.19 9.83467 433.768 9.347 432.976 9.347C432.551 9.347 432.236 9.48267 432.03 9.754C431.825 10.0253 431.711 10.359 431.689 10.755L431.678 11.173L431.689 11.602C431.704 11.9687 431.818 12.284 432.03 12.548C432.25 12.8047 432.566 12.933 432.976 12.933ZM437.247 14C437.174 14 437.111 13.9743 437.06 13.923C437.009 13.8717 436.983 13.8093 436.983 13.736V6.454C436.983 6.37333 437.009 6.311 437.06 6.267C437.111 6.21567 437.174 6.19 437.247 6.19H438.16C438.241 6.19 438.303 6.21567 438.347 6.267C438.398 6.311 438.424 6.37333 438.424 6.454V13.736C438.424 13.8093 438.398 13.8717 438.347 13.923C438.303 13.9743 438.241 14 438.16 14H437.247ZM441.544 14.11C441.17 14.11 440.826 14.0367 440.51 13.89C440.202 13.736 439.957 13.5307 439.773 13.274C439.597 13.0173 439.509 12.735 439.509 12.427C439.509 11.9283 439.711 11.525 440.114 11.217C440.518 10.909 441.071 10.7 441.775 10.59L443.282 10.37V10.139C443.282 9.81633 443.202 9.57433 443.04 9.413C442.879 9.25167 442.619 9.171 442.259 9.171C442.017 9.171 441.819 9.21867 441.665 9.314C441.519 9.402 441.401 9.49 441.313 9.578C441.225 9.67333 441.167 9.73567 441.137 9.765C441.108 9.853 441.053 9.897 440.972 9.897H440.125C440.059 9.897 440.001 9.875 439.949 9.831C439.905 9.787 439.883 9.72833 439.883 9.655C439.891 9.47167 439.979 9.26267 440.147 9.028C440.323 8.79333 440.591 8.59167 440.95 8.423C441.31 8.25433 441.75 8.17 442.27 8.17C443.136 8.17 443.766 8.36433 444.162 8.753C444.558 9.14167 444.756 9.65133 444.756 10.282V13.736C444.756 13.8093 444.731 13.8717 444.679 13.923C444.635 13.9743 444.573 14 444.492 14H443.601C443.528 14 443.466 13.9743 443.414 13.923C443.363 13.8717 443.337 13.8093 443.337 13.736V13.307C443.176 13.5417 442.945 13.736 442.644 13.89C442.351 14.0367 441.984 14.11 441.544 14.11ZM441.918 13.065C442.322 13.065 442.652 12.933 442.908 12.669C443.165 12.405 443.293 12.02 443.293 11.514V11.283L442.193 11.459C441.768 11.525 441.445 11.6313 441.225 11.778C441.013 11.9247 440.906 12.1043 440.906 12.317C440.906 12.5517 441.005 12.735 441.203 12.867C441.401 12.999 441.64 13.065 441.918 13.065ZM447.051 16.09C446.992 16.09 446.941 16.068 446.897 16.024C446.853 15.98 446.831 15.9287 446.831 15.87C446.831 15.804 446.846 15.7453 446.875 15.694L447.733 13.659L445.621 8.676C445.592 8.61 445.577 8.55867 445.577 8.522C445.584 8.456 445.61 8.401 445.654 8.357C445.698 8.30567 445.753 8.28 445.819 8.28H446.71C446.849 8.28 446.948 8.34967 447.007 8.489L448.47 12.086L449.977 8.489C450.036 8.34967 450.135 8.28 450.274 8.28H451.154C451.213 8.28 451.264 8.302 451.308 8.346C451.359 8.39 451.385 8.44133 451.385 8.5C451.385 8.55133 451.37 8.61 451.341 8.676L448.228 15.881C448.162 16.0203 448.059 16.09 447.92 16.09H447.051Z" fill="#535356"/>
<path d="M401.5 0.5H463.5V17C463.5 18.933 461.933 20.5 460 20.5H401.5V0.5Z" stroke="#EAEAEF"/>
<path d="M402 230V1H400V230H402Z" fill="#EAEAEF" mask="url(#path-8-inside-1_905_3576)"/>
<rect x="0.5" y="0.5" width="801" height="230" stroke="#EAEAEF"/>
<defs>
<filter id="filter0_d_905_3576" x="444" y="21" width="314" height="209" filterUnits="userSpaceOnUse" color-interpolation-filters="sRGB">
<feFlood flood-opacity="0" result="BackgroundImageFix"/>
<feColorMatrix in="SourceAlpha" type="matrix" values="0 0 0 0 0 0 0 0 0 0 0 0 0 0 0 0 0 0 127 0" result="hardAlpha"/>
<feOffset dy="10"/>
<feGaussianBlur stdDeviation="10"/>
<feComposite in2="hardAlpha" operator="out"/>
<feColorMatrix type="matrix" values="0 0 0 0 0.117647 0 0 0 0 0.117647 0 0 0 0 0.117647 0 0 0 0.12 0"/>
<feBlend mode="normal" in2="BackgroundImageFix" result="effect1_dropShadow_905_3576"/>
<feBlend mode="normal" in="SourceGraphic" in2="effect1_dropShadow_905_3576" result="shape"/>
</filter>
</defs>
</svg>
