<svg width="402" height="258" viewBox="0 0 402 258" fill="none" xmlns="http://www.w3.org/2000/svg">
<rect width="400" height="256" transform="translate(1 1)" fill="white"/>
<rect width="400" height="103" transform="translate(1 77.5)" fill="white"/>
<rect width="320" height="73" transform="translate(41 92.5)" fill="white"/>
<path d="M42.326 105.5C42.2393 105.5 42.1657 105.47 42.105 105.409C42.0443 105.348 42.014 105.275 42.014 105.188V96.725C42.014 96.6297 42.04 96.5517 42.092 96.491C42.1527 96.4303 42.2307 96.4 42.326 96.4H45.81C46.85 96.4 47.669 96.647 48.267 97.141C48.865 97.6263 49.164 98.3413 49.164 99.286C49.164 100.231 48.865 100.946 48.267 101.431C47.6777 101.908 46.8587 102.146 45.81 102.146H43.873V105.188C43.873 105.275 43.8427 105.348 43.782 105.409C43.73 105.47 43.6563 105.5 43.561 105.5H42.326ZM45.745 100.703C46.2477 100.703 46.6333 100.586 46.902 100.352C47.1707 100.109 47.305 99.754 47.305 99.286C47.305 98.8353 47.175 98.4843 46.915 98.233C46.655 97.973 46.265 97.843 45.745 97.843H43.847V100.703H45.745ZM49.453 105.5C49.3837 105.5 49.3187 105.474 49.258 105.422C49.206 105.37 49.18 105.305 49.18 105.227L49.206 105.11L52.339 96.725C52.3997 96.5083 52.5514 96.4 52.794 96.4H54.211C54.4364 96.4 54.588 96.5083 54.666 96.725L57.799 105.11C57.8077 105.136 57.812 105.175 57.812 105.227C57.812 105.305 57.786 105.37 57.734 105.422C57.682 105.474 57.6214 105.5 57.552 105.5H56.421C56.3084 105.5 56.2217 105.474 56.161 105.422C56.1004 105.37 56.0614 105.314 56.044 105.253L55.433 103.667H51.572L50.961 105.253C50.8917 105.418 50.766 105.5 50.584 105.5H49.453ZM54.978 102.172L53.496 98.155L52.027 102.172H54.978ZM62.0578 105.63C61.2864 105.63 60.6234 105.513 60.0688 105.279C59.5141 105.045 59.0938 104.737 58.8078 104.356C58.5218 103.975 58.3701 103.563 58.3528 103.121C58.3528 103.043 58.3788 102.978 58.4308 102.926C58.4828 102.874 58.5478 102.848 58.6258 102.848H59.7828C59.8868 102.848 59.9648 102.87 60.0168 102.913C60.0774 102.948 60.1338 103.008 60.1858 103.095C60.2724 103.39 60.4718 103.637 60.7838 103.836C61.0958 104.035 61.5204 104.135 62.0578 104.135C62.6731 104.135 63.1368 104.035 63.4488 103.836C63.7608 103.628 63.9168 103.342 63.9168 102.978C63.9168 102.735 63.8344 102.536 63.6698 102.38C63.5138 102.224 63.2754 102.09 62.9548 101.977C62.6428 101.864 62.1748 101.726 61.5508 101.561C60.5281 101.318 59.7784 100.998 59.3018 100.599C58.8338 100.192 58.5998 99.6153 58.5998 98.87C58.5998 98.3673 58.7341 97.921 59.0028 97.531C59.2801 97.141 59.6744 96.8333 60.1858 96.608C60.7058 96.3827 61.3081 96.27 61.9928 96.27C62.7034 96.27 63.3188 96.3957 63.8388 96.647C64.3588 96.8983 64.7531 97.2147 65.0218 97.596C65.2991 97.9687 65.4464 98.3413 65.4638 98.714C65.4638 98.792 65.4378 98.857 65.3858 98.909C65.3338 98.961 65.2688 98.987 65.1908 98.987H63.9818C63.7998 98.987 63.6741 98.9047 63.6048 98.74C63.5528 98.4627 63.3794 98.233 63.0848 98.051C62.7901 97.8603 62.4261 97.765 61.9928 97.765C61.5074 97.765 61.1261 97.856 60.8488 98.038C60.5714 98.22 60.4328 98.4843 60.4328 98.831C60.4328 99.0737 60.5021 99.273 60.6408 99.429C60.7794 99.585 60.9961 99.7237 61.2908 99.845C61.5941 99.9663 62.0274 100.101 62.5908 100.248C63.3534 100.421 63.9601 100.616 64.4108 100.833C64.8701 101.05 65.2081 101.323 65.4248 101.652C65.6414 101.981 65.7498 102.402 65.7498 102.913C65.7498 103.468 65.5938 103.953 65.2818 104.369C64.9784 104.776 64.5451 105.088 63.9818 105.305C63.4271 105.522 62.7858 105.63 62.0578 105.63ZM70.3986 105.63C69.6273 105.63 68.9643 105.513 68.4096 105.279C67.8549 105.045 67.4346 104.737 67.1486 104.356C66.8626 103.975 66.7109 103.563 66.6936 103.121C66.6936 103.043 66.7196 102.978 66.7716 102.926C66.8236 102.874 66.8886 102.848 66.9666 102.848H68.1236C68.2276 102.848 68.3056 102.87 68.3576 102.913C68.4183 102.948 68.4746 103.008 68.5266 103.095C68.6133 103.39 68.8126 103.637 69.1246 103.836C69.4366 104.035 69.8613 104.135 70.3986 104.135C71.0139 104.135 71.4776 104.035 71.7896 103.836C72.1016 103.628 72.2576 103.342 72.2576 102.978C72.2576 102.735 72.1753 102.536 72.0106 102.38C71.8546 102.224 71.6163 102.09 71.2956 101.977C70.9836 101.864 70.5156 101.726 69.8916 101.561C68.8689 101.318 68.1193 100.998 67.6426 100.599C67.1746 100.192 66.9406 99.6153 66.9406 98.87C66.9406 98.3673 67.0749 97.921 67.3436 97.531C67.6209 97.141 68.0153 96.8333 68.5266 96.608C69.0466 96.3827 69.6489 96.27 70.3336 96.27C71.0443 96.27 71.6596 96.3957 72.1796 96.647C72.6996 96.8983 73.0939 97.2147 73.3626 97.596C73.6399 97.9687 73.7873 98.3413 73.8046 98.714C73.8046 98.792 73.7786 98.857 73.7266 98.909C73.6746 98.961 73.6096 98.987 73.5316 98.987H72.3226C72.1406 98.987 72.0149 98.9047 71.9456 98.74C71.8936 98.4627 71.7203 98.233 71.4256 98.051C71.1309 97.8603 70.7669 97.765 70.3336 97.765C69.8483 97.765 69.4669 97.856 69.1896 98.038C68.9123 98.22 68.7736 98.4843 68.7736 98.831C68.7736 99.0737 68.8429 99.273 68.9816 99.429C69.1203 99.585 69.3369 99.7237 69.6316 99.845C69.9349 99.9663 70.3683 100.101 70.9316 100.248C71.6943 100.421 72.3009 100.616 72.7516 100.833C73.2109 101.05 73.5489 101.323 73.7656 101.652C73.9823 101.981 74.0906 102.402 74.0906 102.913C74.0906 103.468 73.9346 103.953 73.6226 104.369C73.3193 104.776 72.8859 105.088 72.3226 105.305C71.7679 105.522 71.1266 105.63 70.3986 105.63ZM76.9485 105.5C76.8185 105.5 76.7145 105.465 76.6365 105.396C76.5585 105.327 76.5108 105.231 76.4935 105.11L74.9465 96.777L74.9335 96.673C74.9335 96.595 74.9595 96.53 75.0115 96.478C75.0721 96.426 75.1371 96.4 75.2065 96.4H76.3505C76.5671 96.4 76.6885 96.4867 76.7145 96.66L77.7935 102.549L78.9635 98.74C79.0501 98.5233 79.1931 98.415 79.3925 98.415H80.0945C80.3111 98.415 80.4498 98.5233 80.5105 98.74L81.6935 102.536L82.7725 96.66C82.7898 96.5647 82.8245 96.4997 82.8765 96.465C82.9371 96.4217 83.0238 96.4 83.1365 96.4H84.2805C84.3498 96.4 84.4105 96.426 84.4625 96.478C84.5145 96.53 84.5405 96.595 84.5405 96.673C84.5405 96.7163 84.5361 96.751 84.5275 96.777L82.9805 105.11C82.9371 105.37 82.7855 105.5 82.5255 105.5H81.6545C81.5331 105.5 81.4335 105.47 81.3555 105.409C81.2775 105.348 81.2255 105.27 81.1995 105.175L79.7435 100.833L78.2875 105.175C78.2008 105.392 78.0448 105.5 77.8195 105.5H76.9485ZM89.4622 105.63C88.2835 105.63 87.3648 105.331 86.7062 104.733C86.0475 104.135 85.7008 103.247 85.6662 102.068C85.6575 101.817 85.6532 101.448 85.6532 100.963C85.6532 100.469 85.6575 100.096 85.6662 99.845C85.7008 98.6923 86.0562 97.8083 86.7322 97.193C87.4082 96.5777 88.3182 96.27 89.4622 96.27C90.6062 96.27 91.5162 96.5777 92.1922 97.193C92.8768 97.8083 93.2365 98.6923 93.2712 99.845C93.2885 100.348 93.2972 100.72 93.2972 100.963C93.2972 101.197 93.2885 101.565 93.2712 102.068C93.2278 103.247 92.8768 104.135 92.2182 104.733C91.5595 105.331 90.6408 105.63 89.4622 105.63ZM89.4622 104.135C90.0428 104.135 90.5065 103.962 90.8532 103.615C91.1998 103.26 91.3862 102.722 91.4122 102.003C91.4295 101.483 91.4382 101.132 91.4382 100.95C91.4382 100.751 91.4295 100.4 91.4122 99.897C91.3862 99.1777 91.1998 98.6447 90.8532 98.298C90.5065 97.9427 90.0428 97.765 89.4622 97.765C88.8902 97.765 88.4308 97.9427 88.0842 98.298C87.7375 98.6447 87.5512 99.1777 87.5252 99.897C87.5165 100.148 87.5122 100.499 87.5122 100.95C87.5122 101.392 87.5165 101.743 87.5252 102.003C87.5512 102.722 87.7332 103.26 88.0712 103.615C88.4178 103.962 88.8815 104.135 89.4622 104.135ZM95.3162 105.5C95.2296 105.5 95.1559 105.47 95.0952 105.409C95.0346 105.348 95.0042 105.275 95.0042 105.188V96.725C95.0042 96.6297 95.0302 96.5517 95.0822 96.491C95.1429 96.4303 95.2209 96.4 95.3162 96.4H98.6832C99.7406 96.4 100.568 96.647 101.166 97.141C101.773 97.635 102.076 98.337 102.076 99.247C102.076 99.8797 101.92 100.413 101.608 100.846C101.305 101.271 100.88 101.578 100.334 101.769L102.232 105.084C102.258 105.136 102.271 105.184 102.271 105.227C102.271 105.305 102.241 105.37 102.18 105.422C102.128 105.474 102.068 105.5 101.998 105.5H100.815C100.677 105.5 100.568 105.47 100.49 105.409C100.421 105.348 100.356 105.262 100.295 105.149L98.6182 102.068H96.8112V105.188C96.8112 105.275 96.7809 105.348 96.7202 105.409C96.6682 105.47 96.5946 105.5 96.4992 105.5H95.3162ZM98.6442 100.599C99.1642 100.599 99.5542 100.482 99.8142 100.248C100.083 100.014 100.217 99.676 100.217 99.234C100.217 98.792 100.083 98.4497 99.8142 98.207C99.5542 97.9643 99.1642 97.843 98.6442 97.843H96.8112V100.599H98.6442ZM104.063 105.5C103.977 105.5 103.903 105.47 103.842 105.409C103.782 105.348 103.751 105.275 103.751 105.188V96.725C103.751 96.6297 103.777 96.5517 103.829 96.491C103.89 96.4303 103.968 96.4 104.063 96.4H107.235C109.783 96.4 111.083 97.5787 111.135 99.936C111.153 100.439 111.161 100.777 111.161 100.95C111.161 101.115 111.153 101.448 111.135 101.951C111.101 103.164 110.776 104.061 110.16 104.642C109.545 105.214 108.592 105.5 107.3 105.5H104.063ZM107.235 104.005C107.963 104.005 108.488 103.845 108.808 103.524C109.129 103.195 109.298 102.657 109.315 101.912C109.333 101.392 109.341 101.067 109.341 100.937C109.341 100.798 109.333 100.478 109.315 99.975C109.298 99.2643 109.116 98.74 108.769 98.402C108.431 98.064 107.898 97.895 107.17 97.895H105.558V104.005H107.235Z" fill="#A0A0A5"/>
<rect x="41.5" y="121" width="319" height="44" rx="2.5" fill="#F5F7F9"/>
<rect x="41.5" y="121" width="319" height="44" rx="2.5" stroke="#DDDDE2"/>
<path d="M0.5 0.5H52.5V17C52.5 18.933 50.933 20.5 49 20.5H0.5V0.5Z" fill="#F5F7F9"/>
<path d="M13.122 14C13.0487 14 12.9863 13.9743 12.935 13.923C12.8837 13.8717 12.858 13.8093 12.858 13.736V6.564C12.858 6.48333 12.8837 6.421 12.935 6.377C12.9863 6.32567 13.0487 6.3 13.122 6.3H14.156C14.2367 6.3 14.299 6.32567 14.343 6.377C14.3943 6.421 14.42 6.48333 14.42 6.564V13.736C14.42 13.8093 14.3943 13.8717 14.343 13.923C14.299 13.9743 14.2367 14 14.156 14H13.122ZM16.2771 14C16.2038 14 16.1414 13.9743 16.0901 13.923C16.0388 13.8717 16.0131 13.8093 16.0131 13.736V8.544C16.0131 8.47067 16.0388 8.40833 16.0901 8.357C16.1414 8.30567 16.2038 8.28 16.2771 8.28H17.1791C17.2524 8.28 17.3148 8.30567 17.3661 8.357C17.4174 8.40833 17.4431 8.47067 17.4431 8.544V8.995C17.8758 8.445 18.4881 8.17 19.2801 8.17C19.9548 8.17 20.4901 8.39367 20.8861 8.841C21.2821 9.281 21.4801 9.88233 21.4801 10.645V13.736C21.4801 13.8093 21.4544 13.8717 21.4031 13.923C21.3591 13.9743 21.2968 14 21.2161 14H20.2481C20.1748 14 20.1124 13.9743 20.0611 13.923C20.0098 13.8717 19.9841 13.8093 19.9841 13.736V10.711C19.9841 10.2783 19.8778 9.94467 19.6651 9.71C19.4598 9.468 19.1591 9.347 18.7631 9.347C18.3744 9.347 18.0664 9.468 17.8391 9.71C17.6191 9.952 17.5091 10.2857 17.5091 10.711V13.736C17.5091 13.8093 17.4834 13.8717 17.4321 13.923C17.3881 13.9743 17.3258 14 17.2451 14H16.2771ZM23.1524 16.09C23.079 16.09 23.0167 16.0643 22.9654 16.013C22.914 15.969 22.8884 15.9067 22.8884 15.826V8.544C22.8884 8.46333 22.914 8.401 22.9654 8.357C23.0167 8.30567 23.079 8.28 23.1524 8.28H24.0214C24.102 8.28 24.1644 8.30567 24.2084 8.357C24.2597 8.401 24.2854 8.46333 24.2854 8.544V8.984C24.696 8.44133 25.2827 8.17 26.0454 8.17C26.786 8.17 27.3544 8.40467 27.7504 8.874C28.1464 9.336 28.359 9.963 28.3884 10.755C28.3957 10.843 28.3994 10.9713 28.3994 11.14C28.3994 11.316 28.3957 11.448 28.3884 11.536C28.359 12.306 28.1464 12.9293 27.7504 13.406C27.3544 13.8753 26.786 14.11 26.0454 14.11C25.3047 14.11 24.74 13.8497 24.3514 13.329V15.826C24.3514 15.9067 24.3257 15.969 24.2744 16.013C24.2304 16.0643 24.168 16.09 24.0874 16.09H23.1524ZM25.6384 12.933C26.4304 12.933 26.852 12.4453 26.9034 11.47C26.9107 11.3967 26.9144 11.2867 26.9144 11.14C26.9144 10.9933 26.9107 10.8833 26.9034 10.81C26.852 9.83467 26.4304 9.347 25.6384 9.347C25.213 9.347 24.8977 9.48267 24.6924 9.754C24.487 10.0253 24.3734 10.359 24.3514 10.755L24.3404 11.173L24.3514 11.602C24.366 11.9687 24.4797 12.284 24.6924 12.548C24.9124 12.8047 25.2277 12.933 25.6384 12.933ZM31.7572 14.11C31.0825 14.11 30.5509 13.89 30.1622 13.45C29.7735 13.0027 29.5792 12.3977 29.5792 11.635V8.544C29.5792 8.47067 29.6049 8.40833 29.6562 8.357C29.7075 8.30567 29.7699 8.28 29.8432 8.28H30.8112C30.8919 8.28 30.9542 8.30567 30.9982 8.357C31.0495 8.401 31.0752 8.46333 31.0752 8.544V11.569C31.0752 12.4783 31.4749 12.933 32.2742 12.933C32.6555 12.933 32.9562 12.812 33.1762 12.57C33.4035 12.328 33.5172 11.9943 33.5172 11.569V8.544C33.5172 8.47067 33.5429 8.40833 33.5942 8.357C33.6455 8.30567 33.7079 8.28 33.7812 8.28H34.7492C34.8299 8.28 34.8922 8.30567 34.9362 8.357C34.9875 8.401 35.0132 8.46333 35.0132 8.544V13.736C35.0132 13.8093 34.9875 13.8717 34.9362 13.923C34.8922 13.9743 34.8299 14 34.7492 14H33.8582C33.7849 14 33.7225 13.9743 33.6712 13.923C33.6199 13.8717 33.5942 13.8093 33.5942 13.736V13.285C33.1835 13.835 32.5712 14.11 31.7572 14.11ZM39.0512 14C38.3839 14 37.8816 13.8277 37.5442 13.483C37.2142 13.131 37.0492 12.6177 37.0492 11.943V9.446H36.1802C36.1069 9.446 36.0446 9.42033 35.9932 9.369C35.9419 9.31033 35.9162 9.24433 35.9162 9.171V8.544C35.9162 8.47067 35.9419 8.40833 35.9932 8.357C36.0446 8.30567 36.1069 8.28 36.1802 8.28H37.0492V6.454C37.0492 6.37333 37.0749 6.311 37.1262 6.267C37.1776 6.21567 37.2399 6.19 37.3132 6.19H38.2042C38.2849 6.19 38.3472 6.21567 38.3912 6.267C38.4426 6.311 38.4682 6.37333 38.4682 6.454V8.28H39.8432C39.9239 8.28 39.9862 8.30567 40.0302 8.357C40.0816 8.401 40.1072 8.46333 40.1072 8.544V9.171C40.1072 9.25167 40.0816 9.31767 40.0302 9.369C39.9789 9.42033 39.9166 9.446 39.8432 9.446H38.4682V11.833C38.4682 12.1483 38.5232 12.3867 38.6332 12.548C38.7432 12.7093 38.9266 12.79 39.1832 12.79H39.9422C40.0156 12.79 40.0779 12.8157 40.1292 12.867C40.1806 12.9183 40.2062 12.9807 40.2062 13.054V13.736C40.2062 13.8093 40.1806 13.8717 40.1292 13.923C40.0852 13.9743 40.0229 14 39.9422 14H39.0512Z" fill="#535356"/>
<path d="M0.5 0.5H52.5V17C52.5 18.933 50.933 20.5 49 20.5H0.5V0.5Z" stroke="#EAEAEF"/>
<rect x="0.5" y="0.5" width="401" height="257" stroke="#EAEAEF"/>
</svg>
