<svg width="802" height="258" viewBox="0 0 802 258" fill="none" xmlns="http://www.w3.org/2000/svg">
<rect width="400" height="256" transform="translate(1 1)" fill="white"/>
<rect width="400" height="103" transform="translate(1 77.5)" fill="white"/>
<rect width="320" height="73" transform="translate(41 92.5)" fill="white"/>
<path d="M42.326 105.5C42.2393 105.5 42.1657 105.47 42.105 105.409C42.0443 105.348 42.014 105.275 42.014 105.188V96.725C42.014 96.6297 42.04 96.5517 42.092 96.491C42.1527 96.4303 42.2307 96.4 42.326 96.4H43.327C43.431 96.4 43.509 96.4217 43.561 96.465C43.613 96.4997 43.6607 96.5473 43.704 96.608L47.448 102.432V96.725C47.448 96.6297 47.474 96.5517 47.526 96.491C47.5867 96.4303 47.6647 96.4 47.76 96.4H48.852C48.9473 96.4 49.0253 96.4303 49.086 96.491C49.1467 96.5517 49.177 96.6297 49.177 96.725V105.175C49.177 105.27 49.1467 105.348 49.086 105.409C49.0253 105.47 48.9517 105.5 48.865 105.5H47.851C47.7037 105.5 47.578 105.431 47.474 105.292L43.743 99.598V105.188C43.743 105.283 43.7127 105.361 43.652 105.422C43.5913 105.474 43.5133 105.5 43.418 105.5H42.326ZM50.6464 105.5C50.5771 105.5 50.5121 105.474 50.4514 105.422C50.3994 105.37 50.3734 105.305 50.3734 105.227L50.3994 105.11L53.5324 96.725C53.5931 96.5083 53.7447 96.4 53.9874 96.4H55.4044C55.6297 96.4 55.7814 96.5083 55.8594 96.725L58.9924 105.11C59.0011 105.136 59.0054 105.175 59.0054 105.227C59.0054 105.305 58.9794 105.37 58.9274 105.422C58.8754 105.474 58.8147 105.5 58.7454 105.5H57.6144C57.5017 105.5 57.4151 105.474 57.3544 105.422C57.2937 105.37 57.2547 105.314 57.2374 105.253L56.6264 103.667H52.7654L52.1544 105.253C52.0851 105.418 51.9594 105.5 51.7774 105.5H50.6464ZM56.1714 102.172L54.6894 98.155L53.2204 102.172H56.1714ZM60.5441 105.5C60.4487 105.5 60.3707 105.474 60.3101 105.422C60.2494 105.361 60.2191 105.283 60.2191 105.188V96.725C60.2191 96.6297 60.2494 96.5517 60.3101 96.491C60.3707 96.4303 60.4487 96.4 60.5441 96.4H61.5711C61.7531 96.4 61.8831 96.4823 61.9611 96.647L64.4701 101.327L67.0051 96.647C67.0917 96.4823 67.2217 96.4 67.3951 96.4H68.4091C68.5044 96.4 68.5824 96.4303 68.6431 96.491C68.7037 96.5517 68.7341 96.6297 68.7341 96.725V105.188C68.7341 105.283 68.7037 105.361 68.6431 105.422C68.5824 105.474 68.5044 105.5 68.4091 105.5H67.3171C67.2304 105.5 67.1567 105.47 67.0961 105.409C67.0354 105.348 67.0051 105.275 67.0051 105.188V99.559L65.1851 103.03C65.0724 103.221 64.9251 103.316 64.7431 103.316H64.2101C64.0281 103.316 63.8807 103.221 63.7681 103.03L61.9481 99.559V105.188C61.9481 105.275 61.9177 105.348 61.8571 105.409C61.8051 105.47 61.7314 105.5 61.6361 105.5H60.5441ZM71.0682 105.5C70.9815 105.5 70.9079 105.47 70.8472 105.409C70.7865 105.348 70.7562 105.275 70.7562 105.188V96.725C70.7562 96.6297 70.7822 96.5517 70.8342 96.491C70.8949 96.4303 70.9729 96.4 71.0682 96.4H76.7882C76.8835 96.4 76.9615 96.4303 77.0222 96.491C77.0829 96.5517 77.1132 96.6297 77.1132 96.725V97.583C77.1132 97.6783 77.0829 97.7563 77.0222 97.817C76.9615 97.869 76.8835 97.895 76.7882 97.895H72.5112V100.196H76.5022C76.5975 100.196 76.6755 100.226 76.7362 100.287C76.7969 100.339 76.8272 100.413 76.8272 100.508V101.314C76.8272 101.409 76.7969 101.487 76.7362 101.548C76.6755 101.6 76.5975 101.626 76.5022 101.626H72.5112V104.005H76.8922C76.9875 104.005 77.0655 104.035 77.1262 104.096C77.1869 104.157 77.2172 104.235 77.2172 104.33V105.188C77.2172 105.283 77.1869 105.361 77.1262 105.422C77.0655 105.474 76.9875 105.5 76.8922 105.5H71.0682Z" fill="#A0A0A5"/>
<rect x="41.5" y="121" width="319" height="44" rx="2.5" fill="#F5F7F9"/>
<rect x="41.5" y="121" width="319" height="44" rx="2.5" stroke="#DDDDE2"/>
<path d="M0.5 0.5H52.5V17C52.5 18.933 50.933 20.5 49 20.5H0.5V0.5Z" fill="#F5F7F9"/>
<path d="M13.122 14C13.0487 14 12.9863 13.9743 12.935 13.923C12.8837 13.8717 12.858 13.8093 12.858 13.736V6.564C12.858 6.48333 12.8837 6.421 12.935 6.377C12.9863 6.32567 13.0487 6.3 13.122 6.3H14.156C14.2367 6.3 14.299 6.32567 14.343 6.377C14.3943 6.421 14.42 6.48333 14.42 6.564V13.736C14.42 13.8093 14.3943 13.8717 14.343 13.923C14.299 13.9743 14.2367 14 14.156 14H13.122ZM16.2771 14C16.2038 14 16.1414 13.9743 16.0901 13.923C16.0388 13.8717 16.0131 13.8093 16.0131 13.736V8.544C16.0131 8.47067 16.0388 8.40833 16.0901 8.357C16.1414 8.30567 16.2038 8.28 16.2771 8.28H17.1791C17.2524 8.28 17.3148 8.30567 17.3661 8.357C17.4174 8.40833 17.4431 8.47067 17.4431 8.544V8.995C17.8758 8.445 18.4881 8.17 19.2801 8.17C19.9548 8.17 20.4901 8.39367 20.8861 8.841C21.2821 9.281 21.4801 9.88233 21.4801 10.645V13.736C21.4801 13.8093 21.4544 13.8717 21.4031 13.923C21.3591 13.9743 21.2968 14 21.2161 14H20.2481C20.1748 14 20.1124 13.9743 20.0611 13.923C20.0098 13.8717 19.9841 13.8093 19.9841 13.736V10.711C19.9841 10.2783 19.8778 9.94467 19.6651 9.71C19.4598 9.468 19.1591 9.347 18.7631 9.347C18.3744 9.347 18.0664 9.468 17.8391 9.71C17.6191 9.952 17.5091 10.2857 17.5091 10.711V13.736C17.5091 13.8093 17.4834 13.8717 17.4321 13.923C17.3881 13.9743 17.3258 14 17.2451 14H16.2771ZM23.1524 16.09C23.079 16.09 23.0167 16.0643 22.9654 16.013C22.914 15.969 22.8884 15.9067 22.8884 15.826V8.544C22.8884 8.46333 22.914 8.401 22.9654 8.357C23.0167 8.30567 23.079 8.28 23.1524 8.28H24.0214C24.102 8.28 24.1644 8.30567 24.2084 8.357C24.2597 8.401 24.2854 8.46333 24.2854 8.544V8.984C24.696 8.44133 25.2827 8.17 26.0454 8.17C26.786 8.17 27.3544 8.40467 27.7504 8.874C28.1464 9.336 28.359 9.963 28.3884 10.755C28.3957 10.843 28.3994 10.9713 28.3994 11.14C28.3994 11.316 28.3957 11.448 28.3884 11.536C28.359 12.306 28.1464 12.9293 27.7504 13.406C27.3544 13.8753 26.786 14.11 26.0454 14.11C25.3047 14.11 24.74 13.8497 24.3514 13.329V15.826C24.3514 15.9067 24.3257 15.969 24.2744 16.013C24.2304 16.0643 24.168 16.09 24.0874 16.09H23.1524ZM25.6384 12.933C26.4304 12.933 26.852 12.4453 26.9034 11.47C26.9107 11.3967 26.9144 11.2867 26.9144 11.14C26.9144 10.9933 26.9107 10.8833 26.9034 10.81C26.852 9.83467 26.4304 9.347 25.6384 9.347C25.213 9.347 24.8977 9.48267 24.6924 9.754C24.487 10.0253 24.3734 10.359 24.3514 10.755L24.3404 11.173L24.3514 11.602C24.366 11.9687 24.4797 12.284 24.6924 12.548C24.9124 12.8047 25.2277 12.933 25.6384 12.933ZM31.7572 14.11C31.0825 14.11 30.5509 13.89 30.1622 13.45C29.7735 13.0027 29.5792 12.3977 29.5792 11.635V8.544C29.5792 8.47067 29.6049 8.40833 29.6562 8.357C29.7075 8.30567 29.7699 8.28 29.8432 8.28H30.8112C30.8919 8.28 30.9542 8.30567 30.9982 8.357C31.0495 8.401 31.0752 8.46333 31.0752 8.544V11.569C31.0752 12.4783 31.4749 12.933 32.2742 12.933C32.6555 12.933 32.9562 12.812 33.1762 12.57C33.4035 12.328 33.5172 11.9943 33.5172 11.569V8.544C33.5172 8.47067 33.5429 8.40833 33.5942 8.357C33.6455 8.30567 33.7079 8.28 33.7812 8.28H34.7492C34.8299 8.28 34.8922 8.30567 34.9362 8.357C34.9875 8.401 35.0132 8.46333 35.0132 8.544V13.736C35.0132 13.8093 34.9875 13.8717 34.9362 13.923C34.8922 13.9743 34.8299 14 34.7492 14H33.8582C33.7849 14 33.7225 13.9743 33.6712 13.923C33.6199 13.8717 33.5942 13.8093 33.5942 13.736V13.285C33.1835 13.835 32.5712 14.11 31.7572 14.11ZM39.0512 14C38.3839 14 37.8816 13.8277 37.5442 13.483C37.2142 13.131 37.0492 12.6177 37.0492 11.943V9.446H36.1802C36.1069 9.446 36.0446 9.42033 35.9932 9.369C35.9419 9.31033 35.9162 9.24433 35.9162 9.171V8.544C35.9162 8.47067 35.9419 8.40833 35.9932 8.357C36.0446 8.30567 36.1069 8.28 36.1802 8.28H37.0492V6.454C37.0492 6.37333 37.0749 6.311 37.1262 6.267C37.1776 6.21567 37.2399 6.19 37.3132 6.19H38.2042C38.2849 6.19 38.3472 6.21567 38.3912 6.267C38.4426 6.311 38.4682 6.37333 38.4682 6.454V8.28H39.8432C39.9239 8.28 39.9862 8.30567 40.0302 8.357C40.0816 8.401 40.1072 8.46333 40.1072 8.544V9.171C40.1072 9.25167 40.0816 9.31767 40.0302 9.369C39.9789 9.42033 39.9166 9.446 39.8432 9.446H38.4682V11.833C38.4682 12.1483 38.5232 12.3867 38.6332 12.548C38.7432 12.7093 38.9266 12.79 39.1832 12.79H39.9422C40.0156 12.79 40.0779 12.8157 40.1292 12.867C40.1806 12.9183 40.2062 12.9807 40.2062 13.054V13.736C40.2062 13.8093 40.1806 13.8717 40.1292 13.923C40.0852 13.9743 40.0229 14 39.9422 14H39.0512Z" fill="#535356"/>
<path d="M0.5 0.5H52.5V17C52.5 18.933 50.933 20.5 49 20.5H0.5V0.5Z" stroke="#EAEAEF"/>
<mask id="path-6-inside-1_847_389" fill="white">
<path d="M401 1H801V257H401V1Z"/>
</mask>
<path d="M401 1H801V257H401V1Z" fill="#F5F7F9"/>
<g filter="url(#filter0_d_847_389)">
<mask id="path-9-inside-2_847_389" fill="white">
<path d="M473 31H561V80H473V31Z"/>
</mask>
<path d="M473 31H561V80H473V31Z" fill="white"/>
<rect x="493" y="47" width="48" height="17" rx="5" fill="#F2F2F6"/>
<path d="M561 79H473V81H561V79Z" fill="#CBC9CD" mask="url(#path-9-inside-2_847_389)"/>
<mask id="path-12-inside-3_847_389" fill="white">
<path d="M473 80H561V129H473V80Z"/>
</mask>
<path d="M473 80H561V129H473V80Z" fill="white"/>
<rect x="493" y="96" width="48" height="17" rx="5" fill="#F2F2F6"/>
<path d="M561 128H473V130H561V128Z" fill="#CBC9CD" mask="url(#path-12-inside-3_847_389)"/>
<mask id="path-15-inside-4_847_389" fill="white">
<path d="M473 129H561V178H473V129Z"/>
</mask>
<path d="M473 129H561V178H473V129Z" fill="white"/>
<rect x="493" y="145" width="48" height="17" rx="5" fill="#F2F2F6"/>
<path d="M561 177H473V179H561V177Z" fill="#CBC9CD" mask="url(#path-15-inside-4_847_389)"/>
<mask id="path-18-inside-5_847_389" fill="white">
<path d="M473 178H561V227H473V178Z"/>
</mask>
<path d="M473 178H561V227H473V178Z" fill="white"/>
<rect x="493" y="194" width="48" height="17" rx="5" fill="#F2F2F6"/>
<path d="M561 226H473V228H561V226Z" fill="#CBC9CD" mask="url(#path-18-inside-5_847_389)"/>
<mask id="path-21-inside-6_847_389" fill="white">
<path d="M561 31H641V80H561V31Z"/>
</mask>
<path d="M561 31H641V80H561V31Z" fill="white"/>
<path d="M582.287 60C582.192 60 582.114 59.9697 582.053 59.909C581.992 59.8483 581.962 59.7703 581.962 59.675V51.225C581.962 51.1297 581.992 51.0517 582.053 50.991C582.114 50.9303 582.192 50.9 582.287 50.9H583.47C583.6 50.9 583.695 50.9303 583.756 50.991C583.817 51.0517 583.856 51.0993 583.873 51.134L587.344 56.555V51.225C587.344 51.1297 587.374 51.0517 587.435 50.991C587.496 50.9303 587.569 50.9 587.656 50.9H588.982C589.077 50.9 589.155 50.9303 589.216 50.991C589.277 51.0517 589.307 51.1297 589.307 51.225V59.675C589.307 59.7617 589.277 59.8397 589.216 59.909C589.155 59.9697 589.077 60 588.982 60H587.786C587.656 60 587.561 59.9697 587.5 59.909C587.448 59.8397 587.409 59.792 587.383 59.766L583.925 54.514V59.675C583.925 59.7703 583.895 59.8483 583.834 59.909C583.773 59.9697 583.695 60 583.6 60H582.287ZM590.697 60C590.619 60 590.554 59.974 590.502 59.922C590.45 59.8613 590.424 59.7963 590.424 59.727C590.424 59.6837 590.428 59.6447 590.437 59.61L593.531 51.251C593.557 51.1557 593.609 51.0733 593.687 51.004C593.765 50.9347 593.873 50.9 594.012 50.9H595.676C595.814 50.9 595.923 50.9347 596.001 51.004C596.079 51.0733 596.131 51.1557 596.157 51.251L599.251 59.61C599.259 59.6447 599.264 59.6837 599.264 59.727C599.264 59.7963 599.238 59.8613 599.186 59.922C599.134 59.974 599.069 60 598.991 60H597.639C597.509 60 597.413 59.9697 597.353 59.909C597.292 59.8483 597.253 59.792 597.236 59.74L596.677 58.284H593.011L592.452 59.74C592.434 59.792 592.395 59.8483 592.335 59.909C592.274 59.9697 592.179 60 592.049 60H590.697ZM593.492 56.607H596.183L594.844 52.863L593.492 56.607ZM600.708 60C600.621 60 600.543 59.9697 600.474 59.909C600.413 59.8483 600.383 59.7703 600.383 59.675V51.225C600.383 51.1297 600.413 51.0517 600.474 50.991C600.543 50.9303 600.621 50.9 600.708 50.9H601.917C602.047 50.9 602.142 50.9347 602.203 51.004C602.272 51.0733 602.32 51.1253 602.346 51.16L604.738 55.567L607.156 51.16C607.173 51.1253 607.212 51.0733 607.273 51.004C607.342 50.9347 607.442 50.9 607.572 50.9H608.781C608.876 50.9 608.954 50.9303 609.015 50.991C609.076 51.0517 609.106 51.1297 609.106 51.225V59.675C609.106 59.7703 609.076 59.8483 609.015 59.909C608.954 59.9697 608.876 60 608.781 60H607.455C607.368 60 607.295 59.9697 607.234 59.909C607.173 59.8483 607.143 59.7703 607.143 59.675V54.423L605.492 57.517C605.449 57.595 605.392 57.6643 605.323 57.725C605.254 57.7857 605.163 57.816 605.05 57.816H604.439C604.326 57.816 604.235 57.7857 604.166 57.725C604.097 57.6643 604.04 57.595 603.997 57.517L602.346 54.423V59.675C602.346 59.7703 602.316 59.8483 602.255 59.909C602.194 59.9697 602.121 60 602.034 60H600.708ZM611.359 60C611.264 60 611.186 59.9697 611.125 59.909C611.065 59.8483 611.034 59.7703 611.034 59.675V51.225C611.034 51.1297 611.065 51.0517 611.125 50.991C611.186 50.9303 611.264 50.9 611.359 50.9H617.248C617.344 50.9 617.422 50.9303 617.482 50.991C617.543 51.0517 617.573 51.1297 617.573 51.225V52.265C617.573 52.3517 617.543 52.4253 617.482 52.486C617.422 52.5467 617.344 52.577 617.248 52.577H613.036V54.618H616.962C617.058 54.618 617.136 54.6483 617.196 54.709C617.257 54.7697 617.287 54.8477 617.287 54.943V55.905C617.287 55.9917 617.257 56.0653 617.196 56.126C617.136 56.1867 617.058 56.217 616.962 56.217H613.036V58.323H617.352C617.448 58.323 617.526 58.3533 617.586 58.414C617.647 58.4747 617.677 58.5527 617.677 58.648V59.675C617.677 59.7703 617.647 59.8483 617.586 59.909C617.526 59.9697 617.448 60 617.352 60H611.359Z" fill="#A0A0A5"/>
<path d="M641 79H561V81H641V79Z" fill="#CBC9CD" mask="url(#path-21-inside-6_847_389)"/>
<mask id="path-24-inside-7_847_389" fill="white">
<path d="M561 80H641V129H561V80Z"/>
</mask>
<path d="M561 80H641V129H561V80Z" fill="white"/>
<path d="M582.43 109C582.335 109 582.261 108.974 582.209 108.922C582.157 108.861 582.131 108.788 582.131 108.701V100.212C582.131 100.117 582.157 100.043 582.209 99.991C582.261 99.9303 582.335 99.9 582.43 99.9H583.028C583.132 99.9 583.21 99.926 583.262 99.978C583.314 100.021 583.344 100.056 583.353 100.082L587.669 106.712V100.212C587.669 100.117 587.695 100.043 587.747 99.991C587.799 99.9303 587.873 99.9 587.968 99.9H588.592C588.687 99.9 588.761 99.9303 588.813 99.991C588.874 100.043 588.904 100.117 588.904 100.212V108.688C588.904 108.775 588.874 108.848 588.813 108.909C588.761 108.97 588.692 109 588.605 109H587.981C587.886 109 587.812 108.974 587.76 108.922C587.717 108.87 587.686 108.835 587.669 108.818L583.366 102.253V108.701C583.366 108.788 583.336 108.861 583.275 108.922C583.223 108.974 583.149 109 583.054 109H582.43ZM593.679 109.13C592.787 109.13 592.076 108.857 591.547 108.311C591.019 107.756 590.728 107.002 590.676 106.049C590.668 105.936 590.663 105.793 590.663 105.62C590.663 105.438 590.668 105.291 590.676 105.178C590.711 104.563 590.854 104.025 591.105 103.566C591.357 103.098 591.699 102.738 592.132 102.487C592.574 102.236 593.09 102.11 593.679 102.11C594.338 102.11 594.888 102.249 595.33 102.526C595.781 102.803 596.123 103.198 596.357 103.709C596.591 104.22 596.708 104.818 596.708 105.503V105.724C596.708 105.819 596.678 105.893 596.617 105.945C596.565 105.997 596.496 106.023 596.409 106.023H591.911C591.911 106.032 591.911 106.049 591.911 106.075C591.911 106.101 591.911 106.123 591.911 106.14C591.929 106.495 592.007 106.829 592.145 107.141C592.284 107.444 592.483 107.691 592.743 107.882C593.003 108.073 593.315 108.168 593.679 108.168C593.991 108.168 594.251 108.12 594.459 108.025C594.667 107.93 594.836 107.826 594.966 107.713C595.096 107.592 595.183 107.501 595.226 107.44C595.304 107.327 595.365 107.262 595.408 107.245C595.452 107.219 595.521 107.206 595.616 107.206H596.24C596.327 107.206 596.396 107.232 596.448 107.284C596.509 107.327 596.535 107.392 596.526 107.479C596.518 107.609 596.448 107.769 596.318 107.96C596.188 108.142 596.002 108.324 595.759 108.506C595.517 108.688 595.222 108.84 594.875 108.961C594.529 109.074 594.13 109.13 593.679 109.13ZM591.911 105.126H595.473V105.087C595.473 104.697 595.4 104.35 595.252 104.047C595.114 103.744 594.91 103.505 594.641 103.332C594.373 103.15 594.052 103.059 593.679 103.059C593.307 103.059 592.986 103.15 592.717 103.332C592.457 103.505 592.258 103.744 592.119 104.047C591.981 104.35 591.911 104.697 591.911 105.087V105.126ZM598.562 109C598.475 109 598.401 108.974 598.341 108.922C598.289 108.861 598.263 108.788 598.263 108.701V102.552C598.263 102.465 598.289 102.392 598.341 102.331C598.401 102.27 598.475 102.24 598.562 102.24H599.16C599.246 102.24 599.32 102.27 599.381 102.331C599.441 102.392 599.472 102.465 599.472 102.552V103.124C599.645 102.829 599.883 102.608 600.187 102.461C600.49 102.314 600.854 102.24 601.279 102.24H601.799C601.885 102.24 601.955 102.27 602.007 102.331C602.059 102.383 602.085 102.452 602.085 102.539V103.072C602.085 103.159 602.059 103.228 602.007 103.28C601.955 103.332 601.885 103.358 601.799 103.358H601.019C600.551 103.358 600.182 103.497 599.914 103.774C599.645 104.043 599.511 104.411 599.511 104.879V108.701C599.511 108.788 599.48 108.861 599.42 108.922C599.359 108.974 599.285 109 599.199 109H598.562ZM605.843 109.13C605.185 109.13 604.634 109.004 604.192 108.753C603.75 108.502 603.412 108.155 603.178 107.713C602.944 107.262 602.814 106.751 602.788 106.179C602.78 106.032 602.775 105.845 602.775 105.62C602.775 105.386 602.78 105.2 602.788 105.061C602.814 104.48 602.944 103.969 603.178 103.527C603.421 103.085 603.763 102.738 604.205 102.487C604.647 102.236 605.193 102.11 605.843 102.11C606.493 102.11 607.039 102.236 607.481 102.487C607.923 102.738 608.261 103.085 608.495 103.527C608.738 103.969 608.872 104.48 608.898 105.061C608.907 105.2 608.911 105.386 608.911 105.62C608.911 105.845 608.907 106.032 608.898 106.179C608.872 106.751 608.742 107.262 608.508 107.713C608.274 108.155 607.936 108.502 607.494 108.753C607.052 109.004 606.502 109.13 605.843 109.13ZM605.843 108.129C606.381 108.129 606.81 107.96 607.13 107.622C607.451 107.275 607.624 106.773 607.65 106.114C607.659 105.984 607.663 105.819 607.663 105.62C607.663 105.421 607.659 105.256 607.65 105.126C607.624 104.467 607.451 103.969 607.13 103.631C606.81 103.284 606.381 103.111 605.843 103.111C605.306 103.111 604.873 103.284 604.543 103.631C604.223 103.969 604.054 104.467 604.036 105.126C604.028 105.256 604.023 105.421 604.023 105.62C604.023 105.819 604.028 105.984 604.036 106.114C604.054 106.773 604.223 107.275 604.543 107.622C604.873 107.96 605.306 108.129 605.843 108.129Z" fill="#303032"/>
<path d="M641 128H561V130H641V128Z" fill="#CBC9CD" mask="url(#path-24-inside-7_847_389)"/>
<mask id="path-27-inside-8_847_389" fill="white">
<path d="M561 129H641V178H561V129Z"/>
</mask>
<path d="M561 129H641V178H561V129Z" fill="white"/>
<path d="M582.43 158C582.343 158 582.27 157.974 582.209 157.922C582.157 157.861 582.131 157.788 582.131 157.701V149.212C582.131 149.117 582.157 149.043 582.209 148.991C582.27 148.93 582.343 148.9 582.43 148.9H583.08C583.184 148.9 583.262 148.926 583.314 148.978C583.366 149.03 583.396 149.073 583.405 149.108L586.161 154.36L588.93 149.108C588.947 149.073 588.978 149.03 589.021 148.978C589.073 148.926 589.151 148.9 589.255 148.9H589.892C589.987 148.9 590.061 148.93 590.113 148.991C590.174 149.043 590.204 149.117 590.204 149.212V157.701C590.204 157.788 590.174 157.861 590.113 157.922C590.061 157.974 589.987 158 589.892 158H589.255C589.168 158 589.095 157.974 589.034 157.922C588.982 157.861 588.956 157.788 588.956 157.701V151.305L586.785 155.543C586.75 155.63 586.698 155.699 586.629 155.751C586.56 155.794 586.473 155.816 586.369 155.816H585.966C585.853 155.816 585.762 155.794 585.693 155.751C585.632 155.699 585.58 155.63 585.537 155.543L583.366 151.305V157.701C583.366 157.788 583.336 157.861 583.275 157.922C583.223 157.974 583.154 158 583.067 158H582.43ZM594.168 158.13C593.735 158.13 593.341 158.043 592.985 157.87C592.63 157.697 592.344 157.463 592.127 157.168C591.911 156.873 591.802 156.54 591.802 156.167C591.802 155.569 592.045 155.092 592.53 154.737C593.016 154.382 593.648 154.148 594.428 154.035L596.365 153.762V153.385C596.365 152.969 596.244 152.644 596.001 152.41C595.767 152.176 595.382 152.059 594.844 152.059C594.454 152.059 594.138 152.137 593.895 152.293C593.661 152.449 593.497 152.648 593.401 152.891C593.349 153.021 593.258 153.086 593.128 153.086H592.543C592.448 153.086 592.374 153.06 592.322 153.008C592.279 152.947 592.257 152.878 592.257 152.8C592.257 152.67 592.305 152.51 592.4 152.319C592.504 152.128 592.66 151.942 592.868 151.76C593.076 151.578 593.341 151.426 593.661 151.305C593.991 151.175 594.389 151.11 594.857 151.11C595.377 151.11 595.815 151.179 596.17 151.318C596.526 151.448 596.803 151.626 597.002 151.851C597.21 152.076 597.358 152.332 597.444 152.618C597.54 152.904 597.587 153.194 597.587 153.489V157.701C597.587 157.788 597.557 157.861 597.496 157.922C597.444 157.974 597.375 158 597.288 158H596.69C596.595 158 596.521 157.974 596.469 157.922C596.417 157.861 596.391 157.788 596.391 157.701V157.142C596.279 157.298 596.127 157.454 595.936 157.61C595.746 157.757 595.507 157.883 595.221 157.987C594.935 158.082 594.584 158.13 594.168 158.13ZM594.441 157.155C594.797 157.155 595.122 157.081 595.416 156.934C595.711 156.778 595.941 156.54 596.105 156.219C596.279 155.898 596.365 155.495 596.365 155.01V154.646L594.857 154.867C594.242 154.954 593.778 155.101 593.466 155.309C593.154 155.508 592.998 155.764 592.998 156.076C592.998 156.319 593.068 156.522 593.206 156.687C593.354 156.843 593.536 156.96 593.752 157.038C593.978 157.116 594.207 157.155 594.441 157.155ZM599.768 158C599.681 158 599.608 157.974 599.547 157.922C599.495 157.861 599.469 157.788 599.469 157.701V149.069C599.469 148.982 599.495 148.913 599.547 148.861C599.608 148.8 599.681 148.77 599.768 148.77H600.379C600.474 148.77 600.548 148.8 600.6 148.861C600.652 148.913 600.678 148.982 600.678 149.069V157.701C600.678 157.788 600.652 157.861 600.6 157.922C600.548 157.974 600.474 158 600.379 158H599.768ZM603.043 158C602.957 158 602.883 157.974 602.822 157.922C602.77 157.861 602.744 157.788 602.744 157.701V151.539C602.744 151.452 602.77 151.383 602.822 151.331C602.883 151.27 602.957 151.24 603.043 151.24H603.667C603.754 151.24 603.823 151.27 603.875 151.331C603.927 151.383 603.953 151.452 603.953 151.539V157.701C603.953 157.788 603.927 157.861 603.875 157.922C603.823 157.974 603.754 158 603.667 158H603.043ZM602.939 149.979C602.853 149.979 602.779 149.953 602.718 149.901C602.666 149.84 602.64 149.767 602.64 149.68V148.978C602.64 148.891 602.666 148.822 602.718 148.77C602.779 148.709 602.853 148.679 602.939 148.679H603.758C603.845 148.679 603.914 148.709 603.966 148.77C604.027 148.822 604.057 148.891 604.057 148.978V149.68C604.057 149.767 604.027 149.84 603.966 149.901C603.914 149.953 603.845 149.979 603.758 149.979H602.939ZM609.234 158.13C608.714 158.13 608.28 158.039 607.934 157.857C607.587 157.666 607.31 157.432 607.102 157.155V157.701C607.102 157.788 607.071 157.861 607.011 157.922C606.959 157.974 606.889 158 606.803 158H606.205C606.118 158 606.044 157.974 605.984 157.922C605.932 157.861 605.906 157.788 605.906 157.701V149.069C605.906 148.982 605.932 148.913 605.984 148.861C606.044 148.8 606.118 148.77 606.205 148.77H606.829C606.924 148.77 606.998 148.8 607.05 148.861C607.102 148.913 607.128 148.982 607.128 149.069V152.059C607.344 151.79 607.622 151.565 607.96 151.383C608.306 151.201 608.731 151.11 609.234 151.11C609.719 151.11 610.131 151.197 610.469 151.37C610.815 151.535 611.097 151.764 611.314 152.059C611.539 152.354 611.708 152.687 611.821 153.06C611.933 153.433 611.994 153.823 612.003 154.23C612.011 154.369 612.016 154.499 612.016 154.62C612.016 154.741 612.011 154.871 612.003 155.01C611.994 155.426 611.933 155.82 611.821 156.193C611.708 156.566 611.539 156.899 611.314 157.194C611.097 157.48 610.815 157.71 610.469 157.883C610.131 158.048 609.719 158.13 609.234 158.13ZM608.961 157.077C609.411 157.077 609.762 156.982 610.014 156.791C610.274 156.592 610.46 156.336 610.573 156.024C610.685 155.703 610.75 155.361 610.768 154.997C610.776 154.746 610.776 154.494 610.768 154.243C610.75 153.879 610.685 153.541 610.573 153.229C610.46 152.908 610.274 152.653 610.014 152.462C609.762 152.263 609.411 152.163 608.961 152.163C608.553 152.163 608.215 152.258 607.947 152.449C607.678 152.64 607.474 152.882 607.336 153.177C607.206 153.472 607.136 153.771 607.128 154.074C607.119 154.213 607.115 154.382 607.115 154.581C607.115 154.772 607.119 154.936 607.128 155.075C607.145 155.396 607.214 155.712 607.336 156.024C607.466 156.327 607.661 156.579 607.921 156.778C608.189 156.977 608.536 157.077 608.961 157.077ZM616.146 158.13C615.591 158.13 615.119 158.009 614.729 157.766C614.348 157.515 614.057 157.168 613.858 156.726C613.659 156.284 613.559 155.777 613.559 155.205V151.539C613.559 151.452 613.585 151.383 613.637 151.331C613.698 151.27 613.771 151.24 613.858 151.24H614.508C614.595 151.24 614.664 151.27 614.716 151.331C614.777 151.383 614.807 151.452 614.807 151.539V155.14C614.807 156.431 615.37 157.077 616.497 157.077C617.034 157.077 617.463 156.908 617.784 156.57C618.113 156.223 618.278 155.747 618.278 155.14V151.539C618.278 151.452 618.304 151.383 618.356 151.331C618.417 151.27 618.49 151.24 618.577 151.24H619.214C619.309 151.24 619.383 151.27 619.435 151.331C619.487 151.383 619.513 151.452 619.513 151.539V157.701C619.513 157.788 619.487 157.861 619.435 157.922C619.383 157.974 619.309 158 619.214 158H618.616C618.529 158 618.456 157.974 618.395 157.922C618.343 157.861 618.317 157.788 618.317 157.701V157.129C618.083 157.432 617.797 157.675 617.459 157.857C617.13 158.039 616.692 158.13 616.146 158.13Z" fill="#303032"/>
<path d="M641 177H561V179H641V177Z" fill="#CBC9CD" mask="url(#path-27-inside-8_847_389)"/>
<mask id="path-30-inside-9_847_389" fill="white">
<path d="M561 178H641V227H561V178Z"/>
</mask>
<path d="M561 178H641V227H561V178Z" fill="white"/>
<path d="M582.43 207C582.335 207 582.261 206.974 582.209 206.922C582.157 206.861 582.131 206.788 582.131 206.701V198.212C582.131 198.117 582.157 198.043 582.209 197.991C582.261 197.93 582.335 197.9 582.43 197.9H583.028C583.132 197.9 583.21 197.926 583.262 197.978C583.314 198.021 583.344 198.056 583.353 198.082L587.669 204.712V198.212C587.669 198.117 587.695 198.043 587.747 197.991C587.799 197.93 587.873 197.9 587.968 197.9H588.592C588.687 197.9 588.761 197.93 588.813 197.991C588.874 198.043 588.904 198.117 588.904 198.212V206.688C588.904 206.775 588.874 206.848 588.813 206.909C588.761 206.97 588.692 207 588.605 207H587.981C587.886 207 587.812 206.974 587.76 206.922C587.717 206.87 587.686 206.835 587.669 206.818L583.366 200.253V206.701C583.366 206.788 583.336 206.861 583.275 206.922C583.223 206.974 583.149 207 583.054 207H582.43ZM592.873 207.13C592.44 207.13 592.046 207.043 591.69 206.87C591.335 206.697 591.049 206.463 590.832 206.168C590.616 205.873 590.507 205.54 590.507 205.167C590.507 204.569 590.75 204.092 591.235 203.737C591.721 203.382 592.353 203.148 593.133 203.035L595.07 202.762V202.385C595.07 201.969 594.949 201.644 594.706 201.41C594.472 201.176 594.087 201.059 593.549 201.059C593.159 201.059 592.843 201.137 592.6 201.293C592.366 201.449 592.202 201.648 592.106 201.891C592.054 202.021 591.963 202.086 591.833 202.086H591.248C591.153 202.086 591.079 202.06 591.027 202.008C590.984 201.947 590.962 201.878 590.962 201.8C590.962 201.67 591.01 201.51 591.105 201.319C591.209 201.128 591.365 200.942 591.573 200.76C591.781 200.578 592.046 200.426 592.366 200.305C592.696 200.175 593.094 200.11 593.562 200.11C594.082 200.11 594.52 200.179 594.875 200.318C595.231 200.448 595.508 200.626 595.707 200.851C595.915 201.076 596.063 201.332 596.149 201.618C596.245 201.904 596.292 202.194 596.292 202.489V206.701C596.292 206.788 596.262 206.861 596.201 206.922C596.149 206.974 596.08 207 595.993 207H595.395C595.3 207 595.226 206.974 595.174 206.922C595.122 206.861 595.096 206.788 595.096 206.701V206.142C594.984 206.298 594.832 206.454 594.641 206.61C594.451 206.757 594.212 206.883 593.926 206.987C593.64 207.082 593.289 207.13 592.873 207.13ZM593.146 206.155C593.502 206.155 593.827 206.081 594.121 205.934C594.416 205.778 594.646 205.54 594.81 205.219C594.984 204.898 595.07 204.495 595.07 204.01V203.646L593.562 203.867C592.947 203.954 592.483 204.101 592.171 204.309C591.859 204.508 591.703 204.764 591.703 205.076C591.703 205.319 591.773 205.522 591.911 205.687C592.059 205.843 592.241 205.96 592.457 206.038C592.683 206.116 592.912 206.155 593.146 206.155ZM598.473 207C598.387 207 598.313 206.974 598.252 206.922C598.2 206.861 598.174 206.788 598.174 206.701V198.069C598.174 197.982 598.2 197.913 598.252 197.861C598.313 197.8 598.387 197.77 598.473 197.77H599.084C599.18 197.77 599.253 197.8 599.305 197.861C599.357 197.913 599.383 197.982 599.383 198.069V206.701C599.383 206.788 599.357 206.861 599.305 206.922C599.253 206.974 599.18 207 599.084 207H598.473ZM603.207 207.13C602.774 207.13 602.38 207.043 602.024 206.87C601.669 206.697 601.383 206.463 601.166 206.168C600.95 205.873 600.841 205.54 600.841 205.167C600.841 204.569 601.084 204.092 601.569 203.737C602.055 203.382 602.687 203.148 603.467 203.035L605.404 202.762V202.385C605.404 201.969 605.283 201.644 605.04 201.41C604.806 201.176 604.421 201.059 603.883 201.059C603.493 201.059 603.177 201.137 602.934 201.293C602.7 201.449 602.536 201.648 602.44 201.891C602.388 202.021 602.297 202.086 602.167 202.086H601.582C601.487 202.086 601.413 202.06 601.361 202.008C601.318 201.947 601.296 201.878 601.296 201.8C601.296 201.67 601.344 201.51 601.439 201.319C601.543 201.128 601.699 200.942 601.907 200.76C602.115 200.578 602.38 200.426 602.7 200.305C603.03 200.175 603.428 200.11 603.896 200.11C604.416 200.11 604.854 200.179 605.209 200.318C605.565 200.448 605.842 200.626 606.041 200.851C606.249 201.076 606.397 201.332 606.483 201.618C606.579 201.904 606.626 202.194 606.626 202.489V206.701C606.626 206.788 606.596 206.861 606.535 206.922C606.483 206.974 606.414 207 606.327 207H605.729C605.634 207 605.56 206.974 605.508 206.922C605.456 206.861 605.43 206.788 605.43 206.701V206.142C605.318 206.298 605.166 206.454 604.975 206.61C604.785 206.757 604.546 206.883 604.26 206.987C603.974 207.082 603.623 207.13 603.207 207.13ZM603.48 206.155C603.836 206.155 604.161 206.081 604.455 205.934C604.75 205.778 604.98 205.54 605.144 205.219C605.318 204.898 605.404 204.495 605.404 204.01V203.646L603.896 203.867C603.281 203.954 602.817 204.101 602.505 204.309C602.193 204.508 602.037 204.764 602.037 205.076C602.037 205.319 602.107 205.522 602.245 205.687C602.393 205.843 602.575 205.96 602.791 206.038C603.017 206.116 603.246 206.155 603.48 206.155Z" fill="#303032"/>
<path d="M641 226H561V228H641V226Z" fill="#CBC9CD" mask="url(#path-30-inside-9_847_389)"/>
<mask id="path-33-inside-10_847_389" fill="white">
<path d="M641 31H729V80H641V31Z"/>
</mask>
<path d="M641 31H729V80H641V31Z" fill="white"/>
<rect x="661" y="47" width="48" height="17" rx="5" fill="#F2F2F6"/>
<path d="M729 79H641V81H729V79Z" fill="#CBC9CD" mask="url(#path-33-inside-10_847_389)"/>
<mask id="path-36-inside-11_847_389" fill="white">
<path d="M641 80H729V129H641V80Z"/>
</mask>
<path d="M641 80H729V129H641V80Z" fill="white"/>
<rect x="661" y="96" width="48" height="17" rx="5" fill="#F2F2F6"/>
<path d="M729 128H641V130H729V128Z" fill="#CBC9CD" mask="url(#path-36-inside-11_847_389)"/>
<mask id="path-39-inside-12_847_389" fill="white">
<path d="M641 129H729V178H641V129Z"/>
</mask>
<path d="M641 129H729V178H641V129Z" fill="white"/>
<rect x="661" y="145" width="48" height="17" rx="5" fill="#F2F2F6"/>
<path d="M729 177H641V179H729V177Z" fill="#CBC9CD" mask="url(#path-39-inside-12_847_389)"/>
<mask id="path-42-inside-13_847_389" fill="white">
<path d="M641 178H729V227H641V178Z"/>
</mask>
<path d="M641 178H729V227H641V178Z" fill="white"/>
<rect x="661" y="194" width="48" height="17" rx="5" fill="#F2F2F6"/>
<path d="M729 226H641V228H729V226Z" fill="#CBC9CD" mask="url(#path-42-inside-13_847_389)"/>
</g>
<path d="M401.5 0.5H463.5V17C463.5 18.933 461.933 20.5 460 20.5H401.5V0.5Z" fill="#F5F7F9"/>
<path d="M414.122 14C414.049 14 413.986 13.9743 413.935 13.923C413.884 13.8717 413.858 13.8093 413.858 13.736V6.575C413.858 6.49433 413.88 6.42833 413.924 6.377C413.975 6.32567 414.041 6.3 414.122 6.3H416.806C418.962 6.3 420.062 7.29733 420.106 9.292C420.121 9.71733 420.128 10.0033 420.128 10.15C420.128 10.2893 420.121 10.5717 420.106 10.997C420.077 12.0237 419.802 12.7827 419.281 13.274C418.76 13.758 417.954 14 416.861 14H414.122ZM416.806 12.735C417.422 12.735 417.866 12.5993 418.137 12.328C418.408 12.0493 418.551 11.5947 418.566 10.964C418.581 10.524 418.588 10.249 418.588 10.139C418.588 10.0217 418.581 9.75033 418.566 9.325C418.551 8.72367 418.397 8.28 418.104 7.994C417.818 7.708 417.367 7.565 416.751 7.565H415.387V12.735H416.806ZM421.68 7.334C421.607 7.334 421.545 7.30833 421.493 7.257C421.442 7.20567 421.416 7.14333 421.416 7.07V6.278C421.416 6.20467 421.442 6.14233 421.493 6.091C421.545 6.03967 421.607 6.014 421.68 6.014H422.681C422.755 6.014 422.817 6.03967 422.868 6.091C422.927 6.14233 422.956 6.20467 422.956 6.278V7.07C422.956 7.14333 422.931 7.20567 422.879 7.257C422.828 7.30833 422.762 7.334 422.681 7.334H421.68ZM421.724 14C421.651 14 421.589 13.9743 421.537 13.923C421.486 13.8717 421.46 13.8093 421.46 13.736V8.544C421.46 8.47067 421.486 8.40833 421.537 8.357C421.589 8.30567 421.651 8.28 421.724 8.28H422.637C422.718 8.28 422.78 8.30567 422.824 8.357C422.876 8.401 422.901 8.46333 422.901 8.544V13.736C422.901 13.8093 422.876 13.8717 422.824 13.923C422.78 13.9743 422.718 14 422.637 14H421.724ZM426.528 14.11C425.978 14.11 425.516 14.0293 425.142 13.868C424.768 13.6993 424.489 13.505 424.306 13.285C424.13 13.0577 424.042 12.8633 424.042 12.702C424.042 12.6287 424.067 12.57 424.119 12.526C424.17 12.482 424.229 12.46 424.295 12.46H425.164C425.23 12.46 425.285 12.4857 425.329 12.537C425.358 12.559 425.435 12.625 425.56 12.735C425.684 12.8523 425.831 12.944 426 13.01C426.168 13.076 426.355 13.109 426.561 13.109C426.854 13.109 427.096 13.0503 427.287 12.933C427.477 12.8157 427.573 12.6543 427.573 12.449C427.573 12.295 427.529 12.1703 427.441 12.075C427.36 11.9797 427.21 11.8953 426.99 11.822C426.77 11.7413 426.443 11.657 426.011 11.569C425.387 11.437 424.925 11.2353 424.625 10.964C424.331 10.6927 424.185 10.3333 424.185 9.886C424.185 9.59267 424.273 9.31767 424.449 9.061C424.625 8.797 424.885 8.58433 425.23 8.423C425.582 8.25433 426 8.17 426.484 8.17C426.975 8.17 427.4 8.25067 427.76 8.412C428.119 8.566 428.39 8.753 428.574 8.973C428.764 9.18567 428.86 9.37633 428.86 9.545C428.86 9.611 428.834 9.66967 428.783 9.721C428.739 9.765 428.684 9.787 428.618 9.787H427.804C427.745 9.787 427.683 9.76133 427.617 9.71C427.565 9.67333 427.485 9.60367 427.375 9.501C427.265 9.39833 427.136 9.31767 426.99 9.259C426.843 9.20033 426.671 9.171 426.473 9.171C426.201 9.171 425.989 9.22967 425.835 9.347C425.688 9.46433 425.615 9.61833 425.615 9.809C425.615 9.94833 425.651 10.062 425.725 10.15C425.798 10.238 425.941 10.3223 426.154 10.403C426.366 10.4837 426.685 10.5643 427.111 10.645C427.815 10.7843 428.317 11.0007 428.618 11.294C428.926 11.5873 429.08 11.9467 429.08 12.372C429.08 12.8853 428.856 13.3033 428.409 13.626C427.961 13.9487 427.334 14.11 426.528 14.11ZM430.49 16.09C430.417 16.09 430.355 16.0643 430.303 16.013C430.252 15.969 430.226 15.9067 430.226 15.826V8.544C430.226 8.46333 430.252 8.401 430.303 8.357C430.355 8.30567 430.417 8.28 430.49 8.28H431.359C431.44 8.28 431.502 8.30567 431.546 8.357C431.598 8.401 431.623 8.46333 431.623 8.544V8.984C432.034 8.44133 432.621 8.17 433.383 8.17C434.124 8.17 434.692 8.40467 435.088 8.874C435.484 9.336 435.697 9.963 435.726 10.755C435.734 10.843 435.737 10.9713 435.737 11.14C435.737 11.316 435.734 11.448 435.726 11.536C435.697 12.306 435.484 12.9293 435.088 13.406C434.692 13.8753 434.124 14.11 433.383 14.11C432.643 14.11 432.078 13.8497 431.689 13.329V15.826C431.689 15.9067 431.664 15.969 431.612 16.013C431.568 16.0643 431.506 16.09 431.425 16.09H430.49ZM432.976 12.933C433.768 12.933 434.19 12.4453 434.241 11.47C434.249 11.3967 434.252 11.2867 434.252 11.14C434.252 10.9933 434.249 10.8833 434.241 10.81C434.19 9.83467 433.768 9.347 432.976 9.347C432.551 9.347 432.236 9.48267 432.03 9.754C431.825 10.0253 431.711 10.359 431.689 10.755L431.678 11.173L431.689 11.602C431.704 11.9687 431.818 12.284 432.03 12.548C432.25 12.8047 432.566 12.933 432.976 12.933ZM437.247 14C437.174 14 437.111 13.9743 437.06 13.923C437.009 13.8717 436.983 13.8093 436.983 13.736V6.454C436.983 6.37333 437.009 6.311 437.06 6.267C437.111 6.21567 437.174 6.19 437.247 6.19H438.16C438.241 6.19 438.303 6.21567 438.347 6.267C438.398 6.311 438.424 6.37333 438.424 6.454V13.736C438.424 13.8093 438.398 13.8717 438.347 13.923C438.303 13.9743 438.241 14 438.16 14H437.247ZM441.544 14.11C441.17 14.11 440.826 14.0367 440.51 13.89C440.202 13.736 439.957 13.5307 439.773 13.274C439.597 13.0173 439.509 12.735 439.509 12.427C439.509 11.9283 439.711 11.525 440.114 11.217C440.518 10.909 441.071 10.7 441.775 10.59L443.282 10.37V10.139C443.282 9.81633 443.202 9.57433 443.04 9.413C442.879 9.25167 442.619 9.171 442.259 9.171C442.017 9.171 441.819 9.21867 441.665 9.314C441.519 9.402 441.401 9.49 441.313 9.578C441.225 9.67333 441.167 9.73567 441.137 9.765C441.108 9.853 441.053 9.897 440.972 9.897H440.125C440.059 9.897 440.001 9.875 439.949 9.831C439.905 9.787 439.883 9.72833 439.883 9.655C439.891 9.47167 439.979 9.26267 440.147 9.028C440.323 8.79333 440.591 8.59167 440.95 8.423C441.31 8.25433 441.75 8.17 442.27 8.17C443.136 8.17 443.766 8.36433 444.162 8.753C444.558 9.14167 444.756 9.65133 444.756 10.282V13.736C444.756 13.8093 444.731 13.8717 444.679 13.923C444.635 13.9743 444.573 14 444.492 14H443.601C443.528 14 443.466 13.9743 443.414 13.923C443.363 13.8717 443.337 13.8093 443.337 13.736V13.307C443.176 13.5417 442.945 13.736 442.644 13.89C442.351 14.0367 441.984 14.11 441.544 14.11ZM441.918 13.065C442.322 13.065 442.652 12.933 442.908 12.669C443.165 12.405 443.293 12.02 443.293 11.514V11.283L442.193 11.459C441.768 11.525 441.445 11.6313 441.225 11.778C441.013 11.9247 440.906 12.1043 440.906 12.317C440.906 12.5517 441.005 12.735 441.203 12.867C441.401 12.999 441.64 13.065 441.918 13.065ZM447.051 16.09C446.992 16.09 446.941 16.068 446.897 16.024C446.853 15.98 446.831 15.9287 446.831 15.87C446.831 15.804 446.846 15.7453 446.875 15.694L447.733 13.659L445.621 8.676C445.592 8.61 445.577 8.55867 445.577 8.522C445.584 8.456 445.61 8.401 445.654 8.357C445.698 8.30567 445.753 8.28 445.819 8.28H446.71C446.849 8.28 446.948 8.34967 447.007 8.489L448.47 12.086L449.977 8.489C450.036 8.34967 450.135 8.28 450.274 8.28H451.154C451.213 8.28 451.264 8.302 451.308 8.346C451.359 8.39 451.385 8.44133 451.385 8.5C451.385 8.55133 451.37 8.61 451.341 8.676L448.228 15.881C448.162 16.0203 448.059 16.09 447.92 16.09H447.051Z" fill="#535356"/>
<path d="M401.5 0.5H463.5V17C463.5 18.933 461.933 20.5 460 20.5H401.5V0.5Z" stroke="#EAEAEF"/>
<path d="M402 257V1H400V257H402Z" fill="#EAEAEF" mask="url(#path-6-inside-1_847_389)"/>
<rect x="0.5" y="0.5" width="801" height="257" stroke="#EAEAEF"/>
<defs>
<filter id="filter0_d_847_389" x="453" y="21" width="296" height="236" filterUnits="userSpaceOnUse" color-interpolation-filters="sRGB">
<feFlood flood-opacity="0" result="BackgroundImageFix"/>
<feColorMatrix in="SourceAlpha" type="matrix" values="0 0 0 0 0 0 0 0 0 0 0 0 0 0 0 0 0 0 127 0" result="hardAlpha"/>
<feOffset dy="10"/>
<feGaussianBlur stdDeviation="10"/>
<feComposite in2="hardAlpha" operator="out"/>
<feColorMatrix type="matrix" values="0 0 0 0 0.117647 0 0 0 0 0.117647 0 0 0 0 0.117647 0 0 0 0.12 0"/>
<feBlend mode="normal" in2="BackgroundImageFix" result="effect1_dropShadow_847_389"/>
<feBlend mode="normal" in="SourceGraphic" in2="effect1_dropShadow_847_389" result="shape"/>
</filter>
</defs>
</svg>
