<svg width="802" height="258" viewBox="0 0 802 258" fill="none" xmlns="http://www.w3.org/2000/svg">
<rect width="400" height="256" transform="translate(1 1)" fill="white"/>
<rect width="400" height="103" transform="translate(1 77.5)" fill="white"/>
<rect width="320" height="73" transform="translate(41 92.5)" fill="white"/>
<path d="M41.455 105.5C41.3857 105.5 41.3207 105.474 41.26 105.422C41.208 105.37 41.182 105.305 41.182 105.227L41.208 105.11L44.341 96.725C44.4017 96.5083 44.5533 96.4 44.796 96.4H46.213C46.4383 96.4 46.59 96.5083 46.668 96.725L49.801 105.11C49.8097 105.136 49.814 105.175 49.814 105.227C49.814 105.305 49.788 105.37 49.736 105.422C49.684 105.474 49.6233 105.5 49.554 105.5H48.423C48.3103 105.5 48.2237 105.474 48.163 105.422C48.1023 105.37 48.0633 105.314 48.046 105.253L47.435 103.667H43.574L42.963 105.253C42.8937 105.418 42.768 105.5 42.586 105.5H41.455ZM46.98 102.172L45.498 98.155L44.029 102.172H46.98ZM54.3859 105.63C53.1986 105.63 52.2713 105.322 51.6039 104.707C50.9453 104.092 50.5943 103.234 50.5509 102.133C50.5423 101.882 50.5379 101.479 50.5379 100.924C50.5379 100.369 50.5423 99.9663 50.5509 99.715C50.5943 98.6403 50.9496 97.7997 51.6169 97.193C52.2929 96.5777 53.2159 96.27 54.3859 96.27C55.1833 96.27 55.8679 96.4043 56.4399 96.673C57.0119 96.9417 57.4453 97.2797 57.7399 97.687C58.0346 98.0857 58.1906 98.48 58.2079 98.87V98.896C58.2079 98.9653 58.1819 99.026 58.1299 99.078C58.0779 99.1213 58.0129 99.143 57.9349 99.143H56.5959C56.5093 99.143 56.4443 99.13 56.4009 99.104C56.3576 99.0693 56.3186 99.013 56.2839 98.935C56.1626 98.6143 55.9503 98.3413 55.6469 98.116C55.3436 97.882 54.9233 97.765 54.3859 97.765C53.7793 97.765 53.3026 97.9297 52.9559 98.259C52.6179 98.5883 52.4359 99.0953 52.4099 99.78C52.4013 100.031 52.3969 100.413 52.3969 100.924C52.3969 101.427 52.4013 101.808 52.4099 102.068C52.4619 103.446 53.1293 104.135 54.4119 104.135C55.0273 104.135 55.5213 103.97 55.8939 103.641C56.2666 103.303 56.4529 102.805 56.4529 102.146V101.743H54.8669C54.7716 101.743 54.6936 101.713 54.6329 101.652C54.5809 101.591 54.5549 101.513 54.5549 101.418V100.729C54.5549 100.634 54.5809 100.556 54.6329 100.495C54.6936 100.434 54.7716 100.404 54.8669 100.404H57.9739C58.0693 100.404 58.1429 100.434 58.1949 100.495C58.2556 100.556 58.2859 100.634 58.2859 100.729V102.094C58.2859 102.813 58.1256 103.442 57.8049 103.979C57.4929 104.508 57.0423 104.915 56.4529 105.201C55.8636 105.487 55.1746 105.63 54.3859 105.63ZM60.2645 105.5C60.1778 105.5 60.1041 105.47 60.0435 105.409C59.9828 105.348 59.9525 105.275 59.9525 105.188V96.725C59.9525 96.6297 59.9785 96.5517 60.0305 96.491C60.0911 96.4303 60.1691 96.4 60.2645 96.4H65.9845C66.0798 96.4 66.1578 96.4303 66.2185 96.491C66.2791 96.5517 66.3095 96.6297 66.3095 96.725V97.583C66.3095 97.6783 66.2791 97.7563 66.2185 97.817C66.1578 97.869 66.0798 97.895 65.9845 97.895H61.7075V100.196H65.6985C65.7938 100.196 65.8718 100.226 65.9325 100.287C65.9931 100.339 66.0235 100.413 66.0235 100.508V101.314C66.0235 101.409 65.9931 101.487 65.9325 101.548C65.8718 101.6 65.7938 101.626 65.6985 101.626H61.7075V104.005H66.0885C66.1838 104.005 66.2618 104.035 66.3225 104.096C66.3831 104.157 66.4135 104.235 66.4135 104.33V105.188C66.4135 105.283 66.3831 105.361 66.3225 105.422C66.2618 105.474 66.1838 105.5 66.0885 105.5H60.2645Z" fill="#A0A0A5"/>
<rect x="41.5" y="121" width="319" height="44" rx="2.5" fill="#F5F7F9"/>
<rect x="41.5" y="121" width="319" height="44" rx="2.5" stroke="#DDDDE2"/>
<path d="M0.5 0.5H52.5V17C52.5 18.933 50.933 20.5 49 20.5H0.5V0.5Z" fill="#F5F7F9"/>
<path d="M13.122 14C13.0487 14 12.9863 13.9743 12.935 13.923C12.8837 13.8717 12.858 13.8093 12.858 13.736V6.564C12.858 6.48333 12.8837 6.421 12.935 6.377C12.9863 6.32567 13.0487 6.3 13.122 6.3H14.156C14.2367 6.3 14.299 6.32567 14.343 6.377C14.3943 6.421 14.42 6.48333 14.42 6.564V13.736C14.42 13.8093 14.3943 13.8717 14.343 13.923C14.299 13.9743 14.2367 14 14.156 14H13.122ZM16.2771 14C16.2038 14 16.1414 13.9743 16.0901 13.923C16.0388 13.8717 16.0131 13.8093 16.0131 13.736V8.544C16.0131 8.47067 16.0388 8.40833 16.0901 8.357C16.1414 8.30567 16.2038 8.28 16.2771 8.28H17.1791C17.2524 8.28 17.3148 8.30567 17.3661 8.357C17.4174 8.40833 17.4431 8.47067 17.4431 8.544V8.995C17.8758 8.445 18.4881 8.17 19.2801 8.17C19.9548 8.17 20.4901 8.39367 20.8861 8.841C21.2821 9.281 21.4801 9.88233 21.4801 10.645V13.736C21.4801 13.8093 21.4544 13.8717 21.4031 13.923C21.3591 13.9743 21.2968 14 21.2161 14H20.2481C20.1748 14 20.1124 13.9743 20.0611 13.923C20.0098 13.8717 19.9841 13.8093 19.9841 13.736V10.711C19.9841 10.2783 19.8778 9.94467 19.6651 9.71C19.4598 9.468 19.1591 9.347 18.7631 9.347C18.3744 9.347 18.0664 9.468 17.8391 9.71C17.6191 9.952 17.5091 10.2857 17.5091 10.711V13.736C17.5091 13.8093 17.4834 13.8717 17.4321 13.923C17.3881 13.9743 17.3258 14 17.2451 14H16.2771ZM23.1524 16.09C23.079 16.09 23.0167 16.0643 22.9654 16.013C22.914 15.969 22.8884 15.9067 22.8884 15.826V8.544C22.8884 8.46333 22.914 8.401 22.9654 8.357C23.0167 8.30567 23.079 8.28 23.1524 8.28H24.0214C24.102 8.28 24.1644 8.30567 24.2084 8.357C24.2597 8.401 24.2854 8.46333 24.2854 8.544V8.984C24.696 8.44133 25.2827 8.17 26.0454 8.17C26.786 8.17 27.3544 8.40467 27.7504 8.874C28.1464 9.336 28.359 9.963 28.3884 10.755C28.3957 10.843 28.3994 10.9713 28.3994 11.14C28.3994 11.316 28.3957 11.448 28.3884 11.536C28.359 12.306 28.1464 12.9293 27.7504 13.406C27.3544 13.8753 26.786 14.11 26.0454 14.11C25.3047 14.11 24.74 13.8497 24.3514 13.329V15.826C24.3514 15.9067 24.3257 15.969 24.2744 16.013C24.2304 16.0643 24.168 16.09 24.0874 16.09H23.1524ZM25.6384 12.933C26.4304 12.933 26.852 12.4453 26.9034 11.47C26.9107 11.3967 26.9144 11.2867 26.9144 11.14C26.9144 10.9933 26.9107 10.8833 26.9034 10.81C26.852 9.83467 26.4304 9.347 25.6384 9.347C25.213 9.347 24.8977 9.48267 24.6924 9.754C24.487 10.0253 24.3734 10.359 24.3514 10.755L24.3404 11.173L24.3514 11.602C24.366 11.9687 24.4797 12.284 24.6924 12.548C24.9124 12.8047 25.2277 12.933 25.6384 12.933ZM31.7572 14.11C31.0825 14.11 30.5509 13.89 30.1622 13.45C29.7735 13.0027 29.5792 12.3977 29.5792 11.635V8.544C29.5792 8.47067 29.6049 8.40833 29.6562 8.357C29.7075 8.30567 29.7699 8.28 29.8432 8.28H30.8112C30.8919 8.28 30.9542 8.30567 30.9982 8.357C31.0495 8.401 31.0752 8.46333 31.0752 8.544V11.569C31.0752 12.4783 31.4749 12.933 32.2742 12.933C32.6555 12.933 32.9562 12.812 33.1762 12.57C33.4035 12.328 33.5172 11.9943 33.5172 11.569V8.544C33.5172 8.47067 33.5429 8.40833 33.5942 8.357C33.6455 8.30567 33.7079 8.28 33.7812 8.28H34.7492C34.8299 8.28 34.8922 8.30567 34.9362 8.357C34.9875 8.401 35.0132 8.46333 35.0132 8.544V13.736C35.0132 13.8093 34.9875 13.8717 34.9362 13.923C34.8922 13.9743 34.8299 14 34.7492 14H33.8582C33.7849 14 33.7225 13.9743 33.6712 13.923C33.6199 13.8717 33.5942 13.8093 33.5942 13.736V13.285C33.1835 13.835 32.5712 14.11 31.7572 14.11ZM39.0512 14C38.3839 14 37.8816 13.8277 37.5442 13.483C37.2142 13.131 37.0492 12.6177 37.0492 11.943V9.446H36.1802C36.1069 9.446 36.0446 9.42033 35.9932 9.369C35.9419 9.31033 35.9162 9.24433 35.9162 9.171V8.544C35.9162 8.47067 35.9419 8.40833 35.9932 8.357C36.0446 8.30567 36.1069 8.28 36.1802 8.28H37.0492V6.454C37.0492 6.37333 37.0749 6.311 37.1262 6.267C37.1776 6.21567 37.2399 6.19 37.3132 6.19H38.2042C38.2849 6.19 38.3472 6.21567 38.3912 6.267C38.4426 6.311 38.4682 6.37333 38.4682 6.454V8.28H39.8432C39.9239 8.28 39.9862 8.30567 40.0302 8.357C40.0816 8.401 40.1072 8.46333 40.1072 8.544V9.171C40.1072 9.25167 40.0816 9.31767 40.0302 9.369C39.9789 9.42033 39.9166 9.446 39.8432 9.446H38.4682V11.833C38.4682 12.1483 38.5232 12.3867 38.6332 12.548C38.7432 12.7093 38.9266 12.79 39.1832 12.79H39.9422C40.0156 12.79 40.0779 12.8157 40.1292 12.867C40.1806 12.9183 40.2062 12.9807 40.2062 13.054V13.736C40.2062 13.8093 40.1806 13.8717 40.1292 13.923C40.0852 13.9743 40.0229 14 39.9422 14H39.0512Z" fill="#535356"/>
<path d="M0.5 0.5H52.5V17C52.5 18.933 50.933 20.5 49 20.5H0.5V0.5Z" stroke="#EAEAEF"/>
<mask id="path-6-inside-1_905_1420" fill="white">
<path d="M401 1H801V257H401V1Z"/>
</mask>
<path d="M401 1H801V257H401V1Z" fill="#F5F7F9"/>
<g filter="url(#filter0_d_905_1420)">
<mask id="path-9-inside-2_905_1420" fill="white">
<path d="M479.5 31H567.5V80H479.5V31Z"/>
</mask>
<path d="M479.5 31H567.5V80H479.5V31Z" fill="white"/>
<rect x="499.5" y="47" width="48" height="17" rx="5" fill="#F2F2F6"/>
<path d="M567.5 79H479.5V81H567.5V79Z" fill="#CBC9CD" mask="url(#path-9-inside-2_905_1420)"/>
<mask id="path-12-inside-3_905_1420" fill="white">
<path d="M479.5 80H567.5V129H479.5V80Z"/>
</mask>
<path d="M479.5 80H567.5V129H479.5V80Z" fill="white"/>
<rect x="499.5" y="96" width="48" height="17" rx="5" fill="#F2F2F6"/>
<path d="M567.5 128H479.5V130H567.5V128Z" fill="#CBC9CD" mask="url(#path-12-inside-3_905_1420)"/>
<mask id="path-15-inside-4_905_1420" fill="white">
<path d="M479.5 129H567.5V178H479.5V129Z"/>
</mask>
<path d="M479.5 129H567.5V178H479.5V129Z" fill="white"/>
<rect x="499.5" y="145" width="48" height="17" rx="5" fill="#F2F2F6"/>
<path d="M567.5 177H479.5V179H567.5V177Z" fill="#CBC9CD" mask="url(#path-15-inside-4_905_1420)"/>
<mask id="path-18-inside-5_905_1420" fill="white">
<path d="M479.5 178H567.5V227H479.5V178Z"/>
</mask>
<path d="M479.5 178H567.5V227H479.5V178Z" fill="white"/>
<rect x="499.5" y="194" width="48" height="17" rx="5" fill="#F2F2F6"/>
<path d="M567.5 226H479.5V228H567.5V226Z" fill="#CBC9CD" mask="url(#path-18-inside-5_905_1420)"/>
<mask id="path-21-inside-6_905_1420" fill="white">
<path d="M567.5 31H634.5V80H567.5V31Z"/>
</mask>
<path d="M567.5 31H634.5V80H567.5V31Z" fill="white"/>
<path d="M587.929 60C587.851 60 587.786 59.974 587.734 59.922C587.682 59.8613 587.656 59.7963 587.656 59.727C587.656 59.6837 587.66 59.6447 587.669 59.61L590.763 51.251C590.789 51.1557 590.841 51.0733 590.919 51.004C590.997 50.9347 591.105 50.9 591.244 50.9H592.908C593.047 50.9 593.155 50.9347 593.233 51.004C593.311 51.0733 593.363 51.1557 593.389 51.251L596.483 59.61C596.492 59.6447 596.496 59.6837 596.496 59.727C596.496 59.7963 596.47 59.8613 596.418 59.922C596.366 59.974 596.301 60 596.223 60H594.871C594.741 60 594.646 59.9697 594.585 59.909C594.524 59.8483 594.485 59.792 594.468 59.74L593.909 58.284H590.243L589.684 59.74C589.667 59.792 589.628 59.8483 589.567 59.909C589.506 59.9697 589.411 60 589.281 60H587.929ZM590.724 56.607H593.415L592.076 52.863L590.724 56.607ZM601.078 60.13C600.263 60.13 599.566 59.9957 598.985 59.727C598.413 59.4497 597.967 59.051 597.646 58.531C597.334 58.0023 597.165 57.3653 597.139 56.62C597.13 56.2473 597.126 55.8487 597.126 55.424C597.126 54.9993 597.13 54.5963 597.139 54.215C597.165 53.487 597.334 52.8673 597.646 52.356C597.967 51.8447 598.417 51.4547 598.998 51.186C599.587 50.9087 600.281 50.77 601.078 50.77C601.719 50.77 602.283 50.8523 602.768 51.017C603.253 51.1817 603.661 51.3983 603.99 51.667C604.319 51.927 604.571 52.213 604.744 52.525C604.917 52.837 605.008 53.136 605.017 53.422C605.017 53.5 604.991 53.5693 604.939 53.63C604.887 53.682 604.818 53.708 604.731 53.708H603.119C603.032 53.708 602.963 53.6907 602.911 53.656C602.868 53.6213 602.829 53.5693 602.794 53.5C602.733 53.344 602.634 53.188 602.495 53.032C602.365 52.8673 602.187 52.7287 601.962 52.616C601.737 52.5033 601.442 52.447 601.078 52.447C600.532 52.447 600.099 52.59 599.778 52.876C599.466 53.162 599.297 53.63 599.271 54.28C599.245 55.0253 599.245 55.7837 599.271 56.555C599.297 57.231 599.47 57.7163 599.791 58.011C600.12 58.3057 600.558 58.453 601.104 58.453C601.459 58.453 601.776 58.3923 602.053 58.271C602.339 58.141 602.564 57.9417 602.729 57.673C602.894 57.4043 602.976 57.062 602.976 56.646V56.321H601.559C601.472 56.321 601.399 56.2907 601.338 56.23C601.277 56.1607 601.247 56.0827 601.247 55.996V55.164C601.247 55.0687 601.277 54.9907 601.338 54.93C601.399 54.8693 601.472 54.839 601.559 54.839H604.744C604.839 54.839 604.917 54.8693 604.978 54.93C605.039 54.9907 605.069 55.0687 605.069 55.164V56.581C605.069 57.3263 604.904 57.9633 604.575 58.492C604.254 59.0207 603.791 59.428 603.184 59.714C602.586 59.9913 601.884 60.13 601.078 60.13ZM606.979 60C606.884 60 606.806 59.9697 606.745 59.909C606.685 59.8483 606.654 59.7703 606.654 59.675V51.225C606.654 51.1297 606.685 51.0517 606.745 50.991C606.806 50.9303 606.884 50.9 606.979 50.9H612.868C612.964 50.9 613.042 50.9303 613.102 50.991C613.163 51.0517 613.193 51.1297 613.193 51.225V52.265C613.193 52.3517 613.163 52.4253 613.102 52.486C613.042 52.5467 612.964 52.577 612.868 52.577H608.656V54.618H612.582C612.678 54.618 612.756 54.6483 612.816 54.709C612.877 54.7697 612.907 54.8477 612.907 54.943V55.905C612.907 55.9917 612.877 56.0653 612.816 56.126C612.756 56.1867 612.678 56.217 612.582 56.217H608.656V58.323H612.972C613.068 58.323 613.146 58.3533 613.206 58.414C613.267 58.4747 613.297 58.5527 613.297 58.648V59.675C613.297 59.7703 613.267 59.8483 613.206 59.909C613.146 59.9697 613.068 60 612.972 60H606.979Z" fill="#A0A0A5"/>
<path d="M634.5 79H567.5V81H634.5V79Z" fill="#CBC9CD" mask="url(#path-21-inside-6_905_1420)"/>
<mask id="path-24-inside-7_905_1420" fill="white">
<path d="M567.5 80H634.5V129H567.5V80Z"/>
</mask>
<path d="M567.5 80H634.5V129H567.5V80Z" fill="white"/>
<path d="M609.634 109.13C608.958 109.13 608.364 109.022 607.853 108.805C607.342 108.58 606.943 108.259 606.657 107.843C606.371 107.427 606.228 106.942 606.228 106.387C606.228 105.876 606.354 105.429 606.605 105.048C606.856 104.658 607.199 104.359 607.632 104.151C607.285 103.952 607.017 103.692 606.826 103.371C606.644 103.042 606.553 102.66 606.553 102.227C606.553 101.464 606.83 100.866 607.385 100.433C607.948 99.991 608.698 99.77 609.634 99.77C610.561 99.77 611.302 99.991 611.857 100.433C612.42 100.866 612.702 101.46 612.702 102.214C612.702 102.647 612.607 103.029 612.416 103.358C612.234 103.679 611.974 103.943 611.636 104.151C612.069 104.359 612.412 104.658 612.663 105.048C612.914 105.429 613.04 105.876 613.04 106.387C613.04 106.942 612.897 107.427 612.611 107.843C612.325 108.259 611.922 108.58 611.402 108.805C610.891 109.022 610.301 109.13 609.634 109.13ZM609.634 103.683C610.154 103.674 610.592 103.54 610.947 103.28C611.302 103.02 611.48 102.678 611.48 102.253C611.48 101.82 611.302 101.473 610.947 101.213C610.6 100.944 610.163 100.81 609.634 100.81C609.097 100.81 608.65 100.94 608.295 101.2C607.948 101.46 607.775 101.811 607.775 102.253C607.775 102.686 607.948 103.033 608.295 103.293C608.65 103.553 609.097 103.683 609.634 103.683ZM609.634 108.09C610.241 108.09 610.748 107.934 611.155 107.622C611.562 107.31 611.766 106.898 611.766 106.387C611.766 105.876 611.562 105.468 611.155 105.165C610.748 104.862 610.241 104.71 609.634 104.71C609.019 104.71 608.507 104.862 608.1 105.165C607.693 105.468 607.489 105.876 607.489 106.387C607.489 106.898 607.693 107.31 608.1 107.622C608.507 107.934 609.019 108.09 609.634 108.09Z" fill="#303032"/>
<path d="M634.5 128H567.5V130H634.5V128Z" fill="#CBC9CD" mask="url(#path-24-inside-7_905_1420)"/>
<mask id="path-27-inside-8_905_1420" fill="white">
<path d="M567.5 129H634.5V178H567.5V129Z"/>
</mask>
<path d="M567.5 129H634.5V178H567.5V129Z" fill="white"/>
<path d="M604.088 158C604.001 158 603.928 157.974 603.867 157.922C603.815 157.861 603.789 157.788 603.789 157.701V150.421L601.631 152.085C601.57 152.137 601.505 152.163 601.436 152.163C601.358 152.163 601.284 152.12 601.215 152.033L600.877 151.604C600.834 151.543 600.812 151.483 600.812 151.422C600.812 151.318 600.855 151.236 600.942 151.175L603.776 148.991C603.871 148.93 603.984 148.9 604.114 148.9H604.777C604.864 148.9 604.933 148.93 604.985 148.991C605.046 149.043 605.076 149.112 605.076 149.199V157.701C605.076 157.788 605.046 157.861 604.985 157.922C604.933 157.974 604.864 158 604.777 158H604.088ZM611.274 158C611.187 158 611.113 157.974 611.053 157.922C611.001 157.861 610.975 157.788 610.975 157.701V155.829H606.763C606.676 155.829 606.602 155.803 606.542 155.751C606.49 155.69 606.464 155.617 606.464 155.53V155.01C606.464 154.88 606.511 154.75 606.607 154.62L610.507 149.121C610.55 149.052 610.615 149 610.702 148.965C610.788 148.922 610.884 148.9 610.988 148.9H611.924C612.01 148.9 612.08 148.93 612.132 148.991C612.192 149.043 612.223 149.112 612.223 149.199V154.698H613.393C613.479 154.698 613.553 154.728 613.614 154.789C613.674 154.841 613.705 154.91 613.705 154.997V155.53C613.705 155.617 613.674 155.69 613.614 155.751C613.562 155.803 613.492 155.829 613.406 155.829H612.223V157.701C612.223 157.788 612.192 157.861 612.132 157.922C612.08 157.974 612.01 158 611.924 158H611.274ZM610.988 154.724V150.265L607.855 154.724H610.988Z" fill="#303032"/>
<path d="M634.5 177H567.5V179H634.5V177Z" fill="#CBC9CD" mask="url(#path-27-inside-8_905_1420)"/>
<mask id="path-30-inside-9_905_1420" fill="white">
<path d="M567.5 178H634.5V227H567.5V178Z"/>
</mask>
<path d="M567.5 178H634.5V227H567.5V178Z" fill="white"/>
<path d="M604.088 207C604.001 207 603.928 206.974 603.867 206.922C603.815 206.861 603.789 206.788 603.789 206.701V199.421L601.631 201.085C601.57 201.137 601.505 201.163 601.436 201.163C601.358 201.163 601.284 201.12 601.215 201.033L600.877 200.604C600.834 200.543 600.812 200.483 600.812 200.422C600.812 200.318 600.855 200.236 600.942 200.175L603.776 197.991C603.871 197.93 603.984 197.9 604.114 197.9H604.777C604.864 197.9 604.933 197.93 604.985 197.991C605.046 198.043 605.076 198.112 605.076 198.199V206.701C605.076 206.788 605.046 206.861 604.985 206.922C604.933 206.974 604.864 207 604.777 207H604.088ZM609.935 207.13C609.25 207.13 608.656 207.022 608.154 206.805C607.66 206.58 607.283 206.289 607.023 205.934C606.771 205.579 606.637 205.206 606.62 204.816C606.62 204.738 606.646 204.677 606.698 204.634C606.75 204.582 606.815 204.556 606.893 204.556H607.53C607.712 204.556 607.833 204.651 607.894 204.842C608.006 205.275 608.249 205.583 608.622 205.765C608.994 205.938 609.432 206.025 609.935 206.025C610.55 206.025 611.04 205.882 611.404 205.596C611.768 205.301 611.95 204.881 611.95 204.335C611.95 203.286 611.313 202.762 610.039 202.762H608.804C608.717 202.762 608.643 202.736 608.583 202.684C608.531 202.623 608.505 202.55 608.505 202.463V202.112C608.505 201.991 608.552 201.874 608.648 201.761L611.17 199.005H607.335C607.248 199.005 607.174 198.979 607.114 198.927C607.062 198.866 607.036 198.793 607.036 198.706V198.212C607.036 198.125 607.062 198.052 607.114 197.991C607.174 197.93 607.248 197.9 607.335 197.9H612.522C612.617 197.9 612.691 197.93 612.743 197.991C612.803 198.043 612.834 198.117 612.834 198.212V198.68C612.834 198.784 612.786 198.884 612.691 198.979L610.182 201.774L610.39 201.787C611.274 201.813 611.971 202.043 612.483 202.476C612.994 202.909 613.25 203.542 613.25 204.374C613.25 204.937 613.107 205.427 612.821 205.843C612.535 206.259 612.14 206.58 611.638 206.805C611.135 207.022 610.567 207.13 609.935 207.13Z" fill="#303032"/>
<path d="M634.5 226H567.5V228H634.5V226Z" fill="#CBC9CD" mask="url(#path-30-inside-9_905_1420)"/>
<mask id="path-33-inside-10_905_1420" fill="white">
<path d="M634.5 31H722.5V80H634.5V31Z"/>
</mask>
<path d="M634.5 31H722.5V80H634.5V31Z" fill="white"/>
<rect x="654.5" y="47" width="48" height="17" rx="5" fill="#F2F2F6"/>
<path d="M722.5 79H634.5V81H722.5V79Z" fill="#CBC9CD" mask="url(#path-33-inside-10_905_1420)"/>
<mask id="path-36-inside-11_905_1420" fill="white">
<path d="M634.5 80H722.5V129H634.5V80Z"/>
</mask>
<path d="M634.5 80H722.5V129H634.5V80Z" fill="white"/>
<rect x="654.5" y="96" width="48" height="17" rx="5" fill="#F2F2F6"/>
<path d="M722.5 128H634.5V130H722.5V128Z" fill="#CBC9CD" mask="url(#path-36-inside-11_905_1420)"/>
<mask id="path-39-inside-12_905_1420" fill="white">
<path d="M634.5 129H722.5V178H634.5V129Z"/>
</mask>
<path d="M634.5 129H722.5V178H634.5V129Z" fill="white"/>
<rect x="654.5" y="145" width="48" height="17" rx="5" fill="#F2F2F6"/>
<path d="M722.5 177H634.5V179H722.5V177Z" fill="#CBC9CD" mask="url(#path-39-inside-12_905_1420)"/>
<mask id="path-42-inside-13_905_1420" fill="white">
<path d="M634.5 178H722.5V227H634.5V178Z"/>
</mask>
<path d="M634.5 178H722.5V227H634.5V178Z" fill="white"/>
<rect x="654.5" y="194" width="48" height="17" rx="5" fill="#F2F2F6"/>
<path d="M722.5 226H634.5V228H722.5V226Z" fill="#CBC9CD" mask="url(#path-42-inside-13_905_1420)"/>
</g>
<path d="M401.5 0.5H463.5V17C463.5 18.933 461.933 20.5 460 20.5H401.5V0.5Z" fill="#F5F7F9"/>
<path d="M414.122 14C414.049 14 413.986 13.9743 413.935 13.923C413.884 13.8717 413.858 13.8093 413.858 13.736V6.575C413.858 6.49433 413.88 6.42833 413.924 6.377C413.975 6.32567 414.041 6.3 414.122 6.3H416.806C418.962 6.3 420.062 7.29733 420.106 9.292C420.121 9.71733 420.128 10.0033 420.128 10.15C420.128 10.2893 420.121 10.5717 420.106 10.997C420.077 12.0237 419.802 12.7827 419.281 13.274C418.76 13.758 417.954 14 416.861 14H414.122ZM416.806 12.735C417.422 12.735 417.866 12.5993 418.137 12.328C418.408 12.0493 418.551 11.5947 418.566 10.964C418.581 10.524 418.588 10.249 418.588 10.139C418.588 10.0217 418.581 9.75033 418.566 9.325C418.551 8.72367 418.397 8.28 418.104 7.994C417.818 7.708 417.367 7.565 416.751 7.565H415.387V12.735H416.806ZM421.68 7.334C421.607 7.334 421.545 7.30833 421.493 7.257C421.442 7.20567 421.416 7.14333 421.416 7.07V6.278C421.416 6.20467 421.442 6.14233 421.493 6.091C421.545 6.03967 421.607 6.014 421.68 6.014H422.681C422.755 6.014 422.817 6.03967 422.868 6.091C422.927 6.14233 422.956 6.20467 422.956 6.278V7.07C422.956 7.14333 422.931 7.20567 422.879 7.257C422.828 7.30833 422.762 7.334 422.681 7.334H421.68ZM421.724 14C421.651 14 421.589 13.9743 421.537 13.923C421.486 13.8717 421.46 13.8093 421.46 13.736V8.544C421.46 8.47067 421.486 8.40833 421.537 8.357C421.589 8.30567 421.651 8.28 421.724 8.28H422.637C422.718 8.28 422.78 8.30567 422.824 8.357C422.876 8.401 422.901 8.46333 422.901 8.544V13.736C422.901 13.8093 422.876 13.8717 422.824 13.923C422.78 13.9743 422.718 14 422.637 14H421.724ZM426.528 14.11C425.978 14.11 425.516 14.0293 425.142 13.868C424.768 13.6993 424.489 13.505 424.306 13.285C424.13 13.0577 424.042 12.8633 424.042 12.702C424.042 12.6287 424.067 12.57 424.119 12.526C424.17 12.482 424.229 12.46 424.295 12.46H425.164C425.23 12.46 425.285 12.4857 425.329 12.537C425.358 12.559 425.435 12.625 425.56 12.735C425.684 12.8523 425.831 12.944 426 13.01C426.168 13.076 426.355 13.109 426.561 13.109C426.854 13.109 427.096 13.0503 427.287 12.933C427.477 12.8157 427.573 12.6543 427.573 12.449C427.573 12.295 427.529 12.1703 427.441 12.075C427.36 11.9797 427.21 11.8953 426.99 11.822C426.77 11.7413 426.443 11.657 426.011 11.569C425.387 11.437 424.925 11.2353 424.625 10.964C424.331 10.6927 424.185 10.3333 424.185 9.886C424.185 9.59267 424.273 9.31767 424.449 9.061C424.625 8.797 424.885 8.58433 425.23 8.423C425.582 8.25433 426 8.17 426.484 8.17C426.975 8.17 427.4 8.25067 427.76 8.412C428.119 8.566 428.39 8.753 428.574 8.973C428.764 9.18567 428.86 9.37633 428.86 9.545C428.86 9.611 428.834 9.66967 428.783 9.721C428.739 9.765 428.684 9.787 428.618 9.787H427.804C427.745 9.787 427.683 9.76133 427.617 9.71C427.565 9.67333 427.485 9.60367 427.375 9.501C427.265 9.39833 427.136 9.31767 426.99 9.259C426.843 9.20033 426.671 9.171 426.473 9.171C426.201 9.171 425.989 9.22967 425.835 9.347C425.688 9.46433 425.615 9.61833 425.615 9.809C425.615 9.94833 425.651 10.062 425.725 10.15C425.798 10.238 425.941 10.3223 426.154 10.403C426.366 10.4837 426.685 10.5643 427.111 10.645C427.815 10.7843 428.317 11.0007 428.618 11.294C428.926 11.5873 429.08 11.9467 429.08 12.372C429.08 12.8853 428.856 13.3033 428.409 13.626C427.961 13.9487 427.334 14.11 426.528 14.11ZM430.49 16.09C430.417 16.09 430.355 16.0643 430.303 16.013C430.252 15.969 430.226 15.9067 430.226 15.826V8.544C430.226 8.46333 430.252 8.401 430.303 8.357C430.355 8.30567 430.417 8.28 430.49 8.28H431.359C431.44 8.28 431.502 8.30567 431.546 8.357C431.598 8.401 431.623 8.46333 431.623 8.544V8.984C432.034 8.44133 432.621 8.17 433.383 8.17C434.124 8.17 434.692 8.40467 435.088 8.874C435.484 9.336 435.697 9.963 435.726 10.755C435.734 10.843 435.737 10.9713 435.737 11.14C435.737 11.316 435.734 11.448 435.726 11.536C435.697 12.306 435.484 12.9293 435.088 13.406C434.692 13.8753 434.124 14.11 433.383 14.11C432.643 14.11 432.078 13.8497 431.689 13.329V15.826C431.689 15.9067 431.664 15.969 431.612 16.013C431.568 16.0643 431.506 16.09 431.425 16.09H430.49ZM432.976 12.933C433.768 12.933 434.19 12.4453 434.241 11.47C434.249 11.3967 434.252 11.2867 434.252 11.14C434.252 10.9933 434.249 10.8833 434.241 10.81C434.19 9.83467 433.768 9.347 432.976 9.347C432.551 9.347 432.236 9.48267 432.03 9.754C431.825 10.0253 431.711 10.359 431.689 10.755L431.678 11.173L431.689 11.602C431.704 11.9687 431.818 12.284 432.03 12.548C432.25 12.8047 432.566 12.933 432.976 12.933ZM437.247 14C437.174 14 437.111 13.9743 437.06 13.923C437.009 13.8717 436.983 13.8093 436.983 13.736V6.454C436.983 6.37333 437.009 6.311 437.06 6.267C437.111 6.21567 437.174 6.19 437.247 6.19H438.16C438.241 6.19 438.303 6.21567 438.347 6.267C438.398 6.311 438.424 6.37333 438.424 6.454V13.736C438.424 13.8093 438.398 13.8717 438.347 13.923C438.303 13.9743 438.241 14 438.16 14H437.247ZM441.544 14.11C441.17 14.11 440.826 14.0367 440.51 13.89C440.202 13.736 439.957 13.5307 439.773 13.274C439.597 13.0173 439.509 12.735 439.509 12.427C439.509 11.9283 439.711 11.525 440.114 11.217C440.518 10.909 441.071 10.7 441.775 10.59L443.282 10.37V10.139C443.282 9.81633 443.202 9.57433 443.04 9.413C442.879 9.25167 442.619 9.171 442.259 9.171C442.017 9.171 441.819 9.21867 441.665 9.314C441.519 9.402 441.401 9.49 441.313 9.578C441.225 9.67333 441.167 9.73567 441.137 9.765C441.108 9.853 441.053 9.897 440.972 9.897H440.125C440.059 9.897 440.001 9.875 439.949 9.831C439.905 9.787 439.883 9.72833 439.883 9.655C439.891 9.47167 439.979 9.26267 440.147 9.028C440.323 8.79333 440.591 8.59167 440.95 8.423C441.31 8.25433 441.75 8.17 442.27 8.17C443.136 8.17 443.766 8.36433 444.162 8.753C444.558 9.14167 444.756 9.65133 444.756 10.282V13.736C444.756 13.8093 444.731 13.8717 444.679 13.923C444.635 13.9743 444.573 14 444.492 14H443.601C443.528 14 443.466 13.9743 443.414 13.923C443.363 13.8717 443.337 13.8093 443.337 13.736V13.307C443.176 13.5417 442.945 13.736 442.644 13.89C442.351 14.0367 441.984 14.11 441.544 14.11ZM441.918 13.065C442.322 13.065 442.652 12.933 442.908 12.669C443.165 12.405 443.293 12.02 443.293 11.514V11.283L442.193 11.459C441.768 11.525 441.445 11.6313 441.225 11.778C441.013 11.9247 440.906 12.1043 440.906 12.317C440.906 12.5517 441.005 12.735 441.203 12.867C441.401 12.999 441.64 13.065 441.918 13.065ZM447.051 16.09C446.992 16.09 446.941 16.068 446.897 16.024C446.853 15.98 446.831 15.9287 446.831 15.87C446.831 15.804 446.846 15.7453 446.875 15.694L447.733 13.659L445.621 8.676C445.592 8.61 445.577 8.55867 445.577 8.522C445.584 8.456 445.61 8.401 445.654 8.357C445.698 8.30567 445.753 8.28 445.819 8.28H446.71C446.849 8.28 446.948 8.34967 447.007 8.489L448.47 12.086L449.977 8.489C450.036 8.34967 450.135 8.28 450.274 8.28H451.154C451.213 8.28 451.264 8.302 451.308 8.346C451.359 8.39 451.385 8.44133 451.385 8.5C451.385 8.55133 451.37 8.61 451.341 8.676L448.228 15.881C448.162 16.0203 448.059 16.09 447.92 16.09H447.051Z" fill="#535356"/>
<path d="M401.5 0.5H463.5V17C463.5 18.933 461.933 20.5 460 20.5H401.5V0.5Z" stroke="#EAEAEF"/>
<path d="M402 257V1H400V257H402Z" fill="#EAEAEF" mask="url(#path-6-inside-1_905_1420)"/>
<rect x="0.5" y="0.5" width="801" height="257" stroke="#EAEAEF"/>
<defs>
<filter id="filter0_d_905_1420" x="459.5" y="21" width="283" height="236" filterUnits="userSpaceOnUse" color-interpolation-filters="sRGB">
<feFlood flood-opacity="0" result="BackgroundImageFix"/>
<feColorMatrix in="SourceAlpha" type="matrix" values="0 0 0 0 0 0 0 0 0 0 0 0 0 0 0 0 0 0 127 0" result="hardAlpha"/>
<feOffset dy="10"/>
<feGaussianBlur stdDeviation="10"/>
<feComposite in2="hardAlpha" operator="out"/>
<feColorMatrix type="matrix" values="0 0 0 0 0.117647 0 0 0 0 0.117647 0 0 0 0 0.117647 0 0 0 0.12 0"/>
<feBlend mode="normal" in2="BackgroundImageFix" result="effect1_dropShadow_905_1420"/>
<feBlend mode="normal" in="SourceGraphic" in2="effect1_dropShadow_905_1420" result="shape"/>
</filter>
</defs>
</svg>
