<svg xmlns="http://www.w3.org/2000/svg" viewBox="0 0 24 24" width="1em" height="1em"><title>Python</title><path fill="#3776ab" d="M11.9 1C8.5 1 9 2.5 9 2.5v2.5h3v1H6S2.5 5.6 2.5 11.5 5.4 17 5.4 17H7v-2.7s-.1-3 2.9-3h5.1s2.8.1 2.8-2.7V3.7S18.3 1 11.9 1zM9.2 2.6a.9.9 0 1 1 0 1.8.9.9 0 0 1 0-1.8z"/><path fill="#ffd43b" d="M12.1 23c3.4 0 2.9-1.5 2.9-1.5v-2.5h-3v-1h6s3.5.4 3.5-5.5S18.6 7 18.6 7H17v2.7s.1 3-2.9 3H8.9s-2.8-.1-2.8 2.7v4.9S5.7 23 12.1 23zm2.7-1.6a.9.9 0 1 1 0-1.8.9.9 0 0 1 0 1.8z"/></svg>