<svg width="98" height="98" viewBox="0 0 98 98" fill="none" xmlns="http://www.w3.org/2000/svg">
<path fill-rule="evenodd" clip-rule="evenodd" d="M47.6279 0.0688269C34.663 1.34602 34.2065 20.5388 47.0899 22.6866C47.6736 22.7839 47.8586 22.835 47.872 22.9027C47.8817 22.9515 47.8347 23.9193 47.7678 25.0534C47.7008 26.1875 47.6164 28.4175 47.5803 30.0088C47.5442 31.6002 47.5019 32.9115 47.4863 32.9229C47.4708 32.9342 47.2602 33.0406 47.0185 33.1594C46.5655 33.382 45.9698 33.8707 45.7303 34.2163C45.596 34.4102 45.596 34.4102 44.7713 34.4371C43.4691 34.4797 42.6754 34.798 41.9548 35.5665C41.7549 35.7796 41.572 35.9307 41.5477 35.9025C41.5234 35.8744 40.772 34.7678 39.8778 33.4434C38.9837 32.119 37.9684 30.6276 37.6217 30.1293L36.9913 29.2231L37.3613 28.8133C44.2598 21.1701 34.6136 9.65849 26.4109 15.7454C18.2461 21.8042 25.5639 34.5133 34.9516 30.5784C34.9902 30.5622 35.6876 31.4342 36.6011 32.6409C37.4715 33.7907 38.5587 35.2083 39.0171 35.7911C39.4755 36.374 39.8893 36.9092 39.9366 36.9806C40.0337 37.1271 40.065 37.1058 39.5399 37.25C38.0839 37.6499 36.7112 38.8583 36.4391 39.9797C36.4034 40.127 36.3448 40.2482 36.309 40.2492C33.8486 40.3145 31.9657 42.1418 31.9392 44.4902C31.9301 45.289 31.9301 45.289 31.595 45.4879C28.5454 47.2978 24.4081 53.3695 24.1126 56.4687C24.069 56.9268 24.0862 56.9117 23.4827 57.0147C22.121 57.2471 21.3255 57.7388 20.4867 58.8661C19.4245 60.2941 19.3265 61.5216 20.1365 63.2548C20.4108 63.8422 20.4259 63.7381 19.9737 64.3754C15.1914 71.1116 16.1876 79.0166 22.6216 85.3854C26.8296 89.5507 32.7365 92.0903 39.3589 92.5803C41.8875 92.7674 42.177 92.8626 42.8283 93.7205C47.1107 99.3597 50.8071 99.3597 55.0895 93.7205C55.7408 92.8626 56.0303 92.7674 58.5589 92.5803C68.4574 91.8478 76.7392 86.422 79.8434 78.6352C81.8223 73.6719 81.1942 68.9595 77.9427 64.3709C77.4919 63.7342 77.5072 63.8411 77.7813 63.2548C78.5912 61.5216 78.4932 60.2941 77.4313 58.8661C76.5925 57.7388 75.7967 57.2471 74.4352 57.0147C73.8314 56.9117 73.849 56.9268 73.8054 56.4687C73.7085 55.4525 72.6205 52.8445 71.5826 51.1396C70.307 49.0446 67.8288 46.3817 66.3228 45.4879C65.9877 45.289 65.9877 45.289 65.9787 44.4902C65.9521 42.1418 64.0693 40.3145 61.6088 40.2492C61.573 40.2482 61.5144 40.127 61.4787 39.9797C61.2066 38.8583 59.8339 37.6499 58.378 37.25C57.8528 37.1058 57.8841 37.1271 57.9813 36.9806C58.0286 36.9092 58.4423 36.374 58.9007 35.7911C59.3591 35.2083 60.4463 33.7907 61.3167 32.6409C62.2302 31.4342 62.9276 30.5622 62.9662 30.5784C72.3539 34.5133 79.6718 21.8042 71.507 15.7454C63.3043 9.65849 53.658 21.1701 60.5566 28.8133L60.9265 29.2231L60.2961 30.1293C59.9494 30.6276 58.9341 32.119 58.04 33.4434C57.1458 34.7678 56.3944 35.8744 56.3701 35.9025C56.3458 35.9307 56.1629 35.7796 55.9631 35.5665C55.2424 34.798 54.4487 34.4797 53.1465 34.4371C52.3218 34.4102 52.3218 34.4102 52.1894 34.219C51.8424 33.7184 51.0429 33.1498 50.3962 32.9436C50.106 32.8511 50.106 32.8511 50.113 29.4513C50.1169 27.5813 50.1072 25.3231 50.0917 24.433L50.0633 22.8145L50.8279 22.6868C65.318 20.2667 62.2565 -1.37222 47.6279 0.0688269ZM47.2717 2.87012C42.3006 3.7681 39.0336 8.36444 39.9253 12.8628C39.9896 13.1872 40.0755 13.5111 40.1841 13.8331C42.7816 21.5419 55.1362 21.5419 57.7338 13.8331C57.8435 13.5076 57.9302 13.1818 57.9951 12.8569C59.1333 7.15949 53.5585 1.73452 47.2717 2.87012ZM30.5801 16.9817C26.9089 17.6605 24.7362 21.3854 25.6414 24.544C25.8155 25.1512 26.1033 25.7375 26.5161 26.2772C29.4368 30.0955 34.6959 29.7103 36.8627 25.5194C37.0524 25.1526 37.1974 24.7789 37.3009 24.403C38.3957 20.427 34.8585 16.1907 30.5801 16.9817ZM65.3641 16.9849C61.7018 17.6391 59.8038 21.2129 60.6216 24.3975C60.895 25.4617 61.4716 26.4826 62.387 27.3364C65.0204 29.7926 69.0773 29.3159 71.4017 26.2772C71.8149 25.7369 72.1014 25.1588 72.2755 24.5648C73.4045 20.7128 69.8048 16.1916 65.3641 16.9849ZM48.3428 34.7628C46.5505 35.079 45.9717 36.7375 46.9252 38.8251C47.2092 39.4467 47.2092 39.4467 47.6449 39.4512C48.0362 39.4552 48.1253 39.4783 48.5197 39.6775C48.9589 39.8994 48.9589 39.8994 49.3981 39.6775C49.7925 39.4783 49.8816 39.4552 50.2729 39.4512C50.7087 39.4467 50.7087 39.4467 50.9924 38.8251C52.162 36.2617 50.8911 34.3133 48.3428 34.7628ZM43.7455 36.4037C42.2771 36.7952 41.8535 38.5768 42.7849 40.4434C43.1705 41.2162 43.0941 41.1555 43.5609 41.0593C43.8633 40.9969 44.0303 40.9903 44.2376 41.0326C44.9182 41.1712 44.8348 41.1937 45.1233 40.7939C45.2667 40.5952 45.5052 40.3316 45.6533 40.208C45.9226 39.9832 45.9226 39.9832 45.7449 39.7093C45.2602 38.9621 45.0562 38.2445 45.0103 37.1254C44.9758 36.2828 44.7283 36.1416 43.7455 36.4037ZM52.9077 37.1186C52.8616 38.245 52.6587 38.9605 52.1729 39.7093C51.9952 39.9832 51.9952 39.9832 52.2645 40.208C52.4126 40.3316 52.6511 40.5952 52.7945 40.7939C53.083 41.1937 52.9996 41.1712 53.6802 41.0326C53.8875 40.9903 54.0545 40.9969 54.3569 41.0593C54.8237 41.1555 54.7473 41.2162 55.1329 40.4434C56.2215 38.2617 55.5097 36.4184 53.5478 36.3385L52.9407 36.3138L52.9077 37.1186ZM39.727 38.5994C37.5325 39.1672 36.7526 41.7939 38.2358 43.6214C38.5893 44.057 38.5655 44.0495 38.9191 43.8382C39.4685 43.51 40.0878 43.4044 40.81 43.5158C41.0717 43.5561 41.0717 43.5561 41.138 43.2958C41.2494 42.8583 41.5772 42.2875 41.9328 41.9116C42.271 41.5542 42.271 41.5542 42.0406 41.2509C41.5379 40.5895 41.0908 39.3252 41.0866 38.5534C41.0862 38.4803 40.0519 38.5153 39.727 38.5994ZM56.8312 38.5534C56.8271 39.3252 56.38 40.5895 55.8773 41.2509C55.6469 41.5542 55.6469 41.5542 55.985 41.9116C56.3407 42.2875 56.6684 42.8583 56.7798 43.2958C56.8461 43.5561 56.8461 43.5561 57.1078 43.5158C57.83 43.4044 58.4493 43.51 58.9987 43.8382C59.3523 44.0495 59.3285 44.057 59.682 43.6214C60.9181 42.0984 60.5496 39.6714 58.966 38.905C58.286 38.5759 56.8324 38.3365 56.8312 38.5534ZM46.763 41.226C45.2214 41.9355 45.0815 43.6657 46.4058 45.6435C46.8129 46.2516 46.8129 46.2516 46.9716 46.0042C47.8154 44.6887 50.1024 44.6887 50.9462 46.0042C51.1757 46.362 52.0997 44.998 52.3344 43.9547C52.7534 42.0926 50.9162 40.1987 49.8776 41.4221C49.6567 41.6824 49.3853 42.1603 49.2781 42.4778C49.0705 43.0928 48.8473 43.0928 48.6397 42.4778C48.4738 41.9861 48.1238 41.4559 47.8044 41.2121C47.5772 41.0388 47.1576 41.0444 46.763 41.226ZM35.8191 41.6039C33.0185 41.9677 32.5069 45.9479 35.0419 47.65C35.5815 48.0123 37.1217 48.6513 37.1217 48.5128C37.1217 48.5043 37.0708 48.3003 37.0085 48.0594C36.7428 47.0324 37.0202 45.7398 37.68 44.9304C37.8569 44.7134 37.8569 44.7134 37.4127 44.2494C36.7546 43.5619 36.3982 42.8228 36.3 41.9413C36.2537 41.5255 36.28 41.5439 35.8191 41.6039ZM61.6719 41.6143C61.6609 41.6479 61.6248 41.8579 61.5917 42.081C61.4604 42.9651 61.1446 43.5892 60.4813 44.2757C60.0597 44.7119 60.0597 44.7119 60.2372 44.9297C60.8976 45.7398 61.1751 47.032 60.9093 48.0594C60.847 48.3003 60.7961 48.5043 60.7961 48.5128C60.7961 48.6513 62.3363 48.0123 62.876 47.65C65.1218 46.142 65.0828 42.8592 62.8067 41.8098C62.4313 41.6368 61.7053 41.5117 61.6719 41.6143ZM43.5558 42.3259C41.7744 42.5794 41.4112 45.4707 42.9168 47.4129C43.0471 47.5809 43.1708 47.7431 43.1918 47.7734C43.2145 47.806 43.3183 47.7683 43.4467 47.6807C44.1723 47.1858 45.0503 47.0783 46.3765 47.322C46.4205 47.3301 46.6609 46.7384 46.6225 46.7164C45.1802 45.8924 44.3572 44.4298 44.4402 42.8381C44.4642 42.3767 44.4642 42.3767 44.262 42.3432C44.1508 42.3247 44.0216 42.3026 43.9748 42.294C43.9281 42.2854 43.7396 42.2998 43.5558 42.3259ZM53.9147 42.2951C53.8835 42.3034 53.767 42.3252 53.6558 42.3435C53.4536 42.3767 53.4536 42.3767 53.4776 42.8381C53.5606 44.4298 52.7376 45.8924 51.2954 46.7164C51.257 46.7384 51.4973 47.3301 51.5413 47.322C52.8675 47.0783 53.7455 47.1858 54.4711 47.6807C54.5995 47.7683 54.7033 47.806 54.726 47.7734C54.747 47.7431 54.8708 47.5809 55.001 47.4129C56.1076 45.9854 56.2423 43.5659 55.2626 42.7133C54.9596 42.4495 54.2081 42.2164 53.9147 42.2951ZM39.9424 44.6378C37.7592 45.2189 37.6063 48.202 39.6618 50.1117C41.1475 51.492 39.6965 51.1684 38.0783 49.7586C37.6396 49.3763 37.6396 49.3763 37.3052 49.4109C35.9396 49.552 33.836 48.358 32.7143 46.8051C32.4555 46.4467 32.4555 46.4467 32.2909 46.6371C29.9588 49.3326 28.6315 51.7462 27.12 56.0392C26.7459 57.1021 26.7422 57.0192 27.1678 57.0993C34.4302 58.4623 39.2224 66.113 39.3716 76.5834C39.4042 78.8698 39.3464 78.7326 40.1508 78.4353C40.642 78.2533 40.7415 78.115 41.1428 77.0582C42.9792 72.221 44.5251 70.303 47.1151 69.6483C47.6511 69.5128 47.6354 69.5229 47.6812 69.2815C47.7847 68.7361 48.367 67.3081 48.5768 67.0852C49.0828 66.5482 49.9309 67.6704 50.2366 69.2815C50.2824 69.5229 50.2667 69.5128 50.8027 69.6483C53.3927 70.303 54.9387 72.221 56.775 77.0582C57.1763 78.115 57.2758 78.2533 57.767 78.4353C58.5714 78.7326 58.5137 78.8698 58.5462 76.5834C58.6955 66.1125 63.4871 58.4623 70.7501 57.0993C71.1756 57.0192 71.1719 57.1021 70.7978 56.0392C69.2863 51.7462 67.959 49.3326 65.6269 46.6371C65.4623 46.4467 65.4623 46.4467 65.2035 46.8051C64.0818 48.358 61.9782 49.552 60.6126 49.4109C60.2782 49.3763 60.2782 49.3763 59.8395 49.7586C58.2214 51.1684 56.7704 51.492 58.256 50.1117C59.7391 48.7338 60.1135 47.311 59.3736 45.8642C58.7874 44.7177 56.979 44.0306 56.8642 44.9107C56.6804 46.3185 56.1175 47.4015 55.2698 47.9783C55.0228 48.1463 55.0228 48.1463 55.2333 48.5228C55.7176 49.3892 55.4784 50.5152 54.6296 51.3635C53.9115 52.0812 53.3346 52.1282 53.9936 51.4153C54.8579 50.4802 54.7979 49.3403 53.8697 49.0678C53.3145 48.9047 51.5642 48.9739 51.5642 49.1589C51.5642 49.5796 51.0016 50.873 50.6676 51.2202C50.2534 51.6508 50.1665 51.4641 50.4519 50.756C51.3259 48.587 50.5974 46.5195 48.9589 46.5195C47.3204 46.5195 46.5919 48.587 47.466 50.756C47.7513 51.4641 47.6645 51.6508 47.2502 51.2202C46.9162 50.873 46.3536 49.5796 46.3536 49.1589C46.3536 48.9739 44.6033 48.9047 44.0481 49.0678C43.12 49.3403 43.0599 50.4802 43.9243 51.4153C44.5832 52.1282 44.0063 52.0812 43.2882 51.3635C42.4395 50.5152 42.2002 49.3892 42.6845 48.5228C42.895 48.1463 42.895 48.1463 42.6481 47.9783C41.8012 47.4022 41.2373 46.3182 41.0541 44.9142C41.024 44.6834 40.992 44.6186 40.8956 44.593C40.6966 44.5402 40.226 44.5623 39.9424 44.6378ZM24.3301 58.501C20.9881 59.0257 21.4907 62.6657 25.3264 65.7154C26.544 66.6837 26.5661 66.6971 28.5129 67.6889C35.6896 71.3451 37.5748 73.5918 37.5748 78.4902C37.5748 78.8267 37.8166 78.9298 38.1554 78.7371C38.2164 78.7024 38.2067 76.3594 38.1404 75.1072C37.8289 69.2272 35.4464 63.7308 32.031 61.0137C29.7719 59.2161 26.5245 58.1566 24.3301 58.501ZM71.8686 58.4825C65.6711 59.1349 60.9586 64.9986 59.92 73.3499C59.7547 74.6794 59.6381 78.666 59.7624 78.7371C60.1013 78.9298 60.343 78.8267 60.343 78.4902C60.343 73.5913 62.227 71.3457 69.4049 67.6889C71.3517 66.6971 71.3738 66.6837 72.5914 65.7154C77.1883 62.0609 76.7788 57.9656 71.8686 58.4825ZM21.9024 65.9652C19.2954 68.7753 18.5271 74.5791 20.2142 78.7192C22.5821 84.5309 30.3299 89.9338 37.1501 90.5302C40.2407 90.8001 40.9423 90.7542 40.6467 90.2989C40.1619 89.5535 38.5002 86.5301 37.5293 84.6272C37.2778 84.1344 36.8876 83.4417 36.6621 83.0872C35.6492 81.4962 35.5749 80.3398 36.4275 79.4388C36.9323 78.9051 36.6152 76.3812 35.8518 74.8546C35.4743 74.0998 35.5003 74.1076 35.1411 74.6452C31.0091 80.8293 22.5787 76.0967 22.7496 67.6894C22.7757 66.4065 22.7757 66.4065 22.4181 66.1226C22.0006 65.7922 22.0495 65.8067 21.9024 65.9652ZM75.4875 66.1265C75.142 66.4065 75.142 66.4065 75.168 67.6894C75.3391 76.0967 66.9087 80.8287 62.7767 74.6452C62.4175 74.1076 62.4435 74.0998 62.0661 74.8546C61.3026 76.3812 60.9855 78.9051 61.4903 79.4388C62.3429 80.3398 62.2686 81.4962 61.2557 83.0872C61.0302 83.4417 60.64 84.1344 60.3885 84.6272C59.4176 86.5301 57.7559 89.5535 57.2711 90.2989C56.9736 90.757 56.8904 90.7351 58.6309 90.6545C62.2606 90.487 63.7705 90.1555 66.7147 88.8798C77.3599 84.2688 81.6887 74.4727 76.5239 66.682C75.8856 65.7188 75.9485 65.753 75.4875 66.1265ZM24.1833 67.4772C23.6343 69.2787 24.721 72.674 26.4037 74.4156C26.9262 74.956 26.9576 74.9594 26.7488 74.4526C25.9098 72.4142 26.2174 69.8863 27.4022 69.0838C27.6213 68.9354 27.2212 68.6862 25.681 68.0131C25.3228 67.8563 24.8583 67.6435 24.6488 67.5399C24.1966 67.3159 24.231 67.321 24.1833 67.4772ZM73.3412 67.503C73.1855 67.583 72.7012 67.8076 72.2651 68.0019C70.5821 68.7501 70.2896 68.931 70.5147 69.0833C71.7004 69.8863 72.0083 72.413 71.169 74.4526C70.9602 74.9594 70.9916 74.956 71.5141 74.4156C73.1968 72.674 74.2834 69.2787 73.7346 67.4772C73.6875 67.3232 73.6898 67.3232 73.3412 67.503ZM48.2885 70.9386C46.1213 71.3222 44.0929 73.6445 42.5199 77.5432C41.7313 79.4982 41.3212 79.781 38.7076 80.1741C36.9877 80.4328 36.8743 80.8472 38.0563 82.5524C38.9109 83.7855 39.9547 85.489 41.0572 87.449C43.0275 90.953 43.7545 92.115 44.7565 93.3632C48.2122 97.669 51.1658 96.9629 54.8299 90.9552C55.5514 89.7725 55.6415 89.6168 56.8606 87.449C57.9631 85.489 59.0069 83.7855 59.8615 82.5524C61.0435 80.8472 60.9301 80.4328 59.2102 80.1741C56.5967 79.781 56.1865 79.4982 55.3979 77.5432C53.5015 72.8431 50.9451 70.4682 48.2885 70.9386ZM42.5307 80.2077C42.0014 80.4804 41.8105 81.004 42.0569 81.5074C42.2523 81.9062 42.7904 82.105 43.1215 81.9006C43.2126 81.8446 43.2814 81.8653 43.5597 82.0338C44.5547 82.6353 44.934 82.5188 44.6247 81.7062C44.1527 80.4664 43.2634 79.8302 42.5307 80.2077ZM54.4135 80.2329C53.8062 80.5381 53.0296 81.8423 53.2202 82.2377C53.358 82.5233 53.6285 82.4751 54.3581 82.0338C54.6364 81.8653 54.7052 81.8446 54.7963 81.9006C55.1274 82.105 55.6655 81.9062 55.8609 81.5074C56.2829 80.6456 55.3052 79.7843 54.4135 80.2329Z" fill="#22110C"/>
<path d="M53.9147 42.2951C53.8835 42.3034 53.767 42.3252 53.6558 42.3435C53.4536 42.3767 53.4536 42.3767 53.4776 42.8381C53.5606 44.4298 52.7376 45.8924 51.2954 46.7164C51.257 46.7384 51.4973 47.3301 51.5413 47.322C52.8675 47.0783 53.7455 47.1858 54.4711 47.6807C54.5995 47.7683 54.7033 47.806 54.726 47.7734C54.747 47.7431 54.8708 47.5809 55.001 47.4129C56.1076 45.9854 56.2423 43.5659 55.2626 42.7133C54.9596 42.4495 54.2081 42.2164 53.9147 42.2951Z" fill="#2430F0"/>
<path d="M61.6719 41.6143C61.6609 41.6479 61.6248 41.8579 61.5917 42.081C61.4604 42.9651 61.1446 43.5892 60.4813 44.2757C60.0597 44.7119 60.0597 44.7119 60.2372 44.9297C60.8976 45.7398 61.1751 47.032 60.9093 48.0594C60.847 48.3003 60.7961 48.5043 60.7961 48.5128C60.7961 48.6513 62.3363 48.0123 62.876 47.65C65.1218 46.142 65.0828 42.8592 62.8067 41.8098C62.4313 41.6368 61.7053 41.5117 61.6719 41.6143Z" fill="#2430F0"/>
<path d="M56.8312 38.5534C56.8271 39.3252 56.38 40.5895 55.8773 41.2509C55.6469 41.5542 55.6469 41.5542 55.985 41.9116C56.3407 42.2875 56.6684 42.8583 56.7798 43.2958C56.8461 43.5561 56.8461 43.5561 57.1078 43.5158C57.83 43.4044 58.4493 43.51 58.9987 43.8382C59.3523 44.0495 59.3285 44.057 59.682 43.6214C60.9181 42.0984 60.5496 39.6714 58.966 38.905C58.286 38.5759 56.8324 38.3365 56.8312 38.5534Z" fill="#2430F0"/>
<path d="M52.9077 37.1186C52.8616 38.245 52.6587 38.9605 52.1729 39.7093C51.9952 39.9832 51.9952 39.9832 52.2645 40.208C52.4126 40.3316 52.6511 40.5952 52.7945 40.7939C53.083 41.1937 52.9996 41.1712 53.6802 41.0326C53.8875 40.9903 54.0545 40.9969 54.3569 41.0593C54.8237 41.1555 54.7473 41.2162 55.1329 40.4434C56.2215 38.2617 55.5097 36.4184 53.5478 36.3385L52.9407 36.3138L52.9077 37.1186Z" fill="#2430F0"/>
<path d="M48.3428 34.7628C46.5505 35.079 45.9717 36.7375 46.9252 38.8251C47.2092 39.4467 47.2092 39.4467 47.6449 39.4512C48.0362 39.4552 48.1253 39.4783 48.5197 39.6775C48.9589 39.8994 48.9589 39.8994 49.3981 39.6775C49.7925 39.4783 49.8816 39.4552 50.2729 39.4512C50.7087 39.4467 50.7087 39.4467 50.9924 38.8251C52.162 36.2617 50.8911 34.3133 48.3428 34.7628Z" fill="#2430F0"/>
<path d="M46.763 41.226C45.2214 41.9355 45.0815 43.6657 46.4058 45.6435C46.8129 46.2516 46.8129 46.2516 46.9716 46.0042C47.8154 44.6887 50.1024 44.6887 50.9462 46.0042C51.1757 46.362 52.0997 44.998 52.3344 43.9547C52.7534 42.0926 50.9162 40.1987 49.8776 41.4221C49.6567 41.6824 49.3853 42.1603 49.2781 42.4778C49.0705 43.0928 48.8473 43.0928 48.6397 42.4778C48.4738 41.9861 48.1238 41.4559 47.8044 41.2121C47.5772 41.0388 47.1576 41.0444 46.763 41.226Z" fill="#2430F0"/>
<path d="M43.5558 42.3259C41.7744 42.5794 41.4112 45.4707 42.9168 47.4129C43.0471 47.5809 43.1708 47.7431 43.1918 47.7734C43.2145 47.806 43.3183 47.7683 43.4467 47.6807C44.1723 47.1858 45.0503 47.0783 46.3765 47.322C46.4205 47.3301 46.6609 46.7384 46.6225 46.7164C45.1802 45.8924 44.3572 44.4298 44.4402 42.8381C44.4642 42.3767 44.4642 42.3767 44.262 42.3432C44.1508 42.3247 44.0216 42.3026 43.9748 42.294C43.9281 42.2854 43.7396 42.2998 43.5558 42.3259Z" fill="#2430F0"/>
<path d="M39.727 38.5994C37.5325 39.1672 36.7526 41.7939 38.2358 43.6214C38.5893 44.057 38.5655 44.0495 38.9191 43.8382C39.4685 43.51 40.0878 43.4044 40.81 43.5158C41.0717 43.5561 41.0717 43.5561 41.138 43.2958C41.2494 42.8583 41.5772 42.2875 41.9328 41.9116C42.271 41.5542 42.271 41.5542 42.0406 41.2509C41.5379 40.5895 41.0908 39.3252 41.0866 38.5534C41.0862 38.4803 40.0519 38.5153 39.727 38.5994Z" fill="#2430F0"/>
<path d="M43.7455 36.4037C42.2771 36.7952 41.8535 38.5768 42.7849 40.4434C43.1705 41.2162 43.0941 41.1555 43.5609 41.0593C43.8633 40.9969 44.0303 40.9903 44.2376 41.0326C44.9182 41.1712 44.8348 41.1937 45.1233 40.7939C45.2667 40.5952 45.5052 40.3316 45.6533 40.208C45.9226 39.9832 45.9226 39.9832 45.7449 39.7093C45.2602 38.9621 45.0562 38.2445 45.0103 37.1254C44.9758 36.2828 44.7283 36.1416 43.7455 36.4037Z" fill="#2430F0"/>
<path d="M35.8191 41.6039C33.0185 41.9677 32.5069 45.9479 35.0419 47.65C35.5815 48.0123 37.1217 48.6513 37.1217 48.5128C37.1217 48.5043 37.0708 48.3003 37.0085 48.0594C36.7428 47.0324 37.0202 45.7398 37.68 44.9304C37.8569 44.7134 37.8569 44.7134 37.4127 44.2494C36.7546 43.5619 36.3982 42.8228 36.3 41.9413C36.2537 41.5255 36.28 41.5439 35.8191 41.6039Z" fill="#2430F0"/>
<path d="M71.8686 58.4825C65.6711 59.1349 60.9586 64.9986 59.92 73.3499C59.7547 74.6794 59.6381 78.666 59.7624 78.7371C60.1013 78.9298 60.343 78.8267 60.343 78.4902C60.343 73.5913 62.227 71.3457 69.4049 67.6889C71.3517 66.6971 71.3738 66.6837 72.5914 65.7154C77.1883 62.0609 76.7788 57.9656 71.8686 58.4825Z" fill="#2BE1B7"/>
<path d="M75.4875 66.1265C75.142 66.4065 75.142 66.4065 75.168 67.6894C75.3391 76.0967 66.9087 80.8287 62.7767 74.6452C62.4175 74.1076 62.4435 74.0998 62.0661 74.8546C61.3026 76.3812 60.9855 78.9051 61.4903 79.4388C62.3429 80.3398 62.2686 81.4962 61.2557 83.0872C61.0302 83.4417 60.64 84.1344 60.3885 84.6272C59.4176 86.5301 57.7559 89.5535 57.2711 90.2989C56.9736 90.757 56.8904 90.7351 58.6309 90.6545C62.2606 90.487 63.7705 90.1555 66.7147 88.8798C77.3599 84.2688 81.6887 74.4727 76.5239 66.682C75.8856 65.7188 75.9485 65.753 75.4875 66.1265Z" fill="#2BE1B7"/>
<path d="M21.9024 65.9652C19.2954 68.7753 18.5271 74.5791 20.2142 78.7192C22.5821 84.5309 30.3299 89.9338 37.1501 90.5302C40.2407 90.8001 40.9423 90.7542 40.6467 90.2989C40.1619 89.5535 38.5002 86.5301 37.5293 84.6272C37.2778 84.1344 36.8876 83.4417 36.6621 83.0872C35.6492 81.4962 35.5749 80.3398 36.4275 79.4388C36.9323 78.9051 36.6152 76.3812 35.8518 74.8546C35.4743 74.0998 35.5003 74.1076 35.1411 74.6452C31.0091 80.8293 22.5787 76.0967 22.7496 67.6894C22.7757 66.4065 22.7757 66.4065 22.4181 66.1226C22.0006 65.7922 22.0495 65.8067 21.9024 65.9652Z" fill="#2BE1B7"/>
<path d="M24.3301 58.501C20.9881 59.0257 21.4907 62.6657 25.3264 65.7154C26.544 66.6837 26.5661 66.6971 28.5129 67.6889C35.6896 71.3451 37.5748 73.5918 37.5748 78.4902C37.5748 78.8267 37.8166 78.9298 38.1554 78.7371C38.2164 78.7024 38.2067 76.3594 38.1404 75.1072C37.8289 69.2272 35.4464 63.7308 32.031 61.0137C29.7719 59.2161 26.5245 58.1566 24.3301 58.501Z" fill="#2BE1B7"/>
<path d="M39.9424 44.6378C37.7592 45.2189 37.6063 48.202 39.6618 50.1117C41.1475 51.492 39.6965 51.1684 38.0783 49.7586C37.6396 49.3763 37.6396 49.3763 37.3052 49.4109C35.9396 49.552 33.836 48.358 32.7143 46.8051C32.4555 46.4467 32.4555 46.4467 32.2909 46.6371C29.9588 49.3326 28.6315 51.7462 27.12 56.0392C26.7459 57.1021 26.7422 57.0192 27.1678 57.0993C34.4302 58.4623 39.2224 66.113 39.3716 76.5834C39.4042 78.8698 39.3464 78.7326 40.1508 78.4353C40.642 78.2533 40.7415 78.115 41.1428 77.0582C42.9792 72.221 44.5251 70.303 47.1151 69.6483C47.6511 69.5128 47.6354 69.5229 47.6812 69.2815C47.7847 68.7361 48.367 67.3081 48.5768 67.0852C49.0828 66.5482 49.9309 67.6704 50.2366 69.2815C50.2824 69.5229 50.2667 69.5128 50.8027 69.6483C53.3927 70.303 54.9387 72.221 56.775 77.0582C57.1763 78.115 57.2758 78.2533 57.767 78.4353C58.5714 78.7326 58.5137 78.8698 58.5462 76.5834C58.6955 66.1125 63.4871 58.4623 70.7501 57.0993C71.1756 57.0192 71.1719 57.1021 70.7978 56.0392C69.2863 51.7462 67.959 49.3326 65.6269 46.6371C65.4623 46.4467 65.4623 46.4467 65.2035 46.8051C64.0818 48.358 61.9782 49.552 60.6126 49.4109C60.2782 49.3763 60.2782 49.3763 59.8395 49.7586C58.2214 51.1684 56.7704 51.492 58.256 50.1117C59.7391 48.7338 60.1135 47.311 59.3736 45.8642C58.7874 44.7177 56.979 44.0306 56.8642 44.9107C56.6804 46.3185 56.1175 47.4015 55.2698 47.9783C55.0228 48.1463 55.0228 48.1463 55.2333 48.5228C55.7176 49.3892 55.4784 50.5152 54.6296 51.3635C53.9115 52.0812 53.3346 52.1282 53.9936 51.4153C54.8579 50.4802 54.7979 49.3403 53.8697 49.0678C53.3145 48.9047 51.5642 48.9739 51.5642 49.1589C51.5642 49.5796 51.0016 50.873 50.6676 51.2202C50.2534 51.6508 50.1665 51.4641 50.4519 50.756C51.3259 48.587 50.5974 46.5195 48.9589 46.5195C47.3204 46.5195 46.5919 48.587 47.466 50.756C47.7513 51.4641 47.6645 51.6508 47.2502 51.2202C46.9162 50.873 46.3536 49.5796 46.3536 49.1589C46.3536 48.9739 44.6033 48.9047 44.0481 49.0678C43.12 49.3403 43.0599 50.4802 43.9243 51.4153C44.5832 52.1282 44.0063 52.0812 43.2882 51.3635C42.4395 50.5152 42.2002 49.3892 42.6845 48.5228C42.895 48.1463 42.895 48.1463 42.6481 47.9783C41.8012 47.4022 41.2373 46.3182 41.0541 44.9142C41.024 44.6834 40.992 44.6186 40.8956 44.593C40.6966 44.5402 40.226 44.5623 39.9424 44.6378Z" fill="#2430F0"/>
<path fill-rule="evenodd" clip-rule="evenodd" d="M48.2885 70.9386C46.1213 71.3222 44.0929 73.6445 42.5199 77.5432C41.7313 79.4982 41.3212 79.781 38.7076 80.1741C36.9877 80.4328 36.8743 80.8472 38.0563 82.5524C38.9109 83.7855 39.9547 85.489 41.0572 87.449C43.0275 90.953 43.7545 92.115 44.7565 93.3632C48.2122 97.669 51.1658 96.9629 54.8299 90.9552C55.5514 89.7725 55.6415 89.6168 56.8606 87.449C57.9631 85.489 59.0069 83.7855 59.8615 82.5524C61.0435 80.8472 60.9301 80.4328 59.2102 80.1741C56.5967 79.781 56.1865 79.4982 55.3979 77.5432C53.5015 72.8431 50.9451 70.4682 48.2885 70.9386ZM42.0569 81.5074C41.8105 81.004 42.0014 80.4804 42.5307 80.2077C43.2634 79.8302 44.1527 80.4664 44.6247 81.7062C44.934 82.5188 44.5547 82.6353 43.5597 82.0338C43.2814 81.8653 43.2126 81.8446 43.1215 81.9006C42.7904 82.105 42.2523 81.9062 42.0569 81.5074ZM53.2202 82.2377C53.0296 81.8423 53.8062 80.5381 54.4135 80.2329C55.3052 79.7843 56.2829 80.6456 55.8609 81.5074C55.6655 81.9062 55.1274 82.105 54.7963 81.9006C54.7052 81.8446 54.6364 81.8653 54.3581 82.0338C53.6285 82.4751 53.358 82.5233 53.2202 82.2377Z" fill="#F2C79C"/>
<path fill-rule="evenodd" clip-rule="evenodd" d="M37.3009 24.403C36.5473 21.5954 34.1997 19.3839 31.0102 19.9736C28.4793 20.4416 26.2305 22.3643 25.6414 24.544C25.8155 25.1512 26.1033 25.7375 26.5161 26.2772C29.4368 30.0955 34.6959 29.7103 36.8627 25.5194C37.0524 25.1526 37.1974 24.7789 37.3009 24.403Z" fill="#2430F0"/>
<path fill-rule="evenodd" clip-rule="evenodd" d="M40.1841 13.8331C40.0755 13.5111 39.9896 13.1872 39.9253 12.8628C40.585 9.48752 43.8458 6.55861 47.7019 5.86203C52.8626 4.92985 57.1135 8.42565 57.9951 12.8569C57.9302 13.1818 57.8435 13.5076 57.7338 13.8331C55.1362 21.5419 42.7816 21.5419 40.1841 13.8331Z" fill="#2430F0"/>
<path d="M65.3641 16.9849C61.7018 17.6391 59.8038 21.2129 60.6216 24.3975C61.1626 22.2632 63.2767 20.4266 65.7943 19.9768C69.0945 19.3873 71.5 21.74 72.2755 24.5648C73.4045 20.7128 69.8048 16.1916 65.3641 16.9849Z" fill="#2430F0"/>
<path d="M39.9253 12.8628C40.585 9.48752 43.8458 6.55861 47.7019 5.86203C52.8626 4.92985 57.1135 8.42565 57.9951 12.8569C59.1333 7.15949 53.5585 1.73452 47.2717 2.87012C42.3006 3.7681 39.0336 8.36444 39.9253 12.8628Z" fill="#2430F0"/>
<path d="M31.0102 19.9736C34.1997 19.3839 36.5473 21.5954 37.3009 24.403C38.3957 20.427 34.8585 16.1907 30.5801 16.9817C26.9089 17.6605 24.7362 21.3854 25.6414 24.544C26.2305 22.3643 28.4793 20.4416 31.0102 19.9736Z" fill="#2430F0"/>
<path d="M62.387 27.3364C65.0204 29.7926 69.0773 29.3159 71.4017 26.2772C71.8149 25.7369 72.1014 25.1588 72.2755 24.5648C71.5 21.74 69.0945 19.3873 65.7943 19.9768C63.2767 20.4266 61.1626 22.2632 60.6216 24.3975C60.895 25.4617 61.4716 26.4826 62.387 27.3364Z" fill="#2430F0"/>
<path fill-rule="evenodd" clip-rule="evenodd" d="M41.2942 9.82173C42.7349 7.84341 45.083 6.33601 47.7067 5.86202C51.633 5.15283 55.0326 7.00661 56.8227 9.8854C57.1639 9.54587 57.4759 9.2008 57.7337 8.86278C56.4022 4.92061 52.0441 2.00895 47.2766 2.87012C43.9829 3.46509 41.4373 5.68361 40.3538 8.42145C40.5882 8.86821 40.9192 9.34757 41.2942 9.82173Z" fill="#F2C79C"/>
<path d="M41.2942 9.82173C42.5733 11.439 44.364 12.9963 44.5797 12.9963C44.7431 12.9963 45.646 12.1292 46.5837 11.2287C47.5965 10.256 48.6499 9.24431 48.8558 9.24431C49.054 9.24431 49.9036 10.1823 50.7532 11.1203C51.6027 12.0583 52.4523 12.9963 52.6505 12.9963C52.9033 12.9963 55.1956 11.504 56.8227 9.8854C55.0326 7.00661 51.633 5.15283 47.7067 5.86202C45.083 6.33601 42.7349 7.84341 41.2942 9.82173Z" fill="#2BE1B7"/>
<path d="M25.6714 24.386C26.3239 22.272 28.5249 20.4302 30.9944 19.9736C32.8828 19.6245 34.4761 20.2572 35.6181 21.4142C35.8302 20.6386 35.9838 19.7123 35.9659 18.9347C34.6841 17.4593 32.7181 16.5835 30.5643 16.9817C26.9798 17.6444 24.8238 21.2112 25.5667 24.3193C25.6011 24.3417 25.6361 24.364 25.6714 24.386Z" fill="#2BE1B7"/>
<path d="M25.6714 24.386C27.0603 25.2533 28.954 25.632 29.4528 25.3443C29.8391 25.1216 30.0178 23.9982 30.0599 22.8412C30.0918 21.9619 30.1205 21.1747 30.2916 21.0296C30.4808 20.8692 31.3986 21.391 32.3711 21.944C33.4368 22.5499 34.6408 23.0784 34.9517 22.9027C35.174 22.7771 35.3928 22.2381 35.6181 21.4142C34.4761 20.2572 32.8828 19.6245 30.9944 19.9736C28.5249 20.4302 26.3239 22.272 25.6714 24.386Z" fill="#2BE1B7"/>
<path fill-rule="evenodd" clip-rule="evenodd" d="M61.043 20.3883C61.1279 21.0043 62.912 24.3083 63.3934 24.4203C63.6541 24.481 64.5459 23.8519 65.3628 23.2757C66.0545 22.7878 66.6925 22.3378 66.8483 22.3763C66.9904 22.4114 67.2612 22.8332 67.5778 23.3265C68.0186 24.0131 68.5483 24.8382 68.9438 24.9523C69.4561 25.1 71.4963 24.0391 72.4947 23.3276C72.6489 19.8161 69.3503 16.2754 65.3792 16.9849C63.3055 17.3553 61.7975 18.6618 61.0278 20.3036C61.0337 20.3295 61.0387 20.3576 61.043 20.3883Z" fill="#2BE1B7"/>
<path d="M73.3412 67.503C73.1855 67.583 72.7012 67.8076 72.2651 68.0019C70.5821 68.7501 70.2896 68.931 70.5147 69.0833C71.7004 69.8863 72.0083 72.413 71.169 74.4526C70.9602 74.9594 70.9916 74.956 71.5141 74.4156C73.1968 72.674 74.2834 69.2787 73.7346 67.4772C73.6875 67.3232 73.6898 67.3232 73.3412 67.503Z" fill="#F1F1F1"/>
<path d="M24.1833 67.4772C23.6343 69.2787 24.721 72.674 26.4037 74.4156C26.9262 74.956 26.9576 74.9594 26.7488 74.4526C25.9098 72.4142 26.2174 69.8863 27.4022 69.0838C27.6213 68.9354 27.2212 68.6862 25.681 68.0131C25.3228 67.8563 24.8583 67.6435 24.6488 67.5399C24.1966 67.3159 24.231 67.321 24.1833 67.4772Z" fill="#F1F1F1"/>
<path d="M69.6533 72.6085C69.6533 72.4225 69.4885 72.2725 69.2851 72.2725C69.0818 72.2725 68.917 72.4225 68.917 72.6085C68.917 72.7938 69.0818 72.9445 69.2851 72.9445C69.4885 72.9445 69.6533 72.7938 69.6533 72.6085Z" fill="#F1F1F1"/>
<path fill-rule="evenodd" clip-rule="evenodd" d="M57.4907 14.4687C54.3396 17.9388 48.0766 19.8484 40.9202 15.4293C44.4589 21.3135 54.6792 20.9933 57.4907 14.4687ZM35.9598 26.8619C32.6429 28.2337 28.1396 26.8293 25.9397 25.3337C26.0942 25.6598 26.2856 25.9757 26.5161 26.2772C29.0867 29.6377 33.4689 29.7422 35.9598 26.8619ZM71.9146 25.4684C70.0077 27.2415 66.1464 28.502 61.6363 26.5029C61.8551 26.7942 62.1048 27.0732 62.387 27.3364C65.0204 29.7926 69.0773 29.3159 71.4017 26.2772C71.6017 26.0156 71.7723 25.7452 71.9146 25.4684Z" fill="#22110C" fill-opacity="0.2"/>
<path d="M39.9253 12.8628C40.585 9.48752 43.8458 6.55861 47.7019 5.86203C52.8626 4.92985 57.1135 8.42565 57.9951 12.8569C59.1333 7.15949 53.5585 1.73452 47.2717 2.87012C42.3006 3.7681 39.0336 8.36444 39.9253 12.8628Z" fill="#2430F0"/>
<path fill-rule="evenodd" clip-rule="evenodd" d="M41.2942 9.82173C42.7349 7.84341 45.083 6.33601 47.7067 5.86202C51.633 5.15283 55.0326 7.00661 56.8227 9.8854C57.1639 9.54587 57.4759 9.2008 57.7337 8.86278C56.4022 4.92061 52.0441 2.00895 47.2766 2.87012C43.9829 3.46509 41.4373 5.68361 40.3538 8.42145C40.5882 8.86821 40.9192 9.34757 41.2942 9.82173Z" fill="#2BE1B7"/>
<path fill-rule="evenodd" clip-rule="evenodd" d="M51.2298 35.9773C50.8157 35.0209 49.7834 34.5087 48.3428 34.7628C47.4919 34.913 46.9146 35.3656 46.6448 36.023C47.2125 35.5595 48.2171 35.408 48.9666 35.3923C49.6909 35.4075 50.6534 35.5495 51.2298 35.9773ZM44.9224 36.5826C44.2207 36.6891 42.9392 37.0266 42.3822 37.8033C42.568 37.1094 43.0342 36.5934 43.7455 36.4037C44.4577 36.2138 44.7837 36.2356 44.9224 36.5826ZM41.0951 38.7376C41.0898 38.6737 41.0869 38.6121 41.0866 38.5534C41.0862 38.4803 40.0519 38.5153 39.727 38.5994C38.6149 38.8872 37.8661 39.7038 37.591 40.6771C38.3348 39.6373 39.7197 38.7702 41.0951 38.7376ZM33.405 44.403C33.7338 43.2975 34.9585 42.1443 35.9542 42.1443C36.095 42.1443 36.2177 42.1366 36.3243 42.1229C36.3149 42.0631 36.3069 42.0025 36.3 41.9413C36.2978 41.9208 36.2957 41.9013 36.2936 41.8829C36.276 41.7196 36.2668 41.6355 36.2197 41.5977C36.1695 41.5575 36.0763 41.5699 35.8839 41.5953C35.8634 41.5981 35.8418 41.6009 35.8191 41.6039C34.3162 41.7991 33.4725 43.0358 33.405 44.403ZM48.3376 41.8432C47.76 41.3996 46.9053 41.2243 45.7052 42.217C45.9078 41.7962 46.2611 41.457 46.763 41.226C47.1576 41.0444 47.5772 41.0388 47.8044 41.2121C47.9854 41.3502 48.1761 41.5803 48.3376 41.8432ZM52.052 42.0777C51.5338 41.1328 50.5423 40.6393 49.8776 41.4221C49.7807 41.5363 49.6741 41.6925 49.5758 41.8585C50.1253 41.4261 50.9304 41.2322 52.052 42.0777ZM44.4496 42.6383C44.4582 42.3758 44.4294 42.3709 44.262 42.3432C44.1508 42.3247 44.0216 42.3026 43.9748 42.294C43.9281 42.2854 43.7396 42.2998 43.5558 42.3259C42.6808 42.4505 42.148 43.2114 42.0107 44.1836C42.3571 43.0712 43.6629 42.5518 44.4496 42.6383ZM56.8966 44.7829C57.1687 44.1053 58.8188 44.7789 59.3736 45.8642C59.5279 46.1658 59.6337 46.4664 59.6911 46.7657C59.266 45.5839 57.9269 45.0424 56.8966 44.7829ZM51.5628 49.1978C51.5638 49.1841 51.5642 49.1711 51.5642 49.1589C51.5642 48.9739 53.3145 48.9047 53.8697 49.0678C54.1328 49.145 54.3261 49.2919 54.4485 49.4841C53.9173 49.0205 52.7615 49.1066 51.5628 49.1978ZM47.54 47.2823C47.862 46.8079 48.347 46.5195 48.9589 46.5195C49.5593 46.5195 50.0374 46.7971 50.3594 47.2556C49.9584 46.9461 49.409 46.7872 48.9666 46.7461C48.5116 46.7883 47.9436 46.9552 47.54 47.2823ZM43.4499 49.5163C43.5707 49.3083 43.7705 49.1492 44.0481 49.0678C44.6033 48.9047 46.3536 48.9739 46.3536 49.1589C46.3536 49.1707 46.354 49.1834 46.3549 49.1966C45.1348 49.1038 43.9619 49.0187 43.4499 49.5163ZM41.0331 44.7838C39.9796 45.0496 38.6052 45.6103 38.2142 46.8481C38.2774 45.8035 38.8607 44.9258 39.9424 44.6378C40.226 44.5623 40.6966 44.5402 40.8956 44.593C40.9707 44.6129 41.0067 44.6566 41.0331 44.7838ZM55.5506 37.8027C55.3112 36.9463 54.6141 36.3819 53.5478 36.3385L52.9407 36.3138L52.9301 36.571C53.6096 36.663 54.9714 36.9957 55.5506 37.8027ZM60.3096 40.6321C60.1119 39.8833 59.6535 39.2377 58.966 38.905C58.286 38.5759 56.8324 38.3365 56.8312 38.5534C56.831 38.6121 56.8281 38.6735 56.8228 38.7373C58.1833 38.7634 59.5555 39.6086 60.3096 40.6321ZM64.5326 44.418C64.2106 43.308 62.9792 42.1443 61.979 42.1443C61.8279 42.1443 61.6977 42.1354 61.5858 42.1198C61.5879 42.107 61.5898 42.094 61.5917 42.081C61.6248 41.8579 61.6609 41.6479 61.6719 41.6143C61.7053 41.5117 62.4313 41.6368 62.8067 41.8098C63.8981 42.313 64.4752 43.3297 64.5326 44.418ZM55.8895 44.0871C55.8149 43.5092 55.608 43.0139 55.2626 42.7133C54.9596 42.4495 54.2081 42.2164 53.9147 42.2951C53.8835 42.3034 53.767 42.3252 53.6558 42.3435C53.4881 42.3711 53.4595 42.3758 53.4683 42.64C54.2303 42.5478 55.4972 43.0342 55.8895 44.0871Z" fill="white" fill-opacity="0.2"/>
<path fill-rule="evenodd" clip-rule="evenodd" d="M74.8673 58.9831C72.6356 58.8174 70.033 59.5487 68.1524 60.7085C65.5188 62.3325 61.4692 66.6445 60.6197 70.8165C60.3847 71.9701 60.2084 72.3475 60.0779 72.2646C61.3753 64.4935 65.9432 59.1063 71.8686 58.4825C73.2049 58.3419 74.2081 58.543 74.8673 58.9831Z" fill="white" fill-opacity="0.4"/>
<path fill-rule="evenodd" clip-rule="evenodd" d="M22.9348 59.0363C25.2243 58.786 27.9644 59.5291 29.9221 60.7365C32.5558 62.3605 36.6053 66.6725 37.4549 70.8445C37.5882 71.4986 37.7025 71.9029 37.8003 72.1157C36.9774 67.4167 34.8581 63.2632 32.031 61.0137C29.7719 59.2161 26.5245 58.1566 24.3301 58.501C23.7502 58.5922 23.2859 58.777 22.9348 59.0363Z" fill="white" fill-opacity="0.4"/>
<path fill-rule="evenodd" clip-rule="evenodd" d="M43.3745 75.6655C45.2264 73.6518 47.5992 73.3085 48.8676 73.3085C50.1851 73.3085 52.7968 73.7291 54.6824 75.9416C52.8821 72.3106 50.624 70.5247 48.2885 70.9386C46.4957 71.2561 44.798 72.8997 43.3745 75.6655Z" fill="white" fill-opacity="0.4"/>
<path fill-rule="evenodd" clip-rule="evenodd" d="M73.8783 68.5619C73.0314 68.9231 72.0831 69.2899 71.059 69.6573C70.9059 69.4204 70.7239 69.225 70.5147 69.0833C70.2896 68.931 70.5821 68.7501 72.2651 68.0019C72.7012 67.8076 73.1855 67.583 73.3412 67.503L73.3472 67.4996C73.5633 67.3882 73.6421 67.3473 73.6829 67.3714C73.7061 67.3848 73.7169 67.4195 73.7339 67.475L73.7346 67.4772C73.8314 67.7953 73.8772 68.1626 73.8783 68.5619ZM24.0408 68.4701C24.8966 68.8531 25.8511 69.2412 26.8776 69.6287C27.0265 69.4047 27.2017 69.2194 27.4022 69.0838C27.6213 68.9354 27.2212 68.6862 25.681 68.0131C25.3228 67.8563 24.8583 67.6435 24.6488 67.5399C24.6197 67.5254 24.5926 67.5119 24.5674 67.4996C24.3394 67.3865 24.2637 67.3484 24.2284 67.3719C24.2107 67.3831 24.2032 67.4095 24.1917 67.4492C24.1892 67.4576 24.1864 67.4671 24.1833 67.4772C24.0939 67.7706 24.0479 68.1067 24.0408 68.4701Z" fill="#22110C" fill-opacity="0.2"/>
<path fill-rule="evenodd" clip-rule="evenodd" d="M36.2872 82.4354C36.1064 84.3567 36.7727 86.5054 37.0802 87.4972C37.1325 87.6658 37.1745 87.8013 37.2001 87.8965C37.4196 88.7102 35.0346 89.997 26.2866 86.0546C29.5166 88.4856 33.4685 90.2082 37.1501 90.5302C40.2407 90.8001 40.9423 90.7542 40.6467 90.2989C40.1619 89.5535 38.5002 86.5301 37.5293 84.6272C37.2778 84.1344 36.8876 83.4417 36.6621 83.0872C36.5183 82.8615 36.3932 82.6442 36.2872 82.4354Z" fill="#22110C" fill-opacity="0.2"/>
<path fill-rule="evenodd" clip-rule="evenodd" d="M71.6848 86.0373C62.9055 90.0004 60.5133 88.7113 60.7331 87.8965C60.7587 87.8013 60.8006 87.6663 60.853 87.4972C61.1619 86.501 61.8327 84.3371 61.6436 82.4096C61.5348 82.6263 61.4054 82.852 61.2557 83.0872C61.0302 83.4417 60.64 84.1344 60.3885 84.6272C59.4176 86.5301 57.7559 89.5535 57.2711 90.2989C57.1633 90.4652 57.0838 90.5677 57.1089 90.6276C57.1531 90.7334 57.5213 90.706 58.6309 90.6545C62.2606 90.487 63.7705 90.1555 66.7147 88.8798C68.5684 88.0768 70.2308 87.117 71.6848 86.0373Z" fill="#22110C" fill-opacity="0.2"/>
<path fill-rule="evenodd" clip-rule="evenodd" d="M40.5618 86.5788C42.4757 89.6392 43.2513 90.7407 44.2976 91.9184C48.1252 96.2276 51.3967 95.5209 55.4551 89.5082C56.2153 88.3826 56.3426 88.1866 57.5153 86.3033C57.3 86.6734 57.0816 87.0565 56.8606 87.449C55.6415 89.6168 55.5514 89.7725 54.8299 90.9552C51.1658 96.9629 48.2122 97.669 44.7565 93.3632C43.7545 92.115 43.0275 90.953 41.0572 87.449C40.8906 87.1528 40.7252 86.8627 40.5618 86.5788Z" fill="#22110C" fill-opacity="0.2"/>
<path d="M48.9241 65.5525C48.2162 65.5525 47.31 70.5365 46.9135 70.5365L46.0923 71.2925L48.9241 70.5365L52.1808 71.4885C51.8315 71.171 51.082 70.5365 50.8781 70.5365C50.6233 70.5365 49.6321 65.5525 48.9241 65.5525Z" fill="black" fill-opacity="0.2"/>
<path d="M44.2233 52.1683C43.8268 52.1683 42.4958 51.2443 42.4958 49.8723C42.6846 49.527 43.0622 48.9875 43.0622 49.5923C43.0622 50.3483 43.9118 51.3283 44.1383 51.5523C44.3649 51.7763 44.6197 52.1683 44.2233 52.1683Z" fill="black" fill-opacity="0.2"/>
<path d="M36.6337 49.8723C35.0196 49.8723 32.924 47.7723 31.8479 46.3443L32.4992 45.7843L33.9718 47.8843L37.3134 48.8643L37.9647 47.8003C38.1252 48.043 38.5028 48.6291 38.7293 49.0323C39.0125 49.5363 39.7488 49.9283 40.3435 50.7683C40.9382 51.6083 38.6727 50.5723 38.3895 50.4323C38.1629 50.3203 37.6721 49.975 37.455 49.8163C37.455 49.835 37.2907 49.8723 36.6337 49.8723Z" fill="black" fill-opacity="0.2"/>
<path d="M41.7028 47.3243C41.0515 46.5123 41.2781 45.5603 41.1648 44.7483L43.0055 48.0523L42.8639 48.3043L42.8602 48.3024C42.6783 48.2077 42.2203 47.9695 41.7028 47.3243Z" fill="black" fill-opacity="0.2"/>
<path d="M47.5082 51.6643C46.9135 51.5243 46.3755 50.1523 46.3755 49.1163L46.9419 48.8643L47.31 50.3203C47.4233 50.7684 48.1029 51.8043 47.5082 51.6643Z" fill="black" fill-opacity="0.2"/>
<path d="M53.6534 52.1683C54.0499 52.1683 55.3808 51.2443 55.3808 49.8723C55.1921 49.527 54.8145 48.9875 54.8145 49.5923C54.8145 50.3483 53.9649 51.3283 53.7383 51.5523C53.5118 51.7763 53.2569 52.1683 53.6534 52.1683Z" fill="black" fill-opacity="0.2"/>
<path d="M61.2426 49.8723C62.8568 49.8723 64.9524 47.7723 66.0285 46.3443L65.3771 45.7843L63.9046 47.8843L60.563 48.8643L59.9117 47.8003C59.7512 48.043 59.3736 48.6291 59.1471 49.0323C58.8639 49.5363 58.1276 49.9283 57.5329 50.7683C56.9382 51.6083 59.2037 50.5723 59.4869 50.4323C59.7134 50.3203 60.2043 49.975 60.4214 49.8163C60.4214 49.835 60.5856 49.8723 61.2426 49.8723Z" fill="#22110C" fill-opacity="0.2"/>
<path d="M56.1737 47.3243C56.8251 46.5123 56.5985 45.5603 56.7118 44.7483L54.8711 48.0523L55.0127 48.3043L55.0164 48.3024C55.1983 48.2077 55.6563 47.9695 56.1737 47.3243Z" fill="black" fill-opacity="0.2"/>
<path d="M50.34 51.6923C50.9347 51.5523 51.501 50.1523 51.501 49.1163L50.9347 48.8643L50.5665 50.3203C50.4533 50.7683 49.7453 51.8323 50.34 51.6923Z" fill="black" fill-opacity="0.2"/>
<path d="M42.2238 81.6805C42.0256 81.6805 42.6485 81.3725 42.4503 80.8405C42.9223 80.6445 43.6624 80.8461 44.2061 81.3165C44.8858 81.9045 44.8857 83.3605 44.8574 83.9765C44.8291 84.5925 42.422 81.6805 42.2238 81.6805Z" fill="#22110C" fill-opacity="0.2"/>
<path d="M55.6554 81.6989C55.8536 81.6989 55.2306 81.3909 55.4289 80.8589C54.9568 80.6629 54.2168 80.8645 53.6731 81.3349C52.9934 81.9229 52.9934 83.3789 53.0217 83.9949C53.05 84.6109 55.4571 81.6989 55.6554 81.6989Z" fill="#22110C" fill-opacity="0.2"/>
<path fill-rule="evenodd" clip-rule="evenodd" d="M29.949 67.471C33.396 69.51 36.747 71.4924 36.747 73.9525C36.747 74.0314 36.7457 74.1098 36.7432 74.1866C35.6225 71.8665 33.1923 70.079 28.501 67.6889C26.5542 66.6971 26.5321 66.6837 25.3145 65.7154C22.3281 63.341 21.3621 60.6088 22.6583 59.2676C21.7863 62.6427 25.9328 65.0955 29.949 67.471Z" fill="#22110C" fill-opacity="0.2"/>
<path fill-rule="evenodd" clip-rule="evenodd" d="M68.0123 67.4711C64.5653 69.51 61.2144 71.4924 61.2144 73.9525C61.2144 73.9872 61.2146 74.0219 61.2151 74.0561C62.363 71.7993 64.789 70.0342 69.3931 67.6889C71.3399 66.6971 71.362 66.6837 72.5796 65.7155C75.5651 63.3416 76.439 60.7824 75.3397 59.4211C76.0488 62.7178 71.9673 65.1319 68.0123 67.4711Z" fill="#22110C" fill-opacity="0.2"/>
<path fill-rule="evenodd" clip-rule="evenodd" d="M21.3939 66.5661C21.3598 69.3409 21.4664 81.3165 35.6994 81.3165C35.7577 81.3165 35.8155 81.3165 35.873 81.3159C35.7358 80.579 35.9175 79.9652 36.4158 79.4388C36.9205 78.9051 36.6035 76.3812 35.84 74.8547C35.6379 74.4503 35.5515 74.265 35.4596 74.2622C35.38 74.2599 35.2962 74.3955 35.1293 74.6452C30.9973 80.8293 22.567 76.0967 22.7378 67.6895C22.764 66.4065 22.764 66.4065 22.4063 66.1226C22.1457 65.9165 22.0668 65.8448 22.0086 65.8583C21.9735 65.8667 21.9459 65.9058 21.8907 65.9652C21.7168 66.1528 21.5512 66.3533 21.3939 66.5661Z" fill="black" fill-opacity="0.2"/>
<path fill-rule="evenodd" clip-rule="evenodd" d="M76.5925 66.8041C76.614 69.883 76.2261 81.3725 62.285 81.3725C62.1925 81.3725 62.101 81.3719 62.0105 81.3714C62.1675 80.6098 61.9894 79.9787 61.4786 79.4388C60.9739 78.9051 61.2909 76.3806 62.0544 74.8546C62.2565 74.4503 62.3429 74.265 62.4347 74.2622C62.5144 74.2599 62.5982 74.3954 62.7651 74.6452C66.897 80.8287 75.3272 76.0967 75.1568 67.6894C75.1381 66.7772 75.1324 66.5134 75.2553 66.337C75.3052 66.2648 75.376 66.2077 75.4762 66.1265C75.6631 65.9747 75.7639 65.8795 75.8602 65.8834C76.0012 65.8896 76.1326 66.1097 76.5121 66.682C76.5393 66.7229 76.5659 66.7638 76.5925 66.8041Z" fill="#22110C" fill-opacity="0.2"/>
<path fill-rule="evenodd" clip-rule="evenodd" d="M46.4826 36.5955C46.3972 37.2326 46.534 37.9949 46.9133 38.8251C47.1972 39.4468 47.1972 39.4468 47.6329 39.4513C48.0243 39.4553 48.1133 39.4783 48.5078 39.6776C48.947 39.8994 48.947 39.8994 49.3861 39.6776C49.7806 39.4783 49.8696 39.4553 50.261 39.4513C50.6967 39.4468 50.6967 39.4468 50.9804 38.8251C51.3594 37.9944 51.4822 37.2283 51.3882 36.5874C51.2001 37.6242 50.7668 38.9793 49.795 39.0924C49.3743 39.1799 49.0816 39.1854 48.9805 39.1769L48.9738 39.1763H48.8888C48.7878 39.1848 48.495 39.1799 48.0743 39.0924C47.1051 38.9796 46.6716 37.6312 46.4826 36.5955ZM52.1609 39.7094C52.6467 38.9605 52.8497 38.2451 52.8958 37.1187L52.92 36.5271C53.1062 37.5415 53.0566 38.962 52.2047 40.168C51.984 39.9822 51.9945 39.966 52.1609 39.7094ZM55.6216 38.7554C55.5823 39.2731 55.4192 39.8456 55.1209 40.4435C55.0889 40.5075 55.0601 40.566 55.0339 40.619C54.8738 40.9435 54.811 41.0707 54.7145 41.1047C54.6523 41.1267 54.576 41.1098 54.4505 41.0821C54.4187 41.075 54.3837 41.0673 54.345 41.0593C54.0425 40.997 53.8756 40.9904 53.6682 41.0327C53.6139 41.0437 53.5644 41.0541 53.5192 41.0635C53.5095 41.0655 53.5001 41.0674 53.4908 41.0694C53.5278 40.9584 53.8166 40.8679 54.1109 40.7756C54.3878 40.6889 54.6695 40.6006 54.7508 40.4923C55.1543 39.9546 55.4624 39.4124 55.6216 38.7554ZM56.8193 38.5535C56.8151 39.3252 56.368 40.5895 55.8653 41.251C55.6505 41.5336 55.636 41.5528 55.9089 41.8437C56.4875 41.0167 57.0901 39.3883 56.8622 38.5011C56.8345 38.5141 56.8194 38.5314 56.8193 38.5535ZM60.3932 41.174C60.3191 41.6477 60.0545 42.6448 59.6499 43.0684C59.1685 43.5724 58.9703 43.6284 58.5738 43.4604C58.338 43.3605 57.9938 43.4091 57.7434 43.4751C58.1981 43.4921 58.609 43.6125 58.9867 43.8383L58.9987 43.8454L59.0201 43.8583C59.1576 43.9406 59.2337 43.9863 59.3032 43.9779C59.3897 43.9675 59.4658 43.8735 59.6365 43.6628L59.6535 43.6419L59.6701 43.6215C60.2435 42.9149 60.4716 42.0137 60.3932 41.174ZM64.5026 44.205C64.4026 44.9868 64.1174 46.3769 63.0198 47.2963C61.987 48.1616 61.2074 48.2203 61.0375 46.9883C61.0212 46.8694 60.998 46.8063 60.9707 46.7878C61.0218 47.2225 61.0005 47.6609 60.8974 48.0595C60.8351 48.3003 60.7841 48.5044 60.7841 48.5129C60.7841 48.6514 62.3243 48.0124 62.864 47.65C64.1036 46.8177 64.6471 45.4447 64.5026 44.205ZM61.575 42.1123C61.4409 42.9799 61.1249 43.5973 60.4693 44.2757C60.0478 44.712 60.0478 44.712 60.2252 44.9298C60.2442 44.9531 60.2629 44.9768 60.2813 45.0009C60.8457 44.4338 61.4746 43.3507 61.575 42.1123ZM55.907 44.7383C55.8022 45.3308 55.6296 45.9792 55.3738 46.2883C54.8641 46.9044 54.1844 47.0723 53.6464 46.9883C53.3759 46.9462 52.9274 47.0638 52.5353 47.2011C53.3307 47.1677 53.9347 47.323 54.4592 47.6808C54.5876 47.7683 54.6914 47.8061 54.714 47.7735C54.7351 47.7432 54.8588 47.581 54.9891 47.413C55.5651 46.6698 55.8777 45.658 55.907 44.7383ZM51.3354 46.9271C52.1508 46.502 53.4576 45.3646 53.4416 43.5548C53.2836 44.8607 52.5059 46.018 51.2834 46.7165C51.2687 46.7249 51.295 46.8171 51.3354 46.9271ZM52.3686 43.6766C52.1169 44.4104 51.5571 45.5646 50.6729 45.2523C49.88 44.9723 49.3986 44.9163 49.0021 44.9163C48.9767 44.9163 48.9544 44.9187 48.9347 44.9232C48.915 44.9187 48.8926 44.9163 48.8672 44.9163C48.4708 44.9163 47.9893 44.9723 47.1964 45.2523C46.3985 45.5341 45.8648 44.6215 45.5832 43.9015C45.7144 44.4432 45.984 45.0315 46.3938 45.6436C46.6505 46.027 46.7454 46.1686 46.8202 46.159C46.8641 46.1533 46.9011 46.0957 46.9597 46.0043C47.8035 44.6888 50.0905 44.6888 50.9342 46.0043C51.1637 46.3621 52.0877 44.998 52.3224 43.9548C52.3433 43.862 52.3586 43.7692 52.3686 43.6766ZM41.9635 44.7447C41.9733 45.6255 42.2762 46.602 42.9048 47.413C43.0351 47.581 43.1589 47.7432 43.1799 47.7735C43.2025 47.8061 43.3063 47.7683 43.4347 47.6808C43.9531 47.3272 44.5493 47.1713 45.331 47.2C44.9397 47.0632 44.4927 46.9463 44.223 46.9883C43.6849 47.0723 43.0053 46.9044 42.4955 46.2883C42.2407 45.9803 42.0684 45.3355 41.9635 44.7447ZM44.4341 43.3684C44.3217 45.3023 45.7135 46.5072 46.5545 46.9378C46.5973 46.8231 46.6257 46.7252 46.6105 46.7165C45.3301 45.9849 44.5378 44.7501 44.4341 43.3684ZM41.971 41.8586C42.2584 41.5534 42.247 41.5384 42.0286 41.251C41.5259 40.5895 41.0788 39.3252 41.0746 38.5535C41.0746 38.5417 41.0475 38.5327 41.0009 38.5263C40.7893 39.4242 41.3946 41.0441 41.971 41.8586ZM37.4794 41.1942C37.393 42.0076 37.6223 42.8803 38.2238 43.6215C38.2354 43.6357 38.2466 43.6495 38.2574 43.6628C38.4281 43.8735 38.5043 43.9675 38.5907 43.9779C38.6602 43.9863 38.7364 43.9406 38.8738 43.8583C38.8845 43.8518 38.8957 43.8451 38.9072 43.8383C39.2791 43.6161 39.683 43.4959 40.1292 43.4759C39.8786 43.4095 39.5324 43.36 39.2956 43.4604C38.8991 43.6284 38.7009 43.5724 38.2195 43.0684C37.8205 42.6507 37.5577 41.6754 37.4794 41.1942ZM42.3094 38.9804C42.3698 39.4449 42.5223 39.9411 42.773 40.4435C42.805 40.5075 42.8338 40.5659 42.86 40.619C43.0201 40.9434 43.0829 41.0707 43.1794 41.1047C43.2416 41.1267 43.3179 41.1098 43.4435 41.0821C43.4752 41.075 43.5102 41.0673 43.5489 41.0593C43.8514 40.997 44.0183 40.9904 44.2257 41.0327C44.2801 41.0437 44.3295 41.0541 44.3747 41.0635C44.3753 41.0636 44.3759 41.0637 44.3765 41.0639C44.3319 40.9553 44.0478 40.8663 43.7584 40.7756C43.4816 40.6889 43.1999 40.6006 43.1186 40.4923C42.7621 40.0172 42.48 39.5386 42.3094 38.9804ZM44.9303 36.6382C44.9698 36.7634 44.9902 36.9244 44.9984 37.1255C45.0443 38.2446 45.2483 38.9622 45.733 39.7094C45.9032 39.9718 45.9103 39.9828 45.6738 40.1809C44.844 39.0155 44.7672 37.6472 44.9303 36.6382ZM36.9238 46.783C36.8856 46.7738 36.8531 46.8344 36.8318 46.9883C36.6619 48.2203 35.8823 48.1616 34.8495 47.2963C33.8364 46.4476 33.5155 45.1978 33.3934 44.3957C33.3327 45.5782 33.8529 46.8597 35.0299 47.65C35.5696 48.0124 37.1098 48.6514 37.1098 48.5129C37.1098 48.5044 37.0588 48.3003 36.9965 48.0595C36.893 47.6595 36.872 47.2193 36.9238 46.783ZM37.602 45.0148C37.6236 44.9862 37.6456 44.958 37.6681 44.9305C37.845 44.7134 37.845 44.7134 37.4008 44.2495C36.7426 43.562 36.3862 42.8228 36.2881 41.9414C36.2859 41.9222 36.284 41.904 36.2821 41.8866C36.3189 43.2285 37.0001 44.4179 37.602 45.0148Z" fill="#22110C" fill-opacity="0.2"/>
<path d="M69.8799 71.4885C69.8799 70.8081 70.4504 70.2565 71.1542 70.2565C71.858 70.2565 72.4286 70.8081 72.4286 71.4885C72.4286 72.1689 71.858 72.7205 71.1542 72.7205C70.4504 72.7205 69.8799 72.1689 69.8799 71.4885Z" fill="#F1F1F1"/>
<path d="M25.4197 71.4885C25.4197 70.8081 25.9902 70.2565 26.694 70.2565C27.3978 70.2565 27.9684 70.8081 27.9684 71.4885C27.9684 72.1689 27.3978 72.7205 26.694 72.7205C25.9902 72.7205 25.4197 72.1689 25.4197 71.4885Z" fill="#F1F1F1"/>
<path d="M28.8178 72.6085C28.8178 72.4225 28.653 72.2725 28.4497 72.2725C28.2464 72.2725 28.0815 72.4225 28.0815 72.6085C28.0815 72.7938 28.2464 72.9445 28.4497 72.9445C28.653 72.9445 28.8178 72.7938 28.8178 72.6085Z" fill="#F1F1F1"/>
</svg>
