<svg width="817" height="227" viewBox="0 0 817 227" fill="none" xmlns="http://www.w3.org/2000/svg">
<path fill-rule="evenodd" clip-rule="evenodd" d="M74.1485 6.76299C45.5777 9.57756 44.5715 51.8728 72.9629 56.6059C74.2492 56.8203 74.6569 56.9329 74.6864 57.0821C74.7078 57.1897 74.6042 59.3224 74.4568 61.8216C74.3091 64.3209 74.1231 69.2351 74.0436 72.7419C73.964 76.2489 73.8708 79.1386 73.8364 79.1637C73.8023 79.1886 73.3382 79.4231 72.8053 79.6849C71.8073 80.1754 70.4945 81.2524 69.9667 82.014C69.6708 82.4413 69.6708 82.4413 67.8534 82.5005C64.9837 82.5944 63.2346 83.2959 61.6464 84.9894C61.2061 85.459 60.8031 85.792 60.7495 85.7298C60.696 85.6679 59.0401 83.2293 57.0696 80.3107C55.0992 77.3921 52.8618 74.1055 52.0978 73.0074L50.7086 71.0104L51.5237 70.1074C66.7262 53.264 45.4686 27.8958 27.3923 41.3096C9.3997 54.6614 25.526 82.6685 46.2137 73.9971C46.2987 73.9614 47.8356 75.883 49.8487 78.5422C51.7668 81.0761 54.1626 84.2 55.1728 85.4844C56.183 86.7689 57.0947 87.9483 57.1989 88.1057C57.4131 88.4285 57.4821 88.3816 56.3249 88.6993C53.1163 89.5806 50.0913 92.2436 49.4917 94.7148C49.413 95.0394 49.2839 95.3065 49.205 95.3087C43.783 95.4526 39.6336 99.4794 39.575 104.655C39.5552 106.415 39.5552 106.415 38.8167 106.853C32.0963 110.842 22.9787 124.222 22.3277 131.052C22.2316 132.061 22.2695 132.028 20.9396 132.255C17.9388 132.767 16.1858 133.851 14.3373 136.335C11.9965 139.482 11.7806 142.187 13.5656 146.006C14.1701 147.301 14.2033 147.071 13.2066 148.476C2.66805 163.321 4.86337 180.741 19.042 194.775C28.3152 203.955 41.3322 209.55 55.9261 210.63C61.4983 211.042 62.1363 211.254 63.5716 213.143C73.0087 225.571 81.1545 225.571 90.5916 213.143C92.0269 211.254 92.6649 211.042 98.2372 210.63C120.051 209.017 138.301 197.06 145.142 179.9C149.503 168.963 148.119 158.579 140.953 148.466C139.96 147.063 139.993 147.298 140.598 146.006C142.382 142.187 142.166 139.482 139.826 136.335C137.978 133.851 136.224 132.767 133.224 132.255C131.893 132.028 131.932 132.061 131.836 131.052C131.622 128.812 129.225 123.065 126.938 119.308C124.126 114.691 118.665 108.823 115.347 106.853C114.608 106.415 114.608 106.415 114.588 104.655C114.53 99.4794 110.38 95.4526 104.958 95.3087C104.879 95.3065 104.75 95.0394 104.672 94.7148C104.072 92.2436 101.047 89.5806 97.8383 88.6993C96.6811 88.3816 96.7501 88.4285 96.9643 88.1057C97.0683 87.9483 97.9802 86.7689 98.9904 85.4844C100.001 84.2 102.396 81.0761 104.315 78.5422C106.328 75.883 107.864 73.9614 107.95 73.9971C128.637 82.6685 144.764 54.6614 126.771 41.3096C108.694 27.8958 87.437 53.264 102.639 70.1074L103.455 71.0104L102.065 73.0074C101.301 74.1055 99.064 77.3921 97.0937 80.3107C95.1231 83.2293 93.4672 85.6679 93.4137 85.7298C93.3601 85.792 92.9571 85.459 92.5166 84.9894C90.9286 83.2959 89.1795 82.5944 86.3098 82.5005C84.4925 82.4413 84.4925 82.4413 84.2007 82.0199C83.436 80.9167 81.6741 79.6637 80.249 79.2093C79.6095 79.0055 79.6095 79.0055 79.6249 71.5133C79.6333 67.3924 79.6121 62.416 79.5777 60.4545L79.5154 56.8878L81.2003 56.6064C113.132 51.2732 106.386 3.58746 74.1485 6.76299ZM73.3635 12.9362C62.4087 14.9151 55.2092 25.044 57.1742 34.9572C57.3159 35.6721 57.5052 36.3858 57.7443 37.0954C63.4687 54.0833 90.6945 54.0833 96.4187 37.0954C96.6606 36.3781 96.8517 35.6602 96.9947 34.9442C99.503 22.3888 87.2178 10.4337 73.3635 12.9362ZM36.5802 44.034C28.4899 45.5299 23.7017 53.7385 25.6968 60.6991C26.0804 62.0372 26.7146 63.3292 27.6243 64.5185C34.0607 72.9329 45.6502 72.0841 50.4252 62.8486C50.8432 62.0403 51.1625 61.2167 51.3908 60.3884C53.8035 51.6264 46.0085 42.2909 36.5802 44.034ZM113.234 44.0411C105.163 45.4827 100.981 53.3583 102.783 60.3762C103.385 62.7214 104.656 64.9712 106.673 66.8527C112.476 72.2654 121.417 71.2149 126.539 64.5185C127.449 63.3279 128.081 62.0539 128.464 60.7449C130.952 52.2563 123.02 42.2929 113.234 44.0411ZM75.7237 83.2183C71.7742 83.9151 70.4987 87.5699 72.5999 92.1704C73.2256 93.5402 73.2256 93.5402 74.1859 93.5501C75.0483 93.5592 75.2446 93.6098 76.1137 94.0488C77.0816 94.5378 77.0816 94.5378 78.0495 94.0488C78.9186 93.6098 79.115 93.5592 79.9773 93.5501C80.9374 93.5402 80.9374 93.5402 81.5626 92.1704C84.1403 86.5214 81.3396 82.2277 75.7237 83.2183ZM65.5928 86.8343C62.3569 87.6971 61.4234 91.6232 63.4759 95.7366C64.3257 97.4397 64.1573 97.3059 65.186 97.0939C65.8524 96.9564 66.2204 96.9419 66.6773 97.0351C68.1771 97.3405 67.9933 97.3901 68.6291 96.509C68.9451 96.0712 69.4707 95.4903 69.797 95.2179C70.3905 94.7225 70.3905 94.7225 69.9989 94.1189C68.9308 92.4723 68.4812 90.8909 68.3801 88.4248C68.304 86.5679 67.7586 86.2568 65.5928 86.8343ZM85.7836 88.4098C85.682 90.892 85.2349 92.4688 84.1643 94.1189C83.7727 94.7225 83.7727 94.7225 84.3662 95.2179C84.6925 95.4903 85.2181 96.0712 85.5341 96.509C86.1699 97.3901 85.9861 97.3405 87.486 97.0351C87.9428 96.9419 88.3108 96.9564 88.9772 97.0939C90.0059 97.3059 89.8375 97.4397 90.6873 95.7366C93.0862 90.9288 91.5176 86.8667 87.1942 86.6907L85.8563 86.6362L85.7836 88.4098ZM56.7372 91.673C51.9012 92.9243 50.1825 98.7127 53.4511 102.74C54.2301 103.7 54.1776 103.683 54.9569 103.218C56.1676 102.495 57.5323 102.262 59.1238 102.507C59.7006 102.596 59.7006 102.596 59.8467 102.022C60.0922 101.058 60.8143 99.8005 61.5982 98.9721C62.3435 98.1845 62.3435 98.1845 61.8357 97.5161C60.7277 96.0586 59.7424 93.2725 59.7334 91.5716C59.7325 91.4106 57.4532 91.4877 56.7372 91.673ZM94.4298 91.5716C94.4206 93.2725 93.4355 96.0586 92.3275 97.5161C91.8198 98.1845 91.8198 98.1845 92.5651 98.9721C93.3487 99.8005 94.0711 101.058 94.3166 102.022C94.4627 102.596 94.4627 102.596 95.0394 102.507C96.6309 102.262 97.9956 102.495 99.2064 103.218C99.9856 103.683 99.9331 103.7 100.712 102.74C103.436 99.3838 102.624 94.0354 99.1343 92.3465C97.6358 91.6212 94.4325 91.0937 94.4298 91.5716ZM72.2425 97.4613C68.8453 99.0248 68.537 102.838 71.4551 107.196C72.3525 108.536 72.3525 108.536 72.7022 107.991C74.5617 105.092 79.6015 105.092 81.461 107.991C81.9668 108.779 84.003 105.774 84.5202 103.475C85.4436 99.371 81.3949 95.1974 79.1061 97.8934C78.6193 98.467 78.0213 99.5202 77.785 100.22C77.3275 101.575 76.8357 101.575 76.3782 100.22C76.0124 99.1363 75.2413 97.9679 74.5372 97.4306C74.0368 97.0487 73.1121 97.0611 72.2425 97.4613ZM48.1254 98.294C41.9537 99.0957 40.8263 107.867 46.4124 111.618C47.6018 112.416 50.9959 113.824 50.9959 113.519C50.9959 113.5 50.8838 113.051 50.7465 112.52C50.1609 110.257 50.7722 107.408 52.2263 105.625C52.6161 105.146 52.6161 105.146 51.6372 104.124C50.1867 102.609 49.4016 100.98 49.1851 99.0376C49.0831 98.1213 49.1411 98.1618 48.1254 98.294ZM105.097 98.317C105.073 98.391 104.994 98.8538 104.921 99.3454C104.631 101.294 103.935 102.669 102.474 104.182C101.544 105.143 101.544 105.143 101.936 105.623C103.391 107.408 104.002 110.256 103.417 112.52C103.279 113.051 103.167 113.5 103.167 113.519C103.167 113.824 106.561 112.416 107.751 111.618C112.7 108.295 112.614 101.06 107.598 98.7478C106.771 98.3665 105.171 98.0909 105.097 98.317ZM65.1748 99.8851C61.2491 100.444 60.4487 106.815 63.7666 111.095C64.0535 111.466 64.3264 111.823 64.3726 111.89C64.4227 111.962 64.6514 111.879 64.9344 111.686C66.5334 110.595 68.4682 110.358 71.3908 110.895C71.4877 110.913 72.0173 109.609 71.9327 109.56C68.7545 107.745 66.9408 104.521 67.1237 101.014C67.1766 99.9971 67.1766 99.9971 66.731 99.9232C66.486 99.8825 66.201 99.8338 66.0981 99.8148C65.9952 99.7959 65.5798 99.8276 65.1748 99.8851ZM88.0025 99.8172C87.934 99.8355 87.6772 99.8836 87.4322 99.9239C86.9866 99.9971 86.9866 99.9971 87.0395 101.014C87.2224 104.521 85.4087 107.745 82.2303 109.56C82.1457 109.609 82.6755 110.913 82.7725 110.895C85.695 110.358 87.6299 110.595 89.2289 111.686C89.5118 111.879 89.7406 111.962 89.7906 111.89C89.8369 111.823 90.1095 111.466 90.3966 111.095C92.8352 107.95 93.1321 102.618 90.9731 100.739C90.3052 100.158 88.6493 99.6438 88.0025 99.8172ZM57.2119 104.98C52.4008 106.26 52.0638 112.834 56.5936 117.043C59.8674 120.084 56.67 119.371 53.104 116.265C52.1372 115.422 52.1372 115.422 51.4003 115.498C48.3909 115.809 43.7552 113.178 41.2833 109.756C40.713 108.966 40.713 108.966 40.3503 109.386C35.211 115.326 32.286 120.645 28.9551 130.105C28.1307 132.447 28.1226 132.265 29.0603 132.441C45.0647 135.445 55.625 152.305 55.954 175.378C56.0257 180.418 55.8985 180.116 57.6712 179.459C58.7536 179.058 58.9729 178.754 59.8572 176.424C63.9039 165.765 67.3108 161.538 73.0184 160.095C74.1996 159.797 74.165 159.819 74.2659 159.288C74.494 158.085 75.7772 154.938 76.2396 154.447C77.3546 153.264 79.2236 155.737 79.8973 159.288C79.9982 159.819 79.9636 159.797 81.1448 160.095C86.8524 161.538 90.2591 165.765 94.306 176.424C95.1903 178.754 95.4096 179.058 96.4921 179.459C98.2647 180.116 98.1373 180.418 98.2092 175.378C98.5382 152.304 109.097 135.445 125.103 132.441C126.041 132.265 126.032 132.447 125.208 130.105C121.877 120.645 118.952 115.326 113.813 109.386C113.45 108.966 113.45 108.966 112.88 109.756C110.408 113.178 105.772 115.809 102.763 115.498C102.026 115.422 102.026 115.422 101.059 116.265C97.4932 119.371 94.2958 120.084 97.5697 117.043C100.838 114.006 101.663 110.871 100.033 107.682C98.7407 105.156 94.7555 103.642 94.5023 105.581C94.0975 108.684 92.857 111.07 90.9887 112.341C90.4447 112.712 90.4447 112.712 90.9085 113.541C91.9758 115.451 91.4484 117.932 89.5782 119.801C87.9957 121.383 86.7244 121.486 88.1764 119.915C90.0813 117.855 89.9488 115.343 87.9036 114.742C86.6801 114.383 82.8229 114.535 82.8229 114.943C82.8229 115.87 81.5831 118.72 80.8471 119.486C79.9341 120.434 79.7428 120.023 80.3715 118.463C82.2978 113.683 80.6924 109.127 77.0816 109.127C73.4708 109.127 71.8654 113.683 73.7915 118.463C74.4204 120.023 74.2291 120.434 73.3161 119.486C72.5801 118.72 71.3403 115.87 71.3403 114.943C71.3403 114.535 67.4832 114.383 66.2597 114.742C64.2142 115.343 64.0817 117.855 65.9866 119.915C67.4389 121.486 66.1675 121.383 64.5851 119.801C62.7146 117.932 62.1874 115.451 63.2547 113.541C63.7186 112.712 63.7186 112.712 63.1743 112.341C61.3079 111.072 60.0655 108.683 59.6618 105.589C59.5954 105.08 59.5249 104.938 59.3125 104.881C58.874 104.765 57.8369 104.813 57.2119 104.98ZM22.807 135.53C15.4423 136.687 16.5498 144.708 25.0026 151.429C27.6858 153.563 27.7345 153.592 32.0247 155.778C47.84 163.835 51.9944 168.786 51.9944 179.58C51.9944 180.323 52.5273 180.55 53.2739 180.124C53.4083 180.047 53.3869 174.884 53.2408 172.125C52.5542 159.167 47.3038 147.055 39.7775 141.068C34.7991 137.106 27.6428 134.771 22.807 135.53ZM127.568 135.489C113.91 136.927 103.525 149.849 101.236 168.253C100.872 171.182 100.615 179.968 100.889 180.124C101.636 180.55 102.169 180.323 102.169 179.58C102.169 168.784 106.32 163.837 122.139 155.778C126.429 153.592 126.477 153.563 129.161 151.429C139.291 143.375 138.388 134.35 127.568 135.489ZM17.4571 151.979C11.712 158.171 10.0189 170.961 13.7368 180.085C18.955 192.893 36.0288 204.799 51.0583 206.113C57.8693 206.708 59.4154 206.606 58.764 205.604C57.6956 203.962 54.0337 197.298 51.8942 193.104C51.3399 192.018 50.48 190.493 49.9831 189.711C47.751 186.204 47.5872 183.657 49.4661 181.671C50.5785 180.495 49.8798 174.932 48.1974 171.57C47.3655 169.906 47.4228 169.923 46.6313 171.107C37.5253 184.735 18.9475 174.307 19.3241 155.779C19.3816 152.952 19.3816 152.952 18.5933 152.326C17.6735 151.598 17.781 151.63 17.4571 151.979ZM135.543 152.335C134.781 152.952 134.781 152.952 134.839 155.779C135.216 174.307 116.638 184.735 107.532 171.107C106.74 169.923 106.798 169.906 105.966 171.57C104.283 174.932 103.585 180.495 104.697 181.671C106.576 183.657 106.412 186.204 104.18 189.711C103.683 190.493 102.823 192.018 102.269 193.104C100.129 197.298 96.4676 203.962 95.3992 205.604C94.7436 206.613 94.5603 206.564 98.3958 206.386C106.395 206.018 109.722 205.288 116.21 202.477C139.669 192.315 149.208 170.728 137.827 153.559C136.42 151.436 136.559 151.512 135.543 152.335ZM22.4833 155.311C21.2737 159.282 23.6685 166.763 27.3766 170.602C28.5281 171.792 28.5973 171.799 28.1371 170.684C26.2882 166.19 26.9661 160.619 29.577 158.852C30.0599 158.524 29.1782 157.975 25.784 156.492C24.9946 156.147 23.971 155.678 23.5093 155.449C22.5128 154.956 22.5886 154.967 22.4833 155.311ZM130.813 155.368C130.47 155.544 129.403 156.039 128.442 156.468C124.733 158.116 124.088 158.515 124.584 158.85C127.197 160.619 127.876 166.188 126.026 170.684C125.566 171.799 125.635 171.792 126.787 170.602C130.495 166.763 132.889 159.282 131.68 155.311C131.576 154.972 131.581 154.972 130.813 155.368ZM75.6042 162.94C70.8284 163.784 66.3584 168.901 62.892 177.493C61.1541 181.801 60.2502 182.425 54.4908 183.291C50.7006 183.862 50.4507 184.774 53.0555 188.532C54.9388 191.251 57.239 195.004 59.6686 199.323C64.0106 207.045 65.6127 209.606 67.8208 212.356C75.4361 221.845 81.945 220.289 90.0196 207.049C91.6095 204.442 91.8081 204.101 94.4946 199.323C96.9242 195.004 99.2244 191.251 101.108 188.532C103.712 184.774 103.463 183.862 99.6724 183.291C93.9128 182.425 93.0091 181.801 91.2713 177.493C87.0922 167.136 81.4586 161.902 75.6042 162.94ZM62.9158 183.366C61.7493 183.965 61.3286 185.12 61.8716 186.229C62.3022 187.108 63.4881 187.546 64.2177 187.097C64.4185 186.974 64.5701 187.018 65.1834 187.39C67.3761 188.714 68.2119 188.459 67.5303 186.667C66.4902 183.935 64.5302 182.533 62.9158 183.366ZM89.1019 183.421C87.7636 184.093 86.0522 186.967 86.4723 187.84C86.7759 188.468 87.372 188.362 88.9799 187.39C89.5931 187.018 89.7447 186.974 89.9455 187.097C90.6752 187.546 91.861 187.108 92.2916 186.229C93.2215 184.331 91.067 182.432 89.1019 183.421Z" fill="#22110C"/>
<path d="M88.0025 99.8169C87.9339 99.8352 87.6772 99.8832 87.4322 99.9236C86.9866 99.9967 86.9866 99.9967 87.0395 101.014C87.2224 104.521 85.4087 107.744 82.2303 109.56C82.1457 109.609 82.6752 110.913 82.7722 110.895C85.695 110.358 87.6298 110.595 89.2288 111.685C89.5118 111.878 89.7405 111.961 89.7906 111.889C89.8368 111.823 90.1094 111.465 90.3966 111.095C92.8352 107.949 93.1318 102.617 90.9731 100.739C90.3051 100.157 88.6493 99.6435 88.0025 99.8169Z" fill="#2430F0"/>
<path d="M105.097 98.317C105.073 98.3911 104.993 98.8539 104.92 99.3455C104.631 101.294 103.935 102.669 102.474 104.182C101.544 105.143 101.544 105.143 101.936 105.623C103.391 107.409 104.002 110.256 103.417 112.52C103.279 113.051 103.167 113.501 103.167 113.519C103.167 113.824 106.561 112.416 107.75 111.618C112.7 108.295 112.614 101.06 107.598 98.7478C106.771 98.3666 105.171 98.0909 105.097 98.317Z" fill="#2430F0"/>
<path d="M94.4298 91.5714C94.4208 93.2722 93.4355 96.0583 92.3275 97.5159C91.8197 98.1843 91.8197 98.1842 92.565 98.9719C93.3487 99.8002 94.071 101.058 94.3165 102.022C94.4626 102.596 94.4626 102.596 95.0393 102.507C96.6308 102.262 97.9956 102.494 99.2063 103.218C99.9855 103.683 99.9331 103.7 100.712 102.74C103.436 99.3835 102.624 94.0351 99.1343 92.3462C97.6357 91.621 94.4324 91.0934 94.4298 91.5714Z" fill="#2430F0"/>
<path d="M85.7836 88.4093C85.682 90.8915 85.2348 92.4683 84.1643 94.1184C83.7727 94.722 83.7727 94.722 84.3661 95.2174C84.6925 95.4898 85.2181 96.0707 85.5341 96.5086C86.1699 97.3896 85.9861 97.34 87.4859 97.0346C87.9428 96.9414 88.3108 96.9559 88.9772 97.0932C90.0059 97.3054 89.8375 97.4392 90.687 95.7362C93.0862 90.9283 91.5176 86.8663 87.1939 86.69L85.8563 86.6357L85.7836 88.4093Z" fill="#2430F0"/>
<path d="M75.7237 83.2179C71.774 83.9147 70.4987 87.5695 72.5999 92.17C73.2256 93.5398 73.2256 93.5398 74.1857 93.5497C75.0483 93.5585 75.2444 93.6094 76.1138 94.0484C77.0816 94.5374 77.0816 94.5374 78.0495 94.0484C78.9186 93.6094 79.115 93.5585 79.9773 93.5497C80.9374 93.5398 80.9374 93.5398 81.5626 92.17C84.1403 86.521 81.3396 82.2273 75.7237 83.2179Z" fill="#2430F0"/>
<path d="M72.2424 97.4608C68.8452 99.0245 68.5369 102.837 71.4553 107.196C72.3524 108.536 72.3524 108.536 72.7021 107.991C74.5616 105.092 79.6015 105.092 81.461 107.991C81.9667 108.779 84.0029 105.773 84.5202 103.474C85.4435 99.3705 81.3949 95.1969 79.1061 97.8929C78.6193 98.4665 78.0212 99.5197 77.785 100.219C77.3277 101.575 76.8356 101.575 76.3781 100.219C76.0125 99.1358 75.2412 97.9674 74.5374 97.4301C74.0367 97.0482 73.112 97.0606 72.2424 97.4608Z" fill="#2430F0"/>
<path d="M65.1748 99.8849C61.2491 100.444 60.4487 106.815 63.7666 111.095C64.0535 111.465 64.3263 111.823 64.3726 111.89C64.4226 111.961 64.6514 111.878 64.9343 111.685C66.5331 110.595 68.4682 110.358 71.3908 110.895C71.4877 110.913 72.0173 109.609 71.9326 109.56C68.7545 107.744 66.9408 104.521 67.1235 101.014C67.1764 99.9968 67.1764 99.9968 66.731 99.923C66.486 99.8822 66.201 99.8335 66.0981 99.8146C65.9952 99.7956 65.5796 99.8274 65.1748 99.8849Z" fill="#2430F0"/>
<path d="M56.7372 91.6729C51.9012 92.9241 50.1825 98.7126 53.4511 102.74C54.2301 103.7 54.1776 103.683 54.9569 103.218C56.1676 102.494 57.5323 102.262 59.1238 102.507C59.7006 102.596 59.7006 102.596 59.8467 102.022C60.0921 101.058 60.8145 99.8003 61.5982 98.9719C62.3435 98.1843 62.3435 98.1843 61.8357 97.516C60.7279 96.0584 59.7426 93.2723 59.7334 91.5715C59.7325 91.4104 57.4532 91.4875 56.7372 91.6729Z" fill="#2430F0"/>
<path d="M65.5928 86.8341C62.3569 87.6968 61.4234 91.6229 63.4759 95.7364C64.3257 97.4394 64.1571 97.3056 65.1858 97.0936C65.8524 96.9561 66.2202 96.9416 66.6773 97.0348C68.1771 97.3402 67.9933 97.3898 68.6291 96.5088C68.9449 96.0709 69.4704 95.49 69.7968 95.2176C70.3903 94.7222 70.3903 94.7222 69.9989 94.1186C68.9308 92.472 68.4812 90.8906 68.38 88.4245C68.304 86.5676 67.7586 86.2565 65.5928 86.8341Z" fill="#2430F0"/>
<path d="M48.1253 98.2935C41.9537 99.0955 40.8262 107.866 46.4124 111.617C47.6017 112.416 50.9959 113.824 50.9959 113.519C50.9959 113.5 50.8837 113.05 50.7464 112.52C50.1609 110.256 50.7722 107.408 52.2262 105.624C52.616 105.146 52.616 105.146 51.6372 104.123C50.1869 102.608 49.4015 100.98 49.1851 99.0371C49.0831 98.1208 49.141 98.1613 48.1253 98.2935Z" fill="#2430F0"/>
<path d="M127.568 135.489C113.91 136.927 103.525 149.849 101.236 168.253C100.872 171.182 100.615 179.968 100.889 180.124C101.636 180.55 102.169 180.323 102.169 179.58C102.169 168.784 106.32 163.837 122.139 155.778C126.429 153.592 126.477 153.562 129.161 151.429C139.291 143.375 138.388 134.35 127.568 135.489Z" fill="#2BE1B7"/>
<path d="M135.543 152.334C134.781 152.951 134.781 152.951 134.839 155.779C135.216 174.306 116.638 184.734 107.532 171.107C106.74 169.923 106.798 169.906 105.966 171.569C104.283 174.932 103.585 180.494 104.697 181.671C106.576 183.657 106.412 186.204 104.18 189.71C103.683 190.493 102.823 192.018 102.269 193.104C100.129 197.298 96.4676 203.962 95.3992 205.603C94.7436 206.613 94.5603 206.564 98.3958 206.386C106.395 206.018 109.722 205.288 116.21 202.476C139.669 192.315 149.208 170.728 137.827 153.559C136.42 151.436 136.559 151.511 135.543 152.334Z" fill="#2BE1B7"/>
<path d="M17.457 151.979C11.712 158.171 10.0189 170.961 13.7368 180.084C18.9549 192.892 36.0288 204.799 51.0585 206.112C57.8692 206.707 59.4154 206.606 58.7639 205.603C57.6956 203.961 54.0337 197.297 51.8941 193.104C51.3399 192.017 50.48 190.492 49.9831 189.71C47.7509 186.204 47.5872 183.656 49.4661 181.671C50.5785 180.494 49.8797 174.932 48.1974 171.569C47.3655 169.905 47.4228 169.923 46.6312 171.106C37.5255 184.734 18.9474 174.306 19.324 155.778C19.3815 152.951 19.3815 152.951 18.5935 152.326C17.6735 151.597 17.7812 151.629 17.457 151.979Z" fill="#2BE1B7"/>
<path d="M22.807 135.53C15.4422 136.686 16.5498 144.708 25.0025 151.429C27.6858 153.562 27.7345 153.592 32.0246 155.778C47.84 163.835 51.9944 168.786 51.9944 179.58C51.9944 180.323 52.5272 180.55 53.2739 180.124C53.4083 180.047 53.3869 174.884 53.2408 172.125C52.5543 159.167 47.304 147.055 39.7775 141.067C34.7991 137.106 27.6428 134.771 22.807 135.53Z" fill="#2BE1B7"/>
<path d="M57.2121 104.98C52.401 106.26 52.0638 112.834 56.5935 117.043C59.8676 120.084 56.67 119.371 53.104 116.265C52.1372 115.422 52.1372 115.422 51.4005 115.498C48.3909 115.809 43.7552 113.178 41.2835 109.756C40.713 108.966 40.713 108.966 40.3503 109.386C35.2112 115.326 32.286 120.645 28.9551 130.105C28.1307 132.447 28.1226 132.265 29.0605 132.441C45.0646 135.445 55.6252 152.305 55.954 175.378C56.0259 180.417 55.8985 180.116 57.6712 179.459C58.7536 179.058 58.9729 178.754 59.8572 176.424C63.9041 165.765 67.3108 161.538 73.0186 160.095C74.1996 159.797 74.165 159.819 74.2659 159.288C74.494 158.085 75.7774 154.938 76.2396 154.447C77.3546 153.264 79.2236 155.737 79.8973 159.288C79.9982 159.819 79.9636 159.797 81.1448 160.095C86.8526 161.538 90.2593 165.765 94.306 176.424C95.1903 178.754 95.4098 179.058 96.492 179.459C98.2647 180.116 98.1375 180.417 98.2092 175.378C98.5382 152.304 109.097 135.445 125.103 132.441C126.041 132.265 126.032 132.447 125.208 130.105C121.877 120.645 118.952 115.326 113.813 109.386C113.45 108.966 113.45 108.966 112.88 109.756C110.408 113.178 105.772 115.809 102.763 115.498C102.026 115.422 102.026 115.422 101.059 116.265C97.4934 119.371 94.2958 120.084 97.5697 117.043C100.838 114.006 101.663 110.871 100.033 107.682C98.7409 105.156 94.7555 103.642 94.5025 105.581C94.0975 108.684 92.857 111.07 90.989 112.341C90.4446 112.712 90.4446 112.712 90.9087 113.541C91.976 115.451 91.4487 117.932 89.5784 119.801C87.9959 121.383 86.7246 121.486 88.1766 119.915C90.0815 117.855 89.949 115.343 87.9038 114.742C86.6801 114.383 82.8229 114.535 82.8229 114.943C82.8229 115.87 81.5833 118.72 80.8471 119.486C79.9343 120.434 79.7428 120.023 80.3717 118.463C82.298 113.683 80.6924 109.127 77.0816 109.127C73.4711 109.127 71.8654 113.683 73.7917 118.463C74.4204 120.023 74.2291 120.434 73.3161 119.486C72.5801 118.72 71.3403 115.87 71.3403 114.943C71.3403 114.535 67.4832 114.383 66.2597 114.742C64.2144 115.343 64.082 117.855 65.9868 119.915C67.4389 121.486 66.1675 121.383 64.5851 119.801C62.7148 117.932 62.1874 115.451 63.2547 113.541C63.7186 112.712 63.7186 112.712 63.1745 112.341C61.3082 111.072 60.0655 108.683 59.6618 105.589C59.5956 105.08 59.5251 104.938 59.3127 104.881C58.8739 104.765 57.8369 104.813 57.2121 104.98Z" fill="#2430F0"/>
<path fill-rule="evenodd" clip-rule="evenodd" d="M75.6042 162.94C70.8284 163.784 66.3584 168.901 62.8919 177.493C61.1539 181.801 60.2501 182.425 54.4908 183.291C50.7006 183.862 50.4507 184.774 53.0555 188.531C54.9388 191.251 57.239 195.003 59.6686 199.323C64.0103 207.044 65.6126 209.605 67.8207 212.355C75.4361 221.845 81.9449 220.289 90.0195 207.049C91.6095 204.442 91.8081 204.1 94.4946 199.323C96.9242 195.003 99.2244 191.251 101.108 188.531C103.712 184.774 103.463 183.862 99.6724 183.291C93.9128 182.425 93.0091 181.801 91.2712 177.493C87.0921 167.135 81.4586 161.902 75.6042 162.94ZM61.8716 186.228C61.3286 185.12 61.7493 183.965 62.9157 183.366C64.5302 182.533 66.4901 183.934 67.5303 186.667C68.2119 188.458 67.376 188.714 65.1833 187.39C64.5701 187.017 64.4184 186.973 64.2177 187.097C63.488 187.546 62.3022 187.108 61.8716 186.228ZM86.4722 187.839C86.0522 186.967 87.7636 184.093 89.1017 183.421C91.067 182.431 93.2215 184.331 92.2916 186.228C91.861 187.108 90.6751 187.546 89.9455 187.097C89.7447 186.973 89.5931 187.017 88.9796 187.39C87.3718 188.361 86.7759 188.467 86.4722 187.839Z" fill="#F2C79C"/>
<path fill-rule="evenodd" clip-rule="evenodd" d="M51.3906 60.3883C49.7301 54.2012 44.5567 49.3277 37.528 50.6272C31.9506 51.6586 26.9949 55.8956 25.6967 60.6991C26.0804 62.0371 26.7146 63.3292 27.6243 64.5185C34.0607 72.9329 45.6501 72.0841 50.4251 62.8486C50.8432 62.0402 51.1625 61.2167 51.3906 60.3883Z" fill="#2430F0"/>
<path fill-rule="evenodd" clip-rule="evenodd" d="M57.7445 37.0952C57.5052 36.3856 57.3159 35.6716 57.1742 34.9567C58.628 27.5188 65.8138 21.0644 74.3113 19.5293C85.6842 17.475 95.0519 25.1787 96.9947 34.9439C96.8517 35.6599 96.6606 36.3779 96.4188 37.0952C90.6945 54.0829 63.4686 54.0829 57.7445 37.0952Z" fill="#2430F0"/>
<path d="M113.234 44.0409C105.163 45.4826 100.981 53.3582 102.783 60.3761C103.975 55.6727 108.634 51.6254 114.182 50.6342C121.454 49.3351 126.755 54.5198 128.464 60.7448C130.952 52.2561 123.02 42.2927 113.234 44.0409Z" fill="#2430F0"/>
<path d="M57.174 34.957C58.628 27.5188 65.8138 21.0644 74.3113 19.5293C85.6842 17.4752 95.0516 25.1789 96.9947 34.944C99.5029 22.3886 87.2177 10.4335 73.3635 12.936C62.4086 14.915 55.2091 25.0441 57.174 34.957Z" fill="#2430F0"/>
<path d="M37.528 50.6273C44.5567 49.3278 49.7301 54.2012 51.3908 60.3884C53.8035 51.6264 46.0085 42.2909 36.5802 44.034C28.4897 45.5299 23.7017 53.7385 25.6968 60.6991C26.995 55.8957 31.9506 51.6586 37.528 50.6273Z" fill="#2430F0"/>
<path d="M106.673 66.8525C112.476 72.2653 121.417 71.2148 126.539 64.5184C127.449 63.3277 128.081 62.0538 128.464 60.745C126.755 54.5197 121.454 49.3351 114.182 50.6342C108.634 51.6254 103.975 55.6727 102.783 60.3761C103.385 62.7213 104.656 64.971 106.673 66.8525Z" fill="#2430F0"/>
<path fill-rule="evenodd" clip-rule="evenodd" d="M60.191 28.2553C63.3657 23.8957 68.5404 20.5738 74.3223 19.5293C82.9745 17.9664 90.4664 22.0516 94.4111 28.3956C95.163 27.6475 95.8507 26.887 96.4188 26.1421C93.4844 17.4547 83.8807 11.0384 73.3745 12.936C66.1159 14.2472 60.5062 19.1361 58.1185 25.1696C58.635 26.154 59.3647 27.2105 60.191 28.2553Z" fill="#F2C79C"/>
<path d="M60.1909 28.2553C63.0096 31.8193 66.9558 35.2511 67.4313 35.2511C67.7912 35.2511 69.7809 33.3401 71.8476 31.3559C74.0793 29.2121 76.4009 26.9828 76.8546 26.9828C77.2914 26.9828 79.1636 29.0499 81.0357 31.117C82.908 33.1841 84.78 35.2511 85.217 35.2511C85.7741 35.2511 90.8254 31.9625 94.4111 28.3956C90.4665 22.0516 82.9745 17.9664 74.3223 19.5292C68.5403 20.5738 63.3657 23.8957 60.1909 28.2553Z" fill="#2BE1B7"/>
<path d="M25.7631 60.3509C27.201 55.6923 32.0513 51.6335 37.4936 50.6273C41.6551 49.858 45.166 51.2523 47.6826 53.8019C48.1503 52.0928 48.4888 50.0515 48.4491 48.3379C45.6244 45.0865 41.2921 43.1565 36.5458 44.034C28.6464 45.4944 23.8952 53.3546 25.5323 60.2039C25.6082 60.2535 25.6853 60.3024 25.7631 60.3509Z" fill="#2BE1B7"/>
<path d="M25.7631 60.3509C28.8238 62.2621 32.9963 63.0967 34.0957 62.4627C34.9468 61.9719 35.3408 59.4963 35.4334 56.9466C35.5039 55.0089 35.5669 53.2741 35.9442 52.9543C36.3611 52.6009 38.3835 53.7508 40.5266 54.9694C42.8753 56.3046 45.5283 57.4693 46.2137 57.0821C46.7035 56.8053 47.1861 55.6173 47.6826 53.8019C45.166 51.2522 41.6549 49.8579 37.4934 50.6272C32.0513 51.6334 27.201 55.6922 25.7631 60.3509Z" fill="#2BE1B7"/>
<path fill-rule="evenodd" clip-rule="evenodd" d="M103.712 51.5411C103.899 52.8985 107.83 60.1796 108.891 60.4264C109.466 60.5602 111.431 59.1738 113.231 57.904C114.755 56.8288 116.161 55.8372 116.505 55.922C116.818 55.9994 117.415 56.9289 118.112 58.016C119.084 59.529 120.251 61.3473 121.123 61.5988C122.252 61.9242 126.748 59.5863 128.948 58.0184C129.288 50.2801 122.018 42.4774 113.267 44.041C108.697 44.8572 105.374 47.7364 103.678 51.3544C103.691 51.4115 103.702 51.4734 103.712 51.5411Z" fill="#2BE1B7"/>
<path d="M130.813 155.368C130.47 155.544 129.403 156.039 128.442 156.467C124.733 158.116 124.088 158.515 124.584 158.85C127.197 160.619 127.876 166.188 126.026 170.683C125.566 171.798 125.635 171.792 126.787 170.602C130.495 166.763 132.889 159.281 131.68 155.311C131.576 154.971 131.581 154.971 130.813 155.368Z" fill="#F1F1F1"/>
<path d="M22.4833 155.311C21.2737 159.282 23.6685 166.763 27.3766 170.602C28.5281 171.792 28.5973 171.799 28.1371 170.683C26.2882 166.19 26.9661 160.619 29.577 158.852C30.0599 158.523 29.1782 157.975 25.784 156.492C24.9946 156.146 23.971 155.677 23.5093 155.449C22.5128 154.955 22.5886 154.967 22.4833 155.311Z" fill="#F1F1F1"/>
<path d="M122.686 166.618C122.686 166.21 122.323 165.877 121.875 165.877C121.427 165.877 121.063 166.21 121.063 166.618C121.063 167.028 121.427 167.358 121.875 167.358C122.323 167.358 122.686 167.028 122.686 166.618Z" fill="#F1F1F1"/>
<path opacity="0.2" fill-rule="evenodd" clip-rule="evenodd" d="M95.8827 38.4961C88.9386 46.1432 75.1368 50.3514 59.3662 40.613C67.1645 53.58 89.6872 52.8744 95.8827 38.4961ZM48.435 65.807C41.1257 68.8301 31.2018 65.7352 26.3539 62.4393C26.6944 63.158 27.1166 63.8541 27.6245 64.5185C33.2894 71.9241 42.9458 72.1544 48.435 65.807ZM127.669 62.7362C123.466 66.6436 114.957 69.4213 105.019 65.0159C105.501 65.6578 106.051 66.2727 106.673 66.8527C112.477 72.2654 121.417 71.2149 126.539 64.5185C126.98 63.942 127.355 63.3462 127.669 62.7362Z" fill="#22110C"/>
<path d="M57.1742 34.957C58.6282 27.5188 65.8138 21.0644 74.3115 19.5295C85.6842 17.4752 95.0519 25.1787 96.9949 34.944C99.503 22.3886 87.2177 10.4335 73.3637 12.936C62.4087 14.915 55.2094 25.0441 57.1742 34.957Z" fill="#2430F0"/>
<path fill-rule="evenodd" clip-rule="evenodd" d="M60.191 28.2553C63.3657 23.8957 68.5404 20.5738 74.3223 19.5295C82.9745 17.9664 90.4664 22.0516 94.4111 28.3956C95.163 27.6475 95.8507 26.8872 96.4188 26.1421C93.4844 17.4547 83.8807 11.0384 73.3745 12.936C66.1159 14.2472 60.5062 19.1361 58.1185 25.1694C58.635 26.154 59.3647 27.2105 60.191 28.2553Z" fill="#2BE1B7"/>
<g opacity="0.2">
<g style="mix-blend-mode:hard-light">
<path fill-rule="evenodd" clip-rule="evenodd" d="M82.086 85.8943C81.1734 83.7866 78.8986 82.6579 75.7237 83.2179C73.8488 83.5489 72.5766 84.5463 71.982 85.995C73.2331 84.9736 75.4469 84.6397 77.0986 84.6051C78.6947 84.6386 80.8158 84.9515 82.086 85.8943ZM68.1864 87.2282C66.64 87.4629 63.8158 88.2066 62.5885 89.9182C62.9977 88.3891 64.0251 87.252 65.5928 86.8339C67.1621 86.4154 67.8807 86.4635 68.1864 87.2282ZM59.7519 91.9772C59.7404 91.8363 59.7341 91.7006 59.7332 91.5712C59.7323 91.4101 57.4532 91.4875 56.7372 91.6726C54.2865 92.3068 52.6361 94.1064 52.0301 96.2512C53.6692 93.9598 56.7211 92.049 59.7519 91.9772ZM42.8054 104.462C43.5298 102.026 46.2289 99.4845 48.4231 99.4845C48.7334 99.4845 49.0038 99.4675 49.2387 99.4374C49.218 99.3056 49.2003 99.172 49.1851 99.0372C49.1803 98.992 49.1757 98.949 49.171 98.9084C49.1323 98.5486 49.112 98.3633 49.0082 98.28C48.8976 98.1914 48.6922 98.2187 48.2682 98.2747C48.223 98.2808 48.1754 98.2872 48.1254 98.2936C44.8137 98.7238 42.9542 101.449 42.8054 104.462ZM75.7124 98.8208C74.4396 97.8434 72.5561 97.4571 69.9114 99.6447C70.3579 98.7174 71.1365 97.9699 72.2423 97.4608C73.1119 97.0606 74.0368 97.0483 74.5372 97.4302C74.9361 97.7345 75.3565 98.2416 75.7124 98.8208ZM83.8979 99.3377C82.7559 97.2555 80.5707 96.1679 79.1061 97.893C78.8926 98.1446 78.6575 98.4889 78.4411 98.8547C79.652 97.9018 81.4262 97.4745 83.8979 99.3377ZM67.1442 100.573C67.1634 99.9947 67.0999 99.9841 66.731 99.9228C66.486 99.8823 66.201 99.8333 66.0981 99.8144C65.9952 99.7954 65.5796 99.8272 65.1748 99.8847C63.2465 100.159 62.0724 101.836 61.7698 103.979C62.5332 101.527 65.4108 100.383 67.1442 100.573ZM94.574 105.299C95.1736 103.806 98.8097 105.291 100.033 107.682C100.373 108.347 100.606 109.009 100.732 109.669C99.7952 107.065 96.8444 105.871 94.574 105.299ZM82.8198 115.028C82.8218 114.998 82.8229 114.969 82.8229 114.943C82.8229 114.535 86.6801 114.383 87.9036 114.742C88.4834 114.912 88.9093 115.236 89.1788 115.659C88.0082 114.638 85.4614 114.827 82.8198 115.028ZM73.9548 110.807C74.6644 109.762 75.7332 109.126 77.0816 109.126C78.4045 109.126 79.4583 109.738 80.1679 110.748C79.2842 110.066 78.0735 109.716 77.0986 109.626C76.0959 109.719 74.8442 110.086 73.9548 110.807ZM64.9412 115.73C65.2076 115.272 65.6479 114.921 66.2594 114.742C67.4832 114.383 71.3403 114.535 71.3403 114.943C71.3403 114.969 71.3412 114.997 71.3432 115.026C68.6544 114.821 66.0695 114.634 64.9412 115.73ZM59.6155 105.301C57.2939 105.887 54.2651 107.123 53.4035 109.85C53.5425 107.548 54.8279 105.614 57.2119 104.979C57.8369 104.813 58.8739 104.764 59.3125 104.881C59.478 104.925 59.5573 105.021 59.6155 105.301ZM91.6075 89.9171C91.08 88.0297 89.544 86.7859 87.194 86.6902L85.8561 86.6358L85.833 87.2026C87.3304 87.4053 90.3314 88.1385 91.6075 89.9171ZM102.095 96.1521C101.66 94.5019 100.649 93.0792 99.1343 92.346C97.6358 91.6208 94.4325 91.0932 94.4298 91.5712C94.4292 91.7006 94.423 91.8359 94.4113 91.9765C97.4095 92.034 100.433 93.8966 102.095 96.1521ZM111.401 104.495C110.692 102.049 107.978 99.4845 105.774 99.4845C105.441 99.4845 105.154 99.4649 104.908 99.4305C104.912 99.4023 104.916 99.3737 104.921 99.345C104.994 98.8534 105.073 98.3906 105.097 98.3166C105.171 98.0905 106.771 98.3661 107.598 98.7474C110.003 99.8563 111.275 102.097 111.401 104.495ZM92.3546 103.766C92.1902 102.492 91.7343 101.401 90.9731 100.738C90.3051 100.157 88.6493 99.6434 88.0025 99.8168C87.934 99.8351 87.6772 99.8832 87.4322 99.9235C87.0626 99.9843 86.9996 99.9947 87.019 100.577C88.6982 100.374 91.4901 101.446 92.3546 103.766Z" fill="white"/>
</g>
</g>
<g style="mix-blend-mode:hard-light">
<path fill-rule="evenodd" clip-rule="evenodd" d="M134.176 136.592C129.258 136.227 123.523 137.839 119.378 140.395C113.575 143.974 104.651 153.476 102.779 162.669C102.261 165.212 101.872 166.045 101.585 165.862C104.444 148.736 114.51 136.864 127.568 135.489C130.513 135.179 132.723 135.623 134.176 136.592Z" fill="white" fill-opacity="0.4"/>
</g>
<g style="mix-blend-mode:hard-light">
<path fill-rule="evenodd" clip-rule="evenodd" d="M19.7324 136.71C24.7778 136.158 30.8162 137.796 35.1306 140.457C40.9343 144.035 49.8582 153.538 51.7304 162.73C52.0242 164.174 52.2761 165.064 52.4916 165.534C50.6781 155.178 46.0076 146.025 39.7775 141.067C34.7991 137.106 27.6428 134.771 22.807 135.53C21.5291 135.731 20.5061 136.138 19.7324 136.71Z" fill="white" fill-opacity="0.4"/>
</g>
<g style="mix-blend-mode:hard-light">
<path fill-rule="evenodd" clip-rule="evenodd" d="M64.7752 173.357C68.8562 168.919 74.0852 168.161 76.8804 168.161C79.7838 168.161 85.5392 169.088 89.6943 173.965C85.7271 165.963 80.7512 162.028 75.6044 162.94C71.6536 163.639 67.9122 167.261 64.7752 173.357Z" fill="white" fill-opacity="0.4"/>
</g>
<path opacity="0.2" fill-rule="evenodd" clip-rule="evenodd" d="M131.997 157.701C130.13 158.497 128.041 159.306 125.784 160.114C125.446 159.592 125.046 159.162 124.585 158.85C124.089 158.515 124.733 158.116 128.442 156.467C129.403 156.039 130.47 155.544 130.813 155.368L130.826 155.36C131.303 155.115 131.476 155.025 131.566 155.078C131.617 155.107 131.641 155.184 131.679 155.306L131.68 155.311C131.893 156.012 131.994 156.822 131.997 157.701ZM22.1697 157.499C24.0556 158.343 26.159 159.198 28.4211 160.053C28.7493 159.559 29.1356 159.149 29.5774 158.852C30.0603 158.523 29.1783 157.975 25.7844 156.492C24.995 156.146 23.9714 155.677 23.5098 155.449C23.4454 155.417 23.3859 155.387 23.3301 155.36C22.8277 155.111 22.6609 155.027 22.5831 155.079C22.5441 155.103 22.5276 155.161 22.5022 155.249C22.4967 155.268 22.4908 155.289 22.4837 155.311C22.2869 155.957 22.1853 156.699 22.1697 157.499Z" fill="#22110C"/>
<path opacity="0.2" fill-rule="evenodd" clip-rule="evenodd" d="M49.1569 188.273C48.7587 192.509 50.2268 197.243 50.9045 199.429C51.0199 199.801 51.1123 200.099 51.1687 200.308C51.6524 202.102 46.3968 204.938 27.1188 196.251C34.2365 201.608 42.9451 205.403 51.0583 206.112C57.869 206.707 59.4152 206.606 58.7637 205.603C57.6954 203.962 54.0335 197.298 51.8939 193.104C51.3397 192.018 50.4798 190.493 49.9829 189.71C49.666 189.214 49.3905 188.734 49.1569 188.273Z" fill="#22110C"/>
<path opacity="0.2" fill-rule="evenodd" clip-rule="evenodd" d="M127.163 196.211C107.816 204.944 102.544 202.104 103.028 200.308C103.085 200.098 103.177 199.801 103.293 199.428C103.973 197.234 105.451 192.465 105.035 188.218C104.795 188.694 104.51 189.192 104.18 189.71C103.683 190.492 102.823 192.017 102.269 193.104C100.13 197.298 96.4678 203.962 95.3997 205.603C95.1619 205.969 94.9862 206.196 95.0416 206.328C95.139 206.56 95.9508 206.5 98.396 206.386C106.395 206.018 109.722 205.288 116.21 202.476C120.295 200.707 123.959 198.591 127.163 196.211Z" fill="#22110C"/>
<path opacity="0.2" fill-rule="evenodd" clip-rule="evenodd" d="M58.5771 197.406C62.7948 204.149 64.504 206.577 66.8097 209.171C75.2446 218.669 82.454 217.111 91.3975 203.86C93.0728 201.381 93.3533 200.949 95.9376 196.797C95.4631 197.613 94.9814 198.457 94.4946 199.323C91.8078 204.1 91.6095 204.442 90.0195 207.049C81.9449 220.289 75.4359 221.845 67.8205 212.356C65.6126 209.605 64.0103 207.045 59.6684 199.323C59.3012 198.671 58.9372 198.031 58.5771 197.406Z" fill="#22110C"/>
<path d="M77.0049 151.069C75.4447 151.069 73.4477 162.052 72.5741 162.052L70.7642 163.717L77.0049 162.052L84.1815 164.149C83.4117 163.451 81.76 162.052 81.3109 162.052C80.7492 162.052 78.5649 151.069 77.0049 151.069Z" fill="black" fill-opacity="0.2"/>
<path d="M66.6453 121.575C65.7718 121.575 62.8386 119.539 62.8386 116.515C63.2547 115.754 64.0868 114.565 64.0868 115.898C64.0868 117.564 65.9589 119.724 66.4582 120.217C66.9573 120.711 67.5191 121.575 66.6453 121.575Z" fill="black" fill-opacity="0.2"/>
<path d="M49.9207 116.515C46.3635 116.515 41.7456 111.887 39.374 108.74L40.8095 107.506L44.0545 112.134L51.4184 114.294L52.8539 111.949C53.2073 112.484 54.0395 113.775 54.5388 114.664C55.1629 115.775 56.7853 116.638 58.0958 118.49C59.4064 120.341 54.4139 118.058 53.7898 117.749C53.2906 117.502 52.2088 116.741 51.7304 116.392C51.7304 116.433 51.3686 116.515 49.9207 116.515Z" fill="black" fill-opacity="0.2"/>
<path d="M61.0913 110.9C59.656 109.11 60.1554 107.013 59.9057 105.223L63.9621 112.504L63.65 113.06L63.6419 113.055C63.2408 112.847 62.2317 112.322 61.0913 110.9Z" fill="black" fill-opacity="0.2"/>
<path d="M73.8847 120.464C72.5741 120.155 71.3883 117.132 71.3883 114.849L72.6365 114.293L73.4477 117.502C73.6973 118.49 75.195 120.772 73.8847 120.464Z" fill="black" fill-opacity="0.2"/>
<path d="M87.4267 121.575C88.3002 121.575 91.2333 119.539 91.2333 116.515C90.8173 115.754 89.9852 114.565 89.9852 115.898C89.9852 117.564 88.1131 119.724 87.6138 120.217C87.1146 120.711 86.5529 121.575 87.4267 121.575Z" fill="black" fill-opacity="0.2"/>
<path d="M104.151 116.515C107.708 116.515 112.326 111.887 114.698 108.74L113.263 107.506L110.017 112.134L102.654 114.294L101.218 111.949C100.865 112.484 100.032 113.775 99.5333 114.664C98.9092 115.775 97.2867 116.638 95.9761 118.49C94.6658 120.341 99.6581 118.058 100.282 117.749C100.782 117.502 101.863 116.741 102.341 116.392C102.341 116.433 102.704 116.515 104.151 116.515Z" fill="black" fill-opacity="0.2"/>
<path d="M92.9807 110.9C94.4159 109.11 93.9168 107.013 94.1665 105.223L90.1101 112.504L90.4222 113.06L90.4303 113.055C90.8312 112.847 91.8402 112.322 92.9807 110.9Z" fill="black" fill-opacity="0.2"/>
<path d="M80.1251 120.526C81.4357 120.217 82.6836 117.132 82.6836 114.849L81.4357 114.293L80.6243 117.502C80.3746 118.489 78.8146 120.834 80.1251 120.526Z" fill="black" fill-opacity="0.2"/>
<path opacity="0.2" d="M62.2392 186.61C61.8024 186.61 63.1753 185.931 62.7383 184.759C63.7785 184.327 65.4094 184.772 66.6076 185.808C68.1054 187.104 68.1055 190.312 68.0431 191.67C67.9805 193.027 62.6762 186.61 62.2392 186.61Z" fill="#22110C"/>
<path opacity="0.2" d="M91.8387 186.651C92.2755 186.651 90.9028 185.973 91.3396 184.8C90.2994 184.368 88.6685 184.814 87.4703 185.849C85.9727 187.145 85.9727 190.354 86.035 191.711C86.0974 193.069 91.4019 186.651 91.8387 186.651Z" fill="#22110C"/>
<path opacity="0.2" fill-rule="evenodd" clip-rule="evenodd" d="M35.1896 155.297C42.7858 159.79 50.1704 164.158 50.1704 169.579C50.1704 169.753 50.1673 169.927 50.1618 170.097C47.6923 164.982 42.3367 161.044 31.9985 155.777C27.7083 153.592 27.6596 153.562 24.9766 151.428C18.3952 146.196 16.2667 140.175 19.1229 137.219C17.2012 144.657 26.3389 150.062 35.1896 155.297Z" fill="#22110C"/>
<path opacity="0.2" fill-rule="evenodd" clip-rule="evenodd" d="M19.2423 137.006L19.1833 137.234C18.2308 140.92 20.0152 144.11 23.1594 147.04C26.3041 149.97 30.7944 152.625 35.2216 155.244L35.2247 155.247C39.0204 157.492 42.7691 159.709 45.5687 162.045C48.3674 164.379 50.2328 166.84 50.2328 169.579C50.2328 169.756 50.2299 169.928 50.2242 170.097L50.1054 170.122C47.6459 165.031 42.3085 161.1 31.97 155.832C29.8258 154.74 28.7383 154.184 27.8518 153.635C26.9643 153.086 26.2783 152.543 24.9374 151.477C21.6408 148.855 19.4554 146.034 18.4525 143.492C17.4498 140.951 17.6264 138.678 19.0777 137.176L19.2423 137.006ZM18.5687 143.448C19.5614 145.964 21.7308 148.769 25.0156 151.38C26.3579 152.448 27.0379 152.986 27.9181 153.531C28.7991 154.077 29.8809 154.63 32.0271 155.723C42.2113 160.91 47.578 164.819 50.1056 169.842C50.1072 169.754 50.1078 169.668 50.1078 169.579C50.1078 166.9 48.281 164.467 45.4882 162.138C42.6972 159.81 38.9569 157.598 35.1575 155.35L35.1531 155.348C30.7311 152.732 26.2292 150.07 23.0737 147.129C19.9834 144.25 18.1707 141.092 19.0048 137.44C17.75 138.894 17.6156 141.031 18.5687 143.448Z" fill="#22110C"/>
<path opacity="0.2" fill-rule="evenodd" clip-rule="evenodd" d="M119.07 155.297C111.473 159.791 104.089 164.159 104.089 169.58C104.089 169.657 104.09 169.734 104.091 169.809C106.62 164.835 111.966 160.946 122.113 155.778C126.403 153.592 126.451 153.562 129.135 151.429C135.714 146.197 137.64 140.558 135.217 137.558C136.78 144.823 127.785 150.143 119.07 155.297Z" fill="#22110C"/>
<path opacity="0.2" fill-rule="evenodd" clip-rule="evenodd" d="M135.609 143.68C134.603 146.131 132.469 148.857 129.174 151.477C127.833 152.543 127.147 153.086 126.259 153.637C125.373 154.184 124.285 154.74 122.141 155.833C111.994 161.001 106.666 164.884 104.146 169.838L104.028 169.811C104.027 169.734 104.026 169.657 104.026 169.58C104.026 166.84 105.892 164.379 108.69 162.045C111.49 159.709 115.239 157.492 119.034 155.247L119.038 155.245C123.397 152.666 127.818 150.05 130.955 147.174C134.093 144.297 135.93 141.171 135.156 137.571L135.266 137.52C136.496 139.042 136.615 141.229 135.609 143.68ZM135.331 137.811C136.37 139.276 136.443 141.322 135.494 143.633C134.498 146.059 132.38 148.769 129.095 151.381C127.753 152.448 127.073 152.986 126.193 153.532C125.312 154.077 124.23 154.63 122.084 155.723C112.091 160.813 106.737 164.67 104.151 169.558C104.162 166.885 105.986 164.46 108.771 162.138C111.562 159.811 115.302 157.598 119.102 155.351L119.106 155.348C123.461 152.773 127.893 150.151 131.04 147.264C134.112 144.446 135.974 141.362 135.331 137.811Z" fill="#22110C"/>
<g style="mix-blend-mode:multiply">
<path fill-rule="evenodd" clip-rule="evenodd" d="M16.3365 153.303C16.2611 159.418 16.4963 185.808 47.8616 185.808C47.9899 185.808 48.1174 185.808 48.2442 185.808C47.9418 184.183 48.3422 182.83 49.4403 181.671C50.5525 180.494 49.854 174.932 48.1714 171.569C47.7261 170.677 47.5357 170.269 47.3331 170.263C47.1577 170.258 46.9731 170.556 46.6053 171.107C37.4996 184.734 18.9217 174.306 19.2981 155.779C19.3556 152.951 19.3556 152.951 18.5675 152.326C17.9933 151.872 17.8194 151.714 17.6911 151.743C17.6138 151.762 17.553 151.848 17.4313 151.979C17.0481 152.392 16.6832 152.834 16.3365 153.303Z" fill="black" fill-opacity="0.2"/>
</g>
<path opacity="0.2" fill-rule="evenodd" clip-rule="evenodd" d="M137.978 153.828C138.025 160.613 137.17 185.931 106.448 185.931C106.244 185.931 106.043 185.931 105.843 185.929C106.189 184.252 105.797 182.861 104.671 181.671C103.559 180.494 104.257 174.932 105.94 171.569C106.385 170.677 106.576 170.269 106.778 170.263C106.954 170.258 107.138 170.556 107.506 171.107C116.612 184.734 135.19 174.306 134.814 155.778C134.773 153.768 134.76 153.187 135.031 152.798C135.141 152.639 135.297 152.513 135.518 152.334C135.93 152 136.152 151.79 136.364 151.799C136.675 151.812 136.964 152.297 137.8 153.558C137.86 153.649 137.919 153.739 137.978 153.828Z" fill="#22110C"/>
<path opacity="0.2" fill-rule="evenodd" clip-rule="evenodd" d="M71.6246 87.2567C71.4364 88.6607 71.7378 90.3406 72.5737 92.1701C73.1993 93.5401 73.1993 93.5401 74.1595 93.55C75.022 93.5588 75.2181 93.6095 76.0875 94.0487C77.0551 94.5375 77.0551 94.5375 78.023 94.0487C78.8924 93.6095 79.0885 93.5588 79.951 93.55C80.9112 93.5401 80.9112 93.5401 81.5364 92.1701C82.3716 90.3395 82.6422 88.6512 82.435 87.2388C82.0205 89.5236 81.0657 92.5099 78.9241 92.7591C77.997 92.9519 77.352 92.9641 77.1292 92.9453L77.1144 92.944H76.9419H76.9271C76.7043 92.9627 76.0593 92.9519 75.1322 92.7591C72.9964 92.5105 72.0408 89.5391 71.6246 87.2567ZM84.1378 94.1188C85.2084 92.4687 85.6555 90.8919 85.7571 88.4097L85.8107 87.106C86.221 89.3414 86.1115 92.4718 84.2344 95.1294C83.7478 94.72 83.7711 94.6843 84.1378 94.1188ZM91.7642 92.0165C91.6776 93.1573 91.3182 94.4189 90.6608 95.7365C90.5903 95.8778 90.5268 96.0065 90.4691 96.1233C90.1163 96.8384 89.9779 97.1187 89.7652 97.1936C89.6282 97.2421 89.46 97.2049 89.1832 97.1438C89.1134 97.1282 89.0362 97.1112 88.951 97.0936C88.2843 96.9563 87.9165 96.9417 87.4595 97.035C87.3396 97.0592 87.2307 97.0821 87.1311 97.1028C87.1098 97.1072 87.089 97.1114 87.0686 97.1158C87.1501 96.8712 87.7865 96.6718 88.4351 96.4684C89.0453 96.2773 89.6661 96.0827 89.8452 95.8441C90.7344 94.6592 91.4134 93.4643 91.7642 92.0165ZM94.4036 91.5715C94.3943 93.2721 93.409 96.0583 92.3012 97.516C91.8279 98.1388 91.7959 98.1811 92.3973 98.8222C93.6724 96.9997 95.0003 93.4112 94.4981 91.4561C94.4371 91.4847 94.4038 91.5228 94.4036 91.5715ZM102.279 97.3464C102.116 98.3903 101.533 100.588 100.641 101.521C99.5805 102.632 99.1437 102.755 98.27 102.385C97.7503 102.165 96.9918 102.272 96.44 102.417C97.4421 102.455 98.3475 102.72 99.1799 103.218L99.2063 103.233L99.2535 103.262C99.5565 103.443 99.7242 103.544 99.8774 103.525C100.068 103.502 100.236 103.295 100.612 102.831L100.649 102.785L100.686 102.74C101.95 101.183 102.452 99.1968 102.279 97.3464ZM111.335 104.026C111.115 105.749 110.486 108.812 108.068 110.838C105.792 112.745 104.074 112.874 103.699 110.159C103.663 109.897 103.612 109.758 103.552 109.718C103.665 110.675 103.618 111.642 103.391 112.52C103.253 113.051 103.141 113.5 103.141 113.519C103.141 113.824 106.535 112.416 107.724 111.618C110.456 109.783 111.654 106.758 111.335 104.026ZM104.884 99.4141C104.588 101.326 103.892 102.687 102.447 104.182C101.518 105.143 101.518 105.143 101.909 105.623C101.951 105.674 101.992 105.727 102.033 105.78C103.277 104.53 104.662 102.143 104.884 99.4141ZM92.3931 105.201C92.1622 106.507 91.7818 107.936 91.2181 108.617C90.0949 109.974 88.597 110.344 87.4115 110.159C86.8154 110.067 85.8268 110.326 84.9629 110.628C86.7157 110.555 88.0468 110.897 89.2026 111.685C89.4856 111.878 89.7143 111.962 89.7641 111.89C89.8104 111.823 90.0832 111.465 90.3704 111.095C91.6397 109.457 92.3286 107.228 92.3931 105.201ZM82.3187 110.024C84.1154 109.088 86.9954 106.581 86.9601 102.593C86.6117 105.471 84.8981 108.021 82.2041 109.56C82.1717 109.579 82.2297 109.782 82.3187 110.024ZM84.5956 102.861C84.0409 104.478 82.8072 107.022 80.8587 106.334C79.1114 105.717 78.0506 105.593 77.1768 105.593C77.1208 105.593 77.0717 105.599 77.0283 105.608C76.9848 105.599 76.9355 105.593 76.8795 105.593C76.0057 105.593 74.9449 105.717 73.1976 106.334C71.4392 106.955 70.2631 104.944 69.6425 103.357C69.9317 104.551 70.5258 105.847 71.4289 107.196C71.9946 108.041 72.2037 108.353 72.3685 108.332C72.4653 108.319 72.5466 108.192 72.6759 107.991C74.5352 105.092 79.5753 105.092 81.4346 107.991C81.9403 108.779 83.9765 105.773 84.4937 103.474C84.5398 103.27 84.5733 103.065 84.5956 102.861ZM61.6658 105.215C61.6874 107.156 62.3549 109.308 63.7401 111.095C64.0273 111.465 64.3001 111.823 64.3464 111.89C64.3962 111.962 64.6249 111.878 64.9079 111.685C66.0503 110.906 67.3639 110.563 69.0868 110.626C68.2242 110.324 67.2394 110.067 66.6451 110.159C65.4592 110.344 63.9616 109.974 62.8382 108.617C62.2767 107.938 61.897 106.517 61.6658 105.215ZM67.1103 102.182C66.8626 106.444 69.9297 109.099 71.783 110.048C71.8771 109.795 71.9399 109.58 71.9064 109.56C69.0848 107.948 67.3386 105.227 67.1103 102.182ZM61.6821 98.8548C62.3157 98.1824 62.2906 98.1494 61.8093 97.516C60.7015 96.0583 59.7162 93.2721 59.7069 91.5715C59.7067 91.5455 59.6472 91.5257 59.5445 91.5116C59.0782 93.4903 60.4121 97.0601 61.6821 98.8548ZM51.7842 97.3909C51.5938 99.1834 52.0991 101.107 53.4246 102.74C53.4502 102.771 53.4748 102.802 53.4986 102.831C53.8748 103.295 54.0425 103.502 54.2331 103.525C54.3863 103.544 54.554 103.443 54.857 103.262C54.8806 103.248 54.9053 103.233 54.9306 103.218C55.75 102.728 56.6402 102.463 57.6235 102.419C57.0713 102.273 56.3084 102.164 55.7865 102.385C54.9128 102.755 54.476 102.632 53.4151 101.521C52.5359 100.601 51.9567 98.4513 51.7842 97.3909ZM62.4281 92.5123C62.5612 93.5361 62.8972 94.6294 63.4497 95.7365C63.5202 95.8778 63.5837 96.0063 63.6414 96.1233C63.9942 96.8382 64.1326 97.1187 64.3453 97.1936C64.4824 97.2421 64.6505 97.2049 64.9273 97.1438C64.9971 97.1282 65.0743 97.1112 65.1595 97.0936C65.8262 96.9563 66.194 96.9417 66.651 97.035C66.7707 97.0592 66.8798 97.0821 66.9794 97.1028C66.9807 97.1031 66.982 97.1033 66.9833 97.1037C66.8851 96.8644 66.259 96.6683 65.6212 96.4684C65.0112 96.2773 64.3905 96.0827 64.2113 95.8441C63.4257 94.7971 62.804 93.7424 62.4281 92.5123ZM68.2035 87.3508C68.2908 87.6267 68.3357 87.9815 68.3538 88.4247C68.4547 90.8908 68.9045 92.4722 69.9727 94.1188C70.3477 94.697 70.3634 94.7213 69.8422 95.1579C68.0136 92.5897 67.8443 89.5743 68.2035 87.3508ZM50.5598 109.707C50.4756 109.687 50.4038 109.82 50.3571 110.159C49.9826 112.874 48.2646 112.745 45.9887 110.838C43.7561 108.968 43.0489 106.214 42.7798 104.446C42.6459 107.052 43.7924 109.876 46.3862 111.618C47.5755 112.416 50.9697 113.824 50.9697 113.519C50.9697 113.5 50.8573 113.051 50.72 112.52C50.4919 111.638 50.4456 110.668 50.5598 109.707ZM52.0543 105.81C52.1019 105.747 52.1504 105.685 52.1998 105.625C52.5898 105.146 52.5898 105.146 51.611 104.124C50.1605 102.609 49.3751 100.98 49.1589 99.0375C49.154 98.9952 49.1499 98.955 49.1457 98.9167C49.2268 101.874 50.7279 104.495 52.0543 105.81Z" fill="#22110C"/>
<path d="M123.185 164.15C123.185 162.651 124.442 161.435 125.993 161.435C127.544 161.435 128.802 162.651 128.802 164.15C128.802 165.65 127.544 166.865 125.993 166.865C124.442 166.865 123.185 165.65 123.185 164.15Z" fill="#F1F1F1"/>
<path d="M25.2082 164.15C25.2082 162.651 26.4654 161.435 28.0164 161.435C29.5673 161.435 30.8245 162.651 30.8245 164.15C30.8245 165.65 29.5673 166.865 28.0164 166.865C26.4654 166.865 25.2082 165.65 25.2082 164.15Z" fill="#F1F1F1"/>
<path d="M32.6968 166.618C32.6968 166.21 32.3336 165.877 31.8854 165.877C31.4374 165.877 31.0742 166.21 31.0742 166.618C31.0742 167.028 31.4374 167.358 31.8854 167.358C32.3336 167.358 32.6968 167.028 32.6968 166.618Z" fill="#F1F1F1"/>
<path d="M813.522 166.364L816.613 181.303C814.467 182.764 811.375 184.093 807.34 185.296C803.391 186.411 799.442 186.969 795.491 186.969C787.851 186.969 781.497 184.567 776.431 179.758C771.453 174.95 768.963 167.737 768.963 158.122V131.979H756.342V114.593H768.963V99.2676L787.379 95.2754V114.593H813.649V131.979H787.379V157.091C787.379 165.591 791.156 169.841 798.71 169.841C802.06 169.841 806.996 168.682 813.522 166.364Z" fill="white"/>
<path d="M717.343 186.969C707.814 186.969 699.872 184.78 693.519 180.402C687.166 175.937 683.344 169.841 682.057 162.115H700.729C702.276 168.469 707.986 171.644 717.859 171.644C725.843 171.644 729.836 169.714 729.836 165.848C729.836 165.335 729.75 164.861 729.578 164.434C729.492 164.004 729.278 163.616 728.935 163.274C728.677 162.931 728.377 162.629 728.033 162.371C727.689 162.029 727.174 161.727 726.486 161.47C725.887 161.214 725.327 160.998 724.814 160.826C724.298 160.654 723.524 160.44 722.495 160.183C721.55 159.925 720.693 159.711 719.919 159.539C719.232 159.367 718.244 159.151 716.957 158.896C715.668 158.638 714.553 158.38 713.608 158.122C703.048 155.632 695.665 152.928 691.458 150.009C687.337 147.004 685.277 142.539 685.277 136.615C685.277 129.231 688.067 123.479 693.647 119.358C699.315 115.151 706.869 113.047 716.314 113.047C725.757 113.047 733.097 115.108 738.336 119.229C743.572 123.264 746.835 128.759 748.122 135.714H729.45C727.903 130.906 723.311 128.502 715.668 128.502C707.77 128.502 703.821 130.476 703.821 134.426C703.821 135.971 704.636 137.087 706.267 137.774C707.9 138.461 711.591 139.448 717.343 140.736C723.097 142.024 727.645 143.226 730.995 144.342C734.342 145.372 737.52 146.746 740.524 148.463C743.53 150.18 745.676 152.241 746.963 154.645C748.252 157.049 748.896 159.969 748.896 163.402C748.896 171.042 745.934 176.882 740.01 180.917C734.085 184.952 726.53 186.969 717.343 186.969Z" fill="white"/>
<path d="M635.912 113.047C647.503 113.047 656.646 117.04 663.343 125.024C670.126 133.009 673.044 142.925 672.101 154.774H617.753C618.355 160.269 620.329 164.475 623.677 167.395C627.026 170.313 631.189 171.774 636.17 171.774C639.775 171.774 642.994 171.001 645.828 169.456C648.662 167.823 650.679 165.635 651.882 162.887H670.942C668.452 170.873 664.073 176.882 657.806 180.917C651.538 184.952 644.37 186.969 636.297 186.969C625.31 186.969 616.336 183.493 609.384 176.538C602.429 169.584 598.951 160.784 598.951 150.137C598.951 139.491 602.429 130.648 609.384 123.608C616.336 116.568 625.18 113.047 635.912 113.047ZM635.784 128.244C631.405 128.244 627.756 129.446 624.836 131.85C621.918 134.168 619.858 137.302 618.655 141.251H652.526C651.494 137.302 649.52 134.168 646.602 131.85C643.682 129.446 640.077 128.244 635.784 128.244Z" fill="white"/>
<path d="M579.779 100.813C571.451 100.813 567.288 105.321 567.288 114.336V114.593H590.855V131.979H567.288V185.424H548.872V131.979H536.251V114.593H548.872V113.434C548.872 103.99 551.662 96.8639 557.242 92.0561C562.824 87.1623 569.649 84.7153 577.719 84.7153C584.158 84.7153 589.74 85.7885 594.46 87.9349L591.113 102.874L588.667 102.23C585.403 101.286 582.441 100.813 579.779 100.813Z" fill="white"/>
<path d="M516.83 81.8818C520.18 81.8818 522.926 82.9121 525.072 84.9727C527.218 86.9473 528.292 89.523 528.292 92.6996C528.292 95.8765 527.218 98.4949 525.072 100.556C522.926 102.616 520.18 103.646 516.83 103.646C513.569 103.646 510.821 102.616 508.588 100.556C506.442 98.4949 505.369 95.8765 505.369 92.6996C505.369 89.6089 506.442 87.0332 508.588 84.9727C510.821 82.9121 513.569 81.8818 516.83 81.8818ZM507.557 185.424V114.593H525.973V185.424H507.557Z" fill="white"/>
<path d="M467.879 113.047C475.863 113.047 482.131 115.537 486.681 120.517C491.232 125.497 493.506 132.322 493.506 140.994V185.424H475.09V144.986C475.09 140.178 474.061 136.572 472 134.168C469.94 131.764 466.548 130.562 461.826 130.562C451.18 130.562 445.856 136.443 445.856 148.205V185.424H427.439V114.593H445.856V124.252C451.18 116.782 458.52 113.047 467.879 113.047Z" fill="white"/>
<path d="M394.348 114.593H412.765L412.637 185.424H394.221V175.895C388.811 183.277 381.428 186.969 372.069 186.969C362.71 186.969 354.984 183.535 348.888 176.666C342.793 169.714 339.745 160.826 339.745 150.009C339.745 139.191 342.793 130.348 348.888 123.479C355.07 116.525 362.754 113.047 371.941 113.047C381.384 113.047 388.855 116.868 394.348 124.509V114.593ZM376.19 169.456C381.428 169.456 385.763 167.653 389.198 164.046C392.632 160.44 394.348 155.761 394.348 150.009C394.348 144.256 392.632 139.577 389.198 135.971C385.763 132.365 381.428 130.562 376.19 130.562C370.954 130.562 366.661 132.365 363.311 135.971C359.964 139.577 358.289 144.256 358.289 150.009C358.289 155.761 359.964 160.44 363.311 164.046C366.747 167.653 371.04 169.456 376.19 169.456Z" fill="white"/>
<path d="M302.906 113.047C310.462 113.047 316.43 115.494 320.809 120.388C325.187 125.282 327.376 132.022 327.376 140.607V185.424H308.959V144.6C308.959 139.963 307.972 136.486 305.998 134.168C304.109 131.764 301.017 130.562 296.724 130.562C291.918 130.562 288.269 132.107 285.779 135.198C283.288 138.203 282.043 142.539 282.043 148.205V185.424H263.627V144.6C263.627 139.963 262.64 136.486 260.665 134.168C258.777 131.764 255.685 130.562 251.392 130.562C246.586 130.562 242.892 132.107 240.318 135.198C237.828 138.203 236.583 142.539 236.583 148.205L236.711 185.424H218.167V114.593H236.711V123.994C241.863 116.696 248.86 113.047 257.703 113.047C268.006 113.047 275.174 117.512 279.211 126.441C284.705 117.512 292.603 113.047 302.906 113.047Z" fill="white"/>
</svg>
