<svg xmlns="http://www.w3.org/2000/svg" width="817" height="227" fill="none" viewBox="0 0 817 227"><path fill="#22110c" fill-rule="evenodd" d="M74.15 6.76c-28.57 2.82-29.58 45.11-1.19 49.85 1.29.21 1.7.32 1.73.47.02.11-.09 2.24-.23 4.74s-.34 7.42-.42 10.92-.17 6.4-.2 6.42l-1.03.52a9 9 0 0 0-2.84 2.33c-.3.43-.3.43-2.12.49-2.87.1-4.62.8-6.2 2.49-.44.47-.85.8-.9.74s-1.71-2.5-3.68-5.42-4.2-6.2-4.97-7.3l-1.4-2 .82-.9c15.2-16.85-6.05-42.21-24.13-28.8C9.4 54.66 25.53 82.67 46.21 74c.09-.04 1.63 1.88 3.64 4.54a627 627 0 0 0 7.35 9.57c.21.32.28.27-.88.59-3.2.88-6.23 3.54-6.83 6.01-.08.33-.2.6-.29.6-5.42.14-9.57 4.17-9.62 9.34-.02 1.77-.02 1.77-.76 2.2-6.72 4-15.84 17.37-16.5 24.2-.09 1.01-.05.98-1.38 1.2-3 .52-4.75 1.6-6.6 4.09-2.34 3.14-2.56 5.85-.77 9.67.6 1.3.63 1.06-.36 2.47-10.54 14.84-8.35 32.26 5.83 46.3 9.28 9.18 22.3 14.77 36.89 15.85 5.57.41 6.2.62 7.64 2.51 9.44 12.43 17.58 12.43 27.02 0 1.44-1.89 2.07-2.1 7.65-2.51 21.81-1.61 40.06-13.57 46.9-30.73 4.36-10.94 2.98-21.32-4.19-31.43-.99-1.4-.96-1.17-.35-2.46 1.78-3.82 1.57-6.53-.77-9.67-1.85-2.49-3.6-3.57-6.6-4.09-1.34-.22-1.3-.19-1.4-1.2-.2-2.24-2.6-7.99-4.9-11.74-2.8-4.62-8.26-10.49-11.58-12.46-.74-.43-.74-.43-.76-2.2-.06-5.17-4.21-9.2-9.63-9.34-.08 0-.21-.27-.29-.6-.6-2.47-3.62-5.13-6.83-6.01-1.16-.32-1.09-.27-.88-.6a632 632 0 0 0 7.35-9.56c2.02-2.66 3.55-4.58 3.64-4.54 20.69 8.67 36.81-19.34 18.82-32.69-18.08-13.41-39.33 11.95-24.13 28.8l.81.9-1.39 2c-.76 1.1-3 4.38-4.97 7.3l-3.68 5.42c-.05.06-.45-.27-.9-.74-1.58-1.7-3.33-2.4-6.2-2.49-1.82-.06-1.82-.06-2.1-.48a9 9 0 0 0-3.96-2.81c-.64-.2-.64-.2-.63-7.7.01-4.12 0-9.1-.04-11.06l-.06-3.56 1.68-.28c31.93-5.34 25.19-53.02-7.05-49.85m-.79 6.18c-10.95 1.98-18.15 12.1-16.19 22.02q.22 1.07.57 2.14c5.73 16.98 32.95 16.98 38.68 0q.36-1.08.57-2.16c2.51-12.55-9.77-24.5-23.63-22m-36.78 31.1c-8.09 1.49-12.88 9.7-10.88 16.66a12 12 0 0 0 1.92 3.82c6.44 8.41 18.03 7.56 22.8-1.67q.63-1.22.97-2.46c2.41-8.76-5.38-18.1-14.81-16.36m76.65 0c-8.07 1.44-12.25 9.32-10.45 16.34a13.3 13.3 0 0 0 3.9 6.47c5.8 5.42 14.74 4.36 19.86-2.33q1.35-1.8 1.92-3.78c2.5-8.48-5.44-18.45-15.23-16.7m-37.5 39.18c-3.96.7-5.23 4.35-3.13 8.95.63 1.37.63 1.37 1.59 1.38.86 0 1.05.06 1.92.5.97.49.97.49 1.94 0a3.3 3.3 0 0 1 1.93-.5c.96-.01.96-.01 1.58-1.38 2.58-5.65-.22-9.94-5.84-8.95m-10.14 3.61c-3.23.87-4.17 4.8-2.11 8.9.85 1.71.68 1.58 1.7 1.36a3 3 0 0 1 1.5-.05c1.5.3 1.31.35 1.95-.53a9 9 0 0 1 1.17-1.3c.6-.49.6-.49.2-1.1-1.07-1.64-1.52-3.22-1.62-5.69-.08-1.85-.62-2.16-2.79-1.59m20.2 1.58c-.1 2.48-.56 4.06-1.63 5.7-.39.61-.39.61.2 1.1.33.28.86.86 1.17 1.3.64.88.46.83 1.96.53.45-.1.82-.08 1.49.05 1.03.22.86.35 1.7-1.35 2.4-4.81.84-8.87-3.49-9.05l-1.33-.05zm-29.05 3.26c-4.84 1.25-6.56 7.04-3.29 11.07.78.96.73.94 1.5.48a6 6 0 0 1 4.17-.71c.58.09.58.09.73-.49a8 8 0 0 1 1.75-3.05c.74-.79.74-.79.24-1.45a12 12 0 0 1-2.1-5.95c0-.16-2.29-.08-3 .1m37.69-.1c0 1.7-1 4.49-2.1 5.95-.51.66-.51.66.24 1.45.78.83 1.5 2.09 1.75 3.05.14.58.14.58.72.49a6 6 0 0 1 4.17.7c.78.47.72.49 1.5-.47 2.73-3.36 1.91-8.7-1.58-10.4-1.5-.72-4.7-1.25-4.7-.77m-22.19 5.9c-3.4 1.55-3.7 5.37-.78 9.73.9 1.34.9 1.34 1.24.8 1.86-2.9 6.9-2.9 8.76 0 .5.78 2.54-2.23 3.06-4.53.92-4.1-3.13-8.27-5.41-5.58a9 9 0 0 0-1.33 2.33q-.7 2.04-1.4 0a6.5 6.5 0 0 0-1.84-2.79c-.5-.38-1.43-.37-2.3.03m-24.11.82c-6.18.8-7.3 9.58-1.72 13.33 1.2.8 4.59 2.2 4.59 1.9l-.25-1a8.3 8.3 0 0 1 1.48-6.9c.39-.47.39-.47-.6-1.5a8.4 8.4 0 0 1-2.44-5.08c-.1-.92-.05-.88-1.06-.75m56.97.03c-.03.07-.1.53-.18 1.03a8 8 0 0 1-2.45 4.83c-.93.96-.93.96-.53 1.44a8.3 8.3 0 0 1 1.48 6.9l-.25 1c0 .3 3.4-1.1 4.58-1.9 4.95-3.33 4.86-10.56-.15-12.87-.83-.38-2.43-.66-2.5-.43m-39.93 1.57c-3.92.55-4.72 6.92-1.4 11.2.28.38.56.73.6.8.05.07.28-.01.56-.2 1.6-1.1 3.54-1.33 6.46-.8.1.02.63-1.28.54-1.33a9.2 9.2 0 0 1-4.8-8.55c.05-1.01.05-1.01-.4-1.09l-.63-.1c-.1-.02-.52 0-.93.07M88 99.82l-.57.1c-.44.08-.44.08-.4 1.1a9.2 9.2 0 0 1-4.8 8.54c-.08.05.45 1.35.54 1.33 2.92-.53 4.86-.3 6.46.8.28.19.51.27.56.2l.6-.8c2.45-3.14 2.74-8.47.58-10.35-.66-.58-2.32-1.1-2.97-.92m-30.79 5.16c-4.8 1.28-5.15 7.85-.62 12.06 3.28 3.04.08 2.33-3.49-.78-.96-.84-.96-.84-1.7-.76-3 .3-7.64-2.32-10.12-5.74-.57-.8-.57-.8-.93-.37-5.14 5.94-8.06 11.25-11.4 20.71-.82 2.35-.83 2.16.11 2.34 16 3 26.57 19.87 26.9 42.94.07 5.04-.06 4.74 1.71 4.08 1.08-.4 1.3-.7 2.19-3.04 4.04-10.65 7.45-14.88 13.16-16.32 1.18-.3 1.15-.28 1.25-.81.22-1.2 1.5-4.35 1.97-4.84 1.11-1.19 2.98 1.29 3.66 4.84.1.53.06.5 1.24.8 5.71 1.45 9.12 5.67 13.17 16.33.88 2.33 1.1 2.64 2.18 3.04 1.77.66 1.65.96 1.72-4.08.33-23.08 10.89-39.93 26.9-42.94.93-.18.92 0 .1-2.34-3.33-9.45-6.26-14.77-11.4-20.71-.36-.42-.36-.42-.93.37-2.47 3.42-7.1 6.05-10.12 5.74-.73-.08-.73-.08-1.7.77-3.57 3.1-6.76 3.81-3.49.77q4.91-4.56 2.46-9.36c-1.29-2.52-5.27-4.04-5.53-2.1-.4 3.1-1.64 5.49-3.51 6.76-.55.37-.55.37-.08 1.2 1.07 1.91.54 4.4-1.33 6.26-1.58 1.58-2.86 1.69-1.4.12 1.9-2.06 1.77-4.58-.28-5.18-1.22-.36-5.08-.2-5.08.2 0 .93-1.24 3.78-1.97 4.55-.92.94-1.1.53-.48-1.03 1.93-4.78.32-9.33-3.29-9.33s-5.21 4.55-3.29 9.33c.63 1.56.44 1.97-.47 1.03-.74-.77-1.98-3.62-1.98-4.55 0-.4-3.86-.56-5.08-.2-2.05.6-2.18 3.12-.27 5.18 1.45 1.57.18 1.46-1.4-.12-1.88-1.87-2.4-4.35-1.34-6.26.47-.83.47-.83-.08-1.2-1.86-1.27-3.1-3.66-3.5-6.75-.07-.51-.15-.65-.36-.7a5 5 0 0 0-2.1.09m-34.4 30.55c-7.37 1.16-6.26 9.18 2.2 15.9 2.68 2.13 2.72 2.16 7.01 4.35 15.82 8.06 19.97 13 19.97 23.8 0 .74.54.97 1.28.54.14-.07.12-5.24-.03-8-.69-12.95-5.94-25.06-13.46-31.05-4.98-3.96-12.14-6.3-16.97-5.54m104.76-.04c-13.66 1.44-24.04 14.36-26.33 32.76-.37 2.93-.62 11.72-.35 11.87.75.43 1.28.2 1.28-.54 0-10.8 4.15-15.74 19.97-23.8 4.29-2.19 4.34-2.22 7.02-4.35 10.13-8.06 9.23-17.08-1.6-15.94m-110.1 16.49c-5.75 6.2-7.44 18.98-3.72 28.1 5.21 12.81 22.29 24.72 37.32 26.03 6.8.6 8.36.5 7.7-.5a240 240 0 0 1-6.87-12.5 51 51 0 0 0-1.9-3.4c-2.24-3.5-2.4-6.05-.52-8.04 1.1-1.17.41-6.74-1.27-10.1-.83-1.66-.78-1.65-1.57-.46-9.1 13.63-27.68 3.2-27.3-15.33.05-2.83.05-2.83-.74-3.45-.92-.73-.8-.7-1.13-.35m118.08.36c-.76.61-.76.61-.7 3.44.38 18.53-18.2 28.96-27.3 15.33-.8-1.19-.74-1.2-1.57.46-1.69 3.36-2.39 8.93-1.27 10.1 1.88 1.99 1.71 4.53-.52 8.04-.5.78-1.36 2.3-1.91 3.4a233 233 0 0 1-6.87 12.5c-.66 1-.84.95 3 .78 8-.37 11.32-1.1 17.81-3.91 23.46-10.16 33-31.75 21.62-48.92-1.41-2.12-1.27-2.05-2.29-1.22M22.48 155.3c-1.2 3.97 1.19 11.45 4.9 15.3 1.15 1.18 1.22 1.19.76.07-1.85-4.49-1.17-10.06 1.44-11.83.48-.33-.4-.87-3.8-2.36-.79-.34-1.8-.81-2.27-1.04-1-.5-.92-.48-1.03-.14m108.33.06c-.34.17-1.4.67-2.37 1.1-3.7 1.65-4.35 2.04-3.86 2.38 2.62 1.77 3.3 7.34 1.45 11.83-.46 1.12-.4 1.11.76-.08 3.7-3.84 6.1-11.32 4.89-15.29-.1-.34-.1-.34-.87.06m-55.2 7.57c-4.78.84-9.25 5.96-12.72 14.55-1.74 4.31-2.64 4.94-8.4 5.8-3.79.57-4.04 1.48-1.43 5.24a143 143 0 0 1 6.6 10.8c4.35 7.71 5.95 10.28 8.16 13.03 7.62 9.48 14.13 7.93 22.2-5.31 1.59-2.6 1.79-2.95 4.47-7.73a143 143 0 0 1 6.62-10.79c2.6-3.76 2.35-4.67-1.44-5.24-5.76-.86-6.66-1.49-8.4-5.8-4.18-10.35-9.81-15.59-15.67-14.55m-12.7 20.43c-1.16.6-1.58 1.75-1.04 2.86.43.88 1.62 1.32 2.35.87.2-.13.35-.08.96.29 2.2 1.32 3.03 1.07 2.35-.72-1.04-2.73-3-4.14-4.61-3.3m26.2.05c-1.35.67-3.06 3.55-2.64 4.42.3.63.9.52 2.51-.45.61-.37.76-.42.97-.3.73.46 1.91.02 2.34-.86.93-1.9-1.22-3.8-3.19-2.8" clip-rule="evenodd"/><path fill="#2430f0" d="m88 99.82-.57.1c-.44.08-.44.08-.4 1.1a9.2 9.2 0 0 1-4.8 8.54c-.08.05.45 1.35.54 1.33 2.92-.53 4.86-.3 6.46.8.28.19.51.27.56.2l.6-.8c2.45-3.14 2.74-8.47.58-10.35-.66-.58-2.32-1.1-2.97-.92m17.1-1.5c-.03.07-.1.53-.18 1.03a8 8 0 0 1-2.45 4.83c-.93.96-.93.96-.53 1.44a8.3 8.3 0 0 1 1.48 6.9l-.25 1c0 .3 3.4-1.1 4.58-1.9 4.95-3.33 4.86-10.56-.15-12.87-.83-.38-2.43-.66-2.5-.43m-10.67-6.75c0 1.7-1 4.49-2.1 5.95-.51.66-.51.66.23 1.45a8 8 0 0 1 1.76 3.05c.14.58.14.58.72.49a6 6 0 0 1 4.17.7c.78.47.72.49 1.5-.47 2.73-3.36 1.91-8.7-1.58-10.4-1.5-.72-4.7-1.25-4.7-.77m-8.65-3.17c-.1 2.5-.55 4.07-1.62 5.72-.39.6-.39.6.2 1.1.33.27.86.85 1.17 1.29.64.88.46.83 1.96.52a3.5 3.5 0 0 1 1.49.06c1.03.22.86.35 1.7-1.35 2.4-4.81.84-8.87-3.49-9.05l-1.33-.05zm-10.06-5.18c-3.95.7-5.22 4.35-3.12 8.95.63 1.37.63 1.37 1.59 1.38.86 0 1.05.06 1.92.5.97.49.97.49 1.94 0a3.3 3.3 0 0 1 1.93-.5c.96-.01.96-.01 1.58-1.38 2.58-5.65-.22-9.94-5.84-8.95m-3.48 14.24c-3.4 1.56-3.7 5.38-.78 9.74.9 1.34.9 1.34 1.24.8 1.86-2.9 6.9-2.9 8.76 0 .5.78 2.54-2.23 3.06-4.53.92-4.1-3.13-8.27-5.41-5.58a9 9 0 0 0-1.33 2.33q-.7 2.04-1.4 0a6.5 6.5 0 0 0-1.84-2.79c-.5-.38-1.43-.37-2.3.03m-7.07 2.42c-3.92.56-4.72 6.94-1.4 11.22.28.37.56.72.6.79.05.07.28-.01.56-.2 1.6-1.1 3.54-1.33 6.46-.8.1.02.63-1.28.54-1.33a9.2 9.2 0 0 1-4.8-8.55c.05-1.01.05-1.01-.4-1.09l-.63-.1c-.1-.02-.52 0-.93.06m-8.43-8.21c-4.84 1.25-6.56 7.04-3.29 11.07.78.96.73.94 1.5.48a6 6 0 0 1 4.17-.71c.58.09.58.09.73-.49a8 8 0 0 1 1.75-3.05c.74-.79.74-.79.24-1.45a12 12 0 0 1-2.1-5.95c0-.16-2.29-.08-3 .1m8.86-4.84c-3.24.87-4.18 4.8-2.12 8.9.85 1.7.68 1.58 1.7 1.36a3 3 0 0 1 1.5-.06c1.5.31 1.31.36 1.95-.52a9 9 0 0 1 1.17-1.3c.59-.49.59-.49.2-1.1-1.07-1.64-1.52-3.22-1.62-5.69-.08-1.85-.62-2.16-2.79-1.59M48.13 98.3c-6.18.8-7.3 9.57-1.72 13.32 1.2.8 4.59 2.2 4.59 1.9l-.25-1a8.3 8.3 0 0 1 1.48-6.9c.39-.47.39-.47-.6-1.5a8.4 8.4 0 0 1-2.44-5.08c-.1-.92-.05-.88-1.06-.75"/><path fill="#2be1b7" d="M127.57 135.49c-13.66 1.44-24.04 14.36-26.33 32.76-.37 2.93-.62 11.72-.35 11.87.75.43 1.28.2 1.28-.54 0-10.8 4.15-15.74 19.97-23.8 4.29-2.19 4.34-2.22 7.02-4.35 10.13-8.06 9.23-17.08-1.6-15.94"/><path fill="#2be1b7" d="M135.54 152.33c-.76.62-.76.62-.7 3.45.38 18.53-18.2 28.95-27.3 15.33-.8-1.19-.74-1.2-1.57.46-1.69 3.36-2.39 8.92-1.27 10.1 1.88 1.99 1.71 4.53-.52 8.04-.5.78-1.36 2.3-1.91 3.4a229 229 0 0 1-6.87 12.5c-.66 1-.84.95 3 .78 8-.37 11.32-1.1 17.81-3.91 23.46-10.16 33-31.75 21.62-48.92-1.41-2.12-1.27-2.05-2.29-1.23m-118.08-.35c-5.75 6.2-7.44 18.98-3.72 28.1 5.21 12.81 22.29 24.72 37.32 26.03 6.8.6 8.36.5 7.7-.5a240 240 0 0 1-6.87-12.5 51 51 0 0 0-1.9-3.4c-2.24-3.5-2.4-6.05-.52-8.04 1.1-1.18.41-6.74-1.27-10.1-.83-1.66-.78-1.65-1.57-.46-9.1 13.62-27.68 3.2-27.3-15.33.05-2.83.05-2.83-.74-3.45-.92-.73-.8-.7-1.13-.35"/><path fill="#2be1b7" d="M22.8 135.53c-7.36 1.16-6.25 9.18 2.2 15.9 2.69 2.13 2.73 2.16 7.02 4.35 15.82 8.06 19.97 13 19.97 23.8 0 .74.54.97 1.28.54.14-.07.12-5.24-.03-8-.69-12.95-5.94-25.06-13.46-31.05-4.98-3.96-12.14-6.3-16.97-5.54"/><path fill="#2430f0" d="M57.21 104.98c-4.8 1.28-5.15 7.85-.62 12.06 3.28 3.04.08 2.33-3.49-.78-.96-.84-.96-.84-1.7-.76-3 .3-7.64-2.32-10.12-5.74-.57-.8-.57-.8-.93-.37-5.14 5.94-8.06 11.25-11.4 20.71-.82 2.35-.83 2.16.11 2.34 16 3 26.57 19.87 26.9 42.94.07 5.04-.06 4.74 1.71 4.08 1.08-.4 1.3-.7 2.19-3.04 4.04-10.65 7.45-14.88 13.16-16.32 1.18-.3 1.15-.28 1.25-.81.22-1.2 1.5-4.35 1.97-4.84 1.11-1.19 2.98 1.29 3.66 4.84.1.53.06.5 1.24.8 5.71 1.45 9.12 5.67 13.17 16.33.88 2.33 1.1 2.64 2.18 3.04 1.77.66 1.65.96 1.72-4.08.33-23.08 10.89-39.93 26.9-42.94.93-.18.92 0 .1-2.34-3.33-9.45-6.26-14.77-11.4-20.71-.36-.42-.36-.42-.93.37-2.47 3.42-7.1 6.05-10.12 5.74-.73-.08-.73-.08-1.7.77-3.57 3.1-6.76 3.81-3.49.77q4.91-4.56 2.46-9.36c-1.29-2.52-5.27-4.04-5.53-2.1-.4 3.1-1.64 5.49-3.51 6.76-.55.37-.55.37-.08 1.2 1.07 1.91.54 4.4-1.33 6.26-1.58 1.58-2.86 1.69-1.4.12 1.9-2.06 1.77-4.58-.28-5.18-1.22-.36-5.08-.2-5.08.2 0 .93-1.24 3.78-1.97 4.55-.92.94-1.1.53-.48-1.03 1.93-4.78.32-9.33-3.29-9.33s-5.21 4.55-3.29 9.33c.63 1.56.44 1.97-.47 1.03-.74-.77-1.98-3.62-1.98-4.55 0-.4-3.86-.56-5.08-.2-2.05.6-2.18 3.12-.27 5.18 1.45 1.57.18 1.46-1.4-.12-1.88-1.87-2.4-4.35-1.34-6.26.47-.83.47-.83-.08-1.2-1.86-1.27-3.1-3.66-3.5-6.75-.07-.51-.14-.65-.36-.7a5 5 0 0 0-2.1.09"/><path fill="#f2c79c" fill-rule="evenodd" d="M75.6 162.94c-4.77.84-9.24 5.96-12.7 14.55-1.75 4.31-2.65 4.94-8.4 5.8-3.8.57-4.05 1.48-1.44 5.24a140 140 0 0 1 6.6 10.8c4.35 7.71 5.95 10.27 8.16 13.02 7.62 9.5 14.12 7.94 22.2-5.3a184 184 0 0 0 4.47-7.73c2.43-4.32 4.73-8.07 6.62-10.79 2.6-3.76 2.35-4.67-1.44-5.24-5.76-.86-6.66-1.49-8.4-5.8-4.18-10.36-9.81-15.59-15.67-14.55m-13.73 23.29c-.54-1.11-.12-2.26 1.05-2.86 1.61-.84 3.57.56 4.61 3.3.68 1.79-.15 2.04-2.35.72-.61-.37-.76-.42-.96-.3-.73.46-1.92.02-2.35-.86m24.6 1.6c-.42-.86 1.3-3.74 2.63-4.4 1.97-1 4.12.9 3.2 2.8-.44.88-1.62 1.32-2.35.87-.2-.13-.36-.08-.97.29-1.6.97-2.2 1.08-2.5.45" clip-rule="evenodd"/><path fill="#2430f0" fill-rule="evenodd" d="M51.4 60.39c-1.67-6.19-6.84-11.06-13.87-9.76-5.58 1.03-10.54 5.27-11.83 10.07a12 12 0 0 0 1.92 3.82c6.44 8.41 18.03 7.56 22.8-1.67q.63-1.22.97-2.46m6.35-23.29q-.34-1.07-.57-2.14c1.46-7.44 8.64-13.9 17.14-15.43C85.68 17.48 95.05 25.18 97 34.94a17 17 0 0 1-.57 2.16c-5.73 16.98-32.95 16.98-38.68 0" clip-rule="evenodd"/><path fill="#2430f0" d="M113.23 44.04c-8.07 1.44-12.25 9.32-10.45 16.34 1.2-4.7 5.85-8.75 11.4-9.75 7.27-1.3 12.57 3.89 14.28 10.11 2.5-8.48-5.44-18.45-15.23-16.7m-56.06-9.08c1.46-7.44 8.64-13.9 17.14-15.43C85.68 17.48 95.05 25.18 97 34.94c2.51-12.55-9.77-24.5-23.63-22-10.95 1.97-18.15 12.1-16.19 22.02M37.53 50.63c7.03-1.3 12.2 3.57 13.86 9.76 2.41-8.76-5.38-18.1-14.81-16.36-8.09 1.5-12.88 9.7-10.88 16.67 1.3-4.8 6.25-9.04 11.83-10.07"/><path fill="#2430f0" d="M106.67 66.85c5.8 5.42 14.75 4.36 19.87-2.33q1.35-1.81 1.92-3.77c-1.7-6.23-7-11.41-14.28-10.12-5.55 1-10.2 5.04-11.4 9.75a13.3 13.3 0 0 0 3.9 6.47"/><path fill="#f2c79c" fill-rule="evenodd" d="M60.2 28.26a22.7 22.7 0 0 1 14.12-8.73 19.3 19.3 0 0 1 20.1 8.87q1.13-1.13 2-2.26c-2.94-8.69-12.54-15.1-23.05-13.2a20.2 20.2 0 0 0-15.25 12.23 21 21 0 0 0 2.07 3.09" clip-rule="evenodd"/><path fill="#2be1b7" d="M60.2 28.26c2.81 3.56 6.76 7 7.23 7 .36 0 2.35-1.92 4.42-3.9 2.23-2.15 4.55-4.38 5-4.38.44 0 2.31 2.07 4.19 4.14 1.87 2.06 3.74 4.13 4.18 4.13.55 0 5.6-3.29 9.2-6.85a19.3 19.3 0 0 0-20.1-8.87 22.7 22.7 0 0 0-14.13 8.73M25.76 60.35c1.44-4.66 6.3-8.72 11.73-9.72 4.17-.77 7.68.62 10.2 3.17.46-1.7.8-3.75.76-5.46a12.6 12.6 0 0 0-11.9-4.3c-7.9 1.45-12.65 9.31-11.02 16.16z"/><path fill="#2be1b7" d="M25.76 60.35c3.06 1.91 7.24 2.75 8.34 2.11.85-.49 1.24-2.96 1.33-5.51.07-1.94.14-3.68.51-4 .42-.35 2.44.8 4.59 2.02 2.35 1.33 5 2.5 5.68 2.11.5-.27.98-1.46 1.47-3.28a11 11 0 0 0-10.19-3.17c-5.44 1-10.29 5.06-11.73 9.72"/><path fill="#2be1b7" fill-rule="evenodd" d="M103.71 51.54c.19 1.36 4.12 8.64 5.18 8.89.58.13 2.54-1.26 4.34-2.53 1.52-1.07 2.93-2.06 3.27-1.98.32.08.92 1 1.61 2.1.97 1.5 2.14 3.33 3.01 3.58 1.13.32 5.63-2.01 7.83-3.58.34-7.74-6.93-15.54-15.68-13.98-4.57.82-7.9 3.7-9.6 7.31z" clip-rule="evenodd"/><path fill="#f1f1f1" d="M130.81 155.37c-.34.17-1.4.67-2.37 1.1-3.7 1.65-4.35 2.04-3.86 2.38 2.62 1.77 3.3 7.34 1.45 11.83-.46 1.12-.4 1.11.76-.08 3.7-3.84 6.1-11.32 4.89-15.29-.1-.34-.1-.34-.87.06m-108.33-.06c-1.2 3.97 1.19 11.45 4.9 15.3 1.15 1.18 1.22 1.19.76.07-1.85-4.49-1.17-10.06 1.44-11.83.48-.33-.4-.87-3.8-2.36-.79-.34-1.8-.81-2.27-1.04-1-.5-.92-.48-1.03-.14m100.21 11.31c0-.41-.37-.74-.81-.74s-.82.33-.82.74.37.74.81.74.82-.33.82-.74"/><path fill="#22110c" fill-rule="evenodd" d="M95.88 38.5c-6.94 7.64-20.74 11.85-36.51 2.11 7.8 12.97 30.32 12.26 36.51-2.11M48.44 65.8c-7.31 3.03-17.24-.06-22.09-3.36q.52 1.08 1.27 2.08c5.67 7.4 15.33 7.63 20.82 1.29m79.23-3.06c-4.2 3.9-12.71 6.68-22.65 2.28q.72.96 1.65 1.83c5.8 5.42 14.75 4.36 19.87-2.33q.66-.87 1.13-1.78" clip-rule="evenodd" opacity=".2"/><path fill="#2430f0" d="M57.17 34.96c1.46-7.44 8.64-13.9 17.14-15.43C85.68 17.48 95.05 25.18 97 34.94c2.51-12.55-9.77-24.5-23.63-22-10.95 1.97-18.15 12.1-16.19 22.02"/><path fill="#2be1b7" fill-rule="evenodd" d="M60.2 28.26a22.7 22.7 0 0 1 14.12-8.73 19.3 19.3 0 0 1 20.1 8.87q1.13-1.13 2-2.26c-2.94-8.69-12.54-15.1-23.05-13.2a20.2 20.2 0 0 0-15.25 12.23 21 21 0 0 0 2.07 3.09" clip-rule="evenodd"/><path fill="#fff" fill-rule="evenodd" d="M82.09 85.9c-.92-2.11-3.2-3.24-6.37-2.68-1.87.33-3.14 1.33-3.74 2.78 1.25-1.03 3.47-1.36 5.12-1.4 1.6.04 3.72.35 4.99 1.3m-13.9 1.33c-1.55.23-4.37.98-5.6 2.69a4.2 4.2 0 0 1 3-3.09c1.57-.41 2.3-.37 2.6.4m-8.44 4.75-.02-.4c0-.17-2.28-.1-3 .1a6.5 6.5 0 0 0-4.7 4.57c1.64-2.29 4.7-4.2 7.72-4.27m-16.94 12.48c.72-2.43 3.42-4.98 5.61-4.98q.46 0 .82-.04l-.07-.53c-.04-.36-.06-.55-.16-.63-.11-.09-.32-.06-.74 0l-.14.01c-3.32.43-5.18 3.16-5.32 6.17m32.9-5.64c-1.27-.98-3.15-1.36-5.8.82a4.6 4.6 0 0 1 2.33-2.18c.87-.4 1.8-.41 2.3-.03.4.3.82.81 1.17 1.4m8.19.52c-1.14-2.08-3.33-3.17-4.8-1.45-.2.25-.44.6-.66.96 1.21-.95 2.99-1.38 5.46.49m-16.76 1.23c.02-.58-.04-.59-.4-.65l-.64-.1c-.1-.02-.52 0-.93.06-1.92.28-3.1 1.96-3.4 4.1.76-2.45 3.64-3.6 5.37-3.4m27.43 4.73c.6-1.5 4.24 0 5.46 2.38q.52 1 .7 1.99c-.93-2.6-3.89-3.8-6.16-4.37m-11.75 9.73v-.09c0-.4 3.86-.56 5.08-.2q.86.27 1.28.92c-1.17-1.02-3.72-.83-6.36-.63m-8.87-4.22a3.7 3.7 0 0 1 3.13-1.68c1.32 0 2.38.6 3.09 1.62a6 6 0 0 0-3.07-1.12c-1 .09-2.26.46-3.15 1.18m-9 4.92q.4-.7 1.3-.99c1.23-.36 5.09-.2 5.09.2v.09c-2.69-.2-5.27-.4-6.4.7m-5.33-10.43c-2.33.59-5.35 1.82-6.22 4.55.14-2.3 1.43-4.24 3.81-4.87a5 5 0 0 1 2.1-.1c.17.05.25.14.3.42m32-15.4c-.53-1.89-2.07-3.13-4.42-3.23l-1.33-.05-.03.56c1.5.2 4.5.94 5.78 2.72m10.49 6.23a5.7 5.7 0 0 0-2.97-3.8c-1.5-.73-4.7-1.26-4.7-.78l-.02.4c3 .06 6.02 1.93 7.69 4.18m9.3 8.34c-.7-2.44-3.42-5-5.63-5q-.5 0-.86-.06l.01-.09c.07-.49.15-.95.18-1.02.07-.23 1.67.05 2.5.43a6.6 6.6 0 0 1 3.8 5.75m-19.05-.72a4.8 4.8 0 0 0-1.38-3.03c-.66-.58-2.32-1.1-2.97-.92l-.57.1c-.37.06-.43.07-.41.66 1.68-.2 4.47.87 5.33 3.19" clip-rule="evenodd" opacity=".2" style="mix-blend-mode:hard-light"/><path fill="#fff" fill-opacity=".4" fill-rule="evenodd" d="M134.18 136.6c-4.92-.37-10.66 1.24-14.8 3.8-5.8 3.57-14.73 13.08-16.6 22.27-.52 2.54-.9 3.38-1.2 3.2 2.86-17.13 12.93-29 25.99-30.38 2.94-.31 5.15.13 6.6 1.1m-114.44.12c5.05-.55 11.09 1.09 15.4 3.75 5.8 3.57 14.73 13.08 16.6 22.27.3 1.44.55 2.33.76 2.8-1.81-10.35-6.48-19.5-12.71-24.46-4.98-3.96-12.14-6.3-16.97-5.54q-1.92.3-3.08 1.18m45.05 36.65a16.5 16.5 0 0 1 12.1-5.2c2.9 0 8.66.93 12.81 5.8-3.96-8-8.94-11.93-14.09-11.02-3.95.7-7.69 4.32-10.82 10.42" clip-rule="evenodd" style="mix-blend-mode:hard-light"/><path fill="#22110c" fill-rule="evenodd" d="M132 157.7q-2.82 1.2-6.22 2.41a4 4 0 0 0-1.2-1.26c-.5-.34.15-.73 3.86-2.38l2.37-1.1.02-.01c.47-.25.65-.34.74-.28q.07.04.1.23h.01q.31 1.06.32 2.4m-109.83-.2q2.85 1.27 6.25 2.55.5-.75 1.16-1.2c.48-.33-.4-.87-3.8-2.36a70 70 0 0 1-2.27-1.04l-.18-.09c-.5-.25-.67-.33-.75-.28q-.05.03-.08.17l-.02.06q-.3.98-.31 2.19m26.99 30.76c-.4 4.24 1.07 8.97 1.74 11.16l.27.88c.48 1.8-4.77 4.63-24.05-4.06 7.12 5.36 15.83 9.15 23.94 9.86 6.8.6 8.36.5 7.7-.5a228 228 0 0 1-6.87-12.5 51 51 0 0 0-1.9-3.4q-.48-.75-.83-1.44m78 7.94c-19.34 8.73-24.62 5.9-24.13 4.1l.26-.88c.68-2.2 2.16-6.97 1.74-11.21q-.35.7-.85 1.49c-.5.78-1.36 2.3-1.91 3.4a233 233 0 0 1-6.87 12.5c-.24.36-.41.59-.36.72.1.23.91.17 3.36.06 8-.37 11.32-1.1 17.81-3.91a55 55 0 0 0 10.95-6.27m-68.58 1.19c4.21 6.75 5.92 9.18 8.23 11.77 8.43 9.5 15.64 7.94 24.59-5.31a176 176 0 0 0 4.54-7.06q-.72 1.22-1.45 2.52a184 184 0 0 1-4.47 7.73c-8.08 13.24-14.58 14.8-22.2 5.3-2.2-2.75-3.81-5.3-8.15-13.03q-.55-.98-1.1-1.91" clip-rule="evenodd" opacity=".2"/><path fill="#000" fill-opacity=".2" d="M77 151.07c-1.56 0-3.55 10.98-4.43 10.98l-1.8 1.67 6.23-1.67 7.18 2.1c-.77-.7-2.42-2.1-2.87-2.1-.56 0-2.75-10.98-4.3-10.98m-10.36-29.49c-.88 0-3.81-2.04-3.81-5.06.41-.77 1.25-1.95 1.25-.62 0 1.66 1.87 3.82 2.37 4.32s1.06 1.36.19 1.36m-16.73-5.06c-3.56 0-8.17-4.63-10.55-7.78l1.44-1.23 3.24 4.62 7.37 2.16 1.43-2.34c.36.53 1.19 1.83 1.69 2.71.62 1.12 2.25 1.98 3.56 3.83 1.3 1.85-3.69-.43-4.31-.74a21 21 0 0 1-2.06-1.36c0 .04-.36.13-1.8.13m11.17-5.62c-1.44-1.79-.94-3.89-1.2-5.68l4.06 7.28-.31.56a8 8 0 0 1-2.56-2.16m12.79 9.56c-1.3-.3-2.5-3.33-2.5-5.61l1.26-.56.8 3.21c.26.99 1.75 3.27.44 2.96m13.55 1.12c.87 0 3.8-2.04 3.8-5.06-.41-.77-1.24-1.95-1.24-.62 0 1.66-1.88 3.82-2.38 4.32s-1.06 1.36-.18 1.36m16.72-5.06c3.56 0 8.18-4.63 10.55-7.78l-1.44-1.23-3.24 4.62-7.37 2.16-1.43-2.34c-.36.53-1.19 1.83-1.69 2.71-.62 1.12-2.24 1.98-3.55 3.83s3.68-.43 4.3-.74c.5-.25 1.58-1 2.06-1.36 0 .04.36.13 1.81.13m-11.17-5.62c1.44-1.79.94-3.89 1.19-5.68l-4.06 7.28.31.56h.01a8 8 0 0 0 2.55-2.16m-12.85 9.63c1.3-.31 2.55-3.4 2.55-5.68l-1.24-.56-.82 3.21c-.25.99-1.8 3.33-.5 3.03"/><path fill="#22110c" d="M62.24 186.61c-.44 0 .94-.68.5-1.85 1.04-.43 2.67.01 3.87 1.05 1.5 1.3 1.5 4.5 1.43 5.86-.06 1.36-5.36-5.06-5.8-5.06m29.6.04c.44 0-.94-.68-.5-1.85-1.04-.43-2.67.01-3.87 1.05-1.5 1.3-1.5 4.5-1.44 5.86s5.37-5.06 5.8-5.06" opacity=".2"/><path fill="#22110c" fill-rule="evenodd" d="M35.19 155.3c7.6 4.49 14.98 8.86 14.98 14.28v.52c-2.48-5.12-7.83-9.06-18.17-14.32-4.3-2.19-4.34-2.22-7.02-4.35-6.58-5.23-8.71-11.25-5.86-14.21-1.92 7.44 7.22 12.84 16.07 18.08" clip-rule="evenodd" opacity=".2"/><path fill="#22110c" fill-rule="evenodd" d="m19.24 137-.06.23c-.95 3.69.84 6.88 3.98 9.81s7.63 5.59 12.06 8.2c3.8 2.25 7.55 4.47 10.35 6.8s4.66 4.8 4.66 7.54v.52l-.12.02c-2.46-5.09-7.8-9.02-18.14-14.29a61 61 0 0 1-4.12-2.2c-.89-.54-1.57-1.09-2.91-2.15-3.3-2.62-5.48-5.45-6.49-7.99s-.82-4.81.63-6.31zm-.67 6.45c1 2.51 3.16 5.32 6.45 7.93a29 29 0 0 0 2.9 2.15c.88.55 1.96 1.1 4.1 2.2 10.2 5.18 15.56 9.09 18.09 14.11v-.26c0-2.68-1.83-5.11-4.62-7.44s-6.53-4.54-10.33-6.79c-4.43-2.62-8.93-5.28-12.09-8.22-3.09-2.88-4.9-6.04-4.07-9.69-1.25 1.45-1.38 3.6-.43 6m100.5 11.86c-7.6 4.5-14.98 8.86-14.98 14.28v.23c2.53-4.97 7.88-8.86 18.02-14.03 4.3-2.19 4.34-2.22 7.02-4.35 6.58-5.23 8.51-10.87 6.09-13.87 1.56 7.26-7.44 12.58-16.15 17.74" clip-rule="evenodd" opacity=".2"/><path fill="#22110c" fill-rule="evenodd" d="M135.6 143.68c-1 2.45-3.13 5.18-6.43 7.8a30 30 0 0 1-2.91 2.16c-.89.54-1.98 1.1-4.12 2.2-10.15 5.16-15.47 9.04-18 14l-.11-.03v-.23c0-2.74 1.86-5.2 4.66-7.54s6.55-4.55 10.34-6.8c4.37-2.57 8.79-5.19 11.93-8.07 3.13-2.87 4.97-6 4.2-9.6l.1-.05c1.24 1.52 1.36 3.7.35 6.16m-.27-5.87c1.04 1.47 1.11 3.51.16 5.82-1 2.43-3.11 5.14-6.4 7.75a30 30 0 0 1-2.9 2.15 62 62 0 0 1-4.1 2.2c-10 5.08-15.35 8.94-17.94 13.83.01-2.68 1.84-5.1 4.62-7.42 2.8-2.33 6.53-4.54 10.33-6.79 4.36-2.58 8.8-5.2 11.94-8.09 3.07-2.81 4.93-5.9 4.3-9.45" clip-rule="evenodd" opacity=".2"/><path fill="#000" fill-opacity=".2" fill-rule="evenodd" d="M16.34 153.3c-.08 6.12.16 32.5 31.52 32.5h.38c-.3-1.62.1-2.97 1.2-4.13 1.11-1.18.41-6.74-1.27-10.1-.44-.9-.63-1.3-.84-1.3-.17-.01-.36.29-.72.84-9.11 13.62-27.69 3.2-27.31-15.33.06-2.83.06-2.83-.73-3.45-.58-.46-.75-.62-.88-.59q-.1.03-.26.24-.57.61-1.1 1.32" clip-rule="evenodd" style="mix-blend-mode:multiply"/><path fill="#22110c" fill-rule="evenodd" d="M137.98 153.83c.05 6.78-.81 32.1-31.53 32.1h-.6a4.5 4.5 0 0 0-1.18-4.26c-1.11-1.18-.41-6.74 1.27-10.1.45-.9.64-1.3.84-1.3.17-.01.36.29.73.84 9.1 13.62 27.68 3.2 27.3-15.33-.04-2.01-.05-2.6.22-2.98q.16-.22.49-.47c.41-.33.63-.54.84-.53.31.01.6.5 1.44 1.76zM71.62 87.26c-.18 1.4.12 3.08.95 4.91.63 1.37.63 1.37 1.59 1.38.86 0 1.06.06 1.93.5.97.49.97.49 1.93 0a3.3 3.3 0 0 1 1.93-.5c.96-.01.96-.01 1.59-1.38a9 9 0 0 0 .9-4.93c-.42 2.28-1.37 5.27-3.52 5.52-.92.2-1.57.2-1.8.19h-.19c-.23.01-.87 0-1.8-.2-2.13-.24-3.09-3.21-3.5-5.5m12.52 6.86c1.07-1.65 1.52-3.23 1.62-5.71l.05-1.3c.41 2.23.3 5.36-1.58 8.02-.48-.41-.46-.45-.1-1.01m7.62-2.1q-.12 1.73-1.1 3.72l-.2.38c-.34.72-.48 1-.7 1.07q-.18.06-.58-.05l-.23-.05a3 3 0 0 0-1.49-.06l-.33.07-.06.02c.08-.25.72-.45 1.37-.65.6-.2 1.23-.39 1.4-.63a10 10 0 0 0 1.92-3.82m2.64-.45c0 1.7-1 4.49-2.1 5.95-.47.62-.5.66.1 1.3 1.27-1.82 2.6-5.4 2.1-7.36q-.1.03-.1.11m7.88 5.78c-.16 1.04-.75 3.24-1.64 4.17-1.06 1.11-1.5 1.23-2.37.87-.52-.22-1.28-.12-1.83.03q1.49.05 2.74.8l.03.01.04.03c.3.18.47.28.63.27.19-.03.36-.23.73-.7l.04-.05.04-.04a7.5 7.5 0 0 0 1.59-5.4m9.05 6.68c-.22 1.72-.84 4.78-3.26 6.8-2.28 1.92-4 2.04-4.37-.67q-.06-.39-.15-.44a8 8 0 0 1-.16 2.8l-.25 1c0 .3 3.4-1.1 4.58-1.9a8.1 8.1 0 0 0 3.61-7.6m-6.45-4.62a8 8 0 0 1-2.43 4.77c-.93.96-.93.96-.54 1.44l.12.16a10.7 10.7 0 0 0 2.85-6.37m-12.49 5.8c-.23 1.3-.6 2.73-1.17 3.4a4.1 4.1 0 0 1-3.8 1.55c-.6-.1-1.6.17-2.46.47a6.7 6.7 0 0 1 4.24 1.06c.29.19.51.27.56.2l.61-.8a10.5 10.5 0 0 0 2.02-5.89m-10.07 4.81c1.8-.93 4.68-3.44 4.64-7.43a9.3 9.3 0 0 1-4.76 6.97c-.03.02.03.22.12.46m2.28-7.16c-.56 1.62-1.8 4.16-3.74 3.47a11 11 0 0 0-3.98-.74c-.87 0-1.94.13-3.68.74-1.76.63-2.94-1.39-3.56-2.97q.45 1.8 1.79 3.84c.56.84.77 1.15.94 1.13q.14-.03.3-.34c1.87-2.9 6.9-2.9 8.76 0 .51.79 2.55-2.22 3.06-4.52q.07-.3.1-.6m-22.93 2.36a10 10 0 0 0 2.07 5.88c.29.37.56.72.6.79.06.07.28-.01.57-.2a6.6 6.6 0 0 1 4.18-1.06 6 6 0 0 0-2.44-.47 4.1 4.1 0 0 1-3.81-1.54c-.56-.68-.94-2.1-1.17-3.4m5.44-3.04c-.25 4.26 2.82 6.92 4.67 7.87.1-.25.16-.47.13-.49a9.3 9.3 0 0 1-4.8-7.38m-5.43-3.33c.64-.67.61-.7.13-1.33a12 12 0 0 1-2.1-5.95q0-.03-.17-.06c-.46 1.98.87 5.55 2.14 7.34m-9.9-1.46a7.3 7.3 0 0 0 1.64 5.35l.08.1c.37.45.54.66.73.69.16.01.32-.09.63-.27l.07-.04a5.6 5.6 0 0 1 2.7-.8c-.56-.15-1.32-.26-1.84-.03-.88.36-1.31.24-2.37-.87-.88-.92-1.46-3.07-1.64-4.13m10.65-4.88a10 10 0 0 0 1.21 3.61c.35.72.5 1 .7 1.07q.19.06.59-.05l.23-.05a3 3 0 0 1 1.5-.06l.32.07c-.1-.24-.72-.43-1.36-.63-.6-.2-1.23-.39-1.4-.63-.8-1.04-1.42-2.1-1.8-3.33m5.77-5.16q.14.42.15 1.07c.1 2.47.55 4.05 1.62 5.7.38.58.4.6-.13 1.04-1.83-2.57-2-5.59-1.64-7.8m-17.64 22.36q-.13-.05-.2.45c-.38 2.71-2.1 2.59-4.37.68-2.23-1.87-2.94-4.63-3.21-6.4a8.1 8.1 0 0 0 3.6 7.18c1.2.8 4.59 2.2 4.59 1.9l-.25-1a8 8 0 0 1-.16-2.81m1.5-3.9.14-.19c.39-.47.39-.47-.59-1.5a8.4 8.4 0 0 1-2.45-5.08l-.01-.12a10.7 10.7 0 0 0 2.9 6.89" clip-rule="evenodd" opacity=".2"/><path fill="#f1f1f1" d="M123.19 164.15c0-1.5 1.25-2.72 2.8-2.72s2.81 1.22 2.81 2.72-1.26 2.72-2.8 2.72a2.76 2.76 0 0 1-2.81-2.72m-97.99 0c0-1.5 1.27-2.72 2.82-2.72s2.8 1.22 2.8 2.72-1.25 2.72-2.8 2.72a2.76 2.76 0 0 1-2.81-2.72m7.49 2.47c0-.41-.37-.74-.81-.74s-.82.33-.82.74.37.74.82.74.8-.33.8-.74"/><path fill="#fff" d="m813.52 166.36 3.1 14.94q-3.23 2.2-9.28 4a43 43 0 0 1-11.85 1.67q-11.47 0-19.06-7.21-7.47-7.21-7.47-21.64v-26.14h-12.62v-17.39h12.62V99.27l18.42-4v19.32h26.27v17.39h-26.27v25.11q0 12.75 11.33 12.75 5.03 0 14.81-3.48m-96.18 20.61q-14.3 0-23.82-6.57a27 27 0 0 1-11.46-18.28h18.67q2.33 9.52 17.13 9.52 11.98 0 11.98-5.8 0-.76-.26-1.4-.13-.65-.65-1.17a5 5 0 0 0-.9-.9 4 4 0 0 0-1.54-.9 23 23 0 0 0-4-1.29q-1.41-.38-2.57-.64-1.04-.26-2.96-.64-1.94-.39-3.35-.78-15.85-3.74-22.15-8.11-6.18-4.5-6.18-13.4 0-11.07 8.37-17.25 8.5-6.3 22.66-6.31t22.03 6.18q7.85 6.05 9.78 16.48h-18.67q-2.32-7.2-13.78-7.2-11.85 0-11.85 5.92 0 2.31 2.45 3.34 2.45 1.04 11.07 2.97a146 146 0 0 1 13.65 3.6 47 47 0 0 1 9.53 4.12q4.52 2.58 6.44 6.19 1.94 3.6 1.94 8.75 0 11.46-8.89 17.52t-22.67 6.05m-81.43-73.92q17.4 0 27.43 11.97 10.18 11.98 8.76 29.75h-54.35q.9 8.24 5.93 12.63 5.01 4.37 12.49 4.37 5.4 0 9.66-2.31a14 14 0 0 0 6.05-6.57h19.06q-3.74 11.98-13.13 18.03t-21.51 6.05q-16.48 0-26.92-10.43-10.43-10.44-10.43-26.4 0-15.98 10.43-26.53t26.53-10.56m-.13 15.2q-6.56 0-10.94 3.6a18.5 18.5 0 0 0-6.19 9.4h33.88q-1.55-5.92-5.93-9.4-4.37-3.6-10.82-3.6m-56-27.44q-12.5 0-12.5 13.53v.25h23.58v17.39h-23.57v53.44h-18.42v-53.44h-12.62v-17.39h12.62v-1.16q0-14.17 8.37-21.37 8.37-7.34 20.48-7.34 9.66 0 16.74 3.21l-3.35 14.94-2.44-.64a32 32 0 0 0-8.9-1.42m-62.94-18.93q5.03 0 8.24 3.1a10 10 0 0 1 3.22 7.72q0 4.77-3.22 7.86-3.21 3.09-8.24 3.09-4.88 0-8.24-3.1a10.4 10.4 0 0 1-3.22-7.85q0-4.65 3.22-7.73a11.7 11.7 0 0 1 8.24-3.09m-9.27 103.54V114.6h18.41v70.83zm-39.68-72.37q11.97 0 18.8 7.47t6.83 20.47v44.43h-18.42V145q0-7.22-3.09-10.82t-10.17-3.6q-15.97 0-15.97 17.64v37.21h-18.42V114.6h18.42v9.66q7.98-11.2 22.02-11.2m-73.53 1.54h18.41l-.12 70.82h-18.42v-9.52q-8.11 11.07-22.15 11.07t-23.18-10.3q-9.15-10.44-9.14-26.66 0-16.23 9.14-26.53 9.27-10.43 23.05-10.43 14.17 0 22.4 11.46zm-18.16 54.86q7.86 0 13-5.41 5.16-5.41 5.16-14.04t-5.15-14.04-13.01-5.4-12.88 5.4-5.02 14.04 5.02 14.04a17 17 0 0 0 12.88 5.4m-73.29-56.4q11.34 0 17.9 7.34 6.58 7.34 6.58 20.22v44.81h-18.42V144.6q0-6.95-2.96-10.43-2.84-3.6-9.28-3.6-7.2 0-10.94 4.63-3.75 4.5-3.74 13v37.22h-18.41V144.6q0-6.95-2.96-10.43-2.85-3.6-9.28-3.6-7.2 0-11.07 4.63-3.74 4.5-3.74 13l.13 37.22h-18.54V114.6h18.54v9.4q7.73-10.94 21-10.94 15.44 0 21.5 13.4 8.25-13.4 23.7-13.4"/></svg>