<svg width="129" height="36" viewBox="0 0 129 36" fill="none" xmlns="http://www.w3.org/2000/svg">
    <g clip-path="url(#clip0_1194_5139)">
        <mask id="mask0_1194_5139" style="mask-type:luminance" maskUnits="userSpaceOnUse" x="0" y="0" width="23"
            height="36">
            <path d="M22.4348 0.5H0V35.5H22.4348V0.5Z" fill="white" />
        </mask>
        <g mask="url(#mask0_1194_5139)">
            <path fillRule="evenodd" clipRule="evenodd"
                d="M10.7432 0.524581C6.19842 0.980721 6.03836 7.83529 10.5546 8.60236C10.7592 8.63711 10.824 8.65536 10.8287 8.67953C10.8321 8.69696 10.8157 9.04261 10.7922 9.44764C10.7687 9.85268 10.7391 10.6491 10.7265 11.2174C10.7138 11.7858 10.699 12.2541 10.6935 12.2582C10.6881 12.2622 10.6143 12.3002 10.5295 12.3426C10.3708 12.4221 10.1619 12.5967 10.078 12.7201C10.0309 12.7894 10.0309 12.7894 9.74181 12.799C9.28534 12.8142 9.00711 12.9279 8.75447 13.2023C8.68443 13.2784 8.62032 13.3324 8.6118 13.3223C8.60328 13.3123 8.33989 12.9171 8.02643 12.4441C7.71301 11.9711 7.3571 11.4384 7.23557 11.2605L7.01459 10.9368L7.14425 10.7905C9.56251 8.06075 6.18106 3.94946 3.30568 6.12336C0.443575 8.28721 3.00878 12.8262 6.29958 11.4209C6.31311 11.4151 6.55758 11.7265 6.8778 12.1575C7.18292 12.5681 7.56403 13.0744 7.72472 13.2825C7.88541 13.4907 8.03043 13.6819 8.04701 13.7074C8.08108 13.7597 8.09205 13.7521 7.90798 13.8036C7.39759 13.9464 6.9164 14.378 6.82102 14.7785C6.8085 14.8311 6.78796 14.8744 6.77541 14.8747C5.91293 14.898 5.25289 15.5506 5.24357 16.3894C5.24041 16.6746 5.24041 16.6746 5.12295 16.7457C4.05393 17.3921 2.60361 19.5605 2.50005 20.6674C2.48474 20.831 2.49078 20.8256 2.27923 20.8624C1.80189 20.9454 1.52305 21.121 1.22901 21.5236C0.856655 22.0336 0.822305 22.472 1.10623 23.091C1.20241 23.3008 1.20769 23.2636 1.04916 23.4912C-0.627241 25.897 -0.278012 28.7202 1.97738 30.9948C3.45248 32.4824 5.52309 33.3894 7.84453 33.5644C8.73092 33.6312 8.8324 33.6652 9.06071 33.9716C10.5619 35.9856 11.8576 35.9856 13.3588 33.9716C13.5871 33.6652 13.6886 33.6312 14.575 33.5644C18.0448 33.3028 20.9479 31.365 22.0361 28.584C22.7298 26.8114 22.5096 25.1284 21.3698 23.4896C21.2118 23.2622 21.2171 23.3004 21.3133 23.091C21.5972 22.472 21.5628 22.0336 21.1905 21.5236C20.8965 21.121 20.6176 20.9454 20.1403 20.8624C19.9286 20.8256 19.9348 20.831 19.9195 20.6674C19.8856 20.3045 19.5042 19.373 19.1403 18.7642C18.6932 18.0159 17.8245 17.0649 17.2966 16.7457C17.1791 16.6746 17.1791 16.6746 17.1759 16.3894C17.1666 15.5506 16.5066 14.898 15.6441 14.8747C15.6315 14.8744 15.611 14.8311 15.5985 14.7785C15.5031 14.378 15.0219 13.9464 14.5115 13.8036C14.3274 13.7521 14.3384 13.7597 14.3725 13.7074C14.389 13.6819 14.5341 13.4907 14.6948 13.2825C14.8555 13.0744 15.2366 12.5681 15.5417 12.1575C15.8619 11.7265 16.1064 11.4151 16.1199 11.4209C19.4107 12.8262 21.976 8.28721 19.1138 6.12336C16.2384 3.94946 12.857 8.06075 15.2752 10.7905L15.4049 10.9368L15.1839 11.2605C15.0624 11.4384 14.7065 11.9711 14.3931 12.4441C14.0796 12.9171 13.8162 13.3123 13.8077 13.3223C13.7992 13.3324 13.7351 13.2784 13.665 13.2023C13.4124 12.9279 13.1342 12.8142 12.6777 12.799C12.3886 12.7894 12.3886 12.7894 12.3422 12.7211C12.2205 12.5423 11.9403 12.3392 11.7136 12.2656C11.6119 12.2325 11.6119 12.2325 11.6143 11.0183C11.6156 10.3505 11.6123 9.54396 11.6068 9.22607L11.5969 8.64804L11.8649 8.60243C16.9443 7.73811 15.8711 0.00992137 10.7432 0.524581ZM10.6183 1.52504C8.87573 1.84575 7.7305 3.4873 8.04308 5.09386C8.06562 5.20971 8.09573 5.32539 8.13377 5.44039C9.04434 8.19354 13.3752 8.19354 14.2857 5.44039C14.3242 5.32414 14.3546 5.20779 14.3773 5.09175C14.7763 3.05696 12.8221 1.11947 10.6183 1.52504ZM4.76718 6.56489C3.48025 6.80732 2.71862 8.13764 3.03596 9.26571C3.09697 9.48257 3.19787 9.69196 3.34258 9.88471C4.36641 11.2484 6.20995 11.1108 6.96951 9.61407C7.036 9.48307 7.0868 9.34961 7.12311 9.21536C7.50689 7.79536 6.26695 6.28239 4.76718 6.56489ZM16.9605 6.56604C15.6767 6.79968 15.0114 8.07604 15.298 9.21339C15.3938 9.59346 15.596 9.95807 15.9169 10.263C16.84 11.1402 18.2621 10.97 19.0769 9.88471C19.2218 9.69175 19.3222 9.48528 19.3832 9.27314C19.779 7.89743 18.5171 6.28271 16.9605 6.56604ZM10.9937 12.9153C10.3655 13.0282 10.1626 13.6205 10.4969 14.3661C10.5964 14.5881 10.5964 14.5881 10.7491 14.5897C10.8863 14.5912 10.9175 14.5994 11.0558 14.6705C11.2097 14.7498 11.2097 14.7498 11.3637 14.6705C11.502 14.5994 11.5332 14.5912 11.6704 14.5897C11.8231 14.5881 11.8231 14.5881 11.9225 14.3661C12.3326 13.4506 11.8871 12.7547 10.9937 12.9153ZM9.38223 13.5013C8.86749 13.6411 8.719 14.2774 9.04549 14.9441C9.18066 15.2201 9.15388 15.1984 9.31752 15.164C9.42352 15.1417 9.48206 15.1394 9.55473 15.1545C9.79331 15.204 9.76407 15.212 9.8652 15.0692C9.91547 14.9983 9.99908 14.9041 10.051 14.86C10.1454 14.7797 10.1454 14.7797 10.0831 14.6819C9.91319 14.415 9.84168 14.1587 9.82559 13.7591C9.8135 13.4581 9.72674 13.4077 9.38223 13.5013ZM12.594 13.7566C12.5778 14.1589 12.5067 14.4145 12.3364 14.6819C12.2741 14.7797 12.2741 14.7797 12.3685 14.86C12.4204 14.9041 12.504 14.9983 12.5543 15.0692C12.6554 15.212 12.6262 15.204 12.8648 15.1545C12.9374 15.1394 12.996 15.1417 13.102 15.164C13.2656 15.1984 13.2388 15.2201 13.374 14.9441C13.7556 14.1649 13.5061 13.5066 12.8184 13.478L12.6055 13.4692L12.594 13.7566ZM7.97357 14.2855C7.2043 14.4883 6.93091 15.4264 7.45084 16.0791C7.57475 16.2346 7.56641 16.232 7.69036 16.1565C7.88295 16.0393 8.10004 16.0016 8.35321 16.0414C8.44494 16.0557 8.44494 16.0557 8.46818 15.9628C8.50724 15.8065 8.62211 15.6027 8.7468 15.4684C8.86535 15.3408 8.86535 15.3408 8.78458 15.2325C8.60833 14.9962 8.4516 14.5447 8.45017 14.2691C8.45003 14.243 8.08746 14.2555 7.97357 14.2855ZM13.9693 14.2691C13.9679 14.5447 13.8112 14.9962 13.6349 15.2325C13.5541 15.3408 13.5541 15.3408 13.6727 15.4684C13.7974 15.6027 13.9123 15.8065 13.9513 15.9628C13.9746 16.0557 13.9746 16.0557 14.0663 16.0414C14.3195 16.0016 14.5365 16.0393 14.7291 16.1565C14.8531 16.232 14.8447 16.2346 14.9687 16.0791C15.402 15.5351 15.2728 14.6684 14.7177 14.3946C14.4793 14.2771 13.9698 14.1916 13.9693 14.2691ZM10.44 15.2236C9.89959 15.477 9.85055 16.0949 10.3147 16.8012C10.4575 17.0184 10.4575 17.0184 10.5131 16.9301C10.8089 16.4602 11.6106 16.4602 11.9064 16.9301C11.9868 17.0579 12.3107 16.5707 12.393 16.1981C12.5399 15.5331 11.8959 14.8567 11.5318 15.2936C11.4544 15.3866 11.3592 15.5572 11.3216 15.6706C11.2489 15.8903 11.1706 15.8903 11.0979 15.6706C11.0397 15.495 10.917 15.3057 10.805 15.2186C10.7254 15.1567 10.5783 15.1587 10.44 15.2236ZM6.60368 15.3585C5.62195 15.4885 5.44261 16.91 6.3312 17.5179C6.52039 17.6472 7.0603 17.8755 7.0603 17.826C7.0603 17.823 7.04245 17.7501 7.02062 17.6641C6.92748 17.2973 7.02472 16.8356 7.25601 16.5466C7.31802 16.4691 7.31802 16.4691 7.1623 16.3034C6.93158 16.0578 6.80668 15.7939 6.77225 15.479C6.75602 15.3305 6.76524 15.3371 6.60368 15.3585ZM15.6662 15.3622C15.6624 15.3742 15.6497 15.4492 15.6381 15.5289C15.5921 15.8447 15.4814 16.0676 15.2489 16.3127C15.1011 16.4685 15.1011 16.4685 15.1633 16.5463C15.3948 16.8356 15.4921 17.2971 15.3989 17.6641C15.377 17.7501 15.3592 17.823 15.3592 17.826C15.3592 17.8755 15.8991 17.6472 16.0883 17.5179C16.8755 16.9793 16.8619 15.8069 16.064 15.4321C15.9324 15.3703 15.6779 15.3256 15.6662 15.3622ZM9.31573 15.6164C8.69127 15.7069 8.56395 16.7395 9.09173 17.4332C9.13737 17.4932 9.18077 17.5511 9.18813 17.5619C9.19609 17.5736 9.23247 17.5601 9.27748 17.5288C9.53184 17.3521 9.83962 17.3137 10.3045 17.4007C10.3199 17.4036 10.4042 17.1923 10.3907 17.1844C9.88515 16.8901 9.59665 16.3678 9.62575 15.7993C9.63416 15.6345 9.63416 15.6345 9.56328 15.6226C9.5243 15.616 9.47898 15.6081 9.46261 15.605C9.44624 15.6019 9.38016 15.6071 9.31573 15.6164ZM12.9469 15.6054C12.936 15.6084 12.8952 15.6161 12.8562 15.6227C12.7853 15.6345 12.7853 15.6345 12.7937 15.7993C12.8228 16.3678 12.5343 16.8901 12.0288 17.1844C12.0153 17.1923 12.0996 17.4036 12.115 17.4007C12.5799 17.3137 12.8877 17.3521 13.142 17.5288C13.187 17.5601 13.2234 17.5736 13.2314 17.5619C13.2387 17.5511 13.2821 17.4932 13.3278 17.4332C13.7157 16.9234 13.7629 16.0592 13.4195 15.7547C13.3132 15.6605 13.0498 15.5773 12.9469 15.6054ZM8.04908 16.4421C7.28377 16.6496 7.23017 17.715 7.95071 18.397C8.47148 18.89 7.96288 18.7744 7.39563 18.2709C7.24184 18.1344 7.24184 18.1344 7.12462 18.1467C6.64592 18.1971 5.90852 17.7707 5.51531 17.2161C5.42459 17.0881 5.42459 17.0881 5.36689 17.1561C4.54939 18.1188 4.08411 18.9808 3.55427 20.514C3.42313 20.8936 3.42182 20.864 3.57099 20.8926C6.11681 21.3794 7.79665 24.1118 7.84898 27.8512C7.86038 28.6678 7.84015 28.6188 8.12213 28.5126C8.29431 28.4476 8.32919 28.3982 8.46987 28.0208C9.11357 26.2932 9.65551 25.6082 10.5634 25.3744C10.7513 25.326 10.7458 25.3296 10.7619 25.2434C10.7981 25.0486 11.0023 24.5386 11.0758 24.459C11.2532 24.2672 11.5505 24.668 11.6576 25.2434C11.6737 25.3296 11.6682 25.326 11.8561 25.3744C12.764 25.6082 13.3059 26.2932 13.9496 28.0208C14.0903 28.3982 14.1252 28.4476 14.2974 28.5126C14.5793 28.6188 14.5591 28.6678 14.5705 27.8512C14.6229 24.1116 16.3025 21.3794 18.8485 20.8926C18.9977 20.864 18.9964 20.8936 18.8652 20.514C18.3354 18.9808 17.8701 18.1188 17.0526 17.1561C16.9949 17.0881 16.9949 17.0881 16.9042 17.2161C16.511 17.7707 15.7736 18.1971 15.2949 18.1467C15.1777 18.1344 15.1777 18.1344 15.0239 18.2709C14.4566 18.7744 13.948 18.89 14.4688 18.397C14.9887 17.9049 15.1199 17.3968 14.8606 16.8801C14.6551 16.4706 14.0211 16.2252 13.9809 16.5395C13.9165 17.0423 13.7192 17.4291 13.422 17.6351C13.3354 17.6951 13.3354 17.6951 13.4092 17.8296C13.579 18.139 13.4951 18.5411 13.1976 18.8441C12.9459 19.1004 12.7436 19.1172 12.9746 18.8626C13.2776 18.5286 13.2565 18.1215 12.9312 18.0242C12.7366 17.966 12.123 17.9907 12.123 18.0567C12.123 18.207 11.9258 18.6689 11.8087 18.7929C11.6635 18.9467 11.6331 18.88 11.7331 18.6271C12.0395 17.8525 11.7841 17.1141 11.2098 17.1141C10.6354 17.1141 10.38 17.8525 10.6864 18.6271C10.7864 18.88 10.756 18.9467 10.6108 18.7929C10.4937 18.6689 10.2965 18.207 10.2965 18.0567C10.2965 17.9907 9.68292 17.966 9.4883 18.0242C9.16293 18.1215 9.14186 18.5286 9.44487 18.8626C9.67588 19.1172 9.47365 19.1004 9.22192 18.8441C8.92438 18.5411 8.84053 18.139 9.0103 17.8296C9.08409 17.6951 9.08409 17.6951 8.99751 17.6351C8.70063 17.4294 8.50299 17.0422 8.43877 16.5408C8.42822 16.4584 8.417 16.4352 8.38321 16.4261C8.31345 16.4072 8.14849 16.4151 8.04908 16.4421ZM2.57629 21.3932C1.40476 21.5806 1.58096 22.8806 2.92553 23.9698C3.35235 24.3156 3.3601 24.3204 4.04254 24.6746C6.55828 25.9804 7.21913 26.7828 7.21913 28.5322C7.21913 28.6524 7.30389 28.6892 7.42265 28.6204C7.44404 28.608 7.44064 27.7712 7.4174 27.324C7.30817 25.224 6.473 23.261 5.27578 22.2906C4.48387 21.6486 3.3455 21.2702 2.57629 21.3932ZM19.2406 21.3866C17.0681 21.6196 15.4162 23.7138 15.0521 26.6964C14.9941 27.1712 14.9533 28.595 14.9968 28.6204C15.1156 28.6892 15.2004 28.6524 15.2004 28.5322C15.2004 26.7826 15.8608 25.9806 18.377 24.6746C19.0594 24.3204 19.0671 24.3156 19.494 23.9698C21.1054 22.6646 20.9618 21.202 19.2406 21.3866ZM1.72527 24.059C0.811407 25.0626 0.542091 27.1354 1.13348 28.614C1.96354 30.6896 4.67948 32.6192 7.07022 32.8322C8.15364 32.9286 8.39958 32.9122 8.29596 32.7496C8.12602 32.4834 7.54352 31.4036 7.20318 30.724C7.11502 30.548 6.97823 30.3006 6.89919 30.174C6.54412 29.6058 6.51808 29.1928 6.81695 28.871C6.9939 28.6804 6.88275 27.779 6.61514 27.2338C6.48281 26.9642 6.49193 26.967 6.36601 27.159C4.91753 29.3676 1.96235 27.6774 2.02225 24.6748C2.0314 24.2166 2.0314 24.2166 1.90602 24.1152C1.75968 23.9972 1.77681 24.0024 1.72527 24.059ZM20.5092 24.1166C20.3881 24.2166 20.3881 24.2166 20.3972 24.6748C20.4572 27.6774 17.5019 29.3674 16.0535 27.159C15.9276 26.967 15.9367 26.9642 15.8044 27.2338C15.5368 27.779 15.4256 28.6804 15.6026 28.871C15.9014 29.1928 15.8754 29.6058 15.5203 30.174C15.4413 30.3006 15.3045 30.548 15.2163 30.724C14.876 31.4036 14.2935 32.4834 14.1235 32.7496C14.0193 32.9132 13.9901 32.9054 14.6002 32.8766C15.8726 32.8168 16.4019 32.6984 17.4339 32.2428C21.1655 30.596 22.683 27.0974 20.8725 24.315C20.6487 23.971 20.6708 23.9832 20.5092 24.1166ZM2.52481 24.599C2.33238 25.2424 2.7133 26.455 3.30317 27.077C3.48633 27.27 3.49732 27.2712 3.42414 27.0902C3.13005 26.3622 3.23788 25.4594 3.65319 25.1728C3.72999 25.1198 3.58974 25.0308 3.04984 24.7904C2.92427 24.7344 2.76145 24.6584 2.68801 24.6214C2.52949 24.5414 2.54154 24.5432 2.52481 24.599ZM19.7568 24.6082C19.7022 24.6368 19.5325 24.717 19.3796 24.7864C18.7896 25.0536 18.6871 25.1182 18.766 25.1726C19.1816 25.4594 19.2896 26.3618 18.9954 27.0902C18.9222 27.2712 18.9332 27.27 19.1163 27.077C19.7062 26.455 20.0871 25.2424 19.8947 24.599C19.8782 24.544 19.879 24.544 19.7568 24.6082ZM10.9747 25.8352C10.215 25.9722 9.50401 26.8016 8.9526 28.194C8.67616 28.8922 8.53237 28.9932 7.61622 29.1336C7.01332 29.226 6.97357 29.374 7.38791 29.983C7.68749 30.4234 8.05339 31.0318 8.43986 31.7318C9.13054 32.9832 9.38538 33.3982 9.73663 33.844C10.948 35.3818 11.9834 35.1296 13.2678 32.984C13.5207 32.5616 13.5523 32.506 13.9796 31.7318C14.3661 31.0318 14.732 30.4234 15.0316 29.983C15.4459 29.374 15.4062 29.226 14.8033 29.1336C13.8871 28.9932 13.7433 28.8922 13.4669 28.194C12.8021 26.5154 11.906 25.6672 10.9747 25.8352ZM8.95639 29.1456C8.77084 29.243 8.70393 29.43 8.7903 29.6098C8.8588 29.7522 9.04742 29.8232 9.16349 29.7502C9.19542 29.7302 9.21954 29.7376 9.3171 29.7978C9.66589 30.0126 9.79885 29.971 9.69042 29.6808C9.52497 29.238 9.21319 29.0108 8.95639 29.1456ZM13.1218 29.1546C12.9089 29.2636 12.6367 29.7294 12.7035 29.8706C12.7518 29.9726 12.8466 29.9554 13.1024 29.7978C13.2 29.7376 13.2241 29.7302 13.256 29.7502C13.3721 29.8232 13.5607 29.7522 13.6292 29.6098C13.7771 29.302 13.4344 28.9944 13.1218 29.1546Z"
                fill="#22110C" />
            <path
                d="M12.947 15.6054C12.936 15.6084 12.8952 15.6161 12.8562 15.6227C12.7853 15.6345 12.7853 15.6345 12.7937 15.7993C12.8228 16.3678 12.5343 16.8901 12.0288 17.1844C12.0153 17.1923 12.0996 17.4036 12.115 17.4007C12.5799 17.3137 12.8877 17.3521 13.142 17.5288C13.187 17.5601 13.2234 17.5736 13.2314 17.5619C13.2387 17.5511 13.2821 17.4932 13.3278 17.4332C13.7157 16.9234 13.7629 16.0593 13.4195 15.7548C13.3133 15.6605 13.0498 15.5773 12.947 15.6054Z"
                fill="#2430F0" />
            <path
                d="M15.6662 15.3623C15.6623 15.3743 15.6497 15.4493 15.638 15.5289C15.592 15.8447 15.4813 16.0676 15.2488 16.3128C15.101 16.4685 15.101 16.4685 15.1632 16.5463C15.3947 16.8357 15.492 17.2972 15.3988 17.6641C15.377 17.7501 15.3592 17.823 15.3592 17.826C15.3592 17.8755 15.899 17.6473 16.0882 17.5179C16.8755 16.9793 16.8618 15.8069 16.064 15.4321C15.9324 15.3703 15.6779 15.3256 15.6662 15.3623Z"
                fill="#2430F0" />
            <path
                d="M13.9693 14.2691C13.9679 14.5447 13.8111 14.9962 13.6349 15.2325C13.5541 15.3408 13.5541 15.3408 13.6727 15.4684C13.7973 15.6027 13.9122 15.8065 13.9513 15.9628C13.9745 16.0557 13.9745 16.0557 14.0663 16.0414C14.3194 16.0016 14.5365 16.0393 14.7291 16.1565C14.8531 16.232 14.8447 16.2346 14.9686 16.0791C15.402 15.5351 15.2728 14.6684 14.7177 14.3946C14.4793 14.2771 13.9697 14.1916 13.9693 14.2691Z"
                fill="#2430F0" />
            <path
                d="M12.594 13.7566C12.5778 14.1589 12.5067 14.4145 12.3364 14.6819C12.2741 14.7797 12.2741 14.7797 12.3685 14.86C12.4204 14.9041 12.504 14.9983 12.5543 15.0692C12.6554 15.212 12.6262 15.204 12.8648 15.1545C12.9375 15.1394 12.996 15.1417 13.102 15.164C13.2656 15.1984 13.2389 15.2201 13.374 14.9441C13.7556 14.1649 13.5061 13.5066 12.8183 13.478L12.6056 13.4692L12.594 13.7566Z"
                fill="#2430F0" />
            <path
                d="M10.9937 12.9153C10.3654 13.0282 10.1626 13.6205 10.4968 14.3661C10.5963 14.5881 10.5963 14.5881 10.7491 14.5897C10.8863 14.5911 10.9175 14.5994 11.0558 14.6705C11.2097 14.7498 11.2097 14.7498 11.3637 14.6705C11.5019 14.5994 11.5332 14.5911 11.6703 14.5897C11.8231 14.5881 11.8231 14.5881 11.9225 14.3661C12.3325 13.4506 11.887 12.7548 10.9937 12.9153Z"
                fill="#2430F0" />
            <path
                d="M10.44 15.2236C9.89958 15.477 9.85054 16.0949 10.3147 16.8012C10.4575 17.0184 10.4575 17.0184 10.5131 16.9301C10.8089 16.4602 11.6106 16.4602 11.9064 16.9301C11.9868 17.0579 12.3107 16.5707 12.393 16.1981C12.5399 15.5331 11.8959 14.8567 11.5318 15.2936C11.4543 15.3866 11.3592 15.5572 11.3216 15.6706C11.2489 15.8903 11.1706 15.8903 11.0978 15.6706C11.0397 15.495 10.917 15.3057 10.805 15.2186C10.7254 15.1567 10.5783 15.1587 10.44 15.2236Z"
                fill="#2430F0" />
            <path
                d="M9.31578 15.6164C8.69132 15.7069 8.564 16.7395 9.09178 17.4332C9.13742 17.4932 9.18082 17.5511 9.18818 17.5619C9.19614 17.5736 9.23252 17.5601 9.27753 17.5288C9.53189 17.3521 9.83967 17.3137 10.3046 17.4007C10.32 17.4036 10.4042 17.1923 10.3908 17.1844C9.8852 16.8901 9.5967 16.3678 9.62576 15.7993C9.63421 15.6345 9.63421 15.6345 9.56333 15.6226C9.52435 15.616 9.47903 15.6081 9.46266 15.605C9.44629 15.6019 9.38017 15.6071 9.31578 15.6164Z"
                fill="#2430F0" />
            <path
                d="M7.97358 14.2855C7.20431 14.4883 6.93092 15.4264 7.45085 16.0791C7.57477 16.2346 7.56642 16.232 7.69038 16.1565C7.88296 16.0393 8.10006 16.0016 8.35322 16.0413C8.44495 16.0558 8.44496 16.0558 8.4682 15.9628C8.50725 15.8065 8.62212 15.6027 8.74681 15.4684C8.86533 15.3408 8.86533 15.3408 8.78456 15.2325C8.60834 14.9963 8.45162 14.5447 8.45014 14.2691C8.45004 14.243 8.08747 14.2555 7.97358 14.2855Z"
                fill="#2430F0" />
            <path
                d="M9.38219 13.5013C8.86745 13.6411 8.71896 14.2774 9.04545 14.9441C9.18062 15.2201 9.15384 15.1984 9.31748 15.164C9.42348 15.1418 9.48202 15.1394 9.55469 15.1545C9.79327 15.204 9.76403 15.212 9.86517 15.0693C9.91543 14.9983 9.99904 14.9041 10.051 14.86C10.1454 14.7797 10.1454 14.7797 10.0831 14.6819C9.91315 14.415 9.84164 14.1588 9.82555 13.7591C9.81346 13.4581 9.7267 13.4077 9.38219 13.5013Z"
                fill="#2430F0" />
            <path
                d="M6.60364 15.3585C5.62191 15.4885 5.44257 16.91 6.33117 17.5179C6.52036 17.6472 7.06026 17.8755 7.06026 17.826C7.06026 17.823 7.04242 17.7501 7.02058 17.6641C6.92744 17.2973 7.02468 16.8356 7.25597 16.5466C7.31798 16.4691 7.31798 16.4691 7.16227 16.3034C6.93158 16.0578 6.80664 15.7939 6.77222 15.479C6.75599 15.3305 6.76521 15.3371 6.60364 15.3585Z"
                fill="#2430F0" />
            <path
                d="M19.2406 21.3866C17.0681 21.6196 15.4162 23.7138 15.0521 26.6964C14.9942 27.1712 14.9533 28.595 14.9969 28.6204C15.1156 28.6892 15.2004 28.6524 15.2004 28.5322C15.2004 26.7826 15.8608 25.9806 18.377 24.6746C19.0594 24.3204 19.0672 24.3156 19.494 23.9698C21.1054 22.6646 20.9619 21.202 19.2406 21.3866Z"
                fill="#2BE1B7" />
            <path
                d="M20.5091 24.1166C20.388 24.2166 20.388 24.2166 20.3971 24.6748C20.4571 27.6774 17.5019 29.3674 16.0535 27.159C15.9275 26.967 15.9367 26.9642 15.8043 27.2338C15.5367 27.779 15.4256 28.6804 15.6025 28.871C15.9014 29.1928 15.8753 29.6058 15.5203 30.174C15.4412 30.3006 15.3044 30.548 15.2163 30.724C14.8759 31.4036 14.2934 32.4834 14.1235 32.7496C14.0192 32.9132 13.99 32.9054 14.6002 32.8766C15.8725 32.8168 16.4018 32.6984 17.4339 32.2428C21.1655 30.596 22.6829 27.0974 20.8724 24.315C20.6487 23.971 20.6707 23.9832 20.5091 24.1166Z"
                fill="#2BE1B7" />
            <path
                d="M1.72528 24.059C0.811407 25.0626 0.542091 27.1354 1.13348 28.614C1.96354 30.6896 4.67947 32.6192 7.07025 32.8322C8.15364 32.9286 8.39958 32.9122 8.29596 32.7496C8.12602 32.4834 7.54352 31.4036 7.20317 30.724C7.11501 30.548 6.97823 30.3006 6.89918 30.174C6.54412 29.6058 6.51807 29.1928 6.81695 28.871C6.9939 28.6804 6.88274 27.779 6.61514 27.2338C6.48281 26.9642 6.49192 26.967 6.36601 27.159C4.91756 29.3676 1.96235 27.6774 2.02225 24.6748C2.0314 24.2166 2.0314 24.2166 1.90603 24.1152C1.75969 23.9972 1.77682 24.0024 1.72528 24.059Z"
                fill="#2BE1B7" />
            <path
                d="M2.5763 21.3932C1.40477 21.5806 1.58097 22.8806 2.92554 23.9698C3.35236 24.3156 3.36011 24.3204 4.04254 24.6746C6.55829 25.9804 7.21913 26.7828 7.21913 28.5322C7.21913 28.6524 7.30389 28.6892 7.42266 28.6204C7.44404 28.608 7.44064 27.7712 7.4174 27.324C7.30821 25.224 6.47304 23.261 5.27579 22.2906C4.48388 21.6486 3.34551 21.2702 2.5763 21.3932Z"
                fill="#2BE1B7" />
            <path
                d="M8.04904 16.4421C7.28373 16.6496 7.23013 17.715 7.95068 18.397C8.47144 18.89 7.96281 18.7744 7.39559 18.2709C7.24181 18.1344 7.24181 18.1344 7.12458 18.1467C6.64588 18.1971 5.90848 17.7707 5.51527 17.2161C5.42455 17.0881 5.42455 17.0881 5.36685 17.1561C4.54935 18.1188 4.08408 18.9808 3.55423 20.514C3.42309 20.8936 3.42178 20.864 3.57095 20.8926C6.11677 21.3794 7.79661 24.1118 7.84895 27.8512C7.86034 28.6678 7.84011 28.6188 8.12209 28.5126C8.29424 28.4476 8.32916 28.3982 8.46983 28.0208C9.11353 26.2932 9.65544 25.6082 10.5634 25.3744C10.7513 25.326 10.7458 25.3296 10.7618 25.2434C10.7981 25.0486 11.0022 24.5386 11.0758 24.459C11.2531 24.2672 11.5504 24.668 11.6576 25.2434C11.6737 25.3296 11.6682 25.326 11.856 25.3744C12.764 25.6082 13.3059 26.2932 13.9496 28.0208C14.0903 28.3982 14.1251 28.4476 14.2973 28.5126C14.5793 28.6188 14.5591 28.6678 14.5705 27.8512C14.6228 24.1116 16.3025 21.3794 18.8484 20.8926C18.9976 20.864 18.9963 20.8936 18.8652 20.514C18.3354 18.9808 17.8701 18.1188 17.0526 17.1561C16.9949 17.0881 16.9949 17.0881 16.9041 17.2161C16.5109 17.7707 15.7735 18.1971 15.2948 18.1467C15.1776 18.1344 15.1776 18.1344 15.0238 18.2709C14.4566 18.7744 13.9479 18.89 14.4688 18.397C14.9886 17.9049 15.1199 17.3968 14.8605 16.8801C14.655 16.4706 14.0211 16.2252 13.9808 16.5395C13.9164 17.0423 13.7191 17.4291 13.4219 17.6351C13.3354 17.6951 13.3354 17.6951 13.4092 17.8296C13.5789 18.139 13.495 18.5412 13.1975 18.8441C12.9458 19.1004 12.7436 19.1172 12.9746 18.8626C13.2776 18.5286 13.2565 18.1215 12.9312 18.0242C12.7365 17.966 12.123 17.9907 12.123 18.0567C12.123 18.207 11.9258 18.6689 11.8087 18.7929C11.6635 18.9467 11.633 18.88 11.733 18.6272C12.0395 17.8525 11.784 17.1141 11.2097 17.1141C10.6353 17.1141 10.38 17.8525 10.6864 18.6272C10.7864 18.88 10.7559 18.9467 10.6107 18.7929C10.4937 18.6689 10.2964 18.207 10.2964 18.0567C10.2964 17.9907 9.68289 17.966 9.48827 18.0242C9.16289 18.1215 9.14182 18.5286 9.44483 18.8626C9.67584 19.1172 9.47361 19.1004 9.22189 18.8441C8.92435 18.5412 8.8405 18.139 9.01026 17.8296C9.08405 17.6951 9.08405 17.6951 8.99747 17.6351C8.70059 17.4294 8.50296 17.0422 8.43874 16.5408C8.42819 16.4584 8.41697 16.4352 8.38318 16.4261C8.31342 16.4072 8.14845 16.4151 8.04904 16.4421Z"
                fill="#2430F0" />
            <path fillRule="evenodd" clipRule="evenodd"
                d="M10.9747 25.8352C10.215 25.9722 9.50395 26.8016 8.95254 28.194C8.67607 28.8922 8.53231 28.9932 7.61617 29.1336C7.01327 29.226 6.97351 29.374 7.38786 29.983C7.68743 30.4234 8.05333 31.0318 8.4398 31.7318C9.13044 32.9832 9.38532 33.3982 9.73657 33.844C10.9479 35.3818 11.9833 35.1296 13.2677 32.984C13.5206 32.5616 13.5522 32.506 13.9796 31.7318C14.3661 31.0318 14.732 30.4234 15.0315 29.983C15.4458 29.374 15.4061 29.226 14.8032 29.1336C13.887 28.9932 13.7433 28.8922 13.4668 28.194C12.8021 26.5154 11.9059 25.6672 10.9747 25.8352ZM8.79024 29.6098C8.70387 29.43 8.77079 29.243 8.95633 29.1456C9.21314 29.0108 9.52491 29.238 9.69037 29.6808C9.79879 29.971 9.66583 30.0126 9.31704 29.7978C9.21948 29.7376 9.19536 29.7302 9.16343 29.7502C9.04736 29.8232 8.85874 29.7522 8.79024 29.6098ZM12.7035 29.8706C12.6366 29.7294 12.9089 29.2636 13.1217 29.1546C13.4343 28.9944 13.7771 29.302 13.6291 29.6098C13.5606 29.7522 13.372 29.8232 13.256 29.7502C13.224 29.7302 13.1999 29.7376 13.1023 29.7978C12.8466 29.9554 12.7518 29.9726 12.7035 29.8706Z"
                fill="#F2C79C" />
            <path fillRule="evenodd" clipRule="evenodd"
                d="M7.12316 9.21536C6.85899 8.21264 6.03609 7.42282 4.91799 7.63343C4.03084 7.80057 3.24251 8.48725 3.03601 9.26572C3.09702 9.48257 3.19792 9.69197 3.34263 9.88472C4.36645 11.2484 6.20999 11.1108 6.96955 9.61407C7.03605 9.48307 7.08684 9.34961 7.12316 9.21536Z"
                fill="#2430F0" />
            <path fillRule="evenodd" clipRule="evenodd"
                d="M8.13378 5.44039C8.09574 5.32539 8.06563 5.20971 8.04309 5.09385C8.27434 3.8884 9.4174 2.84236 10.7691 2.59358C12.5782 2.26066 14.0683 3.50916 14.3773 5.09175C14.3546 5.20778 14.3242 5.32414 14.2857 5.44039C13.3752 8.19353 9.04435 8.19353 8.13378 5.44039Z"
                fill="#2430F0" />
            <path
                d="M16.9604 6.56604C15.6766 6.79968 15.0113 8.07604 15.298 9.2134C15.4876 8.45115 16.2287 7.79522 17.1112 7.63458C18.2681 7.42404 19.1113 8.26429 19.3832 9.27315C19.7789 7.89743 18.5171 6.28272 16.9604 6.56604Z"
                fill="#2430F0" />
            <path
                d="M8.04308 5.09386C8.27433 3.8884 9.41739 2.84236 10.7691 2.59359C12.5782 2.26066 14.0683 3.50916 14.3773 5.09175C14.7763 3.05696 12.8221 1.11948 10.6183 1.52505C8.87573 1.84575 7.7305 3.4873 8.04308 5.09386Z"
                fill="#2430F0" />
            <path
                d="M4.91797 7.63343C6.03603 7.42283 6.85897 8.21265 7.12314 9.21536C7.50691 7.79536 6.26697 6.2824 4.76721 6.5649C3.48027 6.80733 2.71864 8.13765 3.03598 9.26572C3.24248 8.48725 4.03078 7.80058 4.91797 7.63343Z"
                fill="#2430F0" />
            <path
                d="M15.9168 10.263C16.8399 11.1402 18.2621 10.97 19.0769 9.88472C19.2217 9.69175 19.3221 9.48529 19.3832 9.27318C19.1113 8.26429 18.2681 7.42404 17.1112 7.63458C16.2287 7.79522 15.4876 8.45115 15.298 9.2134C15.3938 9.59347 15.5959 9.95807 15.9168 10.263Z"
                fill="#2430F0" />
            <path fillRule="evenodd" clipRule="evenodd"
                d="M8.52289 4.00776C9.02792 3.30123 9.85103 2.76286 10.7708 2.59359C12.1471 2.3403 13.3388 3.00236 13.9663 4.0305C14.0859 3.90925 14.1953 3.786 14.2856 3.66529C13.8189 2.25737 12.2912 1.21749 10.62 1.52505C9.46539 1.73754 8.57305 2.52986 8.19324 3.50766C8.2754 3.66723 8.39143 3.83843 8.52289 4.00776Z"
                fill="#F2C79C" />
            <path
                d="M8.52295 4.00776C8.97133 4.58535 9.59905 5.14153 9.6747 5.14153C9.73194 5.14153 10.0484 4.83185 10.3772 4.51025C10.7322 4.16285 11.1015 3.80154 11.1737 3.80154C11.2431 3.80154 11.541 4.13653 11.8387 4.47153C12.1366 4.80653 12.4343 5.14153 12.5039 5.14153C12.5925 5.14153 13.396 4.60857 13.9664 4.0305C13.3389 3.00236 12.1471 2.34029 10.7708 2.59358C9.85109 2.76286 9.02798 3.30122 8.52295 4.00776Z"
                fill="#2BE1B7" />
            <path
                d="M3.04652 9.20929C3.27523 8.45429 4.04679 7.7965 4.91249 7.63343C5.57446 7.50875 6.13294 7.73472 6.53326 8.14793C6.60765 7.87093 6.66149 7.54011 6.65518 7.2624C6.20586 6.73547 5.51672 6.42268 4.76172 6.5649C3.50516 6.80158 2.74941 8.07543 3.00981 9.18547C3.02188 9.1935 3.03413 9.20143 3.04652 9.20929Z"
                fill="#2BE1B7" />
            <path
                d="M3.04651 9.20928C3.53338 9.51903 4.1971 9.65428 4.37198 9.55153C4.50736 9.472 4.57004 9.07078 4.58476 8.65757C4.59598 8.34353 4.60601 8.06239 4.66602 8.01057C4.73234 7.95328 5.05404 8.13964 5.39494 8.33714C5.76855 8.55353 6.19057 8.74228 6.29959 8.67953C6.37751 8.63468 6.45428 8.44214 6.53326 8.14793C6.13294 7.73471 5.57442 7.50875 4.91245 7.63343C4.04678 7.7965 3.27522 8.45428 3.04651 9.20928Z"
                fill="#2BE1B7" />
            <path fillRule="evenodd" clipRule="evenodd"
                d="M15.4458 7.78153C15.4755 8.00153 16.1009 9.18153 16.2697 9.22153C16.3611 9.24321 16.6737 9.01853 16.9601 8.81274C17.2025 8.63849 17.4262 8.47778 17.4808 8.49153C17.5306 8.50407 17.6255 8.65471 17.7365 8.83089C17.891 9.0761 18.0767 9.37078 18.2153 9.41153C18.3949 9.46428 19.1101 9.08539 19.4601 8.83128C19.5141 7.57717 18.3578 6.31264 16.9658 6.56603C16.2389 6.69832 15.7102 7.16492 15.4404 7.75128C15.4425 7.76053 15.4443 7.77057 15.4458 7.78153Z"
                fill="#2BE1B7" />
            <path
                d="M19.7568 24.6082C19.7022 24.6368 19.5325 24.717 19.3796 24.7864C18.7897 25.0536 18.6871 25.1182 18.766 25.1726C19.1817 25.4594 19.2896 26.3618 18.9954 27.0902C18.9222 27.2712 18.9332 27.27 19.1164 27.077C19.7062 26.455 20.0871 25.2424 19.8947 24.599C19.8782 24.544 19.879 24.544 19.7568 24.6082Z"
                fill="#F1F1F1" />
            <path
                d="M2.5248 24.599C2.33238 25.2424 2.71329 26.455 3.30317 27.077C3.48632 27.27 3.49732 27.2712 3.42414 27.0902C3.13004 26.3622 3.23787 25.4594 3.65318 25.1728C3.72999 25.1198 3.58973 25.0308 3.04983 24.7904C2.92426 24.7344 2.76144 24.6584 2.688 24.6214C2.52948 24.5414 2.54153 24.5432 2.5248 24.599Z"
                fill="#F1F1F1" />
            <path
                d="M18.464 26.4316C18.464 26.3652 18.4062 26.3116 18.335 26.3116C18.2637 26.3116 18.2059 26.3652 18.2059 26.4316C18.2059 26.4978 18.2637 26.5516 18.335 26.5516C18.4062 26.5516 18.464 26.4978 18.464 26.4316Z"
                fill="#F1F1F1" />
            <path opacity="0.2" fillRule="evenodd" clipRule="evenodd"
                d="M14.2005 5.66739C13.0959 6.90671 10.9004 7.58871 8.3918 6.01046C9.63227 8.11196 13.215 7.9976 14.2005 5.66739ZM6.65296 10.0935C5.49028 10.5835 3.91168 10.0819 3.1405 9.54775C3.19467 9.66421 3.26183 9.77703 3.34265 9.88471C4.24375 11.0849 5.77979 11.1222 6.65296 10.0935ZM19.2567 9.59585C18.5882 10.2291 17.2347 10.6793 15.6537 9.96532C15.7304 10.0694 15.818 10.169 15.9169 10.263C16.8401 11.1402 18.2622 10.97 19.077 9.88471C19.1471 9.79128 19.2068 9.69471 19.2567 9.59585Z"
                fill="#22110C" />
            <path
                d="M8.04308 5.09386C8.27433 3.8884 9.41739 2.84236 10.7691 2.5936C12.5782 2.26066 14.0683 3.50916 14.3773 5.09175C14.7763 3.05698 12.8221 1.11948 10.6183 1.52505C8.87573 1.84575 7.7305 3.48732 8.04308 5.09386Z"
                fill="#2430F0" />
            <path fillRule="evenodd" clipRule="evenodd"
                d="M8.52289 4.00776C9.02792 3.30122 9.85103 2.76286 10.7708 2.5936C12.1471 2.3403 13.3388 3.00236 13.9663 4.0305C14.0859 3.90924 14.1953 3.78602 14.2856 3.6653C13.8189 2.25737 12.2912 1.21749 10.62 1.52505C9.46539 1.73754 8.57305 2.52986 8.19324 3.50766C8.2754 3.66722 8.39143 3.83842 8.52289 4.00776Z"
                fill="#2BE1B7" />
            <g opacity="0.2">
                <g style="mix-blend-mode:hard-light">
                    <path fillRule="evenodd" clipRule="evenodd"
                        d="M12.0058 13.349C11.8607 13.0075 11.4988 12.8245 10.9938 12.9153C10.6955 12.9689 10.4931 13.1306 10.3986 13.3654C10.5976 13.1998 10.9497 13.1457 11.2125 13.1401C11.4664 13.1455 11.8038 13.1963 12.0058 13.349ZM9.7948 13.5652C9.54882 13.6033 9.09956 13.7238 8.90435 14.0012C8.96944 13.7534 9.13286 13.5691 9.38224 13.5013C9.63186 13.4335 9.74618 13.4413 9.7948 13.5652ZM8.45313 14.3349C8.4513 14.312 8.45029 14.29 8.45015 14.2691C8.45001 14.243 8.08747 14.2555 7.97358 14.2855C7.58374 14.3883 7.32122 14.6799 7.22482 15.0275C7.48556 14.6562 7.97102 14.3465 8.45313 14.3349ZM5.75745 16.3582C5.87267 15.9634 6.30202 15.5515 6.65105 15.5515C6.70041 15.5515 6.74342 15.5488 6.78079 15.5439C6.77749 15.5225 6.77469 15.5009 6.77227 15.479C6.7715 15.4717 6.77076 15.4648 6.77003 15.4582C6.76386 15.3999 6.76063 15.3698 6.74412 15.3563C6.72652 15.342 6.69385 15.3464 6.62641 15.3555C6.61922 15.3565 6.61165 15.3575 6.60369 15.3585C6.0769 15.4283 5.78111 15.8699 5.75745 16.3582ZM10.992 15.444C10.7895 15.2856 10.4899 15.223 10.0692 15.5775C10.1402 15.4272 10.2641 15.3061 10.44 15.2236C10.5783 15.1587 10.7254 15.1567 10.805 15.2186C10.8685 15.2679 10.9354 15.3501 10.992 15.444ZM12.294 15.5278C12.1124 15.1903 11.7648 15.014 11.5318 15.2936C11.4978 15.3344 11.4604 15.3902 11.426 15.4495C11.6186 15.295 11.9009 15.2258 12.294 15.5278ZM9.62902 15.728C9.63207 15.6342 9.62198 15.6325 9.5633 15.6226C9.52432 15.616 9.47899 15.6081 9.46262 15.605C9.44625 15.6019 9.38014 15.6071 9.31574 15.6164C9.00902 15.6609 8.82225 15.9326 8.77412 16.2799C8.89555 15.8826 9.35329 15.6971 9.62902 15.728ZM13.9923 16.4939C14.0877 16.2519 14.6661 16.4925 14.8606 16.8801C14.9147 16.9878 14.9517 17.0951 14.9719 17.202C14.8228 16.78 14.3534 16.5866 13.9923 16.4939ZM12.1225 18.0706C12.1229 18.0658 12.123 18.0611 12.123 18.0568C12.123 17.9907 12.7366 17.966 12.9312 18.0242C13.0234 18.0518 13.0912 18.1043 13.1341 18.1729C12.9479 18.0073 12.5427 18.0381 12.1225 18.0706ZM10.7124 17.3865C10.8253 17.2171 10.9953 17.1141 11.2098 17.1141C11.4202 17.1141 11.5878 17.2133 11.7007 17.377C11.5601 17.2665 11.3675 17.2097 11.2125 17.195C11.053 17.2101 10.8539 17.2697 10.7124 17.3865ZM9.27859 18.1844C9.32097 18.1101 9.39101 18.0533 9.48828 18.0242C9.68294 17.966 10.2965 17.9907 10.2965 18.0568C10.2965 18.061 10.2966 18.0655 10.2969 18.0702C9.86925 18.0371 9.45806 18.0067 9.27859 18.1844ZM8.43143 16.4942C8.06213 16.5891 7.58034 16.7894 7.44328 17.2315C7.4654 16.8584 7.66987 16.5449 8.04909 16.4421C8.1485 16.4151 8.31347 16.4072 8.38323 16.4261C8.40955 16.4332 8.42217 16.4488 8.43143 16.4942ZM13.5204 14.001C13.4365 13.6951 13.1922 13.4935 12.8183 13.478L12.6055 13.4692L12.6018 13.5611C12.84 13.5939 13.3174 13.7128 13.5204 14.001ZM15.1886 15.0115C15.1194 14.744 14.9587 14.5135 14.7177 14.3946C14.4793 14.2771 13.9698 14.1916 13.9693 14.2691C13.9692 14.29 13.9683 14.312 13.9664 14.3348C14.4433 14.3441 14.9243 14.6459 15.1886 15.0115ZM16.669 16.3636C16.5561 15.9671 16.1245 15.5515 15.7739 15.5515C15.7209 15.5515 15.6753 15.5484 15.636 15.5428C15.6367 15.5382 15.6374 15.5336 15.6381 15.5289C15.6497 15.4493 15.6624 15.3743 15.6662 15.3623C15.6779 15.3256 15.9324 15.3703 16.064 15.4321C16.4466 15.6118 16.6489 15.9749 16.669 16.3636ZM13.6392 16.2454C13.6131 16.039 13.5406 15.8621 13.4195 15.7548C13.3132 15.6605 13.0498 15.5773 12.947 15.6054C12.9361 15.6084 12.8952 15.6161 12.8562 15.6227C12.7974 15.6325 12.7874 15.6342 12.7905 15.7286C13.0576 15.6956 13.5017 15.8694 13.6392 16.2454Z"
                        fill="white" />
                </g>
            </g>
            <g style="mix-blend-mode:hard-light">
                <path fillRule="evenodd" clipRule="evenodd"
                    d="M20.2918 21.5654C19.5095 21.5062 18.5972 21.7674 17.9379 22.1816C17.0147 22.7616 15.5952 24.3016 15.2973 25.7916C15.215 26.2036 15.1532 26.3384 15.1074 26.3088C15.5623 23.5334 17.1635 21.6094 19.2406 21.3866C19.709 21.3364 20.0607 21.4082 20.2918 21.5654Z"
                    fill="white" fill-opacity="0.4" />
            </g>
            <g style="mix-blend-mode:hard-light">
                <path fillRule="evenodd" clipRule="evenodd"
                    d="M2.08716 21.5844C2.88973 21.495 3.85024 21.7604 4.53654 22.1916C5.45973 22.7716 6.87926 24.3116 7.17708 25.8016C7.2238 26.0352 7.26387 26.1796 7.29816 26.2556C7.00969 24.5774 6.26675 23.094 5.27573 22.2906C4.48382 21.6486 3.34545 21.2702 2.57624 21.3932C2.37294 21.4258 2.21023 21.4918 2.08716 21.5844Z"
                    fill="white" fill-opacity="0.4" />
            </g>
            <g style="mix-blend-mode:hard-light">
                <path fillRule="evenodd" clipRule="evenodd"
                    d="M9.2522 27.5234C9.9014 26.8042 10.7332 26.6816 11.1778 26.6816C11.6396 26.6816 12.5551 26.8318 13.2161 27.622C12.5851 26.3252 11.7935 25.6874 10.9748 25.8352C10.3463 25.9486 9.7512 26.5356 9.2522 27.5234Z"
                    fill="white" fill-opacity="0.4" />
            </g>
            <path opacity="0.2" fillRule="evenodd" clipRule="evenodd"
                d="M19.9451 24.9864C19.6482 25.1154 19.3158 25.2464 18.9568 25.3776C18.9031 25.293 18.8394 25.2232 18.766 25.1726C18.6871 25.1182 18.7897 25.0536 19.3796 24.7864C19.5325 24.717 19.7022 24.6368 19.7568 24.6082L19.7589 24.607C19.8347 24.5672 19.8623 24.5526 19.8766 24.5612C19.8847 24.566 19.8885 24.5784 19.8945 24.5982L19.8946 24.599C19.9286 24.7126 19.9447 24.8438 19.9451 24.9864ZM2.47485 24.9536C2.77485 25.0904 3.10944 25.229 3.46927 25.3674C3.52149 25.2874 3.58294 25.2212 3.65319 25.1728C3.73003 25.1198 3.58974 25.0308 3.04986 24.7904C2.92429 24.7344 2.76146 24.6584 2.68802 24.6214C2.6778 24.6162 2.66831 24.6114 2.65945 24.607C2.57954 24.5666 2.553 24.553 2.54061 24.5614C2.53444 24.5654 2.53177 24.5748 2.52776 24.589C2.52687 24.592 2.52592 24.5954 2.52483 24.599C2.4935 24.7038 2.47736 24.8238 2.47485 24.9536Z"
                fill="#22110C" />
            <path opacity="0.2" fillRule="evenodd" clipRule="evenodd"
                d="M6.76782 29.9412C6.70447 30.6274 6.93801 31.3948 7.04583 31.749C7.06417 31.8092 7.07889 31.8576 7.08786 31.8916C7.16477 32.1822 6.32876 32.6418 3.26221 31.2338C4.39446 32.102 5.77974 32.7172 7.07027 32.8322C8.15366 32.9286 8.3996 32.9122 8.29598 32.7496C8.12603 32.4834 7.54353 31.4036 7.20319 30.724C7.11507 30.548 6.97825 30.3006 6.89924 30.174C6.84879 30.0934 6.80501 30.0158 6.76782 29.9412Z"
                fill="#22110C" />
            <path opacity="0.2" fillRule="evenodd" clipRule="evenodd"
                d="M19.1762 31.2276C16.0987 32.643 15.2601 32.1826 15.3371 31.8916C15.3461 31.8576 15.3608 31.8094 15.3792 31.749C15.4874 31.3932 15.7226 30.6204 15.6563 29.932C15.6182 30.0094 15.5729 30.09 15.5204 30.174C15.4414 30.3006 15.3046 30.548 15.2164 30.724C14.8761 31.4036 14.2936 32.4834 14.1236 32.7496C14.0858 32.809 14.0579 32.8456 14.0667 32.867C14.0822 32.9048 14.2113 32.895 14.6003 32.8766C15.8727 32.8168 16.4019 32.6984 17.434 32.2428C18.0838 31.956 18.6665 31.6132 19.1762 31.2276Z"
                fill="#22110C" />
            <path opacity="0.2" fillRule="evenodd" clipRule="evenodd"
                d="M8.26624 31.421C8.93714 32.514 9.20902 32.9074 9.5758 33.328C10.9175 34.867 12.0643 34.6146 13.487 32.4672C13.7535 32.0652 13.7981 31.9952 14.2092 31.3226C14.1337 31.4548 14.0571 31.5916 13.9796 31.7318C13.5523 32.506 13.5207 32.5616 13.2678 32.984C11.9834 35.1296 10.948 35.3818 9.73659 33.844C9.38538 33.3982 9.1305 32.9832 8.43982 31.7318C8.38142 31.626 8.32351 31.5224 8.26624 31.421Z"
                fill="#22110C" />
            <path
                d="M11.1975 23.9116C10.9494 23.9116 10.6317 25.6916 10.4927 25.6916L10.2048 25.9616L11.1975 25.6916L12.3391 26.0316C12.2167 25.9182 11.9539 25.6916 11.8825 25.6916C11.7931 25.6916 11.4457 23.9116 11.1975 23.9116Z"
                fill="black" fill-opacity="0.2" />
            <path
                d="M9.54966 19.1315C9.41067 19.1315 8.94409 18.8015 8.94409 18.3115C9.01027 18.1882 9.14264 17.9955 9.14264 18.2115C9.14264 18.4815 9.44046 18.8315 9.51986 18.9115C9.59929 18.9915 9.68861 19.1315 9.54966 19.1315Z"
                fill="black" fill-opacity="0.2" />
            <path
                d="M6.88921 18.3115C6.32337 18.3115 5.5888 17.5615 5.21155 17.0515L5.43989 16.8515L5.95607 17.6015L7.12744 17.9515L7.35579 17.5715C7.41201 17.6582 7.54438 17.8675 7.62381 18.0115C7.72309 18.1915 7.98116 18.3315 8.18963 18.6315C8.39809 18.9315 7.60394 18.5615 7.50466 18.5115C7.42527 18.4715 7.25318 18.3482 7.17708 18.2915C7.17708 18.2982 7.11952 18.3115 6.88921 18.3115Z"
                fill="black" fill-opacity="0.2" />
            <path
                d="M8.66613 17.4015C8.43782 17.1115 8.51722 16.7715 8.47754 16.4815L9.12278 17.6615L9.07315 17.7515L9.07182 17.7509C9.00805 17.717 8.84754 17.632 8.66613 17.4015Z"
                fill="black" fill-opacity="0.2" />
            <path
                d="M10.7011 18.9515C10.4927 18.9015 10.3041 18.4115 10.3041 18.0415L10.5026 17.9515L10.6317 18.4715C10.6714 18.6316 10.9096 19.0015 10.7011 18.9515Z"
                fill="black" fill-opacity="0.2" />
            <path
                d="M12.8553 19.1315C12.9943 19.1315 13.4609 18.8015 13.4609 18.3115C13.3947 18.1882 13.2623 17.9955 13.2623 18.2115C13.2623 18.4815 12.9645 18.8315 12.8851 18.9115C12.8057 18.9915 12.7163 19.1315 12.8553 19.1315Z"
                fill="black" fill-opacity="0.2" />
            <path
                d="M15.5157 18.3115C16.0815 18.3115 16.8161 17.5615 17.1933 17.0515L16.965 16.8515L16.4488 17.6015L15.2774 17.9515L15.0491 17.5715C14.9929 17.6582 14.8605 17.8675 14.7811 18.0115C14.6818 18.1915 14.4237 18.3315 14.2153 18.6315C14.0068 18.9315 14.801 18.5615 14.9002 18.5115C14.9796 18.4715 15.1517 18.3482 15.2278 18.2915C15.2278 18.2982 15.2854 18.3115 15.5157 18.3115Z"
                fill="black" fill-opacity="0.2" />
            <path
                d="M13.7388 17.4015C13.9672 17.1115 13.8878 16.7715 13.9275 16.4815L13.2822 17.6615L13.3319 17.7515L13.3332 17.7509C13.3969 17.717 13.5574 17.632 13.7388 17.4015Z"
                fill="black" fill-opacity="0.2" />
            <path
                d="M11.6938 18.9615C11.9023 18.9115 12.1008 18.4115 12.1008 18.0415L11.9023 17.9515L11.7732 18.4715C11.7335 18.6315 11.4854 19.0115 11.6938 18.9615Z"
                fill="black" fill-opacity="0.2" />
            <path opacity="0.2"
                d="M8.8488 29.6716C8.77932 29.6716 8.99767 29.5616 8.92819 29.3716C9.09365 29.3016 9.35309 29.3736 9.54368 29.5416C9.78194 29.7516 9.78194 30.2716 9.77199 30.4916C9.76207 30.7116 8.91827 29.6716 8.8488 29.6716Z"
                fill="#22110C" />
            <path opacity="0.2"
                d="M13.5571 29.6782C13.6266 29.6782 13.4083 29.5682 13.4777 29.3782C13.3123 29.3082 13.0529 29.3802 12.8623 29.5482C12.624 29.7582 12.624 30.2782 12.634 30.4982C12.6439 30.7182 13.4877 29.6782 13.5571 29.6782Z"
                fill="#22110C" />
            <path opacity="0.2" fillRule="evenodd" clipRule="evenodd"
                d="M4.54598 24.5968C5.75431 25.325 6.92898 26.033 6.92898 26.9116C6.92898 26.9398 6.92852 26.9678 6.92761 26.9952C6.53479 26.1666 5.6829 25.5282 4.03836 24.6746C3.35594 24.3204 3.3482 24.3156 2.92139 23.9698C1.87451 23.1218 1.53591 22.146 1.99026 21.667C1.68458 22.8724 3.13811 23.7484 4.54598 24.5968Z"
                fill="#22110C" />
            <path opacity="0.2" fillRule="evenodd" clipRule="evenodd"
                d="M2.00928 21.6324L1.99991 21.6694C1.8484 22.2668 2.13224 22.7838 2.63237 23.2586C3.13259 23.7334 3.8469 24.1638 4.55111 24.5882L4.55163 24.5886C5.15541 24.9524 5.75172 25.3118 6.19701 25.6902C6.6422 26.0684 6.93894 26.4676 6.93894 26.9116C6.93894 26.94 6.93848 26.968 6.93757 26.9954L6.91868 26.9994C6.52743 26.1742 5.67845 25.537 4.03388 24.6834C3.69283 24.5064 3.51981 24.4164 3.3788 24.3274C3.23762 24.2384 3.12852 24.1504 2.91521 23.9776C2.39083 23.5528 2.04317 23.0956 1.88365 22.6836C1.72416 22.2718 1.75224 21.9034 1.98311 21.66L2.00928 21.6324ZM1.90214 22.6764C2.06005 23.0842 2.40513 23.5388 2.92764 23.962C3.14115 24.135 3.24933 24.2222 3.38934 24.3106C3.52948 24.399 3.70156 24.4886 4.04296 24.6658C5.66296 25.5066 6.51664 26.14 6.91871 26.9538C6.91896 26.9398 6.9191 26.9258 6.9191 26.9116C6.9191 26.477 6.62846 26.0828 6.18422 25.7054C5.74025 25.3282 5.14528 24.9696 4.5409 24.6054L4.54024 24.605C3.8368 24.181 3.1207 23.7496 2.61875 23.273C2.12717 22.8064 1.83881 22.2946 1.97151 21.7028C1.7719 21.9384 1.75052 22.2848 1.90214 22.6764Z"
                fill="#22110C" />
            <path opacity="0.2" fillRule="evenodd" clipRule="evenodd"
                d="M17.8889 24.5968C16.6805 25.325 15.5059 26.033 15.5059 26.9116C15.5059 26.924 15.506 26.9364 15.5061 26.9486C15.9085 26.1426 16.7589 25.5122 18.3729 24.6746C19.0553 24.3204 19.0631 24.3156 19.4899 23.9698C20.5364 23.122 20.8428 22.208 20.4574 21.7218C20.706 22.8992 19.2753 23.7614 17.8889 24.5968Z"
                fill="#22110C" />
            <path opacity="0.2" fillRule="evenodd" clipRule="evenodd"
                d="M20.5197 22.714C20.3596 23.1112 20.0201 23.553 19.496 23.9776C19.2827 24.1504 19.1736 24.2384 19.0324 24.3276C18.8914 24.4164 18.7184 24.5064 18.3773 24.6836C16.7633 25.5212 15.9157 26.1504 15.5149 26.9532L15.4961 26.9488C15.4959 26.9364 15.4958 26.924 15.4958 26.9116C15.4958 26.4676 15.7926 26.0684 16.2377 25.6902C16.6831 25.3118 17.2794 24.9524 17.8832 24.5886L17.8837 24.5882C18.5771 24.1704 19.2804 23.7464 19.7794 23.2802C20.2784 22.814 20.5707 22.3074 20.4476 21.724L20.465 21.7156C20.6608 21.9624 20.6797 22.3168 20.5197 22.714ZM20.4754 21.7628C20.6408 22.0002 20.6523 22.3318 20.5014 22.7064C20.343 23.0996 20.006 23.5388 19.4836 23.962C19.27 24.135 19.1619 24.2222 19.0219 24.3106C18.8817 24.399 18.7096 24.4886 18.3682 24.6658C16.7786 25.4908 15.927 26.1158 15.5157 26.9078C15.5174 26.4746 15.8076 26.0818 16.2506 25.7054C16.6945 25.3282 17.2895 24.9696 17.8939 24.6054L17.8945 24.605C18.5873 24.1876 19.2922 23.7628 19.7929 23.2948C20.2816 22.8382 20.5778 22.3384 20.4754 21.7628Z"
                fill="#22110C" />
            <g style="mix-blend-mode:multiply">
                <path fillRule="evenodd" clipRule="evenodd"
                    d="M1.54703 24.2736C1.53506 25.2646 1.57245 29.5416 6.56175 29.5416C6.58215 29.5416 6.60245 29.5416 6.62257 29.5414C6.57451 29.2782 6.63817 29.059 6.81284 28.871C6.9898 28.6804 6.87864 27.779 6.61103 27.2338C6.54019 27.0894 6.5099 27.0232 6.47769 27.0222C6.44979 27.0214 6.42041 27.0698 6.3619 27.159C4.91346 29.3676 1.95825 27.6774 2.01815 24.6748C2.0273 24.2166 2.0273 24.2166 1.90192 24.1152C1.81058 24.0416 1.78293 24.016 1.76251 24.0208C1.75022 24.0238 1.74055 24.0378 1.72118 24.059C1.66024 24.126 1.60217 24.1976 1.54703 24.2736Z"
                    fill="black" fill-opacity="0.2" />
            </g>
            <path opacity="0.2" fillRule="evenodd" clipRule="evenodd"
                d="M20.8966 24.3586C20.9041 25.4582 20.7681 29.5616 15.8812 29.5616C15.8487 29.5616 15.8167 29.5614 15.7849 29.5612C15.84 29.2892 15.7775 29.0638 15.5985 28.871C15.4216 28.6804 15.5327 27.7788 15.8003 27.2338C15.8712 27.0894 15.9014 27.0232 15.9336 27.0222C15.9616 27.0214 15.9909 27.0698 16.0494 27.159C17.4979 29.3674 20.453 27.6774 20.3933 24.6748C20.3867 24.349 20.3847 24.2548 20.4278 24.1918C20.4453 24.166 20.4701 24.1456 20.5052 24.1166C20.5708 24.0624 20.6061 24.0284 20.6398 24.0298C20.6893 24.032 20.7354 24.1106 20.8684 24.315C20.8779 24.3296 20.8872 24.3442 20.8966 24.3586Z"
                fill="#22110C" />
            <path opacity="0.2" fillRule="evenodd" clipRule="evenodd"
                d="M10.3417 13.5698C10.3118 13.7974 10.3597 14.0696 10.4927 14.3661C10.5922 14.5881 10.5922 14.5881 10.7449 14.5898C10.8821 14.5912 10.9133 14.5994 11.0516 14.6706C11.2056 14.7498 11.2056 14.7498 11.3595 14.6706C11.4978 14.5994 11.529 14.5912 11.6662 14.5898C11.8189 14.5881 11.8189 14.5881 11.9184 14.3661C12.0512 14.0694 12.0943 13.7958 12.0613 13.5669C11.9954 13.9372 11.8435 14.4212 11.5029 14.4616C11.3554 14.4928 11.2528 14.4948 11.2173 14.4918L11.215 14.4915H11.1875H11.1852C11.1497 14.4946 11.0471 14.4928 10.8997 14.4616C10.5599 14.4213 10.4079 13.9397 10.3417 13.5698ZM12.3322 14.6819C12.5025 14.4145 12.5736 14.159 12.5898 13.7567L12.5983 13.5454C12.6636 13.9077 12.6461 14.415 12.3476 14.8457C12.2702 14.7794 12.2739 14.7736 12.3322 14.6819ZM13.5453 14.3412C13.5316 14.5261 13.4744 14.7306 13.3698 14.9441C13.3586 14.967 13.3485 14.9879 13.3393 15.0068C13.2832 15.1227 13.2612 15.1681 13.2274 15.1803C13.2055 15.1881 13.1788 15.1821 13.1348 15.1722C13.1237 15.1696 13.1114 15.1669 13.0978 15.164C12.9918 15.1418 12.9333 15.1394 12.8606 15.1545C12.8415 15.1585 12.8242 15.1622 12.8083 15.1655C12.8049 15.1663 12.8017 15.1669 12.7984 15.1676C12.8114 15.128 12.9126 15.0957 13.0158 15.0627C13.1128 15.0318 13.2116 15.0002 13.2401 14.9615C13.3815 14.7695 13.4895 14.5759 13.5453 14.3412ZM13.9652 14.2691C13.9637 14.5447 13.807 14.9963 13.6308 15.2325C13.5555 15.3334 13.5504 15.3403 13.646 15.4442C13.8489 15.1488 14.0601 14.5673 13.9802 14.2504C13.9705 14.255 13.9652 14.2612 13.9652 14.2691ZM15.218 15.205C15.192 15.3742 15.0993 15.7303 14.9574 15.8816C14.7887 16.0616 14.7192 16.0816 14.5802 16.0216C14.4975 15.9859 14.3769 16.0033 14.2891 16.0268C14.4485 16.0329 14.5925 16.0759 14.7249 16.1565L14.7291 16.1591L14.7367 16.1637C14.7849 16.1931 14.8115 16.2094 14.8359 16.2064C14.8662 16.2027 14.8929 16.1691 14.9527 16.0939L14.9587 16.0864L14.9645 16.0791C15.1655 15.8268 15.2455 15.5049 15.218 15.205ZM16.6585 16.2875C16.6234 16.5667 16.5235 17.0632 16.1387 17.3915C15.7767 17.7006 15.5034 17.7215 15.4438 17.2815C15.4381 17.2391 15.43 17.2165 15.4204 17.2099C15.4383 17.3652 15.4309 17.5218 15.3947 17.6641C15.3729 17.7501 15.355 17.823 15.355 17.826C15.355 17.8755 15.8949 17.6473 16.0841 17.5179C16.5186 17.2206 16.7092 16.7303 16.6585 16.2875ZM15.6323 15.5401C15.5852 15.85 15.4744 16.0705 15.2447 16.3128C15.0969 16.4686 15.0969 16.4686 15.1591 16.5464C15.1658 16.5547 15.1723 16.5631 15.1788 16.5718C15.3766 16.3692 15.5971 15.9824 15.6323 15.5401ZM13.6454 16.478C13.6086 16.6896 13.5481 16.9211 13.4585 17.0315C13.2798 17.2516 13.0415 17.3115 12.8529 17.2815C12.7581 17.2665 12.6009 17.3085 12.4634 17.3575C12.7423 17.3456 12.954 17.4011 13.1379 17.5289C13.1829 17.5601 13.2193 17.5736 13.2272 17.562C13.2345 17.5511 13.2779 17.4932 13.3236 17.4332C13.5255 17.1678 13.6351 16.8064 13.6454 16.478ZM12.0428 17.2597C12.3286 17.1079 12.7868 16.7016 12.7811 16.0553C12.7257 16.5217 12.4531 16.935 12.0246 17.1845C12.0194 17.1875 12.0287 17.2204 12.0428 17.2597ZM12.405 16.0988C12.3168 16.3609 12.1205 16.7731 11.8106 16.6615C11.5326 16.5615 11.3639 16.5415 11.2249 16.5415C11.216 16.5415 11.2082 16.5424 11.2013 16.544C11.1944 16.5424 11.1865 16.5415 11.1776 16.5415C11.0386 16.5415 10.8699 16.5615 10.5919 16.6615C10.3122 16.7622 10.1251 16.4363 10.0264 16.1791C10.0724 16.3726 10.1669 16.5827 10.3106 16.8013C10.4006 16.9382 10.4338 16.9888 10.4601 16.9854C10.4754 16.9833 10.4884 16.9628 10.509 16.9301C10.8047 16.4603 11.6064 16.4603 11.9022 16.9301C11.9826 17.0579 12.3065 16.5707 12.3888 16.1981C12.3961 16.165 12.4015 16.1319 12.405 16.0988ZM8.75757 16.4803C8.76101 16.7948 8.86719 17.1436 9.08754 17.4332C9.13321 17.4932 9.17661 17.5511 9.18397 17.562C9.19189 17.5736 9.22828 17.5601 9.27329 17.5289C9.45501 17.4026 9.66397 17.3469 9.93803 17.3571C9.80082 17.3083 9.64417 17.2665 9.54962 17.2815C9.361 17.3115 9.12277 17.2516 8.94406 17.0315C8.85474 16.9215 8.79434 16.6913 8.75757 16.4803ZM9.62362 15.9887C9.58422 16.6794 10.0721 17.1097 10.3669 17.2635C10.3819 17.2225 10.3919 17.1876 10.3865 17.1845C9.93771 16.9232 9.65994 16.4822 9.62362 15.9887ZM8.76016 15.4495C8.86095 15.3405 8.85695 15.3351 8.78039 15.2325C8.60417 14.9963 8.44744 14.5447 8.44597 14.2691C8.44594 14.2649 8.43647 14.2617 8.42014 14.2594C8.34596 14.5801 8.55815 15.1586 8.76016 15.4495ZM7.1857 15.2122C7.15541 15.5027 7.23579 15.8144 7.44664 16.0791C7.45071 16.0842 7.45463 16.0891 7.45842 16.0939C7.51826 16.1691 7.54494 16.2027 7.57526 16.2064C7.59962 16.2094 7.6263 16.1931 7.6745 16.1637C7.67825 16.1614 7.68217 16.159 7.6862 16.1565C7.81654 16.0772 7.95816 16.0343 8.11457 16.0271C8.02672 16.0034 7.90536 15.9857 7.82236 16.0216C7.68336 16.0816 7.61389 16.0616 7.44514 15.8816C7.30527 15.7324 7.21315 15.3841 7.1857 15.2122ZM8.87882 14.4216C8.9 14.5875 8.95345 14.7647 9.04134 14.9441C9.05255 14.967 9.06265 14.9878 9.07183 15.0068C9.12795 15.1226 9.14997 15.1681 9.1838 15.1803C9.2056 15.1881 9.23235 15.1821 9.27637 15.1722C9.28749 15.1696 9.29976 15.1669 9.31332 15.164C9.41936 15.1418 9.47787 15.1394 9.55057 15.1545C9.5696 15.1585 9.58696 15.1622 9.6028 15.1655C9.60301 15.1656 9.60322 15.1656 9.60343 15.1657C9.5878 15.1269 9.48821 15.0951 9.38676 15.0627C9.28973 15.0318 9.19098 15.0002 9.16248 14.9615C9.03751 14.7919 8.93863 14.6209 8.87882 14.4216ZM9.79753 13.5851C9.81141 13.6298 9.81856 13.6873 9.82143 13.7591C9.83749 14.1588 9.90904 14.4151 10.0789 14.6819C10.1386 14.7756 10.1411 14.7796 10.0582 14.8503C9.76731 14.4341 9.74039 13.9454 9.79753 13.5851ZM6.99094 17.2082C6.97755 17.2049 6.96612 17.2266 6.95869 17.2815C6.89913 17.7215 6.62584 17.7006 6.2638 17.3915C5.90867 17.0884 5.79618 16.6421 5.75338 16.3556C5.73206 16.7779 5.91445 17.2356 6.32704 17.5179C6.51623 17.6473 7.05614 17.8755 7.05614 17.826C7.05614 17.823 7.03826 17.7501 7.01642 17.6641C6.98014 17.5213 6.97278 17.364 6.99094 17.2082ZM7.22867 16.5767C7.23625 16.5665 7.24396 16.5564 7.25181 16.5466C7.31386 16.4691 7.31386 16.4691 7.15815 16.3034C6.92742 16.0579 6.80248 15.7939 6.7681 15.4791C6.76732 15.4722 6.76666 15.4657 6.76599 15.4595C6.77889 15.9388 7.01768 16.3635 7.22867 16.5767Z"
                fill="#22110C" />
            <path
                d="M18.5435 26.0316C18.5435 25.7886 18.7435 25.5916 18.9902 25.5916C19.2369 25.5916 19.4369 25.7886 19.4369 26.0316C19.4369 26.2746 19.2369 26.4716 18.9902 26.4716C18.7435 26.4716 18.5435 26.2746 18.5435 26.0316Z"
                fill="#F1F1F1" />
            <path
                d="M2.95825 26.0316C2.95825 25.7886 3.15826 25.5916 3.40496 25.5916C3.65165 25.5916 3.85167 25.7886 3.85167 26.0316C3.85167 26.2746 3.65165 26.4716 3.40496 26.4716C3.15826 26.4716 2.95825 26.2746 2.95825 26.0316Z"
                fill="#F1F1F1" />
            <path
                d="M4.14946 26.4316C4.14946 26.3652 4.09169 26.3116 4.02039 26.3116C3.94913 26.3116 3.89136 26.3652 3.89136 26.4316C3.89136 26.4978 3.94913 26.5516 4.02039 26.5516C4.09169 26.5516 4.14946 26.4978 4.14946 26.4316Z"
                fill="#F1F1F1" />
        </g>
        <path
            d="M128.355 26.3904L128.847 28.8115C128.506 29.048 128.014 29.2637 127.372 29.4585C126.744 29.6394 126.116 29.7298 125.487 29.7298C124.272 29.7298 123.261 29.3402 122.455 28.561C121.663 27.7818 121.267 26.613 121.267 25.0546V20.8178H119.26V18.0001H121.267V15.5164L124.197 14.8694V18.0001H128.376V20.8178H124.197V24.8877C124.197 26.2652 124.798 26.9539 125.999 26.9539C126.532 26.9539 127.317 26.7661 128.355 26.3904Z"
            fill="#22110C" />
        <path
            d="M113.056 29.7298C111.541 29.7298 110.277 29.375 109.267 28.6654C108.256 27.9418 107.648 26.9539 107.443 25.7016H110.414C110.66 26.7313 111.568 27.2461 113.138 27.2461C114.408 27.2461 115.043 26.933 115.043 26.3069C115.043 26.2234 115.03 26.1469 115.002 26.0773C114.989 26.0077 114.955 25.9451 114.9 25.8895C114.859 25.8338 114.811 25.7851 114.757 25.7434C114.702 25.6877 114.62 25.639 114.511 25.5972C114.415 25.5555 114.326 25.5207 114.245 25.4929C114.163 25.4651 114.04 25.4303 113.876 25.3885C113.725 25.3468 113.589 25.312 113.466 25.2842C113.357 25.2564 113.2 25.2216 112.995 25.1798C112.79 25.1381 112.612 25.0964 112.462 25.0546C110.782 24.6511 109.608 24.2128 108.939 23.7397C108.283 23.2527 107.956 22.5292 107.956 21.5691C107.956 20.3725 108.399 19.4402 109.287 18.7723C110.188 18.0905 111.39 17.7496 112.893 17.7496C114.395 17.7496 115.562 18.0836 116.396 18.7515C117.228 19.4054 117.748 20.2959 117.952 21.423H114.982C114.736 20.6438 114.006 20.2542 112.79 20.2542C111.533 20.2542 110.905 20.5742 110.905 21.2143C110.905 21.4647 111.035 21.6456 111.294 21.7569C111.554 21.8682 112.141 22.0282 113.056 22.237C113.972 22.4457 114.695 22.6405 115.228 22.8214C115.76 22.9884 116.266 23.211 116.744 23.4892C117.222 23.7675 117.563 24.1015 117.768 24.4911C117.973 24.8807 118.075 25.3537 118.075 25.9103C118.075 27.1487 117.604 28.0949 116.662 28.7489C115.719 29.4028 114.518 29.7298 113.056 29.7298Z"
            fill="#22110C" />
        <path
            d="M100.103 17.7496C101.947 17.7496 103.401 18.3966 104.467 19.6906C105.545 20.9847 106.01 22.5918 105.86 24.512H97.2145C97.3102 25.4025 97.6243 26.0842 98.1567 26.5574C98.6896 27.0304 99.3517 27.267 100.144 27.267C100.717 27.267 101.23 27.1417 101.68 26.8913C102.131 26.6269 102.452 26.2721 102.643 25.8269H105.675C105.279 27.1209 104.583 28.0949 103.586 28.7489C102.589 29.4028 101.448 29.7298 100.164 29.7298C98.4165 29.7298 96.9891 29.1663 95.8831 28.0392C94.7768 26.9122 94.2236 25.486 94.2236 23.7606C94.2236 22.0352 94.7768 20.602 95.8831 19.4611C96.9891 18.3201 98.3958 17.7496 100.103 17.7496ZM100.083 20.2124C99.3861 20.2124 98.8056 20.4072 98.3411 20.7969C97.877 21.1725 97.5492 21.6804 97.3578 22.3205H102.746C102.582 21.6804 102.268 21.1725 101.803 20.7969C101.339 20.4072 100.765 20.2124 100.083 20.2124Z"
            fill="#22110C" />
        <path
            d="M91.1739 15.7669C89.8492 15.7669 89.1871 16.4974 89.1871 17.9584V18.0001H92.9358V20.8178H89.1871V29.4794H86.2576V20.8178H84.25V18.0001H86.2576V17.8123C86.2576 16.2817 86.7013 15.1268 87.5889 14.3476C88.4769 13.5545 89.5625 13.1579 90.8462 13.1579C91.8705 13.1579 92.7584 13.3319 93.5093 13.6797L92.9768 16.1008L92.5877 15.9964C92.0685 15.8434 91.5974 15.7669 91.1739 15.7669Z"
            fill="#22110C" />
        <path
            d="M81.1606 12.6987C81.6934 12.6987 82.1302 12.8657 82.4716 13.1997C82.813 13.5197 82.9838 13.9371 82.9838 14.4519C82.9838 14.9668 82.813 15.3911 82.4716 15.7251C82.1302 16.059 81.6934 16.226 81.1606 16.226C80.6418 16.226 80.2046 16.059 79.8495 15.7251C79.5081 15.3911 79.3374 14.9668 79.3374 14.4519C79.3374 13.951 79.5081 13.5336 79.8495 13.1997C80.2046 12.8657 80.6418 12.6987 81.1606 12.6987ZM79.6855 29.4794V18.0001H82.615V29.4794H79.6855Z"
            fill="#22110C" />
        <path
            d="M73.374 17.7496C74.644 17.7496 75.6409 18.1531 76.3648 18.9602C77.0887 19.7672 77.4505 20.8734 77.4505 22.2787V29.4794H74.521V22.9257C74.521 22.1465 74.3573 21.5621 74.0295 21.1725C73.7017 20.7829 73.1623 20.5881 72.411 20.5881C70.7176 20.5881 69.8707 21.5412 69.8707 23.4475V29.4794H66.9412V18.0001H69.8707V19.5654C70.7176 18.3549 71.8852 17.7496 73.374 17.7496Z"
            fill="#22110C" />
        <path
            d="M61.6775 18.0001H64.607L64.5866 29.4794H61.6571V27.9349C60.7965 29.1315 59.6222 29.7298 58.1335 29.7298C56.6447 29.7298 55.4157 29.1732 54.4461 28.0601C53.4765 26.933 52.9917 25.4929 52.9917 23.7397C52.9917 21.9865 53.4765 20.5534 54.4461 19.4402C55.4294 18.3131 56.6517 17.7496 58.1131 17.7496C59.6152 17.7496 60.8036 18.3688 61.6775 19.6072V18.0001ZM58.789 26.8913C59.6222 26.8913 60.3117 26.5991 60.8582 26.0147C61.4044 25.4303 61.6775 24.672 61.6775 23.7397C61.6775 22.8075 61.4044 22.0491 60.8582 21.4647C60.3117 20.8803 59.6222 20.5881 58.789 20.5881C57.9561 20.5881 57.2732 20.8803 56.7404 21.4647C56.2079 22.0491 55.9415 22.8075 55.9415 23.7397C55.9415 24.672 56.2079 25.4303 56.7404 26.0147C57.2869 26.5991 57.9698 26.8913 58.789 26.8913Z"
            fill="#22110C" />
        <path
            d="M47.1317 17.7496C48.3337 17.7496 49.283 18.1462 49.9795 18.9393C50.676 19.7324 51.0241 20.8247 51.0241 22.2161V29.4794H48.0946V22.8631C48.0946 22.1117 47.9376 21.5482 47.6235 21.1725C47.3231 20.7829 46.8313 20.5881 46.1484 20.5881C45.3839 20.5881 44.8034 20.8386 44.4072 21.3395C44.0111 21.8265 43.8131 22.5292 43.8131 23.4475V29.4794H40.8836V22.8631C40.8836 22.1117 40.7265 21.5482 40.4125 21.1725C40.112 20.7829 39.6202 20.5881 38.9374 20.5881C38.1728 20.5881 37.5853 20.8386 37.1759 21.3395C36.7798 21.8265 36.5817 22.5292 36.5817 23.4475L36.602 29.4794H33.6522V18.0001H36.602V19.5237C37.4216 18.341 38.5346 17.7496 39.9413 17.7496C41.5801 17.7496 42.7204 18.4732 43.3626 19.9202C44.2365 18.4732 45.4929 17.7496 47.1317 17.7496Z"
            fill="#22110C" />
    </g>
    <defs>
        <clipPath id="clip0_1194_5139">
            <rect width="129" height="35" fill="white" transform="translate(0 0.5)" />
        </clipPath>
    </defs>
</svg>
