<svg xmlns="http://www.w3.org/2000/svg" width="428" height="114" fill="none" viewBox="0 0 428 114"><g clip-path="url(#clip0_2840_12790)"><mask id="mask0_2840_12790" width="75" height="114" x="0" y="0" maskUnits="userSpaceOnUse" style="mask-type:luminance"><path fill="#fff" d="M74.4348 0H0V114H74.4348V0Z"/></mask><g mask="url(#mask0_2840_12790)"><path fill="#22110c" fill-rule="evenodd" d="M35.644 0.0800637C20.5653 1.56578 20.0342 23.8921 35.0183 26.3905C35.6972 26.5037 35.9123 26.5632 35.9279 26.6419C35.9392 26.6987 35.8845 27.8245 35.8067 29.1438C35.7288 30.463 35.6307 33.0571 35.5887 34.9082C35.5467 36.7594 35.4975 38.2848 35.4793 38.2981C35.4613 38.3112 35.2164 38.435 34.9352 38.5732C34.4084 38.8321 33.7156 39.4006 33.437 39.8026C33.2808 40.0282 33.2808 40.0282 32.3217 40.0595C30.8072 40.109 29.8841 40.4793 29.0459 41.3733C28.8135 41.6212 28.6008 41.7969 28.5725 41.7641C28.5442 41.7314 27.6703 40.4442 26.6303 38.9035C25.5904 37.3629 24.4096 35.628 24.0064 35.0484L23.2732 33.9942L23.7034 33.5175C31.7268 24.6264 20.5077 11.2354 10.9677 18.3161C1.47171 25.3641 9.98263 40.1481 20.9009 35.5708C20.9458 35.5519 21.7569 36.5663 22.8194 37.97C23.8317 39.3075 25.0962 40.9566 25.6293 41.6345C26.1624 42.3126 26.6436 42.9352 26.6986 43.0182C26.8116 43.1887 26.848 43.1639 26.2373 43.3316C24.5439 43.7968 22.9474 45.2025 22.631 46.507C22.5894 46.6783 22.5213 46.8193 22.4797 46.8205C19.6181 46.8965 17.4282 49.0221 17.3973 51.7539C17.3868 52.6831 17.3868 52.6831 16.9971 52.9145C13.4502 55.0199 8.63832 62.0829 8.29473 65.6881C8.24396 66.221 8.26397 66.2034 7.56211 66.3232C5.97837 66.5936 5.0532 67.1655 4.07765 68.4769C2.84224 70.138 2.72827 71.5659 3.6703 73.5821C3.98938 74.2654 4.00691 74.1443 3.48092 74.8857C-2.08108 82.7217 -0.922397 91.9173 6.56061 99.3259C11.4547 104.171 18.3247 107.125 26.0268 107.695C28.9677 107.913 29.3044 108.024 30.0619 109.022C35.0425 115.582 39.3416 115.582 44.3222 109.022C45.0797 108.024 45.4164 107.913 48.3573 107.695C59.8696 106.843 69.5016 100.532 73.1121 91.4736C75.4136 85.7 74.6831 80.2182 70.9015 74.8804C70.377 74.1398 70.3948 74.2641 70.7137 73.5821C71.6557 71.5659 71.5417 70.138 70.3066 68.4769C69.331 67.1655 68.4056 66.5936 66.822 66.3232C66.1198 66.2034 66.1402 66.221 66.0895 65.6881C65.9769 64.506 64.7115 61.4722 63.5044 59.489C62.0208 57.0519 59.1385 53.9542 57.387 52.9145C56.9973 52.6831 56.9973 52.6831 56.9867 51.7539C56.9559 49.0221 54.766 46.8965 51.9044 46.8205C51.8628 46.8193 51.7946 46.6783 51.7531 46.507C51.4366 45.2025 49.8401 43.7968 48.1467 43.3316C47.536 43.1639 47.5724 43.1887 47.6855 43.0182C47.7404 42.9352 48.2216 42.3126 48.7548 41.6345C49.2879 40.9566 50.5524 39.3075 51.5647 37.97C52.6271 36.5663 53.4382 35.5519 53.4831 35.5708C64.4014 40.1481 72.9125 25.3641 63.4163 18.3161C53.8762 11.2354 42.6573 24.6264 50.6806 33.5175L51.1109 33.9942L50.3777 35.0484C49.9745 35.628 48.7936 37.3629 47.7537 38.9035C46.7138 40.4442 45.8398 41.7314 45.8116 41.7641C45.7833 41.7969 45.5706 41.6212 45.3381 41.3733C44.5 40.4793 43.5769 40.109 42.0624 40.0595C41.1032 40.0282 41.1032 40.0282 40.9492 39.8058C40.5457 39.2234 39.6158 38.562 38.8637 38.3221C38.5262 38.2145 38.5262 38.2145 38.5343 34.2597C38.5387 32.0844 38.5276 29.4575 38.5094 28.4221L38.4765 26.5393L39.3658 26.3908C56.2184 23.5756 52.6577 -1.59626 35.644 0.0800637ZM35.2298 3.33871C29.4481 4.3833 25.6485 9.73006 26.6856 14.9628C26.7604 15.3402 26.8603 15.717 26.9865 16.0916C30.0076 25.0589 44.3765 25.0589 47.3975 16.0916C47.5252 15.7129 47.626 15.3339 47.7015 14.956C49.0253 8.32839 42.5416 2.01771 35.2298 3.33871ZM15.8167 19.7542C11.5469 20.5438 9.01992 24.8769 10.0728 28.5512C10.2752 29.2575 10.61 29.9395 11.0901 30.5674C14.487 35.0091 20.6035 34.561 23.1236 29.6858C23.3443 29.2591 23.5128 28.8244 23.6333 28.3872C24.9066 23.762 20.7927 18.8341 15.8167 19.7542ZM56.272 19.7579C52.0126 20.519 49.8051 24.6762 50.7563 28.3808C51.0741 29.6187 51.7449 30.8063 52.8095 31.7995C55.8721 34.6567 60.5906 34.1022 63.294 30.5674C63.7746 29.9388 64.1078 29.2664 64.3103 28.5754C65.6233 24.0945 61.4367 18.8351 56.272 19.7579ZM36.4754 40.4384C34.391 40.8062 33.7178 42.7355 34.8268 45.1639C35.1569 45.887 35.1569 45.887 35.6638 45.8922C36.1189 45.897 36.2225 45.9237 36.6812 46.1555C37.192 46.4136 37.192 46.4136 37.7028 46.1555C38.1616 45.9237 38.2652 45.897 38.7203 45.8922C39.227 45.887 39.227 45.887 39.557 45.1639C40.9174 42.182 39.4393 39.9155 36.4754 40.4384ZM31.1286 42.3472C29.4208 42.8026 28.9282 44.8751 30.0114 47.0464C30.4599 47.9454 30.371 47.8748 30.9139 47.7629C31.2656 47.6903 31.4599 47.6826 31.701 47.7318C32.4925 47.893 32.3955 47.9192 32.7311 47.4541C32.8979 47.223 33.1752 46.9164 33.3475 46.7726C33.6607 46.5111 33.6607 46.5111 33.454 46.1925C32.8903 45.3233 32.653 44.4885 32.5996 43.1867C32.5595 42.2065 32.2717 42.0423 31.1286 42.3472ZM41.7847 43.1788C41.731 44.4891 41.4951 45.3214 40.9301 46.1925C40.7234 46.5111 40.7234 46.5111 41.0366 46.7726C41.2088 46.9164 41.4862 47.223 41.653 47.4541C41.9885 47.9192 41.8915 47.893 42.6831 47.7318C42.9242 47.6826 43.1184 47.6903 43.4701 47.7629C44.0131 47.8748 43.9242 47.9454 44.3727 47.0464C45.6388 44.5085 44.8109 42.3643 42.5291 42.2713L41.823 42.2426L41.7847 43.1788ZM26.4549 44.9013C23.9026 45.5618 22.9956 48.6174 24.7206 50.7433C25.1317 51.25 25.1041 51.2413 25.5153 50.9955C26.1543 50.6137 26.8746 50.4908 27.7145 50.6204C28.0189 50.6673 28.0189 50.6673 28.096 50.3645C28.2256 49.8556 28.6067 49.1916 29.0204 48.7543C29.4137 48.3386 29.4137 48.3386 29.1458 47.9857C28.561 47.2164 28.041 45.7456 28.0362 44.8478C28.0357 44.7628 26.8328 44.8035 26.4549 44.9013ZM46.3479 44.8478C46.343 45.7456 45.8231 47.2164 45.2383 47.9857C44.9704 48.3386 44.9704 48.3386 45.3637 48.7543C45.7773 49.1916 46.1585 49.8556 46.2881 50.3645C46.3652 50.6673 46.3652 50.6673 46.6696 50.6204C47.5095 50.4908 48.2298 50.6137 48.8688 50.9955C49.28 51.2413 49.2523 51.25 49.6635 50.7433C51.1011 48.9716 50.6725 46.1484 48.8307 45.2568C48.0399 44.874 46.3493 44.5955 46.3479 44.8478ZM34.6381 47.9568C32.8452 48.7821 32.6825 50.7948 34.2226 53.0955C34.6961 53.8029 34.6961 53.8029 34.8807 53.5151C35.8621 51.9848 38.522 51.9848 39.5034 53.5151C39.7703 53.9313 40.8449 52.3446 41.1179 51.131C41.6052 48.9649 39.4685 46.7618 38.2605 48.1849C38.0036 48.4877 37.688 49.0436 37.5633 49.413C37.3218 50.1284 37.0622 50.1284 36.8208 49.413C36.6277 48.841 36.2208 48.2242 35.8492 47.9406C35.5851 47.739 35.097 47.7455 34.6381 47.9568ZM21.9099 48.3964C18.6527 48.8196 18.0576 53.4496 21.0058 55.4296C21.6335 55.851 23.4249 56.5944 23.4249 56.4333C23.4249 56.4234 23.3657 56.1861 23.2932 55.9058C22.9842 54.7112 23.3068 53.2075 24.0742 52.266C24.2799 52.0135 24.2799 52.0135 23.7633 51.4738C22.9978 50.674 22.5834 49.8143 22.4692 48.7889C22.4153 48.3052 22.4459 48.3266 21.9099 48.3964ZM51.9778 48.4085C51.965 48.4476 51.923 48.6918 51.8845 48.9514C51.7318 49.9798 51.3645 50.7058 50.5931 51.5044C50.1027 52.0118 50.1028 52.0118 50.3092 52.2652C51.0773 53.2075 51.4 54.7107 51.0909 55.9058C51.0184 56.1861 50.9592 56.4234 50.9592 56.4333C50.9592 56.5944 52.7505 55.851 53.3782 55.4296C55.9902 53.6754 55.9448 49.8566 53.2976 48.6359C52.861 48.4346 52.0167 48.2891 51.9778 48.4085ZM30.908 49.2363C28.8362 49.5311 28.4137 52.8945 30.1648 55.1538C30.3162 55.3492 30.4602 55.5379 30.4847 55.5731C30.5111 55.6111 30.6318 55.5672 30.7811 55.4653C31.625 54.8896 32.6462 54.7646 34.1886 55.048C34.2398 55.0575 34.5192 54.3692 34.4746 54.3436C32.7972 53.385 31.8401 51.6836 31.9366 49.8321C31.9645 49.2953 31.9645 49.2953 31.7293 49.2564C31.6 49.2349 31.4496 49.2091 31.3953 49.1991C31.341 49.1891 31.1218 49.2059 30.908 49.2363ZM42.9557 49.2004C42.9196 49.2101 42.7841 49.2354 42.6547 49.2567C42.4196 49.2953 42.4196 49.2953 42.4475 49.8321C42.544 51.6836 41.5868 53.385 39.9094 54.3436C39.8647 54.3692 40.1443 55.0575 40.1955 55.048C41.7379 54.7646 42.7591 54.8896 43.603 55.4653C43.7523 55.5672 43.873 55.6111 43.8994 55.5731C43.9239 55.5379 44.0677 55.3492 44.2193 55.1538C45.5063 53.4932 45.6629 50.6787 44.5235 49.6869C44.171 49.38 43.2971 49.1089 42.9557 49.2004ZM26.7055 51.9256C24.1663 52.6016 23.9885 56.0717 26.3791 58.2932C28.1069 59.8989 26.4195 59.5224 24.5374 57.8825C24.0272 57.4377 24.0272 57.4377 23.6383 57.478C22.05 57.6421 19.6034 56.2532 18.2989 54.4468C17.9979 54.0298 17.9979 54.0298 17.8064 54.2513C15.0941 57.3869 13.5504 60.1946 11.7924 65.1885C11.3574 66.4249 11.353 66.3285 11.8479 66.4216C20.2945 68.0072 25.868 76.907 26.0416 89.0868C26.0794 91.7465 26.0123 91.5869 26.9478 91.2411C27.5191 91.0294 27.6348 90.8685 28.1016 89.6391C30.2373 84.0122 32.0353 81.781 35.0476 81.0195C35.671 80.8618 35.6528 80.8736 35.706 80.5928C35.8264 79.9583 36.5036 78.2972 36.7476 78.0379C37.3361 77.4132 38.3225 78.7186 38.6781 80.5928C38.7313 80.8736 38.7131 80.8618 39.3365 81.0195C42.3487 81.781 44.1467 84.0122 46.2825 89.6391C46.7492 90.8685 46.865 91.0294 47.4362 91.2411C48.3718 91.5869 48.3046 91.7465 48.3425 89.0868C48.5161 76.9064 54.089 68.0072 62.536 66.4216C63.031 66.3285 63.0267 66.4249 62.5916 65.1885C60.8337 60.1946 59.29 57.3869 56.5776 54.2513C56.3862 54.0298 56.3862 54.0298 56.0852 54.4468C54.7806 56.2532 52.334 57.6421 50.7458 57.478C50.3569 57.4377 50.3569 57.4377 49.8466 57.8825C47.9646 59.5224 46.2771 59.8989 48.005 58.2932C49.7299 56.6903 50.1653 55.0352 49.3048 53.3522C48.623 52.0186 46.5198 51.2193 46.3861 52.2431C46.1725 53.8807 45.5178 55.1405 44.5318 55.8115C44.2446 56.0069 44.2446 56.0069 44.4894 56.4449C45.0527 57.4527 44.7744 58.7626 43.7873 59.7494C42.9521 60.5843 42.2812 60.6389 43.0475 59.8096C44.0528 58.7219 43.9829 57.3959 42.9035 57.0789C42.2578 56.8891 40.2221 56.9696 40.2221 57.1848C40.2221 57.6742 39.5678 59.1788 39.1793 59.5827C38.6975 60.0836 38.5965 59.8664 38.9283 59.0427C39.945 56.5196 39.0977 54.1145 37.192 54.1145C35.2864 54.1145 34.4391 56.5196 35.4556 59.0427C35.7875 59.8664 35.6866 60.0836 35.2048 59.5827C34.8163 59.1788 34.162 57.6742 34.162 57.1848C34.162 56.9696 32.1263 56.8891 31.4806 57.0789C30.401 57.3959 30.3311 58.7219 31.3365 59.8096C32.1029 60.6389 31.432 60.5843 30.5968 59.7494C29.6096 58.7626 29.3314 57.4527 29.8946 56.4449C30.1395 56.0069 30.1395 56.0069 29.8522 55.8115C28.8672 55.1413 28.2115 53.8804 27.9984 52.2471C27.9634 51.9786 27.9262 51.9033 27.8141 51.8735C27.5826 51.8121 27.0353 51.8378 26.7055 51.9256ZM8.54768 68.0522C4.66075 68.6626 5.24535 72.8968 9.70642 76.4445C11.1225 77.5708 11.1482 77.5864 13.4125 78.7402C21.7593 82.9933 23.9518 85.6068 23.9518 91.3049C23.9518 91.6964 24.2331 91.8163 24.6271 91.5921C24.698 91.5518 24.6868 88.8262 24.6097 87.3696C24.2472 80.5296 21.4763 74.1358 17.5042 70.9751C14.8767 68.884 11.0998 67.6516 8.54768 68.0522ZM63.837 68.0307C56.6289 68.7896 51.1482 75.6106 49.9402 85.3254C49.748 86.872 49.6124 91.5094 49.757 91.5921C50.151 91.8163 50.4322 91.6964 50.4322 91.3049C50.4322 85.6062 52.6233 82.994 60.9716 78.7402C63.2358 77.5864 63.2615 77.5708 64.6777 76.4445C70.0241 72.1933 69.5478 67.4294 63.837 68.0307ZM5.72416 76.735C2.69211 80.0039 1.79857 86.7553 3.76068 91.5713C6.5147 98.3319 15.5257 104.617 23.4578 105.311C27.0524 105.625 27.8684 105.571 27.5246 105.042C26.9607 104.174 25.0281 100.657 23.8989 98.4439C23.6064 97.8706 23.1526 97.0648 22.8903 96.6525C21.7123 94.8017 21.6259 93.4565 22.6175 92.4084C23.2046 91.7876 22.8358 88.8516 21.9479 87.0758C21.5089 86.1977 21.5391 86.2068 21.1213 86.8322C16.3155 94.0259 6.51074 88.5207 6.70947 78.7407C6.73984 77.2484 6.73984 77.2484 6.32386 76.9181C5.83833 76.5338 5.89517 76.5507 5.72416 76.735ZM68.046 76.9227C67.6441 77.2484 67.6441 77.2484 67.6744 78.7407C67.8734 88.5207 58.0684 94.0252 53.2627 86.8322C52.845 86.2068 52.8752 86.1977 52.4362 87.0758C51.5483 88.8516 51.1795 91.7876 51.7666 92.4084C52.7582 93.4565 52.6718 94.8017 51.4938 96.6525C51.2315 97.0648 50.7777 97.8706 50.4852 98.4439C49.356 100.657 47.4233 104.174 46.8595 105.042C46.5135 105.574 46.4167 105.549 48.441 105.455C52.6625 105.26 54.4186 104.875 57.8427 103.391C70.2236 98.027 75.2582 86.6315 69.2513 77.5689C68.509 76.4484 68.5821 76.4882 68.046 76.9227ZM8.37688 78.4939C7.73845 80.5895 9.00226 84.5391 10.9594 86.5651C11.567 87.1937 11.6035 87.1977 11.3607 86.6081C10.385 84.2369 10.7427 81.2963 12.1207 80.3628C12.3755 80.1902 11.9101 79.9003 10.1189 79.1173C9.70222 78.9349 9.162 78.6873 8.91835 78.5668C8.39242 78.3063 8.4324 78.3122 8.37688 78.4939ZM65.5497 78.5239C65.3685 78.617 64.8054 78.8782 64.2982 79.1043C62.3408 79.9746 62.0006 80.185 62.2624 80.3622C63.6414 81.2963 63.9995 84.2355 63.0233 86.6081C62.7805 87.1977 62.817 87.1937 63.4247 86.5651C65.3818 84.5391 66.6455 80.5895 66.0071 78.4939C65.9525 78.3148 65.9551 78.3147 65.5497 78.5239ZM36.4123 82.5204C33.8918 82.9666 31.5327 85.6681 29.7032 90.2033C28.786 92.4775 28.3089 92.8065 25.2693 93.2638C23.269 93.5647 23.1371 94.0467 24.5118 96.0303C25.5058 97.4648 26.7198 99.4464 28.002 101.726C30.2936 105.802 31.1391 107.154 32.3045 108.606C36.3236 113.615 39.7588 112.794 44.0203 105.805C44.8594 104.429 44.9642 104.248 46.3821 101.726C47.6643 99.4464 48.8783 97.4648 49.8722 96.0303C51.247 94.0467 51.1151 93.5647 49.1147 93.2638C46.075 92.8065 45.598 92.4775 44.6809 90.2033C42.4753 84.7359 39.5021 81.9732 36.4123 82.5204ZM29.7158 93.3028C29.1002 93.6201 28.8781 94.2291 29.1647 94.8147C29.392 95.2786 30.0178 95.5099 30.4029 95.2721C30.5088 95.207 30.5889 95.2311 30.9125 95.4271C32.0698 96.1268 32.5109 95.9913 32.1512 95.046C31.6022 93.6038 30.5678 92.8637 29.7158 93.3028ZM43.536 93.3322C42.8297 93.6872 41.9264 95.2043 42.1481 95.6643C42.3084 95.9965 42.623 95.9404 43.4715 95.4271C43.7952 95.2311 43.8752 95.207 43.9812 95.2721C44.3663 95.5099 44.9921 95.2786 45.2194 94.8147C45.7102 93.8122 44.5731 92.8103 43.536 93.3322Z" clip-rule="evenodd"/><path fill="#2430f0" d="M42.956 49.2C42.92 49.21 42.784 49.235 42.655 49.257 42.42 49.295 42.42 49.295 42.448 49.832 42.544 51.684 41.587 53.385 39.91 54.344 39.865 54.369 40.144 55.058 40.196 55.048 41.738 54.765 42.759 54.89 43.603 55.465 43.752 55.567 43.873 55.611 43.899 55.573 43.924 55.538 44.068 55.349 44.219 55.154 45.506 53.493 45.663 50.679 44.524 49.687 44.171 49.38 43.297 49.109 42.956 49.2ZM51.978 48.409C51.965 48.448 51.923 48.692 51.885 48.951 51.732 49.98 51.365 50.706 50.593 51.504 50.103 52.012 50.103 52.012 50.309 52.265 51.077 53.208 51.4 54.711 51.091 55.906 51.018 56.186 50.959 56.423 50.959 56.433 50.959 56.594 52.75 55.851 53.378 55.43 55.99 53.675 55.945 49.857 53.298 48.636 52.861 48.435 52.017 48.289 51.978 48.409ZM46.348 44.848C46.343 45.746 45.823 47.216 45.238 47.986 44.97 48.339 44.97 48.339 45.364 48.754 45.777 49.192 46.159 49.856 46.288 50.365 46.365 50.667 46.365 50.667 46.67 50.62 47.51 50.491 48.23 50.614 48.869 50.995 49.28 51.241 49.252 51.25 49.664 50.743 51.101 48.972 50.673 46.148 48.831 45.257 48.04 44.874 46.349 44.596 46.348 44.848ZM41.785 43.179C41.731 44.489 41.495 45.321 40.93 46.192 40.723 46.511 40.723 46.511 41.037 46.773 41.209 46.916 41.486 47.223 41.653 47.454 41.989 47.919 41.892 47.893 42.683 47.732 42.924 47.683 43.119 47.69 43.47 47.763 44.013 47.875 43.924 47.945 44.373 47.046 45.639 44.509 44.811 42.364 42.529 42.271L41.823 42.243 41.785 43.179ZM36.475 40.438C34.391 40.806 33.718 42.736 34.827 45.164 35.157 45.887 35.157 45.887 35.664 45.892 36.119 45.897 36.222 45.924 36.681 46.156 37.192 46.414 37.192 46.414 37.703 46.156 38.162 45.924 38.265 45.897 38.72 45.892 39.227 45.887 39.227 45.887 39.557 45.164 40.917 42.182 39.439 39.916 36.475 40.438ZM34.638 47.957C32.845 48.782 32.682 50.795 34.223 53.096 34.696 53.803 34.696 53.803 34.881 53.515 35.862 51.985 38.522 51.985 39.503 53.515 39.77 53.931 40.845 52.345 41.118 51.131 41.605 48.965 39.468 46.762 38.261 48.185 38.004 48.488 37.688 49.044 37.563 49.413 37.322 50.128 37.062 50.128 36.821 49.413 36.628 48.841 36.221 48.224 35.849 47.941 35.585 47.739 35.097 47.746 34.638 47.957ZM30.908 49.236C28.836 49.531 28.414 52.895 30.165 55.154 30.316 55.349 30.46 55.538 30.485 55.573 30.511 55.611 30.632 55.567 30.781 55.465 31.625 54.89 32.646 54.765 34.189 55.048 34.24 55.057 34.519 54.369 34.475 54.344 32.797 53.385 31.84 51.684 31.937 49.832 31.965 49.295 31.965 49.295 31.729 49.256 31.6 49.235 31.45 49.209 31.395 49.199 31.341 49.189 31.122 49.206 30.908 49.236ZM26.455 44.901C23.903 45.562 22.996 48.617 24.721 50.743 25.132 51.25 25.104 51.241 25.515 50.995 26.154 50.614 26.875 50.491 27.715 50.62 28.019 50.667 28.019 50.667 28.096 50.365 28.226 49.856 28.607 49.192 29.02 48.754 29.414 48.339 29.414 48.339 29.146 47.986 28.561 47.216 28.041 45.746 28.036 44.848 28.036 44.763 26.833 44.804 26.455 44.901ZM31.129 42.347C29.421 42.803 28.928 44.875 30.011 47.046 30.46 47.945 30.371 47.875 30.914 47.763 31.266 47.69 31.46 47.683 31.701 47.732 32.493 47.893 32.396 47.919 32.731 47.454 32.898 47.223 33.175 46.916 33.348 46.773 33.661 46.511 33.661 46.511 33.454 46.193 32.89 45.323 32.653 44.489 32.6 43.187 32.56 42.207 32.272 42.042 31.129 42.347ZM21.91 48.396C18.653 48.82 18.058 53.45 21.006 55.43 21.634 55.851 23.425 56.594 23.425 56.433 23.425 56.423 23.366 56.186 23.293 55.906 22.984 54.711 23.307 53.208 24.074 52.266 24.28 52.014 24.28 52.014 23.763 51.474 22.998 50.674 22.583 49.814 22.469 48.789 22.415 48.305 22.446 48.327 21.91 48.396Z"/><path fill="#2be1b7" d="M63.837 68.0306C56.629 68.7895 51.1482 75.6106 49.9402 85.3254C49.748 86.8719 49.6124 91.5094 49.7569 91.5921C50.151 91.8163 50.4322 91.6963 50.4322 91.3049C50.4322 85.6062 52.6234 82.994 60.9716 78.7401C63.2358 77.5864 63.2615 77.5708 64.6776 76.4444C70.024 72.1933 69.5478 67.4293 63.837 68.0306Z"/><path fill="#2be1b7" d="M68.046 76.923C67.644 77.248 67.644 77.248 67.674 78.741 67.873 88.521 58.069 94.025 53.263 86.832 52.845 86.207 52.875 86.198 52.436 87.076 51.548 88.852 51.18 91.788 51.767 92.408 52.758 93.457 52.672 94.802 51.494 96.652 51.232 97.065 50.778 97.871 50.485 98.444 49.356 100.657 47.423 104.174 46.86 105.042 46.514 105.574 46.417 105.549 48.441 105.455 52.663 105.26 54.419 104.875 57.843 103.391 70.224 98.027 75.258 86.632 69.251 77.569 68.509 76.448 68.582 76.488 68.046 76.923ZM5.724 76.735C2.692 80.004 1.799 86.755 3.761 91.571 6.515 98.332 15.526 104.617 23.458 105.311 27.052 105.625 27.868 105.571 27.525 105.042 26.961 104.174 25.028 100.657 23.899 98.444 23.606 97.871 23.153 97.065 22.89 96.652 21.712 94.802 21.626 93.457 22.618 92.408 23.205 91.788 22.836 88.852 21.948 87.076 21.509 86.198 21.539 86.207 21.121 86.832 16.316 94.026 6.511 88.521 6.71 78.741 6.74 77.248 6.74 77.248 6.324 76.918 5.838 76.534 5.895 76.551 5.724 76.735Z"/><path fill="#2be1b7" d="M8.54771 68.0522C4.66077 68.6626 5.24537 72.8968 9.70645 76.4445C11.1226 77.5708 11.1482 77.5864 13.4125 78.7402C21.7593 82.9933 23.9518 85.6068 23.9518 91.3049C23.9518 91.6964 24.2331 91.8163 24.6271 91.5921C24.6981 91.5518 24.6868 88.8263 24.6097 87.3696C24.2474 80.5296 21.4764 74.1358 17.5042 70.9751C14.8767 68.884 11.0998 67.6516 8.54771 68.0522Z"/><path fill="#2430f0" d="M26.7055 51.9256C24.1663 52.6016 23.9885 56.0717 26.3791 58.2932C28.1069 59.8988 26.4194 59.5224 24.5374 57.8824C24.0272 57.4377 24.0272 57.4377 23.6383 57.478C22.05 57.6421 19.6035 56.2532 18.2989 54.4467C17.9979 54.0298 17.9979 54.0298 17.8064 54.2513C15.0941 57.3869 13.5504 60.1945 11.7925 65.1884C11.3574 66.4249 11.353 66.3284 11.8479 66.4216C20.2945 68.0071 25.868 76.9069 26.0416 89.0868C26.0794 91.7465 26.0123 91.5869 26.9479 91.241C27.519 91.0293 27.6349 90.8684 28.1016 89.6391C30.2373 84.0122 32.0352 81.781 35.0476 81.0194C35.671 80.8618 35.6528 80.8736 35.706 80.5927C35.8264 79.9583 36.5036 78.2972 36.7477 78.0379C37.3362 77.4132 38.3225 78.7186 38.6781 80.5927C38.7313 80.8736 38.7131 80.8618 39.3365 81.0194C42.3488 81.781 44.1467 84.0122 46.2825 89.6391C46.7492 90.8684 46.865 91.0293 47.4363 91.241C48.3718 91.5869 48.3046 91.7465 48.3425 89.0868C48.5161 76.9063 54.089 68.0071 62.536 66.4216C63.031 66.3284 63.0267 66.4249 62.5916 65.1884C60.8337 60.1945 59.29 57.3869 56.5777 54.2513C56.3862 54.0298 56.3862 54.0298 56.0851 54.4467C54.7806 56.2532 52.3341 57.6421 50.7458 57.478C50.3569 57.4377 50.3569 57.4377 49.8467 57.8824C47.9646 59.5224 46.2771 59.8988 48.005 58.2932C49.7299 56.6903 50.1653 55.0352 49.3048 53.3522C48.623 52.0185 46.5198 51.2192 46.3861 52.243C46.1725 53.8807 45.5178 55.1405 44.5318 55.8115C44.2446 56.0069 44.2446 56.0069 44.4895 56.4449C45.0527 57.4527 44.7744 58.7627 43.7873 59.7494C42.9521 60.5842 42.2812 60.6389 43.0475 59.8096C44.0528 58.7218 43.9829 57.3958 42.9035 57.0788C42.2578 56.8892 40.2221 56.9696 40.2221 57.1848C40.2221 57.6742 39.5678 59.1788 39.1793 59.5827C38.6975 60.0836 38.5965 59.8664 38.9284 59.0428C39.945 56.5195 39.0976 54.1145 37.1921 54.1145C35.2864 54.1145 34.4391 56.5195 35.4556 59.0428C35.7876 59.8664 35.6865 60.0836 35.2048 59.5827C34.8163 59.1788 34.162 57.6742 34.162 57.1848C34.162 56.9696 32.1263 56.8892 31.4806 57.0788C30.401 57.3958 30.3311 58.7218 31.3365 59.8096C32.1029 60.6389 31.432 60.5842 30.5968 59.7494C29.6096 58.7627 29.3314 57.4527 29.8947 56.4449C30.1395 56.0069 30.1395 56.0069 29.8522 55.8115C28.8672 55.1413 28.2115 53.8803 27.9984 52.2471C27.9634 51.9786 27.9262 51.9032 27.8141 51.8735C27.5826 51.812 27.0353 51.8378 26.7055 51.9256Z"/><path fill="#f2c79c" fill-rule="evenodd" d="M36.4123 82.5204C33.8918 82.9666 31.5326 85.6681 29.7032 90.2033C28.7859 92.4775 28.3089 92.8065 25.2693 93.2637C23.269 93.5647 23.1371 94.0467 24.5118 96.0303C25.5058 97.4648 26.7197 99.4464 28.002 101.726C30.2934 105.802 31.1391 107.154 32.3044 108.606C36.3236 113.615 39.7587 112.794 44.0202 105.805C44.8594 104.429 44.9642 104.248 46.382 101.726C47.6643 99.4464 48.8783 97.4648 49.8722 96.0303C51.2468 94.0467 51.115 93.5647 49.1147 93.2637C46.075 92.8065 45.598 92.4775 44.6808 90.2033C42.4753 84.7358 39.502 81.9732 36.4123 82.5204ZM29.1647 94.8147C28.8781 94.2291 29.1001 93.6201 29.7157 93.3028C30.5678 92.8637 31.6022 93.6038 32.1511 95.046C32.5109 95.9913 32.0697 96.1268 30.9125 95.4271C30.5888 95.2311 30.5088 95.207 30.4029 95.2721C30.0178 95.5099 29.3919 95.2786 29.1647 94.8147ZM42.1481 95.6643C41.9264 95.2043 42.8296 93.6872 43.5358 93.3321C44.573 92.8103 45.7101 93.8122 45.2193 94.8147C44.9921 95.2786 44.3662 95.5099 43.9812 95.2721C43.8752 95.207 43.7952 95.2311 43.4714 95.4271C42.6228 95.9404 42.3084 95.9965 42.1481 95.6643Z" clip-rule="evenodd"/><path fill="#2430f0" fill-rule="evenodd" d="M23.633 28.387C22.757 25.121 20.027 22.549 16.317 23.235 13.374 23.779 10.758 26.016 10.073 28.551 10.275 29.258 10.61 29.94 11.09 30.567 14.487 35.009 20.604 34.561 23.124 29.686 23.344 29.259 23.513 28.824 23.633 28.387ZM26.986 16.092C26.86 15.717 26.76 15.34 26.686 14.963 27.453 11.037 31.245 7.629 35.73 6.819 41.732 5.735 46.676 9.801 47.702 14.956 47.626 15.334 47.525 15.713 47.398 16.092 44.377 25.059 30.008 25.059 26.986 16.092Z" clip-rule="evenodd"/><path fill="#2430f0" d="M56.272 19.758C52.013 20.519 49.805 24.676 50.756 28.381 51.386 25.898 53.844 23.762 56.772 23.238 60.611 22.553 63.408 25.289 64.31 28.575 65.623 24.095 61.437 18.835 56.272 19.758ZM26.686 14.963C27.453 11.037 31.245 7.629 35.73 6.819 41.732 5.735 46.676 9.801 47.702 14.956 49.025 8.328 42.542 2.018 35.23 3.339 29.448 4.383 25.649 9.73 26.686 14.963ZM16.317 23.235C20.027 22.549 22.757 25.121 23.633 28.387 24.907 23.762 20.793 18.834 15.817 19.754 11.547 20.544 9.02 24.877 10.073 28.551 10.758 26.016 13.373 23.779 16.317 23.235Z"/><path fill="#2430f0" d="M52.8095 31.7995C55.8722 34.6567 60.5906 34.1022 63.294 30.5674C63.7746 29.9389 64.1078 29.2664 64.3103 28.5755C63.4083 25.2894 60.6105 22.5526 56.7722 23.2383C53.8442 23.7616 51.3855 25.898 50.7563 28.3808C51.0741 29.6187 51.7449 30.8063 52.8095 31.7995Z"/><path fill="#f2c79c" fill-rule="evenodd" d="M28.2777 11.4253C29.9533 9.124 32.6842 7.37048 35.7358 6.81911C40.3022 5.99413 44.2562 8.15056 46.338 11.4994C46.7348 11.1044 47.0977 10.703 47.3975 10.3098C45.8489 5.724 40.7803 2.33696 35.2356 3.33873C31.4048 4.03084 28.4441 6.61156 27.184 9.7964C27.4566 10.3161 27.8415 10.8737 28.2777 11.4253Z" clip-rule="evenodd"/><path fill="#2be1b7" d="M28.278 11.425C29.765 13.307 31.848 15.118 32.099 15.118 32.289 15.118 33.339 14.11 34.43 13.062 35.608 11.931 36.833 10.754 37.072 10.754 37.303 10.754 38.291 11.845 39.279 12.936 40.267 14.027 41.255 15.118 41.486 15.118 41.78 15.118 44.446 13.382 46.338 11.499 44.256 8.151 40.302 5.994 35.736 6.819 32.684 7.37 29.953 9.124 28.278 11.425ZM10.108 28.367C10.867 25.908 13.427 23.766 16.299 23.235 18.495 22.829 20.348 23.565 21.676 24.91 21.923 24.008 22.102 22.931 22.081 22.026 20.59 20.31 18.304 19.291 15.799 19.754 11.63 20.525 9.122 24.674 9.986 28.29 10.026 28.316 10.067 28.342 10.108 28.367Z"/><path fill="#2be1b7" d="M10.1078 28.3674C11.7231 29.3763 13.9252 29.8168 14.5055 29.4821C14.9547 29.2231 15.1626 27.9163 15.2115 26.5704C15.2487 25.5475 15.2819 24.6318 15.481 24.463C15.7011 24.2764 16.7684 24.8834 17.8995 25.5267C19.1391 26.2315 20.5392 26.8463 20.9009 26.6419C21.1595 26.4958 21.4142 25.8687 21.6762 24.9104C20.348 23.5645 18.495 22.8285 16.2987 23.2346C13.4265 23.7657 10.8666 25.9082 10.1078 28.3674Z"/><path fill="#2be1b7" fill-rule="evenodd" d="M51.2465 23.717C51.3452 24.4335 53.4202 28.277 53.9801 28.4073C54.2833 28.4779 55.3205 27.7461 56.2707 27.0758C57.0751 26.5082 57.8171 25.9848 57.9983 26.0295C58.1636 26.0704 58.4785 26.561 58.8468 27.1349C59.3594 27.9336 59.9756 28.8934 60.4355 29.0261C61.0313 29.1979 63.4041 27.9638 64.5653 27.1362C64.7447 23.0514 60.9083 18.9326 56.2897 19.7579C53.8779 20.1888 52.124 21.7086 51.2288 23.6184C51.2357 23.6486 51.2415 23.6813 51.2465 23.717Z" clip-rule="evenodd"/><path fill="#f1f1f1" d="M65.55 78.524C65.369 78.617 64.805 78.878 64.298 79.104 62.341 79.975 62.001 80.185 62.262 80.362 63.641 81.296 64 84.236 63.023 86.608 62.781 87.198 62.817 87.194 63.425 86.565 65.382 84.539 66.646 80.59 66.007 78.494 65.953 78.315 65.955 78.315 65.55 78.524ZM8.377 78.494C7.738 80.59 9.002 84.539 10.959 86.565 11.567 87.194 11.604 87.198 11.361 86.608 10.385 84.237 10.743 81.296 12.121 80.363 12.376 80.19 11.91 79.9 10.119 79.117 9.702 78.935 9.162 78.687 8.918 78.567 8.392 78.306 8.432 78.312 8.377 78.494ZM61.261 84.463C61.261 84.247 61.069 84.072 60.832 84.072 60.596 84.072 60.404 84.247 60.404 84.463 60.404 84.679 60.596 84.854 60.832 84.854 61.069 84.854 61.261 84.679 61.261 84.463Z"/><path fill="#000" fill-rule="evenodd" d="M47.1147 16.8309C43.4498 20.8676 36.1657 23.089 27.8425 17.9484C31.9581 24.7933 43.8449 24.4208 47.1147 16.8309ZM22.0733 31.2475C18.2157 32.8433 12.9782 31.2096 10.4196 29.4698C10.5993 29.8491 10.8221 30.2166 11.0903 30.5674C14.0799 34.4765 19.1763 34.5981 22.0733 31.2475ZM63.8904 29.6265C61.6725 31.6891 57.1816 33.1554 51.9363 30.8299C52.1907 31.1688 52.4814 31.4933 52.8096 31.7995C55.8724 34.6567 60.5907 34.1022 63.2941 30.5674C63.5267 30.263 63.7249 29.9485 63.8904 29.6265Z" clip-rule="evenodd" opacity="0.2"/><path fill="#2430f0" d="M26.6855 14.9629C27.4528 11.0365 31.2453 7.62941 35.73 6.81916C41.7322 5.73474 46.6762 9.80127 47.7015 14.956C49.0253 8.32846 42.5416 2.01772 35.2297 3.33873C29.4481 4.38332 25.6485 9.73014 26.6855 14.9629Z"/><path fill="#2be1b7" fill-rule="evenodd" d="M28.2777 11.4253C29.9533 9.12398 32.6842 7.37046 35.7358 6.81916C40.3022 5.99413 44.2562 8.15055 46.338 11.4993C46.7348 11.1044 47.0977 10.703 47.3975 10.3098C45.8489 5.724 40.7803 2.33697 35.2356 3.33873C31.4048 4.03083 28.4441 6.61155 27.184 9.79638C27.4566 10.3161 27.8415 10.8737 28.2777 11.4253Z" clip-rule="evenodd"/><path fill="#fff" fill-rule="evenodd" d="M39.8332 41.8511C39.3516 40.7386 38.151 40.1428 36.4754 40.4384C35.4859 40.6131 34.8144 41.1396 34.5006 41.9043C35.1609 41.3651 36.3293 41.1889 37.201 41.1706C38.0434 41.1883 39.1628 41.3535 39.8332 41.8511ZM32.4974 42.5553C31.6813 42.6792 30.1907 43.0718 29.543 43.9753C29.759 43.1681 30.3012 42.5678 31.1286 42.3472C31.9568 42.1263 32.3361 42.1516 32.4974 42.5553ZM28.046 45.0621C28.0399 44.9878 28.0366 44.9161 28.0361 44.8478C28.0356 44.7628 26.8328 44.8036 26.4549 44.9013C25.1615 45.2361 24.2905 46.186 23.9707 47.3183C24.8357 46.1087 26.4464 45.1 28.046 45.0621ZM19.1022 51.6525C19.4845 50.3665 20.909 49.025 22.067 49.025C22.2308 49.025 22.3735 49.016 22.4974 49.0001C22.4865 48.9305 22.4772 48.86 22.4692 48.7889C22.4666 48.765 22.4642 48.7423 22.4617 48.7209C22.4413 48.531 22.4306 48.4331 22.3758 48.3892C22.3174 48.3424 22.209 48.3568 21.9852 48.3864C21.9614 48.3896 21.9363 48.393 21.9099 48.3964C20.1621 48.6234 19.1807 50.062 19.1022 51.6525ZM36.4694 48.6746C35.7977 48.1587 34.8036 47.9548 33.4078 49.1096C33.6435 48.6201 34.0544 48.2255 34.638 47.9568C35.0969 47.7455 35.5851 47.739 35.8492 47.9406C36.0597 48.1012 36.2816 48.3689 36.4694 48.6746ZM40.7894 48.9475C40.1868 47.8484 39.0335 47.2743 38.2605 48.1849C38.1478 48.3177 38.0237 48.4994 37.9095 48.6925C38.5486 48.1895 39.485 47.964 40.7894 48.9475ZM31.9474 49.5997C31.9575 49.2943 31.924 49.2887 31.7293 49.2564C31.6 49.235 31.4496 49.2091 31.3953 49.1991C31.341 49.1891 31.1216 49.2059 30.908 49.2362C29.8903 49.3812 29.2707 50.2663 29.111 51.3972C29.5139 50.1032 31.0326 49.499 31.9474 49.5997ZM46.4239 52.0944C46.7404 51.3062 48.6594 52.0899 49.3048 53.3522C49.4842 53.7031 49.6073 54.0527 49.6741 54.4009C49.1795 53.0263 47.6222 52.3963 46.4239 52.0944ZM40.2205 57.2301C40.2215 57.2141 40.2221 57.199 40.2221 57.1848C40.2221 56.9697 42.2578 56.8892 42.9035 57.0789C43.2095 57.1687 43.4343 57.3396 43.5766 57.5631C42.9588 57.0238 41.6146 57.124 40.2205 57.2301ZM35.5418 55.0019C35.9163 54.45 36.4804 54.1145 37.192 54.1145C37.8902 54.1145 38.4464 54.4374 38.8209 54.9708C38.3545 54.6108 37.7155 54.4259 37.201 54.3781C36.6718 54.4272 36.0112 54.6213 35.5418 55.0019ZM30.7847 57.6006C30.9253 57.3586 31.1577 57.1737 31.4804 57.0789C32.1263 56.8892 34.162 56.9697 34.162 57.1848C34.162 57.1987 34.1624 57.2133 34.1635 57.2287C32.7444 57.1207 31.3802 57.0217 30.7847 57.6006ZM27.974 52.0954C26.7487 52.4046 25.1502 53.0569 24.6955 54.4968C24.7689 53.2816 25.4473 52.2606 26.7055 51.9256C27.0353 51.8378 27.5826 51.8121 27.8141 51.8735C27.9014 51.8966 27.9433 51.9475 27.974 52.0954ZM44.8584 43.9747C44.5799 42.9783 43.7693 42.3218 42.529 42.2713L41.8229 42.2426L41.8107 42.5418C42.601 42.6488 44.1848 43.0358 44.8584 43.9747ZM50.3933 47.2659C50.1635 46.3949 49.6303 45.6438 48.8307 45.2568C48.0399 44.874 46.3493 44.5955 46.3479 44.8478C46.3475 44.9161 46.3443 44.9875 46.3381 45.0618C47.9204 45.0921 49.5163 46.0753 50.3933 47.2659ZM55.3049 51.6699C54.9304 50.3787 53.4983 49.025 52.335 49.025C52.1592 49.025 52.0078 49.0146 51.8777 48.9965C51.88 48.9816 51.8823 48.9665 51.8845 48.9514C51.923 48.6918 51.965 48.4476 51.9778 48.4085C52.0167 48.2891 52.861 48.4346 53.2976 48.6359C54.567 49.2212 55.238 50.4039 55.3049 51.6699ZM45.2526 51.285C45.1659 50.6127 44.9252 50.0366 44.5235 49.6869C44.171 49.38 43.2971 49.1089 42.9557 49.2004C42.9196 49.2101 42.7841 49.2354 42.6547 49.2567C42.4597 49.2888 42.4264 49.2943 42.4367 49.6016C43.3229 49.4944 44.7964 50.0602 45.2526 51.285Z" clip-rule="evenodd" opacity="0.2" style="mix-blend-mode:hard-light"/><path fill="#fff" fill-opacity="0.4" fill-rule="evenodd" d="M67.325 68.613C64.729 68.42 61.702 69.271 59.515 70.62 56.452 72.509 51.742 77.525 50.754 82.378 50.481 83.72 50.276 84.159 50.124 84.063 51.633 75.023 56.946 68.756 63.837 68.031 65.391 67.867 66.558 68.101 67.325 68.613ZM6.925 68.675C9.588 68.384 12.775 69.248 15.052 70.653 18.115 72.542 22.824 77.558 23.813 82.411 23.968 83.172 24.1 83.642 24.214 83.89 23.257 78.424 20.792 73.592 17.504 70.975 14.877 68.884 11.1 67.652 8.548 68.052 7.873 68.158 7.333 68.373 6.925 68.675ZM30.697 88.019C32.851 85.677 35.611 85.277 37.086 85.277 38.618 85.277 41.656 85.766 43.849 88.34 41.755 84.116 39.129 82.039 36.413 82.52 34.327 82.89 32.353 84.802 30.697 88.019Z" clip-rule="evenodd" style="mix-blend-mode:hard-light"/><path fill="#000" fill-rule="evenodd" d="M66.175 79.756C65.189 80.176 64.087 80.603 62.896 81.03 62.717 80.754 62.506 80.527 62.263 80.362 62.001 80.185 62.341 79.975 64.298 79.104 64.806 78.878 65.369 78.617 65.55 78.524L65.557 78.52C65.808 78.39 65.9 78.343 65.947 78.371 65.974 78.386 65.987 78.427 66.007 78.491L66.007 78.494C66.12 78.864 66.173 79.291 66.175 79.756ZM8.211 79.649C9.207 80.094 10.317 80.546 11.511 80.997 11.684 80.736 11.888 80.521 12.121 80.363 12.376 80.19 11.91 79.9 10.119 79.117 9.702 78.935 9.162 78.687 8.919 78.567 8.885 78.55 8.853 78.534 8.824 78.52 8.559 78.388 8.471 78.344 8.429 78.371 8.409 78.384 8.4 78.415 8.387 78.461 8.384 78.471 8.381 78.482 8.377 78.494 8.273 78.835 8.22 79.226 8.211 79.649ZM22.454 95.894C22.244 98.129 23.019 100.629 23.377 101.782 23.438 101.979 23.486 102.136 23.516 102.247 23.771 103.193 20.998 104.69 10.823 100.104 14.58 102.932 19.176 104.936 23.458 105.311 27.052 105.625 27.868 105.571 27.525 105.042 26.961 104.174 25.028 100.657 23.899 98.444 23.606 97.871 23.153 97.065 22.89 96.652 22.723 96.39 22.578 96.137 22.454 95.894ZM63.623 100.084C53.412 104.694 50.63 103.195 50.886 102.247 50.916 102.136 50.964 101.979 51.025 101.782 51.385 100.624 52.165 98.107 51.945 95.864 51.818 96.116 51.668 96.379 51.494 96.653 51.232 97.065 50.778 97.871 50.485 98.444 49.356 100.657 47.423 104.175 46.86 105.042 46.734 105.235 46.642 105.354 46.671 105.424 46.722 105.547 47.151 105.515 48.441 105.455 52.663 105.26 54.419 104.875 57.843 103.391 59.999 102.457 61.932 101.34 63.623 100.084ZM27.426 100.714C29.652 104.274 30.554 105.555 31.771 106.925 36.223 111.938 40.027 111.116 44.748 104.122 45.632 102.812 45.78 102.584 47.144 100.394 46.893 100.824 46.639 101.27 46.382 101.726 44.964 104.248 44.859 104.429 44.02 105.805 39.759 112.794 36.324 113.615 32.304 108.606 31.139 107.154 30.293 105.802 28.002 101.726 27.808 101.382 27.616 101.044 27.426 100.714Z" clip-rule="evenodd" opacity="0.2"/><path fill="#000" fill-opacity="0.2" d="M37.152 76.255C36.328 76.255 35.274 82.053 34.813 82.053L33.858 82.932 37.152 82.053 40.939 83.16C40.533 82.791 39.661 82.053 39.424 82.053 39.128 82.053 37.975 76.255 37.152 76.255ZM31.684 60.686C31.223 60.686 29.675 59.611 29.675 58.015 29.895 57.613 30.334 56.986 30.334 57.689 30.334 58.568 31.322 59.708 31.585 59.969 31.849 60.23 32.145 60.686 31.684 60.686ZM22.857 58.015C20.98 58.015 18.543 55.572 17.291 53.911L18.049 53.259 19.761 55.702 23.648 56.842 24.405 55.604C24.592 55.887 25.031 56.569 25.295 57.038 25.624 57.624 26.48 58.08 27.172 59.057 27.864 60.034 25.229 58.829 24.899 58.666 24.636 58.536 24.065 58.134 23.813 57.95 23.813 57.971 23.622 58.015 22.857 58.015ZM28.753 55.051C27.995 54.106 28.259 52.999 28.127 52.054L30.268 55.898 30.103 56.191 30.099 56.189C29.887 56.078 29.355 55.801 28.753 55.051ZM35.505 60.099C34.813 59.936 34.187 58.34 34.187 57.135L34.846 56.842 35.274 58.536C35.406 59.057 36.196 60.262 35.505 60.099ZM42.652 60.686C43.113 60.686 44.661 59.611 44.661 58.015 44.441 57.613 44.002 56.986 44.002 57.689 44.002 58.568 43.014 59.708 42.751 59.969 42.487 60.23 42.191 60.686 42.652 60.686ZM51.479 58.015C53.356 58.015 55.793 55.572 57.045 53.911L56.287 53.259 54.575 55.702 50.688 56.842 49.931 55.604C49.744 55.887 49.305 56.569 49.041 57.038 48.712 57.624 47.856 58.08 47.164 59.057 46.472 60.034 49.107 58.829 49.437 58.666 49.7 58.536 50.271 58.134 50.523 57.95 50.523 57.971 50.715 58.015 51.479 58.015ZM45.583 55.051C46.341 54.106 46.077 52.999 46.209 52.054L44.068 55.898 44.233 56.191 44.237 56.189C44.449 56.078 44.981 55.801 45.583 55.051ZM38.798 60.132C39.49 59.969 40.149 58.34 40.149 57.135L39.49 56.842 39.062 58.536C38.93 59.057 38.107 60.295 38.798 60.132Z"/><path fill="#000" d="M29.359 95.016C29.128 95.016 29.853 94.658 29.622 94.039 30.171 93.811 31.032 94.046 31.664 94.593 32.455 95.277 32.455 96.97 32.422 97.687 32.389 98.404 29.589 95.016 29.359 95.016ZM44.98 95.038C45.211 95.038 44.486 94.679 44.717 94.06 44.168 93.832 43.307 94.067 42.675 94.614 41.884 95.298 41.884 96.992 41.917 97.708 41.95 98.425 44.75 95.038 44.98 95.038Z" opacity="0.2"/><path fill="#000" fill-rule="evenodd" d="M15.0828 78.4867C19.0918 80.8586 22.9892 83.1647 22.9892 86.0264C22.9892 86.1182 22.9877 86.2094 22.9847 86.2987C21.6814 83.5998 18.8549 81.5205 13.3986 78.7402C11.1345 77.5865 11.1088 77.5709 9.69269 76.4445C6.21933 73.6824 5.09591 70.5041 6.60338 68.944C5.58917 72.8701 10.4117 75.7234 15.0828 78.4867Z" clip-rule="evenodd" opacity="0.2"/><path fill="#000" fill-rule="evenodd" d="M6.666 68.831 6.635 68.952C6.133 70.898 7.074 72.582 8.734 74.128 10.393 75.675 12.763 77.076 15.1 78.459L15.101 78.46C17.105 79.645 19.083 80.816 20.561 82.048 22.038 83.28 23.022 84.58 23.022 86.026 23.022 86.119 23.021 86.21 23.018 86.299L22.955 86.312C21.657 83.625 18.84 81.549 13.384 78.769 12.252 78.192 11.678 77.899 11.21 77.609 10.742 77.319 10.38 77.033 9.672 76.47 7.932 75.086 6.779 73.597 6.249 72.255 5.72 70.914 5.814 69.714 6.579 68.921L6.666 68.831ZM6.311 72.232C6.835 73.56 7.98 75.041 9.713 76.419 10.422 76.983 10.781 77.267 11.245 77.555 11.71 77.843 12.281 78.134 13.414 78.711 18.789 81.45 21.621 83.513 22.955 86.164 22.956 86.118 22.956 86.073 22.956 86.026 22.956 84.611 21.992 83.327 20.518 82.098 19.045 80.869 17.071 79.701 15.066 78.515L15.064 78.513C12.73 77.132 10.354 75.727 8.688 74.175 7.057 72.655 6.101 70.988 6.541 69.061 5.879 69.828 5.808 70.956 6.311 72.232ZM59.352 78.487C55.343 80.859 51.446 83.165 51.446 86.026 51.446 86.067 51.446 86.107 51.447 86.147 52.782 83.522 55.603 81.468 60.958 78.74 63.222 77.586 63.248 77.571 64.664 76.444 68.136 73.683 69.153 70.706 67.874 69.122 68.699 72.957 63.952 75.766 59.352 78.487Z" clip-rule="evenodd" opacity="0.2"/><path fill="#000" fill-rule="evenodd" d="M68.0808 72.3542C67.5499 73.648 66.4235 75.0869 64.6845 76.4699C63.9768 77.0327 63.6147 77.3194 63.1464 77.61C62.6785 77.8991 62.1045 78.1923 60.9729 78.7695C55.6179 81.4977 52.8056 83.547 51.4759 86.1619L51.4135 86.1475C51.4129 86.1071 51.4127 86.0668 51.4127 86.0264C51.4127 84.5802 52.3972 83.2799 53.8741 82.0482C55.3518 80.8156 57.3301 79.645 59.3333 78.4601L59.3351 78.4588C61.6358 77.0979 63.9691 75.7169 65.6247 74.1984C67.2804 72.6799 68.25 71.0298 67.8417 69.1296L67.8996 69.1023C68.5492 69.9061 68.6117 71.0604 68.0808 72.3542ZM67.9339 69.256C68.4826 70.0293 68.5208 71.1093 68.0202 72.3294C67.4945 73.6102 66.3767 75.0407 64.6432 76.4191C63.9348 76.9826 63.5759 77.2667 63.1115 77.5546C62.6464 77.8425 62.0754 78.1343 60.9428 78.7114C55.6687 81.3986 52.8431 83.4343 51.4785 86.014C51.4842 84.603 52.4471 83.3236 53.9167 82.0976C55.3897 80.8691 57.3637 79.701 59.3689 78.5147L59.371 78.5135C61.6694 77.154 64.0084 75.7702 65.6695 74.2459C67.291 72.7588 68.2738 71.1308 67.9339 69.256Z" clip-rule="evenodd" opacity="0.2"/><path fill="#000" fill-opacity="0.2" fill-rule="evenodd" d="M5.1327 77.4341C5.093 80.6619 5.21704 94.5927 21.7707 94.5927C21.8384 94.5927 21.9057 94.5927 21.9725 94.592C21.813 93.7348 22.0242 93.0208 22.6038 92.4084C23.1909 91.7876 22.8221 88.8516 21.9342 87.0758C21.6992 86.6055 21.5987 86.3899 21.4918 86.3867C21.3992 86.384 21.3017 86.5416 21.1076 86.8322C16.3019 94.0259 6.49706 88.5207 6.69579 78.7407C6.72615 77.2484 6.72615 77.2484 6.31019 76.9181C6.00713 76.6784 5.91538 76.595 5.84763 76.6106C5.80684 76.6203 5.77476 76.666 5.7105 76.7351C5.50831 76.9533 5.31564 77.1865 5.1327 77.4341Z" clip-rule="evenodd" style="mix-blend-mode:multiply"/><path fill="#22110c" fill-rule="evenodd" d="M69.331 77.7109C69.3561 81.2925 68.9048 94.6578 52.6907 94.6578C52.5832 94.6578 52.4767 94.6571 52.3715 94.6566C52.5541 93.7706 52.3469 93.0365 51.7529 92.4084C51.1659 91.7876 51.5346 88.8509 52.4225 87.0758C52.6576 86.6055 52.7581 86.3899 52.8648 86.3867C52.9575 86.384 53.055 86.5416 53.2491 86.8322C58.0548 94.0253 67.8595 88.5207 67.6612 78.7408C67.6394 77.6796 67.6328 77.3728 67.7758 77.1676C67.8338 77.0836 67.9161 77.0172 68.0327 76.9227C68.25 76.7461 68.3673 76.6354 68.4793 76.6399C68.6434 76.6471 68.7962 76.9032 69.2375 77.5689C69.2691 77.6165 69.3 77.664 69.331 77.7109Z" clip-rule="evenodd" opacity="0.2"/><path fill="#000" fill-rule="evenodd" d="M34.312 42.5703C34.2127 43.3114 34.3718 44.1982 34.8129 45.1639C35.1431 45.8871 35.1431 45.8871 35.6498 45.8923C36.105 45.897 36.2085 45.9238 36.6674 46.1556C37.1781 46.4136 37.1781 46.4136 37.6889 46.1556C38.1477 45.9238 38.2512 45.897 38.7064 45.8923C39.2132 45.8871 39.2132 45.8871 39.5431 45.1639C39.9839 44.1976 40.1267 43.3064 40.0174 42.5609C39.7986 43.7669 39.2947 45.3433 38.1644 45.4748C37.6751 45.5766 37.3347 45.583 37.2171 45.5731L37.2093 45.5724H37.1183H37.1105C36.9929 45.5823 36.6525 45.5766 36.1632 45.4748C35.036 45.3436 34.5317 43.7751 34.312 42.5703ZM40.9161 46.1926C41.4811 45.3215 41.7171 44.4892 41.7707 43.1789L41.799 42.4907C42.0155 43.6707 41.9577 45.3232 40.967 46.7261C40.7102 46.5099 40.7226 46.4911 40.9161 46.1926ZM44.941 45.0828C44.8953 45.6851 44.7056 46.351 44.3587 47.0465C44.3215 47.1211 44.288 47.189 44.2575 47.2507C44.0713 47.6282 43.9983 47.7761 43.886 47.8157C43.8137 47.8413 43.725 47.8216 43.5789 47.7894C43.542 47.7811 43.5013 47.7722 43.4563 47.7629C43.1045 47.6904 42.9104 47.6827 42.6691 47.7319C42.6059 47.7447 42.5484 47.7568 42.4958 47.7678C42.4846 47.7701 42.4736 47.7723 42.4628 47.7746C42.5058 47.6455 42.8417 47.5402 43.184 47.4329C43.5061 47.332 43.8337 47.2293 43.9283 47.1033C44.3975 46.4778 44.7559 45.8471 44.941 45.0828ZM46.334 44.848C46.3291 45.7457 45.8091 47.2164 45.2245 47.9859C44.9746 48.3146 44.9578 48.3369 45.2752 48.6753C45.9481 47.7133 46.649 45.8191 46.3839 44.787C46.3517 44.8021 46.3341 44.8223 46.334 44.848ZM50.4906 47.8963C50.4044 48.4473 50.0967 49.6072 49.6261 50.1C49.0662 50.6863 48.8357 50.7514 48.3746 50.556C48.1003 50.4398 47.7 50.4963 47.4088 50.5731C47.9376 50.5929 48.4155 50.7329 48.8548 50.9956L48.8687 51.0038L48.8936 51.0189C49.0535 51.1146 49.1421 51.1678 49.2229 51.158C49.3235 51.1459 49.412 51.0365 49.6105 50.7914L49.6303 50.7671L49.6496 50.7434C50.3165 49.9214 50.5818 48.8731 50.4906 47.8963ZM55.27 51.4222C55.1536 52.3316 54.822 53.9487 53.5455 55.0182C52.3443 56.0247 51.4376 56.093 51.24 54.6599C51.2209 54.5216 51.194 54.4482 51.1623 54.4266C51.2217 54.9323 51.1969 55.4423 51.077 55.906C51.0046 56.1861 50.9452 56.4235 50.9452 56.4334C50.9452 56.5945 52.7366 55.8512 53.3643 55.4296C54.806 54.4614 55.4381 52.8643 55.27 51.4222ZM51.8651 48.9878C51.7091 49.997 51.3415 50.7152 50.5791 51.5044C50.0889 52.0119 50.0889 52.0119 50.2952 52.2653C50.3173 52.2924 50.3391 52.32 50.3605 52.348C51.0169 51.6883 51.7483 50.4284 51.8651 48.9878ZM45.273 52.0425C45.1511 52.7318 44.9503 53.486 44.6528 53.8456C44.06 54.5623 43.2695 54.7576 42.6438 54.6599C42.3292 54.6109 41.8074 54.7477 41.3515 54.9074C42.2766 54.8686 42.9791 55.0492 43.5891 55.4654C43.7384 55.5672 43.8592 55.6112 43.8855 55.5733C43.9099 55.538 44.0539 55.3493 44.2054 55.1539C44.8753 54.2894 45.2389 53.1124 45.273 52.0425ZM39.956 54.5887C40.9042 54.0942 42.4242 52.7711 42.4056 50.6658C42.2217 52.1849 41.3173 53.5312 39.8955 54.3437C39.8784 54.3535 39.909 54.4607 39.956 54.5887ZM41.1576 50.8075C40.8649 51.6611 40.2138 53.0037 39.1855 52.6404C38.2633 52.3147 37.7034 52.2496 37.2423 52.2496C37.2127 52.2496 37.1868 52.2524 37.1639 52.2576C37.141 52.2524 37.1149 52.2496 37.0854 52.2496C36.6242 52.2496 36.0643 52.3147 35.1422 52.6404C34.2142 52.9683 33.5934 51.9067 33.2659 51.0691C33.4185 51.6992 33.7321 52.3836 34.2087 53.0956C34.5072 53.5416 34.6176 53.7063 34.7046 53.6952C34.7557 53.6885 34.7986 53.6215 34.8669 53.5152C35.8481 51.9849 38.5081 51.9849 39.4894 53.5152C39.7563 53.9314 40.831 52.3446 41.1039 51.1311C41.1282 51.0232 41.1459 50.9152 41.1576 50.8075ZM29.0561 52.05C29.0675 53.0746 29.4198 54.2105 30.1508 55.1539C30.3024 55.3493 30.4464 55.538 30.4708 55.5733C30.4971 55.6112 30.6178 55.5672 30.7671 55.4654C31.3701 55.0541 32.0633 54.8728 32.9726 54.9061C32.5174 54.747 31.9976 54.611 31.684 54.6599C31.0581 54.7576 30.2677 54.5623 29.6748 53.8456C29.3785 53.4873 29.1781 52.7372 29.0561 52.05ZM31.9295 50.449C31.7988 52.6986 33.4175 54.1002 34.3956 54.6011C34.4453 54.4677 34.4784 54.3538 34.4607 54.3437C32.9716 53.4927 32.05 52.0563 31.9295 50.449ZM29.0647 48.6926C29.399 48.3376 29.3858 48.3202 29.1318 47.9859C28.5471 47.2164 28.0271 45.7457 28.0222 44.848C28.0221 44.8342 27.9907 44.8238 27.9365 44.8163C27.6904 45.8608 28.3944 47.7452 29.0647 48.6926ZM23.8409 47.9198C23.7404 48.866 24.0071 49.8812 24.7066 50.7434C24.7201 50.7599 24.7331 50.776 24.7457 50.7914C24.9442 51.0365 25.0327 51.1459 25.1334 51.158C25.2142 51.1678 25.3027 51.1146 25.4626 51.0189C25.4751 51.0114 25.4881 51.0035 25.5015 50.9956C25.9339 50.7371 26.4037 50.5973 26.9227 50.574C26.6312 50.4968 26.2286 50.4392 25.9532 50.556C25.492 50.7514 25.2615 50.6863 24.7016 50.1C24.2376 49.6141 23.9319 48.4796 23.8409 47.9198ZM29.4584 45.3446C29.5286 45.885 29.706 46.4621 29.9975 47.0465C30.0348 47.1211 30.0683 47.1889 30.0987 47.2507C30.2849 47.6281 30.358 47.7761 30.4702 47.8157C30.5426 47.8413 30.6313 47.8216 30.7774 47.7894C30.8142 47.7811 30.8549 47.7722 30.9 47.7629C31.2518 47.6904 31.4459 47.6827 31.6871 47.7319C31.7503 47.7447 31.8078 47.7568 31.8604 47.7678C31.8611 47.7679 31.8618 47.768 31.8625 47.7682C31.8106 47.6419 31.4802 47.5384 31.1436 47.4329C30.8217 47.332 30.4941 47.2293 30.3995 47.1033C29.9849 46.5506 29.6568 45.9939 29.4584 45.3446ZM32.5065 42.62C32.5525 42.7656 32.5762 42.9529 32.5858 43.1868C32.6391 44.4886 32.8764 45.3234 33.4402 46.1926C33.6381 46.4978 33.6464 46.5106 33.3713 46.7411C32.4062 45.3854 32.3169 43.7937 32.5065 42.62ZM23.1947 54.4211C23.1502 54.4104 23.1123 54.4808 23.0877 54.6599C22.8901 56.093 21.9834 56.0247 20.7822 55.0182C19.6039 54.0309 19.2307 52.577 19.0887 51.644C19.018 53.0196 19.6231 54.5103 20.992 55.4296C21.6197 55.8512 23.411 56.5945 23.411 56.4334C23.411 56.4235 23.3517 56.1861 23.2792 55.906C23.1589 55.4407 23.1344 54.9286 23.1947 54.4211ZM23.9834 52.3642C24.0086 52.3309 24.0342 52.2981 24.0602 52.2661C24.2661 52.0136 24.2661 52.0136 23.7494 51.4739C22.9839 50.6742 22.5694 49.8143 22.4553 48.789C22.4528 48.7667 22.4506 48.7455 22.4483 48.7252C22.4911 50.2862 23.2834 51.6698 23.9834 52.3642Z" clip-rule="evenodd" opacity="0.2"/><path fill="#f1f1f1" d="M61.524 83.16C61.524 82.369 62.188 81.727 63.006 81.727 63.825 81.727 64.488 82.369 64.488 83.16 64.488 83.952 63.825 84.593 63.006 84.593 62.188 84.593 61.524 83.952 61.524 83.16ZM9.815 83.16C9.815 82.369 10.478 81.727 11.297 81.727 12.115 81.727 12.779 82.369 12.779 83.16 12.779 83.952 12.115 84.593 11.297 84.593 10.478 84.593 9.815 83.952 9.815 83.16ZM13.767 84.463C13.767 84.247 13.576 84.072 13.339 84.072 13.103 84.072 12.911 84.247 12.911 84.463 12.911 84.679 13.103 84.854 13.339 84.854 13.576 84.854 13.767 84.679 13.767 84.463Z"/></g><path fill="#000" d="M425.861 84.329 427.493 92.215C426.36 92.985 424.728 93.688 422.599 94.322 420.515 94.911 418.43 95.206 416.345 95.206 412.313 95.206 408.96 93.937 406.286 91.399 403.659 88.861 402.344 85.054 402.344 79.978V66.178H395.684V57H402.344V48.911L412.064 46.803V57H425.929V66.178H412.064V79.434C412.064 83.921 414.057 86.164 418.044 86.164 419.812 86.164 422.417 85.552 425.861 84.329ZM375.101 95.206C370.072 95.206 365.881 94.05 362.528 91.739 359.175 89.382 357.158 86.164 356.479 82.085H366.333C367.15 85.439 370.163 87.116 375.373 87.116 379.587 87.116 381.695 86.096 381.695 84.057 381.695 83.785 381.649 83.536 381.559 83.309 381.513 83.082 381.4 82.878 381.219 82.697 381.083 82.516 380.925 82.357 380.743 82.221 380.562 82.04 380.29 81.881 379.927 81.745 379.61 81.61 379.315 81.496 379.044 81.405 378.772 81.315 378.364 81.202 377.82 81.066 377.322 80.93 376.869 80.816 376.461 80.726 376.098 80.635 375.577 80.522 374.898 80.386 374.217 80.25 373.629 80.114 373.13 79.978 367.557 78.664 363.66 77.236 361.44 75.695 359.265 74.109 358.178 71.752 358.178 68.625 358.178 64.728 359.65 61.691 362.595 59.516 365.586 57.295 369.573 56.184 374.558 56.184 379.542 56.184 383.416 57.272 386.18 59.448 388.944 61.578 390.666 64.478 391.346 68.149H381.491C380.675 65.611 378.251 64.342 374.217 64.342 370.049 64.342 367.965 65.385 367.965 67.469 367.965 68.285 368.395 68.874 369.256 69.237 370.118 69.6 372.066 70.121 375.101 70.8 378.138 71.48 380.539 72.115 382.306 72.704 384.073 73.248 385.75 73.973 387.335 74.879 388.922 75.786 390.055 76.873 390.734 78.142 391.414 79.411 391.754 80.952 391.754 82.765 391.754 86.799 390.191 89.881 387.064 92.011 383.937 94.141 379.95 95.206 375.101 95.206ZM332.125 56.184C338.242 56.184 343.068 58.292 346.602 62.507 350.182 66.722 351.722 71.956 351.224 78.21H322.541C322.859 81.111 323.901 83.332 325.667 84.873 327.435 86.413 329.632 87.184 332.261 87.184 334.163 87.184 335.863 86.776 337.358 85.96 338.854 85.099 339.918 83.943 340.553 82.493H350.612C349.298 86.708 346.987 89.881 343.679 92.011 340.372 94.141 336.588 95.206 332.328 95.206 326.529 95.206 321.793 93.37 318.124 89.699 314.453 86.028 312.618 81.383 312.618 75.763 312.618 70.143 314.453 65.475 318.124 61.759 321.793 58.043 326.46 56.184 332.125 56.184ZM332.057 64.206C329.746 64.206 327.82 64.841 326.279 66.11 324.739 67.333 323.652 68.988 323.017 71.072H340.893C340.348 68.988 339.306 67.333 337.766 66.11 336.225 64.841 334.323 64.206 332.057 64.206ZM302.499 49.726C298.104 49.726 295.907 52.106 295.907 56.864V57H308.345V66.178H295.907V94.39H286.188V66.178H279.527V57H286.188V56.389C286.188 51.403 287.66 47.642 290.605 45.104 293.551 42.52 297.153 41.229 301.412 41.229 304.81 41.229 307.756 41.795 310.248 42.928L308.481 50.814 307.19 50.474C305.468 49.976 303.904 49.726 302.499 49.726ZM269.277 39.733C271.045 39.733 272.494 40.277 273.627 41.365 274.76 42.407 275.326 43.767 275.326 45.443 275.326 47.12 274.76 48.503 273.627 49.59 272.494 50.678 271.045 51.222 269.277 51.222 267.556 51.222 266.106 50.678 264.927 49.59 263.795 48.503 263.228 47.12 263.228 45.443 263.228 43.812 263.795 42.452 264.927 41.365 266.106 40.277 267.556 39.733 269.277 39.733ZM264.383 94.39V57H274.103V94.39H264.383ZM243.442 56.184C247.656 56.184 250.964 57.499 253.366 60.128 255.767 62.756 256.967 66.359 256.967 70.936V94.39H247.248V73.044C247.248 70.506 246.705 68.602 245.617 67.333 244.53 66.064 242.74 65.43 240.248 65.43 234.629 65.43 231.819 68.534 231.819 74.743V94.39H222.099V57H231.819V62.099C234.629 58.156 238.503 56.184 243.442 56.184ZM204.635 57H214.355L214.287 94.39H204.568V89.359C201.712 93.257 197.816 95.206 192.877 95.206 187.937 95.206 183.86 93.393 180.643 89.767 177.426 86.096 175.817 81.405 175.817 75.695 175.817 69.985 177.426 65.317 180.643 61.691 183.905 58.02 187.961 56.184 192.809 56.184 197.793 56.184 201.736 58.201 204.635 62.235V57ZM195.052 85.96C197.816 85.96 200.104 85.009 201.917 83.105 203.729 81.202 204.635 78.732 204.635 75.695 204.635 72.659 203.729 70.189 201.917 68.285 200.104 66.382 197.816 65.43 195.052 65.43 192.288 65.43 190.023 66.382 188.255 68.285 186.488 70.189 185.604 72.659 185.604 75.695 185.604 78.732 186.488 81.202 188.255 83.105 190.068 85.009 192.334 85.96 195.052 85.96ZM156.375 56.184C160.363 56.184 163.512 57.476 165.823 60.059 168.134 62.643 169.289 66.2 169.289 70.733V94.39H159.57V72.84C159.57 70.393 159.049 68.557 158.006 67.333 157.01 66.064 155.378 65.43 153.112 65.43 150.576 65.43 148.65 66.246 147.335 67.877 146.021 69.464 145.364 71.752 145.364 74.743V94.39H135.645V72.84C135.645 70.393 135.124 68.557 134.081 67.333 133.085 66.064 131.453 65.43 129.187 65.43 126.651 65.43 124.702 66.246 123.343 67.877 122.029 69.464 121.372 71.752 121.372 74.743L121.439 94.39H111.652V57H121.439V61.963C124.158 58.111 127.851 56.184 132.518 56.184 137.956 56.184 141.739 58.541 143.87 63.255 146.769 58.541 150.937 56.184 156.375 56.184Z"/></g><defs><clipPath id="clip0_2840_12790"><path fill="#fff" d="M0 0H428V114H0z"/></clipPath></defs></svg>