<?xml version="1.0" standalone="no"?>
<!DOCTYPE svg PUBLIC "-//W3C//DTD SVG 1.1//EN" "http://www.w3.org/Graphics/SVG/1.1/DTD/svg11.dtd" >
<svg xmlns="http://www.w3.org/2000/svg">
<metadata>
<json>
<![CDATA[
{
	"fontFamily": "buddyweb-icon",
	"majorVersion": 1,
	"minorVersion": 2,
	"description": "Buddyweb Icon fonts\nFont generated by IcoMoon.",
	"designer": "Sébastien Conejo",
	"designerURL": "http://www.buddyweb.fr",
	"license": "",
	"version": "Version 1.2",
	"fontId": "buddyweb-icon",
	"psName": "buddyweb-icon",
	"subFamily": "Regular",
	"fullName": "buddyweb-icon"
}
]]>
</json>
</metadata>
<defs>
<font id="buddyweb-icon" horiz-adv-x="1024">
<font-face units-per-em="1024" ascent="960" descent="-64" />
<missing-glyph horiz-adv-x="1024" />
<glyph unicode="&#x20;" horiz-adv-x="512" d="" />
<glyph unicode="&#x2611;" glyph-name="check" data-tags="check" d="M1024-70.34h-1024v1024h1024v-1024zM60.235-10.105h903.529v903.529h-903.529v-903.529zM250.666 419.455l42.592 42.592 178.888-178.888-42.592-42.592-178.888 178.888zM432.28 284.068l362.035 362.035 42.592-42.592-362.035-362.035-42.592 42.592z" />
<glyph unicode="&#xe900;" glyph-name="alert-octagon" data-tags="alert-octagon" d="M686.933-21.333h-349.867c-12.8 0-21.333 4.267-29.867 12.8l-251.733 251.733c-8.533 4.267-12.8 17.067-12.8 29.867v349.867c0 12.8 4.267 21.333 12.8 29.867l251.733 251.733c4.267 8.533 17.067 12.8 29.867 12.8h354.133c12.8 0 21.333-4.267 29.867-12.8l251.733-251.733c4.267-4.267 8.533-17.067 8.533-29.867v-354.133c0-12.8-4.267-21.333-12.8-29.867l-251.733-251.733c-4.267-4.267-17.067-8.533-29.867-8.533zM354.133 64h320l226.133 226.133v315.733l-230.4 226.133h-315.733l-226.133-226.133v-320l226.133-221.867zM512 405.333c-25.6 0-42.667 17.067-42.667 42.667v170.667c0 25.6 17.067 42.667 42.667 42.667s42.667-17.067 42.667-42.667v-170.667c0-25.6-17.067-42.667-42.667-42.667zM512 234.667c-4.267 0-12.8 0-17.067 4.267-4.267 0-8.533 4.267-12.8 8.533-8.533 8.533-12.8 17.067-12.8 29.867 0 4.267 0 12.8 4.267 17.067s4.267 8.533 8.533 12.8c4.267 4.267 8.533 8.533 12.8 8.533 8.533 4.267 21.333 4.267 34.133 0 4.267 0 8.533-4.267 12.8-8.533s8.533-8.533 8.533-12.8c0-4.267 4.267-8.533 4.267-17.067 0-12.8-4.267-21.333-12.8-29.867s-17.067-12.8-29.867-12.8z" />
<glyph unicode="&#xe901;" glyph-name="alert-triangle" data-tags="alert-triangle" d="M149.333 21.333c-21.333 0-42.667 4.267-64 17.067-59.733 34.133-81.067 115.2-46.933 174.933l362.667 605.867c0 0 0 0 0 0 8.533 17.067 25.6 34.133 42.667 42.667 29.867 17.067 64 21.333 98.133 12.8s59.733-29.867 81.067-59.733l358.4-601.6c12.8-21.333 17.067-42.667 17.067-64 0-34.133-12.8-68.267-38.4-89.6-21.333-25.6-51.2-38.4-85.333-38.4h-725.333zM473.6 772.267l-358.4-601.6c-12.8-21.333-4.267-46.933 17.067-59.733 4.267-4.267 12.8-4.267 17.067-4.267h721.067c12.8 0 21.333 4.267 29.867 12.8s12.8 17.067 12.8 29.867c0 8.533 0 12.8-4.267 21.333l-358.4 601.6c-12.8 21.333-38.4 25.6-59.733 17.067-8.533-4.267-12.8-8.533-17.067-17.067zM512 362.667c-25.6 0-42.667 17.067-42.667 42.667v170.667c0 25.6 17.067 42.667 42.667 42.667s42.667-17.067 42.667-42.667v-170.667c0-25.6-17.067-42.667-42.667-42.667zM512 192c-12.8 0-21.333 4.267-29.867 12.8s-12.8 17.067-12.8 29.867c0 4.267 0 12.8 4.267 17.067s4.267 8.533 8.533 12.8c17.067 17.067 42.667 17.067 59.733 0 4.267-4.267 8.533-8.533 8.533-12.8s4.267-8.533 4.267-17.067 0-12.8-4.267-17.067c-4.267-4.267-4.267-8.533-8.533-12.8-8.533-8.533-17.067-12.8-29.867-12.8z" />
<glyph unicode="&#xe902;" glyph-name="archive" data-tags="archive" d="M896 21.333h-768c-25.6 0-42.667 17.067-42.667 42.667v554.667c0 25.6 17.067 42.667 42.667 42.667s42.667-17.067 42.667-42.667v-512h682.667v512c0 25.6 17.067 42.667 42.667 42.667s42.667-17.067 42.667-42.667v-554.667c0-25.6-17.067-42.667-42.667-42.667zM981.333 576h-938.667c-25.6 0-42.667 17.067-42.667 42.667v213.333c0 25.6 17.067 42.667 42.667 42.667h938.667c25.6 0 42.667-17.067 42.667-42.667v-213.333c0-25.6-17.067-42.667-42.667-42.667zM85.333 661.333h853.333v128h-853.333v-128zM597.333 405.333h-170.667c-25.6 0-42.667 17.067-42.667 42.667s17.067 42.667 42.667 42.667h170.667c25.6 0 42.667-17.067 42.667-42.667s-17.067-42.667-42.667-42.667z" />
<glyph unicode="&#xe903;" glyph-name="arrow-bottom-circle" data-tags="arrow-bottom-circle" d="M42.667 448c0 260.267 209.067 469.333 469.333 469.333s469.333-209.067 469.333-469.333-209.067-469.333-469.333-469.333-469.333 209.067-469.333 469.333zM896 448c0 213.333-170.667 384-384 384s-384-170.667-384-384c0-213.333 170.667-384 384-384s384 170.667 384 384zM298.667 448c0 12.8 4.267 21.333 12.8 29.867 17.067 17.067 42.667 17.067 59.733 0l140.8-140.8 140.8 140.8c17.067 17.067 42.667 17.067 59.733 0s17.067-42.667 0-59.733l-170.667-170.667c-17.067-17.067-42.667-17.067-59.733 0l-170.667 170.667c-8.533 8.533-12.8 17.067-12.8 29.867zM469.333 277.333v341.333c0 25.6 17.067 42.667 42.667 42.667s42.667-17.067 42.667-42.667v-341.333c0-25.6-17.067-42.667-42.667-42.667s-42.667 17.067-42.667 42.667z" />
<glyph unicode="&#xe904;" glyph-name="arrow-bottom" data-tags="arrow-bottom" d="M512 789.333c25.6 0 42.667-17.067 42.667-42.667v-597.333c0-25.6-17.067-42.667-42.667-42.667s-42.667 17.067-42.667 42.667v597.333c0 25.6 17.067 42.667 42.667 42.667zM213.333 490.667c12.8 0 21.333-4.267 29.867-12.8l268.8-268.8 268.8 268.8c17.067 17.067 42.667 17.067 59.733 0s17.067-42.667 0-59.733l-298.667-298.667c-17.067-17.067-42.667-17.067-59.733 0l-298.667 298.667c-17.067 17.067-17.067 42.667 0 59.733 8.533 8.533 17.067 12.8 29.867 12.8z" />
<glyph unicode="&#xe905;" glyph-name="arrow-left-circle" data-tags="arrow-left-circle" d="M512 917.333c260.267 0 469.333-209.067 469.333-469.333s-209.067-469.333-469.333-469.333-469.333 209.067-469.333 469.333 209.067 469.333 469.333 469.333zM512 64c213.333 0 384 170.667 384 384s-170.667 384-384 384c-213.333 0-384-170.667-384-384s170.667-384 384-384zM512 661.333c12.8 0 21.333-4.267 29.867-12.8 17.067-17.067 17.067-42.667 0-59.733l-140.8-140.8 140.8-140.8c17.067-17.067 17.067-42.667 0-59.733s-42.667-17.067-59.733 0l-170.667 170.667c-17.067 17.067-17.067 42.667 0 59.733l170.667 170.667c8.533 8.533 17.067 12.8 29.867 12.8zM341.333 490.667h341.333c25.6 0 42.667-17.067 42.667-42.667s-17.067-42.667-42.667-42.667h-341.333c-25.6 0-42.667 17.067-42.667 42.667s17.067 42.667 42.667 42.667z" />
<glyph unicode="&#xe906;" glyph-name="arrow-left" data-tags="arrow-left" d="M853.333 448c0-25.6-17.067-42.667-42.667-42.667h-597.333c-25.6 0-42.667 17.067-42.667 42.667s17.067 42.667 42.667 42.667h597.333c25.6 0 42.667-17.067 42.667-42.667zM554.667 746.667c0-12.8-4.267-21.333-12.8-29.867l-268.8-268.8 268.8-268.8c17.067-17.067 17.067-42.667 0-59.733s-42.667-17.067-59.733 0l-298.667 298.667c-17.067 17.067-17.067 42.667 0 59.733l298.667 298.667c17.067 17.067 42.667 17.067 59.733 0 8.533-8.533 12.8-17.067 12.8-29.867z" />
<glyph unicode="&#xe907;" glyph-name="arrow-right-circle" data-tags="arrow-right-circle" d="M512-21.333c-260.267 0-469.333 209.067-469.333 469.333s209.067 469.333 469.333 469.333 469.333-209.067 469.333-469.333-209.067-469.333-469.333-469.333zM512 832c-213.333 0-384-170.667-384-384s170.667-384 384-384c213.333 0 384 170.667 384 384s-170.667 384-384 384zM512 234.667c-12.8 0-21.333 4.267-29.867 12.8-17.067 17.067-17.067 42.667 0 59.733l140.8 140.8-140.8 140.8c-17.067 17.067-17.067 42.667 0 59.733s42.667 17.067 59.733 0l170.667-170.667c17.067-17.067 17.067-42.667 0-59.733l-170.667-170.667c-8.533-8.533-17.067-12.8-29.867-12.8zM682.667 405.333h-341.333c-25.6 0-42.667 17.067-42.667 42.667s17.067 42.667 42.667 42.667h341.333c25.6 0 42.667-17.067 42.667-42.667s-17.067-42.667-42.667-42.667z" />
<glyph unicode="&#xe908;" glyph-name="arrow-right" data-tags="arrow-right" d="M170.667 448c0 25.6 17.067 42.667 42.667 42.667h597.333c25.6 0 42.667-17.067 42.667-42.667s-17.067-42.667-42.667-42.667h-597.333c-25.6 0-42.667 17.067-42.667 42.667zM469.333 149.333c0 12.8 4.267 21.333 12.8 29.867l268.8 268.8-268.8 268.8c-17.067 17.067-17.067 42.667 0 59.733s42.667 17.067 59.733 0l298.667-298.667c17.067-17.067 17.067-42.667 0-59.733l-298.667-298.667c-17.067-17.067-42.667-17.067-59.733 0-8.533 8.533-12.8 17.067-12.8 29.867z" />
<glyph unicode="&#xe909;" glyph-name="arrow-up-circle" data-tags="arrow-up-circle" d="M981.333 448c0-260.267-209.067-469.333-469.333-469.333s-469.333 209.067-469.333 469.333 209.067 469.333 469.333 469.333 469.333-209.067 469.333-469.333zM128 448c0-213.333 170.667-384 384-384s384 170.667 384 384c0 213.333-170.667 384-384 384s-384-170.667-384-384zM725.333 448c0-12.8-4.267-21.333-12.8-29.867-17.067-17.067-42.667-17.067-59.733 0l-140.8 140.8-140.8-140.8c-17.067-17.067-42.667-17.067-59.733 0s-17.067 42.667 0 59.733l170.667 170.667c17.067 17.067 42.667 17.067 59.733 0l170.667-170.667c8.533-8.533 12.8-17.067 12.8-29.867zM554.667 618.667v-341.333c0-25.6-17.067-42.667-42.667-42.667s-42.667 17.067-42.667 42.667v341.333c0 25.6 17.067 42.667 42.667 42.667s42.667-17.067 42.667-42.667z" />
<glyph unicode="&#xe90a;" glyph-name="arrow-up" data-tags="arrow-up" d="M512 106.667c-25.6 0-42.667 17.067-42.667 42.667v597.333c0 25.6 17.067 42.667 42.667 42.667s42.667-17.067 42.667-42.667v-597.333c0-25.6-17.067-42.667-42.667-42.667zM810.667 405.333c-12.8 0-21.333 4.267-29.867 12.8l-268.8 268.8-268.8-268.8c-17.067-17.067-42.667-17.067-59.733 0s-17.067 42.667 0 59.733l298.667 298.667c17.067 17.067 42.667 17.067 59.733 0l298.667-298.667c17.067-17.067 17.067-42.667 0-59.733-8.533-8.533-17.067-12.8-29.867-12.8z" />
<glyph unicode="&#xe90b;" glyph-name="check1" data-tags="check" d="M384 192c-12.8 0-21.333 4.267-29.867 12.8l-213.333 213.333c-17.067 17.067-17.067 42.667 0 59.733s42.667 17.067 59.733 0l183.467-183.467 439.467 439.467c17.067 17.067 42.667 17.067 59.733 0s17.067-42.667 0-59.733l-469.333-469.333c-8.533-8.533-17.067-12.8-29.867-12.8z" />
<glyph unicode="&#xe90c;" glyph-name="chevron-bottom" data-tags="chevron-bottom" d="M256 618.667c12.8 0 21.333-4.267 29.867-12.8l226.133-226.133 226.133 226.133c17.067 17.067 42.667 17.067 59.733 0s17.067-42.667 0-59.733l-256-256c-17.067-17.067-42.667-17.067-59.733 0l-256 256c-17.067 17.067-17.067 42.667 0 59.733 8.533 8.533 17.067 12.8 29.867 12.8z" />
<glyph unicode="&#xe90d;" glyph-name="chevron-left" data-tags="chevron-left" d="M682.667 704c0-12.8-4.267-21.333-12.8-29.867l-226.133-226.133 226.133-226.133c17.067-17.067 17.067-42.667 0-59.733s-42.667-17.067-59.733 0l-256 256c-17.067 17.067-17.067 42.667 0 59.733l256 256c17.067 17.067 42.667 17.067 59.733 0 8.533-8.533 12.8-17.067 12.8-29.867z" />
<glyph unicode="&#xe90e;" glyph-name="chevron-right" data-tags="chevron-right" d="M341.333 192c0 12.8 4.267 21.333 12.8 29.867l226.133 226.133-226.133 226.133c-17.067 17.067-17.067 42.667 0 59.733s42.667 17.067 59.733 0l256-256c17.067-17.067 17.067-42.667 0-59.733l-256-256c-17.067-17.067-42.667-17.067-59.733 0-8.533 8.533-12.8 17.067-12.8 29.867z" />
<glyph unicode="&#xe90f;" glyph-name="chevron-up" data-tags="chevron-up" d="M768 277.333c-12.8 0-21.333 4.267-29.867 12.8l-226.133 226.133-226.133-226.133c-17.067-17.067-42.667-17.067-59.733 0s-17.067 42.667 0 59.733l256 256c17.067 17.067 42.667 17.067 59.733 0l256-256c17.067-17.067 17.067-42.667 0-59.733-8.533-8.533-17.067-12.8-29.867-12.8z" />
<glyph unicode="&#xe910;" glyph-name="clipboard" data-tags="clipboard" d="M768-21.333h-512c-72.533 0-128 55.467-128 128v597.333c0 72.533 55.467 128 128 128h85.333c25.6 0 42.667-17.067 42.667-42.667s-17.067-42.667-42.667-42.667h-85.333c-25.6 0-42.667-17.067-42.667-42.667v-597.333c0-25.6 17.067-42.667 42.667-42.667h512c25.6 0 42.667 17.067 42.667 42.667v597.333c0 25.6-17.067 42.667-42.667 42.667h-85.333c-25.6 0-42.667 17.067-42.667 42.667s17.067 42.667 42.667 42.667h85.333c72.533 0 128-55.467 128-128v-597.333c0-72.533-55.467-128-128-128zM640 661.333h-256c-46.933 0-85.333 38.4-85.333 85.333v85.333c0 46.933 38.4 85.333 85.333 85.333h256c46.933 0 85.333-38.4 85.333-85.333v-85.333c0-46.933-38.4-85.333-85.333-85.333zM384 832v0-85.333h256v85.333h-256z" />
<glyph unicode="&#xe911;" glyph-name="delete" data-tags="delete" d="M896 64h-554.667c-12.8 0-25.6 4.267-34.133 12.8l-298.667 341.333c-12.8 17.067-12.8 38.4 0 55.467l298.667 341.333c8.533 12.8 21.333 17.067 34.133 17.067h554.667c72.533 0 128-55.467 128-128v-512c0-72.533-55.467-128-128-128zM362.667 149.333h533.333c25.6 0 42.667 17.067 42.667 42.667v512c0 25.6-17.067 42.667-42.667 42.667h-533.333l-260.267-298.667 260.267-298.667zM512 277.333c-12.8 0-21.333 4.267-29.867 12.8-17.067 17.067-17.067 42.667 0 59.733l256 256c17.067 17.067 42.667 17.067 59.733 0s17.067-42.667 0-59.733l-256-256c-8.533-8.533-17.067-12.8-29.867-12.8zM768 277.333c-12.8 0-21.333 4.267-29.867 12.8l-256 256c-17.067 17.067-17.067 42.667 0 59.733s42.667 17.067 59.733 0l256-256c17.067-17.067 17.067-42.667 0-59.733-8.533-8.533-17.067-12.8-29.867-12.8z" />
<glyph unicode="&#xe912;" glyph-name="edit-2" data-tags="edit-2" d="M341.333 21.333h-213.333c-25.6 0-42.667 17.067-42.667 42.667v213.333c0 12.8 4.267 21.333 12.8 29.867l554.667 554.667c17.067 17.067 42.667 17.067 59.733 0l213.333-213.333c17.067-17.067 17.067-42.667 0-59.733l-554.667-554.667c-8.533-8.533-17.067-12.8-29.867-12.8zM170.667 106.667h153.6l512 512-153.6 153.6-512-512v-153.6z" />
<glyph unicode="&#xe913;" glyph-name="edit-3" data-tags="edit-3" d="M298.667 192h-170.667c-25.6 0-42.667 17.067-42.667 42.667v170.667c0 12.8 4.267 21.333 12.8 29.867l469.333 469.333c17.067 17.067 42.667 17.067 59.733 0l170.667-170.667c17.067-17.067 17.067-42.667 0-59.733l-469.333-469.333c-8.533-8.533-17.067-12.8-29.867-12.8zM170.667 277.333h110.933l426.667 426.667-110.933 110.933-426.667-426.667v-110.933zM896-21.333h-768c-25.6 0-42.667 17.067-42.667 42.667s17.067 42.667 42.667 42.667h768c25.6 0 42.667-17.067 42.667-42.667s-17.067-42.667-42.667-42.667z" />
<glyph unicode="&#xe914;" glyph-name="edit" data-tags="edit" d="M768-21.333h-597.333c-72.533 0-128 55.467-128 128v597.333c0 72.533 55.467 128 128 128h226.133c25.6 0 42.667-17.067 42.667-42.667s-17.067-42.667-42.667-42.667h-226.133c-25.6 0-42.667-17.067-42.667-42.667v-597.333c0-25.6 17.067-42.667 42.667-42.667h597.333c25.6 0 42.667 17.067 42.667 42.667v226.133c0 25.6 17.067 42.667 42.667 42.667s42.667-17.067 42.667-42.667v-226.133c0-72.533-55.467-128-128-128zM512 234.667h-170.667c-25.6 0-42.667 17.067-42.667 42.667v170.667c0 12.8 4.267 21.333 12.8 29.867l426.667 426.667c17.067 17.067 42.667 17.067 59.733 0l170.667-170.667c17.067-17.067 17.067-42.667 0-59.733l-426.667-426.667c-8.533-8.533-17.067-12.8-29.867-12.8zM384 320h110.933l384 384-110.933 110.933-384-384v-110.933z" />
<glyph unicode="&#xe915;" glyph-name="user-plus" data-tags="user-plus" d="M682.667 21.333c-25.6 0-42.667 17.067-42.667 42.667v85.333c0 72.533-55.467 128-128 128h-298.667c-72.533 0-128-55.467-128-128v-85.333c0-25.6-17.067-42.667-42.667-42.667s-42.667 17.067-42.667 42.667v85.333c0 119.467 93.867 213.333 213.333 213.333h298.667c119.467 0 213.333-93.867 213.333-213.333v-85.333c0-25.6-17.067-42.667-42.667-42.667zM362.667 448c-119.467 0-213.333 93.867-213.333 213.333s93.867 213.333 213.333 213.333 213.333-93.867 213.333-213.333-93.867-213.333-213.333-213.333zM362.667 789.333c-72.533 0-128-55.467-128-128s55.467-128 128-128 128 55.467 128 128-55.467 128-128 128zM853.333 320c-25.6 0-42.667 17.067-42.667 42.667v256c0 25.6 17.067 42.667 42.667 42.667s42.667-17.067 42.667-42.667v-256c0-25.6-17.067-42.667-42.667-42.667zM981.333 448h-256c-25.6 0-42.667 17.067-42.667 42.667s17.067 42.667 42.667 42.667h256c25.6 0 42.667-17.067 42.667-42.667s-17.067-42.667-42.667-42.667z" />
<glyph unicode="&#xe916;" glyph-name="user" data-tags="user" d="M853.333 21.333c-25.6 0-42.667 17.067-42.667 42.667v85.333c0 72.533-55.467 128-128 128h-341.333c-72.533 0-128-55.467-128-128v-85.333c0-25.6-17.067-42.667-42.667-42.667s-42.667 17.067-42.667 42.667v85.333c0 119.467 93.867 213.333 213.333 213.333h341.333c119.467 0 213.333-93.867 213.333-213.333v-85.333c0-25.6-17.067-42.667-42.667-42.667zM512 448c-119.467 0-213.333 93.867-213.333 213.333s93.867 213.333 213.333 213.333 213.333-93.867 213.333-213.333-93.867-213.333-213.333-213.333zM512 789.333c-72.533 0-128-55.467-128-128s55.467-128 128-128 128 55.467 128 128-55.467 128-128 128z" />
<glyph unicode="&#xe917;" glyph-name="users" data-tags="users" d="M725.333 21.333c-25.6 0-42.667 17.067-42.667 42.667v85.333c0 72.533-55.467 128-128 128h-341.333c-72.533 0-128-55.467-128-128v-85.333c0-25.6-17.067-42.667-42.667-42.667s-42.667 17.067-42.667 42.667v85.333c0 119.467 93.867 213.333 213.333 213.333h341.333c119.467 0 213.333-93.867 213.333-213.333v-85.333c0-25.6-17.067-42.667-42.667-42.667zM384 448c-119.467 0-213.333 93.867-213.333 213.333s93.867 213.333 213.333 213.333 213.333-93.867 213.333-213.333-93.867-213.333-213.333-213.333zM384 789.333c-72.533 0-128-55.467-128-128s55.467-128 128-128 128 55.467 128 128-55.467 128-128 128zM981.333 21.333c-25.6 0-42.667 17.067-42.667 42.667v85.333c0 59.733-38.4 110.933-93.867 123.733-21.333 4.267-38.4 29.867-29.867 51.2 4.267 21.333 29.867 38.4 51.2 29.867 93.867-25.6 157.867-110.933 162.133-204.8v-85.333c-4.267-25.6-21.333-42.667-46.933-42.667zM682.667 452.267c-17.067 0-38.4 12.8-42.667 34.133s8.533 46.933 29.867 51.2c46.933 12.8 81.067 46.933 93.867 93.867 17.067 68.267-25.6 136.533-93.867 157.867-21.333 0-34.133 25.6-29.867 46.933s29.867 38.4 51.2 29.867c115.2-29.867 183.467-145.067 153.6-260.267-21.333-76.8-76.8-136.533-153.6-153.6 0 0-4.267 0-8.533 0z" />
<glyph unicode="&#xe918;" glyph-name="award1" data-tags="award" d="M853.333 618.667c0 187.733-153.6 341.333-341.333 341.333s-341.333-153.6-341.333-341.333c0-110.933 51.2-209.067 132.267-268.8l-46.933-366.933c0-17.067 4.267-34.133 17.067-42.667s29.867-8.533 46.933 0l192 115.2 192-115.2c4.267-4.267 12.8-4.267 21.333-4.267s17.067 0 21.333 8.533 21.333 25.6 17.067 42.667l-46.933 362.667c85.333 59.733 136.533 157.867 136.533 268.8zM256 618.667c0 140.8 115.2 256 256 256s256-115.2 256-256c0-89.6-46.933-166.4-115.2-213.333 0 0-4.267-4.267-8.533-4.267-38.4-25.6-85.333-38.4-136.533-38.4-136.533 0-251.733 115.2-251.733 256zM669.867 59.733l-136.533 81.067c-12.8 8.533-29.867 8.533-42.667 0l-136.533-81.067 29.867 243.2c38.4-17.067 81.067-25.6 128-25.6s89.6 8.533 128 25.6l29.867-243.2z" />
<glyph unicode="&#xe919;" glyph-name="bar-chart-21" data-tags="bar-chart-2" d="M298.667 362.667v-256c0-21.333-21.333-42.667-42.667-42.667s-42.667 21.333-42.667 42.667v256c0 21.333 21.333 42.667 42.667 42.667s42.667-21.333 42.667-42.667zM554.667 789.333v-682.667c0-21.333-21.333-42.667-42.667-42.667s-42.667 21.333-42.667 42.667v682.667c0 21.333 21.333 42.667 42.667 42.667s42.667-21.333 42.667-42.667zM810.667 533.333v-426.667c0-21.333-21.333-42.667-42.667-42.667s-42.667 21.333-42.667 42.667v426.667c0 21.333 21.333 42.667 42.667 42.667s42.667-21.333 42.667-42.667z" />
<glyph unicode="&#xe91a;" glyph-name="bar-chart1" data-tags="bar-chart" d="M554.667 533.333v-426.667c0-21.333-21.333-42.667-42.667-42.667s-42.667 21.333-42.667 42.667v426.667c0 21.333 21.333 42.667 42.667 42.667s42.667-21.333 42.667-42.667zM298.667 277.333v-170.667c0-21.333-21.333-42.667-42.667-42.667s-42.667 21.333-42.667 42.667v170.667c0 21.333 21.333 42.667 42.667 42.667s42.667-21.333 42.667-42.667zM810.667 789.333v-682.667c0-21.333-21.333-42.667-42.667-42.667s-42.667 21.333-42.667 42.667v682.667c0 21.333 21.333 42.667 42.667 42.667s42.667-21.333 42.667-42.667z" />
<glyph unicode="&#xe91b;" glyph-name="log-in1" data-tags="log-in" d="M669.867 418.133l-213.333-213.333c-8.533-8.533-17.067-12.8-29.867-12.8s-21.333 4.267-29.867 12.8c-17.067 17.067-17.067 42.667 0 59.733l140.8 140.8h-409.6c-21.333 0-42.667 21.333-42.667 42.667s21.333 42.667 42.667 42.667h409.6l-140.8 140.8c-17.067 17.067-17.067 42.667 0 59.733s42.667 17.067 59.733 0l213.333-213.333c4.267-4.267 8.533-8.533 8.533-12.8 0 0 0-4.267 0-4.267 0-4.267 0-8.533 0-8.533s0-8.533 0-8.533c0 0 0-4.267 0-4.267 0-12.8-4.267-17.067-8.533-21.333zM938.667 746.667v-597.333c0-72.533-55.467-128-128-128h-170.667c-21.333 0-42.667 21.333-42.667 42.667s21.333 42.667 42.667 42.667h170.667c21.333 0 42.667 21.333 42.667 42.667v597.333c0 21.333-21.333 42.667-42.667 42.667h-170.667c-21.333 0-42.667 21.333-42.667 42.667s21.333 42.667 42.667 42.667h170.667c72.533 0 128-55.467 128-128z" />
<glyph unicode="&#xe91c;" glyph-name="activity" data-tags="activity" d="M640 21.333c-17.067 0-34.133 12.8-38.4 29.867l-217.6 644.267-89.6-264.533c-4.267-12.8-21.333-25.6-38.4-25.6h-170.667c-25.6 0-42.667 17.067-42.667 42.667s17.067 42.667 42.667 42.667h140.8l119.467 354.133c4.267 17.067 21.333 29.867 38.4 29.867s34.133-12.8 38.4-29.867l217.6-644.267 89.6 264.533c4.267 17.067 21.333 29.867 38.4 29.867h170.667c25.6 0 42.667-17.067 42.667-42.667s-17.067-42.667-42.667-42.667h-140.8l-119.467-354.133c-4.267-21.333-21.333-34.133-38.4-34.133z" />
<glyph unicode="&#xe91d;" glyph-name="airplay" data-tags="airplay" d="M853.333 192h-42.667c-25.6 0-42.667 17.067-42.667 42.667s17.067 42.667 42.667 42.667h42.667c25.6 0 42.667 17.067 42.667 42.667v426.667c0 25.6-17.067 42.667-42.667 42.667h-682.667c-25.6 0-42.667-17.067-42.667-42.667v-426.667c0-25.6 17.067-42.667 42.667-42.667h42.667c25.6 0 42.667-17.067 42.667-42.667s-17.067-42.667-42.667-42.667h-42.667c-72.533 0-128 55.467-128 128v426.667c0 72.533 55.467 128 128 128h682.667c72.533 0 128-55.467 128-128v-426.667c0-72.533-55.467-128-128-128zM725.333 21.333h-426.667c-17.067 0-29.867 8.533-38.4 25.6s-4.267 34.133 4.267 46.933l213.333 256c17.067 21.333 51.2 21.333 64 0l213.333-256c8.533-12.8 12.8-29.867 4.267-46.933-4.267-17.067-17.067-25.6-34.133-25.6zM388.267 106.667h243.2l-119.467 145.067-123.733-145.067z" />
<glyph unicode="&#xe91e;" glyph-name="alert-circle" data-tags="alert-circle" d="M512 917.333c-260.267 0-469.333-209.067-469.333-469.333s209.067-469.333 469.333-469.333 469.333 209.067 469.333 469.333-209.067 469.333-469.333 469.333zM512 64c-213.333 0-384 170.667-384 384s170.667 384 384 384 384-170.667 384-384-170.667-384-384-384zM554.667 618.667v-170.667c0-21.333-21.333-42.667-42.667-42.667s-42.667 21.333-42.667 42.667v170.667c0 21.333 21.333 42.667 42.667 42.667s42.667-21.333 42.667-42.667zM554.667 277.333c0-12.8-4.267-21.333-12.8-29.867s-17.067-12.8-29.867-12.8c-4.267 0-12.8 0-17.067 4.267s-8.533 4.267-12.8 8.533c-8.533 8.533-12.8 17.067-12.8 29.867 0 4.267 0 12.8 4.267 17.067s4.267 8.533 8.533 12.8c4.267 4.267 8.533 8.533 12.8 8.533 8.533 4.267 21.333 4.267 34.133 0 4.267 0 8.533-4.267 12.8-8.533s8.533-8.533 8.533-12.8 4.267-12.8 4.267-17.067z" />
<glyph unicode="&#xe91f;" glyph-name="anchor" data-tags="anchor" d="M938.667 490.667h-128c-21.333 0-42.667-21.333-42.667-42.667s21.333-42.667 42.667-42.667h81.067c-21.333-179.2-162.133-320-337.067-337.067v512c72.533 17.067 128 85.333 128 166.4 0 93.867-76.8 170.667-170.667 170.667s-170.667-76.8-170.667-170.667c0-81.067 55.467-145.067 128-166.4v-516.267c-179.2 21.333-320 162.133-337.067 337.067h81.067c21.333 0 42.667 21.333 42.667 42.667s-21.333 42.667-42.667 42.667h-128c-21.333 0-42.667-21.333-42.667-42.667 0-260.267 209.067-469.333 469.333-469.333s469.333 209.067 469.333 469.333c0 25.6-21.333 46.933-42.667 46.933zM426.667 746.667c0 46.933 38.4 85.333 85.333 85.333s85.333-38.4 85.333-85.333-38.4-85.333-85.333-85.333-85.333 38.4-85.333 85.333z" />
<glyph unicode="&#xe920;" glyph-name="aperture" data-tags="aperture" d="M942.933 635.733c0 0 0 4.267-4.267 4.267-64 145.067-204.8 251.733-371.2 273.067-4.267 0-8.533 0-8.533 0-12.8 4.267-29.867 4.267-46.933 4.267-149.333 0-285.867-72.533-371.2-183.467-4.267-4.267-8.533-8.533-8.533-12.8-55.467-76.8-89.6-170.667-89.6-273.067 0-68.267 12.8-128 38.4-187.733 0 0 0-4.267 4.267-4.267 64-145.067 204.8-251.733 371.2-273.067 4.267 0 8.533 0 8.533 0 17.067 0 29.867-4.267 46.933-4.267 149.333 0 285.867 72.533 371.2 183.467 4.267 4.267 8.533 4.267 8.533 8.533 55.467 76.8 89.6 170.667 89.6 273.067 0 72.533-12.8 132.267-38.4 192zM584.533 823.467c102.4-17.067 192-76.8 247.467-162.133h-341.333l93.867 162.133zM439.467 576h149.333l72.533-128-72.533-128h-149.333l-72.533 128 72.533 128zM486.4 832l-106.667-187.733-4.267-8.533-59.733-102.4-93.867 162.133c64 76.8 157.867 128 264.533 136.533zM149.333 320c-12.8 38.4-21.333 85.333-21.333 128 0 59.733 12.8 119.467 38.4 170.667l110.933-192 64-106.667h-192zM439.467 72.533c-102.4 17.067-192 76.8-247.467 162.133h341.333l-93.867-162.133zM537.6 64l106.667 187.733 4.267 4.267 59.733 102.4 93.867-162.133c-64-72.533-157.867-123.733-264.533-132.267zM857.6 277.333l-110.933 192-64 106.667h187.733c12.8-38.4 21.333-85.333 21.333-128 4.267-59.733-8.533-119.467-34.133-170.667z" />
<glyph unicode="&#xe921;" glyph-name="at-sign" data-tags="at-sign" d="M512 917.333c-123.733 0-243.2-46.933-332.8-136.533s-136.533-209.067-136.533-332.8c0-260.267 209.067-469.333 469.333-469.333 102.4 0 204.8 34.133 285.867 98.133 17.067 12.8 21.333 42.667 8.533 59.733s-42.667 21.333-59.733 8.533c-68.267-51.2-149.333-81.067-234.667-81.067-213.333 0-384 170.667-384 384 0 102.4 38.4 200.533 110.933 273.067s170.667 110.933 273.067 110.933c213.333 0 384-170.667 384-384v-42.667c0-46.933-38.4-85.333-85.333-85.333s-85.333 38.4-85.333 85.333v213.333c0 21.333-21.333 42.667-42.667 42.667s-42.667-21.333-42.667-42.667c-34.133 25.6-81.067 42.667-128 42.667-119.467 0-213.333-93.867-213.333-213.333s93.867-213.333 213.333-213.333c64 0 119.467 29.867 157.867 72.533 29.867-42.667 81.067-72.533 140.8-72.533 93.867 0 170.667 76.8 170.667 170.667v42.667c0 260.267-209.067 469.333-469.333 469.333zM512 320c-68.267 0-128 55.467-128 128 0 68.267 59.733 128 128 128 72.533 0 128-59.733 128-128 0-72.533-55.467-128-128-128z" />
<glyph unicode="&#xe922;" glyph-name="award" data-tags="award" d="M853.333 618.667c0 187.733-153.6 341.333-341.333 341.333s-341.333-153.6-341.333-341.333c0-110.933 51.2-209.067 132.267-268.8l-46.933-366.933c0-17.067 4.267-34.133 17.067-42.667s29.867-8.533 46.933 0l192 115.2 192-115.2c4.267-4.267 12.8-4.267 21.333-4.267s17.067 0 21.333 8.533 21.333 25.6 17.067 42.667l-46.933 362.667c85.333 59.733 136.533 157.867 136.533 268.8zM256 618.667c0 140.8 115.2 256 256 256s256-115.2 256-256c0-89.6-46.933-166.4-115.2-213.333 0 0-4.267-4.267-8.533-4.267-38.4-25.6-85.333-38.4-136.533-38.4-136.533 0-251.733 115.2-251.733 256zM669.867 59.733l-136.533 81.067c-12.8 8.533-29.867 8.533-42.667 0l-136.533-81.067 29.867 243.2c38.4-17.067 81.067-25.6 128-25.6s89.6 8.533 128 25.6l29.867-243.2z" />
<glyph unicode="&#xe923;" glyph-name="bar-chart-2" data-tags="bar-chart-2" d="M298.667 362.667v-256c0-21.333-21.333-42.667-42.667-42.667s-42.667 21.333-42.667 42.667v256c0 21.333 21.333 42.667 42.667 42.667s42.667-21.333 42.667-42.667zM554.667 789.333v-682.667c0-21.333-21.333-42.667-42.667-42.667s-42.667 21.333-42.667 42.667v682.667c0 21.333 21.333 42.667 42.667 42.667s42.667-21.333 42.667-42.667zM810.667 533.333v-426.667c0-21.333-21.333-42.667-42.667-42.667s-42.667 21.333-42.667 42.667v426.667c0 21.333 21.333 42.667 42.667 42.667s42.667-21.333 42.667-42.667z" />
<glyph unicode="&#xe924;" glyph-name="bar-chart" data-tags="bar-chart" d="M554.667 533.333v-426.667c0-21.333-21.333-42.667-42.667-42.667s-42.667 21.333-42.667 42.667v426.667c0 21.333 21.333 42.667 42.667 42.667s42.667-21.333 42.667-42.667zM298.667 277.333v-170.667c0-21.333-21.333-42.667-42.667-42.667s-42.667 21.333-42.667 42.667v170.667c0 21.333 21.333 42.667 42.667 42.667s42.667-21.333 42.667-42.667zM810.667 789.333v-682.667c0-21.333-21.333-42.667-42.667-42.667s-42.667 21.333-42.667 42.667v682.667c0 21.333 21.333 42.667 42.667 42.667s42.667-21.333 42.667-42.667z" />
<glyph unicode="&#xe925;" glyph-name="battery-charging" data-tags="battery-charging" d="M853.333 618.667v-341.333c0-72.533-55.467-128-128-128h-136.533c-21.333 0-42.667 21.333-42.667 42.667s21.333 42.667 42.667 42.667h136.533c21.333 0 42.667 21.333 42.667 42.667v341.333c0 21.333-21.333 42.667-42.667 42.667h-85.333c-21.333 0-42.667 21.333-42.667 42.667s21.333 42.667 42.667 42.667h85.333c72.533 0 128-55.467 128-128zM256 192c0-21.333-21.333-42.667-42.667-42.667h-85.333c-72.533 0-128 55.467-128 128v341.333c0 72.533 55.467 128 128 128h136.533c21.333 0 42.667-21.333 42.667-42.667s-21.333-42.667-42.667-42.667h-136.533c-21.333 0-42.667-21.333-42.667-42.667v-341.333c0-21.333 21.333-42.667 42.667-42.667h85.333c21.333 0 42.667-21.333 42.667-42.667zM588.8 426.667l-170.667-256c-8.533-12.8-21.333-21.333-34.133-21.333-8.533 0-17.067 0-21.333 8.533-21.333 12.8-25.6 38.4-12.8 59.733l128 192h-179.2c-17.067 0-29.867 8.533-38.4 21.333s-8.533 29.867 0 42.667l170.667 256c12.8 21.333 38.4 25.6 59.733 12.8s25.6-38.4 12.8-59.733l-128-192h179.2c17.067 0 29.867-8.533 38.4-21.333s4.267-29.867-4.267-42.667zM1024 490.667v-85.333c0-21.333-21.333-42.667-42.667-42.667s-42.667 21.333-42.667 42.667v85.333c0 21.333 21.333 42.667 42.667 42.667s42.667-21.333 42.667-42.667z" />
<glyph unicode="&#xe926;" glyph-name="bell" data-tags="bell" d="M512-21.333c-21.333 0-42.667 4.267-64 17.067s-34.133 25.6-46.933 46.933c-12.8 21.333-4.267 46.933 17.067 59.733s46.933 4.267 59.733-17.067c4.267-4.267 8.533-12.8 17.067-17.067 21.333-12.8 46.933-4.267 59.733 17.067s38.4 25.6 59.733 17.067c21.333-12.8 25.6-38.4 17.067-59.733-34.133-42.667-76.8-64-119.467-64zM938.667 192h-853.333c-25.6 0-42.667 17.067-42.667 42.667s17.067 42.667 42.667 42.667c46.933 0 85.333 38.4 85.333 85.333v213.333c0 187.733 153.6 341.333 341.333 341.333s341.333-153.6 341.333-341.333v-213.333c0-46.933 38.4-85.333 85.333-85.333 25.6 0 42.667-17.067 42.667-42.667s-17.067-42.667-42.667-42.667zM234.667 277.333h558.933c-12.8 25.6-21.333 55.467-21.333 85.333v213.333c0 140.8-115.2 256-256 256s-260.267-115.2-260.267-256v-213.333c0-29.867-8.533-59.733-21.333-85.333z" />
<glyph unicode="&#xe927;" glyph-name="book-open" data-tags="book-open" d="M938.667 874.667h-256c-68.267 0-132.267-34.133-170.667-85.333-38.4 51.2-102.4 85.333-170.667 85.333h-256c-21.333 0-42.667-21.333-42.667-42.667v-640c0-21.333 21.333-42.667 42.667-42.667h298.667c46.933 0 85.333-38.4 85.333-85.333 0-21.333 21.333-42.667 42.667-42.667s42.667 21.333 42.667 42.667c0 46.933 38.4 85.333 85.333 85.333h298.667c21.333 0 42.667 21.333 42.667 42.667v640c0 21.333-21.333 42.667-42.667 42.667zM469.333 213.333c-25.6 12.8-55.467 21.333-85.333 21.333h-256v554.667h213.333c72.533 0 128-55.467 128-128v-448zM896 234.667h-256c-29.867 0-59.733-8.533-85.333-21.333v448c0 72.533 55.467 128 128 128h213.333v-554.667z" />
<glyph unicode="&#xe928;" glyph-name="book" data-tags="book" d="M853.333 917.333h-576c-81.067 0-149.333-68.267-149.333-149.333v-640c0-81.067 68.267-149.333 149.333-149.333h576c21.333 0 42.667 21.333 42.667 42.667v853.333c0 21.333-21.333 42.667-42.667 42.667zM810.667 64h-533.333c-34.133 0-64 29.867-64 64s29.867 64 64 64h533.333v-128zM810.667 277.333h-533.333c-21.333 0-42.667-4.267-64-12.8v503.467c0 34.133 29.867 64 64 64h533.333v-554.667z" />
<glyph unicode="&#xe929;" glyph-name="bookmark" data-tags="bookmark" d="M810.667 21.333c-8.533 0-17.067 4.267-25.6 8.533l-273.067 196.267-273.067-196.267c-12.8-8.533-29.867-8.533-42.667-4.267s-25.6 21.333-25.6 38.4v682.667c0 72.533 55.467 128 128 128h426.667c72.533 0 128-55.467 128-128v-682.667c0-17.067-8.533-29.867-21.333-38.4-8.533-4.267-12.8-4.267-21.333-4.267zM512 320c8.533 0 17.067-4.267 25.6-8.533l230.4-166.4v601.6c0 25.6-17.067 42.667-42.667 42.667h-426.667c-25.6 0-42.667-17.067-42.667-42.667v-601.6l230.4 166.4c8.533 4.267 17.067 8.533 25.6 8.533z" />
<glyph unicode="&#xe92a;" glyph-name="box" data-tags="box" d="M964.267 716.8c-12.8 21.333-29.867 38.4-51.2 51.2l-341.333 170.667c0 0 0 0 0 0-34.133 17.067-76.8 17.067-115.2 0l-341.333-170.667c-21.333-12.8-42.667-29.867-51.2-51.2-12.8-21.333-21.333-42.667-21.333-64v-405.333c0-51.2 25.6-93.867 72.533-115.2l341.333-170.667c17.067-8.533 38.4-12.8 55.467-12.8 21.333 0 38.4 4.267 55.467 12.8l341.333 170.667c42.667 21.333 72.533 64 72.533 115.2v405.333c0 21.333-8.533 42.667-17.067 64zM469.333 46.933l-320 157.867c-12.8 8.533-21.333 21.333-21.333 38.4v392.533l341.333-170.667v-418.133zM179.2 704l311.467 157.867c4.267 4.267 12.8 4.267 17.067 4.267s12.8 0 17.067-4.267l320-157.867-332.8-166.4-332.8 166.4zM896 243.2c0-17.067-8.533-29.867-25.6-38.4l-315.733-157.867v418.133l341.333 170.667v-392.533z" />
<glyph unicode="&#xe92b;" glyph-name="briefcase" data-tags="briefcase" d="M853.333 704h-128v42.667c0 72.533-55.467 128-128 128h-170.667c-72.533 0-128-55.467-128-128v-42.667h-128c-72.533 0-128-55.467-128-128v-426.667c0-72.533 55.467-128 128-128h682.667c72.533 0 128 55.467 128 128v426.667c0 72.533-55.467 128-128 128zM298.667 106.667h-128c-21.333 0-42.667 21.333-42.667 42.667v426.667c0 21.333 21.333 42.667 42.667 42.667h128v-512zM384 746.667c0 21.333 21.333 42.667 42.667 42.667h170.667c21.333 0 42.667-21.333 42.667-42.667v-42.667h-256v42.667zM384 106.667v512h256v-512h-256zM896 149.333c0-21.333-21.333-42.667-42.667-42.667h-128v512h128c21.333 0 42.667-21.333 42.667-42.667v-426.667z" />
<glyph unicode="&#xe92c;" glyph-name="calendar" data-tags="calendar" d="M810.667-21.333h-597.333c-72.533 0-128 55.467-128 128v597.333c0 72.533 55.467 128 128 128h597.333c72.533 0 128-55.467 128-128v-597.333c0-72.533-55.467-128-128-128zM213.333 746.667c-25.6 0-42.667-17.067-42.667-42.667v-597.333c0-25.6 17.067-42.667 42.667-42.667h597.333c25.6 0 42.667 17.067 42.667 42.667v597.333c0 25.6-17.067 42.667-42.667 42.667h-597.333zM682.667 661.333c-25.6 0-42.667 17.067-42.667 42.667v170.667c0 25.6 17.067 42.667 42.667 42.667s42.667-17.067 42.667-42.667v-170.667c0-25.6-17.067-42.667-42.667-42.667zM341.333 661.333c-25.6 0-42.667 17.067-42.667 42.667v170.667c0 25.6 17.067 42.667 42.667 42.667s42.667-17.067 42.667-42.667v-170.667c0-25.6-17.067-42.667-42.667-42.667zM896 490.667h-768c-25.6 0-42.667 17.067-42.667 42.667s17.067 42.667 42.667 42.667h768c25.6 0 42.667-17.067 42.667-42.667s-17.067-42.667-42.667-42.667z" />
<glyph unicode="&#xe92d;" glyph-name="camera-off" data-tags="camera-off" d="M981.333-64c-12.8 0-21.333 4.267-29.867 12.8l-938.667 938.667c-17.067 17.067-17.067 42.667 0 59.733s42.667 17.067 59.733 0l938.667-938.667c17.067-17.067 17.067-42.667 0-59.733-8.533-8.533-17.067-12.8-29.867-12.8zM896 21.333h-768c-72.533 0-128 55.467-128 128v469.333c0 72.533 55.467 128 128 128h128c25.6 0 42.667-17.067 42.667-42.667s-17.067-42.667-42.667-42.667h-128c-25.6 0-42.667-17.067-42.667-42.667v-469.333c0-25.6 17.067-42.667 42.667-42.667h768c25.6 0 42.667-17.067 42.667-42.667s-17.067-42.667-42.667-42.667zM981.333 179.2c-25.6 0-42.667 17.067-42.667 42.667v396.8c0 25.6-17.067 42.667-42.667 42.667h-170.667c-12.8 0-25.6 8.533-34.133 17.067l-72.533 110.933h-234.667c-25.6 0-42.667 17.067-42.667 42.667s17.067 42.667 42.667 42.667h256c12.8 0 25.6-8.533 34.133-17.067l72.533-110.933h149.333c72.533 0 128-55.467 128-128v-396.8c0-25.6-17.067-42.667-42.667-42.667zM512 192c-42.667 0-85.333 12.8-119.467 38.4-46.933 34.133-76.8 81.067-89.6 136.533-8.533 55.467 0 110.933 34.133 157.867 17.067 21.333 34.133 42.667 55.467 55.467s46.933 8.533 59.733-12.8c12.8-21.333 8.533-46.933-12.8-59.733-12.8-8.533-25.6-17.067-34.133-29.867-17.067-29.867-25.6-64-21.333-98.133s25.6-64 55.467-81.067c29.867-21.333 64-25.6 93.867-21.333 34.133 4.267 64 25.6 81.067 55.467 12.8 21.333 38.4 25.6 59.733 12.8s25.6-38.4 12.8-59.733c-34.133-46.933-81.067-76.8-136.533-89.6-12.8-4.267-25.6-4.267-38.4-4.267z" />
<glyph unicode="&#xe92e;" glyph-name="camera" data-tags="camera" d="M896 21.333h-768c-72.533 0-128 55.467-128 128v469.333c0 72.533 55.467 128 128 128h149.333l72.533 110.933c8.533 8.533 21.333 17.067 34.133 17.067h256c12.8 0 25.6-8.533 34.133-17.067l72.533-110.933h149.333c72.533 0 128-55.467 128-128v-469.333c0-72.533-55.467-128-128-128zM128 661.333c-25.6 0-42.667-17.067-42.667-42.667v-469.333c0-25.6 17.067-42.667 42.667-42.667h768c25.6 0 42.667 17.067 42.667 42.667v469.333c0 25.6-17.067 42.667-42.667 42.667h-170.667c-12.8 0-25.6 8.533-34.133 17.067l-72.533 110.933h-213.333l-72.533-110.933c-8.533-8.533-21.333-17.067-34.133-17.067h-170.667zM512 192c-119.467 0-213.333 93.867-213.333 213.333s93.867 213.333 213.333 213.333 213.333-93.867 213.333-213.333-93.867-213.333-213.333-213.333zM512 533.333c-72.533 0-128-55.467-128-128s55.467-128 128-128 128 55.467 128 128-55.467 128-128 128z" />
<glyph unicode="&#xe92f;" glyph-name="check-circle" data-tags="check-circle" d="M512-21.333c0 0 0 0 0 0-260.267 0-469.333 209.067-469.333 469.333s209.067 469.333 469.333 469.333c0 0 0 0 0 0 68.267 0 132.267-12.8 192-42.667 21.333-8.533 29.867-34.133 21.333-55.467s-34.133-29.867-55.467-21.333c-51.2 21.333-102.4 34.133-157.867 34.133 0 0 0 0 0 0-213.333 0-384-170.667-384-384s170.667-384 384-384c0 0 0 0 0 0 213.333 0 384 170.667 384 384v38.4c0 25.6 17.067 42.667 42.667 42.667s42.667-17.067 42.667-42.667v-38.4c0-260.267-209.067-469.333-469.333-469.333zM512 320c-12.8 0-21.333 4.267-29.867 12.8l-128 128c-17.067 17.067-17.067 42.667 0 59.733s42.667 17.067 59.733 0l98.133-98.133 396.8 396.8c17.067 17.067 42.667 17.067 59.733 0s17.067-42.667 0-59.733l-426.667-426.667c-8.533-8.533-17.067-12.8-29.867-12.8z" />
<glyph unicode="&#xe930;" glyph-name="check3" data-tags="check" d="M384 192c-12.8 0-21.333 4.267-29.867 12.8l-213.333 213.333c-17.067 17.067-17.067 42.667 0 59.733s42.667 17.067 59.733 0l183.467-183.467 439.467 439.467c17.067 17.067 42.667 17.067 59.733 0s17.067-42.667 0-59.733l-469.333-469.333c-8.533-8.533-17.067-12.8-29.867-12.8z" />
<glyph unicode="&#xe931;" glyph-name="chevrons-down" data-tags="chevrons-down" d="M298.667 448c12.8 0 21.333-4.267 29.867-12.8l183.467-183.467 183.467 183.467c17.067 17.067 42.667 17.067 59.733 0s17.067-42.667 0-59.733l-213.333-213.333c-17.067-17.067-42.667-17.067-59.733 0l-213.333 213.333c-17.067 17.067-17.067 42.667 0 59.733 8.533 8.533 17.067 12.8 29.867 12.8zM298.667 746.667c12.8 0 21.333-4.267 29.867-12.8l183.467-183.467 183.467 183.467c17.067 17.067 42.667 17.067 59.733 0s17.067-42.667 0-59.733l-213.333-213.333c-17.067-17.067-42.667-17.067-59.733 0l-213.333 213.333c-17.067 17.067-17.067 42.667 0 59.733 8.533 8.533 17.067 12.8 29.867 12.8z" />
<glyph unicode="&#xe932;" glyph-name="chevrons-left" data-tags="chevrons-left" d="M512 661.333c0-12.8-4.267-21.333-12.8-29.867l-183.467-183.467 183.467-183.467c17.067-17.067 17.067-42.667 0-59.733s-42.667-17.067-59.733 0l-213.333 213.333c-17.067 17.067-17.067 42.667 0 59.733l213.333 213.333c17.067 17.067 42.667 17.067 59.733 0 8.533-8.533 12.8-17.067 12.8-29.867zM810.667 661.333c0-12.8-4.267-21.333-12.8-29.867l-183.467-183.467 183.467-183.467c17.067-17.067 17.067-42.667 0-59.733s-42.667-17.067-59.733 0l-213.333 213.333c-17.067 17.067-17.067 42.667 0 59.733l213.333 213.333c17.067 17.067 42.667 17.067 59.733 0 8.533-8.533 12.8-17.067 12.8-29.867z" />
<glyph unicode="&#xe933;" glyph-name="chevrons-right" data-tags="chevrons-right" d="M512 234.667c0 12.8 4.267 21.333 12.8 29.867l183.467 183.467-183.467 183.467c-17.067 17.067-17.067 42.667 0 59.733s42.667 17.067 59.733 0l213.333-213.333c17.067-17.067 17.067-42.667 0-59.733l-213.333-213.333c-17.067-17.067-42.667-17.067-59.733 0-8.533 8.533-12.8 17.067-12.8 29.867zM213.333 234.667c0 12.8 4.267 21.333 12.8 29.867l183.467 183.467-183.467 183.467c-17.067 17.067-17.067 42.667 0 59.733s42.667 17.067 59.733 0l213.333-213.333c17.067-17.067 17.067-42.667 0-59.733l-213.333-213.333c-17.067-17.067-42.667-17.067-59.733 0-8.533 8.533-12.8 17.067-12.8 29.867z" />
<glyph unicode="&#xe934;" glyph-name="chevrons-up" data-tags="chevrons-up" d="M725.333 448c-12.8 0-21.333 4.267-29.867 12.8l-183.467 183.467-183.467-183.467c-17.067-17.067-42.667-17.067-59.733 0s-17.067 42.667 0 59.733l213.333 213.333c17.067 17.067 42.667 17.067 59.733 0l213.333-213.333c17.067-17.067 17.067-42.667 0-59.733-8.533-8.533-17.067-12.8-29.867-12.8zM725.333 149.333c-12.8 0-21.333 4.267-29.867 12.8l-183.467 183.467-183.467-183.467c-17.067-17.067-42.667-17.067-59.733 0s-17.067 42.667 0 59.733l213.333 213.333c17.067 17.067 42.667 17.067 59.733 0l213.333-213.333c17.067-17.067 17.067-42.667 0-59.733-8.533-8.533-17.067-12.8-29.867-12.8z" />
<glyph unicode="&#xe935;" glyph-name="chrome" data-tags="chrome" d="M942.933 635.733c-72.533 166.4-238.933 281.6-430.933 281.6-149.333 0-285.867-72.533-371.2-183.467-4.267-4.267-8.533-8.533-8.533-12.8-55.467-76.8-89.6-170.667-89.6-273.067 0-238.933 179.2-435.2 409.6-465.067 4.267 0 8.533 0 8.533 0 17.067 0 29.867-4.267 46.933-4.267 260.267 0 469.333 209.067 469.333 469.333 4.267 68.267-8.533 128-34.133 187.733zM512 832c132.267 0 251.733-68.267 320-170.667h-320c-89.6 0-162.133-51.2-196.267-128l-93.867 162.133c68.267 85.333 174.933 136.533 290.133 136.533zM512 320c-46.933 0-85.333 25.6-110.933 64 0 0 0 0 0 0l-4.267 4.267c-8.533 17.067-12.8 38.4-12.8 59.733 0 72.533 55.467 128 128 128s128-55.467 128-128c0-21.333-4.267-42.667-17.067-59.733 0 0 0 0 0 0 0-4.267-4.267-4.267-4.267-8.533v0c-25.6-38.4-64-59.733-106.667-59.733zM439.467 72.533c-174.933 29.867-311.467 187.733-311.467 375.467 0 59.733 12.8 119.467 38.4 170.667l157.867-268.8 4.267-4.267c0 0 0 0 0 0 34.133-68.267 106.667-110.933 183.467-110.933 8.533 0 17.067 0 25.6 0l-98.133-162.133zM537.6 64l153.6 264.533 8.533 12.8c17.067 29.867 29.867 68.267 29.867 106.667 0 46.933-17.067 93.867-42.667 128h192c12.8-38.4 21.333-85.333 21.333-128-4.267-204.8-162.133-371.2-362.667-384z" />
<glyph unicode="&#xe936;" glyph-name="circle" data-tags="circle" d="M512-21.333c-260.267 0-469.333 209.067-469.333 469.333s209.067 469.333 469.333 469.333 469.333-209.067 469.333-469.333-209.067-469.333-469.333-469.333zM512 832c-213.333 0-384-170.667-384-384s170.667-384 384-384c213.333 0 384 170.667 384 384s-170.667 384-384 384z" />
<glyph unicode="&#xe937;" glyph-name="clock" data-tags="clock" d="M512-21.333c-260.267 0-469.333 209.067-469.333 469.333s209.067 469.333 469.333 469.333 469.333-209.067 469.333-469.333-209.067-469.333-469.333-469.333zM512 832c-213.333 0-384-170.667-384-384s170.667-384 384-384c213.333 0 384 170.667 384 384s-170.667 384-384 384zM682.667 320c-8.533 0-12.8 0-17.067 4.267l-170.667 85.333c-17.067 8.533-25.6 21.333-25.6 38.4v256c0 25.6 17.067 42.667 42.667 42.667s42.667-17.067 42.667-42.667v-230.4l145.067-72.533c21.333-8.533 29.867-34.133 17.067-55.467-4.267-17.067-17.067-25.6-34.133-25.6z" />
<glyph unicode="&#xe938;" glyph-name="cloud-snow" data-tags="cloud-snow" d="M853.333 166.4c-17.067 0-34.133 8.533-38.4 25.6-8.533 21.333 0 46.933 21.333 55.467 42.667 17.067 72.533 51.2 89.6 93.867s17.067 89.6-4.267 132.267c-25.6 64-85.333 102.4-153.6 102.4h-55.467c-21.333 0-38.4 12.8-42.667 34.133-42.667 157.867-204.8 256-362.667 213.333s-256-204.8-213.333-362.667c17.067-64 51.2-119.467 102.4-157.867 17.067-12.8 21.333-42.667 8.533-59.733s-42.667-21.333-59.733-8.533c-64 51.2-110.933 123.733-132.267 204.8-55.467 204.8 68.267 413.867 273.067 465.067 196.267 51.2 392.533-59.733 456.533-243.2h25.6c102.4 0 192-59.733 234.667-153.6 25.6-64 29.867-132.267 4.267-196.267s-72.533-115.2-136.533-140.8c-4.267-4.267-12.8-4.267-17.067-4.267zM341.333 234.667c-12.8 0-21.333 4.267-29.867 12.8s-12.8 17.067-12.8 29.867c0 4.267 0 12.8 4.267 17.067s4.267 8.533 8.533 12.8c12.8 12.8 29.867 17.067 46.933 8.533 4.267 0 8.533-4.267 12.8-8.533s8.533-8.533 8.533-12.8c4.267-4.267 4.267-12.8 4.267-17.067 0-12.8-4.267-21.333-12.8-29.867s-17.067-12.8-29.867-12.8zM341.333 64c-12.8 0-21.333 4.267-29.867 12.8-4.267 4.267-8.533 8.533-8.533 12.8-4.267 4.267-4.267 12.8-4.267 17.067 0 12.8 4.267 21.333 12.8 29.867 17.067 17.067 42.667 17.067 59.733 0 8.533-8.533 12.8-17.067 12.8-29.867 0-4.267 0-12.8-4.267-17.067s-4.267-8.533-8.533-12.8c-8.533-8.533-17.067-12.8-29.867-12.8zM512 149.333c-12.8 0-21.333 4.267-29.867 12.8s-12.8 17.067-12.8 29.867c0 4.267 0 12.8 4.267 17.067s4.267 8.533 8.533 12.8c0 0 4.267 4.267 4.267 4.267 4.267 0 4.267 4.267 8.533 4.267s4.267 0 8.533 4.267c12.8 4.267 29.867 0 38.4-12.8 4.267-4.267 8.533-8.533 8.533-12.8 4.267-4.267 4.267-12.8 4.267-17.067 0-12.8-4.267-21.333-12.8-29.867s-17.067-12.8-29.867-12.8zM512-21.333c-4.267 0-12.8 0-17.067 4.267-4.267 0-8.533 4.267-12.8 8.533-8.533 8.533-12.8 17.067-12.8 29.867 0 4.267 0 12.8 4.267 17.067s4.267 8.533 8.533 12.8c17.067 17.067 42.667 17.067 59.733 0 8.533-8.533 12.8-21.333 12.8-29.867 0-12.8-4.267-21.333-12.8-29.867s-17.067-12.8-29.867-12.8zM682.667 234.667c-12.8 0-21.333 4.267-29.867 12.8s-12.8 17.067-12.8 29.867c0 4.267 0 12.8 4.267 17.067 0 4.267 4.267 8.533 8.533 12.8 8.533 8.533 25.6 12.8 38.4 12.8 4.267 0 4.267 0 8.533-4.267 4.267 0 4.267 0 8.533-4.267 0 0 4.267-4.267 8.533-4.267 4.267-4.267 8.533-8.533 8.533-12.8s4.267-8.533 4.267-17.067c0-12.8-4.267-21.333-12.8-29.867-12.8-8.533-21.333-12.8-34.133-12.8zM682.667 64c-12.8 0-21.333 4.267-29.867 12.8-4.267 4.267-8.533 8.533-8.533 12.8s-4.267 8.533-4.267 17.067c0 12.8 4.267 21.333 12.8 29.867 17.067 17.067 42.667 17.067 59.733 0 8.533-8.533 12.8-21.333 12.8-29.867 0-4.267 0-12.8-4.267-17.067s-4.267-8.533-8.533-12.8c-8.533-8.533-17.067-12.8-29.867-12.8z" />
<glyph unicode="&#xe939;" glyph-name="cloud" data-tags="cloud" d="M384 64c-174.933 0-328.533 119.467-371.2 290.133-25.6 98.133-12.8 204.8 42.667 290.133 51.2 89.6 136.533 149.333 234.667 174.933s204.8 12.8 290.133-42.667c76.8-42.667 136.533-115.2 166.4-200.533h21.333c140.8 0 256-115.2 256-256s-115.2-256-256-256h-384c0 0 0 0 0 0zM384 746.667c-25.6 0-51.2-4.267-76.8-8.533-76.8-21.333-140.8-68.267-179.2-136.533s-51.2-149.333-29.867-226.133c29.867-132.267 149.333-226.133 285.867-226.133 0 0 0 0 0 0h384c93.867 0 170.667 76.8 170.667 170.667s-76.8 170.667-170.667 170.667h-55.467c-21.333 0-38.4 12.8-42.667 34.133-29.867 132.267-153.6 221.867-285.867 221.867z" />
<glyph unicode="&#xe93a;" glyph-name="code" data-tags="code" d="M682.667 149.333c-12.8 0-21.333 4.267-29.867 12.8-17.067 17.067-17.067 42.667 0 59.733l226.133 226.133-226.133 226.133c-17.067 17.067-17.067 42.667 0 59.733s42.667 17.067 59.733 0l256-256c17.067-17.067 17.067-42.667 0-59.733l-256-256c-8.533-8.533-17.067-12.8-29.867-12.8zM341.333 149.333c-12.8 0-21.333 4.267-29.867 12.8l-256 256c-17.067 17.067-17.067 42.667 0 59.733l256 256c17.067 17.067 42.667 17.067 59.733 0s17.067-42.667 0-59.733l-226.133-226.133 226.133-226.133c17.067-17.067 17.067-42.667 0-59.733-8.533-8.533-17.067-12.8-29.867-12.8z" />
<glyph unicode="&#xe93b;" glyph-name="codepen" data-tags="codepen" d="M981.333 610.133c0 4.267 0 4.267-4.267 8.533 0 0-4.267 4.267-4.267 4.267s-4.267 4.267-4.267 4.267c0 0-4.267 4.267-4.267 4.267s0 0 0 0l-426.667 277.333c-8.533 4.267-17.067 8.533-25.6 8.533s-17.067-4.267-25.6-8.533l-426.667-277.333c0 0 0 0 0 0s-4.267 0-4.267-4.267c0 0-4.267-4.267-4.267-4.267s-4.267-4.267-4.267-4.267c0-4.267 0-4.267-4.267-8.533 0-4.267 0-8.533 0-8.533v-298.667c0-4.267 0-8.533 0-8.533 0-4.267 0-4.267 4.267-8.533 0 0 4.267-4.267 4.267-4.267s4.267-4.267 4.267-4.267c0 0 4.267-4.267 4.267-4.267s0 0 0 0l426.667-277.333c8.533-4.267 17.067-8.533 25.6-8.533s17.067 4.267 25.6 8.533l426.667 277.333c0 0 0 0 0 0s4.267 0 4.267 4.267c0 0 4.267 4.267 4.267 4.267s4.267 4.267 4.267 4.267c0 4.267 0 4.267 4.267 8.533 0 4.267 0 8.533 0 8.533v298.667c0 0 0 4.267 0 8.533zM896 379.733l-98.133 68.267 98.133 68.267v-136.533zM725.333 499.2l-170.667 119.467v179.2l307.2-200.533-136.533-98.133zM512 349.867l-140.8 98.133 140.8 98.133 140.8-98.133-140.8-98.133zM469.333 797.867v-179.2l-170.667-119.467-136.533 98.133 307.2 200.533zM128 516.267l98.133-68.267-98.133-68.267v136.533zM298.667 396.8l170.667-119.467v-174.933l-307.2 200.533 136.533 93.867zM554.667 98.133v179.2l170.667 119.467 136.533-93.867-307.2-204.8z" />
<glyph unicode="&#xe93c;" glyph-name="coffee" data-tags="coffee" d="M810.667 661.333h-725.333c-21.333 0-42.667-21.333-42.667-42.667v-384c0-119.467 93.867-213.333 213.333-213.333h341.333c119.467 0 213.333 93.867 213.333 213.333 119.467 0 213.333 93.867 213.333 213.333s-93.867 213.333-213.333 213.333zM725.333 234.667c0-72.533-55.467-128-128-128h-341.333c-72.533 0-128 55.467-128 128v341.333h597.333v-341.333zM810.667 320v256c72.533 0 128-55.467 128-128s-55.467-128-128-128zM256 746.667c-25.6 0-42.667 17.067-42.667 42.667v128c0 25.6 17.067 42.667 42.667 42.667s42.667-17.067 42.667-42.667v-128c0-25.6-17.067-42.667-42.667-42.667zM426.667 746.667c-25.6 0-42.667 17.067-42.667 42.667v128c0 25.6 17.067 42.667 42.667 42.667s42.667-17.067 42.667-42.667v-128c0-25.6-17.067-42.667-42.667-42.667zM597.333 746.667c-25.6 0-42.667 17.067-42.667 42.667v128c0 25.6 17.067 42.667 42.667 42.667s42.667-17.067 42.667-42.667v-128c0-25.6-17.067-42.667-42.667-42.667z" />
<glyph unicode="&#xe93d;" glyph-name="compass" data-tags="compass" d="M512-21.333c-260.267 0-469.333 209.067-469.333 469.333s209.067 469.333 469.333 469.333 469.333-209.067 469.333-469.333-209.067-469.333-469.333-469.333zM512 832c-213.333 0-384-170.667-384-384s170.667-384 384-384c213.333 0 384 170.667 384 384s-170.667 384-384 384zM332.8 226.133c-12.8 0-21.333 4.267-29.867 12.8-12.8 12.8-17.067 29.867-8.533 42.667l89.6 273.067c0 8.533 12.8 21.333 25.6 25.6l273.067 89.6c17.067 4.267 34.133 0 42.667-8.533 12.8-12.8 17.067-29.867 8.533-42.667l-89.6-273.067c-4.267-12.8-12.8-21.333-25.6-25.6l-273.067-89.6c-4.267-4.267-8.533-4.267-12.8-4.267zM456.533 503.467l-55.467-170.667 170.667 55.467 55.467 170.667-170.667-55.467z" />
<glyph unicode="&#xe93e;" glyph-name="copy" data-tags="copy" d="M853.333 618.667h-384c-72.533 0-128-55.467-128-128v-384c0-72.533 55.467-128 128-128h384c72.533 0 128 55.467 128 128v384c0 72.533-55.467 128-128 128zM896 106.667c0-21.333-21.333-42.667-42.667-42.667h-384c-21.333 0-42.667 21.333-42.667 42.667v384c0 21.333 21.333 42.667 42.667 42.667h384c21.333 0 42.667-21.333 42.667-42.667v-384zM682.667 789.333v-42.667c0-21.333-21.333-42.667-42.667-42.667s-42.667 21.333-42.667 42.667v42.667c0 21.333-21.333 42.667-42.667 42.667h-384c-21.333 0-42.667-21.333-42.667-42.667v-384c0-21.333 21.333-42.667 42.667-42.667h42.667c21.333 0 42.667-21.333 42.667-42.667s-21.333-42.667-42.667-42.667h-42.667c-72.533 0-128 55.467-128 128v384c0 72.533 55.467 128 128 128h384c72.533 0 128-55.467 128-128z" />
<glyph unicode="&#xe93f;" glyph-name="corner-up-right" data-tags="corner-up-right" d="M896 576c0-4.267 0-8.533 0-8.533s0-4.267 0-4.267-4.267-8.533-8.533-12.8l-213.333-213.333c-12.8-12.8-21.333-17.067-34.133-17.067s-21.333 4.267-29.867 12.8c-17.067 17.067-17.067 42.667 0 59.733l140.8 140.8h-409.6c-72.533 0-128-55.467-128-128v-298.667c0-21.333-21.333-42.667-42.667-42.667s-42.667 21.333-42.667 42.667v298.667c0 119.467 93.867 213.333 213.333 213.333h409.6l-140.8 140.8c-17.067 17.067-17.067 42.667 0 59.733s42.667 17.067 59.733 0l213.333-213.333c4.267-4.267 8.533-8.533 8.533-12.8 0 0 0-4.267 0-4.267 4.267-4.267 4.267-8.533 4.267-12.8z" />
<glyph unicode="&#xe940;" glyph-name="cpu" data-tags="cpu" d="M981.333 405.333h-85.333v128h85.333c21.333 0 42.667 21.333 42.667 42.667s-21.333 42.667-42.667 42.667h-85.333v85.333c0 72.533-55.467 128-128 128h-85.333v85.333c0 21.333-21.333 42.667-42.667 42.667s-42.667-21.333-42.667-42.667v-85.333h-170.667v85.333c0 21.333-21.333 42.667-42.667 42.667s-42.667-21.333-42.667-42.667v-85.333h-85.333c-72.533 0-128-55.467-128-128v-85.333h-85.333c-21.333 0-42.667-21.333-42.667-42.667s21.333-42.667 42.667-42.667h85.333v-128h-85.333c-21.333 0-42.667-21.333-42.667-42.667s21.333-42.667 42.667-42.667h85.333v-128c0-72.533 55.467-128 128-128h85.333v-85.333c0-21.333 21.333-42.667 42.667-42.667s42.667 21.333 42.667 42.667v85.333h170.667v-85.333c0-21.333 21.333-42.667 42.667-42.667s42.667 21.333 42.667 42.667v85.333h85.333c72.533 0 128 55.467 128 128v128h85.333c21.333 0 42.667 21.333 42.667 42.667s-21.333 42.667-42.667 42.667zM810.667 192c0-21.333-21.333-42.667-42.667-42.667h-512c-21.333 0-42.667 21.333-42.667 42.667v512c0 21.333 21.333 42.667 42.667 42.667h512c21.333 0 42.667-21.333 42.667-42.667v-512zM640 618.667h-256c-21.333 0-42.667-21.333-42.667-42.667v-256c0-21.333 21.333-42.667 42.667-42.667h256c21.333 0 42.667 21.333 42.667 42.667v256c0 21.333-21.333 42.667-42.667 42.667zM597.333 362.667h-170.667v170.667h170.667v-170.667z" />
<glyph unicode="&#xe941;" glyph-name="credit-card" data-tags="credit-card" d="M896 832h-768c-72.533 0-128-55.467-128-128v-512c0-72.533 55.467-128 128-128h768c72.533 0 128 55.467 128 128v512c0 72.533-55.467 128-128 128zM938.667 192c0-21.333-21.333-42.667-42.667-42.667h-768c-21.333 0-42.667 21.333-42.667 42.667v298.667h853.333v-298.667zM938.667 576h-853.333v128c0 21.333 21.333 42.667 42.667 42.667h768c21.333 0 42.667-21.333 42.667-42.667v-128z" />
<glyph unicode="&#xe942;" glyph-name="crop" data-tags="crop" d="M981.333 234.667h-170.667v384c0 72.533-55.467 128-128 128l-379.733-4.267v174.933c0 21.333-17.067 42.667-42.667 42.667v0c-21.333 0-42.667-17.067-42.667-42.667v-174.933h-174.933c-21.333 0-42.667-21.333-42.667-42.667s21.333-42.667 42.667-42.667v0h174.933l-4.267-379.733c0-72.533 55.467-128 128-128h384v-170.667c0-21.333 21.333-42.667 42.667-42.667s42.667 21.333 42.667 42.667v170.667h170.667c21.333 0 42.667 21.333 42.667 42.667s-21.333 42.667-42.667 42.667zM725.333 234.667h-384c-21.333 0-42.667 21.333-42.667 42.667l4.267 379.733 379.733 4.267c21.333 0 42.667-21.333 42.667-42.667v-384z" />
<glyph unicode="&#xe943;" glyph-name="crosshair" data-tags="crosshair" d="M512 917.333c-260.267 0-469.333-209.067-469.333-469.333s209.067-469.333 469.333-469.333 469.333 209.067 469.333 469.333-209.067 469.333-469.333 469.333zM554.667 68.267v123.733c0 21.333-21.333 42.667-42.667 42.667s-42.667-21.333-42.667-42.667v-123.733c-179.2 21.333-320 162.133-337.067 337.067h123.733c21.333 0 42.667 21.333 42.667 42.667s-21.333 42.667-42.667 42.667h-123.733c17.067 179.2 157.867 320 337.067 337.067v-123.733c0-21.333 21.333-42.667 42.667-42.667s42.667 21.333 42.667 42.667v123.733c179.2-21.333 320-162.133 337.067-337.067h-123.733c-21.333 0-42.667-21.333-42.667-42.667s21.333-42.667 42.667-42.667h123.733c-17.067-179.2-157.867-320-337.067-337.067z" />
<glyph unicode="&#xe944;" glyph-name="database" data-tags="database" d="M938.667 755.2c-12.8 110.933-226.133 162.133-426.667 162.133s-413.867-51.2-426.667-162.133c0-4.267 0-4.267 0-8.533v-597.333c0-119.467 221.867-170.667 426.667-170.667s426.667 51.2 426.667 170.667v597.333c0 4.267 0 4.267 0 8.533zM512 832c221.867 0 341.333-64 341.333-85.333s-119.467-85.333-341.333-85.333-341.333 64-341.333 85.333 119.467 85.333 341.333 85.333zM170.667 640c85.333-42.667 213.333-64 341.333-64s256 21.333 341.333 64v-192c0-21.333-106.667-85.333-341.333-85.333s-341.333 64-341.333 85.333v192zM853.333 149.333c0-21.333-106.667-85.333-341.333-85.333s-341.333 64-341.333 85.333v192c85.333-42.667 213.333-64 341.333-64s256 21.333 341.333 64v-192z" />
<glyph unicode="&#xe945;" glyph-name="download-cloud" data-tags="download-cloud" d="M712.533 204.8l-170.667-170.667c-4.267-4.267-8.533-8.533-12.8-8.533 0 0-4.267 0-4.267 0-4.267 0-8.533 0-8.533 0s-8.533 0-8.533 0c0 0-4.267 0-4.267 0-4.267 0-8.533 4.267-12.8 8.533l-170.667 170.667c-17.067 17.067-17.067 42.667 0 59.733s42.667 17.067 59.733 0l98.133-98.133v281.6c0 21.333 21.333 42.667 42.667 42.667s42.667-21.333 42.667-42.667v-281.6l98.133 98.133c17.067 17.067 42.667 17.067 59.733 0 8.533-17.067 8.533-42.667-8.533-59.733zM1019.733 320c-12.8-68.267-46.933-128-106.667-166.4-8.533-4.267-17.067-8.533-25.6-8.533-12.8 0-25.6 8.533-34.133 17.067-12.8 21.333-8.533 46.933 8.533 59.733 38.4 25.6 64 64 68.267 110.933 8.533 46.933 0 89.6-29.867 128-34.133 46.933-85.333 72.533-140.8 72.533h-55.467c-21.333 0-38.4 12.8-42.667 34.133-42.667 157.867-204.8 256-362.667 213.333-68.267-21.333-132.267-68.267-170.667-136.533-42.667-68.267-51.2-149.333-34.133-226.133 12.8-46.933 34.133-89.6 64-123.733 17.067-17.067 12.8-42.667-4.267-59.733s-42.667-12.8-59.733 4.267c-38.4 46.933-68.267 102.4-85.333 157.867-25.6 98.133-8.533 200.533 42.667 290.133s136.533 149.333 234.667 174.933c196.267 51.2 396.8-59.733 460.8-243.2h21.333c0 0 0 0 0 0 85.333 0 162.133-42.667 209.067-106.667 38.4-59.733 55.467-128 42.667-192z" />
<glyph unicode="&#xe946;" glyph-name="download" data-tags="download" d="M938.667 320v-170.667c0-72.533-55.467-128-128-128h-597.333c-72.533 0-128 55.467-128 128v170.667c0 21.333 21.333 42.667 42.667 42.667s42.667-21.333 42.667-42.667v-170.667c0-21.333 21.333-42.667 42.667-42.667h597.333c21.333 0 42.667 21.333 42.667 42.667v170.667c0 21.333 21.333 42.667 42.667 42.667s42.667-21.333 42.667-42.667zM755.2 503.467l-213.333-213.333c-4.267-4.267-8.533-8.533-12.8-8.533 0 0-4.267 0-4.267 0-4.267 0-8.533 0-8.533 0s-8.533 0-8.533 0c0 0-4.267 0-4.267 0-4.267 0-8.533 4.267-12.8 8.533l-213.333 213.333c-17.067 17.067-17.067 42.667 0 59.733s42.667 17.067 59.733 0l140.8-140.8v409.6c0 21.333 21.333 42.667 42.667 42.667s42.667-21.333 42.667-42.667v-409.6l140.8 140.8c17.067 17.067 42.667 17.067 59.733 0 8.533-17.067 8.533-42.667-8.533-59.733z" />
<glyph unicode="&#xe947;" glyph-name="check2" data-tags="check2" horiz-adv-x="1492" d="M520.119-70.34c-11.673 0-22.908 4.74-31.158 12.99l-476.146 480.535c-17.027 17.203-16.939 45.025 0.263 62.053s45.025 16.939 61.965-0.263l445.076-449.026 896.911 904.722c17.027 17.115 45.025 17.378 62.053 0.263 17.203-17.027 17.378-44.85 0.351-62.053l-928.156-936.143c-8.163-8.338-19.397-13.078-31.158-13.078z" />
<glyph unicode="&#xe948;" glyph-name="droplet" data-tags="droplet" d="M512-21.333c-102.4 0-200.533 38.4-273.067 110.933s-110.933 170.667-110.933 273.067c0 102.4 38.4 200.533 110.933 273.067 0 0 0 0 0 0l243.2 238.933c8.533 8.533 17.067 12.8 29.867 12.8v0c12.8 0 21.333-4.267 29.867-12.8l243.2-243.2c149.333-149.333 149.333-392.533 0-541.867-72.533-72.533-170.667-110.933-273.067-110.933 0 0 0 0 0 0zM298.667 571.733c-55.467-55.467-85.333-132.267-85.333-209.067 0-81.067 29.867-153.6 89.6-209.067 55.467-55.467 132.267-85.333 209.067-85.333 0 0 0 0 0 0 81.067 0 153.6 29.867 209.067 89.6 115.2 115.2 115.2 307.2 0 422.4l-213.333 213.333-209.067-221.867c4.267 0 0 0 0 0zM273.067 601.6v0 0z" />
<glyph unicode="&#xe949;" glyph-name="external-link" data-tags="external-link" d="M810.667 405.333v-256c0-72.533-55.467-128-128-128h-469.333c-72.533 0-128 55.467-128 128v469.333c0 72.533 55.467 128 128 128h256c21.333 0 42.667-21.333 42.667-42.667s-21.333-42.667-42.667-42.667h-256c-21.333 0-42.667-21.333-42.667-42.667v-469.333c0-21.333 21.333-42.667 42.667-42.667h469.333c21.333 0 42.667 21.333 42.667 42.667v256c0 21.333 21.333 42.667 42.667 42.667s42.667-21.333 42.667-42.667zM938.667 832v-256c0-21.333-21.333-42.667-42.667-42.667s-42.667 21.333-42.667 42.667v153.6l-396.8-396.8c-8.533-8.533-17.067-12.8-29.867-12.8s-21.333 4.267-29.867 12.8c-17.067 17.067-17.067 42.667 0 59.733l396.8 396.8h-153.6c-21.333 0-42.667 21.333-42.667 42.667s21.333 42.667 42.667 42.667h256c4.267 0 8.533 0 8.533 0s4.267 0 4.267 0 8.533-4.267 12.8-8.533c4.267-4.267 8.533-8.533 8.533-12.8 0 0 0-4.267 0-4.267 8.533-8.533 8.533-12.8 8.533-17.067z" />
<glyph unicode="&#xe94a;" glyph-name="eye" data-tags="eye" d="M1019.733 469.333c-8.533 12.8-187.733 362.667-507.733 362.667s-499.2-349.867-507.733-362.667c-4.267-12.8-4.267-25.6 0-38.4 8.533-17.067 187.733-366.933 507.733-366.933s499.2 349.867 507.733 362.667c4.267 12.8 4.267 29.867 0 42.667zM512 149.333c-230.4 0-379.733 230.4-422.4 298.667 38.4 68.267 192 298.667 422.4 298.667s379.733-230.4 422.4-298.667c-42.667-68.267-192-298.667-422.4-298.667zM512 618.667c-93.867 0-170.667-76.8-170.667-170.667s76.8-170.667 170.667-170.667 170.667 76.8 170.667 170.667-76.8 170.667-170.667 170.667zM512 362.667c-46.933 0-85.333 38.4-85.333 85.333s38.4 85.333 85.333 85.333 85.333-38.4 85.333-85.333-38.4-85.333-85.333-85.333z" />
<glyph unicode="&#xe94b;" glyph-name="facebook" data-tags="facebook" d="M597.333-21.333h-170.667c-25.6 0-42.667 17.067-42.667 42.667v298.667h-85.333c-25.6 0-42.667 17.067-42.667 42.667v170.667c0 25.6 17.067 42.667 42.667 42.667h85.333v85.333c0 140.8 115.2 256 256 256h128c25.6 0 42.667-17.067 42.667-42.667v-170.667c0-25.6-17.067-42.667-42.667-42.667h-128v-85.333h128c12.8 0 25.6-4.267 34.133-17.067s8.533-21.333 8.533-34.133l-42.667-170.667c-4.267-17.067-21.333-34.133-42.667-34.133h-85.333v-298.667c0-25.6-17.067-42.667-42.667-42.667zM469.333 64h85.333v298.667c0 25.6 17.067 42.667 42.667 42.667h93.867l21.333 85.333h-115.2c-25.6 0-42.667 17.067-42.667 42.667v128c0 46.933 38.4 85.333 85.333 85.333h85.333v85.333h-85.333c-93.867 0-170.667-76.8-170.667-170.667v-128c0-25.6-17.067-42.667-42.667-42.667h-85.333v-85.333h85.333c25.6 0 42.667-17.067 42.667-42.667v-298.667z" />
<glyph unicode="&#xe94c;" glyph-name="file-plus" data-tags="file-plus" d="M883.2 648.533l-256 256c-8.533 8.533-17.067 12.8-29.867 12.8h-341.333c-72.533 0-128-55.467-128-128v-682.667c0-72.533 55.467-128 128-128h512c72.533 0 128 55.467 128 128v512c0 12.8-4.267 21.333-12.8 29.867zM640 772.267l110.933-110.933h-110.933v110.933zM810.667 106.667c0-21.333-21.333-42.667-42.667-42.667h-512c-21.333 0-42.667 21.333-42.667 42.667v682.667c0 21.333 21.333 42.667 42.667 42.667h298.667v-213.333c0-21.333 21.333-42.667 42.667-42.667h213.333v-469.333zM682.667 320c0-21.333-21.333-42.667-42.667-42.667h-85.333v-85.333c0-21.333-21.333-42.667-42.667-42.667s-42.667 21.333-42.667 42.667v85.333h-85.333c-21.333 0-42.667 21.333-42.667 42.667s21.333 42.667 42.667 42.667h85.333v85.333c0 21.333 21.333 42.667 42.667 42.667s42.667-21.333 42.667-42.667v-85.333h85.333c21.333 0 42.667-21.333 42.667-42.667z" />
<glyph unicode="&#xe94d;" glyph-name="file-text" data-tags="file-text" d="M883.2 648.533l-256 256c-8.533 8.533-17.067 12.8-29.867 12.8h-341.333c-72.533 0-128-55.467-128-128v-682.667c0-72.533 55.467-128 128-128h512c72.533 0 128 55.467 128 128v512c0 12.8-4.267 21.333-12.8 29.867zM640 772.267l110.933-110.933h-110.933v110.933zM810.667 106.667c0-21.333-21.333-42.667-42.667-42.667h-512c-21.333 0-42.667 21.333-42.667 42.667v682.667c0 21.333 21.333 42.667 42.667 42.667h298.667v-213.333c0-21.333 21.333-42.667 42.667-42.667h213.333v-469.333zM725.333 405.333c0-21.333-21.333-42.667-42.667-42.667h-341.333c-21.333 0-42.667 21.333-42.667 42.667s21.333 42.667 42.667 42.667h341.333c21.333 0 42.667-21.333 42.667-42.667zM725.333 234.667c0-21.333-21.333-42.667-42.667-42.667h-341.333c-21.333 0-42.667 21.333-42.667 42.667s21.333 42.667 42.667 42.667h341.333c21.333 0 42.667-21.333 42.667-42.667zM469.333 576c0-21.333-21.333-42.667-42.667-42.667h-85.333c-21.333 0-42.667 21.333-42.667 42.667s21.333 42.667 42.667 42.667h85.333c21.333 0 42.667-21.333 42.667-42.667z" />
<glyph unicode="&#xe94e;" glyph-name="file" data-tags="file" d="M883.2 648.533l-256 256c-8.533 8.533-17.067 12.8-29.867 12.8h-341.333c-72.533 0-128-55.467-128-128v-682.667c0-72.533 55.467-128 128-128h512c72.533 0 128 55.467 128 128v512c0 12.8-4.267 21.333-12.8 29.867zM640 772.267l110.933-110.933h-110.933v110.933zM810.667 106.667c0-21.333-21.333-42.667-42.667-42.667h-512c-21.333 0-42.667 21.333-42.667 42.667v682.667c0 21.333 21.333 42.667 42.667 42.667h298.667v-213.333c0-21.333 21.333-42.667 42.667-42.667h213.333v-469.333z" />
<glyph unicode="&#xe94f;" glyph-name="film" data-tags="film" d="M844.8 917.333h-665.6c-76.8 0-136.533-59.733-136.533-136.533v-665.6c0-76.8 59.733-136.533 136.533-136.533h665.6c76.8 0 136.533 59.733 136.533 136.533v665.6c0 76.8-59.733 136.533-136.533 136.533zM256 64h-76.8c-29.867 0-51.2 21.333-51.2 51.2v76.8h128v-128zM256 277.333h-128v128h128v-128zM256 490.667h-128v128h128v-128zM256 704h-128v76.8c0 29.867 21.333 51.2 51.2 51.2h76.8v-128zM682.667 64h-341.333v341.333h341.333v-341.333zM682.667 490.667h-341.333v341.333h341.333v-341.333zM896 115.2c0-25.6-21.333-51.2-51.2-51.2h-76.8v128h128v-76.8zM896 277.333h-128v128h128v-128zM896 490.667h-128v128h128v-128zM896 704h-128v128h76.8c29.867 0 51.2-21.333 51.2-51.2v-76.8z" />
<glyph unicode="&#xe950;" glyph-name="filter" data-tags="filter" d="M597.333 21.333c-8.533 0-12.8 0-17.067 4.267l-170.667 85.333c-17.067 8.533-25.6 21.333-25.6 38.4v264.533l-332.8 392.533c-8.533 12.8-12.8 29.867-4.267 42.667 8.533 17.067 21.333 25.6 38.4 25.6h853.333c17.067 0 29.867-8.533 38.4-25.6s4.267-34.133-4.267-46.933l-332.8-388.267v-349.867c0-12.8-8.533-29.867-21.333-38.4-4.267-4.267-12.8-4.267-21.333-4.267zM469.333 174.933l85.333-42.667v294.4c0 8.533 4.267 21.333 8.533 25.6l281.6 337.067h-665.6l281.6-332.8c8.533-8.533 8.533-17.067 8.533-25.6v-256z" />
<glyph unicode="&#xe951;" glyph-name="flag" data-tags="flag" d="M870.4 870.4c-17.067 8.533-34.133 4.267-46.933-8.533 0 0-38.4-29.867-140.8-29.867-55.467 0-102.4 21.333-153.6 38.4-59.733 25.6-115.2 46.933-187.733 46.933-136.533 0-192-46.933-200.533-55.467s-12.8-17.067-12.8-29.867v-810.667c0-21.333 21.333-42.667 42.667-42.667s42.667 21.333 42.667 42.667v277.333c17.067 8.533 59.733 21.333 128 21.333 55.467 0 102.4-21.333 153.6-38.4 59.733-25.6 115.2-46.933 187.733-46.933 136.533 0 192 46.933 200.533 55.467s12.8 17.067 12.8 29.867v512c0 17.067-8.533 29.867-25.6 38.4zM810.667 341.333c-17.067-8.533-59.733-21.333-128-21.333-55.467 0-102.4 21.333-153.6 38.4-59.733 25.6-115.2 46.933-187.733 46.933-55.467 0-98.133-8.533-128-17.067v422.4c17.067 8.533 59.733 21.333 128 21.333 55.467 0 102.4-21.333 153.6-38.4 59.733-25.6 115.2-46.933 187.733-46.933 55.467 0 98.133 8.533 128 17.067v-422.4z" />
<glyph unicode="&#xe952;" glyph-name="folder" data-tags="folder" d="M853.333 21.333h-682.667c-72.533 0-128 55.467-128 128v597.333c0 72.533 55.467 128 128 128h213.333c12.8 0 25.6-8.533 34.133-17.067l72.533-110.933h362.667c72.533 0 128-55.467 128-128v-469.333c0-72.533-55.467-128-128-128zM170.667 789.333c-25.6 0-42.667-17.067-42.667-42.667v-597.333c0-25.6 17.067-42.667 42.667-42.667h682.667c25.6 0 42.667 17.067 42.667 42.667v469.333c0 25.6-17.067 42.667-42.667 42.667h-384c-12.8 0-25.6 8.533-34.133 17.067l-72.533 110.933h-192z" />
<glyph unicode="&#xe953;" glyph-name="git-branch" data-tags="git-branch" d="M768 874.667c-93.867 0-170.667-76.8-170.667-170.667 0-76.8 51.2-145.067 128-166.4-17.067-157.867-145.067-285.867-302.933-302.933-17.067 59.733-64 106.667-123.733 119.467v477.867c0 21.333-21.333 42.667-42.667 42.667s-42.667-21.333-42.667-42.667v-473.6c-72.533-17.067-128-85.333-128-166.4 0-93.867 76.8-170.667 170.667-170.667 81.067 0 149.333 55.467 166.4 128 204.8 17.067 371.2 183.467 388.267 388.267 76.8 17.067 128 85.333 128 166.4 0 93.867-76.8 170.667-170.667 170.667zM256 106.667c-46.933 0-85.333 38.4-85.333 85.333s38.4 85.333 85.333 85.333 85.333-38.4 85.333-85.333-38.4-85.333-85.333-85.333zM768 618.667c-46.933 0-85.333 38.4-85.333 85.333s38.4 85.333 85.333 85.333 85.333-38.4 85.333-85.333-38.4-85.333-85.333-85.333z" />
<glyph unicode="&#xe954;" glyph-name="git-commit" data-tags="git-commit" d="M981.333 490.667h-256c0 0-4.267 0-4.267 0-21.333 98.133-106.667 170.667-209.067 170.667s-187.733-72.533-209.067-170.667c0 0-4.267 0-4.267 0h-256c-21.333 0-42.667-21.333-42.667-42.667s21.333-42.667 42.667-42.667h256c0 0 4.267 0 4.267 0 21.333-98.133 106.667-170.667 209.067-170.667s187.733 72.533 209.067 170.667c0 0 4.267 0 4.267 0h256c21.333 0 42.667 21.333 42.667 42.667s-21.333 42.667-42.667 42.667zM512 320c-72.533 0-128 55.467-128 128s55.467 128 128 128 128-55.467 128-128-55.467-128-128-128z" />
<glyph unicode="&#xe955;" glyph-name="git-merge" data-tags="git-merge" d="M768 362.667c-76.8 0-145.067-51.2-166.4-128-157.867 17.067-285.867 145.067-302.933 302.933 72.533 21.333 128 85.333 128 166.4 0 93.867-76.8 170.667-170.667 170.667s-170.667-76.8-170.667-170.667c0-81.067 55.467-145.067 128-166.4v-473.6c0-21.333 21.333-42.667 42.667-42.667s42.667 21.333 42.667 42.667v256c72.533-93.867 179.2-157.867 302.933-170.667 17.067-76.8 85.333-128 166.4-128 93.867 0 170.667 76.8 170.667 170.667s-76.8 170.667-170.667 170.667zM256 618.667c-46.933 0-85.333 38.4-85.333 85.333s38.4 85.333 85.333 85.333 85.333-38.4 85.333-85.333-38.4-85.333-85.333-85.333zM768 106.667c-46.933 0-85.333 38.4-85.333 85.333s38.4 85.333 85.333 85.333 85.333-38.4 85.333-85.333-38.4-85.333-85.333-85.333z" />
<glyph unicode="&#xe956;" glyph-name="git-pull-request" data-tags="git-pull-request" d="M256 874.667c-93.867 0-170.667-76.8-170.667-170.667 0-81.067 55.467-145.067 128-166.4v-473.6c0-21.333 21.333-42.667 42.667-42.667s42.667 21.333 42.667 42.667v473.6c72.533 17.067 128 85.333 128 166.4 0 93.867-76.8 170.667-170.667 170.667zM256 618.667c-46.933 0-85.333 38.4-85.333 85.333s38.4 85.333 85.333 85.333 85.333-38.4 85.333-85.333-38.4-85.333-85.333-85.333zM810.667 358.4v260.267c0 72.533-55.467 128-128 128h-128c-21.333 0-42.667-21.333-42.667-42.667s21.333-42.667 42.667-42.667h128c21.333 0 42.667-21.333 42.667-42.667v-260.267c-72.533-17.067-128-85.333-128-166.4 0-93.867 76.8-170.667 170.667-170.667s170.667 76.8 170.667 170.667c0 81.067-55.467 145.067-128 166.4zM768 106.667c-46.933 0-85.333 38.4-85.333 85.333s38.4 85.333 85.333 85.333 85.333-38.4 85.333-85.333-38.4-85.333-85.333-85.333z" />
<glyph unicode="&#xe957;" glyph-name="github" data-tags="github" d="M682.667-21.333c-25.6 0-42.667 17.067-42.667 42.667v166.4c4.267 34.133-8.533 59.733-29.867 81.067-12.8 12.8-17.067 29.867-8.533 42.667 4.267 17.067 21.333 25.6 34.133 29.867 123.733 12.8 238.933 55.467 238.933 256 0 46.933-17.067 93.867-51.2 132.267-12.8 12.8-12.8 29.867-8.533 42.667 12.8 34.133 12.8 68.267 4.267 102.4-21.333-4.267-55.467-17.067-110.933-55.467-8.533-8.533-21.333-8.533-34.133-4.267-89.6 25.6-187.733 25.6-277.333 0-12.8-4.267-25.6-4.267-38.4 4.267-51.2 38.4-89.6 51.2-110.933 55.467-8.533-34.133-8.533-68.267 4.267-102.4 4.267-17.067 4.267-34.133-8.533-42.667-34.133-38.4-51.2-85.333-51.2-132.267 0-200.533 115.2-243.2 238.933-256 17.067 0 29.867-12.8 34.133-29.867s0-34.133-8.533-42.667c-21.333-21.333-29.867-46.933-29.867-76.8v-38.4c0 0 0-4.267 0-4.267v-123.733c0-25.6-17.067-42.667-42.667-42.667s-42.667 17.067-42.667 42.667v72.533c-128-21.333-183.467 51.2-221.867 98.133-17.067 21.333-29.867 38.4-46.933 42.667-21.333 4.267-38.4 29.867-29.867 51.2 4.267 21.333 29.867 38.4 51.2 29.867 42.667-12.8 68.267-42.667 93.867-72.533 34.133-46.933 64-81.067 153.6-64v4.267c0 25.6 4.267 55.467 12.8 76.8-119.467 25.6-247.467 102.4-247.467 328.533 0 64 21.333 123.733 59.733 170.667-17.067 59.733-12.8 115.2 12.8 170.667 4.267 12.8 12.8 21.333 25.6 25.6 17.067 4.267 72.533 12.8 187.733-59.733 93.867 21.333 192 21.333 281.6 0 110.933 72.533 170.667 64 187.733 59.733 12.8-4.267 21.333-12.8 25.6-25.6 21.333-55.467 25.6-110.933 12.8-166.4 38.4-46.933 59.733-106.667 59.733-170.667 0-243.2-145.067-307.2-247.467-332.8 8.533-25.6 12.8-55.467 12.8-81.067v-162.133c0-25.6-17.067-42.667-42.667-42.667z" />
<glyph unicode="&#xe958;" glyph-name="gitlab" data-tags="gitlab" d="M512-25.6c-8.533 0-17.067 4.267-25.6 8.533l-452.267 328.533c-25.6 21.333-38.4 55.467-29.867 89.6l157.867 477.867c4.267 12.8 8.533 21.333 12.8 25.6 21.333 21.333 59.733 21.333 81.067 0 8.533-8.533 12.8-17.067 17.067-25.6l93.867-290.133h281.6l93.867 290.133c4.267 12.8 8.533 17.067 17.067 25.6 25.6 21.333 59.733 21.333 81.067 0 8.533-8.533 12.8-17.067 17.067-25.6l157.867-477.867c8.533-34.133-4.267-68.267-29.867-89.6l-452.267-328.533c-4.267-8.533-12.8-8.533-21.333-8.533zM85.333 375.467l426.667-307.2 426.667 311.467-51.2 153.6-81.067 247.467-81.067-247.467c-4.267-17.067-21.333-29.867-42.667-29.867h-341.333c-17.067 0-34.133 12.8-42.667 29.867l-81.067 247.467-132.267-405.333zM85.333 371.2v0c0 0 0 0 0 0zM196.267 853.333c0 0 0 0 0 0v0zM780.8 853.333c0 0 0 0 0 0v0z" />
<glyph unicode="&#xe959;" glyph-name="globe" data-tags="globe" d="M512 917.333c-260.267 0-469.333-209.067-469.333-469.333s209.067-469.333 469.333-469.333 469.333 209.067 469.333 469.333-209.067 469.333-469.333 469.333zM635.733 490.667h-247.467c8.533 115.2 55.467 226.133 123.733 320 72.533-93.867 115.2-204.8 123.733-320zM413.867 819.2c-64-98.133-102.4-209.067-110.933-328.533h-170.667c17.067 157.867 132.267 290.133 281.6 328.533zM132.267 405.333h170.667c8.533-119.467 51.2-230.4 115.2-328.533-153.6 38.4-268.8 170.667-285.867 328.533zM388.267 405.333h251.733c-8.533-115.2-55.467-226.133-123.733-320-76.8 93.867-119.467 204.8-128 320zM610.133 76.8c64 98.133 102.4 209.067 115.2 328.533h170.667c-21.333-157.867-136.533-290.133-285.867-328.533zM725.333 490.667c-8.533 119.467-51.2 230.4-115.2 328.533 149.333-38.4 264.533-170.667 285.867-328.533h-170.667z" />
<glyph unicode="&#xe95a;" glyph-name="grid" data-tags="grid" d="M426.667 490.667h-298.667c-25.6 0-42.667 17.067-42.667 42.667v298.667c0 25.6 17.067 42.667 42.667 42.667h298.667c25.6 0 42.667-17.067 42.667-42.667v-298.667c0-25.6-17.067-42.667-42.667-42.667zM170.667 576h213.333v213.333h-213.333v-213.333zM896 490.667h-298.667c-25.6 0-42.667 17.067-42.667 42.667v298.667c0 25.6 17.067 42.667 42.667 42.667h298.667c25.6 0 42.667-17.067 42.667-42.667v-298.667c0-25.6-17.067-42.667-42.667-42.667zM640 576h213.333v213.333h-213.333v-213.333zM896 21.333h-298.667c-25.6 0-42.667 17.067-42.667 42.667v298.667c0 25.6 17.067 42.667 42.667 42.667h298.667c25.6 0 42.667-17.067 42.667-42.667v-298.667c0-25.6-17.067-42.667-42.667-42.667zM640 106.667h213.333v213.333h-213.333v-213.333zM426.667 21.333h-298.667c-25.6 0-42.667 17.067-42.667 42.667v298.667c0 25.6 17.067 42.667 42.667 42.667h298.667c25.6 0 42.667-17.067 42.667-42.667v-298.667c0-25.6-17.067-42.667-42.667-42.667zM170.667 106.667h213.333v213.333h-213.333v-213.333z" />
<glyph unicode="&#xe95b;" glyph-name="hard-drive" data-tags="hard-drive" d="M981.333 456.533c0 4.267 0 4.267-4.267 8.533v0l-4.267 4.267-145.067 290.133c-21.333 42.667-64 72.533-115.2 72.533h-405.333c-46.933 0-89.6-25.6-110.933-72.533l-145.067-290.133-4.267-4.267c0-4.267-4.267-4.267-4.267-8.533s0-4.267 0-8.533v-256c0-72.533 55.467-128 128-128h682.667c72.533 0 128 55.467 128 128v256c0 4.267 0 8.533 0 8.533zM268.8 721.067c0 0 0 0 0 0 8.533 17.067 25.6 25.6 38.4 25.6h405.333c17.067 0 29.867-8.533 38.4-25.6l115.2-230.4h-712.533l115.2 230.4zM896 192c0-21.333-21.333-42.667-42.667-42.667h-682.667c-21.333 0-42.667 21.333-42.667 42.667v213.333h768v-213.333zM298.667 277.333c0-12.8-4.267-21.333-12.8-29.867s-17.067-12.8-29.867-12.8-21.333 4.267-29.867 12.8-12.8 17.067-12.8 29.867c0 4.267 0 12.8 4.267 17.067s4.267 8.533 8.533 12.8c4.267 4.267 8.533 8.533 12.8 8.533 8.533 4.267 21.333 4.267 34.133 0 4.267 0 8.533-4.267 12.8-8.533s8.533-8.533 8.533-12.8 4.267-12.8 4.267-17.067zM469.333 277.333c0-12.8-4.267-21.333-12.8-29.867s-17.067-12.8-29.867-12.8-21.333 4.267-29.867 12.8-12.8 17.067-12.8 29.867c0 4.267 0 12.8 4.267 17.067s4.267 8.533 8.533 12.8c17.067 17.067 46.933 17.067 59.733 0 4.267-4.267 8.533-8.533 8.533-12.8 4.267-4.267 4.267-12.8 4.267-17.067z" />
<glyph unicode="&#xe95c;" glyph-name="hash" data-tags="hash" d="M853.333 362.667h-179.2l17.067 170.667h162.133c21.333 0 42.667 21.333 42.667 42.667s-21.333 42.667-42.667 42.667h-149.333l21.333 209.067c4.267 21.333-12.8 42.667-38.4 46.933-21.333 4.267-42.667-12.8-46.933-38.4l-25.6-217.6h-170.667l25.6 209.067c4.267 21.333-12.8 42.667-38.4 46.933-21.333 4.267-42.667-12.8-46.933-38.4l-25.6-217.6h-187.733c-21.333 0-42.667-21.333-42.667-42.667s21.333-42.667 42.667-42.667h179.2l-17.067-170.667h-162.133c-21.333 0-42.667-21.333-42.667-42.667s21.333-42.667 42.667-42.667h149.333l-21.333-209.067c-4.267-21.333 12.8-42.667 38.4-46.933 0 0 4.267 0 4.267 0 21.333 0 38.4 17.067 42.667 38.4l25.6 217.6h170.667l-25.6-209.067c-4.267-21.333 12.8-42.667 38.4-46.933 0 0 4.267 0 4.267 0 21.333 0 38.4 17.067 42.667 38.4l25.6 217.6h187.733c21.333 0 42.667 21.333 42.667 42.667s-21.333 42.667-42.667 42.667zM588.8 362.667h-170.667l17.067 170.667h170.667l-17.067-170.667z" />
<glyph unicode="&#xe95d;" glyph-name="headphones" data-tags="headphones" d="M512 874.667c-234.667 0-426.667-192-426.667-426.667v-298.667c0-72.533 55.467-128 128-128h42.667c72.533 0 128 55.467 128 128v128c0 72.533-55.467 128-128 128h-85.333v42.667c0 187.733 153.6 341.333 341.333 341.333s341.333-153.6 341.333-341.333v-42.667h-85.333c-72.533 0-128-55.467-128-128v-128c0-72.533 55.467-128 128-128h42.667c72.533 0 128 55.467 128 128v298.667c0 234.667-192 426.667-426.667 426.667zM256 320c21.333 0 42.667-21.333 42.667-42.667v-128c0-21.333-21.333-42.667-42.667-42.667h-42.667c-21.333 0-42.667 21.333-42.667 42.667v170.667h85.333zM853.333 149.333c0-21.333-21.333-42.667-42.667-42.667h-42.667c-21.333 0-42.667 21.333-42.667 42.667v128c0 21.333 21.333 42.667 42.667 42.667h85.333v-170.667z" />
<glyph unicode="&#xe95e;" glyph-name="heart" data-tags="heart" d="M512 12.8c-12.8 0-21.333 4.267-29.867 12.8l-375.467 375.467c-51.2 51.2-81.067 123.733-81.067 196.267s29.867 145.067 81.067 196.267 119.467 81.067 192 81.067c72.533 0 145.067-29.867 196.267-81.067l17.067-17.067 17.067 17.067c0 0 0 0 0 0 51.2 51.2 119.467 81.067 196.267 81.067v0c72.533 0 145.067-29.867 196.267-81.067v0c106.667-106.667 106.667-285.867 0-392.533l-375.467-375.467c-12.8-8.533-21.333-12.8-34.133-12.8zM298.667 789.333c-46.933 0-98.133-17.067-132.267-55.467-76.8-76.8-76.8-196.267 0-273.067l345.6-345.6 345.6 345.6c38.4 38.4 55.467 85.333 55.467 136.533s-21.333 98.133-55.467 136.533v0c-34.133 34.133-81.067 55.467-132.267 55.467 0 0 0 0 0 0-51.2 0-98.133-21.333-136.533-55.467v0c0 0 0 0 0 0l-42.667-46.933c-17.067-17.067-42.667-17.067-59.733 0l-46.933 46.933c-38.4 38.4-89.6 55.467-140.8 55.467z" />
<glyph unicode="&#xe95f;" glyph-name="help-circle" data-tags="help-circle" d="M512-21.333c-260.267 0-469.333 209.067-469.333 469.333s209.067 469.333 469.333 469.333 469.333-209.067 469.333-469.333-209.067-469.333-469.333-469.333zM512 832c-213.333 0-384-170.667-384-384s170.667-384 384-384c213.333 0 384 170.667 384 384s-170.667 384-384 384zM507.733 362.667c-17.067 0-34.133 12.8-38.4 29.867-8.533 21.333 4.267 46.933 25.6 55.467 25.6 8.533 98.133 42.667 98.133 89.6 0 38.4-21.333 68.267-55.467 81.067-42.667 17.067-93.867-8.533-110.933-51.2-8.533-21.333-34.133-34.133-55.467-25.6-21.333 0-29.867 25.6-25.6 46.933 29.867 89.6 128 136.533 217.6 102.4 68.267-25.6 115.2-89.6 115.2-162.133 0-110.933-140.8-162.133-157.867-166.4-4.267 0-8.533 0-12.8 0zM512 192c-12.8 0-21.333 4.267-29.867 12.8s-12.8 17.067-12.8 29.867c0 4.267 0 12.8 4.267 17.067s4.267 8.533 8.533 12.8c17.067 17.067 42.667 17.067 59.733 0 4.267-4.267 8.533-8.533 8.533-12.8s4.267-8.533 4.267-17.067 0-12.8-4.267-17.067c-4.267-4.267-4.267-8.533-8.533-12.8-8.533-8.533-17.067-12.8-29.867-12.8z" />
<glyph unicode="&#xe960;" glyph-name="home" data-tags="home" d="M921.6 610.133l-384 298.667c-17.067 12.8-38.4 12.8-51.2 0l-384-298.667c-12.8-8.533-17.067-21.333-17.067-34.133v-469.333c0-72.533 55.467-128 128-128h597.333c72.533 0 128 55.467 128 128v469.333c0 12.8-4.267 25.6-17.067 34.133zM597.333 64h-170.667v341.333h170.667v-341.333zM853.333 106.667c0-21.333-21.333-42.667-42.667-42.667h-128v384c0 21.333-21.333 42.667-42.667 42.667h-256c-21.333 0-42.667-21.333-42.667-42.667v-384h-128c-21.333 0-42.667 21.333-42.667 42.667v448l341.333 264.533 341.333-264.533v-448z" />
<glyph unicode="&#xe961;" glyph-name="image" data-tags="image" d="M810.667 874.667h-597.333c-72.533 0-128-55.467-128-128v-597.333c0-72.533 55.467-128 128-128h597.333c72.533 0 128 55.467 128 128v597.333c0 72.533-55.467 128-128 128zM853.333 149.333c0-21.333-21.333-42.667-42.667-42.667h-494.933l366.933 366.933 170.667-170.667v-153.6zM853.333 422.4l-140.8 140.8c-17.067 17.067-42.667 17.067-59.733 0l-452.267-452.267c-17.067 4.267-29.867 21.333-29.867 38.4v597.333c0 21.333 21.333 42.667 42.667 42.667h597.333c21.333 0 42.667-21.333 42.667-42.667v-324.267zM362.667 704c-59.733 0-106.667-46.933-106.667-106.667s46.933-106.667 106.667-106.667 106.667 46.933 106.667 106.667-46.933 106.667-106.667 106.667zM362.667 576c-12.8 0-21.333 8.533-21.333 21.333s8.533 21.333 21.333 21.333 21.333-8.533 21.333-21.333-8.533-21.333-21.333-21.333z" />
<glyph unicode="&#xe962;" glyph-name="inbox" data-tags="inbox" d="M981.333 456.533c0 4.267 0 4.267-4.267 8.533v0l-4.267 4.267-145.067 290.133c-21.333 42.667-64 72.533-115.2 72.533h-405.333c-46.933 0-89.6-25.6-110.933-72.533l-145.067-290.133-4.267-4.267c0-4.267-4.267-4.267-4.267-8.533s0-4.267 0-8.533v-256c0-72.533 55.467-128 128-128h682.667c72.533 0 128 55.467 128 128v256c0 4.267 0 8.533 0 8.533zM268.8 721.067c0 0 0 0 0 0 8.533 17.067 25.6 25.6 38.4 25.6h405.333c17.067 0 29.867-8.533 38.4-25.6l115.2-230.4h-183.467c-12.8 0-29.867-8.533-34.133-21.333l-72.533-106.667h-123.733l-72.533 106.667c-8.533 12.8-25.6 21.333-38.4 21.333h-187.733l115.2 230.4zM896 192c0-21.333-21.333-42.667-42.667-42.667h-682.667c-21.333 0-42.667 21.333-42.667 42.667v213.333h192l72.533-106.667c4.267-12.8 21.333-21.333 34.133-21.333h170.667c12.8 0 29.867 8.533 34.133 21.333l72.533 106.667h192v-213.333z" />
<glyph unicode="&#xe963;" glyph-name="info" data-tags="info" d="M512-21.333c-260.267 0-469.333 209.067-469.333 469.333s209.067 469.333 469.333 469.333 469.333-209.067 469.333-469.333-209.067-469.333-469.333-469.333zM512 832c-213.333 0-384-170.667-384-384s170.667-384 384-384c213.333 0 384 170.667 384 384s-170.667 384-384 384zM512 234.667c-25.6 0-42.667 17.067-42.667 42.667v170.667c0 25.6 17.067 42.667 42.667 42.667s42.667-17.067 42.667-42.667v-170.667c0-25.6-17.067-42.667-42.667-42.667zM512 576c-4.267 0-12.8 0-17.067 4.267s-8.533 4.267-12.8 8.533c-8.533 8.533-12.8 17.067-12.8 29.867 0 4.267 0 4.267 0 8.533s0 4.267 4.267 8.533c0 4.267 4.267 4.267 4.267 8.533s4.267 4.267 4.267 4.267c4.267 4.267 8.533 8.533 12.8 8.533 17.067 8.533 34.133 4.267 46.933-8.533 0 0 4.267-4.267 4.267-4.267 0-4.267 4.267-4.267 4.267-8.533s0-4.267 4.267-8.533c0-4.267 0-4.267 0-8.533 0-12.8-4.267-21.333-12.8-29.867-4.267 0-4.267-4.267-4.267-4.267-4.267 0-4.267-4.267-8.533-4.267s-4.267 0-8.533-4.267c-4.267 0-4.267 0-8.533 0z" />
<glyph unicode="&#xe964;" glyph-name="instagram" data-tags="instagram" d="M725.333-21.333h-426.667c-140.8 0-256 115.2-256 256v426.667c0 140.8 115.2 256 256 256h426.667c140.8 0 256-115.2 256-256v-426.667c0-140.8-115.2-256-256-256zM298.667 832c-93.867 0-170.667-76.8-170.667-170.667v-426.667c0-93.867 76.8-170.667 170.667-170.667h426.667c93.867 0 170.667 76.8 170.667 170.667v426.667c0 93.867-76.8 170.667-170.667 170.667h-426.667zM512 234.667c-46.933 0-89.6 12.8-128 42.667-46.933 34.133-76.8 85.333-85.333 140.8-12.8 115.2 68.267 226.133 183.467 243.2 21.333 4.267 42.667 4.267 64 0 93.867-12.8 166.4-85.333 179.2-179.2v0c8.533-55.467-4.267-110.933-38.4-157.867s-85.333-76.8-140.8-85.333c-12.8 0-21.333-4.267-34.133-4.267zM512 576c-4.267 0-12.8 0-17.067 0-68.267-8.533-119.467-76.8-106.667-145.067 8.533-68.267 76.8-119.467 145.067-106.667 34.133 4.267 64 21.333 85.333 51.2s29.867 59.733 25.6 93.867v0c-8.533 55.467-51.2 98.133-106.667 106.667-12.8 0-17.067 0-25.6 0zM746.667 640c-12.8 0-21.333 4.267-29.867 12.8-4.267 4.267-8.533 8.533-8.533 12.8-4.267 4.267-4.267 8.533-4.267 17.067 0 12.8 4.267 21.333 12.8 29.867 17.067 17.067 42.667 17.067 59.733 0 8.533-8.533 12.8-17.067 12.8-29.867 0-4.267 0-12.8-4.267-17.067s-4.267-8.533-8.533-12.8c-8.533-8.533-17.067-12.8-29.867-12.8z" />
<glyph unicode="&#xe965;" glyph-name="layers" data-tags="layers" d="M977.067 469.333c8.533-21.333 0-46.933-17.067-55.467l-426.667-213.333c-8.533-8.533-12.8-8.533-21.333-8.533s-12.8 0-21.333 4.267l-426.667 213.333c-21.333 8.533-29.867 34.133-17.067 55.467 8.533 21.333 34.133 29.867 55.467 17.067l405.333-204.8 405.333 204.8c25.6 12.8 55.467 4.267 64-12.8zM977.067 256c8.533-21.333 0-46.933-17.067-55.467l-426.667-213.333c-8.533-8.533-12.8-8.533-21.333-8.533s-12.8 0-21.333 4.267l-426.667 213.333c-21.333 8.533-29.867 34.133-17.067 55.467 8.533 21.333 34.133 29.867 55.467 17.067l405.333-204.8 405.333 204.8c25.6 12.8 55.467 4.267 64-12.8zM64 622.933l426.667-213.333c8.533-4.267 12.8-4.267 21.333-4.267s12.8 0 21.333 4.267l426.667 213.333c12.8 8.533 21.333 21.333 21.333 38.4s-8.533 29.867-21.333 38.4l-426.667 213.333c-12.8 4.267-25.6 4.267-38.4 0l-426.667-213.333c-17.067-8.533-25.6-21.333-25.6-38.4s8.533-29.867 21.333-38.4zM512 827.733l332.8-166.4-332.8-166.4-332.8 166.4 332.8 166.4z" />
<glyph unicode="&#xe966;" glyph-name="layout" data-tags="layout" d="M810.667 874.667h-597.333c-72.533 0-128-55.467-128-128v-597.333c0-72.533 55.467-128 128-128h597.333c72.533 0 128 55.467 128 128v597.333c0 72.533-55.467 128-128 128zM341.333 106.667h-128c-21.333 0-42.667 21.333-42.667 42.667v384h170.667v-426.667zM853.333 149.333c0-21.333-21.333-42.667-42.667-42.667h-384v426.667h426.667v-384zM853.333 618.667h-682.667v128c0 21.333 21.333 42.667 42.667 42.667h597.333c21.333 0 42.667-21.333 42.667-42.667v-128z" />
<glyph unicode="&#xe967;" glyph-name="life-buoy" data-tags="life-buoy" d="M844.8 780.8c-85.333 85.333-204.8 136.533-332.8 136.533s-247.467-51.2-332.8-136.533c-85.333-85.333-136.533-204.8-136.533-332.8s51.2-247.467 136.533-332.8c85.333-85.333 200.533-136.533 332.8-136.533s247.467 51.2 332.8 136.533c85.333 85.333 136.533 200.533 136.533 332.8s-51.2 247.467-136.533 332.8zM512 832c89.6 0 174.933-29.867 238.933-85.333l-119.467-123.733c-34.133 25.6-76.8 38.4-119.467 38.4s-85.333-12.8-119.467-34.133l-119.467 119.467c64 55.467 149.333 85.333 238.933 85.333zM640 448c0-34.133-12.8-68.267-38.4-89.6s-55.467-38.4-89.6-38.4-68.267 12.8-89.6 38.4-38.4 55.467-38.4 89.6 12.8 68.267 38.4 89.6 55.467 38.4 89.6 38.4 68.267-12.8 89.6-38.4 38.4-55.467 38.4-89.6zM128 448c0 89.6 29.867 174.933 85.333 238.933l123.733-119.467c-25.6-34.133-38.4-76.8-38.4-119.467s12.8-85.333 34.133-119.467l-119.467-119.467c-55.467 64-85.333 149.333-85.333 238.933zM512 64c-89.6 0-174.933 29.867-238.933 85.333l119.467 123.733c34.133-25.6 76.8-38.4 119.467-38.4s85.333 12.8 119.467 34.133l119.467-123.733c-64-51.2-149.333-81.067-238.933-81.067zM691.2 328.533c21.333 34.133 34.133 76.8 34.133 119.467s-12.8 85.333-34.133 119.467l119.467 119.467c51.2-64 85.333-149.333 85.333-238.933s-29.867-174.933-85.333-238.933l-119.467 119.467z" />
<glyph unicode="&#xe968;" glyph-name="link-2" data-tags="link-2" d="M768 192h-128c-25.6 0-42.667 17.067-42.667 42.667s17.067 42.667 42.667 42.667h128c93.867 0 170.667 76.8 170.667 170.667s-76.8 170.667-170.667 170.667h-128c-25.6 0-42.667 17.067-42.667 42.667s17.067 42.667 42.667 42.667h128c140.8 0 256-115.2 256-256s-115.2-256-256-256zM384 192h-128c-140.8 0-256 115.2-256 256s115.2 256 256 256h128c25.6 0 42.667-17.067 42.667-42.667s-17.067-42.667-42.667-42.667h-128c-93.867 0-170.667-76.8-170.667-170.667s76.8-170.667 170.667-170.667h128c25.6 0 42.667-17.067 42.667-42.667s-17.067-42.667-42.667-42.667zM682.667 405.333h-341.333c-25.6 0-42.667 17.067-42.667 42.667s17.067 42.667 42.667 42.667h341.333c25.6 0 42.667-17.067 42.667-42.667s-17.067-42.667-42.667-42.667z" />
<glyph unicode="&#xe969;" glyph-name="link" data-tags="link" d="M597.333 277.333c-76.8 0-153.6 34.133-204.8 102.4-12.8 17.067-8.533 46.933 8.533 59.733s46.933 8.533 59.733-8.533c55.467-76.8 162.133-89.6 238.933-34.133 8.533 4.267 12.8 8.533 17.067 17.067l128 128c64 68.267 64 174.933-4.267 238.933s-170.667 64-238.933 0l-72.533-72.533c-17.067-17.067-42.667-17.067-59.733 0s-17.067 42.667 0 59.733l72.533 72.533c98.133 98.133 256 98.133 354.133 0 102.4-98.133 102.4-260.267 4.267-362.667l-128-128c-8.533-8.533-17.067-17.067-29.867-25.6-38.4-29.867-89.6-46.933-145.067-46.933zM302.933-17.067c-64 0-128 25.6-179.2 72.533-102.4 98.133-102.4 260.267-4.267 362.667l128 128c8.533 4.267 17.067 12.8 25.6 21.333 55.467 42.667 123.733 59.733 187.733 46.933 68.267-8.533 128-46.933 166.4-98.133 12.8-17.067 8.533-46.933-8.533-59.733s-46.933-8.533-59.733 8.533c-25.6 38.4-68.267 59.733-110.933 68.267-46.933 8.533-89.6-4.267-128-34.133-8.533-4.267-12.8-8.533-17.067-17.067l-128-128c-64-68.267-64-174.933 4.267-238.933s170.667-64 238.933 0l72.533 72.533c17.067 17.067 42.667 17.067 59.733 0s17.067-42.667 0-59.733l-72.533-72.533c-46.933-51.2-110.933-72.533-174.933-72.533z" />
<glyph unicode="&#xe96a;" glyph-name="linkedin" data-tags="linkedin" d="M938.667 21.333h-170.667c-25.6 0-42.667 17.067-42.667 42.667v298.667c0 25.6-17.067 42.667-42.667 42.667s-42.667-17.067-42.667-42.667v-298.667c0-25.6-17.067-42.667-42.667-42.667h-170.667c-25.6 0-42.667 17.067-42.667 42.667v298.667c0 166.4 132.267 298.667 298.667 298.667s298.667-132.267 298.667-298.667v-298.667c0-25.6-17.067-42.667-42.667-42.667zM810.667 106.667h85.333v256c0 119.467-93.867 213.333-213.333 213.333s-213.333-93.867-213.333-213.333v-256h85.333v256c0 72.533 55.467 128 128 128s128-55.467 128-128v-256zM256 21.333h-170.667c-25.6 0-42.667 17.067-42.667 42.667v512c0 25.6 17.067 42.667 42.667 42.667h170.667c25.6 0 42.667-17.067 42.667-42.667v-512c0-25.6-17.067-42.667-42.667-42.667zM128 106.667h85.333v426.667h-85.333v-426.667zM170.667 661.333c-72.533 0-128 55.467-128 128s55.467 128 128 128 128-55.467 128-128-55.467-128-128-128zM170.667 832c-25.6 0-42.667-17.067-42.667-42.667s17.067-42.667 42.667-42.667 42.667 17.067 42.667 42.667-17.067 42.667-42.667 42.667z" />
<glyph unicode="&#xe96b;" glyph-name="list" data-tags="list" d="M896 661.333h-554.667c-25.6 0-42.667 17.067-42.667 42.667s17.067 42.667 42.667 42.667h554.667c25.6 0 42.667-17.067 42.667-42.667s-17.067-42.667-42.667-42.667zM896 405.333h-554.667c-25.6 0-42.667 17.067-42.667 42.667s17.067 42.667 42.667 42.667h554.667c25.6 0 42.667-17.067 42.667-42.667s-17.067-42.667-42.667-42.667zM896 149.333h-554.667c-25.6 0-42.667 17.067-42.667 42.667s17.067 42.667 42.667 42.667h554.667c25.6 0 42.667-17.067 42.667-42.667s-17.067-42.667-42.667-42.667zM128 661.333c-4.267 0-4.267 0-8.533 0s-4.267 0-8.533 4.267c-4.267 0-4.267 4.267-8.533 4.267s-4.267 4.267-4.267 4.267-4.267 4.267-4.267 4.267c0 4.267-4.267 4.267-4.267 8.533-4.267 4.267-4.267 4.267-4.267 8.533s0 4.267 0 8.533 0 12.8 4.267 17.067c4.267 4.267 4.267 8.533 8.533 12.8 12.8 12.8 29.867 17.067 46.933 8.533 4.267-4.267 8.533-4.267 12.8-8.533 8.533-8.533 12.8-17.067 12.8-29.867 0-4.267 0-4.267 0-8.533s0-4.267-4.267-8.533c0-4.267-4.267-4.267-4.267-8.533 0 0-4.267-4.267-4.267-4.267-8.533-8.533-17.067-12.8-29.867-12.8zM128 405.333c-4.267 0-4.267 0-8.533 0s-4.267 0-8.533 4.267c-4.267 0-4.267 4.267-8.533 4.267s-4.267 4.267-4.267 4.267c-8.533 8.533-12.8 17.067-12.8 29.867 0 4.267 0 12.8 4.267 17.067s4.267 8.533 8.533 12.8c0 0 4.267 4.267 4.267 4.267 4.267 0 4.267 4.267 8.533 4.267s4.267 0 8.533 4.267c12.8 4.267 29.867 0 38.4-12.8 4.267-4.267 8.533-8.533 8.533-12.8 4.267-4.267 4.267-12.8 4.267-17.067s0-4.267 0-8.533 0-4.267-4.267-8.533c0-4.267-4.267-4.267-4.267-8.533 0 0-4.267-4.267-4.267-4.267-8.533-8.533-17.067-12.8-29.867-12.8zM128 149.333c-4.267 0-12.8 0-17.067 4.267-4.267 0-8.533 4.267-12.8 8.533-8.533 8.533-12.8 17.067-12.8 29.867 0 4.267 0 12.8 4.267 17.067s4.267 8.533 8.533 12.8c12.8 12.8 29.867 17.067 46.933 8.533 4.267 0 8.533-4.267 12.8-8.533s8.533-8.533 8.533-12.8c4.267-4.267 4.267-12.8 4.267-17.067s0-12.8-4.267-17.067c-4.267-4.267-4.267-8.533-8.533-12.8-8.533-8.533-17.067-12.8-29.867-12.8z" />
<glyph unicode="&#xe96c;" glyph-name="lock" data-tags="lock" d="M810.667 533.333h-42.667v128c0 140.8-115.2 256-256 256s-256-115.2-256-256v-128h-42.667c-72.533 0-128-55.467-128-128v-298.667c0-72.533 55.467-128 128-128h597.333c72.533 0 128 55.467 128 128v298.667c0 72.533-55.467 128-128 128zM341.333 661.333c0 93.867 76.8 170.667 170.667 170.667s170.667-76.8 170.667-170.667v-128h-341.333v128zM853.333 106.667c0-21.333-21.333-42.667-42.667-42.667h-597.333c-21.333 0-42.667 21.333-42.667 42.667v298.667c0 21.333 21.333 42.667 42.667 42.667h597.333c21.333 0 42.667-21.333 42.667-42.667v-298.667z" />
<glyph unicode="&#xe96d;" glyph-name="log-in" data-tags="log-in" d="M669.867 418.133l-213.333-213.333c-8.533-8.533-17.067-12.8-29.867-12.8s-21.333 4.267-29.867 12.8c-17.067 17.067-17.067 42.667 0 59.733l140.8 140.8h-409.6c-21.333 0-42.667 21.333-42.667 42.667s21.333 42.667 42.667 42.667h409.6l-140.8 140.8c-17.067 17.067-17.067 42.667 0 59.733s42.667 17.067 59.733 0l213.333-213.333c4.267-4.267 8.533-8.533 8.533-12.8 0 0 0-4.267 0-4.267 0-4.267 0-8.533 0-8.533s0-8.533 0-8.533c0 0 0-4.267 0-4.267 0-12.8-4.267-17.067-8.533-21.333zM938.667 746.667v-597.333c0-72.533-55.467-128-128-128h-170.667c-21.333 0-42.667 21.333-42.667 42.667s21.333 42.667 42.667 42.667h170.667c21.333 0 42.667 21.333 42.667 42.667v597.333c0 21.333-21.333 42.667-42.667 42.667h-170.667c-21.333 0-42.667 21.333-42.667 42.667s21.333 42.667 42.667 42.667h170.667c72.533 0 128-55.467 128-128z" />
<glyph unicode="&#xe96e;" glyph-name="log-out" data-tags="log-out" d="M938.667 448c0-4.267 0-8.533 0-8.533s0-4.267 0-4.267-4.267-8.533-8.533-12.8l-213.333-213.333c-12.8-12.8-21.333-17.067-34.133-17.067s-21.333 4.267-29.867 12.8c-17.067 17.067-17.067 42.667 0 59.733l140.8 140.8h-409.6c-21.333 0-42.667 21.333-42.667 42.667s21.333 42.667 42.667 42.667h409.6l-140.8 140.8c-17.067 17.067-17.067 42.667 0 59.733s42.667 17.067 59.733 0l213.333-213.333c4.267-4.267 8.533-8.533 8.533-12.8 0 0 0-4.267 0-4.267 4.267-4.267 4.267-8.533 4.267-12.8zM426.667 64c0-21.333-21.333-42.667-42.667-42.667h-170.667c-72.533 0-128 55.467-128 128v597.333c0 72.533 55.467 128 128 128h170.667c21.333 0 42.667-21.333 42.667-42.667s-21.333-42.667-42.667-42.667h-170.667c-21.333 0-42.667-21.333-42.667-42.667v-597.333c0-21.333 21.333-42.667 42.667-42.667h170.667c21.333 0 42.667-21.333 42.667-42.667z" />
<glyph unicode="&#xe96f;" glyph-name="mail" data-tags="mail" d="M981.333 712.533c-4.267 64-59.733 119.467-128 119.467h-682.667c-68.267 0-123.733-55.467-128-119.467 0-4.267 0-8.533 0-8.533v-512c0-72.533 55.467-128 128-128h682.667c72.533 0 128 55.467 128 128v512c0 0 0 4.267 0 8.533zM170.667 746.667h682.667c17.067 0 29.867-8.533 38.4-25.6l-379.733-264.533-379.733 264.533c8.533 17.067 21.333 25.6 38.4 25.6zM896 192c0-21.333-21.333-42.667-42.667-42.667h-682.667c-21.333 0-42.667 21.333-42.667 42.667v430.933l358.4-251.733c8.533-4.267 17.067-8.533 25.6-8.533s17.067 4.267 25.6 8.533l358.4 251.733v-430.933z" />
<glyph unicode="&#xe970;" glyph-name="map-pin" data-tags="map-pin" d="M512-64c-8.533 0-17.067 4.267-25.6 8.533-12.8 8.533-401.067 273.067-401.067 588.8 0 234.667 192 426.667 426.667 426.667s426.667-192 426.667-426.667c0-315.733-388.267-580.267-401.067-588.8-8.533-4.267-17.067-8.533-25.6-8.533zM512 874.667c-187.733 0-341.333-153.6-341.333-341.333 0-230.4 260.267-443.733 341.333-503.467 81.067 59.733 341.333 273.067 341.333 503.467 0 187.733-153.6 341.333-341.333 341.333zM512 362.667c-93.867 0-170.667 76.8-170.667 170.667s76.8 170.667 170.667 170.667c93.867 0 170.667-76.8 170.667-170.667s-76.8-170.667-170.667-170.667zM512 618.667c-46.933 0-85.333-38.4-85.333-85.333s38.4-85.333 85.333-85.333c46.933 0 85.333 38.4 85.333 85.333s-38.4 85.333-85.333 85.333z" />
<glyph unicode="&#xe971;" glyph-name="map" data-tags="map" d="M1002.667 913.067c-12.8 8.533-29.867 8.533-42.667 0l-277.333-162.133-315.733 157.867c0 0-4.267 0-4.267 4.267-4.267 0-8.533 4.267-12.8 4.267 0 0-4.267 0-8.533 0s-8.533 0-12.8 0c-4.267 0-4.267 0-8.533-4.267 0 0-4.267 0-4.267-4.267l-294.4-170.667c-12.8-4.267-21.333-17.067-21.333-34.133v-682.667c0-17.067 8.533-29.867 21.333-38.4s29.867-8.533 42.667 0l277.333 162.133 315.733-157.867c0 0 4.267 0 4.267-4.267 4.267 0 4.267-4.267 8.533-4.267s4.267 0 8.533 0c8.533 0 12.8 0 17.067 4.267 0 0 0 0 4.267 0h4.267l294.4 170.667c12.8 8.533 21.333 21.333 21.333 38.4v682.667c4.267 17.067-4.267 29.867-17.067 38.4zM298.667 217.6l-213.333-123.733v584.533l213.333 123.733v-584.533zM640 89.6l-256 128v588.8l256-128v-588.8zM938.667 217.6l-213.333-123.733v584.533l213.333 123.733v-584.533z" />
<glyph unicode="&#xe972;" glyph-name="maximize-2" data-tags="maximize-2" d="M938.667 832v-256c0-21.333-21.333-42.667-42.667-42.667s-42.667 21.333-42.667 42.667v153.6l-226.133-226.133c-8.533-8.533-17.067-12.8-29.867-12.8s-21.333 4.267-29.867 12.8c-17.067 17.067-17.067 42.667 0 59.733l226.133 226.133h-153.6c-21.333 0-42.667 21.333-42.667 42.667s21.333 42.667 42.667 42.667h256c4.267 0 8.533 0 8.533 0s4.267 0 4.267 0 8.533-4.267 12.8-8.533c4.267-4.267 8.533-8.533 8.533-12.8 0 0 0-4.267 0-4.267 8.533-8.533 8.533-12.8 8.533-17.067zM456.533 392.533c17.067-17.067 17.067-42.667 0-59.733l-226.133-226.133h153.6c21.333 0 42.667-21.333 42.667-42.667s-21.333-42.667-42.667-42.667h-256c-4.267 0-8.533 0-8.533 0s-4.267 0-4.267 0-8.533 4.267-12.8 8.533c-4.267 4.267-8.533 8.533-8.533 12.8 0 0 0 4.267 0 4.267 0 4.267 0 8.533 0 8.533v256c0 21.333 21.333 42.667 42.667 42.667s42.667-21.333 42.667-42.667v-153.6l226.133 226.133c8.533 25.6 34.133 25.6 51.2 8.533z" />
<glyph unicode="&#xe973;" glyph-name="maximize" data-tags="maximize" d="M810.667 21.333h-128c-25.6 0-42.667 17.067-42.667 42.667s17.067 42.667 42.667 42.667h128c25.6 0 42.667 17.067 42.667 42.667v128c0 25.6 17.067 42.667 42.667 42.667s42.667-17.067 42.667-42.667v-128c0-72.533-55.467-128-128-128zM341.333 21.333h-128c-72.533 0-128 55.467-128 128v128c0 25.6 17.067 42.667 42.667 42.667s42.667-17.067 42.667-42.667v-128c0-25.6 17.067-42.667 42.667-42.667h128c25.6 0 42.667-17.067 42.667-42.667s-17.067-42.667-42.667-42.667zM896 576c-25.6 0-42.667 17.067-42.667 42.667v128c0 25.6-17.067 42.667-42.667 42.667h-128c-25.6 0-42.667 17.067-42.667 42.667s17.067 42.667 42.667 42.667h128c72.533 0 128-55.467 128-128v-128c0-25.6-17.067-42.667-42.667-42.667zM128 576c-25.6 0-42.667 17.067-42.667 42.667v128c0 72.533 55.467 128 128 128h128c25.6 0 42.667-17.067 42.667-42.667s-17.067-42.667-42.667-42.667h-128c-25.6 0-42.667-17.067-42.667-42.667v-128c0-25.6-17.067-42.667-42.667-42.667z" />
<glyph unicode="&#xe974;" glyph-name="menu" data-tags="menu" d="M938.667 448c0-21.333-21.333-42.667-42.667-42.667h-768c-21.333 0-42.667 21.333-42.667 42.667s21.333 42.667 42.667 42.667h768c21.333 0 42.667-21.333 42.667-42.667zM85.333 704c0 21.333 21.333 42.667 42.667 42.667h768c21.333 0 42.667-21.333 42.667-42.667s-21.333-42.667-42.667-42.667h-768c-21.333 0-42.667 21.333-42.667 42.667zM938.667 192c0-21.333-21.333-42.667-42.667-42.667h-768c-21.333 0-42.667 21.333-42.667 42.667s21.333 42.667 42.667 42.667h768c21.333 0 42.667-21.333 42.667-42.667z" />
<glyph unicode="&#xe975;" glyph-name="message-circle" data-tags="message-circle" d="M128 21.333c-12.8 0-21.333 4.267-29.867 12.8-12.8 12.8-17.067 29.867-8.533 42.667l76.8 226.133c-25.6 51.2-38.4 110.933-38.4 166.4 0 153.6 85.333 294.4 226.133 362.667 55.467 29.867 119.467 42.667 179.2 42.667 0 0 0 0 0 0h21.333c209.067-12.8 371.2-174.933 384-379.733v-25.6c0-64-12.8-123.733-42.667-183.467-68.267-136.533-209.067-221.867-362.667-221.867-55.467 0-115.2 12.8-166.4 34.133l-226.133-76.8c-4.267 0-8.533 0-12.8 0zM533.333 789.333c-51.2 0-98.133-12.8-140.8-34.133-110.933-55.467-179.2-162.133-179.2-285.867 0-51.2 12.8-98.133 34.133-140.8 4.267-8.533 4.267-21.333 4.267-34.133l-55.467-162.133 162.133 55.467c12.8 4.267 21.333 4.267 34.133-4.267 42.667-21.333 93.867-34.133 140.8-34.133 123.733 0 230.4 68.267 285.867 174.933 21.333 42.667 34.133 93.867 34.133 140.8 0 0 0 0 0 0v25.6c-8.533 162.133-136.533 290.133-302.933 298.667h-17.067c0 0 0 0 0 0z" />
<glyph unicode="&#xe976;" glyph-name="message-square" data-tags="message-square" d="M810.667 874.667h-597.333c-72.533 0-128-55.467-128-128v-682.667c0-17.067 8.533-34.133 25.6-38.4 4.267-4.267 12.8-4.267 17.067-4.267 12.8 0 21.333 4.267 29.867 12.8l157.867 157.867h494.933c72.533 0 128 55.467 128 128v426.667c0 72.533-55.467 128-128 128zM853.333 320c0-21.333-21.333-42.667-42.667-42.667h-512c-12.8 0-21.333-4.267-29.867-12.8l-98.133-98.133v580.267c0 21.333 21.333 42.667 42.667 42.667h597.333c21.333 0 42.667-21.333 42.667-42.667v-426.667z" />
<glyph unicode="&#xe977;" glyph-name="mic" data-tags="mic" d="M853.333 533.333v-85.333c0-174.933-132.267-315.733-298.667-337.067v-89.6h128c21.333 0 42.667-21.333 42.667-42.667s-21.333-42.667-42.667-42.667h-341.333c-21.333 0-42.667 21.333-42.667 42.667s21.333 42.667 42.667 42.667h128v89.6c-166.4 21.333-298.667 166.4-298.667 337.067v85.333c0 21.333 21.333 42.667 42.667 42.667s42.667-21.333 42.667-42.667v-85.333c0-140.8 115.2-256 256-256s256 115.2 256 256v85.333c0 21.333 21.333 42.667 42.667 42.667s42.667-21.333 42.667-42.667zM512 277.333c93.867 0 170.667 76.8 170.667 170.667v341.333c0 93.867-76.8 170.667-170.667 170.667s-170.667-76.8-170.667-170.667v-341.333c0-93.867 76.8-170.667 170.667-170.667zM426.667 789.333c0 46.933 38.4 85.333 85.333 85.333s85.333-38.4 85.333-85.333v-341.333c0-46.933-38.4-85.333-85.333-85.333s-85.333 38.4-85.333 85.333v341.333z" />
</font>
</defs>
</svg>
