<svg width="80" height="80" viewBox="0 0 80 80" fill="none" xmlns="http://www.w3.org/2000/svg">
<g clip-path="url(#clip0_906_695)">
<mask id="mask0_906_695" style="mask-type:luminance" maskUnits="userSpaceOnUse" x="0" y="0" width="80" height="80">
<path d="M80 0H0V80H80V0Z" fill="white"/>
</mask>
<g mask="url(#mask0_906_695)">
<path d="M80 0H0V80H80V0Z" fill="#68BBAA"/>
<mask id="mask1_906_695" style="mask-type:luminance" maskUnits="userSpaceOnUse" x="0" y="0" width="80" height="80">
<path d="M80 0H0V80H80V0Z" fill="white"/>
</mask>
<g mask="url(#mask1_906_695)">
<path d="M27.3587 29.6692C27.2506 27.4141 25.7919 25.6517 24.1006 25.7327C22.4092 25.8138 21.1258 27.7076 21.2339 29.9627C21.342 32.2178 22.8006 33.9802 24.492 33.8991C26.1833 33.818 27.4667 31.9242 27.3587 29.6692Z" fill="#39393C"/>
<path d="M58.512 27.0341C58.4039 24.779 56.9452 23.0165 55.2539 23.0977C53.5626 23.1787 52.2791 25.0725 52.3872 27.3276C52.4953 29.5826 53.954 31.3451 55.6453 31.264C57.3366 31.1829 58.6201 29.2891 58.512 27.0341Z" fill="#39393C"/>
<path d="M57.0365 28.2467C56.9777 27.0208 56.1848 26.0628 55.2654 26.1069C54.3459 26.1509 53.6482 27.1804 53.7069 28.4063C53.7658 29.6322 54.5587 30.5903 55.4781 30.5462C56.3976 30.5021 57.0953 29.4726 57.0365 28.2467Z" fill="#39393C"/>
</g>
<path d="M32.309 35.2428C37.789 32.8216 48.2239 33.9389 48.2239 33.9389C46.7263 39.7315 37.0875 44.2671 32.309 35.2428Z" fill="#39393C" stroke="#39393C" stroke-width="3" stroke-linejoin="round"/>
<path d="M68.8524 43.2787C72.474 43.2787 75.4098 40.3429 75.4098 36.7213C75.4098 33.0998 72.474 30.1639 68.8524 30.1639C65.2309 30.1639 62.295 33.0998 62.295 36.7213C62.295 40.3429 65.2309 43.2787 68.8524 43.2787Z" fill="#F6747F"/>
<path d="M13.7705 46.5574C17.3921 46.5574 20.3279 43.6215 20.3279 40C20.3279 36.3785 17.3921 33.4426 13.7705 33.4426C10.149 33.4426 7.21313 36.3785 7.21313 40C7.21313 43.6215 10.149 46.5574 13.7705 46.5574Z" fill="#F6747F"/>
</g>
</g>
<defs>
<clipPath id="clip0_906_695">
<rect width="80" height="80" fill="white"/>
</clipPath>
</defs>
</svg>
