<svg width="80" height="80" viewBox="0 0 80 80" fill="none" xmlns="http://www.w3.org/2000/svg">
<g clip-path="url(#clip0_906_733)">
<mask id="mask0_906_733" style="mask-type:luminance" maskUnits="userSpaceOnUse" x="0" y="0" width="80" height="80">
<path d="M80 0H0V80H80V0Z" fill="white"/>
</mask>
<g mask="url(#mask0_906_733)">
<path d="M80 0H0V80H80V0Z" fill="#4F200D"/>
<path d="M52.1311 76.7213C82.7332 76.7213 107.541 51.9135 107.541 21.3114C107.541 -9.29056 82.7332 -34.0984 52.1311 -34.0984C21.5291 -34.0984 -3.27869 -9.29056 -3.27869 21.3114C-3.27869 51.9135 21.5291 76.7213 52.1311 76.7213Z" fill="#4F200D"/>
<path d="M49.1803 98.3606C74.5311 98.3606 95.082 77.8098 95.082 52.459C95.082 27.1082 74.5311 6.55737 49.1803 6.55737C23.8296 6.55737 3.27869 27.1082 3.27869 52.459C3.27869 77.8098 23.8296 98.3606 49.1803 98.3606Z" fill="black" fill-opacity="0.2"/>
<path d="M49.8361 95.7377C75.1869 95.7377 95.7377 75.1869 95.7377 49.8361C95.7377 24.4853 75.1869 3.93445 49.8361 3.93445C24.4853 3.93445 3.93445 24.4853 3.93445 49.8361C3.93445 75.1869 24.4853 95.7377 49.8361 95.7377Z" fill="#8BE8E5"/>
<mask id="mask1_906_733" style="mask-type:luminance" maskUnits="userSpaceOnUse" x="0" y="0" width="80" height="80">
<path d="M80 0H0V80H80V0Z" fill="white"/>
</mask>
<g mask="url(#mask1_906_733)">
<path d="M25.9935 30.3134C26.1232 28.0595 24.858 26.1534 23.1676 26.0561C21.4771 25.9588 20.0016 27.7071 19.8718 29.961C19.7421 32.215 21.0073 34.121 22.6978 34.2183C24.3882 34.3157 25.8637 32.5673 25.9935 30.3134Z" fill="#39393C"/>
<path d="M25.8738 32.3392C25.9375 31.2333 25.3167 30.2981 24.4873 30.2503C23.6579 30.2026 22.9339 31.0604 22.8702 32.1662C22.8066 33.2721 23.4273 34.2074 24.2568 34.2551C25.0862 34.3028 25.8101 33.4451 25.8738 32.3392Z" fill="#4F200D"/>
<path d="M56.8894 32.3921C56.9531 31.2862 56.3323 30.351 55.5029 30.3033C54.6734 30.2556 53.9495 31.1134 53.8858 32.2192C53.8222 33.3251 54.443 34.2603 55.2724 34.3081C56.1018 34.3558 56.8258 33.498 56.8894 32.3921Z" fill="#39393C"/>
<path d="M57.2512 30.97C57.3809 28.7161 56.1157 26.81 54.4253 26.7127C52.7348 26.6154 51.2593 28.3638 51.1295 30.6177C50.9998 32.8716 52.265 34.7777 53.9555 34.875C55.6459 34.9723 57.1214 33.2239 57.2512 30.97Z" fill="#39393C"/>
<path d="M57.1145 33.3436C57.1688 32.4004 56.589 31.6 55.8196 31.5556C55.0501 31.5114 54.3823 32.24 54.328 33.1831C54.2737 34.1262 54.8535 34.9267 55.623 34.971C56.3924 35.0153 57.0603 34.2866 57.1145 33.3436Z" fill="#4F200D"/>
</g>
<path d="M30.9974 46.3903C35.776 55.4146 45.4148 50.879 46.9124 45.0864" stroke="#39393C" stroke-width="3" stroke-linejoin="round"/>
</g>
</g>
<defs>
<clipPath id="clip0_906_733">
<rect width="80" height="80" fill="white"/>
</clipPath>
</defs>
</svg>
