<svg width="400" height="400" viewBox="0 0 400 400" fill="none" xmlns="http://www.w3.org/2000/svg">
<g clip-path="url(#clip0_906_752)">
<mask id="mask0_906_752" style="mask-type:luminance" maskUnits="userSpaceOnUse" x="0" y="0" width="400" height="400">
<path d="M400 0H0V400H400V0Z" fill="white"/>
</mask>
<g mask="url(#mask0_906_752)">
<path d="M400 0H0V400H400V0Z" fill="#4F200D"/>
<path d="M260.656 383.607C413.666 383.607 537.705 259.567 537.705 106.557C537.705 -46.4527 413.666 -170.492 260.656 -170.492C107.646 -170.492 -16.3934 -46.4527 -16.3934 106.557C-16.3934 259.567 107.646 383.607 260.656 383.607Z" fill="#4F200D"/>
<path d="M245.902 491.803C372.655 491.803 475.41 389.049 475.41 262.295C475.41 135.541 372.655 32.7869 245.902 32.7869C119.148 32.7869 16.3934 135.541 16.3934 262.295C16.3934 389.049 119.148 491.803 245.902 491.803Z" fill="black" fill-opacity="0.2"/>
<path d="M249.18 478.689C375.934 478.689 478.689 375.934 478.689 249.18C478.689 122.426 375.934 19.6721 249.18 19.6721C122.426 19.6721 19.6721 122.426 19.6721 249.18C19.6721 375.934 122.426 478.689 249.18 478.689Z" fill="#8BE8E5"/>
<mask id="mask1_906_752" style="mask-type:luminance" maskUnits="userSpaceOnUse" x="0" y="0" width="400" height="400">
<path d="M400 0H0V400H400V0Z" fill="white"/>
</mask>
<g mask="url(#mask1_906_752)">
<path d="M129.967 151.567C130.616 140.297 124.29 130.767 115.838 130.281C107.386 129.794 100.008 138.535 99.359 149.805C98.7104 161.075 105.036 170.605 113.489 171.092C121.941 171.578 129.319 162.837 129.967 151.567Z" fill="#39393C"/>
<path d="M129.369 161.696C129.688 156.167 126.584 151.49 122.437 151.252C118.29 151.013 114.67 155.302 114.351 160.831C114.033 166.361 117.137 171.037 121.284 171.276C125.431 171.514 129.051 167.226 129.369 161.696Z" fill="#4F200D"/>
<path d="M284.447 161.961C284.765 156.431 281.661 151.755 277.514 151.516C273.367 151.278 269.747 155.567 269.429 161.096C269.11 166.626 272.214 171.302 276.362 171.54C280.508 171.779 284.128 167.49 284.447 161.961Z" fill="#39393C"/>
<path d="M286.256 154.85C286.904 143.581 280.578 134.05 272.126 133.564C263.674 133.077 256.296 141.819 255.647 153.089C254.999 164.358 261.325 173.889 269.777 174.375C278.229 174.862 285.607 166.12 286.256 154.85Z" fill="#39393C"/>
<path d="M285.572 166.718C285.844 162.002 282.945 158 279.098 157.778C275.25 157.557 271.911 161.2 271.64 165.915C271.368 170.631 274.267 174.633 278.115 174.855C281.962 175.076 285.301 171.433 285.572 166.718Z" fill="#4F200D"/>
</g>
<path d="M154.987 231.952C178.88 277.073 227.074 254.395 234.562 225.432" stroke="#39393C" stroke-width="3" stroke-linejoin="round"/>
</g>
</g>
<defs>
<clipPath id="clip0_906_752">
<rect width="400" height="400" fill="white"/>
</clipPath>
</defs>
</svg>
