<svg width="400" height="400" viewBox="0 0 400 400" fill="none" xmlns="http://www.w3.org/2000/svg">
<g clip-path="url(#clip0_906_679)">
<mask id="mask0_906_679" style="mask-type:luminance" maskUnits="userSpaceOnUse" x="0" y="0" width="400" height="400">
<path d="M400 0H0V400H400V0Z" fill="white"/>
</mask>
<g mask="url(#mask0_906_679)">
<path d="M400 0H0V400H400V0Z" fill="#68BBAA"/>
<mask id="mask1_906_679" style="mask-type:luminance" maskUnits="userSpaceOnUse" x="0" y="0" width="400" height="400">
<path d="M400 0H0V400H400V0Z" fill="white"/>
</mask>
<g mask="url(#mask1_906_679)">
<path d="M136.793 148.346C136.253 137.07 128.959 128.258 120.503 128.664C112.046 129.069 105.629 138.538 106.169 149.813C106.71 161.089 114.003 169.901 122.46 169.495C130.916 169.09 137.334 159.621 136.793 148.346Z" fill="#39393C"/>
<path d="M292.56 135.17C292.019 123.895 284.726 115.083 276.269 115.488C267.813 115.893 261.396 125.362 261.936 136.638C262.476 147.913 269.77 156.725 278.227 156.32C286.683 155.914 293.1 146.446 292.56 135.17Z" fill="#39393C"/>
<path d="M285.183 141.233C284.888 135.104 280.924 130.314 276.327 130.534C271.729 130.754 268.241 135.902 268.535 142.031C268.829 148.161 272.793 152.951 277.39 152.731C281.988 152.51 285.476 147.363 285.183 141.233Z" fill="#39393C"/>
</g>
<path d="M161.545 176.214C188.945 164.108 241.119 169.695 241.119 169.695C233.631 198.658 185.437 221.336 161.545 176.214Z" fill="#39393C" stroke="#39393C" stroke-width="3" stroke-linejoin="round"/>
<path d="M344.262 216.393C362.37 216.393 377.049 201.714 377.049 183.607C377.049 165.499 362.37 150.82 344.262 150.82C326.155 150.82 311.475 165.499 311.475 183.607C311.475 201.714 326.155 216.393 344.262 216.393Z" fill="#F6747F"/>
<path d="M68.8524 232.787C86.9601 232.787 101.639 218.108 101.639 200C101.639 181.892 86.9601 167.213 68.8524 167.213C50.7447 167.213 36.0656 181.892 36.0656 200C36.0656 218.108 50.7447 232.787 68.8524 232.787Z" fill="#F6747F"/>
</g>
</g>
<defs>
<clipPath id="clip0_906_679">
<rect width="400" height="400" fill="white"/>
</clipPath>
</defs>
</svg>
