<svg width="122" height="122" viewBox="0 0 122 122" fill="none" xmlns="http://www.w3.org/2000/svg">
<g clip-path="url(#clip0_813_587)">
<rect width="122" height="122" fill="#F46470"/>
<mask id="mask0_813_587" style="mask-type:luminance" maskUnits="userSpaceOnUse" x="0" y="0" width="122" height="122">
<path d="M122 0H0V122H122V0Z" fill="white"/>
</mask>
<g mask="url(#mask0_813_587)">
<path d="M41.722 45.2455C41.5572 41.8065 39.3326 39.1188 36.7534 39.2424C34.1741 39.3661 32.2169 42.2541 32.3817 45.6931C32.5465 49.1321 34.771 51.8198 37.3503 51.6961C39.9295 51.5725 41.8868 48.6844 41.722 45.2455Z" fill="black"/>
<path d="M89.2308 41.2269C89.0659 37.7879 86.8414 35.1002 84.2622 35.2239C81.6829 35.3475 79.7257 38.2355 79.8905 41.6745C80.0553 45.1135 82.2798 47.8012 84.8591 47.6776C87.4383 47.5539 89.3956 44.6659 89.2308 41.2269Z" fill="black"/>
<path d="M86.9807 43.0762C86.891 41.2068 85.6818 39.7457 84.2797 39.8129C82.8775 39.8801 81.8135 41.4501 81.9031 43.3196C81.9928 45.1891 83.202 46.6501 84.6041 46.5829C86.0063 46.5157 87.0703 44.9457 86.9807 43.0762Z" fill="black"/>
</g>
<path d="M49.2711 53.7453C57.6281 50.0529 73.5414 51.7569 73.5414 51.7569C71.2576 60.5906 56.5584 67.5074 49.2711 53.7453Z" fill="black" stroke="black" stroke-width="3" stroke-linejoin="round"/>
<circle cx="105" cy="56" r="10" fill="#FEF0F1"/>
<circle cx="21" cy="61" r="10" fill="#FEF0F1"/>
</g>
<defs>
<clipPath id="clip0_813_587">
<rect width="122" height="122" fill="white"/>
</clipPath>
</defs>
</svg>
