<svg width="128" height="128" viewBox="0 0 128 128" fill="none" xmlns="http://www.w3.org/2000/svg">
<g clip-path="url(#clip0_817_4680)">
<rect x="-0.153595" width="128" height="128" fill="#6FB357"/>
<rect x="-8.03433" y="174.884" width="131.416" height="19.9185" transform="rotate(-45 -8.03433 174.884)" fill="#303032"/>
<rect x="-10.1096" y="172.809" width="140.463" height="16.7366" transform="rotate(-45 -10.1096 172.809)" fill="#303032"/>
<rect x="-18.1035" y="164.815" width="106.565" height="28.0416" transform="rotate(-45 -18.1035 164.815)" fill="#303032"/>
<rect x="-59" y="123.918" width="131.416" height="58.3109" transform="rotate(-45 -59 123.918)" fill="#303032"/>
<rect x="-35.9508" y="146.968" width="170.937" height="30.6207" transform="rotate(-45 -35.9508 146.968)" fill="#303032"/>
<rect x="-56.1536" y="145.87" width="170.937" height="30.6207" transform="rotate(-45 -56.1536 145.87)" fill="#303032"/>
<path d="M66.2098 110C59.9129 110 54.0015 108.96 48.4757 106.751C42.9498 104.542 38.195 101.424 34.0827 97.3955C29.9705 93.3672 26.7578 88.5593 24.4446 82.9717C22.003 77.2542 20.8464 71.0169 20.8464 64.1299C20.8464 57.2429 22.003 50.8757 24.4446 45.2881C26.8863 39.5706 30.099 34.7627 34.2113 30.7345C38.3235 26.7062 43.0783 23.5876 48.6042 21.3785C54.13 19.1695 59.9129 18 65.9528 18C72.5067 18 78.161 18.9096 82.9158 20.8588C87.6706 22.8079 91.6544 25.1469 94.9956 28.1356C98.3368 31.1243 100.907 34.3729 102.706 37.7514C104.505 41.2599 105.79 44.5085 106.561 47.7571L88.1847 53.6045C87.7992 52.0452 87.1566 50.3559 86.257 48.5367C85.3575 46.5876 83.9439 44.7684 82.2733 43.0791C80.6027 41.3898 78.2895 39.9605 75.7194 38.791C73.0207 37.6215 69.808 37.1017 65.9528 37.1017C62.9971 37.1017 60.0414 37.6215 57.0857 38.661C54.13 39.7006 51.4313 41.3898 49.1182 43.5989C46.6765 45.8079 44.7489 48.6667 43.3353 52.0452C41.7932 55.4237 41.1507 59.452 41.1507 64.1299C41.1507 68.2881 41.7932 71.9266 43.2068 75.1751C44.6204 78.4237 46.4195 81.1525 48.8612 83.3616C51.1743 85.5706 53.873 87.2599 56.8287 88.4294C59.7844 89.5989 62.9971 90.1186 66.2098 90.1186C69.9365 90.1186 73.2777 89.5989 75.9764 88.4294C78.6751 87.2599 80.9882 85.8305 82.7873 84.1412C84.5864 82.452 86 80.6328 87.0281 78.6836C88.0562 76.7345 88.8272 75.0452 89.2127 73.4859L107.846 78.8136C107.075 81.9322 105.79 85.1808 103.991 88.8192C102.192 92.4576 99.4934 95.7062 96.2807 98.8249C92.9395 101.944 88.8272 104.542 83.9439 106.621C78.8036 108.96 73.0207 110 66.2098 110Z" fill="#F8A94A"/>
</g>
<defs>
<clipPath id="clip0_817_4680">
<rect width="128" height="128" fill="white"/>
</clipPath>
</defs>
</svg>
