<svg width="128" height="128" viewBox="0 0 128 128" fill="none" xmlns="http://www.w3.org/2000/svg">
<g clip-path="url(#clip0_819_4737)">
<rect width="128" height="128" fill="#5C1EE8"/>
<path d="M91.6147 37.2688C86.3714 34.8156 80.7651 33.0328 74.9038 32.0176C74.1839 33.319 73.343 35.0695 72.7631 36.462C66.5324 35.5249 60.359 35.5249 54.2429 36.462C53.6632 35.0695 52.8031 33.319 52.0768 32.0176C46.2092 33.0328 40.5964 34.8222 35.3532 37.2818C24.7774 53.2632 21.9105 68.8475 23.344 84.2106C30.3584 89.4488 37.1561 92.6308 43.8392 94.713C45.4893 92.442 46.9609 90.0279 48.2287 87.4837C45.8142 86.5662 43.5015 85.434 41.3164 84.1195C41.8961 83.6901 42.4631 83.241 43.011 82.779C56.3389 89.0128 70.82 89.0128 83.9887 82.779C84.543 83.241 85.11 83.6901 85.6833 84.1195C83.4917 85.4404 81.1728 86.5726 78.7582 87.4902C80.026 90.0279 81.4913 92.4486 83.1478 94.7195C89.8373 92.6372 96.6413 89.4553 103.656 84.2106C105.338 66.4009 100.782 50.9596 91.6147 37.2688ZM50.0445 74.7624C46.0436 74.7624 42.7625 71.0274 42.7625 66.4789C42.7625 61.9305 45.9735 58.189 50.0445 58.189C54.1156 58.189 57.3965 61.924 57.3264 66.4789C57.3328 71.0274 54.1156 74.7624 50.0445 74.7624ZM76.9553 74.7624C72.9543 74.7624 69.6733 71.0274 69.6733 66.4789C69.6733 61.9305 72.8842 58.189 76.9553 58.189C81.0262 58.189 84.3073 61.924 84.2372 66.4789C84.2372 71.0274 81.0262 74.7624 76.9553 74.7624Z" fill="#F2F2F6"/>
</g>
<defs>
<clipPath id="clip0_819_4737">
<rect width="128" height="128" fill="white"/>
</clipPath>
</defs>
</svg>
