<svg width="128" height="128" viewBox="0 0 128 128" fill="none" xmlns="http://www.w3.org/2000/svg">
<rect width="128" height="128" fill="#0532CF"/>
<path d="M63.5528 15L74.7785 49.5491H111.106L81.7164 70.9017L92.9421 105.451L63.5528 84.0983L34.1636 105.451L45.3893 70.9017L16 49.5491H52.3271L63.5528 15Z" fill="#F9B25D"/>
<path d="M63.5528 15L65.9305 14.2275L63.5528 6.90983L61.1752 14.2275L63.5528 15ZM74.7785 49.5491L72.4009 50.3217C72.7356 51.3517 73.6955 52.0491 74.7785 52.0491V49.5491ZM111.106 49.5491L112.575 51.5717L118.8 47.0491H111.106V49.5491ZM81.7164 70.9017L80.2469 68.8792C79.3707 69.5158 79.0041 70.6442 79.3388 71.6742L81.7164 70.9017ZM92.9421 105.451L91.4726 107.473L97.6974 111.996L95.3197 104.678L92.9421 105.451ZM63.5528 84.0983L65.0223 82.0758C64.1461 81.4391 62.9596 81.4391 62.0834 82.0758L63.5528 84.0983ZM34.1636 105.451L31.7859 104.678L29.4083 111.996L35.633 107.473L34.1636 105.451ZM45.3893 70.9017L47.7669 71.6742C48.1016 70.6442 47.7349 69.5158 46.8587 68.8792L45.3893 70.9017ZM16 49.5491V47.0491H8.30579L14.5305 51.5717L16 49.5491ZM52.3271 49.5491V52.0491C53.4102 52.0491 54.3701 51.3517 54.7048 50.3217L52.3271 49.5491ZM61.1752 15.7725L72.4009 50.3217L77.1562 48.7766L65.9305 14.2275L61.1752 15.7725ZM74.7785 52.0491H111.106V47.0491H74.7785V52.0491ZM109.636 47.5266L80.2469 68.8792L83.1859 72.9242L112.575 51.5717L109.636 47.5266ZM79.3388 71.6742L90.5645 106.223L95.3197 104.678L84.094 70.1292L79.3388 71.6742ZM94.4116 103.428L65.0223 82.0758L62.0834 86.1208L91.4726 107.473L94.4116 103.428ZM62.0834 82.0758L32.6941 103.428L35.633 107.473L65.0223 86.1208L62.0834 82.0758ZM36.5412 106.223L47.7669 71.6742L43.0116 70.1292L31.7859 104.678L36.5412 106.223ZM46.8587 68.8792L17.4695 47.5266L14.5305 51.5717L43.9198 72.9242L46.8587 68.8792ZM16 52.0491H52.3271V47.0491H16V52.0491ZM54.7048 50.3217L65.9305 15.7725L61.1752 14.2275L49.9495 48.7766L54.7048 50.3217Z" fill="#0532CF"/>
<mask id="path-4-inside-1_817_4708" fill="white">
<path d="M63.5528 15L74.7785 49.5491H111.106L81.7164 70.9017L92.9421 105.451L63.5528 84.0983L34.1636 105.451L45.3893 70.9017L16 49.5491H52.3271L63.5528 15Z"/>
</mask>
<path d="M63.5528 15L74.7785 49.5491H111.106L81.7164 70.9017L92.9421 105.451L63.5528 84.0983L34.1636 105.451L45.3893 70.9017L16 49.5491H52.3271L63.5528 15Z" fill="#F9B25D"/>
<path d="M63.5528 15L68.3081 13.4549L63.5528 -1.18034L58.7975 13.4549L63.5528 15ZM74.7785 49.5491L70.0232 51.0942C70.6926 53.1543 72.6124 54.5491 74.7785 54.5491V49.5491ZM111.106 49.5491L114.045 53.5942L126.494 44.5491H111.106V49.5491ZM81.7164 70.9017L78.7775 66.8566C77.025 68.1298 76.2917 70.3867 76.9611 72.4468L81.7164 70.9017ZM92.9421 105.451L90.0032 109.496L102.453 118.541L97.6974 103.906L92.9421 105.451ZM63.5528 84.0983L66.4918 80.0532C64.7393 78.78 62.3663 78.78 60.6139 80.0532L63.5528 84.0983ZM34.1636 105.451L29.4083 103.906L24.653 118.541L37.1025 109.496L34.1636 105.451ZM45.3893 70.9017L50.1445 72.4468C50.8139 70.3867 50.0806 68.1298 48.3282 66.8566L45.3893 70.9017ZM16 49.5491V44.5491H0.611584L13.0611 53.5942L16 49.5491ZM52.3271 49.5491V54.5491C54.4933 54.5491 56.413 53.1543 57.0824 51.0942L52.3271 49.5491ZM58.7975 16.5451L70.0232 51.0942L79.5338 48.0041L68.3081 13.4549L58.7975 16.5451ZM74.7785 54.5491H111.106V44.5491H74.7785V54.5491ZM108.167 45.5041L78.7775 66.8566L84.6553 74.9468L114.045 53.5942L108.167 45.5041ZM76.9611 72.4468L88.1868 106.996L97.6974 103.906L86.4717 69.3566L76.9611 72.4468ZM95.881 101.406L66.4918 80.0532L60.6139 88.1434L90.0032 109.496L95.881 101.406ZM60.6139 80.0532L31.2246 101.406L37.1025 109.496L66.4918 88.1434L60.6139 80.0532ZM38.9188 106.996L50.1445 72.4468L40.634 69.3566L29.4083 103.906L38.9188 106.996ZM48.3282 66.8566L18.9389 45.5041L13.0611 53.5942L42.4503 74.9468L48.3282 66.8566ZM16 54.5491H52.3271V44.5491H16V54.5491ZM57.0824 51.0942L68.3081 16.5451L58.7975 13.4549L47.5718 48.0041L57.0824 51.0942Z" fill="#0532CF" mask="url(#path-4-inside-1_817_4708)"/>
</svg>
