<svg width="2272" height="2463" viewBox="0 0 2272 2463" fill="none" xmlns="http://www.w3.org/2000/svg">
<rect width="2272" height="2463" fill="#00BBF9"/>
<path fill-rule="evenodd" clip-rule="evenodd" d="M1112.11 357.229C883.203 380.036 875.142 722.765 1102.61 761.118C1112.92 762.855 1116.19 763.768 1116.42 764.977C1116.59 765.848 1115.77 783.13 1114.58 803.382C1113.4 823.634 1111.91 863.455 1111.27 891.872C1110.64 920.289 1109.89 943.705 1109.61 943.908C1109.34 944.11 1105.62 946.011 1101.35 948.132C1093.36 952.107 1082.84 960.834 1078.61 967.006C1076.24 970.467 1076.24 970.467 1061.68 970.949C1038.69 971.709 1024.67 977.392 1011.95 991.116C1008.42 994.922 1005.19 997.619 1004.76 997.116C1004.33 996.615 991.065 976.854 975.277 953.204C959.49 929.554 941.564 902.922 935.443 894.023L924.312 877.841L930.844 870.523C1052.65 734.037 882.33 528.473 737.501 637.168C593.342 745.361 722.547 972.309 888.298 902.043C888.98 901.754 901.293 917.325 917.422 938.873C932.79 959.405 951.986 984.719 960.08 995.127C968.174 1005.54 975.479 1015.09 976.314 1016.37C978.029 1018.98 978.582 1018.6 969.31 1021.18C943.603 1028.32 919.366 1049.9 914.562 1069.92C913.932 1072.55 912.898 1074.72 912.265 1074.74C868.823 1075.9 835.579 1108.53 835.11 1150.47C834.95 1164.73 834.95 1164.73 829.033 1168.28C775.189 1200.6 702.139 1309.03 696.923 1364.37C696.152 1372.55 696.456 1372.28 685.801 1374.12C661.758 1378.27 647.713 1387.05 632.903 1407.18C614.148 1432.68 612.418 1454.6 626.719 1485.55C631.563 1496.04 631.829 1494.18 623.844 1505.56C539.407 1625.85 556.997 1767.01 670.597 1880.74C744.895 1955.12 849.188 2000.47 966.115 2009.22C1010.76 2012.56 1015.87 2014.26 1027.37 2029.58C1102.98 2130.28 1168.25 2130.28 1243.86 2029.58C1255.36 2014.26 1260.47 2012.56 1305.11 2009.22C1479.89 1996.14 1626.11 1899.25 1680.92 1760.2C1715.86 1671.57 1704.77 1587.42 1647.36 1505.48C1639.4 1494.11 1639.67 1496.02 1644.51 1485.55C1658.81 1454.6 1657.08 1432.68 1638.33 1407.18C1623.52 1387.05 1609.47 1378.27 1585.43 1374.12C1574.77 1372.28 1575.08 1372.55 1574.31 1364.37C1572.6 1346.22 1553.39 1299.65 1535.06 1269.21C1512.54 1231.8 1468.79 1184.25 1442.2 1168.28C1436.28 1164.73 1436.28 1164.73 1436.12 1150.47C1435.65 1108.53 1402.41 1075.9 1358.96 1074.74C1358.33 1074.72 1357.3 1072.55 1356.67 1069.92C1351.86 1049.9 1327.63 1028.32 1301.92 1021.18C1292.65 1018.6 1293.2 1018.98 1294.92 1016.37C1295.75 1015.09 1303.06 1005.54 1311.15 995.127C1319.24 984.719 1338.44 959.405 1353.81 938.873C1369.94 917.325 1382.25 901.754 1382.93 902.043C1548.68 972.309 1677.89 745.361 1533.73 637.168C1388.9 528.473 1218.58 734.037 1340.39 870.523L1346.92 877.841L1335.79 894.023C1329.67 902.922 1311.74 929.554 1295.95 953.204C1280.16 976.854 1266.9 996.615 1266.47 997.116C1266.04 997.619 1262.81 994.922 1259.28 991.116C1246.56 977.392 1232.54 971.709 1209.55 970.949C1194.99 970.467 1194.99 970.467 1192.65 967.054C1186.53 958.114 1172.41 947.96 1160.99 944.279C1155.87 942.627 1155.87 942.627 1155.99 881.916C1156.06 848.524 1155.89 808.199 1155.61 792.303L1155.11 763.402L1168.61 761.122C1424.46 717.906 1370.4 331.496 1112.11 357.229ZM1105.83 407.252C1018.05 423.287 960.371 505.365 976.115 585.692C977.251 591.485 978.768 597.27 980.684 603.02C1026.55 740.676 1244.68 740.676 1290.55 603.02C1292.48 597.207 1294.01 591.389 1295.16 585.587C1315.26 483.848 1216.83 386.974 1105.83 407.252ZM811.115 659.244C746.294 671.366 707.932 737.883 723.916 794.285C726.989 805.128 732.071 815.598 739.36 825.235C790.928 893.419 883.784 886.541 922.042 811.704C925.391 805.153 927.95 798.481 929.778 791.767C949.109 720.768 886.655 645.119 811.115 659.244ZM1425.27 659.301C1360.61 670.984 1327.1 734.801 1341.54 791.67C1346.36 810.674 1356.54 828.903 1372.7 844.15C1419.2 888.011 1490.83 879.499 1531.87 825.235C1539.17 815.588 1544.23 805.265 1547.3 794.658C1567.23 725.871 1503.68 645.135 1425.27 659.301ZM1124.74 976.765C1093.09 982.411 1082.87 1012.03 1099.71 1049.31C1104.72 1060.41 1104.72 1060.41 1112.41 1060.49C1119.32 1060.56 1120.9 1060.97 1127.86 1064.53C1135.61 1068.49 1135.62 1068.49 1143.37 1064.53C1150.33 1060.97 1151.91 1060.56 1158.82 1060.49C1166.51 1060.41 1166.51 1060.41 1171.52 1049.31C1192.17 1003.53 1169.73 968.737 1124.74 976.765ZM1043.57 1006.07C1017.64 1013.06 1010.16 1044.87 1026.61 1078.2C1033.41 1092 1032.06 1090.92 1040.31 1089.2C1045.65 1088.09 1048.59 1087.97 1052.26 1088.73C1064.27 1091.2 1062.8 1091.6 1067.89 1084.46C1070.42 1080.92 1074.64 1076.21 1077.25 1074C1082.01 1069.99 1082.01 1069.99 1078.87 1065.1C1070.31 1051.75 1066.71 1038.94 1065.9 1018.95C1065.29 1003.91 1060.92 1001.39 1043.57 1006.07ZM1205.34 1018.83C1204.52 1038.95 1200.94 1051.72 1192.36 1065.1C1189.22 1069.99 1189.22 1069.99 1193.98 1074C1196.59 1076.21 1200.81 1080.92 1203.34 1084.46C1208.43 1091.6 1206.96 1091.2 1218.97 1088.73C1222.64 1087.97 1225.58 1088.09 1230.92 1089.2C1239.17 1090.92 1237.82 1092 1244.62 1078.2C1263.85 1039.25 1251.28 1006.33 1216.64 1004.9L1205.92 1004.46L1205.34 1018.83ZM972.615 1045.28C933.868 1055.42 920.097 1102.32 946.285 1134.95C952.527 1142.73 952.106 1142.6 958.35 1138.83C968.05 1132.96 978.984 1131.08 991.736 1133.07C996.356 1133.79 996.356 1133.79 997.527 1129.14C999.494 1121.33 1005.28 1111.13 1011.56 1104.42C1017.53 1098.04 1017.53 1098.04 1013.46 1092.62C1004.59 1080.81 996.693 1058.24 996.619 1044.45C996.612 1043.15 978.351 1043.77 972.615 1045.28ZM1274.61 1044.45C1274.54 1058.24 1266.64 1080.81 1257.77 1092.62C1253.7 1098.04 1253.7 1098.04 1259.67 1104.42C1265.95 1111.13 1271.74 1121.33 1273.7 1129.14C1274.87 1133.79 1274.87 1133.79 1279.49 1133.07C1292.25 1131.08 1303.18 1132.96 1312.88 1138.83C1319.12 1142.6 1318.7 1142.73 1324.94 1134.95C1346.77 1107.76 1340.26 1064.42 1312.3 1050.73C1300.3 1044.86 1274.63 1040.58 1274.61 1044.45ZM1096.84 1092.18C1069.63 1104.85 1067.16 1135.74 1090.54 1171.06C1097.73 1181.92 1097.72 1181.92 1100.53 1177.5C1115.42 1154.01 1155.8 1154.01 1170.7 1177.5C1174.76 1183.89 1191.07 1159.54 1195.21 1140.91C1202.61 1107.65 1170.17 1073.83 1151.84 1095.68C1147.93 1100.33 1143.14 1108.86 1141.25 1114.53C1137.59 1125.52 1133.64 1125.52 1129.98 1114.53C1127.05 1105.75 1120.87 1096.28 1115.23 1091.93C1111.22 1088.84 1103.81 1088.94 1096.84 1092.18ZM903.615 1098.93C854.168 1105.42 845.134 1176.5 889.892 1206.89C899.421 1213.36 926.615 1224.77 926.615 1222.3C926.615 1222.15 925.715 1218.51 924.615 1214.2C919.925 1195.87 924.823 1172.78 936.472 1158.33C939.596 1154.45 939.596 1154.45 931.753 1146.17C920.132 1133.89 913.84 1120.69 912.107 1104.95C911.289 1097.53 911.753 1097.86 903.615 1098.93ZM1360.08 1099.11C1359.88 1099.71 1359.25 1103.46 1358.66 1107.45C1356.34 1123.23 1350.77 1134.38 1339.06 1146.64C1331.61 1154.43 1331.61 1154.43 1334.75 1158.32C1346.41 1172.78 1351.31 1195.86 1346.61 1214.2C1345.51 1218.51 1344.61 1222.15 1344.61 1222.3C1344.61 1224.77 1371.81 1213.36 1381.34 1206.89C1420.99 1179.96 1420.3 1121.34 1380.11 1102.6C1373.49 1099.51 1360.67 1097.28 1360.08 1099.11ZM1040.22 1111.82C1008.76 1116.35 1002.35 1167.98 1028.93 1202.66C1031.23 1205.66 1033.42 1208.56 1033.79 1209.1C1034.19 1209.68 1036.02 1209.01 1038.29 1207.44C1051.1 1198.6 1066.6 1196.68 1090.02 1201.04C1090.8 1201.18 1095.04 1190.61 1094.36 1190.22C1068.9 1175.51 1054.37 1149.39 1055.83 1120.97C1056.25 1112.73 1056.25 1112.73 1052.68 1112.13C1050.72 1111.8 1048.44 1111.4 1047.61 1111.25C1046.79 1111.1 1043.46 1111.35 1040.22 1111.82ZM1223.11 1111.27C1222.56 1111.42 1220.51 1111.81 1218.55 1112.13C1214.98 1112.73 1214.98 1112.73 1215.4 1120.97C1216.86 1149.39 1202.33 1175.51 1176.87 1190.22C1176.19 1190.61 1180.43 1201.18 1181.21 1201.04C1204.63 1196.68 1220.13 1198.6 1232.94 1207.44C1235.21 1209.01 1237.04 1209.68 1237.44 1209.1C1237.81 1208.56 1240 1205.66 1242.3 1202.66C1261.83 1177.17 1264.21 1133.96 1246.92 1118.74C1241.56 1114.03 1228.3 1109.86 1223.11 1111.27ZM976.418 1153.1C937.871 1163.48 935.171 1216.75 971.463 1250.85C997.694 1275.5 972.075 1269.72 943.504 1244.55C935.758 1237.72 935.758 1237.72 929.855 1238.34C905.743 1240.86 868.601 1219.54 848.797 1191.81C844.227 1185.41 844.227 1185.41 841.32 1188.81C800.145 1236.94 776.709 1280.04 750.022 1356.7C743.417 1375.68 743.351 1374.2 750.865 1375.63C879.093 1399.97 963.704 1536.59 966.339 1723.56C966.914 1764.39 965.894 1761.94 980.097 1756.63C988.769 1753.38 990.526 1750.91 997.612 1732.04C1030.03 1645.66 1057.33 1611.41 1103.06 1599.72C1112.52 1597.3 1112.25 1597.48 1113.06 1593.17C1114.88 1583.43 1125.17 1557.93 1128.87 1553.95C1137.8 1544.36 1152.78 1564.4 1158.17 1593.17C1158.98 1597.48 1158.71 1597.3 1168.17 1599.72C1213.9 1611.41 1241.2 1645.66 1273.62 1732.04C1280.7 1750.91 1282.46 1753.38 1291.13 1756.63C1305.34 1761.94 1304.32 1764.39 1304.89 1723.56C1307.53 1536.58 1392.13 1399.97 1520.36 1375.63C1527.88 1374.2 1527.81 1375.68 1521.21 1356.7C1494.52 1280.04 1471.09 1236.94 1429.91 1188.81C1427 1185.41 1427 1185.41 1422.43 1191.81C1402.63 1219.54 1365.49 1240.86 1341.38 1238.34C1335.47 1237.72 1335.47 1237.72 1327.73 1244.55C1299.15 1269.72 1273.54 1275.5 1299.77 1250.85C1325.95 1226.25 1332.56 1200.84 1319.5 1175C1309.15 1154.53 1277.22 1142.26 1275.19 1157.98C1271.95 1183.12 1262.01 1202.46 1247.04 1212.76C1242.68 1215.76 1242.68 1215.76 1246.4 1222.48C1254.95 1237.95 1250.72 1258.06 1235.74 1273.21C1223.06 1286.02 1212.87 1286.86 1224.51 1274.13C1239.77 1257.43 1238.71 1237.08 1222.32 1232.21C1212.52 1229.3 1181.61 1230.53 1181.61 1233.84C1181.61 1241.35 1171.68 1264.45 1165.78 1270.65C1158.47 1278.34 1156.94 1275 1161.97 1262.36C1177.41 1223.63 1164.54 1186.71 1135.61 1186.71C1106.69 1186.71 1093.82 1223.63 1109.26 1262.36C1114.29 1275 1112.76 1278.34 1105.45 1270.65C1099.55 1264.45 1089.61 1241.35 1089.61 1233.84C1089.61 1230.53 1058.71 1229.3 1048.91 1232.21C1032.52 1237.08 1031.46 1257.43 1046.72 1274.13C1058.36 1286.86 1048.17 1286.02 1035.49 1273.21C1020.51 1258.06 1016.28 1237.95 1024.83 1222.48C1028.55 1215.76 1028.55 1215.76 1024.19 1212.76C1009.24 1202.47 999.28 1183.11 996.046 1158.04C995.515 1153.92 994.95 1152.76 993.248 1152.3C989.734 1151.36 981.425 1151.76 976.418 1153.1ZM700.763 1400.66C641.755 1410.03 650.63 1475.03 718.354 1529.49C739.852 1546.78 740.242 1547.02 774.615 1564.73C901.329 1630.02 934.615 1670.14 934.615 1757.61C934.615 1763.62 938.883 1765.46 944.865 1762.02C945.943 1761.4 945.772 1719.56 944.601 1697.2C939.1 1592.2 897.034 1494.05 836.732 1445.53C796.844 1413.43 739.507 1394.51 700.763 1400.66ZM1540.11 1400.33C1430.69 1411.98 1347.48 1516.69 1329.15 1665.82C1326.23 1689.56 1324.17 1760.75 1326.36 1762.02C1332.35 1765.46 1336.61 1763.62 1336.61 1757.61C1336.61 1670.13 1369.88 1630.03 1496.61 1564.73C1530.99 1547.02 1531.38 1546.78 1552.88 1529.49C1634.04 1464.23 1626.81 1391.1 1540.11 1400.33ZM657.899 1533.95C611.869 1584.13 598.304 1687.77 628.091 1761.7C669.9 1865.48 806.696 1961.96 927.115 1972.61C981.684 1977.43 994.072 1976.61 988.852 1968.48C980.293 1955.17 950.953 1901.18 933.811 1867.2C929.371 1858.4 922.481 1846.03 918.5 1839.7C900.616 1811.29 899.303 1790.64 914.358 1774.55C923.27 1765.02 917.672 1719.95 904.192 1692.69C897.527 1679.21 897.987 1679.35 891.644 1688.95C818.688 1799.38 669.84 1714.87 672.857 1564.74C673.318 1541.83 673.318 1541.83 667.003 1536.76C659.632 1530.86 660.495 1531.12 657.899 1533.95ZM1604.01 1536.83C1597.91 1541.83 1597.91 1541.83 1598.37 1564.74C1601.39 1714.87 1452.54 1799.37 1379.59 1688.95C1373.24 1679.35 1373.7 1679.21 1367.04 1692.69C1353.56 1719.95 1347.96 1765.02 1356.87 1774.55C1371.93 1790.64 1370.61 1811.29 1352.73 1839.7C1348.75 1846.03 1341.86 1858.4 1337.42 1867.2C1320.28 1901.18 1290.94 1955.17 1282.38 1968.48C1277.12 1976.66 1275.65 1976.27 1306.39 1974.83C1370.47 1971.84 1397.13 1965.92 1449.11 1943.14C1637.07 1860.8 1713.5 1685.87 1622.31 1546.75C1611.04 1529.55 1612.15 1530.16 1604.01 1536.83ZM698.17 1560.95C688.478 1593.12 707.664 1653.75 737.375 1684.85C746.6 1694.5 747.154 1694.56 743.468 1685.51C728.655 1649.11 734.086 1603.97 755.004 1589.64C758.873 1586.99 751.808 1582.54 724.615 1570.52C718.29 1567.72 710.089 1563.92 706.39 1562.07C698.406 1558.07 699.013 1558.16 698.17 1560.95ZM1566.11 1561.41C1563.36 1562.84 1554.81 1566.85 1547.11 1570.32C1517.4 1583.68 1512.23 1586.91 1516.21 1589.63C1537.14 1603.97 1542.58 1649.09 1527.76 1685.51C1524.08 1694.56 1524.63 1694.5 1533.85 1684.85C1563.57 1653.75 1582.75 1593.12 1573.06 1560.95C1572.23 1558.2 1572.27 1558.2 1566.11 1561.41ZM1123.78 1622.76C1085.51 1629.61 1049.7 1671.08 1021.93 1740.7C1008 1775.61 1000.76 1780.66 954.615 1787.68C924.249 1792.3 922.247 1799.7 943.116 1830.15C958.205 1852.17 976.635 1882.59 996.1 1917.59C1030.89 1980.16 1043.73 2000.91 1061.42 2023.2C1122.43 2100.09 1174.58 2087.48 1239.28 1980.2C1252.01 1959.08 1253.6 1956.3 1275.13 1917.59C1294.6 1882.59 1313.03 1852.17 1328.11 1830.15C1348.98 1799.7 1346.98 1792.3 1316.61 1787.68C1270.47 1780.66 1263.23 1775.61 1249.3 1740.7C1215.82 1656.77 1170.68 1614.36 1123.78 1622.76ZM1022.12 1788.28C1012.77 1793.15 1009.4 1802.5 1013.75 1811.49C1017.2 1818.61 1026.7 1822.16 1032.55 1818.51C1034.16 1817.51 1035.37 1817.88 1040.29 1820.89C1057.85 1831.63 1064.55 1829.55 1059.09 1815.04C1050.76 1792.9 1035.05 1781.54 1022.12 1788.28ZM1231.92 1788.73C1221.2 1794.18 1207.49 1817.47 1210.85 1824.53C1213.29 1829.63 1218.06 1828.77 1230.94 1820.89C1235.86 1817.88 1237.07 1817.51 1238.68 1818.51C1244.53 1822.16 1254.03 1818.61 1257.48 1811.49C1264.93 1796.1 1247.67 1780.72 1231.92 1788.73Z" fill="#340707"/>
<path d="M1223.11 1111.27C1222.56 1111.42 1220.51 1111.81 1218.55 1112.13C1214.98 1112.73 1214.98 1112.73 1215.4 1120.97C1216.86 1149.39 1202.33 1175.51 1176.87 1190.22C1176.19 1190.61 1180.43 1201.18 1181.21 1201.04C1204.63 1196.68 1220.13 1198.6 1232.94 1207.44C1235.21 1209.01 1237.04 1209.68 1237.44 1209.1C1237.81 1208.56 1240 1205.66 1242.3 1202.66C1261.83 1177.17 1264.21 1133.96 1246.92 1118.74C1241.56 1114.03 1228.3 1109.86 1223.11 1111.27Z" fill="#7209B7"/>
<path d="M1360.08 1099.11C1359.88 1099.71 1359.25 1103.46 1358.66 1107.45C1356.34 1123.23 1350.77 1134.38 1339.06 1146.64C1331.61 1154.43 1331.61 1154.43 1334.75 1158.32C1346.41 1172.78 1351.31 1195.86 1346.61 1214.2C1345.51 1218.51 1344.61 1222.15 1344.61 1222.3C1344.61 1224.77 1371.81 1213.36 1381.34 1206.89C1420.99 1179.96 1420.3 1121.34 1380.11 1102.6C1373.49 1099.51 1360.67 1097.28 1360.08 1099.11Z" fill="#7209B7"/>
<path d="M1274.61 1044.45C1274.54 1058.24 1266.64 1080.81 1257.77 1092.62C1253.7 1098.04 1253.7 1098.04 1259.67 1104.42C1265.95 1111.13 1271.74 1121.33 1273.7 1129.14C1274.87 1133.79 1274.87 1133.79 1279.49 1133.07C1292.25 1131.08 1303.18 1132.96 1312.88 1138.83C1319.12 1142.6 1318.7 1142.73 1324.94 1134.95C1346.77 1107.76 1340.26 1064.42 1312.3 1050.73C1300.3 1044.86 1274.63 1040.58 1274.61 1044.45Z" fill="#7209B7"/>
<path d="M1205.34 1018.83C1204.52 1038.95 1200.94 1051.72 1192.36 1065.1C1189.22 1069.99 1189.22 1069.99 1193.98 1074C1196.59 1076.21 1200.81 1080.92 1203.34 1084.46C1208.43 1091.6 1206.96 1091.2 1218.97 1088.73C1222.64 1087.97 1225.58 1088.09 1230.92 1089.2C1239.17 1090.92 1237.82 1092 1244.62 1078.2C1263.85 1039.25 1251.28 1006.33 1216.64 1004.9L1205.92 1004.46L1205.34 1018.83Z" fill="#7209B7"/>
<path d="M1124.74 976.765C1093.09 982.411 1082.87 1012.03 1099.71 1049.31C1104.72 1060.41 1104.72 1060.41 1112.41 1060.49C1119.32 1060.56 1120.9 1060.97 1127.86 1064.53C1135.61 1068.49 1135.62 1068.49 1143.37 1064.53C1150.33 1060.97 1151.91 1060.56 1158.82 1060.49C1166.51 1060.41 1166.51 1060.41 1171.52 1049.31C1192.17 1003.53 1169.73 968.737 1124.74 976.765Z" fill="#7209B7"/>
<path d="M1096.84 1092.18C1069.63 1104.85 1067.16 1135.74 1090.54 1171.06C1097.73 1181.92 1097.72 1181.92 1100.53 1177.5C1115.42 1154.01 1155.8 1154.01 1170.7 1177.5C1174.76 1183.89 1191.07 1159.54 1195.21 1140.91C1202.61 1107.65 1170.17 1073.83 1151.84 1095.68C1147.93 1100.33 1143.14 1108.86 1141.25 1114.53C1137.59 1125.52 1133.64 1125.52 1129.98 1114.53C1127.05 1105.75 1120.87 1096.28 1115.23 1091.93C1111.22 1088.84 1103.81 1088.94 1096.84 1092.18Z" fill="#7209B7"/>
<path d="M1040.22 1111.82C1008.76 1116.35 1002.35 1167.98 1028.93 1202.66C1031.23 1205.66 1033.42 1208.56 1033.79 1209.1C1034.19 1209.68 1036.02 1209.01 1038.29 1207.44C1051.1 1198.6 1066.6 1196.68 1090.02 1201.04C1090.8 1201.18 1095.04 1190.61 1094.36 1190.22C1068.9 1175.51 1054.37 1149.39 1055.83 1120.97C1056.25 1112.73 1056.25 1112.73 1052.68 1112.13C1050.72 1111.8 1048.44 1111.4 1047.61 1111.25C1046.79 1111.1 1043.46 1111.35 1040.22 1111.82Z" fill="#7209B7"/>
<path d="M972.615 1045.28C933.868 1055.42 920.097 1102.32 946.285 1134.95C952.527 1142.73 952.106 1142.6 958.35 1138.83C968.05 1132.96 978.984 1131.08 991.736 1133.07C996.356 1133.79 996.356 1133.79 997.527 1129.14C999.494 1121.33 1005.28 1111.13 1011.56 1104.42C1017.53 1098.04 1017.53 1098.04 1013.46 1092.62C1004.59 1080.81 996.693 1058.24 996.619 1044.45C996.612 1043.15 978.351 1043.77 972.615 1045.28Z" fill="#7209B7"/>
<path d="M1043.57 1006.07C1017.64 1013.06 1010.16 1044.87 1026.61 1078.2C1033.41 1092 1032.06 1090.92 1040.31 1089.2C1045.65 1088.09 1048.59 1087.97 1052.26 1088.73C1064.27 1091.2 1062.8 1091.6 1067.89 1084.46C1070.42 1080.92 1074.64 1076.21 1077.25 1074C1082.01 1069.99 1082.01 1069.99 1078.87 1065.1C1070.31 1051.75 1066.71 1038.94 1065.9 1018.95C1065.29 1003.91 1060.92 1001.39 1043.57 1006.07Z" fill="#7209B7"/>
<path d="M903.615 1098.93C854.168 1105.42 845.134 1176.5 889.892 1206.89C899.421 1213.36 926.615 1224.77 926.615 1222.3C926.615 1222.15 925.715 1218.51 924.615 1214.2C919.925 1195.87 924.823 1172.78 936.472 1158.33C939.596 1154.45 939.596 1154.45 931.753 1146.17C920.132 1133.89 913.84 1120.69 912.107 1104.95C911.289 1097.53 911.753 1097.86 903.615 1098.93Z" fill="#7209B7"/>
<path d="M1540.11 1400.33C1430.69 1411.98 1347.48 1516.69 1329.15 1665.82C1326.23 1689.56 1324.17 1760.75 1326.36 1762.02C1332.35 1765.46 1336.61 1763.62 1336.61 1757.61C1336.61 1670.13 1369.88 1630.03 1496.61 1564.73C1530.99 1547.02 1531.38 1546.78 1552.88 1529.49C1634.04 1464.23 1626.81 1391.1 1540.11 1400.33Z" fill="#4CC9F0"/>
<path d="M1604.01 1536.83C1597.91 1541.83 1597.91 1541.83 1598.37 1564.74C1601.39 1714.87 1452.54 1799.37 1379.59 1688.95C1373.24 1679.35 1373.7 1679.21 1367.04 1692.69C1353.56 1719.95 1347.96 1765.02 1356.87 1774.55C1371.93 1790.64 1370.61 1811.29 1352.73 1839.7C1348.75 1846.03 1341.86 1858.4 1337.42 1867.2C1320.28 1901.18 1290.94 1955.17 1282.38 1968.48C1277.12 1976.66 1275.65 1976.27 1306.39 1974.83C1370.47 1971.84 1397.13 1965.92 1449.11 1943.14C1637.07 1860.8 1713.5 1685.87 1622.31 1546.75C1611.04 1529.55 1612.15 1530.16 1604.01 1536.83Z" fill="#4CC9F0"/>
<path d="M657.899 1533.95C611.869 1584.13 598.304 1687.77 628.091 1761.7C669.9 1865.48 806.696 1961.96 927.115 1972.61C981.684 1977.43 994.072 1976.61 988.852 1968.48C980.293 1955.17 950.953 1901.18 933.811 1867.2C929.371 1858.4 922.481 1846.03 918.5 1839.7C900.616 1811.29 899.303 1790.64 914.358 1774.55C923.27 1765.02 917.672 1719.95 904.192 1692.69C897.527 1679.21 897.987 1679.35 891.644 1688.95C818.688 1799.38 669.84 1714.87 672.857 1564.74C673.318 1541.83 673.318 1541.83 667.003 1536.76C659.632 1530.86 660.495 1531.12 657.899 1533.95Z" fill="#4CC9F0"/>
<path d="M700.763 1400.66C641.755 1410.03 650.63 1475.03 718.354 1529.49C739.852 1546.78 740.242 1547.02 774.615 1564.73C901.329 1630.02 934.615 1670.14 934.615 1757.61C934.615 1763.62 938.883 1765.46 944.865 1762.02C945.943 1761.4 945.772 1719.56 944.601 1697.2C939.1 1592.2 897.034 1494.05 836.732 1445.53C796.844 1413.43 739.507 1394.51 700.763 1400.66Z" fill="#4CC9F0"/>
<path d="M976.418 1153.1C937.871 1163.48 935.171 1216.75 971.463 1250.85C997.694 1275.5 972.075 1269.72 943.504 1244.55C935.758 1237.72 935.758 1237.72 929.855 1238.34C905.743 1240.86 868.601 1219.54 848.797 1191.81C844.227 1185.41 844.227 1185.41 841.32 1188.81C800.145 1236.94 776.709 1280.04 750.022 1356.7C743.417 1375.68 743.351 1374.2 750.865 1375.63C879.093 1399.97 963.704 1536.59 966.339 1723.56C966.914 1764.39 965.894 1761.94 980.097 1756.63C988.769 1753.38 990.526 1750.91 997.612 1732.04C1030.03 1645.66 1057.33 1611.41 1103.06 1599.72C1112.52 1597.3 1112.25 1597.48 1113.06 1593.17C1114.88 1583.43 1125.17 1557.93 1128.87 1553.95C1137.8 1544.36 1152.78 1564.4 1158.17 1593.17C1158.98 1597.48 1158.71 1597.3 1168.17 1599.72C1213.9 1611.41 1241.2 1645.66 1273.62 1732.04C1280.7 1750.91 1282.46 1753.38 1291.13 1756.63C1305.34 1761.94 1304.32 1764.39 1304.89 1723.56C1307.53 1536.58 1392.13 1399.97 1520.36 1375.63C1527.88 1374.2 1527.81 1375.68 1521.21 1356.7C1494.52 1280.04 1471.09 1236.94 1429.91 1188.81C1427 1185.41 1427 1185.41 1422.43 1191.81C1402.63 1219.54 1365.49 1240.86 1341.38 1238.34C1335.47 1237.72 1335.47 1237.72 1327.73 1244.55C1299.15 1269.72 1273.54 1275.5 1299.77 1250.85C1325.95 1226.25 1332.56 1200.84 1319.5 1175C1309.15 1154.53 1277.22 1142.26 1275.19 1157.98C1271.95 1183.12 1262.01 1202.46 1247.04 1212.76C1242.68 1215.76 1242.68 1215.76 1246.4 1222.48C1254.95 1237.95 1250.72 1258.06 1235.74 1273.21C1223.06 1286.02 1212.87 1286.86 1224.51 1274.13C1239.77 1257.43 1238.71 1237.08 1222.32 1232.21C1212.52 1229.3 1181.61 1230.53 1181.61 1233.84C1181.61 1241.35 1171.68 1264.45 1165.78 1270.65C1158.47 1278.34 1156.94 1275 1161.97 1262.36C1177.41 1223.63 1164.54 1186.71 1135.61 1186.71C1106.69 1186.71 1093.82 1223.63 1109.26 1262.36C1114.29 1275 1112.76 1278.34 1105.45 1270.65C1099.55 1264.45 1089.61 1241.35 1089.61 1233.84C1089.61 1230.53 1058.71 1229.3 1048.91 1232.21C1032.52 1237.08 1031.46 1257.43 1046.72 1274.13C1058.36 1286.86 1048.17 1286.02 1035.49 1273.21C1020.51 1258.06 1016.28 1237.95 1024.83 1222.48C1028.55 1215.76 1028.55 1215.76 1024.19 1212.76C1009.24 1202.47 999.28 1183.11 996.046 1158.04C995.515 1153.92 994.95 1152.76 993.248 1152.3C989.734 1151.36 981.425 1151.76 976.418 1153.1Z" fill="#7209B7"/>
<path fill-rule="evenodd" clip-rule="evenodd" d="M1123.78 1622.76C1085.51 1629.61 1049.7 1671.08 1021.93 1740.7C1008 1775.61 1000.76 1780.66 954.615 1787.68C924.249 1792.3 922.247 1799.7 943.116 1830.15C958.205 1852.17 976.635 1882.59 996.1 1917.59C1030.89 1980.16 1043.73 2000.91 1061.42 2023.2C1122.43 2100.09 1174.58 2087.48 1239.28 1980.2C1252.01 1959.08 1253.6 1956.3 1275.13 1917.59C1294.6 1882.59 1313.03 1852.17 1328.11 1830.15C1348.98 1799.7 1346.98 1792.3 1316.61 1787.68C1270.47 1780.66 1263.23 1775.61 1249.3 1740.7C1215.82 1656.77 1170.68 1614.36 1123.78 1622.76ZM1013.75 1811.49C1009.4 1802.5 1012.77 1793.15 1022.12 1788.28C1035.05 1781.54 1050.76 1792.9 1059.09 1815.04C1064.55 1829.55 1057.85 1831.63 1040.29 1820.89C1035.37 1817.88 1034.16 1817.51 1032.55 1818.51C1026.7 1822.16 1017.2 1818.61 1013.75 1811.49ZM1210.85 1824.53C1207.49 1817.47 1221.2 1794.18 1231.92 1788.73C1247.67 1780.72 1264.93 1796.1 1257.48 1811.49C1254.03 1818.61 1244.53 1822.16 1238.68 1818.51C1237.07 1817.51 1235.86 1817.88 1230.94 1820.89C1218.06 1828.77 1213.29 1829.63 1210.85 1824.53Z" fill="#F4D58D"/>
<path fill-rule="evenodd" clip-rule="evenodd" d="M929.778 791.767C916.473 741.632 875.024 702.141 818.709 712.671C774.023 721.028 734.317 755.362 723.916 794.285C726.989 805.128 732.071 815.598 739.36 825.235C790.928 893.419 883.784 886.541 922.042 811.704C925.391 805.153 927.95 798.481 929.778 791.767Z" fill="#7209B7"/>
<path fill-rule="evenodd" clip-rule="evenodd" d="M980.684 603.02C978.768 597.27 977.251 591.485 976.115 585.692C987.763 525.42 1045.34 473.118 1113.42 460.679C1204.54 444.033 1279.59 506.458 1295.16 585.587C1294.01 591.389 1292.48 597.207 1290.55 603.02C1244.68 740.676 1026.55 740.676 980.684 603.02Z" fill="#7209B7"/>
<path d="M1425.27 659.301C1360.61 670.984 1327.1 734.801 1341.54 791.67C1351.09 753.557 1388.41 720.76 1432.86 712.728C1491.13 702.201 1533.61 744.214 1547.3 794.658C1567.23 725.871 1503.68 645.135 1425.27 659.301Z" fill="#7209B7"/>
<path d="M976.115 585.692C987.763 525.42 1045.34 473.118 1113.42 460.679C1204.54 444.033 1279.59 506.458 1295.16 585.587C1315.26 483.848 1216.83 386.974 1105.83 407.252C1018.05 423.287 960.371 505.365 976.115 585.692Z" fill="#7209B7"/>
<path d="M818.709 712.671C875.024 702.141 916.473 741.632 929.778 791.767C949.109 720.768 886.655 645.119 811.115 659.244C746.294 671.366 707.932 737.883 723.916 794.285C734.317 755.362 774.023 721.028 818.709 712.671Z" fill="#7209B7"/>
<path d="M1372.7 844.15C1419.2 888.011 1490.83 879.499 1531.87 825.235C1539.17 815.588 1544.23 805.265 1547.3 794.658C1533.61 744.214 1491.13 702.201 1432.86 712.728C1388.41 720.76 1351.09 753.557 1341.54 791.67C1346.36 810.674 1356.54 828.903 1372.7 844.15Z" fill="#7209B7"/>
<path fill-rule="evenodd" clip-rule="evenodd" d="M1000.29 531.388C1025.72 496.061 1067.18 469.143 1113.51 460.679C1182.83 448.015 1242.86 481.118 1274.46 532.525C1280.49 526.462 1285.99 520.3 1290.55 514.264C1267.04 443.868 1190.09 391.874 1105.91 407.252C1047.76 417.877 1002.81 457.493 983.681 506.383C987.82 514.361 993.665 522.921 1000.29 531.388Z" fill="#4CC9F0"/>
<path d="M1000.29 531.388C1022.87 560.268 1054.49 588.077 1058.3 588.077C1061.18 588.077 1077.12 572.592 1093.68 556.512C1111.56 539.142 1130.16 521.077 1133.8 521.077C1137.3 521.077 1152.3 537.827 1167.3 554.577C1182.3 571.327 1197.3 588.077 1200.8 588.077C1205.26 588.077 1245.73 561.428 1274.46 532.525C1242.86 481.118 1182.83 448.015 1113.51 460.679C1067.18 469.143 1025.72 496.061 1000.29 531.388Z" fill="#4CC9F0"/>
<path d="M724.447 791.465C735.967 753.714 774.829 720.825 818.432 712.671C851.774 706.437 879.905 717.736 900.069 738.397C903.814 724.546 906.526 708.006 906.209 694.119C883.578 667.774 848.866 652.133 810.838 659.244C747.548 671.079 709.482 734.772 722.598 790.273C723.206 790.674 723.823 791.071 724.447 791.465Z" fill="#4CC9F0"/>
<path d="M724.447 791.465C748.969 806.951 782.401 813.715 791.209 808.577C798.028 804.6 801.184 784.54 801.927 763.878C802.491 748.176 802.997 734.119 806.019 731.528C809.359 728.665 825.563 737.983 842.734 747.857C861.551 758.677 882.808 768.114 888.298 764.977C892.223 762.734 896.09 753.108 900.069 738.397C879.905 717.736 851.774 706.437 818.432 712.671C774.829 720.825 735.967 753.714 724.447 791.465Z" fill="#4CC9F0"/>
<path fill-rule="evenodd" clip-rule="evenodd" d="M1348.98 720.077C1350.48 731.077 1381.98 790.077 1390.48 792.077C1395.08 793.16 1410.83 781.927 1425.25 771.637C1437.46 762.925 1448.73 754.889 1451.48 755.577C1453.98 756.204 1458.77 763.736 1464.36 772.545C1472.14 784.806 1481.49 799.54 1488.48 801.577C1497.52 804.215 1533.54 785.269 1551.17 772.564C1553.89 709.859 1495.65 646.633 1425.54 659.301C1388.92 665.916 1362.3 689.246 1348.71 718.564C1348.81 719.026 1348.9 719.529 1348.98 720.077Z" fill="#4CC9F0"/>
<path d="M1566.11 1561.41C1563.36 1562.84 1554.81 1566.85 1547.11 1570.32C1517.4 1583.68 1512.23 1586.91 1516.21 1589.63C1537.14 1603.97 1542.58 1649.09 1527.76 1685.51C1524.08 1694.56 1524.63 1694.5 1533.85 1684.85C1563.57 1653.75 1582.75 1593.12 1573.06 1560.95C1572.23 1558.2 1572.27 1558.2 1566.11 1561.41Z" fill="#F1F1F1"/>
<path d="M698.17 1560.95C688.478 1593.12 707.664 1653.75 737.375 1684.85C746.6 1694.5 747.154 1694.56 743.468 1685.51C728.655 1649.11 734.086 1603.97 755.004 1589.64C758.873 1586.99 751.808 1582.54 724.615 1570.52C718.29 1567.72 710.089 1563.92 706.39 1562.07C698.406 1558.07 699.013 1558.16 698.17 1560.95Z" fill="#F1F1F1"/>
<path d="M1501 1652.58C1501 1649.26 1498.09 1646.58 1494.5 1646.58C1490.91 1646.58 1488 1649.26 1488 1652.58C1488 1655.89 1490.91 1658.58 1494.5 1658.58C1498.09 1658.58 1501 1655.89 1501 1652.58Z" fill="#F1F1F1"/>
<path opacity="0.2" fill-rule="evenodd" clip-rule="evenodd" d="M1286.25 614.369C1230.61 676.336 1120.03 710.435 993.679 631.523C1056.16 736.598 1236.61 730.88 1286.25 614.369ZM906.097 835.676C847.534 860.174 768.022 835.095 729.18 808.387C731.908 814.21 735.291 819.852 739.362 825.235C784.748 885.245 862.117 887.111 906.097 835.676ZM1540.92 810.793C1507.25 842.455 1439.08 864.964 1359.45 829.266C1363.31 834.468 1367.73 839.45 1372.71 844.15C1419.2 888.011 1490.83 879.499 1531.87 825.235C1535.4 820.565 1538.41 815.736 1540.92 810.793Z" fill="black"/>
<path d="M976.115 585.692C987.764 525.42 1045.34 473.118 1113.42 460.68C1204.54 444.033 1279.59 506.458 1295.16 585.587C1315.26 483.849 1216.83 386.974 1105.83 407.252C1018.05 423.288 960.372 505.366 976.115 585.692Z" fill="#7209B7"/>
<path fill-rule="evenodd" clip-rule="evenodd" d="M1000.29 531.388C1025.72 496.061 1067.18 469.143 1113.51 460.68C1182.83 448.015 1242.86 481.118 1274.46 532.525C1280.49 526.462 1285.99 520.301 1290.55 514.265C1267.04 443.868 1190.09 391.874 1105.91 407.252C1047.76 417.877 1002.81 457.493 983.681 506.383C987.82 514.361 993.665 522.921 1000.29 531.388Z" fill="#4CC9F0"/>
<g opacity="0.2">
<path fill-rule="evenodd" clip-rule="evenodd" d="M1175.71 998.452C1168.4 981.373 1150.17 972.227 1124.74 976.765C1109.71 979.446 1099.52 987.528 1094.76 999.267C1104.78 990.991 1122.52 988.286 1135.75 988.006C1148.54 988.277 1165.53 990.812 1175.71 998.452ZM1064.35 1009.26C1051.96 1011.16 1029.33 1017.19 1019.5 1031.06C1022.77 1018.67 1031.01 1009.45 1043.57 1006.07C1056.14 1002.68 1061.9 1003.06 1064.35 1009.26ZM996.769 1047.74C996.676 1046.6 996.625 1045.5 996.619 1044.45C996.612 1043.15 978.351 1043.77 972.615 1045.28C952.979 1050.41 939.757 1065 934.9 1082.38C948.034 1063.81 972.486 1048.32 996.769 1047.74ZM860.992 1148.91C866.796 1129.17 888.421 1108.58 906.001 1108.58C908.487 1108.58 910.653 1108.44 912.535 1108.19C912.37 1107.13 912.228 1106.05 912.107 1104.95C912.067 1104.59 912.03 1104.24 911.994 1103.91C911.682 1100.99 911.521 1099.49 910.689 1098.82C909.803 1098.1 908.157 1098.32 904.759 1098.77C904.398 1098.82 904.017 1098.87 903.616 1098.93C877.081 1102.41 862.184 1124.5 860.992 1148.91ZM1124.65 1103.2C1114.45 1095.28 1099.36 1092.15 1078.17 1109.87C1081.74 1102.36 1087.98 1096.3 1096.84 1092.18C1103.81 1088.94 1111.22 1088.84 1115.23 1091.93C1118.43 1094.4 1121.79 1098.5 1124.65 1103.2ZM1190.23 1107.39C1181.08 1090.52 1163.57 1081.7 1151.84 1095.68C1150.12 1097.72 1148.24 1100.51 1146.51 1103.47C1156.21 1095.75 1170.42 1092.29 1190.23 1107.39ZM1056 1117.4C1056.15 1112.71 1055.64 1112.62 1052.69 1112.13C1050.72 1111.8 1048.44 1111.4 1047.62 1111.25C1046.79 1111.1 1043.46 1111.35 1040.22 1111.82C1024.77 1114.04 1015.36 1127.63 1012.94 1144.99C1019.05 1125.13 1042.11 1115.85 1056 1117.4ZM1275.77 1155.69C1280.57 1143.59 1309.7 1155.62 1319.5 1175C1322.22 1180.39 1324.09 1185.76 1325.11 1191.1C1317.6 1170 1293.96 1160.33 1275.77 1155.69ZM1181.59 1234.53C1181.61 1234.29 1181.62 1234.06 1181.62 1233.84C1181.62 1230.53 1212.52 1229.3 1222.32 1232.21C1226.97 1233.59 1230.38 1236.21 1232.54 1239.65C1223.16 1231.37 1202.75 1232.9 1181.59 1234.53ZM1110.56 1200.33C1116.25 1191.86 1124.81 1186.71 1135.62 1186.71C1146.22 1186.71 1154.66 1191.66 1160.34 1199.85C1153.26 1194.32 1143.56 1191.49 1135.75 1190.75C1127.72 1191.51 1117.69 1194.49 1110.56 1200.33ZM1038.35 1240.22C1040.48 1236.51 1044.01 1233.67 1048.91 1232.21C1058.71 1229.3 1089.62 1230.53 1089.62 1233.84C1089.62 1234.05 1089.62 1234.27 1089.64 1234.51C1068.1 1232.85 1047.39 1231.33 1038.35 1240.22ZM995.676 1155.71C977.075 1160.46 952.807 1170.47 945.904 1192.57C947.019 1173.92 957.318 1158.25 976.418 1153.1C981.425 1151.76 989.734 1151.36 993.248 1152.3C994.573 1152.66 995.209 1153.44 995.676 1155.71ZM1252 1031.05C1247.77 1015.75 1235.46 1005.68 1216.64 1004.9L1205.92 1004.46L1205.73 1009.05C1217.73 1010.7 1241.77 1016.64 1252 1031.05ZM1336.02 1081.57C1332.54 1068.2 1324.44 1056.67 1312.3 1050.73C1300.3 1044.86 1274.63 1040.58 1274.61 1044.45C1274.61 1045.5 1274.56 1046.6 1274.46 1047.74C1298.48 1048.2 1322.71 1063.3 1336.02 1081.57ZM1410.59 1149.18C1404.9 1129.36 1383.16 1108.58 1365.5 1108.58C1362.83 1108.58 1360.53 1108.42 1358.56 1108.14C1358.59 1107.91 1358.63 1107.68 1358.66 1107.45C1359.25 1103.46 1359.89 1099.71 1360.08 1099.11C1360.67 1097.28 1373.49 1099.51 1380.12 1102.6C1399.39 1111.59 1409.57 1129.74 1410.59 1149.18ZM1257.98 1143.27C1256.67 1132.95 1253.01 1124.11 1246.92 1118.74C1241.56 1114.03 1228.3 1109.86 1223.12 1111.27C1222.57 1111.42 1220.51 1111.81 1218.55 1112.13C1215.58 1112.63 1215.08 1112.71 1215.24 1117.43C1228.69 1115.78 1251.06 1124.47 1257.98 1143.27Z" fill="white" style="mix-blend-mode:hard-light"/>
</g>
<path fill-rule="evenodd" clip-rule="evenodd" d="M1593.06 1409.27C1553.66 1406.31 1507.7 1419.37 1474.5 1440.08C1428 1469.08 1356.5 1546.08 1341.5 1620.58C1337.35 1641.18 1334.24 1647.92 1331.93 1646.44C1354.84 1507.67 1435.49 1411.47 1540.11 1400.33C1563.71 1397.82 1581.42 1401.41 1593.06 1409.27Z" fill="white" fill-opacity="0.4" style="mix-blend-mode:hard-light"/>
<path fill-rule="evenodd" clip-rule="evenodd" d="M676.129 1410.22C716.553 1405.75 764.933 1419.02 799.499 1440.58C845.999 1469.58 917.499 1546.58 932.499 1621.08C934.852 1632.76 936.871 1639.98 938.598 1643.78C924.069 1559.87 886.648 1485.7 836.732 1445.53C796.844 1413.43 739.507 1394.51 700.763 1400.66C690.523 1402.29 682.328 1405.59 676.129 1410.22Z" fill="white" fill-opacity="0.4" style="mix-blend-mode:hard-light"/>
<path fill-rule="evenodd" clip-rule="evenodd" d="M1037.02 1707.17C1069.71 1671.21 1111.61 1665.08 1134 1665.08C1157.27 1665.08 1203.38 1672.59 1236.67 1712.1C1204.89 1647.26 1165.02 1615.37 1123.78 1622.76C1092.13 1628.43 1062.15 1657.78 1037.02 1707.17Z" fill="white" fill-opacity="0.4" style="mix-blend-mode:hard-light"/>
<path opacity="0.2" fill-rule="evenodd" clip-rule="evenodd" d="M1575.6 1580.32C1560.65 1586.77 1543.9 1593.32 1525.82 1599.88C1523.12 1595.65 1519.91 1592.16 1516.21 1589.63C1512.24 1586.91 1517.4 1583.68 1547.12 1570.32C1554.82 1566.85 1563.37 1562.84 1566.12 1561.41L1566.22 1561.35C1570.04 1559.36 1571.43 1558.63 1572.15 1559.06C1572.56 1559.3 1572.75 1559.92 1573.05 1560.91L1573.06 1560.95C1574.77 1566.63 1575.58 1573.19 1575.6 1580.32ZM695.656 1578.68C710.766 1585.52 727.619 1592.45 745.743 1599.37C748.373 1595.37 751.468 1592.06 755.007 1589.64C758.876 1586.99 751.811 1582.54 724.618 1570.52C718.293 1567.72 710.092 1563.92 706.393 1562.07C705.878 1561.81 705.4 1561.57 704.954 1561.35L704.954 1561.35C700.929 1559.33 699.592 1558.65 698.968 1559.07C698.657 1559.27 698.523 1559.74 698.321 1560.45C698.276 1560.6 698.228 1560.77 698.173 1560.95C696.595 1566.19 695.782 1572.19 695.656 1578.68Z" fill="black"/>
<path opacity="0.2" fill-rule="evenodd" clip-rule="evenodd" d="M911.881 1828.06C908.69 1862.37 920.453 1900.74 925.883 1918.45C926.807 1921.47 927.548 1923.88 928 1925.58C931.875 1940.11 889.766 1963.09 735.309 1892.69C792.338 1936.1 862.112 1966.86 927.114 1972.61C981.683 1977.43 994.071 1976.61 988.851 1968.48C980.292 1955.17 950.952 1901.18 933.81 1867.2C929.37 1858.4 922.48 1846.03 918.499 1839.7C915.959 1835.67 913.753 1831.79 911.881 1828.06Z" fill="black"/>
<path opacity="0.2" fill-rule="evenodd" clip-rule="evenodd" d="M1536.87 1892.38C1381.86 1963.15 1339.62 1940.13 1343.5 1925.58C1343.95 1923.88 1344.69 1921.47 1345.62 1918.45C1351.07 1900.66 1362.92 1862.02 1359.58 1827.6C1357.66 1831.47 1355.38 1835.5 1352.73 1839.7C1348.75 1846.03 1341.86 1858.4 1337.42 1867.2C1320.28 1901.18 1290.94 1955.17 1282.38 1968.48C1280.48 1971.45 1279.07 1973.28 1279.51 1974.35C1280.29 1976.24 1286.8 1975.75 1306.39 1974.83C1370.47 1971.84 1397.13 1965.92 1449.12 1943.14C1481.85 1928.8 1511.2 1911.66 1536.87 1892.38Z" fill="black"/>
<path opacity="0.2" fill-rule="evenodd" clip-rule="evenodd" d="M987.355 1902.05C1021.15 1956.7 1034.84 1976.37 1053.32 1997.4C1120.9 2074.35 1178.66 2061.73 1250.32 1954.36C1263.74 1934.26 1265.99 1930.76 1286.69 1897.13C1282.89 1903.74 1279.03 1910.58 1275.13 1917.59C1253.6 1956.3 1252.01 1959.08 1239.27 1980.2C1174.58 2087.48 1122.43 2100.09 1061.41 2023.2C1043.72 2000.91 1030.89 1980.16 996.099 1917.59C993.158 1912.3 990.241 1907.12 987.355 1902.05Z" fill="black"/>
<path d="M1135 1526.58C1122.5 1526.58 1106.5 1615.58 1099.5 1615.58L1085 1629.08L1135 1615.58L1192.5 1632.58C1186.33 1626.91 1173.1 1615.58 1169.5 1615.58C1165 1615.58 1147.5 1526.58 1135 1526.58Z" fill="black" fill-opacity="0.2"/>
<path d="M1052 1287.58C1045 1287.58 1021.5 1271.08 1021.5 1246.58C1024.83 1240.41 1031.5 1230.78 1031.5 1241.58C1031.5 1255.08 1046.5 1272.58 1050.5 1276.58C1054.5 1280.58 1059 1287.58 1052 1287.58Z" fill="black" fill-opacity="0.2"/>
<path d="M918 1246.58C889.5 1246.58 852.5 1209.08 833.5 1183.58L845 1173.58L871 1211.08L930 1228.58L941.5 1209.58C944.333 1213.91 951 1224.38 955 1231.58C960 1240.58 973 1247.58 983.5 1262.58C994 1277.58 954 1259.08 949 1256.58C945 1254.58 936.333 1248.41 932.5 1245.58C932.5 1245.91 929.6 1246.58 918 1246.58Z" fill="black" fill-opacity="0.2"/>
<path d="M1007.5 1201.08C996 1186.58 1000 1169.58 998 1155.08L1030.5 1214.08L1028 1218.58L1027.93 1218.54C1024.72 1216.85 1016.64 1212.6 1007.5 1201.08Z" fill="black" fill-opacity="0.2"/>
<path d="M1110 1278.58C1099.5 1276.08 1090 1251.58 1090 1233.08L1100 1228.58L1106.5 1254.58C1108.5 1262.58 1120.5 1281.08 1110 1278.58Z" fill="black" fill-opacity="0.2"/>
<path d="M1218.5 1287.58C1225.5 1287.58 1249 1271.08 1249 1246.58C1245.67 1240.41 1239 1230.78 1239 1241.58C1239 1255.08 1224 1272.58 1220 1276.58C1216 1280.58 1211.5 1287.58 1218.5 1287.58Z" fill="black" fill-opacity="0.2"/>
<path d="M1352.5 1246.58C1381 1246.58 1418 1209.08 1437 1183.58L1425.5 1173.58L1399.5 1211.08L1340.5 1228.58L1329 1209.58C1326.17 1213.91 1319.5 1224.38 1315.5 1231.58C1310.5 1240.58 1297.5 1247.58 1287 1262.58C1276.5 1277.58 1316.5 1259.08 1321.5 1256.58C1325.5 1254.58 1334.17 1248.41 1338 1245.58C1338 1245.91 1340.9 1246.58 1352.5 1246.58Z" fill="black" fill-opacity="0.2"/>
<path d="M1263 1201.08C1274.5 1186.58 1270.5 1169.58 1272.5 1155.08L1240 1214.08L1242.5 1218.58L1242.57 1218.54C1245.78 1216.85 1253.86 1212.6 1263 1201.08Z" fill="black" fill-opacity="0.2"/>
<path d="M1160 1279.08C1170.5 1276.58 1180.5 1251.58 1180.5 1233.08L1170.5 1228.58L1164 1254.58C1162 1262.58 1149.5 1281.58 1160 1279.08Z" fill="black" fill-opacity="0.2"/>
<path opacity="0.2" d="M1016.7 1814.58C1013.2 1814.58 1024.2 1809.08 1020.7 1799.58C1029.03 1796.08 1042.1 1799.68 1051.7 1808.08C1063.7 1818.58 1063.7 1844.58 1063.2 1855.58C1062.7 1866.58 1020.2 1814.58 1016.7 1814.58Z" fill="black"/>
<path opacity="0.2" d="M1253.85 1814.91C1257.35 1814.91 1246.35 1809.41 1249.85 1799.91C1241.52 1796.41 1228.45 1800.01 1218.85 1808.41C1206.85 1818.91 1206.85 1844.91 1207.35 1855.91C1207.85 1866.91 1250.35 1814.91 1253.85 1814.91Z" fill="black"/>
<path opacity="0.2" fill-rule="evenodd" clip-rule="evenodd" d="M799.973 1560.84C860.834 1597.25 920 1632.65 920 1676.58C920 1677.99 919.977 1679.39 919.932 1680.76C900.146 1639.33 857.237 1607.41 774.406 1564.73C740.033 1547.02 739.643 1546.78 718.145 1529.49C665.416 1487.09 648.361 1438.3 671.246 1414.35C655.849 1474.62 729.061 1518.42 799.973 1560.84Z" fill="black"/>
<path opacity="0.2" fill-rule="evenodd" clip-rule="evenodd" d="M672.202 1412.62L671.73 1414.47C664.099 1444.34 678.395 1470.19 703.586 1493.93C728.781 1517.67 764.759 1539.19 800.229 1560.41L800.255 1560.43C830.666 1578.62 860.701 1596.59 883.131 1615.51C905.554 1634.42 920.5 1654.38 920.5 1676.58C920.5 1678 920.477 1679.4 920.431 1680.77L919.48 1680.97C899.774 1639.71 857.011 1607.85 774.177 1565.17C756.999 1556.32 748.285 1551.82 741.182 1547.37C734.071 1542.92 728.576 1538.52 717.832 1529.88C691.42 1508.64 673.909 1485.78 665.874 1465.18C657.841 1444.59 659.255 1426.17 670.884 1414L672.202 1412.62ZM666.805 1464.82C674.759 1485.21 692.14 1507.94 718.458 1529.1C729.212 1537.75 734.661 1542.11 741.713 1546.53C748.772 1550.95 757.44 1555.43 774.635 1564.29C856.232 1606.33 899.23 1638 919.482 1678.69C919.494 1677.99 919.5 1677.29 919.5 1676.58C919.5 1654.85 904.862 1635.14 882.486 1616.27C860.125 1597.41 830.157 1579.48 799.716 1561.27L799.681 1561.25C764.251 1540.05 728.182 1518.48 702.9 1494.65C678.14 1471.32 663.616 1445.73 670.3 1416.14C660.245 1427.92 659.169 1445.24 666.805 1464.82Z" fill="black"/>
<path opacity="0.2" fill-rule="evenodd" clip-rule="evenodd" d="M1472.03 1560.84C1411.17 1597.25 1352 1632.65 1352 1676.58C1352 1677.2 1352 1677.82 1352.01 1678.43C1372.28 1638.13 1415.11 1606.61 1496.41 1564.73C1530.78 1547.02 1531.17 1546.78 1552.67 1529.49C1605.38 1487.1 1620.81 1441.4 1601.4 1417.09C1613.92 1475.96 1541.86 1519.07 1472.03 1560.84Z" fill="black"/>
<path opacity="0.2" fill-rule="evenodd" clip-rule="evenodd" d="M1604.54 1466.7C1596.48 1486.56 1579.38 1508.65 1552.98 1529.88C1542.24 1538.52 1536.74 1542.92 1529.63 1547.38C1522.53 1551.82 1513.81 1556.32 1496.64 1565.18C1415.34 1607.06 1372.65 1638.52 1352.46 1678.66L1351.51 1678.44C1351.5 1677.82 1351.5 1677.2 1351.5 1676.58C1351.5 1654.38 1366.45 1634.42 1388.87 1615.51C1411.3 1596.59 1441.33 1578.62 1471.74 1560.43L1471.77 1560.41C1506.7 1539.52 1542.12 1518.32 1567.25 1495.01C1592.39 1471.7 1607.11 1446.37 1600.91 1417.2L1601.79 1416.78C1611.65 1429.12 1612.6 1446.84 1604.54 1466.7ZM1602.31 1419.14C1610.64 1431.01 1611.22 1447.59 1603.62 1466.32C1595.64 1485.98 1578.67 1507.94 1552.35 1529.1C1541.6 1537.75 1536.15 1542.11 1529.1 1546.53C1522.04 1550.95 1513.37 1555.43 1496.18 1564.29C1416.11 1605.54 1373.22 1636.79 1352.5 1676.39C1352.59 1654.73 1367.2 1635.09 1389.51 1616.27C1411.87 1597.41 1441.84 1579.48 1472.28 1561.27L1472.32 1561.25C1507.21 1540.38 1542.72 1519.14 1567.93 1495.74C1592.55 1472.91 1607.47 1447.92 1602.31 1419.14Z" fill="black"/>
<path fill-rule="evenodd" clip-rule="evenodd" d="M648.92 1544.68C648.317 1594.23 650.2 1808.08 901.502 1808.08C902.53 1808.08 903.552 1808.08 904.566 1808.07C902.144 1794.91 905.352 1783.95 914.15 1774.55C923.062 1765.02 917.464 1719.95 903.984 1692.69C900.416 1685.47 898.89 1682.16 897.268 1682.11C895.862 1682.07 894.383 1684.49 891.436 1688.95C818.48 1799.38 669.632 1714.87 672.649 1564.74C673.11 1541.83 673.11 1541.83 666.795 1536.76L666.795 1536.76C662.194 1533.08 660.802 1531.8 659.773 1532.04C659.154 1532.19 658.667 1532.89 657.691 1533.95C654.622 1537.3 651.697 1540.88 648.92 1544.68Z" fill="black" fill-opacity="0.2" style="mix-blend-mode:multiply"/>
<path opacity="0.2" fill-rule="evenodd" clip-rule="evenodd" d="M1623.52 1548.93C1623.9 1603.91 1617.05 1809.08 1370.9 1809.08C1369.27 1809.08 1367.65 1809.07 1366.06 1809.06C1368.83 1795.46 1365.68 1784.19 1356.66 1774.55C1347.75 1765.02 1353.35 1719.94 1366.83 1692.69C1370.4 1685.47 1371.93 1682.16 1373.55 1682.11C1374.95 1682.07 1376.43 1684.49 1379.38 1688.95C1452.33 1799.37 1601.18 1714.87 1598.17 1564.74C1597.84 1548.45 1597.74 1543.74 1599.91 1540.59C1600.79 1539.3 1602.04 1538.27 1603.81 1536.83C1607.11 1534.12 1608.89 1532.42 1610.59 1532.49C1613.08 1532.6 1615.4 1536.53 1622.1 1546.75C1622.58 1547.48 1623.05 1548.2 1623.52 1548.93Z" fill="#161616"/>
<path opacity="0.2" fill-rule="evenodd" clip-rule="evenodd" d="M1091.89 1009.49C1090.38 1020.87 1092.8 1034.48 1099.5 1049.31L1099.5 1049.31C1104.51 1060.41 1104.51 1060.41 1112.2 1060.49C1119.11 1060.56 1120.68 1060.97 1127.65 1064.53C1135.4 1068.49 1135.4 1068.49 1143.16 1064.53C1150.12 1060.97 1151.69 1060.56 1158.6 1060.49C1166.3 1060.41 1166.3 1060.41 1171.31 1049.31L1171.31 1049.31C1178 1034.47 1180.17 1020.79 1178.51 1009.35C1175.19 1027.86 1167.53 1052.06 1150.38 1054.08C1142.95 1055.64 1137.78 1055.74 1136 1055.59V1055.58H1135.88H1134.5H1134.38V1055.59C1132.59 1055.74 1127.43 1055.64 1120 1054.08C1102.88 1052.06 1095.23 1027.99 1091.89 1009.49ZM1192.15 1065.1C1200.73 1051.72 1204.31 1038.95 1205.12 1018.83L1205.55 1008.27C1208.84 1026.38 1207.96 1051.75 1192.92 1073.29C1189.03 1069.97 1189.21 1069.68 1192.15 1065.1ZM1253.25 1048.06C1252.56 1057.31 1249.68 1067.53 1244.41 1078.2C1243.85 1079.35 1243.34 1080.39 1242.88 1081.34C1240.05 1087.13 1238.94 1089.41 1237.24 1090.01C1236.14 1090.41 1234.79 1090.1 1232.58 1089.61C1232.01 1089.48 1231.4 1089.34 1230.71 1089.2C1225.37 1088.09 1222.42 1087.97 1218.76 1088.73C1217.8 1088.92 1216.93 1089.11 1216.13 1089.28C1215.96 1089.31 1215.8 1089.35 1215.63 1089.38C1216.28 1087.4 1221.38 1085.78 1226.58 1084.14C1231.47 1082.59 1236.44 1081.01 1237.88 1079.08C1245 1069.47 1250.44 1059.79 1253.25 1048.06ZM1274.4 1044.45C1274.33 1058.24 1266.43 1080.81 1257.56 1092.62C1253.76 1097.67 1253.51 1098.01 1258.33 1103.21C1268.54 1088.44 1279.18 1059.36 1275.16 1043.52C1274.67 1043.75 1274.4 1044.06 1274.4 1044.45ZM1337.5 1091.25C1336.19 1099.71 1331.52 1117.51 1324.38 1125.08C1315.88 1134.08 1312.38 1135.08 1305.38 1132.08C1301.22 1130.29 1295.14 1131.16 1290.72 1132.34C1298.74 1132.64 1306 1134.8 1312.67 1138.83L1312.88 1138.95L1313.26 1139.18C1315.69 1140.65 1317.03 1141.47 1318.26 1141.32C1319.78 1141.13 1321.13 1139.46 1324.14 1135.69L1324.44 1135.32L1324.73 1134.95C1334.86 1122.34 1338.89 1106.24 1337.5 1091.25ZM1410.06 1145.37C1408.29 1159.34 1403.26 1184.16 1383.88 1200.58C1365.64 1216.03 1351.88 1217.08 1348.88 1195.08C1348.59 1192.95 1348.18 1191.83 1347.7 1191.5C1348.6 1199.26 1348.22 1207.09 1346.4 1214.2C1345.3 1218.51 1344.4 1222.15 1344.4 1222.3C1344.4 1224.77 1371.6 1213.36 1381.13 1206.89C1403.01 1192.03 1412.61 1167.51 1410.06 1145.37ZM1358.37 1108.01C1356 1123.5 1350.42 1134.52 1338.85 1146.64L1338.85 1146.64C1331.4 1154.43 1331.4 1154.43 1334.54 1158.32C1334.87 1158.73 1335.2 1159.16 1335.53 1159.59C1345.49 1149.46 1356.6 1130.12 1358.37 1108.01ZM1258.29 1154.9C1256.44 1165.48 1253.39 1177.06 1248.88 1182.58C1239.88 1193.58 1227.88 1196.58 1218.38 1195.08C1213.6 1194.32 1205.68 1196.43 1198.76 1198.88C1212.8 1198.28 1223.47 1201.05 1232.73 1207.44C1235 1209.01 1236.83 1209.68 1237.23 1209.1C1237.6 1208.56 1239.78 1205.66 1242.08 1202.66C1252.25 1189.39 1257.78 1171.32 1258.29 1154.9ZM1177.57 1193.98C1191.97 1186.39 1215.04 1166.08 1214.76 1133.76C1211.97 1157.08 1198.24 1177.75 1176.66 1190.22C1176.4 1190.37 1176.86 1192.02 1177.57 1193.98ZM1195.82 1135.94C1191.37 1149.04 1181.49 1169.65 1165.88 1164.08C1151.88 1159.08 1143.38 1158.08 1136.38 1158.08C1135.93 1158.08 1135.54 1158.12 1135.19 1158.2C1134.84 1158.12 1134.44 1158.08 1134 1158.08C1127 1158.08 1118.5 1159.08 1104.5 1164.08C1090.41 1169.11 1080.98 1152.81 1076.01 1139.96C1078.33 1149.63 1083.09 1160.13 1090.32 1171.06L1090.33 1171.06C1094.86 1177.91 1096.53 1180.44 1097.85 1180.27C1098.63 1180.17 1099.28 1179.14 1100.32 1177.5C1115.21 1154.01 1155.59 1154.01 1170.49 1177.5C1174.54 1183.89 1190.86 1159.54 1195 1140.91C1195.37 1139.25 1195.64 1137.59 1195.82 1135.94ZM1012.1 1155.01C1012.28 1170.74 1017.62 1188.18 1028.72 1202.66C1031.02 1205.66 1033.21 1208.56 1033.58 1209.1C1033.98 1209.68 1035.81 1209.01 1038.08 1207.44C1047.23 1201.13 1057.76 1198.35 1071.56 1198.86C1064.65 1196.41 1056.76 1194.33 1052 1195.08C1042.5 1196.58 1030.5 1193.58 1021.5 1182.58C1017 1177.08 1013.95 1165.56 1012.1 1155.01ZM1055.72 1130.44C1053.74 1164.97 1078.31 1186.48 1093.16 1194.17C1093.92 1192.13 1094.42 1190.38 1094.15 1190.22C1071.54 1177.16 1057.55 1155.11 1055.72 1130.44ZM1012.23 1103.47C1017.31 1098.02 1017.11 1097.76 1013.25 1092.62C1004.38 1080.81 996.482 1058.24 996.408 1044.45C996.407 1044.24 995.93 1044.08 995.107 1043.97C991.371 1060 1002.06 1088.93 1012.23 1103.47ZM932.93 1091.61C931.404 1106.14 935.453 1121.72 946.074 1134.95C946.278 1135.21 946.476 1135.46 946.666 1135.69C949.681 1139.46 951.025 1141.13 952.551 1141.32C953.778 1141.47 955.123 1140.65 957.55 1139.18L957.552 1139.18C957.741 1139.07 957.937 1138.95 958.139 1138.83C964.705 1134.86 971.837 1132.71 979.716 1132.36C975.291 1131.17 969.178 1130.29 964.997 1132.08C957.997 1135.08 954.497 1134.08 945.997 1125.08C938.953 1117.62 934.313 1100.2 932.93 1091.61ZM1018.21 1052.08C1019.28 1060.37 1021.97 1069.23 1026.39 1078.2C1026.96 1079.35 1027.47 1080.39 1027.93 1081.34L1027.93 1081.34C1030.76 1087.13 1031.87 1089.41 1033.57 1090.01C1034.67 1090.41 1036.02 1090.1 1038.23 1089.61C1038.79 1089.48 1039.41 1089.34 1040.09 1089.2C1045.43 1088.09 1048.38 1087.97 1052.04 1088.73C1053 1088.92 1053.88 1089.11 1054.67 1089.28C1054.69 1089.28 1054.7 1089.28 1054.71 1089.28C1053.92 1087.34 1048.9 1085.76 1043.79 1084.14C1038.91 1082.59 1033.93 1081.01 1032.5 1079.08C1026.2 1070.59 1021.22 1062.05 1018.21 1052.08ZM1064.48 1010.25C1065.18 1012.49 1065.54 1015.37 1065.69 1018.95C1066.5 1038.94 1070.1 1051.75 1078.66 1065.1C1081.66 1069.78 1081.79 1069.98 1077.61 1073.52C1062.96 1052.71 1061.61 1028.27 1064.48 1010.25ZM923.12 1191.41C922.446 1191.25 921.871 1192.33 921.496 1195.08C918.496 1217.08 904.732 1216.03 886.496 1200.58C868.608 1185.42 862.942 1163.1 860.787 1148.78C859.714 1169.9 868.899 1192.78 889.681 1206.89C899.21 1213.36 926.404 1224.77 926.404 1222.3C926.404 1222.15 925.504 1218.51 924.404 1214.2C922.577 1207.06 922.205 1199.2 923.12 1191.41ZM935.095 1159.84C935.476 1159.32 935.864 1158.82 936.261 1158.33C939.385 1154.45 939.385 1154.45 931.542 1146.17L931.542 1146.17C919.921 1133.89 913.629 1120.69 911.896 1104.95C911.858 1104.61 911.823 1104.28 911.79 1103.97C912.44 1127.94 924.467 1149.18 935.095 1159.84Z" fill="black"/>
<path d="M1505 1632.58C1505 1620.43 1515.07 1610.58 1527.5 1610.58C1539.93 1610.58 1550 1620.43 1550 1632.58C1550 1644.73 1539.93 1654.58 1527.5 1654.58C1515.07 1654.58 1505 1644.73 1505 1632.58Z" fill="#F1F1F1"/>
<path d="M720 1632.58C720 1620.43 730.074 1610.58 742.5 1610.58C754.926 1610.58 765 1620.43 765 1632.58C765 1644.73 754.926 1654.58 742.5 1654.58C730.074 1654.58 720 1644.73 720 1632.58Z" fill="#F1F1F1"/>
<path d="M780 1652.58C780 1649.26 777.09 1646.58 773.5 1646.58C769.91 1646.58 767 1649.26 767 1652.58C767 1655.89 769.91 1658.58 773.5 1658.58C777.09 1658.58 780 1655.89 780 1652.58Z" fill="#F1F1F1"/>
</svg>
