<svg width="128" height="128" viewBox="0 0 128 128" fill="none" xmlns="http://www.w3.org/2000/svg">
<rect width="128" height="128" fill="#303032"/>
<path d="M69.5565 19C54.3374 19 42 23.5048 42 29.0617C42 34.6187 54.3374 39.1235 69.5565 39.1235C78.0857 39.1235 85 37.2165 85 34.8642C85 32.5119 78.0857 30.6049 69.5565 30.6049C54.3374 30.6049 42 35.1097 42 40.6667C42 46.2236 54.3374 50.7285 69.5565 50.7285C78.0857 50.7285 85 48.8215 85 46.4691C85 44.1168 78.0857 42.2099 69.5565 42.2099C54.3374 42.2099 42 46.7423 42 52.3333C42 57.9243 54.3374 62.4569 69.5565 62.4569C78.0857 62.4569 85 60.5499 85 58.1975C85 55.8451 78.0857 53.9384 69.5565 53.9384C54.3374 53.9384 42 58.443 42 64C42 69.557 54.3374 74.0616 69.5565 74.0616C78.0857 74.0616 85 72.1549 85 69.8025C85 67.4501 78.0857 65.5431 69.5565 65.5431C54.3374 65.5431 42 70.0481 42 75.605C42 81.162 54.3374 85.6666 69.5565 85.6666C78.0857 85.6666 85 83.7596 85 81.4076C85 79.0552 78.0857 77.1481 69.5565 77.1481C54.3374 77.1481 42 81.6531 42 87.2097C42 92.7667 54.3374 97.2717 69.5565 97.2717C78.0857 97.2717 85 95.3646 85 93.0122C85 90.6602 78.0857 88.7532 69.5565 88.7532C54.3374 88.7532 42 93.2854 42 98.8764C42 104.467 54.3374 109 69.5565 109" stroke="#FBFF49" stroke-width="3" stroke-linecap="round"/>
</svg>
