<svg width="512" height="512" viewBox="0 0 512 512" fill="none" xmlns="http://www.w3.org/2000/svg">
<rect width="512" height="512" fill="#FEEBD6"/>
<mask id="mask0_2840_14789" style="mask-type:luminance" maskUnits="userSpaceOnUse" x="153" y="98" width="207" height="316">
<path d="M359.367 98H153V414H359.367V98Z" fill="white"/>
</mask>
<g mask="url(#mask0_2840_14789)">
<path fill-rule="evenodd" clip-rule="evenodd" d="M251.822 98.2219C210.016 102.34 208.544 164.227 250.087 171.153C251.969 171.466 252.565 171.631 252.609 171.85C252.64 172.007 252.488 175.128 252.273 178.784C252.057 182.441 251.785 189.632 251.668 194.763C251.552 199.895 251.415 204.123 251.365 204.16C251.315 204.196 250.636 204.539 249.856 204.922C248.396 205.64 246.475 207.216 245.703 208.33C245.27 208.955 245.27 208.955 242.611 209.042C238.412 209.179 235.852 210.206 233.528 212.684C232.884 213.371 232.294 213.858 232.216 213.767C232.138 213.677 229.715 210.108 226.831 205.838C223.948 201.567 220.675 196.758 219.557 195.152L217.524 192.23L218.717 190.908C240.961 166.263 209.857 129.144 183.407 148.771C157.08 168.307 180.676 209.288 210.947 196.6C211.071 196.548 213.32 199.359 216.266 203.25C219.072 206.958 222.578 211.529 224.056 213.408C225.534 215.288 226.868 217.013 227.021 217.244C227.334 217.716 227.435 217.647 225.742 218.112C221.047 219.402 216.621 223.298 215.743 226.914C215.628 227.389 215.439 227.78 215.324 227.783C207.39 227.994 201.319 233.886 201.233 241.458C201.204 244.034 201.204 244.034 200.124 244.675C190.29 250.511 176.949 270.089 175.997 280.083C175.856 281.56 175.912 281.511 173.966 281.843C169.575 282.593 167.01 284.178 164.305 287.813C160.88 292.418 160.564 296.376 163.176 301.964C164.06 303.859 164.109 303.523 162.651 305.578C147.23 327.299 150.443 352.788 171.189 373.324C184.758 386.755 203.804 394.944 225.158 396.524C233.312 397.128 234.245 397.434 236.345 400.201C250.154 418.384 262.073 418.384 275.881 400.201C277.982 397.434 278.915 397.128 287.068 396.524C318.986 394.162 345.69 376.667 355.7 351.558C362.081 335.554 360.056 320.359 349.571 305.563C348.117 303.51 348.167 303.855 349.051 301.964C351.662 296.376 351.346 292.418 347.922 287.813C345.217 284.178 342.652 282.593 338.261 281.843C336.315 281.511 336.371 281.56 336.23 280.083C335.918 276.806 332.41 268.397 329.063 262.899C324.95 256.144 316.959 247.557 312.103 244.675C311.023 244.034 311.023 244.034 310.993 241.458C310.908 233.886 304.836 227.994 296.903 227.783C296.787 227.78 296.598 227.389 296.483 226.914C295.606 223.298 291.18 219.402 286.485 218.112C284.792 217.647 284.893 217.716 285.206 217.244C285.358 217.013 286.693 215.288 288.171 213.408C289.649 211.529 293.154 206.958 295.961 203.25C298.907 199.359 301.155 196.548 301.28 196.6C331.55 209.288 355.147 168.307 328.819 148.771C302.37 129.144 271.266 166.263 293.51 190.908L294.703 192.23L292.67 195.152C291.552 196.758 288.278 201.567 285.395 205.838C282.512 210.108 280.089 213.677 280.011 213.767C279.932 213.858 279.343 213.371 278.698 212.684C276.374 210.206 273.815 209.179 269.616 209.042C266.957 208.955 266.957 208.955 266.53 208.339C265.411 206.725 262.833 204.891 260.748 204.226C259.812 203.928 259.812 203.928 259.835 192.965C259.847 186.936 259.816 179.654 259.766 176.784L259.675 171.565L262.14 171.153C308.863 163.35 298.991 93.5753 251.822 98.2219ZM250.673 107.255C234.644 110.15 224.109 124.971 226.985 139.476C227.192 140.522 227.469 141.566 227.819 142.605C236.195 167.462 276.032 167.462 284.408 142.605C284.762 141.555 285.041 140.505 285.251 139.457C288.921 121.086 270.945 103.593 250.673 107.255ZM196.851 152.757C185.013 154.946 178.007 166.957 180.926 177.142C181.488 179.1 182.416 180.99 183.747 182.731C193.165 195.043 210.122 193.801 217.109 180.287C217.721 179.104 218.188 177.899 218.522 176.687C222.052 163.867 210.647 150.207 196.851 152.757ZM309.012 152.768C297.203 154.877 291.083 166.401 293.72 176.669C294.601 180.101 296.46 183.393 299.412 186.146C307.903 194.066 320.985 192.529 328.48 182.731C329.812 180.988 330.736 179.124 331.298 177.209C334.938 164.788 323.331 150.21 309.012 152.768ZM254.126 210.092C248.348 211.112 246.481 216.46 249.556 223.191C250.471 225.195 250.471 225.195 251.876 225.21C253.138 225.223 253.425 225.297 254.697 225.94C256.113 226.655 256.113 226.655 257.53 225.94C258.801 225.297 259.089 225.223 260.35 225.21C261.755 225.195 261.755 225.195 262.67 223.191C266.442 214.925 262.344 208.643 254.126 210.092ZM239.303 215.383C234.568 216.646 233.202 222.39 236.205 228.409C237.449 230.901 237.202 230.705 238.708 230.395C239.683 230.194 240.221 230.173 240.89 230.309C243.084 230.756 242.815 230.829 243.746 229.54C244.208 228.899 244.977 228.049 245.455 227.65C246.323 226.925 246.323 226.925 245.75 226.042C244.187 223.633 243.529 221.319 243.381 217.71C243.27 214.994 242.472 214.538 239.303 215.383ZM268.846 217.689C268.698 221.321 268.043 223.628 266.477 226.042C265.904 226.925 265.904 226.925 266.772 227.65C267.25 228.049 268.019 228.899 268.481 229.54C269.412 230.829 269.143 230.756 271.337 230.309C272.006 230.173 272.544 230.194 273.519 230.395C275.024 230.705 274.778 230.901 276.021 228.409C279.532 221.374 277.236 215.431 270.91 215.173L268.953 215.093L268.846 217.689ZM226.345 222.463C219.269 224.294 216.754 232.764 221.537 238.657C222.677 240.061 222.6 240.037 223.74 239.356C225.512 238.298 227.509 237.957 229.837 238.316C230.681 238.446 230.681 238.446 230.895 237.607C231.254 236.196 232.311 234.356 233.458 233.144C234.548 231.991 234.548 231.991 233.805 231.013C232.184 228.88 230.742 224.804 230.729 222.315C230.728 222.079 227.393 222.192 226.345 222.463ZM281.498 222.315C281.484 224.804 280.043 228.88 278.421 231.013C277.678 231.991 277.678 231.991 278.769 233.144C279.916 234.356 280.973 236.196 281.332 237.607C281.546 238.446 281.546 238.446 282.389 238.316C284.718 237.957 286.715 238.298 288.487 239.356C289.627 240.037 289.55 240.061 290.69 238.657C294.676 233.746 293.487 225.92 288.381 223.449C286.189 222.388 281.501 221.616 281.498 222.315ZM249.033 230.933C244.062 233.221 243.611 238.8 247.881 245.177C249.194 247.138 249.194 247.138 249.705 246.34C252.426 242.098 259.801 242.098 262.521 246.34C263.261 247.494 266.241 243.096 266.998 239.731C268.349 233.727 262.425 227.62 259.076 231.565C258.363 232.404 257.488 233.945 257.143 234.969C256.473 236.952 255.754 236.952 255.084 234.969C254.549 233.384 253.421 231.674 252.39 230.888C251.658 230.329 250.305 230.347 249.033 230.933ZM213.744 232.151C204.714 233.324 203.064 246.159 211.238 251.647C212.978 252.815 217.944 254.876 217.944 254.429C217.944 254.402 217.78 253.744 217.579 252.967C216.723 249.655 217.617 245.488 219.745 242.878C220.315 242.178 220.315 242.178 218.883 240.682C216.76 238.465 215.612 236.082 215.295 233.239C215.146 231.899 215.23 231.958 213.744 232.151ZM297.106 232.185C297.071 232.293 296.954 232.97 296.848 233.69C296.424 236.541 295.406 238.553 293.267 240.767C291.908 242.173 291.908 242.173 292.48 242.875C294.61 245.488 295.504 249.654 294.647 252.967C294.446 253.744 294.282 254.402 294.282 254.429C294.282 254.876 299.249 252.815 300.989 251.647C308.23 246.784 308.105 236.199 300.765 232.815C299.555 232.257 297.214 231.854 297.106 232.185ZM238.691 234.479C232.947 235.297 231.776 244.62 236.631 250.882C237.051 251.424 237.45 251.947 237.517 252.045C237.591 252.15 237.925 252.028 238.339 251.746C240.679 250.15 243.51 249.803 247.786 250.589C247.928 250.615 248.703 248.707 248.579 248.637C243.929 245.98 241.275 241.263 241.543 236.131C241.62 234.643 241.62 234.643 240.968 234.535C240.61 234.476 240.193 234.404 240.042 234.377C239.892 234.349 239.284 234.395 238.691 234.479ZM272.093 234.38C271.993 234.407 271.617 234.477 271.258 234.536C270.606 234.643 270.606 234.643 270.684 236.131C270.952 241.263 268.298 245.98 263.647 248.637C263.523 248.707 264.298 250.615 264.44 250.589C268.717 249.803 271.548 250.15 273.887 251.746C274.301 252.028 274.636 252.15 274.709 252.045C274.777 251.947 275.176 251.424 275.596 250.882C279.164 246.279 279.599 238.478 276.44 235.729C275.462 234.878 273.039 234.126 272.093 234.38ZM227.04 241.934C220 243.808 219.507 253.427 226.135 259.585C230.925 264.035 226.247 262.992 221.029 258.446C219.614 257.213 219.614 257.213 218.536 257.325C214.133 257.78 207.35 253.93 203.733 248.923C202.898 247.767 202.898 247.767 202.368 248.381C194.848 257.072 190.568 264.855 185.694 278.698C184.488 282.125 184.476 281.858 185.848 282.116C209.266 286.511 224.718 311.181 225.199 344.942C225.304 352.315 225.118 351.872 227.712 350.914C229.296 350.327 229.616 349.881 230.91 346.473C236.832 330.876 241.817 324.691 250.168 322.58C251.896 322.143 251.846 322.176 251.993 321.397C252.327 319.639 254.205 315.034 254.881 314.316C256.513 312.584 259.248 316.203 260.233 321.397C260.381 322.176 260.33 322.143 262.059 322.58C270.41 324.691 275.395 330.876 281.316 346.473C282.61 349.881 282.931 350.327 284.515 350.914C287.109 351.872 286.922 352.315 287.028 344.942C287.509 311.179 302.959 286.511 326.379 282.116C327.751 281.858 327.739 282.125 326.533 278.698C321.659 264.855 317.379 257.072 309.859 248.381C309.328 247.767 309.328 247.767 308.494 248.923C304.877 253.93 298.094 257.78 293.691 257.325C292.612 257.213 292.612 257.213 291.198 258.446C285.98 262.992 281.301 264.035 286.092 259.585C290.874 255.142 292.081 250.554 289.695 245.889C287.805 242.192 281.974 239.976 281.604 242.814C281.011 247.354 279.196 250.846 276.463 252.706C275.666 253.247 275.666 253.247 276.345 254.461C277.907 257.255 277.135 260.886 274.398 263.621C272.083 265.935 270.223 266.087 272.347 263.788C275.135 260.773 274.941 257.097 271.948 256.219C270.158 255.693 264.514 255.916 264.514 256.512C264.514 257.869 262.7 262.039 261.623 263.159C260.287 264.547 260.007 263.945 260.927 261.662C263.746 254.668 261.397 248.002 256.113 248.002C250.83 248.002 248.481 254.668 251.299 261.662C252.219 263.945 251.94 264.547 250.604 263.159C249.527 262.039 247.713 257.869 247.713 256.512C247.713 255.916 242.069 255.693 240.279 256.219C237.286 257.097 237.092 260.773 239.879 263.788C242.004 266.087 240.144 265.935 237.828 263.621C235.091 260.886 234.32 257.255 235.882 254.461C236.56 253.247 236.56 253.247 235.764 252.706C233.033 250.848 231.215 247.353 230.624 242.825C230.527 242.081 230.424 241.872 230.113 241.79C229.472 241.619 227.954 241.691 227.04 241.934ZM176.698 286.636C165.922 288.328 167.543 300.065 179.911 309.899C183.837 313.021 183.908 313.064 190.185 316.262C213.327 328.052 219.405 335.296 219.405 351.091C219.405 352.176 220.185 352.508 221.278 351.887C221.474 351.775 221.443 344.22 221.229 340.182C220.224 321.222 212.542 303.499 201.53 294.738C194.245 288.942 183.774 285.525 176.698 286.636ZM329.985 286.576C310.001 288.68 294.806 307.587 291.457 334.516C290.924 338.803 290.548 351.658 290.949 351.887C292.042 352.508 292.821 352.176 292.821 351.091C292.821 335.294 298.896 328.053 322.041 316.262C328.319 313.064 328.39 313.021 332.316 309.899C347.139 298.115 345.818 284.909 329.985 286.576ZM168.87 310.704C160.464 319.765 157.986 338.48 163.426 351.829C171.062 370.569 196.044 387.991 218.036 389.914C228.002 390.784 230.264 390.636 229.311 389.168C227.748 386.764 222.389 377.015 219.259 370.88C218.448 369.29 217.19 367.057 216.462 365.914C213.196 360.784 212.957 357.055 215.706 354.15C217.334 352.429 216.311 344.29 213.85 339.368C212.632 336.934 212.716 336.959 211.558 338.693C198.234 358.633 171.051 343.373 171.602 316.264C171.686 312.127 171.686 312.127 170.533 311.212C169.187 310.146 169.344 310.193 168.87 310.704ZM341.655 311.224C340.541 312.127 340.541 312.127 340.624 316.264C341.176 343.373 313.992 358.631 300.669 338.693C299.511 336.959 299.594 336.934 298.377 339.368C295.916 344.29 294.893 352.429 296.521 354.15C299.27 357.055 299.03 360.784 295.764 365.914C295.037 367.057 293.779 369.29 292.968 370.88C289.837 377.015 284.479 386.764 282.916 389.168C281.957 390.645 281.688 390.574 287.301 390.315C299.005 389.774 303.873 388.705 313.366 384.592C347.692 369.724 361.65 338.136 344.996 313.015C342.938 309.91 343.141 310.02 341.655 311.224ZM176.225 315.58C174.455 321.388 177.958 332.337 183.384 337.952C185.069 339.695 185.17 339.706 184.497 338.072C181.792 331.499 182.784 323.348 186.604 320.76C187.311 320.281 186.02 319.478 181.054 317.308C179.899 316.802 178.401 316.116 177.726 315.782C176.268 315.059 176.378 315.076 176.225 315.58ZM334.734 315.663C334.231 315.921 332.67 316.645 331.264 317.271C325.837 319.684 324.894 320.267 325.62 320.758C329.443 323.348 330.436 331.495 327.73 338.072C327.056 339.706 327.158 339.695 328.842 337.952C334.268 332.337 337.772 321.388 336.002 315.58C335.851 315.083 335.858 315.083 334.734 315.663ZM253.952 326.741C246.964 327.978 240.423 335.466 235.351 348.037C232.808 354.341 231.485 355.253 223.058 356.521C217.512 357.355 217.147 358.691 220.958 364.189C223.714 368.165 227.079 373.658 230.634 379.978C236.988 391.277 239.332 395.024 242.563 399.049C253.706 412.933 263.23 410.656 275.044 391.284C277.371 387.47 277.661 386.968 281.592 379.978C285.147 373.658 288.513 368.165 291.269 364.189C295.08 358.691 294.714 357.355 289.169 356.521C280.741 355.253 279.419 354.341 276.876 348.037C270.761 332.882 262.518 325.224 253.952 326.741ZM235.386 356.629C233.679 357.508 233.063 359.197 233.858 360.82C234.488 362.106 236.223 362.747 237.291 362.088C237.585 361.907 237.806 361.974 238.704 362.517C241.912 364.457 243.135 364.081 242.138 361.461C240.616 357.463 237.748 355.412 235.386 356.629ZM273.702 356.71C271.743 357.694 269.239 361.9 269.854 363.175C270.298 364.096 271.17 363.94 273.523 362.517C274.42 361.974 274.642 361.907 274.936 362.088C276.004 362.747 277.739 362.106 278.369 360.82C279.73 358.041 276.577 355.264 273.702 356.71Z" fill="#22110C"/>
<path d="M272.093 234.38C271.993 234.407 271.617 234.477 271.258 234.536C270.606 234.643 270.606 234.643 270.684 236.131C270.951 241.263 268.298 245.98 263.647 248.637C263.524 248.707 264.298 250.615 264.44 250.589C268.717 249.803 271.548 250.15 273.887 251.746C274.301 252.028 274.636 252.15 274.709 252.045C274.777 251.947 275.176 251.424 275.596 250.882C279.164 246.279 279.599 238.478 276.44 235.729C275.463 234.878 273.039 234.126 272.093 234.38Z" fill="#2430F0"/>
<path d="M297.106 232.185C297.071 232.293 296.954 232.97 296.848 233.69C296.424 236.541 295.406 238.553 293.267 240.767C291.908 242.173 291.908 242.173 292.48 242.875C294.609 245.488 295.504 249.655 294.647 252.967C294.446 253.744 294.282 254.402 294.282 254.429C294.282 254.876 299.248 252.815 300.988 251.647C308.23 246.784 308.105 236.199 300.765 232.815C299.555 232.257 297.214 231.854 297.106 232.185Z" fill="#2430F0"/>
<path d="M281.497 222.315C281.484 224.804 280.043 228.88 278.421 231.013C277.678 231.991 277.678 231.991 278.769 233.143C279.916 234.355 280.973 236.196 281.332 237.607C281.546 238.446 281.546 238.446 282.389 238.316C284.718 237.957 286.715 238.297 288.487 239.356C289.627 240.037 289.55 240.061 290.69 238.657C294.676 233.746 293.487 225.92 288.381 223.449C286.188 222.387 281.501 221.616 281.497 222.315Z" fill="#2430F0"/>
<path d="M268.846 217.689C268.698 221.321 268.043 223.628 266.477 226.042C265.904 226.925 265.904 226.925 266.772 227.65C267.25 228.049 268.019 228.899 268.481 229.54C269.412 230.829 269.143 230.756 271.337 230.309C272.006 230.173 272.544 230.194 273.519 230.395C275.024 230.706 274.778 230.901 276.021 228.409C279.532 221.374 277.236 215.431 270.91 215.173L268.953 215.094L268.846 217.689Z" fill="#2430F0"/>
<path d="M254.127 210.092C248.347 211.112 246.481 216.46 249.556 223.191C250.471 225.196 250.471 225.196 251.876 225.21C253.138 225.223 253.425 225.297 254.697 225.94C256.113 226.655 256.113 226.655 257.53 225.94C258.801 225.297 259.089 225.223 260.35 225.21C261.755 225.196 261.755 225.196 262.67 223.191C266.442 214.926 262.344 208.643 254.127 210.092Z" fill="#2430F0"/>
<path d="M249.033 230.933C244.062 233.221 243.611 238.799 247.88 245.177C249.194 247.138 249.194 247.138 249.705 246.34C252.426 242.098 259.8 242.098 262.521 246.34C263.261 247.494 266.241 243.095 266.998 239.731C268.349 233.727 262.425 227.62 259.076 231.565C258.363 232.404 257.488 233.945 257.143 234.969C256.473 236.952 255.753 236.952 255.084 234.969C254.549 233.384 253.42 231.674 252.39 230.888C251.658 230.329 250.305 230.347 249.033 230.933Z" fill="#2430F0"/>
<path d="M238.691 234.479C232.947 235.297 231.776 244.62 236.631 250.882C237.05 251.424 237.45 251.947 237.517 252.045C237.591 252.15 237.925 252.028 238.339 251.746C240.679 250.15 243.51 249.803 247.786 250.589C247.928 250.615 248.703 248.707 248.579 248.636C243.929 245.979 241.275 241.263 241.542 236.131C241.62 234.643 241.62 234.643 240.968 234.535C240.61 234.475 240.193 234.404 240.042 234.376C239.892 234.349 239.283 234.395 238.691 234.479Z" fill="#2430F0"/>
<path d="M226.345 222.463C219.269 224.294 216.754 232.764 221.537 238.657C222.677 240.061 222.6 240.037 223.74 239.356C225.512 238.298 227.508 237.957 229.837 238.316C230.681 238.446 230.681 238.446 230.895 237.607C231.254 236.196 232.311 234.356 233.458 233.144C234.548 231.991 234.548 231.991 233.805 231.013C232.184 228.881 230.742 224.804 230.729 222.315C230.728 222.079 227.393 222.192 226.345 222.463Z" fill="#2430F0"/>
<path d="M239.303 215.383C234.568 216.646 233.202 222.39 236.206 228.409C237.449 230.901 237.203 230.705 238.708 230.395C239.683 230.194 240.221 230.173 240.89 230.309C243.084 230.756 242.815 230.829 243.746 229.539C244.208 228.899 244.977 228.049 245.455 227.65C246.323 226.925 246.323 226.925 245.75 226.042C244.187 223.633 243.529 221.319 243.381 217.71C243.27 214.993 242.472 214.538 239.303 215.383Z" fill="#2430F0"/>
<path d="M213.744 232.152C204.714 233.325 203.064 246.159 211.238 251.647C212.978 252.815 217.945 254.876 217.945 254.429C217.945 254.402 217.78 253.744 217.58 252.967C216.723 249.656 217.617 245.488 219.745 242.878C220.315 242.178 220.315 242.178 218.883 240.682C216.761 238.465 215.612 236.082 215.295 233.24C215.146 231.899 215.23 231.958 213.744 232.152Z" fill="#2430F0"/>
<path d="M329.985 286.576C310.002 288.68 294.806 307.587 291.457 334.516C290.924 338.803 290.548 351.658 290.949 351.887C292.042 352.508 292.821 352.176 292.821 351.091C292.821 335.294 298.896 328.053 322.041 316.262C328.319 313.064 328.39 313.021 332.316 309.899C347.139 298.115 345.818 284.909 329.985 286.576Z" fill="#2BE1B7"/>
<path d="M341.654 311.224C340.54 312.127 340.54 312.127 340.624 316.264C341.176 343.373 313.992 358.631 300.669 338.693C299.51 336.959 299.594 336.934 298.377 339.368C295.915 344.29 294.893 352.429 296.521 354.15C299.27 357.055 299.03 360.784 295.764 365.914C295.037 367.057 293.779 369.291 292.968 370.88C289.837 377.015 284.479 386.764 282.916 389.168C281.957 390.645 281.688 390.574 287.301 390.315C299.004 389.774 303.873 388.705 313.366 384.592C347.692 369.724 361.65 338.136 344.996 313.015C342.938 309.91 343.141 310.02 341.654 311.224Z" fill="#2BE1B7"/>
<path d="M168.87 310.704C160.464 319.765 157.986 338.479 163.426 351.829C171.062 370.569 196.044 387.991 218.036 389.914C228.001 390.784 230.264 390.636 229.311 389.168C227.747 386.764 222.389 377.015 219.259 370.879C218.448 369.29 217.189 367.057 216.462 365.914C213.196 360.784 212.957 357.055 215.706 354.15C217.333 352.429 216.311 344.29 213.849 339.368C212.632 336.934 212.716 336.959 211.558 338.693C198.234 358.633 171.051 343.373 171.602 316.264C171.686 312.127 171.686 312.127 170.532 311.212C169.186 310.146 169.344 310.193 168.87 310.704Z" fill="#2BE1B7"/>
<path d="M176.698 286.636C165.921 288.328 167.542 300.065 179.91 309.899C183.836 313.021 183.908 313.064 190.185 316.263C213.326 328.052 219.405 335.296 219.405 351.091C219.405 352.176 220.185 352.509 221.277 351.887C221.474 351.775 221.443 344.22 221.229 340.183C220.224 321.223 212.542 303.5 201.529 294.738C194.245 288.942 183.773 285.526 176.698 286.636Z" fill="#2BE1B7"/>
<path d="M227.04 241.934C220 243.808 219.507 253.427 226.135 259.585C230.925 264.035 226.246 262.992 221.029 258.446C219.614 257.213 219.614 257.213 218.536 257.325C214.133 257.78 207.35 253.93 203.733 248.923C202.898 247.767 202.898 247.767 202.367 248.381C194.848 257.072 190.568 264.855 185.694 278.698C184.488 282.125 184.476 281.858 185.848 282.116C209.266 286.511 224.718 311.181 225.199 344.942C225.304 352.315 225.118 351.872 227.712 350.914C229.295 350.327 229.616 349.881 230.91 346.473C236.831 330.876 241.816 324.691 250.168 322.58C251.896 322.143 251.846 322.176 251.993 321.397C252.327 319.639 254.205 315.034 254.881 314.316C256.513 312.584 259.247 316.202 260.233 321.397C260.381 322.176 260.33 322.143 262.059 322.58C270.41 324.691 275.395 330.876 281.316 346.473C282.61 349.881 282.931 350.327 284.515 350.914C287.109 351.872 286.922 352.315 287.027 344.942C287.509 311.179 302.959 286.511 326.378 282.116C327.751 281.858 327.739 282.125 326.533 278.698C321.659 264.855 317.379 257.072 309.859 248.381C309.328 247.767 309.328 247.767 308.493 248.923C304.877 253.93 298.094 257.78 293.69 257.325C292.612 257.213 292.612 257.213 291.198 258.446C285.98 262.992 281.301 264.035 286.092 259.585C290.874 255.142 292.081 250.554 289.695 245.889C287.805 242.192 281.974 239.976 281.603 242.814C281.011 247.354 279.196 250.846 276.462 252.706C275.666 253.247 275.666 253.247 276.345 254.461C277.907 257.255 277.135 260.886 274.398 263.621C272.083 265.935 270.223 266.087 272.347 263.788C275.135 260.773 274.941 257.097 271.948 256.219C270.158 255.693 264.514 255.916 264.514 256.512C264.514 257.869 262.7 262.039 261.623 263.159C260.287 264.547 260.007 263.945 260.927 261.663C263.746 254.668 261.396 248.002 256.113 248.002C250.83 248.002 248.481 254.668 251.299 261.663C252.219 263.945 251.939 264.547 250.604 263.159C249.527 262.039 247.712 257.869 247.712 256.512C247.712 255.916 242.069 255.693 240.278 256.219C237.285 257.097 237.092 260.773 239.879 263.788C242.004 266.087 240.144 265.935 237.828 263.621C235.091 260.886 234.32 257.255 235.882 254.461C236.56 253.247 236.56 253.247 235.764 252.706C233.033 250.848 231.215 247.353 230.624 242.825C230.527 242.081 230.424 241.872 230.113 241.79C229.472 241.619 227.954 241.691 227.04 241.934Z" fill="#2430F0"/>
<path fill-rule="evenodd" clip-rule="evenodd" d="M253.952 326.741C246.964 327.978 240.423 335.466 235.351 348.037C232.808 354.341 231.486 355.253 223.058 356.521C217.513 357.355 217.147 358.691 220.958 364.189C223.714 368.165 227.08 373.658 230.635 379.978C236.987 391.277 239.332 395.024 242.563 399.049C253.706 412.933 263.23 410.656 275.044 391.284C277.371 387.471 277.661 386.968 281.592 379.978C285.147 373.658 288.513 368.165 291.269 364.189C295.08 358.691 294.715 357.355 289.169 356.521C280.741 355.253 279.419 354.341 276.876 348.037C270.761 332.882 262.518 325.224 253.952 326.741ZM233.858 360.82C233.064 359.197 233.679 357.508 235.386 356.629C237.748 355.412 240.616 357.463 242.138 361.461C243.135 364.081 241.912 364.457 238.704 362.517C237.806 361.974 237.585 361.907 237.291 362.088C236.223 362.747 234.488 362.106 233.858 360.82ZM269.854 363.175C269.239 361.9 271.744 357.694 273.701 356.71C276.577 355.264 279.73 358.041 278.369 360.82C277.739 362.106 276.004 362.747 274.936 362.088C274.642 361.907 274.421 361.974 273.523 362.517C271.17 363.94 270.298 364.096 269.854 363.175Z" fill="#F2C79C"/>
<path fill-rule="evenodd" clip-rule="evenodd" d="M218.522 176.687C216.092 167.634 208.523 160.503 198.238 162.405C190.078 163.914 182.826 170.114 180.927 177.142C181.488 179.1 182.416 180.99 183.747 182.731C193.165 195.043 210.123 193.801 217.109 180.287C217.721 179.104 218.188 177.899 218.522 176.687Z" fill="#2430F0"/>
<path fill-rule="evenodd" clip-rule="evenodd" d="M227.819 142.605C227.469 141.566 227.192 140.522 226.984 139.476C229.112 128.592 239.626 119.148 252.06 116.902C268.701 113.896 282.408 125.168 285.25 139.457C285.041 140.504 284.762 141.555 284.407 142.605C276.032 167.462 236.195 167.462 227.819 142.605Z" fill="#2430F0"/>
<path d="M309.012 152.768C297.203 154.877 291.083 166.401 293.72 176.669C295.464 169.787 302.281 163.865 310.399 162.415C321.04 160.514 328.797 168.1 331.298 177.209C334.938 164.788 323.331 150.21 309.012 152.768Z" fill="#2430F0"/>
<path d="M226.984 139.476C229.112 128.593 239.626 119.148 252.06 116.902C268.701 113.896 282.408 125.169 285.25 139.457C288.92 121.086 270.945 103.593 250.673 107.255C234.644 110.15 224.109 124.971 226.984 139.476Z" fill="#2430F0"/>
<path d="M198.238 162.405C208.522 160.503 216.092 167.634 218.522 176.687C222.052 163.867 210.647 150.207 196.851 152.757C185.013 154.946 178.007 166.957 180.926 177.142C182.826 170.113 190.077 163.914 198.238 162.405Z" fill="#2430F0"/>
<path d="M299.412 186.146C307.903 194.066 320.985 192.529 328.48 182.731C329.812 180.988 330.736 179.124 331.297 177.209C328.797 168.1 321.04 160.514 310.399 162.415C302.281 163.865 295.464 169.788 293.72 176.67C294.601 180.101 296.46 183.393 299.412 186.146Z" fill="#2430F0"/>
<path fill-rule="evenodd" clip-rule="evenodd" d="M231.399 129.67C236.044 123.291 243.615 118.431 252.076 116.902C264.736 114.615 275.698 120.593 281.47 129.875C282.57 128.781 283.576 127.668 284.408 126.578C280.114 113.867 266.061 104.478 250.689 107.255C240.068 109.173 231.86 116.327 228.366 125.155C229.122 126.596 230.189 128.141 231.399 129.67Z" fill="#F2C79C"/>
<path d="M231.399 129.67C235.523 134.885 241.297 139.906 241.993 139.906C242.52 139.906 245.431 137.11 248.455 134.207C251.72 131.07 255.117 127.808 255.781 127.808C256.42 127.808 259.16 130.833 261.899 133.857C264.639 136.882 267.378 139.906 268.017 139.906C268.832 139.906 276.223 135.094 281.47 129.875C275.698 120.593 264.736 114.615 252.076 116.902C243.616 118.43 236.044 123.291 231.399 129.67Z" fill="#2BE1B7"/>
<path d="M181.023 176.632C183.127 169.816 190.225 163.877 198.188 162.405C204.277 161.279 209.414 163.319 213.096 167.05C213.781 164.549 214.276 161.562 214.218 159.055C210.085 154.297 203.746 151.473 196.801 152.757C185.242 154.894 178.291 166.395 180.686 176.417C180.797 176.49 180.91 176.562 181.023 176.632Z" fill="#2BE1B7"/>
<path d="M181.023 176.632C185.502 179.429 191.607 180.65 193.216 179.723C194.461 179.004 195.038 175.382 195.173 171.651C195.276 168.816 195.368 166.278 195.92 165.81C196.531 165.293 199.49 166.975 202.625 168.758C206.062 170.712 209.944 172.416 210.947 171.85C211.664 171.445 212.37 169.706 213.096 167.05C209.414 163.319 204.276 161.279 198.187 162.405C190.224 163.877 183.127 169.816 181.023 176.632Z" fill="#2BE1B7"/>
<path fill-rule="evenodd" clip-rule="evenodd" d="M295.079 163.742C295.353 165.728 301.105 176.382 302.658 176.743C303.498 176.939 306.374 174.91 309.008 173.052C311.238 171.479 313.296 170.028 313.798 170.152C314.256 170.265 315.129 171.625 316.15 173.216C317.572 175.43 319.28 178.091 320.555 178.458C322.207 178.935 328.785 175.514 332.005 173.22C332.502 161.897 321.866 150.48 309.061 152.768C302.374 153.962 297.512 158.175 295.03 163.469C295.049 163.552 295.065 163.643 295.079 163.742Z" fill="#2BE1B7"/>
<path d="M334.734 315.663C334.232 315.921 332.67 316.645 331.264 317.272C325.837 319.684 324.894 320.267 325.62 320.759C329.443 323.348 330.436 331.495 327.73 338.072C327.057 339.706 327.158 339.695 328.843 337.952C334.268 332.337 337.772 321.389 336.002 315.58C335.851 315.083 335.858 315.083 334.734 315.663Z" fill="#F1F1F1"/>
<path d="M176.225 315.579C174.455 321.388 177.958 332.336 183.384 337.952C185.069 339.695 185.17 339.706 184.497 338.071C181.792 331.499 182.784 323.347 186.604 320.76C187.311 320.281 186.02 319.478 181.054 317.307C179.899 316.802 178.401 316.116 177.726 315.781C176.268 315.059 176.379 315.076 176.225 315.579Z" fill="#F1F1F1"/>
<path d="M322.842 332.125C322.842 331.526 322.311 331.042 321.655 331.042C321 331.042 320.468 331.526 320.468 332.125C320.468 332.723 321 333.209 321.655 333.209C322.311 333.209 322.842 332.723 322.842 332.125Z" fill="#F1F1F1"/>
<path opacity="0.2" fill-rule="evenodd" clip-rule="evenodd" d="M283.623 144.654C273.463 155.844 253.268 162.001 230.192 147.752C241.602 166.725 274.558 165.693 283.623 144.654ZM214.197 184.616C203.502 189.039 188.981 184.511 181.888 179.688C182.386 180.74 183.004 181.758 183.747 182.731C192.036 193.567 206.165 193.904 214.197 184.616ZM330.133 180.123C323.984 185.84 311.534 189.905 296.991 183.458C297.696 184.398 298.502 185.297 299.412 186.146C307.904 194.066 320.985 192.529 328.48 182.731C329.125 181.887 329.675 181.015 330.133 180.123Z" fill="black"/>
<path d="M226.984 139.476C229.112 128.592 239.626 119.148 252.06 116.902C268.701 113.896 282.408 125.169 285.25 139.457C288.92 121.086 270.945 103.593 250.673 107.255C234.644 110.15 224.109 124.971 226.984 139.476Z" fill="#2430F0"/>
<path fill-rule="evenodd" clip-rule="evenodd" d="M231.399 129.67C236.044 123.291 243.615 118.43 252.076 116.902C264.736 114.615 275.698 120.593 281.47 129.875C282.57 128.781 283.576 127.668 284.408 126.578C280.114 113.867 266.061 104.478 250.689 107.255C240.068 109.173 231.86 116.327 228.366 125.155C229.122 126.596 230.189 128.141 231.399 129.67Z" fill="#2BE1B7"/>
<g opacity="0.2">
<g style="mix-blend-mode:hard-light">
<path fill-rule="evenodd" clip-rule="evenodd" d="M263.436 214.008C262.101 210.925 258.772 209.273 254.126 210.092C251.383 210.577 249.522 212.036 248.652 214.156C250.482 212.661 253.721 212.173 256.138 212.122C258.474 212.171 261.577 212.629 263.436 214.008ZM243.098 215.96C240.835 216.304 236.703 217.392 234.907 219.896C235.506 217.659 237.009 215.995 239.303 215.383C241.599 214.771 242.65 214.841 243.098 215.96ZM230.756 222.909C230.74 222.703 230.73 222.504 230.729 222.315C230.728 222.079 227.393 222.193 226.345 222.463C222.759 223.391 220.344 226.025 219.458 229.163C221.856 225.81 226.322 223.014 230.756 222.909ZM205.96 241.177C207.02 237.612 210.969 233.894 214.18 233.894C214.634 233.894 215.029 233.869 215.373 233.825C215.343 233.632 215.317 233.437 215.295 233.239C215.288 233.173 215.281 233.11 215.274 233.051C215.217 232.524 215.188 232.253 215.036 232.131C214.874 232.002 214.574 232.042 213.953 232.124C213.887 232.133 213.817 232.142 213.744 232.151C208.898 232.781 206.178 236.769 205.96 241.177ZM254.11 232.923C252.248 231.493 249.492 230.927 245.622 234.128C246.275 232.771 247.414 231.678 249.032 230.933C250.305 230.347 251.658 230.329 252.39 230.888C252.974 231.333 253.589 232.075 254.11 232.923ZM266.087 233.679C264.416 230.632 261.219 229.041 259.076 231.565C258.763 231.933 258.419 232.437 258.103 232.972C259.874 231.578 262.47 230.953 266.087 233.679ZM241.573 235.487C241.601 234.64 241.508 234.625 240.968 234.535C240.61 234.476 240.193 234.404 240.042 234.377C239.892 234.349 239.283 234.395 238.691 234.479C235.87 234.881 234.152 237.335 233.709 240.47C234.826 236.883 239.036 235.208 241.573 235.487ZM281.708 242.402C282.586 240.217 287.906 242.389 289.695 245.889C290.193 246.861 290.534 247.83 290.719 248.796C289.348 244.985 285.031 243.239 281.708 242.402ZM264.51 256.638C264.513 256.594 264.514 256.552 264.514 256.512C264.514 255.916 270.158 255.693 271.948 256.219C272.797 256.468 273.42 256.941 273.814 257.561C272.101 256.066 268.375 256.344 264.51 256.638ZM251.538 250.461C252.576 248.932 254.14 248.002 256.113 248.002C258.049 248.002 259.591 248.897 260.629 250.375C259.336 249.377 257.565 248.865 256.138 248.732C254.671 248.868 252.84 249.407 251.538 250.461ZM238.349 257.665C238.739 256.994 239.383 256.481 240.278 256.219C242.069 255.693 247.713 255.916 247.713 256.512C247.713 256.551 247.714 256.591 247.717 256.634C243.783 256.335 240 256.06 238.349 257.665ZM230.557 242.405C227.16 243.262 222.728 245.07 221.467 249.061C221.671 245.693 223.551 242.863 227.04 241.934C227.954 241.691 229.472 241.619 230.113 241.79C230.355 241.854 230.472 241.995 230.557 242.405ZM277.368 219.895C276.596 217.133 274.348 215.313 270.91 215.173L268.952 215.094L268.918 215.923C271.109 216.219 275.501 217.292 277.368 219.895ZM292.713 229.018C292.076 226.603 290.598 224.522 288.381 223.449C286.188 222.388 281.501 221.616 281.497 222.315C281.497 222.504 281.488 222.702 281.47 222.908C285.857 222.992 290.282 225.718 292.713 229.018ZM306.331 241.225C305.292 237.646 301.322 233.894 298.097 233.894C297.609 233.894 297.189 233.865 296.829 233.815C296.835 233.774 296.842 233.732 296.848 233.69C296.954 232.97 297.071 232.293 297.106 232.185C297.214 231.854 299.555 232.257 300.765 232.815C304.285 234.438 306.145 237.716 306.331 241.225ZM278.461 240.158C278.22 238.295 277.553 236.698 276.44 235.729C275.462 234.878 273.039 234.126 272.093 234.38C271.993 234.407 271.617 234.477 271.258 234.536C270.718 234.625 270.625 234.64 270.654 235.492C273.111 235.195 277.196 236.763 278.461 240.158Z" fill="white"/>
</g>
</g>
<g style="mix-blend-mode:hard-light">
<path fill-rule="evenodd" clip-rule="evenodd" d="M339.654 288.191C332.458 287.656 324.066 290.014 318.002 293.754C309.51 298.991 296.452 312.895 293.713 326.347C292.955 330.067 292.387 331.284 291.966 331.017C296.15 305.959 310.879 288.588 329.985 286.577C334.294 286.123 337.529 286.772 339.654 288.191Z" fill="white" fill-opacity="0.4"/>
</g>
<g style="mix-blend-mode:hard-light">
<path fill-rule="evenodd" clip-rule="evenodd" d="M172.199 288.362C179.582 287.555 188.417 289.951 194.73 293.845C203.222 299.081 216.28 312.985 219.019 326.438C219.449 328.547 219.818 329.85 220.133 330.537C217.48 315.385 210.646 301.992 201.53 294.738C194.245 288.942 183.774 285.526 176.698 286.636C174.828 286.93 173.331 287.526 172.199 288.362Z" fill="white" fill-opacity="0.4"/>
</g>
<g style="mix-blend-mode:hard-light">
<path fill-rule="evenodd" clip-rule="evenodd" d="M238.106 341.983C244.078 335.489 251.729 334.383 255.819 334.383C260.067 334.383 268.489 335.738 274.569 342.873C268.764 331.165 261.483 325.406 253.952 326.741C248.171 327.765 242.697 333.064 238.106 341.983Z" fill="white" fill-opacity="0.4"/>
</g>
<path opacity="0.2" fill-rule="evenodd" clip-rule="evenodd" d="M336.466 319.077C333.735 320.242 330.677 321.425 327.375 322.609C326.882 321.846 326.295 321.215 325.62 320.759C324.894 320.267 325.838 319.684 331.265 317.272C332.671 316.645 334.232 315.921 334.734 315.663L334.754 315.652C335.45 315.293 335.704 315.161 335.836 315.239C335.911 315.282 335.946 315.394 336 315.573L336.002 315.58C336.314 316.605 336.463 317.79 336.466 319.077ZM175.765 318.781C178.525 320.016 181.603 321.268 184.913 322.517C185.393 321.795 185.958 321.197 186.604 320.76C187.311 320.282 186.021 319.478 181.055 317.308C179.899 316.802 178.402 316.116 177.726 315.782C177.632 315.735 177.545 315.692 177.463 315.652C176.728 315.287 176.484 315.164 176.37 315.24C176.313 315.276 176.289 315.361 176.252 315.489C176.244 315.517 176.235 315.547 176.225 315.58C175.937 316.526 175.788 317.61 175.765 318.781Z" fill="black"/>
<path opacity="0.2" fill-rule="evenodd" clip-rule="evenodd" d="M215.254 363.812C214.671 370.007 216.819 376.936 217.811 380.134C217.98 380.678 218.115 381.115 218.198 381.422C218.905 384.045 211.215 388.195 183.007 375.482C193.422 383.321 206.165 388.876 218.036 389.914C228.001 390.784 230.264 390.636 229.311 389.168C227.747 386.764 222.389 377.016 219.259 370.88C218.448 369.291 217.189 367.057 216.463 365.914C215.999 365.186 215.596 364.486 215.254 363.812Z" fill="black"/>
<path opacity="0.2" fill-rule="evenodd" clip-rule="evenodd" d="M329.393 375.426C301.084 388.205 293.37 384.049 294.079 381.421C294.161 381.114 294.297 380.679 294.466 380.134C295.462 376.921 297.625 369.944 297.015 363.729C296.664 364.428 296.247 365.155 295.765 365.914C295.038 367.057 293.779 369.29 292.968 370.879C289.838 377.015 284.48 386.764 282.916 389.168C282.568 389.704 282.312 390.034 282.393 390.228C282.535 390.569 283.723 390.48 287.301 390.314C299.005 389.774 303.874 388.705 313.367 384.592C319.344 382.003 324.704 378.908 329.393 375.426Z" fill="black"/>
<path opacity="0.2" fill-rule="evenodd" clip-rule="evenodd" d="M229.037 377.173C235.209 387.041 237.71 390.593 241.083 394.39C253.425 408.285 263.974 406.006 277.061 386.618C279.512 382.989 279.922 382.357 283.704 376.284C283.01 377.478 282.305 378.713 281.592 379.978C277.661 386.969 277.371 387.471 275.044 391.284C263.23 410.656 253.705 412.933 242.562 399.049C239.332 395.024 236.987 391.277 230.634 379.978C230.097 379.023 229.564 378.088 229.037 377.173Z" fill="black"/>
<path d="M256.001 309.373C253.718 309.373 250.796 325.444 249.518 325.444L246.87 327.882L256.001 325.444L266.502 328.514C265.376 327.49 262.959 325.444 262.302 325.444C261.48 325.444 258.284 309.373 256.001 309.373Z" fill="black" fill-opacity="0.2"/>
<path d="M240.843 266.216C239.565 266.216 235.273 263.237 235.273 258.813C235.882 257.699 237.099 255.96 237.099 257.91C237.099 260.347 239.839 263.507 240.569 264.23C241.3 264.952 242.121 266.216 240.843 266.216Z" fill="black" fill-opacity="0.2"/>
<path d="M216.371 258.813C211.166 258.813 204.409 252.041 200.939 247.437L203.04 245.631L207.788 252.403L218.563 255.563L220.663 252.132C221.18 252.914 222.398 254.804 223.128 256.104C224.042 257.729 226.415 258.993 228.333 261.702C230.251 264.411 222.946 261.07 222.032 260.619C221.302 260.257 219.719 259.144 219.019 258.632C219.019 258.693 218.49 258.813 216.371 258.813Z" fill="black" fill-opacity="0.2"/>
<path d="M232.716 250.597C230.616 247.979 231.346 244.909 230.981 242.291L236.917 252.944L236.46 253.757L236.448 253.751C235.861 253.445 234.385 252.677 232.716 250.597Z" fill="black" fill-opacity="0.2"/>
<path d="M251.435 264.591C249.517 264.139 247.783 259.715 247.783 256.375L249.609 255.562L250.796 260.257C251.161 261.702 253.353 265.042 251.435 264.591Z" fill="black" fill-opacity="0.2"/>
<path d="M271.251 266.216C272.529 266.216 276.821 263.237 276.821 258.813C276.212 257.699 274.994 255.96 274.994 257.91C274.994 260.347 272.255 263.507 271.524 264.23C270.794 264.952 269.972 266.216 271.251 266.216Z" fill="black" fill-opacity="0.2"/>
<path d="M295.722 258.813C300.927 258.813 307.684 252.041 311.154 247.437L309.054 245.631L304.306 252.403L293.531 255.563L291.431 252.132C290.913 252.914 289.695 254.804 288.965 256.104C288.052 257.729 285.678 258.993 283.76 261.702C281.842 264.411 289.148 261.07 290.061 260.619C290.791 260.257 292.374 259.144 293.074 258.632C293.074 258.693 293.604 258.813 295.722 258.813Z" fill="black" fill-opacity="0.2"/>
<path d="M279.377 250.597C281.477 247.979 280.747 244.909 281.112 242.291L275.177 252.944L275.633 253.757L275.645 253.751C276.232 253.445 277.708 252.677 279.377 250.597Z" fill="black" fill-opacity="0.2"/>
<path d="M260.567 264.681C262.484 264.23 264.311 259.715 264.311 256.375L262.484 255.562L261.297 260.257C260.932 261.702 258.649 265.133 260.567 264.681Z" fill="black" fill-opacity="0.2"/>
<path opacity="0.2" d="M234.396 361.378C233.757 361.378 235.765 360.385 235.126 358.669C236.648 358.037 239.034 358.688 240.788 360.204C242.979 362.1 242.979 366.795 242.888 368.781C242.796 370.768 235.035 361.378 234.396 361.378Z" fill="black"/>
<path opacity="0.2" d="M277.706 361.437C278.345 361.437 276.337 360.444 276.976 358.729C275.454 358.097 273.067 358.747 271.314 360.264C269.122 362.16 269.122 366.855 269.214 368.841C269.305 370.827 277.067 361.437 277.706 361.437Z" fill="black"/>
<path opacity="0.2" fill-rule="evenodd" clip-rule="evenodd" d="M194.817 315.559C205.931 322.134 216.737 328.526 216.737 336.459C216.737 336.713 216.732 336.966 216.724 337.214C213.111 329.733 205.275 323.969 190.147 316.262C183.87 313.064 183.799 313.021 179.873 309.899C170.243 302.242 167.128 293.432 171.308 289.108C168.496 299.991 181.866 307.9 194.817 315.559Z" fill="black"/>
<path opacity="0.2" fill-rule="evenodd" clip-rule="evenodd" d="M171.482 288.795L171.396 289.129C170.002 294.523 172.613 299.191 177.214 303.478C181.815 307.764 188.386 311.65 194.863 315.482L194.868 315.486C200.422 318.77 205.907 322.015 210.003 325.432C214.098 328.846 216.828 332.45 216.828 336.459C216.828 336.716 216.824 336.968 216.815 337.216L216.642 337.252C213.043 329.802 205.233 324.048 190.106 316.342C186.969 314.744 185.377 313.931 184.08 313.127C182.781 312.324 181.778 311.529 179.816 309.969C174.992 306.134 171.794 302.006 170.327 298.286C168.86 294.568 169.118 291.242 171.242 289.045L171.482 288.795ZM170.497 298.221C171.949 301.903 175.124 306.007 179.93 309.828C181.894 311.39 182.889 312.178 184.177 312.976C185.466 313.774 187.049 314.583 190.189 316.183C205.091 323.774 212.943 329.493 216.642 336.84C216.644 336.714 216.645 336.587 216.645 336.459C216.645 332.535 213.972 328.976 209.886 325.569C205.802 322.163 200.329 318.926 194.77 315.637L194.763 315.634C188.293 311.806 181.706 307.911 177.089 303.608C172.567 299.395 169.914 294.774 171.135 289.431C169.299 291.558 169.102 294.686 170.497 298.221Z" fill="black"/>
<path opacity="0.2" fill-rule="evenodd" clip-rule="evenodd" d="M317.551 315.56C306.436 322.134 295.631 328.527 295.631 336.459C295.631 336.571 295.632 336.683 295.633 336.793C299.335 329.516 307.157 323.825 322.003 316.262C328.281 313.064 328.352 313.021 332.278 309.899C341.905 302.244 344.723 293.992 341.178 289.603C343.464 300.233 330.304 308.017 317.551 315.56Z" fill="black"/>
<path opacity="0.2" fill-rule="evenodd" clip-rule="evenodd" d="M341.751 298.561C340.279 302.147 337.156 306.136 332.335 309.969C330.373 311.529 329.369 312.324 328.071 313.129C326.774 313.931 325.182 314.743 322.045 316.343C307.198 323.906 299.402 329.586 295.715 336.835L295.542 336.795C295.54 336.683 295.54 336.571 295.54 336.459C295.54 332.45 298.269 328.846 302.364 325.432C306.461 322.015 311.945 318.77 317.499 315.486L317.504 315.482C323.883 311.71 330.352 307.882 334.942 303.673C339.532 299.464 342.22 294.89 341.088 289.622L341.249 289.547C343.05 291.775 343.223 294.974 341.751 298.561ZM341.344 289.973C342.865 292.116 342.971 295.11 341.583 298.492C340.126 302.042 337.027 306.007 332.221 309.828C330.257 311.39 329.262 312.178 327.974 312.976C326.685 313.774 325.102 314.583 321.961 316.183C307.339 323.631 299.505 329.274 295.722 336.425C295.738 332.514 298.407 328.967 302.482 325.569C306.566 322.163 312.039 318.926 317.598 315.637L317.604 315.634C323.976 311.865 330.461 308.03 335.066 303.804C339.562 299.682 342.286 295.169 341.344 289.973Z" fill="black"/>
<g style="mix-blend-mode:multiply">
<path fill-rule="evenodd" clip-rule="evenodd" d="M167.23 312.642C167.12 321.589 167.464 360.204 213.358 360.204C213.546 360.204 213.733 360.204 213.918 360.202C213.476 357.826 214.061 355.847 215.668 354.15C217.296 352.429 216.273 344.291 213.812 339.368C213.16 338.064 212.881 337.467 212.585 337.458C212.328 337.45 212.058 337.887 211.52 338.693C198.196 358.633 171.013 343.373 171.564 316.264C171.648 312.127 171.648 312.127 170.495 311.212C169.654 310.547 169.4 310.316 169.212 310.359C169.099 310.386 169.01 310.513 168.832 310.704C168.271 311.309 167.737 311.956 167.23 312.642Z" fill="black" fill-opacity="0.2"/>
</g>
<path opacity="0.2" fill-rule="evenodd" clip-rule="evenodd" d="M345.217 313.409C345.287 323.337 344.036 360.385 299.083 360.385C298.785 360.385 298.49 360.383 298.198 360.381C298.704 357.925 298.13 355.89 296.483 354.15C294.855 352.429 295.877 344.288 298.339 339.368C298.991 338.064 299.27 337.467 299.566 337.458C299.823 337.45 300.093 337.887 300.631 338.693C313.955 358.631 341.138 343.373 340.588 316.264C340.528 313.322 340.509 312.472 340.905 311.903C341.066 311.67 341.295 311.486 341.618 311.224C342.22 310.735 342.545 310.428 342.856 310.44C343.311 310.46 343.735 311.17 344.958 313.015C345.046 313.147 345.131 313.279 345.217 313.409Z" fill="#22110C"/>
<path opacity="0.2" fill-rule="evenodd" clip-rule="evenodd" d="M248.129 216.002C247.853 218.056 248.294 220.514 249.517 223.191C250.433 225.196 250.433 225.196 251.838 225.21C253.1 225.223 253.387 225.297 254.659 225.94C256.075 226.655 256.075 226.655 257.491 225.94C258.763 225.297 259.05 225.223 260.312 225.21C261.717 225.196 261.717 225.196 262.632 223.191C263.854 220.513 264.25 218.042 263.947 215.976C263.34 219.319 261.943 223.688 258.809 224.053C257.453 224.335 256.509 224.353 256.183 224.326L256.161 224.324H255.909H255.887C255.561 224.351 254.618 224.335 253.261 224.053C250.136 223.689 248.738 219.341 248.129 216.002ZM266.438 226.043C268.005 223.628 268.659 221.321 268.808 217.689L268.886 215.781C269.486 219.052 269.326 223.633 266.579 227.521C265.867 226.922 265.902 226.87 266.438 226.043ZM277.597 222.966C277.47 224.636 276.945 226.482 275.983 228.41C275.879 228.616 275.787 228.805 275.702 228.976C275.186 230.022 274.983 230.432 274.672 230.542C274.472 230.613 274.226 230.558 273.821 230.469C273.718 230.446 273.606 230.421 273.481 230.395C272.505 230.194 271.967 230.173 271.298 230.31C271.123 230.345 270.964 230.379 270.818 230.409C270.787 230.415 270.756 230.421 270.726 230.428C270.846 230.07 271.777 229.778 272.726 229.48C273.619 229.201 274.527 228.916 274.789 228.567C276.09 226.833 277.084 225.085 277.597 222.966ZM281.459 222.315C281.446 224.804 280.004 228.88 278.383 231.013C277.69 231.925 277.644 231.987 278.524 232.925C280.389 230.258 282.332 225.007 281.597 222.146C281.508 222.188 281.459 222.244 281.459 222.315ZM292.983 230.765C292.744 232.293 291.891 235.508 290.586 236.874C289.034 238.499 288.395 238.679 287.117 238.138C286.356 237.815 285.246 237.972 284.439 238.185C285.905 238.24 287.23 238.628 288.448 239.356L288.487 239.379L288.556 239.421C288.999 239.686 289.244 239.833 289.468 239.806C289.747 239.773 289.993 239.47 290.543 238.79L290.598 238.723L290.652 238.657C292.5 236.379 293.236 233.473 292.983 230.765ZM306.234 240.539C305.911 243.059 304.992 247.542 301.453 250.506C298.122 253.297 295.609 253.486 295.061 249.513C295.008 249.13 294.933 248.926 294.845 248.867C295.01 250.268 294.941 251.682 294.609 252.967C294.408 253.744 294.244 254.402 294.244 254.429C294.244 254.876 299.21 252.815 300.95 251.647C304.947 248.963 306.7 244.536 306.234 240.539ZM296.794 233.791C296.361 236.588 295.342 238.579 293.229 240.767C291.869 242.173 291.869 242.173 292.441 242.876C292.503 242.951 292.563 243.027 292.622 243.105C294.442 241.276 296.47 237.784 296.794 233.791ZM278.517 242.258C278.18 244.169 277.623 246.259 276.798 247.256C275.155 249.243 272.963 249.784 271.228 249.513C270.356 249.378 268.909 249.757 267.645 250.199C270.21 250.092 272.158 250.593 273.849 251.746C274.263 252.028 274.598 252.15 274.671 252.045C274.738 251.947 275.138 251.424 275.558 250.883C277.415 248.486 278.423 245.224 278.517 242.258ZM263.776 249.316C266.405 247.945 270.619 244.278 270.568 238.442C270.058 242.653 267.551 246.385 263.609 248.637C263.561 248.664 263.646 248.961 263.776 249.316ZM267.108 238.835C266.296 241.201 264.491 244.923 261.64 243.916C259.083 243.013 257.531 242.832 256.253 242.832C256.171 242.832 256.099 242.84 256.035 242.854C255.972 242.84 255.9 242.832 255.818 242.832C254.539 242.832 252.987 243.013 250.43 243.916C247.857 244.824 246.136 241.882 245.228 239.56C245.652 241.307 246.521 243.204 247.842 245.177C248.67 246.414 248.976 246.87 249.217 246.839C249.359 246.821 249.478 246.635 249.667 246.34C252.387 242.099 259.762 242.099 262.483 246.34C263.223 247.494 266.202 243.096 266.959 239.732C267.026 239.433 267.075 239.133 267.108 238.835ZM233.557 242.279C233.588 245.119 234.565 248.268 236.592 250.883C237.012 251.424 237.411 251.947 237.479 252.045C237.552 252.15 237.887 252.028 238.301 251.746C239.972 250.606 241.894 250.103 244.415 250.196C243.153 249.755 241.712 249.378 240.843 249.513C239.107 249.784 236.916 249.243 235.272 247.256C234.451 246.263 233.895 244.184 233.557 242.279ZM241.523 237.841C241.161 244.077 245.649 247.962 248.36 249.35C248.498 248.981 248.59 248.665 248.541 248.637C244.412 246.278 241.857 242.296 241.523 237.841ZM233.581 232.972C234.508 231.989 234.471 231.94 233.767 231.013C232.146 228.88 230.704 224.804 230.691 222.315C230.69 222.277 230.603 222.248 230.453 222.228C229.771 225.123 231.722 230.346 233.581 232.972ZM219.098 230.83C218.819 233.453 219.559 236.267 221.498 238.657C221.536 238.703 221.572 238.747 221.606 238.79C222.157 239.47 222.402 239.773 222.681 239.806C222.905 239.833 223.151 239.686 223.594 239.421C223.629 239.4 223.665 239.378 223.702 239.356C224.901 238.64 226.203 238.252 227.642 238.188C226.834 237.973 225.718 237.814 224.954 238.138C223.676 238.679 223.037 238.499 221.484 236.874C220.198 235.527 219.35 232.382 219.098 230.83ZM234.672 223.692C234.867 225.19 235.359 226.79 236.167 228.41C236.27 228.616 236.363 228.804 236.448 228.976C236.964 230.022 237.166 230.432 237.477 230.542C237.678 230.613 237.924 230.558 238.329 230.469C238.431 230.446 238.544 230.421 238.669 230.395C239.644 230.194 240.182 230.173 240.851 230.31C241.026 230.345 241.186 230.379 241.332 230.409C241.334 230.409 241.336 230.409 241.337 230.41C241.194 230.06 240.278 229.773 239.344 229.48C238.452 229.201 237.544 228.916 237.281 228.567C236.132 227.035 235.222 225.492 234.672 223.692ZM243.123 216.139C243.251 216.543 243.316 217.062 243.343 217.711C243.49 221.319 244.149 223.633 245.711 226.043C246.26 226.889 246.283 226.924 245.521 227.563C242.845 223.805 242.597 219.393 243.123 216.139ZM217.306 248.851C217.183 248.822 217.078 249.017 217.01 249.513C216.462 253.486 213.948 253.297 210.618 250.506C207.351 247.77 206.316 243.74 205.923 241.153C205.727 244.966 207.404 249.099 211.199 251.647C212.94 252.815 217.906 254.876 217.906 254.429C217.906 254.402 217.742 253.744 217.541 252.967C217.207 251.678 217.139 250.258 217.306 248.851ZM219.493 243.15C219.563 243.058 219.634 242.967 219.706 242.878C220.277 242.178 220.277 242.178 218.844 240.682C216.722 238.465 215.573 236.082 215.257 233.24C215.249 233.178 215.243 233.119 215.237 233.063C215.356 237.39 217.552 241.225 219.493 243.15Z" fill="black"/>
<path d="M323.572 328.514C323.572 326.32 325.412 324.541 327.681 324.541C329.951 324.541 331.791 326.32 331.791 328.514C331.791 330.708 329.951 332.486 327.681 332.486C325.412 332.486 323.572 330.708 323.572 328.514Z" fill="#F1F1F1"/>
<path d="M180.211 328.514C180.211 326.32 182.051 324.541 184.32 324.541C186.59 324.541 188.429 326.32 188.429 328.514C188.429 330.708 186.59 332.486 184.32 332.486C182.051 332.486 180.211 330.708 180.211 328.514Z" fill="#F1F1F1"/>
<path d="M191.169 332.125C191.169 331.526 190.638 331.042 189.982 331.042C189.326 331.042 188.795 331.526 188.795 332.125C188.795 332.723 189.326 333.209 189.982 333.209C190.638 333.209 191.169 332.723 191.169 332.125Z" fill="#F1F1F1"/>
</g>
</svg>
