<svg width="124" height="40" viewBox="0 0 124 40" fill="none" xmlns="http://www.w3.org/2000/svg">
<g clip-path="url(#clip0_102_10)">
<path d="M44.1346 31.4237C42.5134 31.4237 40.9916 31.159 39.5689 30.5966C38.1463 30.0341 36.9222 29.2401 35.8635 28.2145C34.8048 27.1889 33.9777 25.9648 33.3822 24.5422C32.7536 23.0864 32.4558 21.4984 32.4558 19.7449C32.4558 17.9915 32.7536 16.3703 33.3822 14.9477C34.0108 13.492 34.8379 12.2679 35.8966 11.2423C36.9553 10.2166 38.1794 9.42263 39.602 8.86019C41.0246 8.29776 42.5134 8 44.0684 8C45.7557 8 47.2114 8.23159 48.4355 8.72785C49.6596 9.22412 50.6853 9.81964 51.5455 10.5806C52.4056 11.3415 53.0673 12.1686 53.5305 13.0288C53.9937 13.9221 54.3245 14.7492 54.523 15.5763L49.792 17.0651C49.6927 16.6681 49.5273 16.238 49.2957 15.7748C49.0641 15.2785 48.7002 14.8154 48.2701 14.3853C47.84 13.9552 47.2445 13.5912 46.5828 13.2935C45.888 12.9957 45.0609 12.8634 44.0684 12.8634C43.3075 12.8634 42.5465 12.9957 41.7856 13.2604C41.0246 13.5251 40.3299 13.9552 39.7344 14.5176C39.1058 15.08 38.6095 15.8079 38.2456 16.6681C37.8486 17.5283 37.6831 18.5539 37.6831 19.7449C37.6831 20.8036 37.8486 21.73 38.2125 22.5571C38.5764 23.3842 39.0396 24.079 39.6682 24.6414C40.2637 25.2038 40.9585 25.6339 41.7194 25.9317C42.4804 26.2295 43.3075 26.3618 44.1346 26.3618C45.094 26.3618 45.9542 26.2295 46.649 25.9317C47.3437 25.6339 47.9393 25.27 48.4024 24.8399C48.8656 24.4098 49.2296 23.9466 49.4942 23.4504C49.7589 22.9541 49.9574 22.524 50.0567 22.127L54.8539 23.4835C54.6554 24.2775 54.3245 25.1046 53.8614 26.0309C53.3982 26.9573 52.7034 27.7844 51.8763 28.5784C51.0161 29.3725 49.9574 30.0341 48.7002 30.5635C47.3768 31.159 45.888 31.4237 44.1346 31.4237Z" fill="#161616"/>
<path d="M44.1346 31.4237C42.5134 31.4237 40.9916 31.159 39.5689 30.5966C38.1463 30.0341 36.9222 29.2401 35.8635 28.2145C34.8048 27.1889 33.9777 25.9648 33.3822 24.5422C32.7536 23.0864 32.4558 21.4984 32.4558 19.7449C32.4558 17.9915 32.7536 16.3703 33.3822 14.9477C34.0108 13.492 34.8379 12.2679 35.8966 11.2423C36.9553 10.2166 38.1794 9.42263 39.602 8.86019C41.0246 8.29776 42.5134 8 44.0684 8C45.7557 8 47.2114 8.23159 48.4355 8.72785C49.6596 9.22412 50.6853 9.81964 51.5455 10.5806C52.4056 11.3415 53.0673 12.1686 53.5305 13.0288C53.9937 13.9221 54.3245 14.7492 54.523 15.5763L49.792 17.0651C49.6927 16.6681 49.5273 16.238 49.2957 15.7748C49.0641 15.2785 48.7002 14.8154 48.2701 14.3853C47.84 13.9552 47.2445 13.5912 46.5828 13.2935C45.888 12.9957 45.0609 12.8634 44.0684 12.8634C43.3075 12.8634 42.5465 12.9957 41.7856 13.2604C41.0246 13.5251 40.3299 13.9552 39.7344 14.5176C39.1058 15.08 38.6095 15.8079 38.2456 16.6681C37.8486 17.5283 37.6831 18.5539 37.6831 19.7449C37.6831 20.8036 37.8486 21.73 38.2125 22.5571C38.5764 23.3842 39.0396 24.079 39.6682 24.6414C40.2637 25.2038 40.9585 25.6339 41.7194 25.9317C42.4804 26.2295 43.3075 26.3618 44.1346 26.3618C45.094 26.3618 45.9542 26.2295 46.649 25.9317C47.3437 25.6339 47.9393 25.27 48.4024 24.8399C48.8656 24.4098 49.2296 23.9466 49.4942 23.4504C49.7589 22.9541 49.9574 22.524 50.0567 22.127L54.8539 23.4835C54.6554 24.2775 54.3245 25.1046 53.8614 26.0309C53.3982 26.9573 52.7034 27.7844 51.8763 28.5784C51.0161 29.3725 49.9574 30.0341 48.7002 30.5635C47.3768 31.159 45.888 31.4237 44.1346 31.4237Z" fill="#161616"/>
<path d="M44.1346 31.4237C42.5134 31.4237 40.9916 31.159 39.5689 30.5966C38.1463 30.0341 36.9222 29.2401 35.8635 28.2145C34.8048 27.1889 33.9777 25.9648 33.3822 24.5422C32.7536 23.0864 32.4558 21.4984 32.4558 19.7449C32.4558 17.9915 32.7536 16.3703 33.3822 14.9477C34.0108 13.492 34.8379 12.2679 35.8966 11.2423C36.9553 10.2166 38.1794 9.42263 39.602 8.86019C41.0246 8.29776 42.5134 8 44.0684 8C45.7557 8 47.2114 8.23159 48.4355 8.72785C49.6596 9.22412 50.6853 9.81964 51.5455 10.5806C52.4056 11.3415 53.0673 12.1686 53.5305 13.0288C53.9937 13.9221 54.3245 14.7492 54.523 15.5763L49.792 17.0651C49.6927 16.6681 49.5273 16.238 49.2957 15.7748C49.0641 15.2785 48.7002 14.8154 48.2701 14.3853C47.84 13.9552 47.2445 13.5912 46.5828 13.2935C45.888 12.9957 45.0609 12.8634 44.0684 12.8634C43.3075 12.8634 42.5465 12.9957 41.7856 13.2604C41.0246 13.5251 40.3299 13.9552 39.7344 14.5176C39.1058 15.08 38.6095 15.8079 38.2456 16.6681C37.8486 17.5283 37.6831 18.5539 37.6831 19.7449C37.6831 20.8036 37.8486 21.73 38.2125 22.5571C38.5764 23.3842 39.0396 24.079 39.6682 24.6414C40.2637 25.2038 40.9585 25.6339 41.7194 25.9317C42.4804 26.2295 43.3075 26.3618 44.1346 26.3618C45.094 26.3618 45.9542 26.2295 46.649 25.9317C47.3437 25.6339 47.9393 25.27 48.4024 24.8399C48.8656 24.4098 49.2296 23.9466 49.4942 23.4504C49.7589 22.9541 49.9574 22.524 50.0567 22.127L54.8539 23.4835C54.6554 24.2775 54.3245 25.1046 53.8614 26.0309C53.3982 26.9573 52.7034 27.7844 51.8763 28.5784C51.0161 29.3725 49.9574 30.0341 48.7002 30.5635C47.3768 31.159 45.888 31.4237 44.1346 31.4237Z" fill="#161616"/>
<path d="M74.0756 26.3618H65.3745L63.7533 30.9274H58.4929L66.9625 8.39703H72.7853L81.1557 30.9274H75.6968L74.0756 26.3618ZM67.0287 21.7962H72.4876L69.7747 14.0214L67.0287 21.7962Z" fill="#161616"/>
<path d="M97.8301 15.2124C97.797 14.9477 97.6978 14.683 97.5654 14.3522C97.4331 14.0213 97.2015 13.7236 96.9368 13.4258C96.6391 13.1281 96.2751 12.8965 95.812 12.698C95.3488 12.4995 94.7863 12.4002 94.0916 12.4002C93.1652 12.4002 92.4043 12.6649 91.8418 13.1612C91.2794 13.6574 91.0147 14.2198 91.0147 14.8154C91.0147 15.3778 91.1801 15.841 91.5441 16.2049C91.908 16.5688 92.4704 16.8335 93.2314 16.9989L96.242 17.5283C97.3338 17.7268 98.2602 18.0245 99.0542 18.4546C99.8482 18.8847 100.543 19.4141 101.072 20.0096C101.635 20.6051 102.032 21.2668 102.296 21.9947C102.561 22.7225 102.693 23.4835 102.693 24.3106C102.693 25.2038 102.528 26.064 102.164 26.9242C101.8 27.7844 101.271 28.5123 100.576 29.207C99.8813 29.8687 98.9881 30.3981 97.9624 30.8282C96.9368 31.2252 95.7458 31.4568 94.3893 31.4568C92.8344 31.4568 91.4779 31.2252 90.353 30.762C89.2282 30.2988 88.3018 29.7364 87.574 29.0416C86.8461 28.3468 86.2837 27.5859 85.8867 26.7257C85.4897 25.8655 85.2581 25.0384 85.1919 24.2444L89.7906 23.1195C89.8237 23.6158 89.956 24.1121 90.1545 24.6083C90.353 25.0715 90.6508 25.5016 91.0147 25.8324C91.4117 26.1964 91.8749 26.461 92.4374 26.6595C92.9998 26.8581 93.6615 26.9904 94.4224 26.9904C95.4149 26.9904 96.209 26.7588 96.7714 26.3287C97.3338 25.8986 97.5985 25.3362 97.5985 24.6414C97.5985 24.079 97.3669 23.5827 96.9368 23.1857C96.5067 22.7887 95.9112 22.524 95.1833 22.3917L92.1065 21.8292C90.1876 21.4653 88.6657 20.7044 87.607 19.5133C86.5153 18.3223 85.9859 16.8997 85.9859 15.2124C85.9859 14.1537 86.2175 13.1942 86.6476 12.301C87.0777 11.4077 87.6732 10.6467 88.4011 10.0181C89.1289 9.38954 89.9891 8.89328 90.9816 8.52935C91.9411 8.16542 92.9667 8 94.0585 8C95.448 8 96.6391 8.19851 97.6316 8.56243C98.6241 8.95944 99.4512 9.42263 100.08 10.0181C100.742 10.6137 101.205 11.2423 101.569 11.9701C101.899 12.6649 102.131 13.3597 102.263 14.0213L97.8301 15.2124Z" fill="#161616"/>
<path d="M109.708 30.9274V8.43011H123.967V13.1612H114.736V17.4621H123.107V21.8623H114.736V26.1964H124V30.9605H109.708V30.9274Z" fill="#161616"/>
<path d="M0 8.43011V30.9274H22.4973V8.43011H0ZM20.5123 19.6788H1.98506V10.4152H20.5123V19.6788Z" fill="#161616"/>
</g>
<defs>
<clipPath id="clip0_102_10">
<rect width="124" height="40" fill="white"/>
</clipPath>
</defs>
</svg>
