<svg width="512" height="512" viewBox="0 0 512 512" fill="none" xmlns="http://www.w3.org/2000/svg">
<rect width="512" height="512" fill="#22110C"/>
<path fill-rule="evenodd" clip-rule="evenodd" d="M253.32 102.725C212.157 106.78 210.708 167.716 251.612 174.535C253.466 174.844 254.052 175.006 254.095 175.221C254.126 175.377 253.977 178.45 253.764 182.05C253.552 185.65 253.284 192.73 253.169 197.783C253.054 202.835 252.92 206.999 252.871 207.035C252.822 207.071 252.153 207.408 251.385 207.786C249.947 208.493 248.056 210.043 247.295 211.141C246.869 211.756 246.869 211.756 244.251 211.843C240.116 211.978 237.596 212.988 235.308 215.429C234.674 216.105 234.092 216.584 234.016 216.495C233.938 216.406 231.554 212.892 228.714 208.688C225.876 204.482 222.651 199.748 221.551 198.166L219.55 195.289L220.724 193.987C242.627 169.72 212 133.172 185.957 152.498C160.035 171.733 183.268 212.085 213.074 199.591C213.196 199.541 215.41 202.308 218.311 206.139C221.074 209.79 224.526 214.291 225.981 216.141C227.436 217.992 228.75 219.69 228.9 219.918C229.21 220.383 229.308 220.316 227.641 220.772C223.019 222.043 218.661 225.88 217.796 229.44C217.682 229.907 217.497 230.293 217.383 230.296C209.571 230.503 203.594 236.305 203.509 243.761C203.481 246.296 203.481 246.296 202.417 246.927C192.734 252.674 179.598 271.951 178.661 281.792C178.522 283.245 178.577 283.198 176.661 283.525C172.337 284.262 169.812 285.824 167.149 289.403C163.776 293.937 163.465 297.834 166.037 303.336C166.908 305.202 166.955 304.87 165.52 306.895C150.336 328.282 153.499 353.381 173.927 373.599C187.287 386.825 206.041 394.887 227.066 396.442C235.095 397.035 236.014 397.341 238.082 400.062C251.678 417.969 263.414 417.969 277.01 400.062C279.077 397.341 279.997 397.035 288.026 396.442C319.452 394.118 345.746 376.891 355.602 352.168C361.885 336.411 359.891 321.45 349.568 306.88C348.136 304.859 348.185 305.198 349.055 303.336C351.627 297.834 351.315 293.937 347.944 289.403C345.28 285.824 342.755 284.262 338.431 283.525C336.515 283.198 336.57 283.245 336.431 281.792C336.124 278.564 332.67 270.284 329.375 264.872C325.325 258.22 317.457 249.766 312.675 246.927C311.611 246.296 311.611 246.296 311.582 243.761C311.498 236.305 305.521 230.503 297.709 230.296C297.595 230.293 297.409 229.907 297.295 229.44C296.431 225.88 292.073 222.043 287.451 220.772C285.784 220.316 285.883 220.383 286.192 219.918C286.342 219.69 287.656 217.992 289.111 216.141C290.566 214.291 294.018 209.79 296.781 206.139C299.681 202.308 301.896 199.541 302.018 199.591C331.824 212.085 355.057 171.733 329.134 152.498C303.091 133.172 272.465 169.72 294.368 193.987L295.542 195.289L293.541 198.166C292.44 199.748 289.216 204.482 286.378 208.688C283.539 212.892 281.154 216.406 281.076 216.495C280.999 216.584 280.419 216.105 279.783 215.429C277.496 212.988 274.976 211.978 270.841 211.843C268.223 211.756 268.223 211.756 267.802 211.15C266.7 209.561 264.163 207.756 262.109 207.1C261.188 206.808 261.188 206.808 261.21 196.012C261.223 190.076 261.192 182.906 261.142 180.081L261.053 174.942L263.48 174.535C309.485 166.852 299.765 98.1503 253.32 102.725ZM252.189 111.619C236.406 114.47 226.034 129.063 228.865 143.345C229.068 144.375 229.342 145.404 229.687 146.427C237.933 170.9 277.158 170.9 285.405 146.427C285.754 145.392 286.029 144.358 286.235 143.327C289.848 125.238 272.149 108.014 252.189 111.619ZM199.195 156.422C187.539 158.578 180.64 170.405 183.514 180.432C184.067 182.36 184.981 184.221 186.291 185.936C195.565 198.058 212.262 196.835 219.142 183.53C219.744 182.364 220.204 181.178 220.532 179.984C224.009 167.362 212.778 153.911 199.195 156.422ZM309.631 156.433C298.004 158.51 291.978 169.856 294.574 179.967C295.441 183.347 297.272 186.587 300.18 189.298C308.54 197.097 321.42 195.583 328.8 185.936C330.112 184.22 331.021 182.384 331.575 180.498C335.159 168.268 323.73 153.914 309.631 156.433ZM255.589 212.876C249.9 213.88 248.062 219.146 251.089 225.775C251.99 227.747 251.99 227.747 253.374 227.761C254.617 227.774 254.899 227.848 256.151 228.48C257.546 229.185 257.546 229.185 258.94 228.48C260.192 227.848 260.475 227.774 261.718 227.761C263.101 227.747 263.101 227.747 264.002 225.775C267.716 217.636 263.68 211.45 255.589 212.876ZM240.993 218.086C236.331 219.329 234.987 224.985 237.943 230.912C239.168 233.366 238.926 233.173 240.407 232.867C241.368 232.67 241.898 232.648 242.557 232.782C244.718 233.223 244.453 233.294 245.367 232.025C245.824 231.393 246.58 230.556 247.05 230.165C247.906 229.451 247.906 229.451 247.341 228.581C245.803 226.208 245.156 223.931 245.009 220.378C244.899 217.702 244.114 217.254 240.993 218.086ZM270.083 220.356C269.936 223.932 269.292 226.204 267.751 228.581C267.186 229.451 267.186 229.451 268.042 230.165C268.511 230.556 269.269 231.393 269.724 232.025C270.639 233.294 270.376 233.223 272.535 232.782C273.194 232.648 273.724 232.67 274.685 232.867C276.166 233.173 275.924 233.366 277.148 230.912C280.605 223.985 278.344 218.133 272.116 217.88L270.188 217.8L270.083 220.356ZM228.236 225.057C221.268 226.86 218.792 235.2 223.5 241.002C224.622 242.385 224.547 242.362 225.67 241.69C227.415 240.649 229.381 240.313 231.673 240.666C232.505 240.794 232.505 240.794 232.715 239.969C233.069 238.578 234.11 236.767 235.239 235.573C236.312 234.439 236.312 234.439 235.581 233.475C233.984 231.376 232.565 227.362 232.552 224.912C232.551 224.68 229.267 224.791 228.236 225.057ZM282.54 224.912C282.527 227.362 281.107 231.376 279.511 233.475C278.779 234.439 278.779 234.439 279.853 235.573C280.982 236.767 282.022 238.578 282.377 239.969C282.587 240.794 282.587 240.794 283.418 240.666C285.711 240.313 287.677 240.649 289.422 241.69C290.544 242.362 290.469 242.385 291.592 241.002C295.516 236.167 294.345 228.46 289.318 226.028C287.159 224.982 282.544 224.223 282.54 224.912ZM250.574 233.396C245.68 235.649 245.235 241.143 249.44 247.422C250.733 249.352 250.733 249.352 251.237 248.567C253.915 244.39 261.176 244.39 263.855 248.567C264.584 249.704 267.517 245.373 268.263 242.061C269.593 236.148 263.76 230.134 260.463 234.02C259.762 234.845 258.9 236.363 258.559 237.371C257.9 239.323 257.191 239.323 256.533 237.371C256.006 235.809 254.895 234.127 253.881 233.353C253.159 232.803 251.826 232.82 250.574 233.396ZM215.828 234.596C206.936 235.752 205.312 248.388 213.36 253.792C215.073 254.942 219.963 256.972 219.963 256.531C219.963 256.505 219.802 255.857 219.604 255.092C218.76 251.832 219.642 247.727 221.737 245.158C222.297 244.47 222.297 244.47 220.888 242.996C218.798 240.813 217.667 238.466 217.355 235.668C217.208 234.347 217.291 234.406 215.828 234.596ZM297.909 234.629C297.873 234.736 297.759 235.403 297.654 236.112C297.238 238.918 296.235 240.899 294.129 243.079C292.79 244.464 292.79 244.464 293.354 245.155C295.45 247.727 296.332 251.83 295.487 255.092C295.29 255.857 295.129 256.505 295.129 256.531C295.129 256.972 300.018 254.942 301.731 253.792C308.862 249.005 308.738 238.581 301.511 235.25C300.32 234.701 298.014 234.304 297.909 234.629ZM240.391 236.888C234.736 237.694 233.582 246.873 238.363 253.039C238.776 253.573 239.169 254.088 239.236 254.184C239.308 254.288 239.638 254.168 240.045 253.89C242.349 252.319 245.137 251.977 249.347 252.751C249.486 252.777 250.25 250.898 250.128 250.829C245.549 248.213 242.935 243.569 243.199 238.515C243.275 237.05 243.275 237.05 242.633 236.943C242.28 236.886 241.869 236.815 241.722 236.788C241.574 236.76 240.975 236.806 240.391 236.888ZM273.28 236.79C273.181 236.818 272.812 236.887 272.459 236.945C271.816 237.05 271.816 237.05 271.893 238.515C272.156 243.569 269.543 248.213 264.964 250.829C264.842 250.898 265.605 252.777 265.745 252.751C269.955 251.977 272.743 252.319 275.046 253.89C275.454 254.168 275.784 254.288 275.856 254.184C275.922 254.088 276.316 253.573 276.729 253.039C280.243 248.508 280.669 240.826 277.56 238.119C276.598 237.282 274.212 236.541 273.28 236.79ZM228.919 244.229C221.987 246.074 221.502 255.544 228.028 261.608C232.745 265.991 228.138 264.962 223 260.488C221.608 259.273 221.608 259.273 220.547 259.382C216.21 259.831 209.532 256.04 205.971 251.11C205.148 249.972 205.148 249.972 204.627 250.577C197.222 259.135 193.008 266.798 188.209 280.427C187.021 283.803 187.009 283.539 188.36 283.793C211.418 288.121 226.632 312.411 227.106 345.653C227.21 352.914 227.027 352.479 229.581 351.533C231.14 350.955 231.456 350.517 232.731 347.16C238.56 331.803 243.469 325.713 251.692 323.634C253.394 323.207 253.343 323.238 253.489 322.472C253.817 320.739 255.667 316.206 256.333 315.497C257.939 313.793 260.632 317.356 261.603 322.472C261.748 323.238 261.698 323.207 263.4 323.634C271.623 325.713 276.532 331.803 282.361 347.16C283.636 350.517 283.951 350.955 285.51 351.533C288.065 352.479 287.882 352.914 287.986 345.653C288.46 312.41 303.672 288.121 326.731 283.793C328.082 283.539 328.071 283.803 326.882 280.427C322.085 266.798 317.87 259.135 310.465 250.577C309.944 249.972 309.944 249.972 309.121 251.11C305.559 256.04 298.882 259.831 294.545 259.382C293.483 259.273 293.483 259.273 292.092 260.488C286.954 264.962 282.347 265.991 287.063 261.608C291.772 257.233 292.96 252.716 290.612 248.123C288.751 244.482 283.009 242.301 282.645 245.095C282.061 249.565 280.273 253.003 277.582 254.834C276.798 255.369 276.798 255.369 277.467 256.563C279.004 259.315 278.245 262.889 275.551 265.582C273.27 267.861 271.439 268.011 273.531 265.748C276.275 262.778 276.084 259.159 273.137 258.293C271.374 257.776 265.817 257.995 265.817 258.583C265.817 259.918 264.032 264.026 262.97 265.128C261.655 266.495 261.38 265.902 262.286 263.654C265.061 256.768 262.748 250.204 257.546 250.204C252.343 250.204 250.031 256.768 252.806 263.654C253.712 265.902 253.437 266.495 252.122 265.128C251.061 264.026 249.275 259.918 249.275 258.583C249.275 257.995 243.718 257.776 241.954 258.293C239.008 259.159 238.816 262.778 241.561 265.748C243.653 268.011 241.822 267.861 239.541 265.582C236.847 262.889 236.088 259.315 237.625 256.563C238.293 255.369 238.293 255.369 237.51 254.834C234.82 253.006 233.03 249.564 232.448 245.106C232.353 244.373 232.251 244.168 231.946 244.086C231.313 243.919 229.819 243.99 228.919 244.229ZM179.351 288.243C168.741 289.91 170.336 301.466 182.514 311.149C186.38 314.224 186.45 314.265 192.631 317.415C215.416 329.023 221.402 336.156 221.402 351.707C221.402 352.777 222.17 353.105 223.245 352.492C223.44 352.38 223.408 344.941 223.198 340.966C222.209 322.298 214.644 304.847 203.801 296.222C196.629 290.514 186.318 287.15 179.351 288.243ZM330.282 288.185C310.606 290.256 295.644 308.873 292.347 335.388C291.822 339.608 291.452 352.266 291.847 352.492C292.921 353.105 293.689 352.777 293.689 351.707C293.689 336.153 299.671 329.026 322.461 317.415C328.641 314.265 328.712 314.224 332.577 311.149C347.172 299.546 345.872 286.543 330.282 288.185ZM171.643 311.942C163.366 320.863 160.927 339.291 166.283 352.435C173.801 370.887 198.4 388.041 220.054 389.934C229.867 390.791 232.094 390.644 231.155 389.2C229.616 386.835 224.34 377.234 221.258 371.191C220.459 369.627 219.22 367.43 218.505 366.303C215.288 361.252 215.053 357.581 217.76 354.721C219.362 353.025 218.355 345.012 215.932 340.167C214.733 337.769 214.815 337.795 213.676 339.5C200.557 359.134 173.791 344.11 174.333 317.416C174.416 313.343 174.416 313.343 173.28 312.442C171.955 311.393 172.11 311.439 171.643 311.942ZM341.772 312.454C340.676 313.343 340.676 313.343 340.758 317.416C341.301 344.11 314.535 359.134 301.416 339.5C300.276 337.795 300.358 337.769 299.16 340.167C296.736 345.012 295.729 353.025 297.333 354.721C300.039 357.581 299.804 361.252 296.588 366.303C295.872 367.43 294.633 369.627 293.833 371.191C290.752 377.234 285.476 386.835 283.937 389.2C282.992 390.654 282.728 390.585 288.253 390.327C299.778 389.797 304.571 388.747 313.919 384.695C347.717 370.055 361.461 338.954 345.063 314.218C343.036 311.159 343.236 311.269 341.772 312.454ZM178.885 316.742C177.142 322.463 180.592 333.241 185.935 338.772C187.594 340.487 187.693 340.497 187.03 338.89C184.367 332.417 185.343 324.391 189.105 321.844C189.801 321.371 188.53 320.58 183.64 318.444C182.503 317.947 181.028 317.271 180.363 316.941C178.927 316.231 179.037 316.246 178.885 316.742ZM334.957 316.824C334.463 317.078 332.926 317.791 331.542 318.409C326.198 320.783 325.27 321.358 325.985 321.841C329.749 324.391 330.726 332.413 328.062 338.89C327.398 340.497 327.499 340.487 329.157 338.772C334.499 333.241 337.95 322.463 336.207 316.742C336.058 316.254 336.065 316.254 334.957 316.824ZM255.418 327.733C248.537 328.949 242.097 336.322 237.102 348.7C234.599 354.908 233.297 355.806 224.998 357.054C219.538 357.876 219.178 359.19 222.931 364.604C225.644 368.522 228.958 373.929 232.459 380.151C238.714 391.277 241.022 394.966 244.203 398.928C255.176 412.599 264.552 410.358 276.186 391.282C278.477 387.526 278.762 387.035 282.633 380.151C286.134 373.929 289.448 368.522 292.161 364.604C295.914 359.19 295.554 357.876 290.093 357.054C281.795 355.806 280.494 354.908 277.99 348.7C271.969 333.779 263.852 326.238 255.418 327.733ZM237.137 357.162C235.457 358.026 234.85 359.689 235.632 361.286C236.253 362.553 237.961 363.185 239.012 362.537C239.302 362.36 239.52 362.423 240.404 362.959C243.562 364.868 244.767 364.499 243.785 361.917C242.287 357.981 239.463 355.961 237.137 357.162ZM274.863 357.241C272.936 358.209 270.471 362.35 271.076 363.607C271.512 364.512 272.371 364.359 274.688 362.959C275.572 362.423 275.79 362.36 276.079 362.537C277.131 363.185 278.838 362.553 279.459 361.286C280.799 358.552 277.694 355.816 274.863 357.241Z" fill="#22110C"/>
<mask id="mask0_1644_3595" style="mask-type:luminance" maskUnits="userSpaceOnUse" x="146" y="92" width="220" height="328">
<path d="M365.563 92.9817H146.493V420H365.563V92.9817Z" fill="white"/>
<path fill-rule="evenodd" clip-rule="evenodd" d="M253.32 102.725C212.157 106.78 210.708 167.716 251.612 174.535C253.466 174.843 254.052 175.006 254.096 175.221C254.126 175.376 253.977 178.449 253.764 182.05C253.552 185.65 253.284 192.73 253.169 197.782C253.054 202.835 252.92 206.999 252.871 207.035C252.822 207.071 252.153 207.408 251.386 207.785C249.948 208.493 248.056 210.043 247.295 211.141C246.869 211.756 246.869 211.756 244.251 211.842C240.116 211.978 237.596 212.988 235.309 215.428C234.675 216.104 234.093 216.584 234.016 216.495C233.938 216.405 231.554 212.891 228.714 208.687C225.876 204.482 222.652 199.748 221.551 198.166L219.55 195.289L220.724 193.986C242.627 169.72 212 133.172 185.957 152.498C160.035 171.733 183.269 212.085 213.074 199.591C213.196 199.54 215.411 202.308 218.311 206.139C221.074 209.789 224.526 214.29 225.981 216.14C227.436 217.992 228.75 219.69 228.9 219.918C229.21 220.383 229.308 220.315 227.641 220.772C223.019 222.043 218.661 225.879 217.796 229.439C217.683 229.906 217.497 230.292 217.383 230.295C209.571 230.503 203.594 236.305 203.509 243.76C203.481 246.296 203.481 246.296 202.417 246.927C192.735 252.674 179.599 271.951 178.661 281.791C178.522 283.245 178.577 283.197 176.661 283.524C172.338 284.262 169.812 285.824 167.149 289.403C163.776 293.936 163.465 297.834 166.037 303.336C166.908 305.201 166.956 304.87 165.52 306.894C150.337 328.282 153.5 353.381 173.927 373.599C187.287 386.824 206.042 394.887 227.066 396.441C235.095 397.035 236.014 397.34 238.082 400.062C251.678 417.968 263.414 417.968 277.01 400.062C279.078 397.34 279.997 397.035 288.026 396.441C319.453 394.117 345.746 376.891 355.602 352.168C361.885 336.41 359.891 321.45 349.568 306.88C348.136 304.859 348.185 305.197 349.055 303.336C351.627 297.834 351.316 293.936 347.944 289.403C345.281 285.824 342.755 284.262 338.431 283.524C336.515 283.197 336.57 283.245 336.432 281.791C336.125 278.564 332.67 270.284 329.375 264.871C325.325 258.219 317.457 249.765 312.675 246.927C311.611 246.296 311.611 246.296 311.582 243.76C311.498 236.305 305.521 230.503 297.709 230.295C297.595 230.292 297.41 229.906 297.296 229.439C296.431 225.879 292.073 222.043 287.451 220.772C285.784 220.315 285.884 220.383 286.192 219.918C286.342 219.69 287.656 217.992 289.111 216.14C290.566 214.29 294.018 209.789 296.781 206.139C299.682 202.308 301.896 199.54 302.018 199.591C331.824 212.085 355.057 171.733 329.134 152.498C303.092 133.172 272.465 169.72 294.368 193.986L295.542 195.289L293.541 198.166C292.44 199.748 289.216 204.482 286.378 208.687C283.54 212.891 281.154 216.405 281.076 216.495C281 216.584 280.419 216.104 279.784 215.428C277.496 212.988 274.976 211.978 270.841 211.842C268.223 211.756 268.223 211.756 267.803 211.15C266.7 209.56 264.163 207.755 262.109 207.1C261.188 206.807 261.188 206.807 261.21 196.012C261.223 190.076 261.193 182.906 261.142 180.08L261.053 174.941L263.48 174.535C309.486 166.852 299.765 98.1499 253.32 102.725ZM252.189 111.619C236.406 114.47 226.035 129.063 228.866 143.345C229.069 144.375 229.342 145.403 229.687 146.426C237.934 170.9 277.159 170.9 285.405 146.426C285.754 145.392 286.029 144.358 286.235 143.326C289.849 125.237 272.149 108.013 252.189 111.619ZM199.195 156.422C187.539 158.577 180.64 170.404 183.515 180.432C184.067 182.359 184.981 184.221 186.292 185.935C195.565 198.058 212.263 196.834 219.142 183.529C219.744 182.364 220.204 181.178 220.532 179.984C224.009 167.362 212.778 153.911 199.195 156.422ZM309.631 156.432C298.005 158.51 291.978 169.855 294.574 179.966C295.441 183.346 297.273 186.587 300.18 189.298C308.541 197.097 321.421 195.582 328.8 185.935C330.113 184.219 331.022 182.384 331.575 180.498C335.159 168.268 323.73 153.914 309.631 156.432ZM255.59 212.875C249.9 213.88 248.062 219.146 251.089 225.774C251.991 227.747 251.991 227.747 253.374 227.761C254.617 227.774 254.899 227.848 256.151 228.48C257.546 229.184 257.546 229.184 258.941 228.48C260.193 227.848 260.475 227.774 261.718 227.761C263.102 227.747 263.102 227.747 264.002 225.774C267.716 217.636 263.681 211.449 255.59 212.875ZM240.994 218.085C236.331 219.328 234.987 224.985 237.944 230.912C239.168 233.365 238.926 233.172 240.407 232.867C241.368 232.67 241.898 232.648 242.557 232.782C244.718 233.223 244.453 233.293 245.368 232.024C245.824 231.393 246.581 230.556 247.05 230.164C247.906 229.451 247.906 229.451 247.341 228.581C245.803 226.208 245.156 223.93 245.009 220.377C244.899 217.702 244.114 217.254 240.994 218.085ZM270.083 220.356C269.936 223.932 269.292 226.204 267.751 228.581C267.186 229.451 267.186 229.451 268.042 230.164C268.511 230.556 269.269 231.393 269.725 232.024C270.639 233.293 270.376 233.223 272.535 232.782C273.194 232.648 273.724 232.67 274.685 232.867C276.166 233.172 275.924 233.365 277.149 230.912C280.605 223.985 278.344 218.133 272.116 217.879L270.188 217.8L270.083 220.356ZM228.236 225.057C221.269 226.859 218.792 235.2 223.5 241.001C224.623 242.384 224.548 242.361 225.67 241.69C227.415 240.648 229.381 240.313 231.674 240.666C232.505 240.794 232.505 240.794 232.715 239.968C233.07 238.578 234.11 236.767 235.239 235.573C236.313 234.439 236.313 234.439 235.581 233.475C233.984 231.376 232.565 227.362 232.552 224.911C232.551 224.679 229.268 224.79 228.236 225.057ZM282.54 224.911C282.527 227.362 281.108 231.376 279.511 233.475C278.78 234.439 278.78 234.439 279.853 235.573C280.982 236.767 282.023 238.578 282.377 239.968C282.587 240.794 282.587 240.794 283.419 240.666C285.711 240.313 287.677 240.648 289.422 241.69C290.544 242.361 290.47 242.384 291.592 241.001C295.516 236.166 294.345 228.46 289.318 226.028C287.159 224.982 282.544 224.223 282.54 224.911ZM250.574 233.396C245.68 235.649 245.235 241.143 249.441 247.421C250.733 249.352 250.733 249.352 251.237 248.567C253.915 244.39 261.177 244.39 263.855 248.567C264.584 249.703 267.517 245.372 268.264 242.06C269.593 236.148 263.76 230.134 260.464 234.02C259.762 234.845 258.9 236.362 258.559 237.371C257.901 239.323 257.192 239.323 256.533 237.371C256.006 235.809 254.895 234.126 253.881 233.353C253.159 232.802 251.826 232.819 250.574 233.396ZM215.828 234.596C206.936 235.751 205.313 248.388 213.361 253.792C215.074 254.942 219.963 256.972 219.963 256.531C219.963 256.505 219.802 255.857 219.605 255.092C218.76 251.831 219.642 247.727 221.737 245.158C222.297 244.469 222.297 244.469 220.888 242.995C218.798 240.813 217.667 238.466 217.356 235.668C217.209 234.347 217.291 234.406 215.828 234.596ZM297.909 234.629C297.873 234.736 297.76 235.403 297.654 236.112C297.238 238.918 296.235 240.899 294.129 243.079C292.791 244.463 292.791 244.463 293.354 245.155C295.45 247.727 296.332 251.83 295.488 255.092C295.29 255.857 295.129 256.505 295.129 256.531C295.129 256.972 300.019 254.942 301.732 253.792C308.862 249.005 308.738 238.581 301.511 235.25C300.32 234.701 298.015 234.303 297.909 234.629ZM240.391 236.888C234.737 237.693 233.583 246.872 238.363 253.039C238.776 253.573 239.17 254.087 239.236 254.184C239.308 254.288 239.638 254.168 240.046 253.89C242.349 252.318 245.137 251.977 249.347 252.75C249.487 252.776 250.25 250.898 250.128 250.829C245.549 248.212 242.936 243.569 243.199 238.515C243.276 237.049 243.276 237.049 242.633 236.943C242.28 236.885 241.87 236.815 241.723 236.787C241.574 236.76 240.975 236.806 240.391 236.888ZM273.28 236.79C273.181 236.817 272.812 236.887 272.459 236.944C271.816 237.049 271.816 237.049 271.893 238.515C272.157 243.569 269.543 248.212 264.964 250.829C264.842 250.898 265.606 252.776 265.745 252.75C269.955 251.977 272.743 252.318 275.047 253.89C275.454 254.168 275.784 254.288 275.856 254.184C275.923 254.087 276.316 253.573 276.729 253.039C280.243 248.508 280.67 240.826 277.561 238.118C276.598 237.281 274.212 236.541 273.28 236.79ZM228.919 244.229C221.988 246.074 221.502 255.544 228.029 261.608C232.745 265.991 228.138 264.962 223 260.487C221.609 259.273 221.609 259.273 220.547 259.382C216.21 259.83 209.532 256.04 205.971 251.109C205.148 249.971 205.148 249.971 204.627 250.576C197.222 259.134 193.008 266.798 188.209 280.427C187.021 283.802 187.01 283.539 188.361 283.792C211.418 288.12 226.632 312.411 227.106 345.653C227.21 352.914 227.027 352.479 229.582 351.532C231.14 350.955 231.456 350.517 232.731 347.16C238.56 331.803 243.469 325.713 251.692 323.634C253.394 323.206 253.344 323.238 253.489 322.471C253.818 320.738 255.667 316.206 256.333 315.497C257.939 313.793 260.632 317.355 261.603 322.471C261.749 323.238 261.698 323.206 263.4 323.634C271.623 325.713 276.532 331.803 282.361 347.16C283.636 350.517 283.952 350.955 285.511 351.532C288.065 352.479 287.882 352.914 287.986 345.653C288.46 312.409 303.672 288.12 326.731 283.792C328.083 283.539 328.071 283.802 326.882 280.427C322.085 266.798 317.871 259.134 310.465 250.576C309.944 249.971 309.944 249.971 309.121 251.109C305.56 256.04 298.882 259.83 294.545 259.382C293.484 259.273 293.484 259.273 292.092 260.487C286.954 264.962 282.347 265.991 287.064 261.608C291.772 257.233 292.961 252.716 290.612 248.123C288.751 244.482 283.009 242.301 282.645 245.094C282.061 249.565 280.274 253.003 277.582 254.834C276.799 255.368 276.799 255.368 277.467 256.563C279.004 259.314 278.245 262.889 275.551 265.582C273.27 267.861 271.439 268.011 273.531 265.747C276.276 262.778 276.084 259.159 273.138 258.293C271.374 257.776 265.817 257.995 265.817 258.583C265.817 259.918 264.032 264.026 262.97 265.128C261.655 266.495 261.38 265.901 262.286 263.654C265.061 256.767 262.749 250.203 257.546 250.203C252.344 250.203 250.031 256.767 252.806 263.654C253.712 265.901 253.437 266.495 252.122 265.128C251.061 264.026 249.275 259.918 249.275 258.583C249.275 257.995 243.718 257.776 241.955 258.293C239.008 259.159 238.817 262.778 241.561 265.747C243.653 268.011 241.822 267.861 239.541 265.582C236.847 262.889 236.088 259.314 237.625 256.563C238.294 255.368 238.294 255.368 237.51 254.834C234.82 253.005 233.031 249.564 232.449 245.106C232.354 244.373 232.251 244.168 231.946 244.086C231.313 243.919 229.819 243.989 228.919 244.229ZM179.351 288.243C168.741 289.91 170.336 301.466 182.515 311.149C186.38 314.223 186.45 314.265 192.631 317.415C215.416 329.022 221.403 336.155 221.403 351.707C221.403 352.777 222.171 353.104 223.245 352.492C223.44 352.379 223.408 344.941 223.198 340.966C222.209 322.297 214.644 304.847 203.801 296.221C196.629 290.513 186.318 287.149 179.351 288.243ZM330.283 288.185C310.607 290.255 295.645 308.872 292.347 335.388C291.822 339.607 291.452 352.266 291.847 352.492C292.922 353.104 293.69 352.777 293.69 351.707C293.69 336.153 299.671 329.025 322.461 317.415C328.642 314.265 328.712 314.223 332.578 311.149C347.172 299.545 345.873 286.543 330.283 288.185ZM171.644 311.941C163.367 320.862 160.927 339.29 166.284 352.434C173.802 370.887 198.4 388.04 220.054 389.933C229.867 390.791 232.094 390.644 231.155 389.2C229.616 386.834 224.34 377.233 221.259 371.191C220.459 369.626 219.22 367.429 218.505 366.303C215.288 361.251 215.053 357.58 217.76 354.721C219.363 353.025 218.355 345.012 215.932 340.166C214.734 337.769 214.816 337.795 213.676 339.499C200.557 359.134 173.791 344.11 174.333 317.416C174.416 313.343 174.416 313.343 173.281 312.441C171.955 311.392 172.11 311.438 171.644 311.941ZM341.772 312.454C340.676 313.343 340.676 313.343 340.758 317.416C341.301 344.11 314.535 359.134 301.416 339.499C300.277 337.795 300.359 337.769 299.16 340.166C296.737 345.012 295.73 353.025 297.333 354.721C300.039 357.58 299.804 361.251 296.588 366.303C295.872 367.429 294.633 369.626 293.834 371.191C290.752 377.233 285.476 386.834 283.937 389.2C282.992 390.654 282.729 390.585 288.254 390.327C299.778 389.797 304.571 388.746 313.919 384.695C347.717 370.054 361.461 338.953 345.063 314.218C343.036 311.159 343.236 311.268 341.772 312.454ZM178.885 316.742C177.142 322.463 180.592 333.241 185.935 338.772C187.594 340.486 187.694 340.496 187.031 338.89C184.367 332.417 185.343 324.391 189.105 321.843C189.801 321.371 188.53 320.58 183.64 318.443C182.503 317.946 181.028 317.27 180.363 316.941C178.927 316.23 179.037 316.246 178.885 316.742ZM334.958 316.824C334.464 317.077 332.926 317.791 331.542 318.409C326.198 320.783 325.27 321.358 325.985 321.84C329.749 324.391 330.726 332.412 328.062 338.89C327.398 340.496 327.499 340.486 329.157 338.772C334.5 333.241 337.95 322.463 336.207 316.742C336.058 316.253 336.066 316.253 334.958 316.824ZM255.418 327.733C248.537 328.949 242.097 336.321 237.102 348.7C234.6 354.908 233.297 355.806 224.999 357.053C219.538 357.876 219.178 359.19 222.931 364.604C225.644 368.521 228.958 373.928 232.459 380.151C238.714 391.276 241.022 394.966 244.204 398.928C255.176 412.599 264.552 410.357 276.186 391.282C278.477 387.526 278.762 387.035 282.633 380.151C286.134 373.928 289.448 368.521 292.161 364.604C295.914 359.19 295.554 357.876 290.094 357.053C281.795 355.806 280.494 354.908 277.99 348.7C271.969 333.778 263.852 326.238 255.418 327.733ZM237.137 357.161C235.457 358.026 234.85 359.688 235.633 361.286C236.254 362.552 237.961 363.185 239.013 362.537C239.302 362.359 239.52 362.423 240.404 362.959C243.562 364.868 244.767 364.499 243.786 361.917C242.287 357.981 239.464 355.961 237.137 357.161ZM274.864 357.24C272.936 358.209 270.471 362.349 271.076 363.607C271.512 364.512 272.371 364.359 274.688 362.959C275.572 362.423 275.79 362.359 276.08 362.537C277.131 363.185 278.839 362.552 279.46 361.286C280.799 358.552 277.695 355.816 274.864 357.24Z" fill="black"/>
</mask>
<g mask="url(#mask0_1644_3595)">
<path fill-rule="evenodd" clip-rule="evenodd" d="M253.32 102.725C212.157 106.78 210.708 167.716 251.612 174.535C253.466 174.843 254.052 175.006 254.096 175.221C254.126 175.376 253.977 178.449 253.764 182.05C253.552 185.65 253.284 192.73 253.169 197.782C253.054 202.835 252.92 206.999 252.871 207.035C252.822 207.071 252.153 207.408 251.386 207.785C249.948 208.493 248.056 210.043 247.295 211.141C246.869 211.756 246.869 211.756 244.251 211.842C240.116 211.978 237.596 212.988 235.309 215.428C234.675 216.104 234.093 216.584 234.016 216.495C233.938 216.405 231.554 212.891 228.714 208.687C225.876 204.482 222.652 199.748 221.551 198.166L219.55 195.289L220.724 193.986C242.627 169.72 212 133.172 185.957 152.498C160.035 171.733 183.269 212.085 213.074 199.591C213.196 199.54 215.411 202.308 218.311 206.139C221.074 209.789 224.526 214.29 225.981 216.14C227.436 217.992 228.75 219.69 228.9 219.918C229.21 220.383 229.308 220.315 227.641 220.772C223.019 222.043 218.661 225.879 217.796 229.44C217.683 229.906 217.497 230.292 217.383 230.295C209.571 230.503 203.594 236.305 203.509 243.76C203.481 246.296 203.481 246.296 202.417 246.927C192.735 252.674 179.599 271.951 178.661 281.791C178.522 283.245 178.577 283.197 176.661 283.524C172.338 284.262 169.812 285.824 167.149 289.403C163.776 293.936 163.465 297.834 166.037 303.336C166.908 305.201 166.956 304.87 165.52 306.894C150.337 328.282 153.5 353.381 173.927 373.598C187.287 386.824 206.042 394.887 227.066 396.441C235.095 397.035 236.014 397.34 238.082 400.062C251.678 417.968 263.414 417.968 277.01 400.062C279.078 397.34 279.997 397.035 288.026 396.441C319.453 394.117 345.746 376.891 355.602 352.168C361.885 336.41 359.891 321.45 349.568 306.88C348.136 304.859 348.185 305.197 349.055 303.336C351.627 297.834 351.316 293.936 347.944 289.403C345.281 285.824 342.755 284.262 338.431 283.524C336.515 283.197 336.57 283.245 336.432 281.791C336.125 278.564 332.67 270.284 329.375 264.871C325.325 258.219 317.457 249.765 312.675 246.927C311.611 246.296 311.611 246.296 311.582 243.76C311.498 236.305 305.521 230.503 297.709 230.295C297.595 230.292 297.41 229.906 297.296 229.44C296.431 225.879 292.073 222.043 287.451 220.772C285.784 220.315 285.884 220.383 286.192 219.918C286.342 219.69 287.656 217.992 289.111 216.14C290.566 214.29 294.018 209.789 296.781 206.139C299.682 202.308 301.896 199.54 302.018 199.591C331.824 212.085 355.057 171.733 329.134 152.498C303.092 133.172 272.465 169.72 294.368 193.986L295.542 195.289L293.541 198.166C292.44 199.748 289.216 204.482 286.378 208.687C283.54 212.891 281.154 216.405 281.076 216.495C281 216.584 280.419 216.104 279.784 215.428C277.496 212.988 274.976 211.978 270.841 211.842C268.223 211.756 268.223 211.756 267.803 211.15C266.7 209.56 264.163 207.755 262.109 207.1C261.188 206.807 261.188 206.807 261.21 196.012C261.223 190.076 261.193 182.906 261.142 180.08L261.053 174.941L263.48 174.535C309.486 166.852 299.765 98.1499 253.32 102.725ZM252.189 111.619C236.406 114.47 226.035 129.063 228.866 143.345C229.069 144.375 229.342 145.403 229.687 146.426C237.934 170.9 277.159 170.9 285.405 146.426C285.754 145.392 286.029 144.358 286.235 143.326C289.849 125.237 272.149 108.013 252.189 111.619ZM199.195 156.422C187.539 158.577 180.64 170.404 183.515 180.432C184.067 182.359 184.981 184.221 186.292 185.935C195.565 198.058 212.263 196.834 219.142 183.529C219.744 182.364 220.204 181.178 220.532 179.984C224.009 167.362 212.778 153.911 199.195 156.422ZM309.631 156.432C298.005 158.51 291.978 169.855 294.574 179.966C295.442 183.346 297.273 186.587 300.18 189.298C308.541 197.097 321.421 195.582 328.8 185.935C330.113 184.219 331.022 182.384 331.575 180.498C335.159 168.268 323.73 153.914 309.631 156.432ZM255.59 212.875C249.9 213.88 248.062 219.146 251.089 225.774C251.991 227.747 251.991 227.747 253.374 227.761C254.617 227.774 254.899 227.847 256.151 228.48C257.546 229.184 257.546 229.184 258.941 228.48C260.193 227.847 260.475 227.774 261.718 227.761C263.102 227.747 263.102 227.747 264.002 225.774C267.716 217.636 263.681 211.449 255.59 212.875ZM240.994 218.085C236.331 219.328 234.987 224.985 237.944 230.912C239.168 233.365 238.926 233.172 240.407 232.867C241.368 232.67 241.898 232.648 242.557 232.782C244.718 233.223 244.453 233.293 245.368 232.024C245.824 231.393 246.581 230.556 247.05 230.164C247.906 229.451 247.906 229.451 247.341 228.581C245.803 226.208 245.156 223.93 245.009 220.377C244.899 217.702 244.114 217.254 240.994 218.085ZM270.083 220.356C269.936 223.932 269.292 226.204 267.751 228.581C267.186 229.451 267.186 229.451 268.042 230.164C268.511 230.556 269.269 231.393 269.725 232.024C270.639 233.293 270.376 233.223 272.535 232.782C273.194 232.648 273.724 232.67 274.685 232.867C276.166 233.172 275.924 233.365 277.149 230.912C280.605 223.985 278.344 218.133 272.116 217.879L270.188 217.8L270.083 220.356ZM228.236 225.057C221.269 226.859 218.792 235.2 223.5 241.001C224.623 242.384 224.548 242.361 225.67 241.69C227.415 240.648 229.381 240.313 231.674 240.666C232.505 240.794 232.505 240.794 232.715 239.968C233.07 238.578 234.11 236.767 235.239 235.573C236.313 234.439 236.313 234.439 235.581 233.475C233.984 231.376 232.565 227.362 232.552 224.911C232.551 224.679 229.268 224.79 228.236 225.057ZM282.54 224.911C282.527 227.362 281.108 231.376 279.511 233.475C278.78 234.439 278.78 234.439 279.853 235.573C280.982 236.767 282.023 238.578 282.377 239.968C282.587 240.794 282.587 240.794 283.419 240.666C285.711 240.313 287.677 240.648 289.422 241.69C290.544 242.361 290.47 242.384 291.592 241.001C295.516 236.166 294.345 228.46 289.318 226.028C287.159 224.982 282.544 224.223 282.54 224.911ZM250.574 233.396C245.68 235.649 245.235 241.143 249.441 247.421C250.733 249.352 250.733 249.352 251.237 248.567C253.915 244.39 261.177 244.39 263.855 248.567C264.584 249.703 267.517 245.372 268.264 242.06C269.593 236.148 263.76 230.134 260.464 234.02C259.762 234.845 258.9 236.362 258.559 237.371C257.901 239.323 257.192 239.323 256.533 237.371C256.006 235.809 254.895 234.126 253.881 233.353C253.159 232.802 251.826 232.819 250.574 233.396ZM215.828 234.596C206.936 235.751 205.313 248.388 213.361 253.792C215.074 254.942 219.963 256.972 219.963 256.531C219.963 256.505 219.802 255.857 219.605 255.092C218.76 251.831 219.642 247.727 221.737 245.158C222.297 244.469 222.297 244.469 220.888 242.995C218.798 240.813 217.667 238.466 217.356 235.668C217.209 234.347 217.291 234.406 215.828 234.596ZM297.909 234.629C297.873 234.736 297.76 235.403 297.654 236.112C297.238 238.918 296.235 240.899 294.129 243.079C292.791 244.463 292.791 244.463 293.354 245.155C295.45 247.727 296.332 251.83 295.488 255.092C295.29 255.857 295.129 256.505 295.129 256.531C295.129 256.972 300.019 254.942 301.732 253.792C308.862 249.005 308.738 238.581 301.511 235.25C300.32 234.701 298.015 234.303 297.909 234.629ZM240.391 236.888C234.737 237.693 233.583 246.872 238.363 253.039C238.776 253.573 239.17 254.087 239.236 254.184C239.308 254.288 239.638 254.168 240.046 253.89C242.349 252.318 245.137 251.977 249.347 252.75C249.487 252.776 250.25 250.898 250.128 250.829C245.549 248.212 242.936 243.569 243.199 238.515C243.276 237.049 243.276 237.049 242.633 236.943C242.28 236.885 241.87 236.815 241.723 236.787C241.574 236.76 240.975 236.806 240.391 236.888ZM273.28 236.79C273.181 236.817 272.812 236.887 272.459 236.944C271.816 237.049 271.816 237.049 271.893 238.515C272.157 243.569 269.543 248.212 264.964 250.829C264.842 250.898 265.606 252.776 265.745 252.75C269.955 251.977 272.743 252.318 275.047 253.89C275.454 254.168 275.784 254.288 275.856 254.184C275.923 254.087 276.316 253.573 276.729 253.039C280.243 248.508 280.67 240.826 277.561 238.118C276.598 237.281 274.212 236.541 273.28 236.79ZM228.919 244.229C221.988 246.074 221.502 255.544 228.029 261.608C232.745 265.991 228.138 264.962 223 260.487C221.609 259.273 221.609 259.273 220.547 259.382C216.21 259.83 209.532 256.04 205.971 251.109C205.148 249.971 205.148 249.971 204.627 250.576C197.222 259.134 193.008 266.798 188.209 280.427C187.021 283.802 187.01 283.539 188.361 283.792C211.418 288.12 226.632 312.411 227.106 345.653C227.21 352.914 227.027 352.479 229.582 351.532C231.14 350.955 231.456 350.517 232.731 347.16C238.56 331.803 243.469 325.713 251.692 323.634C253.394 323.206 253.344 323.238 253.489 322.471C253.818 320.738 255.667 316.206 256.333 315.497C257.939 313.793 260.632 317.355 261.603 322.471C261.749 323.238 261.698 323.206 263.4 323.634C271.623 325.713 276.532 331.803 282.361 347.16C283.636 350.517 283.952 350.955 285.511 351.532C288.065 352.479 287.882 352.914 287.986 345.653C288.46 312.409 303.672 288.12 326.731 283.792C328.083 283.539 328.071 283.802 326.882 280.427C322.085 266.798 317.871 259.134 310.465 250.576C309.944 249.971 309.944 249.971 309.121 251.109C305.56 256.04 298.882 259.83 294.545 259.382C293.484 259.273 293.484 259.273 292.092 260.487C286.954 264.962 282.347 265.991 287.064 261.608C291.772 257.233 292.961 252.716 290.612 248.123C288.751 244.482 283.009 242.301 282.645 245.094C282.061 249.565 280.274 253.003 277.582 254.834C276.799 255.368 276.799 255.368 277.467 256.563C279.004 259.314 278.245 262.889 275.551 265.582C273.27 267.861 271.439 268.011 273.531 265.747C276.276 262.778 276.084 259.159 273.138 258.293C271.374 257.776 265.817 257.995 265.817 258.583C265.817 259.918 264.032 264.026 262.97 265.128C261.655 266.495 261.38 265.901 262.286 263.654C265.061 256.767 262.749 250.203 257.546 250.203C252.344 250.203 250.031 256.767 252.806 263.654C253.712 265.901 253.437 266.495 252.122 265.128C251.061 264.026 249.275 259.918 249.275 258.583C249.275 257.995 243.718 257.776 241.955 258.293C239.008 259.159 238.817 262.778 241.561 265.747C243.653 268.011 241.822 267.861 239.541 265.582C236.847 262.889 236.088 259.314 237.625 256.563C238.294 255.368 238.294 255.368 237.51 254.834C234.82 253.005 233.031 249.564 232.449 245.106C232.354 244.373 232.251 244.168 231.946 244.086C231.313 243.919 229.819 243.989 228.919 244.229ZM179.351 288.243C168.741 289.91 170.336 301.466 182.515 311.149C186.38 314.223 186.45 314.265 192.631 317.415C215.416 329.022 221.403 336.155 221.403 351.707C221.403 352.777 222.171 353.104 223.245 352.492C223.44 352.379 223.408 344.941 223.198 340.966C222.209 322.297 214.644 304.847 203.801 296.221C196.629 290.513 186.318 287.149 179.351 288.243ZM330.283 288.185C310.607 290.255 295.645 308.872 292.347 335.388C291.822 339.607 291.452 352.266 291.847 352.492C292.922 353.104 293.69 352.777 293.69 351.707C293.69 336.153 299.671 329.025 322.461 317.415C328.642 314.265 328.712 314.223 332.578 311.149C347.172 299.545 345.873 286.543 330.283 288.185ZM171.644 311.941C163.367 320.862 160.927 339.291 166.284 352.434C173.802 370.887 198.4 388.04 220.054 389.933C229.867 390.791 232.094 390.644 231.155 389.2C229.616 386.834 224.34 377.233 221.259 371.191C220.459 369.626 219.22 367.429 218.505 366.303C215.288 361.251 215.053 357.58 217.76 354.721C219.363 353.025 218.356 345.012 215.932 340.166C214.734 337.769 214.816 337.795 213.676 339.499C200.557 359.134 173.791 344.11 174.333 317.416C174.416 313.343 174.416 313.343 173.281 312.441C171.955 311.392 172.11 311.438 171.644 311.941ZM341.772 312.454C340.676 313.343 340.676 313.343 340.758 317.416C341.301 344.11 314.535 359.134 301.416 339.499C300.277 337.795 300.359 337.769 299.16 340.166C296.737 345.012 295.73 353.025 297.333 354.721C300.039 357.58 299.804 361.251 296.588 366.303C295.872 367.429 294.633 369.626 293.834 371.191C290.752 377.233 285.476 386.834 283.937 389.2C282.992 390.654 282.729 390.585 288.254 390.327C299.778 389.797 304.571 388.746 313.919 384.695C347.717 370.054 361.461 338.953 345.063 314.218C343.036 311.159 343.236 311.268 341.772 312.454ZM178.885 316.742C177.142 322.463 180.592 333.241 185.935 338.772C187.594 340.486 187.694 340.496 187.031 338.89C184.367 332.417 185.343 324.391 189.105 321.843C189.801 321.371 188.53 320.58 183.64 318.443C182.503 317.946 181.028 317.27 180.363 316.941C178.927 316.23 179.037 316.246 178.885 316.742ZM334.958 316.824C334.464 317.077 332.926 317.791 331.542 318.409C326.198 320.783 325.27 321.358 325.985 321.84C329.749 324.391 330.726 332.412 328.062 338.89C327.398 340.496 327.499 340.486 329.157 338.772C334.5 333.241 337.95 322.463 336.207 316.742C336.058 316.253 336.066 316.253 334.958 316.824ZM255.418 327.733C248.537 328.949 242.097 336.321 237.102 348.7C234.6 354.908 233.297 355.806 224.999 357.053C219.538 357.876 219.178 359.19 222.931 364.604C225.644 368.521 228.958 373.928 232.459 380.151C238.714 391.276 241.022 394.966 244.204 398.928C255.176 412.599 264.552 410.357 276.186 391.282C278.477 387.526 278.762 387.035 282.633 380.151C286.134 373.928 289.448 368.521 292.161 364.604C295.914 359.19 295.554 357.876 290.094 357.053C281.795 355.806 280.494 354.908 277.99 348.7C271.969 333.778 263.852 326.238 255.418 327.733ZM237.137 357.161C235.457 358.026 234.85 359.688 235.633 361.286C236.254 362.552 237.961 363.185 239.013 362.537C239.302 362.359 239.52 362.423 240.404 362.959C243.562 364.868 244.767 364.499 243.786 361.917C242.287 357.981 239.464 355.961 237.137 357.161ZM274.864 357.24C272.936 358.209 270.471 362.349 271.076 363.607C271.512 364.512 272.371 364.359 274.688 362.959C275.572 362.423 275.79 362.359 276.08 362.537C277.131 363.185 278.839 362.552 279.46 361.286C280.799 358.552 277.695 355.816 274.864 357.24Z" stroke="white" stroke-width="8"/>
</g>
<path d="M273.28 236.79C273.181 236.818 272.812 236.887 272.459 236.944C271.816 237.05 271.817 237.05 271.893 238.515C272.157 243.569 269.543 248.212 264.964 250.829C264.842 250.898 265.606 252.777 265.745 252.751C269.955 251.977 272.743 252.318 275.047 253.89C275.454 254.168 275.784 254.288 275.856 254.184C275.923 254.088 276.316 253.573 276.729 253.04C280.243 248.508 280.67 240.826 277.559 238.119C276.598 237.282 274.212 236.541 273.28 236.79Z" fill="#2430F0"/>
<path d="M297.909 234.629C297.873 234.736 297.76 235.403 297.654 236.112C297.238 238.918 296.235 240.899 294.129 243.079C292.791 244.463 292.791 244.463 293.354 245.155C295.45 247.728 296.332 251.83 295.488 255.092C295.29 255.857 295.129 256.505 295.129 256.531C295.129 256.972 300.019 254.942 301.732 253.792C308.862 249.005 308.738 238.582 301.511 235.25C300.32 234.701 298.015 234.303 297.909 234.629Z" fill="#2430F0"/>
<path d="M282.54 224.911C282.527 227.362 281.108 231.376 279.511 233.475C278.779 234.439 278.779 234.439 279.853 235.573C280.982 236.767 282.022 238.58 282.377 239.968C282.587 240.794 282.587 240.794 283.418 240.667C285.711 240.313 287.677 240.648 289.422 241.69C290.544 242.361 290.469 242.385 291.592 241.001C295.516 236.166 294.345 228.461 289.318 226.028C287.159 224.982 282.544 224.223 282.54 224.911Z" fill="#2430F0"/>
<path d="M270.083 220.356C269.936 223.932 269.292 226.204 267.75 228.581C267.186 229.451 267.186 229.451 268.042 230.164C268.511 230.556 269.268 231.393 269.724 232.024C270.639 233.294 270.374 233.223 272.535 232.782C273.194 232.648 273.724 232.668 274.685 232.867C276.166 233.173 275.924 233.366 277.147 230.912C280.605 223.985 278.344 218.133 272.114 217.879L270.188 217.8L270.083 220.356Z" fill="#2430F0"/>
<path d="M255.589 212.876C249.899 213.88 248.062 219.146 251.089 225.774C251.991 227.747 251.991 227.747 253.374 227.761C254.617 227.774 254.899 227.848 256.151 228.48C257.546 229.185 257.546 229.185 258.941 228.48C260.193 227.848 260.475 227.774 261.718 227.761C263.101 227.747 263.101 227.747 264.002 225.774C267.716 217.636 263.681 211.449 255.589 212.876Z" fill="#2430F0"/>
<path d="M250.574 233.396C245.68 235.649 245.235 241.143 249.44 247.422C250.733 249.352 250.733 249.352 251.237 248.567C253.915 244.39 261.176 244.39 263.855 248.567C264.584 249.704 267.517 245.373 268.263 242.061C269.593 236.148 263.76 230.134 260.463 234.02C259.762 234.845 258.9 236.363 258.559 237.371C257.9 239.323 257.191 239.323 256.533 237.371C256.006 235.809 254.895 234.127 253.881 233.353C253.159 232.802 251.826 232.82 250.574 233.396Z" fill="#2430F0"/>
<path d="M240.391 236.888C234.736 237.694 233.582 246.873 238.363 253.039C238.776 253.573 239.169 254.088 239.236 254.184C239.308 254.288 239.638 254.168 240.045 253.89C242.349 252.318 245.137 251.977 249.347 252.751C249.486 252.777 250.25 250.898 250.128 250.829C245.549 248.212 242.935 243.569 243.199 238.515C243.275 237.05 243.275 237.05 242.633 236.943C242.28 236.885 241.869 236.815 241.722 236.787C241.574 236.76 240.975 236.806 240.391 236.888Z" fill="#2430F0"/>
<path d="M228.236 225.057C221.269 226.859 218.792 235.2 223.5 241.001C224.623 242.384 224.548 242.361 225.67 241.69C227.415 240.648 229.381 240.313 231.673 240.666C232.505 240.794 232.505 240.794 232.715 239.968C233.069 238.579 234.11 236.767 235.239 235.573C236.313 234.439 236.313 234.439 235.581 233.475C233.984 231.376 232.565 227.362 232.552 224.911C232.551 224.679 229.267 224.79 228.236 225.057Z" fill="#2430F0"/>
<path d="M240.994 218.087C236.331 219.329 234.987 224.985 237.944 230.912C239.168 233.366 238.926 233.173 240.407 232.867C241.368 232.67 241.898 232.648 242.557 232.782C244.718 233.223 244.453 233.294 245.368 232.024C245.823 231.393 246.581 230.556 247.05 230.165C247.906 229.451 247.906 229.451 247.341 228.581C245.803 226.208 245.156 223.93 245.009 220.378C244.899 217.702 244.114 217.254 240.994 218.087Z" fill="#2430F0"/>
<path d="M215.828 234.596C206.936 235.751 205.313 248.388 213.36 253.792C215.073 254.942 219.963 256.972 219.963 256.531C219.963 256.505 219.802 255.857 219.605 255.092C218.76 251.831 219.642 247.727 221.737 245.158C222.297 244.469 222.297 244.469 220.888 242.995C218.798 240.813 217.667 238.466 217.356 235.668C217.207 234.347 217.291 234.406 215.828 234.596Z" fill="#2430F0"/>
<path d="M330.283 288.185C310.607 290.256 295.645 308.873 292.347 335.388C291.822 339.608 291.452 352.266 291.847 352.492C292.922 353.105 293.69 352.777 293.69 351.707C293.69 336.153 299.672 329.026 322.461 317.415C328.642 314.265 328.712 314.224 332.578 311.149C347.172 299.546 345.873 286.544 330.283 288.185Z" fill="#2BE1B7"/>
<path d="M341.772 312.454C340.676 313.343 340.676 313.343 340.758 317.416C341.301 344.11 314.535 359.134 301.416 339.499C300.276 337.795 300.359 337.769 299.16 340.167C296.737 345.012 295.73 353.025 297.332 354.721C300.039 357.581 299.804 361.252 296.587 366.303C295.872 367.429 294.633 369.626 293.833 371.191C290.752 377.233 285.476 386.834 283.937 389.2C282.992 390.654 282.728 390.585 288.254 390.327C299.778 389.797 304.571 388.746 313.919 384.695C347.717 370.054 361.461 338.953 345.063 314.218C343.036 311.159 343.236 311.268 341.772 312.454Z" fill="#2BE1B7"/>
<path d="M171.644 311.941C163.366 320.862 160.927 339.291 166.284 352.434C173.801 370.887 198.4 388.04 220.054 389.933C229.867 390.791 232.094 390.644 231.155 389.2C229.616 386.834 224.34 377.233 221.258 371.191C220.459 369.626 219.22 367.429 218.504 366.303C215.288 361.252 215.053 357.581 217.759 354.721C219.362 353.025 218.355 345.012 215.932 340.167C214.733 337.769 214.816 337.795 213.676 339.499C200.557 359.134 173.791 344.11 174.333 317.416C174.416 313.343 174.416 313.343 173.281 312.441C171.955 311.392 172.11 311.438 171.644 311.941Z" fill="#2BE1B7"/>
<path d="M179.351 288.243C168.741 289.91 170.336 301.466 182.514 311.149C186.38 314.223 186.45 314.265 192.631 317.415C215.416 329.022 221.402 336.156 221.402 351.707C221.402 352.777 222.17 353.104 223.245 352.492C223.44 352.38 223.408 344.941 223.198 340.966C222.209 322.297 214.644 304.847 203.801 296.221C196.629 290.513 186.318 287.149 179.351 288.243Z" fill="#2BE1B7"/>
<path d="M228.92 244.229C221.987 246.074 221.502 255.544 228.028 261.608C232.745 265.991 228.138 264.962 223 260.487C221.609 259.273 221.609 259.273 220.547 259.382C216.21 259.83 209.532 256.04 205.971 251.11C205.148 249.971 205.148 249.971 204.627 250.576C197.222 259.134 193.008 266.798 188.209 280.427C187.021 283.802 187.01 283.539 188.361 283.792C211.418 288.12 226.634 312.411 227.106 345.653C227.21 352.914 227.027 352.479 229.582 351.532C231.14 350.955 231.456 350.517 232.731 347.16C238.562 331.803 243.469 325.713 251.692 323.634C253.394 323.206 253.343 323.238 253.489 322.472C253.817 320.738 255.667 316.206 256.333 315.497C257.939 313.793 260.632 317.356 261.603 322.472C261.749 323.238 261.698 323.206 263.4 323.634C271.623 325.713 276.532 331.803 282.361 347.16C283.636 350.517 283.952 350.955 285.51 351.532C288.065 352.479 287.882 352.914 287.986 345.653C288.46 312.41 303.672 288.12 326.731 283.792C328.082 283.539 328.071 283.802 326.882 280.427C322.085 266.798 317.871 259.134 310.467 250.576C309.944 249.971 309.944 249.971 309.121 251.11C305.56 256.04 298.882 259.83 294.545 259.382C293.485 259.273 293.485 259.273 292.092 260.487C286.954 264.962 282.347 265.991 287.064 261.608C291.772 257.233 292.96 252.716 290.612 248.123C288.751 244.482 283.009 242.301 282.645 245.094C282.061 249.565 280.273 253.003 277.582 254.834C276.798 255.368 276.798 255.368 277.467 256.563C279.004 259.314 278.245 262.889 275.551 265.582C273.27 267.861 271.439 268.011 273.531 265.747C276.275 262.778 276.084 259.159 273.138 258.293C271.374 257.776 265.817 257.995 265.817 258.583C265.817 259.918 264.032 264.026 262.97 265.128C261.656 266.495 261.38 265.901 262.286 263.654C265.061 256.767 262.748 250.203 257.546 250.203C252.344 250.203 250.031 256.767 252.806 263.654C253.712 265.901 253.437 266.495 252.122 265.128C251.061 264.026 249.275 259.918 249.275 258.583C249.275 257.995 243.718 257.776 241.954 258.293C239.008 259.159 238.817 262.778 241.561 265.747C243.653 268.011 241.822 267.861 239.541 265.582C236.847 262.889 236.088 259.314 237.625 256.563C238.294 255.368 238.294 255.368 237.51 254.834C234.821 253.006 233.031 249.564 232.449 245.106C232.353 244.373 232.253 244.168 231.946 244.086C231.313 243.919 229.819 243.989 228.92 244.229Z" fill="#2430F0"/>
<path fill-rule="evenodd" clip-rule="evenodd" d="M255.418 327.733C248.537 328.949 242.097 336.321 237.102 348.7C234.598 354.908 233.297 355.806 224.999 357.053C219.538 357.876 219.178 359.19 222.931 364.604C225.644 368.522 228.958 373.929 232.459 380.151C238.714 391.276 241.022 394.966 244.203 398.928C255.175 412.599 264.552 410.357 276.186 391.282C278.477 387.526 278.762 387.035 282.633 380.151C286.134 373.929 289.448 368.522 292.161 364.604C295.914 359.19 295.554 357.876 290.093 357.053C281.795 355.806 280.492 354.908 277.99 348.7C271.969 333.778 263.852 326.238 255.418 327.733ZM235.633 361.286C234.85 359.688 235.457 358.026 237.137 357.161C239.463 355.961 242.287 357.981 243.786 361.917C244.767 364.499 243.562 364.868 240.404 362.959C239.52 362.423 239.302 362.36 239.013 362.537C237.961 363.185 236.254 362.553 235.633 361.286ZM271.076 363.607C270.471 362.349 272.936 358.209 274.864 357.241C277.695 355.816 280.799 358.552 279.459 361.286C278.839 362.553 277.131 363.185 276.08 362.537C275.79 362.36 275.572 362.423 274.688 362.959C272.371 364.359 271.512 364.512 271.076 363.607Z" fill="#F2C79C"/>
<path fill-rule="evenodd" clip-rule="evenodd" d="M220.532 179.985C218.139 171.07 210.687 164.05 200.56 165.921C192.525 167.408 185.385 173.512 183.515 180.432C184.067 182.36 184.981 184.221 186.292 185.936C195.565 198.058 212.263 196.835 219.142 183.53C219.744 182.364 220.204 181.178 220.532 179.985Z" fill="#2430F0"/>
<path fill-rule="evenodd" clip-rule="evenodd" d="M229.687 146.426C229.342 145.403 229.069 144.375 228.865 143.345C230.959 132.629 241.312 123.33 253.555 121.118C269.941 118.158 283.436 129.257 286.235 143.326C286.029 144.358 285.754 145.392 285.405 146.426C277.159 170.9 237.933 170.9 229.687 146.426Z" fill="#2430F0"/>
<path d="M309.631 156.433C298.004 158.51 291.978 169.856 294.574 179.967C296.291 173.191 303.004 167.36 310.997 165.931C321.475 164.06 329.113 171.53 331.575 180.498C335.159 168.268 323.73 153.914 309.631 156.433Z" fill="#2430F0"/>
<path d="M228.864 143.345C230.959 132.629 241.312 123.33 253.555 121.118C269.941 118.159 283.436 129.258 286.235 143.327C289.848 125.238 272.149 108.014 252.189 111.619C236.406 114.47 226.034 129.064 228.864 143.345Z" fill="#2430F0"/>
<path d="M200.559 165.921C210.686 164.049 218.141 171.07 220.532 179.984C224.009 167.362 212.778 153.911 199.195 156.422C187.538 158.578 180.64 170.404 183.514 180.432C185.385 173.512 192.525 167.408 200.559 165.921Z" fill="#2430F0"/>
<path d="M300.18 189.298C308.54 197.097 321.42 195.583 328.8 185.936C330.112 184.22 331.021 182.384 331.575 180.498C329.112 171.53 321.475 164.06 310.997 165.931C303.004 167.36 296.291 173.191 294.574 179.967C295.443 183.345 297.272 186.587 300.18 189.298Z" fill="#2430F0"/>
<path fill-rule="evenodd" clip-rule="evenodd" d="M233.211 133.69C237.785 127.409 245.241 122.623 253.571 121.118C266.036 118.866 276.83 124.752 282.512 133.892C283.596 132.814 284.587 131.718 285.405 130.645C281.178 118.129 267.342 108.885 252.205 111.619C241.747 113.508 233.666 120.552 230.226 129.244C230.969 130.663 232.021 132.185 233.211 133.69Z" fill="#F2C79C"/>
<path d="M233.211 133.69C237.272 138.824 242.957 143.769 243.643 143.769C244.162 143.769 247.027 141.016 250.005 138.157C253.221 135.068 256.565 131.857 257.219 131.857C257.849 131.857 260.546 134.835 263.243 137.813C265.94 140.791 268.637 143.769 269.266 143.769C270.07 143.769 277.347 139.031 282.512 133.892C276.83 124.752 266.036 118.866 253.571 121.118C245.241 122.623 237.785 127.409 233.211 133.69Z" fill="#2BE1B7"/>
<path d="M183.61 179.931C185.682 173.218 192.67 167.372 200.51 165.921C206.505 164.813 211.564 166.821 215.19 170.495C215.864 168.033 216.351 165.093 216.295 162.623C212.225 157.939 205.984 155.159 199.145 156.422C187.764 158.527 180.919 169.851 183.278 179.719C183.387 179.791 183.498 179.862 183.61 179.931Z" fill="#2BE1B7"/>
<path d="M183.61 179.931C188.02 182.684 194.031 183.887 195.615 182.973C196.842 182.266 197.409 178.699 197.543 175.026C197.644 172.234 197.735 169.735 198.279 169.275C198.88 168.765 201.793 170.422 204.88 172.178C208.265 174.102 212.087 175.78 213.074 175.221C213.78 174.823 214.476 173.112 215.19 170.495C211.564 166.822 206.506 164.813 200.511 165.921C192.67 167.372 185.682 173.218 183.61 179.931Z" fill="#2BE1B7"/>
<path fill-rule="evenodd" clip-rule="evenodd" d="M295.912 167.238C296.182 169.194 301.847 179.684 303.375 180.04C304.202 180.232 307.033 178.235 309.628 176.405C311.824 174.857 313.849 173.427 314.344 173.55C314.795 173.662 315.655 175.001 316.66 176.567C318.059 178.746 319.742 181.367 320.997 181.729C322.623 182.197 329.101 178.83 332.271 176.571C332.76 165.421 322.288 154.181 309.68 156.433C303.096 157.608 298.308 161.757 295.865 166.97C295.884 167.052 295.899 167.141 295.912 167.238Z" fill="#2BE1B7"/>
<path d="M334.958 316.824C334.463 317.078 332.926 317.791 331.542 318.409C326.198 320.783 325.27 321.358 325.985 321.841C329.748 324.391 330.726 332.413 328.061 338.89C327.398 340.497 327.499 340.486 329.157 338.772C334.499 333.241 337.95 322.463 336.207 316.742C336.057 316.253 336.065 316.253 334.958 316.824Z" fill="#F1F1F1"/>
<path d="M178.885 316.742C177.142 322.463 180.592 333.241 185.935 338.772C187.594 340.486 187.693 340.496 187.03 338.89C184.367 332.415 185.343 324.39 189.105 321.843C189.801 321.371 188.53 320.58 183.64 318.443C182.503 317.946 181.028 317.27 180.363 316.94C178.927 316.23 179.037 316.246 178.885 316.742Z" fill="#F1F1F1"/>
<path d="M323.249 333.032C323.249 332.444 322.726 331.966 322.08 331.966C321.435 331.966 320.912 332.444 320.912 333.032C320.912 333.623 321.435 334.1 322.08 334.1C322.726 334.1 323.249 333.623 323.249 333.032Z" fill="#F1F1F1"/>
<path opacity="0.2" fill-rule="evenodd" clip-rule="evenodd" d="M284.633 148.444C274.629 159.461 254.744 165.523 232.024 151.494C243.258 170.176 275.708 169.158 284.633 148.444ZM216.274 187.791C205.743 192.147 191.446 187.688 184.461 182.939C184.952 183.975 185.56 184.978 186.292 185.936C194.453 196.604 208.365 196.936 216.274 187.791ZM330.428 183.367C324.374 188.997 312.115 192.998 297.796 186.652C298.49 187.577 299.284 188.463 300.18 189.298C308.54 197.097 321.421 195.583 328.8 185.936C329.435 185.104 329.977 184.246 330.428 183.367Z" fill="black"/>
<path d="M228.866 143.345C230.96 132.629 241.312 123.33 253.555 121.119C269.941 118.159 283.436 129.258 286.235 143.327C289.849 125.238 272.149 108.014 252.189 111.619C236.406 114.47 226.034 129.064 228.866 143.345Z" fill="#2430F0"/>
<path fill-rule="evenodd" clip-rule="evenodd" d="M233.211 133.69C237.785 127.409 245.241 122.623 253.571 121.118C266.036 118.866 276.83 124.752 282.512 133.892C283.596 132.814 284.587 131.719 285.405 130.645C281.178 118.129 267.342 108.885 252.205 111.619C241.747 113.508 233.666 120.552 230.226 129.244C230.969 130.663 232.021 132.185 233.211 133.69Z" fill="#2BE1B7"/>
<g opacity="0.2">
<g style="mix-blend-mode:hard-light">
<path fill-rule="evenodd" clip-rule="evenodd" d="M264.756 216.733C263.442 213.695 260.164 212.07 255.59 212.876C252.888 213.353 251.056 214.79 250.198 216.878C252.001 215.406 255.191 214.924 257.571 214.875C259.87 214.923 262.926 215.374 264.756 216.733ZM244.731 218.654C242.502 218.992 238.433 220.063 236.666 222.53C237.255 220.327 238.736 218.689 240.994 218.087C243.254 217.483 244.29 217.552 244.731 218.654ZM232.578 225.496C232.563 225.293 232.552 225.097 232.552 224.912C232.551 224.68 229.268 224.79 228.236 225.057C224.705 225.97 222.328 228.564 221.455 231.654C223.816 228.352 228.213 225.6 232.578 225.496ZM208.164 243.484C209.207 239.973 213.095 236.312 216.258 236.312C216.704 236.312 217.093 236.287 217.432 236.244C217.402 236.054 217.377 235.862 217.356 235.668C217.348 235.603 217.341 235.541 217.334 235.482C217.279 234.963 217.249 234.697 217.101 234.577C216.941 234.449 216.645 234.488 216.035 234.569C215.968 234.577 215.901 234.587 215.828 234.596C211.057 235.216 208.378 239.143 208.164 243.484ZM255.574 235.355C253.74 233.948 251.025 233.392 247.216 236.542C247.859 235.207 248.981 234.129 250.574 233.396C251.826 232.82 253.159 232.802 253.881 233.353C254.454 233.791 255.061 234.521 255.574 235.355ZM267.366 236.1C265.721 233.101 262.573 231.535 260.464 234.02C260.155 234.381 259.817 234.877 259.504 235.404C261.249 234.031 263.806 233.416 267.366 236.1ZM243.23 237.881C243.257 237.047 243.165 237.032 242.633 236.943C242.28 236.885 241.87 236.815 241.723 236.787C241.574 236.76 240.975 236.806 240.391 236.888C237.614 237.284 235.922 239.701 235.486 242.787C236.586 239.255 240.731 237.606 243.23 237.881ZM282.747 244.69C283.612 242.539 288.85 244.677 290.612 248.123C291.102 249.08 291.438 250.035 291.621 250.984C290.271 247.233 286.019 245.514 282.747 244.69ZM265.813 258.707C265.816 258.663 265.817 258.622 265.817 258.583C265.817 257.996 271.374 257.776 273.138 258.293C273.973 258.539 274.587 259.005 274.975 259.616C273.289 258.143 269.619 258.417 265.813 258.707ZM253.041 252.625C254.064 251.118 255.604 250.203 257.546 250.203C259.452 250.203 260.971 251.084 261.992 252.54C260.72 251.558 258.975 251.053 257.571 250.922C256.126 251.056 254.323 251.587 253.041 252.625ZM240.056 259.718C240.439 259.057 241.073 258.552 241.955 258.293C243.718 257.776 249.275 257.996 249.275 258.583C249.275 258.62 249.276 258.661 249.279 258.702C245.405 258.408 241.681 258.138 240.056 259.718ZM232.382 244.693C229.037 245.537 224.675 247.316 223.433 251.247C223.633 247.93 225.484 245.144 228.919 244.229C229.819 243.99 231.313 243.919 231.946 244.086C232.184 244.15 232.299 244.288 232.382 244.693ZM278.474 222.529C277.713 219.808 275.5 218.016 272.115 217.879L270.189 217.8L270.154 218.617C272.312 218.909 276.636 219.965 278.474 222.529ZM293.583 231.511C292.956 229.134 291.501 227.084 289.318 226.028C287.159 224.982 282.544 224.223 282.54 224.912C282.54 225.097 282.53 225.292 282.514 225.495C286.833 225.579 291.19 228.261 293.583 231.511ZM306.992 243.531C305.969 240.007 302.06 236.312 298.883 236.312C298.404 236.312 297.992 236.283 297.636 236.234C297.642 236.194 297.649 236.152 297.654 236.112C297.76 235.403 297.873 234.736 297.91 234.629C298.015 234.304 300.32 234.701 301.511 235.25C304.978 236.848 306.809 240.075 306.992 243.531ZM279.55 242.48C279.314 240.646 278.657 239.072 277.561 238.119C276.598 237.282 274.212 236.541 273.28 236.79C273.181 236.818 272.812 236.887 272.459 236.944C271.926 237.032 271.835 237.047 271.863 237.885C274.283 237.593 278.304 239.137 279.55 242.48Z" fill="white"/>
</g>
</g>
<g style="mix-blend-mode:hard-light">
<path fill-rule="evenodd" clip-rule="evenodd" d="M339.803 289.775C332.717 289.249 324.455 291.57 318.484 295.252C310.122 300.409 297.265 314.098 294.568 327.343C293.822 331.007 293.263 332.207 292.848 331.943C296.967 307.269 311.469 290.165 330.282 288.185C334.525 287.739 337.711 288.377 339.803 289.775Z" fill="white" fill-opacity="0.4"/>
</g>
<g style="mix-blend-mode:hard-light">
<path fill-rule="evenodd" clip-rule="evenodd" d="M174.922 289.943C182.191 289.148 190.89 291.507 197.106 295.341C205.468 300.498 218.325 314.187 221.022 327.432C221.446 329.511 221.807 330.793 222.119 331.47C219.507 316.55 212.777 303.363 203.801 296.221C196.629 290.513 186.318 287.149 179.351 288.243C177.51 288.532 176.036 289.12 174.922 289.943Z" fill="white" fill-opacity="0.4"/>
</g>
<g style="mix-blend-mode:hard-light">
<path fill-rule="evenodd" clip-rule="evenodd" d="M239.817 342.741C245.696 336.347 253.23 335.255 257.257 335.255C261.439 335.255 269.732 336.591 275.718 343.617C270.003 332.09 262.834 326.419 255.418 327.733C249.726 328.74 244.336 333.96 239.817 342.741Z" fill="white" fill-opacity="0.4"/>
</g>
<path opacity="0.2" fill-rule="evenodd" clip-rule="evenodd" d="M336.663 320.187C333.975 321.332 330.964 322.498 327.712 323.663C327.227 322.911 326.649 322.292 325.985 321.841C325.27 321.358 326.199 320.783 331.542 318.409C332.926 317.791 334.463 317.079 334.959 316.824L334.978 316.814C335.663 316.46 335.914 316.33 336.044 316.406C336.117 316.45 336.15 316.559 336.205 316.735L336.207 316.742C336.515 317.752 336.661 318.92 336.663 320.187ZM178.433 319.894C181.15 321.11 184.181 322.342 187.44 323.574C187.912 322.864 188.469 322.273 189.105 321.844C189.801 321.371 188.53 320.58 183.641 318.444C182.504 317.946 181.029 317.271 180.364 316.941C180.271 316.896 180.185 316.853 180.105 316.814C179.381 316.454 179.141 316.333 179.029 316.408C178.972 316.444 178.949 316.527 178.912 316.654C178.904 316.68 178.896 316.71 178.885 316.742C178.602 317.674 178.455 318.742 178.433 319.894Z" fill="black"/>
<path opacity="0.2" fill-rule="evenodd" clip-rule="evenodd" d="M217.314 364.232C216.74 370.334 218.855 377.154 219.832 380.304C219.998 380.84 220.132 381.269 220.213 381.57C220.91 384.155 213.337 388.241 185.563 375.725C195.818 383.443 208.365 388.911 220.054 389.934C229.865 390.791 232.094 390.644 231.155 389.2C229.616 386.835 224.34 377.234 221.257 371.191C220.459 369.626 219.22 367.429 218.504 366.303C218.047 365.588 217.651 364.895 217.314 364.232Z" fill="black"/>
<path opacity="0.2" fill-rule="evenodd" clip-rule="evenodd" d="M329.699 375.669C301.825 388.251 294.23 384.158 294.929 381.57C295.009 381.269 295.143 380.84 295.309 380.304C296.29 377.141 298.419 370.271 297.819 364.153C297.474 364.839 297.064 365.556 296.588 366.303C295.872 367.429 294.633 369.626 293.835 371.191C290.752 377.234 285.476 386.835 283.937 389.2C283.594 389.727 283.342 390.055 283.422 390.245C283.561 390.578 284.731 390.493 288.254 390.327C299.778 389.797 304.573 388.746 313.92 384.695C319.806 382.145 325.083 379.098 329.699 375.669Z" fill="black"/>
<path opacity="0.2" fill-rule="evenodd" clip-rule="evenodd" d="M230.885 377.389C236.962 387.104 239.425 390.604 242.747 394.341C254.899 408.025 265.286 405.78 278.172 386.689C280.585 383.118 280.99 382.495 284.712 376.513C284.03 377.688 283.335 378.904 282.633 380.151C278.762 387.035 278.477 387.526 276.186 391.282C264.552 410.358 255.175 412.599 244.204 398.928C241.022 394.966 238.714 391.277 232.459 380.151C231.93 379.212 231.406 378.291 230.885 377.389Z" fill="black"/>
<path d="M257.435 310.632C255.188 310.632 252.311 326.454 251.053 326.454L248.445 328.854L257.435 326.454L267.775 329.477C266.666 328.469 264.286 326.454 263.639 326.454C262.831 326.454 259.683 310.632 257.435 310.632Z" fill="black" fill-opacity="0.2"/>
<path d="M242.511 268.138C241.252 268.138 237.026 265.204 237.026 260.847C237.625 259.751 238.824 258.04 238.824 259.959C238.824 262.359 241.521 265.471 242.241 266.182C242.96 266.893 243.768 268.138 242.511 268.138Z" fill="black" fill-opacity="0.2"/>
<path d="M218.414 260.848C213.29 260.848 206.637 254.181 203.219 249.647L205.288 247.87L209.963 254.536L220.573 257.648L222.64 254.269C223.15 255.04 224.349 256.901 225.068 258.181C225.967 259.781 228.305 261.026 230.192 263.693C232.081 266.36 224.888 263.071 223.989 262.625C223.27 262.271 221.711 261.175 221.022 260.67C221.022 260.729 220.501 260.848 218.414 260.848Z" fill="black" fill-opacity="0.2"/>
<path d="M234.509 252.758C232.44 250.18 233.16 247.158 232.8 244.579L238.644 255.07L238.194 255.87L238.183 255.864C237.605 255.563 236.151 254.806 234.509 252.758Z" fill="black" fill-opacity="0.2"/>
<path d="M252.94 266.537C251.053 266.093 249.344 261.736 249.344 258.447L251.142 257.648L252.311 262.271C252.671 263.693 254.828 266.982 252.94 266.537Z" fill="black" fill-opacity="0.2"/>
<path d="M272.45 268.138C273.709 268.138 277.935 265.204 277.935 260.847C277.336 259.751 276.137 258.04 276.137 259.959C276.137 262.359 273.44 265.471 272.72 266.182C272.001 266.893 271.191 268.138 272.45 268.138Z" fill="black" fill-opacity="0.2"/>
<path d="M296.546 260.848C301.671 260.848 308.324 254.181 311.74 249.647L309.673 247.87L304.998 254.536L294.388 257.648L292.321 254.269C291.811 255.04 290.612 256.901 289.893 258.181C288.994 259.781 286.656 261.026 284.768 263.693C282.88 266.36 290.073 263.071 290.972 262.625C291.691 262.271 293.25 261.175 293.938 260.67C293.938 260.729 294.46 260.848 296.546 260.848Z" fill="black" fill-opacity="0.2"/>
<path d="M280.452 252.758C282.52 250.18 281.801 247.158 282.161 244.579L276.317 255.07L276.767 255.87L276.778 255.864C277.356 255.563 278.81 254.806 280.452 252.758Z" fill="black" fill-opacity="0.2"/>
<path d="M261.932 266.626C263.819 266.181 265.617 261.736 265.617 258.447L263.819 257.648L262.651 262.271C262.29 263.693 260.043 267.071 261.932 266.626Z" fill="black" fill-opacity="0.2"/>
<path opacity="0.2" d="M236.163 361.835C235.533 361.835 237.511 360.857 236.882 359.169C238.38 358.546 240.73 359.187 242.456 360.68C244.614 362.547 244.614 367.169 244.523 369.125C244.434 371.08 236.792 361.835 236.163 361.835Z" fill="black"/>
<path opacity="0.2" d="M278.807 361.896C279.436 361.896 277.458 360.917 278.088 359.229C276.589 358.607 274.24 359.248 272.514 360.74C270.355 362.607 270.355 367.229 270.445 369.186C270.536 371.141 278.177 361.896 278.807 361.896Z" fill="black"/>
<path opacity="0.2" fill-rule="evenodd" clip-rule="evenodd" d="M197.191 316.723C208.135 323.196 218.775 329.489 218.775 337.299C218.775 337.55 218.77 337.801 218.762 338.046C215.204 330.676 207.488 325.003 192.594 317.415C186.413 314.265 186.342 314.223 182.477 311.149C172.995 303.61 169.928 294.935 174.043 290.678C171.275 301.392 184.44 309.181 197.191 316.723Z" fill="black"/>
<path opacity="0.2" fill-rule="evenodd" clip-rule="evenodd" d="M174.215 290.37L174.13 290.699C172.758 296.01 175.329 300.606 179.859 304.827C184.39 309.047 190.859 312.874 197.237 316.647L197.242 316.65C202.711 319.884 208.11 323.078 212.144 326.444C216.177 329.806 218.864 333.354 218.864 337.3C218.864 337.553 218.86 337.801 218.852 338.046L218.681 338.081C215.137 330.746 207.448 325.082 192.553 317.493C189.464 315.919 187.897 315.12 186.619 314.327C185.341 313.536 184.352 312.754 182.421 311.218C177.671 307.442 174.523 303.378 173.078 299.715C171.633 296.053 171.887 292.778 173.978 290.616L174.215 290.37ZM173.245 299.651C174.675 303.276 177.801 307.317 182.533 311.08C184.467 312.617 185.447 313.392 186.715 314.179C187.984 314.964 189.543 315.761 192.635 317.336C207.308 324.809 215.039 330.442 218.681 337.677C218.684 337.55 218.684 337.426 218.684 337.3C218.684 333.439 216.052 329.933 212.029 326.578C208.008 323.225 202.618 320.037 197.145 316.8L197.139 316.795C190.768 313.026 184.282 309.191 179.735 304.954C175.283 300.806 172.672 296.256 173.873 290.996C172.065 293.09 171.872 296.17 173.245 299.651Z" fill="black"/>
<path opacity="0.2" fill-rule="evenodd" clip-rule="evenodd" d="M318.039 316.723C307.095 323.196 296.456 329.49 296.456 337.3C296.456 337.411 296.457 337.522 296.459 337.63C300.102 330.463 307.806 324.86 322.423 317.415C328.604 314.265 328.675 314.224 332.54 311.149C342.019 303.613 344.793 295.487 341.303 291.165C343.554 301.632 330.597 309.296 318.039 316.723Z" fill="black"/>
<path opacity="0.2" fill-rule="evenodd" clip-rule="evenodd" d="M341.867 299.985C340.418 303.516 337.344 307.443 332.596 311.218C330.664 312.754 329.676 313.536 328.398 314.33C327.12 315.118 325.554 315.919 322.465 317.494C307.846 324.94 300.169 330.534 296.539 337.671L296.369 337.632C296.366 337.521 296.366 337.41 296.366 337.3C296.366 333.353 299.053 329.806 303.086 326.444C307.12 323.078 312.52 319.884 317.989 316.65L317.993 316.647C324.275 312.933 330.644 309.162 335.164 305.019C339.683 300.874 342.33 296.37 341.215 291.183L341.373 291.11C343.147 293.303 343.317 296.454 341.867 299.985ZM341.467 291.529C342.965 293.64 343.069 296.587 341.702 299.917C340.267 303.412 337.215 307.317 332.484 311.08C330.551 312.617 329.569 313.392 328.303 314.179C327.032 314.964 325.473 315.761 322.382 317.335C307.984 324.669 300.271 330.226 296.547 337.268C296.561 333.417 299.19 329.924 303.201 326.578C307.222 323.225 312.612 320.037 318.085 316.799L318.091 316.795C324.366 313.085 330.751 309.308 335.285 305.148C339.712 301.09 342.395 296.645 341.467 291.529Z" fill="black"/>
<g style="mix-blend-mode:multiply">
<path fill-rule="evenodd" clip-rule="evenodd" d="M170.029 313.849C169.921 322.659 170.259 360.68 215.448 360.68C215.632 360.68 215.817 360.68 216 360.68C215.563 358.34 216.141 356.391 217.723 354.72C219.325 353.025 218.318 345.012 215.895 340.167C215.252 338.88 214.978 338.294 214.687 338.284C214.434 338.277 214.167 338.706 213.638 339.5C200.519 359.134 173.754 344.11 174.296 317.416C174.379 313.343 174.379 313.343 173.243 312.441C172.416 311.787 172.165 311.56 171.981 311.601C171.869 311.629 171.782 311.753 171.606 311.941C171.054 312.538 170.529 313.173 170.029 313.849Z" fill="black" fill-opacity="0.2"/>
</g>
<path opacity="0.2" fill-rule="evenodd" clip-rule="evenodd" d="M345.28 314.605C345.35 324.381 344.118 360.857 299.856 360.857C299.562 360.857 299.271 360.857 298.984 360.854C299.483 358.438 298.916 356.435 297.294 354.721C295.692 353.025 296.699 345.012 299.122 340.167C299.765 338.88 300.039 338.294 300.33 338.284C300.583 338.278 300.85 338.706 301.38 339.5C314.498 359.134 341.264 344.11 340.722 317.416C340.663 314.52 340.644 313.682 341.035 313.123C341.193 312.894 341.418 312.712 341.736 312.454C342.33 311.972 342.65 311.669 342.955 311.682C343.403 311.702 343.821 312.401 345.025 314.218C345.112 314.348 345.195 314.477 345.28 314.605Z" fill="#22110C"/>
<path opacity="0.2" fill-rule="evenodd" clip-rule="evenodd" d="M249.684 218.695C249.413 220.717 249.847 223.138 251.051 225.774C251.953 227.748 251.953 227.748 253.336 227.763C254.578 227.774 254.862 227.848 256.114 228.48C257.508 229.185 257.508 229.185 258.902 228.48C260.155 227.848 260.438 227.774 261.679 227.763C263.064 227.748 263.064 227.748 263.964 225.774C265.167 223.136 265.558 220.704 265.258 218.669C264.662 221.961 263.286 226.263 260.201 226.623C258.864 226.9 257.935 226.918 257.615 226.891L257.594 226.888H257.344H257.324C257.003 226.915 256.074 226.9 254.738 226.623C251.661 226.264 250.283 221.984 249.684 218.695ZM267.712 228.581C269.255 226.204 269.899 223.932 270.046 220.356L270.122 218.477C270.713 221.699 270.556 226.208 267.851 230.037C267.15 229.447 267.184 229.396 267.712 228.581ZM278.7 225.552C278.575 227.196 278.058 229.013 277.11 230.912C277.009 231.115 276.917 231.301 276.833 231.47C276.326 232.5 276.126 232.903 275.82 233.011C275.623 233.082 275.379 233.027 274.982 232.939C274.881 232.917 274.77 232.893 274.646 232.867C273.686 232.67 273.156 232.648 272.498 232.782C272.325 232.818 272.168 232.851 272.025 232.88C271.994 232.887 271.963 232.893 271.934 232.899C272.053 232.547 272.969 232.259 273.903 231.967C274.783 231.691 275.676 231.41 275.935 231.068C277.216 229.36 278.194 227.639 278.7 225.552ZM282.502 224.911C282.489 227.362 281.069 231.376 279.474 233.476C278.791 234.373 278.745 234.435 279.612 235.358C281.449 232.732 283.362 227.562 282.639 224.746C282.55 224.786 282.502 224.841 282.502 224.911ZM293.849 233.232C293.615 234.736 292.773 237.901 291.489 239.247C289.961 240.846 289.331 241.024 288.072 240.49C287.324 240.173 286.231 240.327 285.436 240.537C286.879 240.591 288.184 240.974 289.383 241.69L289.422 241.713L289.49 241.753C289.926 242.016 290.168 242.16 290.389 242.134C290.662 242.101 290.905 241.802 291.446 241.132L291.501 241.066L291.553 241.001C293.374 238.758 294.099 235.897 293.849 233.232ZM306.897 242.854C306.578 245.336 305.673 249.749 302.188 252.67C298.909 255.416 296.434 255.603 295.895 251.692C295.843 251.314 295.77 251.114 295.682 251.055C295.845 252.435 295.777 253.827 295.45 255.092C295.253 255.857 295.09 256.505 295.09 256.532C295.09 256.972 299.98 254.943 301.694 253.792C305.629 251.15 307.355 246.79 306.897 242.854ZM297.601 236.211C297.176 238.964 296.172 240.925 294.091 243.079C292.753 244.465 292.753 244.465 293.316 245.155C293.375 245.23 293.436 245.305 293.494 245.381C295.286 243.58 297.283 240.143 297.601 236.211ZM279.606 244.547C279.274 246.429 278.725 248.487 277.914 249.468C276.294 251.425 274.136 251.958 272.429 251.692C271.57 251.558 270.145 251.931 268.9 252.367C271.426 252.261 273.344 252.753 275.009 253.89C275.417 254.168 275.747 254.288 275.819 254.184C275.885 254.087 276.278 253.573 276.692 253.04C278.52 250.68 279.513 247.467 279.606 244.547ZM265.091 251.497C267.68 250.147 271.829 246.537 271.779 240.79C271.276 244.936 268.808 248.611 264.925 250.829C264.879 250.854 264.963 251.148 265.091 251.497ZM268.372 241.177C267.572 243.507 265.796 247.171 262.988 246.179C260.471 245.29 258.942 245.113 257.683 245.113C257.602 245.113 257.532 245.12 257.47 245.135C257.406 245.12 257.336 245.113 257.255 245.113C255.996 245.113 254.467 245.29 251.95 246.179C249.417 247.074 247.723 244.177 246.828 241.89C247.245 243.611 248.101 245.479 249.402 247.421C250.217 248.639 250.518 249.088 250.756 249.058C250.896 249.041 251.012 248.858 251.198 248.567C253.878 244.39 261.139 244.39 263.817 248.567C264.546 249.703 267.48 245.373 268.225 242.06C268.291 241.765 268.34 241.471 268.372 241.177ZM235.336 244.569C235.367 247.365 236.328 250.465 238.325 253.04C238.739 253.573 239.132 254.087 239.198 254.184C239.27 254.288 239.599 254.168 240.007 253.89C241.653 252.768 243.545 252.272 246.027 252.363C244.785 251.929 243.366 251.558 242.509 251.692C240.802 251.958 238.644 251.425 237.026 249.468C236.216 248.49 235.669 246.444 235.336 244.569ZM243.18 240.199C242.823 246.338 247.242 250.164 249.912 251.532C250.048 251.167 250.138 250.856 250.09 250.829C246.024 248.506 243.509 244.584 243.18 240.199ZM235.36 235.404C236.272 234.436 236.236 234.388 235.543 233.476C233.947 231.376 232.528 227.362 232.513 224.911C232.513 224.874 232.428 224.845 232.28 224.825C231.609 227.676 233.531 232.819 235.36 235.404ZM221.1 233.295C220.825 235.878 221.552 238.649 223.463 241.001C223.5 241.047 223.535 241.091 223.569 241.132C224.111 241.802 224.353 242.101 224.628 242.134C224.849 242.16 225.089 242.016 225.526 241.753C225.56 241.733 225.596 241.712 225.632 241.69C226.812 240.984 228.096 240.604 229.512 240.54C228.717 240.329 227.618 240.172 226.866 240.49C225.607 241.024 224.977 240.846 223.45 239.247C222.182 237.92 221.348 234.824 221.1 233.295ZM236.434 226.267C236.627 227.742 237.111 229.317 237.906 230.912C238.008 231.115 238.099 231.301 238.183 231.47C238.691 232.5 238.89 232.903 239.197 233.011C239.394 233.082 239.636 233.027 240.035 232.939C240.136 232.917 240.247 232.893 240.37 232.867C241.331 232.67 241.859 232.648 242.518 232.782C242.691 232.818 242.848 232.851 242.992 232.88C242.992 232.88 242.995 232.881 242.998 232.881C242.855 232.537 241.953 232.255 241.035 231.967C240.156 231.691 239.262 231.41 239.004 231.068C237.871 229.559 236.975 228.039 236.434 226.267ZM244.755 218.83C244.881 219.228 244.945 219.739 244.971 220.377C245.117 223.93 245.765 226.209 247.304 228.581C247.844 229.415 247.867 229.45 247.117 230.078C244.481 226.378 244.238 222.034 244.755 218.83ZM219.335 251.039C219.214 251.01 219.11 251.203 219.043 251.692C218.504 255.603 216.029 255.416 212.749 252.67C209.532 249.974 208.514 246.006 208.126 243.459C207.933 247.214 209.586 251.282 213.323 253.792C215.036 254.943 219.926 256.972 219.926 256.532C219.926 256.505 219.764 255.857 219.566 255.092C219.237 253.822 219.171 252.425 219.335 251.039ZM221.489 245.426C221.557 245.335 221.627 245.246 221.698 245.158C222.26 244.469 222.26 244.469 220.849 242.995C218.76 240.813 217.628 238.466 217.317 235.668C217.309 235.607 217.304 235.55 217.298 235.493C217.415 239.754 219.577 243.53 221.489 245.426Z" fill="black"/>
<path d="M323.968 329.477C323.968 327.317 325.78 325.565 328.015 325.565C330.249 325.565 332.06 327.317 332.06 329.477C332.06 331.639 330.249 333.388 328.015 333.388C325.78 333.388 323.968 331.639 323.968 329.477Z" fill="#F1F1F1"/>
<path d="M182.811 329.477C182.811 327.317 184.622 325.565 186.857 325.565C189.091 325.565 190.902 327.317 190.902 329.477C190.902 331.639 189.091 333.388 186.857 333.388C184.622 333.388 182.811 331.639 182.811 329.477Z" fill="#F1F1F1"/>
<path d="M193.6 333.032C193.6 332.444 193.077 331.966 192.431 331.966C191.785 331.966 191.262 332.444 191.262 333.032C191.262 333.623 191.785 334.1 192.431 334.1C193.077 334.1 193.6 333.623 193.6 333.032Z" fill="#F1F1F1"/>
</svg>
