<svg viewBox="0 0 56 56" fill="none" xmlns="http://www.w3.org/2000/svg">
  <rect width="56" height="56" rx="8" fill="#000"/>
  <path d="M17 41V15H29.2C31.5 15 33.4 15.4 34.9 16.3C36.4 17.1 37.5 18.2 38.2 19.6C38.9 21 39.3 22.5 39.3 24.2C39.3 25.9 38.9 27.4 38.2 28.8C37.5 30.1 36.4 31.2 34.9 32C33.4 32.8 31.5 33.2 29.2 33.2H22.1V28.6H28.2C29.3 28.6 30.3 28.4 31.1 28C31.9 27.6 32.5 27 32.9 26.3C33.3 25.5 33.5 24.9 33.5 24.2C33.5 23.4 33.3 22.7 32.9 22.1C32.5 21.4 31.9 20.9 31.1 20.5C30.3 20.1 29.3 19.9 28.2 19.9H22.7V41H17ZM33 30L40 41H33.4L26.6 30H33Z" fill="#fff"/>
</svg>
