<svg xmlns="http://www.w3.org/2000/svg" width="16.372" height="19.646" viewBox="0 0 16.372 19.646">
  <g id="document_2_" data-name="document (2)" transform="translate(-32)">
    <path id="Tracé_585" data-name="Tracé 585" d="M46.734,0h-13.1A1.637,1.637,0,0,0,32,1.637v13.1l4.911,4.911h9.823a1.637,1.637,0,0,0,1.637-1.637V1.637A1.637,1.637,0,0,0,46.734,0Z" fill="#f3f3f3"/>
    <path id="Tracé_586" data-name="Tracé 586" d="M124.275,303.125l-4.361-4.361v3.947l.414.414Z" transform="translate(-83.416 -283.479)" fill="#ababab" opacity="0.5"/>
    <path id="Tracé_587" data-name="Tracé 587" d="M35.274,288H32l4.911,4.911v-3.274A1.637,1.637,0,0,0,35.274,288Z" transform="translate(0 -273.266)" fill="#e6e6e5"/>
    <path id="Tracé_588" data-name="Tracé 588" d="M113.963,98.039l2.076,2.076V96h1.637v4.115l2.076-2.076,1.158,1.158-4.052,4.052L112.805,99.2Z" transform="translate(-76.671 -91.089)" fill="#5c1ee8"/>
    <rect id="Rectangle_607" data-name="Rectangle 607" width="8" height="2" transform="translate(35.999 13)" fill="#5c1ee8"/>
  </g>
</svg>
