<svg xmlns="http://www.w3.org/2000/svg" width="21" height="24" viewBox="0 0 21 24">
  <g id="file-extension" transform="translate(-19.329)">
    <path id="Tracé_542" data-name="Tracé 542" d="M20.829,0H33.574l6.755,6.729V22.5a1.5,1.5,0,0,1-1.5,1.5h-18a1.5,1.5,0,0,1-1.5-1.5V1.5A1.5,1.5,0,0,1,20.829,0Z" fill="#e2574c"/>
    <path id="Tracé_543" data-name="Tracé 543" d="M209.5,6.743h-5.085a1.459,1.459,0,0,1-1.459-1.459V.193Z" transform="translate(-169.193 -0.178)" fill="#b53629"/>
    <path id="Tracé_544" data-name="Tracé 544" d="M96.917,136.26a.424.424,0,0,0,0-.84H95.525a.435.435,0,0,0-.424.474v3.42c0,.3.174.474.408.474s.408-.169.408-.474v-.939h.842a.4.4,0,0,0,.392-.426.388.388,0,0,0-.392-.414h-.842V136.26Zm-4.7-.84H91.194a.45.45,0,0,0-.473.471v3.426a.449.449,0,0,0,.484.459h1.069a1.982,1.982,0,0,0,2.1-2.117A2.034,2.034,0,0,0,92.212,135.42Zm.049,3.512h-.621v-2.667H92.2c.847,0,1.215.568,1.215,1.352C93.415,138.351,93.053,138.932,92.261,138.932Zm-3.73-3.512H87.522a.424.424,0,0,0-.444.474v3.42a.43.43,0,1,0,.855,0v-1h.632a1.381,1.381,0,0,0,1.425-1.442A1.4,1.4,0,0,0,88.531,135.42Zm-.017,2.094h-.581v-1.29h.581a.648.648,0,0,1,0,1.29Z" transform="translate(-62.348 -124.845)" fill="#fff"/>
  </g>
</svg>
