<svg xmlns="http://www.w3.org/2000/svg" width="21.055" height="19.739" viewBox="0 0 21.055 19.739">
  <g id="Groupe_648" data-name="Groupe 648" transform="translate(-608.723 -1071.9)">
    <g id="interface" transform="translate(608.723 1055.905)">
      <path id="Tracé_545" data-name="Tracé 545" d="M265.869,94.479h-9.211a.657.657,0,0,1-.658-.658V80.662a.658.658,0,0,1,.658-.658h9.211a.658.658,0,0,1,.658.658V93.821A.657.657,0,0,1,265.869,94.479Z" transform="translate(-245.473 -61.376)" fill="#eceff1"/>
      <g id="Groupe_647" data-name="Groupe 647" transform="translate(10.527 21.26)">
        <path id="Tracé_546" data-name="Tracé 546" d="M263.238,145.32h-6.58a.658.658,0,0,1,0-1.316h6.58a.658.658,0,0,1,0,1.316Z" transform="translate(-256 -144.004)" fill="#1976d2"/>
        <path id="Tracé_547" data-name="Tracé 547" d="M263.238,209.32h-6.58a.658.658,0,0,1,0-1.316h6.58a.658.658,0,0,1,0,1.316Z" transform="translate(-256 -205.372)" fill="#1976d2"/>
        <path id="Tracé_548" data-name="Tracé 548" d="M263.238,273.32h-6.58a.658.658,0,0,1,0-1.316h6.58a.658.658,0,0,1,0,1.316Z" transform="translate(-256 -266.74)" fill="#1976d2"/>
        <path id="Tracé_549" data-name="Tracé 549" d="M263.238,337.32h-6.58a.658.658,0,0,1,0-1.316h6.58a.658.658,0,0,1,0,1.316Z" transform="translate(-256 -328.108)" fill="#1976d2"/>
      </g>
      <path id="Tracé_550" data-name="Tracé 550" d="M11.605,16.148a.647.647,0,0,0-.541-.141L.537,17.982A.658.658,0,0,0,0,18.628V33.1a.657.657,0,0,0,.537.646l10.527,1.974a.629.629,0,0,0,.121.012.658.658,0,0,0,.658-.658V16.654A.654.654,0,0,0,11.605,16.148Z" transform="translate(0 0)" fill="#1565c0"/>
      <path id="Tracé_551" data-name="Tracé 551" d="M69.915,182.632a.658.658,0,0,1-.572.579.566.566,0,0,1-.082.005.66.66,0,0,1-.616-.426l-1.358-3.621-1.358,3.621a.658.658,0,0,1-1.267-.139L64,178.044a.658.658,0,0,1,1.3-.186l.293,2.058,1.07-2.854a.686.686,0,0,1,1.233,0l1.008,2.687.354-3.187a.658.658,0,1,1,1.308.146Z" transform="translate(-61.366 -153.403)" fill="#fafafa"/>
    </g>
  </g>
</svg>
