<svg xmlns="http://www.w3.org/2000/svg" width="21.055" height="19.74" viewBox="0 0 21.055 19.74">
  <g id="mac-os" transform="translate(0 -15.989)">
    <path id="Tracé_552" data-name="Tracé 552" d="M265.869,94.486h-9.211a.658.658,0,0,1-.658-.658V80.669a.658.658,0,0,1,.658-.658h9.211a.658.658,0,0,1,.658.658V93.828A.658.658,0,0,1,265.869,94.486Z" transform="translate(-245.473 -61.389)" fill="#eceff1"/>
    <g id="Groupe_649" data-name="Groupe 649" transform="translate(10.527 21.254)">
      <path id="Tracé_553" data-name="Tracé 553" d="M259.29,145.327h-2.632a.658.658,0,1,1,0-1.316h2.632a.658.658,0,0,1,0,1.316Z" transform="translate(-256 -144.011)" fill="#388e3c"/>
      <path id="Tracé_554" data-name="Tracé 554" d="M259.29,209.327h-2.632a.658.658,0,1,1,0-1.316h2.632a.658.658,0,0,1,0,1.316Z" transform="translate(-256 -205.379)" fill="#388e3c"/>
      <path id="Tracé_555" data-name="Tracé 555" d="M259.29,273.327h-2.632a.658.658,0,1,1,0-1.316h2.632a.658.658,0,0,1,0,1.316Z" transform="translate(-256 -266.747)" fill="#388e3c"/>
      <path id="Tracé_556" data-name="Tracé 556" d="M259.29,337.327h-2.632a.658.658,0,1,1,0-1.316h2.632a.658.658,0,0,1,0,1.316Z" transform="translate(-256 -328.115)" fill="#388e3c"/>
      <path id="Tracé_557" data-name="Tracé 557" d="M385.974,145.327h-1.316a.658.658,0,0,1,0-1.316h1.316a.658.658,0,0,1,0,1.316Z" transform="translate(-378.736 -144.011)" fill="#388e3c"/>
      <path id="Tracé_558" data-name="Tracé 558" d="M385.974,209.327h-1.316a.658.658,0,0,1,0-1.316h1.316a.658.658,0,0,1,0,1.316Z" transform="translate(-378.736 -205.379)" fill="#388e3c"/>
      <path id="Tracé_559" data-name="Tracé 559" d="M385.974,273.327h-1.316a.658.658,0,0,1,0-1.316h1.316a.658.658,0,0,1,0,1.316Z" transform="translate(-378.736 -266.747)" fill="#388e3c"/>
      <path id="Tracé_560" data-name="Tracé 560" d="M385.974,337.327h-1.316a.658.658,0,0,1,0-1.316h1.316a.658.658,0,0,1,0,1.316Z" transform="translate(-378.736 -328.115)" fill="#388e3c"/>
    </g>
    <path id="Tracé_561" data-name="Tracé 561" d="M11.605,16.142A.647.647,0,0,0,11.064,16L.537,17.976A.656.656,0,0,0,0,18.622V33.1a.657.657,0,0,0,.537.646l10.527,1.974a.619.619,0,0,0,.121.012.658.658,0,0,0,.658-.658V16.648A.656.656,0,0,0,11.605,16.142Z" transform="translate(0 0)" fill="#2e7d32"/>
    <path id="Tracé_562" data-name="Tracé 562" d="M85.743,166.173l-2.08-2.378,2.1-2.706a.658.658,0,0,0-1.038-.809l-1.949,2.506-1.642-1.876a.657.657,0,1,0-.99.866l1.809,2.069L80.122,166.2a.658.658,0,0,0,1.04.808l1.678-2.158,1.913,2.186a.657.657,0,1,0,.99-.865Z" transform="translate(-76.694 -138.114)" fill="#fafafa"/>
  </g>
</svg>
