<svg id="logo" xmlns="http://www.w3.org/2000/svg" width="82.801" height="32" viewBox="0 0 82.801 32">
  <path id="Tracé_574" data-name="Tracé 574" d="M42.8,21.9a.367.367,0,0,1-.1-.3V20.4a.9.9,0,0,1,.1-.5.31.31,0,0,0,.1-.2l5.9-7.6H43.2a.354.354,0,0,1-.4-.4V10.5a.354.354,0,0,1,.4-.4h8.1a.354.354,0,0,1,.4.4v1.2a1.421,1.421,0,0,1-.2.6L45.8,20h5.8a.354.354,0,0,1,.4.4v1.2a.354.354,0,0,1-.4.4H43.1C42.9,22,42.8,22,42.8,21.9Z" fill="#30313e"/>
  <path id="Tracé_575" data-name="Tracé 575" d="M54.1,21.9a.367.367,0,0,1-.1-.3V10.5a.354.354,0,0,1,.4-.4h7.5a.354.354,0,0,1,.4.4v1.1a.354.354,0,0,1-.4.4H56.3v3h5.2a.354.354,0,0,1,.4.4v1.1a.354.354,0,0,1-.4.4H56.3V20H62a.354.354,0,0,1,.4.4v1.1a.367.367,0,0,1-.1.3c-.1.2-.2.2-.3.2H54.4C54.2,22,54.1,22,54.1,21.9ZM57.3,9.2c-.1,0-.2-.1-.3-.2L54.9,7.3l-.1-.2a.265.265,0,0,1,.3-.3h1.8c.1,0,.3,0,.3.1.1,0,.2.1.3.2L59,8.8l.1.2a.265.265,0,0,1-.3.3H57.6A.367.367,0,0,0,57.3,9.2Z" fill="#30313e"/>
  <path id="Tracé_576" data-name="Tracé 576" d="M64.6,21.9a.367.367,0,0,1-.1-.3V10.5a.354.354,0,0,1,.4-.4h1.6a.354.354,0,0,1,.4.4V20h5.4a.354.354,0,0,1,.4.4v1.2a.354.354,0,0,1-.4.4H64.9A.367.367,0,0,1,64.6,21.9Z" fill="#30313e"/>
  <path id="Tracé_577" data-name="Tracé 577" d="M74.5,21.9a.367.367,0,0,1-.1-.3V10.5a.354.354,0,0,1,.4-.4h7.5a.354.354,0,0,1,.4.4v1.1a.354.354,0,0,1-.4.4H76.7v3h5.2a.354.354,0,0,1,.4.4v1.1a.354.354,0,0,1-.4.4H76.7V20h5.7a.354.354,0,0,1,.4.4v1.1a.367.367,0,0,1-.1.3c-.1.2-.2.2-.3.2H74.8A.367.367,0,0,1,74.5,21.9Z" fill="#30313e"/>
  <circle id="Ellipse_373" data-name="Ellipse 373" cx="16" cy="16" r="16" fill="#5c1ee8"/>
  <path id="Tracé_578" data-name="Tracé 578" d="M11,24V22.3l8.1-11.9H11.5V8.8H21.7v1.6L13.6,22.3h8.1V24Z" fill="#fff"/>
</svg>
