<svg width="266" height="80" viewBox="0 0 266 80" fill="none" xmlns="http://www.w3.org/2000/svg">
<g clip-path="url(#clip0_142_430)">
<path d="M114.77 52C113.115 52 111.562 51.7296 110.111 51.155C108.659 50.5803 107.41 49.769 106.33 48.7211C105.249 47.6733 104.405 46.4226 103.798 44.969C103.156 43.4817 102.852 41.8592 102.852 40.0676C102.852 38.2761 103.156 36.6197 103.798 35.1662C104.439 33.6789 105.283 32.4282 106.363 31.3803C107.444 30.3324 108.693 29.5211 110.144 28.9465C111.596 28.3719 113.115 28.0676 114.702 28.0676C116.424 28.0676 117.909 28.3042 119.158 28.8113C120.407 29.3183 121.454 29.9268 122.332 30.7042C123.21 31.4817 123.885 32.3268 124.357 33.2057C124.83 34.1183 125.168 34.9634 125.37 35.8085L120.543 37.3296C120.441 36.924 120.272 36.4845 120.036 36.0113C119.8 35.5042 119.428 35.031 118.99 34.5916C118.551 34.1521 117.943 33.7803 117.268 33.4761C116.559 33.1719 115.715 33.0366 114.702 33.0366C113.926 33.0366 113.149 33.1719 112.373 33.4423C111.596 33.7127 110.887 34.1521 110.279 34.7268C109.638 35.3014 109.132 36.0451 108.76 36.924C108.355 37.8028 108.186 38.8507 108.186 40.0676C108.186 41.1493 108.355 42.0958 108.727 42.9409C109.098 43.7859 109.571 44.4958 110.212 45.0704C110.82 45.6451 111.529 46.0845 112.305 46.3888C113.082 46.693 113.926 46.8282 114.77 46.8282C115.749 46.8282 116.626 46.693 117.335 46.3888C118.044 46.0845 118.652 45.7127 119.125 45.2733C119.597 44.8338 119.969 44.3606 120.239 43.8535C120.509 43.3465 120.711 42.9071 120.813 42.5014L125.708 43.8873C125.505 44.6986 125.168 45.5437 124.695 46.4902C124.222 47.4366 123.513 48.2817 122.669 49.093C121.792 49.9042 120.711 50.5803 119.428 51.1211C118.078 51.7296 116.559 52 114.77 52Z" fill="black"/>
<path d="M114.77 52C113.115 52 111.562 51.7296 110.111 51.155C108.659 50.5803 107.41 49.769 106.33 48.7211C105.249 47.6733 104.405 46.4226 103.798 44.969C103.156 43.4817 102.852 41.8592 102.852 40.0676C102.852 38.2761 103.156 36.6197 103.798 35.1662C104.439 33.6789 105.283 32.4282 106.363 31.3803C107.444 30.3324 108.693 29.5211 110.144 28.9465C111.596 28.3719 113.115 28.0676 114.702 28.0676C116.424 28.0676 117.909 28.3042 119.158 28.8113C120.407 29.3183 121.454 29.9268 122.332 30.7042C123.21 31.4817 123.885 32.3268 124.357 33.2057C124.83 34.1183 125.168 34.9634 125.37 35.8085L120.543 37.3296C120.441 36.924 120.272 36.4845 120.036 36.0113C119.8 35.5042 119.428 35.031 118.99 34.5916C118.551 34.1521 117.943 33.7803 117.268 33.4761C116.559 33.1719 115.715 33.0366 114.702 33.0366C113.926 33.0366 113.149 33.1719 112.373 33.4423C111.596 33.7127 110.887 34.1521 110.279 34.7268C109.638 35.3014 109.132 36.0451 108.76 36.924C108.355 37.8028 108.186 38.8507 108.186 40.0676C108.186 41.1493 108.355 42.0958 108.727 42.9409C109.098 43.7859 109.571 44.4958 110.212 45.0704C110.82 45.6451 111.529 46.0845 112.305 46.3888C113.082 46.693 113.926 46.8282 114.77 46.8282C115.749 46.8282 116.626 46.693 117.335 46.3888C118.044 46.0845 118.652 45.7127 119.125 45.2733C119.597 44.8338 119.969 44.3606 120.239 43.8535C120.509 43.3465 120.711 42.9071 120.813 42.5014L125.708 43.8873C125.505 44.6986 125.168 45.5437 124.695 46.4902C124.222 47.4366 123.513 48.2817 122.669 49.093C121.792 49.9042 120.711 50.5803 119.428 51.1211C118.078 51.7296 116.559 52 114.77 52Z" fill="black"/>
<path d="M114.77 52C113.115 52 111.562 51.7296 110.111 51.155C108.659 50.5803 107.41 49.769 106.33 48.7211C105.249 47.6733 104.405 46.4226 103.798 44.969C103.156 43.4817 102.852 41.8592 102.852 40.0676C102.852 38.2761 103.156 36.6197 103.798 35.1662C104.439 33.6789 105.283 32.4282 106.363 31.3803C107.444 30.3324 108.693 29.5211 110.144 28.9465C111.596 28.3719 113.115 28.0676 114.702 28.0676C116.424 28.0676 117.909 28.3042 119.158 28.8113C120.407 29.3183 121.454 29.9268 122.332 30.7042C123.21 31.4817 123.885 32.3268 124.357 33.2057C124.83 34.1183 125.168 34.9634 125.37 35.8085L120.543 37.3296C120.441 36.924 120.272 36.4845 120.036 36.0113C119.8 35.5042 119.428 35.031 118.99 34.5916C118.551 34.1521 117.943 33.7803 117.268 33.4761C116.559 33.1719 115.715 33.0366 114.702 33.0366C113.926 33.0366 113.149 33.1719 112.373 33.4423C111.596 33.7127 110.887 34.1521 110.279 34.7268C109.638 35.3014 109.132 36.0451 108.76 36.924C108.355 37.8028 108.186 38.8507 108.186 40.0676C108.186 41.1493 108.355 42.0958 108.727 42.9409C109.098 43.7859 109.571 44.4958 110.212 45.0704C110.82 45.6451 111.529 46.0845 112.305 46.3888C113.082 46.693 113.926 46.8282 114.77 46.8282C115.749 46.8282 116.626 46.693 117.335 46.3888C118.044 46.0845 118.652 45.7127 119.125 45.2733C119.597 44.8338 119.969 44.3606 120.239 43.8535C120.509 43.3465 120.711 42.9071 120.813 42.5014L125.708 43.8873C125.505 44.6986 125.168 45.5437 124.695 46.4902C124.222 47.4366 123.513 48.2817 122.669 49.093C121.792 49.9042 120.711 50.5803 119.428 51.1211C118.078 51.7296 116.559 52 114.77 52Z" fill="black"/>
<path d="M145.322 46.8282H136.443L134.789 51.493H129.421L138.064 28.4733H144.006L152.547 51.493H146.977L145.322 46.8282ZM138.131 42.1634H143.702L140.934 34.2197L138.131 42.1634Z" fill="black"/>
<path d="M169.562 35.4366C169.528 35.1662 169.427 34.8958 169.292 34.5578C169.157 34.2197 168.921 33.9155 168.651 33.6113C168.347 33.3071 167.975 33.0704 167.503 32.8676C167.03 32.6648 166.456 32.5634 165.747 32.5634C164.802 32.5634 164.025 32.8338 163.452 33.3409C162.878 33.8479 162.608 34.4226 162.608 35.031C162.608 35.6057 162.776 36.0789 163.148 36.4507C163.519 36.8226 164.093 37.093 164.869 37.262L167.942 37.8028C169.056 38.0057 170.001 38.3099 170.811 38.7493C171.621 39.1888 172.33 39.7296 172.871 40.338C173.444 40.9465 173.85 41.6226 174.12 42.3662C174.39 43.1099 174.525 43.8873 174.525 44.7324C174.525 45.6451 174.356 46.524 173.985 47.4028C173.613 48.2817 173.073 49.0254 172.364 49.7352C171.655 50.4113 170.744 50.9521 169.697 51.3916C168.651 51.7972 167.435 52.0338 166.051 52.0338C164.464 52.0338 163.08 51.7972 161.932 51.324C160.784 50.8507 159.839 50.2761 159.096 49.5662C158.354 48.8564 157.78 48.0789 157.375 47.2C156.97 46.3211 156.733 45.4761 156.666 44.6648L161.358 43.5155C161.392 44.0226 161.527 44.5296 161.73 45.0366C161.932 45.5099 162.236 45.9493 162.608 46.2873C163.013 46.6592 163.485 46.9296 164.059 47.1324C164.633 47.3352 165.308 47.4704 166.085 47.4704C167.098 47.4704 167.908 47.2338 168.482 46.7944C169.056 46.3549 169.326 45.7803 169.326 45.0704C169.326 44.4958 169.089 43.9888 168.651 43.5831C168.212 43.1775 167.604 42.9071 166.861 42.7719L163.722 42.1972C161.764 41.8254 160.211 41.0479 159.13 39.831C158.016 38.6141 157.476 37.1606 157.476 35.4366C157.476 34.355 157.712 33.3747 158.151 32.462C158.59 31.5493 159.198 30.7719 159.94 30.1296C160.683 29.4873 161.561 28.9803 162.574 28.6085C163.553 28.2366 164.599 28.0676 165.713 28.0676C167.131 28.0676 168.347 28.2704 169.36 28.6423C170.372 29.0479 171.216 29.5211 171.858 30.1296C172.533 30.738 173.006 31.3803 173.377 32.124C173.715 32.8338 173.951 33.5437 174.086 34.2197L169.562 35.4366Z" fill="black"/>
<path d="M181.682 51.493V28.5071H196.232V33.3409H186.813V37.7352H195.355V42.231H186.813V46.6592H196.266V51.5268H181.682V51.493Z" fill="black"/>
<path d="M69.7336 28.5071V51.493H92.6904V28.5071H69.7336ZM90.6648 40H71.7592V30.5352H90.6648V40Z" fill="black"/>
</g>
<defs>
<clipPath id="clip0_142_430">
<rect width="126.6" height="24" fill="white" transform="translate(69.7 28)"/>
</clipPath>
</defs>
</svg>
